/* XPM */
static char * DejaVuSansMono_Bold_18_24_30_9_xpm[] = {
"18 24 16 1",
" 	c #000200",
".	c #1A1C1A",
"+	c #292A28",
"@	c #353735",
"#	c #4F514E",
"$	c #616360",
"%	c #727471",
"&	c #7F817E",
"*	c #A3A5A1",
"=	c #ACAEAA",
"-	c #BCBEBB",
";	c #C9CBC8",
">	c #D4D6D3",
",	c #E5E7E4",
"'	c #F1F4F0",
")	c #FDFFFC",
"))))))))))))))))))",
")))))>%+  .#=)))))",
"))))&        #')))",
")))&          #)))",
"))>   +*,),*+  *))",
"))$  @')))))'@ .))",
"))+  -)))))))-  -)",
"))   ')))))))'  %)",
"))   ')))))))'  #)",
")).  -)))))))-  +)",
"))$  @')))))'@  .)",
"))-   +=,),=+    )",
")))$         %   )",
")))'$       $;  .)",
")))))-$.  @=)*  @)",
")))))))))))))$  $)",
"))))))))))))'   *)",
"))))))))))))%  .')",
")))))))))))*   &))",
")))+&;'),-#   @)))",
")))          +,)))",
")))         #,))))",
")))>&@.  +$-))))))",
"))))))))))))))))))"};
