/* XPM */
static char * DejaVuSansMono_Bold_18_24_30_7_xpm[] = {
"18 24 16 1",
" 	c #000100",
".	c #050804",
"+	c #161815",
"@	c #191A18",
"#	c #2F312E",
"$	c #343633",
"%	c #525451",
"&	c #6F716E",
"*	c #747673",
"=	c #8F918E",
"-	c #949693",
";	c #B2B4B1",
">	c #D3D5D2",
",	c #EBEEEA",
"'	c #FAFCF9",
")	c #FEFFFC",
"))))))))))))))))))",
"))              ))",
"))             @))",
"))             *))",
"))))))))))),.  >))",
")))))))))))-  $)))",
")))))))))))$  -)))",
"))))))))))>  .,)))",
"))))))))))*  %))))",
")))))))))'+  ;))))",
")))))))));  @'))))",
")))))))))%  *)))))",
")))))))),.  >)))))",
"))))))))=  $))))))",
"))))))))#  -))))))",
")))))))>  .,))))))",
")))))))&  %)))))))",
"))))))'+  ;)))))))",
"))))));  +')))))))",
"))))))%  *))))))))",
"))))),.  >))))))))",
")))))=  $)))))))))",
")))))#  -)))))))))",
"))))))))))))))))))"};
