/* XPM */
static char * DejaVuSansMono_Bold_18_24_30_2_xpm[] = {
"18 24 16 1",
" 	c #000100",
".	c #0E100D",
"+	c #1E1F1D",
"@	c #292A28",
"#	c #3A3B39",
"$	c #60615F",
"%	c #6D6F6C",
"&	c #797B78",
"*	c #8E908D",
"=	c #9FA19E",
"-	c #A9ABA8",
";	c #BCBEBB",
">	c #CACCC9",
",	c #DBDEDA",
"'	c #E3E5E2",
")	c #FDFFFC",
"))))))))))))))))))",
")),=%#+. .#%>)))))",
"))           $))))",
"))            #)))",
"))+$*;,))'=@   *))",
"))))))))))))#  #))",
"))))))))))))>  .))",
")))))))))))))  .))",
")))))))))))),  +))",
"))))))))))))&  $))",
")))))))))))>   >))",
"))))))))))'+  $)))",
")))))))))'@  @')))",
")))))))),+  +'))))",
")))))))>+  +,)))))",
"))))))>.  +,))))))",
")))));.  +,)))))))",
"))))-   +,))))))))",
")))=   +,)))))))))",
"))*   @'))))))))))",
"))              ,)",
"))              ,)",
"))              ,)",
"))))))))))))))))))"};
