/* XPM */
static char * DejaVuSansMono_Bold_18_24_30_0_xpm[] = {
"18 24 16 1",
" 	c #000100",
".	c #10120F",
"+	c #151714",
"@	c #1C1D1B",
"#	c #212320",
"$	c #3F413E",
"%	c #474946",
"&	c #717370",
"*	c #858784",
"=	c #90928F",
"-	c #A3A5A2",
";	c #B5B8B4",
">	c #D8DAD6",
",	c #EEF0EC",
"'	c #F9FBF7",
")	c #FEFFFC",
"))))))))))))))))))",
"))))))-%@ @%-)))))",
")))),$       $,)))",
")))'$         $'))",
")))=   &>'>&   =))",
"))'.  *)))))*  +')",
"));  @')))))'@  ;)",
"))&  &)))))))&  &)",
"))%  ;)))))));  %)",
"))#  >)))))))>  #)",
")).  ,))))))),  .)",
"))   ')))))))'   )",
"))   ')))))))'   )",
")).  ,))))))),  .)",
"))#  >)))))))>  #)",
"))%  ;)))))));  %)",
"))&  &)))))))&  &)",
"));  @')))))'@  ;)",
"))'.  *)))))*  +')",
")))=   &>'>&   =))",
")))'$         $'))",
")))),$       $,)))",
"))))))-%+ +%-)))))",
"))))))))))))))))))"};
