/* XPM */
static char * DejaVuSansMono_Bold_18_24_30_8_xpm[] = {
"18 24 16 1",
" 	c #000200",
".	c #0F110E",
"+	c #171816",
"@	c #292A28",
"#	c #383937",
"$	c #4F514E",
"%	c #5E605D",
"&	c #7F817E",
"*	c #8F918E",
"=	c #949693",
"-	c #AEB0AD",
";	c #B7B9B6",
">	c #D4D6D3",
",	c #DDDFDC",
"'	c #E7EAE6",
")	c #FDFFFC",
"))))))))))))))))))",
")))))'&#. .#&'))))",
"))));.       .;)))",
")))>           >))",
")))%   &,),&   %))",
")))+  =)))))*  +))",
")))   ')))))'   ))",
")))+  ')))))'  +))",
")))%  =)))))*  %))",
"))),. .&,),&  +,))",
")))),#       #,)))",
")))))>$     $>))))",
")))'$         $'))",
"))'@  #-,),-#  @')",
"))&  $)))))))$  &)",
"))@  >)))))))>  @)",
"))   )))))))))   )",
")).  >)))))))>  .)",
"))#  $)))))))$  #)",
"))*   #-,),-#   *)",
")))@           @))",
")))'#         #'))",
")))));%@. .@%;))))",
"))))))))))))))))))"};
