/* XPM */
static char * DejaVuSansMono_Bold_18_24_30_4_xpm[] = {
"18 24 16 1",
" 	c #000100",
".	c #0D0F0B",
"+	c #171917",
"@	c #282927",
"#	c #3C3E3B",
"$	c #454744",
"%	c #515351",
"&	c #646563",
"*	c #7F817E",
"=	c #979996",
"-	c #ABADAA",
";	c #C3C5C2",
">	c #D7D9D6",
",	c #E2E4E1",
"'	c #EDEFEC",
")	c #FEFFFC",
"))))))))))))))))))",
")))))))))>.   ))))",
")))))))))#    ))))",
"))))))))= .   ))))",
"))))))),. =   ))))",
")))))))$ #)   ))))",
"))))))= .>)   ))))",
"))))),. *))   ))))",
")))))% @)))   ))))",
"))))-  ;)))   ))))",
")))'+ &))))   ))))",
")))% +'))))   ))))",
"))-  -)))))   ))))",
")'+ %))))))   ))))",
")& .,))))))   ))))",
")                )",
")                )",
")                )",
")))))))))))   ))))",
")))))))))))   ))))",
")))))))))))   ))))",
")))))))))))   ))))",
")))))))))))   ))))",
"))))))))))))))))))"};
