/* XPM */
static char * VeraMoBd_16_24_30_slash_xpm[] = {
"16 24 16 1",
" 	c #010300",
".	c #1C1E1B",
"+	c #292A28",
"@	c #3B3C3A",
"#	c #4C4E4B",
"$	c #646563",
"%	c #747673",
"&	c #838582",
"*	c #949693",
"=	c #A5A7A4",
"-	c #B7B9B5",
";	c #C6C8C5",
">	c #D1D4D0",
",	c #E0E2DF",
"'	c #F1F3F0",
")	c #FEFFFC",
"))))))))))))))))",
"))))))- +)))))))",
"))))))% %)))))))",
")))))). ;)))))))",
"))))); .))))))))",
")))))% $))))))))",
")))))+ -))))))))",
"))))>  )))))))))",
"))))& $)))))))))",
"))))@ -)))))))))",
"))),  ')))))))))",
")))* #))))))))))",
")))# =))))))))))",
"))'  '))))))))))",
"))= #)))))))))))",
"))# *)))))))))))",
")'  ,)))))))))))",
")= @))))))))))))",
")$ &))))))))))))",
")  >))))))))))))",
"- +)))))))))))))",
"$ %)))))))))))))",
". ;)))))))))))))",
" .))))))))))))))"};
