/* XPM */
static char * VeraMoBd_16_24_30_1_xpm[] = {
"16 24 12 1",
" 	c #000000",
".	c #191919",
"+	c #1E1E1E",
"@	c #4C4C4C",
"#	c #505050",
"$	c #7F7F7F",
"%	c #828282",
"&	c #B2B2B2",
"*	c #B4B4B4",
"=	c #E5E5E5",
"-	c #E6E6E6",
";	c #FFFFFF",
";;;;;;;;;;;;;;;;",
";;;-*%#+   ;;;;;",
";;;        ;;;;;",
";;;        ;;;;;",
";;;.@$&=   ;;;;;",
";;;;;;;;   ;;;;;",
";;;;;;;;   ;;;;;",
";;;;;;;;   ;;;;;",
";;;;;;;;   ;;;;;",
";;;;;;;;   ;;;;;",
";;;;;;;;   ;;;;;",
";;;;;;;;   ;;;;;",
";;;;;;;;   ;;;;;",
";;;;;;;;   ;;;;;",
";;;;;;;;   ;;;;;",
";;;;;;;;   ;;;;;",
";;;;;;;;   ;;;;;",
";;;;;;;;   ;;;;;",
";;;;;;;;   ;;;;;",
";;;;;;;;   ;;;;;",
";;;             ",
";;;             ",
";;;             ",
";;;;;;;;;;;;;;;;"};
