/* XPM */
static char * VeraMoBd_16_24_30_dot_xpm[] = {
"16 24 2 1",
" 	c #000000",
".	c #FFFFFF",
"................",
"................",
"................",
"................",
"................",
"................",
"................",
"................",
"................",
"................",
"................",
"................",
"................",
"................",
"................",
"................",
"................",
"................",
"................",
"...   ..........",
"...   ..........",
"...   ..........",
"...   ..........",
"................"};
