/* XPM */
static char * VeraMoBd_16_24_30_3_xpm[] = {
"16 24 16 1",
" 	c #000200",
".	c #191A18",
"+	c #272826",
"@	c #373936",
"#	c #484947",
"$	c #575956",
"%	c #6D6F6C",
"&	c #818380",
"*	c #90928F",
"=	c #ACAEAB",
"-	c #BDBFBC",
";	c #D4D6D3",
">	c #DDDFDC",
",	c #E8EAE7",
"'	c #F3F5F2",
")	c #FEFFFC",
"))))))))))))))))",
"));*$+  .@*,))))",
"))         .-)))",
"))           >))",
"))+%=>'';%   %))",
"))))))))))&  .))",
")))))))))),   ))",
")))))))))),  .))",
"))))))))))*  $))",
")))))))';&  .>))",
")))))      @>)))",
")))))     #;))))",
")))))       #,))",
"))))))))>=@  +,)",
")))))))))))$  %)",
")))))))))));  .)",
")))))))))))'   )",
")))))))))));  .)",
"))))))))))'#  #)",
")+&->')';*+   =)",
")            $))",
")           &)))",
");*$+   .#&>))))",
"))))))))))))))))"};
