/* XPM */
static char * VeraMoBd_16_24_30_5_xpm[] = {
"16 24 16 1",
" 	c #000100",
".	c #0B0D09",
"+	c #1A1C19",
"@	c #292A28",
"#	c #363835",
"$	c #515350",
"%	c #636562",
"&	c #7D7E7C",
"*	c #8D8F8C",
"=	c #9C9E9B",
"-	c #ADAFAC",
";	c #C7CAC6",
">	c #D6D8D5",
",	c #DDDFDC",
"'	c #F0F2EE",
")	c #FEFFFC",
"))))))))))))))))",
"))           )))",
"))           )))",
"))           )))",
"))   )))))))))))",
"))   )))))))))))",
"))   )))))))))))",
"))   )))))))))))",
"))   )))))))))))",
"))   %+..#&,))))",
"))          *)))",
"))           &))",
"))@*;')';&.   >)",
")))))))))),+  %)",
")))))))))))-  @)",
")))))))))))'  .)",
")))))))))))'  .)",
")))))))))))-  @)",
")))))))))),+  %)",
")@&-,')';&.   >)",
")            *))",
")          .=)))",
")>*$@. .+$*'))))",
"))))))))))))))))"};
