/* XPM */
static char * VeraMoBd_16_24_30_6_xpm[] = {
"16 24 16 1",
" 	c #000200",
".	c #1A1B19",
"+	c #282927",
"@	c #353634",
"#	c #4E504D",
"$	c #646663",
"%	c #747573",
"&	c #7F807E",
"*	c #9EA09D",
"=	c #A7A9A6",
"-	c #B8BAB7",
";	c #C4C6C2",
">	c #D1D4D0",
",	c #E7E9E5",
"'	c #F3F5F1",
")	c #FDFFFC",
"))))))))))))))))",
"))))));$+. .@&>)",
")))),#         )",
"))),+          )",
")))@   #-,),;%+)",
"))&   =)))))))))",
")'.  &))))))))))",
")=   '))))))))))",
")$  $)))))))))))",
")@  *)=@. +$;)))",
").  >$       $))",
")   %         $)",
")    +=,),=+   ;",
").  @')))))'@  $",
").  -)))))))-  +",
")#  ')))))))'   ",
")%  ')))))))'   ",
")-  -)))))))-  +",
")). @')))))'@  $",
"))*  +=,),=+   >",
")))#          &)",
")))'#        &))",
")))))-#.  +%>)))",
"))))))))))))))))"};
