/* XPM */
static char *untitled[] = {
/* columns rows colors chars-per-pixel */
"11 24 16 1",
"  c #010101",
". c #353535",
"X c #464646",
"o c #5A5A5A",
"O c #686868",
"+ c #767676",
"@ c #888888",
"# c #979797",
"$ c #B7B7B7",
"% c #C6C6C6",
"& c gray91",
"* c gray100",
"= c gray100",
"- c gray100",
"; c gray100",
": c gray100",
/* pixels */
"***********",
"***********",
"***********",
"***********",
"***********",
"&$#+. #****",
"O     X****",
"@  .  X****",
"*&**o X****",
"****o X****",
"****o X****",
"****o X****",
"****o X****",
"****o X****",
"****o X****",
"****o X****",
"**&*X .&&**",
"$         %",
"#         %",
"*%%%%%%%%%*",
"***********",
"***********",
"***********",
"***********"
};
