%
M48
M72
T01C0.0150
T02C0.0236
T03C0.0276
T04C0.0360
T05C0.0362
T06C0.0374
T07C0.0394
T08C0.0400
T09C0.0433
T10C0.0531
T11C0.0560
T12C0.0591
T13C0.0630
T14C0.0906
T15C0.1260
%
T01
X17400Y4618
X17400Y6118
X19275Y5368
X21025Y5368
X21650Y5368
X21650Y4618
X21650Y3868
X17400Y8368
X25275Y11993
X26900Y12118
X27150Y10868
X29400Y11618
X28650Y12993
X27400Y13368
X28025Y16118
X28775Y17493
X28900Y18493
X29900Y18618
X30525Y18868
X31650Y18868
X31900Y18493
X31900Y18118
X32150Y16993
X33650Y16868
X35150Y16868
X35900Y16868
X36275Y16868
X36650Y16868
X37025Y16868
X37400Y16868
X37775Y15743
X38025Y15118
X37525Y15118
X37025Y15118
X36650Y15118
X36150Y15118
X35525Y15743
X34150Y14493
X34150Y14118
X35525Y12868
X35900Y12493
X35525Y12243
X35900Y11993
X35525Y11743
X35900Y11493
X35525Y11243
X35900Y10993
X35525Y10743
X37900Y12868
X38400Y12868
X39525Y12868
X40775Y12868
X41275Y12868
X42025Y12743
X42525Y12743
X42775Y12243
X43025Y11868
X43275Y11493
X44025Y11618
X44275Y10993
X44525Y10368
X44775Y9493
X44525Y8243
X43150Y7118
X42275Y8618
X42025Y9868
X40400Y8243
X39525Y8618
X38775Y8243
X37650Y8618
X36775Y8243
X35400Y6868
X32400Y7868
X40650Y4618
X42150Y4618
X43150Y4993
X44900Y4618
X51150Y3868
X53150Y5618
X51650Y7618
X46900Y11368
X46650Y11743
X43775Y12243
X43525Y12743
X44775Y14493
X46900Y16493
X47150Y16868
X47400Y17243
X47650Y17618
X46650Y18243
X46400Y17868
X46150Y17493
X44525Y16993
X44275Y17743
X44025Y18493
X43775Y19243
X41775Y19368
X40650Y18993
X39900Y19243
X40650Y17368
X39775Y16868
X41025Y16618
X40775Y15993
X40400Y14993
X40025Y14743
X40025Y14118
X41025Y14493
X41775Y17243
X36650Y18493
X34525Y19368
X33900Y19368
X33150Y19368
X33525Y20993
X33150Y21368
X34275Y20993
X34650Y21993
X34400Y22493
X34150Y22993
X32400Y24243
X33150Y24743
X33150Y25118
X33525Y25118
X34525Y25868
X35650Y25868
X36900Y25118
X37275Y25868
X36650Y26993
X35400Y27118
X34900Y27118
X34275Y27118
X32900Y27368
X31650Y26243
X31650Y25493
X30525Y25743
X30400Y24618
X31650Y24243
X31650Y23368
X30525Y23368
X29775Y23243
X29650Y23743
X29150Y23493
X29275Y22368
X30150Y21868
X30525Y22243
X31650Y21493
X30589Y20555
X29650Y21243
X29025Y20743
X29025Y20368
X29150Y19993
X29400Y19743
X28650Y19493
X28275Y19493
X27900Y19493
X27525Y19368
X27525Y18993
X27025Y18243
X26400Y18618
X26025Y17493
X24650Y18743
X24025Y18743
X23650Y18743
X23025Y19243
X23025Y19743
X23025Y21243
X23025Y21618
X23400Y21868
X23775Y21618
X24150Y21868
X25900Y20368
X26275Y21743
X26400Y23118
X27400Y24368
X29275Y24993
X29900Y27618
X30900Y29118
X31900Y29118
X31900Y30368
X33150Y31243
X35150Y31993
X35900Y31993
X39025Y30868
X41150Y30118
X43400Y32368
X42900Y32868
X45650Y34618
X46150Y34118
X48150Y34618
X48900Y34618
X49650Y35868
X50150Y36618
X49650Y37118
X49900Y37618
X48400Y37618
X47775Y37368
X47150Y37368
X46900Y38118
X45650Y37868
X44900Y37618
X43900Y36868
X45650Y36618
X44900Y38368
X43400Y39118
X42900Y39118
X43150Y40368
X38775Y35868
X38775Y34868
X42650Y35118
X48150Y33118
X48900Y31618
X48900Y30118
X49650Y30243
X50900Y30118
X52025Y30368
X52400Y30368
X52400Y28868
X52900Y28868
X53400Y28868
X54525Y28868
X54900Y28868
X53650Y27368
X53150Y26618
X54650Y26618
X56150Y26618
X56150Y27368
X57400Y26368
X57900Y26368
X58275Y25993
X57650Y25493
X57650Y25118
X57650Y24743
X58025Y24743
X58025Y24368
X57900Y22618
X57400Y22243
X56150Y21993
X56150Y22618
X56150Y23493
X54650Y22618
X54775Y21868
X54400Y21868
X54025Y21868
X53650Y21868
X53275Y21868
X52900Y21868
X51775Y21868
X51400Y21868
X51025Y21868
X50650Y21868
X50275Y21868
X49900Y21868
X49525Y20618
X49150Y20243
X49900Y20243
X50275Y20243
X50900Y20243
X51150Y19993
X51400Y19743
X50775Y18868
X52650Y18868
X53900Y20118
X54525Y18868
X55150Y21868
X55525Y21868
X52900Y23368
X53900Y24118
X53900Y24493
X54525Y24993
X54400Y25368
X51400Y23368
X49650Y23493
X49150Y22993
X47900Y22993
X47900Y22618
X47900Y22243
X47900Y21868
X48150Y21493
X46150Y22618
X43275Y23493
X43025Y23118
X42775Y22868
X42525Y22493
X41775Y21618
X40650Y21368
X40650Y21868
X40650Y22243
X40650Y22993
X40650Y23493
X40275Y23743
X39900Y23993
X39525Y24243
X40650Y24368
X40650Y23993
X41775Y24118
X41775Y24493
X42275Y24868
X42900Y25618
X42525Y25868
X42275Y26368
X41900Y26868
X41900Y27618
X43275Y26118
X43650Y25868
X43900Y27118
X45150Y26618
X45650Y26618
X45650Y25368
X45150Y25368
X47400Y27118
X47775Y27368
X49150Y25868
X49150Y25493
X49150Y25118
X50650Y25118
X50650Y25868
X50650Y27368
X50650Y28868
X51025Y28868
X51400Y28868
X51775Y28868
X49900Y28868
X48650Y29368
X48275Y29118
X47900Y29493
X47525Y29743
X47525Y30243
X45775Y28493
X50775Y32243
X51275Y32493
X51400Y34368
X50400Y35118
X53525Y31868
X53900Y31868
X54900Y31868
X57400Y29368
X57400Y28993
X57650Y28618
X58025Y28368
X58400Y28243
X58650Y27868
X58150Y27368
X58650Y26868
X59650Y27868
X60275Y28243
X60775Y28243
X61400Y28493
X61900Y28368
X62525Y28118
X62900Y28118
X62900Y28493
X63400Y28493
X64150Y28493
X61900Y26868
X60025Y25618
X59525Y25618
X60525Y24743
X60775Y24118
X61150Y24493
X61400Y22493
X61900Y22493
X62275Y22618
X62400Y20993
X62400Y20493
X61900Y20868
X60400Y20868
X60400Y19993
X59775Y19743
X59150Y19493
X58525Y19243
X61775Y14868
X60650Y12618
X59650Y12618
X59150Y12618
X57525Y11993
X57150Y12618
X55775Y12618
X53900Y14618
X54650Y14868
X51150Y12368
X50650Y11868
X48650Y19118
X43525Y20868
X39150Y22993
X39025Y25118
X40025Y25868
X40650Y25368
X39400Y26930
X38275Y26993
X28650Y20993
X27775Y20118
X23650Y17493
X20900Y17493
X19150Y18993
X18900Y19243
X18650Y19493
X18400Y19743
X17525Y20493
X17025Y20493
X17525Y21493
X17525Y21993
X16150Y21368
X14150Y21868
X12650Y20993
X12150Y20243
X11650Y20243
X10900Y20993
X10025Y20743
X8400Y19368
X7150Y17368
X6150Y17368
X5900Y16118
X5025Y15743
X6400Y14118
X8400Y15368
X9400Y15868
X11650Y15493
X12650Y14743
X12275Y17618
X12275Y18118
X13900Y18118
X14900Y17618
X16150Y17368
X16900Y17618
X16525Y15868
X15525Y19243
X19650Y22993
X20900Y23118
X21650Y22618
X22275Y23368
X18775Y24118
X18775Y25618
X18150Y26368
X17650Y26618
X17150Y26618
X16650Y26618
X15150Y28368
X14650Y28118
X12650Y29243
X11650Y29993
X9150Y31868
X7900Y32118
X6900Y32618
X5275Y32618
X5275Y32118
X4650Y29993
X5650Y29243
X7650Y28118
X8150Y28368
X8400Y26868
X7150Y24868
X6150Y24868
X5900Y23618
X5025Y23243
X6400Y21618
X8400Y22868
X9400Y23368
X5400Y20118
X5400Y19368
X5400Y26868
X5400Y27618
X12275Y32118
X12275Y32618
X13900Y32618
X14900Y32118
X16150Y31868
X15525Y33743
X16150Y35868
X14900Y36368
X14400Y36618
X12650Y35493
X12150Y34743
X11650Y34743
X9150Y35868
X7900Y36368
X7400Y36618
X5650Y35493
X5150Y34743
X4650Y34743
X8525Y33743
X18900Y32618
X18900Y32118
X20650Y32368
X21650Y32368
X21900Y33618
X22775Y33993
X24400Y32618
X24400Y32118
X26150Y32368
X27150Y32368
X27400Y33618
X28275Y33993
X26900Y35618
X24900Y34368
X21400Y35618
X19400Y34368
X19400Y30368
X22400Y30368
X22400Y29618
X23400Y28868
X23775Y28618
X23025Y28368
X22650Y28118
X24400Y27868
X24400Y27368
X24150Y27118
X25150Y27618
X23900Y29868
X24900Y30368
X27900Y30368
X27900Y29618
X32525Y15743
X33025Y15493
X33400Y15493
X30650Y14368
X30400Y14743
X59025Y29368
X58900Y29993
X59275Y30118
X59650Y30243
X60150Y29743
X66900Y36868
X65400Y39368
X63650Y38618
X67150Y42618
X66150Y43368
X65400Y45618
X57400Y41618
X64900Y19743
X64775Y19243
X64650Y18743
X64900Y17868
X64900Y14868
T02
X43650Y30368
X43650Y31618
X44900Y33118
X44400Y35868
X36400Y35868
X36400Y37118
X35900Y27868
X65400Y32118
T03
X63150Y32368
X60150Y33868
X60150Y34868
X57650Y34868
X55400Y36368
X55150Y39368
X55150Y39868
X55150Y40368
X52650Y39618
X51650Y39618
X51900Y32868
X52900Y32868
X53900Y32868
T04
X39150Y5868
X38150Y5868
X38150Y4868
X39150Y4868
X37150Y4868
X36150Y4868
X35150Y4868
X34150Y4868
X33150Y4868
X33150Y5868
X34150Y5868
X35150Y5868
X36150Y5868
X37150Y5868
T05
X47650Y40118
X47650Y40906
X47650Y41693
X47650Y42481
T06
X52158Y42301
X53142Y42301
X53142Y41514
X52158Y41514
T07
X62158Y41368
X63142Y41368
X63142Y40384
X62158Y40384
X62158Y42353
X63142Y42353
T08
X65400Y46368
X65650Y25868
X66650Y25868
X66650Y24868
X65650Y24868
X65650Y23868
X66650Y23868
X66650Y22868
X65650Y22868
X65650Y21868
X65650Y20868
X66650Y20868
X66650Y21868
X66650Y19868
X65650Y19868
X65650Y18868
X66650Y18868
X66650Y17868
X65650Y17868
X65650Y16868
X66650Y16868
X66650Y15868
X65650Y15868
X65650Y14868
X66650Y14868
X66650Y13868
X65650Y13868
X65650Y12868
X66650Y12868
X49650Y5868
X48650Y5868
X48650Y4868
X49650Y4868
X47650Y4868
X46650Y4868
X45650Y4868
X45650Y5868
X46650Y5868
X47650Y5868
X2650Y15368
X1650Y15368
X1650Y16368
X2650Y16368
X2650Y17368
X1650Y17368
X1650Y18368
X2650Y18368
X2650Y19368
X1650Y19368
X1650Y20368
X2650Y20368
X2650Y21368
X1650Y21368
X1650Y22368
X2650Y22368
X2650Y23368
X1650Y23368
T09
X54583Y12542
T10
X48721Y40118
X46579Y40118
X46579Y42874
X48721Y42874
T11
X56650Y42993
X58650Y41868
X58650Y44243
T12
X35804Y43057
X35304Y41805
X35804Y40557
X35304Y39305
X30804Y40557
X30304Y39305
X28804Y40557
X28304Y39305
X28304Y41805
X28804Y43057
X28304Y44305
X28804Y45555
X30304Y44305
X30804Y45555
X31304Y46687
X35804Y45555
X35304Y44305
X30804Y43057
X30304Y41805
X24304Y46687
X23804Y45555
X23304Y44305
X23804Y43057
X23304Y41805
X23804Y40557
X23304Y39305
X21804Y40557
X21304Y39305
X21304Y41805
X21804Y43057
X21304Y44305
X21804Y45555
X17304Y46687
X16804Y45555
X16304Y44305
X14804Y45555
X14304Y44305
X14804Y43057
X14304Y41805
X14804Y40557
X14304Y39305
X16304Y39305
X16804Y40557
X16304Y41805
X16804Y43057
X10304Y46687
X9804Y45555
X9304Y44305
X9804Y43057
X9304Y41805
X9804Y40557
X9304Y39305
X7304Y40498
X7304Y42998
X7304Y45498
X2804Y45498
X2804Y42998
X2804Y40498
X3996Y10238
X3996Y7738
X3996Y5238
X8496Y5238
X10996Y5238
X10996Y7738
X8496Y7738
X8496Y10238
X10996Y10238
X15496Y10238
X15496Y7738
X15496Y5238
T13
X62890Y12542
X43583Y43652
X43583Y45817
X42796Y46762
T14
X50288Y43368
X55012Y43368
T15
X1150Y4368
X1150Y46368
X37650Y46368
X67150Y46368
X67150Y32368
X67150Y4368
M30
