G75*
G70*
%OFA0B0*%
%FSLAX24Y24*%
%IPPOS*%
%LPD*%
%AMOC8*
5,1,8,0,0,1.08239X$1,22.5*
%
%ADD10R,0.0630X0.0787*%
%ADD11C,0.0098*%
%ADD12R,0.0315X0.0354*%
%ADD13R,0.2100X0.0760*%
%ADD14R,0.0354X0.0315*%
%ADD15R,0.0591X0.0157*%
%ADD16R,0.0866X0.0236*%
%ADD17R,0.0551X0.0748*%
%ADD18R,0.0360X0.0850*%
%ADD19R,0.4252X0.4098*%
%ADD20R,0.2165X0.1772*%
%ADD21R,0.0551X0.0709*%
%ADD22R,0.0630X0.1063*%
%ADD23R,0.0480X0.0880*%
%ADD24R,0.1417X0.0866*%
%ADD25R,0.0748X0.0551*%
%ADD26R,0.0472X0.1575*%
%ADD27R,0.0276X0.1575*%
%ADD28R,0.0472X0.1500*%
%ADD29R,0.0787X0.1102*%
%ADD30R,0.0591X0.0591*%
%ADD31R,0.0236X0.0866*%
%ADD32R,0.0880X0.0480*%
%ADD33R,0.0866X0.1417*%
%ADD34R,0.0709X0.0551*%
%ADD35R,0.0866X0.0787*%
%ADD36R,0.0394X0.0551*%
%ADD37C,0.0080*%
%ADD38C,0.0118*%
%ADD39R,0.0157X0.0630*%
%ADD40R,0.1181X0.0630*%
%ADD41R,0.0118X0.0630*%
%ADD42R,0.0630X0.0118*%
%ADD43R,0.0472X0.0472*%
%ADD44R,0.0591X0.0118*%
%ADD45R,0.0354X0.0236*%
%ADD46R,0.0866X0.1024*%
%ADD47R,0.0945X0.1024*%
%ADD48R,0.0236X0.0728*%
%ADD49R,0.0492X0.0453*%
%ADD50R,0.0492X0.0472*%
D10*
X043150Y004305D03*
X043150Y006431D03*
D11*
X040382Y016083D02*
X040382Y016575D01*
X040185Y016575D02*
X040185Y016083D01*
X039989Y016083D02*
X039989Y016575D01*
X039792Y016575D02*
X039792Y016083D01*
X039595Y016083D02*
X039595Y016575D01*
X039398Y016575D02*
X039398Y016083D01*
X039201Y016083D02*
X039201Y016575D01*
X039004Y016575D02*
X039004Y016083D01*
X038807Y016083D02*
X038807Y016575D01*
X038611Y016575D02*
X038611Y016083D01*
X038414Y016083D02*
X038414Y016575D01*
X038217Y016575D02*
X038217Y016083D01*
X038020Y016083D02*
X038020Y016575D01*
X037823Y016575D02*
X037823Y016083D01*
X037626Y016083D02*
X037626Y016575D01*
X037430Y016575D02*
X037430Y016083D01*
X037233Y016083D02*
X037233Y016575D01*
X037036Y016575D02*
X037036Y016083D01*
X036839Y016083D02*
X036839Y016575D01*
X036642Y016575D02*
X036642Y016083D01*
X036445Y016083D02*
X036445Y016575D01*
X036248Y016575D02*
X036248Y016083D01*
X036052Y016083D02*
X036052Y016575D01*
X035855Y016575D02*
X035855Y016083D01*
X035658Y016083D02*
X035658Y016575D01*
X035461Y016575D02*
X035461Y016083D01*
X035264Y016083D02*
X035264Y016575D01*
X035067Y016575D02*
X035067Y016083D01*
X034870Y016083D02*
X034870Y016575D01*
X034674Y016575D02*
X034674Y016083D01*
X034477Y016083D02*
X034477Y016575D01*
X034280Y016575D02*
X034280Y016083D01*
X034083Y016083D02*
X034083Y016575D01*
X033886Y016575D02*
X033886Y016083D01*
X033689Y016083D02*
X033689Y016575D01*
X033493Y016575D02*
X033493Y016083D01*
X033296Y016083D02*
X033296Y016575D01*
X033099Y016575D02*
X033099Y016083D01*
X032902Y016083D02*
X032902Y016575D01*
X032705Y016575D02*
X032705Y016083D01*
X032508Y016083D02*
X032508Y016575D01*
X032311Y016575D02*
X032311Y016083D01*
X032115Y016083D02*
X032115Y016575D01*
X031918Y016575D02*
X031918Y016083D01*
X031357Y017136D02*
X030865Y017136D01*
X030865Y017333D02*
X031357Y017333D01*
X031357Y017530D02*
X030865Y017530D01*
X030865Y017727D02*
X031357Y017727D01*
X031357Y017923D02*
X030865Y017923D01*
X030865Y018120D02*
X031357Y018120D01*
X031357Y018317D02*
X030865Y018317D01*
X030865Y018514D02*
X031357Y018514D01*
X031357Y018711D02*
X030865Y018711D01*
X030865Y018908D02*
X031357Y018908D01*
X031357Y019105D02*
X030865Y019105D01*
X030865Y019301D02*
X031357Y019301D01*
X031357Y019498D02*
X030865Y019498D01*
X030865Y019695D02*
X031357Y019695D01*
X031357Y019892D02*
X030865Y019892D01*
X030865Y020089D02*
X031357Y020089D01*
X031357Y020286D02*
X030865Y020286D01*
X030865Y020483D02*
X031357Y020483D01*
X031357Y020679D02*
X030865Y020679D01*
X030865Y020876D02*
X031357Y020876D01*
X031357Y021073D02*
X030865Y021073D01*
X030865Y021270D02*
X031357Y021270D01*
X031357Y021467D02*
X030865Y021467D01*
X030865Y021664D02*
X031357Y021664D01*
X031357Y021860D02*
X030865Y021860D01*
X030865Y022057D02*
X031357Y022057D01*
X031357Y022254D02*
X030865Y022254D01*
X030865Y022451D02*
X031357Y022451D01*
X031357Y022648D02*
X030865Y022648D01*
X030865Y022845D02*
X031357Y022845D01*
X031357Y023042D02*
X030865Y023042D01*
X030865Y023238D02*
X031357Y023238D01*
X031357Y023435D02*
X030865Y023435D01*
X030865Y023632D02*
X031357Y023632D01*
X031357Y023829D02*
X030865Y023829D01*
X030865Y024026D02*
X031357Y024026D01*
X031357Y024223D02*
X030865Y024223D01*
X030865Y024420D02*
X031357Y024420D01*
X031357Y024616D02*
X030865Y024616D01*
X030865Y024813D02*
X031357Y024813D01*
X031357Y025010D02*
X030865Y025010D01*
X030865Y025207D02*
X031357Y025207D01*
X031357Y025404D02*
X030865Y025404D01*
X030865Y025601D02*
X031357Y025601D01*
X031918Y026162D02*
X031918Y026654D01*
X032115Y026654D02*
X032115Y026162D01*
X032311Y026162D02*
X032311Y026654D01*
X032508Y026654D02*
X032508Y026162D01*
X032705Y026162D02*
X032705Y026654D01*
X032902Y026654D02*
X032902Y026162D01*
X033099Y026162D02*
X033099Y026654D01*
X033296Y026654D02*
X033296Y026162D01*
X033493Y026162D02*
X033493Y026654D01*
X033689Y026654D02*
X033689Y026162D01*
X033886Y026162D02*
X033886Y026654D01*
X034083Y026654D02*
X034083Y026162D01*
X034280Y026162D02*
X034280Y026654D01*
X034477Y026654D02*
X034477Y026162D01*
X034674Y026162D02*
X034674Y026654D01*
X034870Y026654D02*
X034870Y026162D01*
X035067Y026162D02*
X035067Y026654D01*
X035264Y026654D02*
X035264Y026162D01*
X035461Y026162D02*
X035461Y026654D01*
X035658Y026654D02*
X035658Y026162D01*
X035855Y026162D02*
X035855Y026654D01*
X036052Y026654D02*
X036052Y026162D01*
X036248Y026162D02*
X036248Y026654D01*
X036445Y026654D02*
X036445Y026162D01*
X036642Y026162D02*
X036642Y026654D01*
X036839Y026654D02*
X036839Y026162D01*
X037036Y026162D02*
X037036Y026654D01*
X037233Y026654D02*
X037233Y026162D01*
X037430Y026162D02*
X037430Y026654D01*
X037626Y026654D02*
X037626Y026162D01*
X037823Y026162D02*
X037823Y026654D01*
X038020Y026654D02*
X038020Y026162D01*
X038217Y026162D02*
X038217Y026654D01*
X038414Y026654D02*
X038414Y026162D01*
X038611Y026162D02*
X038611Y026654D01*
X038807Y026654D02*
X038807Y026162D01*
X039004Y026162D02*
X039004Y026654D01*
X039201Y026654D02*
X039201Y026162D01*
X039398Y026162D02*
X039398Y026654D01*
X039595Y026654D02*
X039595Y026162D01*
X039792Y026162D02*
X039792Y026654D01*
X039989Y026654D02*
X039989Y026162D01*
X040185Y026162D02*
X040185Y026654D01*
X040382Y026654D02*
X040382Y026162D01*
X040943Y025601D02*
X041435Y025601D01*
X041435Y025404D02*
X040943Y025404D01*
X040943Y025207D02*
X041435Y025207D01*
X041435Y025010D02*
X040943Y025010D01*
X040943Y024813D02*
X041435Y024813D01*
X041435Y024616D02*
X040943Y024616D01*
X040943Y024420D02*
X041435Y024420D01*
X041435Y024223D02*
X040943Y024223D01*
X040943Y024026D02*
X041435Y024026D01*
X041435Y023829D02*
X040943Y023829D01*
X040943Y023632D02*
X041435Y023632D01*
X041435Y023435D02*
X040943Y023435D01*
X040943Y023238D02*
X041435Y023238D01*
X041435Y023042D02*
X040943Y023042D01*
X040943Y022845D02*
X041435Y022845D01*
X041435Y022648D02*
X040943Y022648D01*
X040943Y022451D02*
X041435Y022451D01*
X041435Y022254D02*
X040943Y022254D01*
X040943Y022057D02*
X041435Y022057D01*
X041435Y021860D02*
X040943Y021860D01*
X040943Y021664D02*
X041435Y021664D01*
X041435Y021467D02*
X040943Y021467D01*
X040943Y021270D02*
X041435Y021270D01*
X041435Y021073D02*
X040943Y021073D01*
X040943Y020876D02*
X041435Y020876D01*
X041435Y020679D02*
X040943Y020679D01*
X040943Y020483D02*
X041435Y020483D01*
X041435Y020286D02*
X040943Y020286D01*
X040943Y020089D02*
X041435Y020089D01*
X041435Y019892D02*
X040943Y019892D01*
X040943Y019695D02*
X041435Y019695D01*
X041435Y019498D02*
X040943Y019498D01*
X040943Y019301D02*
X041435Y019301D01*
X041435Y019105D02*
X040943Y019105D01*
X040943Y018908D02*
X041435Y018908D01*
X041435Y018711D02*
X040943Y018711D01*
X040943Y018514D02*
X041435Y018514D01*
X041435Y018317D02*
X040943Y018317D01*
X040943Y018120D02*
X041435Y018120D01*
X041435Y017923D02*
X040943Y017923D01*
X040943Y017727D02*
X041435Y017727D01*
X041435Y017530D02*
X040943Y017530D01*
X040943Y017333D02*
X041435Y017333D01*
X041435Y017136D02*
X040943Y017136D01*
X048231Y021923D02*
X048723Y021923D01*
X048723Y022120D02*
X048231Y022120D01*
X048231Y022317D02*
X048723Y022317D01*
X048723Y022514D02*
X048231Y022514D01*
X048231Y022711D02*
X048723Y022711D01*
X048723Y022908D02*
X048231Y022908D01*
X048231Y023105D02*
X048723Y023105D01*
X048723Y023301D02*
X048231Y023301D01*
X048231Y023498D02*
X048723Y023498D01*
X048723Y023695D02*
X048231Y023695D01*
X048231Y023892D02*
X048723Y023892D01*
X048723Y024089D02*
X048231Y024089D01*
X048231Y024286D02*
X048723Y024286D01*
X048723Y024483D02*
X048231Y024483D01*
X048231Y024679D02*
X048723Y024679D01*
X048723Y024876D02*
X048231Y024876D01*
X048231Y025073D02*
X048723Y025073D01*
X048723Y025270D02*
X048231Y025270D01*
X048231Y025467D02*
X048723Y025467D01*
X048723Y025664D02*
X048231Y025664D01*
X048231Y025860D02*
X048723Y025860D01*
X048723Y026057D02*
X048231Y026057D01*
X048231Y026254D02*
X048723Y026254D01*
X048723Y026451D02*
X048231Y026451D01*
X048231Y026648D02*
X048723Y026648D01*
X048723Y026845D02*
X048231Y026845D01*
X048231Y027042D02*
X048723Y027042D01*
X048723Y027238D02*
X048231Y027238D01*
X048231Y027435D02*
X048723Y027435D01*
X048723Y027632D02*
X048231Y027632D01*
X048231Y027829D02*
X048723Y027829D01*
X048723Y028026D02*
X048231Y028026D01*
X048231Y028223D02*
X048723Y028223D01*
X048723Y028420D02*
X048231Y028420D01*
X048231Y028616D02*
X048723Y028616D01*
X048723Y028813D02*
X048231Y028813D01*
X049205Y029296D02*
X049205Y029788D01*
X049402Y029788D02*
X049402Y029296D01*
X049599Y029296D02*
X049599Y029788D01*
X049796Y029788D02*
X049796Y029296D01*
X049993Y029296D02*
X049993Y029788D01*
X050189Y029788D02*
X050189Y029296D01*
X050386Y029296D02*
X050386Y029788D01*
X050583Y029788D02*
X050583Y029296D01*
X050780Y029296D02*
X050780Y029788D01*
X050977Y029788D02*
X050977Y029296D01*
X051174Y029296D02*
X051174Y029788D01*
X051370Y029788D02*
X051370Y029296D01*
X051567Y029296D02*
X051567Y029788D01*
X051764Y029788D02*
X051764Y029296D01*
X051961Y029296D02*
X051961Y029788D01*
X052158Y029788D02*
X052158Y029296D01*
X052355Y029296D02*
X052355Y029788D01*
X052552Y029788D02*
X052552Y029296D01*
X052748Y029296D02*
X052748Y029788D01*
X052945Y029788D02*
X052945Y029296D01*
X053142Y029296D02*
X053142Y029788D01*
X053339Y029788D02*
X053339Y029296D01*
X053536Y029296D02*
X053536Y029788D01*
X053733Y029788D02*
X053733Y029296D01*
X053930Y029296D02*
X053930Y029788D01*
X054126Y029788D02*
X054126Y029296D01*
X054323Y029296D02*
X054323Y029788D01*
X054520Y029788D02*
X054520Y029296D01*
X054717Y029296D02*
X054717Y029788D01*
X054914Y029788D02*
X054914Y029296D01*
X055111Y029296D02*
X055111Y029788D01*
X055307Y029788D02*
X055307Y029296D01*
X055504Y029296D02*
X055504Y029788D01*
X055701Y029788D02*
X055701Y029296D01*
X055898Y029296D02*
X055898Y029788D01*
X056095Y029788D02*
X056095Y029296D01*
X056577Y028813D02*
X057069Y028813D01*
X057069Y028616D02*
X056577Y028616D01*
X056577Y028420D02*
X057069Y028420D01*
X057069Y028223D02*
X056577Y028223D01*
X056577Y028026D02*
X057069Y028026D01*
X057069Y027829D02*
X056577Y027829D01*
X056577Y027632D02*
X057069Y027632D01*
X057069Y027435D02*
X056577Y027435D01*
X056577Y027238D02*
X057069Y027238D01*
X057069Y027042D02*
X056577Y027042D01*
X056577Y026845D02*
X057069Y026845D01*
X057069Y026648D02*
X056577Y026648D01*
X056577Y026451D02*
X057069Y026451D01*
X057069Y026254D02*
X056577Y026254D01*
X056577Y026057D02*
X057069Y026057D01*
X057069Y025860D02*
X056577Y025860D01*
X056577Y025664D02*
X057069Y025664D01*
X057069Y025467D02*
X056577Y025467D01*
X056577Y025270D02*
X057069Y025270D01*
X057069Y025073D02*
X056577Y025073D01*
X056577Y024876D02*
X057069Y024876D01*
X057069Y024679D02*
X056577Y024679D01*
X056577Y024483D02*
X057069Y024483D01*
X057069Y024286D02*
X056577Y024286D01*
X056577Y024089D02*
X057069Y024089D01*
X057069Y023892D02*
X056577Y023892D01*
X056577Y023695D02*
X057069Y023695D01*
X057069Y023498D02*
X056577Y023498D01*
X056577Y023301D02*
X057069Y023301D01*
X057069Y023105D02*
X056577Y023105D01*
X056577Y022908D02*
X057069Y022908D01*
X057069Y022711D02*
X056577Y022711D01*
X056577Y022514D02*
X057069Y022514D01*
X057069Y022317D02*
X056577Y022317D01*
X056577Y022120D02*
X057069Y022120D01*
X057069Y021923D02*
X056577Y021923D01*
X056095Y021441D02*
X056095Y020949D01*
X055898Y020949D02*
X055898Y021441D01*
X055701Y021441D02*
X055701Y020949D01*
X055504Y020949D02*
X055504Y021441D01*
X055307Y021441D02*
X055307Y020949D01*
X055111Y020949D02*
X055111Y021441D01*
X054914Y021441D02*
X054914Y020949D01*
X054717Y020949D02*
X054717Y021441D01*
X054520Y021441D02*
X054520Y020949D01*
X054323Y020949D02*
X054323Y021441D01*
X054126Y021441D02*
X054126Y020949D01*
X053930Y020949D02*
X053930Y021441D01*
X053733Y021441D02*
X053733Y020949D01*
X053536Y020949D02*
X053536Y021441D01*
X053339Y021441D02*
X053339Y020949D01*
X053142Y020949D02*
X053142Y021441D01*
X052945Y021441D02*
X052945Y020949D01*
X052748Y020949D02*
X052748Y021441D01*
X052552Y021441D02*
X052552Y020949D01*
X052355Y020949D02*
X052355Y021441D01*
X052158Y021441D02*
X052158Y020949D01*
X051961Y020949D02*
X051961Y021441D01*
X051764Y021441D02*
X051764Y020949D01*
X051567Y020949D02*
X051567Y021441D01*
X051370Y021441D02*
X051370Y020949D01*
X051174Y020949D02*
X051174Y021441D01*
X050977Y021441D02*
X050977Y020949D01*
X050780Y020949D02*
X050780Y021441D01*
X050583Y021441D02*
X050583Y020949D01*
X050386Y020949D02*
X050386Y021441D01*
X050189Y021441D02*
X050189Y020949D01*
X049993Y020949D02*
X049993Y021441D01*
X049796Y021441D02*
X049796Y020949D01*
X049599Y020949D02*
X049599Y021441D01*
X049402Y021441D02*
X049402Y020949D01*
X049205Y020949D02*
X049205Y021441D01*
D12*
X033650Y014918D03*
X033650Y014318D03*
X032900Y014318D03*
X032900Y014918D03*
X035400Y007918D03*
X035400Y007318D03*
X033900Y007418D03*
X033900Y006818D03*
X033150Y006818D03*
X033150Y007418D03*
X032400Y007418D03*
X032400Y006818D03*
X040650Y005668D03*
X040650Y005068D03*
X044400Y004918D03*
X044400Y004318D03*
X044400Y005818D03*
X044400Y006418D03*
X021650Y017943D03*
X021650Y018543D03*
X020900Y018543D03*
X020900Y017943D03*
X021650Y021568D03*
X021650Y022168D03*
X018775Y024568D03*
X018775Y025168D03*
X016150Y029318D03*
X016150Y029918D03*
X016150Y030818D03*
X016150Y031418D03*
X016150Y033318D03*
X016150Y033918D03*
X016150Y034818D03*
X016150Y035418D03*
X012650Y035043D03*
X012650Y034443D03*
X012650Y033543D03*
X012650Y032943D03*
X012650Y031793D03*
X012650Y031193D03*
X012650Y030293D03*
X012650Y029693D03*
X009150Y029918D03*
X009150Y029318D03*
X009150Y030818D03*
X009150Y031418D03*
X009150Y033318D03*
X009150Y033918D03*
X009150Y034818D03*
X009150Y035418D03*
X005650Y035043D03*
X005650Y034443D03*
X005650Y033543D03*
X005650Y032943D03*
X005650Y031793D03*
X005650Y031193D03*
X005650Y030293D03*
X005650Y029693D03*
X005025Y022793D03*
X005025Y022193D03*
X012650Y020543D03*
X012650Y019943D03*
X012650Y019043D03*
X012650Y018443D03*
X012650Y017293D03*
X012650Y016693D03*
X012650Y015793D03*
X012650Y015193D03*
X016150Y015418D03*
X016150Y014818D03*
X016150Y016318D03*
X016150Y016918D03*
X016150Y018818D03*
X016150Y019418D03*
X016150Y020318D03*
X016150Y020918D03*
X005025Y015293D03*
X005025Y014693D03*
X022775Y034443D03*
X022775Y035043D03*
X028275Y035043D03*
X028275Y034443D03*
X035150Y034668D03*
X035900Y034668D03*
X035900Y034068D03*
X035150Y034068D03*
X051900Y034043D03*
X051900Y033443D03*
X052900Y033443D03*
X052900Y034043D03*
X053900Y034043D03*
X053900Y033443D03*
D13*
X054525Y017868D03*
X050775Y017868D03*
D14*
X017850Y004618D03*
X018450Y004618D03*
X018450Y005368D03*
X017850Y005368D03*
X017850Y006118D03*
X018450Y006118D03*
X018450Y006868D03*
X017850Y006868D03*
X017850Y007618D03*
X018450Y007618D03*
X018450Y008368D03*
X017850Y008368D03*
X015325Y014368D03*
X014725Y014368D03*
X014725Y015118D03*
X015325Y015118D03*
X015325Y015868D03*
X014725Y015868D03*
X013950Y015868D03*
X013350Y015868D03*
X013350Y015118D03*
X013950Y015118D03*
X013950Y014368D03*
X013350Y014368D03*
X007950Y014618D03*
X007350Y014618D03*
X006450Y014618D03*
X005850Y014618D03*
X005850Y015368D03*
X006450Y015368D03*
X007350Y015368D03*
X007950Y015368D03*
X007950Y019368D03*
X007350Y019368D03*
X007350Y020118D03*
X007950Y020118D03*
X006450Y020118D03*
X005850Y020118D03*
X005850Y019368D03*
X006450Y019368D03*
X006450Y022118D03*
X005850Y022118D03*
X005850Y022868D03*
X006450Y022868D03*
X007350Y022868D03*
X007950Y022868D03*
X007950Y022118D03*
X007350Y022118D03*
X013350Y021368D03*
X013950Y021368D03*
X013950Y020618D03*
X013350Y020618D03*
X013350Y019868D03*
X013950Y019868D03*
X014725Y019868D03*
X015325Y019868D03*
X015325Y020618D03*
X014725Y020618D03*
X014725Y021368D03*
X015325Y021368D03*
X020975Y017118D03*
X021575Y017118D03*
X027725Y018493D03*
X028325Y018493D03*
X023325Y023368D03*
X022725Y023368D03*
X026350Y024368D03*
X026950Y024368D03*
X034350Y027868D03*
X034950Y027868D03*
X041600Y030618D03*
X042200Y030618D03*
X042200Y031368D03*
X041600Y031368D03*
X042225Y032118D03*
X042825Y032118D03*
X042200Y032868D03*
X041600Y032868D03*
X042850Y036868D03*
X043450Y036868D03*
X043600Y039868D03*
X044200Y039868D03*
X042700Y039868D03*
X042100Y039868D03*
X027450Y035118D03*
X026850Y035118D03*
X026850Y034368D03*
X027450Y034368D03*
X025950Y034368D03*
X025350Y034368D03*
X025350Y035118D03*
X025950Y035118D03*
X021950Y035118D03*
X021350Y035118D03*
X020450Y035118D03*
X019850Y035118D03*
X019850Y034368D03*
X020450Y034368D03*
X021350Y034368D03*
X021950Y034368D03*
X021950Y030368D03*
X021350Y030368D03*
X021350Y029618D03*
X021950Y029618D03*
X020450Y029618D03*
X019850Y029618D03*
X019850Y030368D03*
X020450Y030368D03*
X025350Y030368D03*
X025950Y030368D03*
X025950Y029618D03*
X025350Y029618D03*
X026850Y029618D03*
X027450Y029618D03*
X027450Y030368D03*
X026850Y030368D03*
X015325Y030368D03*
X014725Y030368D03*
X014725Y029618D03*
X015325Y029618D03*
X015325Y028868D03*
X014725Y028868D03*
X013950Y028868D03*
X013350Y028868D03*
X013350Y029618D03*
X013950Y029618D03*
X013950Y030368D03*
X013350Y030368D03*
X008325Y030368D03*
X007725Y030368D03*
X007725Y029618D03*
X008325Y029618D03*
X008325Y028868D03*
X007725Y028868D03*
X006950Y028868D03*
X006350Y028868D03*
X006350Y029618D03*
X006950Y029618D03*
X006950Y030368D03*
X006350Y030368D03*
X006450Y027618D03*
X005850Y027618D03*
X005850Y026868D03*
X006450Y026868D03*
X007350Y026868D03*
X007950Y026868D03*
X007950Y027618D03*
X007350Y027618D03*
X007725Y034368D03*
X008325Y034368D03*
X008325Y035118D03*
X007725Y035118D03*
X007725Y035868D03*
X008325Y035868D03*
X006950Y035868D03*
X006350Y035868D03*
X006350Y035118D03*
X006950Y035118D03*
X006950Y034368D03*
X006350Y034368D03*
X013350Y034368D03*
X013950Y034368D03*
X014725Y034368D03*
X015325Y034368D03*
X015325Y035118D03*
X014725Y035118D03*
X014725Y035868D03*
X015325Y035868D03*
X013950Y035868D03*
X013350Y035868D03*
X013350Y035118D03*
X013950Y035118D03*
X052100Y011368D03*
X052700Y011368D03*
X052700Y010618D03*
X052100Y010618D03*
X052100Y009868D03*
X052700Y009868D03*
X052700Y009118D03*
X052100Y009118D03*
X052100Y008368D03*
X052700Y008368D03*
X052700Y007618D03*
X052100Y007618D03*
X046450Y006868D03*
X045850Y006868D03*
D15*
X046223Y035455D03*
X046223Y035711D03*
X046223Y035967D03*
X046223Y036223D03*
X046223Y036479D03*
X046223Y036734D03*
X046223Y036990D03*
X046223Y037246D03*
X046223Y037502D03*
X046223Y037758D03*
X046223Y038014D03*
X046223Y038270D03*
X046223Y038526D03*
X046223Y038782D03*
X049077Y038782D03*
X049077Y038526D03*
X049077Y038270D03*
X049077Y038014D03*
X049077Y037758D03*
X049077Y037502D03*
X049077Y037246D03*
X049077Y036990D03*
X049077Y036734D03*
X049077Y036479D03*
X049077Y036223D03*
X049077Y035967D03*
X049077Y035711D03*
X049077Y035455D03*
D16*
X044174Y037618D03*
X044174Y038118D03*
X044174Y038618D03*
X044174Y039118D03*
X042126Y039118D03*
X042126Y038618D03*
X042126Y038118D03*
X042126Y037618D03*
D17*
X042650Y035868D03*
X043650Y035868D03*
X023525Y024368D03*
X022525Y024368D03*
D18*
X056150Y035618D03*
X056650Y035618D03*
X057150Y035618D03*
X057650Y035618D03*
X058150Y035618D03*
X058650Y035618D03*
X059150Y035618D03*
D19*
X057650Y038868D03*
D20*
X063150Y037140D03*
X063150Y033597D03*
D21*
X057150Y033868D03*
X056150Y033868D03*
X052650Y038743D03*
X051650Y038743D03*
X038150Y037118D03*
X037150Y037118D03*
X037150Y035868D03*
X038150Y035868D03*
D22*
X058350Y033868D03*
X059450Y033868D03*
D23*
X053810Y037463D03*
X052900Y037463D03*
X051990Y037463D03*
D24*
X052900Y035023D03*
D25*
X053900Y038743D03*
X053900Y039743D03*
X040650Y035868D03*
X040650Y034868D03*
X040650Y033368D03*
X040650Y032368D03*
X035525Y035993D03*
X035525Y036993D03*
X020650Y022368D03*
X020650Y021368D03*
X011650Y019618D03*
X011650Y018618D03*
X011650Y017118D03*
X011650Y016118D03*
X011650Y030618D03*
X011650Y031618D03*
X011650Y033118D03*
X011650Y034118D03*
X004650Y034118D03*
X004650Y033118D03*
X004650Y031618D03*
X004650Y030618D03*
D26*
X055961Y013723D03*
X056945Y013723D03*
X057930Y013723D03*
X058914Y013723D03*
X059898Y013723D03*
X060882Y013723D03*
X061867Y013723D03*
D27*
X055331Y013723D03*
X054819Y013723D03*
X054347Y013723D03*
D28*
X062851Y013723D03*
D29*
X063756Y013014D03*
X053678Y012975D03*
X053717Y004786D03*
X064701Y004786D03*
D30*
X041650Y004679D03*
X041650Y006057D03*
D31*
X020900Y023845D03*
X020400Y023845D03*
X019900Y023845D03*
X019400Y023845D03*
X019400Y025892D03*
X019900Y025892D03*
X020400Y025892D03*
X020900Y025892D03*
X020900Y031345D03*
X020400Y031345D03*
X019900Y031345D03*
X021400Y031345D03*
X021400Y033392D03*
X020900Y033392D03*
X020400Y033392D03*
X019900Y033392D03*
X014900Y033392D03*
X014400Y033392D03*
X013900Y033392D03*
X013400Y033392D03*
X013400Y031345D03*
X013900Y031345D03*
X014400Y031345D03*
X014900Y031345D03*
X007900Y031345D03*
X007400Y031345D03*
X006900Y031345D03*
X006400Y031345D03*
X006400Y033392D03*
X006900Y033392D03*
X007400Y033392D03*
X007900Y033392D03*
X007900Y025892D03*
X007400Y025892D03*
X006900Y025892D03*
X006400Y025892D03*
X006400Y023845D03*
X006900Y023845D03*
X007400Y023845D03*
X007900Y023845D03*
X013400Y018892D03*
X013900Y018892D03*
X014400Y018892D03*
X014900Y018892D03*
X014900Y016845D03*
X014400Y016845D03*
X013900Y016845D03*
X013400Y016845D03*
X007900Y016345D03*
X007400Y016345D03*
X006900Y016345D03*
X006400Y016345D03*
X006400Y018392D03*
X006900Y018392D03*
X007400Y018392D03*
X007900Y018392D03*
X025400Y031345D03*
X025900Y031345D03*
X026400Y031345D03*
X026900Y031345D03*
X026900Y033392D03*
X026400Y033392D03*
X025900Y033392D03*
X025400Y033392D03*
X039150Y029642D03*
X039650Y029642D03*
X040150Y029642D03*
X040650Y029642D03*
X040650Y027595D03*
X040150Y027595D03*
X039650Y027595D03*
X039150Y027595D03*
D32*
X039370Y031958D03*
X039370Y032868D03*
X039370Y033778D03*
D33*
X036930Y032868D03*
D34*
X039400Y034868D03*
X039400Y035868D03*
X027900Y032868D03*
X027900Y031868D03*
X022400Y031868D03*
X022400Y032868D03*
X005400Y025368D03*
X005400Y024368D03*
X005400Y017868D03*
X005400Y016868D03*
D35*
X033150Y029218D03*
X033150Y030518D03*
D36*
X037776Y030801D03*
X038524Y030801D03*
X038150Y029935D03*
D37*
X037028Y029901D02*
X036758Y029901D01*
X036758Y029950D02*
X036733Y030111D01*
X036685Y030267D01*
X036614Y030415D01*
X036522Y030550D01*
X036411Y030669D01*
X036284Y030771D01*
X036142Y030853D01*
X036142Y031246D01*
X037028Y031246D01*
X037028Y028490D01*
X036142Y028490D01*
X036142Y028884D01*
X036284Y028966D01*
X036411Y029067D01*
X036522Y029187D01*
X036614Y029322D01*
X036685Y029469D01*
X036733Y029625D01*
X036758Y029787D01*
X036758Y029950D01*
X036753Y029980D02*
X037028Y029980D01*
X037028Y030058D02*
X036741Y030058D01*
X036726Y030137D02*
X037028Y030137D01*
X037028Y030215D02*
X036701Y030215D01*
X036672Y030294D02*
X037028Y030294D01*
X037028Y030372D02*
X036635Y030372D01*
X036590Y030451D02*
X037028Y030451D01*
X037028Y030529D02*
X036536Y030529D01*
X036468Y030608D02*
X037028Y030608D01*
X037028Y030686D02*
X036390Y030686D01*
X036291Y030765D02*
X037028Y030765D01*
X037028Y030843D02*
X036158Y030843D01*
X036142Y030922D02*
X037028Y030922D01*
X037028Y031000D02*
X036142Y031000D01*
X036142Y031079D02*
X037028Y031079D01*
X037028Y031157D02*
X036142Y031157D01*
X036142Y031236D02*
X037028Y031236D01*
X037028Y029823D02*
X036758Y029823D01*
X036751Y029744D02*
X037028Y029744D01*
X037028Y029666D02*
X036739Y029666D01*
X036722Y029587D02*
X037028Y029587D01*
X037028Y029509D02*
X036697Y029509D01*
X036667Y029430D02*
X037028Y029430D01*
X037028Y029352D02*
X036629Y029352D01*
X036581Y029273D02*
X037028Y029273D01*
X037028Y029195D02*
X036528Y029195D01*
X036457Y029116D02*
X037028Y029116D01*
X037028Y029038D02*
X036374Y029038D01*
X036273Y028959D02*
X037028Y028959D01*
X037028Y028881D02*
X036142Y028881D01*
X036142Y028802D02*
X037028Y028802D01*
X037028Y028724D02*
X036142Y028724D01*
X036142Y028645D02*
X037028Y028645D01*
X037028Y028567D02*
X036142Y028567D01*
X035158Y028567D02*
X034272Y028567D01*
X034272Y028490D02*
X035158Y028490D01*
X035158Y028884D01*
X035021Y028957D01*
X034896Y029049D01*
X034786Y029158D01*
X034692Y029281D01*
X034617Y029417D01*
X034563Y029562D01*
X034529Y029714D01*
X034518Y029868D01*
X034529Y030023D01*
X034563Y030174D01*
X034617Y030320D01*
X034692Y030455D01*
X034786Y030579D01*
X034896Y030688D01*
X035021Y030780D01*
X035158Y030853D01*
X035158Y031246D01*
X034272Y031246D01*
X034272Y028490D01*
X034272Y028645D02*
X035158Y028645D01*
X035158Y028724D02*
X034272Y028724D01*
X034272Y028802D02*
X035158Y028802D01*
X035158Y028881D02*
X034272Y028881D01*
X034272Y028959D02*
X035018Y028959D01*
X034911Y029038D02*
X034272Y029038D01*
X034272Y029116D02*
X034828Y029116D01*
X034758Y029195D02*
X034272Y029195D01*
X034272Y029273D02*
X034698Y029273D01*
X034653Y029352D02*
X034272Y029352D01*
X034272Y029430D02*
X034612Y029430D01*
X034583Y029509D02*
X034272Y029509D01*
X034272Y029587D02*
X034557Y029587D01*
X034540Y029666D02*
X034272Y029666D01*
X034272Y029744D02*
X034527Y029744D01*
X034521Y029823D02*
X034272Y029823D01*
X034272Y029901D02*
X034521Y029901D01*
X034526Y029980D02*
X034272Y029980D01*
X034272Y030058D02*
X034537Y030058D01*
X034554Y030137D02*
X034272Y030137D01*
X034272Y030215D02*
X034578Y030215D01*
X034608Y030294D02*
X034272Y030294D01*
X034272Y030372D02*
X034646Y030372D01*
X034690Y030451D02*
X034272Y030451D01*
X034272Y030529D02*
X034748Y030529D01*
X034815Y030608D02*
X034272Y030608D01*
X034272Y030686D02*
X034895Y030686D01*
X035001Y030765D02*
X034272Y030765D01*
X034272Y030843D02*
X035141Y030843D01*
X035158Y030922D02*
X034272Y030922D01*
X034272Y031000D02*
X035158Y031000D01*
X035158Y031079D02*
X034272Y031079D01*
X034272Y031157D02*
X035158Y031157D01*
X035158Y031236D02*
X034272Y031236D01*
D38*
X032175Y028355D02*
X031625Y028355D01*
X031625Y028827D01*
X032175Y028827D01*
X032175Y028355D01*
X032175Y028472D02*
X031625Y028472D01*
X031625Y028589D02*
X032175Y028589D01*
X032175Y028706D02*
X031625Y028706D01*
X031625Y028823D02*
X032175Y028823D01*
X032175Y027410D02*
X031625Y027410D01*
X031625Y027882D01*
X032175Y027882D01*
X032175Y027410D01*
X032175Y027527D02*
X031625Y027527D01*
X031625Y027644D02*
X032175Y027644D01*
X032175Y027761D02*
X031625Y027761D01*
X031625Y027878D02*
X032175Y027878D01*
X031175Y027882D02*
X030625Y027882D01*
X031175Y027882D02*
X031175Y027410D01*
X030625Y027410D01*
X030625Y027882D01*
X030625Y027527D02*
X031175Y027527D01*
X031175Y027644D02*
X030625Y027644D01*
X030625Y027761D02*
X031175Y027761D01*
X031175Y027878D02*
X030625Y027878D01*
X030625Y028355D02*
X031175Y028355D01*
X030625Y028355D02*
X030625Y028827D01*
X031175Y028827D01*
X031175Y028355D01*
X031175Y028472D02*
X030625Y028472D01*
X030625Y028589D02*
X031175Y028589D01*
X031175Y028706D02*
X030625Y028706D01*
X030625Y028823D02*
X031175Y028823D01*
X028300Y017355D02*
X027750Y017355D01*
X027750Y017827D01*
X028300Y017827D01*
X028300Y017355D01*
X028300Y017472D02*
X027750Y017472D01*
X027750Y017589D02*
X028300Y017589D01*
X028300Y017706D02*
X027750Y017706D01*
X027750Y017823D02*
X028300Y017823D01*
X027300Y017355D02*
X026750Y017355D01*
X026750Y017827D01*
X027300Y017827D01*
X027300Y017355D01*
X027300Y017472D02*
X026750Y017472D01*
X026750Y017589D02*
X027300Y017589D01*
X027300Y017706D02*
X026750Y017706D01*
X026750Y017823D02*
X027300Y017823D01*
X027300Y016882D02*
X026750Y016882D01*
X027300Y016882D02*
X027300Y016410D01*
X026750Y016410D01*
X026750Y016882D01*
X026750Y016527D02*
X027300Y016527D01*
X027300Y016644D02*
X026750Y016644D01*
X026750Y016761D02*
X027300Y016761D01*
X027300Y016878D02*
X026750Y016878D01*
X027750Y016410D02*
X028300Y016410D01*
X027750Y016410D02*
X027750Y016882D01*
X028300Y016882D01*
X028300Y016410D01*
X028300Y016527D02*
X027750Y016527D01*
X027750Y016644D02*
X028300Y016644D01*
X028300Y016761D02*
X027750Y016761D01*
X027750Y016878D02*
X028300Y016878D01*
D39*
X036056Y013514D03*
X036370Y013514D03*
X036685Y013514D03*
X037000Y013514D03*
X037315Y013514D03*
X037630Y013514D03*
X037945Y013514D03*
X038260Y013514D03*
X038575Y013514D03*
X038890Y013514D03*
X039205Y013514D03*
X039520Y013514D03*
X039835Y013514D03*
X040150Y013514D03*
X040465Y013514D03*
X040780Y013514D03*
X041095Y013514D03*
X041410Y013514D03*
X041725Y013514D03*
X042040Y013514D03*
X042355Y013514D03*
X042670Y013514D03*
X042985Y013514D03*
X043300Y013514D03*
X043615Y013514D03*
X043930Y013514D03*
X044244Y013514D03*
X044244Y009223D03*
X043930Y009223D03*
X043615Y009223D03*
X043300Y009223D03*
X042985Y009223D03*
X042670Y009223D03*
X042355Y009223D03*
X042040Y009223D03*
X041725Y009223D03*
X041410Y009223D03*
X041095Y009223D03*
X040780Y009223D03*
X040465Y009223D03*
X040150Y009223D03*
X039835Y009223D03*
X039520Y009223D03*
X039205Y009223D03*
X038890Y009223D03*
X038575Y009223D03*
X038260Y009223D03*
X037945Y009223D03*
X037630Y009223D03*
X037315Y009223D03*
X037000Y009223D03*
X036685Y009223D03*
X036370Y009223D03*
X036056Y009223D03*
D40*
X041900Y028218D03*
X041900Y029518D03*
D41*
X026126Y022573D03*
X025930Y022573D03*
X025733Y022573D03*
X025536Y022573D03*
X025339Y022573D03*
X025142Y022573D03*
X024945Y022573D03*
X024748Y022573D03*
X024552Y022573D03*
X024355Y022573D03*
X024158Y022573D03*
X023961Y022573D03*
X023764Y022573D03*
X023567Y022573D03*
X023370Y022573D03*
X023174Y022573D03*
X023174Y018164D03*
X023370Y018164D03*
X023567Y018164D03*
X023764Y018164D03*
X023961Y018164D03*
X024158Y018164D03*
X024355Y018164D03*
X024552Y018164D03*
X024748Y018164D03*
X024945Y018164D03*
X025142Y018164D03*
X025339Y018164D03*
X025536Y018164D03*
X025733Y018164D03*
X025930Y018164D03*
X026126Y018164D03*
X059886Y021589D03*
X060083Y021589D03*
X060280Y021589D03*
X060477Y021589D03*
X060674Y021589D03*
X060870Y021589D03*
X061067Y021589D03*
X061264Y021589D03*
X061461Y021589D03*
X061658Y021589D03*
X061855Y021589D03*
X062052Y021589D03*
X062248Y021589D03*
X062445Y021589D03*
X062642Y021589D03*
X062839Y021589D03*
X063036Y021589D03*
X063233Y021589D03*
X063430Y021589D03*
X063626Y021589D03*
X063823Y021589D03*
X064020Y021589D03*
X064217Y021589D03*
X064414Y021589D03*
X064414Y029148D03*
X064217Y029148D03*
X064020Y029148D03*
X063823Y029148D03*
X063626Y029148D03*
X063430Y029148D03*
X063233Y029148D03*
X063036Y029148D03*
X062839Y029148D03*
X062642Y029148D03*
X062445Y029148D03*
X062248Y029148D03*
X062052Y029148D03*
X061855Y029148D03*
X061658Y029148D03*
X061461Y029148D03*
X061264Y029148D03*
X061067Y029148D03*
X060870Y029148D03*
X060674Y029148D03*
X060477Y029148D03*
X060280Y029148D03*
X060083Y029148D03*
X059886Y029148D03*
D42*
X026855Y021845D03*
X026855Y021648D03*
X026855Y021451D03*
X026855Y021254D03*
X026855Y021057D03*
X026855Y020860D03*
X026855Y020664D03*
X026855Y020467D03*
X026855Y020270D03*
X026855Y020073D03*
X026855Y019876D03*
X026855Y019679D03*
X026855Y019483D03*
X026855Y019286D03*
X026855Y019089D03*
X026855Y018892D03*
X022445Y018892D03*
X022445Y019089D03*
X022445Y019286D03*
X022445Y019483D03*
X022445Y019679D03*
X022445Y019876D03*
X022445Y020073D03*
X022445Y020270D03*
X022445Y020467D03*
X022445Y020664D03*
X022445Y020860D03*
X022445Y021057D03*
X022445Y021254D03*
X022445Y021451D03*
X022445Y021648D03*
X022445Y021845D03*
D43*
X035150Y032455D03*
X035900Y032455D03*
X035900Y033282D03*
X035150Y033282D03*
D44*
X028002Y013014D03*
X028002Y012758D03*
X028002Y012502D03*
X028002Y012246D03*
X028002Y011990D03*
X028002Y011734D03*
X028002Y011479D03*
X028002Y011223D03*
X025798Y011223D03*
X025798Y011479D03*
X025798Y011734D03*
X025798Y011990D03*
X025798Y012246D03*
X025798Y012502D03*
X025798Y012758D03*
X025798Y013014D03*
D45*
X020603Y005742D03*
X020603Y005368D03*
X020603Y004994D03*
X019697Y004994D03*
X019697Y005368D03*
X019697Y005742D03*
D46*
X065400Y042618D03*
X065400Y044618D03*
D47*
X066900Y038618D03*
X066900Y036118D03*
D48*
X066628Y040609D03*
X065172Y040628D03*
D49*
X065300Y041219D03*
X066500Y040018D03*
D50*
X066500Y041209D03*
X065300Y040028D03*
M02*
