G75*
G70*
%OFA0B0*%
%FSLAX24Y24*%
%IPPOS*%
%LPD*%
%AMOC8*
5,1,8,0,0,1.08239X$1,22.5*
%
%ADD10C,0.0050*%
D10*
X036650Y016150D02*
X036650Y022150D01*
X042650Y022150D01*
X042650Y016150D01*
X036650Y016150D01*
X037750Y019150D02*
X037752Y019243D01*
X037759Y019336D01*
X037771Y019429D01*
X037787Y019521D01*
X037807Y019612D01*
X037832Y019702D01*
X037861Y019790D01*
X037895Y019877D01*
X037932Y019962D01*
X037974Y020046D01*
X038020Y020127D01*
X038070Y020206D01*
X038124Y020282D01*
X038181Y020355D01*
X038242Y020426D01*
X038306Y020494D01*
X038374Y020558D01*
X038445Y020619D01*
X038518Y020676D01*
X038594Y020730D01*
X038673Y020780D01*
X038754Y020826D01*
X038838Y020868D01*
X038923Y020905D01*
X039010Y020939D01*
X039098Y020968D01*
X039188Y020993D01*
X039279Y021013D01*
X039371Y021029D01*
X039464Y021041D01*
X039557Y021048D01*
X039650Y021050D01*
X039743Y021048D01*
X039836Y021041D01*
X039929Y021029D01*
X040021Y021013D01*
X040112Y020993D01*
X040202Y020968D01*
X040290Y020939D01*
X040377Y020905D01*
X040462Y020868D01*
X040546Y020826D01*
X040627Y020780D01*
X040706Y020730D01*
X040782Y020676D01*
X040855Y020619D01*
X040926Y020558D01*
X040994Y020494D01*
X041058Y020426D01*
X041119Y020355D01*
X041176Y020282D01*
X041230Y020206D01*
X041280Y020127D01*
X041326Y020046D01*
X041368Y019962D01*
X041405Y019877D01*
X041439Y019790D01*
X041468Y019702D01*
X041493Y019612D01*
X041513Y019521D01*
X041529Y019429D01*
X041541Y019336D01*
X041548Y019243D01*
X041550Y019150D01*
X041548Y019057D01*
X041541Y018964D01*
X041529Y018871D01*
X041513Y018779D01*
X041493Y018688D01*
X041468Y018598D01*
X041439Y018510D01*
X041405Y018423D01*
X041368Y018338D01*
X041326Y018254D01*
X041280Y018173D01*
X041230Y018094D01*
X041176Y018018D01*
X041119Y017945D01*
X041058Y017874D01*
X040994Y017806D01*
X040926Y017742D01*
X040855Y017681D01*
X040782Y017624D01*
X040706Y017570D01*
X040627Y017520D01*
X040546Y017474D01*
X040462Y017432D01*
X040377Y017395D01*
X040290Y017361D01*
X040202Y017332D01*
X040112Y017307D01*
X040021Y017287D01*
X039929Y017271D01*
X039836Y017259D01*
X039743Y017252D01*
X039650Y017250D01*
X039557Y017252D01*
X039464Y017259D01*
X039371Y017271D01*
X039279Y017287D01*
X039188Y017307D01*
X039098Y017332D01*
X039010Y017361D01*
X038923Y017395D01*
X038838Y017432D01*
X038754Y017474D01*
X038673Y017520D01*
X038594Y017570D01*
X038518Y017624D01*
X038445Y017681D01*
X038374Y017742D01*
X038306Y017806D01*
X038242Y017874D01*
X038181Y017945D01*
X038124Y018018D01*
X038070Y018094D01*
X038020Y018173D01*
X037974Y018254D01*
X037932Y018338D01*
X037895Y018423D01*
X037861Y018510D01*
X037832Y018598D01*
X037807Y018688D01*
X037787Y018779D01*
X037771Y018871D01*
X037759Y018964D01*
X037752Y019057D01*
X037750Y019150D01*
X050650Y016400D02*
X050650Y022400D01*
X056650Y022400D01*
X056650Y016400D01*
X050650Y016400D01*
X051750Y019400D02*
X051752Y019493D01*
X051759Y019586D01*
X051771Y019679D01*
X051787Y019771D01*
X051807Y019862D01*
X051832Y019952D01*
X051861Y020040D01*
X051895Y020127D01*
X051932Y020212D01*
X051974Y020296D01*
X052020Y020377D01*
X052070Y020456D01*
X052124Y020532D01*
X052181Y020605D01*
X052242Y020676D01*
X052306Y020744D01*
X052374Y020808D01*
X052445Y020869D01*
X052518Y020926D01*
X052594Y020980D01*
X052673Y021030D01*
X052754Y021076D01*
X052838Y021118D01*
X052923Y021155D01*
X053010Y021189D01*
X053098Y021218D01*
X053188Y021243D01*
X053279Y021263D01*
X053371Y021279D01*
X053464Y021291D01*
X053557Y021298D01*
X053650Y021300D01*
X053743Y021298D01*
X053836Y021291D01*
X053929Y021279D01*
X054021Y021263D01*
X054112Y021243D01*
X054202Y021218D01*
X054290Y021189D01*
X054377Y021155D01*
X054462Y021118D01*
X054546Y021076D01*
X054627Y021030D01*
X054706Y020980D01*
X054782Y020926D01*
X054855Y020869D01*
X054926Y020808D01*
X054994Y020744D01*
X055058Y020676D01*
X055119Y020605D01*
X055176Y020532D01*
X055230Y020456D01*
X055280Y020377D01*
X055326Y020296D01*
X055368Y020212D01*
X055405Y020127D01*
X055439Y020040D01*
X055468Y019952D01*
X055493Y019862D01*
X055513Y019771D01*
X055529Y019679D01*
X055541Y019586D01*
X055548Y019493D01*
X055550Y019400D01*
X055548Y019307D01*
X055541Y019214D01*
X055529Y019121D01*
X055513Y019029D01*
X055493Y018938D01*
X055468Y018848D01*
X055439Y018760D01*
X055405Y018673D01*
X055368Y018588D01*
X055326Y018504D01*
X055280Y018423D01*
X055230Y018344D01*
X055176Y018268D01*
X055119Y018195D01*
X055058Y018124D01*
X054994Y018056D01*
X054926Y017992D01*
X054855Y017931D01*
X054782Y017874D01*
X054706Y017820D01*
X054627Y017770D01*
X054546Y017724D01*
X054462Y017682D01*
X054377Y017645D01*
X054290Y017611D01*
X054202Y017582D01*
X054112Y017557D01*
X054021Y017537D01*
X053929Y017521D01*
X053836Y017509D01*
X053743Y017502D01*
X053650Y017500D01*
X053557Y017502D01*
X053464Y017509D01*
X053371Y017521D01*
X053279Y017537D01*
X053188Y017557D01*
X053098Y017582D01*
X053010Y017611D01*
X052923Y017645D01*
X052838Y017682D01*
X052754Y017724D01*
X052673Y017770D01*
X052594Y017820D01*
X052518Y017874D01*
X052445Y017931D01*
X052374Y017992D01*
X052306Y018056D01*
X052242Y018124D01*
X052181Y018195D01*
X052124Y018268D01*
X052070Y018344D01*
X052020Y018423D01*
X051974Y018504D01*
X051932Y018588D01*
X051895Y018673D01*
X051861Y018760D01*
X051832Y018848D01*
X051807Y018938D01*
X051787Y019029D01*
X051771Y019121D01*
X051759Y019214D01*
X051752Y019307D01*
X051750Y019400D01*
X049650Y010400D02*
X043650Y010400D01*
X043650Y004400D01*
X049650Y004400D01*
X049650Y010400D01*
X044750Y007400D02*
X044752Y007493D01*
X044759Y007586D01*
X044771Y007679D01*
X044787Y007771D01*
X044807Y007862D01*
X044832Y007952D01*
X044861Y008040D01*
X044895Y008127D01*
X044932Y008212D01*
X044974Y008296D01*
X045020Y008377D01*
X045070Y008456D01*
X045124Y008532D01*
X045181Y008605D01*
X045242Y008676D01*
X045306Y008744D01*
X045374Y008808D01*
X045445Y008869D01*
X045518Y008926D01*
X045594Y008980D01*
X045673Y009030D01*
X045754Y009076D01*
X045838Y009118D01*
X045923Y009155D01*
X046010Y009189D01*
X046098Y009218D01*
X046188Y009243D01*
X046279Y009263D01*
X046371Y009279D01*
X046464Y009291D01*
X046557Y009298D01*
X046650Y009300D01*
X046743Y009298D01*
X046836Y009291D01*
X046929Y009279D01*
X047021Y009263D01*
X047112Y009243D01*
X047202Y009218D01*
X047290Y009189D01*
X047377Y009155D01*
X047462Y009118D01*
X047546Y009076D01*
X047627Y009030D01*
X047706Y008980D01*
X047782Y008926D01*
X047855Y008869D01*
X047926Y008808D01*
X047994Y008744D01*
X048058Y008676D01*
X048119Y008605D01*
X048176Y008532D01*
X048230Y008456D01*
X048280Y008377D01*
X048326Y008296D01*
X048368Y008212D01*
X048405Y008127D01*
X048439Y008040D01*
X048468Y007952D01*
X048493Y007862D01*
X048513Y007771D01*
X048529Y007679D01*
X048541Y007586D01*
X048548Y007493D01*
X048550Y007400D01*
X048548Y007307D01*
X048541Y007214D01*
X048529Y007121D01*
X048513Y007029D01*
X048493Y006938D01*
X048468Y006848D01*
X048439Y006760D01*
X048405Y006673D01*
X048368Y006588D01*
X048326Y006504D01*
X048280Y006423D01*
X048230Y006344D01*
X048176Y006268D01*
X048119Y006195D01*
X048058Y006124D01*
X047994Y006056D01*
X047926Y005992D01*
X047855Y005931D01*
X047782Y005874D01*
X047706Y005820D01*
X047627Y005770D01*
X047546Y005724D01*
X047462Y005682D01*
X047377Y005645D01*
X047290Y005611D01*
X047202Y005582D01*
X047112Y005557D01*
X047021Y005537D01*
X046929Y005521D01*
X046836Y005509D01*
X046743Y005502D01*
X046650Y005500D01*
X046557Y005502D01*
X046464Y005509D01*
X046371Y005521D01*
X046279Y005537D01*
X046188Y005557D01*
X046098Y005582D01*
X046010Y005611D01*
X045923Y005645D01*
X045838Y005682D01*
X045754Y005724D01*
X045673Y005770D01*
X045594Y005820D01*
X045518Y005874D01*
X045445Y005931D01*
X045374Y005992D01*
X045306Y006056D01*
X045242Y006124D01*
X045181Y006195D01*
X045124Y006268D01*
X045070Y006344D01*
X045020Y006423D01*
X044974Y006504D01*
X044932Y006588D01*
X044895Y006673D01*
X044861Y006760D01*
X044832Y006848D01*
X044807Y006938D01*
X044787Y007029D01*
X044771Y007121D01*
X044759Y007214D01*
X044752Y007307D01*
X044750Y007400D01*
X057650Y010150D02*
X057650Y004150D01*
X063650Y004150D01*
X063650Y010150D01*
X057650Y010150D01*
X058750Y007150D02*
X058752Y007243D01*
X058759Y007336D01*
X058771Y007429D01*
X058787Y007521D01*
X058807Y007612D01*
X058832Y007702D01*
X058861Y007790D01*
X058895Y007877D01*
X058932Y007962D01*
X058974Y008046D01*
X059020Y008127D01*
X059070Y008206D01*
X059124Y008282D01*
X059181Y008355D01*
X059242Y008426D01*
X059306Y008494D01*
X059374Y008558D01*
X059445Y008619D01*
X059518Y008676D01*
X059594Y008730D01*
X059673Y008780D01*
X059754Y008826D01*
X059838Y008868D01*
X059923Y008905D01*
X060010Y008939D01*
X060098Y008968D01*
X060188Y008993D01*
X060279Y009013D01*
X060371Y009029D01*
X060464Y009041D01*
X060557Y009048D01*
X060650Y009050D01*
X060743Y009048D01*
X060836Y009041D01*
X060929Y009029D01*
X061021Y009013D01*
X061112Y008993D01*
X061202Y008968D01*
X061290Y008939D01*
X061377Y008905D01*
X061462Y008868D01*
X061546Y008826D01*
X061627Y008780D01*
X061706Y008730D01*
X061782Y008676D01*
X061855Y008619D01*
X061926Y008558D01*
X061994Y008494D01*
X062058Y008426D01*
X062119Y008355D01*
X062176Y008282D01*
X062230Y008206D01*
X062280Y008127D01*
X062326Y008046D01*
X062368Y007962D01*
X062405Y007877D01*
X062439Y007790D01*
X062468Y007702D01*
X062493Y007612D01*
X062513Y007521D01*
X062529Y007429D01*
X062541Y007336D01*
X062548Y007243D01*
X062550Y007150D01*
X062548Y007057D01*
X062541Y006964D01*
X062529Y006871D01*
X062513Y006779D01*
X062493Y006688D01*
X062468Y006598D01*
X062439Y006510D01*
X062405Y006423D01*
X062368Y006338D01*
X062326Y006254D01*
X062280Y006173D01*
X062230Y006094D01*
X062176Y006018D01*
X062119Y005945D01*
X062058Y005874D01*
X061994Y005806D01*
X061926Y005742D01*
X061855Y005681D01*
X061782Y005624D01*
X061706Y005570D01*
X061627Y005520D01*
X061546Y005474D01*
X061462Y005432D01*
X061377Y005395D01*
X061290Y005361D01*
X061202Y005332D01*
X061112Y005307D01*
X061021Y005287D01*
X060929Y005271D01*
X060836Y005259D01*
X060743Y005252D01*
X060650Y005250D01*
X060557Y005252D01*
X060464Y005259D01*
X060371Y005271D01*
X060279Y005287D01*
X060188Y005307D01*
X060098Y005332D01*
X060010Y005361D01*
X059923Y005395D01*
X059838Y005432D01*
X059754Y005474D01*
X059673Y005520D01*
X059594Y005570D01*
X059518Y005624D01*
X059445Y005681D01*
X059374Y005742D01*
X059306Y005806D01*
X059242Y005874D01*
X059181Y005945D01*
X059124Y006018D01*
X059070Y006094D01*
X059020Y006173D01*
X058974Y006254D01*
X058932Y006338D01*
X058895Y006423D01*
X058861Y006510D01*
X058832Y006598D01*
X058807Y006688D01*
X058787Y006779D01*
X058771Y006871D01*
X058759Y006964D01*
X058752Y007057D01*
X058750Y007150D01*
M02*
