G75*
G70*
%OFA0B0*%
%FSLAX24Y24*%
%IPPOS*%
%LPD*%
%AMOC8*
5,1,8,0,0,1.08239X$1,22.5*
%
%ADD10C,0.0000*%
%ADD11R,0.9000X0.2000*%
%ADD12R,0.0630X0.0787*%
%ADD13C,0.0098*%
%ADD14R,0.0600X0.0600*%
%ADD15OC8,0.0600*%
%ADD16R,0.0315X0.0354*%
%ADD17R,0.2100X0.0760*%
%ADD18R,0.0354X0.0315*%
%ADD19C,0.0394*%
%ADD20R,0.0236X0.0866*%
%ADD21R,0.0748X0.0551*%
%ADD22OC8,0.0543*%
%ADD23OC8,0.0945*%
%ADD24C,0.0561*%
%ADD25C,0.1306*%
%ADD26R,0.0360X0.0850*%
%ADD27R,0.4252X0.4098*%
%ADD28R,0.1000X0.1000*%
%ADD29OC8,0.1000*%
%ADD30R,0.2165X0.1772*%
%ADD31R,0.0480X0.0880*%
%ADD32R,0.1417X0.0866*%
%ADD33R,0.0551X0.0709*%
%ADD34OC8,0.0591*%
%ADD35R,0.0472X0.1575*%
%ADD36R,0.0276X0.1575*%
%ADD37R,0.0472X0.1500*%
%ADD38R,0.0787X0.1102*%
%ADD39C,0.0591*%
%ADD40C,0.0787*%
%ADD41R,0.0472X0.0472*%
%ADD42C,0.0886*%
%ADD43R,0.0880X0.0480*%
%ADD44R,0.0866X0.1417*%
%ADD45R,0.0709X0.0551*%
%ADD46R,0.1181X0.0630*%
%ADD47R,0.0394X0.0551*%
%ADD48R,0.1024X0.2874*%
%ADD49C,0.0118*%
%ADD50R,0.0551X0.0748*%
%ADD51R,0.0157X0.0630*%
%ADD52R,0.0540X0.0540*%
%ADD53OC8,0.0540*%
%ADD54R,0.0118X0.0630*%
%ADD55R,0.0630X0.0118*%
%ADD56R,0.0591X0.0118*%
%ADD57R,0.0354X0.0236*%
%ADD58OC8,0.0886*%
%ADD59R,0.0866X0.0236*%
%ADD60R,0.0551X0.0394*%
%ADD61OC8,0.0700*%
%ADD62R,0.0700X0.0700*%
%ADD63R,0.0591X0.0197*%
%ADD64R,0.0197X0.0591*%
%ADD65R,0.0472X0.0217*%
%ADD66R,0.0551X0.0551*%
%ADD67R,0.0700X0.2400*%
%ADD68C,0.2000*%
%ADD69C,0.0060*%
%ADD70C,0.0270*%
%ADD71C,0.0100*%
%ADD72C,0.0356*%
%ADD73C,0.0240*%
%ADD74C,0.0413*%
%ADD75C,0.0160*%
%ADD76C,0.0080*%
D10*
X000850Y003368D02*
X000850Y046868D01*
X069350Y046868D01*
X069350Y003368D01*
X000850Y003368D01*
X004802Y006301D02*
X004804Y006340D01*
X004810Y006379D01*
X004820Y006417D01*
X004833Y006454D01*
X004850Y006489D01*
X004870Y006523D01*
X004894Y006554D01*
X004921Y006583D01*
X004950Y006609D01*
X004982Y006632D01*
X005016Y006652D01*
X005052Y006668D01*
X005089Y006680D01*
X005128Y006689D01*
X005167Y006694D01*
X005206Y006695D01*
X005245Y006692D01*
X005284Y006685D01*
X005321Y006674D01*
X005358Y006660D01*
X005393Y006642D01*
X005426Y006621D01*
X005457Y006596D01*
X005485Y006569D01*
X005510Y006539D01*
X005532Y006506D01*
X005551Y006472D01*
X005566Y006436D01*
X005578Y006398D01*
X005586Y006360D01*
X005590Y006321D01*
X005590Y006281D01*
X005586Y006242D01*
X005578Y006204D01*
X005566Y006166D01*
X005551Y006130D01*
X005532Y006096D01*
X005510Y006063D01*
X005485Y006033D01*
X005457Y006006D01*
X005426Y005981D01*
X005393Y005960D01*
X005358Y005942D01*
X005321Y005928D01*
X005284Y005917D01*
X005245Y005910D01*
X005206Y005907D01*
X005167Y005908D01*
X005128Y005913D01*
X005089Y005922D01*
X005052Y005934D01*
X005016Y005950D01*
X004982Y005970D01*
X004950Y005993D01*
X004921Y006019D01*
X004894Y006048D01*
X004870Y006079D01*
X004850Y006113D01*
X004833Y006148D01*
X004820Y006185D01*
X004810Y006223D01*
X004804Y006262D01*
X004802Y006301D01*
X008267Y008801D02*
X008269Y008849D01*
X008275Y008897D01*
X008285Y008944D01*
X008298Y008990D01*
X008316Y009035D01*
X008336Y009079D01*
X008361Y009121D01*
X008389Y009160D01*
X008419Y009197D01*
X008453Y009231D01*
X008490Y009263D01*
X008528Y009292D01*
X008569Y009317D01*
X008612Y009339D01*
X008657Y009357D01*
X008703Y009371D01*
X008750Y009382D01*
X008798Y009389D01*
X008846Y009392D01*
X008894Y009391D01*
X008942Y009386D01*
X008990Y009377D01*
X009036Y009365D01*
X009081Y009348D01*
X009125Y009328D01*
X009167Y009305D01*
X009207Y009278D01*
X009245Y009248D01*
X009280Y009215D01*
X009312Y009179D01*
X009342Y009141D01*
X009368Y009100D01*
X009390Y009057D01*
X009410Y009013D01*
X009425Y008968D01*
X009437Y008921D01*
X009445Y008873D01*
X009449Y008825D01*
X009449Y008777D01*
X009445Y008729D01*
X009437Y008681D01*
X009425Y008634D01*
X009410Y008589D01*
X009390Y008545D01*
X009368Y008502D01*
X009342Y008461D01*
X009312Y008423D01*
X009280Y008387D01*
X009245Y008354D01*
X009207Y008324D01*
X009167Y008297D01*
X009125Y008274D01*
X009081Y008254D01*
X009036Y008237D01*
X008990Y008225D01*
X008942Y008216D01*
X008894Y008211D01*
X008846Y008210D01*
X008798Y008213D01*
X008750Y008220D01*
X008703Y008231D01*
X008657Y008245D01*
X008612Y008263D01*
X008569Y008285D01*
X008528Y008310D01*
X008490Y008339D01*
X008453Y008371D01*
X008419Y008405D01*
X008389Y008442D01*
X008361Y008481D01*
X008336Y008523D01*
X008316Y008567D01*
X008298Y008612D01*
X008285Y008658D01*
X008275Y008705D01*
X008269Y008753D01*
X008267Y008801D01*
X009302Y006301D02*
X009304Y006340D01*
X009310Y006379D01*
X009320Y006417D01*
X009333Y006454D01*
X009350Y006489D01*
X009370Y006523D01*
X009394Y006554D01*
X009421Y006583D01*
X009450Y006609D01*
X009482Y006632D01*
X009516Y006652D01*
X009552Y006668D01*
X009589Y006680D01*
X009628Y006689D01*
X009667Y006694D01*
X009706Y006695D01*
X009745Y006692D01*
X009784Y006685D01*
X009821Y006674D01*
X009858Y006660D01*
X009893Y006642D01*
X009926Y006621D01*
X009957Y006596D01*
X009985Y006569D01*
X010010Y006539D01*
X010032Y006506D01*
X010051Y006472D01*
X010066Y006436D01*
X010078Y006398D01*
X010086Y006360D01*
X010090Y006321D01*
X010090Y006281D01*
X010086Y006242D01*
X010078Y006204D01*
X010066Y006166D01*
X010051Y006130D01*
X010032Y006096D01*
X010010Y006063D01*
X009985Y006033D01*
X009957Y006006D01*
X009926Y005981D01*
X009893Y005960D01*
X009858Y005942D01*
X009821Y005928D01*
X009784Y005917D01*
X009745Y005910D01*
X009706Y005907D01*
X009667Y005908D01*
X009628Y005913D01*
X009589Y005922D01*
X009552Y005934D01*
X009516Y005950D01*
X009482Y005970D01*
X009450Y005993D01*
X009421Y006019D01*
X009394Y006048D01*
X009370Y006079D01*
X009350Y006113D01*
X009333Y006148D01*
X009320Y006185D01*
X009310Y006223D01*
X009304Y006262D01*
X009302Y006301D01*
X011802Y006301D02*
X011804Y006340D01*
X011810Y006379D01*
X011820Y006417D01*
X011833Y006454D01*
X011850Y006489D01*
X011870Y006523D01*
X011894Y006554D01*
X011921Y006583D01*
X011950Y006609D01*
X011982Y006632D01*
X012016Y006652D01*
X012052Y006668D01*
X012089Y006680D01*
X012128Y006689D01*
X012167Y006694D01*
X012206Y006695D01*
X012245Y006692D01*
X012284Y006685D01*
X012321Y006674D01*
X012358Y006660D01*
X012393Y006642D01*
X012426Y006621D01*
X012457Y006596D01*
X012485Y006569D01*
X012510Y006539D01*
X012532Y006506D01*
X012551Y006472D01*
X012566Y006436D01*
X012578Y006398D01*
X012586Y006360D01*
X012590Y006321D01*
X012590Y006281D01*
X012586Y006242D01*
X012578Y006204D01*
X012566Y006166D01*
X012551Y006130D01*
X012532Y006096D01*
X012510Y006063D01*
X012485Y006033D01*
X012457Y006006D01*
X012426Y005981D01*
X012393Y005960D01*
X012358Y005942D01*
X012321Y005928D01*
X012284Y005917D01*
X012245Y005910D01*
X012206Y005907D01*
X012167Y005908D01*
X012128Y005913D01*
X012089Y005922D01*
X012052Y005934D01*
X012016Y005950D01*
X011982Y005970D01*
X011950Y005993D01*
X011921Y006019D01*
X011894Y006048D01*
X011870Y006079D01*
X011850Y006113D01*
X011833Y006148D01*
X011820Y006185D01*
X011810Y006223D01*
X011804Y006262D01*
X011802Y006301D01*
X015267Y008801D02*
X015269Y008849D01*
X015275Y008897D01*
X015285Y008944D01*
X015298Y008990D01*
X015316Y009035D01*
X015336Y009079D01*
X015361Y009121D01*
X015389Y009160D01*
X015419Y009197D01*
X015453Y009231D01*
X015490Y009263D01*
X015528Y009292D01*
X015569Y009317D01*
X015612Y009339D01*
X015657Y009357D01*
X015703Y009371D01*
X015750Y009382D01*
X015798Y009389D01*
X015846Y009392D01*
X015894Y009391D01*
X015942Y009386D01*
X015990Y009377D01*
X016036Y009365D01*
X016081Y009348D01*
X016125Y009328D01*
X016167Y009305D01*
X016207Y009278D01*
X016245Y009248D01*
X016280Y009215D01*
X016312Y009179D01*
X016342Y009141D01*
X016368Y009100D01*
X016390Y009057D01*
X016410Y009013D01*
X016425Y008968D01*
X016437Y008921D01*
X016445Y008873D01*
X016449Y008825D01*
X016449Y008777D01*
X016445Y008729D01*
X016437Y008681D01*
X016425Y008634D01*
X016410Y008589D01*
X016390Y008545D01*
X016368Y008502D01*
X016342Y008461D01*
X016312Y008423D01*
X016280Y008387D01*
X016245Y008354D01*
X016207Y008324D01*
X016167Y008297D01*
X016125Y008274D01*
X016081Y008254D01*
X016036Y008237D01*
X015990Y008225D01*
X015942Y008216D01*
X015894Y008211D01*
X015846Y008210D01*
X015798Y008213D01*
X015750Y008220D01*
X015703Y008231D01*
X015657Y008245D01*
X015612Y008263D01*
X015569Y008285D01*
X015528Y008310D01*
X015490Y008339D01*
X015453Y008371D01*
X015419Y008405D01*
X015389Y008442D01*
X015361Y008481D01*
X015336Y008523D01*
X015316Y008567D01*
X015298Y008612D01*
X015285Y008658D01*
X015275Y008705D01*
X015269Y008753D01*
X015267Y008801D01*
X016302Y006301D02*
X016304Y006340D01*
X016310Y006379D01*
X016320Y006417D01*
X016333Y006454D01*
X016350Y006489D01*
X016370Y006523D01*
X016394Y006554D01*
X016421Y006583D01*
X016450Y006609D01*
X016482Y006632D01*
X016516Y006652D01*
X016552Y006668D01*
X016589Y006680D01*
X016628Y006689D01*
X016667Y006694D01*
X016706Y006695D01*
X016745Y006692D01*
X016784Y006685D01*
X016821Y006674D01*
X016858Y006660D01*
X016893Y006642D01*
X016926Y006621D01*
X016957Y006596D01*
X016985Y006569D01*
X017010Y006539D01*
X017032Y006506D01*
X017051Y006472D01*
X017066Y006436D01*
X017078Y006398D01*
X017086Y006360D01*
X017090Y006321D01*
X017090Y006281D01*
X017086Y006242D01*
X017078Y006204D01*
X017066Y006166D01*
X017051Y006130D01*
X017032Y006096D01*
X017010Y006063D01*
X016985Y006033D01*
X016957Y006006D01*
X016926Y005981D01*
X016893Y005960D01*
X016858Y005942D01*
X016821Y005928D01*
X016784Y005917D01*
X016745Y005910D01*
X016706Y005907D01*
X016667Y005908D01*
X016628Y005913D01*
X016589Y005922D01*
X016552Y005934D01*
X016516Y005950D01*
X016482Y005970D01*
X016450Y005993D01*
X016421Y006019D01*
X016394Y006048D01*
X016370Y006079D01*
X016350Y006113D01*
X016333Y006148D01*
X016320Y006185D01*
X016310Y006223D01*
X016304Y006262D01*
X016302Y006301D01*
X055316Y012542D02*
X055318Y012571D01*
X055324Y012599D01*
X055333Y012627D01*
X055346Y012653D01*
X055363Y012676D01*
X055382Y012698D01*
X055404Y012717D01*
X055429Y012732D01*
X055455Y012745D01*
X055483Y012753D01*
X055511Y012758D01*
X055540Y012759D01*
X055569Y012756D01*
X055597Y012749D01*
X055624Y012739D01*
X055650Y012725D01*
X055673Y012708D01*
X055694Y012688D01*
X055712Y012665D01*
X055727Y012640D01*
X055738Y012613D01*
X055746Y012585D01*
X055750Y012556D01*
X055750Y012528D01*
X055746Y012499D01*
X055738Y012471D01*
X055727Y012444D01*
X055712Y012419D01*
X055694Y012396D01*
X055673Y012376D01*
X055650Y012359D01*
X055624Y012345D01*
X055597Y012335D01*
X055569Y012328D01*
X055540Y012325D01*
X055511Y012326D01*
X055483Y012331D01*
X055455Y012339D01*
X055429Y012352D01*
X055404Y012367D01*
X055382Y012386D01*
X055363Y012408D01*
X055346Y012431D01*
X055333Y012457D01*
X055324Y012485D01*
X055318Y012513D01*
X055316Y012542D01*
X063525Y012542D02*
X063527Y012577D01*
X063533Y012612D01*
X063543Y012646D01*
X063556Y012679D01*
X063573Y012710D01*
X063594Y012738D01*
X063617Y012765D01*
X063644Y012788D01*
X063672Y012809D01*
X063703Y012826D01*
X063736Y012839D01*
X063770Y012849D01*
X063805Y012855D01*
X063840Y012857D01*
X063875Y012855D01*
X063910Y012849D01*
X063944Y012839D01*
X063977Y012826D01*
X064008Y012809D01*
X064036Y012788D01*
X064063Y012765D01*
X064086Y012738D01*
X064107Y012710D01*
X064124Y012679D01*
X064137Y012646D01*
X064147Y012612D01*
X064153Y012577D01*
X064155Y012542D01*
X064153Y012507D01*
X064147Y012472D01*
X064137Y012438D01*
X064124Y012405D01*
X064107Y012374D01*
X064086Y012346D01*
X064063Y012319D01*
X064036Y012296D01*
X064008Y012275D01*
X063977Y012258D01*
X063944Y012245D01*
X063910Y012235D01*
X063875Y012229D01*
X063840Y012227D01*
X063805Y012229D01*
X063770Y012235D01*
X063736Y012245D01*
X063703Y012258D01*
X063672Y012275D01*
X063644Y012296D01*
X063617Y012319D01*
X063594Y012346D01*
X063573Y012374D01*
X063556Y012405D01*
X063543Y012438D01*
X063533Y012472D01*
X063527Y012507D01*
X063525Y012542D01*
X008110Y043935D02*
X008112Y043974D01*
X008118Y044013D01*
X008128Y044051D01*
X008141Y044088D01*
X008158Y044123D01*
X008178Y044157D01*
X008202Y044188D01*
X008229Y044217D01*
X008258Y044243D01*
X008290Y044266D01*
X008324Y044286D01*
X008360Y044302D01*
X008397Y044314D01*
X008436Y044323D01*
X008475Y044328D01*
X008514Y044329D01*
X008553Y044326D01*
X008592Y044319D01*
X008629Y044308D01*
X008666Y044294D01*
X008701Y044276D01*
X008734Y044255D01*
X008765Y044230D01*
X008793Y044203D01*
X008818Y044173D01*
X008840Y044140D01*
X008859Y044106D01*
X008874Y044070D01*
X008886Y044032D01*
X008894Y043994D01*
X008898Y043955D01*
X008898Y043915D01*
X008894Y043876D01*
X008886Y043838D01*
X008874Y043800D01*
X008859Y043764D01*
X008840Y043730D01*
X008818Y043697D01*
X008793Y043667D01*
X008765Y043640D01*
X008734Y043615D01*
X008701Y043594D01*
X008666Y043576D01*
X008629Y043562D01*
X008592Y043551D01*
X008553Y043544D01*
X008514Y043541D01*
X008475Y043542D01*
X008436Y043547D01*
X008397Y043556D01*
X008360Y043568D01*
X008324Y043584D01*
X008290Y043604D01*
X008258Y043627D01*
X008229Y043653D01*
X008202Y043682D01*
X008178Y043713D01*
X008158Y043747D01*
X008141Y043782D01*
X008128Y043819D01*
X008118Y043857D01*
X008112Y043896D01*
X008110Y043935D01*
X004251Y041435D02*
X004253Y041483D01*
X004259Y041531D01*
X004269Y041578D01*
X004282Y041624D01*
X004300Y041669D01*
X004320Y041713D01*
X004345Y041755D01*
X004373Y041794D01*
X004403Y041831D01*
X004437Y041865D01*
X004474Y041897D01*
X004512Y041926D01*
X004553Y041951D01*
X004596Y041973D01*
X004641Y041991D01*
X004687Y042005D01*
X004734Y042016D01*
X004782Y042023D01*
X004830Y042026D01*
X004878Y042025D01*
X004926Y042020D01*
X004974Y042011D01*
X005020Y041999D01*
X005065Y041982D01*
X005109Y041962D01*
X005151Y041939D01*
X005191Y041912D01*
X005229Y041882D01*
X005264Y041849D01*
X005296Y041813D01*
X005326Y041775D01*
X005352Y041734D01*
X005374Y041691D01*
X005394Y041647D01*
X005409Y041602D01*
X005421Y041555D01*
X005429Y041507D01*
X005433Y041459D01*
X005433Y041411D01*
X005429Y041363D01*
X005421Y041315D01*
X005409Y041268D01*
X005394Y041223D01*
X005374Y041179D01*
X005352Y041136D01*
X005326Y041095D01*
X005296Y041057D01*
X005264Y041021D01*
X005229Y040988D01*
X005191Y040958D01*
X005151Y040931D01*
X005109Y040908D01*
X005065Y040888D01*
X005020Y040871D01*
X004974Y040859D01*
X004926Y040850D01*
X004878Y040845D01*
X004830Y040844D01*
X004782Y040847D01*
X004734Y040854D01*
X004687Y040865D01*
X004641Y040879D01*
X004596Y040897D01*
X004553Y040919D01*
X004512Y040944D01*
X004474Y040973D01*
X004437Y041005D01*
X004403Y041039D01*
X004373Y041076D01*
X004345Y041115D01*
X004320Y041157D01*
X004300Y041201D01*
X004282Y041246D01*
X004269Y041292D01*
X004259Y041339D01*
X004253Y041387D01*
X004251Y041435D01*
X003610Y043935D02*
X003612Y043974D01*
X003618Y044013D01*
X003628Y044051D01*
X003641Y044088D01*
X003658Y044123D01*
X003678Y044157D01*
X003702Y044188D01*
X003729Y044217D01*
X003758Y044243D01*
X003790Y044266D01*
X003824Y044286D01*
X003860Y044302D01*
X003897Y044314D01*
X003936Y044323D01*
X003975Y044328D01*
X004014Y044329D01*
X004053Y044326D01*
X004092Y044319D01*
X004129Y044308D01*
X004166Y044294D01*
X004201Y044276D01*
X004234Y044255D01*
X004265Y044230D01*
X004293Y044203D01*
X004318Y044173D01*
X004340Y044140D01*
X004359Y044106D01*
X004374Y044070D01*
X004386Y044032D01*
X004394Y043994D01*
X004398Y043955D01*
X004398Y043915D01*
X004394Y043876D01*
X004386Y043838D01*
X004374Y043800D01*
X004359Y043764D01*
X004340Y043730D01*
X004318Y043697D01*
X004293Y043667D01*
X004265Y043640D01*
X004234Y043615D01*
X004201Y043594D01*
X004166Y043576D01*
X004129Y043562D01*
X004092Y043551D01*
X004053Y043544D01*
X004014Y043541D01*
X003975Y043542D01*
X003936Y043547D01*
X003897Y043556D01*
X003860Y043568D01*
X003824Y043584D01*
X003790Y043604D01*
X003758Y043627D01*
X003729Y043653D01*
X003702Y043682D01*
X003678Y043713D01*
X003658Y043747D01*
X003641Y043782D01*
X003628Y043819D01*
X003618Y043857D01*
X003612Y043896D01*
X003610Y043935D01*
D11*
X005350Y014868D03*
D12*
X044100Y006181D03*
X044100Y004055D03*
D13*
X041332Y015333D02*
X041332Y015825D01*
X041135Y015825D02*
X041135Y015333D01*
X040939Y015333D02*
X040939Y015825D01*
X040742Y015825D02*
X040742Y015333D01*
X040545Y015333D02*
X040545Y015825D01*
X040348Y015825D02*
X040348Y015333D01*
X040151Y015333D02*
X040151Y015825D01*
X039954Y015825D02*
X039954Y015333D01*
X039757Y015333D02*
X039757Y015825D01*
X039561Y015825D02*
X039561Y015333D01*
X039364Y015333D02*
X039364Y015825D01*
X039167Y015825D02*
X039167Y015333D01*
X038970Y015333D02*
X038970Y015825D01*
X038773Y015825D02*
X038773Y015333D01*
X038576Y015333D02*
X038576Y015825D01*
X038380Y015825D02*
X038380Y015333D01*
X038183Y015333D02*
X038183Y015825D01*
X037986Y015825D02*
X037986Y015333D01*
X037789Y015333D02*
X037789Y015825D01*
X037592Y015825D02*
X037592Y015333D01*
X037395Y015333D02*
X037395Y015825D01*
X037198Y015825D02*
X037198Y015333D01*
X037002Y015333D02*
X037002Y015825D01*
X036805Y015825D02*
X036805Y015333D01*
X036608Y015333D02*
X036608Y015825D01*
X036411Y015825D02*
X036411Y015333D01*
X036214Y015333D02*
X036214Y015825D01*
X036017Y015825D02*
X036017Y015333D01*
X035820Y015333D02*
X035820Y015825D01*
X035624Y015825D02*
X035624Y015333D01*
X035427Y015333D02*
X035427Y015825D01*
X035230Y015825D02*
X035230Y015333D01*
X035033Y015333D02*
X035033Y015825D01*
X034836Y015825D02*
X034836Y015333D01*
X034639Y015333D02*
X034639Y015825D01*
X034443Y015825D02*
X034443Y015333D01*
X034246Y015333D02*
X034246Y015825D01*
X034049Y015825D02*
X034049Y015333D01*
X033852Y015333D02*
X033852Y015825D01*
X033655Y015825D02*
X033655Y015333D01*
X033458Y015333D02*
X033458Y015825D01*
X033261Y015825D02*
X033261Y015333D01*
X033065Y015333D02*
X033065Y015825D01*
X032868Y015825D02*
X032868Y015333D01*
X032307Y016386D02*
X031815Y016386D01*
X031815Y016583D02*
X032307Y016583D01*
X032307Y016780D02*
X031815Y016780D01*
X031815Y016977D02*
X032307Y016977D01*
X032307Y017173D02*
X031815Y017173D01*
X031815Y017370D02*
X032307Y017370D01*
X032307Y017567D02*
X031815Y017567D01*
X031815Y017764D02*
X032307Y017764D01*
X032307Y017961D02*
X031815Y017961D01*
X031815Y018158D02*
X032307Y018158D01*
X032307Y018355D02*
X031815Y018355D01*
X031815Y018551D02*
X032307Y018551D01*
X032307Y018748D02*
X031815Y018748D01*
X031815Y018945D02*
X032307Y018945D01*
X032307Y019142D02*
X031815Y019142D01*
X031815Y019339D02*
X032307Y019339D01*
X032307Y019536D02*
X031815Y019536D01*
X031815Y019733D02*
X032307Y019733D01*
X032307Y019929D02*
X031815Y019929D01*
X031815Y020126D02*
X032307Y020126D01*
X032307Y020323D02*
X031815Y020323D01*
X031815Y020520D02*
X032307Y020520D01*
X032307Y020717D02*
X031815Y020717D01*
X031815Y020914D02*
X032307Y020914D01*
X032307Y021110D02*
X031815Y021110D01*
X031815Y021307D02*
X032307Y021307D01*
X032307Y021504D02*
X031815Y021504D01*
X031815Y021701D02*
X032307Y021701D01*
X032307Y021898D02*
X031815Y021898D01*
X031815Y022095D02*
X032307Y022095D01*
X032307Y022292D02*
X031815Y022292D01*
X031815Y022488D02*
X032307Y022488D01*
X032307Y022685D02*
X031815Y022685D01*
X031815Y022882D02*
X032307Y022882D01*
X032307Y023079D02*
X031815Y023079D01*
X031815Y023276D02*
X032307Y023276D01*
X032307Y023473D02*
X031815Y023473D01*
X031815Y023670D02*
X032307Y023670D01*
X032307Y023866D02*
X031815Y023866D01*
X031815Y024063D02*
X032307Y024063D01*
X032307Y024260D02*
X031815Y024260D01*
X031815Y024457D02*
X032307Y024457D01*
X032307Y024654D02*
X031815Y024654D01*
X031815Y024851D02*
X032307Y024851D01*
X032868Y025412D02*
X032868Y025904D01*
X033065Y025904D02*
X033065Y025412D01*
X033261Y025412D02*
X033261Y025904D01*
X033458Y025904D02*
X033458Y025412D01*
X033655Y025412D02*
X033655Y025904D01*
X033852Y025904D02*
X033852Y025412D01*
X034049Y025412D02*
X034049Y025904D01*
X034246Y025904D02*
X034246Y025412D01*
X034443Y025412D02*
X034443Y025904D01*
X034639Y025904D02*
X034639Y025412D01*
X034836Y025412D02*
X034836Y025904D01*
X035033Y025904D02*
X035033Y025412D01*
X035230Y025412D02*
X035230Y025904D01*
X035427Y025904D02*
X035427Y025412D01*
X035624Y025412D02*
X035624Y025904D01*
X035820Y025904D02*
X035820Y025412D01*
X036017Y025412D02*
X036017Y025904D01*
X036214Y025904D02*
X036214Y025412D01*
X036411Y025412D02*
X036411Y025904D01*
X036608Y025904D02*
X036608Y025412D01*
X036805Y025412D02*
X036805Y025904D01*
X037002Y025904D02*
X037002Y025412D01*
X037198Y025412D02*
X037198Y025904D01*
X037395Y025904D02*
X037395Y025412D01*
X037592Y025412D02*
X037592Y025904D01*
X037789Y025904D02*
X037789Y025412D01*
X037986Y025412D02*
X037986Y025904D01*
X038183Y025904D02*
X038183Y025412D01*
X038380Y025412D02*
X038380Y025904D01*
X038576Y025904D02*
X038576Y025412D01*
X038773Y025412D02*
X038773Y025904D01*
X038970Y025904D02*
X038970Y025412D01*
X039167Y025412D02*
X039167Y025904D01*
X039364Y025904D02*
X039364Y025412D01*
X039561Y025412D02*
X039561Y025904D01*
X039757Y025904D02*
X039757Y025412D01*
X039954Y025412D02*
X039954Y025904D01*
X040151Y025904D02*
X040151Y025412D01*
X040348Y025412D02*
X040348Y025904D01*
X040545Y025904D02*
X040545Y025412D01*
X040742Y025412D02*
X040742Y025904D01*
X040939Y025904D02*
X040939Y025412D01*
X041135Y025412D02*
X041135Y025904D01*
X041332Y025904D02*
X041332Y025412D01*
X041893Y024851D02*
X042385Y024851D01*
X042385Y024654D02*
X041893Y024654D01*
X041893Y024457D02*
X042385Y024457D01*
X042385Y024260D02*
X041893Y024260D01*
X041893Y024063D02*
X042385Y024063D01*
X042385Y023866D02*
X041893Y023866D01*
X041893Y023670D02*
X042385Y023670D01*
X042385Y023473D02*
X041893Y023473D01*
X041893Y023276D02*
X042385Y023276D01*
X042385Y023079D02*
X041893Y023079D01*
X041893Y022882D02*
X042385Y022882D01*
X042385Y022685D02*
X041893Y022685D01*
X041893Y022488D02*
X042385Y022488D01*
X042385Y022292D02*
X041893Y022292D01*
X041893Y022095D02*
X042385Y022095D01*
X042385Y021898D02*
X041893Y021898D01*
X041893Y021701D02*
X042385Y021701D01*
X042385Y021504D02*
X041893Y021504D01*
X041893Y021307D02*
X042385Y021307D01*
X042385Y021110D02*
X041893Y021110D01*
X041893Y020914D02*
X042385Y020914D01*
X042385Y020717D02*
X041893Y020717D01*
X041893Y020520D02*
X042385Y020520D01*
X042385Y020323D02*
X041893Y020323D01*
X041893Y020126D02*
X042385Y020126D01*
X042385Y019929D02*
X041893Y019929D01*
X041893Y019733D02*
X042385Y019733D01*
X042385Y019536D02*
X041893Y019536D01*
X041893Y019339D02*
X042385Y019339D01*
X042385Y019142D02*
X041893Y019142D01*
X041893Y018945D02*
X042385Y018945D01*
X042385Y018748D02*
X041893Y018748D01*
X041893Y018551D02*
X042385Y018551D01*
X042385Y018355D02*
X041893Y018355D01*
X041893Y018158D02*
X042385Y018158D01*
X042385Y017961D02*
X041893Y017961D01*
X041893Y017764D02*
X042385Y017764D01*
X042385Y017567D02*
X041893Y017567D01*
X041893Y017370D02*
X042385Y017370D01*
X042385Y017173D02*
X041893Y017173D01*
X041893Y016977D02*
X042385Y016977D01*
X042385Y016780D02*
X041893Y016780D01*
X041893Y016583D02*
X042385Y016583D01*
X042385Y016386D02*
X041893Y016386D01*
X049181Y021173D02*
X049673Y021173D01*
X049673Y021370D02*
X049181Y021370D01*
X049181Y021567D02*
X049673Y021567D01*
X049673Y021764D02*
X049181Y021764D01*
X049181Y021961D02*
X049673Y021961D01*
X049673Y022158D02*
X049181Y022158D01*
X049181Y022355D02*
X049673Y022355D01*
X049673Y022551D02*
X049181Y022551D01*
X049181Y022748D02*
X049673Y022748D01*
X049673Y022945D02*
X049181Y022945D01*
X049181Y023142D02*
X049673Y023142D01*
X049673Y023339D02*
X049181Y023339D01*
X049181Y023536D02*
X049673Y023536D01*
X049673Y023733D02*
X049181Y023733D01*
X049181Y023929D02*
X049673Y023929D01*
X049673Y024126D02*
X049181Y024126D01*
X049181Y024323D02*
X049673Y024323D01*
X049673Y024520D02*
X049181Y024520D01*
X049181Y024717D02*
X049673Y024717D01*
X049673Y024914D02*
X049181Y024914D01*
X049181Y025110D02*
X049673Y025110D01*
X049673Y025307D02*
X049181Y025307D01*
X049181Y025504D02*
X049673Y025504D01*
X049673Y025701D02*
X049181Y025701D01*
X049181Y025898D02*
X049673Y025898D01*
X049673Y026095D02*
X049181Y026095D01*
X049181Y026292D02*
X049673Y026292D01*
X049673Y026488D02*
X049181Y026488D01*
X049181Y026685D02*
X049673Y026685D01*
X049673Y026882D02*
X049181Y026882D01*
X049181Y027079D02*
X049673Y027079D01*
X049673Y027276D02*
X049181Y027276D01*
X049181Y027473D02*
X049673Y027473D01*
X049673Y027670D02*
X049181Y027670D01*
X049181Y027866D02*
X049673Y027866D01*
X049673Y028063D02*
X049181Y028063D01*
X050155Y028546D02*
X050155Y029038D01*
X050352Y029038D02*
X050352Y028546D01*
X050549Y028546D02*
X050549Y029038D01*
X050746Y029038D02*
X050746Y028546D01*
X050943Y028546D02*
X050943Y029038D01*
X051139Y029038D02*
X051139Y028546D01*
X051336Y028546D02*
X051336Y029038D01*
X051533Y029038D02*
X051533Y028546D01*
X051730Y028546D02*
X051730Y029038D01*
X051927Y029038D02*
X051927Y028546D01*
X052124Y028546D02*
X052124Y029038D01*
X052320Y029038D02*
X052320Y028546D01*
X052517Y028546D02*
X052517Y029038D01*
X052714Y029038D02*
X052714Y028546D01*
X052911Y028546D02*
X052911Y029038D01*
X053108Y029038D02*
X053108Y028546D01*
X053305Y028546D02*
X053305Y029038D01*
X053502Y029038D02*
X053502Y028546D01*
X053698Y028546D02*
X053698Y029038D01*
X053895Y029038D02*
X053895Y028546D01*
X054092Y028546D02*
X054092Y029038D01*
X054289Y029038D02*
X054289Y028546D01*
X054486Y028546D02*
X054486Y029038D01*
X054683Y029038D02*
X054683Y028546D01*
X054880Y028546D02*
X054880Y029038D01*
X055076Y029038D02*
X055076Y028546D01*
X055273Y028546D02*
X055273Y029038D01*
X055470Y029038D02*
X055470Y028546D01*
X055667Y028546D02*
X055667Y029038D01*
X055864Y029038D02*
X055864Y028546D01*
X056061Y028546D02*
X056061Y029038D01*
X056257Y029038D02*
X056257Y028546D01*
X056454Y028546D02*
X056454Y029038D01*
X056651Y029038D02*
X056651Y028546D01*
X056848Y028546D02*
X056848Y029038D01*
X057045Y029038D02*
X057045Y028546D01*
X057527Y028063D02*
X058019Y028063D01*
X058019Y027866D02*
X057527Y027866D01*
X057527Y027670D02*
X058019Y027670D01*
X058019Y027473D02*
X057527Y027473D01*
X057527Y027276D02*
X058019Y027276D01*
X058019Y027079D02*
X057527Y027079D01*
X057527Y026882D02*
X058019Y026882D01*
X058019Y026685D02*
X057527Y026685D01*
X057527Y026488D02*
X058019Y026488D01*
X058019Y026292D02*
X057527Y026292D01*
X057527Y026095D02*
X058019Y026095D01*
X058019Y025898D02*
X057527Y025898D01*
X057527Y025701D02*
X058019Y025701D01*
X058019Y025504D02*
X057527Y025504D01*
X057527Y025307D02*
X058019Y025307D01*
X058019Y025110D02*
X057527Y025110D01*
X057527Y024914D02*
X058019Y024914D01*
X058019Y024717D02*
X057527Y024717D01*
X057527Y024520D02*
X058019Y024520D01*
X058019Y024323D02*
X057527Y024323D01*
X057527Y024126D02*
X058019Y024126D01*
X058019Y023929D02*
X057527Y023929D01*
X057527Y023733D02*
X058019Y023733D01*
X058019Y023536D02*
X057527Y023536D01*
X057527Y023339D02*
X058019Y023339D01*
X058019Y023142D02*
X057527Y023142D01*
X057527Y022945D02*
X058019Y022945D01*
X058019Y022748D02*
X057527Y022748D01*
X057527Y022551D02*
X058019Y022551D01*
X058019Y022355D02*
X057527Y022355D01*
X057527Y022158D02*
X058019Y022158D01*
X058019Y021961D02*
X057527Y021961D01*
X057527Y021764D02*
X058019Y021764D01*
X058019Y021567D02*
X057527Y021567D01*
X057527Y021370D02*
X058019Y021370D01*
X058019Y021173D02*
X057527Y021173D01*
X057045Y020691D02*
X057045Y020199D01*
X056848Y020199D02*
X056848Y020691D01*
X056651Y020691D02*
X056651Y020199D01*
X056454Y020199D02*
X056454Y020691D01*
X056257Y020691D02*
X056257Y020199D01*
X056061Y020199D02*
X056061Y020691D01*
X055864Y020691D02*
X055864Y020199D01*
X055667Y020199D02*
X055667Y020691D01*
X055470Y020691D02*
X055470Y020199D01*
X055273Y020199D02*
X055273Y020691D01*
X055076Y020691D02*
X055076Y020199D01*
X054880Y020199D02*
X054880Y020691D01*
X054683Y020691D02*
X054683Y020199D01*
X054486Y020199D02*
X054486Y020691D01*
X054289Y020691D02*
X054289Y020199D01*
X054092Y020199D02*
X054092Y020691D01*
X053895Y020691D02*
X053895Y020199D01*
X053698Y020199D02*
X053698Y020691D01*
X053502Y020691D02*
X053502Y020199D01*
X053305Y020199D02*
X053305Y020691D01*
X053108Y020691D02*
X053108Y020199D01*
X052911Y020199D02*
X052911Y020691D01*
X052714Y020691D02*
X052714Y020199D01*
X052517Y020199D02*
X052517Y020691D01*
X052320Y020691D02*
X052320Y020199D01*
X052124Y020199D02*
X052124Y020691D01*
X051927Y020691D02*
X051927Y020199D01*
X051730Y020199D02*
X051730Y020691D01*
X051533Y020691D02*
X051533Y020199D01*
X051336Y020199D02*
X051336Y020691D01*
X051139Y020691D02*
X051139Y020199D01*
X050943Y020199D02*
X050943Y020691D01*
X050746Y020691D02*
X050746Y020199D01*
X050549Y020199D02*
X050549Y020691D01*
X050352Y020691D02*
X050352Y020199D01*
X050155Y020199D02*
X050155Y020691D01*
D14*
X067350Y022118D03*
X046850Y007368D03*
X024600Y012618D03*
X004600Y026118D03*
D15*
X005600Y026118D03*
X006600Y026118D03*
X007600Y026118D03*
X008600Y026118D03*
X009600Y026118D03*
X009600Y027118D03*
X008600Y027118D03*
X007600Y027118D03*
X006600Y027118D03*
X005600Y027118D03*
X004600Y027118D03*
X024600Y013618D03*
X025600Y013618D03*
X026600Y013618D03*
X026600Y012618D03*
X025600Y012618D03*
X046850Y008368D03*
X047850Y008368D03*
X048850Y008368D03*
X048850Y007368D03*
X047850Y007368D03*
X049850Y007368D03*
X050850Y007368D03*
X050850Y008368D03*
X049850Y008368D03*
X067350Y009118D03*
X068350Y009118D03*
X068350Y010118D03*
X067350Y010118D03*
X067350Y011118D03*
X068350Y011118D03*
X068350Y012118D03*
X067350Y012118D03*
X067350Y013118D03*
X068350Y013118D03*
X068350Y014118D03*
X067350Y014118D03*
X067350Y015118D03*
X068350Y015118D03*
X068350Y016118D03*
X067350Y016118D03*
X067350Y017118D03*
X068350Y017118D03*
X068350Y018118D03*
X067350Y018118D03*
X067350Y019118D03*
X068350Y019118D03*
X068350Y020118D03*
X067350Y020118D03*
X067350Y021118D03*
X068350Y021118D03*
X068350Y022118D03*
X065850Y045618D03*
D16*
X054850Y033293D03*
X054850Y032693D03*
X053850Y032693D03*
X052850Y032693D03*
X052850Y033293D03*
X053850Y033293D03*
X045725Y035568D03*
X045725Y036168D03*
X045350Y038568D03*
X045350Y039168D03*
X045350Y040068D03*
X045350Y040668D03*
X042350Y039918D03*
X042350Y039318D03*
X036850Y033918D03*
X036850Y033318D03*
X036100Y033318D03*
X036100Y033918D03*
X032475Y035193D03*
X032475Y035793D03*
X032100Y033418D03*
X032100Y032818D03*
X027600Y032818D03*
X027600Y033418D03*
X027975Y035193D03*
X027975Y035793D03*
X022600Y035668D03*
X022600Y035068D03*
X022600Y034168D03*
X022600Y033568D03*
X022600Y031668D03*
X022600Y031068D03*
X022600Y030168D03*
X022600Y029568D03*
X019100Y029943D03*
X019100Y030543D03*
X019100Y031443D03*
X019100Y032043D03*
X019100Y033193D03*
X019100Y033793D03*
X019100Y034693D03*
X019100Y035293D03*
X017350Y036068D03*
X017350Y036668D03*
X016600Y036668D03*
X016600Y036068D03*
X015850Y036068D03*
X015850Y036668D03*
X015100Y036668D03*
X015100Y036068D03*
X012600Y036068D03*
X012600Y036668D03*
X011600Y036668D03*
X011600Y036068D03*
X010850Y036068D03*
X010850Y036668D03*
X010100Y036668D03*
X010100Y036068D03*
X008100Y034418D03*
X008100Y033818D03*
X007350Y033818D03*
X007350Y034418D03*
X003350Y034318D03*
X003350Y034918D03*
X002600Y034918D03*
X002600Y034318D03*
X014350Y023418D03*
X014350Y022818D03*
X013975Y021043D03*
X013975Y020443D03*
X010600Y020443D03*
X010600Y021043D03*
X009850Y021043D03*
X009850Y020443D03*
X009100Y020443D03*
X009100Y021043D03*
X009100Y021818D03*
X009100Y022418D03*
X009850Y022418D03*
X009850Y021818D03*
X010600Y021818D03*
X010600Y022418D03*
X005100Y022418D03*
X005100Y021818D03*
X004350Y021818D03*
X004350Y022418D03*
X003600Y022418D03*
X003600Y021818D03*
X003600Y021043D03*
X003600Y020443D03*
X004350Y020443D03*
X004350Y021043D03*
X005100Y021043D03*
X005100Y020443D03*
X014350Y016418D03*
X014350Y015818D03*
X013975Y014043D03*
X013975Y013443D03*
X021850Y017193D03*
X021850Y017793D03*
X022600Y017793D03*
X022600Y017193D03*
X022600Y020818D03*
X022600Y021418D03*
X020475Y023818D03*
X020475Y024418D03*
X033850Y014168D03*
X034600Y014168D03*
X034600Y013568D03*
X033850Y013568D03*
X032100Y007918D03*
X032100Y007318D03*
X030600Y007418D03*
X030600Y006818D03*
X029850Y006818D03*
X029850Y007418D03*
X029100Y007418D03*
X029100Y006818D03*
X045350Y006168D03*
X045350Y005568D03*
X045350Y004668D03*
X045350Y004068D03*
X052350Y004568D03*
X052350Y005168D03*
D17*
X051725Y017118D03*
X055475Y017118D03*
D18*
X053650Y010618D03*
X053050Y010618D03*
X053050Y009868D03*
X053650Y009868D03*
X053650Y009118D03*
X053050Y009118D03*
X053050Y008368D03*
X053650Y008368D03*
X053650Y007618D03*
X053050Y007618D03*
X053050Y006868D03*
X053650Y006868D03*
X047650Y009368D03*
X047050Y009368D03*
X029275Y017743D03*
X028675Y017743D03*
X022525Y016368D03*
X021925Y016368D03*
X016900Y018118D03*
X016300Y018118D03*
X015400Y018118D03*
X014800Y018118D03*
X014800Y018868D03*
X015400Y018868D03*
X016300Y018868D03*
X016900Y018868D03*
X016900Y020368D03*
X016300Y020368D03*
X016300Y021118D03*
X016900Y021118D03*
X015400Y021118D03*
X014800Y021118D03*
X014800Y020368D03*
X015400Y020368D03*
X010150Y019618D03*
X009550Y019618D03*
X008650Y019618D03*
X008050Y019618D03*
X006150Y019618D03*
X005550Y019618D03*
X004650Y019618D03*
X004050Y019618D03*
X004425Y023118D03*
X005025Y023118D03*
X005925Y023118D03*
X006525Y023118D03*
X007675Y023118D03*
X008275Y023118D03*
X009175Y023118D03*
X009775Y023118D03*
X014800Y025118D03*
X015400Y025118D03*
X016300Y025118D03*
X016900Y025118D03*
X016900Y025868D03*
X016300Y025868D03*
X015400Y025868D03*
X014800Y025868D03*
X019800Y029118D03*
X020400Y029118D03*
X021175Y029118D03*
X021775Y029118D03*
X021775Y029868D03*
X021175Y029868D03*
X021175Y030618D03*
X021775Y030618D03*
X020400Y030618D03*
X019800Y030618D03*
X019800Y029868D03*
X020400Y029868D03*
X025050Y030368D03*
X025650Y030368D03*
X025650Y031118D03*
X025050Y031118D03*
X026550Y031118D03*
X027150Y031118D03*
X027150Y030368D03*
X026550Y030368D03*
X029550Y030368D03*
X030150Y030368D03*
X030150Y031118D03*
X029550Y031118D03*
X031050Y031118D03*
X031650Y031118D03*
X031650Y030368D03*
X031050Y030368D03*
X035300Y027118D03*
X035900Y027118D03*
X042550Y029868D03*
X043150Y029868D03*
X043150Y030618D03*
X042550Y030618D03*
X043175Y031368D03*
X043775Y031368D03*
X043150Y032118D03*
X042550Y032118D03*
X038900Y035118D03*
X038300Y035118D03*
X038300Y036368D03*
X038900Y036368D03*
X031650Y035868D03*
X031050Y035868D03*
X031050Y035118D03*
X031650Y035118D03*
X030150Y035118D03*
X029550Y035118D03*
X029550Y035868D03*
X030150Y035868D03*
X027150Y035868D03*
X026550Y035868D03*
X025650Y035868D03*
X025050Y035868D03*
X025050Y035118D03*
X025650Y035118D03*
X026550Y035118D03*
X027150Y035118D03*
X021775Y035368D03*
X021175Y035368D03*
X021175Y036118D03*
X021775Y036118D03*
X020400Y036118D03*
X019800Y036118D03*
X019800Y035368D03*
X020400Y035368D03*
X020400Y034618D03*
X019800Y034618D03*
X021175Y034618D03*
X021775Y034618D03*
X008025Y032493D03*
X007425Y032493D03*
X005650Y032493D03*
X005050Y032493D03*
X003275Y032493D03*
X002675Y032493D03*
X002675Y033618D03*
X003275Y033618D03*
X005050Y035618D03*
X005650Y035618D03*
X023675Y022618D03*
X024275Y022618D03*
X016900Y014118D03*
X016300Y014118D03*
X015400Y014118D03*
X014800Y014118D03*
X014800Y013368D03*
X015400Y013368D03*
X016300Y013368D03*
X016900Y013368D03*
X018800Y007868D03*
X019400Y007868D03*
X019400Y007118D03*
X018800Y007118D03*
X018800Y006368D03*
X019400Y006368D03*
X019400Y005618D03*
X018800Y005618D03*
X018800Y004868D03*
X019400Y004868D03*
X019400Y004118D03*
X018800Y004118D03*
X047550Y032618D03*
X048150Y032618D03*
X049300Y032618D03*
X049900Y032618D03*
X057175Y033868D03*
X057775Y033868D03*
D19*
X054475Y029618D03*
X037600Y027118D03*
D20*
X040100Y026845D03*
X040600Y026845D03*
X041100Y026845D03*
X041600Y026845D03*
X041600Y028892D03*
X041100Y028892D03*
X040600Y028892D03*
X040100Y028892D03*
X031100Y032095D03*
X030600Y032095D03*
X030100Y032095D03*
X029600Y032095D03*
X029600Y034142D03*
X030100Y034142D03*
X030600Y034142D03*
X031100Y034142D03*
X026600Y034142D03*
X026100Y034142D03*
X025600Y034142D03*
X025100Y034142D03*
X025100Y032095D03*
X025600Y032095D03*
X026100Y032095D03*
X026600Y032095D03*
X021350Y031595D03*
X020850Y031595D03*
X020350Y031595D03*
X019850Y031595D03*
X019850Y033642D03*
X020350Y033642D03*
X020850Y033642D03*
X021350Y033642D03*
X021100Y025142D03*
X021600Y025142D03*
X022100Y025142D03*
X022600Y025142D03*
X022600Y023095D03*
X022100Y023095D03*
X021600Y023095D03*
X021100Y023095D03*
X016850Y022095D03*
X016350Y022095D03*
X015850Y022095D03*
X015350Y022095D03*
X015350Y024142D03*
X015850Y024142D03*
X016350Y024142D03*
X016850Y024142D03*
X016850Y017142D03*
X016350Y017142D03*
X015850Y017142D03*
X015350Y017142D03*
X015350Y015095D03*
X015850Y015095D03*
X016350Y015095D03*
X016850Y015095D03*
X043100Y038595D03*
X043600Y038595D03*
X044100Y038595D03*
X044600Y038595D03*
X044600Y040642D03*
X044100Y040642D03*
X043600Y040642D03*
X043100Y040642D03*
D21*
X041350Y040118D03*
X041350Y039118D03*
X036475Y036243D03*
X036475Y035243D03*
X041600Y035118D03*
X041600Y034118D03*
X041600Y032618D03*
X041600Y031618D03*
X054850Y037993D03*
X054850Y038993D03*
X021600Y021618D03*
X021600Y020618D03*
X018100Y030868D03*
X018100Y031868D03*
X018100Y033368D03*
X018100Y034368D03*
D22*
X048600Y039618D03*
X048600Y040406D03*
X048600Y041193D03*
X048600Y041981D03*
D23*
X049742Y042177D03*
X047458Y042177D03*
X047458Y039421D03*
X049742Y039421D03*
D24*
X053108Y040453D02*
X053108Y041014D01*
X053108Y041801D02*
X053108Y042362D01*
X054092Y042362D02*
X054092Y041801D01*
X054092Y041014D02*
X054092Y040453D01*
D25*
X055962Y042868D03*
X051238Y042868D03*
D26*
X057100Y034868D03*
X057600Y034868D03*
X058100Y034868D03*
X058600Y034868D03*
X059100Y034868D03*
X059600Y034868D03*
X060100Y034868D03*
D27*
X058600Y038118D03*
D28*
X059600Y041368D03*
D29*
X057600Y042493D03*
X059600Y043743D03*
X044533Y043152D03*
X044533Y045317D03*
X043746Y046262D03*
D30*
X064100Y036390D03*
X064100Y032847D03*
D31*
X054760Y036713D03*
X053850Y036713D03*
X052940Y036713D03*
D32*
X053850Y034273D03*
D33*
X053600Y037993D03*
X052600Y037993D03*
D34*
X063108Y039634D03*
X064092Y039634D03*
X064092Y040618D03*
X063108Y040618D03*
X063108Y041603D03*
X064092Y041603D03*
D35*
X062817Y013723D03*
X061832Y013723D03*
X060848Y013723D03*
X059864Y013723D03*
X058880Y013723D03*
X057895Y013723D03*
X056911Y013723D03*
D36*
X056281Y013723D03*
X055769Y013723D03*
X055297Y013723D03*
D37*
X063801Y013723D03*
D38*
X064706Y013014D03*
X054628Y012975D03*
X054667Y004786D03*
X065651Y004786D03*
D39*
X045600Y029618D03*
X045600Y030618D03*
X045600Y031618D03*
D40*
X045600Y028368D03*
D41*
X036850Y031705D03*
X036100Y031705D03*
X036100Y032532D03*
X036850Y032532D03*
X053350Y005282D03*
X053350Y004455D03*
D42*
X016696Y005042D03*
X016696Y007542D03*
X016696Y010042D03*
X012196Y010042D03*
X009696Y010042D03*
X009696Y007542D03*
X012196Y007542D03*
X012196Y005042D03*
X009696Y005042D03*
X005196Y005042D03*
X005196Y007542D03*
X005196Y010042D03*
X004004Y040195D03*
X004004Y042695D03*
X004004Y045195D03*
X008504Y045195D03*
X008504Y042695D03*
X008504Y040195D03*
D43*
X040320Y033028D03*
X040320Y032118D03*
X040320Y031208D03*
D44*
X037880Y032118D03*
D45*
X040350Y034118D03*
X040350Y035118D03*
X066100Y041868D03*
X066100Y042868D03*
D46*
X042850Y028768D03*
X042850Y027468D03*
X034100Y028468D03*
X034100Y029768D03*
D47*
X038726Y030051D03*
X039474Y030051D03*
X039100Y029185D03*
D48*
X037525Y029118D03*
X035675Y029118D03*
D49*
X033125Y027605D02*
X032575Y027605D01*
X032575Y028077D01*
X033125Y028077D01*
X033125Y027605D01*
X033125Y027722D02*
X032575Y027722D01*
X032575Y027839D02*
X033125Y027839D01*
X033125Y027956D02*
X032575Y027956D01*
X032575Y028073D02*
X033125Y028073D01*
X032125Y027605D02*
X031575Y027605D01*
X031575Y028077D01*
X032125Y028077D01*
X032125Y027605D01*
X032125Y027722D02*
X031575Y027722D01*
X031575Y027839D02*
X032125Y027839D01*
X032125Y027956D02*
X031575Y027956D01*
X031575Y028073D02*
X032125Y028073D01*
X032125Y027132D02*
X031575Y027132D01*
X032125Y027132D02*
X032125Y026660D01*
X031575Y026660D01*
X031575Y027132D01*
X031575Y026777D02*
X032125Y026777D01*
X032125Y026894D02*
X031575Y026894D01*
X031575Y027011D02*
X032125Y027011D01*
X032125Y027128D02*
X031575Y027128D01*
X032575Y026660D02*
X033125Y026660D01*
X032575Y026660D02*
X032575Y027132D01*
X033125Y027132D01*
X033125Y026660D01*
X033125Y026777D02*
X032575Y026777D01*
X032575Y026894D02*
X033125Y026894D01*
X033125Y027011D02*
X032575Y027011D01*
X032575Y027128D02*
X033125Y027128D01*
X029250Y016605D02*
X028700Y016605D01*
X028700Y017077D01*
X029250Y017077D01*
X029250Y016605D01*
X029250Y016722D02*
X028700Y016722D01*
X028700Y016839D02*
X029250Y016839D01*
X029250Y016956D02*
X028700Y016956D01*
X028700Y017073D02*
X029250Y017073D01*
X029250Y015660D02*
X028700Y015660D01*
X028700Y016132D01*
X029250Y016132D01*
X029250Y015660D01*
X029250Y015777D02*
X028700Y015777D01*
X028700Y015894D02*
X029250Y015894D01*
X029250Y016011D02*
X028700Y016011D01*
X028700Y016128D02*
X029250Y016128D01*
X028250Y016132D02*
X027700Y016132D01*
X028250Y016132D02*
X028250Y015660D01*
X027700Y015660D01*
X027700Y016132D01*
X027700Y015777D02*
X028250Y015777D01*
X028250Y015894D02*
X027700Y015894D01*
X027700Y016011D02*
X028250Y016011D01*
X028250Y016128D02*
X027700Y016128D01*
X027700Y016605D02*
X028250Y016605D01*
X027700Y016605D02*
X027700Y017077D01*
X028250Y017077D01*
X028250Y016605D01*
X028250Y016722D02*
X027700Y016722D01*
X027700Y016839D02*
X028250Y016839D01*
X028250Y016956D02*
X027700Y016956D01*
X027700Y017073D02*
X028250Y017073D01*
D50*
X024475Y023618D03*
X023475Y023618D03*
X008850Y024118D03*
X007850Y024118D03*
X006350Y024118D03*
X005350Y024118D03*
X004850Y036618D03*
X003850Y036618D03*
X002850Y036618D03*
X005850Y036618D03*
X007100Y036618D03*
X008100Y036618D03*
X067350Y036618D03*
X068350Y036618D03*
D51*
X045194Y012764D03*
X044880Y012764D03*
X044565Y012764D03*
X044250Y012764D03*
X043935Y012764D03*
X043620Y012764D03*
X043305Y012764D03*
X042990Y012764D03*
X042675Y012764D03*
X042360Y012764D03*
X042045Y012764D03*
X041730Y012764D03*
X041415Y012764D03*
X041100Y012764D03*
X040785Y012764D03*
X040470Y012764D03*
X040155Y012764D03*
X039840Y012764D03*
X039525Y012764D03*
X039210Y012764D03*
X038895Y012764D03*
X038580Y012764D03*
X038265Y012764D03*
X037950Y012764D03*
X037635Y012764D03*
X037320Y012764D03*
X037006Y012764D03*
X037006Y008473D03*
X037320Y008473D03*
X037635Y008473D03*
X037950Y008473D03*
X038265Y008473D03*
X038580Y008473D03*
X038895Y008473D03*
X039210Y008473D03*
X039525Y008473D03*
X039840Y008473D03*
X040155Y008473D03*
X040470Y008473D03*
X040785Y008473D03*
X041100Y008473D03*
X041415Y008473D03*
X041730Y008473D03*
X042045Y008473D03*
X042360Y008473D03*
X042675Y008473D03*
X042990Y008473D03*
X043305Y008473D03*
X043620Y008473D03*
X043935Y008473D03*
X044250Y008473D03*
X044565Y008473D03*
X044880Y008473D03*
X045194Y008473D03*
D52*
X029850Y004868D03*
D53*
X030850Y004868D03*
X031850Y004868D03*
X032850Y004868D03*
X033850Y004868D03*
X034850Y004868D03*
X035850Y004868D03*
X035850Y005868D03*
X034850Y005868D03*
X033850Y005868D03*
X032850Y005868D03*
X031850Y005868D03*
X030850Y005868D03*
X029850Y005868D03*
D54*
X027076Y017414D03*
X026880Y017414D03*
X026683Y017414D03*
X026486Y017414D03*
X026289Y017414D03*
X026092Y017414D03*
X025895Y017414D03*
X025698Y017414D03*
X025502Y017414D03*
X025305Y017414D03*
X025108Y017414D03*
X024911Y017414D03*
X024714Y017414D03*
X024517Y017414D03*
X024320Y017414D03*
X024124Y017414D03*
X024124Y021823D03*
X024320Y021823D03*
X024517Y021823D03*
X024714Y021823D03*
X024911Y021823D03*
X025108Y021823D03*
X025305Y021823D03*
X025502Y021823D03*
X025698Y021823D03*
X025895Y021823D03*
X026092Y021823D03*
X026289Y021823D03*
X026486Y021823D03*
X026683Y021823D03*
X026880Y021823D03*
X027076Y021823D03*
X060836Y020839D03*
X061033Y020839D03*
X061230Y020839D03*
X061427Y020839D03*
X061624Y020839D03*
X061820Y020839D03*
X062017Y020839D03*
X062214Y020839D03*
X062411Y020839D03*
X062608Y020839D03*
X062805Y020839D03*
X063002Y020839D03*
X063198Y020839D03*
X063395Y020839D03*
X063592Y020839D03*
X063789Y020839D03*
X063986Y020839D03*
X064183Y020839D03*
X064380Y020839D03*
X064576Y020839D03*
X064773Y020839D03*
X064970Y020839D03*
X065167Y020839D03*
X065364Y020839D03*
X065364Y028398D03*
X065167Y028398D03*
X064970Y028398D03*
X064773Y028398D03*
X064576Y028398D03*
X064380Y028398D03*
X064183Y028398D03*
X063986Y028398D03*
X063789Y028398D03*
X063592Y028398D03*
X063395Y028398D03*
X063198Y028398D03*
X063002Y028398D03*
X062805Y028398D03*
X062608Y028398D03*
X062411Y028398D03*
X062214Y028398D03*
X062017Y028398D03*
X061820Y028398D03*
X061624Y028398D03*
X061427Y028398D03*
X061230Y028398D03*
X061033Y028398D03*
X060836Y028398D03*
D55*
X027805Y021095D03*
X027805Y020898D03*
X027805Y020701D03*
X027805Y020504D03*
X027805Y020307D03*
X027805Y020110D03*
X027805Y019914D03*
X027805Y019717D03*
X027805Y019520D03*
X027805Y019323D03*
X027805Y019126D03*
X027805Y018929D03*
X027805Y018733D03*
X027805Y018536D03*
X027805Y018339D03*
X027805Y018142D03*
X023395Y018142D03*
X023395Y018339D03*
X023395Y018536D03*
X023395Y018733D03*
X023395Y018929D03*
X023395Y019126D03*
X023395Y019323D03*
X023395Y019520D03*
X023395Y019717D03*
X023395Y019914D03*
X023395Y020110D03*
X023395Y020307D03*
X023395Y020504D03*
X023395Y020701D03*
X023395Y020898D03*
X023395Y021095D03*
D56*
X026748Y011264D03*
X026748Y011008D03*
X026748Y010752D03*
X026748Y010496D03*
X026748Y010240D03*
X026748Y009984D03*
X026748Y009729D03*
X026748Y009473D03*
X028952Y009473D03*
X028952Y009729D03*
X028952Y009984D03*
X028952Y010240D03*
X028952Y010496D03*
X028952Y010752D03*
X028952Y011008D03*
X028952Y011264D03*
D57*
X021553Y005242D03*
X021553Y004868D03*
X021553Y004494D03*
X020647Y004494D03*
X020647Y004868D03*
X020647Y005242D03*
D58*
X022504Y038805D03*
X023004Y040057D03*
X022504Y041305D03*
X024504Y041305D03*
X025004Y040057D03*
X024504Y038805D03*
X025004Y042557D03*
X024504Y043805D03*
X023004Y042557D03*
X022504Y043805D03*
X023004Y045055D03*
X025004Y045055D03*
X025504Y046187D03*
X029504Y043805D03*
X030004Y042557D03*
X031504Y043805D03*
X032004Y042557D03*
X031504Y041305D03*
X032004Y040057D03*
X031504Y038805D03*
X030004Y040057D03*
X029504Y041305D03*
X029504Y038805D03*
X036504Y038805D03*
X037004Y040057D03*
X036504Y041305D03*
X037004Y042557D03*
X036504Y043805D03*
X037004Y045055D03*
X032504Y046187D03*
X032004Y045055D03*
X030004Y045055D03*
X018504Y046187D03*
X018004Y045055D03*
X016004Y045055D03*
X015504Y043805D03*
X016004Y042557D03*
X017504Y043805D03*
X018004Y042557D03*
X017504Y041305D03*
X018004Y040057D03*
X017504Y038805D03*
X016004Y040057D03*
X015504Y041305D03*
X015504Y038805D03*
X011004Y040057D03*
X010504Y041305D03*
X011004Y042557D03*
X010504Y043805D03*
X011004Y045055D03*
X011504Y046187D03*
X010504Y038805D03*
D59*
X006374Y034868D03*
X006374Y034368D03*
X006374Y033868D03*
X006374Y033368D03*
X006374Y031743D03*
X006374Y031243D03*
X006374Y030743D03*
X006374Y030243D03*
X004326Y030243D03*
X004326Y030743D03*
X004326Y031243D03*
X004326Y031743D03*
X004326Y033368D03*
X004326Y033868D03*
X004326Y034368D03*
X004326Y034868D03*
X006076Y022368D03*
X006076Y021868D03*
X006076Y021368D03*
X006076Y020868D03*
X008124Y020868D03*
X008124Y021368D03*
X008124Y021868D03*
X008124Y022368D03*
D60*
X040667Y041494D03*
X040667Y042242D03*
X041533Y041868D03*
X040667Y042994D03*
X040667Y043742D03*
X041533Y043368D03*
D61*
X039350Y042368D03*
X039350Y041368D03*
X039350Y040368D03*
X039350Y039368D03*
X024850Y005868D03*
X023850Y005868D03*
D62*
X025850Y005868D03*
X039350Y038368D03*
D63*
X046567Y037443D03*
X046567Y037128D03*
X046567Y036813D03*
X046567Y036498D03*
X046567Y036183D03*
X046567Y035868D03*
X046567Y035553D03*
X046567Y035238D03*
X046567Y034923D03*
X046567Y034609D03*
X046567Y034294D03*
X051133Y034294D03*
X051133Y034609D03*
X051133Y034923D03*
X051133Y035238D03*
X051133Y035553D03*
X051133Y035868D03*
X051133Y036183D03*
X051133Y036498D03*
X051133Y036813D03*
X051133Y037128D03*
X051133Y037443D03*
D64*
X050425Y038152D03*
X050110Y038152D03*
X049795Y038152D03*
X049480Y038152D03*
X049165Y038152D03*
X048850Y038152D03*
X048535Y038152D03*
X048220Y038152D03*
X047905Y038152D03*
X047590Y038152D03*
X047275Y038152D03*
X047275Y033585D03*
X047590Y033585D03*
X047905Y033585D03*
X048220Y033585D03*
X048535Y033585D03*
X048850Y033585D03*
X049165Y033585D03*
X049480Y033585D03*
X049795Y033585D03*
X050110Y033585D03*
X050425Y033585D03*
D65*
X067338Y041744D03*
X068362Y041744D03*
X068362Y042118D03*
X068362Y042492D03*
X067338Y042492D03*
D66*
X067100Y037618D03*
X068600Y037618D03*
D67*
X068530Y039743D03*
X066670Y039743D03*
D68*
X068100Y044868D03*
X039350Y044868D03*
X002100Y044868D03*
X002100Y004618D03*
X039350Y004618D03*
X068100Y004618D03*
D69*
X068350Y009118D02*
X067850Y009618D01*
X067100Y009618D01*
X065850Y010868D01*
X065850Y013743D01*
X064600Y014993D01*
X059600Y014993D01*
X058880Y014273D01*
X058880Y013723D01*
X058880Y011648D01*
X058475Y011243D01*
X055600Y008368D01*
X053650Y008368D01*
X053050Y008368D02*
X053050Y007618D01*
X053050Y006868D01*
X052600Y006868D01*
X053650Y006868D02*
X057850Y006868D01*
X062817Y011835D01*
X062817Y013723D01*
X062725Y014118D01*
X062350Y014118D01*
X061832Y014226D02*
X061832Y013723D01*
X061832Y012101D01*
X061600Y011868D01*
X057350Y007618D01*
X053650Y007618D01*
X053050Y008368D02*
X053050Y009118D01*
X053050Y009868D01*
X053050Y010618D01*
X053600Y010618D02*
X053600Y013618D01*
X054100Y014118D01*
X054725Y014743D01*
X055600Y014743D01*
X055769Y014574D01*
X055769Y013723D01*
X055350Y013868D02*
X054600Y013868D01*
X054225Y013868D01*
X053850Y013493D01*
X053850Y011368D01*
X054100Y011118D01*
X054100Y010118D01*
X053850Y009868D01*
X053650Y009868D01*
X053650Y009118D02*
X053975Y009118D01*
X056725Y011868D01*
X056911Y012054D01*
X056911Y013723D01*
X056911Y014243D01*
X057911Y015243D01*
X064850Y015243D01*
X066225Y013868D01*
X066225Y010993D01*
X066600Y010618D01*
X067850Y010618D01*
X068350Y010118D01*
X067350Y009118D02*
X066850Y009118D01*
X065475Y010493D01*
X065475Y013618D01*
X064350Y014743D01*
X062350Y014743D01*
X061832Y014226D01*
X060850Y017868D02*
X059600Y017868D01*
X056850Y015118D01*
X053600Y015118D01*
X050350Y011868D01*
X050350Y007868D01*
X050850Y007368D01*
X049350Y007868D02*
X048850Y007368D01*
X049350Y007868D02*
X049350Y011868D01*
X053100Y015618D01*
X056850Y015618D01*
X060100Y018868D01*
X060600Y018868D01*
X060975Y018618D02*
X060725Y018368D01*
X059850Y018368D01*
X056850Y015368D01*
X053350Y015368D01*
X049850Y011868D01*
X049850Y009118D01*
X048850Y009368D02*
X048350Y008868D01*
X048350Y008118D01*
X048100Y007868D01*
X047350Y007868D01*
X046850Y007368D01*
X044880Y008473D02*
X044880Y009023D01*
X045475Y009618D01*
X045225Y009743D02*
X045225Y010243D01*
X044975Y009868D02*
X044250Y009143D01*
X044250Y008473D01*
X044565Y008473D02*
X044565Y009083D01*
X045225Y009743D01*
X044975Y009868D02*
X044975Y010868D01*
X044725Y011493D02*
X044725Y009993D01*
X043935Y009203D01*
X043935Y008473D01*
X043620Y008473D02*
X043620Y009263D01*
X044475Y010118D01*
X044475Y011993D01*
X043725Y011493D02*
X042045Y009813D01*
X042045Y008473D01*
X042360Y008473D02*
X042360Y009503D01*
X043975Y011118D01*
X044225Y010743D02*
X042675Y009193D01*
X042675Y008473D01*
X042990Y008473D02*
X042990Y009104D01*
X042975Y009118D01*
X043305Y008473D02*
X043305Y007948D01*
X043225Y007868D01*
X041730Y008473D02*
X041730Y010248D01*
X043475Y011993D01*
X042975Y011993D02*
X042725Y011993D01*
X042360Y012359D01*
X042360Y012764D01*
X042675Y012764D02*
X042675Y014169D01*
X042100Y014743D01*
X040725Y014743D01*
X040348Y015120D01*
X040348Y015579D01*
X039364Y015579D02*
X039364Y015230D01*
X040350Y014243D01*
X041350Y014243D01*
X040975Y013993D02*
X040350Y013993D01*
X039167Y015176D01*
X039167Y015579D01*
X038183Y015579D02*
X038183Y015161D01*
X038975Y014368D01*
X038475Y014368D02*
X037789Y015054D01*
X037789Y015579D01*
X037986Y015579D02*
X037986Y015983D01*
X037975Y016118D01*
X037600Y016118D02*
X037592Y016110D01*
X037592Y015579D01*
X037395Y015579D02*
X037395Y014948D01*
X037975Y014368D01*
X037600Y014368D02*
X037002Y014967D01*
X037002Y015579D01*
X036805Y015579D02*
X036805Y016073D01*
X036850Y016118D01*
X036608Y015579D02*
X036608Y015235D01*
X036725Y015118D01*
X036725Y014743D01*
X037100Y014368D01*
X036975Y014118D02*
X039725Y014118D01*
X040785Y013058D01*
X040785Y012764D01*
X040155Y012764D02*
X040155Y013188D01*
X039350Y013993D01*
X036850Y013993D01*
X035820Y015023D01*
X035820Y015579D01*
X035624Y015579D02*
X035624Y014970D01*
X036725Y013868D01*
X039100Y013868D01*
X039840Y013128D01*
X039840Y012764D01*
X039210Y012764D02*
X039210Y013133D01*
X038600Y013743D01*
X036600Y013743D01*
X035427Y014917D01*
X035427Y015579D01*
X035230Y015579D02*
X035230Y014863D01*
X036475Y013618D01*
X038350Y013618D01*
X038895Y013073D01*
X038895Y012764D01*
X038265Y012764D02*
X038265Y013078D01*
X037850Y013493D01*
X036350Y013493D01*
X035033Y014810D01*
X035033Y015579D01*
X034836Y015579D02*
X034836Y014757D01*
X036225Y013368D01*
X037600Y013368D01*
X037950Y013018D01*
X037950Y012764D01*
X037320Y012764D02*
X037320Y013023D01*
X037100Y013243D01*
X036100Y013243D01*
X034639Y014704D01*
X034639Y015579D01*
X034246Y015579D02*
X034246Y014848D01*
X034350Y014743D01*
X034600Y014493D01*
X034600Y014168D01*
X033850Y014168D02*
X033850Y014618D01*
X033975Y014743D01*
X034049Y014817D01*
X034049Y015579D01*
X033852Y015579D02*
X033852Y014995D01*
X033225Y014368D01*
X033225Y008993D01*
X032850Y008618D01*
X032850Y005868D01*
X033100Y005493D02*
X033350Y005743D01*
X033350Y005993D01*
X033725Y006368D01*
X034350Y006368D01*
X034850Y005868D01*
X033850Y005868D02*
X033225Y005243D01*
X031850Y005243D01*
X031350Y005743D01*
X031350Y005993D01*
X031100Y006243D01*
X031100Y006868D01*
X030600Y007368D01*
X030600Y007418D01*
X030600Y008368D01*
X032225Y009993D01*
X032225Y014368D01*
X031225Y015368D01*
X031225Y016868D01*
X031530Y017173D01*
X032061Y017173D01*
X032061Y016977D02*
X031583Y016977D01*
X031350Y016743D01*
X031350Y015618D01*
X032475Y014493D01*
X032475Y009743D01*
X031350Y008618D01*
X031350Y006368D01*
X031850Y005868D01*
X032350Y005743D02*
X032600Y005493D01*
X033100Y005493D01*
X032350Y005743D02*
X032350Y006118D01*
X031600Y006868D01*
X031600Y008368D01*
X032725Y009493D01*
X032725Y014618D01*
X031475Y015868D01*
X031475Y016618D01*
X031636Y016780D01*
X032061Y016780D01*
X032061Y016583D02*
X031690Y016583D01*
X031600Y016493D01*
X031600Y016118D01*
X032975Y014743D01*
X032975Y009243D01*
X032100Y008368D01*
X032100Y007918D01*
X032100Y007318D02*
X032100Y006868D01*
X030600Y006818D02*
X030600Y006118D01*
X030850Y005868D01*
X031350Y005368D02*
X029600Y005368D01*
X029100Y005868D01*
X029100Y006818D01*
X029100Y007418D02*
X029100Y007868D01*
X029850Y008118D02*
X029850Y007418D01*
X029850Y006818D02*
X029850Y005868D01*
X031350Y005368D02*
X031850Y004868D01*
X029850Y008118D02*
X031975Y010243D01*
X031975Y014243D01*
X031100Y015118D01*
X031100Y016993D01*
X031477Y017370D01*
X032061Y017370D01*
X032061Y017567D02*
X031299Y017567D01*
X030850Y017118D01*
X030850Y016118D01*
X029350Y014618D01*
X024600Y014618D01*
X023850Y013868D01*
X023850Y006868D01*
X024850Y005868D01*
X023850Y005868D02*
X023850Y006368D01*
X023600Y006618D01*
X023600Y014118D01*
X024350Y014868D01*
X029350Y014868D01*
X030600Y016118D01*
X030600Y017118D01*
X031246Y017764D01*
X032061Y017764D01*
X032850Y017743D02*
X035350Y020243D01*
X035350Y021743D01*
X035600Y021243D02*
X035600Y020118D01*
X032850Y017368D01*
X031475Y018493D02*
X029975Y018493D01*
X029100Y018493D01*
X028664Y018929D01*
X027805Y018929D01*
X027805Y018733D02*
X028361Y018733D01*
X028475Y018618D01*
X028183Y018536D02*
X028475Y018243D01*
X028183Y018536D02*
X027805Y018536D01*
X027805Y019126D02*
X028483Y019126D01*
X028725Y019368D01*
X028975Y019243D02*
X029225Y018993D01*
X029225Y018743D01*
X029600Y018743D02*
X029600Y018868D01*
X029225Y019243D01*
X029225Y019743D01*
X028858Y020110D01*
X027805Y020110D01*
X027805Y019914D02*
X028805Y019914D01*
X028975Y019743D01*
X028975Y019243D01*
X029475Y019243D02*
X029475Y019743D01*
X028911Y020307D01*
X027805Y020307D01*
X027805Y020504D02*
X028964Y020504D01*
X029850Y019618D01*
X030850Y019618D01*
X031358Y020126D01*
X032061Y020126D01*
X032061Y020323D02*
X031305Y020323D01*
X031225Y020243D01*
X029600Y020243D01*
X030600Y020493D02*
X031600Y020493D01*
X031627Y020520D01*
X032061Y020520D01*
X031100Y021118D02*
X031100Y021743D01*
X031255Y021898D01*
X032061Y021898D01*
X032061Y021701D02*
X031683Y021701D01*
X031475Y021493D01*
X030850Y021993D02*
X031148Y022292D01*
X032061Y022292D01*
X032061Y022882D02*
X032711Y022882D01*
X032850Y022743D01*
X041600Y022743D01*
X041225Y022993D02*
X032975Y022993D01*
X032889Y023079D01*
X032061Y023079D01*
X032061Y023276D02*
X032443Y023276D01*
X032475Y023243D01*
X040850Y023243D01*
X040475Y023493D02*
X033350Y023493D01*
X033100Y023743D01*
X032475Y023743D01*
X032401Y023670D01*
X032061Y023670D01*
X032061Y023866D02*
X031352Y023866D01*
X031350Y023868D01*
X032061Y024063D02*
X032600Y024063D01*
X032600Y024743D01*
X032850Y024868D02*
X032350Y025368D01*
X032350Y028118D01*
X032100Y028368D01*
X031850Y028368D01*
X035850Y026368D02*
X036017Y026201D01*
X036017Y025658D01*
X035820Y025658D02*
X035820Y024898D01*
X036100Y024618D01*
X035725Y024118D02*
X035100Y024743D01*
X035100Y025118D01*
X035230Y025248D01*
X035230Y025658D01*
X034246Y025658D02*
X034246Y024848D01*
X034475Y024618D01*
X034475Y024368D01*
X034100Y024368D02*
X034100Y024743D01*
X034049Y024795D01*
X034049Y025658D01*
X033225Y024868D02*
X032850Y024868D01*
X033225Y024868D02*
X034100Y023993D01*
X033600Y023743D02*
X040350Y023743D01*
X041975Y025368D01*
X043350Y025368D01*
X044600Y026618D01*
X046975Y026618D01*
X048026Y027670D01*
X049427Y027670D01*
X049427Y027866D02*
X049102Y027866D01*
X048850Y028118D01*
X048850Y028368D01*
X049225Y028743D01*
X049225Y029118D01*
X050725Y030618D01*
X062725Y030618D01*
X064576Y028767D01*
X064576Y028398D01*
X064380Y028398D02*
X064380Y027839D01*
X064350Y027743D01*
X063986Y027879D02*
X063986Y028398D01*
X064183Y028398D02*
X064183Y028786D01*
X062475Y030493D01*
X051225Y030493D01*
X050352Y029620D01*
X050352Y028792D01*
X050549Y028792D02*
X050549Y029442D01*
X050600Y029493D01*
X050746Y029264D02*
X051850Y030368D01*
X062225Y030368D01*
X063789Y028804D01*
X063789Y028398D01*
X063592Y028398D02*
X063592Y027626D01*
X063850Y027368D01*
X063475Y027368D02*
X063198Y027645D01*
X063198Y028398D01*
X063395Y028398D02*
X063395Y028823D01*
X061975Y030243D01*
X051975Y030243D01*
X051139Y029408D01*
X051139Y028792D01*
X050943Y028792D02*
X050943Y028211D01*
X050850Y028118D01*
X050475Y027743D02*
X050100Y028118D01*
X050475Y027743D02*
X052350Y027743D01*
X052714Y028108D01*
X052714Y028792D01*
X052517Y028792D02*
X052517Y029536D01*
X052975Y029993D01*
X061225Y029993D01*
X062411Y028807D01*
X062411Y028398D01*
X062214Y028398D02*
X062225Y028243D01*
X062225Y027993D01*
X061725Y027493D01*
X061600Y027743D02*
X061820Y027964D01*
X061820Y028398D01*
X061624Y028398D02*
X061624Y028845D01*
X060725Y029743D01*
X055475Y029743D01*
X055273Y029542D01*
X055273Y028792D01*
X054880Y028792D02*
X054880Y029398D01*
X055350Y029868D01*
X060975Y029868D01*
X062017Y028826D01*
X062017Y028398D01*
X061427Y028398D02*
X061427Y027945D01*
X061350Y027868D01*
X061225Y027868D01*
X060850Y027493D01*
X060850Y027368D01*
X060600Y027118D01*
X060225Y026868D02*
X060975Y026118D01*
X060975Y024368D01*
X060475Y024368D02*
X060475Y026118D01*
X059975Y026618D01*
X059975Y027743D01*
X058725Y028993D01*
X057975Y028993D01*
X054350Y025368D01*
X053600Y025368D01*
X051725Y027243D01*
X050100Y027243D01*
X049936Y027079D01*
X049427Y027079D01*
X049427Y027276D02*
X048007Y027276D01*
X047100Y026368D01*
X044850Y026368D01*
X044725Y025368D02*
X048850Y025368D01*
X048986Y025504D01*
X049427Y025504D01*
X049427Y025898D02*
X048755Y025898D01*
X048475Y025618D01*
X044100Y025618D01*
X043850Y025368D01*
X043850Y024868D02*
X048850Y024868D01*
X049002Y024717D01*
X049427Y024717D01*
X049427Y024914D02*
X049055Y024914D01*
X048850Y025118D01*
X045225Y025118D01*
X046225Y025868D02*
X046475Y026118D01*
X047350Y026118D01*
X048114Y026882D01*
X049427Y026882D01*
X049427Y026685D02*
X048792Y026685D01*
X048725Y026618D01*
X048427Y026292D02*
X048350Y026368D01*
X048427Y026292D02*
X049427Y026292D01*
X049427Y026095D02*
X048576Y026095D01*
X048350Y025868D01*
X046600Y025868D01*
X046600Y027118D02*
X048100Y028618D01*
X048100Y029618D01*
X049600Y031118D01*
X052100Y031118D01*
X051725Y031368D02*
X049350Y031368D01*
X047850Y029868D01*
X047850Y028868D01*
X046600Y027618D01*
X046600Y028368D02*
X047350Y029118D01*
X047350Y029868D01*
X049100Y031618D01*
X052225Y031618D01*
X052475Y031368D01*
X055225Y031368D01*
X055350Y031243D01*
X056225Y031243D01*
X055475Y031618D02*
X052600Y031618D01*
X052350Y031868D01*
X048850Y031868D01*
X046600Y029618D01*
X046600Y028868D01*
X048475Y028993D02*
X050350Y030868D01*
X063100Y030868D01*
X065167Y028801D01*
X065167Y028398D01*
X065364Y028398D02*
X065364Y026632D01*
X061725Y022993D01*
X059100Y022993D01*
X058850Y022743D01*
X058350Y022743D01*
X058148Y022945D01*
X057773Y022945D01*
X057773Y023339D02*
X058255Y023339D01*
X058475Y023118D01*
X061475Y023118D01*
X061725Y023368D01*
X062100Y023743D02*
X059350Y023743D01*
X059225Y023618D01*
X058975Y023618D01*
X058975Y023993D02*
X061475Y023993D01*
X059725Y024743D02*
X059358Y025110D01*
X057773Y025110D01*
X057773Y024914D02*
X058930Y024914D01*
X059100Y024743D01*
X058600Y024368D02*
X058161Y023929D01*
X057773Y023929D01*
X057773Y023733D02*
X058339Y023733D01*
X058600Y023993D01*
X059225Y022868D02*
X064100Y022868D01*
X065364Y021605D01*
X065364Y020839D01*
X065167Y020839D02*
X065167Y021551D01*
X063975Y022743D01*
X059350Y022743D01*
X059225Y022618D01*
X059225Y021868D01*
X058850Y021493D01*
X058725Y021493D01*
X058454Y021764D01*
X057773Y021764D01*
X057773Y021567D02*
X058276Y021567D01*
X058350Y021493D01*
X058225Y021243D02*
X058850Y021243D01*
X059350Y021743D01*
X059350Y022493D01*
X059475Y022618D01*
X063850Y022618D01*
X064970Y021498D01*
X064970Y020839D01*
X064773Y020839D02*
X064773Y021445D01*
X063725Y022493D01*
X059600Y022493D01*
X059475Y022368D01*
X059475Y021618D01*
X057850Y019993D01*
X056975Y019993D01*
X056848Y020120D01*
X056848Y020445D01*
X056651Y020445D02*
X056651Y020942D01*
X056475Y021118D01*
X056257Y020961D02*
X056100Y021118D01*
X056257Y020961D02*
X056257Y020445D01*
X056061Y020445D02*
X056061Y020033D01*
X056350Y019743D01*
X058100Y019743D01*
X059725Y021368D01*
X059725Y022118D01*
X059850Y022243D01*
X063475Y022243D01*
X064380Y021339D01*
X064380Y020839D01*
X064576Y020839D02*
X064576Y021392D01*
X063600Y022368D01*
X059725Y022368D01*
X059600Y022243D01*
X059600Y021493D01*
X057975Y019868D01*
X056725Y019868D01*
X056454Y020139D01*
X056454Y020445D01*
X055864Y020445D02*
X055864Y020980D01*
X055725Y021118D01*
X055470Y020998D02*
X055470Y020445D01*
X055273Y020445D02*
X055273Y020070D01*
X055850Y019493D01*
X058350Y019493D01*
X059975Y021118D01*
X059975Y021868D01*
X060100Y021993D01*
X061725Y021993D01*
X062214Y021504D01*
X062214Y020839D01*
X062017Y020839D02*
X062017Y021451D01*
X061600Y021868D01*
X060225Y021868D01*
X060100Y021743D01*
X060100Y020993D01*
X058475Y019368D01*
X055600Y019368D01*
X054880Y020089D01*
X054880Y020445D01*
X055076Y020445D02*
X055076Y021017D01*
X054975Y021118D01*
X054683Y021036D02*
X054683Y020445D01*
X054486Y020445D02*
X054486Y020108D01*
X055350Y019243D01*
X058600Y019243D01*
X060225Y020868D01*
X060225Y021618D01*
X060350Y021743D01*
X061475Y021743D01*
X061820Y021398D01*
X061820Y020839D01*
X061624Y020839D02*
X061624Y021345D01*
X061350Y021618D01*
X060475Y021618D01*
X060350Y021493D01*
X060350Y020743D01*
X058725Y019118D01*
X054100Y019118D01*
X053698Y019520D01*
X053698Y020445D01*
X053502Y020445D02*
X053502Y020967D01*
X052975Y021493D01*
X051225Y021493D01*
X050850Y021118D01*
X050600Y020993D02*
X050600Y022743D01*
X050350Y022368D02*
X050167Y022551D01*
X049427Y022551D01*
X049427Y022355D02*
X049989Y022355D01*
X050100Y022243D01*
X049975Y021993D02*
X049975Y021118D01*
X049475Y020618D01*
X049475Y019493D01*
X050600Y018368D01*
X058975Y018368D01*
X061033Y020426D01*
X061033Y020839D01*
X060836Y020839D02*
X060836Y020480D01*
X058975Y018618D01*
X050600Y018618D01*
X049725Y019493D01*
X049725Y020618D01*
X050350Y021243D01*
X050350Y022368D01*
X049975Y021993D02*
X049811Y022158D01*
X049427Y022158D01*
X049427Y021961D02*
X049132Y021961D01*
X048850Y022243D01*
X048600Y022368D02*
X048600Y020868D01*
X048850Y020618D01*
X048850Y019618D01*
X049600Y018868D01*
X049600Y018368D01*
X050100Y019493D02*
X050155Y019548D01*
X050155Y020445D01*
X050352Y020445D02*
X050352Y020745D01*
X050600Y020993D01*
X050549Y020445D02*
X050549Y019942D01*
X050475Y019868D01*
X050746Y019598D02*
X050850Y019493D01*
X050746Y019598D02*
X050746Y020445D01*
X050943Y020445D02*
X050943Y019776D01*
X051225Y019493D01*
X051600Y019493D02*
X051850Y019493D01*
X051600Y019493D02*
X051139Y019954D01*
X051139Y020445D01*
X051336Y020445D02*
X051336Y020007D01*
X051600Y019743D01*
X051975Y019743D01*
X052100Y019618D01*
X052100Y019243D01*
X052350Y018993D02*
X052350Y019618D01*
X051975Y019993D01*
X051600Y019993D01*
X051533Y020060D01*
X051533Y020445D01*
X051225Y021118D02*
X051475Y021368D01*
X052850Y021368D01*
X053108Y021110D01*
X053108Y020445D01*
X053305Y020445D02*
X053305Y019664D01*
X053975Y018993D01*
X058850Y018993D01*
X060475Y020618D01*
X060475Y021368D01*
X060600Y021493D01*
X061225Y021493D01*
X061427Y021292D01*
X061427Y020839D01*
X061230Y020839D02*
X061230Y021238D01*
X061100Y021368D01*
X060725Y021368D01*
X060600Y021243D01*
X060600Y020493D01*
X058975Y018868D01*
X053600Y018868D01*
X052911Y019557D01*
X052911Y020445D01*
X054600Y021118D02*
X054683Y021036D01*
X055350Y021118D02*
X055470Y020998D01*
X055667Y020445D02*
X055667Y020051D01*
X056100Y019618D01*
X058225Y019618D01*
X059850Y021243D01*
X059850Y021993D01*
X059975Y022118D01*
X063350Y022118D01*
X064183Y021286D01*
X064183Y020839D01*
X063986Y020839D02*
X063986Y020379D01*
X063350Y019743D01*
X063350Y020243D02*
X063600Y020243D01*
X063789Y020432D01*
X063789Y020839D01*
X063592Y020839D02*
X063592Y021501D01*
X063225Y021868D01*
X062850Y021743D02*
X063395Y021198D01*
X063395Y020839D01*
X062805Y020839D02*
X062805Y021289D01*
X062350Y021743D01*
X059225Y022868D02*
X058514Y022158D01*
X057773Y022158D01*
X057773Y021961D02*
X058757Y021961D01*
X058850Y021868D01*
X058225Y021243D02*
X058098Y021370D01*
X057773Y021370D01*
X055225Y023243D02*
X055225Y024118D01*
X054975Y024368D01*
X054975Y025743D01*
X057850Y028618D01*
X058350Y028618D01*
X058350Y028243D02*
X058170Y028063D01*
X057773Y028063D01*
X057773Y027670D02*
X058401Y027670D01*
X058600Y027868D01*
X058975Y027618D02*
X058632Y027276D01*
X057773Y027276D01*
X057773Y026685D02*
X058542Y026685D01*
X059350Y027493D01*
X059600Y027118D02*
X059600Y026618D01*
X059273Y026292D01*
X057773Y026292D01*
X057773Y026488D02*
X058970Y026488D01*
X059100Y026618D01*
X059600Y026118D02*
X059576Y026095D01*
X057773Y026095D01*
X057773Y025504D02*
X059236Y025504D01*
X059475Y025743D01*
X059850Y025493D02*
X059664Y025307D01*
X057773Y025307D01*
X060225Y026868D02*
X060225Y027743D01*
X058850Y029118D01*
X057850Y029118D01*
X054350Y025618D01*
X053725Y025618D01*
X051871Y027473D01*
X049427Y027473D01*
X049427Y028063D02*
X049155Y028063D01*
X049100Y028118D01*
X049100Y028243D01*
X049225Y028368D01*
X048850Y028743D02*
X048850Y029118D01*
X050475Y030743D01*
X062850Y030743D01*
X064773Y028820D01*
X064773Y028398D01*
X063986Y027879D02*
X063850Y027743D01*
X062805Y028398D02*
X062805Y028789D01*
X061475Y030118D01*
X052850Y030118D01*
X052124Y029392D01*
X052124Y028792D01*
X052320Y028792D02*
X052320Y028148D01*
X052350Y028118D01*
X051927Y028792D02*
X051927Y029292D01*
X051850Y029368D01*
X050746Y029264D02*
X050746Y028792D01*
X052911Y028792D02*
X052911Y029554D01*
X052975Y029618D01*
X053108Y029376D02*
X053350Y029618D01*
X053108Y029376D02*
X053108Y028792D01*
X054092Y028792D02*
X054092Y029235D01*
X054475Y029618D01*
X056257Y028792D02*
X056257Y028276D01*
X056100Y028118D01*
X056475Y028118D02*
X056651Y028295D01*
X056651Y028792D01*
X056454Y028792D02*
X056454Y029223D01*
X056850Y029618D01*
X060475Y029618D01*
X060600Y029493D01*
X060225Y029368D02*
X060100Y029493D01*
X057225Y029493D01*
X056848Y029116D01*
X056848Y028792D01*
X057045Y028792D02*
X057045Y029063D01*
X057350Y029368D01*
X059725Y029368D01*
X059850Y029243D01*
X059475Y028993D02*
X059475Y028743D01*
X060350Y027868D01*
X060850Y027868D01*
X061033Y028051D01*
X061033Y028398D01*
X060836Y028398D02*
X060836Y028632D01*
X060725Y028743D01*
X060600Y028743D01*
X060475Y028618D01*
X060100Y028618D01*
X061225Y027493D02*
X061475Y027743D01*
X061600Y027743D01*
X062350Y027743D02*
X062608Y028001D01*
X062608Y028398D01*
X055225Y023243D02*
X054975Y022993D01*
X054600Y022993D01*
X054100Y023493D01*
X050600Y023493D01*
X050052Y022945D01*
X049427Y022945D01*
X049427Y022748D02*
X048980Y022748D01*
X048600Y022368D01*
X048350Y022493D02*
X048999Y023142D01*
X049427Y023142D01*
X049427Y023339D02*
X050070Y023339D01*
X050475Y023743D01*
X054475Y023743D01*
X054850Y023368D01*
X054850Y023743D02*
X054600Y023993D01*
X050350Y023993D01*
X050089Y023733D01*
X049427Y023733D01*
X049427Y023929D02*
X048786Y023929D01*
X047850Y022993D01*
X047850Y020118D01*
X048100Y019868D01*
X048100Y016118D01*
X047850Y015743D02*
X047850Y019618D01*
X047600Y019868D01*
X047600Y023243D01*
X048483Y024126D01*
X049427Y024126D01*
X049427Y024323D02*
X048180Y024323D01*
X047350Y023493D01*
X047350Y019618D01*
X047600Y019368D01*
X047600Y017493D01*
X047350Y017118D02*
X047350Y019118D01*
X046850Y019618D01*
X046850Y023618D01*
X046600Y023868D01*
X046600Y023243D02*
X046600Y019368D01*
X047100Y018868D01*
X047100Y016743D01*
X048350Y016493D02*
X048350Y020118D01*
X048100Y020368D01*
X048100Y022743D01*
X048892Y023536D01*
X049427Y023536D01*
X048350Y022493D02*
X048350Y020618D01*
X048600Y020368D01*
X048600Y016868D01*
X045475Y016243D02*
X042773Y018945D01*
X042139Y018945D01*
X042139Y019142D02*
X043076Y019142D01*
X045225Y016993D01*
X044225Y016868D02*
X044225Y014118D01*
X044880Y013464D01*
X044880Y012764D01*
X044565Y012764D02*
X044565Y013404D01*
X043975Y013993D01*
X043975Y016868D01*
X042882Y017961D01*
X042139Y017961D01*
X042139Y018158D02*
X042936Y018158D01*
X044225Y016868D01*
X043725Y016868D02*
X043725Y013868D01*
X044250Y013344D01*
X044250Y012764D01*
X043935Y012764D02*
X043935Y013284D01*
X043475Y013743D01*
X043475Y016868D01*
X042776Y017567D01*
X042139Y017567D01*
X042139Y017370D02*
X042723Y017370D01*
X043225Y016868D01*
X043225Y013618D01*
X043620Y013224D01*
X043620Y012764D01*
X043305Y012764D02*
X043305Y013164D01*
X043100Y013368D01*
X043100Y016743D01*
X042670Y017173D01*
X042139Y017173D01*
X042139Y016780D02*
X042814Y016780D01*
X042975Y016618D01*
X042975Y012779D01*
X042990Y012764D01*
X042045Y012764D02*
X042045Y012298D01*
X042225Y012118D01*
X041725Y012118D02*
X041725Y010618D01*
X041475Y010368D01*
X041475Y008993D01*
X041415Y008933D01*
X041415Y008473D01*
X040785Y008473D02*
X040785Y008808D01*
X037850Y011743D01*
X036850Y011743D01*
X036475Y011493D02*
X037475Y011493D01*
X040155Y008813D01*
X040155Y008473D01*
X039840Y008473D02*
X039840Y008753D01*
X037350Y011243D01*
X036850Y011243D01*
X037225Y010993D02*
X036475Y010993D01*
X036850Y010743D02*
X037100Y010743D01*
X038895Y008948D01*
X038895Y008473D01*
X039210Y008473D02*
X039210Y009008D01*
X037225Y010993D01*
X036975Y010493D02*
X036475Y010493D01*
X036850Y010243D02*
X037950Y009143D01*
X037950Y008473D01*
X038265Y008473D02*
X038265Y009203D01*
X036975Y010493D01*
X036475Y009993D02*
X037320Y009148D01*
X037320Y008473D01*
X031600Y010368D02*
X030704Y009473D01*
X028952Y009473D01*
X028704Y009473D01*
X028952Y009984D02*
X030234Y009984D01*
X030350Y009868D01*
X029972Y010240D02*
X030850Y011118D01*
X030850Y014868D01*
X030600Y014618D02*
X030600Y011368D01*
X029728Y010496D01*
X028952Y010496D01*
X028949Y010493D01*
X028952Y010240D02*
X029972Y010240D01*
X029484Y010752D02*
X030350Y011618D01*
X030350Y014368D01*
X030100Y014618D01*
X030475Y014743D02*
X030475Y015118D01*
X030475Y014743D02*
X030600Y014618D01*
X031600Y013118D02*
X031600Y010368D01*
X029600Y011243D02*
X029365Y011008D01*
X028952Y011008D01*
X028952Y010752D02*
X029484Y010752D01*
X033850Y013568D02*
X034600Y013568D01*
X034900Y013568D01*
X035100Y013368D01*
X033850Y014118D02*
X033850Y014168D01*
X033850Y014243D01*
X036017Y015076D02*
X036975Y014118D01*
X036017Y015076D02*
X036017Y015579D01*
X040350Y017243D02*
X040350Y018618D01*
X041661Y019929D01*
X042139Y019929D01*
X042139Y019733D02*
X041714Y019733D01*
X040475Y018493D01*
X040475Y017368D01*
X041975Y015868D01*
X041725Y015868D02*
X041725Y015243D01*
X041725Y015868D02*
X040350Y017243D01*
X042139Y017764D02*
X042829Y017764D01*
X043725Y016868D01*
X044975Y017743D02*
X043380Y019339D01*
X042139Y019339D01*
X042139Y019536D02*
X043683Y019536D01*
X044725Y018493D01*
X044475Y020118D02*
X042725Y021868D01*
X042725Y022243D01*
X042480Y022488D01*
X042139Y022488D01*
X042139Y022292D02*
X041648Y022292D01*
X041600Y022243D01*
X041826Y022095D02*
X041600Y021868D01*
X041600Y021493D01*
X041826Y022095D02*
X042139Y022095D01*
X042139Y022685D02*
X042533Y022685D01*
X043475Y021743D01*
X043725Y022118D02*
X042961Y022882D01*
X042139Y022882D01*
X042139Y023079D02*
X043264Y023079D01*
X043975Y022368D01*
X044225Y022743D02*
X042905Y024063D01*
X042139Y024063D01*
X042139Y024260D02*
X043083Y024260D01*
X043225Y024118D01*
X042621Y023473D02*
X042139Y023473D01*
X042621Y023473D02*
X042725Y023368D01*
X043225Y025618D02*
X041975Y025618D01*
X040350Y023993D01*
X039975Y023993D01*
X038970Y024998D01*
X038970Y025658D01*
X036350Y026368D02*
X036214Y026233D01*
X036214Y025658D01*
X033600Y023743D02*
X033280Y024063D01*
X032600Y024063D01*
X035100Y022243D02*
X040100Y022243D01*
X032600Y019368D02*
X032600Y018868D01*
X032480Y018748D01*
X032061Y018748D01*
X031730Y018748D01*
X031475Y018493D01*
X031475Y018743D02*
X030225Y018743D01*
X029850Y019118D01*
X029850Y019618D01*
X030100Y019243D02*
X031475Y019243D01*
X031570Y019339D01*
X032061Y019339D01*
X032061Y019536D02*
X032433Y019536D01*
X032600Y019368D01*
X032061Y019142D02*
X031624Y019142D01*
X031475Y018993D01*
X030350Y018993D01*
X029975Y018743D02*
X029975Y018493D01*
X029975Y018743D02*
X029475Y019243D01*
X029225Y017818D02*
X029275Y017743D01*
X029225Y017743D02*
X029225Y017818D01*
X029225Y017743D02*
X028975Y017493D01*
X028975Y016841D01*
X029350Y016368D02*
X028447Y016368D01*
X027975Y015896D01*
X027975Y016841D02*
X027975Y017493D01*
X027725Y017743D02*
X027475Y017493D01*
X027475Y017243D01*
X026975Y016743D01*
X024600Y016743D01*
X024320Y017023D01*
X024320Y017414D01*
X025600Y017993D02*
X026475Y017993D01*
X026683Y017786D01*
X026683Y017414D01*
X027725Y017743D02*
X028675Y017743D01*
X029725Y016743D02*
X029350Y016368D01*
X031475Y018743D02*
X031677Y018945D01*
X032061Y018945D01*
X027805Y020701D02*
X027183Y020701D01*
X026850Y020368D01*
X026850Y019618D01*
X027320Y020898D02*
X027225Y020993D01*
X027320Y020898D02*
X027805Y020898D01*
X041730Y013488D02*
X041730Y012764D01*
X041730Y013488D02*
X041975Y013743D01*
X048850Y011868D02*
X048850Y009368D01*
X048850Y011868D02*
X052850Y015868D01*
X056850Y015868D01*
X060350Y019368D01*
X060600Y019368D01*
X061475Y018493D02*
X060850Y017868D01*
X055350Y013868D02*
X055297Y013671D01*
X055297Y013723D01*
X053650Y010618D02*
X053600Y010618D01*
X066475Y011243D02*
X067350Y012118D01*
X049427Y021370D02*
X049102Y021370D01*
X048850Y021118D01*
X048850Y021493D02*
X048924Y021567D01*
X049427Y021567D01*
X044600Y038595D02*
X044600Y039368D01*
X044600Y039868D02*
X044600Y040642D01*
X041350Y040118D02*
X040850Y040118D01*
X040600Y039868D01*
X044533Y045317D02*
X044584Y045368D01*
X046850Y045368D01*
X021554Y005243D02*
X021553Y005242D01*
D70*
X021975Y004868D03*
X022600Y004868D03*
X022600Y004118D03*
X020225Y004868D03*
X018350Y004118D03*
X018350Y005618D03*
X018350Y007868D03*
X015350Y012868D03*
X013975Y014493D03*
X014850Y014868D03*
X015100Y016118D03*
X016100Y016118D03*
X018100Y015118D03*
X017350Y014118D03*
X021850Y016743D03*
X020100Y018243D03*
X019850Y018493D03*
X019600Y018743D03*
X019350Y018993D03*
X018475Y018993D03*
X018475Y018493D03*
X017350Y018118D03*
X015350Y019868D03*
X014350Y018868D03*
X014350Y018118D03*
X012850Y019868D03*
X013975Y021493D03*
X014850Y021868D03*
X015100Y023118D03*
X016100Y023118D03*
X018100Y023368D03*
X018350Y022868D03*
X019475Y023618D03*
X019850Y023243D03*
X020475Y023368D03*
X019100Y023993D03*
X018725Y024368D03*
X017350Y025118D03*
X020475Y024868D03*
X022600Y022368D03*
X022600Y021868D03*
X023225Y022618D03*
X024350Y021118D03*
X023975Y020868D03*
X023975Y020493D03*
X024725Y020868D03*
X025100Y021118D03*
X027225Y020993D03*
X027350Y022368D03*
X029600Y020243D03*
X030600Y020493D03*
X031100Y021118D03*
X031475Y021493D03*
X030850Y021993D03*
X031475Y022618D03*
X032600Y022618D03*
X032600Y023493D03*
X033350Y023493D03*
X034100Y023993D03*
X034100Y024368D03*
X034475Y024368D03*
X035475Y025118D03*
X036100Y024618D03*
X035725Y024118D03*
X036600Y025118D03*
X037850Y024368D03*
X038225Y025118D03*
X039975Y024368D03*
X040975Y025118D03*
X041600Y024618D03*
X041600Y023618D03*
X041600Y023243D03*
X041225Y022993D03*
X041600Y022743D03*
X041600Y022243D03*
X041600Y021493D03*
X041600Y021118D03*
X041600Y020618D03*
X042725Y020868D03*
X043475Y021743D03*
X043725Y022118D03*
X043975Y022368D03*
X044225Y022743D03*
X042725Y023368D03*
X042725Y023743D03*
X043225Y024118D03*
X043850Y024868D03*
X043850Y025368D03*
X043225Y025618D03*
X042850Y026118D03*
X042850Y026868D03*
X044850Y026368D03*
X044725Y025368D03*
X045225Y025118D03*
X046225Y025868D03*
X046600Y025868D03*
X046600Y027118D03*
X046600Y027618D03*
X046600Y028368D03*
X046600Y028868D03*
X048475Y028993D03*
X048850Y028743D03*
X049225Y028368D03*
X050100Y028118D03*
X050850Y028118D03*
X051600Y028118D03*
X051975Y028118D03*
X052350Y028118D03*
X053350Y028118D03*
X053850Y028118D03*
X054350Y028118D03*
X055350Y028118D03*
X055725Y028118D03*
X056100Y028118D03*
X056475Y028118D03*
X058350Y028243D03*
X058350Y028618D03*
X058600Y027868D03*
X058975Y027618D03*
X059350Y027493D03*
X059600Y027118D03*
X059100Y026618D03*
X059600Y026118D03*
X059475Y025743D03*
X059850Y025493D03*
X059725Y024743D03*
X059100Y024743D03*
X058600Y024368D03*
X058600Y023993D03*
X058975Y023993D03*
X058975Y023618D03*
X060475Y024368D03*
X060975Y024368D03*
X061475Y023993D03*
X061725Y023368D03*
X062100Y023743D03*
X062350Y021743D03*
X062850Y021743D03*
X063225Y021868D03*
X063350Y020243D03*
X063350Y019743D03*
X062850Y020118D03*
X061350Y020118D03*
X060600Y019368D03*
X060600Y018868D03*
X060975Y018618D03*
X061475Y018493D03*
X058350Y021493D03*
X058850Y021868D03*
X057100Y021868D03*
X057100Y021243D03*
X056475Y021118D03*
X056100Y021118D03*
X055725Y021118D03*
X055350Y021118D03*
X054975Y021118D03*
X054600Y021118D03*
X054225Y021118D03*
X053850Y021118D03*
X052725Y021118D03*
X052350Y021118D03*
X051975Y021118D03*
X051600Y021118D03*
X051225Y021118D03*
X050850Y021118D03*
X050475Y019868D03*
X050100Y019493D03*
X050850Y019493D03*
X051225Y019493D03*
X051850Y019493D03*
X052100Y019243D03*
X052350Y018993D03*
X051725Y018118D03*
X053600Y018118D03*
X055475Y018118D03*
X054850Y019368D03*
X055600Y021868D03*
X057100Y022743D03*
X055475Y024243D03*
X055350Y024618D03*
X054850Y023743D03*
X054850Y023368D03*
X053850Y022618D03*
X052350Y022618D03*
X050600Y022743D03*
X050100Y022243D03*
X048850Y022243D03*
X048850Y021868D03*
X048850Y021493D03*
X048850Y021118D03*
X049100Y020743D03*
X047100Y021868D03*
X046600Y023243D03*
X046600Y023868D03*
X048600Y024618D03*
X050100Y024743D03*
X050100Y024368D03*
X050100Y025118D03*
X051600Y025118D03*
X051600Y024368D03*
X051600Y026618D03*
X054100Y025868D03*
X054600Y026618D03*
X055600Y025868D03*
X057100Y025868D03*
X057100Y026618D03*
X060100Y028618D03*
X059475Y028993D03*
X059850Y029243D03*
X060225Y029368D03*
X060600Y029493D03*
X061100Y028993D03*
X062350Y027743D03*
X062850Y027618D03*
X063475Y027368D03*
X063850Y027368D03*
X063850Y027743D03*
X064350Y027743D03*
X065100Y027743D03*
X062850Y026118D03*
X061725Y027493D03*
X061225Y027493D03*
X060600Y027118D03*
X054850Y031118D03*
X055475Y031618D03*
X056225Y031243D03*
X053350Y029618D03*
X052975Y029618D03*
X051850Y029368D03*
X050600Y029493D03*
X049850Y029368D03*
X049850Y030868D03*
X051725Y031368D03*
X052100Y031118D03*
X051350Y032368D03*
X050850Y032993D03*
X050350Y032618D03*
X048725Y032618D03*
X047100Y032618D03*
X046850Y033868D03*
X047850Y034118D03*
X048350Y034118D03*
X049975Y034243D03*
X051725Y034118D03*
X051725Y034743D03*
X050475Y037243D03*
X050350Y037618D03*
X049975Y037618D03*
X051350Y038618D03*
X048100Y036868D03*
X048100Y036368D03*
X047725Y037493D03*
X045975Y036993D03*
X045725Y036618D03*
X043975Y035993D03*
X043975Y035493D03*
X043850Y037868D03*
X043100Y037868D03*
X042350Y038868D03*
X040600Y039868D03*
X040100Y038368D03*
X044600Y039368D03*
X044600Y039868D03*
X045350Y039618D03*
X041850Y042618D03*
X040100Y043368D03*
X046225Y043868D03*
X046850Y045368D03*
X039725Y035118D03*
X039725Y034118D03*
X043100Y033118D03*
X043850Y032118D03*
X044350Y031618D03*
X042100Y029368D03*
X039975Y030118D03*
X036850Y031243D03*
X036100Y031243D03*
X034100Y030493D03*
X032850Y029618D03*
X032100Y030368D03*
X032100Y031118D03*
X031350Y033118D03*
X030350Y033118D03*
X028725Y032868D03*
X028475Y033368D03*
X027975Y034743D03*
X027100Y034368D03*
X026850Y033118D03*
X025850Y033118D03*
X024350Y033118D03*
X024475Y032368D03*
X022600Y032118D03*
X021350Y032368D03*
X020350Y032868D03*
X021975Y033993D03*
X022600Y036118D03*
X021350Y036618D03*
X020850Y036868D03*
X019100Y035743D03*
X018600Y034993D03*
X018100Y034993D03*
X016600Y035618D03*
X015100Y035618D03*
X014600Y036618D03*
X016850Y037368D03*
X012100Y036368D03*
X010504Y035272D03*
X005600Y034868D03*
X004350Y036618D03*
X003600Y033118D03*
X004350Y032493D03*
X005600Y031743D03*
X005225Y030243D03*
X014350Y025868D03*
X014350Y025118D03*
X010225Y023118D03*
X009475Y023618D03*
X009475Y024118D03*
X007350Y023493D03*
X006850Y023493D03*
X007350Y021868D03*
X006850Y020868D03*
X008475Y020243D03*
X006600Y019618D03*
X003100Y021368D03*
X003100Y022118D03*
X003975Y023118D03*
X004850Y024118D03*
X011100Y022118D03*
X011100Y021243D03*
X010600Y019618D03*
X017350Y021118D03*
X018100Y021368D03*
X023975Y018993D03*
X023975Y018493D03*
X024600Y017993D03*
X024975Y017993D03*
X025600Y017993D03*
X027350Y017868D03*
X027975Y017493D03*
X028475Y018243D03*
X028475Y018618D03*
X029225Y018743D03*
X029600Y018743D03*
X030100Y019243D03*
X030350Y018993D03*
X029850Y019618D03*
X028725Y019368D03*
X026850Y019618D03*
X029725Y016743D03*
X028975Y015368D03*
X030100Y014618D03*
X030475Y015118D03*
X030850Y014868D03*
X031600Y013118D03*
X033475Y014993D03*
X033975Y014743D03*
X034350Y014743D03*
X035100Y013743D03*
X035100Y013368D03*
X036475Y012118D03*
X036850Y011743D03*
X036475Y011493D03*
X036850Y011243D03*
X036475Y010993D03*
X036850Y010743D03*
X036475Y010493D03*
X036850Y010243D03*
X036475Y009993D03*
X038600Y007868D03*
X037725Y007493D03*
X039725Y007493D03*
X040475Y007868D03*
X041350Y007493D03*
X043225Y007868D03*
X042975Y009118D03*
X044225Y010743D03*
X043975Y011118D03*
X043725Y011493D03*
X043475Y011993D03*
X042975Y011993D03*
X042225Y012118D03*
X041725Y012118D03*
X040475Y012118D03*
X039350Y012118D03*
X038850Y012118D03*
X040975Y013368D03*
X040975Y013993D03*
X041350Y014243D03*
X041975Y013743D03*
X041725Y015243D03*
X041975Y015868D03*
X041600Y016618D03*
X040725Y016118D03*
X042725Y016493D03*
X045225Y016993D03*
X045475Y016243D03*
X047100Y016743D03*
X047350Y017118D03*
X047600Y017493D03*
X048600Y016868D03*
X048350Y016493D03*
X048100Y016118D03*
X047850Y015743D03*
X045725Y013743D03*
X044475Y011993D03*
X044725Y011493D03*
X044975Y010868D03*
X045225Y010243D03*
X045475Y009618D03*
X045725Y008743D03*
X045475Y007493D03*
X046100Y006118D03*
X044100Y004743D03*
X046100Y004118D03*
X052350Y004118D03*
X053850Y004118D03*
X054100Y005618D03*
X052600Y006868D03*
X049850Y009118D03*
X054600Y013868D03*
X054100Y014118D03*
X056725Y011868D03*
X058100Y011868D03*
X058475Y011243D03*
X060100Y011868D03*
X060600Y011868D03*
X061600Y011868D03*
X062350Y014118D03*
X066475Y011243D03*
X068350Y007618D03*
X049600Y018368D03*
X044975Y017743D03*
X044725Y018493D03*
X044475Y020118D03*
X042725Y018618D03*
X041600Y018243D03*
X040850Y018493D03*
X037600Y017743D03*
X037600Y016118D03*
X037975Y016118D03*
X038350Y016118D03*
X037225Y016118D03*
X036850Y016118D03*
X036100Y016118D03*
X036475Y014993D03*
X037100Y014368D03*
X037600Y014368D03*
X037975Y014368D03*
X038475Y014368D03*
X038975Y014368D03*
X038725Y014993D03*
X034600Y016118D03*
X033100Y016243D03*
X032850Y017368D03*
X032850Y017743D03*
X032600Y018118D03*
X034850Y018618D03*
X034100Y020618D03*
X032600Y020743D03*
X031539Y019805D03*
X035100Y022243D03*
X035350Y021743D03*
X035600Y021243D03*
X040100Y022243D03*
X040850Y023243D03*
X040475Y023493D03*
X040350Y026180D03*
X039225Y026243D03*
X037600Y026243D03*
X036350Y026368D03*
X035850Y026368D03*
X035225Y026368D03*
X033850Y026618D03*
X032600Y025493D03*
X032600Y024743D03*
X031475Y024993D03*
X031350Y023868D03*
X030850Y026868D03*
X031850Y028368D03*
X032850Y028368D03*
X029100Y031118D03*
X027600Y031118D03*
X027600Y030368D03*
X024850Y029118D03*
X024725Y028243D03*
X024725Y027618D03*
X023975Y027618D03*
X023600Y027368D03*
X025100Y026868D03*
X025350Y027118D03*
X026100Y026868D03*
X026600Y026618D03*
X021600Y028618D03*
X021100Y028368D03*
X019100Y029493D03*
X018100Y030243D03*
X018725Y032368D03*
X018725Y032868D03*
X024600Y031118D03*
X024600Y035118D03*
X026600Y036368D03*
X029100Y035118D03*
X031100Y036368D03*
X031600Y034368D03*
X032475Y034743D03*
X048350Y026368D03*
X048725Y026618D03*
X064600Y037868D03*
X066600Y037618D03*
X068350Y035868D03*
X068850Y042118D03*
X068850Y042868D03*
X066850Y042868D03*
X028350Y011618D03*
X029600Y011243D03*
X030350Y009868D03*
X029100Y007868D03*
X027600Y009118D03*
X027850Y010368D03*
X026225Y010243D03*
X025475Y009993D03*
X025475Y010493D03*
X032100Y006868D03*
D71*
X028952Y009729D02*
X028210Y009729D01*
X027600Y009118D01*
X026748Y009729D02*
X025740Y009729D01*
X025475Y009993D01*
X025475Y010493D02*
X025984Y009984D01*
X026748Y009984D01*
X026748Y010240D02*
X026228Y010240D01*
X026225Y010243D01*
X026216Y010752D02*
X025100Y011868D01*
X025100Y013868D01*
X025350Y014118D01*
X026100Y014118D01*
X026600Y013618D01*
X026100Y013118D02*
X026100Y011243D01*
X026335Y011008D01*
X026748Y011008D01*
X026748Y010752D02*
X026216Y010752D01*
X026748Y010496D02*
X027722Y010496D01*
X027850Y010368D01*
X028704Y011264D02*
X028350Y011618D01*
X028704Y011264D02*
X028952Y011264D01*
X026100Y013118D02*
X025600Y013618D01*
X028975Y015368D02*
X028975Y015896D01*
X027076Y017414D02*
X027076Y018317D01*
X026850Y018543D01*
X026850Y019618D01*
X027350Y019618D01*
X027448Y019717D01*
X027805Y019717D01*
X027805Y019520D02*
X027377Y019520D01*
X027350Y019493D01*
X027350Y019618D01*
X027350Y019493D02*
X027350Y019368D01*
X027395Y019323D01*
X027805Y019323D01*
X027805Y018142D02*
X027624Y018142D01*
X027350Y017868D01*
X024975Y017993D02*
X024911Y017929D01*
X024911Y017414D01*
X024714Y017414D02*
X024714Y017879D01*
X024600Y017993D01*
X024350Y017993D01*
X024124Y017767D01*
X024124Y017414D01*
X023975Y018493D02*
X023892Y018536D01*
X023395Y018536D01*
X023395Y018733D02*
X022964Y018733D01*
X022600Y018368D01*
X022600Y017793D01*
X021850Y017793D01*
X021850Y017193D02*
X021850Y016743D01*
X021850Y016443D01*
X021925Y016368D01*
X022525Y016368D02*
X022600Y016443D01*
X022600Y017193D01*
X022964Y020504D02*
X023395Y020504D01*
X023395Y020701D02*
X023808Y020701D01*
X023975Y020868D01*
X024350Y021118D02*
X024124Y021345D01*
X024124Y021823D01*
X024320Y021823D02*
X024320Y022573D01*
X024275Y022618D01*
X024275Y022918D01*
X024475Y023118D01*
X024475Y023618D01*
X023975Y024118D01*
X022350Y024118D01*
X022100Y023868D01*
X022100Y023095D01*
X022600Y023095D02*
X022600Y022368D01*
X022600Y021868D02*
X022600Y021418D01*
X022300Y021418D01*
X022100Y021618D01*
X021600Y021618D01*
X022300Y020818D02*
X022100Y020618D01*
X021600Y020618D01*
X022300Y020818D02*
X022600Y020818D01*
X022648Y020770D01*
X022600Y020743D01*
X022725Y020743D01*
X022964Y020504D01*
X024350Y021118D02*
X024517Y021286D01*
X024517Y021823D01*
X024714Y021823D02*
X024714Y020879D01*
X024725Y020868D01*
X025100Y021118D02*
X024911Y021307D01*
X024911Y021823D01*
X024312Y022582D02*
X024275Y022618D01*
X023675Y022618D02*
X023675Y022918D01*
X023475Y023118D01*
X023475Y023618D01*
X023675Y022618D02*
X023225Y022618D01*
X021600Y023095D02*
X021600Y024118D01*
X021850Y024368D01*
X022350Y024368D01*
X022600Y024618D01*
X022600Y025142D01*
X022600Y026868D01*
X024850Y029118D01*
X024725Y029618D02*
X027725Y029618D01*
X028725Y030618D01*
X028725Y032868D01*
X029225Y032743D02*
X029600Y032368D01*
X029600Y032095D01*
X029600Y031168D01*
X029550Y031118D01*
X029100Y031118D01*
X029550Y031118D02*
X029550Y030368D01*
X030150Y030368D02*
X030150Y031118D01*
X030100Y031168D01*
X030100Y032095D01*
X030600Y032095D02*
X030600Y032868D01*
X031100Y033368D01*
X031100Y034142D01*
X031374Y034142D01*
X031600Y034368D01*
X031225Y034743D02*
X030850Y034743D01*
X030600Y034493D01*
X030600Y034142D01*
X030100Y034142D02*
X030100Y034493D01*
X030725Y035118D01*
X031050Y035118D01*
X031050Y035868D01*
X031100Y035918D01*
X031100Y036368D01*
X031225Y036743D02*
X031650Y036318D01*
X031650Y035868D01*
X031975Y035868D01*
X032100Y035743D01*
X032425Y035743D01*
X032475Y035793D01*
X032475Y035193D02*
X032475Y034743D01*
X032975Y034368D02*
X032975Y037334D01*
X031504Y038805D01*
X031225Y036743D02*
X030975Y036743D01*
X030150Y035918D01*
X030150Y035868D01*
X029550Y035868D02*
X029350Y035868D01*
X028725Y035243D01*
X028725Y034993D01*
X029225Y034493D01*
X029225Y032743D01*
X028475Y033368D02*
X028475Y030743D01*
X027600Y029868D01*
X024600Y029868D01*
X019475Y024743D01*
X019475Y023618D01*
X019850Y023243D02*
X019850Y024743D01*
X024725Y029618D01*
X024225Y029868D02*
X024225Y032118D01*
X024475Y032368D01*
X024725Y032743D02*
X025100Y032368D01*
X025100Y032095D01*
X025100Y031168D01*
X025050Y031118D01*
X024600Y031118D01*
X025050Y031118D02*
X025050Y030368D01*
X025650Y030368D02*
X025650Y031118D01*
X025600Y031168D01*
X025600Y032095D01*
X026100Y032095D02*
X026100Y032868D01*
X026600Y033368D01*
X026600Y034142D01*
X026874Y034142D01*
X027100Y034368D01*
X026725Y034743D02*
X026350Y034743D01*
X026100Y034493D01*
X026100Y034142D01*
X025600Y034142D02*
X025600Y034493D01*
X026225Y035118D01*
X026550Y035118D01*
X026550Y035868D01*
X026600Y035918D01*
X026600Y036368D01*
X026725Y036743D02*
X026475Y036743D01*
X025650Y035918D01*
X025650Y035868D01*
X025050Y035868D02*
X024850Y035868D01*
X024225Y035243D01*
X024225Y034993D01*
X024725Y034493D01*
X024725Y032743D01*
X024350Y033118D02*
X023850Y032618D01*
X023850Y029868D01*
X018725Y024743D01*
X018725Y024368D01*
X018350Y024118D02*
X017725Y023493D01*
X017725Y021743D01*
X018100Y021368D01*
X018100Y015118D01*
X017725Y014243D02*
X017225Y014743D01*
X017225Y016493D01*
X016850Y016868D01*
X016850Y017142D01*
X016850Y018068D01*
X016900Y018118D01*
X017350Y018118D01*
X016900Y018118D02*
X016900Y018868D01*
X016300Y018868D02*
X016300Y018118D01*
X016350Y018068D01*
X016350Y017142D01*
X015850Y017142D02*
X015850Y016368D01*
X015350Y015868D01*
X015350Y015095D01*
X015076Y015095D01*
X014850Y014868D01*
X015225Y014493D02*
X014850Y014118D01*
X014800Y014118D01*
X014800Y013368D01*
X014475Y013368D01*
X014350Y013493D01*
X014025Y013493D01*
X013975Y013443D01*
X013975Y014043D02*
X013975Y014493D01*
X015225Y014493D02*
X015600Y014493D01*
X015850Y014743D01*
X015850Y015095D01*
X016350Y015095D02*
X016350Y014743D01*
X015725Y014118D01*
X015400Y014118D01*
X015400Y013368D01*
X015350Y013318D01*
X015350Y012868D01*
X015225Y012493D02*
X014800Y012918D01*
X014800Y013368D01*
X015400Y013368D02*
X015400Y013318D01*
X015475Y012493D02*
X016300Y013318D01*
X016300Y013368D01*
X016900Y013368D02*
X017100Y013368D01*
X017725Y013993D01*
X017725Y014243D01*
X017350Y014118D02*
X016900Y014118D01*
X016850Y014168D01*
X016850Y015095D01*
X016600Y015618D02*
X016600Y014368D01*
X016350Y014118D01*
X016300Y014118D01*
X016600Y015618D02*
X016100Y016118D01*
X015100Y016118D02*
X015100Y016618D01*
X015350Y016868D01*
X015350Y017142D01*
X015350Y018068D01*
X015400Y018118D01*
X014800Y018118D02*
X014800Y017443D01*
X014350Y016993D01*
X014350Y016418D01*
X014350Y015818D02*
X014225Y015743D01*
X014100Y015743D01*
X014350Y018118D02*
X014800Y018118D01*
X014800Y018868D02*
X014350Y018868D01*
X015400Y018868D02*
X016300Y018868D01*
X015475Y019493D02*
X015225Y019493D01*
X014800Y019918D01*
X014800Y020368D01*
X014475Y020368D01*
X014350Y020493D01*
X014025Y020493D01*
X013975Y020443D01*
X013975Y021043D02*
X013975Y021493D01*
X014800Y021118D02*
X014800Y020368D01*
X015350Y020318D02*
X015350Y019868D01*
X015475Y019493D02*
X016300Y020318D01*
X016300Y020368D01*
X016900Y020368D02*
X017100Y020368D01*
X017725Y020993D01*
X017725Y021243D01*
X017225Y021743D01*
X017225Y023493D01*
X016850Y023868D01*
X016850Y024142D01*
X016850Y025068D01*
X016900Y025118D01*
X017350Y025118D01*
X016900Y025118D02*
X016900Y025868D01*
X016300Y025868D02*
X016300Y025118D01*
X016350Y025068D01*
X016350Y024142D01*
X015850Y024142D02*
X015850Y023368D01*
X015350Y022868D01*
X015350Y022095D01*
X015076Y022095D01*
X014850Y021868D01*
X015225Y021493D02*
X015600Y021493D01*
X015850Y021743D01*
X015850Y022095D01*
X016350Y022095D02*
X016350Y021743D01*
X015725Y021118D01*
X015400Y021118D01*
X015400Y020368D01*
X015350Y020318D01*
X015400Y020318D02*
X015400Y020368D01*
X014850Y021118D02*
X015225Y021493D01*
X014850Y021118D02*
X014800Y021118D01*
X016300Y021118D02*
X016350Y021118D01*
X016600Y021368D01*
X016600Y022618D01*
X016100Y023118D01*
X015100Y023118D02*
X015100Y023618D01*
X015350Y023868D01*
X015350Y024142D01*
X015350Y025068D01*
X015400Y025118D01*
X014800Y025118D02*
X014800Y024443D01*
X014350Y023993D01*
X014350Y023418D01*
X014350Y025118D02*
X014800Y025118D01*
X014800Y025868D02*
X014350Y025868D01*
X015400Y025868D02*
X016300Y025868D01*
X018350Y024868D02*
X018350Y024118D01*
X019975Y022493D01*
X020975Y022493D01*
X021100Y022618D01*
X021100Y023095D01*
X021600Y023095D01*
X020475Y023368D02*
X020475Y023818D01*
X020475Y024418D02*
X020550Y024493D01*
X020475Y024493D01*
X020475Y024868D01*
X020550Y024493D02*
X020725Y024493D01*
X021100Y024868D01*
X021100Y025142D01*
X021600Y025142D02*
X022100Y025142D01*
X019100Y024743D02*
X019100Y023993D01*
X019100Y024743D02*
X024225Y029868D01*
X022975Y029943D02*
X022600Y029568D01*
X022600Y029118D01*
X018350Y024868D01*
X016850Y022095D02*
X016850Y021168D01*
X016900Y021118D01*
X017350Y021118D01*
X012850Y019868D02*
X011850Y018868D01*
X008600Y018868D01*
X008050Y019418D01*
X008050Y019618D01*
X007225Y019618D01*
X006850Y019243D01*
X004425Y019243D01*
X004050Y019618D01*
X004350Y019918D02*
X004650Y019618D01*
X005550Y019618D01*
X006150Y019618D02*
X006600Y019618D01*
X005350Y020493D02*
X005150Y020493D01*
X005100Y020443D01*
X005025Y020368D01*
X005350Y020493D02*
X005725Y020868D01*
X006076Y020868D01*
X006850Y020868D01*
X006076Y021368D02*
X005425Y021368D01*
X005100Y021043D01*
X004350Y021043D01*
X004350Y020443D02*
X004350Y019918D01*
X004350Y020443D02*
X003600Y020443D01*
X003600Y021043D02*
X003425Y021043D01*
X003100Y021368D01*
X003400Y021818D02*
X003600Y021818D01*
X003400Y021818D02*
X003100Y022118D01*
X003600Y022418D02*
X004350Y022418D01*
X004350Y023043D01*
X004425Y023118D01*
X003975Y023118D01*
X005025Y023118D02*
X005100Y023043D01*
X005100Y022418D01*
X005150Y022368D01*
X005850Y022368D01*
X005850Y023043D01*
X005925Y023118D01*
X006525Y023118D02*
X006600Y023243D01*
X006850Y023493D01*
X006525Y023818D01*
X006525Y023943D01*
X006350Y024118D01*
X005350Y024118D02*
X004850Y024118D01*
X005850Y022368D02*
X006076Y022368D01*
X006076Y021868D02*
X005150Y021868D01*
X005100Y021818D01*
X004350Y021818D01*
X007350Y021868D02*
X007850Y022368D01*
X008124Y022368D01*
X008124Y021868D02*
X008550Y021868D01*
X009100Y022418D01*
X009100Y023043D01*
X009175Y023118D01*
X008275Y023118D01*
X007725Y023118D02*
X007350Y023493D01*
X007675Y023168D01*
X007675Y023118D01*
X007725Y023118D01*
X007350Y023493D02*
X007725Y023868D01*
X007725Y023993D01*
X007850Y024118D01*
X008850Y024118D02*
X009475Y024118D01*
X009775Y023118D02*
X010225Y023118D01*
X009850Y023043D02*
X009850Y022418D01*
X010600Y022418D01*
X011100Y022118D02*
X010800Y021818D01*
X010600Y021818D01*
X009850Y021818D02*
X009100Y021818D01*
X008650Y021368D01*
X008124Y021368D01*
X008124Y020868D02*
X008725Y020868D01*
X008900Y021043D01*
X009100Y021043D01*
X009850Y021043D01*
X009850Y020443D02*
X009850Y019918D01*
X009550Y019618D01*
X008650Y019618D01*
X008475Y020243D02*
X008675Y020443D01*
X009100Y020443D01*
X009100Y020493D01*
X009850Y020443D02*
X010600Y020443D01*
X010600Y021043D02*
X010900Y021043D01*
X011100Y021243D01*
X009850Y023043D02*
X009775Y023118D01*
X010150Y019618D02*
X010600Y019618D01*
X015225Y012493D02*
X015475Y012493D01*
X016696Y010042D02*
X016696Y010022D01*
X017350Y009368D01*
X017350Y008118D01*
X018350Y007118D01*
X018800Y007118D01*
X018800Y006918D01*
X018975Y006743D01*
X019225Y006743D01*
X019400Y006568D01*
X019400Y006368D01*
X018800Y006368D02*
X018800Y005618D01*
X018350Y005618D01*
X018800Y005068D02*
X018975Y005243D01*
X019225Y005243D01*
X019400Y005418D01*
X019400Y005618D01*
X018800Y005068D02*
X018800Y004868D01*
X017850Y004868D01*
X017100Y004118D01*
X015600Y004118D01*
X013350Y006368D01*
X013350Y007868D01*
X012600Y008618D01*
X011350Y008618D01*
X009927Y010042D01*
X009696Y010042D01*
X018350Y007868D02*
X018800Y007868D01*
X019400Y007868D02*
X019400Y007118D01*
X019725Y007118D01*
X020225Y006618D01*
X020225Y005368D01*
X020351Y005242D01*
X020647Y005242D01*
X020647Y004868D02*
X020225Y004868D01*
X020226Y004494D02*
X019850Y004118D01*
X019400Y004118D01*
X019400Y004868D01*
X018800Y004118D02*
X018350Y004118D01*
X020226Y004494D02*
X020647Y004494D01*
X021553Y004494D02*
X022224Y004494D01*
X022600Y004118D01*
X022600Y004868D02*
X022226Y005242D01*
X021553Y005242D01*
X021553Y004868D02*
X021975Y004868D01*
X033475Y014993D02*
X033655Y015173D01*
X033655Y015579D01*
X033458Y015579D02*
X033458Y015885D01*
X033261Y016082D01*
X033100Y016243D01*
X032957Y016386D01*
X032061Y016386D01*
X032868Y016011D02*
X033065Y016208D01*
X033100Y016243D01*
X033065Y016208D02*
X033065Y015579D01*
X033261Y015579D02*
X033261Y016082D01*
X032868Y016011D02*
X032868Y015579D01*
X034443Y015579D02*
X034443Y015961D01*
X034600Y016118D01*
X036100Y016118D02*
X036214Y016004D01*
X036214Y015579D01*
X036411Y015579D02*
X036411Y015057D01*
X036475Y014993D01*
X037198Y015579D02*
X037198Y016092D01*
X037225Y016118D01*
X038350Y016118D02*
X038380Y015964D01*
X038380Y015579D01*
X038576Y015579D02*
X038576Y015142D01*
X038725Y014993D01*
X040545Y015579D02*
X040545Y015938D01*
X040725Y016118D01*
X040742Y016102D01*
X040742Y015579D01*
X040939Y015579D02*
X040939Y016082D01*
X040975Y016118D01*
X041100Y016118D01*
X041135Y016083D01*
X041135Y015579D01*
X041332Y015579D02*
X041332Y016011D01*
X041225Y016118D01*
X041100Y016118D01*
X040975Y016118D02*
X040725Y016118D01*
X041600Y016618D02*
X041832Y016386D01*
X042139Y016386D01*
X042139Y016583D02*
X042635Y016583D01*
X042725Y016493D01*
X042139Y018355D02*
X041711Y018355D01*
X041600Y018243D01*
X042139Y018551D02*
X040908Y018551D01*
X040850Y018493D01*
X042139Y018748D02*
X042595Y018748D01*
X042725Y018618D01*
X041600Y020618D02*
X041698Y020717D01*
X042139Y020717D01*
X042139Y020914D02*
X042680Y020914D01*
X042725Y020868D01*
X042139Y021110D02*
X041608Y021110D01*
X041600Y021118D01*
X041600Y023243D02*
X041632Y023276D01*
X042139Y023276D01*
X042139Y023670D02*
X041651Y023670D01*
X041600Y023618D01*
X042139Y023866D02*
X042598Y023866D01*
X042725Y023743D01*
X042139Y024457D02*
X041761Y024457D01*
X041662Y024556D01*
X041760Y024654D01*
X042139Y024654D01*
X042139Y024851D02*
X041832Y024851D01*
X041600Y024618D01*
X041662Y024556D01*
X041100Y025118D02*
X041135Y025154D01*
X041135Y025658D01*
X040939Y025658D02*
X040939Y025155D01*
X040975Y025118D01*
X041100Y025118D01*
X041135Y025154D02*
X041332Y025351D01*
X041332Y025658D01*
X041225Y026118D02*
X040725Y026118D01*
X040662Y026056D01*
X040742Y025977D01*
X040742Y025658D01*
X040545Y025658D02*
X040545Y025938D01*
X040662Y026056D01*
X040348Y026116D02*
X040348Y025658D01*
X040151Y025658D02*
X040151Y025170D01*
X040100Y025118D01*
X039850Y025118D01*
X039954Y025223D01*
X039954Y025658D01*
X039757Y025658D02*
X039757Y025211D01*
X039850Y025118D01*
X039850Y024493D01*
X039975Y024368D01*
X039561Y025658D02*
X039561Y026408D01*
X039350Y026618D01*
X033850Y026618D01*
X032868Y026878D02*
X032850Y026896D01*
X032868Y026878D02*
X032868Y025658D01*
X032868Y025226D01*
X032975Y025118D01*
X033100Y025118D01*
X033065Y025154D01*
X033065Y025658D01*
X033261Y025658D02*
X033261Y025155D01*
X033225Y025118D01*
X033475Y025118D01*
X033458Y025135D01*
X033458Y025658D01*
X033655Y025658D02*
X033655Y025173D01*
X033600Y025118D01*
X033725Y025118D01*
X033852Y025245D01*
X033852Y025658D01*
X033600Y025118D02*
X033475Y025118D01*
X033225Y025118D02*
X033100Y025118D01*
X032868Y025226D02*
X032600Y025493D01*
X032061Y024851D02*
X031618Y024851D01*
X031475Y024993D01*
X032061Y023473D02*
X032579Y023473D01*
X032600Y023493D01*
X032533Y022685D02*
X032061Y022685D01*
X032061Y022488D02*
X031605Y022488D01*
X031475Y022618D01*
X032533Y022685D02*
X032600Y022618D01*
X032600Y020743D02*
X032573Y020717D01*
X032061Y020717D01*
X032061Y019929D02*
X033411Y019929D01*
X034100Y020618D01*
X032061Y019733D02*
X031611Y019733D01*
X031539Y019805D01*
X032061Y017961D02*
X032443Y017961D01*
X032600Y018118D01*
X027805Y021095D02*
X027326Y021095D01*
X027225Y020993D01*
X027076Y021823D02*
X027076Y022368D01*
X026880Y022368D01*
X026850Y022368D01*
X026683Y022201D01*
X026683Y021823D01*
X026880Y021823D02*
X026880Y022368D01*
X027076Y022368D02*
X027350Y022368D01*
X030850Y026868D02*
X031822Y026868D01*
X031850Y026896D01*
X031850Y027841D02*
X031850Y028368D01*
X032850Y028368D02*
X032850Y027841D01*
X032850Y029618D02*
X032850Y030118D01*
X033600Y030868D01*
X034600Y030868D01*
X035600Y031868D01*
X035600Y033743D01*
X035775Y033918D01*
X036100Y033918D01*
X036850Y033918D01*
X036850Y033318D02*
X036850Y032532D01*
X036100Y032532D02*
X036100Y033318D01*
X036100Y031705D02*
X036100Y031243D01*
X036850Y031243D02*
X036850Y031705D01*
X034100Y030493D02*
X034100Y029768D01*
X032100Y030368D02*
X031650Y030368D01*
X031050Y030368D02*
X030150Y030368D01*
X031050Y031118D02*
X031100Y031168D01*
X031100Y032095D01*
X031100Y032368D01*
X031350Y032618D01*
X031350Y033118D01*
X032100Y032818D02*
X032100Y032243D01*
X031650Y031793D01*
X031650Y031118D01*
X032100Y031118D01*
X030350Y033118D02*
X029850Y033618D01*
X029850Y034868D01*
X030100Y035118D01*
X030150Y035118D01*
X029600Y035068D02*
X029550Y035118D01*
X029100Y035118D01*
X029600Y035068D02*
X029600Y034142D01*
X028475Y034368D02*
X028475Y036243D01*
X025913Y038805D01*
X024504Y038805D01*
X023600Y038868D02*
X023600Y039368D01*
X024289Y040057D01*
X025004Y040057D01*
X023600Y038868D02*
X022350Y037618D01*
X020350Y037618D01*
X018100Y035368D01*
X018100Y034993D01*
X018100Y034368D01*
X019100Y034693D02*
X019100Y033793D01*
X019850Y033642D02*
X019850Y033368D01*
X020350Y032868D01*
X020350Y033642D02*
X020350Y034068D01*
X019800Y034618D01*
X019175Y034618D01*
X019100Y034693D01*
X019100Y035293D02*
X019100Y035743D01*
X019175Y035368D02*
X019100Y035293D01*
X019175Y035368D02*
X019800Y035368D01*
X019800Y036118D01*
X020400Y036118D02*
X020400Y036418D01*
X020850Y036868D01*
X021175Y036443D02*
X021350Y036618D01*
X021175Y036443D02*
X021175Y036118D01*
X021775Y036118D02*
X021775Y035368D01*
X022300Y035368D01*
X022600Y035068D01*
X022600Y034168D01*
X022600Y033568D02*
X022600Y032743D01*
X022975Y032368D01*
X022975Y029943D01*
X022600Y030168D02*
X022300Y029868D01*
X021775Y029868D01*
X021775Y029118D01*
X021600Y028618D02*
X021175Y029043D01*
X021175Y029118D01*
X021100Y028368D02*
X020400Y029068D01*
X020400Y029118D01*
X019800Y029118D02*
X019800Y029868D01*
X019175Y029868D01*
X019100Y029943D01*
X019100Y029493D01*
X019100Y030543D02*
X019175Y030618D01*
X019800Y030618D01*
X019850Y030668D01*
X019850Y031368D01*
X019175Y031368D01*
X019100Y031443D01*
X019100Y032043D02*
X018975Y032118D01*
X018725Y032368D01*
X018400Y032043D01*
X018275Y032043D01*
X018100Y031868D01*
X018100Y030868D02*
X018100Y030243D01*
X019850Y031368D02*
X019850Y031595D01*
X020350Y031595D02*
X020350Y030668D01*
X020400Y030618D01*
X020400Y029868D01*
X021175Y029868D02*
X021175Y030618D01*
X020850Y030943D01*
X020850Y031595D01*
X021350Y031595D02*
X021350Y032368D01*
X021350Y031595D02*
X021350Y031243D01*
X021725Y030868D01*
X021725Y030668D01*
X021775Y030618D01*
X021850Y030543D01*
X022600Y030168D02*
X022600Y031068D01*
X022600Y031668D02*
X022600Y032118D01*
X021350Y033642D02*
X021350Y034243D01*
X021175Y034418D01*
X021175Y034618D01*
X021175Y035368D01*
X020400Y035368D02*
X020400Y034618D01*
X020850Y034168D01*
X020850Y033642D01*
X021775Y034193D02*
X021775Y034618D01*
X021725Y034618D01*
X021775Y034193D02*
X021975Y033993D01*
X022600Y035668D02*
X022600Y036118D01*
X024600Y035118D02*
X025050Y035118D01*
X025100Y035068D01*
X025100Y034142D01*
X025350Y033618D02*
X025850Y033118D01*
X025350Y033618D02*
X025350Y034868D01*
X025600Y035118D01*
X025650Y035118D01*
X026725Y034743D02*
X027100Y035118D01*
X027150Y035118D01*
X027150Y035868D01*
X027475Y035868D01*
X027600Y035743D01*
X027925Y035743D01*
X027975Y035793D01*
X027150Y035868D02*
X027150Y036318D01*
X026725Y036743D01*
X026550Y035918D02*
X026550Y035868D01*
X027975Y035193D02*
X027975Y034743D01*
X028475Y034368D02*
X027725Y033618D01*
X027600Y033418D01*
X027600Y032818D02*
X027600Y032243D01*
X027150Y031793D01*
X027150Y031118D01*
X027600Y031118D01*
X027600Y030368D02*
X027150Y030368D01*
X026550Y030368D02*
X025650Y030368D01*
X026550Y031118D02*
X026600Y031168D01*
X026600Y032095D01*
X026600Y032368D01*
X026850Y032618D01*
X026850Y033118D01*
X031225Y034743D02*
X031600Y035118D01*
X031650Y035118D01*
X031650Y035868D01*
X031050Y035868D02*
X031050Y035918D01*
X032975Y034368D02*
X032225Y033618D01*
X032100Y033418D01*
X040100Y038368D02*
X042600Y035868D01*
X042600Y035368D01*
X044850Y033118D01*
X047475Y033118D01*
X047590Y033234D01*
X047590Y033585D01*
X047905Y033585D02*
X047905Y034063D01*
X047850Y034118D01*
X048220Y033988D02*
X048350Y034118D01*
X048220Y033988D02*
X048220Y033585D01*
X048535Y033585D02*
X048535Y033178D01*
X048350Y032993D01*
X047725Y032993D01*
X047600Y032868D01*
X047600Y032668D01*
X047600Y032618D01*
X047100Y032618D01*
X047550Y032618D02*
X047600Y032668D01*
X048150Y032618D02*
X048725Y032618D01*
X049300Y032618D01*
X048975Y032993D02*
X049725Y032993D01*
X049850Y032868D01*
X049850Y032668D01*
X049850Y032618D01*
X050350Y032618D01*
X049900Y032618D02*
X049850Y032668D01*
X050425Y033419D02*
X050850Y032993D01*
X050425Y033419D02*
X050425Y033585D01*
X051133Y034294D02*
X051550Y034294D01*
X051725Y034118D01*
X051590Y034609D02*
X051133Y034609D01*
X051590Y034609D02*
X051725Y034743D01*
X052100Y032993D02*
X052400Y032693D01*
X052850Y032693D01*
X052100Y032993D02*
X052100Y037368D01*
X050850Y038618D01*
X050850Y039368D01*
X049100Y041118D01*
X049100Y042368D01*
X047600Y043868D01*
X046225Y043868D01*
X043850Y043868D01*
X042975Y042993D01*
X040725Y042993D01*
X040724Y042994D01*
X040667Y042994D01*
X040474Y042867D01*
X040100Y042493D01*
X040100Y041868D01*
X040475Y041493D01*
X040666Y041493D01*
X040667Y041494D01*
X040667Y042242D02*
X040974Y042242D01*
X041100Y042368D01*
X041600Y042368D01*
X041850Y042618D01*
X041533Y041868D02*
X043183Y041801D01*
X044533Y043152D01*
X042584Y043368D02*
X041533Y043368D01*
X040667Y043742D02*
X040476Y043742D01*
X040100Y043368D01*
X040476Y042242D02*
X040667Y042242D01*
X042350Y040868D02*
X042850Y041368D01*
X043100Y041368D01*
X043100Y040642D01*
X043600Y040642D02*
X043600Y041368D01*
X044100Y041368D01*
X047988Y041368D01*
X048600Y041981D01*
X048600Y041193D02*
X048275Y040868D01*
X047350Y040868D01*
X046100Y039618D01*
X046100Y038618D01*
X043600Y036118D01*
X043600Y035868D01*
X043975Y035493D01*
X043975Y035993D02*
X046600Y038618D01*
X046600Y039618D01*
X047350Y040368D01*
X048563Y040368D01*
X048600Y040406D01*
X047850Y038618D02*
X047350Y038618D01*
X047275Y038544D01*
X047275Y038152D01*
X047275Y037419D01*
X046985Y037128D01*
X046567Y037128D01*
X046110Y037128D01*
X045975Y036993D01*
X046567Y036813D02*
X047545Y036813D01*
X047975Y037243D01*
X050475Y037243D01*
X050350Y037618D02*
X050425Y037669D01*
X050425Y038152D01*
X050110Y038152D02*
X050110Y037753D01*
X049975Y037618D01*
X051350Y038618D02*
X053108Y040376D01*
X053108Y041014D01*
X047905Y038563D02*
X047905Y038152D01*
X047590Y038152D02*
X047590Y037628D01*
X047725Y037493D01*
X048100Y036868D02*
X047730Y036498D01*
X046567Y036498D01*
X046567Y035553D02*
X047285Y035553D01*
X048100Y036368D01*
X047905Y038563D02*
X047850Y038618D01*
X045350Y038568D02*
X045324Y038595D01*
X044600Y038595D01*
X044100Y038595D02*
X044100Y038118D01*
X043850Y037868D01*
X043600Y038118D01*
X043600Y038595D01*
X043100Y038595D02*
X043100Y037868D01*
X042350Y038868D02*
X042350Y039318D01*
X042050Y039318D01*
X041850Y039118D01*
X041350Y039118D01*
X041350Y040118D02*
X041850Y040118D01*
X042050Y039918D01*
X042350Y039918D01*
X042350Y040868D01*
X043100Y041368D02*
X043600Y041368D01*
X044100Y041368D02*
X044100Y040642D01*
X044600Y040642D02*
X045324Y040642D01*
X045350Y040668D01*
X045350Y040118D02*
X045350Y040068D01*
X045350Y039618D01*
X045350Y039168D01*
X045350Y039118D01*
X042584Y043368D02*
X044533Y045317D01*
X048850Y033585D02*
X048850Y033118D01*
X048975Y032993D01*
X045600Y031618D02*
X044600Y032618D01*
X043600Y032618D01*
X043100Y033118D01*
X045600Y030618D02*
X046100Y030118D01*
X045600Y029618D02*
X044850Y029618D01*
X044850Y028368D02*
X045600Y028368D01*
X041600Y026845D02*
X041600Y026493D01*
X041225Y026118D01*
X040348Y026116D02*
X040350Y026180D01*
X039225Y026243D02*
X039167Y026185D01*
X039167Y025658D01*
X038773Y025658D02*
X038773Y025292D01*
X038600Y025118D01*
X038576Y025118D01*
X038225Y025118D01*
X037975Y025118D01*
X037789Y025304D01*
X037789Y025658D01*
X037986Y025658D02*
X037986Y026108D01*
X037850Y026243D01*
X037600Y026243D01*
X037592Y026235D01*
X037592Y025658D01*
X038183Y025658D02*
X038183Y025118D01*
X038225Y025118D01*
X038576Y025118D02*
X038576Y025658D01*
X036608Y025658D02*
X036608Y025126D01*
X036600Y025118D01*
X035624Y025267D02*
X035475Y025118D01*
X035624Y025267D02*
X035624Y025658D01*
X035427Y025658D02*
X035427Y026167D01*
X035225Y026368D01*
X046100Y023868D02*
X046850Y024618D01*
X048600Y024618D01*
X046100Y023868D02*
X046100Y006618D01*
X045100Y006618D01*
X044600Y006118D01*
X045100Y005618D01*
X045300Y005618D01*
X045350Y005568D01*
X045400Y005618D01*
X045350Y005618D01*
X045350Y005568D02*
X045350Y004668D01*
X045400Y004618D01*
X045350Y004118D02*
X046100Y004118D01*
X045350Y004118D02*
X045350Y004068D01*
X044100Y004055D02*
X044100Y004743D01*
X044100Y006118D02*
X044600Y006118D01*
X044100Y006118D02*
X044100Y006181D01*
X045350Y006168D02*
X045350Y006118D01*
X046100Y006118D01*
X046100Y006618D02*
X047850Y006618D01*
X048350Y007118D01*
X048350Y007618D01*
X048850Y008118D01*
X048850Y008368D01*
X047850Y008368D02*
X047850Y009168D01*
X047650Y009368D01*
X047050Y009368D02*
X046850Y009168D01*
X046850Y008368D01*
X045475Y007493D02*
X045194Y007774D01*
X045194Y008473D01*
X041350Y007493D02*
X041100Y007743D01*
X041100Y008473D01*
X040470Y008473D02*
X040470Y007873D01*
X040475Y007868D01*
X039725Y007493D02*
X039525Y007693D01*
X039525Y008473D01*
X038580Y008473D02*
X038580Y007888D01*
X038600Y007868D01*
X037725Y007943D02*
X037725Y007743D01*
X037725Y007493D01*
X037725Y007743D02*
X037225Y007743D01*
X037006Y007963D01*
X037006Y008473D01*
X037635Y008473D02*
X037635Y008033D01*
X037725Y007943D01*
X037475Y012118D02*
X036975Y012118D01*
X037006Y012149D01*
X037006Y012764D01*
X037635Y012764D02*
X037635Y012279D01*
X037475Y012118D01*
X036975Y012118D02*
X036475Y012118D01*
X038580Y012388D02*
X038850Y012118D01*
X038580Y012388D02*
X038580Y012764D01*
X039525Y012764D02*
X039525Y012294D01*
X039350Y012118D01*
X040470Y012123D02*
X040475Y012118D01*
X040470Y012123D02*
X040470Y012764D01*
X041100Y012764D02*
X041100Y013243D01*
X040975Y013368D01*
X045194Y013213D02*
X045194Y012764D01*
X045194Y013213D02*
X045725Y013743D01*
X052350Y005168D02*
X053237Y005168D01*
X053350Y005282D01*
X052350Y004568D02*
X052350Y004118D01*
X053350Y004455D02*
X053687Y004118D01*
X053850Y004118D01*
X062850Y020118D02*
X063002Y020270D01*
X063002Y020839D01*
X062850Y027618D02*
X063002Y027770D01*
X063002Y028398D01*
X061230Y028398D02*
X061230Y028863D01*
X061100Y028993D01*
X064970Y028398D02*
X064970Y027873D01*
X065100Y027743D01*
X019100Y033193D02*
X019100Y033243D01*
X018725Y032868D01*
X019050Y033193D01*
X019100Y033193D01*
X018725Y032868D02*
X018350Y033243D01*
X018225Y033243D01*
X018100Y033368D01*
X008600Y033118D02*
X008025Y032543D01*
X008025Y032493D01*
X007425Y032493D02*
X007350Y032418D01*
X007350Y031618D01*
X006975Y031243D01*
X006374Y031243D01*
X006374Y030743D01*
X005225Y030243D02*
X004326Y030243D01*
X004326Y031243D02*
X004326Y031743D01*
X004025Y031743D01*
X003275Y032493D01*
X002675Y032493D02*
X002675Y032543D01*
X002100Y033118D01*
X002100Y034618D01*
X002350Y034868D01*
X002550Y034868D01*
X002600Y034918D01*
X002850Y035418D02*
X003350Y034918D01*
X003400Y034868D01*
X004326Y034868D01*
X004326Y034368D02*
X003400Y034368D01*
X003350Y034318D01*
X002600Y034318D01*
X003275Y033618D02*
X003525Y033868D01*
X004326Y033868D01*
X004326Y033368D02*
X006374Y033368D01*
X006374Y033868D02*
X007300Y033868D01*
X007350Y033818D01*
X008100Y033818D01*
X008150Y034368D02*
X008100Y034418D01*
X008150Y034368D02*
X008350Y034368D01*
X008600Y034118D01*
X008600Y033118D01*
X007300Y034368D02*
X006374Y034368D01*
X006374Y034868D02*
X005600Y034868D01*
X005600Y035568D01*
X005650Y035618D01*
X005650Y035918D01*
X005850Y036118D01*
X005850Y036618D01*
X005050Y035918D02*
X004850Y036118D01*
X004850Y036618D01*
X004350Y036618D01*
X005050Y035918D02*
X005050Y035618D01*
X007350Y034868D02*
X007350Y034418D01*
X007300Y034368D01*
X007350Y034868D02*
X008100Y035618D01*
X008100Y036618D01*
X004326Y033368D02*
X003850Y033368D01*
X003600Y033118D01*
X003100Y033118D01*
X002675Y033543D01*
X002675Y033618D01*
X004350Y032493D02*
X005050Y032493D01*
X005600Y032443D02*
X005650Y032493D01*
X005600Y032443D02*
X005600Y031743D01*
X006374Y031743D01*
X002850Y035418D02*
X002850Y036618D01*
D72*
X037350Y036368D03*
X037350Y035118D03*
X044850Y029618D03*
X046100Y030118D03*
X044850Y028368D03*
X036850Y027118D03*
X067100Y033618D03*
D73*
X064350Y036368D01*
X064122Y036368D01*
X064100Y036390D01*
X063372Y036390D01*
X063350Y035868D01*
X061600Y034118D01*
X061100Y034118D01*
X059850Y034118D01*
X059600Y034368D01*
X059600Y034868D01*
X058600Y034868D02*
X058600Y038118D01*
X055600Y038368D02*
X055600Y037618D01*
X055350Y037368D01*
X055100Y037368D01*
X054760Y037028D01*
X054760Y036713D01*
X053850Y036713D02*
X053850Y036993D01*
X054725Y037868D01*
X053600Y037993D02*
X053600Y038868D01*
X054725Y038868D01*
X054850Y038993D01*
X054725Y039118D01*
X054600Y039118D01*
X054850Y038993D02*
X054975Y038868D01*
X055100Y038868D01*
X055600Y038368D01*
X053850Y036713D02*
X053850Y034273D01*
X054005Y034118D01*
X054100Y034118D01*
X053850Y034273D02*
X053695Y034118D01*
X053600Y034118D01*
X052850Y033368D02*
X052850Y033293D01*
X052850Y032693D02*
X052850Y032118D01*
X053850Y032118D02*
X053850Y032693D01*
X054850Y032693D02*
X054850Y032118D01*
X054850Y033293D02*
X054850Y033368D01*
X057100Y033618D02*
X057850Y032868D01*
X064078Y032868D01*
X064100Y032847D01*
X064100Y031618D01*
X067350Y034868D02*
X068350Y033868D01*
X068350Y022118D01*
X057100Y033618D02*
X057100Y033868D01*
X057175Y033868D01*
X057100Y033868D02*
X057100Y034868D01*
X057600Y034868D02*
X057600Y035368D01*
X057350Y035618D01*
X056350Y035618D01*
X058100Y034868D02*
X058100Y034193D01*
X057775Y033868D01*
X058600Y034118D02*
X058600Y034868D01*
X052940Y036713D02*
X052940Y037278D01*
X052600Y037618D01*
X052600Y037993D01*
X052600Y038868D01*
X067350Y036618D02*
X067350Y034868D01*
D74*
X064100Y031618D03*
X061100Y034118D03*
X061100Y034868D03*
X058600Y034118D03*
X056350Y035618D03*
X057100Y037118D03*
X057850Y037118D03*
X058600Y037118D03*
X059350Y037118D03*
X060100Y037118D03*
X053600Y038868D03*
X052600Y038868D03*
X052850Y032118D03*
X053850Y032118D03*
X054850Y032118D03*
D75*
X054850Y033368D02*
X054850Y033651D01*
X054669Y033651D01*
X054623Y033638D01*
X054582Y033615D01*
X054548Y033581D01*
X054525Y033540D01*
X054513Y033494D01*
X054513Y033368D01*
X054187Y033368D01*
X054187Y033494D01*
X054175Y033540D01*
X054152Y033581D01*
X054118Y033615D01*
X054077Y033638D01*
X054031Y033651D01*
X053850Y033651D01*
X053669Y033651D01*
X053623Y033638D01*
X053582Y033615D01*
X053548Y033581D01*
X053525Y033540D01*
X053513Y033494D01*
X053513Y033368D01*
X053187Y033368D01*
X053187Y033494D01*
X053175Y033540D01*
X053152Y033581D01*
X053118Y033615D01*
X053077Y033638D01*
X053031Y033651D01*
X052850Y033651D01*
X052669Y033651D01*
X052623Y033638D01*
X052582Y033615D01*
X052548Y033581D01*
X052525Y033540D01*
X052513Y033494D01*
X052513Y033368D01*
X052350Y033368D01*
X052350Y035868D01*
X055600Y035868D01*
X055600Y033368D01*
X055187Y033368D01*
X055187Y033494D01*
X055175Y033540D01*
X055152Y033581D01*
X055118Y033615D01*
X055077Y033638D01*
X055031Y033651D01*
X054850Y033651D01*
X054850Y033368D01*
X054850Y033368D01*
X054850Y033483D02*
X054850Y033483D01*
X054850Y033642D02*
X054850Y033642D01*
X054703Y033730D02*
X054726Y033771D01*
X054739Y033816D01*
X054739Y034193D01*
X053930Y034193D01*
X053930Y033660D01*
X054582Y033660D01*
X054628Y033672D01*
X054669Y033696D01*
X054703Y033730D01*
X054734Y033800D02*
X055600Y033800D01*
X055600Y033642D02*
X055063Y033642D01*
X055187Y033483D02*
X055600Y033483D01*
X055600Y033959D02*
X054739Y033959D01*
X054739Y034117D02*
X055600Y034117D01*
X055600Y034276D02*
X053930Y034276D01*
X053930Y034353D02*
X054739Y034353D01*
X054739Y034730D01*
X054726Y034776D01*
X054703Y034817D01*
X054669Y034850D01*
X054628Y034874D01*
X054582Y034886D01*
X053930Y034886D01*
X053930Y034353D01*
X053930Y034193D01*
X053770Y034193D01*
X053770Y033660D01*
X053118Y033660D01*
X053072Y033672D01*
X053031Y033696D01*
X052997Y033730D01*
X052974Y033771D01*
X052961Y033816D01*
X052961Y034193D01*
X053770Y034193D01*
X053770Y034353D01*
X052961Y034353D01*
X052961Y034730D01*
X052974Y034776D01*
X052997Y034817D01*
X053031Y034850D01*
X053072Y034874D01*
X053118Y034886D01*
X053770Y034886D01*
X053770Y034353D01*
X053930Y034353D01*
X053930Y034434D02*
X053770Y034434D01*
X053770Y034276D02*
X052350Y034276D01*
X052350Y034434D02*
X052961Y034434D01*
X052961Y034593D02*
X052350Y034593D01*
X052350Y034751D02*
X052967Y034751D01*
X052961Y034117D02*
X052350Y034117D01*
X052350Y033959D02*
X052961Y033959D01*
X052966Y033800D02*
X052350Y033800D01*
X052350Y033642D02*
X052637Y033642D01*
X052513Y033483D02*
X052350Y033483D01*
X052850Y033483D02*
X052850Y033483D01*
X052850Y033368D02*
X052850Y033651D01*
X052850Y033368D01*
X052850Y033368D01*
X052850Y033642D02*
X052850Y033642D01*
X053063Y033642D02*
X053637Y033642D01*
X053513Y033483D02*
X053187Y033483D01*
X053850Y033483D02*
X053850Y033483D01*
X053850Y033368D02*
X053850Y033651D01*
X053850Y033368D01*
X053850Y033368D01*
X053850Y033642D02*
X053850Y033642D01*
X053770Y033800D02*
X053930Y033800D01*
X053930Y033959D02*
X053770Y033959D01*
X053770Y034117D02*
X053930Y034117D01*
X053930Y034593D02*
X053770Y034593D01*
X053770Y034751D02*
X053930Y034751D01*
X054733Y034751D02*
X055600Y034751D01*
X055600Y034593D02*
X054739Y034593D01*
X054739Y034434D02*
X055600Y034434D01*
X055600Y034910D02*
X052350Y034910D01*
X052350Y035068D02*
X055600Y035068D01*
X055600Y035227D02*
X052350Y035227D01*
X052350Y035385D02*
X055600Y035385D01*
X055600Y035544D02*
X052350Y035544D01*
X052350Y035702D02*
X055600Y035702D01*
X055600Y035861D02*
X052350Y035861D01*
X054063Y033642D02*
X054637Y033642D01*
X054513Y033483D02*
X054187Y033483D01*
X060100Y034868D02*
X060350Y034868D01*
X062600Y037118D01*
X062600Y038118D01*
X063600Y039118D01*
X063600Y040126D01*
X064092Y040618D01*
X066100Y041868D02*
X066600Y041368D01*
X066600Y040343D01*
X066670Y039743D01*
X066700Y038968D01*
X066100Y038368D01*
X066100Y038118D01*
X064350Y036368D01*
X066600Y037618D02*
X067100Y037618D01*
X067350Y037368D01*
X067350Y036618D01*
X068350Y036618D02*
X068350Y035868D01*
X068600Y037618D02*
X068500Y037718D01*
X068530Y039743D01*
X068500Y041343D01*
X068350Y041493D01*
X068350Y041732D01*
X068362Y041744D01*
X068362Y042118D02*
X068850Y042118D01*
X068474Y042492D02*
X068362Y042492D01*
X068474Y042492D02*
X068850Y042868D01*
X067350Y042504D02*
X067338Y042492D01*
X067338Y041744D01*
X066851Y041744D01*
X066725Y041868D01*
X066100Y041868D01*
X066100Y042868D02*
X066850Y042868D01*
X044350Y031618D02*
X044100Y031368D01*
X043775Y031368D01*
X043175Y031368D02*
X043150Y031343D01*
X043150Y030618D01*
X043150Y030568D01*
X044225Y029493D01*
X044225Y027493D01*
X042850Y026118D01*
X042850Y026868D02*
X042850Y027468D01*
X042700Y027618D01*
X042975Y027618D01*
X043725Y028368D01*
X043725Y029293D01*
X043150Y029868D01*
X042550Y029868D02*
X042550Y030618D01*
X042550Y032118D01*
X042050Y032618D01*
X041600Y032618D01*
X041100Y032118D01*
X040320Y032118D01*
X037880Y032118D01*
X037960Y032057D02*
X039600Y032057D01*
X039600Y032215D02*
X038493Y032215D01*
X038493Y032198D02*
X038493Y032851D01*
X038481Y032896D01*
X038457Y032938D01*
X038424Y032971D01*
X038382Y032995D01*
X038337Y033007D01*
X037960Y033007D01*
X037960Y032198D01*
X038493Y032198D01*
X038493Y032038D02*
X037960Y032038D01*
X037960Y031230D01*
X038337Y031230D01*
X038382Y031242D01*
X038424Y031266D01*
X038457Y031299D01*
X038481Y031340D01*
X038493Y031386D01*
X038493Y032038D01*
X038493Y031898D02*
X039600Y031898D01*
X039600Y031740D02*
X038493Y031740D01*
X038493Y031581D02*
X039600Y031581D01*
X039600Y031423D02*
X038493Y031423D01*
X038421Y031264D02*
X039600Y031264D01*
X039600Y031106D02*
X037600Y031106D01*
X037600Y031230D02*
X037800Y031230D01*
X037800Y032038D01*
X037960Y032038D01*
X037960Y032198D01*
X037800Y032198D01*
X037800Y033007D01*
X037600Y033007D01*
X037600Y034368D01*
X039350Y034368D01*
X039350Y033868D01*
X039600Y033618D01*
X039600Y030868D01*
X037600Y030868D01*
X037600Y031230D01*
X037800Y031264D02*
X037960Y031264D01*
X037960Y031423D02*
X037800Y031423D01*
X037800Y031581D02*
X037960Y031581D01*
X037960Y031740D02*
X037800Y031740D01*
X037800Y031898D02*
X037960Y031898D01*
X037960Y032215D02*
X037800Y032215D01*
X037800Y032374D02*
X037960Y032374D01*
X037960Y032532D02*
X037800Y032532D01*
X037800Y032691D02*
X037960Y032691D01*
X037960Y032849D02*
X037800Y032849D01*
X037600Y033008D02*
X039600Y033008D01*
X039600Y033166D02*
X037600Y033166D01*
X037600Y033325D02*
X039600Y033325D01*
X039600Y033483D02*
X037600Y033483D01*
X037600Y033642D02*
X039576Y033642D01*
X039418Y033800D02*
X037600Y033800D01*
X037600Y033959D02*
X039350Y033959D01*
X039350Y034117D02*
X037600Y034117D01*
X037600Y034276D02*
X039350Y034276D01*
X039725Y034118D02*
X040350Y034118D01*
X041600Y034118D01*
X041600Y035118D02*
X040350Y035118D01*
X039725Y035118D01*
X038900Y035118D01*
X038300Y035118D02*
X037350Y035118D01*
X037225Y035243D01*
X036475Y035243D01*
X036475Y036243D02*
X037225Y036243D01*
X037350Y036368D01*
X038300Y036368D01*
X038900Y036368D02*
X041475Y036368D01*
X042350Y035493D01*
X042350Y033118D01*
X043100Y032368D01*
X043100Y032168D01*
X043150Y032118D01*
X043850Y032118D01*
X041600Y031618D02*
X041600Y029868D01*
X042100Y029368D01*
X042700Y028768D01*
X042850Y028768D01*
X041600Y028892D02*
X041600Y029368D01*
X041475Y029493D01*
X041100Y029493D01*
X041100Y028892D01*
X040600Y028892D02*
X040600Y029493D01*
X041100Y029493D01*
X040600Y029493D02*
X040100Y029493D01*
X040100Y028892D01*
X040100Y029493D02*
X039850Y029493D01*
X039475Y029118D01*
X039100Y029118D01*
X039100Y029185D01*
X039033Y029118D01*
X037525Y029118D01*
X039474Y030051D02*
X039541Y030118D01*
X039975Y030118D01*
X040350Y030493D01*
X040350Y031118D01*
X040230Y031118D01*
X040320Y031208D01*
X040230Y031118D02*
X040100Y031118D01*
X039600Y030947D02*
X037600Y030947D01*
X038493Y032374D02*
X039600Y032374D01*
X039600Y032532D02*
X038493Y032532D01*
X038493Y032691D02*
X039600Y032691D01*
X039600Y032849D02*
X038493Y032849D01*
X040320Y033028D02*
X040320Y034088D01*
X040350Y034118D01*
X035675Y029118D02*
X035600Y029044D01*
X035600Y028743D01*
X035325Y028468D01*
X034100Y028468D01*
X034100Y027868D01*
X034850Y027118D01*
X035300Y027118D01*
X035900Y027118D02*
X036850Y027118D01*
X037600Y027118D01*
X040100Y027368D02*
X040100Y026845D01*
X040600Y026845D02*
X040600Y027618D01*
X041100Y027618D01*
X041100Y026845D01*
X041100Y027618D02*
X042700Y027618D01*
X040600Y027618D02*
X040350Y027618D01*
X040100Y027368D01*
X057895Y013723D02*
X057895Y012073D01*
X058100Y011868D01*
X059864Y012105D02*
X060100Y011868D01*
X059864Y012105D02*
X059864Y013723D01*
X060848Y013723D02*
X060848Y012116D01*
X060600Y011868D01*
X068350Y007618D02*
X069100Y008368D01*
X069100Y020368D01*
X068350Y021118D01*
X054100Y005618D02*
X054667Y005051D01*
X054667Y004786D01*
X014100Y015743D02*
X013350Y016493D01*
X013350Y022368D01*
X009600Y026118D01*
X009100Y026618D02*
X010225Y026618D01*
X014225Y022618D01*
X014350Y022818D01*
X008850Y024118D02*
X008850Y024618D01*
X008350Y025118D01*
X007600Y025118D01*
X006600Y026118D01*
X006100Y026368D02*
X006100Y025618D01*
X005350Y024868D01*
X005350Y024118D01*
X004850Y025368D02*
X004100Y025368D01*
X003600Y025868D01*
X003600Y030493D01*
X003850Y030743D01*
X004326Y030743D01*
X006100Y030243D02*
X006374Y030243D01*
X006100Y030243D02*
X004100Y028243D01*
X004100Y026618D01*
X004600Y026118D01*
X004850Y025368D02*
X005600Y026118D01*
X006100Y026368D02*
X006350Y026618D01*
X007100Y026618D01*
X007600Y026118D01*
X008600Y026118D02*
X009100Y026618D01*
X005600Y027118D02*
X012600Y034118D01*
X014600Y034118D01*
X015850Y035368D01*
X015850Y036068D01*
X015850Y036668D02*
X015850Y037118D01*
X016600Y037868D01*
X016600Y039368D01*
X017289Y040057D01*
X018004Y040057D01*
X017504Y038805D02*
X017504Y037522D01*
X017350Y037368D01*
X017350Y036668D01*
X017350Y036068D02*
X016600Y036068D01*
X016600Y035618D01*
X016600Y036668D02*
X016600Y037118D01*
X016850Y037368D01*
X015100Y036668D02*
X015050Y036618D01*
X014600Y036618D01*
X015100Y036068D02*
X015100Y035618D01*
X012600Y036068D02*
X012400Y036068D01*
X012100Y036368D01*
X011800Y036668D01*
X011600Y036668D01*
X011600Y036068D02*
X010850Y036068D01*
X010850Y035618D01*
X010504Y035272D01*
X010100Y035368D02*
X010100Y036068D01*
X010100Y036668D02*
X010100Y037868D01*
X009600Y038368D01*
X009600Y039368D01*
X010289Y040057D01*
X011004Y040057D01*
X010504Y038805D02*
X010504Y038215D01*
X010850Y037868D01*
X010850Y036668D01*
X010100Y035368D02*
X009350Y034618D01*
X009350Y031868D01*
X004600Y027118D01*
X003850Y036618D02*
X003850Y037368D01*
X004004Y037522D01*
X004004Y040195D01*
X005523Y042695D02*
X007100Y041118D01*
X007100Y036618D01*
X012600Y036668D02*
X012600Y040868D01*
X011004Y042465D01*
X011004Y042557D01*
X005523Y042695D02*
X004004Y042695D01*
D76*
X024350Y027868D02*
X024350Y025993D01*
X025502Y024842D01*
X025502Y021823D01*
X025698Y021823D02*
X025698Y025020D01*
X024725Y025993D01*
X024725Y027618D01*
X024350Y027868D02*
X024725Y028243D01*
X023975Y027618D02*
X023975Y025993D01*
X025305Y024664D01*
X025305Y021823D01*
X025108Y021823D02*
X025108Y024485D01*
X023600Y025993D01*
X023600Y027368D01*
X025100Y026868D02*
X025895Y026073D01*
X025895Y021823D01*
X026092Y021823D02*
X026092Y026376D01*
X025350Y027118D01*
X026100Y026868D02*
X026289Y026679D01*
X026289Y021823D01*
X026486Y021823D02*
X026486Y026483D01*
X026600Y026618D01*
X021225Y019993D02*
X018350Y022868D01*
X018100Y022618D02*
X018100Y023368D01*
X018100Y022618D02*
X020975Y019743D01*
X022225Y019743D01*
X022592Y020110D01*
X023395Y020110D01*
X023395Y019914D02*
X022645Y019914D01*
X022225Y019493D01*
X018975Y019493D01*
X018475Y018993D01*
X018475Y018493D02*
X019225Y019243D01*
X022225Y019243D01*
X022698Y019717D01*
X023395Y019717D01*
X023395Y019520D02*
X022752Y019520D01*
X022225Y018993D01*
X019350Y018993D01*
X019600Y018743D02*
X022225Y018743D01*
X022805Y019323D01*
X023395Y019323D01*
X023395Y019126D02*
X022858Y019126D01*
X022225Y018493D01*
X019850Y018493D01*
X020100Y018243D02*
X022225Y018243D01*
X022911Y018929D01*
X023395Y018929D01*
X022225Y019993D02*
X021225Y019993D01*
X022225Y019993D02*
X022539Y020307D01*
X023395Y020307D01*
X042850Y035618D02*
X044175Y034294D01*
X046567Y034294D01*
X046567Y034609D02*
X044110Y034609D01*
X043100Y035618D01*
X043100Y036118D01*
X039850Y039368D01*
X039850Y039868D01*
X039350Y040368D01*
X040100Y040618D02*
X039350Y041368D01*
X040100Y040618D02*
X040100Y039368D01*
X043350Y036118D01*
X043350Y035618D01*
X044045Y034923D01*
X046567Y034923D01*
X045975Y035618D02*
X045775Y035618D01*
X045725Y035568D01*
X045975Y035618D02*
X046225Y035868D01*
X046567Y035868D01*
X046567Y036183D02*
X045740Y036183D01*
X045725Y036168D01*
X045725Y036618D01*
X042850Y036118D02*
X042850Y035618D01*
X042850Y036118D02*
X039600Y039368D01*
X039350Y039368D01*
X046850Y033868D02*
X046975Y033993D01*
X047100Y033993D01*
X047275Y033818D01*
X047275Y033585D01*
X049795Y033585D02*
X049795Y034063D01*
X049850Y034118D01*
X049975Y034243D01*
X050110Y033585D02*
X050110Y033359D01*
X050850Y032618D01*
X051100Y032618D01*
X051350Y032368D01*
X049850Y029368D02*
X050155Y029063D01*
X050155Y028792D01*
X051533Y028792D02*
X051533Y028310D01*
X051600Y028243D01*
X051600Y028118D01*
X051730Y028363D02*
X051975Y028118D01*
X051730Y028363D02*
X051730Y028792D01*
X053350Y028118D02*
X053698Y028467D01*
X053698Y028792D01*
X053895Y028792D02*
X053895Y028164D01*
X053850Y028118D01*
X054092Y028376D02*
X054350Y028118D01*
X054350Y027868D01*
X054100Y027618D01*
X054100Y025868D01*
X055350Y024618D02*
X056975Y024618D01*
X057270Y024323D01*
X057773Y024323D01*
X057773Y024126D02*
X057092Y024126D01*
X056975Y024243D01*
X055475Y024243D01*
X057105Y022748D02*
X057100Y022743D01*
X057105Y022748D02*
X057773Y022748D01*
X057773Y022551D02*
X057292Y022551D01*
X057100Y022368D01*
X057100Y021868D01*
X056725Y021493D01*
X056725Y021118D01*
X057045Y020813D01*
X057045Y020445D01*
X057170Y021173D02*
X057100Y021243D01*
X057170Y021173D02*
X057773Y021173D01*
X054289Y020804D02*
X054289Y020445D01*
X054092Y020445D02*
X054092Y020751D01*
X053975Y020868D01*
X053975Y020993D01*
X053850Y021118D01*
X053975Y020868D02*
X053895Y020789D01*
X053895Y020445D01*
X054289Y020804D02*
X054225Y020868D01*
X054225Y021118D01*
X052725Y021118D02*
X052714Y020983D01*
X052517Y020786D01*
X052517Y020445D01*
X052320Y020445D02*
X052320Y021089D01*
X052350Y021118D01*
X051975Y021118D02*
X051975Y020868D01*
X051927Y020820D01*
X051927Y020445D01*
X052124Y020445D02*
X052124Y020720D01*
X051975Y020868D01*
X051730Y020988D02*
X051730Y020445D01*
X051730Y020988D02*
X051600Y021118D01*
X052714Y020983D02*
X052714Y020445D01*
X051725Y018118D02*
X051725Y017118D01*
X055475Y017118D02*
X055475Y018118D01*
X049427Y021173D02*
X049155Y021173D01*
X049100Y021118D01*
X049100Y020743D01*
X048954Y021764D02*
X048850Y021868D01*
X048954Y021764D02*
X049427Y021764D01*
X050100Y024368D02*
X049948Y024520D01*
X049427Y024520D01*
X049427Y025110D02*
X049733Y025110D01*
X050100Y024743D01*
X050100Y025118D02*
X049911Y025307D01*
X049427Y025307D01*
X054092Y028376D02*
X054092Y028792D01*
X055350Y028118D02*
X055667Y028435D01*
X055667Y028792D01*
X055864Y028792D02*
X055864Y028257D01*
X055725Y028118D01*
X057100Y026618D02*
X057364Y026882D01*
X057773Y026882D01*
X057773Y025898D02*
X057130Y025898D01*
X057100Y025868D01*
X057267Y025701D01*
X057773Y025701D01*
X054725Y037868D02*
X054850Y037993D01*
M02*
