  0
SECTION
  2
HEADER
  9
$ACADVER
  1
AC1009
  9
$DWGCODEPAGE
  3
ascii
  9
$INSBASE
 10
0.0
 20
0.0
 30
0.0
  9
$EXTMIN
 10
-0.8575
 20
-0.376835
 30
0.0
  9
$EXTMAX
 10
14.705
 20
6.95
 30
0.0
  9
$LIMMIN
 10
0.0
 20
0.0
  9
$LIMMAX
 10
12.0
 20
9.0
  9
$ORTHOMODE
 70
     0
  9
$REGENMODE
 70
     1
  9
$FILLMODE
 70
     1
  9
$QTEXTMODE
 70
     0
  9
$MIRRTEXT
 70
     1
  9
$DRAGMODE
 70
     2
  9
$LTSCALE
 40
1.0
  9
$OSMODE
 70
    37
  9
$ATTMODE
 70
     1
  9
$TEXTSIZE
 40
0.2
  9
$TRACEWID
 40
0.05
  9
$TEXTSTYLE
  7
STANDARD
  9
$CLAYER
  8
0
  9
$CELTYPE
  6
BYLAYER
  9
$CECOLOR
 62
   178
  9
$DIMSCALE
 40
1.0
  9
$DIMASZ
 40
0.18
  9
$DIMEXO
 40
0.0625
  9
$DIMDLI
 40
0.38
  9
$DIMRND
 40
0.0
  9
$DIMDLE
 40
0.0
  9
$DIMEXE
 40
0.18
  9
$DIMTP
 40
0.0
  9
$DIMTM
 40
0.0
  9
$DIMTXT
 40
0.18
  9
$DIMCEN
 40
0.09
  9
$DIMTSZ
 40
0.0
  9
$DIMTOL
 70
     0
  9
$DIMLIM
 70
     0
  9
$DIMTIH
 70
     1
  9
$DIMTOH
 70
     1
  9
$DIMSE1
 70
     0
  9
$DIMSE2
 70
     0
  9
$DIMTAD
 70
     0
  9
$DIMZIN
 70
     0
  9
$DIMBLK
  1

  9
$DIMASO
 70
     1
  9
$DIMSHO
 70
     1
  9
$DIMPOST
  1

  9
$DIMAPOST
  1

  9
$DIMALT
 70
     0
  9
$DIMALTD
 70
     2
  9
$DIMALTF
 40
25.4
  9
$DIMLFAC
 40
1.0
  9
$DIMTOFL
 70
     0
  9
$DIMTVP
 40
0.0
  9
$DIMTIX
 70
     0
  9
$DIMSOXD
 70
     0
  9
$DIMSAH
 70
     0
  9
$DIMBLK1
  1

  9
$DIMBLK2
  1

  9
$DIMSTYLE
  2
STANDARD
  9
$DIMCLRD
 70
   178
  9
$DIMCLRE
 70
   178
  9
$DIMCLRT
 70
   178
  9
$DIMTFAC
 40
1.0
  9
$DIMGAP
 40
0.09
  9
$LUNITS
 70
     2
  9
$LUPREC
 70
     4
  9
$SKETCHINC
 40
0.1
  9
$FILLETRAD
 40
0.5
  9
$AUNITS
 70
     0
  9
$AUPREC
 70
     0
  9
$MENU
  1
.
  9
$ELEVATION
 40
0.0
  9
$PELEVATION
 40
0.0
  9
$THICKNESS
 40
0.0
  9
$LIMCHECK
 70
     0
  9
$CHAMFERA
 40
0.5
  9
$CHAMFERB
 40
0.5
  9
$SKPOLY
 70
     0
  9
$TDCREATE
 40
2456465.733206007
  9
$TDUPDATE
 40
2456465.733206007
  9
$TDINDWG
 40
0.0000000116
  9
$TDUSRTIMER
 40
0.0000000116
  9
$USRTIMER
 70
     1
  9
$ANGBASE
 50
0.0
  9
$ANGDIR
 70
     0
  9
$PDMODE
 70
     0
  9
$PDSIZE
 40
0.0
  9
$PLINEWID
 40
0.0
  9
$COORDS
 70
     1
  9
$SPLFRAME
 70
     0
  9
$SPLINETYPE
 70
     6
  9
$SPLINESEGS
 70
     8
  9
$ATTDIA
 70
     0
  9
$ATTREQ
 70
     1
  9
$HANDLING
 70
     1
  9
$HANDSEED
  5
341
  9
$SURFTAB1
 70
     6
  9
$SURFTAB2
 70
     6
  9
$SURFTYPE
 70
     6
  9
$SURFU
 70
     6
  9
$SURFV
 70
     6
  9
$UCSNAME
  2

  9
$UCSORG
 10
0.0
 20
0.0
 30
0.0
  9
$UCSXDIR
 10
1.0
 20
0.0
 30
0.0
  9
$UCSYDIR
 10
0.0
 20
1.0
 30
0.0
  9
$PUCSNAME
  2

  9
$PUCSORG
 10
0.0
 20
0.0
 30
0.0
  9
$PUCSXDIR
 10
1.0
 20
0.0
 30
0.0
  9
$PUCSYDIR
 10
0.0
 20
1.0
 30
0.0
  9
$USERI1
 70
     0
  9
$USERI2
 70
     0
  9
$USERI3
 70
     0
  9
$USERI4
 70
     0
  9
$USERI5
 70
     0
  9
$USERR1
 40
0.0
  9
$USERR2
 40
0.0
  9
$USERR3
 40
0.0
  9
$USERR4
 40
0.0
  9
$USERR5
 40
0.0
  9
$WORLDVIEW
 70
     1
  9
$SHADEDGE
 70
     3
  9
$SHADEDIF
 70
    70
  9
$TILEMODE
 70
     1
  9
$MAXACTVP
 70
    64
  9
$PLIMCHECK
 70
     0
  9
$PEXTMIN
 10
1.000000000000000E+20
 20
1.000000000000000E+20
 30
1.000000000000000E+20
  9
$PEXTMAX
 10
-1.000000000000000E+20
 20
-1.000000000000000E+20
 30
-1.000000000000000E+20
  9
$PLIMMIN
 10
0.0
 20
0.0
  9
$PLIMMAX
 10
12.0
 20
9.0
  9
$UNITMODE
 70
     0
  9
$VISRETAIN
 70
     1
  9
$PLINEGEN
 70
     0
  9
$PSLTSCALE
 70
     1
  0
ENDSEC
  0
SECTION
  2
TABLES
  0
TABLE
  2
VPORT
 70
     1
  0
VPORT
  2
*ACTIVE
 70
     0
 10
0.0
 20
0.0
 11
1.0
 21
1.0
 12
10.42990654205607
 22
4.5
 13
0.0
 23
0.0
 14
0.5
 24
0.5
 15
0.5
 25
0.5
 16
0.0
 26
0.0
 36
1.0
 17
0.0
 27
0.0
 37
0.0
 40
9.0
 41
1.972972972850329
 42
50.0
 43
0.0
 44
0.0
 50
0.0
 51
0.0
 71
     0
 72
   100
 73
     1
 74
     3
 75
     0
 76
     0
 77
     0
 78
     0
  0
ENDTAB
  0
TABLE
  2
LTYPE
 70
    19
  0
LTYPE
  2
CONTINUOUS
 70
     0
  3
Solid line
 72
    65
 73
     0
 40
0.0
  0
LTYPE
  2
BORDER
 70
     0
  3

 72
    65
 73
     6
 40
42.00000000000001
 49
12.0
 49
-6.0
 49
12.0
 49
-5.95
 49
0.1
 49
-5.95
  0
LTYPE
  2
BORDER2
 70
     0
  3

 72
    65
 73
     6
 40
21.0
 49
6.0
 49
-3.0
 49
6.0
 49
-2.95
 49
0.1
 49
-2.95
  0
LTYPE
  2
BORDERX2
 70
     0
  3

 72
    65
 73
     6
 40
84.0
 49
24.0
 49
-12.0
 49
24.0
 49
-11.95
 49
0.1
 49
-11.95
  0
LTYPE
  2
CENTER
 70
     0
  3

 72
    65
 73
     4
 40
50.0
 49
32.0
 49
-6.0
 49
6.0
 49
-6.0
  0
LTYPE
  2
CENTER2
 70
     0
  3

 72
    65
 73
     4
 40
25.0
 49
16.0
 49
-3.0
 49
3.0
 49
-3.0
  0
LTYPE
  2
CENTERX2
 70
     0
  3

 72
    65
 73
     4
 40
100.0
 49
64.0
 49
-12.0
 49
12.0
 49
-12.0
  0
LTYPE
  2
DASHDOT
 70
     0
  3

 72
    65
 73
     4
 40
24.0
 49
12.0
 49
-5.95
 49
0.1
 49
-5.95
  0
LTYPE
  2
DASHDOT2
 70
     0
  3

 72
    65
 73
     4
 40
12.0
 49
6.0
 49
-2.95
 49
0.1
 49
-2.95
  0
LTYPE
  2
DASHDOTX2
 70
     0
  3

 72
    65
 73
     4
 40
48.0
 49
24.0
 49
-11.95
 49
0.1
 49
-11.95
  0
LTYPE
  2
DASHED
 70
     0
  3

 72
    65
 73
     2
 40
18.0
 49
12.0
 49
-6.0
  0
LTYPE
  2
DASHED2
 70
     0
  3

 72
    65
 73
     2
 40
9.0
 49
6.0
 49
-3.0
  0
LTYPE
  2
DASHEDX2
 70
     0
  3

 72
    65
 73
     2
 40
36.0
 49
24.0
 49
-12.0
  0
LTYPE
  2
DIVIDE
 70
     0
  3

 72
    65
 73
     6
 40
29.99999999999999
 49
12.0
 49
-5.9
 49
0.15
 49
-5.9
 49
0.15
 49
-5.9
  0
LTYPE
  2
DIVIDE2
 70
     0
  3

 72
    65
 73
     6
 40
15.0
 49
6.0
 49
-2.9
 49
0.15
 49
-2.9
 49
0.15
 49
-2.9
  0
LTYPE
  2
DIVIDEX2
 70
     0
  3

 72
    65
 73
     6
 40
59.99999999999999
 49
24.0
 49
-11.9
 49
0.15
 49
-11.9
 49
0.15
 49
-11.9
  0
LTYPE
  2
DOT
 70
     0
  3

 72
    65
 73
     2
 40
6.3
 49
0.1
 49
-6.2
  0
LTYPE
  2
DOT2
 70
     0
  3

 72
    65
 73
     2
 40
3.2
 49
0.1
 49
-3.1
  0
LTYPE
  2
DOTX2
 70
     0
  3

 72
    65
 73
     2
 40
12.5
 49
0.1
 49
-12.4
  0
ENDTAB
  0
TABLE
  2
LAYER
 70
     4
  0
LAYER
  2
0
 70
     0
 62
     7
  6
CONTINUOUS
  0
LAYER
  2
180
 70
     0
 62
   253
  6
CONTINUOUS
  0
LAYER
  2
182
 70
     0
 62
   253
  6
CONTINUOUS
  0
LAYER
  2
185
 70
     0
 62
   253
  6
CONTINUOUS
  0
ENDTAB
  0
TABLE
  2
STYLE
 70
     8
  0
STYLE
  2
STANDARD
 70
     0
 40
0.0
 41
1.0
 50
0.0
 71
     0
 42
0.2
  3
txt
  4

  0
STYLE
  2
TEXTSTYLE0
 70
     0
 40
0.0
 41
1.0
 50
0.0
 71
     0
 42
0.2
  3

  4

  0
STYLE
  2
TEXTSTYLE1
 70
     0
 40
0.0
 41
1.0
 50
0.0
 71
     0
 42
0.2
  3

  4

  0
STYLE
  2
TEXTSTYLE2
 70
     0
 40
0.0
 41
1.0
 50
0.0
 71
     0
 42
0.2
  3

  4

  0
STYLE
  2
TEXTSTYLE3
 70
     0
 40
0.0
 41
1.0
 50
0.0
 71
     0
 42
0.2
  3

  4

  0
STYLE
  2
TEXTSTYLE4
 70
     0
 40
0.0
 41
1.0
 50
0.0
 71
     0
 42
0.2
  3

  4

  0
STYLE
  2
TEXTSTYLE5
 70
     0
 40
0.0
 41
1.0
 50
0.0
 71
     0
 42
0.2
  3

  4

  0
STYLE
  2
TEXTSTYLE6
 70
     0
 40
0.0
 41
1.0
 50
0.0
 71
     0
 42
0.2
  3

  4

  0
ENDTAB
  0
TABLE
  2
VIEW
 70
     0
  0
ENDTAB
  0
TABLE
  2
UCS
 70
     0
  0
ENDTAB
  0
TABLE
  2
APPID
 70
     2
  0
APPID
  2
ACAD
 70
     0
  0
APPID
  2
QCAD
 70
     0
  0
ENDTAB
  0
TABLE
  2
DIMSTYLE
 70
     2
  0
DIMSTYLE
  2
STANDARD
 70
     0
  3

  4

  5

  6

  7

 40
1.0
 41
0.18
 42
0.0625
 43
0.38
 44
0.18
 45
0.0
 46
0.0
 47
0.0
 48
0.0
140
0.18
141
0.09
142
0.0
143
25.4
144
1.0
145
0.0
146
1.0
147
0.09
 71
     0
 72
     0
 73
     1
 74
     1
 75
     0
 76
     0
 77
     0
 78
     0
170
     0
171
     2
172
     0
173
     0
174
     0
175
     0
176
     0
177
     0
178
     0
  0
DIMSTYLE
  2
QCADDIMSTYLE
 70
     0
  3

  4

  5

  6

  7

 40
1.0
 41
0.18
 42
0.0625
 43
0.38
 44
0.18
 45
0.0
 46
0.0
 47
0.0
 48
0.0
140
0.18
141
0.09
142
0.0
143
25.4
144
1.0
145
0.0
146
1.0
147
0.09
 71
     0
 72
     0
 73
     0
 74
     1
 75
     0
 76
     0
 77
     1
 78
     0
170
     0
171
     2
172
     0
173
     0
174
     0
175
     0
176
     0
177
     0
178
     0
  0
ENDTAB
  0
ENDSEC
  0
SECTION
  2
BLOCKS
  0
BLOCK
  8
0
  2
$MODEL_SPACE
 70
     0
 10
0.0
 20
0.0
 30
0.0
  3
$MODEL_SPACE
  1

  0
ENDBLK
  5
1EF
  8
0
  0
BLOCK
 67
     1
  8
0
  2
$PAPER_SPACE
 70
     0
 10
0.0
 20
0.0
 30
0.0
  3
$PAPER_SPACE
  1

  0
ENDBLK
  5
1EB
 67
     1
  8
0
  0
BLOCK
  8
0
  2
THERMALP
 70
     0
 10
0.0
 20
0.0
 30
0.0
  3
THERMALP
  1

  0
POLYLINE
  5
57
  8
0
 66
     1
 10
0.0
 20
0.0
 30
0.0
  0
VERTEX
  5
2A5
  8
0
 10
-0.237868
 20
0.45
 30
0.0
  0
VERTEX
  5
2A6
  8
0
 10
0.237868
 20
0.45
 30
0.0
  0
SEQEND
  5
32E
  8
0
  0
POLYLINE
  5
5B
  8
0
 66
     1
 10
0.0
 20
0.0
 30
0.0
  0
VERTEX
  5
2A7
  8
0
 10
0.237868
 20
0.425
 30
0.0
 42
1.0
  0
VERTEX
  5
2A8
  8
0
 10
0.237868
 20
0.475
 30
0.0
  0
SEQEND
  5
32D
  8
0
  0
POLYLINE
  5
5F
  8
0
 66
     1
 10
0.0
 20
0.0
 30
0.0
  0
VERTEX
  5
2A9
  8
0
 10
-0.237868
 20
0.475
 30
0.0
 42
1.0
  0
VERTEX
  5
2AA
  8
0
 10
-0.237868
 20
0.425
 30
0.0
  0
SEQEND
  5
32C
  8
0
  0
POLYLINE
  5
63
  8
0
 66
     1
 10
0.0
 20
0.0
 30
0.0
  0
VERTEX
  5
2AB
  8
0
 10
0.45
 20
0.237868
 30
0.0
  0
VERTEX
  5
2AC
  8
0
 10
0.45
 20
-0.237868
 30
0.0
  0
SEQEND
  5
32B
  8
0
  0
POLYLINE
  5
67
  8
0
 66
     1
 10
0.0
 20
0.0
 30
0.0
  0
VERTEX
  5
2AD
  8
0
 10
0.425
 20
-0.237868
 30
0.0
 42
1.0
  0
VERTEX
  5
2AE
  8
0
 10
0.475
 20
-0.237868
 30
0.0
  0
SEQEND
  5
32A
  8
0
  0
POLYLINE
  5
6B
  8
0
 66
     1
 10
0.0
 20
0.0
 30
0.0
  0
VERTEX
  5
2AF
  8
0
 10
0.475
 20
0.237868
 30
0.0
 42
1.0
  0
VERTEX
  5
2B0
  8
0
 10
0.425
 20
0.237868
 30
0.0
  0
SEQEND
  5
329
  8
0
  0
POLYLINE
  5
6F
  8
0
 66
     1
 10
0.0
 20
0.0
 30
0.0
  0
VERTEX
  5
2B1
  8
0
 10
0.237868
 20
-0.45
 30
0.0
  0
VERTEX
  5
2B2
  8
0
 10
-0.237868
 20
-0.45
 30
0.0
  0
SEQEND
  5
328
  8
0
  0
POLYLINE
  5
73
  8
0
 66
     1
 10
0.0
 20
0.0
 30
0.0
  0
VERTEX
  5
2B3
  8
0
 10
-0.237868
 20
-0.425
 30
0.0
 42
1.0
  0
VERTEX
  5
2B4
  8
0
 10
-0.237868
 20
-0.475
 30
0.0
  0
SEQEND
  5
327
  8
0
  0
POLYLINE
  5
77
  8
0
 66
     1
 10
0.0
 20
0.0
 30
0.0
  0
VERTEX
  5
2B5
  8
0
 10
0.237868
 20
-0.475
 30
0.0
 42
1.0
  0
VERTEX
  5
2B6
  8
0
 10
0.237868
 20
-0.425
 30
0.0
  0
SEQEND
  5
326
  8
0
  0
POLYLINE
  5
7B
  8
0
 66
     1
 10
0.0
 20
0.0
 30
0.0
  0
VERTEX
  5
2B7
  8
0
 10
-0.45
 20
-0.237868
 30
0.0
  0
VERTEX
  5
2B8
  8
0
 10
-0.45
 20
0.237868
 30
0.0
  0
SEQEND
  5
325
  8
0
  0
POLYLINE
  5
7F
  8
0
 66
     1
 10
0.0
 20
0.0
 30
0.0
  0
VERTEX
  5
2B9
  8
0
 10
-0.425
 20
0.237868
 30
0.0
 42
1.0
  0
VERTEX
  5
2BA
  8
0
 10
-0.475
 20
0.237868
 30
0.0
  0
SEQEND
  5
324
  8
0
  0
POLYLINE
  5
83
  8
0
 66
     1
 10
0.0
 20
0.0
 30
0.0
  0
VERTEX
  5
2BB
  8
0
 10
-0.475
 20
-0.237868
 30
0.0
 42
1.0
  0
VERTEX
  5
2BC
  8
0
 10
-0.425
 20
-0.237868
 30
0.0
  0
SEQEND
  5
323
  8
0
  0
ENDBLK
  5
23C
  8
0
  0
BLOCK
  8
0
  2
OCTAGONV
 70
     0
 10
0.0
 20
0.0
 30
0.0
  3
OCTAGONV
  1

  0
POLYLINE
  5
8A
  8
0
 66
     1
 10
0.0
 20
0.0
 30
0.0
  0
VERTEX
  5
2BD
  8
0
 10
-0.25
 20
-0.103553
 30
0.0
  0
VERTEX
  5
2BE
  8
0
 10
-0.25
 20
0.103553
 30
0.0
  0
VERTEX
  5
2BF
  8
0
 10
-0.103553
 20
0.25
 30
0.0
  0
VERTEX
  5
2C0
  8
0
 10
0.103553
 20
0.25
 30
0.0
  0
VERTEX
  5
2C1
  8
0
 10
0.25
 20
0.103553
 30
0.0
  0
VERTEX
  5
2C2
  8
0
 10
0.25
 20
-0.103553
 30
0.0
  0
VERTEX
  5
2C3
  8
0
 10
0.103553
 20
-0.25
 30
0.0
  0
VERTEX
  5
2C4
  8
0
 10
-0.103553
 20
-0.25
 30
0.0
  0
VERTEX
  5
2C5
  8
0
 10
-0.25
 20
-0.103553
 30
0.0
  0
VERTEX
  5
2C6
  8
0
 10
-0.25
 20
0.103553
 30
0.0
  0
SEQEND
  5
322
  8
0
  0
ENDBLK
  5
23F
  8
0
  0
BLOCK
  8
0
  2
SQUAREV
 70
     0
 10
0.0
 20
0.0
 30
0.0
  3
SQUAREV
  1

  0
SOLID
  5
99
  8
0
 10
-0.5
 20
-0.5
 30
0.0
 11
0.5
 21
-0.5
 31
0.0
 12
-0.5
 22
0.5
 32
0.0
 13
0.5
 23
0.5
 33
0.0
  0
ENDBLK
  5
242
  8
0
  0
BLOCK
  8
0
  2
ROUNDV
 70
     0
 10
0.0
 20
0.0
 30
0.0
  3
ROUNDV
  1

  0
POLYLINE
  5
9D
  8
0
 66
     1
 10
0.0
 20
0.0
 30
0.0
  0
VERTEX
  5
2C7
  8
0
 10
0.0
 20
-0.25
 30
0.0
 42
1.0
  0
VERTEX
  5
2C8
  8
0
 10
0.0
 20
0.25
 30
0.0
 42
1.0
  0
VERTEX
  5
2C9
  8
0
 10
0.0
 20
-0.25
 30
0.0
  0
SEQEND
  5
321
  8
0
  0
ENDBLK
  5
245
  8
0
  0
BLOCK
  8
0
  2
ANNULUSV
 70
     0
 10
0.0
 20
0.0
 30
0.0
  3
ANNULUSV
  1

  0
POLYLINE
  5
A5
  8
0
 66
     1
 10
0.0
 20
0.0
 30
0.0
  0
VERTEX
  5
2CA
  8
0
 10
0.0
 20
-0.25
 30
0.0
 42
1.0
  0
VERTEX
  5
2CB
  8
0
 10
0.0
 20
0.25
 30
0.0
 42
1.0
  0
VERTEX
  5
2CC
  8
0
 10
0.0
 20
-0.25
 30
0.0
  0
SEQEND
  5
320
  8
0
  0
ENDBLK
  5
248
  8
0
  0
BLOCK
  8
0
  2
THERMALV
 70
     0
 10
0.0
 20
0.0
 30
0.0
  3
THERMALV
  1

  0
POLYLINE
  5
AD
  8
0
 66
     1
 10
0.0
 20
0.0
 30
0.0
  0
VERTEX
  5
2CD
  8
0
 10
-0.237868
 20
0.45
 30
0.0
  0
VERTEX
  5
2CE
  8
0
 10
0.237868
 20
0.45
 30
0.0
  0
SEQEND
  5
31F
  8
0
  0
POLYLINE
  5
B1
  8
0
 66
     1
 10
0.0
 20
0.0
 30
0.0
  0
VERTEX
  5
2CF
  8
0
 10
0.237868
 20
0.425
 30
0.0
 42
1.0
  0
VERTEX
  5
2D0
  8
0
 10
0.237868
 20
0.475
 30
0.0
  0
SEQEND
  5
31E
  8
0
  0
POLYLINE
  5
B5
  8
0
 66
     1
 10
0.0
 20
0.0
 30
0.0
  0
VERTEX
  5
2D1
  8
0
 10
-0.237868
 20
0.475
 30
0.0
 42
1.0
  0
VERTEX
  5
2D2
  8
0
 10
-0.237868
 20
0.425
 30
0.0
  0
SEQEND
  5
31D
  8
0
  0
POLYLINE
  5
B9
  8
0
 66
     1
 10
0.0
 20
0.0
 30
0.0
  0
VERTEX
  5
2D3
  8
0
 10
0.45
 20
0.237868
 30
0.0
  0
VERTEX
  5
2D4
  8
0
 10
0.45
 20
-0.237868
 30
0.0
  0
SEQEND
  5
31C
  8
0
  0
POLYLINE
  5
BD
  8
0
 66
     1
 10
0.0
 20
0.0
 30
0.0
  0
VERTEX
  5
2D5
  8
0
 10
0.425
 20
-0.237868
 30
0.0
 42
1.0
  0
VERTEX
  5
2D6
  8
0
 10
0.475
 20
-0.237868
 30
0.0
  0
SEQEND
  5
31B
  8
0
  0
POLYLINE
  5
C1
  8
0
 66
     1
 10
0.0
 20
0.0
 30
0.0
  0
VERTEX
  5
2D7
  8
0
 10
0.475
 20
0.237868
 30
0.0
 42
1.0
  0
VERTEX
  5
2D8
  8
0
 10
0.425
 20
0.237868
 30
0.0
  0
SEQEND
  5
31A
  8
0
  0
POLYLINE
  5
C5
  8
0
 66
     1
 10
0.0
 20
0.0
 30
0.0
  0
VERTEX
  5
2D9
  8
0
 10
0.237868
 20
-0.45
 30
0.0
  0
VERTEX
  5
2DA
  8
0
 10
-0.237868
 20
-0.45
 30
0.0
  0
SEQEND
  5
319
  8
0
  0
POLYLINE
  5
C9
  8
0
 66
     1
 10
0.0
 20
0.0
 30
0.0
  0
VERTEX
  5
2DB
  8
0
 10
-0.237868
 20
-0.425
 30
0.0
 42
1.0
  0
VERTEX
  5
2DC
  8
0
 10
-0.237868
 20
-0.475
 30
0.0
  0
SEQEND
  5
318
  8
0
  0
POLYLINE
  5
CD
  8
0
 66
     1
 10
0.0
 20
0.0
 30
0.0
  0
VERTEX
  5
2DD
  8
0
 10
0.237868
 20
-0.475
 30
0.0
 42
1.0
  0
VERTEX
  5
2DE
  8
0
 10
0.237868
 20
-0.425
 30
0.0
  0
SEQEND
  5
317
  8
0
  0
POLYLINE
  5
D1
  8
0
 66
     1
 10
0.0
 20
0.0
 30
0.0
  0
VERTEX
  5
2DF
  8
0
 10
-0.45
 20
-0.237868
 30
0.0
  0
VERTEX
  5
2E0
  8
0
 10
-0.45
 20
0.237868
 30
0.0
  0
SEQEND
  5
316
  8
0
  0
POLYLINE
  5
D5
  8
0
 66
     1
 10
0.0
 20
0.0
 30
0.0
  0
VERTEX
  5
2E1
  8
0
 10
-0.425
 20
0.237868
 30
0.0
 42
1.0
  0
VERTEX
  5
2E2
  8
0
 10
-0.475
 20
0.237868
 30
0.0
  0
SEQEND
  5
315
  8
0
  0
POLYLINE
  5
D9
  8
0
 66
     1
 10
0.0
 20
0.0
 30
0.0
  0
VERTEX
  5
2E3
  8
0
 10
-0.475
 20
-0.237868
 30
0.0
 42
1.0
  0
VERTEX
  5
2E4
  8
0
 10
-0.425
 20
-0.237868
 30
0.0
  0
SEQEND
  5
314
  8
0
  0
ENDBLK
  5
24B
  8
0
  0
BLOCK
  8
0
  2
OFFSETP100
 70
     0
 10
0.0
 20
0.0
 30
0.0
  3
OFFSETP100
  1

  0
POLYLINE
  5
E0
  8
0
 66
     1
 10
0.0
 20
0.0
 30
0.0
  0
VERTEX
  5
2E5
  8
0
 10
0.0
 20
0.0
 30
0.0
  0
VERTEX
  5
2E6
  8
0
 10
1.0
 20
0.0
 30
0.0
  0
SEQEND
  5
313
  8
0
  0
POLYLINE
  5
E4
  8
0
 66
     1
 10
0.0
 20
0.0
 30
0.0
  0
VERTEX
  5
2E7
  8
0
 10
1.0
 20
-0.25
 30
0.0
 42
1.0
  0
VERTEX
  5
2E8
  8
0
 10
1.0
 20
0.25
 30
0.0
  0
SEQEND
  5
312
  8
0
  0
POLYLINE
  5
E8
  8
0
 66
     1
 10
0.0
 20
0.0
 30
0.0
  0
VERTEX
  5
2E9
  8
0
 10
0.0
 20
0.25
 30
0.0
 42
1.0
  0
VERTEX
  5
2EA
  8
0
 10
0.0
 20
-0.25
 30
0.0
  0
SEQEND
  5
311
  8
0
  0
ENDBLK
  5
24E
  8
0
  0
BLOCK
  8
0
  2
LONGP100
 70
     0
 10
0.0
 20
0.0
 30
0.0
  3
LONGP100
  1

  0
POLYLINE
  5
EF
  8
0
 66
     1
 10
0.0
 20
0.0
 30
0.0
  0
VERTEX
  5
2EB
  8
0
 10
-0.5
 20
0.0
 30
0.0
  0
VERTEX
  5
2EC
  8
0
 10
0.5
 20
0.0
 30
0.0
  0
SEQEND
  5
310
  8
0
  0
POLYLINE
  5
F3
  8
0
 66
     1
 10
0.0
 20
0.0
 30
0.0
  0
VERTEX
  5
2ED
  8
0
 10
0.5
 20
-0.25
 30
0.0
 42
1.0
  0
VERTEX
  5
2EE
  8
0
 10
0.5
 20
0.25
 30
0.0
  0
SEQEND
  5
30F
  8
0
  0
POLYLINE
  5
F7
  8
0
 66
     1
 10
0.0
 20
0.0
 30
0.0
  0
VERTEX
  5
2EF
  8
0
 10
-0.5
 20
0.25
 30
0.0
 42
1.0
  0
VERTEX
  5
2F0
  8
0
 10
-0.5
 20
-0.25
 30
0.0
  0
SEQEND
  5
30E
  8
0
  0
ENDBLK
  5
251
  8
0
  0
BLOCK
  8
0
  2
RECT
 70
     0
 10
0.0
 20
0.0
 30
0.0
  3
RECT
  1

  0
SOLID
  5
2A
  8
0
 10
-0.5
 20
-0.5
 30
0.0
 11
0.5
 21
-0.5
 31
0.0
 12
-0.5
 22
0.5
 32
0.0
 13
0.5
 23
0.5
 33
0.0
  0
ENDBLK
  5
254
  8
0
  0
BLOCK
  8
0
  2
PIE
 70
     0
 10
0.0
 20
0.0
 30
0.0
  3
PIE
  1

  0
POLYLINE
  5
2C
  8
0
 66
     1
 10
0.0
 20
0.0
 30
0.0
  0
VERTEX
  5
2F1
  8
0
 10
0.0
 20
-0.25
 30
0.0
 42
1.0
  0
VERTEX
  5
2F2
  8
0
 10
0.0
 20
0.25
 30
0.0
 42
1.0
  0
VERTEX
  5
2F3
  8
0
 10
0.0
 20
-0.25
 30
0.0
  0
SEQEND
  5
30D
  8
0
  0
ENDBLK
  5
257
  8
0
  0
BLOCK
  8
0
  2
OCTAGONP
 70
     0
 10
0.0
 20
0.0
 30
0.0
  3
OCTAGONP
  1

  0
POLYLINE
  5
34
  8
0
 66
     1
 10
0.0
 20
0.0
 30
0.0
  0
VERTEX
  5
2F4
  8
0
 10
-0.25
 20
-0.103553
 30
0.0
  0
VERTEX
  5
2F5
  8
0
 10
-0.25
 20
0.103553
 30
0.0
  0
VERTEX
  5
2F6
  8
0
 10
-0.103553
 20
0.25
 30
0.0
  0
VERTEX
  5
2F7
  8
0
 10
0.103553
 20
0.25
 30
0.0
  0
VERTEX
  5
2F8
  8
0
 10
0.25
 20
0.103553
 30
0.0
  0
VERTEX
  5
2F9
  8
0
 10
0.25
 20
-0.103553
 30
0.0
  0
VERTEX
  5
2FA
  8
0
 10
0.103553
 20
-0.25
 30
0.0
  0
VERTEX
  5
2FB
  8
0
 10
-0.103553
 20
-0.25
 30
0.0
  0
VERTEX
  5
2FC
  8
0
 10
-0.25
 20
-0.103553
 30
0.0
  0
VERTEX
  5
2FD
  8
0
 10
-0.25
 20
0.103553
 30
0.0
  0
SEQEND
  5
30C
  8
0
  0
ENDBLK
  5
25A
  8
0
  0
BLOCK
  8
0
  2
SQUAREP
 70
     0
 10
0.0
 20
0.0
 30
0.0
  3
SQUAREP
  1

  0
SOLID
  5
43
  8
0
 10
-0.5
 20
-0.5
 30
0.0
 11
0.5
 21
-0.5
 31
0.0
 12
-0.5
 22
0.5
 32
0.0
 13
0.5
 23
0.5
 33
0.0
  0
ENDBLK
  5
25D
  8
0
  0
BLOCK
  8
0
  2
ROUNDP
 70
     0
 10
0.0
 20
0.0
 30
0.0
  3
ROUNDP
  1

  0
POLYLINE
  5
47
  8
0
 66
     1
 10
0.0
 20
0.0
 30
0.0
  0
VERTEX
  5
2FE
  8
0
 10
0.0
 20
-0.25
 30
0.0
 42
1.0
  0
VERTEX
  5
2FF
  8
0
 10
0.0
 20
0.25
 30
0.0
 42
1.0
  0
VERTEX
  5
300
  8
0
 10
0.0
 20
-0.25
 30
0.0
  0
SEQEND
  5
30B
  8
0
  0
ENDBLK
  5
260
  8
0
  0
BLOCK
  8
0
  2
ANNULUSP
 70
     0
 10
0.0
 20
0.0
 30
0.0
  3
ANNULUSP
  1

  0
POLYLINE
  5
4F
  8
0
 66
     1
 10
0.0
 20
0.0
 30
0.0
  0
VERTEX
  5
301
  8
0
 10
0.0
 20
-0.25
 30
0.0
 42
1.0
  0
VERTEX
  5
302
  8
0
 10
0.0
 20
0.25
 30
0.0
 42
1.0
  0
VERTEX
  5
303
  8
0
 10
0.0
 20
-0.25
 30
0.0
  0
SEQEND
  5
30A
  8
0
  0
ENDBLK
  5
263
  8
0
  0
BLOCK
  8
0
  2
*X15
 70
     1
 10
0.0
 20
0.0
 30
0.0
  3
*X15
  1

  0
TEXT
  5
29B
  8
0
  6
CONTINUOUS
 10
-0.0178571428571429
 20
-1.130952380952381
 30
0.0
 40
0.125
  1
outer dimensions
  7
TEXTSTYLE0
  0
TEXT
  5
29C
  8
0
  6
CONTINUOUS
 10
2.482142857142857
 20
-1.130952380952381
 30
0.0
 40
0.125
  1
7.0" x 4.5" x 1.625"
  7
TEXTSTYLE0
  0
ENDBLK
  5
305
  8
0
  0
BLOCK
  8
0
  2
*X16
 70
     1
 10
0.0
 20
0.0
 30
0.0
  3
*X16
  1

  0
TEXT
  5
29E
  8
0
  6
CONTINUOUS
 10
-0.0238095238095238
 20
-1.530952380952381
 30
0.0
 40
0.125
  1
material
  7
TEXTSTYLE1
  0
TEXT
  5
29F
  8
0
  6
CONTINUOUS
 10
0.8571428571428571
 20
-1.530952380952381
 30
0.0
 40
0.125
  1
thickness
  7
TEXTSTYLE1
  0
TEXT
  5
2A0
  8
0
  6
CONTINUOUS
 10
2.482142857142857
 20
-1.530952380952381
 30
0.0
 40
0.125
  1
20g steel, 0.036"
  7
TEXTSTYLE1
  0
ENDBLK
  5
307
  8
0
  0
BLOCK
  8
0
  2
*X17
 70
     1
 10
0.0
 20
0.0
 30
0.0
  3
*X17
  1

  0
TEXT
  5
2A2
  8
0
  6
CONTINUOUS
 10
-0.0178571428571429
 20
-6.925
 30
0.0
 40
0.125
  1
aleph enclosure 130621
  7
TEXTSTYLE5
  0
TEXT
  5
2A3
  8
0
  6
CONTINUOUS
 10
-0.0238095238095238
 20
-7.341666666666666
 30
0.0
 40
0.125
  1
monome
  7
TEXTSTYLE5
  0
TEXT
  5
2A4
  8
0
  6
CONTINUOUS
 10
-0.0119047619047619
 20
-7.549999999999999
 30
0.0
 40
0.125
  1
tehn@monome.org
  7
TEXTSTYLE5
  0
ENDBLK
  5
309
  8
0
  0
ENDSEC
  0
SECTION
  2
ENTITIES
  0
LINE
  5
FC
  8
180
 10
-0.05
 20
-0.05
 30
0.0
 11
6.95
 21
-0.05
 31
0.0
  0
LINE
  5
FD
  8
180
 10
6.95
 20
-0.05
 30
0.0
 11
6.95
 21
4.45
 31
0.0
  0
LINE
  5
FE
  8
180
 10
6.95
 20
4.45
 30
0.0
 11
6.915
 21
4.45
 31
0.0
  0
LINE
  5
FF
  8
180
 10
6.915
 20
4.45
 30
0.0
 11
-0.015
 21
4.45
 31
0.0
  0
LINE
  5
100
  8
180
 10
-0.015
 20
4.45
 30
0.0
 11
-0.05
 21
4.45
 31
0.0
  0
LINE
  5
101
  8
180
 10
-0.05
 20
4.45
 30
0.0
 11
-0.05
 21
-0.05
 31
0.0
  0
LINE
  5
102
  8
180
 10
-0.015
 20
4.385
 30
0.0
 11
-0.015
 21
-0.015
 31
0.0
  0
LINE
  5
103
  8
180
 10
-0.015
 20
-0.015
 30
0.0
 11
6.915
 21
-0.015
 31
0.0
  0
LINE
  5
104
  8
180
 10
6.915
 20
-0.015
 30
0.0
 11
6.915
 21
4.385
 31
0.0
  0
LINE
  5
106
  8
180
 10
-0.015
 20
4.385
 30
0.0
 11
-0.015
 21
4.45
 31
0.0
  0
LINE
  5
107
  8
180
 10
6.915
 20
4.385
 30
0.0
 11
6.915
 21
4.45
 31
0.0
  0
LINE
  5
116
  8
185
 10
5.475
 20
5.425
 30
0.0
 11
6.425
 21
5.425
 31
0.0
  0
ARC
  5
117
  8
185
 10
6.425
 20
5.45
 30
0.0
 40
0.025
 50
270.0
 51
0.0
  0
LINE
  5
118
  8
185
 10
6.45
 20
5.45
 30
0.0
 11
6.45
 21
5.5
 31
0.0
  0
ARC
  5
119
  8
185
 10
6.425
 20
5.5
 30
0.0
 40
0.025
 50
0.0
 51
90.0
  0
LINE
  5
11A
  8
185
 10
6.425
 20
5.525
 30
0.0
 11
5.475
 21
5.525
 31
0.0
  0
ARC
  5
11B
  8
185
 10
5.475
 20
5.5
 30
0.0
 40
0.025
 50
90.0
 51
180.0
  0
LINE
  5
11C
  8
185
 10
5.45
 20
5.5
 30
0.0
 11
5.45
 21
5.45
 31
0.0
  0
ARC
  5
11D
  8
185
 10
5.475
 20
5.45
 30
0.0
 40
0.025
 50
180.0
 51
270.0
  0
POLYLINE
  5
11E
  8
185
 66
     1
 10
0.0
 20
0.0
 30
0.0
  0
VERTEX
  5
270
  8
185
 10
-0.05
 20
6.7875
 30
0.0
  0
VERTEX
  5
271
  8
185
 10
6.95
 20
6.7875
 30
0.0
  0
SEQEND
  5
340
  8
185
  0
POLYLINE
  5
122
  8
185
 66
     1
 10
0.0
 20
0.0
 30
0.0
  0
VERTEX
  5
272
  8
185
 10
6.95
 20
6.785
 30
0.0
 42
1.0
  0
VERTEX
  5
273
  8
185
 10
6.95
 20
6.79
 30
0.0
  0
SEQEND
  5
33F
  8
185
  0
POLYLINE
  5
126
  8
185
 66
     1
 10
0.0
 20
0.0
 30
0.0
  0
VERTEX
  5
274
  8
185
 10
-0.05
 20
6.79
 30
0.0
 42
1.0
  0
VERTEX
  5
275
  8
185
 10
-0.05
 20
6.785
 30
0.0
  0
SEQEND
  5
33E
  8
185
  0
POLYLINE
  5
12A
  8
185
 66
     1
 10
0.0
 20
0.0
 30
0.0
  0
VERTEX
  5
276
  8
185
 10
6.95
 20
6.7875
 30
0.0
  0
VERTEX
  5
277
  8
185
 10
6.95
 20
5.1625
 30
0.0
  0
SEQEND
  5
33D
  8
185
  0
POLYLINE
  5
12E
  8
185
 66
     1
 10
0.0
 20
0.0
 30
0.0
  0
VERTEX
  5
278
  8
185
 10
6.9475
 20
5.1625
 30
0.0
 42
1.0
  0
VERTEX
  5
279
  8
185
 10
6.9525
 20
5.1625
 30
0.0
  0
SEQEND
  5
33C
  8
185
  0
POLYLINE
  5
132
  8
185
 66
     1
 10
0.0
 20
0.0
 30
0.0
  0
VERTEX
  5
27A
  8
185
 10
6.9525
 20
6.7875
 30
0.0
 42
1.0
  0
VERTEX
  5
27B
  8
185
 10
6.9475
 20
6.7875
 30
0.0
  0
SEQEND
  5
33B
  8
185
  0
POLYLINE
  5
136
  8
185
 66
     1
 10
0.0
 20
0.0
 30
0.0
  0
VERTEX
  5
27C
  8
185
 10
6.95
 20
5.1625
 30
0.0
  0
VERTEX
  5
27D
  8
185
 10
-0.05
 20
5.1625
 30
0.0
  0
SEQEND
  5
33A
  8
185
  0
POLYLINE
  5
13A
  8
185
 66
     1
 10
0.0
 20
0.0
 30
0.0
  0
VERTEX
  5
27E
  8
185
 10
-0.05
 20
5.165
 30
0.0
 42
1.0
  0
VERTEX
  5
27F
  8
185
 10
-0.05
 20
5.16
 30
0.0
  0
SEQEND
  5
339
  8
185
  0
POLYLINE
  5
13E
  8
185
 66
     1
 10
0.0
 20
0.0
 30
0.0
  0
VERTEX
  5
280
  8
185
 10
6.95
 20
5.16
 30
0.0
 42
1.0
  0
VERTEX
  5
281
  8
185
 10
6.95
 20
5.165
 30
0.0
  0
SEQEND
  5
338
  8
185
  0
POLYLINE
  5
142
  8
185
 66
     1
 10
0.0
 20
0.0
 30
0.0
  0
VERTEX
  5
282
  8
185
 10
-0.05
 20
5.1625
 30
0.0
  0
VERTEX
  5
283
  8
185
 10
-0.05
 20
6.7875
 30
0.0
  0
SEQEND
  5
337
  8
185
  0
POLYLINE
  5
146
  8
185
 66
     1
 10
0.0
 20
0.0
 30
0.0
  0
VERTEX
  5
284
  8
185
 10
-0.0475
 20
6.7875
 30
0.0
 42
1.0
  0
VERTEX
  5
285
  8
185
 10
-0.0525
 20
6.7875
 30
0.0
  0
SEQEND
  5
336
  8
185
  0
POLYLINE
  5
14A
  8
185
 66
     1
 10
0.0
 20
0.0
 30
0.0
  0
VERTEX
  5
286
  8
185
 10
-0.0525
 20
5.1625
 30
0.0
 42
1.0
  0
VERTEX
  5
287
  8
185
 10
-0.0475
 20
5.1625
 30
0.0
  0
SEQEND
  5
335
  8
185
  0
POLYLINE
  5
194
  8
182
 66
     1
 10
0.0
 20
0.0
 30
0.0
  0
VERTEX
  5
288
  8
182
 10
0.45
 20
3.775
 30
0.0
 42
1.0
  0
VERTEX
  5
289
  8
182
 10
0.45
 20
4.075
 30
0.0
 42
1.0
  0
VERTEX
  5
28A
  8
182
 10
0.45
 20
3.775
 30
0.0
  0
SEQEND
  5
334
  8
182
  0
POLYLINE
  5
199
  8
182
 66
     1
 10
0.0
 20
0.0
 30
0.0
  0
VERTEX
  5
28B
  8
182
 10
0.45
 20
0.3
 30
0.0
 42
1.0
  0
VERTEX
  5
28C
  8
182
 10
0.45
 20
0.6
 30
0.0
 42
1.0
  0
VERTEX
  5
28D
  8
182
 10
0.45
 20
0.3
 30
0.0
  0
SEQEND
  5
333
  8
182
  0
POLYLINE
  5
1A3
  8
182
 66
     1
 10
0.0
 20
0.0
 30
0.0
  0
VERTEX
  5
28E
  8
182
 10
6.45
 20
3.775
 30
0.0
 42
1.0
  0
VERTEX
  5
28F
  8
182
 10
6.45
 20
4.075
 30
0.0
 42
1.0
  0
VERTEX
  5
290
  8
182
 10
6.45
 20
3.775
 30
0.0
  0
SEQEND
  5
332
  8
182
  0
POLYLINE
  5
1A8
  8
182
 66
     1
 10
0.0
 20
0.0
 30
0.0
  0
VERTEX
  5
291
  8
182
 10
6.45
 20
0.3
 30
0.0
 42
1.0
  0
VERTEX
  5
292
  8
182
 10
6.45
 20
0.6
 30
0.0
 42
1.0
  0
VERTEX
  5
293
  8
182
 10
6.45
 20
0.3
 30
0.0
  0
SEQEND
  5
331
  8
182
  0
POLYLINE
  5
1B2
  8
185
 66
     1
 10
0.0
 20
0.0
 30
0.0
  0
VERTEX
  5
294
  8
185
 10
0.6
 20
5.4125
 30
0.0
 42
1.0
  0
VERTEX
  5
295
  8
185
 10
0.6
 20
5.8625
 30
0.0
 42
1.0
  0
VERTEX
  5
296
  8
185
 10
0.6
 20
5.4125
 30
0.0
  0
SEQEND
  5
330
  8
185
  0
POLYLINE
  5
1B7
  8
185
 66
     1
 10
0.0
 20
0.0
 30
0.0
  0
VERTEX
  5
297
  8
185
 10
1.3
 20
5.4125
 30
0.0
 42
1.0
  0
VERTEX
  5
298
  8
185
 10
1.3
 20
5.8625
 30
0.0
 42
1.0
  0
VERTEX
  5
299
  8
185
 10
1.3
 20
5.4125
 30
0.0
  0
SEQEND
  5
32F
  8
185
  0
LINE
  5
1B8
  8
0
 10
-0.0000000000000018
 20
-4.3
 30
0.0
 11
0.9999999999999982
 21
-5.3
 31
0.0
  0
LINE
  5
1B9
  8
0
 10
0.9999999999999982
 20
-5.3
 30
0.0
 11
3.5
 21
-5.3
 31
0.0
  0
LINE
  5
1BA
  8
0
 10
-0.0000000000000018
 20
-4.3
 30
0.0
 11
-0.0000000000000018
 21
-4.0
 31
0.0
  0
LINE
  5
1BB
  8
0
 10
-0.0000000000000018
 20
-4.0
 30
0.0
 11
0.9999999999999982
 21
-5.0
 31
0.0
  0
LINE
  5
1BC
  8
0
 10
0.9999999999999982
 20
-5.0
 30
0.0
 11
3.5
 21
-5.0
 31
0.0
  0
LINE
  5
1BD
  8
0
 10
3.5
 20
-5.0
 30
0.0
 11
2.5
 21
-4.0
 31
0.0
  0
LINE
  5
1BE
  8
0
 10
2.5
 20
-4.0
 30
0.0
 11
2.5
 21
-4.3
 31
0.0
  0
LINE
  5
1BF
  8
0
 10
2.5
 20
-4.3
 30
0.0
 11
0.2999999999999989
 21
-4.3
 31
0.0
  0
LINE
  5
1C0
  8
0
 10
2.5
 20
-4.3
 30
0.0
 11
3.199999999999999
 21
-5.0
 31
0.0
  0
LINE
  5
1C1
  8
0
 10
3.5
 20
-5.3
 30
0.0
 11
3.5
 21
-5.0
 31
0.0
  0
LINE
  5
1C2
  8
0
 10
0.9999999999999982
 20
-5.3
 30
0.0
 11
0.9999999999999982
 21
-5.0
 31
0.0
  0
LINE
  5
1C3
  8
0
 10
2.899999999999999
 20
-5.2
 30
0.0
 11
3.199999999999999
 21
-5.2
 31
0.0
  0
CIRCLE
  5
1C4
  8
0
 10
1.300000000000001
 20
-5.2
 30
0.0
 40
0.0499999999999989
  0
CIRCLE
  5
1C5
  8
0
 10
1.5
 20
-5.2
 30
0.0
 40
0.0500000000000007
  0
INSERT
  5
1C7
  8
0
  2
*X15
 10
0.0
 20
0.0
 30
0.0
  0
INSERT
  5
1C8
  8
0
  2
*X16
 10
0.0
 20
0.0
 30
0.0
  0
TEXT
  5
1C9
  8
0
  6
CONTINUOUS
 10
-0.0238095238095238
 20
-3.63095238095238
 30
0.0
 40
0.125
  1
box with one side missing, below, not to scale:
  7
TEXTSTYLE2
  0
TEXT
  5
1CA
  8
0
  6
CONTINUOUS
 10
-0.0119047619047619
 20
-2.330952380952381
 30
0.0
 40
0.125
  1
front panel cuts as indicated, two holes and one slot
  7
TEXTSTYLE3
  0
TEXT
  5
1CC
  8
0
  6
CONTINUOUS
 10
-0.0119047619047619
 20
-1.948809523809524
 30
0.0
 40
0.125
  1
four PEM inserts, 4-40 1/8" length, ie. mcmaster 92985A610
  7
TEXTSTYLE4
  0
INSERT
  5
1CD
  8
0
  2
*X17
 10
0.0
 20
0.0
 30
0.0
  0
TEXT
  5
1CE
  8
0
  6
CONTINUOUS
 10
-0.0178571428571429
 20
-2.725
 30
0.0
 40
0.125
  1
seamless welded corners
  7
TEXTSTYLE6
  0
ENDSEC
  0
EOF
