  0
SECTION
  2
HEADER
  9
$ACADVER
  1
AC1009
  9
$DWGCODEPAGE
  3
ascii
  9
$INSBASE
 10
0.0
 20
0.0
 30
0.0
  9
$EXTMIN
 10
-0.905
 20
-10.555
 30
0.0
  9
$EXTMAX
 10
14.655
 20
6.925
 30
0.0
  9
$LIMMIN
 10
0.0
 20
0.0
  9
$LIMMAX
 10
12.0
 20
9.0
  9
$ORTHOMODE
 70
     0
  9
$REGENMODE
 70
     1
  9
$FILLMODE
 70
     1
  9
$QTEXTMODE
 70
     0
  9
$MIRRTEXT
 70
     1
  9
$DRAGMODE
 70
     2
  9
$LTSCALE
 40
1.0
  9
$OSMODE
 70
    37
  9
$ATTMODE
 70
     1
  9
$TEXTSIZE
 40
0.2
  9
$TRACEWID
 40
0.05
  9
$TEXTSTYLE
  7
STANDARD
  9
$CLAYER
  8
0
  9
$CELTYPE
  6
BYLAYER
  9
$CECOLOR
 62
   178
  9
$DIMSCALE
 40
1.0
  9
$DIMASZ
 40
0.18
  9
$DIMEXO
 40
0.045
  9
$DIMDLI
 40
0.38
  9
$DIMRND
 40
0.0
  9
$DIMDLE
 40
0.0
  9
$DIMEXE
 40
0.09
  9
$DIMTP
 40
0.0
  9
$DIMTM
 40
0.0
  9
$DIMTXT
 40
0.18
  9
$DIMCEN
 40
0.09
  9
$DIMTSZ
 40
0.0
  9
$DIMTOL
 70
     0
  9
$DIMLIM
 70
     0
  9
$DIMTIH
 70
     1
  9
$DIMTOH
 70
     1
  9
$DIMSE1
 70
     0
  9
$DIMSE2
 70
     0
  9
$DIMTAD
 70
     0
  9
$DIMZIN
 70
     0
  9
$DIMBLK
  1

  9
$DIMASO
 70
     1
  9
$DIMSHO
 70
     1
  9
$DIMPOST
  1

  9
$DIMAPOST
  1

  9
$DIMALT
 70
     0
  9
$DIMALTD
 70
     2
  9
$DIMALTF
 40
25.4
  9
$DIMLFAC
 40
1.0
  9
$DIMTOFL
 70
     0
  9
$DIMTVP
 40
0.0
  9
$DIMTIX
 70
     0
  9
$DIMSOXD
 70
     0
  9
$DIMSAH
 70
     0
  9
$DIMBLK1
  1

  9
$DIMBLK2
  1

  9
$DIMSTYLE
  2
STANDARD
  9
$DIMCLRD
 70
   178
  9
$DIMCLRE
 70
   178
  9
$DIMCLRT
 70
   178
  9
$DIMTFAC
 40
1.0
  9
$DIMGAP
 40
0.045
  9
$LUNITS
 70
     2
  9
$LUPREC
 70
     4
  9
$SKETCHINC
 40
0.1
  9
$FILLETRAD
 40
0.5
  9
$AUNITS
 70
     0
  9
$AUPREC
 70
     0
  9
$MENU
  1
.
  9
$ELEVATION
 40
0.0
  9
$PELEVATION
 40
0.0
  9
$THICKNESS
 40
0.0
  9
$LIMCHECK
 70
     0
  9
$CHAMFERA
 40
0.5
  9
$CHAMFERB
 40
0.5
  9
$SKPOLY
 70
     0
  9
$TDCREATE
 40
2456492.6767361
  9
$TDUPDATE
 40
2456492.6767361
  9
$TDINDWG
 40
0.0000000116
  9
$TDUSRTIMER
 40
0.0000000116
  9
$USRTIMER
 70
     1
  9
$ANGBASE
 50
0.0
  9
$ANGDIR
 70
     0
  9
$PDMODE
 70
     0
  9
$PDSIZE
 40
0.0
  9
$PLINEWID
 40
0.0
  9
$COORDS
 70
     1
  9
$SPLFRAME
 70
     0
  9
$SPLINETYPE
 70
     6
  9
$SPLINESEGS
 70
     8
  9
$ATTDIA
 70
     0
  9
$ATTREQ
 70
     1
  9
$HANDLING
 70
     1
  9
$HANDSEED
  5
219E
  9
$SURFTAB1
 70
     6
  9
$SURFTAB2
 70
     6
  9
$SURFTYPE
 70
     6
  9
$SURFU
 70
     6
  9
$SURFV
 70
     6
  9
$UCSNAME
  2

  9
$UCSORG
 10
0.0
 20
0.0
 30
0.0
  9
$UCSXDIR
 10
1.0
 20
0.0
 30
0.0
  9
$UCSYDIR
 10
0.0
 20
1.0
 30
0.0
  9
$PUCSNAME
  2

  9
$PUCSORG
 10
0.0
 20
0.0
 30
0.0
  9
$PUCSXDIR
 10
1.0
 20
0.0
 30
0.0
  9
$PUCSYDIR
 10
0.0
 20
1.0
 30
0.0
  9
$USERI1
 70
     0
  9
$USERI2
 70
     0
  9
$USERI3
 70
     0
  9
$USERI4
 70
     0
  9
$USERI5
 70
     0
  9
$USERR1
 40
0.0
  9
$USERR2
 40
0.0
  9
$USERR3
 40
0.0
  9
$USERR4
 40
0.0
  9
$USERR5
 40
0.0
  9
$WORLDVIEW
 70
     1
  9
$SHADEDGE
 70
     3
  9
$SHADEDIF
 70
    70
  9
$TILEMODE
 70
     1
  9
$MAXACTVP
 70
    64
  9
$PLIMCHECK
 70
     0
  9
$PEXTMIN
 10
1.000000000000000E+20
 20
1.000000000000000E+20
 30
1.000000000000000E+20
  9
$PEXTMAX
 10
-1.000000000000000E+20
 20
-1.000000000000000E+20
 30
-1.000000000000000E+20
  9
$PLIMMIN
 10
0.0
 20
0.0
  9
$PLIMMAX
 10
12.0
 20
9.0
  9
$UNITMODE
 70
     0
  9
$VISRETAIN
 70
     1
  9
$PLINEGEN
 70
     0
  9
$PSLTSCALE
 70
     1
  0
ENDSEC
  0
SECTION
  2
TABLES
  0
TABLE
  2
VPORT
 70
     1
  0
VPORT
  2
*ACTIVE
 70
     0
 10
0.0
 20
0.0
 11
1.0
 21
1.0
 12
10.42990654205607
 22
4.5
 13
0.0
 23
0.0
 14
0.5
 24
0.5
 15
0.5
 25
0.5
 16
0.0
 26
0.0
 36
1.0
 17
0.0
 27
0.0
 37
0.0
 40
9.0
 41
1.972972972850329
 42
50.0
 43
0.0
 44
0.0
 50
0.0
 51
0.0
 71
     0
 72
   100
 73
     1
 74
     3
 75
     0
 76
     0
 77
     0
 78
     0
  0
ENDTAB
  0
TABLE
  2
LTYPE
 70
    19
  0
LTYPE
  2
CONTINUOUS
 70
     0
  3
Solid line
 72
    65
 73
     0
 40
0.0
  0
LTYPE
  2
BORDER
 70
     0
  3

 72
    65
 73
     6
 40
42.00000000000001
 49
12.0
 49
-6.0
 49
12.0
 49
-5.95
 49
0.1
 49
-5.95
  0
LTYPE
  2
BORDER2
 70
     0
  3

 72
    65
 73
     6
 40
21.0
 49
6.0
 49
-3.0
 49
6.0
 49
-2.95
 49
0.1
 49
-2.95
  0
LTYPE
  2
BORDERX2
 70
     0
  3

 72
    65
 73
     6
 40
84.0
 49
24.0
 49
-12.0
 49
24.0
 49
-11.95
 49
0.1
 49
-11.95
  0
LTYPE
  2
CENTER
 70
     0
  3

 72
    65
 73
     4
 40
50.0
 49
32.0
 49
-6.0
 49
6.0
 49
-6.0
  0
LTYPE
  2
CENTER2
 70
     0
  3

 72
    65
 73
     4
 40
25.0
 49
16.0
 49
-3.0
 49
3.0
 49
-3.0
  0
LTYPE
  2
CENTERX2
 70
     0
  3

 72
    65
 73
     4
 40
100.0
 49
64.0
 49
-12.0
 49
12.0
 49
-12.0
  0
LTYPE
  2
DASHDOT
 70
     0
  3

 72
    65
 73
     4
 40
24.0
 49
12.0
 49
-5.95
 49
0.1
 49
-5.95
  0
LTYPE
  2
DASHDOT2
 70
     0
  3

 72
    65
 73
     4
 40
12.0
 49
6.0
 49
-2.95
 49
0.1
 49
-2.95
  0
LTYPE
  2
DASHDOTX2
 70
     0
  3

 72
    65
 73
     4
 40
48.0
 49
24.0
 49
-11.95
 49
0.1
 49
-11.95
  0
LTYPE
  2
DASHED
 70
     0
  3

 72
    65
 73
     2
 40
18.0
 49
12.0
 49
-6.0
  0
LTYPE
  2
DASHED2
 70
     0
  3

 72
    65
 73
     2
 40
9.0
 49
6.0
 49
-3.0
  0
LTYPE
  2
DASHEDX2
 70
     0
  3

 72
    65
 73
     2
 40
36.0
 49
24.0
 49
-12.0
  0
LTYPE
  2
DIVIDE
 70
     0
  3

 72
    65
 73
     6
 40
29.99999999999999
 49
12.0
 49
-5.9
 49
0.15
 49
-5.9
 49
0.15
 49
-5.9
  0
LTYPE
  2
DIVIDE2
 70
     0
  3

 72
    65
 73
     6
 40
15.0
 49
6.0
 49
-2.9
 49
0.15
 49
-2.9
 49
0.15
 49
-2.9
  0
LTYPE
  2
DIVIDEX2
 70
     0
  3

 72
    65
 73
     6
 40
59.99999999999999
 49
24.0
 49
-11.9
 49
0.15
 49
-11.9
 49
0.15
 49
-11.9
  0
LTYPE
  2
DOT
 70
     0
  3

 72
    65
 73
     2
 40
6.3
 49
0.1
 49
-6.2
  0
LTYPE
  2
DOT2
 70
     0
  3

 72
    65
 73
     2
 40
3.2
 49
0.1
 49
-3.1
  0
LTYPE
  2
DOTX2
 70
     0
  3

 72
    65
 73
     2
 40
12.5
 49
0.1
 49
-12.4
  0
ENDTAB
  0
TABLE
  2
LAYER
 70
     7
  0
LAYER
  2
0
 70
     0
 62
     7
  6
CONTINUOUS
  0
LAYER
  2
DIM
 70
     0
 62
   178
  6
CONTINUOUS
  0
LAYER
  2
180
 70
     0
 62
   253
  6
CONTINUOUS
  0
LAYER
  2
182
 70
     0
 62
   253
  6
CONTINUOUS
  0
LAYER
  2
183
 70
     0
 62
   253
  6
CONTINUOUS
  0
LAYER
  2
185
 70
     0
 62
   253
  6
CONTINUOUS
  0
LAYER
  2
DEFPOINTS
 70
     0
 62
     7
  6
CONTINUOUS
  0
ENDTAB
  0
TABLE
  2
STYLE
 70
     4
  0
STYLE
  2
STANDARD
 70
     0
 40
0.0
 41
1.0
 50
0.0
 71
     0
 42
0.2
  3
txt
  4

  0
STYLE
  2
TEXTSTYLE0
 70
     0
 40
0.0
 41
1.0
 50
0.0
 71
     0
 42
0.2
  3

  4

  0
STYLE
  2
TEXTSTYLE1
 70
     0
 40
0.0
 41
1.0
 50
0.0
 71
     0
 42
0.2
  3

  4

  0
STYLE
  2
TEXTSTYLE2
 70
     0
 40
0.0
 41
1.0
 50
0.0
 71
     0
 42
0.2
  3

  4

  0
ENDTAB
  0
TABLE
  2
VIEW
 70
     0
  0
ENDTAB
  0
TABLE
  2
UCS
 70
     0
  0
ENDTAB
  0
TABLE
  2
APPID
 70
     2
  0
APPID
  2
ACAD
 70
     0
  0
APPID
  2
QCAD
 70
     0
  0
ENDTAB
  0
TABLE
  2
DIMSTYLE
 70
     2
  0
DIMSTYLE
  2
STANDARD
 70
     0
  3

  4

  5

  6

  7

 40
1.0
 41
0.18
 42
0.0625
 43
0.38
 44
0.18
 45
0.0
 46
0.0
 47
0.0
 48
0.0
140
0.18
141
0.09
142
0.0
143
25.4
144
1.0
145
0.0
146
1.0
147
0.09
 71
     0
 72
     0
 73
     1
 74
     1
 75
     0
 76
     0
 77
     0
 78
     0
170
     0
171
     2
172
     0
173
     0
174
     0
175
     0
176
     0
177
     0
178
     0
  0
DIMSTYLE
  2
QCADDIMSTYLE
 70
     0
  3

  4

  5

  6

  7

 40
1.0
 41
0.18
 42
0.045
 43
0.38
 44
0.09
 45
0.0
 46
0.0
 47
0.0
 48
0.0
140
0.18
141
0.09
142
0.0
143
25.4
144
1.0
145
0.0
146
1.0
147
0.045
 71
     0
 72
     0
 73
     0
 74
     1
 75
     0
 76
     0
 77
     1
 78
     0
170
     0
171
     2
172
     0
173
     0
174
     0
175
     0
176
     0
177
     0
178
     0
  0
ENDTAB
  0
ENDSEC
  0
SECTION
  2
BLOCKS
  0
BLOCK
  8
0
  2
$MODEL_SPACE
 70
     0
 10
0.0
 20
0.0
 30
0.0
  3
$MODEL_SPACE
  1

  0
ENDBLK
  5
1FB6
  8
0
  0
BLOCK
 67
     1
  8
0
  2
$PAPER_SPACE
 70
     0
 10
0.0
 20
0.0
 30
0.0
  3
$PAPER_SPACE
  1

  0
ENDBLK
  5
1FB2
 67
     1
  8
0
  0
BLOCK
  8
0
  2
ANNULUSV
 70
     0
 10
0.0
 20
0.0
 30
0.0
  3
ANNULUSV
  1

  0
POLYLINE
  5
A5
  8
0
 66
     1
 10
0.0
 20
0.0
 30
0.0
  0
VERTEX
  5
2108
  8
0
 10
0.0
 20
-0.25
 30
0.0
 42
1.0
  0
VERTEX
  5
2109
  8
0
 10
0.0
 20
0.25
 30
0.0
 42
1.0
  0
VERTEX
  5
210A
  8
0
 10
0.0
 20
-0.25
 30
0.0
  0
SEQEND
  5
218B
  8
0
  0
ENDBLK
  5
2006
  8
0
  0
BLOCK
  8
0
  2
THERMALV
 70
     0
 10
0.0
 20
0.0
 30
0.0
  3
THERMALV
  1

  0
POLYLINE
  5
AD
  8
0
 66
     1
 10
0.0
 20
0.0
 30
0.0
  0
VERTEX
  5
210B
  8
0
 10
-0.237868
 20
0.45
 30
0.0
  0
VERTEX
  5
210C
  8
0
 10
0.237868
 20
0.45
 30
0.0
  0
SEQEND
  5
218A
  8
0
  0
POLYLINE
  5
B1
  8
0
 66
     1
 10
0.0
 20
0.0
 30
0.0
  0
VERTEX
  5
210D
  8
0
 10
0.237868
 20
0.425
 30
0.0
 42
1.0
  0
VERTEX
  5
210E
  8
0
 10
0.237868
 20
0.475
 30
0.0
  0
SEQEND
  5
2189
  8
0
  0
POLYLINE
  5
B5
  8
0
 66
     1
 10
0.0
 20
0.0
 30
0.0
  0
VERTEX
  5
210F
  8
0
 10
-0.237868
 20
0.475
 30
0.0
 42
1.0
  0
VERTEX
  5
2110
  8
0
 10
-0.237868
 20
0.425
 30
0.0
  0
SEQEND
  5
2188
  8
0
  0
POLYLINE
  5
B9
  8
0
 66
     1
 10
0.0
 20
0.0
 30
0.0
  0
VERTEX
  5
2111
  8
0
 10
0.45
 20
0.237868
 30
0.0
  0
VERTEX
  5
2112
  8
0
 10
0.45
 20
-0.237868
 30
0.0
  0
SEQEND
  5
2187
  8
0
  0
POLYLINE
  5
BD
  8
0
 66
     1
 10
0.0
 20
0.0
 30
0.0
  0
VERTEX
  5
2113
  8
0
 10
0.425
 20
-0.237868
 30
0.0
 42
1.0
  0
VERTEX
  5
2114
  8
0
 10
0.475
 20
-0.237868
 30
0.0
  0
SEQEND
  5
2186
  8
0
  0
POLYLINE
  5
C1
  8
0
 66
     1
 10
0.0
 20
0.0
 30
0.0
  0
VERTEX
  5
2115
  8
0
 10
0.475
 20
0.237868
 30
0.0
 42
1.0
  0
VERTEX
  5
2116
  8
0
 10
0.425
 20
0.237868
 30
0.0
  0
SEQEND
  5
2185
  8
0
  0
POLYLINE
  5
C5
  8
0
 66
     1
 10
0.0
 20
0.0
 30
0.0
  0
VERTEX
  5
2117
  8
0
 10
0.237868
 20
-0.45
 30
0.0
  0
VERTEX
  5
2118
  8
0
 10
-0.237868
 20
-0.45
 30
0.0
  0
SEQEND
  5
2184
  8
0
  0
POLYLINE
  5
C9
  8
0
 66
     1
 10
0.0
 20
0.0
 30
0.0
  0
VERTEX
  5
2119
  8
0
 10
-0.237868
 20
-0.425
 30
0.0
 42
1.0
  0
VERTEX
  5
211A
  8
0
 10
-0.237868
 20
-0.475
 30
0.0
  0
SEQEND
  5
2183
  8
0
  0
POLYLINE
  5
CD
  8
0
 66
     1
 10
0.0
 20
0.0
 30
0.0
  0
VERTEX
  5
211B
  8
0
 10
0.237868
 20
-0.475
 30
0.0
 42
1.0
  0
VERTEX
  5
211C
  8
0
 10
0.237868
 20
-0.425
 30
0.0
  0
SEQEND
  5
2182
  8
0
  0
POLYLINE
  5
D1
  8
0
 66
     1
 10
0.0
 20
0.0
 30
0.0
  0
VERTEX
  5
211D
  8
0
 10
-0.45
 20
-0.237868
 30
0.0
  0
VERTEX
  5
211E
  8
0
 10
-0.45
 20
0.237868
 30
0.0
  0
SEQEND
  5
2181
  8
0
  0
POLYLINE
  5
D5
  8
0
 66
     1
 10
0.0
 20
0.0
 30
0.0
  0
VERTEX
  5
211F
  8
0
 10
-0.425
 20
0.237868
 30
0.0
 42
1.0
  0
VERTEX
  5
2120
  8
0
 10
-0.475
 20
0.237868
 30
0.0
  0
SEQEND
  5
2180
  8
0
  0
POLYLINE
  5
D9
  8
0
 66
     1
 10
0.0
 20
0.0
 30
0.0
  0
VERTEX
  5
2121
  8
0
 10
-0.475
 20
-0.237868
 30
0.0
 42
1.0
  0
VERTEX
  5
2122
  8
0
 10
-0.425
 20
-0.237868
 30
0.0
  0
SEQEND
  5
217F
  8
0
  0
ENDBLK
  5
2009
  8
0
  0
BLOCK
  8
0
  2
OFFSETP100
 70
     0
 10
0.0
 20
0.0
 30
0.0
  3
OFFSETP100
  1

  0
POLYLINE
  5
E0
  8
0
 66
     1
 10
0.0
 20
0.0
 30
0.0
  0
VERTEX
  5
2123
  8
0
 10
0.0
 20
0.0
 30
0.0
  0
VERTEX
  5
2124
  8
0
 10
1.0
 20
0.0
 30
0.0
  0
SEQEND
  5
217E
  8
0
  0
POLYLINE
  5
E4
  8
0
 66
     1
 10
0.0
 20
0.0
 30
0.0
  0
VERTEX
  5
2125
  8
0
 10
1.0
 20
-0.25
 30
0.0
 42
1.0
  0
VERTEX
  5
2126
  8
0
 10
1.0
 20
0.25
 30
0.0
  0
SEQEND
  5
217D
  8
0
  0
POLYLINE
  5
E8
  8
0
 66
     1
 10
0.0
 20
0.0
 30
0.0
  0
VERTEX
  5
2127
  8
0
 10
0.0
 20
0.25
 30
0.0
 42
1.0
  0
VERTEX
  5
2128
  8
0
 10
0.0
 20
-0.25
 30
0.0
  0
SEQEND
  5
217C
  8
0
  0
ENDBLK
  5
200C
  8
0
  0
BLOCK
  8
0
  2
LONGP100
 70
     0
 10
0.0
 20
0.0
 30
0.0
  3
LONGP100
  1

  0
POLYLINE
  5
EF
  8
0
 66
     1
 10
0.0
 20
0.0
 30
0.0
  0
VERTEX
  5
2129
  8
0
 10
-0.5
 20
0.0
 30
0.0
  0
VERTEX
  5
212A
  8
0
 10
0.5
 20
0.0
 30
0.0
  0
SEQEND
  5
217B
  8
0
  0
POLYLINE
  5
F3
  8
0
 66
     1
 10
0.0
 20
0.0
 30
0.0
  0
VERTEX
  5
212B
  8
0
 10
0.5
 20
-0.25
 30
0.0
 42
1.0
  0
VERTEX
  5
212C
  8
0
 10
0.5
 20
0.25
 30
0.0
  0
SEQEND
  5
217A
  8
0
  0
POLYLINE
  5
F7
  8
0
 66
     1
 10
0.0
 20
0.0
 30
0.0
  0
VERTEX
  5
212D
  8
0
 10
-0.5
 20
0.25
 30
0.0
 42
1.0
  0
VERTEX
  5
212E
  8
0
 10
-0.5
 20
-0.25
 30
0.0
  0
SEQEND
  5
2179
  8
0
  0
ENDBLK
  5
200F
  8
0
  0
BLOCK
  8
0
  2
RECT
 70
     0
 10
0.0
 20
0.0
 30
0.0
  3
RECT
  1

  0
SOLID
  5
F8
  8
0
 10
-0.5
 20
-0.5
 30
0.0
 11
0.5
 21
-0.5
 31
0.0
 12
-0.5
 22
0.5
 32
0.0
 13
0.5
 23
0.5
 33
0.0
  0
ENDBLK
  5
2012
  8
0
  0
BLOCK
  8
0
  2
PIE
 70
     0
 10
0.0
 20
0.0
 30
0.0
  3
PIE
  1

  0
POLYLINE
  5
F9
  8
0
 66
     1
 10
0.0
 20
0.0
 30
0.0
  0
VERTEX
  5
212F
  8
0
 10
0.0
 20
-0.25
 30
0.0
 42
1.0
  0
VERTEX
  5
2130
  8
0
 10
0.0
 20
0.25
 30
0.0
 42
1.0
  0
VERTEX
  5
2131
  8
0
 10
0.0
 20
-0.25
 30
0.0
  0
SEQEND
  5
2178
  8
0
  0
ENDBLK
  5
2015
  8
0
  0
BLOCK
  8
0
  2
OCTAGONP
 70
     0
 10
0.0
 20
0.0
 30
0.0
  3
OCTAGONP
  1

  0
POLYLINE
  5
FA
  8
0
 66
     1
 10
0.0
 20
0.0
 30
0.0
  0
VERTEX
  5
2132
  8
0
 10
-0.25
 20
-0.103553
 30
0.0
  0
VERTEX
  5
2133
  8
0
 10
-0.25
 20
0.103553
 30
0.0
  0
VERTEX
  5
2134
  8
0
 10
-0.103553
 20
0.25
 30
0.0
  0
VERTEX
  5
2135
  8
0
 10
0.103553
 20
0.25
 30
0.0
  0
VERTEX
  5
2136
  8
0
 10
0.25
 20
0.103553
 30
0.0
  0
VERTEX
  5
2137
  8
0
 10
0.25
 20
-0.103553
 30
0.0
  0
VERTEX
  5
2138
  8
0
 10
0.103553
 20
-0.25
 30
0.0
  0
VERTEX
  5
2139
  8
0
 10
-0.103553
 20
-0.25
 30
0.0
  0
VERTEX
  5
213A
  8
0
 10
-0.25
 20
-0.103553
 30
0.0
  0
VERTEX
  5
213B
  8
0
 10
-0.25
 20
0.103553
 30
0.0
  0
SEQEND
  5
2177
  8
0
  0
ENDBLK
  5
2018
  8
0
  0
BLOCK
  8
0
  2
SQUAREP
 70
     0
 10
0.0
 20
0.0
 30
0.0
  3
SQUAREP
  1

  0
SOLID
  5
FB
  8
0
 10
-0.5
 20
-0.5
 30
0.0
 11
0.5
 21
-0.5
 31
0.0
 12
-0.5
 22
0.5
 32
0.0
 13
0.5
 23
0.5
 33
0.0
  0
ENDBLK
  5
201B
  8
0
  0
BLOCK
  8
0
  2
ROUNDP
 70
     0
 10
0.0
 20
0.0
 30
0.0
  3
ROUNDP
  1

  0
POLYLINE
  5
FC
  8
0
 66
     1
 10
0.0
 20
0.0
 30
0.0
  0
VERTEX
  5
213C
  8
0
 10
0.0
 20
-0.25
 30
0.0
 42
1.0
  0
VERTEX
  5
213D
  8
0
 10
0.0
 20
0.25
 30
0.0
 42
1.0
  0
VERTEX
  5
213E
  8
0
 10
0.0
 20
-0.25
 30
0.0
  0
SEQEND
  5
2176
  8
0
  0
ENDBLK
  5
201E
  8
0
  0
BLOCK
  8
0
  2
ANNULUSP
 70
     0
 10
0.0
 20
0.0
 30
0.0
  3
ANNULUSP
  1

  0
POLYLINE
  5
FD
  8
0
 66
     1
 10
0.0
 20
0.0
 30
0.0
  0
VERTEX
  5
213F
  8
0
 10
0.0
 20
-0.25
 30
0.0
 42
1.0
  0
VERTEX
  5
2140
  8
0
 10
0.0
 20
0.25
 30
0.0
 42
1.0
  0
VERTEX
  5
2141
  8
0
 10
0.0
 20
-0.25
 30
0.0
  0
SEQEND
  5
2175
  8
0
  0
ENDBLK
  5
2021
  8
0
  0
BLOCK
  8
0
  2
THERMALP
 70
     0
 10
0.0
 20
0.0
 30
0.0
  3
THERMALP
  1

  0
POLYLINE
  5
57
  8
0
 66
     1
 10
0.0
 20
0.0
 30
0.0
  0
VERTEX
  5
2142
  8
0
 10
-0.237868
 20
0.45
 30
0.0
  0
VERTEX
  5
2143
  8
0
 10
0.237868
 20
0.45
 30
0.0
  0
SEQEND
  5
2174
  8
0
  0
POLYLINE
  5
5B
  8
0
 66
     1
 10
0.0
 20
0.0
 30
0.0
  0
VERTEX
  5
2144
  8
0
 10
0.237868
 20
0.425
 30
0.0
 42
1.0
  0
VERTEX
  5
2145
  8
0
 10
0.237868
 20
0.475
 30
0.0
  0
SEQEND
  5
2173
  8
0
  0
POLYLINE
  5
5F
  8
0
 66
     1
 10
0.0
 20
0.0
 30
0.0
  0
VERTEX
  5
2146
  8
0
 10
-0.237868
 20
0.475
 30
0.0
 42
1.0
  0
VERTEX
  5
2147
  8
0
 10
-0.237868
 20
0.425
 30
0.0
  0
SEQEND
  5
2172
  8
0
  0
POLYLINE
  5
63
  8
0
 66
     1
 10
0.0
 20
0.0
 30
0.0
  0
VERTEX
  5
2148
  8
0
 10
0.45
 20
0.237868
 30
0.0
  0
VERTEX
  5
2149
  8
0
 10
0.45
 20
-0.237868
 30
0.0
  0
SEQEND
  5
2171
  8
0
  0
POLYLINE
  5
67
  8
0
 66
     1
 10
0.0
 20
0.0
 30
0.0
  0
VERTEX
  5
214A
  8
0
 10
0.425
 20
-0.237868
 30
0.0
 42
1.0
  0
VERTEX
  5
214B
  8
0
 10
0.475
 20
-0.237868
 30
0.0
  0
SEQEND
  5
2170
  8
0
  0
POLYLINE
  5
6B
  8
0
 66
     1
 10
0.0
 20
0.0
 30
0.0
  0
VERTEX
  5
214C
  8
0
 10
0.475
 20
0.237868
 30
0.0
 42
1.0
  0
VERTEX
  5
214D
  8
0
 10
0.425
 20
0.237868
 30
0.0
  0
SEQEND
  5
216F
  8
0
  0
POLYLINE
  5
6F
  8
0
 66
     1
 10
0.0
 20
0.0
 30
0.0
  0
VERTEX
  5
214E
  8
0
 10
0.237868
 20
-0.45
 30
0.0
  0
VERTEX
  5
214F
  8
0
 10
-0.237868
 20
-0.45
 30
0.0
  0
SEQEND
  5
216E
  8
0
  0
POLYLINE
  5
73
  8
0
 66
     1
 10
0.0
 20
0.0
 30
0.0
  0
VERTEX
  5
2150
  8
0
 10
-0.237868
 20
-0.425
 30
0.0
 42
1.0
  0
VERTEX
  5
2151
  8
0
 10
-0.237868
 20
-0.475
 30
0.0
  0
SEQEND
  5
216D
  8
0
  0
POLYLINE
  5
77
  8
0
 66
     1
 10
0.0
 20
0.0
 30
0.0
  0
VERTEX
  5
2152
  8
0
 10
0.237868
 20
-0.475
 30
0.0
 42
1.0
  0
VERTEX
  5
2153
  8
0
 10
0.237868
 20
-0.425
 30
0.0
  0
SEQEND
  5
216C
  8
0
  0
POLYLINE
  5
7B
  8
0
 66
     1
 10
0.0
 20
0.0
 30
0.0
  0
VERTEX
  5
2154
  8
0
 10
-0.45
 20
-0.237868
 30
0.0
  0
VERTEX
  5
2155
  8
0
 10
-0.45
 20
0.237868
 30
0.0
  0
SEQEND
  5
216B
  8
0
  0
POLYLINE
  5
7F
  8
0
 66
     1
 10
0.0
 20
0.0
 30
0.0
  0
VERTEX
  5
2156
  8
0
 10
-0.425
 20
0.237868
 30
0.0
 42
1.0
  0
VERTEX
  5
2157
  8
0
 10
-0.475
 20
0.237868
 30
0.0
  0
SEQEND
  5
216A
  8
0
  0
POLYLINE
  5
83
  8
0
 66
     1
 10
0.0
 20
0.0
 30
0.0
  0
VERTEX
  5
2158
  8
0
 10
-0.475
 20
-0.237868
 30
0.0
 42
1.0
  0
VERTEX
  5
2159
  8
0
 10
-0.425
 20
-0.237868
 30
0.0
  0
SEQEND
  5
2169
  8
0
  0
ENDBLK
  5
2024
  8
0
  0
BLOCK
  8
0
  2
OCTAGONV
 70
     0
 10
0.0
 20
0.0
 30
0.0
  3
OCTAGONV
  1

  0
POLYLINE
  5
8A
  8
0
 66
     1
 10
0.0
 20
0.0
 30
0.0
  0
VERTEX
  5
215A
  8
0
 10
-0.25
 20
-0.103553
 30
0.0
  0
VERTEX
  5
215B
  8
0
 10
-0.25
 20
0.103553
 30
0.0
  0
VERTEX
  5
215C
  8
0
 10
-0.103553
 20
0.25
 30
0.0
  0
VERTEX
  5
215D
  8
0
 10
0.103553
 20
0.25
 30
0.0
  0
VERTEX
  5
215E
  8
0
 10
0.25
 20
0.103553
 30
0.0
  0
VERTEX
  5
215F
  8
0
 10
0.25
 20
-0.103553
 30
0.0
  0
VERTEX
  5
2160
  8
0
 10
0.103553
 20
-0.25
 30
0.0
  0
VERTEX
  5
2161
  8
0
 10
-0.103553
 20
-0.25
 30
0.0
  0
VERTEX
  5
2162
  8
0
 10
-0.25
 20
-0.103553
 30
0.0
  0
VERTEX
  5
2163
  8
0
 10
-0.25
 20
0.103553
 30
0.0
  0
SEQEND
  5
2168
  8
0
  0
ENDBLK
  5
2027
  8
0
  0
BLOCK
  8
0
  2
SQUAREV
 70
     0
 10
0.0
 20
0.0
 30
0.0
  3
SQUAREV
  1

  0
SOLID
  5
99
  8
0
 10
-0.5
 20
-0.5
 30
0.0
 11
0.5
 21
-0.5
 31
0.0
 12
-0.5
 22
0.5
 32
0.0
 13
0.5
 23
0.5
 33
0.0
  0
ENDBLK
  5
202A
  8
0
  0
BLOCK
  8
0
  2
ROUNDV
 70
     0
 10
0.0
 20
0.0
 30
0.0
  3
ROUNDV
  1

  0
POLYLINE
  5
9D
  8
0
 66
     1
 10
0.0
 20
0.0
 30
0.0
  0
VERTEX
  5
2164
  8
0
 10
0.0
 20
-0.25
 30
0.0
 42
1.0
  0
VERTEX
  5
2165
  8
0
 10
0.0
 20
0.25
 30
0.0
 42
1.0
  0
VERTEX
  5
2166
  8
0
 10
0.0
 20
-0.25
 30
0.0
  0
SEQEND
  5
2167
  8
0
  0
ENDBLK
  5
202D
  8
0
  0
BLOCK
  8
0
  2
*D15
 70
     1
 10
0.0
 20
0.0
 30
0.0
  3
*D15
  1

  0
LINE
  5
202F
  8
DIM
 62
     0
 10
-0.12
 20
-0.075
 30
0.0
 11
-1.09
 21
-0.075
 31
0.0
  0
LINE
  5
2030
  8
DIM
 62
     0
 10
-0.12
 20
4.425
 30
0.0
 11
-1.09
 21
4.425
 31
0.0
  0
LINE
  5
2031
  8
DIM
 62
     0
 10
-0.9999999999999999
 20
0.105
 30
0.0
 11
-0.9999999999999999
 21
4.245
 31
0.0
  0
SOLID
  5
2032
  8
DIM
 62
     0
 10
-1.03
 20
0.105
 30
0.0
 11
-0.9699999999999999
 21
0.105
 31
0.0
 12
-0.9999999999999999
 22
-0.075
 32
0.0
 13
-0.9999999999999999
 23
-0.075
 33
0.0
  0
SOLID
  5
2033
  8
DIM
 62
     0
 10
-0.9699999999999999
 20
4.245
 30
0.0
 11
-1.03
 21
4.245
 31
0.0
 12
-0.9999999999999999
 22
4.425
 32
0.0
 13
-0.9999999999999999
 23
4.425
 33
0.0
  0
TEXT
  5
2034
  8
DIM
  6
CONTINUOUS
 62
     0
 10
-1.044999999999999
 20
1.703571428571428
 30
0.0
 40
0.18
  1
4.5000
 50
90.0
  0
POINT
  5
2035
  8
DEFPOINTS
 62
     0
 10
-0.075
 20
-0.075
 30
0.0
  0
POINT
  5
2036
  8
DEFPOINTS
 62
     0
 10
-0.075
 20
4.425
 30
0.0
  0
POINT
  5
2037
  8
DEFPOINTS
 62
     0
 10
-0.9999999999999999
 20
4.425
 30
0.0
  0
ENDBLK
  5
2039
  8
0
  0
BLOCK
  8
0
  2
*D16
 70
     1
 10
0.0
 20
0.0
 30
0.0
  3
*D16
  1

  0
LINE
  5
203B
  8
DIM
 62
     0
 10
-0.075
 20
-0.12
 30
0.0
 11
-0.075
 21
-1.09
 31
0.0
  0
LINE
  5
203C
  8
DIM
 62
     0
 10
6.925
 20
-0.12
 30
0.0
 11
6.925
 21
-1.09
 31
0.0
  0
LINE
  5
203D
  8
DIM
 62
     0
 10
0.105
 20
-0.9999999999999998
 30
0.0
 11
6.745
 21
-0.9999999999999998
 31
0.0
  0
SOLID
  5
203E
  8
DIM
 62
     0
 10
0.105
 20
-0.9699999999999998
 30
0.0
 11
0.105
 21
-1.03
 31
0.0
 12
-0.075
 22
-0.9999999999999998
 32
0.0
 13
-0.075
 23
-0.9999999999999998
 33
0.0
  0
SOLID
  5
203F
  8
DIM
 62
     0
 10
6.745
 20
-1.03
 30
0.0
 11
6.745
 21
-0.9699999999999998
 31
0.0
 12
6.925
 22
-0.9999999999999998
 32
0.0
 13
6.925
 23
-0.9999999999999998
 33
0.0
  0
TEXT
  5
2040
  8
DIM
  6
CONTINUOUS
 62
     0
 10
2.953571428571428
 20
-0.9549999999999998
 30
0.0
 40
0.18
  1
7.0000
  0
POINT
  5
2041
  8
DEFPOINTS
 62
     0
 10
-0.075
 20
-0.075
 30
0.0
  0
POINT
  5
2042
  8
DEFPOINTS
 62
     0
 10
6.925
 20
-0.075
 30
0.0
  0
POINT
  5
2043
  8
DEFPOINTS
 62
     0
 10
6.925
 20
-0.9999999999999998
 30
0.0
  0
ENDBLK
  5
2045
  8
0
  0
BLOCK
  8
0
  2
*D17
 70
     1
 10
0.0
 20
0.0
 30
0.0
  3
*D17
  1

  0
LINE
  5
2047
  8
DIM
 62
     0
 10
6.97
 20
-0.075
 30
0.0
 11
7.69
 21
-0.075
 31
0.0
  0
LINE
  5
2048
  8
DIM
 62
     0
 10
6.62
 20
0.4249999999999999
 30
0.0
 11
7.69
 21
0.4249999999999998
 31
0.0
  0
LINE
  5
2049
  8
DIM
 62
     0
 10
7.6
 20
0.105
 30
0.0
 11
7.6
 21
0.2449999999999998
 31
0.0
  0
SOLID
  5
204A
  8
DIM
 62
     0
 10
7.569999999999999
 20
0.105
 30
0.0
 11
7.63
 21
0.105
 31
0.0
 12
7.6
 22
-0.075
 32
0.0
 13
7.6
 23
-0.075
 33
0.0
  0
SOLID
  5
204B
  8
DIM
 62
     0
 10
7.63
 20
0.2449999999999998
 30
0.0
 11
7.569999999999999
 21
0.2449999999999998
 31
0.0
 12
7.6
 22
0.4249999999999998
 32
0.0
 13
7.6
 23
0.4249999999999998
 33
0.0
  0
TEXT
  5
204C
  8
DIM
  6
CONTINUOUS
 62
     0
 10
7.556071428571428
 20
0.0849999999999999
 30
0.0
 40
0.18
  1
0.5000
  0
POINT
  5
204D
  8
DEFPOINTS
 62
     0
 10
6.925
 20
-0.075
 30
0.0
  0
POINT
  5
204E
  8
DEFPOINTS
 62
     0
 10
6.575
 20
0.4249999999999999
 30
0.0
  0
POINT
  5
204F
  8
DEFPOINTS
 62
     0
 10
7.6
 20
0.4249999999999998
 30
0.0
  0
ENDBLK
  5
2051
  8
0
  0
BLOCK
  8
0
  2
*D18
 70
     1
 10
0.0
 20
0.0
 30
0.0
  3
*D18
  1

  0
LINE
  5
2053
  8
DIM
 62
     0
 10
6.925
 20
-0.12
 30
0.0
 11
6.925
 21
-0.69
 31
0.0
  0
LINE
  5
2054
  8
DIM
 62
     0
 10
6.425
 20
0.23
 30
0.0
 11
6.425
 21
-0.69
 31
0.0
  0
LINE
  5
2055
  8
DIM
 62
     0
 10
6.745
 20
-0.6
 30
0.0
 11
6.605
 21
-0.6
 31
0.0
  0
SOLID
  5
2056
  8
DIM
 62
     0
 10
6.745
 20
-0.63
 30
0.0
 11
6.745
 21
-0.57
 31
0.0
 12
6.925
 22
-0.6
 32
0.0
 13
6.925
 23
-0.6
 33
0.0
  0
SOLID
  5
2057
  8
DIM
 62
     0
 10
6.605
 20
-0.57
 30
0.0
 11
6.605
 21
-0.63
 31
0.0
 12
6.425
 22
-0.6
 32
0.0
 13
6.425
 23
-0.6
 33
0.0
  0
TEXT
  5
2058
  8
DIM
  6
CONTINUOUS
 62
     0
 10
6.203571428571428
 20
-1.1175
 30
0.0
 40
0.18
  1
0.5000
  0
POINT
  5
2059
  8
DEFPOINTS
 62
     0
 10
6.925
 20
-0.075
 30
0.0
  0
POINT
  5
205A
  8
DEFPOINTS
 62
     0
 10
6.425
 20
0.275
 30
0.0
  0
POINT
  5
205B
  8
DEFPOINTS
 62
     0
 10
6.425
 20
-0.6
 30
0.0
  0
ENDBLK
  5
205D
  8
0
  0
BLOCK
  8
0
  2
*D19
 70
     1
 10
0.0
 20
0.0
 30
0.0
  3
*D19
  1

  0
LINE
  5
205F
  8
DIM
 62
     0
 10
4.046377664497867
 20
5.721470993870822
 30
0.0
 11
5.154234807355009
 21
5.721470993870822
 31
0.0
  0
LINE
  5
2060
  8
DIM
 62
     0
 10
5.292514637682538
 20
5.606237801931217
 30
0.0
 11
5.154234807355009
 21
5.721470993870822
 31
0.0
  0
TEXT
  5
2061
  8
DIM
  6
CONTINUOUS
 62
     0
 10
4.012091950212151
 20
5.766470993870821
 30
0.0
 40
0.18
  1
R0.0250
  0
SOLID
  5
2062
  8
DIM
 62
     0
 10
5.273309105692603
 20
5.583191163543296
 30
0.0
 11
5.311720169672472
 21
5.629284440319138
 31
0.0
 12
5.430794468010066
 22
5.491004609991611
 32
0.0
 13
5.430794468010066
 23
5.491004609991611
 33
0.0
  0
LINE
  5
2063
  8
DIM
 62
     0
 10
5.36
 20
5.475
 30
0.0
 11
5.54
 21
5.475
 31
0.0
  0
LINE
  5
2064
  8
DIM
 62
     0
 10
5.45
 20
5.385
 30
0.0
 11
5.45
 21
5.565
 31
0.0
  0
POINT
  5
2065
  8
DEFPOINTS
 62
     0
 10
5.430794468010066
 20
5.491004609991611
 30
0.0
  0
POINT
  5
2066
  8
DEFPOINTS
 62
     0
 10
5.45
 20
5.475
 30
0.0
  0
ENDBLK
  5
2068
  8
0
  0
BLOCK
  8
0
  2
*D20
 70
     1
 10
0.0
 20
0.0
 30
0.0
  3
*D20
  1

  0
LINE
  5
206A
  8
DIM
 62
     0
 10
5.425
 20
5.404999999999999
 30
0.0
 11
5.425
 21
4.609999999999999
 31
0.0
  0
LINE
  5
206B
  8
DIM
 62
     0
 10
6.425
 20
5.404999999999999
 30
0.0
 11
6.425
 21
4.609999999999999
 31
0.0
  0
LINE
  5
206C
  8
DIM
 62
     0
 10
5.605
 20
4.699999999999999
 30
0.0
 11
6.245
 21
4.699999999999999
 31
0.0
  0
SOLID
  5
206D
  8
DIM
 62
     0
 10
5.605
 20
4.73
 30
0.0
 11
5.605
 21
4.669999999999999
 31
0.0
 12
5.425
 22
4.699999999999999
 32
0.0
 13
5.425
 23
4.699999999999999
 33
0.0
  0
SOLID
  5
206E
  8
DIM
 62
     0
 10
6.245
 20
4.669999999999999
 30
0.0
 11
6.245
 21
4.73
 31
0.0
 12
6.425
 22
4.699999999999999
 32
0.0
 13
6.425
 23
4.699999999999999
 33
0.0
  0
TEXT
  5
206F
  8
DIM
  6
CONTINUOUS
 62
     0
 10
5.440714285714286
 20
4.744999999999999
 30
0.0
 40
0.18
  1
1.0000
  0
POINT
  5
2070
  8
DEFPOINTS
 62
     0
 10
5.425
 20
5.449999999999999
 30
0.0
  0
POINT
  5
2071
  8
DEFPOINTS
 62
     0
 10
6.425
 20
5.449999999999999
 30
0.0
  0
POINT
  5
2072
  8
DEFPOINTS
 62
     0
 10
6.425
 20
4.699999999999999
 30
0.0
  0
ENDBLK
  5
2074
  8
0
  0
BLOCK
  8
0
  2
*D21
 70
     1
 10
0.0
 20
0.0
 30
0.0
  3
*D21
  1

  0
LINE
  5
2076
  8
DIM
 62
     0
 10
6.9275
 20
5.055
 30
0.0
 11
6.9275
 21
4.609999999999999
 31
0.0
  0
LINE
  5
2077
  8
DIM
 62
     0
 10
6.425
 20
5.38
 30
0.0
 11
6.425
 21
4.609999999999999
 31
0.0
  0
LINE
  5
2078
  8
DIM
 62
     0
 10
6.7475
 20
4.699999999999999
 30
0.0
 11
6.605
 21
4.699999999999999
 31
0.0
  0
SOLID
  5
2079
  8
DIM
 62
     0
 10
6.7475
 20
4.669999999999999
 30
0.0
 11
6.7475
 21
4.73
 31
0.0
 12
6.9275
 22
4.699999999999999
 32
0.0
 13
6.9275
 23
4.699999999999999
 33
0.0
  0
SOLID
  5
207A
  8
DIM
 62
     0
 10
6.605
 20
4.73
 30
0.0
 11
6.605
 21
4.669999999999999
 31
0.0
 12
6.425
 22
4.699999999999999
 32
0.0
 13
6.425
 23
4.699999999999999
 33
0.0
  0
TEXT
  5
207B
  8
DIM
  6
CONTINUOUS
 62
     0
 10
6.204821428571428
 20
4.1825
 30
0.0
 40
0.18
  1
0.5025
  0
POINT
  5
207C
  8
DEFPOINTS
 62
     0
 10
6.9275
 20
5.1
 30
0.0
  0
POINT
  5
207D
  8
DEFPOINTS
 62
     0
 10
6.425
 20
5.425
 30
0.0
  0
POINT
  5
207E
  8
DEFPOINTS
 62
     0
 10
6.425
 20
4.699999999999999
 30
0.0
  0
ENDBLK
  5
2080
  8
0
  0
BLOCK
  8
0
  2
*D22
 70
     1
 10
0.0
 20
0.0
 30
0.0
  3
*D22
  1

  0
LINE
  5
2082
  8
DIM
 62
     0
 10
6.9725
 20
5.1
 30
0.0
 11
8.09
 21
5.099999999999999
 31
0.0
  0
LINE
  5
2083
  8
DIM
 62
     0
 10
6.445
 20
5.399999999999999
 30
0.0
 11
8.09
 21
5.399999999999998
 31
0.0
  0
LINE
  5
2084
  8
DIM
 62
     0
 10
7.999999999999999
 20
4.919999999999999
 30
0.0
 11
7.999999999999999
 21
4.739999999999999
 31
0.0
  0
LINE
  5
2085
  8
DIM
 62
     0
 10
7.999999999999999
 20
5.579999999999997
 30
0.0
 11
7.999999999999999
 21
5.759999999999997
 31
0.0
  0
SOLID
  5
2086
  8
DIM
 62
     0
 10
8.03
 20
4.919999999999999
 30
0.0
 11
7.969999999999999
 21
4.919999999999999
 31
0.0
 12
7.999999999999999
 22
5.099999999999999
 32
0.0
 13
7.999999999999999
 23
5.099999999999999
 33
0.0
  0
SOLID
  5
2087
  8
DIM
 62
     0
 10
7.969999999999999
 20
5.579999999999997
 30
0.0
 11
8.03
 21
5.579999999999997
 31
0.0
 12
7.999999999999999
 22
5.399999999999998
 32
0.0
 13
7.999999999999999
 23
5.399999999999998
 33
0.0
  0
TEXT
  5
2088
  8
DIM
  6
CONTINUOUS
 62
     0
 10
7.956071428571427
 20
5.159999999999998
 30
0.0
 40
0.18
  1
0.3000
  0
POINT
  5
2089
  8
DEFPOINTS
 62
     0
 10
6.9275
 20
5.1
 30
0.0
  0
POINT
  5
208A
  8
DEFPOINTS
 62
     0
 10
6.4
 20
5.399999999999999
 30
0.0
  0
POINT
  5
208B
  8
DEFPOINTS
 62
     0
 10
7.999999999999999
 20
5.399999999999998
 30
0.0
  0
ENDBLK
  5
208D
  8
0
  0
BLOCK
  8
0
  2
*D23
 70
     1
 10
0.0
 20
0.0
 30
0.0
  3
*D23
  1

  0
LINE
  5
208F
  8
DIM
 62
     0
 10
6.444999999999999
 20
5.399999999999999
 30
0.0
 11
7.694313591651557
 21
5.399999999999998
 31
0.0
  0
LINE
  5
2090
  8
DIM
 62
     0
 10
6.445
 20
5.5
 30
0.0
 11
7.694313591651557
 21
5.499999999999999
 31
0.0
  0
LINE
  5
2091
  8
DIM
 62
     0
 10
7.604313591651557
 20
5.219999999999998
 30
0.0
 11
7.604313591651557
 21
5.039999999999998
 31
0.0
  0
LINE
  5
2092
  8
DIM
 62
     0
 10
7.604313591651557
 20
5.679999999999999
 30
0.0
 11
7.604313591651557
 21
5.859999999999999
 31
0.0
  0
SOLID
  5
2093
  8
DIM
 62
     0
 10
7.634313591651558
 20
5.219999999999998
 30
0.0
 11
7.574313591651557
 21
5.219999999999998
 31
0.0
 12
7.604313591651557
 22
5.399999999999998
 32
0.0
 13
7.604313591651557
 23
5.399999999999998
 33
0.0
  0
SOLID
  5
2094
  8
DIM
 62
     0
 10
7.574313591651557
 20
5.679999999999999
 30
0.0
 11
7.634313591651558
 21
5.679999999999999
 31
0.0
 12
7.604313591651557
 22
5.499999999999999
 32
0.0
 13
7.604313591651557
 23
5.499999999999999
 33
0.0
  0
TEXT
  5
2095
  8
DIM
  6
CONTINUOUS
 62
     0
 10
7.560385020222984
 20
5.359999999999999
 30
0.0
 40
0.18
  1
0.1000
  0
POINT
  5
2096
  8
DEFPOINTS
 62
     0
 10
6.399999999999999
 20
5.399999999999999
 30
0.0
  0
POINT
  5
2097
  8
DEFPOINTS
 62
     0
 10
6.4
 20
5.5
 30
0.0
  0
POINT
  5
2098
  8
DEFPOINTS
 62
     0
 10
7.604313591651557
 20
5.499999999999999
 30
0.0
  0
ENDBLK
  5
209A
  8
0
  0
BLOCK
  8
0
  2
*D24
 70
     1
 10
0.0
 20
0.0
 30
0.0
  3
*D24
  1

  0
LINE
  5
209C
  8
DIM
 62
     0
 10
-0.3933811209268702
 20
5.130550160485679
 30
0.0
 11
0.705904593358844
 21
5.130550160485679
 31
0.0
  0
LINE
  5
209D
  8
DIM
 62
     0
 10
0.9854789023664465
 20
5.357350084963007
 30
0.0
 11
0.705904593358844
 21
5.130550160485679
 31
0.0
  0
TEXT
  5
209E
  8
DIM
  6
CONTINUOUS
 62
     0
 10
-0.4190954066411559
 20
5.175550160485679
 30
0.0
 40
0.18
  1
\U+00D80.4500
  0
SOLID
  5
209F
  8
DIM
 62
     0
 10
1.004378896072891
 20
5.33405222587904
 30
0.0
 11
0.9665789086600026
 21
5.380647944046974
 31
0.0
 12
1.125266056870248
 22
5.470750047201671
 32
0.0
 13
1.125266056870248
 23
5.470750047201671
 33
0.0
  0
LINE
  5
20A0
  8
DIM
 62
     0
 10
1.21
 20
5.612500000000001
 30
0.0
 11
1.39
 21
5.612500000000001
 31
0.0
  0
LINE
  5
20A1
  8
DIM
 62
     0
 10
1.3
 20
5.522500000000001
 30
0.0
 11
1.3
 21
5.702500000000001
 31
0.0
  0
POINT
  5
20A2
  8
DEFPOINTS
 62
     0
 10
1.125266056870248
 20
5.470750047201671
 30
0.0
  0
POINT
  5
20A3
  8
DEFPOINTS
 62
     0
 10
1.474733943129752
 20
5.754249952798331
 30
0.0
  0
ENDBLK
  5
20A5
  8
0
  0
BLOCK
  8
0
  2
*D25
 70
     1
 10
0.0
 20
0.0
 30
0.0
  3
*D25
  1

  0
LINE
  5
20A7
  8
DIM
 62
     0
 10
-0.12
 20
5.1
 30
0.0
 11
-0.4900000000000001
 21
5.1
 31
0.0
  0
LINE
  5
20A8
  8
DIM
 62
     0
 10
0.3299999999999999
 20
5.612500000000001
 30
0.0
 11
-0.49
 21
5.612500000000001
 31
0.0
  0
LINE
  5
20A9
  8
DIM
 62
     0
 10
-0.4000000000000001
 20
5.279999999999999
 30
0.0
 11
-0.4
 21
5.432500000000001
 31
0.0
  0
SOLID
  5
20AA
  8
DIM
 62
     0
 10
-0.43
 20
5.279999999999999
 30
0.0
 11
-0.3700000000000001
 21
5.279999999999999
 31
0.0
 12
-0.4000000000000001
 22
5.1
 32
0.0
 13
-0.4000000000000001
 23
5.1
 33
0.0
  0
SOLID
  5
20AB
  8
DIM
 62
     0
 10
-0.37
 20
5.432500000000001
 30
0.0
 11
-0.43
 21
5.432500000000001
 31
0.0
 12
-0.4
 22
5.612500000000001
 32
0.0
 13
-0.4
 23
5.612500000000001
 33
0.0
  0
TEXT
  5
20AC
  8
DIM
  6
CONTINUOUS
 62
     0
 10
-1.118928571428571
 20
5.26625
 30
0.0
 40
0.18
  1
0.5125
  0
POINT
  5
20AD
  8
DEFPOINTS
 62
     0
 10
-0.075
 20
5.1
 30
0.0
  0
POINT
  5
20AE
  8
DEFPOINTS
 62
     0
 10
0.3749999999999999
 20
5.612500000000001
 30
0.0
  0
POINT
  5
20AF
  8
DEFPOINTS
 62
     0
 10
-0.4
 20
5.612500000000001
 30
0.0
  0
ENDBLK
  5
20B1
  8
0
  0
BLOCK
  8
0
  2
*D26
 70
     1
 10
0.0
 20
0.0
 30
0.0
  3
*D26
  1

  0
LINE
  5
20B3
  8
DIM
 62
     0
 10
0.6
 20
5.3425
 30
0.0
 11
0.6
 21
4.76432574795963
 31
0.0
  0
LINE
  5
20B4
  8
DIM
 62
     0
 10
-0.075
 20
5.055
 30
0.0
 11
-0.075
 21
4.76432574795963
 31
0.0
  0
LINE
  5
20B5
  8
DIM
 62
     0
 10
0.42
 20
4.85432574795963
 30
0.0
 11
0.105
 21
4.85432574795963
 31
0.0
  0
SOLID
  5
20B6
  8
DIM
 62
     0
 10
0.42
 20
4.824325747959629
 30
0.0
 11
0.42
 21
4.88432574795963
 31
0.0
 12
0.6
 22
4.85432574795963
 32
0.0
 13
0.6
 23
4.85432574795963
 33
0.0
  0
SOLID
  5
20B7
  8
DIM
 62
     0
 10
0.105
 20
4.88432574795963
 30
0.0
 11
0.105
 21
4.824325747959629
 31
0.0
 12
-0.075
 22
4.85432574795963
 32
0.0
 13
-0.075
 23
4.85432574795963
 33
0.0
  0
TEXT
  5
20B8
  8
DIM
  6
CONTINUOUS
 62
     0
 10
-0.2089285714285714
 20
4.33682574795963
 30
0.0
 40
0.18
  1
0.6750
  0
POINT
  5
20B9
  8
DEFPOINTS
 62
     0
 10
0.6
 20
5.3875
 30
0.0
  0
POINT
  5
20BA
  8
DEFPOINTS
 62
     0
 10
-0.075
 20
5.1
 30
0.0
  0
POINT
  5
20BB
  8
DEFPOINTS
 62
     0
 10
-0.075
 20
4.85432574795963
 30
0.0
  0
ENDBLK
  5
20BD
  8
0
  0
BLOCK
  8
0
  2
*D27
 70
     1
 10
0.0
 20
0.0
 30
0.0
  3
*D27
  1

  0
LINE
  5
20BF
  8
DIM
 62
     0
 10
1.3
 20
5.3425
 30
0.0
 11
1.3
 21
4.452025369442717
 31
0.0
  0
LINE
  5
20C0
  8
DIM
 62
     0
 10
-0.075
 20
5.01
 30
0.0
 11
-0.075
 21
4.452025369442717
 31
0.0
  0
LINE
  5
20C1
  8
DIM
 62
     0
 10
1.12
 20
4.542025369442717
 30
0.0
 11
0.105
 21
4.542025369442717
 31
0.0
  0
SOLID
  5
20C2
  8
DIM
 62
     0
 10
1.12
 20
4.512025369442717
 30
0.0
 11
1.12
 21
4.572025369442717
 31
0.0
 12
1.3
 22
4.542025369442717
 32
0.0
 13
1.3
 23
4.542025369442717
 33
0.0
  0
SOLID
  5
20C3
  8
DIM
 62
     0
 10
0.105
 20
4.572025369442717
 30
0.0
 11
0.105
 21
4.512025369442717
 31
0.0
 12
-0.075
 22
4.542025369442717
 32
0.0
 13
-0.075
 23
4.542025369442717
 33
0.0
  0
TEXT
  5
20C4
  8
DIM
  6
CONTINUOUS
 62
     0
 10
0.1282142857142858
 20
4.587025369442717
 30
0.0
 40
0.18
  1
1.3750
  0
POINT
  5
20C5
  8
DEFPOINTS
 62
     0
 10
1.3
 20
5.3875
 30
0.0
  0
POINT
  5
20C6
  8
DEFPOINTS
 62
     0
 10
-0.075
 20
5.055
 30
0.0
  0
POINT
  5
20C7
  8
DEFPOINTS
 62
     0
 10
-0.075
 20
4.542025369442717
 30
0.0
  0
ENDBLK
  5
20C9
  8
0
  0
BLOCK
  8
0
  2
*D28
 70
     1
 10
0.0
 20
0.0
 30
0.0
  3
*D28
  1

  0
LINE
  5
20CB
  8
DIM
 62
     0
 10
-0.12
 20
5.1
 30
0.0
 11
-1.09
 21
5.1
 31
0.0
  0
LINE
  5
20CC
  8
DIM
 62
     0
 10
-0.12
 20
6.775
 30
0.0
 11
-1.09
 21
6.775
 31
0.0
  0
LINE
  5
20CD
  8
DIM
 62
     0
 10
-1.0
 20
5.279999999999999
 30
0.0
 11
-0.9999999999999999
 21
6.595000000000001
 31
0.0
  0
SOLID
  5
20CE
  8
DIM
 62
     0
 10
-1.03
 20
5.279999999999999
 30
0.0
 11
-0.97
 21
5.279999999999999
 31
0.0
 12
-1.0
 22
5.1
 32
0.0
 13
-1.0
 23
5.1
 33
0.0
  0
SOLID
  5
20CF
  8
DIM
 62
     0
 10
-0.9699999999999999
 20
6.595000000000001
 30
0.0
 11
-1.03
 21
6.595000000000001
 31
0.0
 12
-0.9999999999999999
 22
6.775
 32
0.0
 13
-0.9999999999999999
 23
6.775
 33
0.0
  0
TEXT
  5
20D0
  8
DIM
  6
CONTINUOUS
 62
     0
 10
-1.045
 20
5.453214285714286
 30
0.0
 40
0.18
  1
1.6750
 50
90.0
  0
POINT
  5
20D1
  8
DEFPOINTS
 62
     0
 10
-0.075
 20
5.1
 30
0.0
  0
POINT
  5
20D2
  8
DEFPOINTS
 62
     0
 10
-0.075
 20
6.775
 30
0.0
  0
POINT
  5
20D3
  8
DEFPOINTS
 62
     0
 10
-0.9999999999999999
 20
6.775
 30
0.0
  0
ENDBLK
  5
20D5
  8
0
  0
ENDSEC
  0
SECTION
  2
ENTITIES
  0
LINE
  5
FE
  8
180
 10
-0.075
 20
-0.075
 30
0.0
 11
6.925
 21
-0.075
 31
0.0
  0
LINE
  5
FF
  8
180
 10
6.925
 20
-0.075
 30
0.0
 11
6.925
 21
4.425
 31
0.0
  0
LINE
  5
100
  8
180
 10
6.925
 20
4.425
 30
0.0
 11
6.875
 21
4.425
 31
0.0
  0
LINE
  5
101
  8
180
 10
6.875
 20
4.425
 30
0.0
 11
-0.025
 21
4.425
 31
0.0
  0
LINE
  5
102
  8
180
 10
-0.025
 20
4.425
 30
0.0
 11
-0.075
 21
4.425
 31
0.0
  0
LINE
  5
103
  8
180
 10
-0.075
 20
4.425
 30
0.0
 11
-0.075
 21
-0.075
 31
0.0
  0
LINE
  5
104
  8
180
 10
-0.025
 20
4.375
 30
0.0
 11
-0.025
 21
-0.025
 31
0.0
  0
LINE
  5
105
  8
180
 10
-0.025
 20
-0.025
 30
0.0
 11
6.875
 21
-0.025
 31
0.0
  0
LINE
  5
106
  8
180
 10
6.875
 20
-0.025
 30
0.0
 11
6.875
 21
4.375
 31
0.0
  0
LINE
  5
107
  8
180
 10
-0.025
 20
4.375
 30
0.0
 11
-0.025
 21
4.425
 31
0.0
  0
LINE
  5
108
  8
180
 10
6.875
 20
4.375
 30
0.0
 11
6.875
 21
4.425
 31
0.0
  0
LINE
  5
10B
  8
183
 10
6.875
 20
6.7375
 30
0.0
 11
6.875
 21
5.15
 31
0.0
  0
LINE
  5
10D
  8
183
 10
-0.025
 20
6.7375
 30
0.0
 11
-0.025
 21
5.15
 31
0.0
  0
LINE
  5
10E
  8
183
 10
-0.075
 20
6.775
 30
0.0
 11
-0.025
 21
6.775
 31
0.0
  0
LINE
  5
10F
  8
183
 10
-0.025
 20
6.775
 30
0.0
 11
-0.025
 21
6.7375
 31
0.0
  0
LINE
  5
111
  8
183
 10
6.875
 20
6.7375
 30
0.0
 11
6.875
 21
6.775
 31
0.0
  0
LINE
  5
112
  8
183
 10
6.875
 20
6.775
 30
0.0
 11
6.925
 21
6.775
 31
0.0
  0
LINE
  5
117
  8
183
 10
-0.025
 20
5.15
 30
0.0
 11
6.875
 21
5.15
 31
0.0
  0
LINE
  5
11C
  8
183
 10
-0.075
 20
5.1
 30
0.0
 11
0.175
 21
5.1
 31
0.0
  0
LINE
  5
11D
  8
183
 10
0.175
 20
5.1
 30
0.0
 11
0.675
 21
5.1
 31
0.0
  0
LINE
  5
11E
  8
183
 10
0.675
 20
5.1
 30
0.0
 11
6.925
 21
5.1
 31
0.0
  0
LINE
  5
11F
  8
183
 10
6.925
 20
5.1
 30
0.0
 11
6.925
 21
6.775
 31
0.0
  0
LINE
  5
120
  8
183
 10
-0.075
 20
5.1
 30
0.0
 11
-0.075
 21
6.775
 31
0.0
  0
LINE
  5
124
  8
183
 10
5.825
 20
5.1
 30
0.0
 11
6.075
 21
5.1
 31
0.0
  0
LINE
  5
125
  8
183
 10
6.075
 20
5.1
 30
0.0
 11
6.575
 21
5.1
 31
0.0
  0
LINE
  5
130
  8
185
 10
5.45
 20
5.4
 30
0.0
 11
6.4
 21
5.4
 31
0.0
  0
ARC
  5
131
  8
185
 10
6.4
 20
5.425
 30
0.0
 40
0.025
 50
270.0
 51
0.0
  0
LINE
  5
132
  8
185
 10
6.425
 20
5.425
 30
0.0
 11
6.425
 21
5.475
 31
0.0
  0
ARC
  5
133
  8
185
 10
6.4
 20
5.475
 30
0.0
 40
0.025
 50
0.0
 51
90.0
  0
LINE
  5
134
  8
185
 10
6.4
 20
5.5
 30
0.0
 11
5.45
 21
5.5
 31
0.0
  0
ARC
  5
135
  8
185
 10
5.45
 20
5.475
 30
0.0
 40
0.025
 50
90.0
 51
180.0
  0
LINE
  5
136
  8
185
 10
5.425
 20
5.475
 30
0.0
 11
5.425
 21
5.425
 31
0.0
  0
ARC
  5
137
  8
185
 10
5.45
 20
5.425
 30
0.0
 40
0.025
 50
180.0
 51
270.0
  0
POLYLINE
  5
13E
  8
185
 66
     1
 10
0.0
 20
0.0
 30
0.0
  0
VERTEX
  5
20DE
  8
185
 10
-0.075
 20
6.775
 30
0.0
  0
VERTEX
  5
20DF
  8
185
 10
6.925
 20
6.775
 30
0.0
  0
SEQEND
  5
219D
  8
185
  0
POLYLINE
  5
142
  8
185
 66
     1
 10
0.0
 20
0.0
 30
0.0
  0
VERTEX
  5
20E0
  8
185
 10
6.925
 20
6.7725
 30
0.0
 42
1.0
  0
VERTEX
  5
20E1
  8
185
 10
6.925
 20
6.7775
 30
0.0
  0
SEQEND
  5
219C
  8
185
  0
POLYLINE
  5
146
  8
185
 66
     1
 10
0.0
 20
0.0
 30
0.0
  0
VERTEX
  5
20E2
  8
185
 10
-0.075
 20
6.7775
 30
0.0
 42
1.0
  0
VERTEX
  5
20E3
  8
185
 10
-0.075
 20
6.7725
 30
0.0
  0
SEQEND
  5
219B
  8
185
  0
POLYLINE
  5
14A
  8
185
 66
     1
 10
0.0
 20
0.0
 30
0.0
  0
VERTEX
  5
20E4
  8
185
 10
6.925
 20
6.775
 30
0.0
  0
VERTEX
  5
20E5
  8
185
 10
6.925
 20
5.1
 30
0.0
  0
SEQEND
  5
219A
  8
185
  0
POLYLINE
  5
14E
  8
185
 66
     1
 10
0.0
 20
0.0
 30
0.0
  0
VERTEX
  5
20E6
  8
185
 10
6.9225
 20
5.1
 30
0.0
 42
1.0
  0
VERTEX
  5
20E7
  8
185
 10
6.9275
 20
5.1
 30
0.0
  0
SEQEND
  5
2199
  8
185
  0
POLYLINE
  5
152
  8
185
 66
     1
 10
0.0
 20
0.0
 30
0.0
  0
VERTEX
  5
20E8
  8
185
 10
6.9275
 20
6.775
 30
0.0
 42
1.0
  0
VERTEX
  5
20E9
  8
185
 10
6.9225
 20
6.775
 30
0.0
  0
SEQEND
  5
2198
  8
185
  0
POLYLINE
  5
156
  8
185
 66
     1
 10
0.0
 20
0.0
 30
0.0
  0
VERTEX
  5
20EA
  8
185
 10
6.925
 20
5.1
 30
0.0
  0
VERTEX
  5
20EB
  8
185
 10
-0.075
 20
5.1
 30
0.0
  0
SEQEND
  5
2197
  8
185
  0
POLYLINE
  5
15A
  8
185
 66
     1
 10
0.0
 20
0.0
 30
0.0
  0
VERTEX
  5
20EC
  8
185
 10
-0.075
 20
5.1025
 30
0.0
 42
1.0
  0
VERTEX
  5
20ED
  8
185
 10
-0.075
 20
5.0975
 30
0.0
  0
SEQEND
  5
2196
  8
185
  0
POLYLINE
  5
15E
  8
185
 66
     1
 10
0.0
 20
0.0
 30
0.0
  0
VERTEX
  5
20EE
  8
185
 10
6.925
 20
5.0975
 30
0.0
 42
1.0
  0
VERTEX
  5
20EF
  8
185
 10
6.925
 20
5.1025
 30
0.0
  0
SEQEND
  5
2195
  8
185
  0
POLYLINE
  5
162
  8
185
 66
     1
 10
0.0
 20
0.0
 30
0.0
  0
VERTEX
  5
20F0
  8
185
 10
-0.075
 20
5.1
 30
0.0
  0
VERTEX
  5
20F1
  8
185
 10
-0.075
 20
6.775
 30
0.0
  0
SEQEND
  5
2194
  8
185
  0
POLYLINE
  5
166
  8
185
 66
     1
 10
0.0
 20
0.0
 30
0.0
  0
VERTEX
  5
20F2
  8
185
 10
-0.0725
 20
6.775
 30
0.0
 42
1.0
  0
VERTEX
  5
20F3
  8
185
 10
-0.0775
 20
6.775
 30
0.0
  0
SEQEND
  5
2193
  8
185
  0
POLYLINE
  5
16A
  8
185
 66
     1
 10
0.0
 20
0.0
 30
0.0
  0
VERTEX
  5
20F4
  8
185
 10
-0.0775
 20
5.1
 30
0.0
 42
1.0
  0
VERTEX
  5
20F5
  8
185
 10
-0.0725
 20
5.1
 30
0.0
  0
SEQEND
  5
2192
  8
185
  0
POLYLINE
  5
1F30
  8
182
 66
     1
 10
0.0
 20
0.0
 30
0.0
  0
VERTEX
  5
20F6
  8
182
 10
0.425
 20
3.75
 30
0.0
 42
1.0
  0
VERTEX
  5
20F7
  8
182
 10
0.425
 20
4.05
 30
0.0
 42
1.0
  0
VERTEX
  5
20F8
  8
182
 10
0.425
 20
3.75
 30
0.0
  0
SEQEND
  5
2191
  8
182
  0
POLYLINE
  5
1F35
  8
182
 66
     1
 10
0.0
 20
0.0
 30
0.0
  0
VERTEX
  5
20F9
  8
182
 10
0.425
 20
0.275
 30
0.0
 42
1.0
  0
VERTEX
  5
20FA
  8
182
 10
0.425
 20
0.575
 30
0.0
 42
1.0
  0
VERTEX
  5
20FB
  8
182
 10
0.425
 20
0.275
 30
0.0
  0
SEQEND
  5
2190
  8
182
  0
POLYLINE
  5
1F3F
  8
182
 66
     1
 10
0.0
 20
0.0
 30
0.0
  0
VERTEX
  5
20FC
  8
182
 10
6.425
 20
3.75
 30
0.0
 42
1.0
  0
VERTEX
  5
20FD
  8
182
 10
6.425
 20
4.05
 30
0.0
 42
1.0
  0
VERTEX
  5
20FE
  8
182
 10
6.425
 20
3.75
 30
0.0
  0
SEQEND
  5
218F
  8
182
  0
POLYLINE
  5
1F44
  8
182
 66
     1
 10
0.0
 20
0.0
 30
0.0
  0
VERTEX
  5
20FF
  8
182
 10
6.425
 20
0.275
 30
0.0
 42
1.0
  0
VERTEX
  5
2100
  8
182
 10
6.425
 20
0.575
 30
0.0
 42
1.0
  0
VERTEX
  5
2101
  8
182
 10
6.425
 20
0.275
 30
0.0
  0
SEQEND
  5
218E
  8
182
  0
POLYLINE
  5
1F4E
  8
185
 66
     1
 10
0.0
 20
0.0
 30
0.0
  0
VERTEX
  5
2102
  8
185
 10
0.6
 20
5.3875
 30
0.0
 42
1.0
  0
VERTEX
  5
2103
  8
185
 10
0.6
 20
5.8375
 30
0.0
 42
1.0
  0
VERTEX
  5
2104
  8
185
 10
0.6
 20
5.3875
 30
0.0
  0
SEQEND
  5
218D
  8
185
  0
POLYLINE
  5
1F53
  8
185
 66
     1
 10
0.0
 20
0.0
 30
0.0
  0
VERTEX
  5
2105
  8
185
 10
1.3
 20
5.3875
 30
0.0
 42
1.0
  0
VERTEX
  5
2106
  8
185
 10
1.3
 20
5.8375
 30
0.0
 42
1.0
  0
VERTEX
  5
2107
  8
185
 10
1.3
 20
5.3875
 30
0.0
  0
SEQEND
  5
218C
  8
185
  0
DIMENSION
  5
1F6E
  8
DIM
  2
*D15
 10
-0.9999999999999999
 20
4.425
 30
0.0
 11
-1.135
 21
2.175
 31
0.0
 70
    33
  3
QCADDIMSTYLE
 13
-0.075
 23
-0.075
 33
0.0
 14
-0.075
 24
4.425
 34
0.0
1001
ACAD
1000
DSTYLE
1002
{
1070
   287
1070
     5
1070
   279
1070
     2
1070
   176
1070
     0
1070
   177
1070
     0
1070
   178
1070
     0
1070
    44
1040
0.09
1070
    42
1040
0.045
1070
   147
1040
0.045
1002
}
  0
DIMENSION
  5
1F6F
  8
DIM
  2
*D16
 10
6.925
 20
-0.9999999999999998
 30
0.0
 11
3.425
 21
-0.8649999999999998
 31
0.0
 70
    33
  3
QCADDIMSTYLE
 13
-0.075
 23
-0.075
 33
0.0
 14
6.925
 24
-0.075
 34
0.0
1001
ACAD
1000
DSTYLE
1002
{
1070
   287
1070
     5
1070
   279
1070
     2
1070
   176
1070
     0
1070
   177
1070
     0
1070
   178
1070
     0
1070
    44
1040
0.09
1070
    42
1040
0.045
1070
   147
1040
0.045
1002
}
  0
DIMENSION
  5
1F70
  8
DIM
  2
*D17
 10
7.6
 20
0.4249999999999998
 30
0.0
 11
8.0275
 21
0.1749999999999999
 31
0.0
 70
    32
  3
QCADDIMSTYLE
 13
6.925
 23
-0.075
 33
0.0
 14
6.575
 24
0.4249999999999999
 34
0.0
 50
90.0
1001
ACAD
1000
DSTYLE
1002
{
1070
   287
1070
     5
1070
   279
1070
     2
1070
   176
1070
     0
1070
   177
1070
     0
1070
   178
1070
     0
1070
    44
1040
0.09
1070
    42
1040
0.045
1070
   147
1040
0.045
1002
}
  0
DIMENSION
  5
1F71
  8
DIM
  2
*D18
 10
6.425
 20
-0.6
 30
0.0
 11
6.675
 21
-1.0275
 31
0.0
 70
    32
  3
QCADDIMSTYLE
 13
6.925
 23
-0.075
 33
0.0
 14
6.425
 24
0.275
 34
0.0
1001
ACAD
1000
DSTYLE
1002
{
1070
   287
1070
     5
1070
   279
1070
     2
1070
   176
1070
     0
1070
   177
1070
     0
1070
   178
1070
     0
1070
    44
1040
0.09
1070
    42
1040
0.045
1070
   147
1040
0.045
1002
}
  0
DIMENSION
  5
1F72
  8
DIM
  2
*D19
 10
5.45
 20
5.475
 30
0.0
 11
4.577806235926437
 21
5.856470993870821
 31
0.0
 70
    36
  3
QCADDIMSTYLE
 15
5.430794468010066
 25
5.491004609991611
 35
0.0
 40
0.0
1001
ACAD
1000
DSTYLE
1002
{
1070
   287
1070
     5
1070
   279
1070
     2
1070
   176
1070
     0
1070
   177
1070
     0
1070
   178
1070
     0
1070
    44
1040
0.09
1070
    42
1040
0.045
1070
   147
1040
0.045
1002
}
  0
DIMENSION
  5
1F73
  8
DIM
  2
*D20
 10
6.425
 20
4.699999999999999
 30
0.0
 11
5.925
 21
4.834999999999999
 31
0.0
 70
    32
  3
QCADDIMSTYLE
 13
5.425
 23
5.449999999999999
 33
0.0
 14
6.425
 24
5.449999999999999
 34
0.0
1001
ACAD
1000
DSTYLE
1002
{
1070
   287
1070
     5
1070
   279
1070
     2
1070
   176
1070
     0
1070
   177
1070
     0
1070
   178
1070
     0
1070
    44
1040
0.09
1070
    42
1040
0.045
1070
   147
1040
0.045
1002
}
  0
DIMENSION
  5
1F74
  8
DIM
  2
*D21
 10
6.425
 20
4.699999999999999
 30
0.0
 11
6.67625
 21
4.2725
 31
0.0
 70
    32
  3
QCADDIMSTYLE
 13
6.9275
 23
5.1
 33
0.0
 14
6.425
 24
5.425
 34
0.0
1001
ACAD
1000
DSTYLE
1002
{
1070
   287
1070
     5
1070
   279
1070
     2
1070
   176
1070
     0
1070
   177
1070
     0
1070
   178
1070
     0
1070
    44
1040
0.09
1070
    42
1040
0.045
1070
   147
1040
0.045
1002
}
  0
DIMENSION
  5
1F75
  8
DIM
  2
*D22
 10
7.999999999999999
 20
5.399999999999998
 30
0.0
 11
8.427499999999998
 21
5.249999999999998
 31
0.0
 70
    32
  3
QCADDIMSTYLE
 13
6.9275
 23
5.1
 33
0.0
 14
6.4
 24
5.399999999999999
 34
0.0
 50
90.0
1001
ACAD
1000
DSTYLE
1002
{
1070
   287
1070
     5
1070
   279
1070
     2
1070
   176
1070
     0
1070
   177
1070
     0
1070
   178
1070
     0
1070
    44
1040
0.09
1070
    42
1040
0.045
1070
   147
1040
0.045
1002
}
  0
DIMENSION
  5
1F76
  8
DIM
  2
*D23
 10
7.604313591651557
 20
5.499999999999999
 30
0.0
 11
8.031813591651556
 21
5.449999999999998
 31
0.0
 70
    32
  3
QCADDIMSTYLE
 13
6.399999999999999
 23
5.399999999999999
 33
0.0
 14
6.4
 24
5.5
 34
0.0
 50
90.0
1001
ACAD
1000
DSTYLE
1002
{
1070
   287
1070
     5
1070
   279
1070
     2
1070
   176
1070
     0
1070
   177
1070
     0
1070
   178
1070
     0
1070
    44
1040
0.09
1070
    42
1040
0.045
1070
   147
1040
0.045
1002
}
  0
DIMENSION
  5
1F77
  8
DIM
  2
*D24
 10
1.474733943129752
 20
5.754249952798331
 30
0.0
 11
0.133761736215987
 21
5.265550160485679
 31
0.0
 70
    35
  3
QCADDIMSTYLE
 15
1.125266056870248
 25
5.470750047201671
 35
0.0
 40
0.0
1001
ACAD
1000
DSTYLE
1002
{
1070
   287
1070
     5
1070
   279
1070
     2
1070
   176
1070
     0
1070
   177
1070
     0
1070
   178
1070
     0
1070
    44
1040
0.09
1070
    42
1040
0.045
1070
   147
1040
0.045
1002
}
  0
DIMENSION
  5
1F78
  8
DIM
  2
*D25
 10
-0.4
 20
5.612500000000001
 30
0.0
 11
-0.6474999999999999
 21
5.35625
 31
0.0
 70
    32
  3
QCADDIMSTYLE
 13
-0.075
 23
5.1
 33
0.0
 14
0.3749999999999999
 24
5.612500000000001
 34
0.0
 50
90.0
1001
ACAD
1000
DSTYLE
1002
{
1070
   287
1070
     5
1070
   279
1070
     2
1070
   176
1070
     0
1070
   177
1070
     0
1070
   178
1070
     0
1070
    44
1040
0.09
1070
    42
1040
0.045
1070
   147
1040
0.045
1002
}
  0
DIMENSION
  5
1F7A
  8
DIM
  2
*D26
 10
-0.075
 20
4.85432574795963
 30
0.0
 11
0.2625
 21
4.42682574795963
 31
0.0
 70
    32
  3
QCADDIMSTYLE
 13
0.6
 23
5.3875
 33
0.0
 14
-0.075
 24
5.1
 34
0.0
1001
ACAD
1000
DSTYLE
1002
{
1070
   287
1070
     5
1070
   279
1070
     2
1070
   176
1070
     0
1070
   177
1070
     0
1070
   178
1070
     0
1070
    44
1040
0.09
1070
    42
1040
0.045
1070
   147
1040
0.045
1002
}
  0
DIMENSION
  5
1F7B
  8
DIM
  2
*D27
 10
-0.075
 20
4.542025369442717
 30
0.0
 11
0.6125
 21
4.677025369442717
 31
0.0
 70
    32
  3
QCADDIMSTYLE
 13
1.3
 23
5.3875
 33
0.0
 14
-0.075
 24
5.055
 34
0.0
1001
ACAD
1000
DSTYLE
1002
{
1070
   287
1070
     5
1070
   279
1070
     2
1070
   176
1070
     0
1070
   177
1070
     0
1070
   178
1070
     0
1070
    44
1040
0.09
1070
    42
1040
0.045
1070
   147
1040
0.045
1002
}
  0
DIMENSION
  5
1F7D
  8
DIM
  2
*D28
 10
-0.9999999999999999
 20
6.775
 30
0.0
 11
-1.135
 21
5.9375
 31
0.0
 70
    32
  3
QCADDIMSTYLE
 13
-0.075
 23
5.1
 33
0.0
 14
-0.075
 24
6.775
 34
0.0
 50
90.0
1001
ACAD
1000
DSTYLE
1002
{
1070
   287
1070
     5
1070
   279
1070
     2
1070
   176
1070
     0
1070
   177
1070
     0
1070
   178
1070
     0
1070
    44
1040
0.09
1070
    42
1040
0.045
1070
   147
1040
0.045
1002
}
  0
CIRCLE
  5
1F7E
  8
0
 10
5.552281273298973
 20
8.202763460728061
 30
0.0
 40
0.0499999999999989
  0
CIRCLE
  5
1F7F
  8
0
 10
5.752281273298973
 20
8.202763460728061
 30
0.0
 40
0.0500000000000007
  0
TEXT
  5
1F80
  8
0
  6
CONTINUOUS
 10
4.204662225679924
 20
9.640858698823301
 30
0.0
 40
0.125
  1
box with one side missing, below, not to scale:
  7
TEXTSTYLE0
  0
LINE
  5
1F81
  8
0
 10
4.252281273298971
 20
9.102763460728063
 30
0.0
 11
5.252281273298971
 21
8.102763460728063
 31
0.0
  0
LINE
  5
1F82
  8
0
 10
5.252281273298971
 20
8.102763460728063
 30
0.0
 11
7.752281273298973
 21
8.102763460728063
 31
0.0
  0
LINE
  5
1F83
  8
0
 10
4.252281273298971
 20
9.102763460728063
 30
0.0
 11
4.252281273298971
 21
9.402763460728062
 31
0.0
  0
LINE
  5
1F84
  8
0
 10
4.252281273298971
 20
9.402763460728062
 30
0.0
 11
5.252281273298971
 21
8.402763460728062
 31
0.0
  0
LINE
  5
1F85
  8
0
 10
5.252281273298971
 20
8.402763460728062
 30
0.0
 11
7.752281273298973
 21
8.402763460728062
 31
0.0
  0
LINE
  5
1F86
  8
0
 10
7.752281273298973
 20
8.402763460728062
 30
0.0
 11
6.752281273298973
 21
9.402763460728062
 31
0.0
  0
LINE
  5
1F87
  8
0
 10
6.752281273298973
 20
9.402763460728062
 30
0.0
 11
6.752281273298973
 21
9.102763460728063
 31
0.0
  0
LINE
  5
1F88
  8
0
 10
6.752281273298973
 20
9.102763460728063
 30
0.0
 11
4.552281273298972
 21
9.102763460728063
 31
0.0
  0
LINE
  5
1F89
  8
0
 10
6.752281273298973
 20
9.102763460728063
 30
0.0
 11
7.452281273298971
 21
8.402763460728062
 31
0.0
  0
LINE
  5
1F8A
  8
0
 10
7.752281273298973
 20
8.102763460728063
 30
0.0
 11
7.752281273298973
 21
8.402763460728062
 31
0.0
  0
LINE
  5
1F8B
  8
0
 10
5.252281273298971
 20
8.102763460728063
 30
0.0
 11
5.252281273298971
 21
8.402763460728062
 31
0.0
  0
LINE
  5
1F8C
  8
0
 10
7.152281273298971
 20
8.202763460728061
 30
0.0
 11
7.452281273298971
 21
8.202763460728061
 31
0.0
  0
TEXT
  5
1F8D
  8
DIM
  6
CONTINUOUS
 10
-4.017857142857143
 20
5.869047619047619
 30
0.0
 40
0.125
  1
side view
  7
TEXTSTYLE1
  0
TEXT
  5
1F8E
  8
DIM
  6
CONTINUOUS
 10
-4.011904761904762
 20
2.869047619047619
 30
0.0
 40
0.125
  1
top view
  7
TEXTSTYLE2
  0
CIRCLE
  5
1F90
  8
DEFPOINTS
 10
0.125
 20
0.125
 30
0.0
 40
0.058
  0
CIRCLE
  5
1F91
  8
DEFPOINTS
 10
0.125
 20
4.125
 30
0.0
 40
0.058
  0
CIRCLE
  5
1F92
  8
DEFPOINTS
 10
3.85
 20
4.125
 30
0.0
 40
0.058
  0
CIRCLE
  5
1F93
  8
DEFPOINTS
 10
3.85
 20
0.125
 30
0.0
 40
0.058
  0
CIRCLE
  5
1F94
  8
DEFPOINTS
 10
6.725
 20
0.125
 30
0.0
 40
0.058
  0
CIRCLE
  5
1F95
  8
DEFPOINTS
 10
6.725
 20
4.125
 30
0.0
 40
0.058
  0
ENDSEC
  0
EOF
