G75*
G70*
%OFA0B0*%
%FSLAX24Y24*%
%IPPOS*%
%LPD*%
%AMOC8*
5,1,8,0,0,1.08239X$1,22.5*
%
%ADD10C,0.1340*%
%ADD11C,0.1182*%
%ADD12R,0.0395X0.0434*%
%ADD13R,0.0631X0.0631*%
%ADD14R,0.0198X0.0671*%
%ADD15R,0.0434X0.0395*%
%ADD16R,0.0828X0.0631*%
%ADD17R,0.0631X0.0828*%
%ADD18C,0.0680*%
%ADD19OC8,0.0611*%
%ADD20R,0.0671X0.0671*%
%ADD21C,0.0436*%
%ADD22R,0.0680X0.0680*%
%ADD23OC8,0.0680*%
%ADD24R,0.0631X0.0474*%
%ADD25C,0.0966*%
%ADD26R,0.0946X0.0316*%
%ADD27OC8,0.0552*%
%ADD28OC8,0.1346*%
%ADD29R,0.0552X0.0552*%
%ADD30R,0.0434X0.0218*%
%ADD31R,0.0789X0.0631*%
%ADD32OC8,0.0671*%
%ADD33R,0.0316X0.0946*%
%ADD34C,0.0436*%
%ADD35C,0.0350*%
D10*
X001150Y001150D03*
X001150Y043150D03*
X037650Y043150D03*
X067150Y043150D03*
X067150Y001150D03*
D11*
X033400Y006900D03*
X033400Y023650D03*
X002900Y023650D03*
X002900Y006900D03*
D12*
X008900Y004700D03*
X008900Y004100D03*
X009650Y004100D03*
X009650Y004700D03*
X010400Y004700D03*
X010400Y004100D03*
X016900Y004100D03*
X016900Y004700D03*
X017650Y004700D03*
X017650Y004100D03*
X018400Y004100D03*
X018400Y004700D03*
X024900Y004700D03*
X024900Y004100D03*
X025650Y004100D03*
X025650Y004700D03*
X026400Y004700D03*
X026400Y004100D03*
X032900Y004100D03*
X032900Y004700D03*
X033650Y004700D03*
X033650Y004100D03*
X034400Y004100D03*
X034400Y004700D03*
X041900Y007600D03*
X042650Y007600D03*
X042650Y008200D03*
X041900Y008200D03*
X033150Y013100D03*
X033150Y013700D03*
X025150Y013200D03*
X025150Y012600D03*
X022150Y012600D03*
X021400Y012600D03*
X021400Y013200D03*
X022150Y013200D03*
X024650Y014850D03*
X024650Y015450D03*
X024650Y016350D03*
X024650Y016950D03*
X021900Y017200D03*
X021900Y016600D03*
X021150Y016600D03*
X021150Y017200D03*
X021400Y019100D03*
X021400Y019700D03*
X022150Y019700D03*
X022150Y019100D03*
X025150Y019100D03*
X025150Y019700D03*
X024650Y021350D03*
X024650Y021950D03*
X024650Y022850D03*
X024650Y023450D03*
X021900Y023700D03*
X021900Y023100D03*
X021150Y023100D03*
X021150Y023700D03*
X014400Y018700D03*
X014400Y018100D03*
X008400Y018100D03*
X008400Y018700D03*
X013900Y012950D03*
X013900Y012350D03*
X013150Y012200D03*
X013150Y011600D03*
X013900Y011450D03*
X013900Y010850D03*
X011650Y010850D03*
X011650Y011450D03*
X010900Y011450D03*
X010900Y010850D03*
X006900Y011350D03*
X006900Y011950D03*
X006150Y011950D03*
X006150Y011350D03*
X017900Y011450D03*
X018650Y011600D03*
X018650Y012200D03*
X017900Y012350D03*
X017900Y012950D03*
X017900Y010850D03*
X037150Y026600D03*
X037150Y027200D03*
X038650Y027200D03*
X038650Y026600D03*
X039400Y026600D03*
X039400Y027200D03*
X040150Y027200D03*
X040150Y026600D03*
X042150Y026600D03*
X042150Y027200D03*
X043650Y027200D03*
X043650Y026600D03*
X044400Y026600D03*
X044400Y027200D03*
X045150Y027200D03*
X045150Y026600D03*
X047150Y026600D03*
X047150Y027200D03*
X048650Y027200D03*
X048650Y026600D03*
X049400Y026600D03*
X049400Y027200D03*
X050150Y027200D03*
X050150Y026600D03*
X052150Y026600D03*
X052150Y027200D03*
X053650Y027200D03*
X053650Y026600D03*
X054400Y026600D03*
X054400Y027200D03*
X055150Y027200D03*
X055150Y026600D03*
X002150Y026850D03*
X002150Y027450D03*
X001400Y027450D03*
X001400Y026850D03*
D13*
X037900Y026150D03*
X037900Y027650D03*
X042900Y027650D03*
X042900Y026150D03*
X047900Y026150D03*
X047900Y027650D03*
X052900Y027650D03*
X052900Y026150D03*
D14*
X033546Y016752D03*
X033290Y016752D03*
X033034Y016752D03*
X032778Y016752D03*
X032522Y016752D03*
X032266Y016752D03*
X032010Y016752D03*
X031754Y016752D03*
X031754Y014548D03*
X032010Y014548D03*
X032266Y014548D03*
X032522Y014548D03*
X032778Y014548D03*
X033034Y014548D03*
X033290Y014548D03*
X033546Y014548D03*
D15*
X034350Y015900D03*
X034950Y015900D03*
X034950Y016650D03*
X034350Y016650D03*
X032200Y017650D03*
X031600Y017650D03*
X039350Y015400D03*
X039950Y015400D03*
X041850Y006400D03*
X042450Y006400D03*
X039450Y005150D03*
X038850Y005150D03*
X046350Y003650D03*
X046950Y003650D03*
X060350Y003400D03*
X060950Y003400D03*
X065850Y005650D03*
X066450Y005650D03*
X066450Y007900D03*
X065850Y007900D03*
X053950Y015650D03*
X053350Y015650D03*
X063850Y027150D03*
X064450Y027150D03*
X060450Y037150D03*
X059850Y037150D03*
X059850Y037900D03*
X060450Y037900D03*
X060200Y038650D03*
X059600Y038650D03*
X059850Y039400D03*
X060450Y039400D03*
X060450Y040150D03*
X059850Y040150D03*
X064350Y039775D03*
X064950Y039775D03*
X064950Y039025D03*
X064350Y039025D03*
X064350Y038275D03*
X064950Y038275D03*
X064950Y037525D03*
X064350Y037525D03*
X018950Y020400D03*
X018350Y020400D03*
X016700Y019900D03*
X016100Y019900D03*
X015200Y019900D03*
X014600Y019900D03*
X012950Y020400D03*
X012350Y020400D03*
X010700Y019900D03*
X010100Y019900D03*
X009200Y019900D03*
X008600Y019900D03*
X005450Y020150D03*
X004850Y020150D03*
X008350Y017150D03*
X008950Y017150D03*
X008950Y016400D03*
X008350Y016400D03*
X012350Y016650D03*
X012950Y016650D03*
X012950Y017400D03*
X012350Y017400D03*
X014350Y017150D03*
X014950Y017150D03*
X014950Y016400D03*
X014350Y016400D03*
X018350Y016650D03*
X018950Y016650D03*
X018950Y017400D03*
X018350Y017400D03*
X010700Y012650D03*
X010100Y012650D03*
X009200Y012650D03*
X008600Y012650D03*
X007700Y012650D03*
X007100Y012650D03*
X015600Y010400D03*
X016200Y010400D03*
X003450Y037150D03*
X002850Y037150D03*
X001950Y037150D03*
X001350Y037150D03*
X001350Y039150D03*
X001950Y039150D03*
X002850Y039150D03*
X003450Y039150D03*
D16*
X009150Y027150D03*
X009150Y026150D03*
X010400Y026150D03*
X010400Y027150D03*
X017400Y027150D03*
X017400Y026150D03*
X021400Y022150D03*
X021400Y021150D03*
X018650Y019400D03*
X018650Y018400D03*
X021400Y015650D03*
X021400Y014650D03*
X012650Y018400D03*
X012650Y019400D03*
X025400Y026150D03*
X025400Y027150D03*
X034150Y013400D03*
X034150Y012400D03*
D17*
X032400Y018650D03*
X031400Y018650D03*
X024150Y019400D03*
X023150Y019400D03*
X016900Y016650D03*
X015900Y016650D03*
X011900Y013650D03*
X010900Y013650D03*
X009400Y013650D03*
X008400Y013650D03*
X007400Y013650D03*
X006400Y013650D03*
X009900Y016650D03*
X010900Y016650D03*
X023150Y012900D03*
X024150Y012900D03*
X065650Y006900D03*
X066650Y006900D03*
X066650Y004650D03*
X065650Y004650D03*
D18*
X027650Y006600D02*
X027650Y007200D01*
X026650Y007200D02*
X026650Y006600D01*
X025650Y006600D02*
X025650Y007200D01*
X024650Y007200D02*
X024650Y006600D01*
X023650Y006600D02*
X023650Y007200D01*
X022650Y007200D02*
X022650Y006600D01*
X021650Y006600D02*
X021650Y007200D01*
X020650Y007200D02*
X020650Y006600D01*
X019650Y006600D02*
X019650Y007200D01*
X018650Y007200D02*
X018650Y006600D01*
X017650Y006600D02*
X017650Y007200D01*
X016650Y007200D02*
X016650Y006600D01*
X015650Y006600D02*
X015650Y007200D01*
X014650Y007200D02*
X014650Y006600D01*
X013650Y006600D02*
X013650Y007200D01*
X012650Y007200D02*
X012650Y006600D01*
X011650Y006600D02*
X011650Y007200D01*
X010650Y007200D02*
X010650Y006600D01*
X009650Y006600D02*
X009650Y007200D01*
X008650Y007200D02*
X008650Y006600D01*
D19*
X007331Y004134D03*
X004969Y004134D03*
X004969Y002166D03*
X007331Y002166D03*
X012969Y002166D03*
X015331Y002166D03*
X015331Y004134D03*
X012969Y004134D03*
X020969Y004134D03*
X023331Y004134D03*
X023331Y002166D03*
X020969Y002166D03*
X028969Y002166D03*
X031331Y002166D03*
X031331Y004134D03*
X028969Y004134D03*
X060969Y030166D03*
X063331Y030166D03*
X063331Y032134D03*
X060969Y032134D03*
D20*
X061461Y027150D03*
X062839Y027150D03*
D21*
X054900Y016900D02*
X054900Y016544D01*
X054400Y016544D02*
X054400Y016900D01*
X053900Y016900D02*
X053900Y016544D01*
X053400Y016544D02*
X053400Y016900D01*
X052900Y016900D02*
X052900Y016544D01*
X052400Y016544D02*
X052400Y016900D01*
X040900Y016650D02*
X040900Y016294D01*
X040400Y016294D02*
X040400Y016650D01*
X039900Y016650D02*
X039900Y016294D01*
X039400Y016294D02*
X039400Y016650D01*
X038900Y016650D02*
X038900Y016294D01*
X038400Y016294D02*
X038400Y016650D01*
X045400Y004900D02*
X045400Y004544D01*
X045900Y004544D02*
X045900Y004900D01*
X046400Y004900D02*
X046400Y004544D01*
X046900Y004544D02*
X046900Y004900D01*
X047400Y004900D02*
X047400Y004544D01*
X047900Y004544D02*
X047900Y004900D01*
X059400Y004650D02*
X059400Y004294D01*
X059900Y004294D02*
X059900Y004650D01*
X060400Y004650D02*
X060400Y004294D01*
X060900Y004294D02*
X060900Y004650D01*
X061400Y004650D02*
X061400Y004294D01*
X061900Y004294D02*
X061900Y004650D01*
D22*
X065650Y022650D03*
X001650Y020150D03*
D23*
X002650Y020150D03*
X002650Y019150D03*
X001650Y019150D03*
X001650Y018150D03*
X002650Y018150D03*
X002650Y017150D03*
X001650Y017150D03*
X001650Y016150D03*
X002650Y016150D03*
X002650Y015150D03*
X001650Y015150D03*
X001650Y014150D03*
X002650Y014150D03*
X002650Y013150D03*
X001650Y013150D03*
X001650Y012150D03*
X002650Y012150D03*
X065650Y011650D03*
X066650Y011650D03*
X066650Y010650D03*
X065650Y010650D03*
X065650Y009650D03*
X066650Y009650D03*
X066650Y012650D03*
X065650Y012650D03*
X065650Y013650D03*
X066650Y013650D03*
X066650Y014650D03*
X065650Y014650D03*
X065650Y015650D03*
X066650Y015650D03*
X066650Y016650D03*
X065650Y016650D03*
X065650Y017650D03*
X066650Y017650D03*
X066650Y018650D03*
X065650Y018650D03*
X065650Y019650D03*
X066650Y019650D03*
X066650Y020650D03*
X065650Y020650D03*
X065650Y021650D03*
X066650Y021650D03*
X066650Y022650D03*
D24*
X054833Y025400D03*
X053967Y025774D03*
X053967Y025026D03*
X049833Y025400D03*
X048967Y025774D03*
X048967Y025026D03*
X044833Y025400D03*
X043967Y025774D03*
X043967Y025026D03*
X039833Y025400D03*
X038967Y025774D03*
X038967Y025026D03*
X035083Y015274D03*
X035083Y014526D03*
X034217Y014900D03*
D25*
X039516Y029536D03*
X037784Y030166D03*
X038650Y031150D03*
X039319Y032134D03*
X037981Y033119D03*
X040284Y036166D03*
X041150Y037150D03*
X041819Y038134D03*
X040481Y039119D03*
X045481Y039119D03*
X046819Y038134D03*
X046150Y037150D03*
X045284Y036166D03*
X047016Y035536D03*
X047981Y033119D03*
X049319Y032134D03*
X048650Y031150D03*
X047784Y030166D03*
X049516Y029536D03*
X052784Y030166D03*
X053650Y031150D03*
X054319Y032134D03*
X052981Y033119D03*
X052016Y035536D03*
X051150Y037150D03*
X050284Y036166D03*
X051819Y038134D03*
X050481Y039119D03*
X055284Y036166D03*
X056150Y037150D03*
X056819Y038134D03*
X055481Y039119D03*
X057016Y035536D03*
X054516Y029536D03*
X044516Y029536D03*
X043650Y031150D03*
X044319Y032134D03*
X042981Y033119D03*
X042016Y035536D03*
X042784Y030166D03*
D26*
X017424Y019150D03*
X017424Y018650D03*
X017424Y018150D03*
X017424Y017650D03*
X015376Y017650D03*
X015376Y018150D03*
X015376Y018650D03*
X015376Y019150D03*
X011424Y019150D03*
X011424Y018650D03*
X011424Y018150D03*
X011424Y017650D03*
X009376Y017650D03*
X009376Y018150D03*
X009376Y018650D03*
X009376Y019150D03*
X006174Y020900D03*
X006174Y021400D03*
X006174Y021900D03*
X006174Y022400D03*
X004126Y022400D03*
X004126Y021900D03*
X004126Y021400D03*
X004126Y020900D03*
X014876Y012650D03*
X014876Y012150D03*
X014876Y011650D03*
X014876Y011150D03*
X016924Y011150D03*
X016924Y011650D03*
X016924Y012150D03*
X016924Y012650D03*
X009924Y011900D03*
X009924Y011400D03*
X009924Y010900D03*
X009924Y010400D03*
X007876Y010400D03*
X007876Y010900D03*
X007876Y011400D03*
X007876Y011900D03*
X038126Y008900D03*
X038126Y008400D03*
X038126Y007900D03*
X038126Y007400D03*
X038126Y006900D03*
X038126Y006400D03*
X038126Y005900D03*
X040174Y005900D03*
X040174Y006400D03*
X040174Y006900D03*
X040174Y007400D03*
X040174Y007900D03*
X040174Y008400D03*
X040174Y008900D03*
D27*
X025819Y029181D03*
X025819Y029969D03*
X025819Y030756D03*
X025819Y031544D03*
X025819Y032331D03*
X025819Y033119D03*
X017819Y033119D03*
X017819Y032331D03*
X017819Y031544D03*
X017819Y030756D03*
X017819Y029969D03*
X017819Y029181D03*
X009819Y029181D03*
X009819Y029969D03*
X009819Y030756D03*
X009819Y031544D03*
X009819Y032331D03*
X009819Y033119D03*
X001819Y033119D03*
X001819Y032331D03*
X001819Y031544D03*
X001819Y030756D03*
X001819Y029969D03*
X001819Y029181D03*
D28*
X006150Y028985D03*
X006150Y033315D03*
X014150Y033315D03*
X014150Y028985D03*
X022150Y028985D03*
X022150Y033315D03*
X030150Y033315D03*
X030150Y028985D03*
D29*
X029775Y027563D03*
X030525Y027563D03*
X030525Y026737D03*
X029775Y026737D03*
X022525Y026737D03*
X021775Y026737D03*
X021775Y027563D03*
X022525Y027563D03*
X014900Y027563D03*
X014900Y026737D03*
X013400Y026737D03*
X013400Y027563D03*
X006900Y027563D03*
X006900Y026737D03*
X005400Y026737D03*
X005400Y027563D03*
D30*
X061268Y037882D03*
X061268Y038138D03*
X061268Y038394D03*
X061268Y038650D03*
X061268Y038906D03*
X061268Y039162D03*
X061268Y039418D03*
X063532Y039418D03*
X063532Y039162D03*
X063532Y038906D03*
X063532Y038650D03*
X063532Y038394D03*
X063532Y038138D03*
X063532Y037882D03*
D31*
X065650Y032650D03*
X065650Y031650D03*
D32*
X006142Y037166D03*
X005158Y037166D03*
X005158Y038150D03*
X006142Y038150D03*
X006142Y039134D03*
X005158Y039134D03*
D33*
X022400Y022674D03*
X022900Y022674D03*
X023400Y022674D03*
X023900Y022674D03*
X023900Y020626D03*
X023400Y020626D03*
X022900Y020626D03*
X022400Y020626D03*
X022400Y016174D03*
X022900Y016174D03*
X023400Y016174D03*
X023900Y016174D03*
X023900Y014126D03*
X023400Y014126D03*
X022900Y014126D03*
X022400Y014126D03*
D34*
X064900Y006900D03*
X067150Y005650D03*
X064900Y004650D03*
X067650Y007900D03*
X066650Y027400D03*
X066650Y031650D03*
D35*
X063650Y036650D03*
X062900Y037400D03*
X062400Y038650D03*
X064025Y038650D03*
X060775Y038650D03*
X059150Y038650D03*
X054400Y027650D03*
X052150Y025650D03*
X053150Y025400D03*
X052150Y022900D03*
X048150Y025400D03*
X047150Y025650D03*
X049400Y027650D03*
X044400Y027650D03*
X042150Y025650D03*
X043150Y025400D03*
X042150Y022900D03*
X040650Y022150D03*
X038900Y023900D03*
X038150Y025400D03*
X039400Y027650D03*
X047150Y022900D03*
X037900Y018650D03*
X035900Y020650D03*
X031525Y016150D03*
X032650Y015650D03*
X033900Y015400D03*
X035150Y013400D03*
X037150Y014400D03*
X040400Y015400D03*
X044650Y012400D03*
X044150Y011900D03*
X043650Y011400D03*
X043150Y010900D03*
X045150Y012900D03*
X045650Y013400D03*
X046150Y013900D03*
X048650Y011400D03*
X048150Y010900D03*
X047650Y010400D03*
X047150Y009900D03*
X046650Y009400D03*
X046150Y008900D03*
X045650Y008400D03*
X041900Y007150D03*
X041400Y006400D03*
X041900Y005150D03*
X039900Y005150D03*
X037150Y005650D03*
X034900Y004650D03*
X039900Y003150D03*
X040900Y007900D03*
X040900Y008900D03*
X034150Y008900D03*
X033650Y008400D03*
X033650Y010650D03*
X033650Y011400D03*
X032650Y013150D03*
X031400Y010900D03*
X026150Y015150D03*
X024650Y013650D03*
X022650Y015150D03*
X022150Y015150D03*
X022900Y017100D03*
X023400Y017400D03*
X022900Y018650D03*
X024650Y020150D03*
X022650Y021650D03*
X022150Y021650D03*
X022900Y023600D03*
X021150Y025400D03*
X018900Y025400D03*
X018650Y026650D03*
X018650Y027150D03*
X020650Y027900D03*
X012900Y023900D03*
X012900Y023400D03*
X011900Y022900D03*
X010650Y023400D03*
X010650Y023900D03*
X009400Y023400D03*
X006900Y023400D03*
X006400Y023900D03*
X006150Y024400D03*
X006150Y024900D03*
X005400Y023650D03*
X004900Y023400D03*
X006900Y022400D03*
X007900Y021400D03*
X008150Y020900D03*
X006150Y020150D03*
X006900Y019650D03*
X006400Y019400D03*
X005400Y019650D03*
X004900Y018650D03*
X003900Y019650D03*
X005150Y017650D03*
X005900Y016900D03*
X006150Y017400D03*
X007900Y017650D03*
X010400Y017400D03*
X012150Y015400D03*
X012150Y014900D03*
X010150Y013650D03*
X007900Y013650D03*
X008900Y011650D03*
X007150Y010400D03*
X013150Y012900D03*
X014650Y015400D03*
X016650Y014900D03*
X017650Y014400D03*
X018650Y012900D03*
X022150Y011900D03*
X024150Y012150D03*
X016900Y010400D03*
X013900Y010150D03*
X010900Y004650D03*
X018900Y004650D03*
X026900Y004650D03*
X016400Y017400D03*
X016400Y017900D03*
X017900Y019900D03*
X020150Y018400D03*
X026650Y021650D03*
X011900Y019900D03*
X007900Y028650D03*
X008400Y029150D03*
X008400Y029650D03*
X008400Y030400D03*
X001400Y037900D03*
X047400Y003650D03*
X055650Y007900D03*
X056150Y007900D03*
X056650Y007900D03*
X057150Y007900D03*
X055150Y011900D03*
X055150Y014900D03*
X055650Y015400D03*
X056150Y015400D03*
X056650Y015400D03*
X057150Y015400D03*
X054400Y015650D03*
X063150Y013650D03*
X063150Y013150D03*
X066150Y017150D03*
X061400Y003400D03*
M02*
