G75*
G70*
%OFA0B0*%
%FSLAX24Y24*%
%IPPOS*%
%LPD*%
%AMOC8*
5,1,8,0,0,1.08239X$1,22.5*
%
%ADD10R,0.0315X0.0160*%
%ADD11C,0.0040*%
%ADD12C,0.0080*%
%ADD13C,0.0050*%
%ADD14R,0.0160X0.0315*%
%ADD15C,0.0020*%
%ADD16R,0.0157X0.0630*%
%ADD17R,0.0193X0.1000*%
%ADD18C,0.0250*%
%ADD19R,0.0210X0.0860*%
%ADD20R,0.0492X0.2441*%
%ADD21R,0.0860X0.0210*%
%ADD22R,0.2441X0.0492*%
%ADD23R,0.0290X0.0690*%
%ADD24R,0.0690X0.0290*%
%ADD25R,0.1024X0.0295*%
%ADD26R,0.0295X0.1024*%
%ADD27R,0.0335X0.0295*%
%ADD28R,0.0394X0.0079*%
D10*
X023526Y020498D03*
X023526Y020998D03*
X031651Y024873D03*
X031651Y025373D03*
X032401Y025373D03*
X032401Y024873D03*
X033151Y024873D03*
X033151Y025373D03*
X035151Y023373D03*
X035151Y022873D03*
X036651Y022873D03*
X036651Y023373D03*
X037401Y023373D03*
X037401Y022873D03*
X038901Y022873D03*
X038901Y023373D03*
X039651Y023373D03*
X039651Y022873D03*
X038401Y015873D03*
X038401Y015373D03*
X037651Y015373D03*
X037651Y015873D03*
X036901Y015873D03*
X036901Y015373D03*
X036151Y015373D03*
X036151Y015873D03*
X035401Y015873D03*
X035401Y015373D03*
X038901Y011873D03*
X038901Y011373D03*
X040526Y011373D03*
X040526Y011873D03*
X042276Y011873D03*
X042276Y011373D03*
X041151Y007248D03*
X041151Y006748D03*
X039526Y006748D03*
X039526Y007248D03*
X037776Y007248D03*
X037776Y006748D03*
X037026Y006748D03*
X037026Y007248D03*
X045276Y007248D03*
X045276Y006748D03*
X053776Y012123D03*
X053776Y012623D03*
X055276Y012623D03*
X055276Y012123D03*
X056526Y012123D03*
X056526Y012623D03*
X058276Y012623D03*
X058276Y012123D03*
X060026Y012123D03*
X060026Y012623D03*
X062026Y012623D03*
X062026Y012123D03*
X054651Y020373D03*
X054651Y020873D03*
X053901Y020873D03*
X053901Y020373D03*
X052401Y020373D03*
X052401Y020873D03*
X051651Y020873D03*
X051651Y020373D03*
X050901Y020373D03*
X050901Y020873D03*
X054651Y023998D03*
X054651Y024498D03*
X054651Y025873D03*
X054651Y026373D03*
X053901Y026373D03*
X053901Y025873D03*
X053151Y025873D03*
X053151Y026373D03*
X052401Y026373D03*
X052401Y025873D03*
X051651Y025873D03*
X051651Y026373D03*
X050901Y026373D03*
X050901Y025873D03*
X049901Y028623D03*
X049901Y029123D03*
X049151Y029123D03*
X049151Y028623D03*
X049151Y031623D03*
X049151Y032123D03*
X049901Y032123D03*
X049901Y031623D03*
X055901Y029123D03*
X055901Y028623D03*
X056651Y028623D03*
X056651Y029123D03*
X055401Y026373D03*
X055401Y025873D03*
D11*
X055281Y025953D02*
X055281Y026293D01*
X055522Y026293D02*
X055522Y025953D01*
X056231Y026002D02*
X056571Y026002D01*
X056571Y026243D02*
X056231Y026243D01*
X056231Y025493D02*
X056571Y025493D01*
X056571Y025252D02*
X056231Y025252D01*
X056231Y024743D02*
X056571Y024743D01*
X056571Y024502D02*
X056231Y024502D01*
X056231Y023993D02*
X056571Y023993D01*
X056571Y023752D02*
X056231Y023752D01*
X056231Y023243D02*
X056571Y023243D01*
X056571Y023002D02*
X056231Y023002D01*
X054772Y024078D02*
X054772Y024418D01*
X054531Y024418D02*
X054531Y024078D01*
X054531Y025953D02*
X054531Y026293D01*
X054772Y026293D02*
X054772Y025953D01*
X054022Y025953D02*
X054022Y026293D01*
X053781Y026293D02*
X053781Y025953D01*
X053272Y025953D02*
X053272Y026293D01*
X053031Y026293D02*
X053031Y025953D01*
X052522Y025953D02*
X052522Y026293D01*
X052281Y026293D02*
X052281Y025953D01*
X051772Y025953D02*
X051772Y026293D01*
X051531Y026293D02*
X051531Y025953D01*
X051022Y025953D02*
X051022Y026293D01*
X050781Y026293D02*
X050781Y025953D01*
X050731Y024743D02*
X051071Y024743D01*
X051071Y024502D02*
X050731Y024502D01*
X050731Y023993D02*
X051071Y023993D01*
X051071Y023752D02*
X050731Y023752D01*
X050731Y023243D02*
X051071Y023243D01*
X051071Y023002D02*
X050731Y023002D01*
X050731Y022493D02*
X051071Y022493D01*
X051071Y022252D02*
X050731Y022252D01*
X050781Y020793D02*
X050781Y020453D01*
X051022Y020453D02*
X051022Y020793D01*
X051531Y020793D02*
X051531Y020453D01*
X051772Y020453D02*
X051772Y020793D01*
X052281Y020793D02*
X052281Y020453D01*
X052522Y020453D02*
X052522Y020793D01*
X053781Y020793D02*
X053781Y020453D01*
X054022Y020453D02*
X054022Y020793D01*
X054531Y020793D02*
X054531Y020453D01*
X054772Y020453D02*
X054772Y020793D01*
X056231Y020743D02*
X056571Y020743D01*
X056571Y020502D02*
X056231Y020502D01*
X056231Y021252D02*
X056571Y021252D01*
X056571Y021493D02*
X056231Y021493D01*
X059231Y021752D02*
X059571Y021752D01*
X059571Y021993D02*
X059231Y021993D01*
X059231Y022502D02*
X059571Y022502D01*
X059571Y022743D02*
X059231Y022743D01*
X059231Y023877D02*
X059571Y023877D01*
X059571Y024118D02*
X059231Y024118D01*
X056772Y028703D02*
X056772Y029043D01*
X056531Y029043D02*
X056531Y028703D01*
X056022Y028703D02*
X056022Y029043D01*
X055781Y029043D02*
X055781Y028703D01*
X056526Y031803D02*
X057281Y031803D01*
X057281Y032443D02*
X056526Y032443D01*
X056526Y033053D02*
X057281Y033053D01*
X057281Y033693D02*
X056526Y033693D01*
X062981Y036752D02*
X063321Y036752D01*
X063321Y036993D02*
X062981Y036993D01*
X064981Y036993D02*
X065321Y036993D01*
X065321Y036752D02*
X064981Y036752D01*
X065731Y027743D02*
X066071Y027743D01*
X066071Y027502D02*
X065731Y027502D01*
X065731Y026993D02*
X066071Y026993D01*
X066071Y026752D02*
X065731Y026752D01*
X065731Y024993D02*
X066071Y024993D01*
X066071Y024752D02*
X065731Y024752D01*
X065731Y019993D02*
X066071Y019993D01*
X066071Y019752D02*
X065731Y019752D01*
X065731Y019243D02*
X066071Y019243D01*
X066071Y019002D02*
X065731Y019002D01*
X062147Y012543D02*
X062147Y012203D01*
X061906Y012203D02*
X061906Y012543D01*
X060147Y012543D02*
X060147Y012203D01*
X059906Y012203D02*
X059906Y012543D01*
X058397Y012543D02*
X058397Y012203D01*
X058156Y012203D02*
X058156Y012543D01*
X056647Y012543D02*
X056647Y012203D01*
X056406Y012203D02*
X056406Y012543D01*
X055397Y012543D02*
X055397Y012203D01*
X055156Y012203D02*
X055156Y012543D01*
X053897Y012543D02*
X053897Y012203D01*
X053656Y012203D02*
X053656Y012543D01*
X054231Y016752D02*
X054571Y016752D01*
X054571Y016993D02*
X054231Y016993D01*
X053071Y016993D02*
X052731Y016993D01*
X052731Y016752D02*
X053071Y016752D01*
X053481Y018002D02*
X053821Y018002D01*
X053821Y018243D02*
X053481Y018243D01*
X048071Y019002D02*
X047731Y019002D01*
X047731Y019243D02*
X048071Y019243D01*
X048071Y019752D02*
X047731Y019752D01*
X047731Y019993D02*
X048071Y019993D01*
X048071Y020502D02*
X047731Y020502D01*
X047731Y020743D02*
X048071Y020743D01*
X048071Y021252D02*
X047731Y021252D01*
X047731Y021493D02*
X048071Y021493D01*
X042221Y026248D02*
X042221Y027003D01*
X041581Y027003D02*
X041581Y026248D01*
X040971Y026248D02*
X040971Y027003D01*
X040331Y027003D02*
X040331Y026248D01*
X039772Y023293D02*
X039772Y022953D01*
X039531Y022953D02*
X039531Y023293D01*
X039022Y023293D02*
X039022Y022953D01*
X038781Y022953D02*
X038781Y023293D01*
X037522Y023293D02*
X037522Y022953D01*
X037281Y022953D02*
X037281Y023293D01*
X036772Y023293D02*
X036772Y022953D01*
X036531Y022953D02*
X036531Y023293D01*
X035272Y023293D02*
X035272Y022953D01*
X035031Y022953D02*
X035031Y023293D01*
X033571Y022868D02*
X033231Y022868D01*
X033231Y022627D02*
X033571Y022627D01*
X033531Y021353D02*
X034261Y021353D01*
X034261Y020393D02*
X033531Y020393D01*
X033571Y019493D02*
X033231Y019493D01*
X033231Y019252D02*
X033571Y019252D01*
X033571Y018743D02*
X033231Y018743D01*
X033231Y018502D02*
X033571Y018502D01*
X033571Y017993D02*
X033231Y017993D01*
X033231Y017752D02*
X033571Y017752D01*
X033671Y016482D02*
X033671Y015753D01*
X034631Y015753D02*
X034631Y016482D01*
X035281Y015793D02*
X035281Y015453D01*
X035522Y015453D02*
X035522Y015793D01*
X036031Y015793D02*
X036031Y015453D01*
X036272Y015453D02*
X036272Y015793D01*
X036781Y015793D02*
X036781Y015453D01*
X037022Y015453D02*
X037022Y015793D01*
X037531Y015793D02*
X037531Y015453D01*
X037772Y015453D02*
X037772Y015793D01*
X038281Y015793D02*
X038281Y015453D01*
X038522Y015453D02*
X038522Y015793D01*
X040042Y015893D02*
X040771Y015893D01*
X040771Y016853D02*
X040042Y016853D01*
X040731Y017502D02*
X041071Y017502D01*
X041071Y017743D02*
X040731Y017743D01*
X040731Y018252D02*
X041071Y018252D01*
X041071Y018493D02*
X040731Y018493D01*
X040731Y019752D02*
X041071Y019752D01*
X041071Y019993D02*
X040731Y019993D01*
X033272Y024953D02*
X033272Y025293D01*
X033031Y025293D02*
X033031Y024953D01*
X032522Y024953D02*
X032522Y025293D01*
X032281Y025293D02*
X032281Y024953D01*
X031772Y024953D02*
X031772Y025293D01*
X031531Y025293D02*
X031531Y024953D01*
X030071Y024868D02*
X029731Y024868D01*
X029731Y024627D02*
X030071Y024627D01*
X030071Y024118D02*
X029731Y024118D01*
X029731Y023877D02*
X030071Y023877D01*
X030071Y023368D02*
X029731Y023368D01*
X029731Y023127D02*
X030071Y023127D01*
X030071Y022618D02*
X029731Y022618D01*
X029731Y022377D02*
X030071Y022377D01*
X027696Y023002D02*
X027356Y023002D01*
X027356Y023243D02*
X027696Y023243D01*
X027696Y023752D02*
X027356Y023752D01*
X027356Y023993D02*
X027696Y023993D01*
X029731Y025377D02*
X030071Y025377D01*
X030071Y025618D02*
X029731Y025618D01*
X029731Y026127D02*
X030071Y026127D01*
X030071Y026368D02*
X029731Y026368D01*
X025446Y022118D02*
X025106Y022118D01*
X025106Y021877D02*
X025446Y021877D01*
X023647Y020918D02*
X023647Y020578D01*
X023406Y020578D02*
X023406Y020918D01*
X029481Y019243D02*
X029821Y019243D01*
X029821Y019002D02*
X029481Y019002D01*
X029481Y018243D02*
X029821Y018243D01*
X029821Y018002D02*
X029481Y018002D01*
X029481Y017368D02*
X029821Y017368D01*
X029821Y017127D02*
X029481Y017127D01*
X038781Y011793D02*
X038781Y011453D01*
X039022Y011453D02*
X039022Y011793D01*
X040406Y011793D02*
X040406Y011453D01*
X040647Y011453D02*
X040647Y011793D01*
X042156Y011793D02*
X042156Y011453D01*
X042397Y011453D02*
X042397Y011793D01*
X041272Y007168D02*
X041272Y006828D01*
X041031Y006828D02*
X041031Y007168D01*
X039647Y007168D02*
X039647Y006828D01*
X039406Y006828D02*
X039406Y007168D01*
X037897Y007168D02*
X037897Y006828D01*
X037656Y006828D02*
X037656Y007168D01*
X037147Y007168D02*
X037147Y006828D01*
X036906Y006828D02*
X036906Y007168D01*
X045156Y007168D02*
X045156Y006828D01*
X045397Y006828D02*
X045397Y007168D01*
X049031Y028703D02*
X049031Y029043D01*
X049272Y029043D02*
X049272Y028703D01*
X049781Y028703D02*
X049781Y029043D01*
X050022Y029043D02*
X050022Y028703D01*
X050022Y031703D02*
X050022Y032043D01*
X049781Y032043D02*
X049781Y031703D01*
X049272Y031703D02*
X049272Y032043D01*
X049031Y032043D02*
X049031Y031703D01*
X048821Y035002D02*
X048481Y035002D01*
X048481Y035243D02*
X048821Y035243D01*
X048821Y036252D02*
X048481Y036252D01*
X048481Y036493D02*
X048821Y036493D01*
X048821Y037002D02*
X048481Y037002D01*
X048481Y037243D02*
X048821Y037243D01*
X048821Y037752D02*
X048481Y037752D01*
X048481Y037993D02*
X048821Y037993D01*
X016321Y032368D02*
X015981Y032368D01*
X015981Y032127D02*
X016321Y032127D01*
D12*
X016726Y031998D02*
X016726Y032498D01*
X015576Y032498D01*
X015576Y031998D01*
X016726Y031998D01*
X026951Y024123D02*
X026951Y023623D01*
X028101Y023623D01*
X028101Y024123D01*
X026951Y024123D01*
X026951Y023373D02*
X026951Y022873D01*
X028101Y022873D01*
X028101Y023373D01*
X026951Y023373D01*
X025851Y022248D02*
X025851Y021748D01*
X024701Y021748D01*
X024701Y022248D01*
X025851Y022248D01*
X023776Y021323D02*
X023276Y021323D01*
X023276Y020173D01*
X023776Y020173D01*
X023776Y021323D01*
X029326Y022248D02*
X029326Y022748D01*
X030476Y022748D01*
X030476Y022248D01*
X029326Y022248D01*
X029326Y022998D02*
X030476Y022998D01*
X030476Y023498D01*
X029326Y023498D01*
X029326Y022998D01*
X029326Y023748D02*
X030476Y023748D01*
X030476Y024248D01*
X029326Y024248D01*
X029326Y023748D01*
X029326Y024498D02*
X030476Y024498D01*
X030476Y024998D01*
X029326Y024998D01*
X029326Y024498D01*
X029326Y025248D02*
X030476Y025248D01*
X030476Y025748D01*
X029326Y025748D01*
X029326Y025248D01*
X029326Y025998D02*
X030476Y025998D01*
X030476Y026498D01*
X029326Y026498D01*
X029326Y025998D01*
X031401Y025698D02*
X031401Y024548D01*
X031901Y024548D01*
X031901Y025698D01*
X031401Y025698D01*
X032151Y025698D02*
X032151Y024548D01*
X032651Y024548D01*
X032651Y025698D01*
X032151Y025698D01*
X032901Y025698D02*
X032901Y024548D01*
X033401Y024548D01*
X033401Y025698D01*
X032901Y025698D01*
X034901Y023698D02*
X034901Y022548D01*
X035401Y022548D01*
X035401Y023698D01*
X034901Y023698D01*
X033976Y022998D02*
X032826Y022998D01*
X032826Y022498D01*
X033976Y022498D01*
X033976Y022998D01*
X035001Y021523D02*
X032801Y021523D01*
X032801Y020223D01*
X035001Y020223D01*
X035001Y021523D01*
X036401Y022548D02*
X036901Y022548D01*
X036901Y023698D01*
X036401Y023698D01*
X036401Y022548D01*
X037151Y022548D02*
X037151Y023698D01*
X037651Y023698D01*
X037651Y022548D01*
X037151Y022548D01*
X038651Y022548D02*
X038651Y023698D01*
X039151Y023698D01*
X039151Y022548D01*
X038651Y022548D01*
X039401Y022548D02*
X039901Y022548D01*
X039901Y023698D01*
X039401Y023698D01*
X039401Y022548D01*
X040326Y020123D02*
X040326Y019623D01*
X041476Y019623D01*
X041476Y020123D01*
X040326Y020123D01*
X040326Y018623D02*
X040326Y018123D01*
X041476Y018123D01*
X041476Y018623D01*
X040326Y018623D01*
X040326Y017873D02*
X040326Y017373D01*
X041476Y017373D01*
X041476Y017873D01*
X040326Y017873D01*
X039301Y017023D02*
X039301Y015723D01*
X041501Y015723D01*
X041501Y017023D01*
X039301Y017023D01*
X038651Y016198D02*
X038151Y016198D01*
X038151Y015048D01*
X038651Y015048D01*
X038651Y016198D01*
X037901Y016198D02*
X037401Y016198D01*
X037401Y015048D01*
X037901Y015048D01*
X037901Y016198D01*
X037151Y016198D02*
X036651Y016198D01*
X036651Y015048D01*
X037151Y015048D01*
X037151Y016198D01*
X036401Y016198D02*
X035901Y016198D01*
X035901Y015048D01*
X036401Y015048D01*
X036401Y016198D01*
X035651Y016198D02*
X035151Y016198D01*
X035151Y015048D01*
X035651Y015048D01*
X035651Y016198D01*
X034801Y017223D02*
X033501Y017223D01*
X033501Y015023D01*
X034801Y015023D01*
X034801Y017223D01*
X033976Y017623D02*
X033976Y018123D01*
X032826Y018123D01*
X032826Y017623D01*
X033976Y017623D01*
X033976Y018373D02*
X033976Y018873D01*
X032826Y018873D01*
X032826Y018373D01*
X033976Y018373D01*
X033976Y019123D02*
X032826Y019123D01*
X032826Y019623D01*
X033976Y019623D01*
X033976Y019123D01*
X030226Y018873D02*
X030226Y019373D01*
X029076Y019373D01*
X029076Y018873D01*
X030226Y018873D01*
X030226Y018373D02*
X029076Y018373D01*
X029076Y017873D01*
X030226Y017873D01*
X030226Y018373D01*
X030226Y017498D02*
X029076Y017498D01*
X029076Y016998D01*
X030226Y016998D01*
X030226Y017498D01*
X038651Y012198D02*
X038651Y011048D01*
X039151Y011048D01*
X039151Y012198D01*
X038651Y012198D01*
X040276Y012198D02*
X040776Y012198D01*
X040776Y011048D01*
X040276Y011048D01*
X040276Y012198D01*
X042026Y012198D02*
X042026Y011048D01*
X042526Y011048D01*
X042526Y012198D01*
X042026Y012198D01*
X041401Y007573D02*
X040901Y007573D01*
X040901Y006423D01*
X041401Y006423D01*
X041401Y007573D01*
X039776Y007573D02*
X039776Y006423D01*
X039276Y006423D01*
X039276Y007573D01*
X039776Y007573D01*
X038026Y007573D02*
X038026Y006423D01*
X037526Y006423D01*
X037526Y007573D01*
X038026Y007573D01*
X037276Y007573D02*
X036776Y007573D01*
X036776Y006423D01*
X037276Y006423D01*
X037276Y007573D01*
X045026Y007573D02*
X045026Y006423D01*
X045526Y006423D01*
X045526Y007573D01*
X045026Y007573D01*
X053526Y011798D02*
X054026Y011798D01*
X054026Y012948D01*
X053526Y012948D01*
X053526Y011798D01*
X055026Y011798D02*
X055526Y011798D01*
X055526Y012948D01*
X055026Y012948D01*
X055026Y011798D01*
X056276Y011798D02*
X056776Y011798D01*
X056776Y012948D01*
X056276Y012948D01*
X056276Y011798D01*
X058026Y011798D02*
X058526Y011798D01*
X058526Y012948D01*
X058026Y012948D01*
X058026Y011798D01*
X059776Y011798D02*
X059776Y012948D01*
X060276Y012948D01*
X060276Y011798D01*
X059776Y011798D01*
X061776Y011798D02*
X062276Y011798D01*
X062276Y012948D01*
X061776Y012948D01*
X061776Y011798D01*
X054976Y016623D02*
X054976Y017123D01*
X053826Y017123D01*
X053826Y016623D01*
X054976Y016623D01*
X054226Y017873D02*
X053076Y017873D01*
X053076Y018373D01*
X054226Y018373D01*
X054226Y017873D01*
X053476Y017123D02*
X052326Y017123D01*
X052326Y016623D01*
X053476Y016623D01*
X053476Y017123D01*
X053651Y020048D02*
X054151Y020048D01*
X054151Y021198D01*
X053651Y021198D01*
X053651Y020048D01*
X054401Y020048D02*
X054901Y020048D01*
X054901Y021198D01*
X054401Y021198D01*
X054401Y020048D01*
X055826Y020373D02*
X056976Y020373D01*
X056976Y020873D01*
X055826Y020873D01*
X055826Y020373D01*
X055826Y021123D02*
X056976Y021123D01*
X056976Y021623D01*
X055826Y021623D01*
X055826Y021123D01*
X055826Y022873D02*
X056976Y022873D01*
X056976Y023373D01*
X055826Y023373D01*
X055826Y022873D01*
X055826Y023623D02*
X056976Y023623D01*
X056976Y024123D01*
X055826Y024123D01*
X055826Y023623D01*
X055826Y024373D02*
X056976Y024373D01*
X056976Y024873D01*
X055826Y024873D01*
X055826Y024373D01*
X055826Y025123D02*
X056976Y025123D01*
X056976Y025623D01*
X055826Y025623D01*
X055826Y025123D01*
X055651Y025548D02*
X055651Y026698D01*
X055151Y026698D01*
X055151Y025548D01*
X055651Y025548D01*
X055826Y025873D02*
X055826Y026373D01*
X056976Y026373D01*
X056976Y025873D01*
X055826Y025873D01*
X054901Y025548D02*
X054901Y026698D01*
X054401Y026698D01*
X054401Y025548D01*
X054901Y025548D01*
X054151Y025548D02*
X054151Y026698D01*
X053651Y026698D01*
X053651Y025548D01*
X054151Y025548D01*
X053401Y025548D02*
X053401Y026698D01*
X052901Y026698D01*
X052901Y025548D01*
X053401Y025548D01*
X052651Y025548D02*
X052651Y026698D01*
X052151Y026698D01*
X052151Y025548D01*
X052651Y025548D01*
X051901Y025548D02*
X051901Y026698D01*
X051401Y026698D01*
X051401Y025548D01*
X051901Y025548D01*
X051151Y025548D02*
X051151Y026698D01*
X050651Y026698D01*
X050651Y025548D01*
X051151Y025548D01*
X051476Y024873D02*
X050326Y024873D01*
X050326Y024373D01*
X051476Y024373D01*
X051476Y024873D01*
X051476Y024123D02*
X050326Y024123D01*
X050326Y023623D01*
X051476Y023623D01*
X051476Y024123D01*
X051476Y023373D02*
X050326Y023373D01*
X050326Y022873D01*
X051476Y022873D01*
X051476Y023373D01*
X051476Y022623D02*
X050326Y022623D01*
X050326Y022123D01*
X051476Y022123D01*
X051476Y022623D01*
X051401Y021198D02*
X051401Y020048D01*
X051901Y020048D01*
X051901Y021198D01*
X051401Y021198D01*
X051151Y021198D02*
X050651Y021198D01*
X050651Y020048D01*
X051151Y020048D01*
X051151Y021198D01*
X052151Y021198D02*
X052151Y020048D01*
X052651Y020048D01*
X052651Y021198D01*
X052151Y021198D01*
X054401Y023673D02*
X054901Y023673D01*
X054901Y024823D01*
X054401Y024823D01*
X054401Y023673D01*
X058826Y023748D02*
X059976Y023748D01*
X059976Y024248D01*
X058826Y024248D01*
X058826Y023748D01*
X058826Y022873D02*
X058826Y022373D01*
X059976Y022373D01*
X059976Y022873D01*
X058826Y022873D01*
X058826Y022123D02*
X058826Y021623D01*
X059976Y021623D01*
X059976Y022123D01*
X058826Y022123D01*
X060604Y018963D02*
X060604Y027782D01*
X060958Y027782D01*
X060958Y018963D01*
X064344Y018963D01*
X064344Y027782D01*
X060958Y027782D01*
X064344Y027782D02*
X064698Y027782D01*
X064698Y018963D01*
X064344Y018963D01*
X065326Y018873D02*
X065326Y019373D01*
X066476Y019373D01*
X066476Y018873D01*
X065326Y018873D01*
X065326Y019623D02*
X065326Y020123D01*
X066476Y020123D01*
X066476Y019623D01*
X065326Y019623D01*
X060958Y018963D02*
X060604Y018963D01*
X065326Y024623D02*
X065326Y025123D01*
X066476Y025123D01*
X066476Y024623D01*
X065326Y024623D01*
X065326Y026623D02*
X065326Y027123D01*
X066476Y027123D01*
X066476Y026623D01*
X065326Y026623D01*
X065326Y027373D02*
X065326Y027873D01*
X066476Y027873D01*
X066476Y027373D01*
X065326Y027373D01*
X065372Y031956D02*
X065028Y031956D01*
X063274Y031956D01*
X062931Y031956D01*
X062931Y034790D01*
X063274Y034790D01*
X065028Y034790D01*
X065372Y034790D01*
X065372Y031956D01*
X064464Y033060D02*
X063839Y033060D01*
X064151Y033123D02*
X063839Y033623D01*
X064464Y033623D01*
X064151Y033123D01*
X064151Y033176D02*
X063915Y033570D01*
X064387Y033570D01*
X064151Y033176D01*
X064134Y033204D02*
X064168Y033204D01*
X064215Y033283D02*
X064087Y033283D01*
X064040Y033361D02*
X064262Y033361D01*
X064309Y033440D02*
X063993Y033440D01*
X063946Y033518D02*
X064356Y033518D01*
X064576Y036623D02*
X064576Y037123D01*
X065726Y037123D01*
X065726Y036623D01*
X064576Y036623D01*
X063726Y036623D02*
X063726Y037123D01*
X062576Y037123D01*
X062576Y036623D01*
X063726Y036623D01*
X061069Y037152D02*
X061069Y037496D01*
X061069Y039250D01*
X061069Y039593D01*
X058234Y039593D01*
X058234Y039250D01*
X058234Y037496D01*
X058234Y037152D01*
X061069Y037152D01*
X059901Y038060D02*
X059401Y038373D01*
X059901Y038685D01*
X059901Y038060D01*
X059848Y038137D02*
X059848Y038609D01*
X059454Y038373D01*
X059848Y038137D01*
X059848Y038152D02*
X059822Y038152D01*
X059848Y038231D02*
X059691Y038231D01*
X059560Y038309D02*
X059848Y038309D01*
X059848Y038388D02*
X059479Y038388D01*
X059610Y038466D02*
X059848Y038466D01*
X059848Y038545D02*
X059741Y038545D01*
X059339Y038685D02*
X059339Y038060D01*
X057801Y033823D02*
X056001Y033823D01*
X056001Y032923D01*
X057801Y032923D01*
X057801Y033823D01*
X057801Y032573D02*
X056001Y032573D01*
X056001Y031673D01*
X057801Y031673D01*
X057801Y032573D01*
X056901Y029448D02*
X056401Y029448D01*
X056401Y028298D01*
X056901Y028298D01*
X056901Y029448D01*
X056151Y029448D02*
X055651Y029448D01*
X055651Y028298D01*
X056151Y028298D01*
X056151Y029448D01*
X050151Y029448D02*
X050151Y028298D01*
X049651Y028298D01*
X049651Y029448D01*
X050151Y029448D01*
X049401Y029448D02*
X048901Y029448D01*
X048901Y028298D01*
X049401Y028298D01*
X049401Y029448D01*
X049401Y031298D02*
X048901Y031298D01*
X048901Y032448D01*
X049401Y032448D01*
X049401Y031298D01*
X049651Y031298D02*
X050151Y031298D01*
X050151Y032448D01*
X049651Y032448D01*
X049651Y031298D01*
X049551Y033623D02*
X048551Y033623D01*
X048551Y034623D01*
X048076Y034873D02*
X048076Y035373D01*
X049226Y035373D01*
X049226Y034873D01*
X048076Y034873D01*
X048021Y034438D02*
X048021Y033808D01*
X049281Y033808D01*
X049281Y034438D01*
X048021Y034438D01*
X047608Y034623D02*
X047601Y034623D01*
X047601Y033623D01*
X048551Y033623D01*
X049551Y033623D02*
X049551Y034623D01*
X047608Y034623D01*
X048076Y036123D02*
X049226Y036123D01*
X049226Y036623D01*
X048076Y036623D01*
X048076Y036123D01*
X048076Y036873D02*
X049226Y036873D01*
X049226Y037373D01*
X048076Y037373D01*
X048076Y036873D01*
X048076Y037623D02*
X049226Y037623D01*
X049226Y038123D01*
X048076Y038123D01*
X048076Y037623D01*
X042351Y027523D02*
X041451Y027523D01*
X041451Y025723D01*
X042351Y025723D01*
X042351Y027523D01*
X041101Y027523D02*
X040201Y027523D01*
X040201Y025723D01*
X041101Y025723D01*
X041101Y027523D01*
X047326Y021623D02*
X047326Y021123D01*
X048476Y021123D01*
X048476Y021623D01*
X047326Y021623D01*
X047326Y020873D02*
X047326Y020373D01*
X048476Y020373D01*
X048476Y020873D01*
X047326Y020873D01*
X047326Y020123D02*
X047326Y019623D01*
X048476Y019623D01*
X048476Y020123D01*
X047326Y020123D01*
X047326Y019373D02*
X047326Y018873D01*
X048476Y018873D01*
X048476Y019373D01*
X047326Y019373D01*
X066126Y038779D02*
X066677Y038779D01*
X066677Y039467D01*
X066126Y039467D01*
X066126Y038779D01*
X066244Y039005D02*
X066559Y039005D01*
X066401Y039241D01*
X066244Y039005D01*
X066322Y039044D02*
X066480Y039044D01*
X066401Y039162D01*
X066322Y039044D01*
X066356Y039095D02*
X066446Y039095D01*
D13*
X026069Y007998D02*
X026011Y008056D01*
X026011Y008115D01*
X026069Y008173D01*
X026186Y008173D01*
X026244Y008231D01*
X026244Y008290D01*
X026186Y008348D01*
X026069Y008348D01*
X026011Y008290D01*
X026011Y008231D01*
X026069Y008173D01*
X026186Y008173D02*
X026244Y008115D01*
X026244Y008056D01*
X026186Y007998D01*
X026069Y007998D01*
X026379Y008056D02*
X026438Y007998D01*
X026554Y007998D01*
X026613Y008056D01*
X026613Y008115D01*
X026554Y008173D01*
X026438Y008173D01*
X026379Y008115D01*
X026379Y008056D01*
X026438Y008173D02*
X026379Y008231D01*
X026379Y008290D01*
X026438Y008348D01*
X026554Y008348D01*
X026613Y008290D01*
X026613Y008231D01*
X026554Y008173D01*
X026748Y008056D02*
X026806Y007998D01*
X026923Y007998D01*
X026981Y008056D01*
X026981Y008290D01*
X026923Y008348D01*
X026806Y008348D01*
X026748Y008290D01*
X026806Y008748D02*
X026748Y008806D01*
X026806Y008748D02*
X026923Y008748D01*
X026981Y008806D01*
X026981Y009040D01*
X026923Y009098D01*
X026806Y009098D01*
X026748Y009040D01*
X026613Y009040D02*
X026613Y008981D01*
X026554Y008923D01*
X026438Y008923D01*
X026379Y008865D01*
X026379Y008806D01*
X026438Y008748D01*
X026554Y008748D01*
X026613Y008806D01*
X026613Y008865D01*
X026554Y008923D01*
X026438Y008923D02*
X026379Y008981D01*
X026379Y009040D01*
X026438Y009098D01*
X026554Y009098D01*
X026613Y009040D01*
X026244Y009040D02*
X026186Y009098D01*
X026069Y009098D01*
X026011Y009040D01*
X026011Y008981D01*
X026069Y008923D01*
X026011Y008865D01*
X026011Y008806D01*
X026069Y008748D01*
X026186Y008748D01*
X026244Y008806D01*
X026128Y008923D02*
X026069Y008923D01*
X026069Y009498D02*
X026186Y009498D01*
X026244Y009556D01*
X026011Y009790D01*
X026011Y009556D01*
X026069Y009498D01*
X026244Y009556D02*
X026244Y009790D01*
X026186Y009848D01*
X026069Y009848D01*
X026011Y009790D01*
X026379Y009790D02*
X026379Y009556D01*
X026438Y009498D01*
X026554Y009498D01*
X026613Y009556D01*
X026554Y009673D02*
X026379Y009673D01*
X026379Y009790D02*
X026438Y009848D01*
X026554Y009848D01*
X026613Y009790D01*
X026613Y009731D01*
X026554Y009673D01*
X026748Y009556D02*
X026806Y009498D01*
X026923Y009498D01*
X026981Y009556D01*
X026981Y009790D01*
X026923Y009848D01*
X026806Y009848D01*
X026748Y009790D01*
X026806Y011248D02*
X026748Y011306D01*
X026806Y011248D02*
X026923Y011248D01*
X026981Y011306D01*
X026981Y011540D01*
X026923Y011598D01*
X026806Y011598D01*
X026748Y011540D01*
X026613Y011598D02*
X026379Y011598D01*
X026379Y011540D01*
X026613Y011306D01*
X026613Y011248D01*
X026244Y011306D02*
X026244Y011365D01*
X026186Y011423D01*
X026069Y011423D01*
X026011Y011365D01*
X026011Y011306D01*
X026069Y011248D01*
X026186Y011248D01*
X026244Y011306D01*
X026186Y011423D02*
X026244Y011481D01*
X026244Y011540D01*
X026186Y011598D01*
X026069Y011598D01*
X026011Y011540D01*
X026011Y011481D01*
X026069Y011423D01*
X026069Y012748D02*
X026186Y012748D01*
X026244Y012806D01*
X026244Y012865D01*
X026186Y012923D01*
X026069Y012923D01*
X026011Y012865D01*
X026011Y012806D01*
X026069Y012748D01*
X026069Y012923D02*
X026011Y012981D01*
X026011Y013040D01*
X026069Y013098D01*
X026186Y013098D01*
X026244Y013040D01*
X026244Y012981D01*
X026186Y012923D01*
X026379Y012923D02*
X026438Y012865D01*
X026613Y012865D01*
X026496Y012865D02*
X026379Y012748D01*
X026379Y012923D02*
X026379Y013040D01*
X026438Y013098D01*
X026613Y013098D01*
X026613Y012748D01*
X027926Y012956D02*
X027926Y013073D01*
X027985Y013131D01*
X027985Y013266D02*
X027926Y013266D01*
X027985Y013266D02*
X028218Y013500D01*
X028276Y013500D01*
X028276Y013266D01*
X028218Y013131D02*
X028276Y013073D01*
X028276Y012956D01*
X028218Y012898D01*
X027985Y012898D01*
X027926Y012956D01*
X027985Y013635D02*
X027926Y013693D01*
X027926Y013810D01*
X027985Y013868D01*
X028218Y013868D01*
X028276Y013810D01*
X028276Y013693D01*
X028218Y013635D01*
X028160Y013635D01*
X028101Y013693D01*
X028101Y013868D01*
X028464Y014898D02*
X028581Y014898D01*
X028640Y014956D01*
X028640Y015073D02*
X028523Y015131D01*
X028464Y015131D01*
X028406Y015073D01*
X028406Y014956D01*
X028464Y014898D01*
X028640Y015073D02*
X028640Y015248D01*
X028406Y015248D01*
X028774Y015248D02*
X028774Y015190D01*
X029008Y014956D01*
X029008Y014898D01*
X029143Y014898D02*
X029259Y015015D01*
X029201Y015015D02*
X029376Y015015D01*
X029376Y014898D02*
X029376Y015248D01*
X029201Y015248D01*
X029143Y015190D01*
X029143Y015073D01*
X029201Y015015D01*
X029008Y015248D02*
X028774Y015248D01*
X028833Y015648D02*
X028774Y015706D01*
X028774Y015940D01*
X028833Y015998D01*
X028950Y015998D01*
X029008Y015940D01*
X029008Y015881D01*
X028950Y015823D01*
X028774Y015823D01*
X028640Y015706D02*
X028640Y015648D01*
X028640Y015706D02*
X028406Y015940D01*
X028406Y015998D01*
X028640Y015998D01*
X028833Y015648D02*
X028950Y015648D01*
X029008Y015706D01*
X029143Y015706D02*
X029201Y015648D01*
X029318Y015648D01*
X029376Y015706D01*
X029376Y015940D01*
X029318Y015998D01*
X029201Y015998D01*
X029143Y015940D01*
X029143Y016398D02*
X029259Y016515D01*
X029201Y016515D02*
X029376Y016515D01*
X029376Y016398D02*
X029376Y016748D01*
X029201Y016748D01*
X029143Y016690D01*
X029143Y016573D01*
X029201Y016515D01*
X029008Y016456D02*
X029008Y016398D01*
X029008Y016456D02*
X028774Y016690D01*
X028774Y016748D01*
X029008Y016748D01*
X028640Y016573D02*
X028464Y016573D01*
X028406Y016515D01*
X028406Y016456D01*
X028464Y016398D01*
X028581Y016398D01*
X028640Y016456D01*
X028640Y016573D01*
X028523Y016690D01*
X028406Y016748D01*
X029610Y013868D02*
X029551Y013810D01*
X029551Y013693D01*
X029610Y013635D01*
X029726Y013693D02*
X029785Y013635D01*
X029843Y013635D01*
X029901Y013693D01*
X029901Y013810D01*
X029843Y013868D01*
X029610Y013868D01*
X029726Y013868D02*
X029726Y013693D01*
X029668Y013500D02*
X029610Y013500D01*
X029551Y013441D01*
X029551Y013325D01*
X029610Y013266D01*
X029668Y013266D01*
X029726Y013325D01*
X029726Y013441D01*
X029668Y013500D01*
X029726Y013441D02*
X029785Y013500D01*
X029843Y013500D01*
X029901Y013441D01*
X029901Y013325D01*
X029843Y013266D01*
X029785Y013266D01*
X029726Y013325D01*
X029610Y013131D02*
X029551Y013073D01*
X029551Y012956D01*
X029610Y012898D01*
X029843Y012898D01*
X029901Y012956D01*
X029901Y013073D01*
X029843Y013131D01*
X030176Y013073D02*
X030235Y013131D01*
X030176Y013073D02*
X030176Y012956D01*
X030235Y012898D01*
X030468Y012898D01*
X030526Y012956D01*
X030526Y013073D01*
X030468Y013131D01*
X030468Y013266D02*
X030410Y013266D01*
X030351Y013325D01*
X030351Y013500D01*
X030235Y013500D02*
X030468Y013500D01*
X030526Y013441D01*
X030526Y013325D01*
X030468Y013266D01*
X030235Y013266D02*
X030176Y013325D01*
X030176Y013441D01*
X030235Y013500D01*
X030235Y013635D02*
X030176Y013693D01*
X030176Y013810D01*
X030235Y013868D01*
X030293Y013868D01*
X030351Y013810D01*
X030351Y013751D01*
X030351Y013810D02*
X030410Y013868D01*
X030468Y013868D01*
X030526Y013810D01*
X030526Y013693D01*
X030468Y013635D01*
X031801Y013693D02*
X031860Y013635D01*
X031801Y013693D02*
X031801Y013810D01*
X031860Y013868D01*
X031976Y013868D01*
X032035Y013810D01*
X032035Y013751D01*
X031976Y013635D01*
X032151Y013635D01*
X032151Y013868D01*
X032426Y013810D02*
X032776Y013810D01*
X032601Y013635D01*
X032601Y013868D01*
X032543Y013500D02*
X032485Y013500D01*
X032426Y013441D01*
X032426Y013325D01*
X032485Y013266D01*
X032543Y013266D01*
X032601Y013325D01*
X032601Y013441D01*
X032543Y013500D01*
X032601Y013441D02*
X032660Y013500D01*
X032718Y013500D01*
X032776Y013441D01*
X032776Y013325D01*
X032718Y013266D01*
X032660Y013266D01*
X032601Y013325D01*
X032485Y013131D02*
X032426Y013073D01*
X032426Y012956D01*
X032485Y012898D01*
X032718Y012898D01*
X032776Y012956D01*
X032776Y013073D01*
X032718Y013131D01*
X032151Y013073D02*
X032151Y012956D01*
X032093Y012898D01*
X031860Y012898D01*
X031801Y012956D01*
X031801Y013073D01*
X031860Y013131D01*
X031860Y013266D02*
X031918Y013266D01*
X031976Y013325D01*
X031976Y013441D01*
X031918Y013500D01*
X031860Y013500D01*
X031801Y013441D01*
X031801Y013325D01*
X031860Y013266D01*
X031976Y013325D02*
X032035Y013266D01*
X032093Y013266D01*
X032151Y013325D01*
X032151Y013441D01*
X032093Y013500D01*
X032035Y013500D01*
X031976Y013441D01*
X032093Y013131D02*
X032151Y013073D01*
X033523Y010248D02*
X033523Y009898D01*
X033640Y009898D02*
X033406Y009898D01*
X033640Y010131D02*
X033523Y010248D01*
X033774Y010190D02*
X033833Y010248D01*
X033950Y010248D01*
X034008Y010190D01*
X034008Y010131D01*
X033950Y010073D01*
X033774Y010073D01*
X033774Y009956D02*
X033774Y010190D01*
X033774Y009956D02*
X033833Y009898D01*
X033950Y009898D01*
X034008Y009956D01*
X034143Y009956D02*
X034201Y009898D01*
X034318Y009898D01*
X034376Y009956D01*
X034376Y010190D01*
X034318Y010248D01*
X034201Y010248D01*
X034143Y010190D01*
X034201Y008748D02*
X034318Y008748D01*
X034376Y008690D01*
X034376Y008456D01*
X034318Y008398D01*
X034201Y008398D01*
X034143Y008456D01*
X034008Y008456D02*
X034008Y008515D01*
X033950Y008573D01*
X033833Y008573D01*
X033774Y008515D01*
X033774Y008456D01*
X033833Y008398D01*
X033950Y008398D01*
X034008Y008456D01*
X033950Y008573D02*
X034008Y008631D01*
X034008Y008690D01*
X033950Y008748D01*
X033833Y008748D01*
X033774Y008690D01*
X033774Y008631D01*
X033833Y008573D01*
X033640Y008456D02*
X033406Y008690D01*
X033406Y008456D01*
X033464Y008398D01*
X033581Y008398D01*
X033640Y008456D01*
X033640Y008690D01*
X033581Y008748D01*
X033464Y008748D01*
X033406Y008690D01*
X033406Y007998D02*
X033523Y007940D01*
X033640Y007823D01*
X033464Y007823D01*
X033406Y007765D01*
X033406Y007706D01*
X033464Y007648D01*
X033581Y007648D01*
X033640Y007706D01*
X033640Y007823D01*
X033774Y007765D02*
X033774Y007706D01*
X033833Y007648D01*
X033950Y007648D01*
X034008Y007706D01*
X034008Y007765D01*
X033950Y007823D01*
X033833Y007823D01*
X033774Y007765D01*
X033833Y007823D02*
X033774Y007881D01*
X033774Y007940D01*
X033833Y007998D01*
X033950Y007998D01*
X034008Y007940D01*
X034008Y007881D01*
X033950Y007823D01*
X034143Y007706D02*
X034201Y007648D01*
X034318Y007648D01*
X034376Y007706D01*
X034376Y007940D01*
X034318Y007998D01*
X034201Y007998D01*
X034143Y007940D01*
X034143Y008690D02*
X034201Y008748D01*
X036276Y007513D02*
X036276Y007280D01*
X036510Y007513D01*
X036568Y007513D01*
X036626Y007455D01*
X036626Y007338D01*
X036568Y007280D01*
X036451Y007145D02*
X036451Y006911D01*
X036626Y007086D01*
X036276Y007086D01*
X036335Y006776D02*
X036276Y006718D01*
X036276Y006601D01*
X036335Y006543D01*
X036568Y006543D01*
X036626Y006601D01*
X036626Y006718D01*
X036568Y006776D01*
X037735Y007898D02*
X037676Y007956D01*
X037676Y008073D01*
X037735Y008131D01*
X037676Y008266D02*
X037676Y008500D01*
X037676Y008383D02*
X038026Y008383D01*
X037910Y008266D01*
X037968Y008131D02*
X038026Y008073D01*
X038026Y007956D01*
X037968Y007898D01*
X037735Y007898D01*
X037735Y008635D02*
X037676Y008635D01*
X037735Y008635D02*
X037968Y008868D01*
X038026Y008868D01*
X038026Y008635D01*
X037968Y009003D02*
X037910Y009003D01*
X037851Y009061D01*
X037851Y009236D01*
X037735Y009236D02*
X037968Y009236D01*
X038026Y009178D01*
X038026Y009061D01*
X037968Y009003D01*
X037735Y009003D02*
X037676Y009061D01*
X037676Y009178D01*
X037735Y009236D01*
X038235Y011148D02*
X038176Y011206D01*
X038176Y011323D01*
X038235Y011381D01*
X038176Y011516D02*
X038176Y011750D01*
X038176Y011633D02*
X038526Y011633D01*
X038410Y011516D01*
X038468Y011381D02*
X038526Y011323D01*
X038526Y011206D01*
X038468Y011148D01*
X038235Y011148D01*
X038235Y011885D02*
X038293Y011885D01*
X038351Y011943D01*
X038351Y012060D01*
X038293Y012118D01*
X038235Y012118D01*
X038176Y012060D01*
X038176Y011943D01*
X038235Y011885D01*
X038351Y011943D02*
X038410Y011885D01*
X038468Y011885D01*
X038526Y011943D01*
X038526Y012060D01*
X038468Y012118D01*
X038410Y012118D01*
X038351Y012060D01*
X038468Y012253D02*
X038526Y012311D01*
X038526Y012428D01*
X038468Y012486D01*
X038410Y012486D01*
X038176Y012253D01*
X038176Y012486D01*
X039676Y012486D02*
X039676Y012253D01*
X039676Y012370D02*
X040026Y012370D01*
X039910Y012253D01*
X039910Y012118D02*
X039851Y012060D01*
X039851Y011943D01*
X039910Y011885D01*
X039968Y011885D01*
X040026Y011943D01*
X040026Y012060D01*
X039968Y012118D01*
X039910Y012118D01*
X039851Y012060D02*
X039793Y012118D01*
X039735Y012118D01*
X039676Y012060D01*
X039676Y011943D01*
X039735Y011885D01*
X039793Y011885D01*
X039851Y011943D01*
X039676Y011750D02*
X039676Y011516D01*
X039676Y011633D02*
X040026Y011633D01*
X039910Y011516D01*
X039968Y011381D02*
X040026Y011323D01*
X040026Y011206D01*
X039968Y011148D01*
X039735Y011148D01*
X039676Y011206D01*
X039676Y011323D01*
X039735Y011381D01*
X042676Y011381D02*
X042793Y011265D01*
X042793Y011323D02*
X042793Y011148D01*
X042676Y011148D02*
X043026Y011148D01*
X043026Y011323D01*
X042968Y011381D01*
X042851Y011381D01*
X042793Y011323D01*
X042735Y011516D02*
X042676Y011575D01*
X042676Y011691D01*
X042735Y011750D01*
X042793Y011750D01*
X042851Y011691D01*
X042851Y011633D01*
X042851Y011691D02*
X042910Y011750D01*
X042968Y011750D01*
X043026Y011691D01*
X043026Y011575D01*
X042968Y011516D01*
X043026Y011885D02*
X043026Y012118D01*
X042968Y012118D01*
X042735Y011885D01*
X042676Y011885D01*
X046011Y010848D02*
X046128Y010790D01*
X046244Y010673D01*
X046069Y010673D01*
X046011Y010615D01*
X046011Y010556D01*
X046069Y010498D01*
X046186Y010498D01*
X046244Y010556D01*
X046244Y010673D01*
X046379Y010731D02*
X046613Y010498D01*
X046379Y010498D01*
X046379Y010731D02*
X046379Y010790D01*
X046438Y010848D01*
X046554Y010848D01*
X046613Y010790D01*
X046748Y010790D02*
X046806Y010848D01*
X046923Y010848D01*
X046981Y010790D01*
X046981Y010556D01*
X046923Y010498D01*
X046806Y010498D01*
X046748Y010556D01*
X046806Y010098D02*
X046923Y010098D01*
X046981Y010040D01*
X046981Y009806D01*
X046923Y009748D01*
X046806Y009748D01*
X046748Y009806D01*
X046613Y009806D02*
X046554Y009748D01*
X046438Y009748D01*
X046379Y009806D01*
X046379Y009865D01*
X046438Y009923D01*
X046496Y009923D01*
X046438Y009923D02*
X046379Y009981D01*
X046379Y010040D01*
X046438Y010098D01*
X046554Y010098D01*
X046613Y010040D01*
X046748Y010040D02*
X046806Y010098D01*
X046244Y010040D02*
X046186Y010098D01*
X046069Y010098D01*
X046011Y010040D01*
X046244Y009806D01*
X046186Y009748D01*
X046069Y009748D01*
X046011Y009806D01*
X046011Y010040D01*
X046244Y010040D02*
X046244Y009806D01*
X046244Y009348D02*
X046011Y009348D01*
X046069Y009231D02*
X046011Y009173D01*
X046011Y009056D01*
X046069Y008998D01*
X046186Y008998D01*
X046244Y009056D01*
X046244Y009173D02*
X046128Y009231D01*
X046069Y009231D01*
X046244Y009173D02*
X046244Y009348D01*
X046379Y009290D02*
X046438Y009348D01*
X046554Y009348D01*
X046613Y009290D01*
X046748Y009290D02*
X046806Y009348D01*
X046923Y009348D01*
X046981Y009290D01*
X046981Y009056D01*
X046923Y008998D01*
X046806Y008998D01*
X046748Y009056D01*
X046613Y008998D02*
X046379Y009231D01*
X046379Y009290D01*
X046379Y008998D02*
X046613Y008998D01*
X046554Y008598D02*
X046613Y008540D01*
X046554Y008598D02*
X046438Y008598D01*
X046379Y008540D01*
X046379Y008481D01*
X046613Y008248D01*
X046379Y008248D01*
X046244Y008306D02*
X046186Y008248D01*
X046069Y008248D01*
X046011Y008306D01*
X046011Y008540D01*
X046069Y008598D01*
X046186Y008598D01*
X046244Y008540D01*
X046244Y008481D01*
X046186Y008423D01*
X046011Y008423D01*
X046748Y008306D02*
X046806Y008248D01*
X046923Y008248D01*
X046981Y008306D01*
X046981Y008540D01*
X046923Y008598D01*
X046806Y008598D01*
X046748Y008540D01*
X046926Y007368D02*
X046926Y007135D01*
X046926Y007251D02*
X047276Y007251D01*
X047160Y007135D01*
X047160Y007000D02*
X047218Y007000D01*
X047276Y006941D01*
X047276Y006825D01*
X047218Y006766D01*
X047218Y006631D02*
X047276Y006573D01*
X047276Y006456D01*
X047218Y006398D01*
X046985Y006398D01*
X046926Y006456D01*
X046926Y006573D01*
X046985Y006631D01*
X046926Y006766D02*
X047160Y007000D01*
X046926Y007000D02*
X046926Y006766D01*
X046526Y006825D02*
X046526Y006941D01*
X046468Y007000D01*
X046410Y007000D01*
X046176Y006766D01*
X046176Y007000D01*
X046176Y007135D02*
X046410Y007368D01*
X046468Y007368D01*
X046526Y007310D01*
X046526Y007193D01*
X046468Y007135D01*
X046176Y007135D02*
X046176Y007368D01*
X046526Y006825D02*
X046468Y006766D01*
X046468Y006631D02*
X046526Y006573D01*
X046526Y006456D01*
X046468Y006398D01*
X046235Y006398D01*
X046176Y006456D01*
X046176Y006573D01*
X046235Y006631D01*
X047676Y006573D02*
X047735Y006631D01*
X047676Y006573D02*
X047676Y006456D01*
X047735Y006398D01*
X047968Y006398D01*
X048026Y006456D01*
X048026Y006573D01*
X047968Y006631D01*
X047968Y006766D02*
X048026Y006825D01*
X048026Y006941D01*
X047968Y007000D01*
X047910Y007000D01*
X047676Y006766D01*
X047676Y007000D01*
X047735Y007135D02*
X047968Y007368D01*
X047735Y007368D01*
X047676Y007310D01*
X047676Y007193D01*
X047735Y007135D01*
X047968Y007135D01*
X048026Y007193D01*
X048026Y007310D01*
X047968Y007368D01*
X049176Y006941D02*
X049176Y006825D01*
X049235Y006766D01*
X049351Y006766D02*
X049410Y006883D01*
X049410Y006941D01*
X049351Y007000D01*
X049235Y007000D01*
X049176Y006941D01*
X049351Y006766D02*
X049526Y006766D01*
X049526Y007000D01*
X049468Y006631D02*
X049526Y006573D01*
X049526Y006456D01*
X049468Y006398D01*
X049235Y006398D01*
X049176Y006456D01*
X049176Y006573D01*
X049235Y006631D01*
X049926Y006573D02*
X049985Y006631D01*
X049926Y006573D02*
X049926Y006456D01*
X049985Y006398D01*
X050218Y006398D01*
X050276Y006456D01*
X050276Y006573D01*
X050218Y006631D01*
X050101Y006766D02*
X050101Y007000D01*
X049926Y006941D02*
X050276Y006941D01*
X050101Y006766D01*
X051906Y006706D02*
X051964Y006648D01*
X052081Y006648D01*
X052140Y006706D01*
X051906Y006940D01*
X051906Y006706D01*
X052140Y006706D02*
X052140Y006940D01*
X052081Y006998D01*
X051964Y006998D01*
X051906Y006940D01*
X052274Y006648D02*
X052508Y006648D01*
X052391Y006648D02*
X052391Y006998D01*
X052508Y006881D01*
X052643Y006940D02*
X052701Y006998D01*
X052818Y006998D01*
X052876Y006940D01*
X052876Y006706D01*
X052818Y006648D01*
X052701Y006648D01*
X052643Y006706D01*
X052701Y007398D02*
X052643Y007456D01*
X052701Y007398D02*
X052818Y007398D01*
X052876Y007456D01*
X052876Y007690D01*
X052818Y007748D01*
X052701Y007748D01*
X052643Y007690D01*
X052508Y007573D02*
X052333Y007573D01*
X052274Y007515D01*
X052274Y007456D01*
X052333Y007398D01*
X052450Y007398D01*
X052508Y007456D01*
X052508Y007573D01*
X052391Y007690D01*
X052274Y007748D01*
X052333Y009148D02*
X052333Y009498D01*
X052508Y009323D01*
X052274Y009323D01*
X052140Y009206D02*
X051906Y009440D01*
X051906Y009206D01*
X051964Y009148D01*
X052081Y009148D01*
X052140Y009206D01*
X052140Y009440D01*
X052081Y009498D01*
X051964Y009498D01*
X051906Y009440D01*
X051906Y009898D02*
X052140Y009898D01*
X052023Y009898D02*
X052023Y010248D01*
X052140Y010131D01*
X052274Y010131D02*
X052333Y010073D01*
X052274Y010015D01*
X052274Y009956D01*
X052333Y009898D01*
X052450Y009898D01*
X052508Y009956D01*
X052643Y009956D02*
X052701Y009898D01*
X052818Y009898D01*
X052876Y009956D01*
X052876Y010190D01*
X052818Y010248D01*
X052701Y010248D01*
X052643Y010190D01*
X052508Y010190D02*
X052450Y010248D01*
X052333Y010248D01*
X052274Y010190D01*
X052274Y010131D01*
X052333Y010073D02*
X052391Y010073D01*
X052274Y010648D02*
X052508Y010648D01*
X052274Y010881D01*
X052274Y010940D01*
X052333Y010998D01*
X052450Y010998D01*
X052508Y010940D01*
X052643Y010940D02*
X052701Y010998D01*
X052818Y010998D01*
X052876Y010940D01*
X052876Y010706D01*
X052818Y010648D01*
X052701Y010648D01*
X052643Y010706D01*
X052140Y010706D02*
X052140Y010765D01*
X052081Y010823D01*
X051964Y010823D01*
X051906Y010765D01*
X051906Y010706D01*
X051964Y010648D01*
X052081Y010648D01*
X052140Y010706D01*
X052081Y010823D02*
X052140Y010881D01*
X052140Y010940D01*
X052081Y010998D01*
X051964Y010998D01*
X051906Y010940D01*
X051906Y010881D01*
X051964Y010823D01*
X051964Y011398D02*
X051964Y011748D01*
X052140Y011573D01*
X051906Y011573D01*
X052274Y011631D02*
X052274Y011690D01*
X052333Y011748D01*
X052450Y011748D01*
X052508Y011690D01*
X052643Y011690D02*
X052701Y011748D01*
X052818Y011748D01*
X052876Y011690D01*
X052876Y011456D01*
X052818Y011398D01*
X052701Y011398D01*
X052643Y011456D01*
X052508Y011398D02*
X052274Y011631D01*
X052274Y011398D02*
X052508Y011398D01*
X052450Y012148D02*
X052333Y012148D01*
X052274Y012206D01*
X052274Y012265D01*
X052333Y012323D01*
X052508Y012323D01*
X052508Y012206D01*
X052450Y012148D01*
X052508Y012323D02*
X052391Y012440D01*
X052274Y012498D01*
X052643Y012440D02*
X052643Y012323D01*
X052701Y012265D01*
X052876Y012265D01*
X052759Y012265D02*
X052643Y012148D01*
X052876Y012148D02*
X052876Y012498D01*
X052701Y012498D01*
X052643Y012440D01*
X051126Y012588D02*
X051126Y012705D01*
X051068Y012763D01*
X051010Y012763D01*
X050951Y012705D01*
X050951Y012588D01*
X051010Y012530D01*
X051068Y012530D01*
X051126Y012588D01*
X050951Y012588D02*
X050893Y012530D01*
X050835Y012530D01*
X050776Y012588D01*
X050776Y012705D01*
X050835Y012763D01*
X050893Y012763D01*
X050951Y012705D01*
X050776Y012395D02*
X050776Y012161D01*
X050776Y012278D02*
X051126Y012278D01*
X051010Y012161D01*
X051068Y012026D02*
X051126Y011968D01*
X051126Y011851D01*
X051068Y011793D01*
X050835Y011793D01*
X050776Y011851D01*
X050776Y011968D01*
X050835Y012026D01*
X050376Y011968D02*
X050376Y011851D01*
X050318Y011793D01*
X050085Y011793D01*
X050026Y011851D01*
X050026Y011968D01*
X050085Y012026D01*
X050026Y012161D02*
X050026Y012395D01*
X050026Y012278D02*
X050376Y012278D01*
X050260Y012161D01*
X050318Y012026D02*
X050376Y011968D01*
X050318Y012530D02*
X050260Y012530D01*
X050201Y012588D01*
X050201Y012763D01*
X050085Y012763D02*
X050318Y012763D01*
X050376Y012705D01*
X050376Y012588D01*
X050318Y012530D01*
X050085Y012530D02*
X050026Y012588D01*
X050026Y012705D01*
X050085Y012763D01*
X049626Y012763D02*
X049626Y012530D01*
X049451Y012530D01*
X049510Y012646D01*
X049510Y012705D01*
X049451Y012763D01*
X049335Y012763D01*
X049276Y012705D01*
X049276Y012588D01*
X049335Y012530D01*
X049276Y012395D02*
X049276Y012161D01*
X049276Y012278D02*
X049626Y012278D01*
X049510Y012161D01*
X049568Y012026D02*
X049626Y011968D01*
X049626Y011851D01*
X049568Y011793D01*
X049335Y011793D01*
X049276Y011851D01*
X049276Y011968D01*
X049335Y012026D01*
X048876Y011968D02*
X048876Y011851D01*
X048818Y011793D01*
X048585Y011793D01*
X048526Y011851D01*
X048526Y011968D01*
X048585Y012026D01*
X048526Y012161D02*
X048526Y012395D01*
X048526Y012278D02*
X048876Y012278D01*
X048760Y012161D01*
X048818Y012026D02*
X048876Y011968D01*
X048701Y012530D02*
X048701Y012705D01*
X048643Y012763D01*
X048585Y012763D01*
X048526Y012705D01*
X048526Y012588D01*
X048585Y012530D01*
X048701Y012530D01*
X048818Y012646D01*
X048876Y012763D01*
X048126Y012763D02*
X048126Y012530D01*
X048126Y012763D02*
X048068Y012763D01*
X047835Y012530D01*
X047776Y012530D01*
X047776Y012395D02*
X047776Y012161D01*
X047776Y012278D02*
X048126Y012278D01*
X048010Y012161D01*
X048068Y012026D02*
X048126Y011968D01*
X048126Y011851D01*
X048068Y011793D01*
X047835Y011793D01*
X047776Y011851D01*
X047776Y011968D01*
X047835Y012026D01*
X047376Y011968D02*
X047376Y011851D01*
X047318Y011793D01*
X047085Y011793D01*
X047026Y011851D01*
X047026Y011968D01*
X047085Y012026D01*
X047026Y012161D02*
X047260Y012395D01*
X047318Y012395D01*
X047376Y012336D01*
X047376Y012220D01*
X047318Y012161D01*
X047318Y012026D02*
X047376Y011968D01*
X047026Y012161D02*
X047026Y012395D01*
X047085Y012530D02*
X047026Y012588D01*
X047026Y012705D01*
X047085Y012763D01*
X047143Y012763D01*
X047201Y012705D01*
X047201Y012646D01*
X047201Y012705D02*
X047260Y012763D01*
X047318Y012763D01*
X047376Y012705D01*
X047376Y012588D01*
X047318Y012530D01*
X046626Y012530D02*
X046626Y012763D01*
X046568Y012763D01*
X046335Y012530D01*
X046276Y012530D01*
X046276Y012395D02*
X046276Y012161D01*
X046510Y012395D01*
X046568Y012395D01*
X046626Y012336D01*
X046626Y012220D01*
X046568Y012161D01*
X046568Y012026D02*
X046626Y011968D01*
X046626Y011851D01*
X046568Y011793D01*
X046335Y011793D01*
X046276Y011851D01*
X046276Y011968D01*
X046335Y012026D01*
X049776Y010530D02*
X049835Y010530D01*
X050068Y010763D01*
X050126Y010763D01*
X050126Y010530D01*
X050068Y010395D02*
X049951Y010395D01*
X049893Y010336D01*
X049893Y010161D01*
X049776Y010161D02*
X050126Y010161D01*
X050126Y010336D01*
X050068Y010395D01*
X049893Y010278D02*
X049776Y010395D01*
X052643Y009440D02*
X052701Y009498D01*
X052818Y009498D01*
X052876Y009440D01*
X052876Y009206D01*
X052818Y009148D01*
X052701Y009148D01*
X052643Y009206D01*
X054176Y011898D02*
X054526Y011898D01*
X054526Y012073D01*
X054468Y012131D01*
X054351Y012131D01*
X054293Y012073D01*
X054293Y011898D01*
X054293Y012015D02*
X054176Y012131D01*
X054176Y012266D02*
X054176Y012500D01*
X054176Y012383D02*
X054526Y012383D01*
X054410Y012266D01*
X054351Y012635D02*
X054351Y012868D01*
X054176Y012810D02*
X054526Y012810D01*
X054351Y012635D01*
X055676Y012693D02*
X055735Y012635D01*
X055676Y012693D02*
X055676Y012810D01*
X055735Y012868D01*
X055793Y012868D01*
X055851Y012810D01*
X055851Y012751D01*
X055851Y012810D02*
X055910Y012868D01*
X055968Y012868D01*
X056026Y012810D01*
X056026Y012693D01*
X055968Y012635D01*
X056026Y012383D02*
X055676Y012383D01*
X055676Y012266D02*
X055676Y012500D01*
X055910Y012266D02*
X056026Y012383D01*
X055968Y012131D02*
X055851Y012131D01*
X055793Y012073D01*
X055793Y011898D01*
X055793Y012015D02*
X055676Y012131D01*
X055676Y011898D02*
X056026Y011898D01*
X056026Y012073D01*
X055968Y012131D01*
X056926Y012131D02*
X057043Y012015D01*
X057043Y012073D02*
X057043Y011898D01*
X056926Y011898D02*
X057276Y011898D01*
X057276Y012073D01*
X057218Y012131D01*
X057101Y012131D01*
X057043Y012073D01*
X057160Y012266D02*
X057276Y012383D01*
X056926Y012383D01*
X056926Y012266D02*
X056926Y012500D01*
X056926Y012635D02*
X056926Y012868D01*
X056926Y012751D02*
X057276Y012751D01*
X057160Y012635D01*
X058676Y012635D02*
X058910Y012868D01*
X058968Y012868D01*
X059026Y012810D01*
X059026Y012693D01*
X058968Y012635D01*
X059026Y012383D02*
X058676Y012383D01*
X058676Y012266D02*
X058676Y012500D01*
X058676Y012635D02*
X058676Y012868D01*
X059026Y012383D02*
X058910Y012266D01*
X058968Y012131D02*
X058851Y012131D01*
X058793Y012073D01*
X058793Y011898D01*
X058793Y012015D02*
X058676Y012131D01*
X058676Y011898D02*
X059026Y011898D01*
X059026Y012073D01*
X058968Y012131D01*
X060426Y012131D02*
X060543Y012015D01*
X060543Y012073D02*
X060543Y011898D01*
X060426Y011898D02*
X060776Y011898D01*
X060776Y012073D01*
X060718Y012131D01*
X060601Y012131D01*
X060543Y012073D01*
X060660Y012266D02*
X060776Y012383D01*
X060426Y012383D01*
X060426Y012266D02*
X060426Y012500D01*
X060485Y012635D02*
X060718Y012868D01*
X060485Y012868D01*
X060426Y012810D01*
X060426Y012693D01*
X060485Y012635D01*
X060718Y012635D01*
X060776Y012693D01*
X060776Y012810D01*
X060718Y012868D01*
X062426Y012441D02*
X062485Y012500D01*
X062718Y012500D01*
X062776Y012441D01*
X062776Y012325D01*
X062718Y012266D01*
X062660Y012266D01*
X062601Y012325D01*
X062601Y012500D01*
X062426Y012441D02*
X062426Y012325D01*
X062485Y012266D01*
X062426Y012131D02*
X062543Y012015D01*
X062543Y012073D02*
X062543Y011898D01*
X062426Y011898D02*
X062776Y011898D01*
X062776Y012073D01*
X062718Y012131D01*
X062601Y012131D01*
X062543Y012073D01*
X054876Y015956D02*
X054818Y015898D01*
X054701Y015898D01*
X054643Y015956D01*
X054508Y015956D02*
X054450Y015898D01*
X054333Y015898D01*
X054274Y015956D01*
X054274Y016015D01*
X054333Y016073D01*
X054391Y016073D01*
X054333Y016073D02*
X054274Y016131D01*
X054274Y016190D01*
X054333Y016248D01*
X054450Y016248D01*
X054508Y016190D01*
X054643Y016190D02*
X054701Y016248D01*
X054818Y016248D01*
X054876Y016190D01*
X054876Y015956D01*
X054140Y015898D02*
X053906Y016131D01*
X053906Y016190D01*
X053964Y016248D01*
X054081Y016248D01*
X054140Y016190D01*
X054140Y015898D02*
X053906Y015898D01*
X053376Y015956D02*
X053376Y016190D01*
X053318Y016248D01*
X053201Y016248D01*
X053143Y016190D01*
X053008Y016190D02*
X052950Y016248D01*
X052833Y016248D01*
X052774Y016190D01*
X052774Y016131D01*
X052833Y016073D01*
X052774Y016015D01*
X052774Y015956D01*
X052833Y015898D01*
X052950Y015898D01*
X053008Y015956D01*
X053143Y015956D02*
X053201Y015898D01*
X053318Y015898D01*
X053376Y015956D01*
X052891Y016073D02*
X052833Y016073D01*
X052640Y015956D02*
X052581Y015898D01*
X052464Y015898D01*
X052406Y015956D01*
X052406Y016015D01*
X052464Y016073D01*
X052523Y016073D01*
X052464Y016073D02*
X052406Y016131D01*
X052406Y016190D01*
X052464Y016248D01*
X052581Y016248D01*
X052640Y016190D01*
X053214Y018648D02*
X053214Y018998D01*
X053390Y018823D01*
X053156Y018823D01*
X053524Y018648D02*
X053758Y018648D01*
X053641Y018648D02*
X053641Y018998D01*
X053758Y018881D01*
X053893Y018940D02*
X053951Y018998D01*
X054068Y018998D01*
X054126Y018940D01*
X054126Y018706D01*
X054068Y018648D01*
X053951Y018648D01*
X053893Y018706D01*
X053026Y022638D02*
X052793Y022638D01*
X052676Y022755D01*
X052793Y022872D01*
X053026Y022872D01*
X053026Y023006D02*
X052676Y023006D01*
X052676Y023181D01*
X052735Y023240D01*
X052968Y023240D01*
X053026Y023181D01*
X053026Y023006D01*
X053026Y023375D02*
X053026Y023550D01*
X052968Y023608D01*
X052735Y023608D01*
X052676Y023550D01*
X052676Y023375D01*
X053026Y023375D01*
X052968Y023743D02*
X052735Y023743D01*
X052676Y023801D01*
X052676Y023918D01*
X052735Y023976D01*
X052968Y023976D01*
X053026Y023918D01*
X053026Y023801D01*
X052968Y023743D01*
X053026Y024111D02*
X052735Y024111D01*
X052676Y024170D01*
X052676Y024286D01*
X052735Y024345D01*
X053026Y024345D01*
X053026Y024480D02*
X053026Y024713D01*
X053026Y024596D02*
X052676Y024596D01*
X048376Y022940D02*
X048376Y022706D01*
X048318Y022648D01*
X048201Y022648D01*
X048143Y022706D01*
X048008Y022706D02*
X048008Y022765D01*
X047950Y022823D01*
X047833Y022823D01*
X047774Y022765D01*
X047774Y022706D01*
X047833Y022648D01*
X047950Y022648D01*
X048008Y022706D01*
X047950Y022823D02*
X048008Y022881D01*
X048008Y022940D01*
X047950Y022998D01*
X047833Y022998D01*
X047774Y022940D01*
X047774Y022881D01*
X047833Y022823D01*
X048143Y022940D02*
X048201Y022998D01*
X048318Y022998D01*
X048376Y022940D01*
X048318Y022248D02*
X048376Y022190D01*
X048376Y021956D01*
X048318Y021898D01*
X048201Y021898D01*
X048143Y021956D01*
X048008Y021898D02*
X047774Y021898D01*
X047891Y021898D02*
X047891Y022248D01*
X048008Y022131D01*
X048143Y022190D02*
X048201Y022248D01*
X048318Y022248D01*
X047640Y022190D02*
X047581Y022248D01*
X047464Y022248D01*
X047406Y022190D01*
X047406Y022131D01*
X047640Y021898D01*
X047406Y021898D01*
X047833Y018498D02*
X048008Y018323D01*
X047774Y018323D01*
X047833Y018148D02*
X047833Y018498D01*
X048143Y018440D02*
X048143Y018323D01*
X048201Y018265D01*
X048376Y018265D01*
X048259Y018265D02*
X048143Y018148D01*
X048376Y018148D02*
X048376Y018498D01*
X048201Y018498D01*
X048143Y018440D01*
X048201Y017748D02*
X048143Y017690D01*
X048143Y017573D01*
X048201Y017515D01*
X048376Y017515D01*
X048259Y017515D02*
X048143Y017398D01*
X048008Y017456D02*
X047950Y017398D01*
X047833Y017398D01*
X047774Y017456D01*
X047774Y017573D01*
X047833Y017631D01*
X047891Y017631D01*
X048008Y017573D01*
X048008Y017748D01*
X047774Y017748D01*
X048201Y017748D02*
X048376Y017748D01*
X048376Y017398D01*
X042968Y025898D02*
X042735Y025898D01*
X042676Y025956D01*
X042676Y026073D01*
X042735Y026131D01*
X042735Y026266D02*
X042676Y026266D01*
X042735Y026266D02*
X042968Y026500D01*
X043026Y026500D01*
X043026Y026266D01*
X042968Y026131D02*
X043026Y026073D01*
X043026Y025956D01*
X042968Y025898D01*
X042851Y026635D02*
X042851Y026868D01*
X042676Y026810D02*
X043026Y026810D01*
X042851Y026635D01*
X040026Y026693D02*
X040026Y026810D01*
X039968Y026868D01*
X039910Y026868D01*
X039851Y026810D01*
X039851Y026693D01*
X039910Y026635D01*
X039968Y026635D01*
X040026Y026693D01*
X039851Y026693D02*
X039793Y026635D01*
X039735Y026635D01*
X039676Y026693D01*
X039676Y026810D01*
X039735Y026868D01*
X039793Y026868D01*
X039851Y026810D01*
X039851Y027003D02*
X039851Y027178D01*
X039793Y027236D01*
X039735Y027236D01*
X039676Y027178D01*
X039676Y027061D01*
X039735Y027003D01*
X039851Y027003D01*
X039968Y027120D01*
X040026Y027236D01*
X039676Y026500D02*
X039676Y026266D01*
X039676Y026383D02*
X040026Y026383D01*
X039910Y026266D01*
X039968Y026131D02*
X040026Y026073D01*
X040026Y025956D01*
X039968Y025898D01*
X039735Y025898D01*
X039676Y025956D01*
X039676Y026073D01*
X039735Y026131D01*
X033276Y026073D02*
X033218Y026131D01*
X033101Y026131D01*
X033043Y026073D01*
X033043Y025898D01*
X033043Y026015D02*
X032926Y026131D01*
X032926Y026266D02*
X032985Y026266D01*
X033218Y026500D01*
X033276Y026500D01*
X033276Y026266D01*
X033276Y026073D02*
X033276Y025898D01*
X032926Y025898D01*
X032526Y025956D02*
X032468Y025898D01*
X032235Y025898D01*
X032176Y025956D01*
X032176Y026073D01*
X032235Y026131D01*
X032235Y026266D02*
X032176Y026325D01*
X032176Y026441D01*
X032235Y026500D01*
X032468Y026500D01*
X032526Y026441D01*
X032526Y026325D01*
X032468Y026266D01*
X032410Y026266D01*
X032351Y026325D01*
X032351Y026500D01*
X032351Y026635D02*
X032351Y026810D01*
X032293Y026868D01*
X032235Y026868D01*
X032176Y026810D01*
X032176Y026693D01*
X032235Y026635D01*
X032351Y026635D01*
X032468Y026751D01*
X032526Y026868D01*
X032926Y026810D02*
X033276Y026810D01*
X033101Y026635D01*
X033101Y026868D01*
X032468Y026131D02*
X032526Y026073D01*
X032526Y025956D01*
X031776Y025898D02*
X031776Y026073D01*
X031718Y026131D01*
X031601Y026131D01*
X031543Y026073D01*
X031543Y025898D01*
X031543Y026015D02*
X031426Y026131D01*
X031601Y026266D02*
X031601Y026500D01*
X031543Y026635D02*
X031601Y026693D01*
X031601Y026810D01*
X031543Y026868D01*
X031485Y026868D01*
X031426Y026810D01*
X031426Y026693D01*
X031485Y026635D01*
X031543Y026635D01*
X031601Y026693D02*
X031660Y026635D01*
X031718Y026635D01*
X031776Y026693D01*
X031776Y026810D01*
X031718Y026868D01*
X031660Y026868D01*
X031601Y026810D01*
X031426Y026441D02*
X031776Y026441D01*
X031601Y026266D01*
X031426Y025898D02*
X031776Y025898D01*
X030376Y026956D02*
X030318Y026898D01*
X030201Y026898D01*
X030143Y026956D01*
X030008Y026898D02*
X029774Y026898D01*
X029891Y026898D02*
X029891Y027248D01*
X030008Y027131D01*
X030143Y027190D02*
X030201Y027248D01*
X030318Y027248D01*
X030376Y027190D01*
X030376Y026956D01*
X030376Y027648D02*
X030376Y027998D01*
X030201Y027998D01*
X030143Y027940D01*
X030143Y027823D01*
X030201Y027765D01*
X030376Y027765D01*
X030259Y027765D02*
X030143Y027648D01*
X030008Y027648D02*
X030008Y027706D01*
X029774Y027940D01*
X029774Y027998D01*
X030008Y027998D01*
X029640Y027998D02*
X029406Y027998D01*
X029406Y027940D01*
X029640Y027706D01*
X029640Y027648D01*
X029464Y027248D02*
X029640Y027073D01*
X029406Y027073D01*
X029271Y027190D02*
X029213Y027248D01*
X029096Y027248D01*
X029038Y027190D01*
X029038Y027131D01*
X029271Y026898D01*
X029038Y026898D01*
X029464Y026898D02*
X029464Y027248D01*
X029464Y028398D02*
X029581Y028398D01*
X029640Y028456D01*
X029774Y028398D02*
X030008Y028398D01*
X029891Y028398D02*
X029891Y028748D01*
X030008Y028631D01*
X030143Y028573D02*
X030201Y028515D01*
X030376Y028515D01*
X030259Y028515D02*
X030143Y028398D01*
X030143Y028573D02*
X030143Y028690D01*
X030201Y028748D01*
X030376Y028748D01*
X030376Y028398D01*
X030376Y029148D02*
X030376Y029498D01*
X030201Y029498D01*
X030143Y029440D01*
X030143Y029323D01*
X030201Y029265D01*
X030376Y029265D01*
X030259Y029265D02*
X030143Y029148D01*
X030008Y029148D02*
X029774Y029148D01*
X029891Y029148D02*
X029891Y029498D01*
X030008Y029381D01*
X029640Y029440D02*
X029581Y029498D01*
X029464Y029498D01*
X029406Y029440D01*
X029406Y029381D01*
X029464Y029323D01*
X029406Y029265D01*
X029406Y029206D01*
X029464Y029148D01*
X029581Y029148D01*
X029640Y029206D01*
X029523Y029323D02*
X029464Y029323D01*
X029271Y029440D02*
X029213Y029498D01*
X029096Y029498D01*
X029038Y029440D01*
X029038Y029381D01*
X029271Y029148D01*
X029038Y029148D01*
X029096Y028748D02*
X029038Y028690D01*
X029271Y028456D01*
X029213Y028398D01*
X029096Y028398D01*
X029038Y028456D01*
X029038Y028690D01*
X029096Y028748D02*
X029213Y028748D01*
X029271Y028690D01*
X029271Y028456D01*
X029406Y028456D02*
X029464Y028398D01*
X029406Y028456D02*
X029406Y028515D01*
X029464Y028573D01*
X029523Y028573D01*
X029464Y028573D02*
X029406Y028631D01*
X029406Y028690D01*
X029464Y028748D01*
X029581Y028748D01*
X029640Y028690D01*
X029581Y029898D02*
X029464Y029898D01*
X029406Y029956D01*
X029406Y030015D01*
X029464Y030073D01*
X029523Y030073D01*
X029464Y030073D02*
X029406Y030131D01*
X029406Y030190D01*
X029464Y030248D01*
X029581Y030248D01*
X029640Y030190D01*
X029640Y029956D02*
X029581Y029898D01*
X029774Y029898D02*
X030008Y029898D01*
X029891Y029898D02*
X029891Y030248D01*
X030008Y030131D01*
X030143Y030073D02*
X030201Y030015D01*
X030376Y030015D01*
X030259Y030015D02*
X030143Y029898D01*
X030143Y030073D02*
X030143Y030190D01*
X030201Y030248D01*
X030376Y030248D01*
X030376Y029898D01*
X030376Y030648D02*
X030376Y030998D01*
X030201Y030998D01*
X030143Y030940D01*
X030143Y030823D01*
X030201Y030765D01*
X030376Y030765D01*
X030259Y030765D02*
X030143Y030648D01*
X030008Y030823D02*
X029774Y030823D01*
X029640Y030706D02*
X029640Y030648D01*
X029640Y030706D02*
X029406Y030940D01*
X029406Y030998D01*
X029640Y030998D01*
X029833Y030998D02*
X030008Y030823D01*
X029833Y030648D02*
X029833Y030998D01*
X029155Y030248D02*
X029155Y029898D01*
X029271Y029898D02*
X029038Y029898D01*
X029271Y030131D02*
X029155Y030248D01*
X028068Y025748D02*
X028126Y025690D01*
X028126Y025456D01*
X028068Y025398D01*
X027951Y025398D01*
X027893Y025456D01*
X027758Y025398D02*
X027524Y025398D01*
X027641Y025398D02*
X027641Y025748D01*
X027758Y025631D01*
X027893Y025690D02*
X027951Y025748D01*
X028068Y025748D01*
X027390Y025573D02*
X027156Y025573D01*
X027021Y025573D02*
X026788Y025573D01*
X026846Y025398D02*
X026846Y025748D01*
X027021Y025573D01*
X027214Y025398D02*
X027214Y025748D01*
X027390Y025573D01*
X027214Y024998D02*
X027390Y024823D01*
X027156Y024823D01*
X027021Y024706D02*
X026963Y024648D01*
X026846Y024648D01*
X026788Y024706D01*
X026788Y024765D01*
X026846Y024823D01*
X026905Y024823D01*
X026846Y024823D02*
X026788Y024881D01*
X026788Y024940D01*
X026846Y024998D01*
X026963Y024998D01*
X027021Y024940D01*
X027214Y024998D02*
X027214Y024648D01*
X027524Y024648D02*
X027758Y024648D01*
X027641Y024648D02*
X027641Y024998D01*
X027758Y024881D01*
X027893Y024940D02*
X027951Y024998D01*
X028068Y024998D01*
X028126Y024940D01*
X028126Y024706D01*
X028068Y024648D01*
X027951Y024648D01*
X027893Y024706D01*
X025876Y022690D02*
X025876Y022456D01*
X025818Y022398D01*
X025701Y022398D01*
X025643Y022456D01*
X025508Y022398D02*
X025274Y022398D01*
X025391Y022398D02*
X025391Y022748D01*
X025508Y022631D01*
X025643Y022690D02*
X025701Y022748D01*
X025818Y022748D01*
X025876Y022690D01*
X025140Y022573D02*
X024906Y022573D01*
X024771Y022573D02*
X024596Y022573D01*
X024538Y022515D01*
X024538Y022456D01*
X024596Y022398D01*
X024713Y022398D01*
X024771Y022456D01*
X024771Y022573D01*
X024655Y022690D01*
X024538Y022748D01*
X024964Y022748D02*
X024964Y022398D01*
X025140Y022573D02*
X024964Y022748D01*
X024276Y021486D02*
X024276Y021253D01*
X024101Y021253D01*
X024160Y021370D01*
X024160Y021428D01*
X024101Y021486D01*
X023985Y021486D01*
X023926Y021428D01*
X023926Y021311D01*
X023985Y021253D01*
X024101Y021118D02*
X024101Y020885D01*
X024276Y021060D01*
X023926Y021060D01*
X023926Y020750D02*
X023926Y020516D01*
X023926Y020633D02*
X024276Y020633D01*
X024160Y020516D01*
X024218Y020381D02*
X024276Y020323D01*
X024276Y020206D01*
X024218Y020148D01*
X023985Y020148D01*
X023926Y020206D01*
X023926Y020323D01*
X023985Y020381D01*
X016568Y030425D02*
X016335Y030425D01*
X016276Y030483D01*
X016276Y030600D01*
X016335Y030658D01*
X016276Y030793D02*
X016276Y031026D01*
X016276Y030910D02*
X016626Y030910D01*
X016510Y030793D01*
X016568Y030658D02*
X016626Y030600D01*
X016626Y030483D01*
X016568Y030425D01*
X016568Y031161D02*
X016335Y031161D01*
X016568Y031395D01*
X016335Y031395D01*
X016276Y031336D01*
X016276Y031220D01*
X016335Y031161D01*
X016568Y031161D02*
X016626Y031220D01*
X016626Y031336D01*
X016568Y031395D01*
X016568Y031530D02*
X016626Y031588D01*
X016626Y031705D01*
X016568Y031763D01*
X016510Y031763D01*
X016451Y031705D01*
X016393Y031763D01*
X016335Y031763D01*
X016276Y031705D01*
X016276Y031588D01*
X016335Y031530D01*
X016451Y031646D02*
X016451Y031705D01*
X046906Y036898D02*
X047140Y036898D01*
X046906Y037131D01*
X046906Y037190D01*
X046964Y037248D01*
X047081Y037248D01*
X047140Y037190D01*
X047274Y037190D02*
X047333Y037248D01*
X047450Y037248D01*
X047508Y037190D01*
X047643Y037190D02*
X047643Y037073D01*
X047701Y037015D01*
X047876Y037015D01*
X047759Y037015D02*
X047643Y036898D01*
X047508Y036898D02*
X047274Y037131D01*
X047274Y037190D01*
X047274Y036898D02*
X047508Y036898D01*
X047643Y037190D02*
X047701Y037248D01*
X047876Y037248D01*
X047876Y036898D01*
X047876Y037648D02*
X047876Y037998D01*
X047701Y037998D01*
X047643Y037940D01*
X047643Y037823D01*
X047701Y037765D01*
X047876Y037765D01*
X047759Y037765D02*
X047643Y037648D01*
X047508Y037648D02*
X047274Y037648D01*
X047391Y037648D02*
X047391Y037998D01*
X047508Y037881D01*
X047140Y037823D02*
X047023Y037881D01*
X046964Y037881D01*
X046906Y037823D01*
X046906Y037706D01*
X046964Y037648D01*
X047081Y037648D01*
X047140Y037706D01*
X047140Y037823D02*
X047140Y037998D01*
X046906Y037998D01*
X049406Y036440D02*
X049464Y036498D01*
X049581Y036498D01*
X049640Y036440D01*
X049774Y036498D02*
X050008Y036498D01*
X050008Y036323D01*
X049891Y036381D01*
X049833Y036381D01*
X049774Y036323D01*
X049774Y036206D01*
X049833Y036148D01*
X049950Y036148D01*
X050008Y036206D01*
X050143Y036206D02*
X050201Y036148D01*
X050318Y036148D01*
X050376Y036206D01*
X050376Y036440D01*
X050318Y036498D01*
X050201Y036498D01*
X050143Y036440D01*
X049640Y036148D02*
X049406Y036381D01*
X049406Y036440D01*
X049406Y036148D02*
X049640Y036148D01*
X049581Y035248D02*
X049464Y035248D01*
X049406Y035190D01*
X049406Y035131D01*
X049464Y035073D01*
X049406Y035015D01*
X049406Y034956D01*
X049464Y034898D01*
X049581Y034898D01*
X049640Y034956D01*
X049774Y034956D02*
X049833Y034898D01*
X049950Y034898D01*
X050008Y034956D01*
X050008Y035073D02*
X049891Y035131D01*
X049833Y035131D01*
X049774Y035073D01*
X049774Y034956D01*
X050008Y035073D02*
X050008Y035248D01*
X049774Y035248D01*
X049640Y035190D02*
X049581Y035248D01*
X049523Y035073D02*
X049464Y035073D01*
X050143Y035190D02*
X050201Y035248D01*
X050318Y035248D01*
X050376Y035190D01*
X050376Y034956D01*
X050318Y034898D01*
X050201Y034898D01*
X050143Y034956D01*
X049318Y033248D02*
X049376Y033190D01*
X049376Y032956D01*
X049318Y032898D01*
X049201Y032898D01*
X049143Y032956D01*
X049008Y032956D02*
X048950Y032898D01*
X048833Y032898D01*
X048774Y032956D01*
X048774Y033073D01*
X048833Y033131D01*
X048891Y033131D01*
X049008Y033073D01*
X049008Y033248D01*
X048774Y033248D01*
X048640Y033073D02*
X048464Y033248D01*
X048464Y032898D01*
X048406Y033073D02*
X048640Y033073D01*
X049143Y033190D02*
X049201Y033248D01*
X049318Y033248D01*
X048526Y032368D02*
X048468Y032251D01*
X048351Y032135D01*
X048351Y032310D01*
X048293Y032368D01*
X048235Y032368D01*
X048176Y032310D01*
X048176Y032193D01*
X048235Y032135D01*
X048351Y032135D01*
X048293Y032000D02*
X048351Y031941D01*
X048351Y031766D01*
X048235Y031766D01*
X048176Y031825D01*
X048176Y031941D01*
X048235Y032000D01*
X048293Y032000D01*
X048468Y031883D02*
X048351Y031766D01*
X048351Y031631D02*
X048293Y031573D01*
X048293Y031398D01*
X048293Y031515D02*
X048176Y031631D01*
X048351Y031631D02*
X048468Y031631D01*
X048526Y031573D01*
X048526Y031398D01*
X048176Y031398D01*
X047776Y031398D02*
X047776Y031573D01*
X047718Y031631D01*
X047601Y031631D01*
X047543Y031573D01*
X047543Y031398D01*
X047543Y031515D02*
X047426Y031631D01*
X047485Y031766D02*
X047426Y031825D01*
X047426Y031941D01*
X047485Y032000D01*
X047543Y032000D01*
X047601Y031941D01*
X047601Y031766D01*
X047485Y031766D01*
X047601Y031766D02*
X047718Y031883D01*
X047776Y032000D01*
X047776Y032135D02*
X047601Y032135D01*
X047660Y032251D01*
X047660Y032310D01*
X047601Y032368D01*
X047485Y032368D01*
X047426Y032310D01*
X047426Y032193D01*
X047485Y032135D01*
X047776Y032135D02*
X047776Y032368D01*
X048526Y032000D02*
X048468Y031883D01*
X047776Y031398D02*
X047426Y031398D01*
X048176Y029368D02*
X048176Y029135D01*
X048176Y029251D02*
X048526Y029251D01*
X048410Y029135D01*
X048176Y029000D02*
X048176Y028766D01*
X048176Y028883D02*
X048526Y028883D01*
X048410Y028766D01*
X048468Y028631D02*
X048526Y028573D01*
X048526Y028456D01*
X048468Y028398D01*
X048235Y028398D01*
X048176Y028456D01*
X048176Y028573D01*
X048235Y028631D01*
X047776Y028573D02*
X047776Y028456D01*
X047718Y028398D01*
X047485Y028398D01*
X047426Y028456D01*
X047426Y028573D01*
X047485Y028631D01*
X047485Y028766D02*
X047426Y028766D01*
X047485Y028766D02*
X047718Y029000D01*
X047776Y029000D01*
X047776Y028766D01*
X047718Y028631D02*
X047776Y028573D01*
X056656Y030956D02*
X056714Y030898D01*
X056831Y030898D01*
X056890Y030956D01*
X056773Y031073D02*
X056714Y031073D01*
X056656Y031015D01*
X056656Y030956D01*
X056714Y031073D02*
X056656Y031131D01*
X056656Y031190D01*
X056714Y031248D01*
X056831Y031248D01*
X056890Y031190D01*
X057024Y031073D02*
X057258Y031073D01*
X057083Y031248D01*
X057083Y030898D01*
X057393Y030956D02*
X057451Y030898D01*
X057568Y030898D01*
X057626Y030956D01*
X057626Y031190D01*
X057568Y031248D01*
X057451Y031248D01*
X057393Y031190D01*
X057410Y029368D02*
X057351Y029310D01*
X057293Y029368D01*
X057235Y029368D01*
X057176Y029310D01*
X057176Y029193D01*
X057235Y029135D01*
X057176Y029000D02*
X057176Y028766D01*
X057176Y028883D02*
X057526Y028883D01*
X057410Y028766D01*
X057468Y028631D02*
X057526Y028573D01*
X057526Y028456D01*
X057468Y028398D01*
X057235Y028398D01*
X057176Y028456D01*
X057176Y028573D01*
X057235Y028631D01*
X057468Y029135D02*
X057526Y029193D01*
X057526Y029310D01*
X057468Y029368D01*
X057410Y029368D01*
X057351Y029310D02*
X057351Y029251D01*
X057926Y028941D02*
X057985Y029000D01*
X058218Y029000D01*
X058276Y028941D01*
X058276Y028825D01*
X058218Y028766D01*
X058160Y028766D01*
X058101Y028825D01*
X058101Y029000D01*
X057926Y028941D02*
X057926Y028825D01*
X057985Y028766D01*
X057985Y028631D02*
X057926Y028573D01*
X057926Y028456D01*
X057985Y028398D01*
X058218Y028398D01*
X058276Y028456D01*
X058276Y028573D01*
X058218Y028631D01*
X063774Y028440D02*
X063774Y028381D01*
X063833Y028323D01*
X063774Y028265D01*
X063774Y028206D01*
X063833Y028148D01*
X063950Y028148D01*
X064008Y028206D01*
X064143Y028206D02*
X064143Y028498D01*
X064008Y028440D02*
X063950Y028498D01*
X063833Y028498D01*
X063774Y028440D01*
X063833Y028323D02*
X063891Y028323D01*
X064143Y028206D02*
X064201Y028148D01*
X064318Y028148D01*
X064376Y028206D01*
X064376Y028498D01*
X066906Y027573D02*
X067140Y027573D01*
X066964Y027748D01*
X066964Y027398D01*
X067274Y027456D02*
X067333Y027398D01*
X067450Y027398D01*
X067508Y027456D01*
X067643Y027456D02*
X067701Y027398D01*
X067818Y027398D01*
X067876Y027456D01*
X067876Y027690D01*
X067818Y027748D01*
X067701Y027748D01*
X067643Y027690D01*
X067508Y027690D02*
X067450Y027748D01*
X067333Y027748D01*
X067274Y027690D01*
X067274Y027631D01*
X067333Y027573D01*
X067274Y027515D01*
X067274Y027456D01*
X067333Y027573D02*
X067391Y027573D01*
X067333Y026998D02*
X067274Y026940D01*
X067274Y026881D01*
X067333Y026823D01*
X067274Y026765D01*
X067274Y026706D01*
X067333Y026648D01*
X067450Y026648D01*
X067508Y026706D01*
X067643Y026706D02*
X067701Y026648D01*
X067818Y026648D01*
X067876Y026706D01*
X067876Y026940D01*
X067818Y026998D01*
X067701Y026998D01*
X067643Y026940D01*
X067508Y026940D02*
X067450Y026998D01*
X067333Y026998D01*
X067333Y026823D02*
X067391Y026823D01*
X067140Y026823D02*
X067140Y026706D01*
X067081Y026648D01*
X066964Y026648D01*
X066906Y026706D01*
X066906Y026765D01*
X066964Y026823D01*
X067140Y026823D01*
X067023Y026940D01*
X066906Y026998D01*
X066906Y024998D02*
X067140Y024998D01*
X067140Y024823D01*
X067023Y024881D01*
X066964Y024881D01*
X066906Y024823D01*
X066906Y024706D01*
X066964Y024648D01*
X067081Y024648D01*
X067140Y024706D01*
X067274Y024706D02*
X067333Y024648D01*
X067450Y024648D01*
X067508Y024706D01*
X067643Y024706D02*
X067701Y024648D01*
X067818Y024648D01*
X067876Y024706D01*
X067876Y024940D01*
X067818Y024998D01*
X067701Y024998D01*
X067643Y024940D01*
X067508Y024940D02*
X067450Y024998D01*
X067333Y024998D01*
X067274Y024940D01*
X067274Y024881D01*
X067333Y024823D01*
X067274Y024765D01*
X067274Y024706D01*
X067333Y024823D02*
X067391Y024823D01*
X062481Y023790D02*
X062481Y023556D01*
X062423Y023498D01*
X062306Y023498D01*
X062248Y023556D01*
X062113Y023556D02*
X062054Y023498D01*
X061938Y023498D01*
X061879Y023556D01*
X061879Y023615D01*
X061938Y023673D01*
X061996Y023673D01*
X061938Y023673D02*
X061879Y023731D01*
X061879Y023790D01*
X061938Y023848D01*
X062054Y023848D01*
X062113Y023790D01*
X062248Y023790D02*
X062306Y023848D01*
X062423Y023848D01*
X062481Y023790D01*
X061744Y023790D02*
X061744Y023731D01*
X061686Y023673D01*
X061569Y023673D01*
X061511Y023615D01*
X061511Y023556D01*
X061569Y023498D01*
X061686Y023498D01*
X061744Y023556D01*
X061744Y023615D01*
X061686Y023673D01*
X061569Y023673D02*
X061511Y023731D01*
X061511Y023790D01*
X061569Y023848D01*
X061686Y023848D01*
X061744Y023790D01*
X061686Y022848D02*
X061569Y022848D01*
X061511Y022790D01*
X061511Y022731D01*
X061569Y022673D01*
X061511Y022615D01*
X061511Y022556D01*
X061569Y022498D01*
X061686Y022498D01*
X061744Y022556D01*
X061879Y022498D02*
X061996Y022615D01*
X061938Y022615D02*
X062113Y022615D01*
X062113Y022498D02*
X062113Y022848D01*
X061938Y022848D01*
X061879Y022790D01*
X061879Y022673D01*
X061938Y022615D01*
X061744Y022790D02*
X061686Y022848D01*
X061628Y022673D02*
X061569Y022673D01*
X061569Y022098D02*
X061686Y022098D01*
X061744Y022040D01*
X061879Y022040D02*
X061879Y021923D01*
X061938Y021865D01*
X062113Y021865D01*
X061996Y021865D02*
X061879Y021748D01*
X061744Y021748D02*
X061511Y021981D01*
X061511Y022040D01*
X061569Y022098D01*
X061879Y022040D02*
X061938Y022098D01*
X062113Y022098D01*
X062113Y021748D01*
X061744Y021748D02*
X061511Y021748D01*
X066906Y019998D02*
X066906Y019940D01*
X067140Y019706D01*
X067140Y019648D01*
X067274Y019706D02*
X067333Y019648D01*
X067450Y019648D01*
X067508Y019706D01*
X067643Y019706D02*
X067701Y019648D01*
X067818Y019648D01*
X067876Y019706D01*
X067876Y019940D01*
X067818Y019998D01*
X067701Y019998D01*
X067643Y019940D01*
X067508Y019940D02*
X067450Y019998D01*
X067333Y019998D01*
X067274Y019940D01*
X067274Y019881D01*
X067333Y019823D01*
X067274Y019765D01*
X067274Y019706D01*
X067333Y019823D02*
X067391Y019823D01*
X067140Y019998D02*
X066906Y019998D01*
X066964Y019248D02*
X067081Y019248D01*
X067140Y019190D01*
X067140Y019131D01*
X067081Y019073D01*
X066906Y019073D01*
X066906Y018956D02*
X066906Y019190D01*
X066964Y019248D01*
X066906Y018956D02*
X066964Y018898D01*
X067081Y018898D01*
X067140Y018956D01*
X067274Y018956D02*
X067333Y018898D01*
X067450Y018898D01*
X067508Y018956D01*
X067643Y018956D02*
X067701Y018898D01*
X067818Y018898D01*
X067876Y018956D01*
X067876Y019190D01*
X067818Y019248D01*
X067701Y019248D01*
X067643Y019190D01*
X067508Y019190D02*
X067450Y019248D01*
X067333Y019248D01*
X067274Y019190D01*
X067274Y019131D01*
X067333Y019073D01*
X067274Y019015D01*
X067274Y018956D01*
X067333Y019073D02*
X067391Y019073D01*
X066026Y032148D02*
X065676Y032148D01*
X065676Y032323D01*
X065735Y032381D01*
X065968Y032381D01*
X066026Y032323D01*
X066026Y032148D01*
X065968Y032516D02*
X066026Y032575D01*
X066026Y032691D01*
X065968Y032750D01*
X065910Y032750D01*
X065676Y032516D01*
X065676Y032750D01*
X065626Y037398D02*
X065626Y037748D01*
X065451Y037748D01*
X065393Y037690D01*
X065393Y037573D01*
X065451Y037515D01*
X065626Y037515D01*
X065509Y037515D02*
X065393Y037398D01*
X065258Y037456D02*
X065258Y037573D01*
X065083Y037573D01*
X065024Y037515D01*
X065024Y037456D01*
X065083Y037398D01*
X065200Y037398D01*
X065258Y037456D01*
X065258Y037573D02*
X065141Y037690D01*
X065024Y037748D01*
X064890Y037573D02*
X064656Y037573D01*
X064714Y037398D02*
X064714Y037748D01*
X064890Y037573D01*
X063626Y037515D02*
X063451Y037515D01*
X063393Y037573D01*
X063393Y037690D01*
X063451Y037748D01*
X063626Y037748D01*
X063626Y037398D01*
X063509Y037515D02*
X063393Y037398D01*
X063258Y037456D02*
X063200Y037398D01*
X063083Y037398D01*
X063024Y037456D01*
X063024Y037515D01*
X063083Y037573D01*
X063258Y037573D01*
X063258Y037456D01*
X063258Y037573D02*
X063141Y037690D01*
X063024Y037748D01*
X062890Y037690D02*
X062831Y037748D01*
X062714Y037748D01*
X062656Y037690D01*
X062656Y037631D01*
X062714Y037573D01*
X062656Y037515D01*
X062656Y037456D01*
X062714Y037398D01*
X062831Y037398D01*
X062890Y037456D01*
X062773Y037573D02*
X062714Y037573D01*
X058863Y036848D02*
X058863Y036498D01*
X058688Y036498D01*
X058629Y036556D01*
X058629Y036790D01*
X058688Y036848D01*
X058863Y036848D01*
X058494Y036731D02*
X058378Y036848D01*
X058378Y036498D01*
X058494Y036498D02*
X058261Y036498D01*
X058318Y034498D02*
X058376Y034440D01*
X058376Y034206D01*
X058318Y034148D01*
X058201Y034148D01*
X058143Y034206D01*
X058008Y034323D02*
X057774Y034323D01*
X057640Y034323D02*
X057406Y034323D01*
X057464Y034148D02*
X057464Y034498D01*
X057640Y034323D01*
X057833Y034148D02*
X057833Y034498D01*
X058008Y034323D01*
X058143Y034440D02*
X058201Y034498D01*
X058318Y034498D01*
X067026Y038661D02*
X067026Y038836D01*
X067085Y038895D01*
X067318Y038895D01*
X067376Y038836D01*
X067376Y038661D01*
X067026Y038661D01*
X067085Y039030D02*
X067143Y039030D01*
X067201Y039088D01*
X067201Y039205D01*
X067143Y039263D01*
X067085Y039263D01*
X067026Y039205D01*
X067026Y039088D01*
X067085Y039030D01*
X067201Y039088D02*
X067260Y039030D01*
X067318Y039030D01*
X067376Y039088D01*
X067376Y039205D01*
X067318Y039263D01*
X067260Y039263D01*
X067201Y039205D01*
X044776Y007678D02*
X044601Y007503D01*
X044601Y007736D01*
X044426Y007678D02*
X044776Y007678D01*
X044718Y007368D02*
X044660Y007368D01*
X044601Y007310D01*
X044601Y007193D01*
X044660Y007135D01*
X044718Y007135D01*
X044776Y007193D01*
X044776Y007310D01*
X044718Y007368D01*
X044601Y007310D02*
X044543Y007368D01*
X044485Y007368D01*
X044426Y007310D01*
X044426Y007193D01*
X044485Y007135D01*
X044543Y007135D01*
X044601Y007193D01*
X044426Y007000D02*
X044426Y006766D01*
X044426Y006883D02*
X044776Y006883D01*
X044660Y006766D01*
X044718Y006631D02*
X044776Y006573D01*
X044776Y006456D01*
X044718Y006398D01*
X044485Y006398D01*
X044426Y006456D01*
X044426Y006573D01*
X044485Y006631D01*
X042026Y006573D02*
X042026Y006456D01*
X041968Y006398D01*
X041735Y006398D01*
X041676Y006456D01*
X041676Y006573D01*
X041735Y006631D01*
X041676Y006766D02*
X041676Y007000D01*
X041676Y006883D02*
X042026Y006883D01*
X041910Y006766D01*
X041968Y006631D02*
X042026Y006573D01*
X041968Y007135D02*
X041910Y007135D01*
X041851Y007193D01*
X041851Y007310D01*
X041793Y007368D01*
X041735Y007368D01*
X041676Y007310D01*
X041676Y007193D01*
X041735Y007135D01*
X041793Y007135D01*
X041851Y007193D01*
X041851Y007310D02*
X041910Y007368D01*
X041968Y007368D01*
X042026Y007310D01*
X042026Y007193D01*
X041968Y007135D01*
X041968Y007503D02*
X041735Y007503D01*
X041968Y007736D01*
X041735Y007736D01*
X041676Y007678D01*
X041676Y007561D01*
X041735Y007503D01*
X041968Y007503D02*
X042026Y007561D01*
X042026Y007678D01*
X041968Y007736D01*
X040276Y007678D02*
X040218Y007736D01*
X040160Y007736D01*
X040101Y007678D01*
X040043Y007736D01*
X039985Y007736D01*
X039926Y007678D01*
X039926Y007561D01*
X039985Y007503D01*
X039985Y007368D02*
X039926Y007310D01*
X039926Y007193D01*
X039985Y007135D01*
X040043Y007135D01*
X040101Y007193D01*
X040101Y007310D01*
X040043Y007368D01*
X039985Y007368D01*
X040101Y007310D02*
X040160Y007368D01*
X040218Y007368D01*
X040276Y007310D01*
X040276Y007193D01*
X040218Y007135D01*
X040160Y007135D01*
X040101Y007193D01*
X039926Y007000D02*
X039926Y006766D01*
X039926Y006883D02*
X040276Y006883D01*
X040160Y006766D01*
X040218Y006631D02*
X040276Y006573D01*
X040276Y006456D01*
X040218Y006398D01*
X039985Y006398D01*
X039926Y006456D01*
X039926Y006573D01*
X039985Y006631D01*
X040218Y007503D02*
X040276Y007561D01*
X040276Y007678D01*
X040101Y007678D02*
X040101Y007620D01*
X034376Y006440D02*
X034376Y006206D01*
X034318Y006148D01*
X034201Y006148D01*
X034143Y006206D01*
X034008Y006206D02*
X034008Y006148D01*
X034008Y006206D02*
X033774Y006440D01*
X033774Y006498D01*
X034008Y006498D01*
X034143Y006440D02*
X034201Y006498D01*
X034318Y006498D01*
X034376Y006440D01*
X033640Y006498D02*
X033406Y006498D01*
X033406Y006440D01*
X033640Y006206D01*
X033640Y006148D01*
X031526Y006251D02*
X031176Y006251D01*
X031176Y006135D02*
X031176Y006368D01*
X031410Y006135D02*
X031526Y006251D01*
X031468Y006000D02*
X031410Y006000D01*
X031351Y005941D01*
X031351Y005825D01*
X031410Y005766D01*
X031468Y005766D01*
X031526Y005825D01*
X031526Y005941D01*
X031468Y006000D01*
X031351Y005941D02*
X031293Y006000D01*
X031235Y006000D01*
X031176Y005941D01*
X031176Y005825D01*
X031235Y005766D01*
X031293Y005766D01*
X031351Y005825D01*
X031235Y005631D02*
X031176Y005573D01*
X031176Y005456D01*
X031235Y005398D01*
X031468Y005398D01*
X031526Y005456D01*
X031526Y005573D01*
X031468Y005631D01*
X030776Y005573D02*
X030776Y005456D01*
X030718Y005398D01*
X030485Y005398D01*
X030426Y005456D01*
X030426Y005573D01*
X030485Y005631D01*
X030485Y005766D02*
X030426Y005825D01*
X030426Y005941D01*
X030485Y006000D01*
X030718Y006000D01*
X030776Y005941D01*
X030776Y005825D01*
X030718Y005766D01*
X030660Y005766D01*
X030601Y005825D01*
X030601Y006000D01*
X030718Y006135D02*
X030776Y006193D01*
X030776Y006310D01*
X030718Y006368D01*
X030660Y006368D01*
X030426Y006135D01*
X030426Y006368D01*
X030026Y006310D02*
X029851Y006135D01*
X029851Y006368D01*
X029676Y006310D02*
X030026Y006310D01*
X029968Y006000D02*
X030026Y005941D01*
X030026Y005825D01*
X029968Y005766D01*
X029910Y005766D01*
X029851Y005825D01*
X029851Y006000D01*
X029735Y006000D02*
X029968Y006000D01*
X029735Y006000D02*
X029676Y005941D01*
X029676Y005825D01*
X029735Y005766D01*
X029735Y005631D02*
X029676Y005573D01*
X029676Y005456D01*
X029735Y005398D01*
X029968Y005398D01*
X030026Y005456D01*
X030026Y005573D01*
X029968Y005631D01*
X029276Y005573D02*
X029276Y005456D01*
X029218Y005398D01*
X028985Y005398D01*
X028926Y005456D01*
X028926Y005573D01*
X028985Y005631D01*
X028985Y005766D02*
X029043Y005766D01*
X029101Y005825D01*
X029101Y005941D01*
X029043Y006000D01*
X028985Y006000D01*
X028926Y005941D01*
X028926Y005825D01*
X028985Y005766D01*
X029101Y005825D02*
X029160Y005766D01*
X029218Y005766D01*
X029276Y005825D01*
X029276Y005941D01*
X029218Y006000D01*
X029160Y006000D01*
X029101Y005941D01*
X029218Y006135D02*
X029276Y006193D01*
X029276Y006310D01*
X029218Y006368D01*
X029160Y006368D01*
X028926Y006135D01*
X028926Y006368D01*
X028526Y006368D02*
X028526Y006135D01*
X028468Y006000D02*
X028410Y006000D01*
X028351Y005941D01*
X028351Y005825D01*
X028410Y005766D01*
X028468Y005766D01*
X028526Y005825D01*
X028526Y005941D01*
X028468Y006000D01*
X028351Y005941D02*
X028293Y006000D01*
X028235Y006000D01*
X028176Y005941D01*
X028176Y005825D01*
X028235Y005766D01*
X028293Y005766D01*
X028351Y005825D01*
X028235Y005631D02*
X028176Y005573D01*
X028176Y005456D01*
X028235Y005398D01*
X028468Y005398D01*
X028526Y005456D01*
X028526Y005573D01*
X028468Y005631D01*
X028235Y006135D02*
X028176Y006135D01*
X028235Y006135D02*
X028468Y006368D01*
X028526Y006368D01*
X029218Y005631D02*
X029276Y005573D01*
X030718Y005631D02*
X030776Y005573D01*
X027026Y005573D02*
X027026Y005456D01*
X026968Y005398D01*
X026735Y005398D01*
X026676Y005456D01*
X026676Y005573D01*
X026735Y005631D01*
X026735Y005766D02*
X026676Y005766D01*
X026735Y005766D02*
X026968Y006000D01*
X027026Y006000D01*
X027026Y005766D01*
X026968Y005631D02*
X027026Y005573D01*
X026851Y006135D02*
X026735Y006135D01*
X026676Y006193D01*
X026676Y006310D01*
X026735Y006368D01*
X026793Y006368D01*
X026851Y006310D01*
X026851Y006135D01*
X026968Y006251D01*
X027026Y006368D01*
D14*
X029401Y017248D03*
X029901Y017248D03*
X029901Y018123D03*
X029401Y018123D03*
X029401Y019123D03*
X029901Y019123D03*
X033151Y019373D03*
X033651Y019373D03*
X033651Y018623D03*
X033151Y018623D03*
X033151Y017873D03*
X033651Y017873D03*
X033651Y022748D03*
X033151Y022748D03*
X030151Y022498D03*
X029651Y022498D03*
X029651Y023248D03*
X030151Y023248D03*
X030151Y023998D03*
X029651Y023998D03*
X029651Y024748D03*
X030151Y024748D03*
X030151Y025498D03*
X029651Y025498D03*
X029651Y026248D03*
X030151Y026248D03*
X027776Y023873D03*
X027276Y023873D03*
X027276Y023123D03*
X027776Y023123D03*
X025526Y021998D03*
X025026Y021998D03*
X016401Y032248D03*
X015901Y032248D03*
X040651Y019873D03*
X041151Y019873D03*
X041151Y018373D03*
X040651Y018373D03*
X040651Y017623D03*
X041151Y017623D03*
X047651Y019123D03*
X048151Y019123D03*
X048151Y019873D03*
X047651Y019873D03*
X047651Y020623D03*
X048151Y020623D03*
X048151Y021373D03*
X047651Y021373D03*
X050651Y022373D03*
X051151Y022373D03*
X051151Y023123D03*
X050651Y023123D03*
X050651Y023873D03*
X051151Y023873D03*
X051151Y024623D03*
X050651Y024623D03*
X056151Y024623D03*
X056651Y024623D03*
X056651Y025373D03*
X056151Y025373D03*
X056151Y026123D03*
X056651Y026123D03*
X059151Y023998D03*
X059651Y023998D03*
X059651Y022623D03*
X059151Y022623D03*
X059151Y021873D03*
X059651Y021873D03*
X056651Y021373D03*
X056151Y021373D03*
X056151Y020623D03*
X056651Y020623D03*
X056651Y023123D03*
X056151Y023123D03*
X056151Y023873D03*
X056651Y023873D03*
X053901Y018123D03*
X053401Y018123D03*
X053151Y016873D03*
X052651Y016873D03*
X054151Y016873D03*
X054651Y016873D03*
X065651Y019123D03*
X066151Y019123D03*
X066151Y019873D03*
X065651Y019873D03*
X065651Y024873D03*
X066151Y024873D03*
X066151Y026873D03*
X065651Y026873D03*
X065651Y027623D03*
X066151Y027623D03*
X065401Y036873D03*
X064901Y036873D03*
X063401Y036873D03*
X062901Y036873D03*
X048901Y037123D03*
X048401Y037123D03*
X048401Y037873D03*
X048901Y037873D03*
X048901Y036373D03*
X048401Y036373D03*
X048401Y035123D03*
X048901Y035123D03*
D15*
X053338Y024123D02*
X053340Y024158D01*
X053346Y024193D01*
X053356Y024226D01*
X053369Y024259D01*
X053386Y024290D01*
X053406Y024318D01*
X053430Y024344D01*
X053456Y024368D01*
X053484Y024388D01*
X053515Y024405D01*
X053548Y024418D01*
X053581Y024428D01*
X053616Y024434D01*
X053651Y024436D01*
X053686Y024434D01*
X053721Y024428D01*
X053754Y024418D01*
X053787Y024405D01*
X053818Y024388D01*
X053846Y024368D01*
X053872Y024344D01*
X053896Y024318D01*
X053916Y024290D01*
X053933Y024259D01*
X053946Y024226D01*
X053956Y024193D01*
X053962Y024158D01*
X053964Y024123D01*
X053962Y024088D01*
X053956Y024053D01*
X053946Y024020D01*
X053933Y023987D01*
X053916Y023956D01*
X053896Y023928D01*
X053872Y023902D01*
X053846Y023878D01*
X053818Y023858D01*
X053787Y023841D01*
X053754Y023828D01*
X053721Y023818D01*
X053686Y023812D01*
X053651Y023810D01*
X053616Y023812D01*
X053581Y023818D01*
X053548Y023828D01*
X053515Y023841D01*
X053484Y023858D01*
X053456Y023878D01*
X053430Y023902D01*
X053406Y023928D01*
X053386Y023956D01*
X053369Y023987D01*
X053356Y024020D01*
X053346Y024053D01*
X053340Y024088D01*
X053338Y024123D01*
D16*
X049202Y034123D03*
X048376Y034123D03*
X048100Y034123D03*
D17*
X047705Y034123D03*
D18*
X064069Y027310D03*
D19*
X061158Y038373D03*
X058144Y038373D03*
D20*
X059149Y038373D03*
D21*
X064151Y034880D03*
X064151Y031866D03*
D22*
X064151Y032871D03*
D23*
X057421Y033373D03*
X056381Y033373D03*
X056381Y032123D03*
X057421Y032123D03*
D24*
X041901Y027143D03*
X040651Y027143D03*
X040651Y026103D03*
X041901Y026103D03*
D25*
X034154Y016625D03*
X034154Y015615D03*
D26*
X039899Y016376D03*
X040909Y016376D03*
X034403Y020870D03*
X033394Y020870D03*
D27*
X066411Y038592D03*
X066411Y039654D03*
D28*
X066401Y039280D03*
M02*
