G75*
G70*
%OFA0B0*%
%FSLAX24Y24*%
%IPPOS*%
%LPD*%
%AMOC8*
5,1,8,0,0,1.08239X$1,22.5*
%
%ADD10R,0.0600X0.0600*%
%ADD11OC8,0.0600*%
%ADD12R,0.0315X0.0354*%
%ADD13R,0.0354X0.0315*%
%ADD14R,0.0551X0.0709*%
%ADD15R,0.0709X0.0551*%
%ADD16R,0.0551X0.0748*%
%ADD17OC8,0.0543*%
%ADD18OC8,0.0945*%
%ADD19C,0.0561*%
%ADD20C,0.1306*%
%ADD21R,0.1000X0.1000*%
%ADD22OC8,0.1000*%
%ADD23R,0.1102X0.1496*%
%ADD24R,0.1496X0.1102*%
%ADD25OC8,0.0591*%
%ADD26C,0.0886*%
%ADD27R,0.0748X0.0551*%
%ADD28R,0.0540X0.0540*%
%ADD29OC8,0.0540*%
%ADD30OC8,0.0886*%
%ADD31OC8,0.0700*%
%ADD32R,0.0700X0.0700*%
%ADD33R,0.0787X0.0945*%
%ADD34C,0.2000*%
%ADD35C,0.0270*%
%ADD36C,0.0060*%
%ADD37C,0.0356*%
%ADD38C,0.0413*%
%ADD39C,0.0100*%
%ADD40C,0.0080*%
%ADD41C,0.0240*%
%ADD42C,0.0320*%
%ADD43C,0.0160*%
D10*
X034175Y012618D03*
X053425Y007368D03*
X073925Y022118D03*
X011175Y026118D03*
D11*
X012175Y026118D03*
X013175Y026118D03*
X014175Y026118D03*
X015175Y026118D03*
X016175Y026118D03*
X016175Y027118D03*
X015175Y027118D03*
X014175Y027118D03*
X013175Y027118D03*
X012175Y027118D03*
X011175Y027118D03*
X034175Y013618D03*
X035175Y013618D03*
X035175Y012618D03*
X036175Y012618D03*
X036175Y013618D03*
X053425Y008368D03*
X054425Y008368D03*
X054425Y007368D03*
X055425Y007368D03*
X056425Y007368D03*
X057425Y007368D03*
X057425Y008368D03*
X056425Y008368D03*
X055425Y008368D03*
X073925Y009118D03*
X074925Y009118D03*
X074925Y010118D03*
X073925Y010118D03*
X073925Y011118D03*
X074925Y011118D03*
X074925Y012118D03*
X073925Y012118D03*
X073925Y013118D03*
X074925Y013118D03*
X074925Y014118D03*
X073925Y014118D03*
X073925Y015118D03*
X074925Y015118D03*
X074925Y016118D03*
X073925Y016118D03*
X073925Y017118D03*
X074925Y017118D03*
X074925Y018118D03*
X073925Y018118D03*
X073925Y019118D03*
X074925Y019118D03*
X074925Y020118D03*
X073925Y020118D03*
X073925Y021118D03*
X074925Y021118D03*
X074925Y022118D03*
X072425Y045618D03*
D12*
X071675Y041168D03*
X071675Y040568D03*
X058425Y040418D03*
X058425Y039818D03*
X057675Y039818D03*
X057675Y040418D03*
X037425Y034168D03*
X037425Y033568D03*
X036675Y033568D03*
X036675Y034168D03*
X035925Y033418D03*
X035925Y032818D03*
X036675Y032668D03*
X036675Y032068D03*
X037425Y032068D03*
X037425Y032668D03*
X032925Y032668D03*
X032925Y032068D03*
X032175Y032068D03*
X032175Y032668D03*
X031425Y032818D03*
X031425Y033418D03*
X032175Y033568D03*
X032175Y034168D03*
X032925Y034168D03*
X032925Y033568D03*
X026425Y032918D03*
X026425Y032318D03*
X025675Y032043D03*
X025675Y031443D03*
X025675Y030543D03*
X025675Y029943D03*
X024675Y031068D03*
X024675Y031668D03*
X025675Y033193D03*
X025675Y033793D03*
X025675Y034693D03*
X025675Y035293D03*
X024675Y034168D03*
X024675Y033568D03*
X038175Y026668D03*
X038175Y026068D03*
X038925Y026068D03*
X038925Y026668D03*
X039675Y026668D03*
X039675Y026068D03*
X041675Y024668D03*
X041675Y024068D03*
X043175Y024068D03*
X043175Y024668D03*
X043925Y024668D03*
X043925Y024068D03*
X045425Y024068D03*
X045425Y024668D03*
X046175Y024668D03*
X046175Y024068D03*
X034300Y020668D03*
X034300Y020068D03*
X033425Y018543D03*
X033425Y017943D03*
X032675Y017943D03*
X032675Y018543D03*
X030050Y018318D03*
X030050Y018918D03*
X030050Y020318D03*
X030050Y020918D03*
X023675Y022818D03*
X023675Y023418D03*
X022925Y023568D03*
X022925Y024168D03*
X022175Y024168D03*
X022175Y023568D03*
X022175Y022668D03*
X022175Y022068D03*
X022925Y022068D03*
X022925Y022668D03*
X022925Y017168D03*
X022925Y016568D03*
X022175Y016568D03*
X022175Y017168D03*
X023675Y016418D03*
X023675Y015818D03*
X022925Y015668D03*
X022925Y015068D03*
X022175Y015068D03*
X022175Y015668D03*
X040425Y014168D03*
X040425Y013568D03*
X041175Y013568D03*
X041175Y014168D03*
X041925Y016568D03*
X041925Y017168D03*
X042675Y017168D03*
X042675Y016568D03*
X043425Y016568D03*
X043425Y017168D03*
X044175Y017168D03*
X044175Y016568D03*
X044925Y016568D03*
X044925Y017168D03*
X045425Y013168D03*
X045425Y012568D03*
X047050Y012568D03*
X047050Y013168D03*
X048800Y013168D03*
X048800Y012568D03*
X047675Y008543D03*
X047675Y007943D03*
X046050Y007943D03*
X046050Y008543D03*
X044300Y008543D03*
X044300Y007943D03*
X043550Y007943D03*
X043550Y008543D03*
X051800Y008543D03*
X051800Y007943D03*
X058175Y021568D03*
X058175Y022168D03*
X058925Y022168D03*
X058925Y021568D03*
X060425Y021568D03*
X060425Y022168D03*
X061175Y022168D03*
X061175Y021568D03*
X061175Y025193D03*
X061175Y025793D03*
X061175Y027068D03*
X061175Y027668D03*
X060425Y027668D03*
X060425Y027068D03*
X059675Y027068D03*
X059675Y027668D03*
X058175Y027668D03*
X058175Y027068D03*
X057425Y027068D03*
X057425Y027668D03*
X056425Y029818D03*
X056425Y030418D03*
X055675Y030418D03*
X055675Y029818D03*
X062425Y029418D03*
X062425Y028818D03*
X063175Y028818D03*
X063175Y029418D03*
X069425Y027168D03*
X069425Y026568D03*
D13*
X063225Y026618D03*
X062625Y026618D03*
X062625Y025868D03*
X063225Y025868D03*
X063225Y025118D03*
X062625Y025118D03*
X062625Y027368D03*
X063225Y027368D03*
X057725Y025868D03*
X057125Y025868D03*
X057125Y025118D03*
X057725Y025118D03*
X057725Y024368D03*
X057125Y024368D03*
X057125Y023618D03*
X057725Y023618D03*
X054725Y022618D03*
X054125Y022618D03*
X054125Y021868D03*
X054725Y021868D03*
X054725Y021118D03*
X054125Y021118D03*
X054125Y020368D03*
X054725Y020368D03*
X059125Y018118D03*
X059725Y018118D03*
X060625Y018118D03*
X061225Y018118D03*
X068375Y020118D03*
X068975Y020118D03*
X063225Y021868D03*
X062625Y021868D03*
X062625Y022618D03*
X063225Y022618D03*
X047725Y022243D03*
X047125Y022243D03*
X047125Y021493D03*
X047725Y021493D03*
X047725Y020368D03*
X047125Y020368D03*
X047125Y019618D03*
X047725Y019618D03*
X047725Y018868D03*
X047125Y018868D03*
X040225Y019118D03*
X039625Y019118D03*
X039625Y019868D03*
X040225Y019868D03*
X040225Y020618D03*
X039625Y020618D03*
X039625Y023993D03*
X040225Y023993D03*
X040225Y024743D03*
X039625Y024743D03*
X031600Y021743D03*
X031000Y021743D03*
X030875Y017493D03*
X031475Y017493D03*
X035250Y017743D03*
X035850Y017743D03*
X035850Y017118D03*
X035250Y017118D03*
X034725Y009868D03*
X034125Y009868D03*
X013975Y022368D03*
X013375Y022368D03*
X013100Y023118D03*
X012500Y023118D03*
X011600Y023118D03*
X011000Y023118D03*
X012125Y024118D03*
X012725Y024118D03*
X014625Y024118D03*
X015225Y024118D03*
X014850Y023118D03*
X014250Y023118D03*
X015750Y023118D03*
X016350Y023118D03*
X054375Y034618D03*
X054975Y034618D03*
X055875Y036868D03*
X056475Y036868D03*
X068375Y037618D03*
X068975Y037618D03*
X069875Y037618D03*
X070475Y037618D03*
X074125Y041368D03*
X074725Y041368D03*
X074725Y042118D03*
X074125Y042118D03*
X074125Y042868D03*
X074725Y042868D03*
X070475Y042618D03*
X069875Y042618D03*
X052975Y043868D03*
X052375Y043868D03*
X052375Y044618D03*
X052975Y044618D03*
D14*
X062925Y034618D03*
X063925Y034618D03*
X060425Y028868D03*
X059425Y028868D03*
X062675Y024243D03*
X063675Y024243D03*
X060925Y019493D03*
X059925Y019493D03*
D15*
X056300Y020618D03*
X056300Y021618D03*
X048425Y027368D03*
X048425Y028368D03*
X061488Y028931D03*
X061488Y029931D03*
D16*
X062925Y033368D03*
X063925Y033368D03*
X055175Y035618D03*
X054175Y035618D03*
X059175Y037993D03*
X060175Y037993D03*
X037425Y030868D03*
X036425Y030868D03*
X032925Y030868D03*
X031925Y030868D03*
X023175Y025368D03*
X022175Y025368D03*
X022175Y018368D03*
X023175Y018368D03*
X033925Y010868D03*
X034925Y010868D03*
X046425Y017618D03*
X047425Y017618D03*
X040925Y022118D03*
X039925Y022118D03*
D17*
X055175Y039618D03*
X055175Y040406D03*
X055175Y041193D03*
X055175Y041981D03*
D18*
X054033Y042177D03*
X056317Y042177D03*
X056317Y039421D03*
X054033Y039421D03*
D19*
X059683Y040453D02*
X059683Y041014D01*
X059683Y041801D02*
X059683Y042362D01*
X060667Y042362D02*
X060667Y041801D01*
X060667Y041014D02*
X060667Y040453D01*
D20*
X062537Y042868D03*
X057813Y042868D03*
D21*
X066175Y041368D03*
D22*
X064175Y042493D03*
X066175Y043743D03*
X051108Y043152D03*
X051108Y045317D03*
X050321Y046262D03*
D23*
X064800Y039118D03*
X067550Y039118D03*
D24*
X070675Y035993D03*
X070675Y033243D03*
D25*
X070667Y039634D03*
X069683Y039634D03*
X069683Y040618D03*
X070667Y040618D03*
X070667Y041603D03*
X069683Y041603D03*
D26*
X015079Y042498D03*
X015079Y039998D03*
X010579Y039998D03*
X010579Y042498D03*
X010579Y044998D03*
X015079Y044998D03*
X016271Y010238D03*
X018771Y010238D03*
X023271Y010238D03*
X023271Y007738D03*
X023271Y005238D03*
X018771Y005238D03*
X016271Y005238D03*
X016271Y007738D03*
X018771Y007738D03*
X011771Y007738D03*
X011771Y005238D03*
X011771Y010238D03*
D27*
X040675Y016868D03*
X040675Y017868D03*
X047175Y027368D03*
X047175Y028368D03*
D28*
X036425Y004868D03*
D29*
X037425Y004868D03*
X038425Y004868D03*
X039425Y004868D03*
X040425Y004868D03*
X041425Y004868D03*
X042425Y004868D03*
X042425Y005868D03*
X041425Y005868D03*
X040425Y005868D03*
X039425Y005868D03*
X038425Y005868D03*
X037425Y005868D03*
X036425Y005868D03*
D30*
X036079Y038805D03*
X038079Y038805D03*
X038579Y040057D03*
X038079Y041305D03*
X036579Y040057D03*
X036079Y041305D03*
X036579Y042557D03*
X038579Y042557D03*
X038079Y043805D03*
X038579Y045055D03*
X036579Y045055D03*
X036079Y043805D03*
X039079Y046187D03*
X043579Y045055D03*
X043079Y043805D03*
X043579Y042557D03*
X043079Y041305D03*
X043579Y040057D03*
X043079Y038805D03*
X031579Y040057D03*
X031079Y041305D03*
X029579Y040057D03*
X029079Y041305D03*
X029579Y042557D03*
X031579Y042557D03*
X031079Y043805D03*
X031579Y045055D03*
X029579Y045055D03*
X029079Y043805D03*
X032079Y046187D03*
X025079Y046187D03*
X024579Y045055D03*
X024079Y043805D03*
X022579Y045055D03*
X022079Y043805D03*
X022579Y042557D03*
X024579Y042557D03*
X024079Y041305D03*
X024579Y040057D03*
X022579Y040057D03*
X022079Y041305D03*
X022079Y038805D03*
X024079Y038805D03*
X029079Y038805D03*
X031079Y038805D03*
X017579Y040057D03*
X017079Y041305D03*
X017579Y042557D03*
X017079Y043805D03*
X017579Y045055D03*
X018079Y046187D03*
X017079Y038805D03*
D31*
X045925Y039368D03*
X045925Y040368D03*
X045925Y041368D03*
X045925Y042368D03*
D32*
X045925Y038368D03*
D33*
X054513Y032618D03*
X056087Y032618D03*
D34*
X008675Y004618D03*
X045925Y004618D03*
X074675Y004618D03*
X074675Y044868D03*
X045925Y044868D03*
X008675Y044868D03*
D35*
X023425Y037368D03*
X021175Y036618D03*
X018675Y036368D03*
X017079Y035272D03*
X021675Y035618D03*
X023175Y035618D03*
X024675Y034993D03*
X025175Y034993D03*
X025675Y035743D03*
X027425Y036868D03*
X027925Y036618D03*
X029175Y036118D03*
X031175Y035118D03*
X033675Y034368D03*
X034550Y034743D03*
X035675Y035118D03*
X038175Y034368D03*
X039050Y034743D03*
X037925Y033118D03*
X036925Y033118D03*
X035300Y032868D03*
X035050Y033368D03*
X033425Y033118D03*
X032425Y033118D03*
X030925Y033118D03*
X031050Y032368D03*
X031175Y031118D03*
X031425Y029118D03*
X031300Y028243D03*
X031300Y027618D03*
X030550Y027618D03*
X030175Y027368D03*
X031675Y026868D03*
X031925Y027118D03*
X032675Y026868D03*
X033175Y026618D03*
X037425Y026868D03*
X039175Y025493D03*
X039175Y024743D03*
X038050Y024993D03*
X037925Y023868D03*
X038050Y022618D03*
X037425Y021993D03*
X038050Y021493D03*
X037675Y021118D03*
X037175Y020493D03*
X036550Y019993D03*
X036550Y019618D03*
X036675Y019243D03*
X036925Y018993D03*
X036175Y018743D03*
X035800Y018743D03*
X035425Y018743D03*
X035050Y018618D03*
X035050Y018243D03*
X034550Y017493D03*
X033925Y017868D03*
X032175Y017993D03*
X031550Y017993D03*
X031175Y017993D03*
X030550Y018493D03*
X030550Y018993D03*
X030550Y020493D03*
X030550Y020868D03*
X030925Y021118D03*
X031300Y020868D03*
X031675Y021118D03*
X033800Y020993D03*
X033925Y022368D03*
X029800Y022618D03*
X029175Y022368D03*
X029175Y021868D03*
X026425Y023243D03*
X026050Y023618D03*
X025675Y023993D03*
X025300Y024368D03*
X024675Y023368D03*
X024925Y022868D03*
X027050Y023368D03*
X027050Y024868D03*
X023925Y025118D03*
X020925Y025118D03*
X020925Y025868D03*
X016050Y024118D03*
X016050Y023618D03*
X016800Y023118D03*
X017675Y022118D03*
X017675Y021243D03*
X019425Y019868D03*
X017175Y019618D03*
X015050Y020243D03*
X013425Y020868D03*
X013925Y021868D03*
X013925Y023493D03*
X013425Y023493D03*
X010550Y023118D03*
X009675Y022118D03*
X009675Y021368D03*
X013175Y019618D03*
X020550Y021493D03*
X021425Y021868D03*
X021675Y023118D03*
X022675Y023118D03*
X023925Y021118D03*
X024675Y021368D03*
X021925Y019868D03*
X020925Y018868D03*
X020925Y018118D03*
X021675Y016118D03*
X022675Y016118D03*
X021425Y014868D03*
X020550Y014493D03*
X021925Y012868D03*
X023925Y014118D03*
X024675Y015118D03*
X028425Y016743D03*
X026675Y018243D03*
X026425Y018493D03*
X026175Y018743D03*
X025925Y018993D03*
X025050Y018993D03*
X025050Y018493D03*
X023925Y018118D03*
X033425Y019618D03*
X035300Y019368D03*
X036175Y020243D03*
X038114Y019805D03*
X039175Y020743D03*
X040675Y020618D03*
X042175Y021243D03*
X041925Y021743D03*
X041675Y022243D03*
X039175Y022618D03*
X039175Y023493D03*
X039925Y023493D03*
X040675Y023993D03*
X040675Y024368D03*
X041050Y024368D03*
X042050Y025118D03*
X043175Y025118D03*
X044425Y024368D03*
X044800Y025118D03*
X044175Y026243D03*
X042925Y026368D03*
X042425Y026368D03*
X041800Y026368D03*
X040425Y026618D03*
X039425Y028368D03*
X038425Y028368D03*
X039425Y029618D03*
X038675Y030368D03*
X038675Y031118D03*
X035675Y031118D03*
X034175Y031118D03*
X034175Y030368D03*
X029175Y032118D03*
X027925Y032368D03*
X026925Y032868D03*
X025300Y032868D03*
X025300Y032368D03*
X028550Y033993D03*
X033175Y036368D03*
X037675Y036368D03*
X046300Y035118D03*
X046300Y034118D03*
X049675Y033118D03*
X050425Y032118D03*
X050925Y031618D03*
X053675Y032618D03*
X055300Y032618D03*
X055175Y031493D03*
X055175Y031118D03*
X056425Y030868D03*
X058300Y031368D03*
X058675Y031118D03*
X058300Y031868D03*
X058675Y032118D03*
X057925Y032368D03*
X057425Y032993D03*
X056925Y032618D03*
X058300Y034118D03*
X058300Y034743D03*
X056550Y034243D03*
X054925Y034118D03*
X054425Y034118D03*
X053425Y033868D03*
X050550Y035493D03*
X050550Y035993D03*
X052300Y036618D03*
X052550Y036993D03*
X054300Y037493D03*
X054675Y036868D03*
X054675Y036368D03*
X056550Y037618D03*
X056925Y037618D03*
X057050Y037243D03*
X057925Y038618D03*
X052425Y039618D03*
X051175Y039368D03*
X051175Y039868D03*
X050425Y037868D03*
X049675Y037868D03*
X048925Y038868D03*
X047175Y039868D03*
X046675Y038368D03*
X048425Y042618D03*
X046675Y043368D03*
X053425Y043868D03*
X071175Y037868D03*
X073175Y037618D03*
X074925Y035868D03*
X075425Y042118D03*
X075425Y042868D03*
X073425Y042868D03*
X062425Y031118D03*
X059925Y029618D03*
X059550Y029618D03*
X058425Y029368D03*
X057175Y029493D03*
X056425Y029368D03*
X055800Y028368D03*
X055425Y028743D03*
X055050Y028993D03*
X056675Y028118D03*
X057425Y028118D03*
X058175Y028118D03*
X058550Y028118D03*
X058925Y028118D03*
X059925Y028118D03*
X060425Y028118D03*
X060925Y028118D03*
X062050Y028118D03*
X062425Y028118D03*
X064925Y028243D03*
X064925Y028618D03*
X065175Y027868D03*
X065550Y027618D03*
X065925Y027493D03*
X066175Y027118D03*
X065675Y026618D03*
X066175Y026118D03*
X066050Y025743D03*
X066425Y025493D03*
X066300Y024743D03*
X065675Y024743D03*
X065175Y024368D03*
X065175Y023993D03*
X065550Y023993D03*
X065550Y023618D03*
X067050Y024368D03*
X067550Y024368D03*
X068050Y023993D03*
X068300Y023368D03*
X068675Y023743D03*
X069800Y021868D03*
X069425Y021743D03*
X068925Y021743D03*
X069425Y020118D03*
X069925Y020243D03*
X069925Y019743D03*
X067925Y020118D03*
X067175Y019368D03*
X067175Y018868D03*
X067550Y018618D03*
X068050Y018493D03*
X062050Y018118D03*
X061425Y019368D03*
X058925Y018993D03*
X058675Y019243D03*
X058425Y019493D03*
X057800Y019493D03*
X057425Y019493D03*
X057050Y019868D03*
X056675Y019493D03*
X056175Y018368D03*
X058300Y018118D03*
X060175Y018118D03*
X055175Y016868D03*
X054925Y016493D03*
X054675Y016118D03*
X054425Y015743D03*
X053675Y016743D03*
X053925Y017118D03*
X054175Y017493D03*
X051800Y016993D03*
X052050Y016243D03*
X051550Y017743D03*
X051300Y018493D03*
X051050Y020118D03*
X049300Y020868D03*
X048175Y020618D03*
X048175Y021118D03*
X048175Y021493D03*
X048175Y022243D03*
X048175Y022743D03*
X047800Y022993D03*
X047425Y023243D03*
X047050Y023493D03*
X046550Y024368D03*
X047550Y025118D03*
X048175Y024618D03*
X048175Y023618D03*
X048175Y023243D03*
X049300Y023368D03*
X049300Y023743D03*
X049800Y024118D03*
X050425Y024868D03*
X050425Y025368D03*
X049800Y025618D03*
X049425Y026118D03*
X049425Y026868D03*
X046925Y026180D03*
X045800Y026243D03*
X048675Y029368D03*
X046550Y030118D03*
X043425Y031243D03*
X042675Y031243D03*
X040675Y030493D03*
X051425Y026368D03*
X052800Y025868D03*
X053175Y025868D03*
X051800Y025118D03*
X051300Y025368D03*
X053175Y023868D03*
X053175Y023243D03*
X053675Y021868D03*
X055425Y021868D03*
X055425Y021493D03*
X055425Y021118D03*
X055675Y020743D03*
X055425Y022243D03*
X056675Y022243D03*
X057175Y022743D03*
X057425Y021118D03*
X057800Y021118D03*
X058175Y021118D03*
X058550Y021118D03*
X058925Y021118D03*
X059300Y021118D03*
X060425Y021118D03*
X060800Y021118D03*
X061175Y021118D03*
X061550Y021118D03*
X061925Y021118D03*
X062300Y021118D03*
X062675Y021118D03*
X063050Y021118D03*
X063675Y021243D03*
X063675Y021868D03*
X063675Y022743D03*
X062175Y021868D03*
X060425Y022618D03*
X061425Y023368D03*
X061425Y023743D03*
X062050Y024243D03*
X061925Y024618D03*
X062175Y025868D03*
X061175Y026618D03*
X060675Y025868D03*
X058175Y025118D03*
X058175Y024368D03*
X056675Y024368D03*
X056675Y024743D03*
X056675Y025118D03*
X055175Y024618D03*
X054925Y026368D03*
X055300Y026618D03*
X053175Y027118D03*
X052925Y027618D03*
X058175Y026618D03*
X063675Y026618D03*
X063675Y025868D03*
X067175Y027118D03*
X067800Y027493D03*
X068300Y027493D03*
X068925Y027743D03*
X069425Y027618D03*
X070050Y027368D03*
X070425Y027368D03*
X070425Y027743D03*
X070925Y027743D03*
X071675Y027743D03*
X069425Y026118D03*
X067675Y028993D03*
X067175Y029493D03*
X066800Y029368D03*
X066425Y029243D03*
X066050Y028993D03*
X066675Y028618D03*
X058925Y022618D03*
X064925Y021493D03*
X065425Y021868D03*
X050800Y022743D03*
X050550Y022368D03*
X050300Y022118D03*
X050050Y021743D03*
X046675Y022243D03*
X047425Y018493D03*
X048175Y018243D03*
X049300Y018618D03*
X049300Y016493D03*
X048550Y015868D03*
X048300Y015243D03*
X047925Y014243D03*
X047550Y013993D03*
X047550Y013368D03*
X048550Y013743D03*
X048800Y012118D03*
X048300Y012118D03*
X047050Y012118D03*
X045925Y012118D03*
X045425Y012118D03*
X043425Y011743D03*
X043050Y011493D03*
X043425Y011243D03*
X043050Y010993D03*
X043425Y010743D03*
X043050Y010493D03*
X043425Y010243D03*
X043050Y009993D03*
X043050Y012118D03*
X041675Y013368D03*
X041675Y013743D03*
X040925Y014743D03*
X040550Y014743D03*
X040050Y014993D03*
X039675Y016243D03*
X039425Y017368D03*
X039425Y017743D03*
X039175Y018118D03*
X038050Y018118D03*
X037425Y017868D03*
X036425Y017743D03*
X036300Y016743D03*
X035550Y015368D03*
X038175Y013118D03*
X036175Y011243D03*
X034925Y011618D03*
X034425Y010368D03*
X032800Y010243D03*
X031925Y010118D03*
X031925Y010618D03*
X034175Y009118D03*
X036925Y009868D03*
X035675Y007868D03*
X038675Y006868D03*
X044300Y007493D03*
X045175Y007868D03*
X046300Y007493D03*
X047050Y007868D03*
X047925Y007493D03*
X049800Y007868D03*
X052050Y007493D03*
X052300Y008743D03*
X052050Y009618D03*
X051800Y010243D03*
X051550Y010868D03*
X051300Y011493D03*
X051050Y011993D03*
X050300Y011493D03*
X050550Y011118D03*
X050800Y010743D03*
X050050Y011993D03*
X049550Y011993D03*
X052300Y013743D03*
X048175Y016618D03*
X047300Y016118D03*
X044925Y016118D03*
X044550Y016118D03*
X044175Y016118D03*
X043800Y016118D03*
X043425Y016118D03*
X042675Y016118D03*
X041175Y016118D03*
X043050Y014993D03*
X043675Y014368D03*
X044175Y014368D03*
X044550Y014368D03*
X045050Y014368D03*
X045550Y014368D03*
X045300Y014993D03*
X044175Y017743D03*
X041425Y018618D03*
X049550Y009118D03*
X052675Y006118D03*
X050675Y004743D03*
X052675Y004118D03*
X058925Y004118D03*
X060425Y004118D03*
X060675Y005618D03*
X059175Y006868D03*
X056425Y009118D03*
X063300Y011868D03*
X064675Y011868D03*
X065050Y011243D03*
X066675Y011868D03*
X067175Y011868D03*
X068175Y011868D03*
X068925Y014118D03*
X072175Y014118D03*
X072550Y014118D03*
X061175Y013868D03*
X060675Y014118D03*
X029175Y004868D03*
X028550Y004868D03*
X029175Y004118D03*
X026800Y004868D03*
X024925Y004118D03*
X024925Y005618D03*
X024925Y007868D03*
X027675Y028368D03*
X028175Y028618D03*
X025675Y029493D03*
X024675Y030243D03*
X012175Y031743D03*
X010925Y032493D03*
X010175Y033118D03*
X012175Y034868D03*
X010925Y036618D03*
X011800Y030243D03*
D36*
X032925Y020743D02*
X032925Y019868D01*
X032175Y019118D01*
X032175Y017993D01*
X032625Y017993D01*
X032675Y017943D01*
X034550Y017493D02*
X034800Y017743D01*
X035250Y017743D01*
X035850Y017143D01*
X035850Y017118D01*
X036300Y017368D02*
X035925Y017743D01*
X035850Y017743D01*
X036425Y017743D02*
X036425Y017868D01*
X037425Y018868D01*
X037425Y021993D01*
X038050Y021493D02*
X038050Y020368D01*
X037800Y020118D01*
X037800Y018368D01*
X038050Y018118D01*
X037675Y018118D02*
X037425Y017868D01*
X037675Y018118D02*
X037675Y021118D01*
X037175Y020493D02*
X037175Y018868D01*
X036550Y018243D01*
X035050Y018243D01*
X035050Y018618D02*
X035050Y019618D01*
X035675Y020243D01*
X036175Y020243D01*
X035925Y019993D02*
X035300Y019368D01*
X035425Y018743D02*
X036300Y019618D01*
X036550Y019618D01*
X036550Y019993D02*
X035925Y019993D01*
X036300Y019243D02*
X035800Y018743D01*
X036175Y018743D02*
X036425Y018993D01*
X036925Y018993D01*
X036675Y019243D02*
X036300Y019243D01*
X037925Y016243D02*
X039425Y017743D01*
X039425Y017368D02*
X038175Y016118D01*
X038175Y013118D01*
X037925Y012993D02*
X036175Y011243D01*
X037925Y012993D02*
X037925Y016243D01*
X036300Y016743D02*
X036300Y017368D01*
X040425Y014618D02*
X040550Y014743D01*
X040425Y014618D02*
X040425Y014168D01*
X040425Y013568D02*
X041175Y013568D01*
X041500Y013568D01*
X041675Y013743D01*
X041175Y014168D02*
X041175Y014493D01*
X040925Y014743D01*
X043425Y014993D02*
X043425Y016118D01*
X044175Y016118D02*
X044175Y015118D01*
X044800Y014493D01*
X044800Y013993D01*
X044675Y013868D01*
X044675Y011493D01*
X043925Y010743D01*
X043425Y010743D01*
X043050Y010493D02*
X044050Y010493D01*
X044925Y011368D01*
X044925Y013868D01*
X045050Y013993D01*
X045050Y014368D01*
X045300Y014493D02*
X045300Y013993D01*
X046175Y013118D01*
X046175Y011993D01*
X044425Y010243D01*
X043425Y010243D01*
X043050Y009993D02*
X044550Y009993D01*
X046425Y011868D01*
X046425Y013243D01*
X045550Y014118D01*
X045550Y014368D01*
X045300Y014493D02*
X044550Y015243D01*
X044550Y016118D01*
X043425Y014993D02*
X043925Y014493D01*
X043925Y011868D01*
X043550Y011493D01*
X043050Y011493D01*
X043425Y011243D02*
X043675Y011243D01*
X044175Y011743D01*
X044175Y014368D01*
X044550Y014368D02*
X044550Y014118D01*
X044425Y013993D01*
X044425Y011618D01*
X043800Y010993D01*
X043050Y010993D01*
X043425Y011743D02*
X043675Y011993D01*
X043675Y014368D01*
X047550Y013993D02*
X047800Y013743D01*
X047800Y009868D01*
X049800Y007868D01*
X049550Y009118D02*
X048050Y010618D01*
X048050Y014118D01*
X047925Y014243D01*
X048550Y013743D02*
X048550Y015868D01*
X048300Y015243D02*
X048300Y012118D01*
X048800Y012118D02*
X048800Y012568D01*
X048800Y013168D02*
X048800Y013368D01*
X049550Y014118D01*
X049550Y023118D01*
X049300Y023368D01*
X048925Y023118D02*
X048925Y024118D01*
X049175Y024368D01*
X051050Y024368D01*
X051800Y025118D01*
X051300Y025368D02*
X050550Y024618D01*
X049050Y024618D01*
X048675Y024243D01*
X048675Y023368D01*
X048300Y022993D01*
X047800Y022993D01*
X048175Y022743D02*
X048550Y022743D01*
X048925Y023118D01*
X048175Y022243D02*
X047725Y022243D01*
X047125Y022243D02*
X046675Y022243D01*
X047125Y022243D02*
X047125Y021493D01*
X047725Y021493D02*
X048175Y021493D01*
X050050Y021743D02*
X050050Y011993D01*
X049800Y012243D02*
X049800Y024118D01*
X050425Y024868D02*
X049050Y024868D01*
X047425Y023243D01*
X047425Y023493D02*
X049050Y025118D01*
X050175Y025118D01*
X050425Y025368D01*
X049800Y025618D02*
X050550Y026368D01*
X051425Y026368D01*
X052175Y026868D02*
X052925Y027618D01*
X053175Y027118D02*
X052425Y026368D01*
X052425Y021118D01*
X052925Y020618D01*
X052925Y007118D01*
X051925Y006118D01*
X051675Y006368D02*
X052675Y007368D01*
X052675Y020368D01*
X052175Y020868D01*
X052175Y026868D01*
X052800Y025868D02*
X052800Y023618D01*
X053175Y023243D01*
X053175Y023868D02*
X053175Y025868D01*
X054925Y026368D02*
X054925Y028868D01*
X055050Y028993D01*
X055425Y028743D02*
X055175Y028493D01*
X055175Y026743D01*
X055300Y026618D01*
X055675Y027118D02*
X056675Y028118D01*
X055675Y027118D02*
X055675Y025118D01*
X055175Y024618D01*
X054675Y024618D02*
X054675Y030368D01*
X051425Y033618D01*
X051425Y039118D01*
X051175Y039368D01*
X050925Y039118D02*
X050925Y039618D01*
X051175Y039868D01*
X050925Y039118D02*
X051175Y038868D01*
X051175Y033618D01*
X054425Y030368D01*
X054425Y024493D01*
X056675Y022243D01*
X057175Y022743D02*
X056800Y023118D01*
X056175Y023118D01*
X054675Y024618D01*
X054175Y024368D02*
X054175Y030368D01*
X050925Y033618D01*
X050925Y036118D01*
X047175Y039868D01*
X058675Y032118D02*
X059050Y031743D01*
X063175Y031743D01*
X064175Y030743D01*
X064175Y028743D01*
X064550Y028368D01*
X064550Y024993D01*
X065175Y024368D01*
X065175Y023993D02*
X064300Y024868D01*
X064300Y028243D01*
X063925Y028618D01*
X063925Y030493D01*
X062925Y031493D01*
X058675Y031493D01*
X058300Y031868D01*
X058300Y031368D02*
X058300Y030868D01*
X059550Y029618D01*
X059925Y029618D02*
X059925Y029868D01*
X058675Y031118D01*
X064925Y028618D02*
X066675Y028618D01*
X067175Y028493D02*
X069300Y028493D01*
X070425Y027368D01*
X070050Y027368D02*
X069175Y028243D01*
X064925Y028243D01*
X065175Y027868D02*
X065300Y027993D01*
X068675Y027993D01*
X068925Y027743D01*
X068300Y027493D02*
X068050Y027743D01*
X065675Y027743D01*
X065550Y027618D01*
X065925Y027493D02*
X067800Y027493D01*
X067175Y027118D02*
X066175Y027118D01*
X066050Y025743D02*
X067800Y025743D01*
X068425Y025118D01*
X069425Y025118D01*
X071425Y023118D01*
X071425Y020118D01*
X069925Y018618D01*
X068175Y018618D01*
X068050Y018493D01*
X067800Y018868D02*
X067550Y018618D01*
X067800Y018868D02*
X069925Y018868D01*
X071175Y020118D01*
X071175Y022868D01*
X069175Y024868D01*
X068300Y024868D01*
X067675Y025493D01*
X066425Y025493D01*
X065925Y024993D02*
X067800Y024993D01*
X068175Y024618D01*
X068925Y024618D01*
X070925Y022618D01*
X070925Y020118D01*
X069925Y019118D01*
X067425Y019118D01*
X067175Y018868D01*
X067175Y019368D02*
X069925Y019368D01*
X070675Y020118D01*
X070675Y022368D01*
X068675Y024368D01*
X068050Y024368D01*
X067675Y024743D01*
X066300Y024743D01*
X065925Y024993D02*
X065675Y024743D01*
X067050Y024368D02*
X067050Y023618D01*
X068925Y021743D01*
X069425Y021743D02*
X067550Y023618D01*
X067550Y024368D01*
X068050Y023993D02*
X070050Y021993D01*
X070050Y020368D01*
X069925Y020243D01*
X070300Y020118D02*
X069925Y019743D01*
X070300Y020118D02*
X070300Y022118D01*
X068675Y023743D01*
X068300Y023368D02*
X069800Y021868D01*
X069925Y018118D02*
X073925Y022118D01*
X073675Y021618D02*
X069925Y017868D01*
X064925Y017868D01*
X063800Y018993D01*
X063800Y020368D01*
X064925Y021493D01*
X065425Y021618D02*
X065425Y021868D01*
X065425Y021618D02*
X064050Y020243D01*
X064050Y018993D01*
X064925Y018118D01*
X069925Y018118D01*
X070425Y017618D02*
X073925Y021118D01*
X073675Y020618D02*
X074425Y020618D01*
X074925Y021118D01*
X074425Y021618D02*
X074925Y022118D01*
X074425Y021618D02*
X073675Y021618D01*
X073675Y020618D02*
X070425Y017368D01*
X064925Y017368D01*
X062675Y019618D01*
X062675Y021118D01*
X063050Y021118D02*
X063050Y019493D01*
X064925Y017618D01*
X070425Y017618D01*
X070925Y017118D02*
X073925Y020118D01*
X073675Y019618D02*
X074425Y019618D01*
X074925Y020118D01*
X074925Y019118D02*
X074425Y018618D01*
X073675Y018618D01*
X071425Y016368D01*
X064925Y016368D01*
X061175Y020118D01*
X061175Y021118D01*
X061550Y021118D02*
X061550Y019993D01*
X064925Y016618D01*
X071425Y016618D01*
X073925Y019118D01*
X073675Y019618D02*
X070925Y016868D01*
X064925Y016868D01*
X061925Y019868D01*
X061925Y021118D01*
X062300Y021118D02*
X062300Y019743D01*
X064925Y017118D01*
X070925Y017118D01*
X071675Y015868D02*
X073925Y018118D01*
X073675Y017618D02*
X074425Y017618D01*
X074925Y018118D01*
X074925Y017118D02*
X074425Y016618D01*
X073675Y016618D01*
X072175Y015118D01*
X058175Y015118D01*
X056925Y016368D01*
X056925Y018368D01*
X057800Y019243D01*
X057800Y019493D01*
X057425Y019493D02*
X056675Y018743D01*
X056675Y016368D01*
X058175Y014868D01*
X072675Y014868D01*
X073925Y016118D01*
X073675Y015618D02*
X074425Y015618D01*
X074925Y016118D01*
X073675Y015618D02*
X072675Y014618D01*
X058175Y014618D01*
X056425Y016368D01*
X056425Y018868D01*
X057050Y019493D01*
X057050Y019868D01*
X057425Y020868D02*
X055675Y019118D01*
X055675Y015993D01*
X057800Y013868D01*
X061175Y013868D01*
X060675Y014118D02*
X057925Y014118D01*
X055925Y016118D01*
X055925Y019118D01*
X057800Y020993D01*
X057800Y021118D01*
X057425Y021118D02*
X057425Y020868D01*
X058425Y019493D02*
X057175Y018243D01*
X057175Y016368D01*
X058175Y015368D01*
X072175Y015368D01*
X073925Y017118D01*
X073675Y017618D02*
X071675Y015618D01*
X058175Y015618D01*
X057425Y016368D01*
X057425Y018118D01*
X058175Y018868D01*
X058425Y018868D01*
X058675Y019118D01*
X058675Y019243D01*
X058925Y018993D02*
X058550Y018618D01*
X058175Y018618D01*
X057675Y018118D01*
X057675Y016368D01*
X058175Y015868D01*
X071675Y015868D01*
X073675Y014618D02*
X070925Y011868D01*
X069425Y011868D01*
X068050Y010493D01*
X061550Y010493D01*
X059925Y012118D01*
X056925Y012118D01*
X053675Y015368D01*
X053675Y016743D01*
X053925Y017118D02*
X053925Y015493D01*
X057050Y012368D01*
X060050Y012368D01*
X061675Y010743D01*
X067925Y010743D01*
X070300Y013118D01*
X071925Y013118D01*
X073925Y015118D01*
X073675Y014618D02*
X074425Y014618D01*
X074925Y015118D01*
X072550Y014118D02*
X071800Y013368D01*
X070175Y013368D01*
X067800Y010993D01*
X061800Y010993D01*
X060175Y012618D01*
X057175Y012618D01*
X054175Y015618D01*
X054175Y017493D01*
X055175Y016868D02*
X055175Y016118D01*
X057675Y013618D01*
X071675Y013618D01*
X072175Y014118D01*
X068925Y014118D02*
X068675Y014368D01*
X058050Y014368D01*
X056175Y016243D01*
X056175Y018368D01*
X054925Y016493D02*
X054925Y015993D01*
X057550Y013368D01*
X060550Y013368D01*
X062050Y011868D01*
X063300Y011868D01*
X062050Y011493D02*
X067800Y011493D01*
X068175Y011868D01*
X065050Y011243D02*
X061925Y011243D01*
X060300Y012868D01*
X057300Y012868D01*
X054425Y015743D01*
X054675Y015868D02*
X057425Y013118D01*
X060425Y013118D01*
X062050Y011493D01*
X056425Y009118D02*
X055925Y008618D01*
X055925Y008118D01*
X055675Y007868D01*
X054925Y007868D01*
X054425Y007368D01*
X052050Y009618D02*
X052050Y016243D01*
X051800Y016993D02*
X051800Y010243D01*
X051550Y010868D02*
X051550Y017743D01*
X051300Y018493D02*
X051300Y011493D01*
X051050Y011993D02*
X051050Y020118D01*
X050300Y022118D02*
X050300Y011493D01*
X050550Y011118D02*
X050550Y022368D01*
X050800Y022743D02*
X050800Y010743D01*
X049550Y011993D02*
X049800Y012243D01*
X054675Y015868D02*
X054675Y016118D01*
X054725Y020368D02*
X055425Y021068D01*
X055425Y021118D01*
X055050Y021118D02*
X054725Y021118D01*
X055050Y021118D02*
X055425Y021493D01*
X055425Y022243D02*
X055175Y022493D01*
X055175Y023368D01*
X054175Y024368D01*
X061425Y023743D02*
X061925Y023243D01*
X064800Y023243D01*
X065550Y023993D01*
X065550Y023618D02*
X064925Y022993D01*
X061800Y022993D01*
X061425Y023368D01*
X068925Y029243D02*
X070425Y027743D01*
X070925Y027743D02*
X069175Y029493D01*
X067175Y029493D01*
X066925Y029243D02*
X068925Y029243D01*
X067175Y028493D02*
X066425Y029243D01*
X066800Y029368D02*
X066925Y029243D01*
X047425Y023493D02*
X047050Y023493D01*
X042175Y022993D02*
X042175Y021243D01*
X041925Y021743D02*
X041925Y022993D01*
X040925Y023993D01*
X040925Y024118D01*
X040675Y024368D01*
X040675Y023993D02*
X040225Y023993D01*
X039925Y023743D02*
X039925Y023493D01*
X039925Y023743D02*
X039675Y023993D01*
X039625Y023993D01*
X040675Y023993D02*
X041675Y022993D01*
X041675Y022243D01*
X042175Y022993D02*
X041300Y023868D01*
X041300Y024118D01*
X041050Y024368D01*
X039625Y024743D02*
X039175Y024743D01*
X037925Y023868D02*
X036050Y023868D01*
X032925Y020743D01*
X038675Y006868D02*
X041425Y006868D01*
X042425Y005868D01*
D37*
X043425Y027118D03*
X051425Y028368D03*
X051425Y029618D03*
X052675Y030118D03*
X043925Y035118D03*
X043925Y036368D03*
X073675Y033618D03*
D38*
X070675Y031618D03*
X067175Y034118D03*
X067675Y034618D03*
X065175Y034118D03*
X062925Y035618D03*
X063675Y037118D03*
X064425Y037118D03*
X065175Y037118D03*
X065925Y037118D03*
X066675Y037118D03*
X060175Y038868D03*
X059175Y038868D03*
X059425Y032118D03*
X060425Y032118D03*
X061425Y032118D03*
D39*
X062425Y031118D02*
X062425Y029418D01*
X062125Y029418D01*
X061550Y029993D01*
X061488Y029931D01*
X062425Y029418D02*
X063175Y029418D01*
X063175Y028818D02*
X062425Y028818D01*
X062425Y028118D01*
X062325Y027668D02*
X062625Y027368D01*
X062325Y027668D02*
X061175Y027668D01*
X060925Y027868D01*
X060925Y028118D01*
X060925Y028493D01*
X061363Y028931D01*
X061488Y028931D01*
X060425Y028868D02*
X060425Y028118D01*
X060425Y027668D01*
X059675Y027668D01*
X059925Y028118D02*
X059925Y028368D01*
X059425Y028868D01*
X058175Y028118D02*
X058175Y027668D01*
X057425Y027668D01*
X057125Y027368D01*
X057125Y026493D01*
X057800Y026493D01*
X058050Y026243D01*
X061925Y026243D01*
X062300Y026618D01*
X062300Y026868D01*
X062425Y026993D01*
X063225Y026993D01*
X063225Y027368D01*
X063225Y026993D02*
X063225Y026618D01*
X063225Y025868D01*
X063225Y025118D01*
X063225Y024693D01*
X063675Y024243D01*
X062675Y024243D02*
X062625Y024293D01*
X062625Y025118D01*
X062625Y025868D01*
X062175Y025868D01*
X062625Y025868D02*
X062625Y026618D01*
X063225Y026618D02*
X063675Y026618D01*
X065675Y026618D02*
X067925Y026618D01*
X068925Y025618D01*
X070425Y025618D01*
X072175Y027368D01*
X072175Y038868D01*
X070925Y040118D01*
X070175Y040118D01*
X069675Y040618D01*
X069683Y040618D01*
X070667Y040618D02*
X070675Y040618D01*
X071175Y041118D01*
X071625Y041118D01*
X071675Y041168D01*
X071675Y040618D02*
X071675Y040568D01*
X071675Y040618D02*
X072425Y039868D01*
X072425Y027118D01*
X070675Y025368D01*
X068675Y025368D01*
X067925Y026118D01*
X066175Y026118D01*
X069425Y026118D02*
X069425Y026568D01*
X069425Y027168D02*
X069425Y027618D01*
X061175Y027068D02*
X061175Y026618D01*
X061175Y027068D02*
X060425Y027068D01*
X059675Y027068D01*
X058175Y027068D02*
X058175Y026618D01*
X058175Y027068D02*
X057425Y027068D01*
X057125Y026493D02*
X057125Y025868D01*
X057125Y025118D01*
X057125Y024368D01*
X057125Y023618D01*
X057725Y023618D02*
X057725Y024368D01*
X057725Y025118D01*
X057725Y025868D01*
X059425Y023493D02*
X061125Y025193D01*
X061100Y025868D02*
X060675Y025868D01*
X059425Y023493D02*
X059425Y021868D01*
X059125Y021568D01*
X058925Y021568D01*
X058175Y021568D01*
X057250Y021568D01*
X056300Y020618D01*
X056300Y021618D02*
X056800Y021618D01*
X057350Y022168D01*
X058175Y022168D01*
X058925Y022168D01*
X058925Y022618D01*
X060425Y022618D02*
X060425Y022168D01*
X061175Y022168D01*
X061175Y021568D02*
X060425Y021568D01*
X060425Y021118D01*
X060425Y020118D01*
X059875Y019568D01*
X059875Y019543D01*
X061050Y019368D02*
X061425Y019368D01*
X058925Y021118D02*
X058925Y021568D01*
X062175Y021868D02*
X062625Y021868D01*
X062625Y022618D01*
X063225Y022618D02*
X063225Y021868D01*
X063675Y021868D01*
X067925Y020118D02*
X068375Y020118D01*
X068975Y020118D02*
X069425Y020118D01*
X049300Y018618D02*
X049050Y018868D01*
X047725Y018868D01*
X047800Y018743D01*
X047800Y018081D01*
X047530Y017811D01*
X047575Y017893D01*
X047530Y017811D02*
X047425Y017618D01*
X047425Y018493D02*
X047125Y018793D01*
X047125Y018868D01*
X046800Y018868D01*
X046425Y018493D01*
X046425Y017618D01*
X047125Y018868D02*
X047125Y019618D01*
X047725Y019618D02*
X047725Y018868D01*
X044925Y017168D02*
X044175Y017168D01*
X044175Y017743D01*
X044175Y017168D02*
X043425Y017168D01*
X042675Y017168D01*
X041925Y017168D01*
X041925Y016568D02*
X042675Y016568D01*
X042675Y016493D01*
X043050Y016118D01*
X043050Y014993D01*
X040675Y015618D02*
X040675Y016868D01*
X040675Y017868D02*
X041425Y018618D01*
X040225Y019118D02*
X040225Y019868D01*
X040225Y020618D01*
X040675Y020618D01*
X040925Y020868D01*
X040925Y021868D01*
X041075Y021893D01*
X040925Y022118D01*
X039925Y022118D02*
X038550Y022118D01*
X038050Y022618D01*
X041675Y024068D02*
X042050Y024443D01*
X042050Y025118D01*
X041675Y024668D02*
X041675Y026243D01*
X041800Y026368D01*
X042425Y026368D02*
X042425Y030743D01*
X042675Y030993D01*
X042675Y031243D01*
X043425Y031243D02*
X043425Y030993D01*
X042925Y030493D01*
X042925Y026368D01*
X040425Y026618D02*
X039875Y026068D01*
X039675Y026068D01*
X039675Y026668D02*
X039675Y028118D01*
X039425Y028368D01*
X038425Y028368D02*
X038425Y027368D01*
X038175Y027118D01*
X038175Y026668D01*
X038925Y026668D01*
X038925Y026068D02*
X038925Y025743D01*
X039175Y025493D01*
X039550Y025118D01*
X040050Y025118D01*
X040225Y024943D01*
X040225Y024743D01*
X038175Y026068D02*
X037975Y026068D01*
X037425Y026618D01*
X037425Y026868D01*
X033175Y026618D02*
X032925Y026368D01*
X020925Y026368D01*
X018175Y023618D01*
X018175Y021743D01*
X017675Y021243D01*
X017675Y022118D02*
X017675Y023618D01*
X020675Y026618D01*
X032425Y026618D01*
X032675Y026868D01*
X031925Y027118D02*
X019925Y027118D01*
X018175Y025368D01*
X011675Y025368D01*
X009175Y022868D01*
X009175Y021868D01*
X009675Y021368D01*
X009675Y022118D02*
X009675Y022868D01*
X011675Y024868D01*
X018175Y024868D01*
X020175Y026868D01*
X031675Y026868D01*
X031300Y027618D02*
X029925Y028993D01*
X029925Y035868D01*
X029175Y036618D01*
X027925Y036618D01*
X027425Y036868D02*
X029300Y036868D01*
X030175Y035993D01*
X030175Y029368D01*
X031300Y028243D01*
X030550Y027618D02*
X029175Y027618D01*
X028175Y028618D01*
X027675Y028368D02*
X028675Y027368D01*
X030175Y027368D01*
X031425Y029118D02*
X033550Y029118D01*
X034550Y030118D01*
X034550Y034368D01*
X033675Y034368D01*
X032925Y034168D02*
X032925Y036118D01*
X033175Y036368D01*
X035175Y035118D02*
X035175Y034618D01*
X034925Y034368D01*
X034550Y034368D01*
X035175Y035118D02*
X036800Y036743D01*
X037800Y036743D01*
X038175Y036368D01*
X038175Y034368D01*
X037425Y034168D02*
X037425Y036118D01*
X037675Y036368D01*
X035675Y037368D02*
X026175Y037368D01*
X023925Y035118D01*
X023925Y031618D01*
X024425Y031118D01*
X024625Y031118D01*
X024675Y031068D01*
X024675Y030243D01*
X025675Y029943D02*
X025675Y029493D01*
X025675Y030543D02*
X025675Y031443D01*
X026425Y032193D01*
X026425Y032318D01*
X026475Y032368D01*
X027925Y032368D01*
X026925Y032868D02*
X026475Y032868D01*
X026425Y032918D01*
X025675Y033193D02*
X025675Y033243D01*
X025300Y032868D01*
X025300Y032368D02*
X025550Y032118D01*
X025675Y032043D01*
X025675Y031443D02*
X024900Y031443D01*
X024675Y031668D01*
X024675Y033568D02*
X025000Y033568D01*
X025175Y033743D01*
X025625Y033743D01*
X025675Y033793D01*
X025675Y034693D01*
X025475Y034693D01*
X025175Y034993D01*
X024675Y034993D02*
X024675Y034168D01*
X025675Y035293D02*
X025675Y035743D01*
X030925Y033118D02*
X031175Y033368D01*
X031425Y033368D01*
X031425Y033418D01*
X032175Y034168D01*
X032325Y034168D01*
X032925Y033568D01*
X032425Y033118D02*
X032175Y033368D01*
X032175Y033568D01*
X032425Y033118D02*
X032175Y032868D01*
X032175Y032668D01*
X032175Y032068D02*
X031425Y032818D01*
X031425Y032743D01*
X031050Y032368D01*
X031425Y032818D02*
X031425Y032868D01*
X032175Y032068D02*
X032325Y032068D01*
X032925Y032668D01*
X032925Y032068D02*
X032925Y031868D01*
X032675Y031618D01*
X031425Y031618D01*
X031175Y031368D01*
X031175Y031118D01*
X031925Y030868D02*
X032550Y030243D01*
X034050Y030243D01*
X034175Y030368D01*
X033925Y030868D02*
X034175Y031118D01*
X033925Y030868D02*
X032925Y030868D01*
X035675Y031118D02*
X035675Y031368D01*
X035925Y031618D01*
X037175Y031618D01*
X037425Y031868D01*
X037425Y032068D01*
X036825Y032068D02*
X037425Y032668D01*
X036925Y033118D02*
X036675Y033368D01*
X036675Y033568D01*
X036925Y033118D02*
X036675Y032868D01*
X036675Y032668D01*
X036675Y032068D02*
X035925Y032818D01*
X035925Y032868D01*
X035300Y032868D01*
X035050Y033368D02*
X035925Y033368D01*
X035925Y033418D01*
X036675Y034168D01*
X036825Y034168D01*
X037425Y033568D01*
X036825Y032068D02*
X036675Y032068D01*
X036425Y030868D02*
X037050Y030243D01*
X038550Y030243D01*
X038675Y030368D01*
X038425Y030868D02*
X038675Y031118D01*
X038425Y030868D02*
X037425Y030868D01*
X045800Y026243D02*
X045800Y025368D01*
X045425Y024993D01*
X045425Y024668D01*
X046175Y024668D01*
X046550Y024368D02*
X046250Y024068D01*
X046175Y024068D01*
X045425Y024068D01*
X044425Y024368D02*
X044125Y024068D01*
X043925Y024068D01*
X043175Y024068D01*
X043175Y024668D02*
X043925Y024668D01*
X043175Y024668D02*
X043175Y025118D01*
X047175Y028368D02*
X048425Y028368D01*
X048425Y029118D01*
X048675Y029368D01*
X050175Y033618D02*
X053675Y030118D01*
X053925Y030368D02*
X050550Y033743D01*
X050550Y035493D01*
X050175Y035618D02*
X050550Y035993D01*
X050175Y035618D02*
X050175Y033618D01*
X053675Y032618D02*
X054425Y032618D01*
X054513Y032618D01*
X056087Y032618D02*
X056925Y032618D01*
X054925Y034118D02*
X054925Y034568D01*
X054975Y034618D01*
X054975Y034918D01*
X055175Y035118D01*
X055175Y035618D01*
X054175Y035618D02*
X054175Y035118D01*
X054375Y034918D01*
X054375Y034618D01*
X054425Y034568D01*
X054425Y034118D01*
X054675Y036368D02*
X056425Y038118D01*
X057425Y038118D01*
X057925Y038618D01*
X058425Y038118D02*
X058425Y039818D01*
X058475Y040368D02*
X058425Y040418D01*
X058475Y040368D02*
X058925Y040368D01*
X059425Y039868D01*
X060175Y039868D01*
X060667Y040360D01*
X060667Y041014D01*
X060667Y041801D02*
X060667Y042376D01*
X060175Y042868D01*
X059425Y042868D01*
X057675Y041118D01*
X057675Y040418D01*
X057675Y039818D02*
X057675Y039368D01*
X056925Y038618D01*
X056425Y038618D01*
X054675Y036868D01*
X055875Y036868D02*
X055875Y036943D01*
X056550Y037618D01*
X056925Y037618D02*
X056475Y037168D01*
X056475Y036868D01*
X057050Y037243D02*
X057550Y037243D01*
X058425Y038118D01*
X051825Y043868D02*
X051108Y043152D01*
X051825Y043868D02*
X052375Y043868D01*
X052975Y043868D02*
X052975Y044618D01*
X052375Y044618D02*
X051807Y044618D01*
X051108Y045317D01*
X052975Y043868D02*
X053425Y043868D01*
X046675Y041618D02*
X045925Y042368D01*
X046675Y041618D02*
X046675Y038368D01*
X038579Y040057D02*
X037864Y040057D01*
X037175Y039368D01*
X037175Y038868D01*
X035675Y037368D01*
X023175Y025368D02*
X022550Y025993D01*
X021050Y025993D01*
X020925Y025868D01*
X021175Y025368D02*
X020925Y025118D01*
X021175Y025368D02*
X022175Y025368D01*
X022425Y024618D02*
X023675Y024618D01*
X023925Y024868D01*
X023925Y025118D01*
X022925Y024168D02*
X023675Y023418D01*
X023675Y023368D01*
X024675Y023368D01*
X024925Y022868D02*
X023675Y022868D01*
X023675Y022818D01*
X022925Y022068D01*
X022775Y022068D01*
X022175Y022668D01*
X022175Y022068D02*
X022175Y020118D01*
X021925Y019868D01*
X021800Y019493D02*
X022800Y019493D01*
X024675Y021368D01*
X025300Y022368D02*
X025925Y021743D01*
X025925Y018993D01*
X026175Y018743D02*
X026175Y021868D01*
X025675Y022368D01*
X025675Y023993D01*
X026050Y023618D02*
X026050Y022368D01*
X026425Y021993D01*
X026425Y018493D01*
X026675Y018243D02*
X026675Y022118D01*
X026425Y022368D01*
X026425Y023243D01*
X025300Y022368D02*
X025300Y024368D01*
X022925Y024168D02*
X022775Y024168D01*
X022175Y023568D01*
X022175Y024168D02*
X022175Y024368D01*
X022425Y024618D01*
X022925Y023568D02*
X022925Y023368D01*
X022675Y023118D01*
X022925Y022868D01*
X022925Y022668D01*
X021425Y021868D02*
X021425Y019868D01*
X019425Y019868D01*
X020925Y018868D02*
X021050Y018993D01*
X022550Y018993D01*
X023175Y018368D01*
X023925Y018118D02*
X023925Y017868D01*
X023675Y017618D01*
X022425Y017618D01*
X022175Y017368D01*
X022175Y017168D01*
X022775Y017168D02*
X022175Y016568D01*
X022675Y016118D02*
X022925Y015868D01*
X022925Y015668D01*
X022675Y016118D02*
X022925Y016368D01*
X022925Y016568D01*
X022925Y017168D02*
X023675Y016418D01*
X023675Y016368D01*
X024175Y016368D01*
X025050Y017243D01*
X025050Y018493D01*
X025425Y018618D02*
X025050Y018993D01*
X025425Y018618D02*
X025425Y016868D01*
X024425Y015868D01*
X023675Y015868D01*
X023675Y015818D01*
X022925Y015068D01*
X022775Y015068D01*
X022175Y015668D01*
X022175Y015068D02*
X022175Y013118D01*
X021925Y012868D01*
X021800Y012493D02*
X022800Y012493D01*
X024675Y014368D01*
X024675Y015118D01*
X021425Y014868D02*
X021425Y012868D01*
X021800Y012493D01*
X022775Y017168D02*
X022925Y017168D01*
X021175Y018368D02*
X020925Y018118D01*
X021175Y018368D02*
X022175Y018368D01*
X021800Y019493D02*
X021425Y019868D01*
X016800Y023118D02*
X016350Y023118D01*
X016050Y023618D02*
X015750Y023318D01*
X015750Y023118D01*
X014850Y023118D01*
X014800Y023168D01*
X014800Y023618D01*
X014625Y023793D01*
X014625Y024118D01*
X015225Y024118D02*
X016050Y024118D01*
X014300Y023118D02*
X013925Y023493D01*
X014250Y023118D02*
X014300Y023118D01*
X013975Y022368D02*
X013925Y022318D01*
X013925Y021868D01*
X013425Y022318D02*
X013375Y022368D01*
X013250Y022368D01*
X012500Y023118D01*
X011600Y023118D01*
X011000Y023118D02*
X010550Y023118D01*
X012500Y023118D02*
X012500Y023893D01*
X012725Y024118D01*
X013425Y023493D02*
X013175Y023243D01*
X013100Y023118D01*
X013425Y022318D02*
X013425Y020868D01*
X030050Y020918D02*
X030500Y020918D01*
X030550Y020868D01*
X030550Y020493D02*
X030375Y020318D01*
X030050Y020318D01*
X031289Y020879D02*
X031300Y020868D01*
X031289Y020879D02*
X031289Y021368D01*
X031000Y021658D01*
X031000Y021743D01*
X031000Y021693D01*
X031600Y021743D02*
X031600Y021193D01*
X031675Y021118D01*
X031600Y021743D02*
X031600Y021793D01*
X033800Y020993D02*
X033925Y020868D01*
X034050Y020868D01*
X034250Y020668D01*
X034300Y020668D01*
X034300Y020068D02*
X034300Y019993D01*
X033925Y019618D01*
X033425Y019618D01*
X033425Y018543D01*
X032675Y018543D01*
X033425Y017943D02*
X033500Y017868D01*
X033925Y017868D01*
X033475Y017868D02*
X033425Y017943D01*
X031550Y017993D02*
X031550Y017568D01*
X031475Y017493D01*
X030925Y017543D02*
X030875Y017493D01*
X030925Y017543D02*
X030925Y017743D01*
X031175Y017993D01*
X030550Y018493D02*
X030425Y018368D01*
X030100Y018368D01*
X030050Y018318D01*
X030125Y018318D01*
X030050Y018918D02*
X030475Y018918D01*
X030550Y018993D01*
X035250Y017118D02*
X035250Y015668D01*
X035550Y015368D01*
X035675Y013118D02*
X033675Y013118D01*
X031925Y011368D01*
X031925Y010618D01*
X031925Y010118D02*
X032425Y010618D01*
X032425Y011118D01*
X033425Y012118D01*
X034675Y012118D01*
X035175Y012618D01*
X035675Y013118D02*
X036175Y012618D01*
X034925Y010868D02*
X034425Y010368D01*
X034675Y010118D01*
X034675Y009918D01*
X034725Y009868D01*
X034175Y009868D02*
X034175Y009118D01*
X034175Y009868D02*
X034125Y009868D01*
X033750Y010243D01*
X033925Y010418D01*
X033925Y010868D01*
X033750Y010243D02*
X032800Y010243D01*
X040050Y014993D02*
X040675Y015618D01*
X043425Y016493D02*
X043800Y016118D01*
X043425Y016493D02*
X043425Y016568D01*
X044175Y016568D01*
X044925Y016568D02*
X044975Y016568D01*
X045300Y016243D01*
X045300Y014993D01*
X045425Y013168D02*
X045750Y013168D01*
X045925Y012993D01*
X045925Y012118D01*
X045425Y012118D02*
X045425Y012568D01*
X047050Y012568D02*
X047050Y012118D01*
X047050Y013168D02*
X047100Y013168D01*
X047300Y013368D01*
X047550Y013368D01*
X052300Y008743D02*
X052100Y008543D01*
X051800Y008543D01*
X051800Y007943D02*
X051800Y007743D01*
X052050Y007493D01*
X051675Y006368D02*
X044925Y006368D01*
X044175Y005618D01*
X044175Y004868D01*
X043425Y004118D01*
X029925Y004118D01*
X029175Y004868D01*
X029175Y004118D02*
X029425Y003868D01*
X043675Y003868D01*
X044425Y004618D01*
X044425Y005368D01*
X045175Y006118D01*
X051925Y006118D01*
X047925Y007493D02*
X047675Y007743D01*
X047675Y007943D01*
X047675Y008543D02*
X047345Y008543D01*
X047045Y008243D01*
X047045Y007873D01*
X047050Y007868D01*
X046300Y007493D02*
X046050Y007743D01*
X046050Y007943D01*
X046050Y008543D02*
X045850Y008543D01*
X045175Y007868D01*
X044500Y008543D01*
X044300Y008543D01*
X043550Y008543D01*
X043550Y007943D02*
X044300Y007943D01*
X044300Y007493D01*
X039625Y019118D02*
X039625Y019868D01*
X038177Y019868D01*
X038114Y019805D01*
X039175Y020743D02*
X039300Y020743D01*
X039425Y020618D01*
X039625Y020618D01*
X047125Y020568D02*
X047425Y020868D01*
X047675Y021118D01*
X048175Y021118D01*
X048175Y020618D02*
X047925Y020618D01*
X047725Y020418D01*
X047725Y020368D01*
X047125Y020368D02*
X047125Y020568D01*
X069675Y041610D02*
X069683Y041603D01*
X069675Y041610D02*
X069675Y042118D01*
X069875Y042318D01*
X069875Y042618D01*
X070475Y042618D02*
X070475Y042318D01*
X070675Y042118D01*
X070675Y041610D01*
X070667Y041603D01*
D40*
X057675Y033118D02*
X056550Y034243D01*
X056425Y033618D02*
X053675Y033618D01*
X053425Y033868D01*
X051925Y033618D02*
X051925Y042368D01*
X051175Y043118D01*
X051108Y043152D01*
X050175Y042618D02*
X050175Y044384D01*
X051108Y045317D01*
X050175Y042618D02*
X051675Y040868D01*
X051675Y033618D01*
X054175Y031118D01*
X055175Y031118D01*
X055175Y031493D02*
X054050Y031493D01*
X051925Y033618D01*
X056425Y033618D02*
X057175Y032868D01*
X057175Y029493D01*
X056425Y029368D02*
X056425Y029818D01*
X055675Y029818D01*
X055675Y030418D02*
X056425Y030418D01*
X056425Y030868D01*
X057675Y030118D02*
X057675Y033118D01*
X057425Y032993D02*
X057425Y032618D01*
X057425Y028118D01*
X058925Y028118D02*
X058925Y029368D01*
X057925Y030368D01*
X057925Y032368D01*
X057675Y030118D02*
X058425Y029368D01*
X061175Y027668D02*
X061175Y027618D01*
X062550Y027368D02*
X062625Y027368D01*
X061100Y025868D02*
X061175Y025793D01*
X060675Y025868D02*
X060600Y025793D01*
X061125Y025193D02*
X061175Y025193D01*
X061550Y024618D02*
X059675Y022743D01*
X059675Y020868D01*
X059175Y020368D01*
X059175Y018168D01*
X059125Y018118D01*
X058300Y018118D01*
X059725Y018118D02*
X060175Y018118D01*
X060625Y018118D01*
X060725Y018618D02*
X061225Y018118D01*
X062050Y018118D01*
X060725Y018618D02*
X059800Y018618D01*
X059425Y018993D01*
X059425Y020368D01*
X059925Y020868D01*
X059925Y022618D01*
X061550Y024243D01*
X062050Y024243D01*
X061925Y024618D02*
X061550Y024618D01*
X058175Y024368D02*
X057725Y024368D01*
X057125Y024368D02*
X056675Y024368D01*
X056675Y025118D02*
X057125Y025118D01*
X057725Y025118D02*
X058175Y025118D01*
X057175Y023618D02*
X057125Y023618D01*
X054725Y022618D02*
X054725Y021868D01*
X055425Y021868D01*
X054125Y021868D02*
X054125Y022618D01*
X053925Y023118D02*
X053925Y030368D01*
X053675Y030118D02*
X053675Y023243D01*
X053050Y022618D01*
X053050Y021368D01*
X054050Y020368D01*
X054125Y020368D01*
X054125Y021118D02*
X053800Y021118D01*
X053300Y021618D01*
X053300Y022493D01*
X053925Y023118D01*
X054125Y021868D02*
X053675Y021868D01*
X059875Y019543D02*
X059925Y019493D01*
X060925Y019493D02*
X061050Y019368D01*
D41*
X074925Y010118D02*
X075675Y010868D01*
X075675Y031618D01*
X073675Y033618D01*
X070675Y033243D02*
X070675Y031618D01*
X067675Y034618D02*
X069050Y035993D01*
X070675Y035993D01*
X067550Y039118D02*
X067425Y039743D01*
X064925Y039618D02*
X064800Y039493D01*
X064800Y039118D01*
X060175Y038868D02*
X060175Y037993D01*
X059175Y037993D02*
X059175Y038868D01*
X062925Y034618D02*
X062925Y033368D01*
X063925Y033368D02*
X063925Y034618D01*
D42*
X064675Y034618D01*
X065175Y034118D01*
X062925Y034618D02*
X062925Y035618D01*
X062925Y037618D01*
X064800Y039493D01*
X066175Y041368D02*
X067425Y040118D01*
X067425Y039743D01*
D43*
X066675Y037618D02*
X064800Y039493D01*
X066675Y037618D02*
X068375Y037618D01*
X068975Y037618D02*
X069875Y037618D01*
X069925Y037668D01*
X069925Y038368D01*
X070675Y039118D01*
X070675Y039626D01*
X070667Y039634D01*
X071175Y037868D02*
X070925Y037618D01*
X070475Y037618D01*
X073175Y037618D02*
X073175Y040368D01*
X074125Y041318D01*
X074125Y041368D01*
X074125Y042118D01*
X074725Y042118D02*
X074725Y041368D01*
X074725Y042118D02*
X074725Y042868D01*
X075425Y042868D01*
X074125Y042868D02*
X073425Y042868D01*
X048925Y026868D02*
X048425Y027368D01*
X047175Y027368D01*
X048925Y026868D02*
X049425Y026868D01*
X023175Y035618D02*
X022329Y034772D01*
X021829Y034772D01*
X016175Y029118D01*
X016175Y027118D01*
X015175Y027118D02*
X015175Y029118D01*
X017079Y031022D01*
X017079Y035272D01*
X021175Y036618D02*
X022925Y038368D01*
X022925Y039118D01*
X023425Y039618D01*
X023425Y040368D01*
X023175Y040618D01*
X023175Y041618D01*
X024114Y042557D01*
X024579Y042557D01*
X012175Y034868D02*
X012175Y031743D01*
X013175Y030743D01*
X013175Y027118D01*
X031300Y009118D02*
X034175Y009118D01*
X031300Y009118D02*
X027800Y005618D01*
X028550Y004868D01*
X028550Y003993D01*
X028925Y003618D01*
X043925Y003618D01*
X044675Y004368D01*
X044675Y005118D01*
X045425Y005868D01*
X046425Y005868D01*
X047175Y005118D01*
X047175Y004368D01*
X047925Y003618D01*
X069675Y003618D01*
X074425Y008368D01*
X074425Y009618D01*
X074925Y010118D01*
X027800Y005618D02*
X024925Y005618D01*
M02*
