%
M48
M72
T01C0.0150
T02C0.0236
T03C0.0315
T04C0.0354
T05C0.0400
T06C0.0866
T07C0.1102
T08C0.1260
%
T01
X10900Y4650
X18900Y4650
X26900Y4650
X33650Y8400
X34150Y8900
X33650Y10650
X33650Y11400
X32650Y13150
X31400Y10900
X33900Y15400
X32650Y15650
X31525Y16150
X34150Y18650
X37150Y18650
X37150Y18150
X40400Y15400
X37650Y14400
X43150Y10900
X43650Y11400
X44150Y11900
X44650Y12400
X45150Y12900
X45650Y13400
X46150Y13900
X48650Y11400
X48150Y10900
X47650Y10400
X47150Y9900
X46650Y9400
X46150Y8900
X45650Y8400
X41400Y7900
X41400Y8900
X37650Y5650
X40400Y5150
X39400Y3150
X34900Y4650
X47400Y3650
X55650Y7900
X56150Y7900
X56650Y7900
X57150Y7900
X55150Y11900
X55150Y14900
X55650Y15400
X56150Y15400
X56650Y15400
X57150Y15400
X54400Y15650
X63150Y13650
X63150Y13150
X66150Y17150
X53150Y25400
X54400Y27650
X49400Y27650
X48150Y25400
X44400Y27650
X43150Y25400
X39400Y27650
X38150Y25400
X36650Y21150
X62900Y37400
X63650Y36650
X64025Y38650
X62400Y38650
X60775Y38650
X59150Y38650
X66150Y30650
X66650Y30650
X61400Y3400
T02
X61400Y4650
X60900Y4650
X60400Y4650
X59900Y4650
X59400Y4650
X61900Y4650
X64900Y4650
X67150Y5650
X64900Y6900
X67650Y7900
X54900Y16900
X54400Y16900
X53900Y16900
X53400Y16900
X52900Y16900
X52400Y16900
X40900Y16650
X40400Y16650
X39900Y16650
X39400Y16650
X38900Y16650
X38400Y16650
X45400Y4900
X45900Y4900
X46400Y4900
X46900Y4900
X47400Y4900
X47900Y4900
X66650Y27400
X66650Y28150
T03
X55284Y35536
X56150Y37150
X57016Y36166
X55481Y38134
X56819Y39119
X52016Y36166
X51150Y37150
X50481Y38134
X51819Y39119
X46819Y39119
X45481Y38134
X46150Y37150
X47016Y36166
X45284Y35536
X42016Y36166
X41150Y37150
X40481Y38134
X41819Y39119
X40284Y35536
X39319Y33119
X37981Y32134
X38650Y31150
X39516Y30166
X37784Y29536
X42784Y29536
X44516Y30166
X43650Y31150
X42981Y32134
X44319Y33119
X47981Y32134
X48650Y31150
X49516Y30166
X47784Y29536
X49319Y33119
X52981Y32134
X53650Y31150
X54516Y30166
X52784Y29536
X54319Y33119
X50284Y35536
X25819Y33119
X25819Y32331
X25819Y31544
X25819Y30756
X25819Y29969
X25819Y29181
X17819Y29181
X17819Y29969
X17819Y30756
X17819Y31544
X17819Y32331
X17819Y33119
X9819Y33119
X9819Y32331
X9819Y31544
X9819Y30756
X9819Y29969
X9819Y29181
X1819Y29181
X1819Y29969
X1819Y30756
X1819Y31544
X1819Y32331
X1819Y33119
T04
X4969Y4134
X7331Y4134
X7331Y2166
X4969Y2166
X12969Y2166
X15331Y2166
X15331Y4134
X12969Y4134
X20969Y4134
X23331Y4134
X23331Y2166
X20969Y2166
X28969Y2166
X31331Y2166
X31331Y4134
X28969Y4134
X60969Y30166
X63331Y30166
X63331Y32134
X60969Y32134
T05
X65650Y22650
X66650Y22650
X66650Y21650
X65650Y21650
X65650Y20650
X66650Y20650
X66650Y19650
X65650Y19650
X65650Y18650
X66650Y18650
X66650Y17650
X65650Y17650
X65650Y16650
X66650Y16650
X66650Y15650
X65650Y15650
X65650Y14650
X66650Y14650
X66650Y13650
X65650Y13650
X65650Y12650
X66650Y12650
X66650Y11650
X65650Y11650
X65650Y10650
X66650Y10650
X66650Y9650
X65650Y9650
X27650Y6900
X26650Y6900
X25650Y6900
X24650Y6900
X23650Y6900
X22650Y6900
X21650Y6900
X20650Y6900
X19650Y6900
X18650Y6900
X17650Y6900
X16650Y6900
X15650Y6900
X14650Y6900
X13650Y6900
X12650Y6900
X11650Y6900
X10650Y6900
X9650Y6900
X8650Y6900
X2650Y12150
X1650Y12150
X1650Y13150
X2650Y13150
X2650Y14150
X1650Y14150
X1650Y15150
X2650Y15150
X2650Y16150
X1650Y16150
X1650Y17150
X2650Y17150
X2650Y18150
X1650Y18150
X1650Y19150
X2650Y19150
X2650Y20150
X1650Y20150
T06
X6150Y28985
X6150Y33315
X14150Y33315
X14150Y28985
X22150Y28985
X22150Y33315
X30150Y33315
X30150Y28985
T07
X33400Y23650
X33400Y6900
X2900Y6900
X2900Y23650
T08
X1150Y1150
X1150Y43150
X37650Y43150
X67150Y43150
X67150Y1150
M30
