G75*
G70*
%OFA0B0*%
%FSLAX24Y24*%
%IPPOS*%
%LPD*%
%AMOC8*
5,1,8,0,0,1.08239X$1,22.5*
%
%ADD10C,0.0000*%
%ADD11R,0.7500X0.2000*%
%ADD12R,0.0315X0.0354*%
%ADD13R,0.0551X0.0551*%
%ADD14R,0.0118X0.0591*%
%ADD15R,0.0354X0.0315*%
%ADD16R,0.0748X0.0551*%
%ADD17R,0.0551X0.0748*%
%ADD18C,0.0600*%
%ADD19OC8,0.0531*%
%ADD20R,0.0591X0.0591*%
%ADD21C,0.0356*%
%ADD22R,0.0600X0.0600*%
%ADD23OC8,0.0600*%
%ADD24R,0.0551X0.0394*%
%ADD25C,0.0886*%
%ADD26R,0.0866X0.0236*%
%ADD27OC8,0.0472*%
%ADD28OC8,0.1266*%
%ADD29R,0.0472X0.0472*%
%ADD30R,0.0354X0.0138*%
%ADD31R,0.0709X0.0551*%
%ADD32OC8,0.0591*%
%ADD33R,0.0236X0.0866*%
%ADD34C,0.0160*%
%ADD35C,0.0240*%
%ADD36C,0.0100*%
%ADD37C,0.0356*%
%ADD38C,0.0270*%
D10*
X000150Y000150D02*
X000150Y044150D01*
X008650Y044150D01*
X008650Y034650D01*
X008652Y034606D01*
X008658Y034563D01*
X008667Y034521D01*
X008680Y034479D01*
X008697Y034439D01*
X008717Y034400D01*
X008740Y034363D01*
X008767Y034329D01*
X008796Y034296D01*
X008829Y034267D01*
X008863Y034240D01*
X008900Y034217D01*
X008939Y034197D01*
X008979Y034180D01*
X009021Y034167D01*
X009063Y034158D01*
X009106Y034152D01*
X009150Y034150D01*
X036150Y034150D01*
X036194Y034152D01*
X036237Y034158D01*
X036279Y034167D01*
X036321Y034180D01*
X036361Y034197D01*
X036400Y034217D01*
X036437Y034240D01*
X036471Y034267D01*
X036504Y034296D01*
X036533Y034329D01*
X036560Y034363D01*
X036583Y034400D01*
X036603Y034439D01*
X036620Y034479D01*
X036633Y034521D01*
X036642Y034563D01*
X036648Y034606D01*
X036650Y034650D01*
X036650Y044150D01*
X068150Y044150D01*
X068150Y000150D01*
X000150Y000150D01*
X000520Y001150D02*
X000522Y001200D01*
X000528Y001250D01*
X000538Y001299D01*
X000552Y001347D01*
X000569Y001394D01*
X000590Y001439D01*
X000615Y001483D01*
X000643Y001524D01*
X000675Y001563D01*
X000709Y001600D01*
X000746Y001634D01*
X000786Y001664D01*
X000828Y001691D01*
X000872Y001715D01*
X000918Y001736D01*
X000965Y001752D01*
X001013Y001765D01*
X001063Y001774D01*
X001112Y001779D01*
X001163Y001780D01*
X001213Y001777D01*
X001262Y001770D01*
X001311Y001759D01*
X001359Y001744D01*
X001405Y001726D01*
X001450Y001704D01*
X001493Y001678D01*
X001534Y001649D01*
X001573Y001617D01*
X001609Y001582D01*
X001641Y001544D01*
X001671Y001504D01*
X001698Y001461D01*
X001721Y001417D01*
X001740Y001371D01*
X001756Y001323D01*
X001768Y001274D01*
X001776Y001225D01*
X001780Y001175D01*
X001780Y001125D01*
X001776Y001075D01*
X001768Y001026D01*
X001756Y000977D01*
X001740Y000929D01*
X001721Y000883D01*
X001698Y000839D01*
X001671Y000796D01*
X001641Y000756D01*
X001609Y000718D01*
X001573Y000683D01*
X001534Y000651D01*
X001493Y000622D01*
X001450Y000596D01*
X001405Y000574D01*
X001359Y000556D01*
X001311Y000541D01*
X001262Y000530D01*
X001213Y000523D01*
X001163Y000520D01*
X001112Y000521D01*
X001063Y000526D01*
X001013Y000535D01*
X000965Y000548D01*
X000918Y000564D01*
X000872Y000585D01*
X000828Y000609D01*
X000786Y000636D01*
X000746Y000666D01*
X000709Y000700D01*
X000675Y000737D01*
X000643Y000776D01*
X000615Y000817D01*
X000590Y000861D01*
X000569Y000906D01*
X000552Y000953D01*
X000538Y001001D01*
X000528Y001050D01*
X000522Y001100D01*
X000520Y001150D01*
X002349Y006900D02*
X002351Y006947D01*
X002357Y006993D01*
X002367Y007039D01*
X002380Y007084D01*
X002398Y007127D01*
X002419Y007169D01*
X002443Y007209D01*
X002471Y007246D01*
X002502Y007281D01*
X002536Y007314D01*
X002572Y007343D01*
X002611Y007369D01*
X002652Y007392D01*
X002695Y007411D01*
X002739Y007427D01*
X002784Y007439D01*
X002830Y007447D01*
X002877Y007451D01*
X002923Y007451D01*
X002970Y007447D01*
X003016Y007439D01*
X003061Y007427D01*
X003105Y007411D01*
X003148Y007392D01*
X003189Y007369D01*
X003228Y007343D01*
X003264Y007314D01*
X003298Y007281D01*
X003329Y007246D01*
X003357Y007209D01*
X003381Y007169D01*
X003402Y007127D01*
X003420Y007084D01*
X003433Y007039D01*
X003443Y006993D01*
X003449Y006947D01*
X003451Y006900D01*
X003449Y006853D01*
X003443Y006807D01*
X003433Y006761D01*
X003420Y006716D01*
X003402Y006673D01*
X003381Y006631D01*
X003357Y006591D01*
X003329Y006554D01*
X003298Y006519D01*
X003264Y006486D01*
X003228Y006457D01*
X003189Y006431D01*
X003148Y006408D01*
X003105Y006389D01*
X003061Y006373D01*
X003016Y006361D01*
X002970Y006353D01*
X002923Y006349D01*
X002877Y006349D01*
X002830Y006353D01*
X002784Y006361D01*
X002739Y006373D01*
X002695Y006389D01*
X002652Y006408D01*
X002611Y006431D01*
X002572Y006457D01*
X002536Y006486D01*
X002502Y006519D01*
X002471Y006554D01*
X002443Y006591D01*
X002419Y006631D01*
X002398Y006673D01*
X002380Y006716D01*
X002367Y006761D01*
X002357Y006807D01*
X002351Y006853D01*
X002349Y006900D01*
X002349Y023650D02*
X002351Y023697D01*
X002357Y023743D01*
X002367Y023789D01*
X002380Y023834D01*
X002398Y023877D01*
X002419Y023919D01*
X002443Y023959D01*
X002471Y023996D01*
X002502Y024031D01*
X002536Y024064D01*
X002572Y024093D01*
X002611Y024119D01*
X002652Y024142D01*
X002695Y024161D01*
X002739Y024177D01*
X002784Y024189D01*
X002830Y024197D01*
X002877Y024201D01*
X002923Y024201D01*
X002970Y024197D01*
X003016Y024189D01*
X003061Y024177D01*
X003105Y024161D01*
X003148Y024142D01*
X003189Y024119D01*
X003228Y024093D01*
X003264Y024064D01*
X003298Y024031D01*
X003329Y023996D01*
X003357Y023959D01*
X003381Y023919D01*
X003402Y023877D01*
X003420Y023834D01*
X003433Y023789D01*
X003443Y023743D01*
X003449Y023697D01*
X003451Y023650D01*
X003449Y023603D01*
X003443Y023557D01*
X003433Y023511D01*
X003420Y023466D01*
X003402Y023423D01*
X003381Y023381D01*
X003357Y023341D01*
X003329Y023304D01*
X003298Y023269D01*
X003264Y023236D01*
X003228Y023207D01*
X003189Y023181D01*
X003148Y023158D01*
X003105Y023139D01*
X003061Y023123D01*
X003016Y023111D01*
X002970Y023103D01*
X002923Y023099D01*
X002877Y023099D01*
X002830Y023103D01*
X002784Y023111D01*
X002739Y023123D01*
X002695Y023139D01*
X002652Y023158D01*
X002611Y023181D01*
X002572Y023207D01*
X002536Y023236D01*
X002502Y023269D01*
X002471Y023304D01*
X002443Y023341D01*
X002419Y023381D01*
X002398Y023423D01*
X002380Y023466D01*
X002367Y023511D01*
X002357Y023557D01*
X002351Y023603D01*
X002349Y023650D01*
X000520Y043150D02*
X000522Y043200D01*
X000528Y043250D01*
X000538Y043299D01*
X000552Y043347D01*
X000569Y043394D01*
X000590Y043439D01*
X000615Y043483D01*
X000643Y043524D01*
X000675Y043563D01*
X000709Y043600D01*
X000746Y043634D01*
X000786Y043664D01*
X000828Y043691D01*
X000872Y043715D01*
X000918Y043736D01*
X000965Y043752D01*
X001013Y043765D01*
X001063Y043774D01*
X001112Y043779D01*
X001163Y043780D01*
X001213Y043777D01*
X001262Y043770D01*
X001311Y043759D01*
X001359Y043744D01*
X001405Y043726D01*
X001450Y043704D01*
X001493Y043678D01*
X001534Y043649D01*
X001573Y043617D01*
X001609Y043582D01*
X001641Y043544D01*
X001671Y043504D01*
X001698Y043461D01*
X001721Y043417D01*
X001740Y043371D01*
X001756Y043323D01*
X001768Y043274D01*
X001776Y043225D01*
X001780Y043175D01*
X001780Y043125D01*
X001776Y043075D01*
X001768Y043026D01*
X001756Y042977D01*
X001740Y042929D01*
X001721Y042883D01*
X001698Y042839D01*
X001671Y042796D01*
X001641Y042756D01*
X001609Y042718D01*
X001573Y042683D01*
X001534Y042651D01*
X001493Y042622D01*
X001450Y042596D01*
X001405Y042574D01*
X001359Y042556D01*
X001311Y042541D01*
X001262Y042530D01*
X001213Y042523D01*
X001163Y042520D01*
X001112Y042521D01*
X001063Y042526D01*
X001013Y042535D01*
X000965Y042548D01*
X000918Y042564D01*
X000872Y042585D01*
X000828Y042609D01*
X000786Y042636D01*
X000746Y042666D01*
X000709Y042700D01*
X000675Y042737D01*
X000643Y042776D01*
X000615Y042817D01*
X000590Y042861D01*
X000569Y042906D01*
X000552Y042953D01*
X000538Y043001D01*
X000528Y043050D01*
X000522Y043100D01*
X000520Y043150D01*
X032849Y023650D02*
X032851Y023697D01*
X032857Y023743D01*
X032867Y023789D01*
X032880Y023834D01*
X032898Y023877D01*
X032919Y023919D01*
X032943Y023959D01*
X032971Y023996D01*
X033002Y024031D01*
X033036Y024064D01*
X033072Y024093D01*
X033111Y024119D01*
X033152Y024142D01*
X033195Y024161D01*
X033239Y024177D01*
X033284Y024189D01*
X033330Y024197D01*
X033377Y024201D01*
X033423Y024201D01*
X033470Y024197D01*
X033516Y024189D01*
X033561Y024177D01*
X033605Y024161D01*
X033648Y024142D01*
X033689Y024119D01*
X033728Y024093D01*
X033764Y024064D01*
X033798Y024031D01*
X033829Y023996D01*
X033857Y023959D01*
X033881Y023919D01*
X033902Y023877D01*
X033920Y023834D01*
X033933Y023789D01*
X033943Y023743D01*
X033949Y023697D01*
X033951Y023650D01*
X033949Y023603D01*
X033943Y023557D01*
X033933Y023511D01*
X033920Y023466D01*
X033902Y023423D01*
X033881Y023381D01*
X033857Y023341D01*
X033829Y023304D01*
X033798Y023269D01*
X033764Y023236D01*
X033728Y023207D01*
X033689Y023181D01*
X033648Y023158D01*
X033605Y023139D01*
X033561Y023123D01*
X033516Y023111D01*
X033470Y023103D01*
X033423Y023099D01*
X033377Y023099D01*
X033330Y023103D01*
X033284Y023111D01*
X033239Y023123D01*
X033195Y023139D01*
X033152Y023158D01*
X033111Y023181D01*
X033072Y023207D01*
X033036Y023236D01*
X033002Y023269D01*
X032971Y023304D01*
X032943Y023341D01*
X032919Y023381D01*
X032898Y023423D01*
X032880Y023466D01*
X032867Y023511D01*
X032857Y023557D01*
X032851Y023603D01*
X032849Y023650D01*
X032849Y006900D02*
X032851Y006947D01*
X032857Y006993D01*
X032867Y007039D01*
X032880Y007084D01*
X032898Y007127D01*
X032919Y007169D01*
X032943Y007209D01*
X032971Y007246D01*
X033002Y007281D01*
X033036Y007314D01*
X033072Y007343D01*
X033111Y007369D01*
X033152Y007392D01*
X033195Y007411D01*
X033239Y007427D01*
X033284Y007439D01*
X033330Y007447D01*
X033377Y007451D01*
X033423Y007451D01*
X033470Y007447D01*
X033516Y007439D01*
X033561Y007427D01*
X033605Y007411D01*
X033648Y007392D01*
X033689Y007369D01*
X033728Y007343D01*
X033764Y007314D01*
X033798Y007281D01*
X033829Y007246D01*
X033857Y007209D01*
X033881Y007169D01*
X033902Y007127D01*
X033920Y007084D01*
X033933Y007039D01*
X033943Y006993D01*
X033949Y006947D01*
X033951Y006900D01*
X033949Y006853D01*
X033943Y006807D01*
X033933Y006761D01*
X033920Y006716D01*
X033902Y006673D01*
X033881Y006631D01*
X033857Y006591D01*
X033829Y006554D01*
X033798Y006519D01*
X033764Y006486D01*
X033728Y006457D01*
X033689Y006431D01*
X033648Y006408D01*
X033605Y006389D01*
X033561Y006373D01*
X033516Y006361D01*
X033470Y006353D01*
X033423Y006349D01*
X033377Y006349D01*
X033330Y006353D01*
X033284Y006361D01*
X033239Y006373D01*
X033195Y006389D01*
X033152Y006408D01*
X033111Y006431D01*
X033072Y006457D01*
X033036Y006486D01*
X033002Y006519D01*
X032971Y006554D01*
X032943Y006591D01*
X032919Y006631D01*
X032898Y006673D01*
X032880Y006716D01*
X032867Y006761D01*
X032857Y006807D01*
X032851Y006853D01*
X032849Y006900D01*
X066520Y001150D02*
X066522Y001200D01*
X066528Y001250D01*
X066538Y001299D01*
X066552Y001347D01*
X066569Y001394D01*
X066590Y001439D01*
X066615Y001483D01*
X066643Y001524D01*
X066675Y001563D01*
X066709Y001600D01*
X066746Y001634D01*
X066786Y001664D01*
X066828Y001691D01*
X066872Y001715D01*
X066918Y001736D01*
X066965Y001752D01*
X067013Y001765D01*
X067063Y001774D01*
X067112Y001779D01*
X067163Y001780D01*
X067213Y001777D01*
X067262Y001770D01*
X067311Y001759D01*
X067359Y001744D01*
X067405Y001726D01*
X067450Y001704D01*
X067493Y001678D01*
X067534Y001649D01*
X067573Y001617D01*
X067609Y001582D01*
X067641Y001544D01*
X067671Y001504D01*
X067698Y001461D01*
X067721Y001417D01*
X067740Y001371D01*
X067756Y001323D01*
X067768Y001274D01*
X067776Y001225D01*
X067780Y001175D01*
X067780Y001125D01*
X067776Y001075D01*
X067768Y001026D01*
X067756Y000977D01*
X067740Y000929D01*
X067721Y000883D01*
X067698Y000839D01*
X067671Y000796D01*
X067641Y000756D01*
X067609Y000718D01*
X067573Y000683D01*
X067534Y000651D01*
X067493Y000622D01*
X067450Y000596D01*
X067405Y000574D01*
X067359Y000556D01*
X067311Y000541D01*
X067262Y000530D01*
X067213Y000523D01*
X067163Y000520D01*
X067112Y000521D01*
X067063Y000526D01*
X067013Y000535D01*
X066965Y000548D01*
X066918Y000564D01*
X066872Y000585D01*
X066828Y000609D01*
X066786Y000636D01*
X066746Y000666D01*
X066709Y000700D01*
X066675Y000737D01*
X066643Y000776D01*
X066615Y000817D01*
X066590Y000861D01*
X066569Y000906D01*
X066552Y000953D01*
X066538Y001001D01*
X066528Y001050D01*
X066522Y001100D01*
X066520Y001150D01*
X066520Y043150D02*
X066522Y043200D01*
X066528Y043250D01*
X066538Y043299D01*
X066552Y043347D01*
X066569Y043394D01*
X066590Y043439D01*
X066615Y043483D01*
X066643Y043524D01*
X066675Y043563D01*
X066709Y043600D01*
X066746Y043634D01*
X066786Y043664D01*
X066828Y043691D01*
X066872Y043715D01*
X066918Y043736D01*
X066965Y043752D01*
X067013Y043765D01*
X067063Y043774D01*
X067112Y043779D01*
X067163Y043780D01*
X067213Y043777D01*
X067262Y043770D01*
X067311Y043759D01*
X067359Y043744D01*
X067405Y043726D01*
X067450Y043704D01*
X067493Y043678D01*
X067534Y043649D01*
X067573Y043617D01*
X067609Y043582D01*
X067641Y043544D01*
X067671Y043504D01*
X067698Y043461D01*
X067721Y043417D01*
X067740Y043371D01*
X067756Y043323D01*
X067768Y043274D01*
X067776Y043225D01*
X067780Y043175D01*
X067780Y043125D01*
X067776Y043075D01*
X067768Y043026D01*
X067756Y042977D01*
X067740Y042929D01*
X067721Y042883D01*
X067698Y042839D01*
X067671Y042796D01*
X067641Y042756D01*
X067609Y042718D01*
X067573Y042683D01*
X067534Y042651D01*
X067493Y042622D01*
X067450Y042596D01*
X067405Y042574D01*
X067359Y042556D01*
X067311Y042541D01*
X067262Y042530D01*
X067213Y042523D01*
X067163Y042520D01*
X067112Y042521D01*
X067063Y042526D01*
X067013Y042535D01*
X066965Y042548D01*
X066918Y042564D01*
X066872Y042585D01*
X066828Y042609D01*
X066786Y042636D01*
X066746Y042666D01*
X066709Y042700D01*
X066675Y042737D01*
X066643Y042776D01*
X066615Y042817D01*
X066590Y042861D01*
X066569Y042906D01*
X066552Y042953D01*
X066538Y043001D01*
X066528Y043050D01*
X066522Y043100D01*
X066520Y043150D01*
X037020Y043150D02*
X037022Y043200D01*
X037028Y043250D01*
X037038Y043299D01*
X037052Y043347D01*
X037069Y043394D01*
X037090Y043439D01*
X037115Y043483D01*
X037143Y043524D01*
X037175Y043563D01*
X037209Y043600D01*
X037246Y043634D01*
X037286Y043664D01*
X037328Y043691D01*
X037372Y043715D01*
X037418Y043736D01*
X037465Y043752D01*
X037513Y043765D01*
X037563Y043774D01*
X037612Y043779D01*
X037663Y043780D01*
X037713Y043777D01*
X037762Y043770D01*
X037811Y043759D01*
X037859Y043744D01*
X037905Y043726D01*
X037950Y043704D01*
X037993Y043678D01*
X038034Y043649D01*
X038073Y043617D01*
X038109Y043582D01*
X038141Y043544D01*
X038171Y043504D01*
X038198Y043461D01*
X038221Y043417D01*
X038240Y043371D01*
X038256Y043323D01*
X038268Y043274D01*
X038276Y043225D01*
X038280Y043175D01*
X038280Y043125D01*
X038276Y043075D01*
X038268Y043026D01*
X038256Y042977D01*
X038240Y042929D01*
X038221Y042883D01*
X038198Y042839D01*
X038171Y042796D01*
X038141Y042756D01*
X038109Y042718D01*
X038073Y042683D01*
X038034Y042651D01*
X037993Y042622D01*
X037950Y042596D01*
X037905Y042574D01*
X037859Y042556D01*
X037811Y042541D01*
X037762Y042530D01*
X037713Y042523D01*
X037663Y042520D01*
X037612Y042521D01*
X037563Y042526D01*
X037513Y042535D01*
X037465Y042548D01*
X037418Y042564D01*
X037372Y042585D01*
X037328Y042609D01*
X037286Y042636D01*
X037246Y042666D01*
X037209Y042700D01*
X037175Y042737D01*
X037143Y042776D01*
X037115Y042817D01*
X037090Y042861D01*
X037069Y042906D01*
X037052Y042953D01*
X037038Y043001D01*
X037028Y043050D01*
X037022Y043100D01*
X037020Y043150D01*
D11*
X053150Y002400D03*
D12*
X042650Y007600D03*
X041900Y007600D03*
X041900Y008200D03*
X042650Y008200D03*
X034400Y004700D03*
X034400Y004100D03*
X033650Y004100D03*
X033650Y004700D03*
X032900Y004700D03*
X032900Y004100D03*
X026400Y004100D03*
X026400Y004700D03*
X025650Y004700D03*
X025650Y004100D03*
X024900Y004100D03*
X024900Y004700D03*
X018400Y004700D03*
X018400Y004100D03*
X017650Y004100D03*
X017650Y004700D03*
X016900Y004700D03*
X016900Y004100D03*
X010400Y004100D03*
X010400Y004700D03*
X009650Y004700D03*
X009650Y004100D03*
X008900Y004100D03*
X008900Y004700D03*
X010900Y010850D03*
X010900Y011450D03*
X011650Y011450D03*
X011650Y010850D03*
X013150Y011600D03*
X013150Y012200D03*
X013900Y012350D03*
X013900Y012950D03*
X013900Y011450D03*
X013900Y010850D03*
X017900Y010850D03*
X017900Y011450D03*
X018650Y011600D03*
X018650Y012200D03*
X017900Y012350D03*
X017900Y012950D03*
X021400Y013200D03*
X022150Y013200D03*
X022150Y012600D03*
X021400Y012600D03*
X025150Y012600D03*
X025150Y013200D03*
X024650Y014850D03*
X024650Y015450D03*
X024650Y016350D03*
X024650Y016950D03*
X021900Y017200D03*
X021900Y016600D03*
X021150Y016600D03*
X021150Y017200D03*
X021400Y019100D03*
X021400Y019700D03*
X022150Y019700D03*
X022150Y019100D03*
X025150Y019100D03*
X025150Y019700D03*
X024650Y021350D03*
X024650Y021950D03*
X024650Y022850D03*
X024650Y023450D03*
X021900Y023700D03*
X021900Y023100D03*
X021150Y023100D03*
X021150Y023700D03*
X014400Y018700D03*
X014400Y018100D03*
X008400Y018100D03*
X008400Y018700D03*
X006900Y011950D03*
X006900Y011350D03*
X006150Y011350D03*
X006150Y011950D03*
X002150Y026850D03*
X002150Y027450D03*
X001400Y027450D03*
X001400Y026850D03*
X033150Y013700D03*
X033150Y013100D03*
X037150Y026600D03*
X037150Y027200D03*
X038650Y027200D03*
X038650Y026600D03*
X039400Y026600D03*
X039400Y027200D03*
X040150Y027200D03*
X040150Y026600D03*
X042150Y026600D03*
X042150Y027200D03*
X043650Y027200D03*
X043650Y026600D03*
X044400Y026600D03*
X044400Y027200D03*
X045150Y027200D03*
X045150Y026600D03*
X047150Y026600D03*
X047150Y027200D03*
X048650Y027200D03*
X048650Y026600D03*
X049400Y026600D03*
X049400Y027200D03*
X050150Y027200D03*
X050150Y026600D03*
X052150Y026600D03*
X052150Y027200D03*
X053650Y027200D03*
X053650Y026600D03*
X054400Y026600D03*
X054400Y027200D03*
X055150Y027200D03*
X055150Y026600D03*
D13*
X052900Y026150D03*
X052900Y027650D03*
X047900Y027650D03*
X047900Y026150D03*
X042900Y026150D03*
X042900Y027650D03*
X037900Y027650D03*
X037900Y026150D03*
D14*
X033546Y016752D03*
X033290Y016752D03*
X033034Y016752D03*
X032778Y016752D03*
X032522Y016752D03*
X032266Y016752D03*
X032010Y016752D03*
X031754Y016752D03*
X031754Y014548D03*
X032010Y014548D03*
X032266Y014548D03*
X032522Y014548D03*
X032778Y014548D03*
X033034Y014548D03*
X033290Y014548D03*
X033546Y014548D03*
D15*
X034350Y015900D03*
X034950Y015900D03*
X034950Y016650D03*
X034350Y016650D03*
X032200Y017650D03*
X031600Y017650D03*
X039350Y015400D03*
X039950Y015400D03*
X041850Y006400D03*
X042450Y006400D03*
X039450Y005150D03*
X038850Y005150D03*
X046350Y003650D03*
X046950Y003650D03*
X060350Y003400D03*
X060950Y003400D03*
X065850Y005650D03*
X066450Y005650D03*
X066450Y007900D03*
X065850Y007900D03*
X053950Y015650D03*
X053350Y015650D03*
X063850Y027150D03*
X064450Y027150D03*
X060450Y037150D03*
X059850Y037150D03*
X059850Y037900D03*
X060450Y037900D03*
X060200Y038650D03*
X059600Y038650D03*
X059850Y039400D03*
X060450Y039400D03*
X060450Y040150D03*
X059850Y040150D03*
X064350Y039775D03*
X064950Y039775D03*
X064950Y039025D03*
X064350Y039025D03*
X064350Y038275D03*
X064950Y038275D03*
X064950Y037525D03*
X064350Y037525D03*
X018950Y020400D03*
X018350Y020400D03*
X016700Y019900D03*
X016100Y019900D03*
X015200Y019900D03*
X014600Y019900D03*
X012950Y020400D03*
X012350Y020400D03*
X010700Y019900D03*
X010100Y019900D03*
X009200Y019900D03*
X008600Y019900D03*
X005450Y020150D03*
X004850Y020150D03*
X008350Y017150D03*
X008950Y017150D03*
X008950Y016400D03*
X008350Y016400D03*
X012350Y016650D03*
X012950Y016650D03*
X012950Y017400D03*
X012350Y017400D03*
X014350Y017150D03*
X014950Y017150D03*
X014950Y016400D03*
X014350Y016400D03*
X018350Y016650D03*
X018950Y016650D03*
X018950Y017400D03*
X018350Y017400D03*
X010700Y012650D03*
X010100Y012650D03*
X009200Y012650D03*
X008600Y012650D03*
X007700Y012650D03*
X007100Y012650D03*
X015600Y010400D03*
X016200Y010400D03*
X003450Y037150D03*
X002850Y037150D03*
X001950Y037150D03*
X001350Y037150D03*
X001350Y039150D03*
X001950Y039150D03*
X002850Y039150D03*
X003450Y039150D03*
D16*
X009150Y027150D03*
X009150Y026150D03*
X010400Y026150D03*
X010400Y027150D03*
X017400Y027150D03*
X017400Y026150D03*
X021400Y022150D03*
X021400Y021150D03*
X018650Y019400D03*
X018650Y018400D03*
X021400Y015650D03*
X021400Y014650D03*
X012650Y018400D03*
X012650Y019400D03*
X025400Y026150D03*
X025400Y027150D03*
X034150Y013400D03*
X034150Y012400D03*
D17*
X032400Y018650D03*
X031400Y018650D03*
X024150Y019400D03*
X023150Y019400D03*
X016900Y016650D03*
X015900Y016650D03*
X011900Y013650D03*
X010900Y013650D03*
X009400Y013650D03*
X008400Y013650D03*
X007400Y013650D03*
X006400Y013650D03*
X009900Y016650D03*
X010900Y016650D03*
X023150Y012900D03*
X024150Y012900D03*
X065650Y006900D03*
X066650Y006900D03*
X066650Y004650D03*
X065650Y004650D03*
D18*
X027650Y006600D02*
X027650Y007200D01*
X026650Y007200D02*
X026650Y006600D01*
X025650Y006600D02*
X025650Y007200D01*
X024650Y007200D02*
X024650Y006600D01*
X023650Y006600D02*
X023650Y007200D01*
X022650Y007200D02*
X022650Y006600D01*
X021650Y006600D02*
X021650Y007200D01*
X020650Y007200D02*
X020650Y006600D01*
X019650Y006600D02*
X019650Y007200D01*
X018650Y007200D02*
X018650Y006600D01*
X017650Y006600D02*
X017650Y007200D01*
X016650Y007200D02*
X016650Y006600D01*
X015650Y006600D02*
X015650Y007200D01*
X014650Y007200D02*
X014650Y006600D01*
X013650Y006600D02*
X013650Y007200D01*
X012650Y007200D02*
X012650Y006600D01*
X011650Y006600D02*
X011650Y007200D01*
X010650Y007200D02*
X010650Y006600D01*
X009650Y006600D02*
X009650Y007200D01*
X008650Y007200D02*
X008650Y006600D01*
D19*
X007331Y004134D03*
X004969Y004134D03*
X004969Y002166D03*
X007331Y002166D03*
X012969Y002166D03*
X015331Y002166D03*
X015331Y004134D03*
X012969Y004134D03*
X020969Y004134D03*
X023331Y004134D03*
X023331Y002166D03*
X020969Y002166D03*
X028969Y002166D03*
X031331Y002166D03*
X031331Y004134D03*
X028969Y004134D03*
X060969Y030166D03*
X063331Y030166D03*
X063331Y032134D03*
X060969Y032134D03*
D20*
X061461Y027150D03*
X062839Y027150D03*
D21*
X054900Y016900D02*
X054900Y016544D01*
X054400Y016544D02*
X054400Y016900D01*
X053900Y016900D02*
X053900Y016544D01*
X053400Y016544D02*
X053400Y016900D01*
X052900Y016900D02*
X052900Y016544D01*
X052400Y016544D02*
X052400Y016900D01*
X040900Y016650D02*
X040900Y016294D01*
X040400Y016294D02*
X040400Y016650D01*
X039900Y016650D02*
X039900Y016294D01*
X039400Y016294D02*
X039400Y016650D01*
X038900Y016650D02*
X038900Y016294D01*
X038400Y016294D02*
X038400Y016650D01*
X045400Y004900D02*
X045400Y004544D01*
X045900Y004544D02*
X045900Y004900D01*
X046400Y004900D02*
X046400Y004544D01*
X046900Y004544D02*
X046900Y004900D01*
X047400Y004900D02*
X047400Y004544D01*
X047900Y004544D02*
X047900Y004900D01*
X059400Y004650D02*
X059400Y004294D01*
X059900Y004294D02*
X059900Y004650D01*
X060400Y004650D02*
X060400Y004294D01*
X060900Y004294D02*
X060900Y004650D01*
X061400Y004650D02*
X061400Y004294D01*
X061900Y004294D02*
X061900Y004650D01*
D22*
X065650Y022650D03*
X001650Y020150D03*
D23*
X002650Y020150D03*
X002650Y019150D03*
X001650Y019150D03*
X001650Y018150D03*
X002650Y018150D03*
X002650Y017150D03*
X001650Y017150D03*
X001650Y016150D03*
X002650Y016150D03*
X002650Y015150D03*
X001650Y015150D03*
X001650Y014150D03*
X002650Y014150D03*
X002650Y013150D03*
X001650Y013150D03*
X001650Y012150D03*
X002650Y012150D03*
X065650Y011650D03*
X066650Y011650D03*
X066650Y010650D03*
X065650Y010650D03*
X065650Y009650D03*
X066650Y009650D03*
X066650Y012650D03*
X065650Y012650D03*
X065650Y013650D03*
X066650Y013650D03*
X066650Y014650D03*
X065650Y014650D03*
X065650Y015650D03*
X066650Y015650D03*
X066650Y016650D03*
X065650Y016650D03*
X065650Y017650D03*
X066650Y017650D03*
X066650Y018650D03*
X065650Y018650D03*
X065650Y019650D03*
X066650Y019650D03*
X066650Y020650D03*
X065650Y020650D03*
X065650Y021650D03*
X066650Y021650D03*
X066650Y022650D03*
D24*
X054833Y025400D03*
X053967Y025774D03*
X053967Y025026D03*
X049833Y025400D03*
X048967Y025774D03*
X048967Y025026D03*
X044833Y025400D03*
X043967Y025774D03*
X043967Y025026D03*
X039833Y025400D03*
X038967Y025774D03*
X038967Y025026D03*
X035083Y015274D03*
X035083Y014526D03*
X034217Y014900D03*
D25*
X039516Y029536D03*
X037784Y030166D03*
X038650Y031150D03*
X039319Y032134D03*
X037981Y033119D03*
X040284Y036166D03*
X041150Y037150D03*
X041819Y038134D03*
X040481Y039119D03*
X045481Y039119D03*
X046819Y038134D03*
X046150Y037150D03*
X045284Y036166D03*
X047016Y035536D03*
X047981Y033119D03*
X049319Y032134D03*
X048650Y031150D03*
X047784Y030166D03*
X049516Y029536D03*
X052784Y030166D03*
X053650Y031150D03*
X054319Y032134D03*
X052981Y033119D03*
X052016Y035536D03*
X051150Y037150D03*
X050284Y036166D03*
X051819Y038134D03*
X050481Y039119D03*
X055284Y036166D03*
X056150Y037150D03*
X056819Y038134D03*
X055481Y039119D03*
X057016Y035536D03*
X054516Y029536D03*
X044516Y029536D03*
X043650Y031150D03*
X044319Y032134D03*
X042981Y033119D03*
X042016Y035536D03*
X042784Y030166D03*
D26*
X017424Y019150D03*
X017424Y018650D03*
X017424Y018150D03*
X017424Y017650D03*
X015376Y017650D03*
X015376Y018150D03*
X015376Y018650D03*
X015376Y019150D03*
X011424Y019150D03*
X011424Y018650D03*
X011424Y018150D03*
X011424Y017650D03*
X009376Y017650D03*
X009376Y018150D03*
X009376Y018650D03*
X009376Y019150D03*
X006174Y020900D03*
X006174Y021400D03*
X006174Y021900D03*
X006174Y022400D03*
X004126Y022400D03*
X004126Y021900D03*
X004126Y021400D03*
X004126Y020900D03*
X014876Y012650D03*
X014876Y012150D03*
X014876Y011650D03*
X014876Y011150D03*
X016924Y011150D03*
X016924Y011650D03*
X016924Y012150D03*
X016924Y012650D03*
X009924Y011900D03*
X009924Y011400D03*
X009924Y010900D03*
X009924Y010400D03*
X007876Y010400D03*
X007876Y010900D03*
X007876Y011400D03*
X007876Y011900D03*
X038126Y008900D03*
X038126Y008400D03*
X038126Y007900D03*
X038126Y007400D03*
X038126Y006900D03*
X038126Y006400D03*
X038126Y005900D03*
X040174Y005900D03*
X040174Y006400D03*
X040174Y006900D03*
X040174Y007400D03*
X040174Y007900D03*
X040174Y008400D03*
X040174Y008900D03*
D27*
X025819Y029181D03*
X025819Y029969D03*
X025819Y030756D03*
X025819Y031544D03*
X025819Y032331D03*
X025819Y033119D03*
X017819Y033119D03*
X017819Y032331D03*
X017819Y031544D03*
X017819Y030756D03*
X017819Y029969D03*
X017819Y029181D03*
X009819Y029181D03*
X009819Y029969D03*
X009819Y030756D03*
X009819Y031544D03*
X009819Y032331D03*
X009819Y033119D03*
X001819Y033119D03*
X001819Y032331D03*
X001819Y031544D03*
X001819Y030756D03*
X001819Y029969D03*
X001819Y029181D03*
D28*
X006150Y028985D03*
X006150Y033315D03*
X014150Y033315D03*
X014150Y028985D03*
X022150Y028985D03*
X022150Y033315D03*
X030150Y033315D03*
X030150Y028985D03*
D29*
X029775Y027563D03*
X030525Y027563D03*
X030525Y026737D03*
X029775Y026737D03*
X022525Y026737D03*
X021775Y026737D03*
X021775Y027563D03*
X022525Y027563D03*
X014900Y027563D03*
X014900Y026737D03*
X013400Y026737D03*
X013400Y027563D03*
X006900Y027563D03*
X006900Y026737D03*
X005400Y026737D03*
X005400Y027563D03*
D30*
X061268Y037882D03*
X061268Y038138D03*
X061268Y038394D03*
X061268Y038650D03*
X061268Y038906D03*
X061268Y039162D03*
X061268Y039418D03*
X063532Y039418D03*
X063532Y039162D03*
X063532Y038906D03*
X063532Y038650D03*
X063532Y038394D03*
X063532Y038138D03*
X063532Y037882D03*
D31*
X065650Y032650D03*
X065650Y031650D03*
D32*
X006142Y037166D03*
X005158Y037166D03*
X005158Y038150D03*
X006142Y038150D03*
X006142Y039134D03*
X005158Y039134D03*
D33*
X022400Y022674D03*
X022900Y022674D03*
X023400Y022674D03*
X023900Y022674D03*
X023900Y020626D03*
X023400Y020626D03*
X022900Y020626D03*
X022400Y020626D03*
X022400Y016174D03*
X022900Y016174D03*
X023400Y016174D03*
X023900Y016174D03*
X023900Y014126D03*
X023400Y014126D03*
X022900Y014126D03*
X022400Y014126D03*
D34*
X026150Y015150D02*
X026650Y015650D01*
X026650Y021650D01*
X029650Y023400D02*
X035400Y029150D01*
X035400Y032650D01*
X037650Y034900D01*
X060150Y034900D01*
X060400Y035150D01*
X060400Y034650D02*
X060900Y035150D01*
X061400Y035150D02*
X060650Y034400D01*
X037900Y034400D01*
X035900Y032400D01*
X035900Y028650D01*
X030150Y022900D01*
X030150Y015150D01*
X024150Y009150D01*
X005650Y009150D01*
X002650Y012150D01*
X002900Y012650D02*
X002150Y012650D01*
X001650Y013150D01*
X002650Y013150D02*
X003150Y013150D01*
X006650Y009650D01*
X023650Y009650D01*
X029650Y015650D01*
X029650Y023400D01*
X029900Y023150D02*
X035650Y028900D01*
X035650Y032525D01*
X037775Y034650D01*
X060400Y034650D01*
X060900Y034150D02*
X061900Y035150D01*
X060900Y034150D02*
X038025Y034150D01*
X036150Y032275D01*
X036150Y028400D01*
X030400Y022650D01*
X030400Y014900D01*
X024400Y008900D01*
X004900Y008900D01*
X001650Y012150D01*
X002900Y012650D02*
X006150Y009400D01*
X023900Y009400D01*
X029900Y015400D01*
X029900Y023150D01*
X033900Y018650D02*
X035900Y020650D01*
X033900Y018650D02*
X032400Y018650D01*
X032400Y018150D01*
X032200Y017950D01*
X032200Y017650D01*
X031600Y017650D02*
X031600Y017950D01*
X031400Y018150D01*
X031400Y018650D01*
X031600Y017650D02*
X031600Y017600D01*
X031150Y017150D01*
X031150Y011150D01*
X031400Y010900D01*
X034150Y013400D02*
X035150Y013400D01*
X036150Y014400D01*
X036150Y017150D01*
X036150Y017650D01*
X040650Y022150D01*
X041400Y022900D01*
X042150Y022900D01*
X047150Y022900D01*
X052150Y022900D01*
X053900Y022900D01*
X059400Y028400D01*
X059400Y032400D01*
X060650Y033650D01*
X065150Y033650D01*
X065625Y033175D01*
X065625Y032675D01*
X065650Y032650D01*
X065650Y031650D02*
X066650Y031650D01*
X066150Y027900D02*
X062150Y027900D01*
X061461Y027211D01*
X061461Y027150D02*
X056461Y022150D01*
X042150Y022150D01*
X038650Y018650D01*
X037900Y018650D01*
X036150Y017150D02*
X034650Y017150D01*
X034350Y016850D01*
X034350Y016650D01*
X037150Y014400D02*
X037650Y014900D01*
X039400Y014900D01*
X039350Y014950D01*
X039350Y015400D01*
X038900Y015850D01*
X038900Y016650D01*
X039950Y015400D02*
X040400Y015400D01*
X039400Y014900D02*
X052900Y014900D01*
X053350Y015350D01*
X053350Y015650D01*
X052900Y016100D01*
X052900Y016900D01*
X053950Y015650D02*
X054400Y015650D01*
X064400Y009400D02*
X064400Y006650D01*
X064900Y006150D01*
X066150Y006150D01*
X066450Y005850D01*
X066450Y005650D01*
X066450Y005350D01*
X066650Y005150D01*
X066650Y004650D01*
X065650Y004650D02*
X065650Y005150D01*
X065850Y005350D01*
X065850Y005650D01*
X065650Y004650D02*
X064900Y004650D01*
X064900Y006900D02*
X065650Y006900D01*
X065650Y007400D01*
X065850Y007600D01*
X065850Y007900D01*
X066450Y007900D02*
X066450Y007600D01*
X066650Y007400D01*
X066650Y006900D01*
X066450Y007900D02*
X066450Y008350D01*
X066150Y008650D01*
X066150Y010150D01*
X066650Y010650D01*
X065650Y010650D02*
X064400Y009400D01*
X066450Y007900D02*
X067650Y007900D01*
X061400Y003400D02*
X060950Y003400D01*
X060350Y003400D02*
X059900Y003850D01*
X059900Y004650D01*
X047400Y003650D02*
X046950Y003650D01*
X046350Y003650D02*
X045900Y004100D01*
X045900Y004900D01*
X040900Y007900D02*
X040174Y007900D01*
X040174Y008900D02*
X040900Y008900D01*
X038650Y005900D02*
X038126Y005900D01*
X037400Y005900D01*
X037150Y005650D01*
X038650Y005900D02*
X038900Y005650D01*
X038900Y005200D01*
X038900Y003150D01*
X039900Y003150D01*
X038900Y003150D02*
X032900Y003150D01*
X032900Y004100D01*
X032900Y003150D02*
X024900Y003150D01*
X024900Y004100D01*
X024900Y003150D02*
X016900Y003150D01*
X016900Y004100D01*
X016900Y003150D02*
X009400Y003150D01*
X008900Y003650D01*
X008900Y004100D01*
X066150Y027900D02*
X066650Y027400D01*
D35*
X067775Y035275D02*
X066400Y036650D01*
X063650Y036650D01*
X067775Y035275D02*
X067775Y012775D01*
X066650Y011650D01*
X066450Y005650D02*
X067150Y005650D01*
X066650Y004650D02*
X066650Y003650D01*
X063650Y000650D01*
X005150Y000650D01*
X004150Y001650D01*
X004150Y004650D01*
X005150Y005650D01*
X008650Y005650D01*
X009650Y006650D01*
X009650Y006900D01*
X033150Y013700D02*
X033350Y013700D01*
X033650Y013400D01*
X034150Y013400D01*
D36*
X033900Y012900D02*
X033650Y012900D01*
X033450Y013100D01*
X033150Y013100D01*
X033150Y013150D01*
X032650Y013150D01*
X032266Y012266D02*
X032632Y011900D01*
X034900Y011900D01*
X036900Y013900D01*
X046150Y013900D01*
X045650Y013400D02*
X038400Y013400D01*
X035150Y010150D01*
X032900Y010150D01*
X031525Y011525D01*
X031525Y015025D01*
X032266Y015766D01*
X032266Y016752D01*
X032010Y016752D02*
X032010Y017260D01*
X032150Y017400D01*
X032150Y017600D01*
X032200Y017650D01*
X032778Y017778D02*
X033150Y018150D01*
X034150Y018150D01*
X039900Y023900D01*
X039900Y025333D01*
X039833Y025400D01*
X039900Y025400D01*
X040150Y025650D01*
X040150Y026600D01*
X039400Y026600D01*
X038650Y026600D01*
X038650Y027200D02*
X038450Y027200D01*
X037900Y026650D01*
X037900Y026150D01*
X038524Y025774D02*
X038150Y025400D01*
X038524Y025774D02*
X038967Y025774D01*
X038967Y025026D02*
X038900Y024959D01*
X038900Y023900D01*
X038967Y025026D02*
X037774Y025026D01*
X037150Y025650D01*
X037150Y026600D01*
X037150Y027200D02*
X037150Y028402D01*
X037900Y029150D01*
X038286Y029536D01*
X039516Y029536D01*
X040400Y029150D02*
X040400Y032150D01*
X039400Y033150D01*
X038012Y033150D01*
X037981Y033119D01*
X042981Y033119D02*
X043012Y033150D01*
X044400Y033150D01*
X045400Y032150D01*
X045400Y029150D01*
X044650Y028400D01*
X043650Y028400D01*
X042900Y027650D01*
X043450Y027200D02*
X042900Y026650D01*
X042900Y026150D01*
X043524Y025774D02*
X043150Y025400D01*
X043524Y025774D02*
X043967Y025774D01*
X043967Y025026D02*
X042774Y025026D01*
X042150Y025650D01*
X042150Y026600D01*
X042150Y027200D02*
X042150Y028402D01*
X042650Y028900D01*
X043286Y029536D01*
X044516Y029536D01*
X047150Y028402D02*
X047650Y028900D01*
X048286Y029536D01*
X049516Y029536D01*
X050400Y029150D02*
X050400Y032150D01*
X049400Y033150D01*
X048012Y033150D01*
X047981Y033119D01*
X052981Y033119D02*
X053012Y033150D01*
X054400Y033150D01*
X055400Y032150D01*
X055400Y029150D01*
X054650Y028400D01*
X053650Y028400D01*
X052900Y027650D01*
X053450Y027200D02*
X052900Y026650D01*
X052900Y026150D01*
X053524Y025774D02*
X053150Y025400D01*
X053524Y025774D02*
X053967Y025774D01*
X053967Y025026D02*
X052774Y025026D01*
X052150Y025650D01*
X052150Y026600D01*
X052150Y027200D02*
X052150Y028402D01*
X052650Y028900D01*
X053286Y029536D01*
X054516Y029536D01*
X054400Y027650D02*
X054400Y027200D01*
X055150Y027200D01*
X055150Y026600D02*
X054400Y026600D01*
X053650Y026600D01*
X053650Y027200D02*
X053450Y027200D01*
X055150Y026600D02*
X055150Y025717D01*
X054833Y025400D01*
X054900Y025333D01*
X054900Y024900D01*
X053400Y023400D01*
X040900Y023400D01*
X034900Y017400D01*
X033900Y017400D01*
X033546Y017046D01*
X033546Y016752D01*
X033290Y016752D02*
X033290Y017290D01*
X033650Y017650D01*
X034650Y017650D01*
X040900Y023900D01*
X048900Y023900D01*
X049900Y024900D01*
X049900Y025333D01*
X049833Y025400D01*
X049900Y025400D01*
X050150Y025650D01*
X050150Y026600D01*
X049400Y026600D01*
X048650Y026600D01*
X048650Y027200D02*
X048450Y027200D01*
X047900Y026650D01*
X047900Y026150D01*
X048524Y025774D02*
X048150Y025400D01*
X048524Y025774D02*
X048967Y025774D01*
X048967Y025026D02*
X047774Y025026D01*
X047150Y025650D01*
X047150Y026600D01*
X047150Y027200D02*
X047150Y028402D01*
X047900Y027650D02*
X048650Y028400D01*
X049650Y028400D01*
X050400Y029150D01*
X049400Y027650D02*
X049400Y027200D01*
X050150Y027200D01*
X045150Y027200D02*
X044400Y027200D01*
X044400Y027650D01*
X043650Y027200D02*
X043450Y027200D01*
X043650Y026600D02*
X044400Y026600D01*
X045150Y026600D01*
X045150Y025650D01*
X044900Y025400D01*
X044833Y025400D01*
X044900Y025333D01*
X044900Y024900D01*
X044400Y024400D01*
X040900Y024400D01*
X034400Y017900D01*
X033400Y017900D01*
X033034Y017534D01*
X033034Y016752D01*
X032778Y016752D02*
X032778Y017778D01*
X032525Y016755D02*
X032522Y016752D01*
X032522Y016397D01*
X032650Y016275D01*
X032650Y015650D01*
X032650Y015025D01*
X033525Y015025D01*
X033546Y015046D01*
X033900Y015400D01*
X034400Y015400D01*
X034350Y015450D01*
X034350Y015900D01*
X034950Y015900D02*
X034950Y016650D01*
X034950Y015900D02*
X035400Y015900D01*
X035650Y015650D01*
X035650Y014650D01*
X035526Y014526D01*
X035083Y014526D01*
X035026Y014526D01*
X034525Y014025D01*
X033400Y014025D01*
X033290Y014135D01*
X033290Y014548D01*
X033546Y014548D02*
X033546Y015046D01*
X033546Y014879D02*
X033546Y014548D01*
X033034Y014548D02*
X033034Y014159D01*
X032900Y014025D01*
X032778Y014147D01*
X032778Y014548D01*
X032522Y014548D02*
X032522Y014897D01*
X032650Y015025D01*
X032266Y014548D02*
X032266Y012266D01*
X032010Y012040D02*
X032650Y011400D01*
X033650Y011400D01*
X033650Y010650D02*
X032900Y010650D01*
X031754Y011796D01*
X031754Y014548D01*
X032010Y014548D02*
X032010Y012040D01*
X033900Y012900D02*
X034150Y012650D01*
X034150Y012400D01*
X033150Y013700D02*
X033150Y013775D01*
X032900Y014025D01*
X034400Y015400D02*
X034526Y015274D01*
X035083Y015274D01*
X031754Y016379D02*
X031525Y016150D01*
X031754Y016379D02*
X031754Y016752D01*
X026150Y018150D02*
X025650Y017650D01*
X025650Y012400D01*
X024900Y011650D01*
X023100Y011650D01*
X022150Y012600D01*
X022075Y013200D02*
X021475Y012600D01*
X021400Y012600D01*
X021150Y011900D02*
X022150Y011900D01*
X021150Y011900D02*
X018150Y014900D01*
X016650Y014900D01*
X016650Y015400D02*
X019400Y015400D01*
X020400Y016400D01*
X020400Y017400D01*
X020900Y017900D01*
X025150Y017900D01*
X025650Y018400D01*
X025650Y022900D01*
X024700Y022900D01*
X024650Y022850D01*
X024650Y021950D01*
X024700Y021900D01*
X024650Y021350D02*
X024575Y021275D01*
X023650Y021275D01*
X023400Y021025D01*
X023400Y020626D01*
X023900Y020626D02*
X023900Y020275D01*
X024025Y020150D01*
X024650Y020150D01*
X024700Y020150D01*
X025150Y019700D01*
X024650Y019400D02*
X024150Y019400D01*
X024150Y018650D01*
X023650Y018150D01*
X020650Y018150D01*
X019900Y017400D01*
X019900Y016400D01*
X019400Y015900D01*
X016650Y015900D01*
X016150Y015400D01*
X014650Y015400D01*
X013650Y015900D02*
X015650Y013900D01*
X015650Y012400D01*
X015400Y012150D01*
X014876Y012150D01*
X014876Y011650D01*
X014876Y011150D02*
X015600Y011150D01*
X015600Y010400D01*
X016200Y010400D02*
X016900Y010400D01*
X016200Y010850D02*
X015900Y011150D01*
X015600Y011150D01*
X016200Y010850D02*
X017900Y010850D01*
X017950Y010900D01*
X018900Y010900D01*
X019400Y011400D01*
X019400Y012650D01*
X017650Y014400D01*
X016650Y015400D02*
X016150Y014900D01*
X016150Y011900D01*
X016400Y011650D01*
X016924Y011650D01*
X016924Y011150D01*
X016924Y012150D02*
X017400Y012150D01*
X017650Y011900D01*
X017900Y011900D01*
X018150Y011900D01*
X018450Y011600D01*
X018650Y011600D01*
X018650Y012200D02*
X018650Y012900D01*
X017950Y012900D01*
X017900Y012950D01*
X017700Y012950D01*
X017400Y012650D01*
X016924Y012650D01*
X017900Y012350D02*
X017900Y011900D01*
X017900Y011450D01*
X014876Y011150D02*
X014400Y011150D01*
X014100Y010850D01*
X013900Y010850D01*
X013900Y010150D01*
X012400Y010900D02*
X012400Y012150D01*
X012650Y012400D01*
X012650Y015900D01*
X013650Y015900D01*
X013650Y019650D01*
X014400Y020400D01*
X014950Y020400D01*
X015200Y020150D01*
X015200Y019900D01*
X016100Y019900D01*
X016700Y019900D02*
X016775Y019825D01*
X016775Y018900D01*
X017025Y018650D01*
X017424Y018650D01*
X017424Y018150D02*
X017775Y018150D01*
X018025Y017900D01*
X018150Y017900D01*
X018350Y017700D01*
X018350Y017400D01*
X018350Y017325D01*
X018950Y016725D01*
X018950Y016650D01*
X018350Y016650D02*
X016900Y016650D01*
X016900Y017400D01*
X017150Y017650D01*
X017424Y017650D01*
X016400Y017900D02*
X016150Y017650D01*
X015376Y017650D01*
X014775Y017650D01*
X014350Y017225D01*
X014350Y017150D01*
X013900Y016900D02*
X014350Y016450D01*
X014350Y016400D01*
X014950Y016400D02*
X015275Y016400D01*
X015525Y016650D01*
X015900Y016650D01*
X015275Y017150D02*
X015400Y017275D01*
X016275Y017275D01*
X016400Y017400D01*
X016150Y018150D02*
X015376Y018150D01*
X014450Y018150D01*
X014400Y018100D01*
X013900Y018200D02*
X014400Y018700D01*
X014325Y018700D01*
X014400Y018700D02*
X014450Y018650D01*
X015376Y018650D01*
X015376Y019150D02*
X015025Y019150D01*
X014650Y019525D01*
X014650Y019850D01*
X014600Y019900D01*
X013900Y020900D02*
X018650Y020900D01*
X018900Y020650D01*
X018900Y020450D01*
X018950Y020400D01*
X018950Y020200D01*
X018650Y019900D01*
X018650Y019400D01*
X017900Y019275D02*
X017900Y019900D01*
X017900Y019950D01*
X018350Y020400D01*
X018900Y021150D02*
X019400Y020650D01*
X019400Y017850D01*
X018950Y017400D01*
X018650Y018400D02*
X016400Y018400D01*
X016150Y018150D01*
X017424Y019150D02*
X017775Y019150D01*
X017900Y019275D01*
X019650Y018900D02*
X019650Y025650D01*
X018650Y026650D01*
X018650Y027150D02*
X019900Y025900D01*
X019900Y019150D01*
X020650Y018400D01*
X022150Y018400D01*
X022400Y018650D01*
X022900Y018650D01*
X023150Y019400D02*
X023150Y021650D01*
X022900Y021900D01*
X022900Y022674D01*
X022900Y023600D01*
X023400Y023700D02*
X022950Y024150D01*
X021600Y024150D01*
X021150Y023700D01*
X020650Y024200D01*
X020650Y027900D01*
X021900Y026150D02*
X021150Y025400D01*
X021900Y026150D02*
X025400Y026150D01*
X025400Y027150D02*
X025400Y028762D01*
X025819Y029181D01*
X026400Y030900D02*
X026400Y024900D01*
X025650Y024150D01*
X025650Y022900D01*
X024650Y023450D02*
X024600Y023400D01*
X024275Y023400D01*
X023900Y023025D01*
X023900Y022674D01*
X023400Y022674D02*
X023400Y023700D01*
X022400Y023200D02*
X021900Y023700D01*
X022400Y023200D02*
X022400Y022674D01*
X022400Y021900D01*
X022650Y021650D01*
X022150Y021650D02*
X022025Y021775D01*
X022025Y022650D01*
X021900Y022775D01*
X021900Y023100D01*
X021400Y022525D02*
X021150Y022775D01*
X021150Y023100D01*
X021400Y022525D02*
X021400Y022150D01*
X021400Y021150D02*
X021400Y019700D01*
X021400Y019100D02*
X021475Y019100D01*
X022075Y019700D01*
X022150Y019700D01*
X022450Y019700D01*
X022650Y019900D01*
X022650Y020025D01*
X022900Y020275D01*
X022900Y020626D01*
X022400Y020626D02*
X022400Y020900D01*
X022150Y021150D01*
X021400Y021150D01*
X020150Y019400D02*
X020150Y030788D01*
X017819Y033119D01*
X017819Y032331D02*
X017819Y031544D01*
X017819Y029181D02*
X017400Y028762D01*
X017400Y027150D01*
X017400Y026150D02*
X015150Y026150D01*
X012900Y023900D01*
X012900Y023400D02*
X014900Y025400D01*
X018900Y025400D01*
X018900Y021150D02*
X014150Y021150D01*
X012400Y022900D01*
X012400Y030650D01*
X009931Y033119D01*
X009819Y033119D01*
X009819Y032331D02*
X009819Y031544D01*
X009819Y030756D02*
X009819Y030731D01*
X011400Y029150D01*
X011400Y022900D01*
X013400Y020900D01*
X013400Y017850D01*
X012950Y017400D01*
X012350Y017400D02*
X012350Y017700D01*
X012150Y017900D01*
X012025Y017900D01*
X011775Y018150D01*
X011424Y018150D01*
X011424Y018650D02*
X011025Y018650D01*
X010775Y018900D01*
X010775Y019825D01*
X010700Y019900D01*
X010150Y019950D02*
X010100Y019900D01*
X009200Y019900D01*
X009150Y019950D01*
X009150Y020150D01*
X008900Y020400D01*
X007400Y020400D01*
X007400Y018650D01*
X006900Y018150D01*
X006900Y017150D01*
X008150Y015900D01*
X012650Y015900D01*
X012350Y016650D02*
X010900Y016650D01*
X010900Y017400D01*
X011150Y017650D01*
X011424Y017650D01*
X010400Y017400D02*
X010275Y017275D01*
X009400Y017275D01*
X009275Y017150D01*
X008950Y017150D01*
X008350Y017150D02*
X008350Y017600D01*
X008400Y017650D01*
X007900Y017650D01*
X008400Y017650D02*
X009376Y017650D01*
X008450Y018150D02*
X008400Y018100D01*
X008450Y018150D02*
X009376Y018150D01*
X010150Y018150D01*
X010400Y018400D01*
X012650Y018400D01*
X012650Y019400D02*
X012650Y019900D01*
X012950Y020200D01*
X012950Y020400D01*
X012900Y020450D01*
X012900Y020900D01*
X011150Y022650D01*
X011150Y024150D01*
X010900Y024400D01*
X010150Y024400D01*
X009650Y023900D01*
X006400Y023900D01*
X006150Y024400D02*
X008650Y024400D01*
X010400Y026150D01*
X010400Y027150D02*
X010400Y028601D01*
X009819Y029181D01*
X009150Y029300D02*
X009819Y029969D01*
X009150Y029300D02*
X009150Y027150D01*
X009150Y026150D02*
X007900Y024900D01*
X006150Y024900D01*
X005400Y023650D02*
X005400Y021650D01*
X005650Y021400D01*
X006174Y021400D01*
X006174Y020900D01*
X006900Y020400D02*
X006900Y021650D01*
X006650Y021900D01*
X006174Y021900D01*
X006174Y022400D02*
X006900Y022400D01*
X007400Y022400D02*
X007400Y020400D01*
X006900Y020400D02*
X005650Y019150D01*
X002650Y019150D01*
X002150Y018650D02*
X004900Y018650D01*
X005150Y018150D02*
X002650Y018150D01*
X002150Y018650D02*
X001650Y018150D01*
X002150Y017650D02*
X005150Y017650D01*
X005150Y017150D02*
X002650Y017150D01*
X002150Y017650D02*
X001650Y017150D01*
X001400Y016650D02*
X005400Y016650D01*
X007400Y014650D01*
X011900Y014650D01*
X012400Y014150D01*
X012400Y012650D01*
X011650Y011900D01*
X011650Y011450D01*
X012400Y010900D02*
X011900Y010400D01*
X009924Y010400D01*
X009150Y010400D01*
X008650Y010900D01*
X007876Y010900D01*
X007876Y011400D02*
X006950Y011400D01*
X006900Y011350D01*
X006150Y011350D01*
X006150Y011950D02*
X004450Y013650D01*
X001150Y013650D01*
X000650Y014150D01*
X000650Y032150D01*
X001619Y033119D01*
X001819Y033119D01*
X001819Y032331D02*
X001819Y031544D01*
X001819Y031481D01*
X002900Y030400D01*
X002900Y026900D01*
X007400Y022400D01*
X006900Y023400D02*
X009400Y023400D01*
X010400Y023900D02*
X007900Y021400D01*
X008150Y020900D02*
X010650Y023400D01*
X010650Y023900D02*
X010400Y023900D01*
X011900Y022900D02*
X013900Y020900D01*
X012350Y020400D02*
X011900Y019950D01*
X011900Y019900D01*
X011900Y019275D01*
X011775Y019150D01*
X011424Y019150D01*
X009376Y019150D02*
X009025Y019150D01*
X008650Y019525D01*
X008650Y019850D01*
X008600Y019900D01*
X008400Y018700D02*
X007400Y017700D01*
X007400Y017350D01*
X008350Y016400D01*
X008950Y016400D02*
X009275Y016400D01*
X009525Y016650D01*
X009900Y016650D01*
X008150Y015400D02*
X012150Y015400D01*
X011900Y015150D02*
X012150Y014900D01*
X011900Y015150D02*
X007650Y015150D01*
X005900Y016900D01*
X006150Y017400D02*
X008150Y015400D01*
X007150Y014400D02*
X010150Y014400D01*
X010900Y013650D01*
X010900Y013150D01*
X010700Y012950D01*
X010700Y012650D01*
X010150Y012650D02*
X010150Y013650D01*
X009400Y013650D02*
X009400Y013150D01*
X009200Y012950D01*
X009200Y012650D01*
X009200Y011950D01*
X009150Y011900D01*
X008900Y011650D01*
X009150Y011900D02*
X009924Y011900D01*
X009650Y011900D01*
X009924Y011400D02*
X010850Y011400D01*
X010900Y011450D01*
X010900Y011900D01*
X011900Y012900D01*
X011900Y013650D01*
X013150Y012900D02*
X013850Y012900D01*
X013900Y012950D01*
X013950Y012400D02*
X013900Y012350D01*
X013900Y011900D01*
X013650Y011900D01*
X013350Y011600D01*
X013150Y011600D01*
X013150Y012200D02*
X013150Y012900D01*
X013950Y012400D02*
X014150Y012400D01*
X014400Y012650D01*
X014876Y012650D01*
X013900Y011900D02*
X013900Y011450D01*
X011650Y010850D02*
X010900Y010850D01*
X010850Y010900D01*
X009924Y010900D01*
X010100Y012650D02*
X010150Y012650D01*
X008600Y012650D02*
X007700Y012650D01*
X007400Y013150D02*
X007400Y013650D01*
X006400Y014650D01*
X002150Y014650D01*
X001650Y015150D01*
X002150Y015650D02*
X005900Y015650D01*
X007150Y014400D01*
X006400Y013650D02*
X006400Y012450D01*
X006900Y011950D01*
X006950Y011900D01*
X007876Y011900D01*
X008600Y012650D02*
X008600Y012950D01*
X008400Y013150D01*
X008400Y013650D01*
X007900Y013650D01*
X007400Y013150D02*
X007100Y012850D01*
X007100Y012650D01*
X007150Y010400D02*
X007876Y010400D01*
X011650Y007150D02*
X012900Y008400D01*
X029650Y008400D01*
X031150Y009900D01*
X035400Y009900D01*
X038400Y012900D01*
X045150Y012900D01*
X044650Y012400D02*
X038400Y012400D01*
X035650Y009650D01*
X031400Y009650D01*
X029900Y008150D01*
X024650Y008150D01*
X023650Y007150D01*
X023650Y006900D01*
X024650Y006900D02*
X024650Y007150D01*
X025400Y007900D01*
X030150Y007900D01*
X031650Y009400D01*
X035900Y009400D01*
X038400Y011900D01*
X044150Y011900D01*
X043650Y011400D02*
X038400Y011400D01*
X035900Y008900D01*
X034150Y008900D01*
X031650Y008900D01*
X028900Y006150D01*
X016150Y006150D01*
X015650Y006650D01*
X015650Y006900D01*
X014650Y006900D02*
X014650Y006650D01*
X015400Y005900D01*
X029150Y005900D01*
X031650Y008400D01*
X033650Y008400D01*
X035900Y008400D01*
X038400Y010900D01*
X043150Y010900D01*
X043150Y010150D02*
X047400Y014400D01*
X061400Y014400D01*
X065150Y018150D01*
X066150Y018150D01*
X066650Y017650D01*
X066150Y017150D02*
X065150Y017150D01*
X061400Y013400D01*
X047400Y013400D01*
X043650Y009650D01*
X039900Y009650D01*
X039400Y009150D01*
X039400Y007650D01*
X038650Y006900D01*
X038126Y006900D01*
X038126Y006400D02*
X036150Y006400D01*
X034900Y005150D01*
X029150Y005150D01*
X028100Y004100D01*
X026400Y004100D01*
X025650Y004100D01*
X025650Y004700D02*
X024900Y004700D01*
X024850Y004650D01*
X023900Y004650D01*
X023384Y004134D01*
X023331Y004134D01*
X020969Y004134D01*
X020150Y005400D02*
X018850Y004100D01*
X018400Y004100D01*
X017650Y004100D01*
X017650Y004700D02*
X016900Y004700D01*
X016850Y004650D01*
X015900Y004650D01*
X015400Y004150D01*
X015347Y004150D01*
X015331Y004134D01*
X012969Y004134D01*
X011850Y004100D02*
X010400Y004100D01*
X009650Y004100D01*
X009650Y004700D02*
X008900Y004700D01*
X008850Y004650D01*
X007900Y004650D01*
X007400Y004150D01*
X007347Y004150D01*
X007331Y004134D01*
X004969Y004134D01*
X010400Y004650D02*
X010900Y004650D01*
X010400Y004650D02*
X010400Y004700D01*
X011850Y004100D02*
X013400Y005650D01*
X034400Y005650D01*
X037150Y008400D01*
X038126Y008400D01*
X038126Y007900D02*
X038650Y007900D01*
X039150Y008400D01*
X039150Y009400D01*
X039650Y009900D01*
X043400Y009900D01*
X047400Y013900D01*
X061400Y013900D01*
X065150Y017650D01*
X065650Y017650D01*
X065650Y016650D02*
X065150Y016650D01*
X061400Y012900D01*
X047400Y012900D01*
X043400Y008900D01*
X041650Y008900D01*
X041400Y008650D01*
X041400Y007900D01*
X040900Y007400D01*
X040174Y007400D01*
X040174Y006900D02*
X042400Y006900D01*
X042400Y006450D01*
X042450Y006400D01*
X042400Y006900D02*
X042650Y007150D01*
X042650Y007600D01*
X041900Y007600D02*
X041900Y007150D01*
X041850Y006400D02*
X041400Y006400D01*
X040900Y006400D02*
X041650Y005650D01*
X043150Y005650D01*
X044150Y006650D01*
X044150Y007900D01*
X048150Y011900D01*
X055150Y011900D01*
X055400Y011400D02*
X048650Y011400D01*
X048150Y010900D02*
X055400Y010900D01*
X055900Y011400D01*
X061400Y011400D01*
X063150Y013150D01*
X063650Y013150D02*
X061400Y010900D01*
X055900Y010900D01*
X055400Y010400D01*
X047650Y010400D01*
X047150Y009900D02*
X055400Y009900D01*
X055900Y010400D01*
X061400Y010400D01*
X064150Y013150D01*
X064150Y014150D01*
X065150Y015150D01*
X066150Y015150D01*
X066650Y015650D01*
X066900Y016150D02*
X065150Y016150D01*
X061400Y012400D01*
X047400Y012400D01*
X043200Y008200D01*
X042650Y008200D01*
X041900Y008200D01*
X040900Y006400D02*
X040174Y006400D01*
X040174Y005900D02*
X039400Y005900D01*
X039150Y006150D01*
X037150Y006150D01*
X035100Y004100D01*
X034400Y004100D01*
X033650Y004100D01*
X033650Y004700D02*
X032900Y004700D01*
X032850Y004650D01*
X031900Y004650D01*
X031400Y004150D01*
X031347Y004150D01*
X031331Y004134D01*
X028969Y004134D01*
X026900Y004650D02*
X026400Y004650D01*
X026400Y004700D01*
X020150Y005400D02*
X034650Y005400D01*
X036650Y007400D01*
X038126Y007400D01*
X038126Y008900D02*
X038650Y008900D01*
X038900Y009150D01*
X038900Y009650D01*
X039400Y010150D01*
X043150Y010150D01*
X045650Y008400D02*
X055400Y008400D01*
X055900Y008900D01*
X061400Y008900D01*
X064650Y012150D01*
X066150Y012150D01*
X066650Y012650D01*
X065650Y012650D02*
X064650Y012650D01*
X061400Y009400D01*
X055900Y009400D01*
X055400Y008900D01*
X046150Y008900D01*
X046650Y009400D02*
X055400Y009400D01*
X055900Y009900D01*
X061400Y009900D01*
X064650Y013150D01*
X064650Y014150D01*
X065150Y014650D01*
X065650Y014650D01*
X065650Y015650D02*
X065150Y015650D01*
X063650Y014150D01*
X063650Y013150D01*
X063150Y013650D02*
X061400Y011900D01*
X055900Y011900D01*
X055400Y011400D01*
X055150Y014900D02*
X061400Y014900D01*
X065150Y018650D01*
X065650Y018650D01*
X065650Y019650D02*
X065400Y019650D01*
X062900Y017150D01*
X058150Y017150D01*
X057150Y016150D01*
X057150Y015400D01*
X056650Y015400D02*
X056650Y016150D01*
X058150Y017650D01*
X062900Y017650D01*
X065400Y020150D01*
X066150Y020150D01*
X066650Y019650D01*
X066650Y020650D02*
X066150Y021150D01*
X065400Y021150D01*
X062900Y018650D01*
X058150Y018650D01*
X055650Y016150D01*
X055650Y015400D01*
X056150Y015400D02*
X056150Y016150D01*
X058150Y018150D01*
X062900Y018150D01*
X065400Y020650D01*
X065650Y020650D01*
X065650Y021650D02*
X065400Y021650D01*
X062900Y019150D01*
X056150Y019150D01*
X054400Y017400D01*
X054400Y016900D01*
X052400Y016900D02*
X052400Y017400D01*
X054650Y019650D01*
X062900Y019650D01*
X065400Y022150D01*
X066150Y022150D01*
X066650Y021650D01*
X066650Y022650D02*
X066150Y023150D01*
X065150Y023150D01*
X064900Y022900D01*
X064900Y022650D01*
X062900Y020650D01*
X041900Y020650D01*
X038400Y017150D01*
X038400Y016650D01*
X040400Y016650D02*
X040400Y017150D01*
X043400Y020150D01*
X062900Y020150D01*
X065400Y022650D01*
X065650Y022650D01*
X067150Y026150D02*
X066150Y027150D01*
X064450Y027150D01*
X063850Y027150D02*
X062839Y027150D01*
X061461Y027150D02*
X061461Y027211D01*
X060969Y030166D02*
X063331Y030166D01*
X064634Y030166D01*
X067400Y027400D01*
X067400Y016650D01*
X066900Y016150D01*
X066650Y016650D02*
X067150Y017150D01*
X067150Y026150D01*
X061900Y035150D02*
X062900Y036150D01*
X062900Y037400D01*
X062400Y037900D02*
X062400Y036150D01*
X061400Y035150D01*
X060900Y035150D02*
X062150Y036400D01*
X062150Y038400D01*
X061644Y038906D01*
X061268Y038906D01*
X061268Y039162D02*
X061013Y039162D01*
X060900Y039275D01*
X060900Y039650D01*
X060775Y039775D01*
X059900Y039775D01*
X059900Y040100D01*
X059850Y040150D01*
X059900Y039775D02*
X059900Y039450D01*
X059850Y039400D01*
X059775Y039025D02*
X059650Y038900D01*
X059650Y038700D01*
X059600Y038650D01*
X059650Y038600D01*
X059650Y038400D01*
X059775Y038275D01*
X060275Y038275D01*
X060450Y038100D01*
X060450Y037900D01*
X060900Y038025D02*
X060900Y037650D01*
X060775Y037525D01*
X059900Y037525D01*
X059900Y037200D01*
X059850Y037150D01*
X059900Y037525D02*
X059900Y037850D01*
X059850Y037900D01*
X059600Y038650D02*
X059150Y038650D01*
X059775Y039025D02*
X060275Y039025D01*
X060450Y039200D01*
X060450Y039400D01*
X060200Y038650D02*
X060775Y038650D01*
X061268Y038650D01*
X061268Y038394D02*
X061656Y038394D01*
X061900Y038150D01*
X061900Y036650D01*
X060400Y035150D01*
X060275Y036650D02*
X059400Y036650D01*
X056900Y039150D01*
X055512Y039150D01*
X055481Y039119D01*
X051851Y040650D02*
X050481Y039119D01*
X051851Y040650D02*
X060275Y040650D01*
X060450Y040475D01*
X060450Y040150D01*
X061025Y040150D01*
X061525Y039650D01*
X061525Y039525D01*
X061418Y039418D01*
X061268Y039418D01*
X061268Y038138D02*
X061013Y038138D01*
X060900Y038025D01*
X061268Y037882D02*
X061418Y037882D01*
X061525Y037775D01*
X061525Y037650D01*
X061025Y037150D01*
X060450Y037150D01*
X060400Y037100D01*
X060400Y036775D01*
X060275Y036650D01*
X062400Y037900D02*
X062894Y038394D01*
X063532Y038394D01*
X063532Y038138D02*
X063787Y038138D01*
X064025Y037900D01*
X064900Y037900D01*
X064900Y038225D01*
X064950Y038275D01*
X064900Y037900D02*
X064900Y037450D01*
X064950Y037525D01*
X064400Y037475D02*
X064350Y037525D01*
X064025Y037525D01*
X063668Y037882D01*
X063532Y037882D01*
X064350Y038275D02*
X064350Y038650D01*
X064025Y038650D01*
X063532Y038650D01*
X063532Y038906D02*
X062656Y038906D01*
X062400Y038650D01*
X062882Y039418D02*
X061150Y041150D01*
X047351Y041150D01*
X045481Y039119D01*
X043150Y041650D02*
X064150Y041650D01*
X065525Y040275D01*
X065525Y037275D01*
X065275Y037025D01*
X064650Y037025D01*
X064400Y037275D01*
X064400Y037475D01*
X064350Y038650D02*
X064350Y039025D01*
X064025Y039400D02*
X064900Y039400D01*
X064900Y039725D01*
X064950Y039775D01*
X064900Y039400D02*
X064900Y039075D01*
X064950Y039025D01*
X064350Y039775D02*
X064025Y039775D01*
X063668Y039418D01*
X063532Y039418D01*
X062882Y039418D01*
X063513Y039162D02*
X063532Y039162D01*
X063787Y039162D01*
X064025Y039400D01*
X043150Y041650D02*
X040619Y039119D01*
X040481Y039119D01*
X026900Y032150D02*
X026900Y024650D01*
X026150Y023900D01*
X026150Y018150D01*
X025150Y017900D02*
X025150Y016600D01*
X024900Y016350D01*
X024650Y016350D01*
X024650Y015450D01*
X024650Y014850D02*
X024575Y014775D01*
X023650Y014775D01*
X023400Y014525D01*
X023400Y014126D01*
X023900Y014126D02*
X023900Y013775D01*
X024025Y013650D01*
X024650Y013650D01*
X024700Y013650D01*
X025150Y013200D01*
X024650Y012900D02*
X024150Y012900D01*
X024150Y012150D01*
X024650Y012900D02*
X024950Y012600D01*
X025150Y012600D01*
X023150Y012900D02*
X023150Y015400D01*
X022900Y015650D01*
X022900Y016174D01*
X022900Y017100D01*
X023400Y017400D02*
X023150Y017650D01*
X021650Y017650D01*
X021200Y017200D01*
X021150Y017200D01*
X021150Y016600D02*
X021150Y016275D01*
X021400Y016025D01*
X021400Y015650D01*
X022025Y015275D02*
X022150Y015150D01*
X022025Y015275D02*
X022025Y016150D01*
X021900Y016275D01*
X021900Y016600D01*
X022400Y016775D02*
X022400Y016174D01*
X022400Y015400D01*
X022650Y015150D01*
X022150Y014650D02*
X022400Y014400D01*
X022400Y014126D01*
X022900Y014126D02*
X022900Y013775D01*
X022650Y013525D01*
X022650Y013400D01*
X022450Y013200D01*
X022150Y013200D01*
X022075Y013200D01*
X021400Y013200D02*
X021400Y014650D01*
X022150Y014650D01*
X023400Y016174D02*
X023400Y017400D01*
X024275Y016900D02*
X024600Y016900D01*
X024650Y016950D01*
X024275Y016900D02*
X023900Y016525D01*
X023900Y016174D01*
X022400Y016775D02*
X021975Y017200D01*
X021900Y017200D01*
X020150Y018400D02*
X019650Y018900D01*
X020150Y019400D02*
X020900Y018650D01*
X021650Y018650D01*
X022100Y019100D01*
X022150Y019100D01*
X024650Y019400D02*
X024950Y019100D01*
X025150Y019100D01*
X015275Y017150D02*
X014950Y017150D01*
X013900Y016900D02*
X013900Y018200D01*
X012350Y017400D02*
X012350Y017325D01*
X012950Y016725D01*
X012950Y016650D01*
X009376Y018650D02*
X008450Y018650D01*
X008400Y018700D01*
X008325Y018700D01*
X006900Y018900D02*
X006900Y019650D01*
X006400Y019400D02*
X005150Y018150D01*
X005150Y017150D02*
X006900Y018900D01*
X006150Y020150D02*
X005450Y020150D01*
X005400Y019650D02*
X005350Y019650D01*
X004850Y020150D01*
X004400Y020150D01*
X003900Y019650D01*
X004850Y020150D02*
X004850Y020450D01*
X004400Y020900D01*
X004126Y020900D01*
X004126Y021400D02*
X004126Y021900D01*
X004650Y021900D01*
X004900Y022150D01*
X004900Y023400D01*
X002900Y025400D01*
X002150Y025400D01*
X001400Y026150D01*
X001400Y026850D01*
X001400Y027450D02*
X001400Y029550D01*
X001819Y029969D01*
X001819Y030756D02*
X001756Y030756D01*
X000900Y029900D01*
X000900Y017150D01*
X001400Y016650D01*
X001650Y016150D02*
X002150Y015650D01*
X002650Y020150D02*
X002650Y021400D01*
X003650Y022400D01*
X004126Y022400D01*
X005400Y023650D02*
X002200Y026850D01*
X002150Y026850D01*
X002150Y027450D02*
X002150Y028851D01*
X001819Y029181D01*
X001950Y035100D02*
X007900Y029150D01*
X007900Y028650D01*
X008400Y029150D02*
X002850Y034700D01*
X002850Y037150D01*
X002850Y039150D01*
X003450Y039150D02*
X005142Y039150D01*
X005158Y039134D01*
X005650Y039650D02*
X001850Y039650D01*
X001350Y039150D01*
X001950Y039150D02*
X001950Y037150D01*
X001950Y035100D01*
X001350Y037150D02*
X001400Y037200D01*
X001400Y037900D01*
X003450Y037150D02*
X005142Y037150D01*
X005158Y037166D01*
X005650Y037650D02*
X005650Y036650D01*
X007650Y034650D01*
X007650Y030400D01*
X008400Y029650D01*
X008400Y030400D02*
X008150Y030650D01*
X008150Y036150D01*
X006150Y038150D01*
X006142Y038150D01*
X005650Y037650D02*
X005158Y038142D01*
X005158Y038150D01*
X006142Y039134D02*
X006142Y039158D01*
X005650Y039650D01*
X025819Y033119D02*
X025931Y033119D01*
X026900Y032150D01*
X025819Y032331D02*
X025819Y031544D01*
X025819Y031481D01*
X026400Y030900D01*
X037900Y027650D02*
X038650Y028400D01*
X039650Y028400D01*
X040400Y029150D01*
X039400Y027650D02*
X039400Y027200D01*
X040150Y027200D01*
X055650Y007900D02*
X054900Y007150D01*
X047150Y007150D01*
X045400Y005400D01*
X045400Y004900D01*
X047400Y004900D02*
X047400Y005400D01*
X048650Y006650D01*
X054900Y006650D01*
X056150Y007900D01*
X056650Y007900D02*
X059400Y005150D01*
X059400Y004650D01*
X059900Y005150D02*
X057150Y007900D01*
X059900Y005150D02*
X061150Y005150D01*
X061400Y004900D01*
X061400Y004650D01*
X041900Y005150D02*
X039900Y003150D01*
X039900Y005150D02*
X039450Y005150D01*
X038900Y005200D02*
X038850Y005150D01*
X034900Y004650D02*
X034400Y004650D01*
X034400Y004700D01*
X018900Y004650D02*
X018400Y004650D01*
X018400Y004700D01*
X011650Y006900D02*
X011650Y007150D01*
D37*
X064900Y006900D03*
X067150Y005650D03*
X064900Y004650D03*
X067650Y007900D03*
X066650Y027400D03*
X066650Y031650D03*
D38*
X063650Y036650D03*
X062900Y037400D03*
X062400Y038650D03*
X064025Y038650D03*
X060775Y038650D03*
X059150Y038650D03*
X054400Y027650D03*
X052150Y025650D03*
X053150Y025400D03*
X052150Y022900D03*
X048150Y025400D03*
X047150Y025650D03*
X049400Y027650D03*
X044400Y027650D03*
X042150Y025650D03*
X043150Y025400D03*
X042150Y022900D03*
X040650Y022150D03*
X038900Y023900D03*
X038150Y025400D03*
X039400Y027650D03*
X047150Y022900D03*
X037900Y018650D03*
X035900Y020650D03*
X031525Y016150D03*
X032650Y015650D03*
X033900Y015400D03*
X035150Y013400D03*
X037150Y014400D03*
X040400Y015400D03*
X044650Y012400D03*
X044150Y011900D03*
X043650Y011400D03*
X043150Y010900D03*
X045150Y012900D03*
X045650Y013400D03*
X046150Y013900D03*
X048650Y011400D03*
X048150Y010900D03*
X047650Y010400D03*
X047150Y009900D03*
X046650Y009400D03*
X046150Y008900D03*
X045650Y008400D03*
X041900Y007150D03*
X041400Y006400D03*
X041900Y005150D03*
X039900Y005150D03*
X037150Y005650D03*
X034900Y004650D03*
X039900Y003150D03*
X040900Y007900D03*
X040900Y008900D03*
X034150Y008900D03*
X033650Y008400D03*
X033650Y010650D03*
X033650Y011400D03*
X032650Y013150D03*
X031400Y010900D03*
X026150Y015150D03*
X024650Y013650D03*
X022650Y015150D03*
X022150Y015150D03*
X022900Y017100D03*
X023400Y017400D03*
X022900Y018650D03*
X024650Y020150D03*
X022650Y021650D03*
X022150Y021650D03*
X022900Y023600D03*
X021150Y025400D03*
X018900Y025400D03*
X018650Y026650D03*
X018650Y027150D03*
X020650Y027900D03*
X012900Y023900D03*
X012900Y023400D03*
X011900Y022900D03*
X010650Y023400D03*
X010650Y023900D03*
X009400Y023400D03*
X006900Y023400D03*
X006400Y023900D03*
X006150Y024400D03*
X006150Y024900D03*
X005400Y023650D03*
X004900Y023400D03*
X006900Y022400D03*
X007900Y021400D03*
X008150Y020900D03*
X006150Y020150D03*
X006900Y019650D03*
X006400Y019400D03*
X005400Y019650D03*
X004900Y018650D03*
X003900Y019650D03*
X005150Y017650D03*
X005900Y016900D03*
X006150Y017400D03*
X007900Y017650D03*
X010400Y017400D03*
X012150Y015400D03*
X012150Y014900D03*
X010150Y013650D03*
X007900Y013650D03*
X008900Y011650D03*
X007150Y010400D03*
X013150Y012900D03*
X014650Y015400D03*
X016650Y014900D03*
X017650Y014400D03*
X018650Y012900D03*
X022150Y011900D03*
X024150Y012150D03*
X016900Y010400D03*
X013900Y010150D03*
X010900Y004650D03*
X018900Y004650D03*
X026900Y004650D03*
X016400Y017400D03*
X016400Y017900D03*
X017900Y019900D03*
X020150Y018400D03*
X026650Y021650D03*
X011900Y019900D03*
X007900Y028650D03*
X008400Y029150D03*
X008400Y029650D03*
X008400Y030400D03*
X001400Y037900D03*
X047400Y003650D03*
X055650Y007900D03*
X056150Y007900D03*
X056650Y007900D03*
X057150Y007900D03*
X055150Y011900D03*
X055150Y014900D03*
X055650Y015400D03*
X056150Y015400D03*
X056650Y015400D03*
X057150Y015400D03*
X054400Y015650D03*
X063150Y013650D03*
X063150Y013150D03*
X066150Y017150D03*
X061400Y003400D03*
M02*
