  0
SECTION
  2
HEADER
  9
$ACADVER
  1
AC1009
  9
$DWGCODEPAGE
  3
ascii
  9
$INSBASE
 10
0.0
 20
0.0
 30
0.0
  9
$EXTMIN
 10
-0.7325
 20
-0.35
 30
0.0
  9
$EXTMAX
 10
14.655
 20
6.925
 30
0.0
  9
$LIMMIN
 10
0.0
 20
0.0
  9
$LIMMAX
 10
12.0
 20
9.0
  9
$ORTHOMODE
 70
     0
  9
$REGENMODE
 70
     1
  9
$FILLMODE
 70
     1
  9
$QTEXTMODE
 70
     0
  9
$MIRRTEXT
 70
     1
  9
$DRAGMODE
 70
     2
  9
$LTSCALE
 40
1.0
  9
$OSMODE
 70
    37
  9
$ATTMODE
 70
     1
  9
$TEXTSIZE
 40
0.2
  9
$TRACEWID
 40
0.05
  9
$TEXTSTYLE
  7
STANDARD
  9
$CLAYER
  8
0
  9
$CELTYPE
  6
BYLAYER
  9
$CECOLOR
 62
   178
  9
$DIMSCALE
 40
1.0
  9
$DIMASZ
 40
0.18
  9
$DIMEXO
 40
0.0625
  9
$DIMDLI
 40
0.38
  9
$DIMRND
 40
0.0
  9
$DIMDLE
 40
0.0
  9
$DIMEXE
 40
0.18
  9
$DIMTP
 40
0.0
  9
$DIMTM
 40
0.0
  9
$DIMTXT
 40
0.18
  9
$DIMCEN
 40
0.09
  9
$DIMTSZ
 40
0.0
  9
$DIMTOL
 70
     0
  9
$DIMLIM
 70
     0
  9
$DIMTIH
 70
     1
  9
$DIMTOH
 70
     1
  9
$DIMSE1
 70
     0
  9
$DIMSE2
 70
     0
  9
$DIMTAD
 70
     0
  9
$DIMZIN
 70
     0
  9
$DIMBLK
  1

  9
$DIMASO
 70
     1
  9
$DIMSHO
 70
     1
  9
$DIMPOST
  1

  9
$DIMAPOST
  1

  9
$DIMALT
 70
     0
  9
$DIMALTD
 70
     2
  9
$DIMALTF
 40
25.4
  9
$DIMLFAC
 40
1.0
  9
$DIMTOFL
 70
     0
  9
$DIMTVP
 40
0.0
  9
$DIMTIX
 70
     0
  9
$DIMSOXD
 70
     0
  9
$DIMSAH
 70
     0
  9
$DIMBLK1
  1

  9
$DIMBLK2
  1

  9
$DIMSTYLE
  2
STANDARD
  9
$DIMCLRD
 70
   178
  9
$DIMCLRE
 70
   178
  9
$DIMCLRT
 70
   178
  9
$DIMTFAC
 40
1.0
  9
$DIMGAP
 40
0.09
  9
$LUNITS
 70
     2
  9
$LUPREC
 70
     4
  9
$SKETCHINC
 40
0.1
  9
$FILLETRAD
 40
0.5
  9
$AUNITS
 70
     0
  9
$AUPREC
 70
     0
  9
$MENU
  1
.
  9
$ELEVATION
 40
0.0
  9
$PELEVATION
 40
0.0
  9
$THICKNESS
 40
0.0
  9
$LIMCHECK
 70
     0
  9
$CHAMFERA
 40
0.5
  9
$CHAMFERB
 40
0.5
  9
$SKPOLY
 70
     0
  9
$TDCREATE
 40
2456492.76435184
  9
$TDUPDATE
 40
2456492.76435184
  9
$TDINDWG
 40
0.0000000116
  9
$TDUSRTIMER
 40
0.0000000116
  9
$USRTIMER
 70
     1
  9
$ANGBASE
 50
0.0
  9
$ANGDIR
 70
     0
  9
$PDMODE
 70
     0
  9
$PDSIZE
 40
0.0
  9
$PLINEWID
 40
0.0
  9
$COORDS
 70
     1
  9
$SPLFRAME
 70
     0
  9
$SPLINETYPE
 70
     6
  9
$SPLINESEGS
 70
     8
  9
$ATTDIA
 70
     0
  9
$ATTREQ
 70
     1
  9
$HANDLING
 70
     1
  9
$HANDSEED
  5
1A97
  9
$SURFTAB1
 70
     6
  9
$SURFTAB2
 70
     6
  9
$SURFTYPE
 70
     6
  9
$SURFU
 70
     6
  9
$SURFV
 70
     6
  9
$UCSNAME
  2

  9
$UCSORG
 10
0.0
 20
0.0
 30
0.0
  9
$UCSXDIR
 10
1.0
 20
0.0
 30
0.0
  9
$UCSYDIR
 10
0.0
 20
1.0
 30
0.0
  9
$PUCSNAME
  2

  9
$PUCSORG
 10
0.0
 20
0.0
 30
0.0
  9
$PUCSXDIR
 10
1.0
 20
0.0
 30
0.0
  9
$PUCSYDIR
 10
0.0
 20
1.0
 30
0.0
  9
$USERI1
 70
     0
  9
$USERI2
 70
     0
  9
$USERI3
 70
     0
  9
$USERI4
 70
     0
  9
$USERI5
 70
     0
  9
$USERR1
 40
0.0
  9
$USERR2
 40
0.0
  9
$USERR3
 40
0.0
  9
$USERR4
 40
0.0
  9
$USERR5
 40
0.0
  9
$WORLDVIEW
 70
     1
  9
$SHADEDGE
 70
     3
  9
$SHADEDIF
 70
    70
  9
$TILEMODE
 70
     1
  9
$MAXACTVP
 70
    64
  9
$PLIMCHECK
 70
     0
  9
$PEXTMIN
 10
1.000000000000000E+20
 20
1.000000000000000E+20
 30
1.000000000000000E+20
  9
$PEXTMAX
 10
-1.000000000000000E+20
 20
-1.000000000000000E+20
 30
-1.000000000000000E+20
  9
$PLIMMIN
 10
0.0
 20
0.0
  9
$PLIMMAX
 10
12.0
 20
9.0
  9
$UNITMODE
 70
     0
  9
$VISRETAIN
 70
     1
  9
$PLINEGEN
 70
     0
  9
$PSLTSCALE
 70
     1
  0
ENDSEC
  0
SECTION
  2
TABLES
  0
TABLE
  2
VPORT
 70
     1
  0
VPORT
  2
*ACTIVE
 70
     0
 10
0.0
 20
0.0
 11
1.0
 21
1.0
 12
10.42990654205607
 22
4.5
 13
0.0
 23
0.0
 14
0.5
 24
0.5
 15
0.5
 25
0.5
 16
0.0
 26
0.0
 36
1.0
 17
0.0
 27
0.0
 37
0.0
 40
9.0
 41
1.972972972850329
 42
50.0
 43
0.0
 44
0.0
 50
0.0
 51
0.0
 71
     0
 72
   100
 73
     1
 74
     3
 75
     0
 76
     0
 77
     0
 78
     0
  0
ENDTAB
  0
TABLE
  2
LTYPE
 70
    19
  0
LTYPE
  2
CONTINUOUS
 70
     0
  3
Solid line
 72
    65
 73
     0
 40
0.0
  0
LTYPE
  2
BORDER
 70
     0
  3

 72
    65
 73
     6
 40
42.00000000000001
 49
12.0
 49
-6.0
 49
12.0
 49
-5.95
 49
0.1
 49
-5.95
  0
LTYPE
  2
BORDER2
 70
     0
  3

 72
    65
 73
     6
 40
21.0
 49
6.0
 49
-3.0
 49
6.0
 49
-2.95
 49
0.1
 49
-2.95
  0
LTYPE
  2
BORDERX2
 70
     0
  3

 72
    65
 73
     6
 40
84.0
 49
24.0
 49
-12.0
 49
24.0
 49
-11.95
 49
0.1
 49
-11.95
  0
LTYPE
  2
CENTER
 70
     0
  3

 72
    65
 73
     4
 40
50.0
 49
32.0
 49
-6.0
 49
6.0
 49
-6.0
  0
LTYPE
  2
CENTER2
 70
     0
  3

 72
    65
 73
     4
 40
25.0
 49
16.0
 49
-3.0
 49
3.0
 49
-3.0
  0
LTYPE
  2
CENTERX2
 70
     0
  3

 72
    65
 73
     4
 40
100.0
 49
64.0
 49
-12.0
 49
12.0
 49
-12.0
  0
LTYPE
  2
DASHDOT
 70
     0
  3

 72
    65
 73
     4
 40
24.0
 49
12.0
 49
-5.95
 49
0.1
 49
-5.95
  0
LTYPE
  2
DASHDOT2
 70
     0
  3

 72
    65
 73
     4
 40
12.0
 49
6.0
 49
-2.95
 49
0.1
 49
-2.95
  0
LTYPE
  2
DASHDOTX2
 70
     0
  3

 72
    65
 73
     4
 40
48.0
 49
24.0
 49
-11.95
 49
0.1
 49
-11.95
  0
LTYPE
  2
DASHED
 70
     0
  3

 72
    65
 73
     2
 40
18.0
 49
12.0
 49
-6.0
  0
LTYPE
  2
DASHED2
 70
     0
  3

 72
    65
 73
     2
 40
9.0
 49
6.0
 49
-3.0
  0
LTYPE
  2
DASHEDX2
 70
     0
  3

 72
    65
 73
     2
 40
36.0
 49
24.0
 49
-12.0
  0
LTYPE
  2
DIVIDE
 70
     0
  3

 72
    65
 73
     6
 40
29.99999999999999
 49
12.0
 49
-5.9
 49
0.15
 49
-5.9
 49
0.15
 49
-5.9
  0
LTYPE
  2
DIVIDE2
 70
     0
  3

 72
    65
 73
     6
 40
15.0
 49
6.0
 49
-2.9
 49
0.15
 49
-2.9
 49
0.15
 49
-2.9
  0
LTYPE
  2
DIVIDEX2
 70
     0
  3

 72
    65
 73
     6
 40
59.99999999999999
 49
24.0
 49
-11.9
 49
0.15
 49
-11.9
 49
0.15
 49
-11.9
  0
LTYPE
  2
DOT
 70
     0
  3

 72
    65
 73
     2
 40
6.3
 49
0.1
 49
-6.2
  0
LTYPE
  2
DOT2
 70
     0
  3

 72
    65
 73
     2
 40
3.2
 49
0.1
 49
-3.1
  0
LTYPE
  2
DOTX2
 70
     0
  3

 72
    65
 73
     2
 40
12.5
 49
0.1
 49
-12.4
  0
ENDTAB
  0
TABLE
  2
LAYER
 70
     6
  0
LAYER
  2
0
 70
     0
 62
     7
  6
CONTINUOUS
  0
LAYER
  2
180
 70
     0
 62
   253
  6
CONTINUOUS
  0
LAYER
  2
181
 70
     0
 62
   253
  6
CONTINUOUS
  0
LAYER
  2
182
 70
     0
 62
   253
  6
CONTINUOUS
  0
LAYER
  2
183
 70
     0
 62
   253
  6
CONTINUOUS
  0
LAYER
  2
185
 70
     0
 62
   253
  6
CONTINUOUS
  0
ENDTAB
  0
TABLE
  2
STYLE
 70
     1
  0
STYLE
  2
STANDARD
 70
     0
 40
0.0
 41
1.0
 50
0.0
 71
     0
 42
0.2
  3
txt
  4

  0
ENDTAB
  0
TABLE
  2
VIEW
 70
     0
  0
ENDTAB
  0
TABLE
  2
UCS
 70
     0
  0
ENDTAB
  0
TABLE
  2
APPID
 70
     2
  0
APPID
  2
ACAD
 70
     0
  0
APPID
  2
QCAD
 70
     0
  0
ENDTAB
  0
TABLE
  2
DIMSTYLE
 70
     2
  0
DIMSTYLE
  2
STANDARD
 70
     0
  3

  4

  5

  6

  7

 40
1.0
 41
0.18
 42
0.0625
 43
0.38
 44
0.18
 45
0.0
 46
0.0
 47
0.0
 48
0.0
140
0.18
141
0.09
142
0.0
143
25.4
144
1.0
145
0.0
146
1.0
147
0.09
 71
     0
 72
     0
 73
     1
 74
     1
 75
     0
 76
     0
 77
     0
 78
     0
170
     0
171
     2
172
     0
173
     0
174
     0
175
     0
176
     0
177
     0
178
     0
  0
DIMSTYLE
  2
QCADDIMSTYLE
 70
     0
  3

  4

  5

  6

  7

 40
1.0
 41
0.18
 42
0.0625
 43
0.38
 44
0.18
 45
0.0
 46
0.0
 47
0.0
 48
0.0
140
0.18
141
0.09
142
0.0
143
25.4
144
1.0
145
0.0
146
1.0
147
0.09
 71
     0
 72
     0
 73
     0
 74
     1
 75
     0
 76
     0
 77
     1
 78
     0
170
     0
171
     2
172
     0
173
     0
174
     0
175
     0
176
     0
177
     0
178
     0
  0
ENDTAB
  0
ENDSEC
  0
SECTION
  2
BLOCKS
  0
BLOCK
  8
0
  2
$MODEL_SPACE
 70
     0
 10
0.0
 20
0.0
 30
0.0
  3
$MODEL_SPACE
  1

  0
ENDBLK
  5
195B
  8
0
  0
BLOCK
 67
     1
  8
0
  2
$PAPER_SPACE
 70
     0
 10
0.0
 20
0.0
 30
0.0
  3
$PAPER_SPACE
  1

  0
ENDBLK
  5
1957
 67
     1
  8
0
  0
BLOCK
  8
0
  2
ANNULUSP
 70
     0
 10
0.0
 20
0.0
 30
0.0
  3
ANNULUSP
  1

  0
POLYLINE
  5
50
  8
0
 66
     1
 10
0.0
 20
0.0
 30
0.0
  0
VERTEX
  5
1A01
  8
0
 10
0.0
 20
-0.25
 30
0.0
 42
1.0
  0
VERTEX
  5
1A02
  8
0
 10
0.0
 20
0.25
 30
0.0
 42
1.0
  0
VERTEX
  5
1A03
  8
0
 10
0.0
 20
-0.25
 30
0.0
  0
SEQEND
  5
1A84
  8
0
  0
ENDBLK
  5
19AA
  8
0
  0
BLOCK
  8
0
  2
THERMALP
 70
     0
 10
0.0
 20
0.0
 30
0.0
  3
THERMALP
  1

  0
POLYLINE
  5
58
  8
0
 66
     1
 10
0.0
 20
0.0
 30
0.0
  0
VERTEX
  5
1A04
  8
0
 10
-0.237868
 20
0.45
 30
0.0
  0
VERTEX
  5
1A05
  8
0
 10
0.237868
 20
0.45
 30
0.0
  0
SEQEND
  5
1A83
  8
0
  0
POLYLINE
  5
5C
  8
0
 66
     1
 10
0.0
 20
0.0
 30
0.0
  0
VERTEX
  5
1A06
  8
0
 10
0.237868
 20
0.425
 30
0.0
 42
1.0
  0
VERTEX
  5
1A07
  8
0
 10
0.237868
 20
0.475
 30
0.0
  0
SEQEND
  5
1A82
  8
0
  0
POLYLINE
  5
60
  8
0
 66
     1
 10
0.0
 20
0.0
 30
0.0
  0
VERTEX
  5
1A08
  8
0
 10
-0.237868
 20
0.475
 30
0.0
 42
1.0
  0
VERTEX
  5
1A09
  8
0
 10
-0.237868
 20
0.425
 30
0.0
  0
SEQEND
  5
1A81
  8
0
  0
POLYLINE
  5
64
  8
0
 66
     1
 10
0.0
 20
0.0
 30
0.0
  0
VERTEX
  5
1A0A
  8
0
 10
0.45
 20
0.237868
 30
0.0
  0
VERTEX
  5
1A0B
  8
0
 10
0.45
 20
-0.237868
 30
0.0
  0
SEQEND
  5
1A80
  8
0
  0
POLYLINE
  5
68
  8
0
 66
     1
 10
0.0
 20
0.0
 30
0.0
  0
VERTEX
  5
1A0C
  8
0
 10
0.425
 20
-0.237868
 30
0.0
 42
1.0
  0
VERTEX
  5
1A0D
  8
0
 10
0.475
 20
-0.237868
 30
0.0
  0
SEQEND
  5
1A7F
  8
0
  0
POLYLINE
  5
6C
  8
0
 66
     1
 10
0.0
 20
0.0
 30
0.0
  0
VERTEX
  5
1A0E
  8
0
 10
0.475
 20
0.237868
 30
0.0
 42
1.0
  0
VERTEX
  5
1A0F
  8
0
 10
0.425
 20
0.237868
 30
0.0
  0
SEQEND
  5
1A7E
  8
0
  0
POLYLINE
  5
70
  8
0
 66
     1
 10
0.0
 20
0.0
 30
0.0
  0
VERTEX
  5
1A10
  8
0
 10
0.237868
 20
-0.45
 30
0.0
  0
VERTEX
  5
1A11
  8
0
 10
-0.237868
 20
-0.45
 30
0.0
  0
SEQEND
  5
1A7D
  8
0
  0
POLYLINE
  5
74
  8
0
 66
     1
 10
0.0
 20
0.0
 30
0.0
  0
VERTEX
  5
1A12
  8
0
 10
-0.237868
 20
-0.425
 30
0.0
 42
1.0
  0
VERTEX
  5
1A13
  8
0
 10
-0.237868
 20
-0.475
 30
0.0
  0
SEQEND
  5
1A7C
  8
0
  0
POLYLINE
  5
78
  8
0
 66
     1
 10
0.0
 20
0.0
 30
0.0
  0
VERTEX
  5
1A14
  8
0
 10
0.237868
 20
-0.475
 30
0.0
 42
1.0
  0
VERTEX
  5
1A15
  8
0
 10
0.237868
 20
-0.425
 30
0.0
  0
SEQEND
  5
1A7B
  8
0
  0
POLYLINE
  5
7C
  8
0
 66
     1
 10
0.0
 20
0.0
 30
0.0
  0
VERTEX
  5
1A16
  8
0
 10
-0.45
 20
-0.237868
 30
0.0
  0
VERTEX
  5
1A17
  8
0
 10
-0.45
 20
0.237868
 30
0.0
  0
SEQEND
  5
1A7A
  8
0
  0
POLYLINE
  5
80
  8
0
 66
     1
 10
0.0
 20
0.0
 30
0.0
  0
VERTEX
  5
1A18
  8
0
 10
-0.425
 20
0.237868
 30
0.0
 42
1.0
  0
VERTEX
  5
1A19
  8
0
 10
-0.475
 20
0.237868
 30
0.0
  0
SEQEND
  5
1A79
  8
0
  0
POLYLINE
  5
84
  8
0
 66
     1
 10
0.0
 20
0.0
 30
0.0
  0
VERTEX
  5
1A1A
  8
0
 10
-0.475
 20
-0.237868
 30
0.0
 42
1.0
  0
VERTEX
  5
1A1B
  8
0
 10
-0.425
 20
-0.237868
 30
0.0
  0
SEQEND
  5
1A78
  8
0
  0
ENDBLK
  5
19AD
  8
0
  0
BLOCK
  8
0
  2
OCTAGONV
 70
     0
 10
0.0
 20
0.0
 30
0.0
  3
OCTAGONV
  1

  0
POLYLINE
  5
8B
  8
0
 66
     1
 10
0.0
 20
0.0
 30
0.0
  0
VERTEX
  5
1A1C
  8
0
 10
-0.25
 20
-0.103553
 30
0.0
  0
VERTEX
  5
1A1D
  8
0
 10
-0.25
 20
0.103553
 30
0.0
  0
VERTEX
  5
1A1E
  8
0
 10
-0.103553
 20
0.25
 30
0.0
  0
VERTEX
  5
1A1F
  8
0
 10
0.103553
 20
0.25
 30
0.0
  0
VERTEX
  5
1A20
  8
0
 10
0.25
 20
0.103553
 30
0.0
  0
VERTEX
  5
1A21
  8
0
 10
0.25
 20
-0.103553
 30
0.0
  0
VERTEX
  5
1A22
  8
0
 10
0.103553
 20
-0.25
 30
0.0
  0
VERTEX
  5
1A23
  8
0
 10
-0.103553
 20
-0.25
 30
0.0
  0
VERTEX
  5
1A24
  8
0
 10
-0.25
 20
-0.103553
 30
0.0
  0
VERTEX
  5
1A25
  8
0
 10
-0.25
 20
0.103553
 30
0.0
  0
SEQEND
  5
1A77
  8
0
  0
ENDBLK
  5
19B0
  8
0
  0
BLOCK
  8
0
  2
SQUAREV
 70
     0
 10
0.0
 20
0.0
 30
0.0
  3
SQUAREV
  1

  0
SOLID
  5
9A
  8
0
 10
-0.5
 20
-0.5
 30
0.0
 11
0.5
 21
-0.5
 31
0.0
 12
-0.5
 22
0.5
 32
0.0
 13
0.5
 23
0.5
 33
0.0
  0
ENDBLK
  5
19B3
  8
0
  0
BLOCK
  8
0
  2
ROUNDV
 70
     0
 10
0.0
 20
0.0
 30
0.0
  3
ROUNDV
  1

  0
POLYLINE
  5
9E
  8
0
 66
     1
 10
0.0
 20
0.0
 30
0.0
  0
VERTEX
  5
1A26
  8
0
 10
0.0
 20
-0.25
 30
0.0
 42
1.0
  0
VERTEX
  5
1A27
  8
0
 10
0.0
 20
0.25
 30
0.0
 42
1.0
  0
VERTEX
  5
1A28
  8
0
 10
0.0
 20
-0.25
 30
0.0
  0
SEQEND
  5
1A76
  8
0
  0
ENDBLK
  5
19B6
  8
0
  0
BLOCK
  8
0
  2
ANNULUSV
 70
     0
 10
0.0
 20
0.0
 30
0.0
  3
ANNULUSV
  1

  0
POLYLINE
  5
A6
  8
0
 66
     1
 10
0.0
 20
0.0
 30
0.0
  0
VERTEX
  5
1A29
  8
0
 10
0.0
 20
-0.25
 30
0.0
 42
1.0
  0
VERTEX
  5
1A2A
  8
0
 10
0.0
 20
0.25
 30
0.0
 42
1.0
  0
VERTEX
  5
1A2B
  8
0
 10
0.0
 20
-0.25
 30
0.0
  0
SEQEND
  5
1A75
  8
0
  0
ENDBLK
  5
19B9
  8
0
  0
BLOCK
  8
0
  2
THERMALV
 70
     0
 10
0.0
 20
0.0
 30
0.0
  3
THERMALV
  1

  0
POLYLINE
  5
AE
  8
0
 66
     1
 10
0.0
 20
0.0
 30
0.0
  0
VERTEX
  5
1A2C
  8
0
 10
-0.237868
 20
0.45
 30
0.0
  0
VERTEX
  5
1A2D
  8
0
 10
0.237868
 20
0.45
 30
0.0
  0
SEQEND
  5
1A74
  8
0
  0
POLYLINE
  5
B2
  8
0
 66
     1
 10
0.0
 20
0.0
 30
0.0
  0
VERTEX
  5
1A2E
  8
0
 10
0.237868
 20
0.425
 30
0.0
 42
1.0
  0
VERTEX
  5
1A2F
  8
0
 10
0.237868
 20
0.475
 30
0.0
  0
SEQEND
  5
1A73
  8
0
  0
POLYLINE
  5
B6
  8
0
 66
     1
 10
0.0
 20
0.0
 30
0.0
  0
VERTEX
  5
1A30
  8
0
 10
-0.237868
 20
0.475
 30
0.0
 42
1.0
  0
VERTEX
  5
1A31
  8
0
 10
-0.237868
 20
0.425
 30
0.0
  0
SEQEND
  5
1A72
  8
0
  0
POLYLINE
  5
BA
  8
0
 66
     1
 10
0.0
 20
0.0
 30
0.0
  0
VERTEX
  5
1A32
  8
0
 10
0.45
 20
0.237868
 30
0.0
  0
VERTEX
  5
1A33
  8
0
 10
0.45
 20
-0.237868
 30
0.0
  0
SEQEND
  5
1A71
  8
0
  0
POLYLINE
  5
BE
  8
0
 66
     1
 10
0.0
 20
0.0
 30
0.0
  0
VERTEX
  5
1A34
  8
0
 10
0.425
 20
-0.237868
 30
0.0
 42
1.0
  0
VERTEX
  5
1A35
  8
0
 10
0.475
 20
-0.237868
 30
0.0
  0
SEQEND
  5
1A70
  8
0
  0
POLYLINE
  5
C2
  8
0
 66
     1
 10
0.0
 20
0.0
 30
0.0
  0
VERTEX
  5
1A36
  8
0
 10
0.475
 20
0.237868
 30
0.0
 42
1.0
  0
VERTEX
  5
1A37
  8
0
 10
0.425
 20
0.237868
 30
0.0
  0
SEQEND
  5
1A6F
  8
0
  0
POLYLINE
  5
C6
  8
0
 66
     1
 10
0.0
 20
0.0
 30
0.0
  0
VERTEX
  5
1A38
  8
0
 10
0.237868
 20
-0.45
 30
0.0
  0
VERTEX
  5
1A39
  8
0
 10
-0.237868
 20
-0.45
 30
0.0
  0
SEQEND
  5
1A6E
  8
0
  0
POLYLINE
  5
CA
  8
0
 66
     1
 10
0.0
 20
0.0
 30
0.0
  0
VERTEX
  5
1A3A
  8
0
 10
-0.237868
 20
-0.425
 30
0.0
 42
1.0
  0
VERTEX
  5
1A3B
  8
0
 10
-0.237868
 20
-0.475
 30
0.0
  0
SEQEND
  5
1A6D
  8
0
  0
POLYLINE
  5
CE
  8
0
 66
     1
 10
0.0
 20
0.0
 30
0.0
  0
VERTEX
  5
1A3C
  8
0
 10
0.237868
 20
-0.475
 30
0.0
 42
1.0
  0
VERTEX
  5
1A3D
  8
0
 10
0.237868
 20
-0.425
 30
0.0
  0
SEQEND
  5
1A6C
  8
0
  0
POLYLINE
  5
D2
  8
0
 66
     1
 10
0.0
 20
0.0
 30
0.0
  0
VERTEX
  5
1A3E
  8
0
 10
-0.45
 20
-0.237868
 30
0.0
  0
VERTEX
  5
1A3F
  8
0
 10
-0.45
 20
0.237868
 30
0.0
  0
SEQEND
  5
1A6B
  8
0
  0
POLYLINE
  5
D6
  8
0
 66
     1
 10
0.0
 20
0.0
 30
0.0
  0
VERTEX
  5
1A40
  8
0
 10
-0.425
 20
0.237868
 30
0.0
 42
1.0
  0
VERTEX
  5
1A41
  8
0
 10
-0.475
 20
0.237868
 30
0.0
  0
SEQEND
  5
1A6A
  8
0
  0
POLYLINE
  5
DA
  8
0
 66
     1
 10
0.0
 20
0.0
 30
0.0
  0
VERTEX
  5
1A42
  8
0
 10
-0.475
 20
-0.237868
 30
0.0
 42
1.0
  0
VERTEX
  5
1A43
  8
0
 10
-0.425
 20
-0.237868
 30
0.0
  0
SEQEND
  5
1A69
  8
0
  0
ENDBLK
  5
19BC
  8
0
  0
BLOCK
  8
0
  2
OFFSETP100
 70
     0
 10
0.0
 20
0.0
 30
0.0
  3
OFFSETP100
  1

  0
POLYLINE
  5
E1
  8
0
 66
     1
 10
0.0
 20
0.0
 30
0.0
  0
VERTEX
  5
1A44
  8
0
 10
0.0
 20
0.0
 30
0.0
  0
VERTEX
  5
1A45
  8
0
 10
1.0
 20
0.0
 30
0.0
  0
SEQEND
  5
1A68
  8
0
  0
POLYLINE
  5
E5
  8
0
 66
     1
 10
0.0
 20
0.0
 30
0.0
  0
VERTEX
  5
1A46
  8
0
 10
1.0
 20
-0.25
 30
0.0
 42
1.0
  0
VERTEX
  5
1A47
  8
0
 10
1.0
 20
0.25
 30
0.0
  0
SEQEND
  5
1A67
  8
0
  0
POLYLINE
  5
E9
  8
0
 66
     1
 10
0.0
 20
0.0
 30
0.0
  0
VERTEX
  5
1A48
  8
0
 10
0.0
 20
0.25
 30
0.0
 42
1.0
  0
VERTEX
  5
1A49
  8
0
 10
0.0
 20
-0.25
 30
0.0
  0
SEQEND
  5
1A66
  8
0
  0
ENDBLK
  5
19BF
  8
0
  0
BLOCK
  8
0
  2
LONGP100
 70
     0
 10
0.0
 20
0.0
 30
0.0
  3
LONGP100
  1

  0
POLYLINE
  5
F0
  8
0
 66
     1
 10
0.0
 20
0.0
 30
0.0
  0
VERTEX
  5
1A4A
  8
0
 10
-0.5
 20
0.0
 30
0.0
  0
VERTEX
  5
1A4B
  8
0
 10
0.5
 20
0.0
 30
0.0
  0
SEQEND
  5
1A65
  8
0
  0
POLYLINE
  5
F4
  8
0
 66
     1
 10
0.0
 20
0.0
 30
0.0
  0
VERTEX
  5
1A4C
  8
0
 10
0.5
 20
-0.25
 30
0.0
 42
1.0
  0
VERTEX
  5
1A4D
  8
0
 10
0.5
 20
0.25
 30
0.0
  0
SEQEND
  5
1A64
  8
0
  0
POLYLINE
  5
F8
  8
0
 66
     1
 10
0.0
 20
0.0
 30
0.0
  0
VERTEX
  5
1A4E
  8
0
 10
-0.5
 20
0.25
 30
0.0
 42
1.0
  0
VERTEX
  5
1A4F
  8
0
 10
-0.5
 20
-0.25
 30
0.0
  0
SEQEND
  5
1A63
  8
0
  0
ENDBLK
  5
19C2
  8
0
  0
BLOCK
  8
0
  2
RECT
 70
     0
 10
0.0
 20
0.0
 30
0.0
  3
RECT
  1

  0
SOLID
  5
2B
  8
0
 10
-0.5
 20
-0.5
 30
0.0
 11
0.5
 21
-0.5
 31
0.0
 12
-0.5
 22
0.5
 32
0.0
 13
0.5
 23
0.5
 33
0.0
  0
ENDBLK
  5
19C5
  8
0
  0
BLOCK
  8
0
  2
PIE
 70
     0
 10
0.0
 20
0.0
 30
0.0
  3
PIE
  1

  0
POLYLINE
  5
2D
  8
0
 66
     1
 10
0.0
 20
0.0
 30
0.0
  0
VERTEX
  5
1A50
  8
0
 10
0.0
 20
-0.25
 30
0.0
 42
1.0
  0
VERTEX
  5
1A51
  8
0
 10
0.0
 20
0.25
 30
0.0
 42
1.0
  0
VERTEX
  5
1A52
  8
0
 10
0.0
 20
-0.25
 30
0.0
  0
SEQEND
  5
1A62
  8
0
  0
ENDBLK
  5
19C8
  8
0
  0
BLOCK
  8
0
  2
OCTAGONP
 70
     0
 10
0.0
 20
0.0
 30
0.0
  3
OCTAGONP
  1

  0
POLYLINE
  5
35
  8
0
 66
     1
 10
0.0
 20
0.0
 30
0.0
  0
VERTEX
  5
1A53
  8
0
 10
-0.25
 20
-0.103553
 30
0.0
  0
VERTEX
  5
1A54
  8
0
 10
-0.25
 20
0.103553
 30
0.0
  0
VERTEX
  5
1A55
  8
0
 10
-0.103553
 20
0.25
 30
0.0
  0
VERTEX
  5
1A56
  8
0
 10
0.103553
 20
0.25
 30
0.0
  0
VERTEX
  5
1A57
  8
0
 10
0.25
 20
0.103553
 30
0.0
  0
VERTEX
  5
1A58
  8
0
 10
0.25
 20
-0.103553
 30
0.0
  0
VERTEX
  5
1A59
  8
0
 10
0.103553
 20
-0.25
 30
0.0
  0
VERTEX
  5
1A5A
  8
0
 10
-0.103553
 20
-0.25
 30
0.0
  0
VERTEX
  5
1A5B
  8
0
 10
-0.25
 20
-0.103553
 30
0.0
  0
VERTEX
  5
1A5C
  8
0
 10
-0.25
 20
0.103553
 30
0.0
  0
SEQEND
  5
1A61
  8
0
  0
ENDBLK
  5
19CB
  8
0
  0
BLOCK
  8
0
  2
SQUAREP
 70
     0
 10
0.0
 20
0.0
 30
0.0
  3
SQUAREP
  1

  0
SOLID
  5
44
  8
0
 10
-0.5
 20
-0.5
 30
0.0
 11
0.5
 21
-0.5
 31
0.0
 12
-0.5
 22
0.5
 32
0.0
 13
0.5
 23
0.5
 33
0.0
  0
ENDBLK
  5
19CE
  8
0
  0
BLOCK
  8
0
  2
ROUNDP
 70
     0
 10
0.0
 20
0.0
 30
0.0
  3
ROUNDP
  1

  0
POLYLINE
  5
48
  8
0
 66
     1
 10
0.0
 20
0.0
 30
0.0
  0
VERTEX
  5
1A5D
  8
0
 10
0.0
 20
-0.25
 30
0.0
 42
1.0
  0
VERTEX
  5
1A5E
  8
0
 10
0.0
 20
0.25
 30
0.0
 42
1.0
  0
VERTEX
  5
1A5F
  8
0
 10
0.0
 20
-0.25
 30
0.0
  0
SEQEND
  5
1A60
  8
0
  0
ENDBLK
  5
19D1
  8
0
  0
ENDSEC
  0
SECTION
  2
ENTITIES
  0
LINE
  5
FD
  8
180
 10
-0.075
 20
-0.075
 30
0.0
 11
6.925
 21
-0.075
 31
0.0
  0
LINE
  5
FE
  8
180
 10
6.925
 20
-0.075
 30
0.0
 11
6.925
 21
4.425
 31
0.0
  0
LINE
  5
FF
  8
180
 10
6.925
 20
4.425
 30
0.0
 11
6.875
 21
4.425
 31
0.0
  0
LINE
  5
100
  8
180
 10
6.875
 20
4.425
 30
0.0
 11
-0.025
 21
4.425
 31
0.0
  0
LINE
  5
101
  8
180
 10
-0.025
 20
4.425
 30
0.0
 11
-0.075
 21
4.425
 31
0.0
  0
LINE
  5
102
  8
180
 10
-0.075
 20
4.425
 30
0.0
 11
-0.075
 21
-0.075
 31
0.0
  0
LINE
  5
103
  8
180
 10
-0.025
 20
4.375
 30
0.0
 11
-0.025
 21
-0.025
 31
0.0
  0
LINE
  5
104
  8
180
 10
-0.025
 20
-0.025
 30
0.0
 11
6.875
 21
-0.025
 31
0.0
  0
LINE
  5
105
  8
180
 10
6.875
 20
-0.025
 30
0.0
 11
6.875
 21
4.375
 31
0.0
  0
LINE
  5
107
  8
180
 10
-0.025
 20
4.375
 30
0.0
 11
-0.025
 21
4.425
 31
0.0
  0
LINE
  5
108
  8
180
 10
6.875
 20
4.375
 30
0.0
 11
6.875
 21
4.425
 31
0.0
  0
LINE
  5
110
  8
183
 10
6.875
 20
6.7375
 30
0.0
 11
6.875
 21
5.175
 31
0.0
  0
LINE
  5
112
  8
183
 10
-0.025
 20
6.7375
 30
0.0
 11
-0.025
 21
5.175
 31
0.0
  0
LINE
  5
113
  8
183
 10
-0.075
 20
6.775
 30
0.0
 11
-0.025
 21
6.775
 31
0.0
  0
LINE
  5
114
  8
183
 10
-0.025
 20
6.775
 30
0.0
 11
-0.025
 21
6.7375
 31
0.0
  0
LINE
  5
116
  8
183
 10
6.875
 20
6.7375
 30
0.0
 11
6.875
 21
6.775
 31
0.0
  0
LINE
  5
117
  8
183
 10
6.875
 20
6.775
 30
0.0
 11
6.925
 21
6.775
 31
0.0
  0
LINE
  5
11C
  8
183
 10
-0.025
 20
5.175
 30
0.0
 11
6.875
 21
5.175
 31
0.0
  0
LINE
  5
121
  8
183
 10
-0.075
 20
5.125
 30
0.0
 11
0.175
 21
5.125
 31
0.0
  0
LINE
  5
122
  8
183
 10
0.175
 20
5.125
 30
0.0
 11
0.675
 21
5.125
 31
0.0
  0
LINE
  5
123
  8
183
 10
0.675
 20
5.125
 30
0.0
 11
6.925
 21
5.125
 31
0.0
  0
LINE
  5
124
  8
183
 10
6.925
 20
5.125
 30
0.0
 11
6.925
 21
6.775
 31
0.0
  0
LINE
  5
125
  8
183
 10
-0.075
 20
5.125
 30
0.0
 11
-0.075
 21
6.775
 31
0.0
  0
LINE
  5
129
  8
183
 10
5.825
 20
5.125
 30
0.0
 11
6.075
 21
5.125
 31
0.0
  0
LINE
  5
12A
  8
183
 10
6.075
 20
5.125
 30
0.0
 11
6.575
 21
5.125
 31
0.0
  0
LINE
  5
13F
  8
185
 10
5.45
 20
5.4
 30
0.0
 11
6.4
 21
5.4
 31
0.0
  0
ARC
  5
140
  8
185
 10
6.4
 20
5.425
 30
0.0
 40
0.025
 50
270.0
 51
0.0
  0
LINE
  5
141
  8
185
 10
6.425
 20
5.425
 30
0.0
 11
6.425
 21
5.475
 31
0.0
  0
ARC
  5
142
  8
185
 10
6.4
 20
5.475
 30
0.0
 40
0.025
 50
0.0
 51
90.0
  0
LINE
  5
143
  8
185
 10
6.4
 20
5.5
 30
0.0
 11
5.45
 21
5.5
 31
0.0
  0
ARC
  5
144
  8
185
 10
5.45
 20
5.475
 30
0.0
 40
0.025
 50
90.0
 51
180.0
  0
LINE
  5
145
  8
185
 10
5.425
 20
5.475
 30
0.0
 11
5.425
 21
5.425
 31
0.0
  0
ARC
  5
146
  8
185
 10
5.45
 20
5.425
 30
0.0
 40
0.025
 50
180.0
 51
270.0
  0
POLYLINE
  5
14D
  8
185
 66
     1
 10
0.0
 20
0.0
 30
0.0
  0
VERTEX
  5
19D7
  8
185
 10
-0.075
 20
6.775
 30
0.0
  0
VERTEX
  5
19D8
  8
185
 10
6.925
 20
6.775
 30
0.0
  0
SEQEND
  5
1A96
  8
185
  0
POLYLINE
  5
151
  8
185
 66
     1
 10
0.0
 20
0.0
 30
0.0
  0
VERTEX
  5
19D9
  8
185
 10
6.925
 20
6.7725
 30
0.0
 42
1.0
  0
VERTEX
  5
19DA
  8
185
 10
6.925
 20
6.7775
 30
0.0
  0
SEQEND
  5
1A95
  8
185
  0
POLYLINE
  5
155
  8
185
 66
     1
 10
0.0
 20
0.0
 30
0.0
  0
VERTEX
  5
19DB
  8
185
 10
-0.075
 20
6.7775
 30
0.0
 42
1.0
  0
VERTEX
  5
19DC
  8
185
 10
-0.075
 20
6.7725
 30
0.0
  0
SEQEND
  5
1A94
  8
185
  0
POLYLINE
  5
159
  8
185
 66
     1
 10
0.0
 20
0.0
 30
0.0
  0
VERTEX
  5
19DD
  8
185
 10
6.925
 20
6.775
 30
0.0
  0
VERTEX
  5
19DE
  8
185
 10
6.925
 20
5.125
 30
0.0
  0
SEQEND
  5
1A93
  8
185
  0
POLYLINE
  5
15D
  8
185
 66
     1
 10
0.0
 20
0.0
 30
0.0
  0
VERTEX
  5
19DF
  8
185
 10
6.9225
 20
5.125
 30
0.0
 42
1.0
  0
VERTEX
  5
19E0
  8
185
 10
6.9275
 20
5.125
 30
0.0
  0
SEQEND
  5
1A92
  8
185
  0
POLYLINE
  5
161
  8
185
 66
     1
 10
0.0
 20
0.0
 30
0.0
  0
VERTEX
  5
19E1
  8
185
 10
6.9275
 20
6.775
 30
0.0
 42
1.0
  0
VERTEX
  5
19E2
  8
185
 10
6.9225
 20
6.775
 30
0.0
  0
SEQEND
  5
1A91
  8
185
  0
POLYLINE
  5
165
  8
185
 66
     1
 10
0.0
 20
0.0
 30
0.0
  0
VERTEX
  5
19E3
  8
185
 10
6.925
 20
5.125
 30
0.0
  0
VERTEX
  5
19E4
  8
185
 10
-0.075
 20
5.125
 30
0.0
  0
SEQEND
  5
1A90
  8
185
  0
POLYLINE
  5
169
  8
185
 66
     1
 10
0.0
 20
0.0
 30
0.0
  0
VERTEX
  5
19E5
  8
185
 10
-0.075
 20
5.1275
 30
0.0
 42
1.0
  0
VERTEX
  5
19E6
  8
185
 10
-0.075
 20
5.1225
 30
0.0
  0
SEQEND
  5
1A8F
  8
185
  0
POLYLINE
  5
16D
  8
185
 66
     1
 10
0.0
 20
0.0
 30
0.0
  0
VERTEX
  5
19E7
  8
185
 10
6.925
 20
5.1225
 30
0.0
 42
1.0
  0
VERTEX
  5
19E8
  8
185
 10
6.925
 20
5.1275
 30
0.0
  0
SEQEND
  5
1A8E
  8
185
  0
POLYLINE
  5
171
  8
185
 66
     1
 10
0.0
 20
0.0
 30
0.0
  0
VERTEX
  5
19E9
  8
185
 10
-0.075
 20
5.125
 30
0.0
  0
VERTEX
  5
19EA
  8
185
 10
-0.075
 20
6.775
 30
0.0
  0
SEQEND
  5
1A8D
  8
185
  0
POLYLINE
  5
175
  8
185
 66
     1
 10
0.0
 20
0.0
 30
0.0
  0
VERTEX
  5
19EB
  8
185
 10
-0.0725
 20
6.775
 30
0.0
 42
1.0
  0
VERTEX
  5
19EC
  8
185
 10
-0.0775
 20
6.775
 30
0.0
  0
SEQEND
  5
1A8C
  8
185
  0
POLYLINE
  5
179
  8
185
 66
     1
 10
0.0
 20
0.0
 30
0.0
  0
VERTEX
  5
19ED
  8
185
 10
-0.0775
 20
5.125
 30
0.0
 42
1.0
  0
VERTEX
  5
19EE
  8
185
 10
-0.0725
 20
5.125
 30
0.0
  0
SEQEND
  5
1A8B
  8
185
  0
POLYLINE
  5
18D3
  8
182
 66
     1
 10
0.0
 20
0.0
 30
0.0
  0
VERTEX
  5
19EF
  8
182
 10
0.425
 20
3.75
 30
0.0
 42
1.0
  0
VERTEX
  5
19F0
  8
182
 10
0.425
 20
4.05
 30
0.0
 42
1.0
  0
VERTEX
  5
19F1
  8
182
 10
0.425
 20
3.75
 30
0.0
  0
SEQEND
  5
1A8A
  8
182
  0
POLYLINE
  5
18D8
  8
182
 66
     1
 10
0.0
 20
0.0
 30
0.0
  0
VERTEX
  5
19F2
  8
182
 10
0.425
 20
0.275
 30
0.0
 42
1.0
  0
VERTEX
  5
19F3
  8
182
 10
0.425
 20
0.575
 30
0.0
 42
1.0
  0
VERTEX
  5
19F4
  8
182
 10
0.425
 20
0.275
 30
0.0
  0
SEQEND
  5
1A89
  8
182
  0
POLYLINE
  5
18E2
  8
182
 66
     1
 10
0.0
 20
0.0
 30
0.0
  0
VERTEX
  5
19F5
  8
182
 10
6.425
 20
3.75
 30
0.0
 42
1.0
  0
VERTEX
  5
19F6
  8
182
 10
6.425
 20
4.05
 30
0.0
 42
1.0
  0
VERTEX
  5
19F7
  8
182
 10
6.425
 20
3.75
 30
0.0
  0
SEQEND
  5
1A88
  8
182
  0
POLYLINE
  5
18E7
  8
182
 66
     1
 10
0.0
 20
0.0
 30
0.0
  0
VERTEX
  5
19F8
  8
182
 10
6.425
 20
0.275
 30
0.0
 42
1.0
  0
VERTEX
  5
19F9
  8
182
 10
6.425
 20
0.575
 30
0.0
 42
1.0
  0
VERTEX
  5
19FA
  8
182
 10
6.425
 20
0.275
 30
0.0
  0
SEQEND
  5
1A87
  8
182
  0
POLYLINE
  5
18F1
  8
185
 66
     1
 10
0.0
 20
0.0
 30
0.0
  0
VERTEX
  5
19FB
  8
185
 10
0.6
 20
5.3875
 30
0.0
 42
1.0
  0
VERTEX
  5
19FC
  8
185
 10
0.6
 20
5.8375
 30
0.0
 42
1.0
  0
VERTEX
  5
19FD
  8
185
 10
0.6
 20
5.3875
 30
0.0
  0
SEQEND
  5
1A86
  8
185
  0
POLYLINE
  5
18F6
  8
185
 66
     1
 10
0.0
 20
0.0
 30
0.0
  0
VERTEX
  5
19FE
  8
185
 10
1.3
 20
5.3875
 30
0.0
 42
1.0
  0
VERTEX
  5
19FF
  8
185
 10
1.3
 20
5.8375
 30
0.0
 42
1.0
  0
VERTEX
  5
1A00
  8
185
 10
1.3
 20
5.3875
 30
0.0
  0
SEQEND
  5
1A85
  8
185
  0
CIRCLE
  5
1935
  8
0
 10
0.125
 20
4.15
 30
0.0
 40
0.058
  0
CIRCLE
  5
1936
  8
0
 10
3.85
 20
4.15
 30
0.0
 40
0.058
  0
CIRCLE
  5
1937
  8
0
 10
6.725
 20
4.15
 30
0.0
 40
0.058
  0
CIRCLE
  5
1938
  8
0
 10
6.725
 20
0.125
 30
0.0
 40
0.058
  0
CIRCLE
  5
1939
  8
0
 10
3.85
 20
0.125
 30
0.0
 40
0.058
  0
CIRCLE
  5
193A
  8
0
 10
0.125
 20
0.125
 30
0.0
 40
0.058
  0
ENDSEC
  0
EOF
