G75*
G70*
%OFA0B0*%
%FSLAX24Y24*%
%IPPOS*%
%LPD*%
%AMOC8*
5,1,8,0,0,1.08239X$1,22.5*
%
%ADD10R,0.0600X0.0600*%
%ADD11OC8,0.0600*%
%ADD12R,0.0315X0.0354*%
%ADD13R,0.0354X0.0315*%
%ADD14R,0.0551X0.0709*%
%ADD15R,0.0709X0.0551*%
%ADD16R,0.0551X0.0748*%
%ADD17OC8,0.0543*%
%ADD18OC8,0.0797*%
%ADD19C,0.0561*%
%ADD20C,0.1306*%
%ADD21R,0.1000X0.1000*%
%ADD22OC8,0.1000*%
%ADD23R,0.1102X0.1496*%
%ADD24R,0.1496X0.1102*%
%ADD25OC8,0.0591*%
%ADD26C,0.0886*%
%ADD27R,0.0748X0.0551*%
%ADD28R,0.0540X0.0540*%
%ADD29OC8,0.0540*%
%ADD30OC8,0.0886*%
%ADD31R,0.0236X0.0866*%
%ADD32R,0.0700X0.1000*%
%ADD33C,0.0060*%
%ADD34C,0.0270*%
%ADD35C,0.0080*%
%ADD36C,0.0100*%
%ADD37C,0.0413*%
%ADD38C,0.0356*%
%ADD39C,0.0240*%
%ADD40C,0.0160*%
D10*
X001650Y023368D03*
X045650Y004868D03*
X065650Y025868D03*
D11*
X066650Y025868D03*
X066650Y024868D03*
X065650Y024868D03*
X065650Y023868D03*
X066650Y023868D03*
X066650Y022868D03*
X065650Y022868D03*
X065650Y021868D03*
X065650Y020868D03*
X066650Y020868D03*
X066650Y021868D03*
X066650Y019868D03*
X065650Y019868D03*
X065650Y018868D03*
X066650Y018868D03*
X066650Y017868D03*
X065650Y017868D03*
X065650Y016868D03*
X066650Y016868D03*
X066650Y015868D03*
X065650Y015868D03*
X065650Y014868D03*
X066650Y014868D03*
X066650Y013868D03*
X065650Y013868D03*
X065650Y012868D03*
X066650Y012868D03*
X049650Y005868D03*
X048650Y005868D03*
X048650Y004868D03*
X049650Y004868D03*
X047650Y004868D03*
X046650Y004868D03*
X046650Y005868D03*
X047650Y005868D03*
X045650Y005868D03*
X002650Y015368D03*
X001650Y015368D03*
X001650Y016368D03*
X002650Y016368D03*
X002650Y017368D03*
X001650Y017368D03*
X001650Y018368D03*
X002650Y018368D03*
X002650Y019368D03*
X001650Y019368D03*
X001650Y020368D03*
X002650Y020368D03*
X002650Y021368D03*
X001650Y021368D03*
X001650Y022368D03*
X002650Y022368D03*
X002650Y023368D03*
X065400Y046368D03*
D12*
X064150Y041918D03*
X064150Y041318D03*
X067400Y041318D03*
X067400Y041918D03*
X055650Y031168D03*
X055650Y030568D03*
X054900Y030568D03*
X054900Y031168D03*
X054400Y028418D03*
X054400Y027818D03*
X053650Y027818D03*
X053650Y028418D03*
X052900Y028418D03*
X052900Y027818D03*
X052150Y027818D03*
X052150Y028418D03*
X050650Y028418D03*
X050650Y027818D03*
X049900Y027818D03*
X049900Y028418D03*
X048900Y030568D03*
X048900Y031168D03*
X048150Y031168D03*
X048150Y030568D03*
X048150Y033568D03*
X048900Y033568D03*
X048900Y034168D03*
X048150Y034168D03*
X053650Y026543D03*
X053650Y025943D03*
X053650Y022918D03*
X052900Y022918D03*
X052900Y022318D03*
X053650Y022318D03*
X051400Y022318D03*
X050650Y022318D03*
X050650Y022918D03*
X051400Y022918D03*
X061900Y027318D03*
X061900Y027918D03*
X041275Y013918D03*
X041275Y013318D03*
X039525Y013318D03*
X039525Y013918D03*
X037900Y013918D03*
X037900Y013318D03*
X033650Y014318D03*
X033650Y014918D03*
X032900Y014918D03*
X032900Y014318D03*
X034400Y017318D03*
X034400Y017918D03*
X035150Y017918D03*
X035150Y017318D03*
X035900Y017318D03*
X035900Y017918D03*
X036650Y017918D03*
X036650Y017318D03*
X037400Y017318D03*
X037400Y017918D03*
X034275Y019943D03*
X034275Y020543D03*
X033525Y020543D03*
X033525Y019943D03*
X034150Y024818D03*
X034150Y025418D03*
X035650Y025418D03*
X035650Y024818D03*
X036400Y024818D03*
X036400Y025418D03*
X037900Y025418D03*
X037900Y024818D03*
X038650Y024818D03*
X038650Y025418D03*
X032150Y026818D03*
X032150Y027418D03*
X031400Y027418D03*
X031400Y026818D03*
X030650Y026818D03*
X030650Y027418D03*
X026650Y031318D03*
X026650Y031918D03*
X025900Y031918D03*
X025900Y031318D03*
X025150Y032068D03*
X025150Y032668D03*
X025900Y032818D03*
X025900Y033418D03*
X026650Y033418D03*
X026650Y032818D03*
X021150Y032818D03*
X021150Y033418D03*
X020400Y033418D03*
X020400Y032818D03*
X019650Y032668D03*
X019650Y032068D03*
X020400Y031918D03*
X020400Y031318D03*
X021150Y031318D03*
X021150Y031918D03*
X013400Y032068D03*
X013400Y032668D03*
X012650Y032943D03*
X012650Y033543D03*
X011650Y033318D03*
X011650Y033918D03*
X012650Y034443D03*
X012650Y035043D03*
X012650Y031793D03*
X012650Y031193D03*
X011650Y031418D03*
X011650Y030818D03*
X012650Y030293D03*
X012650Y029693D03*
X007400Y025918D03*
X007400Y025318D03*
X006650Y025318D03*
X006650Y025918D03*
X008150Y025168D03*
X008150Y024568D03*
X007400Y024418D03*
X007400Y023818D03*
X006650Y023818D03*
X006650Y024418D03*
X012650Y020543D03*
X012650Y019943D03*
X011650Y019418D03*
X012650Y019043D03*
X012650Y018443D03*
X011650Y018818D03*
X012650Y017293D03*
X012650Y016693D03*
X012650Y015793D03*
X011650Y016318D03*
X011650Y016918D03*
X013400Y017568D03*
X013400Y018168D03*
X012650Y015193D03*
X008150Y017068D03*
X008150Y017668D03*
X007400Y017818D03*
X007400Y018418D03*
X006650Y018418D03*
X006650Y017818D03*
X006650Y016918D03*
X006650Y016318D03*
X007400Y016318D03*
X007400Y016918D03*
X022525Y019068D03*
X022525Y019668D03*
X022525Y021068D03*
X022525Y021668D03*
X025150Y019293D03*
X025150Y018693D03*
X025900Y018693D03*
X025900Y019293D03*
X026775Y020818D03*
X026775Y021418D03*
X036025Y009293D03*
X036025Y008693D03*
X036775Y008693D03*
X036775Y009293D03*
X038525Y009293D03*
X038525Y008693D03*
X040150Y008693D03*
X040150Y009293D03*
X044275Y009293D03*
X044275Y008693D03*
X006400Y032068D03*
X006400Y032668D03*
X005650Y032943D03*
X005650Y033543D03*
X005650Y034443D03*
X005650Y035043D03*
X004650Y033918D03*
X004650Y033318D03*
X005650Y031793D03*
X005650Y031193D03*
X005650Y030293D03*
X005650Y029693D03*
X004650Y030818D03*
X004650Y031418D03*
D13*
X023475Y022493D03*
X024075Y022493D03*
X027725Y018493D03*
X028325Y018493D03*
X028325Y017868D03*
X027725Y017868D03*
X023950Y018243D03*
X023350Y018243D03*
X032100Y019868D03*
X032700Y019868D03*
X032700Y020618D03*
X032100Y020618D03*
X032100Y021368D03*
X032700Y021368D03*
X032700Y024743D03*
X032100Y024743D03*
X032100Y025493D03*
X032700Y025493D03*
X039600Y022993D03*
X040200Y022993D03*
X040200Y022243D03*
X039600Y022243D03*
X039600Y021118D03*
X040200Y021118D03*
X040200Y020368D03*
X039600Y020368D03*
X039600Y019618D03*
X040200Y019618D03*
X046600Y021118D03*
X047200Y021118D03*
X047200Y021868D03*
X046600Y021868D03*
X046600Y022618D03*
X047200Y022618D03*
X047200Y023368D03*
X046600Y023368D03*
X049600Y024368D03*
X050200Y024368D03*
X050200Y025118D03*
X049600Y025118D03*
X049600Y025868D03*
X050200Y025868D03*
X050200Y026618D03*
X049600Y026618D03*
X055100Y026618D03*
X055700Y026618D03*
X055700Y027368D03*
X055100Y027368D03*
X055100Y028118D03*
X055700Y028118D03*
X055700Y025868D03*
X055100Y025868D03*
X055100Y023368D03*
X055700Y023368D03*
X055700Y022618D03*
X055100Y022618D03*
X053700Y018868D03*
X053100Y018868D03*
X052200Y018868D03*
X051600Y018868D03*
X060850Y020868D03*
X061450Y020868D03*
X047950Y036868D03*
X047350Y036868D03*
X047350Y038118D03*
X047950Y038118D03*
X047950Y038868D03*
X047350Y038868D03*
X048850Y038868D03*
X049450Y038868D03*
X060850Y038368D03*
X061450Y038368D03*
X062350Y038368D03*
X062950Y038368D03*
X062950Y043368D03*
X062350Y043368D03*
X027200Y011618D03*
X026600Y011618D03*
D14*
X052400Y020243D03*
X053400Y020243D03*
X055150Y024993D03*
X056150Y024993D03*
X053275Y029618D03*
X052275Y029618D03*
X055400Y034118D03*
X056400Y034118D03*
X056400Y035368D03*
X055400Y035368D03*
D15*
X040900Y029118D03*
X040900Y028118D03*
X048775Y022368D03*
X048775Y021368D03*
D16*
X039900Y018368D03*
X038900Y018368D03*
X033400Y022868D03*
X032400Y022868D03*
X026650Y030118D03*
X025650Y030118D03*
X021150Y030118D03*
X020150Y030118D03*
X007650Y027118D03*
X006650Y027118D03*
X006650Y019618D03*
X007650Y019618D03*
X026400Y012618D03*
X027400Y012618D03*
X047150Y035868D03*
X048150Y035868D03*
X051650Y038743D03*
X052650Y038743D03*
D17*
X047650Y040118D03*
X047650Y040906D03*
X047650Y041693D03*
X047650Y042481D03*
D18*
X046579Y042874D03*
X048721Y042874D03*
X048721Y040118D03*
X046579Y040118D03*
D19*
X052158Y040953D02*
X052158Y041514D01*
X053142Y041514D02*
X053142Y040953D01*
X053142Y042301D02*
X053142Y042862D01*
X052158Y042862D02*
X052158Y042301D01*
D20*
X050288Y043368D03*
X055012Y043368D03*
D21*
X058650Y041868D03*
D22*
X056650Y042993D03*
X058650Y044243D03*
X043583Y043652D03*
X043583Y045817D03*
X042796Y046762D03*
D23*
X057275Y039868D03*
X060025Y039868D03*
D24*
X063150Y036743D03*
X063150Y033993D03*
D25*
X063142Y040384D03*
X062158Y040384D03*
X062158Y041368D03*
X063142Y041368D03*
X063142Y042353D03*
X062158Y042353D03*
D26*
X003996Y005238D03*
X003996Y007738D03*
X003996Y010238D03*
X008496Y010238D03*
X010996Y010238D03*
X010996Y007738D03*
X008496Y007738D03*
X008496Y005238D03*
X010996Y005238D03*
X015496Y005238D03*
X015496Y007738D03*
X015496Y010238D03*
X007304Y040498D03*
X007304Y042998D03*
X007304Y045498D03*
X002804Y045498D03*
X002804Y042998D03*
X002804Y040498D03*
D27*
X033150Y018618D03*
X033150Y017618D03*
X039650Y028118D03*
X039650Y029118D03*
D28*
X033150Y004868D03*
D29*
X034150Y004868D03*
X035150Y004868D03*
X036150Y004868D03*
X037150Y004868D03*
X038150Y004868D03*
X039150Y004868D03*
X039150Y005868D03*
X038150Y005868D03*
X037150Y005868D03*
X036150Y005868D03*
X035150Y005868D03*
X034150Y005868D03*
X033150Y005868D03*
D30*
X035304Y039305D03*
X035804Y040557D03*
X035304Y041805D03*
X035804Y043057D03*
X035304Y044305D03*
X035804Y045555D03*
X031304Y046687D03*
X030804Y045555D03*
X030304Y044305D03*
X030804Y043057D03*
X030304Y041805D03*
X030804Y040557D03*
X030304Y039305D03*
X028804Y040557D03*
X028304Y039305D03*
X028304Y041805D03*
X028804Y043057D03*
X028304Y044305D03*
X028804Y045555D03*
X024304Y046687D03*
X023804Y045555D03*
X023304Y044305D03*
X023804Y043057D03*
X023304Y041805D03*
X023804Y040557D03*
X023304Y039305D03*
X021804Y040557D03*
X021304Y039305D03*
X021304Y041805D03*
X021804Y043057D03*
X021304Y044305D03*
X021804Y045555D03*
X017304Y046687D03*
X016804Y045555D03*
X016304Y044305D03*
X014804Y045555D03*
X014304Y044305D03*
X014804Y043057D03*
X014304Y041805D03*
X014804Y040557D03*
X014304Y039305D03*
X016304Y039305D03*
X016804Y040557D03*
X016304Y041805D03*
X016804Y043057D03*
X010304Y046687D03*
X009804Y045555D03*
X009304Y044305D03*
X009804Y043057D03*
X009304Y041805D03*
X009804Y040557D03*
X009304Y039305D03*
D31*
X065150Y040595D03*
X065650Y040595D03*
X066150Y040595D03*
X066650Y040595D03*
X066650Y042642D03*
X066150Y042642D03*
X065650Y042642D03*
X065150Y042642D03*
D32*
X064900Y044368D03*
X066900Y044368D03*
D33*
X055650Y032493D02*
X051275Y032493D01*
X050775Y032243D02*
X055400Y032243D01*
X056400Y031243D01*
X056400Y029368D01*
X056775Y028993D01*
X056775Y025618D01*
X057650Y024743D01*
X058025Y024743D02*
X057275Y023993D01*
X054400Y023993D01*
X053900Y024493D01*
X053900Y024118D02*
X054275Y023743D01*
X057400Y023743D01*
X058025Y024368D01*
X058525Y024618D02*
X058525Y019243D01*
X059150Y019493D02*
X058775Y019868D01*
X058775Y024743D01*
X057400Y026118D01*
X057400Y026368D01*
X057900Y026368D02*
X057900Y025993D01*
X059025Y024868D01*
X059025Y020493D01*
X059775Y019743D01*
X060400Y019993D02*
X059275Y021118D01*
X059275Y024993D01*
X058275Y025993D01*
X057650Y025493D02*
X058525Y024618D01*
X059525Y024368D02*
X061400Y022493D01*
X061900Y022493D02*
X060025Y024368D01*
X060025Y025618D01*
X059525Y025618D02*
X059525Y024368D01*
X060525Y024743D02*
X062525Y022743D01*
X062525Y021118D01*
X062400Y020993D01*
X062775Y020868D02*
X062400Y020493D01*
X062775Y020868D02*
X062775Y022868D01*
X061150Y024493D01*
X060775Y024118D02*
X062275Y022618D01*
X063025Y023243D02*
X063025Y020493D01*
X061400Y018868D01*
X057400Y018868D01*
X056525Y019743D01*
X056525Y020993D01*
X057900Y022368D01*
X057900Y022618D01*
X057400Y022243D02*
X056275Y021118D01*
X056275Y019743D01*
X057400Y018618D01*
X061400Y018618D01*
X063275Y020493D01*
X063275Y023243D01*
X065400Y025368D01*
X066150Y025368D01*
X066650Y025868D01*
X065650Y025868D02*
X063025Y023243D01*
X063525Y022743D02*
X065650Y024868D01*
X065400Y024368D02*
X066150Y024368D01*
X066650Y024868D01*
X066650Y023868D02*
X066150Y023368D01*
X065400Y023368D01*
X064275Y022243D01*
X064275Y020493D01*
X061400Y017618D01*
X057400Y017618D01*
X054400Y020618D01*
X054400Y021868D01*
X054775Y021868D02*
X054775Y020493D01*
X057400Y017868D01*
X061400Y017868D01*
X064025Y020493D01*
X064025Y022243D01*
X065650Y023868D01*
X065400Y024368D02*
X063775Y022743D01*
X063775Y020493D01*
X061400Y018118D01*
X057400Y018118D01*
X055150Y020368D01*
X055150Y021868D01*
X055525Y021868D02*
X055525Y020243D01*
X057400Y018368D01*
X061400Y018368D01*
X063525Y020493D01*
X063525Y022743D01*
X064525Y021743D02*
X065650Y022868D01*
X065400Y022368D02*
X066150Y022368D01*
X066650Y022868D01*
X065400Y022368D02*
X064775Y021743D01*
X064775Y020493D01*
X061400Y017118D01*
X057400Y017118D01*
X053650Y020868D01*
X053650Y021868D01*
X054025Y021868D02*
X054025Y020743D01*
X057400Y017368D01*
X061400Y017368D01*
X064525Y020493D01*
X064525Y021743D01*
X065025Y021243D02*
X065650Y021868D01*
X065025Y021243D02*
X065025Y020243D01*
X061400Y016618D01*
X050650Y016618D01*
X050150Y017118D01*
X050150Y018868D01*
X050650Y019368D01*
X051025Y019368D01*
X051400Y019743D01*
X051150Y019868D02*
X050900Y019618D01*
X050650Y019618D01*
X049900Y018868D01*
X049900Y017118D01*
X050650Y016368D01*
X061525Y016368D01*
X064900Y019743D01*
X065150Y019368D02*
X065650Y019868D01*
X065150Y019368D02*
X065150Y018868D01*
X061900Y015618D01*
X050650Y015618D01*
X049150Y017118D01*
X049150Y019493D01*
X049900Y020243D01*
X049525Y020243D02*
X048900Y019618D01*
X048900Y017118D01*
X050650Y015368D01*
X062025Y015368D01*
X065025Y018368D01*
X065900Y018368D01*
X066150Y018618D01*
X066150Y019368D01*
X066650Y019868D01*
X066650Y018868D02*
X067150Y018368D01*
X067150Y015618D01*
X066900Y015368D01*
X066400Y015368D01*
X066150Y015118D01*
X066150Y014618D01*
X065900Y014368D01*
X063650Y014368D01*
X060525Y011243D01*
X054025Y011243D01*
X052400Y012868D01*
X049400Y012868D01*
X046150Y016118D01*
X046150Y017493D01*
X046400Y017868D02*
X046400Y016243D01*
X049525Y013118D01*
X052525Y013118D01*
X054150Y011493D01*
X060400Y011493D01*
X063775Y014868D01*
X064900Y014868D01*
X063775Y015243D02*
X063775Y015993D01*
X065650Y017868D01*
X064900Y017868D02*
X064900Y017493D01*
X061775Y014368D01*
X050150Y014368D01*
X047650Y016868D01*
X047650Y017618D01*
X047400Y017243D02*
X047400Y016743D01*
X050025Y014118D01*
X054275Y014118D01*
X055775Y012618D01*
X055775Y012243D02*
X060275Y012243D01*
X060650Y012618D01*
X060275Y011743D02*
X063775Y015243D01*
X061775Y014868D02*
X061525Y015118D01*
X050525Y015118D01*
X048650Y016993D01*
X048650Y019118D01*
X049400Y019118D02*
X049400Y017118D01*
X050650Y015868D01*
X061775Y015868D01*
X064650Y018743D01*
X064775Y019243D02*
X061650Y016118D01*
X050650Y016118D01*
X049650Y017118D01*
X049650Y018993D01*
X050900Y020243D01*
X051150Y019993D02*
X051150Y019868D01*
X050275Y019993D02*
X049400Y019118D01*
X049525Y020243D02*
X049525Y020618D01*
X050275Y020243D02*
X050275Y019993D01*
X049900Y021618D02*
X048150Y019868D01*
X048150Y016743D01*
X050275Y014618D01*
X053900Y014618D01*
X054150Y013868D02*
X055775Y012243D01*
X054400Y011993D02*
X057525Y011993D01*
X060275Y011743D02*
X054275Y011743D01*
X052650Y013368D01*
X049650Y013368D01*
X046650Y016368D01*
X046650Y018243D01*
X047150Y016868D02*
X047150Y016618D01*
X049900Y013868D01*
X054150Y013868D01*
X054650Y014868D02*
X050400Y014868D01*
X048400Y016868D01*
X048400Y019868D01*
X050275Y021743D01*
X050275Y021868D01*
X049900Y021868D02*
X049900Y021618D01*
X047900Y021818D02*
X047200Y021118D01*
X047200Y021868D02*
X047525Y021868D01*
X047900Y022243D01*
X047900Y021868D02*
X047900Y021818D01*
X047900Y022993D02*
X047650Y023243D01*
X047650Y024118D01*
X046650Y025118D01*
X046650Y034118D01*
X045650Y035118D01*
X042650Y035118D01*
X044400Y036618D02*
X044400Y037118D01*
X042900Y038618D01*
X042900Y039118D01*
X043400Y039118D02*
X043400Y038618D01*
X044650Y037368D01*
X044650Y036618D01*
X047150Y034118D01*
X047150Y025368D01*
X048650Y023868D01*
X049275Y023868D01*
X049650Y023493D01*
X049150Y022993D02*
X046900Y025243D01*
X046900Y034118D01*
X044400Y036618D01*
X048150Y034618D02*
X048150Y034168D01*
X048900Y034168D02*
X048900Y034618D01*
X052025Y030368D02*
X053525Y031868D01*
X053900Y031868D02*
X052400Y030368D01*
X048650Y029368D02*
X047775Y030243D01*
X047525Y030243D01*
X047525Y029743D02*
X047400Y029618D01*
X047400Y027118D01*
X047775Y027368D02*
X047650Y027493D01*
X047650Y029243D01*
X047900Y029493D01*
X045775Y028493D02*
X044775Y027493D01*
X044775Y025118D01*
X045275Y024618D01*
X045275Y015993D01*
X045650Y015618D01*
X045650Y008368D01*
X044400Y007118D01*
X043150Y007118D01*
X042275Y008618D02*
X040275Y010618D01*
X040275Y014493D01*
X040025Y014743D01*
X040400Y014993D02*
X040525Y014868D01*
X040525Y011368D01*
X042025Y009868D01*
X043275Y011493D02*
X043275Y023493D01*
X043025Y023118D02*
X043025Y011868D01*
X042775Y012243D02*
X042775Y022868D01*
X042525Y022493D02*
X042525Y012743D01*
X042275Y012993D02*
X042275Y024868D01*
X041650Y025118D02*
X043150Y025118D01*
X043650Y025618D01*
X043650Y025868D01*
X043275Y025618D02*
X043275Y026118D01*
X043275Y025618D02*
X043025Y025368D01*
X041525Y025368D01*
X041150Y024993D01*
X041150Y023868D01*
X041025Y023743D01*
X040275Y023743D01*
X040650Y023493D02*
X041025Y023493D01*
X041400Y023868D01*
X041400Y024868D01*
X041650Y025118D01*
X041525Y025618D02*
X042900Y025618D01*
X042525Y025868D02*
X041525Y025868D01*
X039900Y024243D01*
X039525Y024243D01*
X039900Y023993D02*
X041525Y025618D01*
X042275Y026368D02*
X043025Y027118D01*
X043900Y027118D01*
X045150Y026618D02*
X045150Y025368D01*
X045650Y025368D02*
X045650Y026618D01*
X042025Y023868D02*
X041775Y024118D01*
X042025Y023868D02*
X042025Y014868D01*
X041275Y014118D01*
X041275Y013918D01*
X041275Y013318D02*
X041275Y012868D01*
X040775Y012868D02*
X040775Y015993D01*
X041025Y016618D02*
X041025Y014493D01*
X042275Y012993D02*
X042025Y012743D01*
X043525Y012743D02*
X043525Y020868D01*
X043775Y019243D02*
X043775Y012243D01*
X044025Y011618D02*
X044025Y018493D01*
X044275Y017743D02*
X044275Y010993D01*
X044525Y010368D02*
X044525Y016993D01*
X046900Y016493D02*
X049775Y013618D01*
X052775Y013618D01*
X054400Y011993D01*
X046900Y011368D02*
X046900Y007618D01*
X048150Y006368D01*
X048150Y004618D01*
X047900Y004368D01*
X046150Y004368D01*
X045650Y004868D01*
X046650Y004868D02*
X047150Y005368D01*
X047150Y006868D01*
X046650Y007368D01*
X046650Y011743D01*
X038900Y012618D02*
X037025Y010743D01*
X035525Y010743D01*
X035900Y010993D02*
X036900Y010993D01*
X038650Y012743D01*
X038650Y013868D01*
X037775Y014743D01*
X037775Y015243D01*
X037025Y015993D01*
X037025Y016868D01*
X036650Y016868D02*
X036650Y015868D01*
X037275Y015243D01*
X037275Y014743D01*
X037150Y014618D01*
X037150Y012243D01*
X036400Y011493D01*
X035900Y011493D01*
X035525Y011243D02*
X036525Y011243D01*
X037400Y012118D01*
X037400Y014618D01*
X037525Y014743D01*
X037525Y015118D01*
X038025Y015118D02*
X038025Y014868D01*
X038900Y013993D01*
X038900Y012618D01*
X036900Y012368D02*
X036275Y011743D01*
X035525Y011743D01*
X035900Y011993D02*
X036150Y011993D01*
X036650Y012493D01*
X036650Y015118D01*
X036400Y015243D02*
X036400Y012618D01*
X036025Y012243D01*
X035525Y012243D01*
X035900Y012493D02*
X036150Y012743D01*
X036150Y015118D01*
X036400Y015243D02*
X035900Y015743D01*
X035900Y016868D01*
X033650Y015243D02*
X033400Y015493D01*
X033650Y015243D02*
X033650Y014918D01*
X033650Y014318D02*
X032900Y014318D01*
X032900Y014918D02*
X032900Y015368D01*
X033025Y015493D01*
X033650Y014318D02*
X033975Y014318D01*
X034150Y014493D01*
X036900Y014743D02*
X036900Y012368D01*
X036900Y014743D02*
X037025Y014868D01*
X037025Y015118D01*
X031900Y018118D02*
X030650Y016868D01*
X030650Y014368D01*
X030400Y014743D02*
X028650Y012993D01*
X030400Y014743D02*
X030400Y016993D01*
X031900Y018493D01*
X030525Y018868D02*
X030275Y019118D01*
X030275Y020868D01*
X030525Y021118D01*
X030525Y022243D01*
X030150Y021868D02*
X030150Y018868D01*
X029900Y018618D01*
X029025Y018993D02*
X029650Y019618D01*
X029650Y021243D01*
X029900Y021368D02*
X029900Y019618D01*
X028900Y018618D01*
X028900Y018493D01*
X028775Y018118D02*
X028400Y018493D01*
X028325Y018493D01*
X028775Y018118D02*
X028775Y017493D01*
X028325Y017868D02*
X028325Y017893D01*
X027725Y018493D01*
X027275Y018493D01*
X027025Y018243D01*
X027525Y018993D02*
X029025Y018993D01*
X028650Y019493D02*
X028900Y019743D01*
X029400Y019743D01*
X029150Y019993D02*
X028775Y019993D01*
X028275Y019493D01*
X027900Y019493D02*
X028775Y020368D01*
X029025Y020368D01*
X029025Y020743D02*
X028400Y020743D01*
X027775Y020118D01*
X027525Y020368D02*
X027525Y019368D01*
X027525Y020368D02*
X028150Y020993D01*
X028650Y020993D01*
X029275Y021993D02*
X029900Y021368D01*
X029275Y021993D02*
X029275Y022368D01*
X028525Y024618D02*
X026275Y022368D01*
X025775Y022368D01*
X025400Y021993D01*
X025400Y020118D01*
X024650Y019368D01*
X024650Y018743D01*
X025100Y018743D01*
X025150Y018693D01*
X026025Y017493D02*
X023650Y017493D01*
X032400Y024243D02*
X032400Y024493D01*
X032150Y024743D01*
X032100Y024743D01*
X032700Y024743D02*
X033150Y024743D01*
X034150Y023743D01*
X034150Y022993D01*
X034400Y022493D02*
X034400Y023743D01*
X033400Y024743D01*
X033400Y024868D01*
X033150Y025118D01*
X033525Y025118D02*
X033775Y024868D01*
X033775Y024618D01*
X034650Y023743D01*
X034650Y021993D01*
X034275Y020993D02*
X034275Y020543D01*
X034275Y019943D02*
X034275Y019618D01*
X034525Y019368D01*
X033525Y019618D02*
X033525Y019943D01*
X033525Y019618D02*
X033275Y019368D01*
X033150Y019368D01*
X033525Y020543D02*
X033525Y020993D01*
X030400Y024618D02*
X028525Y024618D01*
X031650Y025493D02*
X032100Y025493D01*
X039150Y022993D02*
X039600Y022993D01*
X039600Y022243D01*
X040200Y022243D02*
X040650Y022243D01*
X040650Y022993D02*
X040200Y022993D01*
X055650Y032493D02*
X056650Y031493D01*
X056650Y029493D01*
X057025Y029118D01*
X057025Y025743D01*
X057650Y025118D01*
X058650Y027868D02*
X059650Y027868D01*
X060275Y028243D02*
X058400Y028243D01*
X058150Y028493D02*
X058025Y028368D01*
X058150Y028493D02*
X060525Y028493D01*
X060775Y028243D01*
X061150Y028743D02*
X061400Y028493D01*
X061150Y028743D02*
X057775Y028743D01*
X057650Y028618D01*
X057400Y028993D02*
X061650Y028993D01*
X062525Y028118D01*
X062900Y028118D02*
X061775Y029243D01*
X059650Y029243D01*
X058900Y029993D01*
X059275Y030118D02*
X059400Y029993D01*
X061400Y029993D01*
X062900Y028493D01*
X063400Y028493D02*
X061650Y030243D01*
X059650Y030243D01*
X059025Y029368D02*
X057400Y029368D01*
X038150Y006868D02*
X035400Y006868D01*
X038150Y006868D02*
X039150Y005868D01*
D34*
X040650Y004618D03*
X042150Y004618D03*
X043150Y004993D03*
X044900Y004618D03*
X043150Y007118D03*
X042275Y008618D03*
X042025Y009868D03*
X043275Y011493D03*
X043025Y011868D03*
X042775Y012243D03*
X042525Y012743D03*
X042025Y012743D03*
X041275Y012868D03*
X040775Y012868D03*
X039525Y012868D03*
X038400Y012868D03*
X037900Y012868D03*
X035900Y012493D03*
X035525Y012243D03*
X035900Y011993D03*
X035525Y011743D03*
X035900Y011493D03*
X035525Y011243D03*
X035900Y010993D03*
X035525Y010743D03*
X035525Y012868D03*
X034150Y014118D03*
X034150Y014493D03*
X033400Y015493D03*
X033025Y015493D03*
X032525Y015743D03*
X032150Y016993D03*
X031900Y018118D03*
X031900Y018493D03*
X031650Y018868D03*
X030525Y018868D03*
X029900Y018618D03*
X028900Y018493D03*
X028775Y017493D03*
X027025Y018243D03*
X026400Y018618D03*
X026025Y017493D03*
X024650Y018743D03*
X024025Y018743D03*
X023650Y018743D03*
X023025Y019243D03*
X023025Y019743D03*
X023025Y021243D03*
X023025Y021618D03*
X023400Y021868D03*
X023775Y021618D03*
X024150Y021868D03*
X025900Y020368D03*
X026275Y021743D03*
X026400Y023118D03*
X027400Y024368D03*
X029150Y023493D03*
X029650Y023743D03*
X029775Y023243D03*
X030525Y023368D03*
X031650Y023368D03*
X031650Y024243D03*
X030400Y024618D03*
X030525Y025743D03*
X031650Y025493D03*
X031650Y026243D03*
X032900Y027368D03*
X034275Y027118D03*
X034900Y027118D03*
X035400Y027118D03*
X036650Y026993D03*
X038275Y026993D03*
X039400Y026930D03*
X040025Y025868D03*
X040650Y025368D03*
X040650Y024368D03*
X040650Y023993D03*
X040275Y023743D03*
X040650Y023493D03*
X040650Y022993D03*
X040650Y022243D03*
X040650Y021868D03*
X040650Y021368D03*
X041775Y021618D03*
X042525Y022493D03*
X042775Y022868D03*
X043025Y023118D03*
X043275Y023493D03*
X041775Y024118D03*
X041775Y024493D03*
X042275Y024868D03*
X042900Y025618D03*
X042525Y025868D03*
X042275Y026368D03*
X041900Y026868D03*
X041900Y027618D03*
X043275Y026118D03*
X043650Y025868D03*
X043900Y027118D03*
X045150Y026618D03*
X045650Y026618D03*
X045650Y025368D03*
X045150Y025368D03*
X047400Y027118D03*
X047775Y027368D03*
X049150Y025868D03*
X049150Y025493D03*
X049150Y025118D03*
X050650Y025118D03*
X050650Y025868D03*
X050650Y027368D03*
X050650Y028868D03*
X051025Y028868D03*
X051400Y028868D03*
X051775Y028868D03*
X052400Y028868D03*
X052900Y028868D03*
X053400Y028868D03*
X054525Y028868D03*
X054900Y028868D03*
X053650Y027368D03*
X053150Y026618D03*
X054650Y026618D03*
X056150Y026618D03*
X056150Y027368D03*
X057400Y026368D03*
X057900Y026368D03*
X058275Y025993D03*
X057650Y025493D03*
X057650Y025118D03*
X057650Y024743D03*
X058025Y024743D03*
X058025Y024368D03*
X057900Y022618D03*
X057400Y022243D03*
X056150Y021993D03*
X056150Y022618D03*
X056150Y023493D03*
X054650Y022618D03*
X054775Y021868D03*
X054400Y021868D03*
X054025Y021868D03*
X053650Y021868D03*
X053275Y021868D03*
X052900Y021868D03*
X051775Y021868D03*
X051400Y021868D03*
X051025Y021868D03*
X050650Y021868D03*
X050275Y021868D03*
X049900Y021868D03*
X049525Y020618D03*
X049150Y020243D03*
X049900Y020243D03*
X050275Y020243D03*
X050900Y020243D03*
X051150Y019993D03*
X051400Y019743D03*
X050775Y018868D03*
X052650Y018868D03*
X053900Y020118D03*
X054525Y018868D03*
X055150Y021868D03*
X055525Y021868D03*
X052900Y023368D03*
X053900Y024118D03*
X053900Y024493D03*
X054525Y024993D03*
X054400Y025368D03*
X051400Y023368D03*
X049650Y023493D03*
X049150Y022993D03*
X047900Y022993D03*
X047900Y022618D03*
X047900Y022243D03*
X047900Y021868D03*
X048150Y021493D03*
X046150Y022618D03*
X043525Y020868D03*
X041775Y019368D03*
X040650Y018993D03*
X039900Y019243D03*
X040650Y017368D03*
X039775Y016868D03*
X041025Y016618D03*
X040775Y015993D03*
X040400Y014993D03*
X040025Y014743D03*
X040025Y014118D03*
X041025Y014493D03*
X043525Y012743D03*
X043775Y012243D03*
X044025Y011618D03*
X044275Y010993D03*
X044525Y010368D03*
X044775Y009493D03*
X044525Y008243D03*
X046900Y011368D03*
X046650Y011743D03*
X044775Y014493D03*
X046900Y016493D03*
X047150Y016868D03*
X047400Y017243D03*
X047650Y017618D03*
X046650Y018243D03*
X046400Y017868D03*
X046150Y017493D03*
X044525Y016993D03*
X044275Y017743D03*
X044025Y018493D03*
X043775Y019243D03*
X041775Y017243D03*
X037775Y015743D03*
X038025Y015118D03*
X037525Y015118D03*
X037025Y015118D03*
X036650Y015118D03*
X036150Y015118D03*
X035525Y015743D03*
X035150Y016868D03*
X035900Y016868D03*
X036275Y016868D03*
X036650Y016868D03*
X037025Y016868D03*
X037400Y016868D03*
X036650Y018493D03*
X034525Y019368D03*
X033900Y019368D03*
X033150Y019368D03*
X033525Y020993D03*
X033150Y021368D03*
X034275Y020993D03*
X034650Y021993D03*
X034400Y022493D03*
X034150Y022993D03*
X032400Y024243D03*
X033150Y024743D03*
X033150Y025118D03*
X033525Y025118D03*
X034525Y025868D03*
X035650Y025868D03*
X036900Y025118D03*
X037275Y025868D03*
X039025Y025118D03*
X039525Y024243D03*
X039900Y023993D03*
X039150Y022993D03*
X031650Y021493D03*
X030525Y022243D03*
X030150Y021868D03*
X029650Y021243D03*
X029025Y020743D03*
X029025Y020368D03*
X029150Y019993D03*
X029400Y019743D03*
X028650Y019493D03*
X028275Y019493D03*
X027900Y019493D03*
X027525Y019368D03*
X027525Y018993D03*
X027775Y020118D03*
X028650Y020993D03*
X029275Y022368D03*
X030589Y020555D03*
X033650Y016868D03*
X030400Y014743D03*
X030650Y014368D03*
X028650Y012993D03*
X027400Y013368D03*
X026900Y012118D03*
X027150Y010868D03*
X025275Y011993D03*
X029400Y011618D03*
X032400Y007868D03*
X035400Y006868D03*
X036775Y008243D03*
X037650Y008618D03*
X038775Y008243D03*
X039525Y008618D03*
X040400Y008243D03*
X050650Y011868D03*
X051150Y012368D03*
X053900Y014618D03*
X054650Y014868D03*
X055775Y012618D03*
X057150Y012618D03*
X057525Y011993D03*
X059150Y012618D03*
X059650Y012618D03*
X060650Y012618D03*
X061775Y014868D03*
X064900Y014868D03*
X064900Y017868D03*
X064650Y018743D03*
X064775Y019243D03*
X064900Y019743D03*
X062400Y020493D03*
X062400Y020993D03*
X061900Y020868D03*
X060400Y020868D03*
X060400Y019993D03*
X059775Y019743D03*
X059150Y019493D03*
X058525Y019243D03*
X061400Y022493D03*
X061900Y022493D03*
X062275Y022618D03*
X060775Y024118D03*
X061150Y024493D03*
X060525Y024743D03*
X060025Y025618D03*
X059525Y025618D03*
X058650Y026868D03*
X058150Y027368D03*
X058650Y027868D03*
X058400Y028243D03*
X058025Y028368D03*
X057650Y028618D03*
X057400Y028993D03*
X057400Y029368D03*
X059025Y029368D03*
X058900Y029993D03*
X059275Y030118D03*
X059650Y030243D03*
X060150Y029743D03*
X061400Y028493D03*
X061900Y028368D03*
X062525Y028118D03*
X062900Y028118D03*
X062900Y028493D03*
X063400Y028493D03*
X064150Y028493D03*
X061900Y026868D03*
X060775Y028243D03*
X060275Y028243D03*
X059650Y027868D03*
X054900Y031868D03*
X053900Y031868D03*
X053525Y031868D03*
X052400Y030368D03*
X052025Y030368D03*
X050900Y030118D03*
X049650Y030243D03*
X048900Y030118D03*
X048650Y029368D03*
X048275Y029118D03*
X047900Y029493D03*
X047525Y029743D03*
X047525Y030243D03*
X048900Y031618D03*
X048150Y033118D03*
X048150Y034618D03*
X048900Y034618D03*
X049650Y035868D03*
X050150Y036618D03*
X049650Y037118D03*
X049900Y037618D03*
X048400Y037618D03*
X047775Y037368D03*
X047150Y037368D03*
X046900Y038118D03*
X045650Y037868D03*
X044900Y037618D03*
X043900Y036868D03*
X045650Y036618D03*
X045650Y034618D03*
X046150Y034118D03*
X043400Y032368D03*
X042900Y032868D03*
X042650Y035118D03*
X038775Y034868D03*
X038775Y035868D03*
X042900Y039118D03*
X043400Y039118D03*
X044900Y038368D03*
X043150Y040368D03*
X050400Y035118D03*
X051400Y034368D03*
X051275Y032493D03*
X050775Y032243D03*
X049900Y028868D03*
X045775Y028493D03*
X041150Y030118D03*
X039025Y030868D03*
X035900Y031993D03*
X035150Y031993D03*
X033150Y031243D03*
X031900Y030368D03*
X031900Y029118D03*
X030900Y029118D03*
X029900Y027618D03*
X027900Y029618D03*
X027900Y030368D03*
X027150Y032368D03*
X026150Y032368D03*
X024400Y032118D03*
X024400Y032618D03*
X022775Y033993D03*
X021900Y033618D03*
X021650Y032368D03*
X020650Y032368D03*
X018900Y032118D03*
X018900Y032618D03*
X019400Y034368D03*
X021400Y035618D03*
X024900Y034368D03*
X026900Y035618D03*
X027400Y033618D03*
X028275Y033993D03*
X024900Y030368D03*
X023900Y029868D03*
X023400Y028868D03*
X023775Y028618D03*
X023025Y028368D03*
X022650Y028118D03*
X024400Y027868D03*
X024400Y027368D03*
X024150Y027118D03*
X025150Y027618D03*
X022400Y029618D03*
X022400Y030368D03*
X019400Y030368D03*
X016150Y031868D03*
X014900Y032118D03*
X013900Y032618D03*
X012275Y032618D03*
X012275Y032118D03*
X011650Y029993D03*
X012650Y029243D03*
X014650Y028118D03*
X015150Y028368D03*
X016650Y026618D03*
X017150Y026618D03*
X017650Y026618D03*
X018150Y026368D03*
X018775Y025618D03*
X018775Y024118D03*
X019650Y022993D03*
X020900Y023118D03*
X021650Y022618D03*
X022275Y023368D03*
X017525Y021993D03*
X017525Y021493D03*
X017525Y020493D03*
X017025Y020493D03*
X016150Y021368D03*
X014150Y021868D03*
X012650Y020993D03*
X012150Y020243D03*
X011650Y020243D03*
X010900Y020993D03*
X010025Y020743D03*
X008400Y019368D03*
X007150Y017368D03*
X006150Y017368D03*
X005900Y016118D03*
X005025Y015743D03*
X006400Y014118D03*
X008400Y015368D03*
X009400Y015868D03*
X011650Y015493D03*
X012650Y014743D03*
X012275Y017618D03*
X012275Y018118D03*
X013900Y018118D03*
X014900Y017618D03*
X016150Y017368D03*
X016900Y017618D03*
X016525Y015868D03*
X015525Y019243D03*
X018400Y019743D03*
X018650Y019493D03*
X018900Y019243D03*
X019150Y018993D03*
X020900Y017493D03*
X023650Y017493D03*
X028025Y016118D03*
X017400Y008368D03*
X017400Y006118D03*
X017400Y004618D03*
X019275Y005368D03*
X021025Y005368D03*
X021650Y005368D03*
X021650Y004618D03*
X021650Y003868D03*
X005400Y019368D03*
X005400Y020118D03*
X006400Y021618D03*
X008400Y022868D03*
X009400Y023368D03*
X007150Y024868D03*
X006150Y024868D03*
X005900Y023618D03*
X005025Y023243D03*
X005400Y026868D03*
X005400Y027618D03*
X005650Y029243D03*
X004650Y029993D03*
X007650Y028118D03*
X008150Y028368D03*
X008400Y026868D03*
X009150Y031868D03*
X007900Y032118D03*
X006900Y032618D03*
X005275Y032618D03*
X005275Y032118D03*
X005150Y034743D03*
X004650Y034743D03*
X005650Y035493D03*
X007400Y036618D03*
X007900Y036368D03*
X009150Y035868D03*
X008525Y033743D03*
X011650Y034743D03*
X012150Y034743D03*
X012650Y035493D03*
X014400Y036618D03*
X014900Y036368D03*
X016150Y035868D03*
X015525Y033743D03*
X029275Y024993D03*
X048650Y019118D03*
X051650Y007618D03*
X053150Y005618D03*
X051150Y003868D03*
X066900Y036868D03*
X065400Y039368D03*
X063650Y038618D03*
X067150Y042618D03*
X066150Y043368D03*
X065400Y045618D03*
X057400Y041618D03*
D35*
X050150Y036618D02*
X050150Y030868D01*
X050900Y030118D01*
X051400Y030118D02*
X050400Y031118D01*
X050400Y035118D01*
X049650Y035868D02*
X049650Y030243D01*
X048900Y030118D02*
X048900Y030568D01*
X048150Y030568D01*
X048150Y031168D02*
X048900Y031168D01*
X048900Y031618D01*
X048150Y033118D02*
X048150Y033568D01*
X048900Y033568D01*
X048150Y034168D02*
X048100Y034118D01*
X048150Y034618D02*
X046900Y034618D01*
X045150Y036368D01*
X045150Y041118D01*
X042900Y043368D01*
X042900Y045134D01*
X043583Y045817D01*
X043583Y043652D02*
X043650Y043618D01*
X045400Y041868D01*
X045400Y036368D01*
X046900Y034868D01*
X048650Y034868D01*
X048900Y034618D01*
X046400Y033868D02*
X046150Y034118D01*
X046400Y033868D02*
X046400Y023868D01*
X045775Y023243D01*
X045775Y022368D01*
X046275Y021868D01*
X046600Y021868D01*
X046600Y021118D02*
X046525Y021118D01*
X045525Y022118D01*
X045525Y023368D01*
X046150Y023993D01*
X046150Y033618D01*
X045650Y034118D01*
X045650Y034618D01*
X048400Y037618D02*
X048400Y038118D01*
X048775Y038493D01*
X048775Y038793D01*
X048850Y038868D01*
X049900Y037618D02*
X049900Y028868D01*
X051400Y028868D02*
X051400Y030118D01*
X053650Y028418D02*
X053650Y028368D01*
X054900Y028868D02*
X054900Y030568D01*
X055650Y030568D01*
X055650Y031168D02*
X054900Y031168D01*
X054900Y031868D01*
X055025Y028118D02*
X055100Y028118D01*
X053575Y026618D02*
X053650Y026543D01*
X053150Y026618D02*
X053075Y026543D01*
X053600Y025943D02*
X053650Y025943D01*
X054025Y025368D02*
X052150Y023493D01*
X052150Y021618D01*
X051650Y021118D01*
X051650Y018918D01*
X051600Y018868D01*
X050775Y018868D01*
X051900Y019743D02*
X052275Y019368D01*
X053200Y019368D01*
X053700Y018868D01*
X054525Y018868D01*
X053100Y018868D02*
X052650Y018868D01*
X052200Y018868D01*
X051900Y019743D02*
X051900Y021118D01*
X052400Y021618D01*
X052400Y023368D01*
X054025Y024993D01*
X054525Y024993D01*
X054400Y025368D02*
X054025Y025368D01*
X050650Y025118D02*
X050200Y025118D01*
X049600Y025118D02*
X049150Y025118D01*
X049150Y025868D02*
X049600Y025868D01*
X050200Y025868D02*
X050650Y025868D01*
X049650Y024368D02*
X049600Y024368D01*
X047900Y022618D02*
X047200Y022618D01*
X047200Y023368D01*
X046600Y023368D02*
X046600Y022618D01*
X046150Y022618D01*
X052350Y020293D02*
X052400Y020243D01*
X053400Y020243D02*
X053525Y020118D01*
D36*
X053900Y020118D01*
X052900Y020868D02*
X052900Y021868D01*
X052900Y022318D01*
X053650Y022318D01*
X054650Y022618D02*
X055100Y022618D01*
X055100Y023368D01*
X055700Y023368D02*
X055700Y022618D01*
X056150Y022618D01*
X053650Y022918D02*
X052900Y022918D01*
X052900Y023368D01*
X051900Y022618D02*
X051600Y022318D01*
X051400Y022318D01*
X050650Y022318D01*
X049725Y022318D01*
X048775Y021368D01*
X048775Y022368D02*
X049275Y022368D01*
X049825Y022918D01*
X050650Y022918D01*
X051400Y022918D01*
X051400Y023368D01*
X051900Y022618D02*
X051900Y024243D01*
X053600Y025943D01*
X053575Y026618D02*
X053150Y026618D01*
X053650Y027368D02*
X053650Y027818D01*
X052900Y027818D01*
X052150Y027818D01*
X052150Y028418D02*
X052900Y028418D01*
X052900Y028868D01*
X052900Y029198D01*
X053275Y029573D01*
X053275Y029618D01*
X052275Y029618D02*
X052275Y028993D01*
X052400Y028868D01*
X053400Y028868D02*
X053400Y028618D01*
X053650Y028418D01*
X054400Y028418D01*
X054725Y028418D01*
X055025Y028118D01*
X054900Y027743D02*
X054775Y027618D01*
X054775Y027368D01*
X054400Y026993D01*
X050525Y026993D01*
X050275Y027243D01*
X049600Y027243D01*
X049600Y026618D01*
X049600Y025868D01*
X049600Y025118D01*
X049600Y024368D01*
X050200Y024368D02*
X050200Y025118D01*
X050200Y025868D01*
X050200Y026618D01*
X049600Y027243D02*
X049600Y028118D01*
X049900Y028418D01*
X050650Y028418D01*
X050650Y028868D01*
X050650Y027818D02*
X049900Y027818D01*
X050650Y027818D02*
X050650Y027368D01*
X053650Y027818D02*
X054400Y027818D01*
X054900Y027743D02*
X055700Y027743D01*
X055700Y028118D01*
X055700Y027743D02*
X055700Y027368D01*
X055700Y026618D01*
X055700Y025868D01*
X055700Y025443D01*
X056150Y024993D01*
X055150Y024993D02*
X055100Y025043D01*
X055100Y025868D01*
X055100Y026618D01*
X054650Y026618D01*
X055100Y026618D02*
X055100Y027368D01*
X055700Y027368D02*
X056150Y027368D01*
X058150Y027368D02*
X060400Y027368D01*
X061400Y026368D01*
X062900Y026368D01*
X065150Y028618D01*
X065150Y031118D01*
X064400Y031868D01*
X064400Y039868D01*
X063400Y040868D01*
X062650Y040868D01*
X062150Y041368D01*
X062158Y041368D01*
X063142Y041368D02*
X063150Y041368D01*
X063650Y041868D01*
X064100Y041868D01*
X064150Y041918D01*
X064700Y041918D01*
X065150Y042368D01*
X065150Y042642D01*
X064150Y041318D02*
X064650Y040818D01*
X064650Y032118D01*
X065400Y031368D01*
X065400Y028368D01*
X063150Y026118D01*
X061150Y026118D01*
X060400Y026868D01*
X058650Y026868D01*
X061900Y026868D02*
X061900Y027318D01*
X061900Y027918D02*
X061900Y028368D01*
X061900Y020868D02*
X061450Y020868D01*
X060850Y020868D02*
X060400Y020868D01*
X052900Y020868D02*
X052350Y020318D01*
X052350Y020293D01*
X051400Y021868D02*
X051400Y022318D01*
X041775Y019368D02*
X041525Y019618D01*
X040200Y019618D01*
X040275Y019493D01*
X040275Y018831D01*
X040005Y018561D01*
X040050Y018643D01*
X040005Y018561D02*
X039900Y018368D01*
X039900Y019243D02*
X039600Y019543D01*
X039600Y019618D01*
X039275Y019618D01*
X038900Y019243D01*
X038900Y018368D01*
X039600Y019618D02*
X039600Y020368D01*
X040200Y020368D02*
X040200Y019618D01*
X040200Y021118D02*
X040475Y021368D01*
X040650Y021368D01*
X040650Y021868D02*
X040400Y021868D01*
X040025Y021493D01*
X039600Y021118D01*
X036650Y018493D02*
X036650Y017918D01*
X035900Y017918D01*
X035150Y017918D01*
X034400Y017918D01*
X034400Y017318D02*
X035150Y017318D01*
X035150Y017243D01*
X035525Y016868D01*
X035525Y015743D01*
X036275Y016868D02*
X035900Y017243D01*
X035900Y017318D01*
X036650Y017318D01*
X036650Y017918D02*
X037400Y017918D01*
X037400Y017318D02*
X037450Y017318D01*
X037775Y016993D01*
X037775Y015743D01*
X037900Y013918D02*
X038225Y013918D01*
X038400Y013743D01*
X038400Y012868D01*
X037900Y012868D02*
X037900Y013318D01*
X039525Y013318D02*
X039525Y012868D01*
X039525Y013918D02*
X039575Y013918D01*
X039775Y014118D01*
X040025Y014118D01*
X040150Y009293D02*
X039820Y009293D01*
X039520Y008993D01*
X039520Y008623D01*
X039525Y008618D01*
X040150Y008693D02*
X040150Y008493D01*
X040400Y008243D01*
X038775Y008243D02*
X038525Y008493D01*
X038525Y008693D01*
X038525Y009293D02*
X038325Y009293D01*
X037650Y008618D01*
X036975Y009293D01*
X036775Y009293D01*
X036025Y009293D01*
X036025Y008693D02*
X036775Y008693D01*
X036775Y008243D01*
X044275Y008493D02*
X044525Y008243D01*
X044275Y008493D02*
X044275Y008693D01*
X044275Y009293D02*
X044575Y009293D01*
X044775Y009493D01*
X050650Y011868D02*
X050900Y011618D01*
X050900Y005118D01*
X049900Y004118D01*
X022900Y004118D01*
X021650Y005368D01*
X021650Y004618D02*
X022400Y003868D01*
X050150Y003868D01*
X051150Y004868D01*
X051150Y012368D01*
X038725Y024818D02*
X039025Y025118D01*
X038725Y024818D02*
X038650Y024818D01*
X037900Y024818D01*
X037900Y025418D02*
X037900Y025743D01*
X038275Y026118D01*
X038275Y026993D01*
X037900Y025418D02*
X038650Y025418D01*
X036900Y025118D02*
X036600Y024818D01*
X036400Y024818D01*
X035650Y024818D01*
X035650Y025418D02*
X036400Y025418D01*
X035650Y025418D02*
X035650Y025868D01*
X034525Y025868D02*
X034525Y025193D01*
X034150Y024818D01*
X034150Y025418D02*
X034150Y026993D01*
X034275Y027118D01*
X034900Y027118D02*
X034900Y031493D01*
X035150Y031743D01*
X035150Y031993D01*
X035900Y031993D02*
X035900Y031743D01*
X035400Y031243D01*
X035400Y027118D01*
X032900Y027368D02*
X032350Y026818D01*
X032150Y026818D01*
X032150Y027418D02*
X032150Y028868D01*
X031900Y029118D01*
X030900Y029118D02*
X030900Y028118D01*
X030650Y027868D01*
X030650Y027418D01*
X031400Y027418D01*
X031400Y026818D02*
X031400Y026493D01*
X031650Y026243D01*
X032025Y025868D01*
X032525Y025868D01*
X032700Y025693D01*
X032700Y025493D01*
X030650Y026818D02*
X030450Y026818D01*
X029900Y027368D01*
X029900Y027618D01*
X027900Y029618D02*
X027775Y029493D01*
X026275Y029493D01*
X025650Y030118D01*
X024900Y030368D02*
X024900Y030618D01*
X025150Y030868D01*
X026400Y030868D01*
X026650Y031118D01*
X026650Y031318D01*
X026050Y031318D02*
X026650Y031918D01*
X026150Y032368D02*
X025900Y032118D01*
X025900Y031918D01*
X026150Y032368D02*
X025900Y032618D01*
X025900Y032818D01*
X025900Y033418D02*
X025150Y032668D01*
X025150Y032618D01*
X024400Y032618D01*
X024400Y032118D02*
X025150Y032118D01*
X025150Y032068D01*
X025900Y031318D01*
X026050Y031318D01*
X026650Y030118D02*
X027650Y030118D01*
X027900Y030368D01*
X026650Y032818D02*
X026050Y033418D01*
X025900Y033418D01*
X026650Y033418D02*
X026650Y035368D01*
X026900Y035618D01*
X027025Y035993D02*
X025775Y035993D01*
X023900Y034118D01*
X023900Y033618D01*
X023900Y029868D01*
X023400Y028868D02*
X017650Y028868D01*
X017150Y029368D01*
X017150Y035743D01*
X016275Y036618D01*
X014400Y036618D01*
X014900Y036368D02*
X016150Y036368D01*
X016900Y035618D01*
X016900Y029118D01*
X017400Y028618D01*
X023775Y028618D01*
X023025Y028368D02*
X015150Y028368D01*
X014650Y028118D02*
X022650Y028118D01*
X022275Y029493D02*
X020775Y029493D01*
X020150Y030118D01*
X019400Y030368D02*
X019400Y030618D01*
X019650Y030868D01*
X020900Y030868D01*
X021150Y031118D01*
X021150Y031318D01*
X020550Y031318D02*
X021150Y031918D01*
X020650Y032368D02*
X020400Y032618D01*
X020400Y032818D01*
X020650Y032368D02*
X020400Y032118D01*
X020400Y031918D01*
X020400Y031318D02*
X019650Y032068D01*
X019650Y032118D01*
X018900Y032118D01*
X018900Y032618D02*
X019650Y032618D01*
X019650Y032668D01*
X020400Y033418D01*
X020550Y033418D01*
X021150Y032818D01*
X021150Y033418D02*
X021150Y035368D01*
X021400Y035618D01*
X021900Y033618D02*
X023900Y033618D01*
X027400Y033618D02*
X027400Y035618D01*
X027025Y035993D01*
X027650Y037368D02*
X013400Y037368D01*
X010900Y034868D01*
X010900Y031368D01*
X011400Y030868D01*
X011600Y030868D01*
X011650Y030818D01*
X011650Y029993D01*
X012650Y029693D02*
X012650Y029243D01*
X012650Y030293D02*
X012650Y031193D01*
X013400Y031943D01*
X013400Y032068D01*
X013450Y032118D01*
X014900Y032118D01*
X013900Y032618D02*
X013450Y032618D01*
X013400Y032668D01*
X012650Y032943D02*
X012650Y032993D01*
X012275Y032618D01*
X012275Y032118D02*
X012525Y031868D01*
X012650Y031793D01*
X012650Y031193D02*
X011875Y031193D01*
X011650Y031418D01*
X010150Y030118D02*
X012400Y027868D01*
X024400Y027868D01*
X024400Y027368D02*
X012150Y027368D01*
X011150Y028368D01*
X008150Y028368D01*
X007650Y028118D02*
X011025Y028118D01*
X012025Y027118D01*
X024150Y027118D01*
X025150Y027618D02*
X012275Y027618D01*
X009900Y029993D01*
X009900Y035618D01*
X009150Y036368D01*
X007900Y036368D01*
X007400Y036618D02*
X009275Y036618D01*
X010150Y035743D01*
X010150Y030118D01*
X007900Y032118D02*
X006450Y032118D01*
X006400Y032068D01*
X006400Y031943D01*
X005650Y031193D01*
X005650Y030293D01*
X005650Y029693D02*
X005650Y029243D01*
X004650Y029993D02*
X004650Y030818D01*
X004875Y031193D02*
X004650Y031418D01*
X004875Y031193D02*
X005650Y031193D01*
X005650Y031793D02*
X005525Y031868D01*
X005275Y032118D01*
X005275Y032618D02*
X005650Y032993D01*
X005650Y032943D01*
X005600Y033493D02*
X005650Y033543D01*
X005650Y034443D01*
X005450Y034443D01*
X005150Y034743D01*
X004650Y034743D02*
X004650Y033918D01*
X004650Y033318D02*
X004975Y033318D01*
X005150Y033493D01*
X005600Y033493D01*
X006400Y032668D02*
X006450Y032618D01*
X006900Y032618D01*
X005650Y035043D02*
X005650Y035493D01*
X004150Y038118D02*
X014150Y038118D01*
X016150Y040118D01*
X016365Y040118D01*
X016804Y040557D01*
X010150Y040211D02*
X010150Y039118D01*
X009650Y038618D01*
X003900Y038618D01*
X001650Y036368D01*
X001650Y023368D01*
X002150Y022868D02*
X002150Y036118D01*
X004150Y038118D01*
X003837Y039305D02*
X001400Y036868D01*
X001400Y024118D01*
X001150Y023868D01*
X001150Y021868D01*
X001650Y021368D01*
X001650Y022368D02*
X002150Y022868D01*
X004275Y020993D02*
X010900Y020993D01*
X010025Y020743D02*
X005025Y020743D01*
X002650Y018368D01*
X002650Y019368D02*
X004275Y020993D01*
X005400Y020118D02*
X005525Y020243D01*
X007025Y020243D01*
X007650Y019618D01*
X008400Y019368D02*
X008400Y019118D01*
X008150Y018868D01*
X006900Y018868D01*
X006650Y018618D01*
X006650Y018418D01*
X007250Y018418D02*
X006650Y017818D01*
X007150Y017368D02*
X007400Y017118D01*
X007400Y016918D01*
X007150Y017368D02*
X007400Y017618D01*
X007400Y017818D01*
X007400Y018418D02*
X008150Y017668D01*
X008150Y017618D01*
X009400Y017618D01*
X010525Y018743D01*
X010525Y020118D01*
X013025Y022618D01*
X016025Y022618D01*
X017025Y021618D01*
X017025Y020493D01*
X017150Y020118D02*
X017525Y020493D01*
X017150Y020118D02*
X016900Y020118D01*
X016650Y020368D01*
X016650Y021618D01*
X015900Y022368D01*
X013275Y022368D01*
X010900Y019993D01*
X010900Y018368D01*
X009650Y017118D01*
X008150Y017118D01*
X008150Y017068D01*
X007400Y016318D01*
X007250Y016318D01*
X006650Y016918D01*
X006650Y016318D02*
X006650Y014368D01*
X006400Y014118D01*
X006275Y013743D02*
X007275Y013743D01*
X009400Y015868D01*
X011650Y015493D02*
X011650Y016318D01*
X011875Y016693D02*
X011650Y016918D01*
X011875Y016693D02*
X012650Y016693D01*
X012650Y015793D01*
X012650Y016693D02*
X013400Y017443D01*
X013400Y017568D01*
X013450Y017618D01*
X014900Y017618D01*
X013900Y018118D02*
X013450Y018118D01*
X013400Y018168D01*
X012650Y018443D02*
X012650Y018493D01*
X012275Y018118D01*
X012275Y017618D02*
X012525Y017368D01*
X012650Y017293D01*
X011975Y018818D02*
X011650Y018818D01*
X011975Y018818D02*
X012150Y018993D01*
X012600Y018993D01*
X012650Y019043D01*
X012650Y019943D01*
X012450Y019943D01*
X012150Y020243D01*
X011650Y020243D02*
X011650Y019418D01*
X012650Y020543D02*
X012650Y020993D01*
X014150Y021868D02*
X016900Y019118D01*
X016900Y017618D01*
X017150Y015868D02*
X016525Y015868D01*
X017150Y015868D02*
X019650Y018368D01*
X019650Y022993D01*
X019150Y022868D02*
X019150Y018993D01*
X018900Y019243D02*
X018900Y022618D01*
X017650Y023868D01*
X017650Y026618D01*
X017150Y026618D02*
X017150Y023868D01*
X018650Y022368D01*
X018650Y019493D01*
X018400Y019743D02*
X018400Y022118D01*
X016650Y023868D01*
X016650Y026618D01*
X018150Y026368D02*
X018150Y023868D01*
X019150Y022868D01*
X017525Y021993D02*
X016400Y023118D01*
X013275Y023118D01*
X011275Y025118D01*
X008150Y025118D01*
X008150Y025168D01*
X007400Y025918D01*
X007250Y025918D01*
X006650Y025318D01*
X006650Y025918D02*
X006650Y026118D01*
X006900Y026368D01*
X008150Y026368D01*
X008400Y026618D01*
X008400Y026868D01*
X007650Y027118D02*
X007025Y027743D01*
X005525Y027743D01*
X005400Y027618D01*
X005650Y027118D02*
X005400Y026868D01*
X005650Y027118D02*
X006650Y027118D01*
X007400Y025318D02*
X007400Y025118D01*
X007150Y024868D01*
X007400Y024618D01*
X007400Y024418D01*
X007400Y023818D02*
X008150Y024568D01*
X008150Y024618D01*
X011275Y024618D01*
X013025Y022868D01*
X016150Y022868D01*
X017525Y021493D01*
X022525Y021668D02*
X022975Y021668D01*
X023025Y021618D01*
X023025Y021243D02*
X022850Y021068D01*
X022525Y021068D01*
X023764Y021629D02*
X023764Y022118D01*
X023475Y022408D01*
X023475Y022493D01*
X023475Y022443D01*
X024075Y022493D02*
X024075Y021943D01*
X024150Y021868D01*
X023775Y021618D02*
X023764Y021629D01*
X024075Y022493D02*
X024075Y022543D01*
X026275Y021743D02*
X026400Y021618D01*
X026525Y021618D01*
X026725Y021418D01*
X026775Y021418D01*
X026775Y020818D02*
X026775Y020743D01*
X026400Y020368D01*
X025900Y020368D01*
X025900Y019293D01*
X025150Y019293D01*
X025900Y018693D02*
X025975Y018618D01*
X026400Y018618D01*
X025950Y018618D02*
X025900Y018693D01*
X024025Y018743D02*
X024025Y018318D01*
X023950Y018243D01*
X023400Y018293D02*
X023400Y018493D01*
X023650Y018743D01*
X023400Y018293D02*
X023350Y018243D01*
X022900Y019118D02*
X022575Y019118D01*
X022525Y019068D01*
X022600Y019068D01*
X022900Y019118D02*
X023025Y019243D01*
X022950Y019668D02*
X022525Y019668D01*
X022950Y019668D02*
X023025Y019743D01*
X027725Y017868D02*
X027725Y016418D01*
X028025Y016118D01*
X027400Y012618D02*
X026900Y012118D01*
X027150Y011868D01*
X027150Y011668D01*
X027200Y011618D01*
X026600Y011618D02*
X026225Y011993D01*
X026400Y012168D01*
X026400Y012618D01*
X026225Y011993D02*
X025275Y011993D01*
X026375Y011393D02*
X026900Y010868D01*
X027150Y010868D01*
X032525Y015743D02*
X033150Y016368D01*
X033150Y017618D01*
X033150Y018618D02*
X033900Y019368D01*
X032700Y019868D02*
X032700Y020618D01*
X032700Y021368D01*
X033150Y021368D01*
X033400Y021618D01*
X033400Y022618D01*
X033550Y022643D01*
X033400Y022868D01*
X032400Y022868D02*
X031025Y022868D01*
X030525Y023368D01*
X031650Y021493D02*
X031775Y021493D01*
X031900Y021368D01*
X032100Y021368D01*
X032100Y020618D02*
X032100Y019868D01*
X032100Y020618D02*
X030652Y020618D01*
X030589Y020555D01*
X022275Y029493D02*
X022400Y029618D01*
X022150Y030118D02*
X021150Y030118D01*
X022150Y030118D02*
X022400Y030368D01*
X020550Y031318D02*
X020400Y031318D01*
X012650Y033543D02*
X012650Y034443D01*
X012450Y034443D01*
X012150Y034743D01*
X011650Y034743D02*
X011650Y033918D01*
X011650Y033318D02*
X011975Y033318D01*
X012150Y033493D01*
X012600Y033493D01*
X012650Y033543D01*
X012650Y035043D02*
X012650Y035493D01*
X009304Y039305D02*
X003837Y039305D01*
X009804Y040557D02*
X010150Y040211D01*
X027650Y037368D02*
X029400Y039118D01*
X029400Y039868D01*
X030089Y040557D01*
X030804Y040557D01*
X041150Y030118D02*
X040900Y029868D01*
X040900Y029118D01*
X039650Y029118D01*
X047150Y035868D02*
X047150Y036618D01*
X047350Y036818D01*
X047350Y036868D01*
X047350Y037168D01*
X047150Y037368D01*
X047775Y037368D02*
X047775Y037743D01*
X047950Y037918D01*
X047950Y038118D01*
X047950Y038193D01*
X047400Y038743D01*
X047350Y038968D01*
X047350Y038868D01*
X047950Y038868D02*
X048850Y038868D01*
X049400Y038868D02*
X049450Y038868D01*
X049900Y038868D01*
X052150Y041118D01*
X052150Y041506D01*
X052158Y041514D01*
X047350Y038118D02*
X046900Y038118D01*
X047775Y037368D02*
X047950Y037193D01*
X047950Y036868D01*
X047950Y036818D01*
X048150Y036618D01*
X048150Y035868D01*
X062150Y042360D02*
X062158Y042353D01*
X062150Y042360D02*
X062150Y042868D01*
X062350Y043068D01*
X062350Y043368D01*
X062950Y043368D02*
X062950Y043068D01*
X063150Y042868D01*
X063150Y042360D01*
X063142Y042353D01*
X012650Y015193D02*
X012650Y014743D01*
X007400Y018418D02*
X007250Y018418D01*
X006650Y019618D02*
X005650Y019618D01*
X005400Y019368D01*
X006275Y021243D02*
X007275Y021243D01*
X009400Y023368D01*
X007400Y023818D02*
X007250Y023818D01*
X006650Y024418D01*
X006650Y023818D02*
X006650Y021868D01*
X006400Y021618D01*
X006275Y021243D02*
X005900Y021618D01*
X005900Y023618D01*
X005900Y016118D02*
X005900Y014118D01*
X006275Y013743D01*
D37*
X051900Y032868D03*
X052900Y032868D03*
X053900Y032868D03*
X057650Y034868D03*
X055400Y036368D03*
X055150Y039368D03*
X055150Y039868D03*
X055150Y040368D03*
X052650Y039618D03*
X051650Y039618D03*
X060150Y034868D03*
X060150Y033868D03*
X063150Y032368D03*
D38*
X065400Y032118D03*
X044900Y033118D03*
X043650Y031618D03*
X043650Y030368D03*
X044400Y035868D03*
X036400Y035868D03*
X036400Y037118D03*
X035900Y027868D03*
D39*
X051650Y038743D02*
X051650Y039618D01*
X052650Y039618D02*
X052650Y038743D01*
X055400Y038368D02*
X055400Y036368D01*
X055400Y035368D01*
X055400Y034118D01*
X056400Y034118D02*
X056400Y035368D01*
X057150Y035368D01*
X057650Y034868D01*
X060150Y033868D02*
X061400Y035118D01*
X061400Y036118D01*
X062025Y036743D01*
X063150Y036743D01*
X065400Y039368D02*
X065150Y039618D01*
X065150Y040595D01*
X067400Y041918D02*
X067400Y042368D01*
X067150Y042618D01*
X066674Y042618D01*
X066650Y042642D01*
X066650Y043368D01*
X066900Y043618D01*
X066900Y044368D01*
X066150Y043368D02*
X066150Y042642D01*
X065650Y042642D02*
X065650Y043618D01*
X064900Y044368D01*
X064900Y045118D01*
X065400Y045618D01*
X059900Y040618D02*
X058650Y041868D01*
X057400Y041618D02*
X057400Y040368D01*
X057275Y040243D01*
X055400Y038368D01*
X057275Y039868D02*
X057275Y040243D01*
X059900Y040493D02*
X060025Y039868D01*
X059900Y040493D02*
X059900Y040618D01*
X063150Y033993D02*
X063150Y032368D01*
X065400Y032118D02*
X067650Y029868D01*
X067650Y014868D01*
X066650Y013868D01*
D40*
X066150Y013368D01*
X066150Y009868D01*
X059900Y003618D01*
X051400Y003618D01*
X051150Y003868D01*
X026600Y011618D02*
X026375Y011393D01*
X025350Y010368D01*
X024525Y010368D01*
X020275Y006118D01*
X021025Y005368D01*
X021025Y004493D01*
X021650Y003868D01*
X020275Y006118D02*
X017400Y006118D01*
X040900Y028118D02*
X041900Y027618D01*
X040900Y028118D02*
X039650Y028118D01*
X057275Y040243D02*
X059150Y038368D01*
X060850Y038368D01*
X061450Y038368D02*
X062350Y038368D01*
X062400Y038418D01*
X062400Y039118D01*
X063150Y039868D01*
X063150Y040376D01*
X063142Y040384D01*
X063650Y038618D02*
X063400Y038368D01*
X062950Y038368D01*
X066650Y040595D02*
X066650Y040868D01*
X067025Y041243D01*
X067325Y041243D01*
X067400Y041318D01*
M02*
