%
M48
M72
T01C0.0150
T02C0.0236
T03C0.0315
T04C0.0354
T05C0.0394
T06C0.0400
T07C0.0591
T08C0.0866
T09C0.1200
%
T01
X11850Y4600
X7100Y9850
X4100Y9600
X3350Y12350
X5100Y15350
X4225Y16225
X4600Y16350
X5975Y16225
X10350Y16850
X11475Y16100
X13350Y14600
X14850Y14600
X17975Y16100
X20100Y17100
X22225Y18350
X22600Y17850
X24475Y16100
X22850Y15600
X23100Y14850
X19850Y14600
X16100Y17850
X15725Y18350
X13600Y20100
X13600Y21600
X16100Y23350
X17600Y22725
X18850Y21600
X18850Y20600
X20600Y20100
X22600Y20850
X23100Y21350
X22600Y22850
X23100Y23350
X21600Y23100
X21600Y24600
X23100Y26100
X20100Y27600
X19600Y26350
X19100Y25850
X18100Y25350
X17350Y25350
X17100Y26475
X15850Y27350
X15600Y26850
X13600Y26600
X13600Y25100
X10850Y26600
X10350Y26100
X5100Y28850
X4600Y29600
X6100Y30100
X7850Y32600
X10350Y33600
X8600Y34100
X4850Y36100
X16100Y28850
X16600Y28850
X17100Y29850
X20100Y31350
X18600Y27350
X25600Y22725
X26100Y25350
X26850Y25850
X26350Y26350
X26769Y27019
X27600Y26350
X27600Y27975
X26350Y27975
X29600Y24600
X31100Y25850
X32850Y26850
X34850Y24850
X39100Y25350
X39850Y23850
X41600Y22100
X43100Y22850
X43100Y24850
X44100Y25350
X45350Y27600
X49100Y25350
X48100Y24350
X48100Y22850
X53100Y22850
X53100Y23850
X54100Y25350
X55350Y27600
X50350Y27600
X40350Y27600
X30600Y22850
X29600Y23100
X28725Y18350
X29100Y17850
X26600Y17100
X29350Y15600
X29600Y14850
X28600Y13600
X26350Y14600
X32475Y16100
X33600Y15600
X34850Y15350
X36100Y13350
X38100Y14350
X41350Y15600
X38850Y18600
X39600Y20100
X36850Y20600
X47100Y13850
X46600Y13350
X46100Y12850
X45600Y12350
X45100Y11850
X44600Y11350
X44100Y10850
X41850Y8850
X41850Y7850
X42850Y7100
X42350Y6350
X42850Y5100
X42850Y4100
X40850Y5100
X38100Y5600
X35850Y4600
X34600Y8350
X35100Y8850
X34600Y10600
X34600Y11350
X33600Y13100
X32350Y10850
X27850Y4600
X19850Y4600
X8850Y12350
X10350Y18350
X8350Y20350
X9100Y21600
X9350Y22100
X7100Y22600
X6350Y21600
X5350Y20850
X3600Y20350
X4100Y19100
X5350Y22600
X4850Y22850
X3350Y24600
X46600Y8350
X47100Y8850
X47600Y9350
X48100Y9850
X48600Y10350
X49100Y10850
X49600Y11350
X51100Y12350
X56100Y11850
X56100Y14850
X56600Y15350
X57100Y15350
X57600Y15350
X58100Y15350
X55350Y15600
X51600Y19100
X63850Y10100
X64350Y10100
X66600Y11100
X67850Y11100
X66600Y13100
X64350Y8100
X65350Y7600
X67350Y4350
X62350Y3600
X58100Y7850
X57600Y7850
X57100Y7850
X56600Y7850
X48350Y3600
X67850Y19100
X64600Y36600
X63850Y37350
X63350Y38600
X64975Y38600
X61725Y38600
X60100Y38600
T02
X67600Y31600
X63350Y20350
X55850Y16600
X55350Y16600
X54850Y16600
X54350Y16600
X53850Y16600
X53350Y16600
X41850Y16600
X41350Y16600
X40850Y16600
X40350Y16600
X39850Y16600
X39350Y16600
X46350Y4600
X46850Y4600
X47350Y4600
X47850Y4600
X48350Y4600
X48850Y4600
X60350Y4600
X60850Y4600
X61350Y4600
X61850Y4600
X62350Y4600
X62850Y4600
X65100Y4350
T03
X26769Y29131
X26769Y29919
X26769Y30706
X26769Y31494
X26769Y32281
X26769Y33069
X18769Y33069
X18769Y32281
X18769Y31494
X18769Y30706
X18769Y29919
X18769Y29131
X10769Y29131
X10769Y29919
X10769Y30706
X10769Y31494
X10769Y32281
X10769Y33069
X2769Y33069
X2769Y32281
X2769Y31494
X2769Y30706
X2769Y29919
X2769Y29131
T04
X5919Y4084
X8281Y4084
X8281Y2116
X5919Y2116
X13919Y2116
X16281Y2116
X16281Y4084
X13919Y4084
X21919Y4084
X24281Y4084
X24281Y2116
X21919Y2116
X29919Y2116
X32281Y2116
X32281Y4084
X29919Y4084
X61919Y30116
X64281Y30116
X64281Y32084
X61919Y32084
T05
X7342Y37116
X6358Y37116
X6358Y38100
X7342Y38100
X7342Y39084
X6358Y39084
T06
X6600Y24600
X7600Y24600
X7600Y23600
X6600Y23600
X5600Y23600
X4600Y23600
X4600Y24600
X5600Y24600
X8600Y24600
X9600Y24600
X9600Y23600
X8600Y23600
X27600Y11100
X28600Y11100
X28600Y10100
X27600Y10100
X29600Y10100
X29600Y11100
X28600Y6850
X27600Y6850
X26600Y6850
X25600Y6850
X24600Y6850
X23600Y6850
X22600Y6850
X21600Y6850
X20600Y6850
X19600Y6850
X18600Y6850
X17600Y6850
X16600Y6850
X15600Y6850
X14600Y6850
X13600Y6850
X12600Y6850
X11600Y6850
X10600Y6850
X9600Y6850
X67350Y6600
X67350Y7600
X67350Y8600
X68350Y8600
X68350Y7600
X68350Y6600
X68350Y9600
X68350Y10600
X68350Y11600
X68350Y12600
X67350Y12600
X67350Y11600
X67350Y10600
X67350Y9600
X67350Y13600
X67350Y14600
X67350Y15600
X67350Y16600
X67350Y17600
X68350Y17600
X68350Y16600
X68350Y15600
X68350Y14600
X68350Y13600
X68350Y18600
X68350Y19600
X67350Y19600
X67350Y18600
T07
X54269Y29131
X52931Y30116
X53600Y31100
X54466Y32084
X52734Y32714
X49466Y32084
X48600Y31100
X47931Y30116
X49269Y29131
X44269Y29131
X42931Y30116
X43600Y31100
X44466Y32084
X42734Y32714
X39466Y32084
X38600Y31100
X37931Y30116
X39269Y29131
X37734Y32714
X41966Y35486
X40234Y36116
X41100Y37100
X41769Y38084
X40431Y39069
X45431Y39069
X46769Y38084
X46100Y37100
X45234Y36116
X46966Y35486
X50234Y36116
X51100Y37100
X51769Y38084
X50431Y39069
X55431Y39069
X56769Y38084
X56100Y37100
X55234Y36116
X56966Y35486
X51966Y35486
X47734Y32714
T08
X31100Y33265
X31100Y28935
X23100Y28935
X23100Y33265
X15100Y33265
X15100Y28935
X7100Y28935
X7100Y33265
T09
X2100Y2100
X2100Y26600
X2100Y42350
X35100Y31100
X39350Y42350
X58100Y31100
X68100Y42350
X68100Y2100
X39350Y2100
M30
