  0
SECTION
  2
HEADER
  9
$ACADVER
  1
AC1009
  9
$FILLMODE
 70
1
  9
$EXTMIN
 10
-0.732500
 20
-0.326835
 30
0.000000
  9
$EXTMAX
 10
14.655000
 20
7.048753
 30
0.000000
  0
ENDSEC
  0
SECTION
  2
TABLES
  0
TABLE
  2
LTYPE
 70
1
  0
LTYPE
  2
CONTINUOUS
 70
64
  3
Solid line
 72
65
 73
0
 40
0
  0
ENDTAB
  0
TABLE
  2
LAYER
 70
255
  0
LAYER
  2
184
 70
64
 62
4
  6
CONTINUOUS
  0
ENDTAB
  0
ENDSEC
  0
SECTION
  2
BLOCKS
  0
BLOCK
  8
0
  2
RECT
 70
64
 10
0.000000
 20
0.000000
 30
0.000000
  3
RECT
  0
SOLID
  8
0
 10
-0.500000
 20
-0.500000
 30
0.000000
 11
0.500000
 21
-0.500000
 31
0.000000
 12
-0.500000
 22
0.500000
 32
0.000000
 13
0.500000
 23
0.500000
 33
0.000000
  0
ENDBLK
  8
0
  0
BLOCK
  8
0
  2
PIE
 70
64
 10
0.000000
 20
0.000000
 30
0.000000
  3
PIE
  0
POLYLINE
  8
0
 66
1
 10
0.000000
 20
0.000000
 30
0.000000
 40
0.500000
 41
0.500000
 70
0
  0
VERTEX
  8
0
 10
0.000000
 20
-0.250000
 30
0.000000
 42
1.000000
  0
VERTEX
  8
0
 10
0.000000
 20
0.250000
 30
0.000000
 42
1.000000
  0
VERTEX
  8
0
 10
0.000000
 20
-0.250000
 30
0.000000
  0
SEQEND
  8
0
  0
ENDBLK
  8
0
  0
BLOCK
  8
0
  2
OCTAGONP
 70
64
 10
0.000000
 20
0.000000
 30
0.000000
  3
OCTAGONP
  0
POLYLINE
  8
0
 66
1
 10
0.000000
 20
0.000000
 30
0.000000
 40
0.500000
 41
0.500000
 70
0
  0
VERTEX
  8
0
 10
-0.250000
 20
-0.103553
 30
0.000000
  0
VERTEX
  8
0
 10
-0.250000
 20
0.103553
 30
0.000000
  0
VERTEX
  8
0
 10
-0.103553
 20
0.250000
 30
0.000000
  0
VERTEX
  8
0
 10
0.103553
 20
0.250000
 30
0.000000
  0
VERTEX
  8
0
 10
0.250000
 20
0.103553
 30
0.000000
  0
VERTEX
  8
0
 10
0.250000
 20
-0.103553
 30
0.000000
  0
VERTEX
  8
0
 10
0.103553
 20
-0.250000
 30
0.000000
  0
VERTEX
  8
0
 10
-0.103553
 20
-0.250000
 30
0.000000
  0
VERTEX
  8
0
 10
-0.250000
 20
-0.103553
 30
0.000000
  0
VERTEX
  8
0
 10
-0.250000
 20
0.103553
 30
0.000000
  0
SEQEND
  8
0
  0
ENDBLK
  8
0
  0
BLOCK
  8
0
  2
SQUAREP
 70
64
 10
0.000000
 20
0.000000
 30
0.000000
  3
SQUAREP
  0
SOLID
  8
0
 10
-0.500000
 20
-0.500000
 30
0.000000
 11
0.500000
 21
-0.500000
 31
0.000000
 12
-0.500000
 22
0.500000
 32
0.000000
 13
0.500000
 23
0.500000
 33
0.000000
  0
ENDBLK
  8
0
  0
BLOCK
  8
0
  2
ROUNDP
 70
64
 10
0.000000
 20
0.000000
 30
0.000000
  3
ROUNDP
  0
POLYLINE
  8
0
 66
1
 10
0.000000
 20
0.000000
 30
0.000000
 40
0.500000
 41
0.500000
 70
0
  0
VERTEX
  8
0
 10
0.000000
 20
-0.250000
 30
0.000000
 42
1.000000
  0
VERTEX
  8
0
 10
0.000000
 20
0.250000
 30
0.000000
 42
1.000000
  0
VERTEX
  8
0
 10
0.000000
 20
-0.250000
 30
0.000000
  0
SEQEND
  8
0
  0
ENDBLK
  8
0
  0
BLOCK
  8
0
  2
ANNULUSP
 70
64
 10
0.000000
 20
0.000000
 30
0.000000
  3
ANNULUSP
  0
POLYLINE
  8
0
 66
1
 10
0.000000
 20
0.000000
 30
0.000000
 40
0.500000
 41
0.500000
 70
0
  0
VERTEX
  8
0
 10
0.000000
 20
-0.250000
 30
0.000000
 42
1.000000
  0
VERTEX
  8
0
 10
0.000000
 20
0.250000
 30
0.000000
 42
1.000000
  0
VERTEX
  8
0
 10
0.000000
 20
-0.250000
 30
0.000000
  0
SEQEND
  8
0
  0
ENDBLK
  8
0
  0
BLOCK
  8
0
  2
THERMALP
 70
64
 10
0.000000
 20
0.000000
 30
0.000000
  3
THERMALP
  0
POLYLINE
  8
0
 66
1
 10
0.000000
 20
0.000000
 30
0.000000
 40
0.100000
 41
0.100000
 70
0
  0
VERTEX
  8
0
 10
-0.237868
 20
0.450000
 30
0.000000
  0
VERTEX
  8
0
 10
0.237868
 20
0.450000
 30
0.000000
  0
SEQEND
  8
0
  0
POLYLINE
  8
0
 66
1
 10
0.000000
 20
0.000000
 30
0.000000
 40
0.050000
 41
0.050000
 70
0
  0
VERTEX
  8
0
 10
0.237868
 20
0.425000
 30
0.000000
 42
1.000000
  0
VERTEX
  8
0
 10
0.237868
 20
0.475000
 30
0.000000
  0
SEQEND
  8
0
  0
POLYLINE
  8
0
 66
1
 10
0.000000
 20
0.000000
 30
0.000000
 40
0.050000
 41
0.050000
 70
0
  0
VERTEX
  8
0
 10
-0.237868
 20
0.475000
 30
0.000000
 42
1.000000
  0
VERTEX
  8
0
 10
-0.237868
 20
0.425000
 30
0.000000
  0
SEQEND
  8
0
  0
POLYLINE
  8
0
 66
1
 10
0.000000
 20
0.000000
 30
0.000000
 40
0.100000
 41
0.100000
 70
0
  0
VERTEX
  8
0
 10
0.450000
 20
0.237868
 30
0.000000
  0
VERTEX
  8
0
 10
0.450000
 20
-0.237868
 30
0.000000
  0
SEQEND
  8
0
  0
POLYLINE
  8
0
 66
1
 10
0.000000
 20
0.000000
 30
0.000000
 40
0.050000
 41
0.050000
 70
0
  0
VERTEX
  8
0
 10
0.425000
 20
-0.237868
 30
0.000000
 42
1.000000
  0
VERTEX
  8
0
 10
0.475000
 20
-0.237868
 30
0.000000
  0
SEQEND
  8
0
  0
POLYLINE
  8
0
 66
1
 10
0.000000
 20
0.000000
 30
0.000000
 40
0.050000
 41
0.050000
 70
0
  0
VERTEX
  8
0
 10
0.475000
 20
0.237868
 30
0.000000
 42
1.000000
  0
VERTEX
  8
0
 10
0.425000
 20
0.237868
 30
0.000000
  0
SEQEND
  8
0
  0
POLYLINE
  8
0
 66
1
 10
0.000000
 20
0.000000
 30
0.000000
 40
0.100000
 41
0.100000
 70
0
  0
VERTEX
  8
0
 10
0.237868
 20
-0.450000
 30
0.000000
  0
VERTEX
  8
0
 10
-0.237868
 20
-0.450000
 30
0.000000
  0
SEQEND
  8
0
  0
POLYLINE
  8
0
 66
1
 10
0.000000
 20
0.000000
 30
0.000000
 40
0.050000
 41
0.050000
 70
0
  0
VERTEX
  8
0
 10
-0.237868
 20
-0.425000
 30
0.000000
 42
1.000000
  0
VERTEX
  8
0
 10
-0.237868
 20
-0.475000
 30
0.000000
  0
SEQEND
  8
0
  0
POLYLINE
  8
0
 66
1
 10
0.000000
 20
0.000000
 30
0.000000
 40
0.050000
 41
0.050000
 70
0
  0
VERTEX
  8
0
 10
0.237868
 20
-0.475000
 30
0.000000
 42
1.000000
  0
VERTEX
  8
0
 10
0.237868
 20
-0.425000
 30
0.000000
  0
SEQEND
  8
0
  0
POLYLINE
  8
0
 66
1
 10
0.000000
 20
0.000000
 30
0.000000
 40
0.100000
 41
0.100000
 70
0
  0
VERTEX
  8
0
 10
-0.450000
 20
-0.237868
 30
0.000000
  0
VERTEX
  8
0
 10
-0.450000
 20
0.237868
 30
0.000000
  0
SEQEND
  8
0
  0
POLYLINE
  8
0
 66
1
 10
0.000000
 20
0.000000
 30
0.000000
 40
0.050000
 41
0.050000
 70
0
  0
VERTEX
  8
0
 10
-0.425000
 20
0.237868
 30
0.000000
 42
1.000000
  0
VERTEX
  8
0
 10
-0.475000
 20
0.237868
 30
0.000000
  0
SEQEND
  8
0
  0
POLYLINE
  8
0
 66
1
 10
0.000000
 20
0.000000
 30
0.000000
 40
0.050000
 41
0.050000
 70
0
  0
VERTEX
  8
0
 10
-0.475000
 20
-0.237868
 30
0.000000
 42
1.000000
  0
VERTEX
  8
0
 10
-0.425000
 20
-0.237868
 30
0.000000
  0
SEQEND
  8
0
  0
ENDBLK
  8
0
  0
BLOCK
  8
0
  2
OCTAGONV
 70
64
 10
0.000000
 20
0.000000
 30
0.000000
  3
OCTAGONV
  0
POLYLINE
  8
0
 66
1
 10
0.000000
 20
0.000000
 30
0.000000
 40
0.500000
 41
0.500000
 70
0
  0
VERTEX
  8
0
 10
-0.250000
 20
-0.103553
 30
0.000000
  0
VERTEX
  8
0
 10
-0.250000
 20
0.103553
 30
0.000000
  0
VERTEX
  8
0
 10
-0.103553
 20
0.250000
 30
0.000000
  0
VERTEX
  8
0
 10
0.103553
 20
0.250000
 30
0.000000
  0
VERTEX
  8
0
 10
0.250000
 20
0.103553
 30
0.000000
  0
VERTEX
  8
0
 10
0.250000
 20
-0.103553
 30
0.000000
  0
VERTEX
  8
0
 10
0.103553
 20
-0.250000
 30
0.000000
  0
VERTEX
  8
0
 10
-0.103553
 20
-0.250000
 30
0.000000
  0
VERTEX
  8
0
 10
-0.250000
 20
-0.103553
 30
0.000000
  0
VERTEX
  8
0
 10
-0.250000
 20
0.103553
 30
0.000000
  0
SEQEND
  8
0
  0
ENDBLK
  8
0
  0
BLOCK
  8
0
  2
SQUAREV
 70
64
 10
0.000000
 20
0.000000
 30
0.000000
  3
SQUAREV
  0
SOLID
  8
0
 10
-0.500000
 20
-0.500000
 30
0.000000
 11
0.500000
 21
-0.500000
 31
0.000000
 12
-0.500000
 22
0.500000
 32
0.000000
 13
0.500000
 23
0.500000
 33
0.000000
  0
ENDBLK
  8
0
  0
BLOCK
  8
0
  2
ROUNDV
 70
64
 10
0.000000
 20
0.000000
 30
0.000000
  3
ROUNDV
  0
POLYLINE
  8
0
 66
1
 10
0.000000
 20
0.000000
 30
0.000000
 40
0.500000
 41
0.500000
 70
0
  0
VERTEX
  8
0
 10
0.000000
 20
-0.250000
 30
0.000000
 42
1.000000
  0
VERTEX
  8
0
 10
0.000000
 20
0.250000
 30
0.000000
 42
1.000000
  0
VERTEX
  8
0
 10
0.000000
 20
-0.250000
 30
0.000000
  0
SEQEND
  8
0
  0
ENDBLK
  8
0
  0
BLOCK
  8
0
  2
ANNULUSV
 70
64
 10
0.000000
 20
0.000000
 30
0.000000
  3
ANNULUSV
  0
POLYLINE
  8
0
 66
1
 10
0.000000
 20
0.000000
 30
0.000000
 40
0.500000
 41
0.500000
 70
0
  0
VERTEX
  8
0
 10
0.000000
 20
-0.250000
 30
0.000000
 42
1.000000
  0
VERTEX
  8
0
 10
0.000000
 20
0.250000
 30
0.000000
 42
1.000000
  0
VERTEX
  8
0
 10
0.000000
 20
-0.250000
 30
0.000000
  0
SEQEND
  8
0
  0
ENDBLK
  8
0
  0
BLOCK
  8
0
  2
THERMALV
 70
64
 10
0.000000
 20
0.000000
 30
0.000000
  3
THERMALV
  0
POLYLINE
  8
0
 66
1
 10
0.000000
 20
0.000000
 30
0.000000
 40
0.100000
 41
0.100000
 70
0
  0
VERTEX
  8
0
 10
-0.237868
 20
0.450000
 30
0.000000
  0
VERTEX
  8
0
 10
0.237868
 20
0.450000
 30
0.000000
  0
SEQEND
  8
0
  0
POLYLINE
  8
0
 66
1
 10
0.000000
 20
0.000000
 30
0.000000
 40
0.050000
 41
0.050000
 70
0
  0
VERTEX
  8
0
 10
0.237868
 20
0.425000
 30
0.000000
 42
1.000000
  0
VERTEX
  8
0
 10
0.237868
 20
0.475000
 30
0.000000
  0
SEQEND
  8
0
  0
POLYLINE
  8
0
 66
1
 10
0.000000
 20
0.000000
 30
0.000000
 40
0.050000
 41
0.050000
 70
0
  0
VERTEX
  8
0
 10
-0.237868
 20
0.475000
 30
0.000000
 42
1.000000
  0
VERTEX
  8
0
 10
-0.237868
 20
0.425000
 30
0.000000
  0
SEQEND
  8
0
  0
POLYLINE
  8
0
 66
1
 10
0.000000
 20
0.000000
 30
0.000000
 40
0.100000
 41
0.100000
 70
0
  0
VERTEX
  8
0
 10
0.450000
 20
0.237868
 30
0.000000
  0
VERTEX
  8
0
 10
0.450000
 20
-0.237868
 30
0.000000
  0
SEQEND
  8
0
  0
POLYLINE
  8
0
 66
1
 10
0.000000
 20
0.000000
 30
0.000000
 40
0.050000
 41
0.050000
 70
0
  0
VERTEX
  8
0
 10
0.425000
 20
-0.237868
 30
0.000000
 42
1.000000
  0
VERTEX
  8
0
 10
0.475000
 20
-0.237868
 30
0.000000
  0
SEQEND
  8
0
  0
POLYLINE
  8
0
 66
1
 10
0.000000
 20
0.000000
 30
0.000000
 40
0.050000
 41
0.050000
 70
0
  0
VERTEX
  8
0
 10
0.475000
 20
0.237868
 30
0.000000
 42
1.000000
  0
VERTEX
  8
0
 10
0.425000
 20
0.237868
 30
0.000000
  0
SEQEND
  8
0
  0
POLYLINE
  8
0
 66
1
 10
0.000000
 20
0.000000
 30
0.000000
 40
0.100000
 41
0.100000
 70
0
  0
VERTEX
  8
0
 10
0.237868
 20
-0.450000
 30
0.000000
  0
VERTEX
  8
0
 10
-0.237868
 20
-0.450000
 30
0.000000
  0
SEQEND
  8
0
  0
POLYLINE
  8
0
 66
1
 10
0.000000
 20
0.000000
 30
0.000000
 40
0.050000
 41
0.050000
 70
0
  0
VERTEX
  8
0
 10
-0.237868
 20
-0.425000
 30
0.000000
 42
1.000000
  0
VERTEX
  8
0
 10
-0.237868
 20
-0.475000
 30
0.000000
  0
SEQEND
  8
0
  0
POLYLINE
  8
0
 66
1
 10
0.000000
 20
0.000000
 30
0.000000
 40
0.050000
 41
0.050000
 70
0
  0
VERTEX
  8
0
 10
0.237868
 20
-0.475000
 30
0.000000
 42
1.000000
  0
VERTEX
  8
0
 10
0.237868
 20
-0.425000
 30
0.000000
  0
SEQEND
  8
0
  0
POLYLINE
  8
0
 66
1
 10
0.000000
 20
0.000000
 30
0.000000
 40
0.100000
 41
0.100000
 70
0
  0
VERTEX
  8
0
 10
-0.450000
 20
-0.237868
 30
0.000000
  0
VERTEX
  8
0
 10
-0.450000
 20
0.237868
 30
0.000000
  0
SEQEND
  8
0
  0
POLYLINE
  8
0
 66
1
 10
0.000000
 20
0.000000
 30
0.000000
 40
0.050000
 41
0.050000
 70
0
  0
VERTEX
  8
0
 10
-0.425000
 20
0.237868
 30
0.000000
 42
1.000000
  0
VERTEX
  8
0
 10
-0.475000
 20
0.237868
 30
0.000000
  0
SEQEND
  8
0
  0
POLYLINE
  8
0
 66
1
 10
0.000000
 20
0.000000
 30
0.000000
 40
0.050000
 41
0.050000
 70
0
  0
VERTEX
  8
0
 10
-0.475000
 20
-0.237868
 30
0.000000
 42
1.000000
  0
VERTEX
  8
0
 10
-0.425000
 20
-0.237868
 30
0.000000
  0
SEQEND
  8
0
  0
ENDBLK
  8
0
  0
BLOCK
  8
0
  2
OFFSETP100
 70
64
 10
0.000000
 20
0.000000
 30
0.000000
  3
OFFSETP100
  0
POLYLINE
  8
0
 66
1
 10
0.000000
 20
0.000000
 30
0.000000
 40
1.000000
 41
1.000000
 70
0
  0
VERTEX
  8
0
 10
0.000000
 20
0.000000
 30
0.000000
  0
VERTEX
  8
0
 10
1.000000
 20
0.000000
 30
0.000000
  0
SEQEND
  8
0
  0
POLYLINE
  8
0
 66
1
 10
0.000000
 20
0.000000
 30
0.000000
 40
0.500000
 41
0.500000
 70
0
  0
VERTEX
  8
0
 10
1.000000
 20
-0.250000
 30
0.000000
 42
1.000000
  0
VERTEX
  8
0
 10
1.000000
 20
0.250000
 30
0.000000
  0
SEQEND
  8
0
  0
POLYLINE
  8
0
 66
1
 10
0.000000
 20
0.000000
 30
0.000000
 40
0.500000
 41
0.500000
 70
0
  0
VERTEX
  8
0
 10
0.000000
 20
0.250000
 30
0.000000
 42
1.000000
  0
VERTEX
  8
0
 10
0.000000
 20
-0.250000
 30
0.000000
  0
SEQEND
  8
0
  0
ENDBLK
  8
0
  0
BLOCK
  8
0
  2
LONGP100
 70
64
 10
0.000000
 20
0.000000
 30
0.000000
  3
LONGP100
  0
POLYLINE
  8
0
 66
1
 10
0.000000
 20
0.000000
 30
0.000000
 40
1.000000
 41
1.000000
 70
0
  0
VERTEX
  8
0
 10
-0.500000
 20
0.000000
 30
0.000000
  0
VERTEX
  8
0
 10
0.500000
 20
0.000000
 30
0.000000
  0
SEQEND
  8
0
  0
POLYLINE
  8
0
 66
1
 10
0.000000
 20
0.000000
 30
0.000000
 40
0.500000
 41
0.500000
 70
0
  0
VERTEX
  8
0
 10
0.500000
 20
-0.250000
 30
0.000000
 42
1.000000
  0
VERTEX
  8
0
 10
0.500000
 20
0.250000
 30
0.000000
  0
SEQEND
  8
0
  0
POLYLINE
  8
0
 66
1
 10
0.000000
 20
0.000000
 30
0.000000
 40
0.500000
 41
0.500000
 70
0
  0
VERTEX
  8
0
 10
-0.500000
 20
0.250000
 30
0.000000
 42
1.000000
  0
VERTEX
  8
0
 10
-0.500000
 20
-0.250000
 30
0.000000
  0
SEQEND
  8
0
  0
ENDBLK
  8
0
  0
ENDSEC
  0
SECTION
  2
ENTITIES
  0
POLYLINE
  8
184
 66
1
 10
0.000000
 20
0.000000
 30
0.000000
 40
0.001000
 41
0.001000
 70
0
  0
VERTEX
  8
184
 10
4.875000
 20
5.437500
 30
0.000000
  0
VERTEX
  8
184
 10
4.875000
 20
5.912500
 30
0.000000
  0
SEQEND
  8
0
  0
POLYLINE
  8
184
 66
1
 10
0.000000
 20
0.000000
 30
0.000000
 40
0.000500
 41
0.000500
 70
0
  0
VERTEX
  8
184
 10
4.875250
 20
5.912500
 30
0.000000
 42
1.000000
  0
VERTEX
  8
184
 10
4.874750
 20
5.912500
 30
0.000000
  0
SEQEND
  8
0
  0
POLYLINE
  8
184
 66
1
 10
0.000000
 20
0.000000
 30
0.000000
 40
0.000500
 41
0.000500
 70
0
  0
VERTEX
  8
184
 10
4.874750
 20
5.437500
 30
0.000000
 42
1.000000
  0
VERTEX
  8
184
 10
4.875250
 20
5.437500
 30
0.000000
  0
SEQEND
  8
0
  0
POLYLINE
  8
184
 66
1
 10
0.000000
 20
0.000000
 30
0.000000
 40
0.001000
 41
0.001000
 70
0
  0
VERTEX
  8
184
 10
4.875000
 20
5.912500
 30
0.000000
 42
0.414214
  0
VERTEX
  8
184
 10
4.862500
 20
5.925000
 30
0.000000
  0
SEQEND
  8
0
  0
POLYLINE
  8
184
 66
1
 10
0.000000
 20
0.000000
 30
0.000000
 40
0.000500
 41
0.000500
 70
0
  0
VERTEX
  8
184
 10
4.874750
 20
5.912500
 30
0.000000
 42
1.000000
  0
VERTEX
  8
184
 10
4.875250
 20
5.912500
 30
0.000000
  0
SEQEND
  8
0
  0
POLYLINE
  8
184
 66
1
 10
0.000000
 20
0.000000
 30
0.000000
 40
0.000500
 41
0.000500
 70
0
  0
VERTEX
  8
184
 10
4.862500
 20
5.925250
 30
0.000000
 42
1.000000
  0
VERTEX
  8
184
 10
4.862500
 20
5.924750
 30
0.000000
  0
SEQEND
  8
0
  0
POLYLINE
  8
184
 66
1
 10
0.000000
 20
0.000000
 30
0.000000
 40
0.001000
 41
0.001000
 70
0
  0
VERTEX
  8
184
 10
4.862500
 20
5.925000
 30
0.000000
  0
VERTEX
  8
184
 10
4.687500
 20
5.925000
 30
0.000000
  0
SEQEND
  8
0
  0
POLYLINE
  8
184
 66
1
 10
0.000000
 20
0.000000
 30
0.000000
 40
0.000500
 41
0.000500
 70
0
  0
VERTEX
  8
184
 10
4.687500
 20
5.925250
 30
0.000000
 42
1.000000
  0
VERTEX
  8
184
 10
4.687500
 20
5.924750
 30
0.000000
  0
SEQEND
  8
0
  0
POLYLINE
  8
184
 66
1
 10
0.000000
 20
0.000000
 30
0.000000
 40
0.000500
 41
0.000500
 70
0
  0
VERTEX
  8
184
 10
4.862500
 20
5.924750
 30
0.000000
 42
1.000000
  0
VERTEX
  8
184
 10
4.862500
 20
5.925250
 30
0.000000
  0
SEQEND
  8
0
  0
POLYLINE
  8
184
 66
1
 10
0.000000
 20
0.000000
 30
0.000000
 40
0.001000
 41
0.001000
 70
0
  0
VERTEX
  8
184
 10
4.687500
 20
5.925000
 30
0.000000
 42
0.414214
  0
VERTEX
  8
184
 10
4.675000
 20
5.912500
 30
0.000000
  0
SEQEND
  8
0
  0
POLYLINE
  8
184
 66
1
 10
0.000000
 20
0.000000
 30
0.000000
 40
0.000500
 41
0.000500
 70
0
  0
VERTEX
  8
184
 10
4.687500
 20
5.924750
 30
0.000000
 42
1.000000
  0
VERTEX
  8
184
 10
4.687500
 20
5.925250
 30
0.000000
  0
SEQEND
  8
0
  0
POLYLINE
  8
184
 66
1
 10
0.000000
 20
0.000000
 30
0.000000
 40
0.000500
 41
0.000500
 70
0
  0
VERTEX
  8
184
 10
4.674750
 20
5.912500
 30
0.000000
 42
1.000000
  0
VERTEX
  8
184
 10
4.675250
 20
5.912500
 30
0.000000
  0
SEQEND
  8
0
  0
POLYLINE
  8
184
 66
1
 10
0.000000
 20
0.000000
 30
0.000000
 40
0.001000
 41
0.001000
 70
0
  0
VERTEX
  8
184
 10
4.675000
 20
5.912500
 30
0.000000
  0
VERTEX
  8
184
 10
4.675000
 20
5.437500
 30
0.000000
  0
SEQEND
  8
0
  0
POLYLINE
  8
184
 66
1
 10
0.000000
 20
0.000000
 30
0.000000
 40
0.000500
 41
0.000500
 70
0
  0
VERTEX
  8
184
 10
4.674750
 20
5.437500
 30
0.000000
 42
1.000000
  0
VERTEX
  8
184
 10
4.675250
 20
5.437500
 30
0.000000
  0
SEQEND
  8
0
  0
POLYLINE
  8
184
 66
1
 10
0.000000
 20
0.000000
 30
0.000000
 40
0.000500
 41
0.000500
 70
0
  0
VERTEX
  8
184
 10
4.675250
 20
5.912500
 30
0.000000
 42
1.000000
  0
VERTEX
  8
184
 10
4.674750
 20
5.912500
 30
0.000000
  0
SEQEND
  8
0
  0
POLYLINE
  8
184
 66
1
 10
0.000000
 20
0.000000
 30
0.000000
 40
0.001000
 41
0.001000
 70
0
  0
VERTEX
  8
184
 10
4.675000
 20
5.437500
 30
0.000000
 42
0.414214
  0
VERTEX
  8
184
 10
4.687500
 20
5.425000
 30
0.000000
  0
SEQEND
  8
0
  0
POLYLINE
  8
184
 66
1
 10
0.000000
 20
0.000000
 30
0.000000
 40
0.000500
 41
0.000500
 70
0
  0
VERTEX
  8
184
 10
4.675250
 20
5.437500
 30
0.000000
 42
1.000000
  0
VERTEX
  8
184
 10
4.674750
 20
5.437500
 30
0.000000
  0
SEQEND
  8
0
  0
POLYLINE
  8
184
 66
1
 10
0.000000
 20
0.000000
 30
0.000000
 40
0.000500
 41
0.000500
 70
0
  0
VERTEX
  8
184
 10
4.687500
 20
5.424750
 30
0.000000
 42
1.000000
  0
VERTEX
  8
184
 10
4.687500
 20
5.425250
 30
0.000000
  0
SEQEND
  8
0
  0
POLYLINE
  8
184
 66
1
 10
0.000000
 20
0.000000
 30
0.000000
 40
0.001000
 41
0.001000
 70
0
  0
VERTEX
  8
184
 10
4.687500
 20
5.425000
 30
0.000000
  0
VERTEX
  8
184
 10
4.862500
 20
5.425000
 30
0.000000
  0
SEQEND
  8
0
  0
POLYLINE
  8
184
 66
1
 10
0.000000
 20
0.000000
 30
0.000000
 40
0.000500
 41
0.000500
 70
0
  0
VERTEX
  8
184
 10
4.862500
 20
5.424750
 30
0.000000
 42
1.000000
  0
VERTEX
  8
184
 10
4.862500
 20
5.425250
 30
0.000000
  0
SEQEND
  8
0
  0
POLYLINE
  8
184
 66
1
 10
0.000000
 20
0.000000
 30
0.000000
 40
0.000500
 41
0.000500
 70
0
  0
VERTEX
  8
184
 10
4.687500
 20
5.425250
 30
0.000000
 42
1.000000
  0
VERTEX
  8
184
 10
4.687500
 20
5.424750
 30
0.000000
  0
SEQEND
  8
0
  0
POLYLINE
  8
184
 66
1
 10
0.000000
 20
0.000000
 30
0.000000
 40
0.001000
 41
0.001000
 70
0
  0
VERTEX
  8
184
 10
4.862500
 20
5.425000
 30
0.000000
 42
0.414214
  0
VERTEX
  8
184
 10
4.875000
 20
5.437500
 30
0.000000
  0
SEQEND
  8
0
  0
POLYLINE
  8
184
 66
1
 10
0.000000
 20
0.000000
 30
0.000000
 40
0.000500
 41
0.000500
 70
0
  0
VERTEX
  8
184
 10
4.862500
 20
5.425250
 30
0.000000
 42
1.000000
  0
VERTEX
  8
184
 10
4.862500
 20
5.424750
 30
0.000000
  0
SEQEND
  8
0
  0
POLYLINE
  8
184
 66
1
 10
0.000000
 20
0.000000
 30
0.000000
 40
0.000500
 41
0.000500
 70
0
  0
VERTEX
  8
184
 10
4.875250
 20
5.437500
 30
0.000000
 42
1.000000
  0
VERTEX
  8
184
 10
4.874750
 20
5.437500
 30
0.000000
  0
SEQEND
  8
0
  0
POLYLINE
  8
184
 66
1
 10
0.000000
 20
0.000000
 30
0.000000
 40
0.001000
 41
0.001000
 70
0
  0
VERTEX
  8
184
 10
5.112500
 20
5.425000
 30
0.000000
  0
VERTEX
  8
184
 10
5.437500
 20
5.425000
 30
0.000000
  0
SEQEND
  8
0
  0
POLYLINE
  8
184
 66
1
 10
0.000000
 20
0.000000
 30
0.000000
 40
0.000500
 41
0.000500
 70
0
  0
VERTEX
  8
184
 10
5.437500
 20
5.424750
 30
0.000000
 42
1.000000
  0
VERTEX
  8
184
 10
5.437500
 20
5.425250
 30
0.000000
  0
SEQEND
  8
0
  0
POLYLINE
  8
184
 66
1
 10
0.000000
 20
0.000000
 30
0.000000
 40
0.000500
 41
0.000500
 70
0
  0
VERTEX
  8
184
 10
5.112500
 20
5.425250
 30
0.000000
 42
1.000000
  0
VERTEX
  8
184
 10
5.112500
 20
5.424750
 30
0.000000
  0
SEQEND
  8
0
  0
POLYLINE
  8
184
 66
1
 10
0.000000
 20
0.000000
 30
0.000000
 40
0.001000
 41
0.001000
 70
0
  0
VERTEX
  8
184
 10
5.437500
 20
5.425000
 30
0.000000
 42
0.414214
  0
VERTEX
  8
184
 10
5.450000
 20
5.437500
 30
0.000000
  0
SEQEND
  8
0
  0
POLYLINE
  8
184
 66
1
 10
0.000000
 20
0.000000
 30
0.000000
 40
0.000500
 41
0.000500
 70
0
  0
VERTEX
  8
184
 10
5.437500
 20
5.425250
 30
0.000000
 42
1.000000
  0
VERTEX
  8
184
 10
5.437500
 20
5.424750
 30
0.000000
  0
SEQEND
  8
0
  0
POLYLINE
  8
184
 66
1
 10
0.000000
 20
0.000000
 30
0.000000
 40
0.000500
 41
0.000500
 70
0
  0
VERTEX
  8
184
 10
5.450250
 20
5.437500
 30
0.000000
 42
1.000000
  0
VERTEX
  8
184
 10
5.449750
 20
5.437500
 30
0.000000
  0
SEQEND
  8
0
  0
POLYLINE
  8
184
 66
1
 10
0.000000
 20
0.000000
 30
0.000000
 40
0.001000
 41
0.001000
 70
0
  0
VERTEX
  8
184
 10
5.450000
 20
5.437500
 30
0.000000
  0
VERTEX
  8
184
 10
5.450000
 20
5.712500
 30
0.000000
  0
SEQEND
  8
0
  0
POLYLINE
  8
184
 66
1
 10
0.000000
 20
0.000000
 30
0.000000
 40
0.000500
 41
0.000500
 70
0
  0
VERTEX
  8
184
 10
5.450250
 20
5.712500
 30
0.000000
 42
1.000000
  0
VERTEX
  8
184
 10
5.449750
 20
5.712500
 30
0.000000
  0
SEQEND
  8
0
  0
POLYLINE
  8
184
 66
1
 10
0.000000
 20
0.000000
 30
0.000000
 40
0.000500
 41
0.000500
 70
0
  0
VERTEX
  8
184
 10
5.449750
 20
5.437500
 30
0.000000
 42
1.000000
  0
VERTEX
  8
184
 10
5.450250
 20
5.437500
 30
0.000000
  0
SEQEND
  8
0
  0
POLYLINE
  8
184
 66
1
 10
0.000000
 20
0.000000
 30
0.000000
 40
0.001000
 41
0.001000
 70
0
  0
VERTEX
  8
184
 10
5.450000
 20
5.712500
 30
0.000000
 42
0.414214
  0
VERTEX
  8
184
 10
5.437500
 20
5.725000
 30
0.000000
  0
SEQEND
  8
0
  0
POLYLINE
  8
184
 66
1
 10
0.000000
 20
0.000000
 30
0.000000
 40
0.000500
 41
0.000500
 70
0
  0
VERTEX
  8
184
 10
5.449750
 20
5.712500
 30
0.000000
 42
1.000000
  0
VERTEX
  8
184
 10
5.450250
 20
5.712500
 30
0.000000
  0
SEQEND
  8
0
  0
POLYLINE
  8
184
 66
1
 10
0.000000
 20
0.000000
 30
0.000000
 40
0.000500
 41
0.000500
 70
0
  0
VERTEX
  8
184
 10
5.437500
 20
5.725250
 30
0.000000
 42
1.000000
  0
VERTEX
  8
184
 10
5.437500
 20
5.724750
 30
0.000000
  0
SEQEND
  8
0
  0
POLYLINE
  8
184
 66
1
 10
0.000000
 20
0.000000
 30
0.000000
 40
0.001000
 41
0.001000
 70
0
  0
VERTEX
  8
184
 10
5.437500
 20
5.725000
 30
0.000000
  0
VERTEX
  8
184
 10
5.112500
 20
5.725000
 30
0.000000
  0
SEQEND
  8
0
  0
POLYLINE
  8
184
 66
1
 10
0.000000
 20
0.000000
 30
0.000000
 40
0.000500
 41
0.000500
 70
0
  0
VERTEX
  8
184
 10
5.112500
 20
5.725250
 30
0.000000
 42
1.000000
  0
VERTEX
  8
184
 10
5.112500
 20
5.724750
 30
0.000000
  0
SEQEND
  8
0
  0
POLYLINE
  8
184
 66
1
 10
0.000000
 20
0.000000
 30
0.000000
 40
0.000500
 41
0.000500
 70
0
  0
VERTEX
  8
184
 10
5.437500
 20
5.724750
 30
0.000000
 42
1.000000
  0
VERTEX
  8
184
 10
5.437500
 20
5.725250
 30
0.000000
  0
SEQEND
  8
0
  0
POLYLINE
  8
184
 66
1
 10
0.000000
 20
0.000000
 30
0.000000
 40
0.001000
 41
0.001000
 70
0
  0
VERTEX
  8
184
 10
5.112500
 20
5.725000
 30
0.000000
 42
0.414214
  0
VERTEX
  8
184
 10
5.100000
 20
5.712500
 30
0.000000
  0
SEQEND
  8
0
  0
POLYLINE
  8
184
 66
1
 10
0.000000
 20
0.000000
 30
0.000000
 40
0.000500
 41
0.000500
 70
0
  0
VERTEX
  8
184
 10
5.112500
 20
5.724750
 30
0.000000
 42
1.000000
  0
VERTEX
  8
184
 10
5.112500
 20
5.725250
 30
0.000000
  0
SEQEND
  8
0
  0
POLYLINE
  8
184
 66
1
 10
0.000000
 20
0.000000
 30
0.000000
 40
0.000500
 41
0.000500
 70
0
  0
VERTEX
  8
184
 10
5.099750
 20
5.712500
 30
0.000000
 42
1.000000
  0
VERTEX
  8
184
 10
5.100250
 20
5.712500
 30
0.000000
  0
SEQEND
  8
0
  0
POLYLINE
  8
184
 66
1
 10
0.000000
 20
0.000000
 30
0.000000
 40
0.001000
 41
0.001000
 70
0
  0
VERTEX
  8
184
 10
5.100000
 20
5.712500
 30
0.000000
  0
VERTEX
  8
184
 10
5.100000
 20
5.437500
 30
0.000000
  0
SEQEND
  8
0
  0
POLYLINE
  8
184
 66
1
 10
0.000000
 20
0.000000
 30
0.000000
 40
0.000500
 41
0.000500
 70
0
  0
VERTEX
  8
184
 10
5.099750
 20
5.437500
 30
0.000000
 42
1.000000
  0
VERTEX
  8
184
 10
5.100250
 20
5.437500
 30
0.000000
  0
SEQEND
  8
0
  0
POLYLINE
  8
184
 66
1
 10
0.000000
 20
0.000000
 30
0.000000
 40
0.000500
 41
0.000500
 70
0
  0
VERTEX
  8
184
 10
5.100250
 20
5.712500
 30
0.000000
 42
1.000000
  0
VERTEX
  8
184
 10
5.099750
 20
5.712500
 30
0.000000
  0
SEQEND
  8
0
  0
POLYLINE
  8
184
 66
1
 10
0.000000
 20
0.000000
 30
0.000000
 40
0.001000
 41
0.001000
 70
0
  0
VERTEX
  8
184
 10
5.100000
 20
5.437500
 30
0.000000
 42
0.414214
  0
VERTEX
  8
184
 10
5.112500
 20
5.425000
 30
0.000000
  0
SEQEND
  8
0
  0
POLYLINE
  8
184
 66
1
 10
0.000000
 20
0.000000
 30
0.000000
 40
0.000500
 41
0.000500
 70
0
  0
VERTEX
  8
184
 10
5.100250
 20
5.437500
 30
0.000000
 42
1.000000
  0
VERTEX
  8
184
 10
5.099750
 20
5.437500
 30
0.000000
  0
SEQEND
  8
0
  0
POLYLINE
  8
184
 66
1
 10
0.000000
 20
0.000000
 30
0.000000
 40
0.000500
 41
0.000500
 70
0
  0
VERTEX
  8
184
 10
5.112500
 20
5.424750
 30
0.000000
 42
1.000000
  0
VERTEX
  8
184
 10
5.112500
 20
5.425250
 30
0.000000
  0
SEQEND
  8
0
  0
POLYLINE
  8
184
 66
1
 10
0.000000
 20
0.000000
 30
0.000000
 40
0.001000
 41
0.001000
 70
0
  0
VERTEX
  8
184
 10
-0.020000
 20
5.180000
 30
0.000000
  0
VERTEX
  8
184
 10
-0.020000
 20
6.775000
 30
0.000000
  0
SEQEND
  8
0
  0
POLYLINE
  8
184
 66
1
 10
0.000000
 20
0.000000
 30
0.000000
 40
0.000500
 41
0.000500
 70
0
  0
VERTEX
  8
184
 10
-0.019750
 20
6.775000
 30
0.000000
 42
1.000000
  0
VERTEX
  8
184
 10
-0.020250
 20
6.775000
 30
0.000000
  0
SEQEND
  8
0
  0
POLYLINE
  8
184
 66
1
 10
0.000000
 20
0.000000
 30
0.000000
 40
0.000500
 41
0.000500
 70
0
  0
VERTEX
  8
184
 10
-0.020250
 20
5.180000
 30
0.000000
 42
1.000000
  0
VERTEX
  8
184
 10
-0.019750
 20
5.180000
 30
0.000000
  0
SEQEND
  8
0
  0
POLYLINE
  8
184
 66
1
 10
0.000000
 20
0.000000
 30
0.000000
 40
0.001000
 41
0.001000
 70
0
  0
VERTEX
  8
184
 10
-0.020000
 20
6.775000
 30
0.000000
  0
VERTEX
  8
184
 10
6.870000
 20
6.775000
 30
0.000000
  0
SEQEND
  8
0
  0
POLYLINE
  8
184
 66
1
 10
0.000000
 20
0.000000
 30
0.000000
 40
0.000500
 41
0.000500
 70
0
  0
VERTEX
  8
184
 10
6.870000
 20
6.774750
 30
0.000000
 42
1.000000
  0
VERTEX
  8
184
 10
6.870000
 20
6.775250
 30
0.000000
  0
SEQEND
  8
0
  0
POLYLINE
  8
184
 66
1
 10
0.000000
 20
0.000000
 30
0.000000
 40
0.000500
 41
0.000500
 70
0
  0
VERTEX
  8
184
 10
-0.020000
 20
6.775250
 30
0.000000
 42
1.000000
  0
VERTEX
  8
184
 10
-0.020000
 20
6.774750
 30
0.000000
  0
SEQEND
  8
0
  0
POLYLINE
  8
184
 66
1
 10
0.000000
 20
0.000000
 30
0.000000
 40
0.001000
 41
0.001000
 70
0
  0
VERTEX
  8
184
 10
6.870000
 20
6.775000
 30
0.000000
  0
VERTEX
  8
184
 10
6.870000
 20
5.180000
 30
0.000000
  0
SEQEND
  8
0
  0
POLYLINE
  8
184
 66
1
 10
0.000000
 20
0.000000
 30
0.000000
 40
0.000500
 41
0.000500
 70
0
  0
VERTEX
  8
184
 10
6.869750
 20
5.180000
 30
0.000000
 42
1.000000
  0
VERTEX
  8
184
 10
6.870250
 20
5.180000
 30
0.000000
  0
SEQEND
  8
0
  0
POLYLINE
  8
184
 66
1
 10
0.000000
 20
0.000000
 30
0.000000
 40
0.000500
 41
0.000500
 70
0
  0
VERTEX
  8
184
 10
6.870250
 20
6.775000
 30
0.000000
 42
1.000000
  0
VERTEX
  8
184
 10
6.869750
 20
6.775000
 30
0.000000
  0
SEQEND
  8
0
  0
POLYLINE
  8
184
 66
1
 10
0.000000
 20
0.000000
 30
0.000000
 40
0.001000
 41
0.001000
 70
0
  0
VERTEX
  8
184
 10
6.870000
 20
5.180000
 30
0.000000
  0
VERTEX
  8
184
 10
-0.020000
 20
5.180000
 30
0.000000
  0
SEQEND
  8
0
  0
POLYLINE
  8
184
 66
1
 10
0.000000
 20
0.000000
 30
0.000000
 40
0.000500
 41
0.000500
 70
0
  0
VERTEX
  8
184
 10
-0.020000
 20
5.180250
 30
0.000000
 42
1.000000
  0
VERTEX
  8
184
 10
-0.020000
 20
5.179750
 30
0.000000
  0
SEQEND
  8
0
  0
POLYLINE
  8
184
 66
1
 10
0.000000
 20
0.000000
 30
0.000000
 40
0.000500
 41
0.000500
 70
0
  0
VERTEX
  8
184
 10
6.870000
 20
5.179750
 30
0.000000
 42
1.000000
  0
VERTEX
  8
184
 10
6.870000
 20
5.180250
 30
0.000000
  0
SEQEND
  8
0
  0
POLYLINE
  8
184
 66
1
 10
0.000000
 20
0.000000
 30
0.000000
 40
0.001000
 41
0.001000
 70
0
  0
VERTEX
  8
184
 10
0.600000
 20
5.387500
 30
0.000000
 42
1.000000
  0
VERTEX
  8
184
 10
0.600000
 20
5.837500
 30
0.000000
 42
1.000000
  0
VERTEX
  8
184
 10
0.600000
 20
5.387500
 30
0.000000
  0
SEQEND
  8
0
  0
POLYLINE
  8
184
 66
1
 10
0.000000
 20
0.000000
 30
0.000000
 40
0.001000
 41
0.001000
 70
0
  0
VERTEX
  8
184
 10
1.300000
 20
5.387500
 30
0.000000
 42
1.000000
  0
VERTEX
  8
184
 10
1.300000
 20
5.837500
 30
0.000000
 42
1.000000
  0
VERTEX
  8
184
 10
1.300000
 20
5.387500
 30
0.000000
  0
SEQEND
  8
0
  0
POLYLINE
  8
184
 66
1
 10
0.000000
 20
0.000000
 30
0.000000
 40
0.001000
 41
0.001000
 70
0
  0
VERTEX
  8
184
 10
1.300000
 20
6.137500
 30
0.000000
 42
1.000000
  0
VERTEX
  8
184
 10
1.300000
 20
6.587500
 30
0.000000
 42
1.000000
  0
VERTEX
  8
184
 10
1.300000
 20
6.137500
 30
0.000000
  0
SEQEND
  8
0
  0
POLYLINE
  8
184
 66
1
 10
0.000000
 20
0.000000
 30
0.000000
 40
0.001000
 41
0.001000
 70
0
  0
VERTEX
  8
184
 10
2.000000
 20
5.387500
 30
0.000000
 42
1.000000
  0
VERTEX
  8
184
 10
2.000000
 20
5.837500
 30
0.000000
 42
1.000000
  0
VERTEX
  8
184
 10
2.000000
 20
5.387500
 30
0.000000
  0
SEQEND
  8
0
  0
POLYLINE
  8
184
 66
1
 10
0.000000
 20
0.000000
 30
0.000000
 40
0.001000
 41
0.001000
 70
0
  0
VERTEX
  8
184
 10
2.700000
 20
5.387500
 30
0.000000
 42
1.000000
  0
VERTEX
  8
184
 10
2.700000
 20
5.837500
 30
0.000000
 42
1.000000
  0
VERTEX
  8
184
 10
2.700000
 20
5.387500
 30
0.000000
  0
SEQEND
  8
0
  0
POLYLINE
  8
184
 66
1
 10
0.000000
 20
0.000000
 30
0.000000
 40
0.001000
 41
0.001000
 70
0
  0
VERTEX
  8
184
 10
2.700000
 20
6.137500
 30
0.000000
 42
1.000000
  0
VERTEX
  8
184
 10
2.700000
 20
6.587500
 30
0.000000
 42
1.000000
  0
VERTEX
  8
184
 10
2.700000
 20
6.137500
 30
0.000000
  0
SEQEND
  8
0
  0
POLYLINE
  8
184
 66
1
 10
0.000000
 20
0.000000
 30
0.000000
 40
0.001000
 41
0.001000
 70
0
  0
VERTEX
  8
184
 10
2.000000
 20
6.137500
 30
0.000000
 42
1.000000
  0
VERTEX
  8
184
 10
2.000000
 20
6.587500
 30
0.000000
 42
1.000000
  0
VERTEX
  8
184
 10
2.000000
 20
6.137500
 30
0.000000
  0
SEQEND
  8
0
  0
POLYLINE
  8
184
 66
1
 10
0.000000
 20
0.000000
 30
0.000000
 40
0.001000
 41
0.001000
 70
0
  0
VERTEX
  8
184
 10
3.400000
 20
5.387500
 30
0.000000
 42
1.000000
  0
VERTEX
  8
184
 10
3.400000
 20
5.837500
 30
0.000000
 42
1.000000
  0
VERTEX
  8
184
 10
3.400000
 20
5.387500
 30
0.000000
  0
SEQEND
  8
0
  0
POLYLINE
  8
184
 66
1
 10
0.000000
 20
0.000000
 30
0.000000
 40
0.001000
 41
0.001000
 70
0
  0
VERTEX
  8
184
 10
3.400000
 20
6.137500
 30
0.000000
 42
1.000000
  0
VERTEX
  8
184
 10
3.400000
 20
6.587500
 30
0.000000
 42
1.000000
  0
VERTEX
  8
184
 10
3.400000
 20
6.137500
 30
0.000000
  0
SEQEND
  8
0
  0
POLYLINE
  8
184
 66
1
 10
0.000000
 20
0.000000
 30
0.000000
 40
0.001000
 41
0.001000
 70
0
  0
VERTEX
  8
184
 10
0.600000
 20
6.312500
 30
0.000000
 42
1.000000
  0
VERTEX
  8
184
 10
0.600000
 20
6.562500
 30
0.000000
 42
1.000000
  0
VERTEX
  8
184
 10
0.600000
 20
6.312500
 30
0.000000
  0
SEQEND
  8
0
  0
POLYLINE
  8
184
 66
1
 10
0.000000
 20
0.000000
 30
0.000000
 40
0.001000
 41
0.001000
 70
0
  0
VERTEX
  8
184
 10
6.275000
 20
5.437500
 30
0.000000
 42
1.000000
  0
VERTEX
  8
184
 10
6.275000
 20
5.687500
 30
0.000000
 42
1.000000
  0
VERTEX
  8
184
 10
6.275000
 20
5.437500
 30
0.000000
  0
SEQEND
  8
0
  0
POLYLINE
  8
184
 66
1
 10
0.000000
 20
0.000000
 30
0.000000
 40
0.001000
 41
0.001000
 70
0
  0
VERTEX
  8
184
 10
4.325000
 20
5.512500
 30
0.000000
 42
1.000000
  0
VERTEX
  8
184
 10
4.325000
 20
5.762500
 30
0.000000
 42
1.000000
  0
VERTEX
  8
184
 10
4.325000
 20
5.512500
 30
0.000000
  0
SEQEND
  8
0
  0
POLYLINE
  8
184
 66
1
 10
0.000000
 20
0.000000
 30
0.000000
 40
0.001000
 41
0.001000
 70
0
  0
VERTEX
  8
184
 10
5.875000
 20
5.487500
 30
0.000000
 42
1.000000
  0
VERTEX
  8
184
 10
5.875000
 20
5.737500
 30
0.000000
 42
1.000000
  0
VERTEX
  8
184
 10
5.875000
 20
5.487500
 30
0.000000
  0
SEQEND
  8
0
  0
POLYLINE
  8
184
 66
1
 10
0.000000
 20
0.000000
 30
0.000000
 40
0.001000
 41
0.001000
 70
0
  0
VERTEX
  8
184
 10
6.725000
 20
5.875000
 30
0.000000
 42
1.000000
  0
VERTEX
  8
184
 10
6.725000
 20
5.975000
 30
0.000000
 42
1.000000
  0
VERTEX
  8
184
 10
6.725000
 20
5.875000
 30
0.000000
  0
SEQEND
  8
0
  0
POLYLINE
  8
184
 66
1
 10
0.000000
 20
0.000000
 30
0.000000
 40
0.001000
 41
0.001000
 70
0
  0
VERTEX
  8
184
 10
2.000000
 20
6.137500
 30
0.000000
 42
1.000000
  0
VERTEX
  8
184
 10
2.000000
 20
6.587500
 30
0.000000
 42
1.000000
  0
VERTEX
  8
184
 10
2.000000
 20
6.137500
 30
0.000000
  0
SEQEND
  8
0
  0
POLYLINE
  8
184
 66
1
 10
0.000000
 20
0.000000
 30
0.000000
 40
0.001000
 41
0.001000
 70
0
  0
VERTEX
  8
184
 10
1.300000
 20
5.387500
 30
0.000000
 42
1.000000
  0
VERTEX
  8
184
 10
1.300000
 20
5.837500
 30
0.000000
 42
1.000000
  0
VERTEX
  8
184
 10
1.300000
 20
5.387500
 30
0.000000
  0
SEQEND
  8
0
  0
POLYLINE
  8
184
 66
1
 10
0.000000
 20
0.000000
 30
0.000000
 40
0.001000
 41
0.001000
 70
0
  0
VERTEX
  8
184
 10
0.125000
 20
5.875000
 30
0.000000
 42
1.000000
  0
VERTEX
  8
184
 10
0.125000
 20
5.975000
 30
0.000000
 42
1.000000
  0
VERTEX
  8
184
 10
0.125000
 20
5.875000
 30
0.000000
  0
SEQEND
  8
0
  0
ENDSEC
  0
EOF
