G75*
G70*
%OFA0B0*%
%FSLAX24Y24*%
%IPPOS*%
%LPD*%
%AMOC8*
5,1,8,0,0,1.08239X$1,22.5*
%
%ADD10R,0.0600X0.0600*%
%ADD11OC8,0.0600*%
%ADD12R,0.0315X0.0354*%
%ADD13R,0.0354X0.0315*%
%ADD14C,0.0591*%
%ADD15R,0.0551X0.0748*%
%ADD16OC8,0.0562*%
%ADD17OC8,0.0797*%
%ADD18C,0.0574*%
%ADD19C,0.1306*%
%ADD20R,0.0630X0.0157*%
%ADD21R,0.1000X0.1000*%
%ADD22OC8,0.1000*%
%ADD23R,0.1102X0.1496*%
%ADD24R,0.1496X0.1102*%
%ADD25R,0.0551X0.0709*%
%ADD26OC8,0.0594*%
%ADD27C,0.0886*%
%ADD28R,0.0709X0.0551*%
%ADD29R,0.0748X0.0551*%
%ADD30R,0.0560X0.0560*%
%ADD31OC8,0.0560*%
%ADD32C,0.0060*%
%ADD33C,0.0310*%
%ADD34C,0.0080*%
%ADD35C,0.0436*%
%ADD36C,0.0396*%
%ADD37C,0.0160*%
%ADD38C,0.0240*%
%ADD39C,0.0100*%
D10*
X005651Y008651D03*
X010651Y008651D03*
X012151Y008651D03*
X017151Y008651D03*
X008901Y014151D03*
X007651Y014151D03*
X012151Y015151D03*
X001651Y021651D03*
X001651Y027651D03*
X010151Y033651D03*
X010151Y035651D03*
X003151Y035651D03*
X017151Y035651D03*
X017151Y033651D03*
X024151Y033651D03*
X024151Y035651D03*
X031151Y035651D03*
X038151Y043151D03*
X051901Y030401D03*
X067151Y036651D03*
X065651Y017651D03*
X045151Y001651D03*
D11*
X046151Y001651D03*
X047151Y001651D03*
X047151Y002651D03*
X046151Y002651D03*
X045151Y002651D03*
X048151Y002651D03*
X049151Y002651D03*
X049151Y001651D03*
X048151Y001651D03*
X065651Y004651D03*
X066651Y004651D03*
X066651Y005651D03*
X065651Y005651D03*
X065651Y006651D03*
X066651Y006651D03*
X066651Y007651D03*
X065651Y007651D03*
X065651Y008651D03*
X066651Y008651D03*
X066651Y009651D03*
X065651Y009651D03*
X065651Y010651D03*
X066651Y010651D03*
X066651Y011651D03*
X065651Y011651D03*
X065651Y012651D03*
X066651Y012651D03*
X066651Y013651D03*
X065651Y013651D03*
X065651Y014651D03*
X066651Y014651D03*
X066651Y015651D03*
X065651Y015651D03*
X065651Y016651D03*
X066651Y016651D03*
X066651Y017651D03*
X039151Y036151D03*
X038151Y036151D03*
X038151Y037151D03*
X039151Y037151D03*
X039151Y038151D03*
X038151Y038151D03*
X038151Y039151D03*
X039151Y039151D03*
X039151Y040151D03*
X038151Y040151D03*
X038151Y041151D03*
X039151Y041151D03*
X039151Y042151D03*
X038151Y042151D03*
X039151Y043151D03*
X002651Y021651D03*
X002651Y020651D03*
X001651Y020651D03*
X001651Y019651D03*
X002651Y019651D03*
X002651Y018651D03*
X001651Y018651D03*
X001651Y017651D03*
X002651Y017651D03*
X002651Y016651D03*
X001651Y016651D03*
X001651Y015651D03*
X002651Y015651D03*
X002651Y014651D03*
X001651Y014651D03*
X001651Y013651D03*
X002651Y013651D03*
X002651Y012651D03*
X001651Y012651D03*
X001651Y011651D03*
X002651Y011651D03*
X002651Y010651D03*
X001651Y010651D03*
X001651Y009651D03*
X002651Y009651D03*
X002651Y008651D03*
X001651Y008651D03*
X001651Y007651D03*
X002651Y007651D03*
X002651Y006651D03*
X001651Y006651D03*
X005651Y009651D03*
X005651Y010651D03*
X005651Y011651D03*
X010651Y011651D03*
X012151Y011651D03*
X012151Y010651D03*
X012151Y009651D03*
X010651Y009651D03*
X010651Y010651D03*
X017151Y010651D03*
X017151Y009651D03*
X017151Y011651D03*
D12*
X022651Y016851D03*
X022651Y017451D03*
X022651Y018851D03*
X022651Y019451D03*
X026401Y019451D03*
X026401Y018851D03*
X026401Y017076D03*
X025651Y017076D03*
X025651Y016476D03*
X026401Y016476D03*
X033901Y012701D03*
X034651Y012701D03*
X034651Y012101D03*
X033901Y012101D03*
X035401Y015101D03*
X035401Y015701D03*
X036151Y015701D03*
X036151Y015101D03*
X036901Y015101D03*
X036901Y015701D03*
X037651Y015701D03*
X037651Y015101D03*
X038401Y015101D03*
X038401Y015701D03*
X035276Y017726D03*
X035276Y018326D03*
X034526Y018326D03*
X034526Y017726D03*
X035151Y022601D03*
X035151Y023201D03*
X036651Y023201D03*
X036651Y022601D03*
X037401Y022601D03*
X037401Y023201D03*
X038901Y023201D03*
X038901Y022601D03*
X039651Y022601D03*
X039651Y023201D03*
X033151Y024601D03*
X033151Y025201D03*
X032401Y025201D03*
X032401Y024601D03*
X031651Y024601D03*
X031651Y025201D03*
X049151Y028351D03*
X049151Y028951D03*
X049901Y028951D03*
X049901Y028351D03*
X050901Y026201D03*
X050901Y025601D03*
X051651Y025601D03*
X051651Y026201D03*
X052401Y026201D03*
X052401Y025601D03*
X053151Y025601D03*
X053151Y026201D03*
X053901Y026201D03*
X053901Y025601D03*
X054651Y025601D03*
X054651Y026201D03*
X055401Y026201D03*
X055401Y025601D03*
X054651Y024326D03*
X054651Y023726D03*
X054651Y020701D03*
X054651Y020101D03*
X053901Y020101D03*
X053901Y020701D03*
X052401Y020701D03*
X052401Y020101D03*
X051651Y020101D03*
X051651Y020701D03*
X050901Y020701D03*
X050901Y020101D03*
X053776Y012451D03*
X053776Y011851D03*
X055276Y011851D03*
X055276Y012451D03*
X056526Y012451D03*
X056526Y011851D03*
X058276Y011851D03*
X058276Y012451D03*
X060026Y012451D03*
X060026Y011851D03*
X062026Y011851D03*
X062026Y012451D03*
X064151Y004951D03*
X064151Y004351D03*
X064151Y002451D03*
X064151Y001851D03*
X045276Y006476D03*
X045276Y007076D03*
X041151Y007076D03*
X041151Y006476D03*
X039526Y006476D03*
X039526Y007076D03*
X037776Y007076D03*
X037776Y006476D03*
X037026Y006476D03*
X037026Y007076D03*
X038901Y011101D03*
X038901Y011701D03*
X040526Y011701D03*
X040526Y011101D03*
X042276Y011101D03*
X042276Y011701D03*
X026151Y003951D03*
X026151Y003351D03*
X023151Y003351D03*
X023151Y003951D03*
X019901Y003951D03*
X019901Y003351D03*
X055901Y028351D03*
X055901Y028951D03*
X056651Y028951D03*
X056651Y028351D03*
X049901Y031351D03*
X049901Y031951D03*
X049151Y031951D03*
X049151Y031351D03*
X066151Y038601D03*
X066151Y039201D03*
D13*
X065451Y036651D03*
X064851Y036651D03*
X063451Y036651D03*
X062851Y036651D03*
X065601Y027401D03*
X066201Y027401D03*
X066201Y026651D03*
X065601Y026651D03*
X065601Y024651D03*
X066201Y024651D03*
X066201Y019651D03*
X065601Y019651D03*
X065601Y018901D03*
X066201Y018901D03*
X059701Y021651D03*
X059101Y021651D03*
X059101Y022401D03*
X059701Y022401D03*
X059701Y023776D03*
X059101Y023776D03*
X056701Y023651D03*
X056101Y023651D03*
X056101Y022901D03*
X056701Y022901D03*
X056701Y024401D03*
X056101Y024401D03*
X056101Y025151D03*
X056701Y025151D03*
X056701Y025901D03*
X056101Y025901D03*
X051201Y024401D03*
X050601Y024401D03*
X050601Y023651D03*
X051201Y023651D03*
X051201Y022901D03*
X050601Y022901D03*
X050601Y022151D03*
X051201Y022151D03*
X048201Y021151D03*
X047601Y021151D03*
X047601Y020401D03*
X048201Y020401D03*
X048201Y019651D03*
X047601Y019651D03*
X047601Y018901D03*
X048201Y018901D03*
X052601Y016651D03*
X053201Y016651D03*
X054101Y016651D03*
X054701Y016651D03*
X053951Y017901D03*
X053351Y017901D03*
X056101Y020401D03*
X056701Y020401D03*
X056701Y021151D03*
X056101Y021151D03*
X041201Y020776D03*
X040601Y020776D03*
X040601Y020026D03*
X041201Y020026D03*
X041201Y018901D03*
X040601Y018901D03*
X040601Y018151D03*
X041201Y018151D03*
X041201Y017401D03*
X040601Y017401D03*
X033701Y017651D03*
X033101Y017651D03*
X033101Y018401D03*
X033701Y018401D03*
X033701Y019151D03*
X033101Y019151D03*
X033101Y022526D03*
X033701Y022526D03*
X033701Y023276D03*
X033101Y023276D03*
X024576Y020651D03*
X023976Y020651D03*
X023726Y015651D03*
X024326Y015651D03*
X028601Y015526D03*
X029201Y015526D03*
X029201Y014901D03*
X028601Y014901D03*
X014201Y012651D03*
X013601Y012651D03*
X007701Y012651D03*
X007101Y012651D03*
X008601Y002651D03*
X009201Y002651D03*
X013101Y002651D03*
X013701Y002651D03*
X017601Y002651D03*
X018201Y002651D03*
X025601Y030401D03*
X026201Y030401D03*
X026351Y031151D03*
X026951Y031151D03*
X026951Y031901D03*
X026351Y031901D03*
X025451Y031901D03*
X024851Y031901D03*
X024851Y031151D03*
X025451Y031151D03*
X016326Y032651D03*
X015726Y032651D03*
X014826Y032651D03*
X014226Y032651D03*
X013951Y031901D03*
X013351Y031901D03*
X013076Y032651D03*
X012476Y032651D03*
X011576Y032651D03*
X010976Y032651D03*
X012101Y033651D03*
X012701Y033651D03*
X014601Y033651D03*
X015201Y033651D03*
X048351Y034901D03*
X048951Y034901D03*
X048951Y036151D03*
X048351Y036151D03*
X048351Y036901D03*
X048951Y036901D03*
X048951Y037651D03*
X048351Y037651D03*
D14*
X053651Y023901D03*
D15*
X040901Y016151D03*
X039901Y016151D03*
X034401Y020651D03*
X033401Y020651D03*
X048151Y033901D03*
X049151Y033901D03*
D16*
X047151Y039151D03*
X047151Y039939D03*
X047151Y040726D03*
X047151Y041513D03*
D17*
X046080Y041907D03*
X048222Y041907D03*
X048222Y039151D03*
X046080Y039151D03*
D18*
X052159Y039723D02*
X052159Y040297D01*
X052159Y041084D02*
X052159Y041658D01*
X053143Y041658D02*
X053143Y041084D01*
X053143Y040297D02*
X053143Y039723D01*
D19*
X055013Y042151D03*
X050289Y042151D03*
D20*
X060506Y027246D03*
X060506Y026931D03*
X060506Y026616D03*
X060506Y026301D03*
X060506Y025986D03*
X060506Y025671D03*
X060506Y025356D03*
X060506Y025041D03*
X060506Y024726D03*
X060506Y024411D03*
X060506Y024096D03*
X060506Y023781D03*
X060506Y023466D03*
X060506Y023151D03*
X060506Y022836D03*
X060506Y022521D03*
X060506Y022206D03*
X060506Y021891D03*
X060506Y021576D03*
X060506Y021261D03*
X060506Y020946D03*
X060506Y020631D03*
X060506Y020317D03*
X060506Y020002D03*
X060506Y019687D03*
X060506Y019372D03*
X060506Y019057D03*
X064797Y019057D03*
X064797Y019372D03*
X064797Y019687D03*
X064797Y020002D03*
X064797Y020317D03*
X064797Y020631D03*
X064797Y020946D03*
X064797Y021261D03*
X064797Y021576D03*
X064797Y021891D03*
X064797Y022206D03*
X064797Y022521D03*
X064797Y022836D03*
X064797Y023151D03*
X064797Y023466D03*
X064797Y023781D03*
X064797Y024096D03*
X064797Y024411D03*
X064797Y024726D03*
X064797Y025041D03*
X064797Y025356D03*
X064797Y025671D03*
X064797Y025986D03*
X064797Y026301D03*
X064797Y026616D03*
X064797Y026931D03*
X064797Y027246D03*
D21*
X059651Y040651D03*
D22*
X057651Y041776D03*
X059651Y043026D03*
X043084Y042206D03*
X042297Y043151D03*
X043084Y040041D03*
D23*
X058276Y038151D03*
X061026Y038151D03*
D24*
X064151Y034526D03*
X064151Y031776D03*
D25*
X057401Y031901D03*
X056401Y031901D03*
X056401Y033151D03*
X057401Y033151D03*
D26*
X063659Y038667D03*
X064643Y038667D03*
X064643Y039651D03*
X063659Y039651D03*
X063659Y040635D03*
X064643Y040635D03*
D27*
X035805Y040781D03*
X035805Y043281D03*
X031305Y043281D03*
X028805Y043281D03*
X028805Y040781D03*
X031305Y040781D03*
X031305Y038281D03*
X028805Y038281D03*
X024305Y038281D03*
X021805Y038281D03*
X021805Y040781D03*
X024305Y040781D03*
X024305Y043281D03*
X021805Y043281D03*
X017305Y043281D03*
X014805Y043281D03*
X014805Y040781D03*
X017305Y040781D03*
X017305Y038281D03*
X014805Y038281D03*
X010305Y038281D03*
X007805Y038281D03*
X007805Y040781D03*
X010305Y040781D03*
X010305Y043281D03*
X007805Y043281D03*
X003305Y043281D03*
X003305Y040781D03*
X003305Y038281D03*
X035805Y038281D03*
D28*
X041901Y026901D03*
X041901Y025901D03*
D29*
X040651Y025901D03*
X040651Y026901D03*
X028151Y030901D03*
X028151Y031901D03*
X023651Y031901D03*
X023651Y030901D03*
X034151Y016401D03*
X034151Y015401D03*
X027151Y004151D03*
X027151Y003151D03*
X024151Y003151D03*
X024151Y004151D03*
X020901Y004151D03*
X020901Y003151D03*
X063151Y002651D03*
X063151Y001651D03*
X063151Y004151D03*
X063151Y005151D03*
D30*
X034151Y001651D03*
D31*
X035151Y001651D03*
X035151Y002651D03*
X034151Y002651D03*
X036151Y002651D03*
X037151Y002651D03*
X037151Y001651D03*
X036151Y001651D03*
X038151Y001651D03*
X039151Y001651D03*
X039151Y002651D03*
X038151Y002651D03*
X040151Y002651D03*
X040151Y001651D03*
D32*
X040151Y002651D02*
X039151Y003651D01*
X036401Y003651D01*
X031651Y005151D02*
X028401Y001901D01*
X025901Y001901D01*
X022901Y001901D01*
X019776Y001901D01*
X020401Y001401D02*
X016151Y001401D01*
X011651Y001401D01*
X007151Y001401D01*
X007901Y001151D02*
X012401Y001151D01*
X016901Y001151D01*
X021151Y001151D01*
X024401Y001151D01*
X027401Y001151D01*
X029151Y001151D01*
X030651Y002651D01*
X030901Y003401D02*
X028901Y001401D01*
X026651Y001401D01*
X023651Y001401D01*
X020401Y001401D01*
X021151Y001651D02*
X024401Y001651D01*
X027401Y001651D01*
X028651Y001651D01*
X031401Y004401D01*
X028401Y002651D02*
X028151Y002401D01*
X022401Y002401D01*
X022026Y002776D01*
X022026Y003526D01*
X021901Y003651D01*
X033901Y012101D02*
X034651Y012101D01*
X034976Y012101D01*
X035151Y012276D01*
X034651Y012701D02*
X034651Y013026D01*
X034589Y013089D01*
X034401Y013276D01*
X034026Y013276D02*
X033901Y013151D01*
X033901Y012701D01*
X031651Y012151D02*
X031651Y014151D01*
X032901Y015401D01*
X033151Y015401D01*
X032901Y015901D02*
X031401Y014401D01*
X031401Y012651D01*
X029651Y014526D02*
X029651Y015151D01*
X029276Y015526D01*
X029201Y015526D01*
X028601Y015526D02*
X029201Y014926D01*
X029201Y014901D01*
X028601Y015526D02*
X028151Y015526D01*
X027901Y015276D01*
X029901Y016026D02*
X029901Y016401D01*
X030901Y017401D01*
X030901Y019151D01*
X030276Y019776D01*
X030276Y020151D01*
X030776Y020151D02*
X030776Y019526D01*
X031026Y019276D01*
X031026Y017026D01*
X030401Y016401D01*
X030901Y016401D02*
X031151Y016651D01*
X031151Y019651D01*
X031526Y020026D02*
X031526Y018901D01*
X031276Y018651D01*
X031276Y016901D01*
X031526Y016651D01*
X030276Y017151D02*
X030276Y017651D01*
X030651Y018026D01*
X030651Y019151D01*
X030276Y019526D01*
X029901Y019526D01*
X030276Y019151D02*
X030526Y018901D01*
X030526Y018151D01*
X030026Y017651D01*
X030026Y017276D01*
X029776Y017026D01*
X029276Y017026D01*
X029651Y016776D02*
X029901Y016776D01*
X030276Y017151D01*
X029651Y017276D02*
X029651Y017526D01*
X030276Y018151D01*
X030276Y018401D01*
X029901Y018026D02*
X029901Y018776D01*
X029526Y018651D02*
X029526Y018026D01*
X029901Y018026D02*
X029401Y017526D01*
X029026Y017526D01*
X029026Y018026D02*
X029026Y018526D01*
X028651Y018901D01*
X029151Y019026D02*
X029526Y018651D01*
X028651Y018276D02*
X027651Y018276D01*
X027151Y018776D01*
X025901Y017901D02*
X025901Y019776D01*
X026276Y020151D01*
X027276Y020151D01*
X029526Y022401D01*
X031401Y022401D01*
X032651Y023276D02*
X033101Y023276D01*
X033101Y022526D02*
X033151Y022526D01*
X033401Y022276D01*
X033401Y022026D01*
X033701Y022526D02*
X034151Y022526D01*
X035151Y021526D01*
X035151Y020776D01*
X035401Y020401D02*
X035651Y020651D01*
X035651Y021401D01*
X034526Y022526D01*
X034526Y022901D01*
X035901Y022651D02*
X035901Y020401D01*
X035276Y018776D02*
X035276Y018326D01*
X035276Y017726D02*
X035276Y017401D01*
X035526Y017151D01*
X034526Y017401D02*
X034526Y017726D01*
X034526Y017401D02*
X034276Y017151D01*
X034151Y017151D01*
X034526Y018326D02*
X034526Y018776D01*
X036901Y014651D02*
X036901Y013526D01*
X037401Y013026D01*
X037401Y010401D01*
X037026Y010026D01*
X036526Y010026D01*
X036901Y009776D02*
X037151Y009776D01*
X037651Y010276D01*
X037651Y012901D01*
X038026Y012901D02*
X038026Y012651D01*
X037901Y012526D01*
X037901Y010151D01*
X037276Y009526D01*
X036526Y009526D01*
X036901Y009276D02*
X037401Y009276D01*
X038151Y010026D01*
X038151Y012401D01*
X038276Y012526D01*
X038276Y013026D01*
X037651Y013651D01*
X037651Y014651D01*
X038026Y014651D02*
X038026Y013776D01*
X038776Y013026D01*
X038776Y012526D01*
X039651Y011651D01*
X039651Y010526D01*
X037901Y008776D01*
X036901Y008776D01*
X036526Y008526D02*
X038026Y008526D01*
X039901Y010401D01*
X039901Y011776D01*
X039026Y012651D01*
X039026Y012901D01*
X038526Y012901D02*
X038526Y012526D01*
X038401Y012401D01*
X038401Y009901D01*
X037526Y009026D01*
X036526Y009026D01*
X036901Y010276D02*
X037151Y010526D01*
X037151Y012901D01*
X041026Y012526D02*
X041276Y012276D01*
X041276Y008401D01*
X043276Y006401D01*
X043026Y007651D02*
X041526Y009151D01*
X041526Y012651D01*
X041401Y012776D01*
X042026Y012276D02*
X042026Y014401D01*
X041776Y013776D02*
X041776Y010651D01*
X042276Y010651D02*
X042276Y011101D01*
X043026Y010526D02*
X043276Y010776D01*
X043276Y022651D01*
X042651Y022901D02*
X044151Y022901D01*
X044651Y023401D01*
X044651Y023901D01*
X044901Y024026D02*
X045026Y024151D01*
X045026Y024901D01*
X044276Y024901D01*
X043526Y024151D01*
X043526Y023651D02*
X042526Y023651D01*
X040901Y022026D01*
X040526Y022026D01*
X040901Y021776D02*
X042526Y023401D01*
X043901Y023401D01*
X044026Y023151D02*
X044276Y023401D01*
X044276Y023651D01*
X044026Y023151D02*
X042526Y023151D01*
X042151Y022776D01*
X042151Y021651D01*
X042026Y021526D01*
X041276Y021526D01*
X041651Y021276D02*
X042026Y021276D01*
X042401Y021651D01*
X042401Y022651D01*
X042651Y022901D01*
X042776Y021901D02*
X043026Y021651D01*
X043026Y012651D01*
X042276Y011901D01*
X042276Y011701D01*
X043526Y010526D02*
X043526Y020276D01*
X043776Y020651D02*
X043776Y010026D01*
X044026Y009651D02*
X044026Y020901D01*
X044276Y021276D02*
X044276Y009276D01*
X045026Y009401D02*
X045026Y016276D01*
X045276Y015526D02*
X045276Y008776D01*
X045526Y008151D02*
X045526Y014776D01*
X044776Y017026D02*
X044776Y010026D01*
X044526Y010526D02*
X044526Y018651D01*
X041651Y020026D02*
X041201Y020026D01*
X040601Y020026D02*
X040601Y020776D01*
X040151Y020776D01*
X041201Y020776D02*
X041651Y020776D01*
X044901Y023151D02*
X044901Y024026D01*
X046151Y024401D02*
X046151Y023151D01*
X046651Y023151D02*
X046651Y024401D01*
X047651Y022901D02*
X047651Y031901D01*
X046901Y032651D01*
X043901Y032651D01*
X043651Y032901D01*
X043901Y033901D02*
X043901Y036901D01*
X044401Y036901D02*
X044401Y033901D01*
X045151Y033151D01*
X046901Y033151D01*
X048151Y031901D01*
X048151Y022901D01*
X049401Y021651D01*
X050651Y021651D01*
X050151Y020651D02*
X047901Y022901D01*
X047901Y031901D01*
X046901Y032901D01*
X044901Y032901D01*
X043901Y033901D01*
X036901Y029776D02*
X036901Y029526D01*
X036401Y029026D01*
X036401Y024901D01*
X035901Y024901D02*
X035901Y029276D01*
X036151Y029526D01*
X036151Y029776D01*
X047651Y022901D02*
X048651Y021901D01*
X048651Y021026D01*
X048901Y020776D01*
X048901Y020026D02*
X048526Y019651D01*
X048201Y019651D01*
X048901Y019651D02*
X048901Y019601D01*
X048201Y018901D01*
X049151Y017901D02*
X050901Y019651D01*
X051276Y019651D02*
X049526Y017901D01*
X049526Y017401D01*
X049151Y017401D02*
X049151Y017901D01*
X049901Y017401D02*
X049901Y014901D01*
X051651Y013151D01*
X063401Y013151D01*
X065401Y011151D01*
X066151Y011151D01*
X066651Y011651D01*
X066151Y012151D02*
X066651Y012651D01*
X066151Y012151D02*
X065401Y012151D01*
X063901Y013651D01*
X051651Y013651D01*
X050401Y014901D01*
X050401Y016901D01*
X051276Y017776D01*
X051276Y018026D01*
X050901Y018026D02*
X050151Y017276D01*
X050151Y014901D01*
X051651Y013401D01*
X063901Y013401D01*
X065651Y011651D01*
X065651Y012651D02*
X064401Y013901D01*
X051651Y013901D01*
X050651Y014901D01*
X050651Y016776D01*
X051901Y018026D01*
X052151Y017776D02*
X052151Y017651D01*
X051901Y017401D01*
X051651Y017401D01*
X050901Y016651D01*
X050901Y014901D01*
X051651Y014151D01*
X064401Y014151D01*
X065401Y013151D01*
X066151Y013151D01*
X066651Y013651D01*
X066151Y014151D02*
X066651Y014651D01*
X066151Y014151D02*
X065401Y014151D01*
X064651Y014901D01*
X058401Y014901D01*
X054651Y018651D01*
X054651Y019651D01*
X055026Y019651D02*
X055026Y018526D01*
X058401Y015151D01*
X065151Y015151D01*
X065651Y014651D01*
X065401Y015151D02*
X066151Y015151D01*
X066651Y015651D01*
X066151Y016151D02*
X066651Y016651D01*
X066151Y016151D02*
X063401Y016151D01*
X063151Y015901D01*
X058401Y015901D01*
X056151Y018151D01*
X056151Y019651D01*
X055776Y019651D02*
X055776Y018276D01*
X058401Y015651D01*
X065651Y015651D01*
X065151Y015401D02*
X065401Y015151D01*
X065151Y015401D02*
X058401Y015401D01*
X055401Y018401D01*
X055401Y019651D01*
X056526Y019651D02*
X056526Y018026D01*
X058401Y016151D01*
X062901Y016151D01*
X063401Y016651D01*
X065651Y016651D01*
X066151Y017151D02*
X066651Y017651D01*
X066151Y017151D02*
X063401Y017151D01*
X062651Y016401D01*
X058401Y016401D01*
X057276Y017526D01*
X057276Y018776D01*
X058401Y020026D01*
X058901Y020151D02*
X058901Y020401D01*
X058901Y020151D02*
X057526Y018776D01*
X057526Y017526D01*
X058401Y016651D01*
X062401Y016651D01*
X063401Y017651D01*
X065651Y017651D01*
X064797Y019372D02*
X064247Y019372D01*
X064151Y019276D01*
X064151Y019651D02*
X064187Y019687D01*
X064797Y019687D01*
X064797Y020002D02*
X064772Y020026D01*
X064151Y020026D01*
X064236Y020317D02*
X064797Y020317D01*
X064797Y020631D02*
X065131Y020631D01*
X065401Y020901D01*
X065401Y021776D01*
X065401Y022151D02*
X065346Y022206D01*
X064797Y022206D01*
X064797Y021891D02*
X064141Y021891D01*
X063651Y021401D01*
X063651Y020901D01*
X063776Y020651D02*
X063776Y019151D01*
X063276Y018651D01*
X063901Y018901D02*
X063901Y020526D01*
X064321Y020946D01*
X064797Y020946D01*
X064797Y021261D02*
X064386Y021261D01*
X063776Y020651D01*
X063401Y020651D02*
X063401Y021901D01*
X064336Y022836D01*
X064797Y022836D01*
X064797Y022521D02*
X065531Y022521D01*
X065776Y022276D01*
X065776Y021776D01*
X064797Y021576D02*
X064201Y021576D01*
X064151Y021526D01*
X064151Y020401D02*
X064236Y020317D01*
X061964Y020526D02*
X061964Y018339D01*
X062276Y018276D02*
X061651Y017651D01*
X060901Y017651D01*
X061151Y017401D02*
X061651Y017401D01*
X062401Y018151D01*
X062401Y026776D01*
X061526Y027651D01*
X059276Y027651D01*
X058526Y026901D01*
X058276Y027151D02*
X058901Y027776D01*
X061651Y027776D01*
X062526Y026901D01*
X062526Y017776D01*
X062151Y017401D01*
X061901Y017151D02*
X062401Y017151D01*
X062651Y017401D01*
X062651Y027026D01*
X061776Y027901D01*
X058526Y027901D01*
X058026Y027401D01*
X058401Y026151D02*
X059776Y027526D01*
X061401Y027526D01*
X062276Y026651D01*
X062276Y018276D01*
X062901Y017651D02*
X062901Y028526D01*
X064151Y026901D02*
X064247Y026931D01*
X064797Y026931D01*
X064797Y026301D02*
X064377Y026301D01*
X064151Y026526D01*
X064151Y026151D02*
X064317Y025986D01*
X064797Y025986D01*
X064797Y025356D02*
X064446Y025356D01*
X064151Y025651D01*
X064151Y025276D02*
X064386Y025041D01*
X064797Y025041D01*
X064797Y024411D02*
X064391Y024411D01*
X064151Y024651D01*
X064151Y024901D01*
X064151Y024276D02*
X064331Y024096D01*
X064797Y024096D01*
X064797Y023466D02*
X064086Y023466D01*
X063776Y023776D01*
X061901Y024151D02*
X061401Y023651D01*
X061151Y023651D01*
X060966Y023466D01*
X060506Y023466D01*
X060506Y024096D02*
X061471Y024096D01*
X061526Y024151D01*
X061151Y024401D02*
X060515Y024401D01*
X060506Y024411D01*
X060506Y025041D02*
X059901Y025026D01*
X059666Y024791D01*
X059386Y024791D01*
X059151Y025026D01*
X059151Y026401D01*
X059276Y026026D02*
X059276Y025276D01*
X059526Y025026D01*
X059151Y024526D02*
X057526Y022901D01*
X057151Y022901D01*
X057401Y022651D02*
X058401Y022651D01*
X059101Y022401D02*
X059151Y022401D01*
X059151Y022901D01*
X059701Y022401D02*
X059896Y022206D01*
X060506Y022206D01*
X061221Y022206D01*
X061651Y021776D01*
X061651Y021526D01*
X061526Y021401D01*
X061041Y021261D02*
X061526Y020776D01*
X061526Y018901D01*
X061151Y018526D01*
X060506Y019372D02*
X060122Y019372D01*
X059776Y019026D01*
X059276Y018901D02*
X060062Y019687D01*
X060506Y019687D01*
X060506Y020002D02*
X060002Y020002D01*
X058776Y018776D01*
X058401Y018776D02*
X058401Y018526D01*
X058401Y018776D02*
X059942Y020317D01*
X060506Y020317D01*
X060506Y020631D02*
X060006Y020631D01*
X058151Y018776D01*
X058151Y018026D01*
X057776Y017651D02*
X057776Y018651D01*
X060071Y020946D01*
X060506Y020946D01*
X060506Y021261D02*
X061041Y021261D01*
X060914Y021576D02*
X060506Y021576D01*
X060506Y021891D02*
X061036Y021891D01*
X061151Y021776D01*
X060914Y021576D02*
X061964Y020526D01*
X060506Y021891D02*
X059941Y021891D01*
X059701Y021651D01*
X059101Y021651D02*
X059101Y021326D01*
X059276Y021151D01*
X060506Y022521D02*
X060901Y022526D01*
X061271Y022896D01*
X061271Y023021D01*
X061276Y023276D01*
X058776Y024526D02*
X057526Y023276D01*
X057151Y023276D01*
X057401Y022651D02*
X056401Y021651D01*
X056026Y021651D01*
X056026Y021901D02*
X056276Y021901D01*
X056776Y022401D01*
X058401Y024526D02*
X058401Y026151D01*
X059276Y026026D02*
X060181Y026931D01*
X060506Y026931D01*
X060506Y026301D02*
X060176Y026301D01*
X059526Y025651D01*
X060506Y025356D02*
X061106Y025356D01*
X061151Y025401D01*
X061151Y025901D02*
X061067Y025986D01*
X060506Y025986D01*
X055026Y028026D02*
X055026Y029401D01*
X055026Y028026D02*
X053901Y026901D01*
X053026Y026901D01*
X052776Y026651D01*
X053151Y027901D02*
X053151Y029151D01*
X051901Y030401D01*
X049651Y027401D02*
X050401Y026651D01*
X050401Y025276D01*
X050151Y025026D01*
X050151Y025401D02*
X050151Y026401D01*
X049151Y027401D01*
X050526Y018401D02*
X050526Y018026D01*
X049901Y017401D01*
X051151Y016651D02*
X051151Y014901D01*
X051651Y014401D01*
X064901Y014401D01*
X065651Y013651D01*
X062026Y012451D02*
X060026Y012451D01*
X059151Y012451D01*
X059151Y011901D01*
X059151Y012451D02*
X058276Y012451D01*
X056526Y012451D01*
X055276Y012451D01*
X053776Y012451D01*
X053826Y011901D02*
X053776Y011851D01*
X053826Y011901D02*
X054151Y011901D01*
X054401Y011651D01*
X054576Y011151D02*
X055276Y011851D01*
X055226Y011901D01*
X054901Y011901D01*
X054651Y012151D01*
X055901Y011901D02*
X055901Y009151D01*
X055651Y008901D01*
X055651Y008151D01*
X056651Y007151D02*
X056651Y010901D01*
X057651Y011901D01*
X058226Y011901D01*
X058276Y011851D01*
X059401Y011226D02*
X060026Y011851D01*
X060076Y011901D01*
X060651Y011901D01*
X061401Y011901D02*
X061976Y011901D01*
X062026Y011851D01*
X059401Y011226D02*
X059401Y007651D01*
X063401Y008401D02*
X063401Y006151D01*
X063901Y006151D02*
X064901Y007151D01*
X064901Y007651D01*
X065401Y008151D01*
X065901Y008151D01*
X066151Y008401D01*
X066151Y010151D01*
X066651Y010651D01*
X065651Y010651D02*
X063401Y008401D01*
X063901Y007901D02*
X065651Y009651D01*
X063901Y007901D02*
X063901Y006651D01*
X056526Y011851D02*
X056476Y011901D01*
X055901Y011901D01*
X054576Y011151D02*
X053901Y011151D01*
X052151Y012651D02*
X051901Y012401D01*
X051901Y007151D01*
X049151Y004401D01*
X049151Y003401D01*
X047651Y003401D02*
X047651Y001401D01*
X047401Y001151D01*
X045651Y001151D01*
X045151Y001651D01*
X046151Y001651D02*
X046651Y002151D01*
X046651Y002901D01*
X051401Y007651D01*
X051401Y012901D01*
X051151Y012651D02*
X051026Y012776D01*
X051026Y013276D01*
X050651Y013651D02*
X050651Y012651D01*
X050901Y012401D01*
X050901Y008151D01*
X047151Y004401D01*
X047151Y003901D01*
X047651Y003401D02*
X051651Y007401D01*
X051651Y012651D01*
X051776Y012776D01*
X051151Y012651D02*
X051151Y007901D01*
X047651Y004401D01*
X051151Y016651D02*
X051651Y017151D01*
X052026Y017151D01*
X052401Y017526D01*
X054776Y017589D02*
X055214Y017589D01*
X055901Y016901D01*
X025901Y017901D02*
X025276Y017276D01*
X025276Y016276D01*
X025526Y016026D01*
X025651Y016026D01*
X025651Y016476D01*
X066101Y039201D02*
X066151Y039201D01*
D33*
X007151Y001401D03*
X007901Y001151D03*
X007901Y001901D03*
X009401Y001901D03*
X011651Y001401D03*
X012401Y001151D03*
X012401Y001901D03*
X013901Y001901D03*
X016151Y001401D03*
X016901Y001151D03*
X016901Y001901D03*
X018401Y001901D03*
X019776Y001901D03*
X020401Y001401D03*
X021151Y001151D03*
X021151Y001651D03*
X022901Y001901D03*
X023651Y001401D03*
X024401Y001151D03*
X024401Y001651D03*
X025901Y001901D03*
X026651Y001401D03*
X027401Y001151D03*
X027401Y001651D03*
X028401Y002651D03*
X027901Y003151D03*
X026651Y003651D03*
X025401Y003151D03*
X024901Y003151D03*
X023651Y003651D03*
X022401Y003151D03*
X021901Y003651D03*
X021651Y003151D03*
X020401Y003651D03*
X019151Y003151D03*
X020276Y005276D03*
X017901Y005401D03*
X017901Y006401D03*
X015401Y007901D03*
X014901Y007901D03*
X016151Y009651D03*
X014151Y011901D03*
X013651Y011901D03*
X013151Y011901D03*
X014651Y012651D03*
X009651Y009651D03*
X008651Y008151D03*
X010651Y007651D03*
X007651Y011901D03*
X007151Y011901D03*
X006651Y011901D03*
X008151Y012651D03*
X008401Y015151D03*
X008901Y016651D03*
X010401Y017901D03*
X018901Y018651D03*
X019151Y019651D03*
X021401Y020401D03*
X022401Y021901D03*
X023401Y020151D03*
X023901Y020151D03*
X024401Y020151D03*
X023151Y019401D03*
X023151Y018901D03*
X023151Y017401D03*
X023151Y016901D03*
X023651Y016151D03*
X024401Y016151D03*
X025651Y016026D03*
X026776Y016401D03*
X027401Y015776D03*
X027901Y015276D03*
X029651Y014526D03*
X028901Y013151D03*
X031401Y012651D03*
X031651Y012151D03*
X033526Y013526D03*
X034026Y013276D03*
X034401Y013276D03*
X035151Y012276D03*
X035151Y011901D03*
X036526Y010651D03*
X036901Y010276D03*
X036526Y010026D03*
X036901Y009776D03*
X036526Y009526D03*
X036901Y009276D03*
X036526Y009026D03*
X036901Y008776D03*
X036526Y008526D03*
X038651Y006401D03*
X037776Y006026D03*
X039776Y006026D03*
X040526Y006401D03*
X041401Y006026D03*
X043276Y006401D03*
X043026Y007651D03*
X045276Y008776D03*
X045026Y009401D03*
X044776Y010026D03*
X044526Y010526D03*
X043776Y010026D03*
X044026Y009651D03*
X044276Y009276D03*
X043526Y010526D03*
X043026Y010526D03*
X042276Y010651D03*
X041776Y010651D03*
X040526Y010651D03*
X039401Y010651D03*
X038901Y010651D03*
X041026Y011901D03*
X041026Y012526D03*
X041401Y012776D03*
X042026Y012276D03*
X041776Y013776D03*
X042026Y014401D03*
X042776Y015026D03*
X041651Y015151D03*
X040776Y014651D03*
X038776Y013526D03*
X038526Y012901D03*
X038026Y012901D03*
X037651Y012901D03*
X037151Y012901D03*
X036526Y013526D03*
X036151Y014651D03*
X036901Y014651D03*
X037276Y014651D03*
X037651Y014651D03*
X038026Y014651D03*
X038401Y014651D03*
X037651Y016276D03*
X035526Y017151D03*
X034901Y017151D03*
X034151Y017151D03*
X032651Y016401D03*
X032901Y015901D03*
X033151Y015401D03*
X033151Y014776D03*
X034651Y014651D03*
X031526Y016651D03*
X030901Y016401D03*
X030401Y016401D03*
X029901Y016026D03*
X029651Y016776D03*
X029276Y017026D03*
X029651Y017276D03*
X029026Y017526D03*
X029026Y018026D03*
X028651Y018276D03*
X028651Y018901D03*
X029151Y019026D03*
X029901Y018776D03*
X030276Y018401D03*
X029526Y018026D03*
X030276Y019151D03*
X029901Y019526D03*
X030276Y020151D03*
X030776Y020151D03*
X031151Y019651D03*
X031526Y020026D03*
X031526Y021151D03*
X030776Y021026D03*
X030651Y021526D03*
X030151Y021276D03*
X030276Y022776D03*
X031401Y022401D03*
X031526Y023526D03*
X032651Y023276D03*
X032651Y024026D03*
X033901Y025151D03*
X035276Y024901D03*
X035901Y024901D03*
X036401Y024901D03*
X036901Y025651D03*
X037651Y024776D03*
X039276Y024776D03*
X040401Y024712D03*
X041026Y023651D03*
X041651Y023151D03*
X041651Y022151D03*
X041651Y021776D03*
X041276Y021526D03*
X040901Y021776D03*
X040526Y022026D03*
X040026Y022901D03*
X038276Y023651D03*
X037901Y022901D03*
X036651Y023651D03*
X035526Y023651D03*
X034526Y022901D03*
X034151Y022526D03*
X033401Y022026D03*
X032651Y022026D03*
X032651Y021151D03*
X035151Y020776D03*
X035401Y020401D03*
X035901Y020401D03*
X034151Y019151D03*
X034526Y018776D03*
X035276Y018776D03*
X032651Y019276D03*
X031590Y018337D03*
X027151Y018026D03*
X027151Y018776D03*
X026401Y017526D03*
X026401Y019901D03*
X027276Y021526D03*
X027901Y022151D03*
X030901Y025401D03*
X031901Y026901D03*
X032901Y026901D03*
X032901Y028901D03*
X034151Y029026D03*
X036151Y029776D03*
X036901Y029776D03*
X040026Y028651D03*
X042151Y027901D03*
X042901Y025401D03*
X042901Y024651D03*
X043526Y024151D03*
X043526Y023651D03*
X043901Y023401D03*
X044276Y023651D03*
X044651Y023901D03*
X044901Y023151D03*
X046151Y023151D03*
X046651Y023151D03*
X046651Y024401D03*
X046151Y024401D03*
X045026Y024901D03*
X043276Y022651D03*
X042776Y022276D03*
X042776Y021901D03*
X041651Y021276D03*
X041651Y020776D03*
X041651Y020026D03*
X041651Y019651D03*
X041651Y019151D03*
X042776Y019401D03*
X043526Y020276D03*
X043776Y020651D03*
X044026Y020901D03*
X044276Y021276D03*
X047151Y020401D03*
X048901Y020401D03*
X048901Y020026D03*
X048901Y019651D03*
X049151Y019276D03*
X050151Y018026D03*
X050526Y018401D03*
X050901Y018026D03*
X051276Y018026D03*
X051901Y018026D03*
X052151Y017776D03*
X052401Y017526D03*
X051776Y016651D03*
X053651Y016651D03*
X054401Y017901D03*
X054776Y017589D03*
X055526Y016651D03*
X055901Y016901D03*
X057776Y017651D03*
X058151Y018026D03*
X058401Y018526D03*
X058776Y018776D03*
X059276Y018901D03*
X059776Y019026D03*
X061151Y019026D03*
X061151Y018526D03*
X061964Y018339D03*
X060901Y017651D03*
X061151Y017401D03*
X061901Y017151D03*
X062151Y017401D03*
X062901Y017651D03*
X063276Y018651D03*
X063901Y018901D03*
X064151Y019276D03*
X064151Y019651D03*
X064151Y020026D03*
X064151Y020401D03*
X063651Y020901D03*
X063401Y020651D03*
X064151Y021526D03*
X065401Y021776D03*
X065401Y022151D03*
X065776Y021776D03*
X064151Y023776D03*
X063776Y023776D03*
X064151Y024276D03*
X064151Y024901D03*
X064151Y025276D03*
X064151Y025651D03*
X064151Y026151D03*
X064151Y026526D03*
X064151Y026901D03*
X065401Y026151D03*
X066651Y026651D03*
X066651Y024651D03*
X065401Y024151D03*
X061901Y024151D03*
X061526Y024151D03*
X061151Y024401D03*
X059901Y024276D03*
X059401Y024276D03*
X059151Y024526D03*
X058776Y024526D03*
X058401Y024526D03*
X057151Y024401D03*
X057151Y025151D03*
X055651Y024401D03*
X054651Y025151D03*
X054151Y024401D03*
X051651Y023651D03*
X051651Y022901D03*
X050151Y022901D03*
X050151Y022526D03*
X050151Y022151D03*
X050651Y021651D03*
X050151Y020651D03*
X050901Y019651D03*
X051276Y019651D03*
X051651Y019651D03*
X052026Y019651D03*
X052401Y019651D03*
X052776Y019651D03*
X053901Y019651D03*
X054276Y019651D03*
X054651Y019651D03*
X055026Y019651D03*
X055401Y019651D03*
X055776Y019651D03*
X056151Y019651D03*
X056526Y019651D03*
X057151Y019776D03*
X058401Y020026D03*
X058901Y020401D03*
X059276Y021151D03*
X061151Y021776D03*
X061526Y021401D03*
X061276Y023276D03*
X059151Y022901D03*
X058401Y022651D03*
X057151Y022901D03*
X057151Y023276D03*
X056776Y022401D03*
X057151Y021276D03*
X057151Y020401D03*
X055651Y020401D03*
X053901Y021151D03*
X052401Y021151D03*
X050151Y023276D03*
X050151Y023651D03*
X050151Y025026D03*
X050151Y025401D03*
X050901Y026651D03*
X051651Y026651D03*
X052026Y026651D03*
X052401Y026651D03*
X052776Y026651D03*
X053526Y026651D03*
X053901Y026651D03*
X054401Y026651D03*
X055526Y026651D03*
X055901Y026651D03*
X058026Y027401D03*
X058276Y027151D03*
X058526Y026901D03*
X059151Y026401D03*
X059651Y026901D03*
X061151Y025901D03*
X061151Y025401D03*
X059901Y025651D03*
X059526Y025651D03*
X059526Y025026D03*
X062901Y028526D03*
X065151Y029401D03*
X065151Y029901D03*
X055901Y029401D03*
X055026Y029401D03*
X053151Y027901D03*
X051901Y027901D03*
X050651Y028026D03*
X049901Y027901D03*
X049651Y027401D03*
X049151Y027401D03*
X049276Y026901D03*
X051651Y025151D03*
X049901Y029401D03*
X049151Y030901D03*
X046651Y032401D03*
X046151Y032401D03*
X043901Y030651D03*
X044401Y030151D03*
X043651Y032901D03*
X044901Y034651D03*
X045901Y035401D03*
X046651Y035901D03*
X045901Y036151D03*
X044401Y036901D03*
X043901Y036901D03*
X044151Y038151D03*
X047901Y036151D03*
X048151Y035401D03*
X048776Y035401D03*
X050651Y035151D03*
X050901Y035651D03*
X051151Y034651D03*
X050651Y033901D03*
X051401Y033151D03*
X052401Y032151D03*
X046651Y034401D03*
X049401Y036901D03*
X039776Y033651D03*
X039776Y032651D03*
X037401Y033651D03*
X037401Y034901D03*
X027901Y030151D03*
X025901Y031401D03*
X023901Y030151D03*
X022651Y031651D03*
X017901Y030151D03*
X017651Y030901D03*
X017151Y029151D03*
X014151Y029151D03*
X013151Y029151D03*
X013401Y030401D03*
X013901Y031401D03*
X013901Y033026D03*
X013401Y033026D03*
X011276Y033651D03*
X010526Y032651D03*
X010151Y029151D03*
X016026Y033151D03*
X016026Y033651D03*
X016776Y032651D03*
X035901Y022651D03*
X040151Y020776D03*
X044526Y018651D03*
X044776Y017026D03*
X045026Y016276D03*
X045276Y015526D03*
X045526Y014776D03*
X045776Y012276D03*
X050651Y013651D03*
X051026Y013276D03*
X051401Y012901D03*
X051776Y012776D03*
X052151Y012651D03*
X054401Y011651D03*
X054651Y012151D03*
X055901Y011901D03*
X057651Y011901D03*
X059151Y011901D03*
X060651Y011901D03*
X061401Y011901D03*
X060401Y009401D03*
X059401Y007651D03*
X057401Y009401D03*
X055651Y008151D03*
X056651Y007151D03*
X052901Y003651D03*
X050651Y005151D03*
X049151Y003401D03*
X047651Y004401D03*
X047151Y003901D03*
X045526Y006026D03*
X045776Y007276D03*
X045526Y008151D03*
X041651Y003651D03*
X036401Y003651D03*
X033401Y005151D03*
X031651Y005151D03*
X031401Y004401D03*
X030901Y003401D03*
X030651Y002651D03*
X029401Y000651D03*
X026526Y005276D03*
X023526Y005276D03*
X020776Y015276D03*
X039026Y012901D03*
X041651Y016776D03*
X040901Y017026D03*
X042776Y017151D03*
X049151Y017401D03*
X049526Y017401D03*
X048901Y020776D03*
X053901Y011151D03*
X063401Y006151D03*
X063901Y006151D03*
X063901Y006651D03*
X053151Y001401D03*
X065026Y018651D03*
X066651Y018901D03*
D34*
X066201Y018901D01*
X066201Y019651D01*
X065601Y019651D02*
X065601Y018901D01*
X065276Y018901D01*
X065026Y018651D01*
X065276Y018901D02*
X065121Y019057D01*
X064797Y019057D01*
X061151Y019026D02*
X061121Y019057D01*
X060506Y019057D01*
X057151Y020401D02*
X056701Y020401D01*
X056701Y021151D01*
X056101Y021151D02*
X056101Y020401D01*
X055651Y020401D01*
X054651Y020101D02*
X053901Y020101D01*
X053901Y019651D01*
X053351Y019101D01*
X053351Y017901D01*
X052901Y017526D02*
X053276Y017151D01*
X054201Y017151D01*
X054701Y016651D01*
X055526Y016651D01*
X054101Y016651D02*
X053651Y016651D01*
X053201Y016651D01*
X052651Y016701D02*
X052601Y016651D01*
X051776Y016651D01*
X052651Y016701D02*
X052651Y018901D01*
X053151Y019401D01*
X053151Y021151D01*
X053901Y021901D01*
X056026Y021901D01*
X056026Y021651D02*
X053901Y021651D01*
X053401Y021151D01*
X053401Y019401D01*
X052901Y018901D01*
X052901Y017526D01*
X053951Y017901D02*
X054401Y017901D01*
X052401Y019651D02*
X052401Y020101D01*
X052601Y020101D01*
X052901Y020401D01*
X052901Y022401D01*
X054226Y023726D01*
X054651Y023726D01*
X054151Y024401D02*
X053651Y023901D01*
X054076Y024326D02*
X054151Y024401D01*
X054576Y024401D01*
X054651Y024326D01*
X054651Y025151D02*
X054651Y025601D01*
X053901Y025601D01*
X053151Y025601D01*
X053151Y026201D02*
X052401Y026201D01*
X052401Y026651D02*
X052401Y027901D01*
X051401Y028901D01*
X051401Y033151D01*
X050651Y033901D02*
X050651Y028026D01*
X049901Y027901D02*
X049901Y028351D01*
X049151Y028351D01*
X049151Y028951D02*
X049901Y028951D01*
X049901Y029401D01*
X048651Y029401D02*
X050401Y031151D01*
X050401Y031451D01*
X049901Y031951D01*
X049201Y032651D01*
X047901Y032651D01*
X046401Y034151D01*
X046401Y037151D01*
X044151Y039401D01*
X043651Y039401D01*
X043084Y039968D01*
X043084Y040041D01*
X042651Y039151D02*
X042151Y039651D01*
X042151Y041273D01*
X043084Y042206D01*
X042651Y039151D02*
X044151Y039151D01*
X046151Y037151D01*
X046151Y034151D01*
X048401Y031901D01*
X049101Y031901D01*
X049151Y031951D01*
X049151Y031351D02*
X049901Y031351D01*
X049151Y031351D02*
X049151Y030901D01*
X048401Y031901D02*
X048401Y023901D01*
X050151Y022151D01*
X050151Y022526D02*
X048651Y024026D01*
X048651Y029401D01*
X051151Y028651D02*
X051151Y034651D01*
X050901Y035651D02*
X050901Y026651D01*
X050901Y026201D02*
X050601Y025901D01*
X050601Y025026D01*
X051276Y025026D01*
X051526Y024776D01*
X055401Y024776D01*
X055776Y025151D01*
X055776Y025401D01*
X055901Y025526D01*
X056701Y025526D01*
X056701Y025901D01*
X056701Y025526D02*
X056701Y025151D01*
X056701Y024401D01*
X056701Y023651D01*
X056701Y022901D01*
X056101Y022901D02*
X056101Y023651D01*
X056101Y024401D01*
X055651Y024401D01*
X056101Y024401D02*
X056101Y025151D01*
X056701Y025151D02*
X057151Y025151D01*
X056101Y025901D02*
X056026Y025901D01*
X055726Y026201D01*
X055401Y026201D01*
X054651Y026201D01*
X054651Y026151D01*
X054651Y026201D02*
X054401Y026401D01*
X054401Y026651D01*
X053901Y026651D02*
X053901Y026201D01*
X053151Y026201D01*
X052401Y025601D02*
X051651Y025601D01*
X051651Y025151D01*
X051651Y025601D02*
X050901Y025601D01*
X050901Y026201D02*
X051651Y026201D01*
X051651Y026651D01*
X051901Y027901D02*
X051151Y028651D01*
X047401Y031651D02*
X046651Y032401D01*
X046151Y032401D02*
X047151Y031401D01*
X047151Y021776D01*
X046526Y021151D01*
X046526Y019901D01*
X047526Y018901D01*
X047601Y018901D01*
X047601Y019651D02*
X047276Y019651D01*
X046776Y020151D01*
X046776Y021026D01*
X047401Y021651D01*
X047401Y031651D01*
X055901Y029401D02*
X055901Y028951D01*
X056651Y028951D01*
X056651Y028351D02*
X055901Y028351D01*
X055901Y026651D01*
X055401Y025601D02*
X054651Y025601D01*
X051651Y023651D02*
X051201Y023651D01*
X051201Y024401D01*
X050601Y024401D02*
X050601Y025026D01*
X050601Y024401D02*
X050601Y023651D01*
X050601Y022901D01*
X050601Y022151D01*
X050651Y022151D01*
X051201Y022151D02*
X051201Y022901D01*
X051201Y023651D01*
X050601Y023651D02*
X050151Y023651D01*
X050151Y022901D02*
X050601Y022901D01*
X051201Y022901D02*
X051651Y022901D01*
X052401Y021151D02*
X052401Y020701D01*
X051651Y020701D01*
X050901Y020701D01*
X050901Y020101D02*
X051651Y020101D01*
X052401Y020101D01*
X053901Y020701D02*
X053901Y021151D01*
X053901Y020701D02*
X054651Y020701D01*
X059101Y023776D02*
X059726Y023151D01*
X060506Y023151D01*
X059706Y023781D02*
X059701Y023776D01*
X059706Y023781D02*
X059706Y024081D01*
X059901Y024276D01*
X059851Y024726D02*
X060506Y024726D01*
X059851Y024726D02*
X059401Y024276D01*
X059101Y023976D01*
X059101Y023776D01*
X059706Y023781D02*
X060506Y023781D01*
X060506Y025671D02*
X059921Y025671D01*
X059901Y025651D01*
X064151Y023776D02*
X064156Y023781D01*
X064797Y023781D01*
X065276Y024276D02*
X065401Y024151D01*
X065401Y023401D01*
X065151Y023151D01*
X064797Y023151D01*
X065276Y024276D02*
X065276Y024651D01*
X065601Y024651D01*
X065276Y024651D02*
X065201Y024726D01*
X064797Y024726D01*
X065381Y025671D02*
X066151Y024901D01*
X066151Y024701D01*
X066201Y024651D01*
X066151Y024601D01*
X066201Y024651D02*
X066651Y024651D01*
X065381Y025671D02*
X064797Y025671D01*
X065276Y026276D02*
X065401Y026151D01*
X065276Y026276D02*
X065276Y026616D01*
X065276Y027151D01*
X065182Y027246D01*
X064797Y027246D01*
X065601Y027401D02*
X065601Y026651D01*
X065566Y026616D01*
X065276Y026616D01*
X064797Y026616D01*
X066201Y026651D02*
X066201Y027401D01*
X066201Y026651D02*
X066651Y026651D01*
X048901Y020401D02*
X048201Y020401D01*
X048201Y021151D01*
X047601Y021151D02*
X047601Y020401D01*
X047151Y020401D01*
D35*
X052901Y030651D03*
X053901Y030651D03*
X054901Y030651D03*
X058651Y032651D03*
X061151Y032651D03*
X061151Y031651D03*
X064151Y030151D03*
X056401Y034151D03*
X056151Y037151D03*
X056151Y037651D03*
X056151Y038151D03*
X053651Y038651D03*
X052651Y038651D03*
D36*
X045401Y033651D03*
X045901Y030901D03*
X044651Y029401D03*
X044651Y028151D03*
D37*
X042901Y025401D02*
X041901Y025901D01*
X040651Y025901D01*
X058276Y038026D02*
X059651Y036651D01*
X062851Y036651D01*
X063451Y036651D02*
X064851Y036651D01*
X064901Y036701D01*
X064901Y037901D01*
X064651Y038151D01*
X064651Y038659D01*
X064643Y038667D01*
X065451Y036651D02*
X065451Y035701D01*
X064276Y034526D01*
X064151Y034526D01*
X065651Y005651D02*
X064951Y004951D01*
X064151Y004951D01*
X063851Y004951D01*
X063651Y005151D01*
X063151Y005151D01*
X063151Y004151D02*
X063651Y004151D01*
X063851Y004351D01*
X064151Y004351D01*
X065351Y004351D01*
X065651Y004651D01*
X066151Y005151D02*
X066651Y005651D01*
X066151Y005151D02*
X066151Y003651D01*
X064951Y002451D01*
X064151Y002451D01*
X063851Y002451D01*
X063651Y002651D01*
X063151Y002651D01*
X063151Y001651D02*
X063651Y001651D01*
X063851Y001851D01*
X064151Y001851D01*
X064851Y001851D01*
X066651Y003651D01*
X066651Y004651D01*
D38*
X064151Y030151D02*
X064151Y031776D01*
X062401Y032901D02*
X061151Y031651D01*
X062401Y032901D02*
X062401Y033901D01*
X063026Y034526D01*
X064151Y034526D01*
X061026Y038151D02*
X060901Y038276D01*
X060901Y039401D01*
X059651Y040651D01*
X058276Y038151D02*
X058276Y038026D01*
X056401Y036151D01*
X056401Y034151D01*
X056401Y033151D01*
X056401Y031901D01*
X057401Y031901D02*
X057401Y033151D01*
X058151Y033151D01*
X058651Y032651D01*
D39*
X065151Y029901D02*
X065401Y030151D01*
X065401Y034901D01*
X066151Y035651D01*
X066151Y037401D01*
X065401Y038151D01*
X065401Y038651D01*
X064901Y039151D01*
X064159Y039151D01*
X063659Y039651D01*
X064643Y039651D02*
X065651Y039651D01*
X066101Y039201D01*
X066151Y038601D02*
X066151Y037901D01*
X066401Y037651D01*
X066401Y035401D01*
X065651Y034651D01*
X065651Y029901D01*
X065151Y029401D01*
X061026Y027151D02*
X061026Y026776D01*
X060866Y026616D01*
X060506Y026616D01*
X061026Y027151D02*
X060932Y027246D01*
X060506Y027246D01*
X059996Y027246D01*
X059651Y026901D01*
X049151Y033901D02*
X049151Y034401D01*
X048951Y034601D01*
X048951Y034901D01*
X048951Y035226D01*
X048776Y035401D01*
X048776Y035776D01*
X048951Y035951D01*
X048951Y036151D01*
X048351Y036751D01*
X048351Y036901D01*
X048951Y036901D02*
X048951Y037651D01*
X048651Y038151D02*
X051151Y038151D01*
X052151Y039151D01*
X052151Y040289D01*
X052159Y040297D01*
X048651Y038151D02*
X048351Y037851D01*
X048351Y037651D01*
X048951Y036901D02*
X049401Y036901D01*
X048351Y036151D02*
X047901Y036151D01*
X048151Y035401D02*
X048351Y035201D01*
X048351Y034901D01*
X048351Y034601D01*
X048151Y034401D01*
X048151Y033901D01*
X042151Y027901D02*
X041901Y027651D01*
X041901Y026901D01*
X040651Y026901D01*
X039276Y024776D02*
X039276Y023901D01*
X038901Y023526D01*
X038901Y023201D01*
X039651Y023201D01*
X040026Y022901D02*
X039726Y022601D01*
X039651Y022601D01*
X038901Y022601D01*
X037901Y022901D02*
X037601Y022601D01*
X037401Y022601D01*
X036651Y022601D01*
X036651Y023201D02*
X037401Y023201D01*
X036651Y023201D02*
X036651Y023651D01*
X035526Y023651D02*
X035526Y022976D01*
X035151Y022601D01*
X035151Y023201D02*
X035151Y024776D01*
X035276Y024901D01*
X033901Y025151D02*
X033351Y024601D01*
X033151Y024601D01*
X033151Y025201D02*
X033151Y026651D01*
X032901Y026901D01*
X031901Y026901D02*
X031901Y025901D01*
X031651Y025651D01*
X031651Y025201D01*
X032401Y025201D01*
X032401Y024601D02*
X032401Y024276D01*
X032651Y024026D01*
X033026Y023651D01*
X033526Y023651D01*
X033701Y023476D01*
X033701Y023276D01*
X031651Y024601D02*
X031451Y024601D01*
X030901Y025151D01*
X030901Y025401D01*
X026151Y026151D02*
X018901Y018901D01*
X018901Y018651D01*
X019151Y019651D02*
X025651Y026151D01*
X025651Y030401D01*
X025601Y030401D01*
X024851Y031151D01*
X024851Y031301D01*
X025451Y031901D01*
X024851Y031901D02*
X023651Y031901D01*
X023401Y030901D02*
X022651Y031651D01*
X023401Y030901D02*
X023651Y030901D01*
X025451Y031151D02*
X025651Y031151D01*
X025901Y031401D01*
X026151Y031151D01*
X026351Y031151D01*
X026951Y031151D02*
X026201Y030401D01*
X026151Y030401D01*
X026151Y026151D01*
X027901Y030151D02*
X028151Y030401D01*
X028151Y030901D01*
X026951Y031151D02*
X026951Y031301D01*
X026351Y031901D01*
X026951Y031901D02*
X028151Y031901D01*
X028201Y031901D01*
X017901Y030151D02*
X017651Y030401D01*
X017651Y030901D01*
X016776Y032651D02*
X016326Y032651D01*
X016026Y033151D02*
X015726Y032851D01*
X015726Y032651D01*
X014826Y032651D01*
X014776Y032701D01*
X014776Y033151D01*
X014601Y033326D01*
X014601Y033651D01*
X015201Y033651D02*
X016026Y033651D01*
X014276Y032651D02*
X013901Y033026D01*
X014226Y032651D02*
X014276Y032651D01*
X013401Y033026D02*
X013151Y032776D01*
X013076Y032651D01*
X012476Y032651D02*
X012476Y033426D01*
X012701Y033651D01*
X012101Y033651D02*
X011276Y033651D01*
X010976Y032651D02*
X010526Y032651D01*
X011576Y032651D02*
X012476Y032651D01*
X013226Y031901D01*
X013351Y031901D01*
X013401Y031851D01*
X013401Y030401D01*
X013901Y031401D02*
X013901Y031851D01*
X013951Y031901D01*
X023976Y020651D02*
X023976Y020226D01*
X023901Y020151D01*
X024401Y020151D02*
X024576Y020326D01*
X024576Y020651D01*
X023151Y019401D02*
X023101Y019451D01*
X022651Y019451D01*
X022651Y018851D02*
X023101Y018851D01*
X023151Y018901D01*
X023101Y017451D02*
X023151Y017401D01*
X023101Y017451D02*
X022651Y017451D01*
X022651Y016851D02*
X023101Y016851D01*
X023151Y016901D01*
X023651Y016151D02*
X023726Y016076D01*
X023726Y015651D01*
X024326Y015651D02*
X024326Y016076D01*
X024401Y016151D01*
X025651Y017076D02*
X026401Y017076D01*
X026401Y017526D01*
X026401Y018851D01*
X026401Y019451D02*
X026401Y019901D01*
X031526Y021151D02*
X032026Y020651D01*
X033401Y020651D01*
X034401Y020651D02*
X034551Y020426D01*
X034401Y020401D01*
X034401Y019401D01*
X034151Y019151D01*
X033701Y019151D01*
X033701Y018401D01*
X033701Y017651D01*
X033101Y017651D02*
X033101Y018401D01*
X031654Y018401D01*
X031590Y018337D01*
X032651Y019276D02*
X032776Y019276D01*
X032901Y019151D01*
X033101Y019151D01*
X034901Y017151D02*
X034151Y016401D01*
X034151Y015401D02*
X034151Y014151D01*
X033526Y013526D01*
X035401Y015101D02*
X036151Y015101D01*
X036151Y015026D01*
X036526Y014651D01*
X036526Y013526D01*
X037276Y014651D02*
X036901Y015026D01*
X036901Y015101D01*
X037651Y015101D01*
X037651Y015701D02*
X036901Y015701D01*
X036151Y015701D01*
X035401Y015701D01*
X037651Y015701D02*
X037651Y016276D01*
X037651Y015701D02*
X038401Y015701D01*
X038401Y015101D02*
X038451Y015101D01*
X038776Y014776D01*
X038776Y013526D01*
X038901Y011701D02*
X039226Y011701D01*
X039401Y011526D01*
X039401Y010651D01*
X038901Y010651D02*
X038901Y011101D01*
X040526Y011101D02*
X040526Y010651D01*
X040526Y011701D02*
X040576Y011701D01*
X040776Y011901D01*
X041026Y011901D01*
X040901Y016151D02*
X041006Y016344D01*
X041276Y016614D01*
X041276Y017276D01*
X041201Y017401D01*
X041201Y018151D01*
X040601Y018151D02*
X040601Y017401D01*
X040276Y017401D01*
X039901Y017026D01*
X039901Y016151D01*
X041006Y016344D02*
X041051Y016426D01*
X040901Y017026D02*
X040601Y017326D01*
X040601Y017401D01*
X041201Y017401D02*
X042526Y017401D01*
X042776Y017151D01*
X041201Y018901D02*
X041476Y019151D01*
X041651Y019151D01*
X041651Y019651D02*
X041401Y019651D01*
X041026Y019276D01*
X040601Y018901D01*
X028901Y013151D02*
X028601Y013451D01*
X028601Y014901D01*
X026776Y016401D02*
X026451Y016401D01*
X026401Y016476D01*
X015401Y009401D02*
X015401Y007901D01*
X014901Y007901D02*
X014901Y009401D01*
X013651Y010651D01*
X013651Y011901D01*
X013151Y011901D02*
X013151Y012201D01*
X013601Y012651D01*
X014201Y012651D02*
X014651Y012651D01*
X014151Y011901D02*
X014151Y010651D01*
X015401Y009401D01*
X017901Y006401D02*
X017901Y005401D01*
X020276Y005276D02*
X020276Y004326D01*
X020451Y004151D01*
X020901Y004151D01*
X020276Y004326D02*
X019901Y003951D01*
X020401Y003651D02*
X020901Y003151D01*
X020401Y003651D02*
X020101Y003351D01*
X019901Y003351D01*
X018201Y002651D02*
X018201Y002101D01*
X018401Y001901D01*
X017601Y002651D02*
X016901Y001951D01*
X016901Y001901D01*
X013901Y001901D02*
X013701Y002101D01*
X013701Y002651D01*
X013101Y002651D02*
X012401Y001951D01*
X012401Y001901D01*
X009401Y001901D02*
X009201Y002101D01*
X009201Y002651D01*
X008601Y002651D02*
X007901Y001951D01*
X007901Y001901D01*
X008401Y007651D02*
X010651Y007651D01*
X008651Y008151D02*
X008651Y009651D01*
X007651Y010651D01*
X007651Y011901D01*
X007151Y011901D02*
X007151Y010651D01*
X008151Y009651D01*
X008151Y007901D01*
X008401Y007651D01*
X006651Y011901D02*
X006651Y012201D01*
X007101Y012651D01*
X007701Y012651D02*
X008151Y012651D01*
X023151Y003951D02*
X023201Y003951D01*
X023526Y004276D01*
X023651Y004151D01*
X024151Y004151D01*
X023526Y004276D02*
X023526Y005276D01*
X023651Y003651D02*
X023351Y003351D01*
X023151Y003351D01*
X023651Y003651D02*
X024151Y003151D01*
X026151Y003351D02*
X026201Y003401D01*
X026401Y003401D01*
X026651Y003651D01*
X027151Y003151D01*
X027151Y004151D02*
X026701Y004151D01*
X026526Y004326D01*
X026151Y003951D01*
X026526Y004326D02*
X026526Y005276D01*
X037026Y006476D02*
X037776Y006476D01*
X037776Y006026D01*
X038651Y006401D02*
X039326Y007076D01*
X039526Y007076D01*
X039526Y006476D02*
X039526Y006276D01*
X039776Y006026D01*
X040521Y006406D02*
X040526Y006401D01*
X040521Y006406D02*
X040521Y006776D01*
X040821Y007076D01*
X041151Y007076D01*
X041151Y006476D02*
X041151Y006276D01*
X041401Y006026D01*
X038651Y006401D02*
X037976Y007076D01*
X037776Y007076D01*
X037026Y007076D01*
X045276Y007076D02*
X045576Y007076D01*
X045776Y007276D01*
X045276Y006476D02*
X045276Y006276D01*
X045526Y006026D01*
M02*
