G75*
G70*
%OFA0B0*%
%FSLAX24Y24*%
%IPPOS*%
%LPD*%
%AMOC8*
5,1,8,0,0,1.08239X$1,22.5*
%
%ADD10R,0.0680X0.0680*%
%ADD11OC8,0.0680*%
%ADD12R,0.0395X0.0434*%
%ADD13R,0.0434X0.0395*%
%ADD14R,0.0631X0.0789*%
%ADD15R,0.0789X0.0631*%
%ADD16R,0.0631X0.0828*%
%ADD17OC8,0.0623*%
%ADD18OC8,0.1025*%
%ADD19C,0.0641*%
%ADD20C,0.1386*%
%ADD21R,0.1080X0.1080*%
%ADD22OC8,0.1080*%
%ADD23R,0.1182X0.1576*%
%ADD24R,0.1576X0.1182*%
%ADD25R,0.1084X0.1064*%
%ADD26R,0.1104X0.1025*%
%ADD27OC8,0.0671*%
%ADD28C,0.0513*%
%ADD29C,0.0710*%
%ADD30C,0.0966*%
%ADD31C,0.1261*%
%ADD32C,0.0867*%
%ADD33R,0.0828X0.0631*%
%ADD34R,0.0620X0.0620*%
%ADD35OC8,0.0620*%
%ADD36OC8,0.0966*%
%ADD37OC8,0.0780*%
%ADD38R,0.0780X0.0780*%
%ADD39R,0.0867X0.1025*%
%ADD40C,0.2080*%
%ADD41C,0.0350*%
%ADD42C,0.0436*%
%ADD43C,0.0493*%
D10*
X024600Y012618D03*
X004600Y026118D03*
X046850Y007368D03*
X067350Y022118D03*
D11*
X068350Y022118D03*
X068350Y021118D03*
X067350Y021118D03*
X067350Y020118D03*
X068350Y020118D03*
X068350Y019118D03*
X067350Y019118D03*
X067350Y018118D03*
X068350Y018118D03*
X068350Y017118D03*
X067350Y017118D03*
X067350Y016118D03*
X067350Y015118D03*
X068350Y015118D03*
X068350Y016118D03*
X068350Y014118D03*
X067350Y014118D03*
X067350Y013118D03*
X068350Y013118D03*
X068350Y012118D03*
X067350Y012118D03*
X067350Y011118D03*
X068350Y011118D03*
X068350Y010118D03*
X067350Y010118D03*
X067350Y009118D03*
X068350Y009118D03*
X050850Y008368D03*
X049850Y008368D03*
X049850Y007368D03*
X050850Y007368D03*
X048850Y007368D03*
X047850Y007368D03*
X047850Y008368D03*
X048850Y008368D03*
X046850Y008368D03*
X026600Y012618D03*
X025600Y012618D03*
X025600Y013618D03*
X024600Y013618D03*
X026600Y013618D03*
X009600Y026118D03*
X008600Y026118D03*
X007600Y026118D03*
X006600Y026118D03*
X005600Y026118D03*
X005600Y027118D03*
X004600Y027118D03*
X006600Y027118D03*
X007600Y027118D03*
X008600Y027118D03*
X009600Y027118D03*
X065850Y045618D03*
D12*
X065100Y041168D03*
X065100Y040568D03*
X051850Y040418D03*
X051850Y039818D03*
X051100Y039818D03*
X051100Y040418D03*
X046850Y044318D03*
X046225Y044318D03*
X046225Y044918D03*
X046850Y044918D03*
X030850Y034168D03*
X030850Y033568D03*
X030100Y033568D03*
X030100Y034168D03*
X029350Y033418D03*
X029350Y032818D03*
X030100Y032668D03*
X030100Y032068D03*
X030850Y032068D03*
X030850Y032668D03*
X026350Y032668D03*
X026350Y032068D03*
X025600Y032068D03*
X025600Y032668D03*
X024850Y032818D03*
X024850Y033418D03*
X025600Y033568D03*
X025600Y034168D03*
X026350Y034168D03*
X026350Y033568D03*
X019850Y032918D03*
X019850Y032318D03*
X019100Y032043D03*
X019100Y031443D03*
X018100Y031668D03*
X018100Y031068D03*
X019100Y030543D03*
X019100Y029943D03*
X019100Y033193D03*
X018100Y033568D03*
X018100Y034168D03*
X019100Y033793D03*
X019100Y034693D03*
X019100Y035293D03*
X031600Y026668D03*
X031600Y026068D03*
X032350Y026068D03*
X032350Y026668D03*
X033100Y026668D03*
X033100Y026068D03*
X035100Y024668D03*
X035100Y024068D03*
X036600Y024068D03*
X036600Y024668D03*
X037350Y024668D03*
X037350Y024068D03*
X038850Y024068D03*
X038850Y024668D03*
X039600Y024668D03*
X039600Y024068D03*
X038350Y017168D03*
X037600Y017168D03*
X036850Y017168D03*
X036100Y017168D03*
X035350Y017168D03*
X035350Y016568D03*
X036100Y016568D03*
X036850Y016568D03*
X037600Y016568D03*
X038350Y016568D03*
X038850Y013168D03*
X038850Y012568D03*
X040475Y012568D03*
X040475Y013168D03*
X042225Y013168D03*
X042225Y012568D03*
X041100Y008543D03*
X041100Y007943D03*
X039475Y007943D03*
X039475Y008543D03*
X037725Y008543D03*
X037725Y007943D03*
X036975Y007943D03*
X036975Y008543D03*
X034600Y013568D03*
X033850Y013568D03*
X033850Y014168D03*
X034600Y014168D03*
X026850Y017943D03*
X026850Y018543D03*
X026100Y018543D03*
X026100Y017943D03*
X023475Y018318D03*
X023475Y018918D03*
X023475Y020318D03*
X023475Y020918D03*
X027725Y020668D03*
X027725Y020068D03*
X017100Y022818D03*
X017100Y023418D03*
X016350Y023568D03*
X016350Y024168D03*
X015600Y024168D03*
X015600Y023568D03*
X015600Y022668D03*
X015600Y022068D03*
X016350Y022068D03*
X016350Y022668D03*
X016350Y017168D03*
X015600Y017168D03*
X015600Y016568D03*
X016350Y016568D03*
X017100Y016418D03*
X017100Y015818D03*
X016350Y015668D03*
X015600Y015668D03*
X015600Y015068D03*
X016350Y015068D03*
X045225Y008543D03*
X045225Y007943D03*
X051600Y021568D03*
X052350Y021568D03*
X052350Y022168D03*
X051600Y022168D03*
X053850Y022168D03*
X054600Y022168D03*
X054600Y021568D03*
X053850Y021568D03*
X054600Y025193D03*
X054600Y025793D03*
X054600Y027068D03*
X054600Y027668D03*
X053850Y027668D03*
X053850Y027068D03*
X053100Y027068D03*
X053100Y027668D03*
X051600Y027668D03*
X051600Y027068D03*
X050850Y027068D03*
X050850Y027668D03*
X049850Y029818D03*
X049850Y030418D03*
X049100Y030418D03*
X049100Y029818D03*
X055850Y029418D03*
X055850Y028818D03*
X056600Y028818D03*
X056600Y029418D03*
X062850Y027168D03*
X062850Y026568D03*
D13*
X056650Y026618D03*
X056050Y026618D03*
X056050Y025868D03*
X056650Y025868D03*
X056650Y025118D03*
X056050Y025118D03*
X056050Y027368D03*
X056650Y027368D03*
X051150Y025868D03*
X050550Y025868D03*
X050550Y025118D03*
X051150Y025118D03*
X051150Y024368D03*
X050550Y024368D03*
X050550Y023618D03*
X051150Y023618D03*
X048150Y022618D03*
X047550Y022618D03*
X047550Y021868D03*
X048150Y021868D03*
X048150Y021118D03*
X047550Y021118D03*
X047550Y020368D03*
X048150Y020368D03*
X052550Y018118D03*
X053150Y018118D03*
X054050Y018118D03*
X054650Y018118D03*
X056050Y021868D03*
X056650Y021868D03*
X056650Y022618D03*
X056050Y022618D03*
X061800Y020118D03*
X062400Y020118D03*
X048400Y034618D03*
X047800Y034618D03*
X049300Y036868D03*
X049900Y036868D03*
X061800Y037618D03*
X062400Y037618D03*
X063300Y037618D03*
X063900Y037618D03*
X067550Y041368D03*
X068150Y041368D03*
X068150Y042118D03*
X067550Y042118D03*
X067550Y042868D03*
X068150Y042868D03*
X063900Y042618D03*
X063300Y042618D03*
X041150Y022243D03*
X040550Y022243D03*
X040550Y021493D03*
X041150Y021493D03*
X041150Y020368D03*
X040550Y020368D03*
X040550Y019618D03*
X041150Y019618D03*
X041150Y018868D03*
X040550Y018868D03*
X033650Y019118D03*
X033050Y019118D03*
X033050Y019868D03*
X033650Y019868D03*
X033650Y020618D03*
X033050Y020618D03*
X029275Y017743D03*
X028675Y017743D03*
X028675Y017118D03*
X029275Y017118D03*
X024900Y017493D03*
X024300Y017493D03*
X024425Y021743D03*
X025025Y021743D03*
X033050Y023993D03*
X033650Y023993D03*
X033650Y024743D03*
X033050Y024743D03*
X028150Y009868D03*
X027550Y009868D03*
X009775Y023118D03*
X009175Y023118D03*
X008275Y023118D03*
X007675Y023118D03*
X007400Y022368D03*
X006800Y022368D03*
X006525Y023118D03*
X005925Y023118D03*
X005025Y023118D03*
X004425Y023118D03*
X005550Y024118D03*
X006150Y024118D03*
X008050Y024118D03*
X008650Y024118D03*
D14*
X052850Y028868D03*
X053850Y028868D03*
X056100Y024243D03*
X057100Y024243D03*
X054350Y019493D03*
X053350Y019493D03*
X056350Y034368D03*
X057350Y034368D03*
D15*
X054913Y029931D03*
X054913Y028931D03*
X049725Y021618D03*
X049725Y020618D03*
X041850Y027368D03*
X041850Y028368D03*
D16*
X034350Y022118D03*
X033350Y022118D03*
X039850Y017618D03*
X040850Y017618D03*
X028350Y010868D03*
X027350Y010868D03*
X016600Y018368D03*
X015600Y018368D03*
X015600Y025368D03*
X016600Y025368D03*
X025350Y030868D03*
X026350Y030868D03*
X029850Y030868D03*
X030850Y030868D03*
X047600Y035618D03*
X048600Y035618D03*
X052600Y037993D03*
X053600Y037993D03*
D17*
X048600Y039618D03*
X048600Y040406D03*
X048600Y041193D03*
X048600Y041981D03*
D18*
X049742Y042177D03*
X047458Y042177D03*
X047458Y039421D03*
X049742Y039421D03*
D19*
X053108Y040453D02*
X053108Y041014D01*
X053108Y041801D02*
X053108Y042362D01*
X054092Y042362D02*
X054092Y041801D01*
X054092Y041014D02*
X054092Y040453D01*
D20*
X055962Y042868D03*
X051238Y042868D03*
D21*
X059600Y041368D03*
D22*
X057600Y042493D03*
X059600Y043743D03*
X044533Y043152D03*
X044533Y045317D03*
X043746Y046262D03*
D23*
X058225Y039118D03*
X060975Y039118D03*
D24*
X064100Y035993D03*
X064100Y033243D03*
D25*
X059350Y035618D03*
X057350Y035618D03*
D26*
X059100Y032868D03*
X059100Y030868D03*
X061600Y030868D03*
X061600Y032868D03*
D27*
X063108Y039634D03*
X064092Y039634D03*
X064092Y040618D03*
X063108Y040618D03*
X063108Y041603D03*
X064092Y041603D03*
D28*
X055533Y012542D03*
D29*
X063840Y012542D03*
D30*
X016696Y010042D03*
X016696Y007542D03*
X016696Y005042D03*
X012196Y005042D03*
X009696Y005042D03*
X009696Y007542D03*
X012196Y007542D03*
X012196Y010042D03*
X009696Y010042D03*
X005196Y010042D03*
X005196Y007542D03*
X005196Y005042D03*
X004004Y040195D03*
X004004Y042695D03*
X004004Y045195D03*
X008504Y045195D03*
X008504Y042695D03*
X008504Y040195D03*
D31*
X004842Y041435D03*
X008858Y008801D03*
X015858Y008801D03*
D32*
X016696Y006301D03*
X012196Y006301D03*
X009696Y006301D03*
X005196Y006301D03*
X004004Y043935D03*
X008504Y043935D03*
D33*
X040600Y028368D03*
X040600Y027368D03*
X034100Y017868D03*
X034100Y016868D03*
D34*
X029850Y004868D03*
D35*
X030850Y004868D03*
X031850Y004868D03*
X032850Y004868D03*
X033850Y004868D03*
X034850Y004868D03*
X035850Y004868D03*
X035850Y005868D03*
X034850Y005868D03*
X033850Y005868D03*
X032850Y005868D03*
X031850Y005868D03*
X030850Y005868D03*
X029850Y005868D03*
D36*
X029504Y038805D03*
X030004Y040057D03*
X029504Y041305D03*
X030004Y042557D03*
X029504Y043805D03*
X030004Y045055D03*
X031504Y043805D03*
X032004Y042557D03*
X031504Y041305D03*
X032004Y040057D03*
X031504Y038805D03*
X036504Y038805D03*
X037004Y040057D03*
X036504Y041305D03*
X037004Y042557D03*
X036504Y043805D03*
X037004Y045055D03*
X032504Y046187D03*
X032004Y045055D03*
X025504Y046187D03*
X025004Y045055D03*
X024504Y043805D03*
X025004Y042557D03*
X024504Y041305D03*
X025004Y040057D03*
X024504Y038805D03*
X023004Y040057D03*
X022504Y041305D03*
X023004Y042557D03*
X022504Y043805D03*
X023004Y045055D03*
X018504Y046187D03*
X018004Y045055D03*
X016004Y045055D03*
X015504Y043805D03*
X016004Y042557D03*
X017504Y043805D03*
X018004Y042557D03*
X017504Y041305D03*
X018004Y040057D03*
X017504Y038805D03*
X016004Y040057D03*
X015504Y041305D03*
X015504Y038805D03*
X011004Y040057D03*
X010504Y041305D03*
X011004Y042557D03*
X010504Y043805D03*
X011004Y045055D03*
X011504Y046187D03*
X010504Y038805D03*
X022504Y038805D03*
D37*
X039350Y039368D03*
X039350Y040368D03*
X039350Y041368D03*
X039350Y042368D03*
X024850Y005868D03*
X023850Y005868D03*
D38*
X025850Y005868D03*
X039350Y038368D03*
D39*
X047938Y032618D03*
X049512Y032618D03*
D40*
X002100Y004618D03*
X039350Y004618D03*
X068100Y004618D03*
X068100Y044868D03*
X039350Y044868D03*
X002100Y044868D03*
D41*
X004350Y036618D03*
X005600Y034868D03*
X003600Y033118D03*
X004350Y032493D03*
X005600Y031743D03*
X005225Y030243D03*
X010504Y035272D03*
X012100Y036368D03*
X014600Y036618D03*
X015100Y035618D03*
X016600Y035618D03*
X018100Y034993D03*
X018600Y034993D03*
X019100Y035743D03*
X020850Y036868D03*
X021350Y036618D03*
X022600Y036118D03*
X024600Y035118D03*
X026600Y036368D03*
X027100Y034368D03*
X027975Y034743D03*
X029100Y035118D03*
X028475Y033368D03*
X028725Y032868D03*
X026850Y033118D03*
X025850Y033118D03*
X024350Y033118D03*
X024475Y032368D03*
X022600Y032118D03*
X021350Y032368D03*
X020350Y032868D03*
X021975Y033993D03*
X018725Y032868D03*
X018725Y032368D03*
X018100Y030243D03*
X019100Y029493D03*
X021100Y028368D03*
X021600Y028618D03*
X023600Y027368D03*
X023975Y027618D03*
X024725Y027618D03*
X025350Y027118D03*
X025100Y026868D03*
X026100Y026868D03*
X026600Y026618D03*
X024725Y028243D03*
X024850Y029118D03*
X024600Y031118D03*
X027600Y031118D03*
X027600Y030368D03*
X029100Y031118D03*
X030350Y033118D03*
X031350Y033118D03*
X031600Y034368D03*
X032475Y034743D03*
X031100Y036368D03*
X036100Y031243D03*
X036850Y031243D03*
X034100Y030493D03*
X032850Y029618D03*
X032100Y030368D03*
X032100Y031118D03*
X031850Y028368D03*
X032850Y028368D03*
X030850Y026868D03*
X032600Y025493D03*
X032600Y024743D03*
X031475Y024993D03*
X031350Y023868D03*
X032600Y023493D03*
X033350Y023493D03*
X034100Y023993D03*
X034100Y024368D03*
X034475Y024368D03*
X035475Y025118D03*
X036100Y024618D03*
X035725Y024118D03*
X036600Y025118D03*
X037850Y024368D03*
X038225Y025118D03*
X039975Y024368D03*
X040975Y025118D03*
X041600Y024618D03*
X041600Y023618D03*
X041600Y023243D03*
X041225Y022993D03*
X041600Y022743D03*
X041600Y022243D03*
X041600Y021493D03*
X041600Y021118D03*
X041600Y020618D03*
X042725Y020868D03*
X043475Y021743D03*
X043725Y022118D03*
X043975Y022368D03*
X044225Y022743D03*
X042725Y023368D03*
X042725Y023743D03*
X043225Y024118D03*
X043850Y024868D03*
X043850Y025368D03*
X043225Y025618D03*
X042850Y026118D03*
X042850Y026868D03*
X044850Y026368D03*
X044725Y025368D03*
X045225Y025118D03*
X046225Y025868D03*
X046600Y025868D03*
X046600Y027118D03*
X046600Y027618D03*
X046600Y028368D03*
X046600Y028868D03*
X048475Y028993D03*
X048850Y028743D03*
X049225Y028368D03*
X050100Y028118D03*
X050850Y028118D03*
X051600Y028118D03*
X051975Y028118D03*
X052350Y028118D03*
X053350Y028118D03*
X053850Y028118D03*
X054350Y028118D03*
X055350Y028118D03*
X055725Y028118D03*
X056100Y028118D03*
X056475Y028118D03*
X058350Y028243D03*
X058350Y028618D03*
X058600Y027868D03*
X058975Y027618D03*
X059350Y027493D03*
X059600Y027118D03*
X059100Y026618D03*
X059600Y026118D03*
X059475Y025743D03*
X059850Y025493D03*
X059725Y024743D03*
X059100Y024743D03*
X058600Y024368D03*
X058600Y023993D03*
X058975Y023993D03*
X058975Y023618D03*
X060475Y024368D03*
X060975Y024368D03*
X061475Y023993D03*
X061725Y023368D03*
X062100Y023743D03*
X062350Y021743D03*
X062850Y021743D03*
X063225Y021868D03*
X063350Y020243D03*
X063350Y019743D03*
X062850Y020118D03*
X061350Y020118D03*
X060600Y019368D03*
X060600Y018868D03*
X060975Y018618D03*
X061475Y018493D03*
X058350Y021493D03*
X058850Y021868D03*
X057100Y021868D03*
X057100Y021243D03*
X056475Y021118D03*
X056100Y021118D03*
X055725Y021118D03*
X055350Y021118D03*
X054975Y021118D03*
X054600Y021118D03*
X054225Y021118D03*
X053850Y021118D03*
X052725Y021118D03*
X052350Y021118D03*
X051975Y021118D03*
X051600Y021118D03*
X051225Y021118D03*
X050850Y021118D03*
X050475Y019868D03*
X050100Y019493D03*
X050850Y019493D03*
X051225Y019493D03*
X051850Y019493D03*
X052100Y019243D03*
X052350Y018993D03*
X051725Y018118D03*
X053600Y018118D03*
X055475Y018118D03*
X054850Y019368D03*
X055600Y021868D03*
X057100Y022743D03*
X055475Y024243D03*
X055350Y024618D03*
X054850Y023743D03*
X054850Y023368D03*
X053850Y022618D03*
X052350Y022618D03*
X050600Y022743D03*
X050100Y022243D03*
X048850Y022243D03*
X048850Y021868D03*
X048850Y021493D03*
X048850Y021118D03*
X049100Y020743D03*
X047100Y021868D03*
X046600Y023243D03*
X046600Y023868D03*
X048600Y024618D03*
X050100Y024743D03*
X050100Y024368D03*
X050100Y025118D03*
X051600Y025118D03*
X051600Y024368D03*
X051600Y026618D03*
X054100Y025868D03*
X054600Y026618D03*
X055600Y025868D03*
X057100Y025868D03*
X057100Y026618D03*
X060100Y028618D03*
X059475Y028993D03*
X059850Y029243D03*
X060225Y029368D03*
X060600Y029493D03*
X061100Y028993D03*
X062350Y027743D03*
X062850Y027618D03*
X063475Y027368D03*
X063850Y027368D03*
X063850Y027743D03*
X064350Y027743D03*
X065100Y027743D03*
X062850Y026118D03*
X061725Y027493D03*
X061225Y027493D03*
X060600Y027118D03*
X054850Y031118D03*
X055475Y031618D03*
X056225Y031243D03*
X053350Y029618D03*
X052975Y029618D03*
X051850Y029368D03*
X050600Y029493D03*
X049850Y029368D03*
X049850Y030868D03*
X051725Y031368D03*
X052100Y031118D03*
X051350Y032368D03*
X050850Y032993D03*
X050350Y032618D03*
X048725Y032618D03*
X047100Y032618D03*
X046850Y033868D03*
X047850Y034118D03*
X048350Y034118D03*
X049975Y034243D03*
X051725Y034118D03*
X051725Y034743D03*
X050475Y037243D03*
X050350Y037618D03*
X049975Y037618D03*
X051350Y038618D03*
X048100Y036868D03*
X048100Y036368D03*
X047725Y037493D03*
X045975Y036993D03*
X045725Y036618D03*
X043975Y035993D03*
X043975Y035493D03*
X043850Y037868D03*
X043100Y037868D03*
X042350Y038868D03*
X040600Y039868D03*
X040100Y038368D03*
X044600Y039368D03*
X044600Y039868D03*
X045350Y039618D03*
X041850Y042618D03*
X040100Y043368D03*
X046225Y043868D03*
X046850Y045368D03*
X039725Y035118D03*
X039725Y034118D03*
X043100Y033118D03*
X043850Y032118D03*
X044350Y031618D03*
X042100Y029368D03*
X039975Y030118D03*
X039225Y026243D03*
X040350Y026180D03*
X037600Y026243D03*
X036350Y026368D03*
X035850Y026368D03*
X035225Y026368D03*
X033850Y026618D03*
X032600Y022618D03*
X031475Y022618D03*
X030850Y021993D03*
X031475Y021493D03*
X031100Y021118D03*
X030600Y020493D03*
X029600Y020243D03*
X029850Y019618D03*
X030100Y019243D03*
X030350Y018993D03*
X029600Y018743D03*
X029225Y018743D03*
X028475Y018618D03*
X028475Y018243D03*
X027975Y017493D03*
X027350Y017868D03*
X025600Y017993D03*
X024975Y017993D03*
X024600Y017993D03*
X023975Y018493D03*
X023975Y018993D03*
X023975Y020493D03*
X023975Y020868D03*
X024350Y021118D03*
X024725Y020868D03*
X025100Y021118D03*
X027225Y020993D03*
X027350Y022368D03*
X023225Y022618D03*
X022600Y022368D03*
X022600Y021868D03*
X020475Y023368D03*
X019850Y023243D03*
X019475Y023618D03*
X019100Y023993D03*
X018725Y024368D03*
X017350Y025118D03*
X018100Y023368D03*
X018350Y022868D03*
X018100Y021368D03*
X017350Y021118D03*
X015350Y019868D03*
X014350Y018868D03*
X014350Y018118D03*
X015100Y016118D03*
X016100Y016118D03*
X014850Y014868D03*
X013975Y014493D03*
X015350Y012868D03*
X017350Y014118D03*
X018100Y015118D03*
X017350Y018118D03*
X018475Y018493D03*
X018475Y018993D03*
X019350Y018993D03*
X019600Y018743D03*
X019850Y018493D03*
X020100Y018243D03*
X021850Y016743D03*
X026850Y019618D03*
X028725Y019368D03*
X031539Y019805D03*
X032600Y020743D03*
X034100Y020618D03*
X035600Y021243D03*
X035350Y021743D03*
X035100Y022243D03*
X040100Y022243D03*
X040850Y023243D03*
X040475Y023493D03*
X044475Y020118D03*
X044725Y018493D03*
X044975Y017743D03*
X045225Y016993D03*
X045475Y016243D03*
X047100Y016743D03*
X047350Y017118D03*
X047600Y017493D03*
X048600Y016868D03*
X048350Y016493D03*
X048100Y016118D03*
X047850Y015743D03*
X045725Y013743D03*
X044475Y011993D03*
X044725Y011493D03*
X044975Y010868D03*
X045225Y010243D03*
X045475Y009618D03*
X045725Y008743D03*
X045475Y007493D03*
X046100Y006118D03*
X044100Y004743D03*
X046100Y004118D03*
X041350Y007493D03*
X040475Y007868D03*
X039725Y007493D03*
X038600Y007868D03*
X037725Y007493D03*
X036475Y009993D03*
X036850Y010243D03*
X036475Y010493D03*
X036850Y010743D03*
X036475Y010993D03*
X036850Y011243D03*
X036475Y011493D03*
X036850Y011743D03*
X036475Y012118D03*
X035100Y013368D03*
X035100Y013743D03*
X034350Y014743D03*
X033975Y014743D03*
X033475Y014993D03*
X034600Y016118D03*
X033100Y016243D03*
X032850Y017368D03*
X032850Y017743D03*
X032600Y018118D03*
X034850Y018618D03*
X037600Y017743D03*
X037600Y016118D03*
X037975Y016118D03*
X038350Y016118D03*
X037225Y016118D03*
X036850Y016118D03*
X036100Y016118D03*
X036475Y014993D03*
X037100Y014368D03*
X037600Y014368D03*
X037975Y014368D03*
X038475Y014368D03*
X038975Y014368D03*
X038725Y014993D03*
X040725Y016118D03*
X041600Y016618D03*
X041975Y015868D03*
X041725Y015243D03*
X041350Y014243D03*
X040975Y013993D03*
X040975Y013368D03*
X041975Y013743D03*
X041725Y012118D03*
X042225Y012118D03*
X042975Y011993D03*
X043475Y011993D03*
X043725Y011493D03*
X043975Y011118D03*
X044225Y010743D03*
X042975Y009118D03*
X043225Y007868D03*
X040475Y012118D03*
X039350Y012118D03*
X038850Y012118D03*
X042725Y016493D03*
X041600Y018243D03*
X040850Y018493D03*
X042725Y018618D03*
X049600Y018368D03*
X054100Y014118D03*
X054600Y013868D03*
X056725Y011868D03*
X058100Y011868D03*
X058475Y011243D03*
X060100Y011868D03*
X060600Y011868D03*
X061600Y011868D03*
X062350Y014118D03*
X066475Y011243D03*
X068350Y007618D03*
X054100Y005618D03*
X053850Y004118D03*
X052350Y004118D03*
X052600Y006868D03*
X049850Y009118D03*
X032100Y006868D03*
X029100Y007868D03*
X027600Y009118D03*
X027850Y010368D03*
X026225Y010243D03*
X025475Y009993D03*
X025475Y010493D03*
X028350Y011618D03*
X029600Y011243D03*
X030350Y009868D03*
X031600Y013118D03*
X030850Y014868D03*
X030475Y015118D03*
X030100Y014618D03*
X028975Y015368D03*
X029725Y016743D03*
X020475Y024868D03*
X016100Y023118D03*
X015100Y023118D03*
X014850Y021868D03*
X013975Y021493D03*
X012850Y019868D03*
X011100Y021243D03*
X011100Y022118D03*
X010225Y023118D03*
X009475Y023618D03*
X009475Y024118D03*
X007350Y023493D03*
X006850Y023493D03*
X007350Y021868D03*
X006850Y020868D03*
X008475Y020243D03*
X006600Y019618D03*
X003100Y021368D03*
X003100Y022118D03*
X003975Y023118D03*
X004850Y024118D03*
X010600Y019618D03*
X014350Y025118D03*
X014350Y025868D03*
X016850Y037368D03*
X048350Y026368D03*
X048725Y026618D03*
X064600Y037868D03*
X066600Y037618D03*
X068350Y035868D03*
X068850Y042118D03*
X068850Y042868D03*
X066850Y042868D03*
X018350Y007868D03*
X018350Y005618D03*
X018350Y004118D03*
X020225Y004868D03*
X021975Y004868D03*
X022600Y004868D03*
X022600Y004118D03*
D42*
X036850Y027118D03*
X044850Y028368D03*
X044850Y029618D03*
X046100Y030118D03*
X037350Y035118D03*
X037350Y036368D03*
X067100Y033618D03*
D43*
X064100Y031618D03*
X061100Y034118D03*
X061100Y034868D03*
X058600Y034118D03*
X056350Y035618D03*
X057100Y037118D03*
X057850Y037118D03*
X058600Y037118D03*
X059350Y037118D03*
X060100Y037118D03*
X053600Y038868D03*
X052600Y038868D03*
X052850Y032118D03*
X053850Y032118D03*
X054850Y032118D03*
M02*
