%
M48
M72
T01C0.0150
T02C0.0236
T03C0.0276
T04C0.0360
T05C0.0362
T06C0.0374
T07C0.0394
T08C0.0400
T09C0.0433
T10C0.0531
T11C0.0560
T12C0.0591
T13C0.0630
T14C0.0906
T15C0.1260
%
T01
X7151Y1401
X7901Y1151
X7901Y1901
X9401Y1901
X11651Y1401
X12401Y1151
X12401Y1901
X13901Y1901
X16151Y1401
X16901Y1151
X16901Y1901
X18401Y1901
X19776Y1901
X20401Y1401
X21151Y1151
X21151Y1651
X22901Y1901
X23651Y1401
X24401Y1151
X24401Y1651
X25901Y1901
X26651Y1401
X27401Y1151
X27401Y1651
X28401Y2651
X27901Y3151
X26651Y3651
X25401Y3151
X24901Y3151
X23651Y3651
X22401Y3151
X21901Y3651
X21651Y3151
X20401Y3651
X19151Y3151
X20276Y5276
X17901Y5401
X17901Y6401
X15401Y7901
X14901Y7901
X16151Y9651
X14151Y11901
X13651Y11901
X13151Y11901
X14651Y12651
X9651Y9651
X8651Y8151
X10651Y7651
X7651Y11901
X7151Y11901
X6651Y11901
X8151Y12651
X8401Y15151
X8901Y16651
X10401Y17901
X18901Y18651
X19151Y19651
X21401Y20401
X22401Y21901
X23401Y20151
X23901Y20151
X24401Y20151
X23151Y19401
X23151Y18901
X23151Y17401
X23151Y16901
X23651Y16151
X24401Y16151
X25651Y16026
X26776Y16401
X27401Y15776
X27901Y15276
X29651Y14526
X28901Y13151
X31401Y12651
X31651Y12151
X33526Y13526
X34026Y13276
X34401Y13276
X35151Y12276
X35151Y11901
X36526Y10651
X36901Y10276
X36526Y10026
X36901Y9776
X36526Y9526
X36901Y9276
X36526Y9026
X36901Y8776
X36526Y8526
X38651Y6401
X37776Y6026
X39776Y6026
X40526Y6401
X41401Y6026
X43276Y6401
X43026Y7651
X45276Y8776
X45026Y9401
X44776Y10026
X44526Y10526
X43776Y10026
X44026Y9651
X44276Y9276
X43526Y10526
X43026Y10526
X42276Y10651
X41776Y10651
X40526Y10651
X39401Y10651
X38901Y10651
X41026Y11901
X41026Y12526
X41401Y12776
X42026Y12276
X41776Y13776
X42026Y14401
X42776Y15026
X41651Y15151
X40776Y14651
X38776Y13526
X38526Y12901
X38026Y12901
X37651Y12901
X37151Y12901
X36526Y13526
X36151Y14651
X36901Y14651
X37276Y14651
X37651Y14651
X38026Y14651
X38401Y14651
X37651Y16276
X35526Y17151
X34901Y17151
X34151Y17151
X32651Y16401
X32901Y15901
X33151Y15401
X33151Y14776
X34651Y14651
X31526Y16651
X30901Y16401
X30401Y16401
X29901Y16026
X29651Y16776
X29276Y17026
X29651Y17276
X29026Y17526
X29026Y18026
X28651Y18276
X28651Y18901
X29151Y19026
X29901Y18776
X30276Y18401
X29526Y18026
X30276Y19151
X29901Y19526
X30276Y20151
X30776Y20151
X31151Y19651
X31526Y20026
X31526Y21151
X30776Y21026
X30651Y21526
X30151Y21276
X30276Y22776
X31401Y22401
X31526Y23526
X32651Y23276
X32651Y24026
X33901Y25151
X35276Y24901
X35901Y24901
X36401Y24901
X36901Y25651
X37651Y24776
X39276Y24776
X40401Y24712
X41026Y23651
X41651Y23151
X41651Y22151
X41651Y21776
X41276Y21526
X40901Y21776
X40526Y22026
X40026Y22901
X38276Y23651
X37901Y22901
X36651Y23651
X35526Y23651
X34526Y22901
X34151Y22526
X33401Y22026
X32651Y22026
X32651Y21151
X35151Y20776
X35401Y20401
X35901Y20401
X34151Y19151
X34526Y18776
X35276Y18776
X32651Y19276
X31590Y18337
X27151Y18026
X27151Y18776
X26401Y17526
X26401Y19901
X27276Y21526
X27901Y22151
X30901Y25401
X31901Y26901
X32901Y26901
X32901Y28901
X34151Y29026
X36151Y29776
X36901Y29776
X40026Y28651
X42151Y27901
X42901Y25401
X42901Y24651
X43526Y24151
X43526Y23651
X43901Y23401
X44276Y23651
X44651Y23901
X44901Y23151
X46151Y23151
X46651Y23151
X46651Y24401
X46151Y24401
X45026Y24901
X43276Y22651
X42776Y22276
X42776Y21901
X41651Y21276
X41651Y20776
X41651Y20026
X41651Y19651
X41651Y19151
X42776Y19401
X43526Y20276
X43776Y20651
X44026Y20901
X44276Y21276
X47151Y20401
X48901Y20401
X48901Y20026
X48901Y19651
X49151Y19276
X50151Y18026
X50526Y18401
X50901Y18026
X51276Y18026
X51901Y18026
X52151Y17776
X52401Y17526
X51776Y16651
X53651Y16651
X54401Y17901
X54776Y17589
X55526Y16651
X55901Y16901
X57776Y17651
X58151Y18026
X58401Y18526
X58776Y18776
X59276Y18901
X59776Y19026
X61151Y19026
X61151Y18526
X61964Y18339
X60901Y17651
X61151Y17401
X61901Y17151
X62151Y17401
X62901Y17651
X63276Y18651
X63901Y18901
X64151Y19276
X64151Y19651
X64151Y20026
X64151Y20401
X63651Y20901
X63401Y20651
X64151Y21526
X65401Y21776
X65401Y22151
X65776Y21776
X64151Y23776
X63776Y23776
X64151Y24276
X64151Y24901
X64151Y25276
X64151Y25651
X64151Y26151
X64151Y26526
X64151Y26901
X65401Y26151
X66651Y26651
X66651Y24651
X65401Y24151
X61901Y24151
X61526Y24151
X61151Y24401
X59901Y24276
X59401Y24276
X59151Y24526
X58776Y24526
X58401Y24526
X57151Y24401
X57151Y25151
X55651Y24401
X54651Y25151
X54151Y24401
X51651Y23651
X51651Y22901
X50151Y22901
X50151Y22526
X50151Y22151
X50651Y21651
X50151Y20651
X50901Y19651
X51276Y19651
X51651Y19651
X52026Y19651
X52401Y19651
X52776Y19651
X53901Y19651
X54276Y19651
X54651Y19651
X55026Y19651
X55401Y19651
X55776Y19651
X56151Y19651
X56526Y19651
X57151Y19776
X58401Y20026
X58901Y20401
X59276Y21151
X61151Y21776
X61526Y21401
X61276Y23276
X59151Y22901
X58401Y22651
X57151Y22901
X57151Y23276
X56776Y22401
X57151Y21276
X57151Y20401
X55651Y20401
X53901Y21151
X52401Y21151
X50151Y23276
X50151Y23651
X50151Y25026
X50151Y25401
X50901Y26651
X51651Y26651
X52026Y26651
X52401Y26651
X52776Y26651
X53526Y26651
X53901Y26651
X54401Y26651
X55526Y26651
X55901Y26651
X58026Y27401
X58276Y27151
X58526Y26901
X59151Y26401
X59651Y26901
X61151Y25901
X61151Y25401
X59901Y25651
X59526Y25651
X59526Y25026
X62901Y28526
X65151Y29401
X65151Y29901
X55901Y29401
X55026Y29401
X53151Y27901
X51901Y27901
X50651Y28026
X49901Y27901
X49651Y27401
X49151Y27401
X49276Y26901
X51651Y25151
X49901Y29401
X49151Y30901
X46651Y32401
X46151Y32401
X43901Y30651
X44401Y30151
X43651Y32901
X44901Y34651
X45901Y35401
X46651Y35901
X45901Y36151
X44401Y36901
X43901Y36901
X44151Y38151
X47901Y36151
X48151Y35401
X48776Y35401
X50651Y35151
X50901Y35651
X51151Y34651
X50651Y33901
X51401Y33151
X52401Y32151
X46651Y34401
X49401Y36901
X39776Y33651
X39776Y32651
X37401Y33651
X37401Y34901
X27901Y30151
X25901Y31401
X23901Y30151
X22651Y31651
X17901Y30151
X17651Y30901
X17151Y29151
X14151Y29151
X13151Y29151
X13401Y30401
X13901Y31401
X13901Y33026
X13401Y33026
X11276Y33651
X10526Y32651
X10151Y29151
X16026Y33151
X16026Y33651
X16776Y32651
X35901Y22651
X40151Y20776
X44526Y18651
X44776Y17026
X45026Y16276
X45276Y15526
X45526Y14776
X45776Y12276
X50651Y13651
X51026Y13276
X51401Y12901
X51776Y12776
X52151Y12651
X54401Y11651
X54651Y12151
X55901Y11901
X57651Y11901
X59151Y11901
X60651Y11901
X61401Y11901
X60401Y9401
X59401Y7651
X57401Y9401
X55651Y8151
X56651Y7151
X52901Y3651
X50651Y5151
X49151Y3401
X47651Y4401
X47151Y3901
X45526Y6026
X45776Y7276
X45526Y8151
X41651Y3651
X36401Y3651
X33401Y5151
X31651Y5151
X31401Y4401
X30901Y3401
X30651Y2651
X29401Y651
X26526Y5276
X23526Y5276
X20776Y15276
X39026Y12901
X41651Y16776
X40901Y17026
X42776Y17151
X49151Y17401
X49526Y17401
X48901Y20776
X53901Y11151
X63401Y6151
X63901Y6151
X63901Y6651
X53151Y1401
X65026Y18651
X66651Y18901
T02
X45901Y30901
X44651Y29401
X44651Y28151
X45401Y33651
T03
X52651Y38651
X53651Y38651
X56151Y38151
X56151Y37651
X56151Y37151
X56401Y34151
X58651Y32651
X61151Y32651
X61151Y31651
X64151Y30151
X54901Y30651
X53901Y30651
X52901Y30651
T04
X40151Y2651
X40151Y1651
X39151Y1651
X38151Y1651
X37151Y1651
X36151Y1651
X35151Y1651
X34151Y1651
X34151Y2651
X35151Y2651
X36151Y2651
X37151Y2651
X38151Y2651
X39151Y2651
T05
X47151Y39151
X47151Y39939
X47151Y40726
X47151Y41513
T06
X52159Y41084
X52159Y40297
X53143Y40297
X53143Y41084
T07
X63659Y40635
X64643Y40635
X64643Y39651
X63659Y39651
X63659Y38667
X64643Y38667
T08
X67151Y36651
X51901Y30401
X39151Y36151
X38151Y36151
X38151Y37151
X39151Y37151
X39151Y38151
X38151Y38151
X38151Y39151
X39151Y39151
X39151Y40151
X38151Y40151
X38151Y41151
X39151Y41151
X39151Y42151
X38151Y42151
X38151Y43151
X39151Y43151
X31151Y35651
X24151Y35651
X24151Y33651
X17151Y33651
X17151Y35651
X10151Y35651
X10151Y33651
X3151Y35651
X1651Y27651
X1651Y21651
X2651Y21651
X2651Y20651
X1651Y20651
X1651Y19651
X2651Y19651
X2651Y18651
X1651Y18651
X1651Y17651
X2651Y17651
X2651Y16651
X1651Y16651
X1651Y15651
X2651Y15651
X2651Y14651
X1651Y14651
X1651Y13651
X2651Y13651
X2651Y12651
X1651Y12651
X1651Y11651
X2651Y11651
X2651Y10651
X1651Y10651
X1651Y9651
X2651Y9651
X2651Y8651
X1651Y8651
X1651Y7651
X2651Y7651
X2651Y6651
X1651Y6651
X5651Y8651
X5651Y9651
X5651Y10651
X5651Y11651
X7651Y14151
X8901Y14151
X10651Y11651
X12151Y11651
X12151Y10651
X12151Y9651
X12151Y8651
X10651Y8651
X10651Y9651
X10651Y10651
X17151Y10651
X17151Y9651
X17151Y8651
X17151Y11651
X12151Y15151
X45151Y2651
X46151Y2651
X47151Y2651
X47151Y1651
X46151Y1651
X45151Y1651
X48151Y1651
X49151Y1651
X49151Y2651
X48151Y2651
X65651Y4651
X66651Y4651
X66651Y5651
X65651Y5651
X65651Y6651
X66651Y6651
X66651Y7651
X65651Y7651
X65651Y8651
X66651Y8651
X66651Y9651
X65651Y9651
X65651Y10651
X66651Y10651
X66651Y11651
X65651Y11651
X65651Y12651
X66651Y12651
X66651Y13651
X65651Y13651
X65651Y14651
X66651Y14651
X66651Y15651
X65651Y15651
X65651Y16651
X66651Y16651
X66651Y17651
X65651Y17651
T09
X54647Y9199
T10
X48222Y39151
X46080Y39151
X46080Y41907
X48222Y41907
T11
X57651Y41776
X59651Y40651
X59651Y43026
T12
X35805Y43281
X35805Y40781
X35805Y38281
X31305Y38281
X28805Y38281
X28805Y40781
X31305Y40781
X31305Y43281
X28805Y43281
X24305Y43281
X21805Y43281
X21805Y40781
X24305Y40781
X24305Y38281
X21805Y38281
X17305Y38281
X14805Y38281
X14805Y40781
X17305Y40781
X17305Y43281
X14805Y43281
X10305Y43281
X7805Y43281
X7805Y40781
X10305Y40781
X10305Y38281
X7805Y38281
X3305Y38281
X3305Y40781
X3305Y43281
T13
X42297Y43151
X43084Y42206
X43084Y40041
X62954Y9199
T14
X55013Y42151
X50289Y42151
T15
X1151Y1151
X1151Y34151
X1151Y43151
X67151Y43151
X67151Y29151
X67151Y1151
M30
