  0
SECTION
  2
HEADER
  9
$ACADVER
  1
AC1009
  9
$FILLMODE
 70
1
  9
$EXTMIN
 10
-0.732500
 20
-0.326835
 30
0.000000
  9
$EXTMAX
 10
14.725000
 20
7.048753
 30
0.000000
  0
ENDSEC
  0
SECTION
  2
TABLES
  0
TABLE
  2
LTYPE
 70
1
  0
LTYPE
  2
CONTINUOUS
 70
64
  3
Solid line
 72
65
 73
0
 40
0
  0
ENDTAB
  0
TABLE
  2
LAYER
 70
255
  0
LAYER
  2
180
 70
64
 62
251
  6
CONTINUOUS
  0
ENDTAB
  0
ENDSEC
  0
SECTION
  2
BLOCKS
  0
BLOCK
  8
0
  2
RECT
 70
64
 10
0.000000
 20
0.000000
 30
0.000000
  3
RECT
  0
SOLID
  8
0
 10
-0.500000
 20
-0.500000
 30
0.000000
 11
0.500000
 21
-0.500000
 31
0.000000
 12
-0.500000
 22
0.500000
 32
0.000000
 13
0.500000
 23
0.500000
 33
0.000000
  0
ENDBLK
  8
0
  0
BLOCK
  8
0
  2
PIE
 70
64
 10
0.000000
 20
0.000000
 30
0.000000
  3
PIE
  0
POLYLINE
  8
0
 66
1
 10
0.000000
 20
0.000000
 30
0.000000
 40
0.500000
 41
0.500000
 70
0
  0
VERTEX
  8
0
 10
0.000000
 20
-0.250000
 30
0.000000
 42
1.000000
  0
VERTEX
  8
0
 10
0.000000
 20
0.250000
 30
0.000000
 42
1.000000
  0
VERTEX
  8
0
 10
0.000000
 20
-0.250000
 30
0.000000
  0
SEQEND
  8
0
  0
ENDBLK
  8
0
  0
BLOCK
  8
0
  2
OCTAGONP
 70
64
 10
0.000000
 20
0.000000
 30
0.000000
  3
OCTAGONP
  0
POLYLINE
  8
0
 66
1
 10
0.000000
 20
0.000000
 30
0.000000
 40
0.500000
 41
0.500000
 70
0
  0
VERTEX
  8
0
 10
-0.250000
 20
-0.103553
 30
0.000000
  0
VERTEX
  8
0
 10
-0.250000
 20
0.103553
 30
0.000000
  0
VERTEX
  8
0
 10
-0.103553
 20
0.250000
 30
0.000000
  0
VERTEX
  8
0
 10
0.103553
 20
0.250000
 30
0.000000
  0
VERTEX
  8
0
 10
0.250000
 20
0.103553
 30
0.000000
  0
VERTEX
  8
0
 10
0.250000
 20
-0.103553
 30
0.000000
  0
VERTEX
  8
0
 10
0.103553
 20
-0.250000
 30
0.000000
  0
VERTEX
  8
0
 10
-0.103553
 20
-0.250000
 30
0.000000
  0
VERTEX
  8
0
 10
-0.250000
 20
-0.103553
 30
0.000000
  0
VERTEX
  8
0
 10
-0.250000
 20
0.103553
 30
0.000000
  0
SEQEND
  8
0
  0
ENDBLK
  8
0
  0
BLOCK
  8
0
  2
SQUAREP
 70
64
 10
0.000000
 20
0.000000
 30
0.000000
  3
SQUAREP
  0
SOLID
  8
0
 10
-0.500000
 20
-0.500000
 30
0.000000
 11
0.500000
 21
-0.500000
 31
0.000000
 12
-0.500000
 22
0.500000
 32
0.000000
 13
0.500000
 23
0.500000
 33
0.000000
  0
ENDBLK
  8
0
  0
BLOCK
  8
0
  2
ROUNDP
 70
64
 10
0.000000
 20
0.000000
 30
0.000000
  3
ROUNDP
  0
POLYLINE
  8
0
 66
1
 10
0.000000
 20
0.000000
 30
0.000000
 40
0.500000
 41
0.500000
 70
0
  0
VERTEX
  8
0
 10
0.000000
 20
-0.250000
 30
0.000000
 42
1.000000
  0
VERTEX
  8
0
 10
0.000000
 20
0.250000
 30
0.000000
 42
1.000000
  0
VERTEX
  8
0
 10
0.000000
 20
-0.250000
 30
0.000000
  0
SEQEND
  8
0
  0
ENDBLK
  8
0
  0
BLOCK
  8
0
  2
ANNULUSP
 70
64
 10
0.000000
 20
0.000000
 30
0.000000
  3
ANNULUSP
  0
POLYLINE
  8
0
 66
1
 10
0.000000
 20
0.000000
 30
0.000000
 40
0.500000
 41
0.500000
 70
0
  0
VERTEX
  8
0
 10
0.000000
 20
-0.250000
 30
0.000000
 42
1.000000
  0
VERTEX
  8
0
 10
0.000000
 20
0.250000
 30
0.000000
 42
1.000000
  0
VERTEX
  8
0
 10
0.000000
 20
-0.250000
 30
0.000000
  0
SEQEND
  8
0
  0
ENDBLK
  8
0
  0
BLOCK
  8
0
  2
THERMALP
 70
64
 10
0.000000
 20
0.000000
 30
0.000000
  3
THERMALP
  0
POLYLINE
  8
0
 66
1
 10
0.000000
 20
0.000000
 30
0.000000
 40
0.100000
 41
0.100000
 70
0
  0
VERTEX
  8
0
 10
-0.237868
 20
0.450000
 30
0.000000
  0
VERTEX
  8
0
 10
0.237868
 20
0.450000
 30
0.000000
  0
SEQEND
  8
0
  0
POLYLINE
  8
0
 66
1
 10
0.000000
 20
0.000000
 30
0.000000
 40
0.050000
 41
0.050000
 70
0
  0
VERTEX
  8
0
 10
0.237868
 20
0.425000
 30
0.000000
 42
1.000000
  0
VERTEX
  8
0
 10
0.237868
 20
0.475000
 30
0.000000
  0
SEQEND
  8
0
  0
POLYLINE
  8
0
 66
1
 10
0.000000
 20
0.000000
 30
0.000000
 40
0.050000
 41
0.050000
 70
0
  0
VERTEX
  8
0
 10
-0.237868
 20
0.475000
 30
0.000000
 42
1.000000
  0
VERTEX
  8
0
 10
-0.237868
 20
0.425000
 30
0.000000
  0
SEQEND
  8
0
  0
POLYLINE
  8
0
 66
1
 10
0.000000
 20
0.000000
 30
0.000000
 40
0.100000
 41
0.100000
 70
0
  0
VERTEX
  8
0
 10
0.450000
 20
0.237868
 30
0.000000
  0
VERTEX
  8
0
 10
0.450000
 20
-0.237868
 30
0.000000
  0
SEQEND
  8
0
  0
POLYLINE
  8
0
 66
1
 10
0.000000
 20
0.000000
 30
0.000000
 40
0.050000
 41
0.050000
 70
0
  0
VERTEX
  8
0
 10
0.425000
 20
-0.237868
 30
0.000000
 42
1.000000
  0
VERTEX
  8
0
 10
0.475000
 20
-0.237868
 30
0.000000
  0
SEQEND
  8
0
  0
POLYLINE
  8
0
 66
1
 10
0.000000
 20
0.000000
 30
0.000000
 40
0.050000
 41
0.050000
 70
0
  0
VERTEX
  8
0
 10
0.475000
 20
0.237868
 30
0.000000
 42
1.000000
  0
VERTEX
  8
0
 10
0.425000
 20
0.237868
 30
0.000000
  0
SEQEND
  8
0
  0
POLYLINE
  8
0
 66
1
 10
0.000000
 20
0.000000
 30
0.000000
 40
0.100000
 41
0.100000
 70
0
  0
VERTEX
  8
0
 10
0.237868
 20
-0.450000
 30
0.000000
  0
VERTEX
  8
0
 10
-0.237868
 20
-0.450000
 30
0.000000
  0
SEQEND
  8
0
  0
POLYLINE
  8
0
 66
1
 10
0.000000
 20
0.000000
 30
0.000000
 40
0.050000
 41
0.050000
 70
0
  0
VERTEX
  8
0
 10
-0.237868
 20
-0.425000
 30
0.000000
 42
1.000000
  0
VERTEX
  8
0
 10
-0.237868
 20
-0.475000
 30
0.000000
  0
SEQEND
  8
0
  0
POLYLINE
  8
0
 66
1
 10
0.000000
 20
0.000000
 30
0.000000
 40
0.050000
 41
0.050000
 70
0
  0
VERTEX
  8
0
 10
0.237868
 20
-0.475000
 30
0.000000
 42
1.000000
  0
VERTEX
  8
0
 10
0.237868
 20
-0.425000
 30
0.000000
  0
SEQEND
  8
0
  0
POLYLINE
  8
0
 66
1
 10
0.000000
 20
0.000000
 30
0.000000
 40
0.100000
 41
0.100000
 70
0
  0
VERTEX
  8
0
 10
-0.450000
 20
-0.237868
 30
0.000000
  0
VERTEX
  8
0
 10
-0.450000
 20
0.237868
 30
0.000000
  0
SEQEND
  8
0
  0
POLYLINE
  8
0
 66
1
 10
0.000000
 20
0.000000
 30
0.000000
 40
0.050000
 41
0.050000
 70
0
  0
VERTEX
  8
0
 10
-0.425000
 20
0.237868
 30
0.000000
 42
1.000000
  0
VERTEX
  8
0
 10
-0.475000
 20
0.237868
 30
0.000000
  0
SEQEND
  8
0
  0
POLYLINE
  8
0
 66
1
 10
0.000000
 20
0.000000
 30
0.000000
 40
0.050000
 41
0.050000
 70
0
  0
VERTEX
  8
0
 10
-0.475000
 20
-0.237868
 30
0.000000
 42
1.000000
  0
VERTEX
  8
0
 10
-0.425000
 20
-0.237868
 30
0.000000
  0
SEQEND
  8
0
  0
ENDBLK
  8
0
  0
BLOCK
  8
0
  2
OCTAGONV
 70
64
 10
0.000000
 20
0.000000
 30
0.000000
  3
OCTAGONV
  0
POLYLINE
  8
0
 66
1
 10
0.000000
 20
0.000000
 30
0.000000
 40
0.500000
 41
0.500000
 70
0
  0
VERTEX
  8
0
 10
-0.250000
 20
-0.103553
 30
0.000000
  0
VERTEX
  8
0
 10
-0.250000
 20
0.103553
 30
0.000000
  0
VERTEX
  8
0
 10
-0.103553
 20
0.250000
 30
0.000000
  0
VERTEX
  8
0
 10
0.103553
 20
0.250000
 30
0.000000
  0
VERTEX
  8
0
 10
0.250000
 20
0.103553
 30
0.000000
  0
VERTEX
  8
0
 10
0.250000
 20
-0.103553
 30
0.000000
  0
VERTEX
  8
0
 10
0.103553
 20
-0.250000
 30
0.000000
  0
VERTEX
  8
0
 10
-0.103553
 20
-0.250000
 30
0.000000
  0
VERTEX
  8
0
 10
-0.250000
 20
-0.103553
 30
0.000000
  0
VERTEX
  8
0
 10
-0.250000
 20
0.103553
 30
0.000000
  0
SEQEND
  8
0
  0
ENDBLK
  8
0
  0
BLOCK
  8
0
  2
SQUAREV
 70
64
 10
0.000000
 20
0.000000
 30
0.000000
  3
SQUAREV
  0
SOLID
  8
0
 10
-0.500000
 20
-0.500000
 30
0.000000
 11
0.500000
 21
-0.500000
 31
0.000000
 12
-0.500000
 22
0.500000
 32
0.000000
 13
0.500000
 23
0.500000
 33
0.000000
  0
ENDBLK
  8
0
  0
BLOCK
  8
0
  2
ROUNDV
 70
64
 10
0.000000
 20
0.000000
 30
0.000000
  3
ROUNDV
  0
POLYLINE
  8
0
 66
1
 10
0.000000
 20
0.000000
 30
0.000000
 40
0.500000
 41
0.500000
 70
0
  0
VERTEX
  8
0
 10
0.000000
 20
-0.250000
 30
0.000000
 42
1.000000
  0
VERTEX
  8
0
 10
0.000000
 20
0.250000
 30
0.000000
 42
1.000000
  0
VERTEX
  8
0
 10
0.000000
 20
-0.250000
 30
0.000000
  0
SEQEND
  8
0
  0
ENDBLK
  8
0
  0
BLOCK
  8
0
  2
ANNULUSV
 70
64
 10
0.000000
 20
0.000000
 30
0.000000
  3
ANNULUSV
  0
POLYLINE
  8
0
 66
1
 10
0.000000
 20
0.000000
 30
0.000000
 40
0.500000
 41
0.500000
 70
0
  0
VERTEX
  8
0
 10
0.000000
 20
-0.250000
 30
0.000000
 42
1.000000
  0
VERTEX
  8
0
 10
0.000000
 20
0.250000
 30
0.000000
 42
1.000000
  0
VERTEX
  8
0
 10
0.000000
 20
-0.250000
 30
0.000000
  0
SEQEND
  8
0
  0
ENDBLK
  8
0
  0
BLOCK
  8
0
  2
THERMALV
 70
64
 10
0.000000
 20
0.000000
 30
0.000000
  3
THERMALV
  0
POLYLINE
  8
0
 66
1
 10
0.000000
 20
0.000000
 30
0.000000
 40
0.100000
 41
0.100000
 70
0
  0
VERTEX
  8
0
 10
-0.237868
 20
0.450000
 30
0.000000
  0
VERTEX
  8
0
 10
0.237868
 20
0.450000
 30
0.000000
  0
SEQEND
  8
0
  0
POLYLINE
  8
0
 66
1
 10
0.000000
 20
0.000000
 30
0.000000
 40
0.050000
 41
0.050000
 70
0
  0
VERTEX
  8
0
 10
0.237868
 20
0.425000
 30
0.000000
 42
1.000000
  0
VERTEX
  8
0
 10
0.237868
 20
0.475000
 30
0.000000
  0
SEQEND
  8
0
  0
POLYLINE
  8
0
 66
1
 10
0.000000
 20
0.000000
 30
0.000000
 40
0.050000
 41
0.050000
 70
0
  0
VERTEX
  8
0
 10
-0.237868
 20
0.475000
 30
0.000000
 42
1.000000
  0
VERTEX
  8
0
 10
-0.237868
 20
0.425000
 30
0.000000
  0
SEQEND
  8
0
  0
POLYLINE
  8
0
 66
1
 10
0.000000
 20
0.000000
 30
0.000000
 40
0.100000
 41
0.100000
 70
0
  0
VERTEX
  8
0
 10
0.450000
 20
0.237868
 30
0.000000
  0
VERTEX
  8
0
 10
0.450000
 20
-0.237868
 30
0.000000
  0
SEQEND
  8
0
  0
POLYLINE
  8
0
 66
1
 10
0.000000
 20
0.000000
 30
0.000000
 40
0.050000
 41
0.050000
 70
0
  0
VERTEX
  8
0
 10
0.425000
 20
-0.237868
 30
0.000000
 42
1.000000
  0
VERTEX
  8
0
 10
0.475000
 20
-0.237868
 30
0.000000
  0
SEQEND
  8
0
  0
POLYLINE
  8
0
 66
1
 10
0.000000
 20
0.000000
 30
0.000000
 40
0.050000
 41
0.050000
 70
0
  0
VERTEX
  8
0
 10
0.475000
 20
0.237868
 30
0.000000
 42
1.000000
  0
VERTEX
  8
0
 10
0.425000
 20
0.237868
 30
0.000000
  0
SEQEND
  8
0
  0
POLYLINE
  8
0
 66
1
 10
0.000000
 20
0.000000
 30
0.000000
 40
0.100000
 41
0.100000
 70
0
  0
VERTEX
  8
0
 10
0.237868
 20
-0.450000
 30
0.000000
  0
VERTEX
  8
0
 10
-0.237868
 20
-0.450000
 30
0.000000
  0
SEQEND
  8
0
  0
POLYLINE
  8
0
 66
1
 10
0.000000
 20
0.000000
 30
0.000000
 40
0.050000
 41
0.050000
 70
0
  0
VERTEX
  8
0
 10
-0.237868
 20
-0.425000
 30
0.000000
 42
1.000000
  0
VERTEX
  8
0
 10
-0.237868
 20
-0.475000
 30
0.000000
  0
SEQEND
  8
0
  0
POLYLINE
  8
0
 66
1
 10
0.000000
 20
0.000000
 30
0.000000
 40
0.050000
 41
0.050000
 70
0
  0
VERTEX
  8
0
 10
0.237868
 20
-0.475000
 30
0.000000
 42
1.000000
  0
VERTEX
  8
0
 10
0.237868
 20
-0.425000
 30
0.000000
  0
SEQEND
  8
0
  0
POLYLINE
  8
0
 66
1
 10
0.000000
 20
0.000000
 30
0.000000
 40
0.100000
 41
0.100000
 70
0
  0
VERTEX
  8
0
 10
-0.450000
 20
-0.237868
 30
0.000000
  0
VERTEX
  8
0
 10
-0.450000
 20
0.237868
 30
0.000000
  0
SEQEND
  8
0
  0
POLYLINE
  8
0
 66
1
 10
0.000000
 20
0.000000
 30
0.000000
 40
0.050000
 41
0.050000
 70
0
  0
VERTEX
  8
0
 10
-0.425000
 20
0.237868
 30
0.000000
 42
1.000000
  0
VERTEX
  8
0
 10
-0.475000
 20
0.237868
 30
0.000000
  0
SEQEND
  8
0
  0
POLYLINE
  8
0
 66
1
 10
0.000000
 20
0.000000
 30
0.000000
 40
0.050000
 41
0.050000
 70
0
  0
VERTEX
  8
0
 10
-0.475000
 20
-0.237868
 30
0.000000
 42
1.000000
  0
VERTEX
  8
0
 10
-0.425000
 20
-0.237868
 30
0.000000
  0
SEQEND
  8
0
  0
ENDBLK
  8
0
  0
BLOCK
  8
0
  2
OFFSETP100
 70
64
 10
0.000000
 20
0.000000
 30
0.000000
  3
OFFSETP100
  0
POLYLINE
  8
0
 66
1
 10
0.000000
 20
0.000000
 30
0.000000
 40
1.000000
 41
1.000000
 70
0
  0
VERTEX
  8
0
 10
0.000000
 20
0.000000
 30
0.000000
  0
VERTEX
  8
0
 10
1.000000
 20
0.000000
 30
0.000000
  0
SEQEND
  8
0
  0
POLYLINE
  8
0
 66
1
 10
0.000000
 20
0.000000
 30
0.000000
 40
0.500000
 41
0.500000
 70
0
  0
VERTEX
  8
0
 10
1.000000
 20
-0.250000
 30
0.000000
 42
1.000000
  0
VERTEX
  8
0
 10
1.000000
 20
0.250000
 30
0.000000
  0
SEQEND
  8
0
  0
POLYLINE
  8
0
 66
1
 10
0.000000
 20
0.000000
 30
0.000000
 40
0.500000
 41
0.500000
 70
0
  0
VERTEX
  8
0
 10
0.000000
 20
0.250000
 30
0.000000
 42
1.000000
  0
VERTEX
  8
0
 10
0.000000
 20
-0.250000
 30
0.000000
  0
SEQEND
  8
0
  0
ENDBLK
  8
0
  0
BLOCK
  8
0
  2
LONGP100
 70
64
 10
0.000000
 20
0.000000
 30
0.000000
  3
LONGP100
  0
POLYLINE
  8
0
 66
1
 10
0.000000
 20
0.000000
 30
0.000000
 40
1.000000
 41
1.000000
 70
0
  0
VERTEX
  8
0
 10
-0.500000
 20
0.000000
 30
0.000000
  0
VERTEX
  8
0
 10
0.500000
 20
0.000000
 30
0.000000
  0
SEQEND
  8
0
  0
POLYLINE
  8
0
 66
1
 10
0.000000
 20
0.000000
 30
0.000000
 40
0.500000
 41
0.500000
 70
0
  0
VERTEX
  8
0
 10
0.500000
 20
-0.250000
 30
0.000000
 42
1.000000
  0
VERTEX
  8
0
 10
0.500000
 20
0.250000
 30
0.000000
  0
SEQEND
  8
0
  0
POLYLINE
  8
0
 66
1
 10
0.000000
 20
0.000000
 30
0.000000
 40
0.500000
 41
0.500000
 70
0
  0
VERTEX
  8
0
 10
-0.500000
 20
0.250000
 30
0.000000
 42
1.000000
  0
VERTEX
  8
0
 10
-0.500000
 20
-0.250000
 30
0.000000
  0
SEQEND
  8
0
  0
ENDBLK
  8
0
  0
ENDSEC
  0
SECTION
  2
ENTITIES
  0
LINE
  8
180
 10
-0.075000
 20
-0.075000
 30
0.000000
 11
6.925000
 21
-0.075000
 31
0.000000
  0
LINE
  8
180
 10
6.925000
 20
-0.075000
 30
0.000000
 11
6.925000
 21
4.425000
 31
0.000000
  0
LINE
  8
180
 10
6.925000
 20
4.425000
 30
0.000000
 11
6.875000
 21
4.425000
 31
0.000000
  0
LINE
  8
180
 10
6.875000
 20
4.425000
 30
0.000000
 11
-0.025000
 21
4.425000
 31
0.000000
  0
LINE
  8
180
 10
-0.025000
 20
4.425000
 30
0.000000
 11
-0.075000
 21
4.425000
 31
0.000000
  0
LINE
  8
180
 10
-0.075000
 20
4.425000
 30
0.000000
 11
-0.075000
 21
-0.075000
 31
0.000000
  0
LINE
  8
180
 10
-0.025000
 20
4.375000
 30
0.000000
 11
-0.025000
 21
-0.025000
 31
0.000000
  0
LINE
  8
180
 10
-0.025000
 20
-0.025000
 30
0.000000
 11
6.875000
 21
-0.025000
 31
0.000000
  0
LINE
  8
180
 10
6.875000
 20
-0.025000
 30
0.000000
 11
6.875000
 21
4.375000
 31
0.000000
  0
LINE
  8
180
 10
6.875000
 20
4.375000
 30
0.000000
 11
-0.025000
 21
4.375000
 31
0.000000
  0
LINE
  8
180
 10
-0.025000
 20
4.375000
 30
0.000000
 11
-0.025000
 21
4.425000
 31
0.000000
  0
LINE
  8
180
 10
6.875000
 20
4.375000
 30
0.000000
 11
6.875000
 21
4.425000
 31
0.000000
  0
LINE
  8
180
 10
7.725000
 20
-0.075000
 30
0.000000
 11
14.725000
 21
-0.075000
 31
0.000000
  0
LINE
  8
180
 10
14.725000
 20
-0.075000
 30
0.000000
 11
14.725000
 21
4.425000
 31
0.000000
  0
LINE
  8
180
 10
14.725000
 20
4.425000
 30
0.000000
 11
14.675000
 21
4.425000
 31
0.000000
  0
LINE
  8
180
 10
14.675000
 20
4.425000
 30
0.000000
 11
7.775000
 21
4.425000
 31
0.000000
  0
LINE
  8
180
 10
7.775000
 20
4.425000
 30
0.000000
 11
7.725000
 21
4.425000
 31
0.000000
  0
LINE
  8
180
 10
7.725000
 20
4.425000
 30
0.000000
 11
7.725000
 21
-0.075000
 31
0.000000
  0
LINE
  8
180
 10
7.775000
 20
4.375000
 30
0.000000
 11
7.775000
 21
-0.025000
 31
0.000000
  0
LINE
  8
180
 10
7.775000
 20
-0.025000
 30
0.000000
 11
14.675000
 21
-0.025000
 31
0.000000
  0
LINE
  8
180
 10
14.675000
 20
-0.025000
 30
0.000000
 11
14.675000
 21
4.375000
 31
0.000000
  0
LINE
  8
180
 10
14.675000
 20
4.375000
 30
0.000000
 11
7.775000
 21
4.375000
 31
0.000000
  0
LINE
  8
180
 10
7.775000
 20
4.375000
 30
0.000000
 11
7.775000
 21
4.425000
 31
0.000000
  0
LINE
  8
180
 10
14.675000
 20
4.375000
 30
0.000000
 11
14.675000
 21
4.425000
 31
0.000000
  0
POLYLINE
  8
180
 66
1
 10
0.000000
 20
0.000000
 30
0.000000
 40
0.006000
 41
0.006000
 70
0
  0
VERTEX
  8
180
 10
8.125000
 20
0.175000
 30
0.000000
 42
0.414214
  0
VERTEX
  8
180
 10
8.175000
 20
0.125000
 30
0.000000
  0
SEQEND
  8
0
  0
POLYLINE
  8
180
 66
1
 10
0.000000
 20
0.000000
 30
0.000000
 40
0.003000
 41
0.003000
 70
0
  0
VERTEX
  8
180
 10
8.126500
 20
0.175000
 30
0.000000
 42
1.000000
  0
VERTEX
  8
180
 10
8.123500
 20
0.175000
 30
0.000000
  0
SEQEND
  8
0
  0
POLYLINE
  8
180
 66
1
 10
0.000000
 20
0.000000
 30
0.000000
 40
0.003000
 41
0.003000
 70
0
  0
VERTEX
  8
180
 10
8.175000
 20
0.123500
 30
0.000000
 42
1.000000
  0
VERTEX
  8
180
 10
8.175000
 20
0.126500
 30
0.000000
  0
SEQEND
  8
0
  0
POLYLINE
  8
180
 66
1
 10
0.000000
 20
0.000000
 30
0.000000
 40
0.006000
 41
0.006000
 70
0
  0
VERTEX
  8
180
 10
8.125000
 20
0.175000
 30
0.000000
  0
VERTEX
  8
180
 10
8.125000
 20
0.275000
 30
0.000000
  0
SEQEND
  8
0
  0
POLYLINE
  8
180
 66
1
 10
0.000000
 20
0.000000
 30
0.000000
 40
0.003000
 41
0.003000
 70
0
  0
VERTEX
  8
180
 10
8.126500
 20
0.275000
 30
0.000000
 42
1.000000
  0
VERTEX
  8
180
 10
8.123500
 20
0.275000
 30
0.000000
  0
SEQEND
  8
0
  0
POLYLINE
  8
180
 66
1
 10
0.000000
 20
0.000000
 30
0.000000
 40
0.003000
 41
0.003000
 70
0
  0
VERTEX
  8
180
 10
8.123500
 20
0.175000
 30
0.000000
 42
1.000000
  0
VERTEX
  8
180
 10
8.126500
 20
0.175000
 30
0.000000
  0
SEQEND
  8
0
  0
POLYLINE
  8
180
 66
1
 10
0.000000
 20
0.000000
 30
0.000000
 40
0.006000
 41
0.006000
 70
0
  0
VERTEX
  8
180
 10
8.175000
 20
0.325000
 30
0.000000
 42
0.414214
  0
VERTEX
  8
180
 10
8.125000
 20
0.275000
 30
0.000000
  0
SEQEND
  8
0
  0
POLYLINE
  8
180
 66
1
 10
0.000000
 20
0.000000
 30
0.000000
 40
0.003000
 41
0.003000
 70
0
  0
VERTEX
  8
180
 10
8.175000
 20
0.323500
 30
0.000000
 42
1.000000
  0
VERTEX
  8
180
 10
8.175000
 20
0.326500
 30
0.000000
  0
SEQEND
  8
0
  0
POLYLINE
  8
180
 66
1
 10
0.000000
 20
0.000000
 30
0.000000
 40
0.003000
 41
0.003000
 70
0
  0
VERTEX
  8
180
 10
8.123500
 20
0.275000
 30
0.000000
 42
1.000000
  0
VERTEX
  8
180
 10
8.126500
 20
0.275000
 30
0.000000
  0
SEQEND
  8
0
  0
POLYLINE
  8
180
 66
1
 10
0.000000
 20
0.000000
 30
0.000000
 40
0.006000
 41
0.006000
 70
0
  0
VERTEX
  8
180
 10
8.175000
 20
0.325000
 30
0.000000
  0
VERTEX
  8
180
 10
8.675000
 20
0.325000
 30
0.000000
  0
SEQEND
  8
0
  0
POLYLINE
  8
180
 66
1
 10
0.000000
 20
0.000000
 30
0.000000
 40
0.003000
 41
0.003000
 70
0
  0
VERTEX
  8
180
 10
8.675000
 20
0.323500
 30
0.000000
 42
1.000000
  0
VERTEX
  8
180
 10
8.675000
 20
0.326500
 30
0.000000
  0
SEQEND
  8
0
  0
POLYLINE
  8
180
 66
1
 10
0.000000
 20
0.000000
 30
0.000000
 40
0.003000
 41
0.003000
 70
0
  0
VERTEX
  8
180
 10
8.175000
 20
0.326500
 30
0.000000
 42
1.000000
  0
VERTEX
  8
180
 10
8.175000
 20
0.323500
 30
0.000000
  0
SEQEND
  8
0
  0
POLYLINE
  8
180
 66
1
 10
0.000000
 20
0.000000
 30
0.000000
 40
0.006000
 41
0.006000
 70
0
  0
VERTEX
  8
180
 10
8.725000
 20
0.275000
 30
0.000000
 42
0.414214
  0
VERTEX
  8
180
 10
8.675000
 20
0.325000
 30
0.000000
  0
SEQEND
  8
0
  0
POLYLINE
  8
180
 66
1
 10
0.000000
 20
0.000000
 30
0.000000
 40
0.003000
 41
0.003000
 70
0
  0
VERTEX
  8
180
 10
8.723500
 20
0.275000
 30
0.000000
 42
1.000000
  0
VERTEX
  8
180
 10
8.726500
 20
0.275000
 30
0.000000
  0
SEQEND
  8
0
  0
POLYLINE
  8
180
 66
1
 10
0.000000
 20
0.000000
 30
0.000000
 40
0.003000
 41
0.003000
 70
0
  0
VERTEX
  8
180
 10
8.675000
 20
0.326500
 30
0.000000
 42
1.000000
  0
VERTEX
  8
180
 10
8.675000
 20
0.323500
 30
0.000000
  0
SEQEND
  8
0
  0
POLYLINE
  8
180
 66
1
 10
0.000000
 20
0.000000
 30
0.000000
 40
0.006000
 41
0.006000
 70
0
  0
VERTEX
  8
180
 10
8.725000
 20
0.275000
 30
0.000000
  0
VERTEX
  8
180
 10
8.725000
 20
0.175000
 30
0.000000
  0
SEQEND
  8
0
  0
POLYLINE
  8
180
 66
1
 10
0.000000
 20
0.000000
 30
0.000000
 40
0.003000
 41
0.003000
 70
0
  0
VERTEX
  8
180
 10
8.723500
 20
0.175000
 30
0.000000
 42
1.000000
  0
VERTEX
  8
180
 10
8.726500
 20
0.175000
 30
0.000000
  0
SEQEND
  8
0
  0
POLYLINE
  8
180
 66
1
 10
0.000000
 20
0.000000
 30
0.000000
 40
0.003000
 41
0.003000
 70
0
  0
VERTEX
  8
180
 10
8.726500
 20
0.275000
 30
0.000000
 42
1.000000
  0
VERTEX
  8
180
 10
8.723500
 20
0.275000
 30
0.000000
  0
SEQEND
  8
0
  0
POLYLINE
  8
180
 66
1
 10
0.000000
 20
0.000000
 30
0.000000
 40
0.006000
 41
0.006000
 70
0
  0
VERTEX
  8
180
 10
8.675000
 20
0.125000
 30
0.000000
 42
0.414214
  0
VERTEX
  8
180
 10
8.725000
 20
0.175000
 30
0.000000
  0
SEQEND
  8
0
  0
POLYLINE
  8
180
 66
1
 10
0.000000
 20
0.000000
 30
0.000000
 40
0.003000
 41
0.003000
 70
0
  0
VERTEX
  8
180
 10
8.675000
 20
0.126500
 30
0.000000
 42
1.000000
  0
VERTEX
  8
180
 10
8.675000
 20
0.123500
 30
0.000000
  0
SEQEND
  8
0
  0
POLYLINE
  8
180
 66
1
 10
0.000000
 20
0.000000
 30
0.000000
 40
0.003000
 41
0.003000
 70
0
  0
VERTEX
  8
180
 10
8.726500
 20
0.175000
 30
0.000000
 42
1.000000
  0
VERTEX
  8
180
 10
8.723500
 20
0.175000
 30
0.000000
  0
SEQEND
  8
0
  0
POLYLINE
  8
180
 66
1
 10
0.000000
 20
0.000000
 30
0.000000
 40
0.006000
 41
0.006000
 70
0
  0
VERTEX
  8
180
 10
8.675000
 20
0.125000
 30
0.000000
  0
VERTEX
  8
180
 10
8.175000
 20
0.125000
 30
0.000000
  0
SEQEND
  8
0
  0
POLYLINE
  8
180
 66
1
 10
0.000000
 20
0.000000
 30
0.000000
 40
0.003000
 41
0.003000
 70
0
  0
VERTEX
  8
180
 10
8.175000
 20
0.126500
 30
0.000000
 42
1.000000
  0
VERTEX
  8
180
 10
8.175000
 20
0.123500
 30
0.000000
  0
SEQEND
  8
0
  0
POLYLINE
  8
180
 66
1
 10
0.000000
 20
0.000000
 30
0.000000
 40
0.003000
 41
0.003000
 70
0
  0
VERTEX
  8
180
 10
8.675000
 20
0.123500
 30
0.000000
 42
1.000000
  0
VERTEX
  8
180
 10
8.675000
 20
0.126500
 30
0.000000
  0
SEQEND
  8
0
  0
POLYLINE
  8
180
 66
1
 10
0.000000
 20
0.000000
 30
0.000000
 40
0.006000
 41
0.006000
 70
0
  0
VERTEX
  8
180
 10
8.925000
 20
0.175000
 30
0.000000
 42
0.414214
  0
VERTEX
  8
180
 10
8.975000
 20
0.125000
 30
0.000000
  0
SEQEND
  8
0
  0
POLYLINE
  8
180
 66
1
 10
0.000000
 20
0.000000
 30
0.000000
 40
0.003000
 41
0.003000
 70
0
  0
VERTEX
  8
180
 10
8.926500
 20
0.175000
 30
0.000000
 42
1.000000
  0
VERTEX
  8
180
 10
8.923500
 20
0.175000
 30
0.000000
  0
SEQEND
  8
0
  0
POLYLINE
  8
180
 66
1
 10
0.000000
 20
0.000000
 30
0.000000
 40
0.003000
 41
0.003000
 70
0
  0
VERTEX
  8
180
 10
8.975000
 20
0.123500
 30
0.000000
 42
1.000000
  0
VERTEX
  8
180
 10
8.975000
 20
0.126500
 30
0.000000
  0
SEQEND
  8
0
  0
POLYLINE
  8
180
 66
1
 10
0.000000
 20
0.000000
 30
0.000000
 40
0.006000
 41
0.006000
 70
0
  0
VERTEX
  8
180
 10
8.925000
 20
0.175000
 30
0.000000
  0
VERTEX
  8
180
 10
8.925000
 20
0.275000
 30
0.000000
  0
SEQEND
  8
0
  0
POLYLINE
  8
180
 66
1
 10
0.000000
 20
0.000000
 30
0.000000
 40
0.003000
 41
0.003000
 70
0
  0
VERTEX
  8
180
 10
8.926500
 20
0.275000
 30
0.000000
 42
1.000000
  0
VERTEX
  8
180
 10
8.923500
 20
0.275000
 30
0.000000
  0
SEQEND
  8
0
  0
POLYLINE
  8
180
 66
1
 10
0.000000
 20
0.000000
 30
0.000000
 40
0.003000
 41
0.003000
 70
0
  0
VERTEX
  8
180
 10
8.923500
 20
0.175000
 30
0.000000
 42
1.000000
  0
VERTEX
  8
180
 10
8.926500
 20
0.175000
 30
0.000000
  0
SEQEND
  8
0
  0
POLYLINE
  8
180
 66
1
 10
0.000000
 20
0.000000
 30
0.000000
 40
0.006000
 41
0.006000
 70
0
  0
VERTEX
  8
180
 10
8.975000
 20
0.325000
 30
0.000000
 42
0.414214
  0
VERTEX
  8
180
 10
8.925000
 20
0.275000
 30
0.000000
  0
SEQEND
  8
0
  0
POLYLINE
  8
180
 66
1
 10
0.000000
 20
0.000000
 30
0.000000
 40
0.003000
 41
0.003000
 70
0
  0
VERTEX
  8
180
 10
8.975000
 20
0.323500
 30
0.000000
 42
1.000000
  0
VERTEX
  8
180
 10
8.975000
 20
0.326500
 30
0.000000
  0
SEQEND
  8
0
  0
POLYLINE
  8
180
 66
1
 10
0.000000
 20
0.000000
 30
0.000000
 40
0.003000
 41
0.003000
 70
0
  0
VERTEX
  8
180
 10
8.923500
 20
0.275000
 30
0.000000
 42
1.000000
  0
VERTEX
  8
180
 10
8.926500
 20
0.275000
 30
0.000000
  0
SEQEND
  8
0
  0
POLYLINE
  8
180
 66
1
 10
0.000000
 20
0.000000
 30
0.000000
 40
0.006000
 41
0.006000
 70
0
  0
VERTEX
  8
180
 10
8.975000
 20
0.325000
 30
0.000000
  0
VERTEX
  8
180
 10
9.475000
 20
0.325000
 30
0.000000
  0
SEQEND
  8
0
  0
POLYLINE
  8
180
 66
1
 10
0.000000
 20
0.000000
 30
0.000000
 40
0.003000
 41
0.003000
 70
0
  0
VERTEX
  8
180
 10
9.475000
 20
0.323500
 30
0.000000
 42
1.000000
  0
VERTEX
  8
180
 10
9.475000
 20
0.326500
 30
0.000000
  0
SEQEND
  8
0
  0
POLYLINE
  8
180
 66
1
 10
0.000000
 20
0.000000
 30
0.000000
 40
0.003000
 41
0.003000
 70
0
  0
VERTEX
  8
180
 10
8.975000
 20
0.326500
 30
0.000000
 42
1.000000
  0
VERTEX
  8
180
 10
8.975000
 20
0.323500
 30
0.000000
  0
SEQEND
  8
0
  0
POLYLINE
  8
180
 66
1
 10
0.000000
 20
0.000000
 30
0.000000
 40
0.006000
 41
0.006000
 70
0
  0
VERTEX
  8
180
 10
9.525000
 20
0.275000
 30
0.000000
 42
0.414214
  0
VERTEX
  8
180
 10
9.475000
 20
0.325000
 30
0.000000
  0
SEQEND
  8
0
  0
POLYLINE
  8
180
 66
1
 10
0.000000
 20
0.000000
 30
0.000000
 40
0.003000
 41
0.003000
 70
0
  0
VERTEX
  8
180
 10
9.523500
 20
0.275000
 30
0.000000
 42
1.000000
  0
VERTEX
  8
180
 10
9.526500
 20
0.275000
 30
0.000000
  0
SEQEND
  8
0
  0
POLYLINE
  8
180
 66
1
 10
0.000000
 20
0.000000
 30
0.000000
 40
0.003000
 41
0.003000
 70
0
  0
VERTEX
  8
180
 10
9.475000
 20
0.326500
 30
0.000000
 42
1.000000
  0
VERTEX
  8
180
 10
9.475000
 20
0.323500
 30
0.000000
  0
SEQEND
  8
0
  0
POLYLINE
  8
180
 66
1
 10
0.000000
 20
0.000000
 30
0.000000
 40
0.006000
 41
0.006000
 70
0
  0
VERTEX
  8
180
 10
9.525000
 20
0.275000
 30
0.000000
  0
VERTEX
  8
180
 10
9.525000
 20
0.175000
 30
0.000000
  0
SEQEND
  8
0
  0
POLYLINE
  8
180
 66
1
 10
0.000000
 20
0.000000
 30
0.000000
 40
0.003000
 41
0.003000
 70
0
  0
VERTEX
  8
180
 10
9.523500
 20
0.175000
 30
0.000000
 42
1.000000
  0
VERTEX
  8
180
 10
9.526500
 20
0.175000
 30
0.000000
  0
SEQEND
  8
0
  0
POLYLINE
  8
180
 66
1
 10
0.000000
 20
0.000000
 30
0.000000
 40
0.003000
 41
0.003000
 70
0
  0
VERTEX
  8
180
 10
9.526500
 20
0.275000
 30
0.000000
 42
1.000000
  0
VERTEX
  8
180
 10
9.523500
 20
0.275000
 30
0.000000
  0
SEQEND
  8
0
  0
POLYLINE
  8
180
 66
1
 10
0.000000
 20
0.000000
 30
0.000000
 40
0.006000
 41
0.006000
 70
0
  0
VERTEX
  8
180
 10
9.475000
 20
0.125000
 30
0.000000
 42
0.414214
  0
VERTEX
  8
180
 10
9.525000
 20
0.175000
 30
0.000000
  0
SEQEND
  8
0
  0
POLYLINE
  8
180
 66
1
 10
0.000000
 20
0.000000
 30
0.000000
 40
0.003000
 41
0.003000
 70
0
  0
VERTEX
  8
180
 10
9.475000
 20
0.126500
 30
0.000000
 42
1.000000
  0
VERTEX
  8
180
 10
9.475000
 20
0.123500
 30
0.000000
  0
SEQEND
  8
0
  0
POLYLINE
  8
180
 66
1
 10
0.000000
 20
0.000000
 30
0.000000
 40
0.003000
 41
0.003000
 70
0
  0
VERTEX
  8
180
 10
9.526500
 20
0.175000
 30
0.000000
 42
1.000000
  0
VERTEX
  8
180
 10
9.523500
 20
0.175000
 30
0.000000
  0
SEQEND
  8
0
  0
POLYLINE
  8
180
 66
1
 10
0.000000
 20
0.000000
 30
0.000000
 40
0.006000
 41
0.006000
 70
0
  0
VERTEX
  8
180
 10
9.475000
 20
0.125000
 30
0.000000
  0
VERTEX
  8
180
 10
8.975000
 20
0.125000
 30
0.000000
  0
SEQEND
  8
0
  0
POLYLINE
  8
180
 66
1
 10
0.000000
 20
0.000000
 30
0.000000
 40
0.003000
 41
0.003000
 70
0
  0
VERTEX
  8
180
 10
8.975000
 20
0.126500
 30
0.000000
 42
1.000000
  0
VERTEX
  8
180
 10
8.975000
 20
0.123500
 30
0.000000
  0
SEQEND
  8
0
  0
POLYLINE
  8
180
 66
1
 10
0.000000
 20
0.000000
 30
0.000000
 40
0.003000
 41
0.003000
 70
0
  0
VERTEX
  8
180
 10
9.475000
 20
0.123500
 30
0.000000
 42
1.000000
  0
VERTEX
  8
180
 10
9.475000
 20
0.126500
 30
0.000000
  0
SEQEND
  8
0
  0
POLYLINE
  8
180
 66
1
 10
0.000000
 20
0.000000
 30
0.000000
 40
0.006000
 41
0.006000
 70
0
  0
VERTEX
  8
180
 10
9.725000
 20
0.175000
 30
0.000000
 42
0.414214
  0
VERTEX
  8
180
 10
9.775000
 20
0.125000
 30
0.000000
  0
SEQEND
  8
0
  0
POLYLINE
  8
180
 66
1
 10
0.000000
 20
0.000000
 30
0.000000
 40
0.003000
 41
0.003000
 70
0
  0
VERTEX
  8
180
 10
9.726500
 20
0.175000
 30
0.000000
 42
1.000000
  0
VERTEX
  8
180
 10
9.723500
 20
0.175000
 30
0.000000
  0
SEQEND
  8
0
  0
POLYLINE
  8
180
 66
1
 10
0.000000
 20
0.000000
 30
0.000000
 40
0.003000
 41
0.003000
 70
0
  0
VERTEX
  8
180
 10
9.775000
 20
0.123500
 30
0.000000
 42
1.000000
  0
VERTEX
  8
180
 10
9.775000
 20
0.126500
 30
0.000000
  0
SEQEND
  8
0
  0
POLYLINE
  8
180
 66
1
 10
0.000000
 20
0.000000
 30
0.000000
 40
0.006000
 41
0.006000
 70
0
  0
VERTEX
  8
180
 10
9.725000
 20
0.175000
 30
0.000000
  0
VERTEX
  8
180
 10
9.725000
 20
0.275000
 30
0.000000
  0
SEQEND
  8
0
  0
POLYLINE
  8
180
 66
1
 10
0.000000
 20
0.000000
 30
0.000000
 40
0.003000
 41
0.003000
 70
0
  0
VERTEX
  8
180
 10
9.726500
 20
0.275000
 30
0.000000
 42
1.000000
  0
VERTEX
  8
180
 10
9.723500
 20
0.275000
 30
0.000000
  0
SEQEND
  8
0
  0
POLYLINE
  8
180
 66
1
 10
0.000000
 20
0.000000
 30
0.000000
 40
0.003000
 41
0.003000
 70
0
  0
VERTEX
  8
180
 10
9.723500
 20
0.175000
 30
0.000000
 42
1.000000
  0
VERTEX
  8
180
 10
9.726500
 20
0.175000
 30
0.000000
  0
SEQEND
  8
0
  0
POLYLINE
  8
180
 66
1
 10
0.000000
 20
0.000000
 30
0.000000
 40
0.006000
 41
0.006000
 70
0
  0
VERTEX
  8
180
 10
9.775000
 20
0.325000
 30
0.000000
 42
0.414214
  0
VERTEX
  8
180
 10
9.725000
 20
0.275000
 30
0.000000
  0
SEQEND
  8
0
  0
POLYLINE
  8
180
 66
1
 10
0.000000
 20
0.000000
 30
0.000000
 40
0.003000
 41
0.003000
 70
0
  0
VERTEX
  8
180
 10
9.775000
 20
0.323500
 30
0.000000
 42
1.000000
  0
VERTEX
  8
180
 10
9.775000
 20
0.326500
 30
0.000000
  0
SEQEND
  8
0
  0
POLYLINE
  8
180
 66
1
 10
0.000000
 20
0.000000
 30
0.000000
 40
0.003000
 41
0.003000
 70
0
  0
VERTEX
  8
180
 10
9.723500
 20
0.275000
 30
0.000000
 42
1.000000
  0
VERTEX
  8
180
 10
9.726500
 20
0.275000
 30
0.000000
  0
SEQEND
  8
0
  0
POLYLINE
  8
180
 66
1
 10
0.000000
 20
0.000000
 30
0.000000
 40
0.006000
 41
0.006000
 70
0
  0
VERTEX
  8
180
 10
9.775000
 20
0.325000
 30
0.000000
  0
VERTEX
  8
180
 10
10.275000
 20
0.325000
 30
0.000000
  0
SEQEND
  8
0
  0
POLYLINE
  8
180
 66
1
 10
0.000000
 20
0.000000
 30
0.000000
 40
0.003000
 41
0.003000
 70
0
  0
VERTEX
  8
180
 10
10.275000
 20
0.323500
 30
0.000000
 42
1.000000
  0
VERTEX
  8
180
 10
10.275000
 20
0.326500
 30
0.000000
  0
SEQEND
  8
0
  0
POLYLINE
  8
180
 66
1
 10
0.000000
 20
0.000000
 30
0.000000
 40
0.003000
 41
0.003000
 70
0
  0
VERTEX
  8
180
 10
9.775000
 20
0.326500
 30
0.000000
 42
1.000000
  0
VERTEX
  8
180
 10
9.775000
 20
0.323500
 30
0.000000
  0
SEQEND
  8
0
  0
POLYLINE
  8
180
 66
1
 10
0.000000
 20
0.000000
 30
0.000000
 40
0.006000
 41
0.006000
 70
0
  0
VERTEX
  8
180
 10
10.325000
 20
0.275000
 30
0.000000
 42
0.414214
  0
VERTEX
  8
180
 10
10.275000
 20
0.325000
 30
0.000000
  0
SEQEND
  8
0
  0
POLYLINE
  8
180
 66
1
 10
0.000000
 20
0.000000
 30
0.000000
 40
0.003000
 41
0.003000
 70
0
  0
VERTEX
  8
180
 10
10.323500
 20
0.275000
 30
0.000000
 42
1.000000
  0
VERTEX
  8
180
 10
10.326500
 20
0.275000
 30
0.000000
  0
SEQEND
  8
0
  0
POLYLINE
  8
180
 66
1
 10
0.000000
 20
0.000000
 30
0.000000
 40
0.003000
 41
0.003000
 70
0
  0
VERTEX
  8
180
 10
10.275000
 20
0.326500
 30
0.000000
 42
1.000000
  0
VERTEX
  8
180
 10
10.275000
 20
0.323500
 30
0.000000
  0
SEQEND
  8
0
  0
POLYLINE
  8
180
 66
1
 10
0.000000
 20
0.000000
 30
0.000000
 40
0.006000
 41
0.006000
 70
0
  0
VERTEX
  8
180
 10
10.325000
 20
0.275000
 30
0.000000
  0
VERTEX
  8
180
 10
10.325000
 20
0.175000
 30
0.000000
  0
SEQEND
  8
0
  0
POLYLINE
  8
180
 66
1
 10
0.000000
 20
0.000000
 30
0.000000
 40
0.003000
 41
0.003000
 70
0
  0
VERTEX
  8
180
 10
10.323500
 20
0.175000
 30
0.000000
 42
1.000000
  0
VERTEX
  8
180
 10
10.326500
 20
0.175000
 30
0.000000
  0
SEQEND
  8
0
  0
POLYLINE
  8
180
 66
1
 10
0.000000
 20
0.000000
 30
0.000000
 40
0.003000
 41
0.003000
 70
0
  0
VERTEX
  8
180
 10
10.326500
 20
0.275000
 30
0.000000
 42
1.000000
  0
VERTEX
  8
180
 10
10.323500
 20
0.275000
 30
0.000000
  0
SEQEND
  8
0
  0
POLYLINE
  8
180
 66
1
 10
0.000000
 20
0.000000
 30
0.000000
 40
0.006000
 41
0.006000
 70
0
  0
VERTEX
  8
180
 10
10.275000
 20
0.125000
 30
0.000000
 42
0.414214
  0
VERTEX
  8
180
 10
10.325000
 20
0.175000
 30
0.000000
  0
SEQEND
  8
0
  0
POLYLINE
  8
180
 66
1
 10
0.000000
 20
0.000000
 30
0.000000
 40
0.003000
 41
0.003000
 70
0
  0
VERTEX
  8
180
 10
10.275000
 20
0.126500
 30
0.000000
 42
1.000000
  0
VERTEX
  8
180
 10
10.275000
 20
0.123500
 30
0.000000
  0
SEQEND
  8
0
  0
POLYLINE
  8
180
 66
1
 10
0.000000
 20
0.000000
 30
0.000000
 40
0.003000
 41
0.003000
 70
0
  0
VERTEX
  8
180
 10
10.326500
 20
0.175000
 30
0.000000
 42
1.000000
  0
VERTEX
  8
180
 10
10.323500
 20
0.175000
 30
0.000000
  0
SEQEND
  8
0
  0
POLYLINE
  8
180
 66
1
 10
0.000000
 20
0.000000
 30
0.000000
 40
0.006000
 41
0.006000
 70
0
  0
VERTEX
  8
180
 10
10.275000
 20
0.125000
 30
0.000000
  0
VERTEX
  8
180
 10
9.775000
 20
0.125000
 30
0.000000
  0
SEQEND
  8
0
  0
POLYLINE
  8
180
 66
1
 10
0.000000
 20
0.000000
 30
0.000000
 40
0.003000
 41
0.003000
 70
0
  0
VERTEX
  8
180
 10
9.775000
 20
0.126500
 30
0.000000
 42
1.000000
  0
VERTEX
  8
180
 10
9.775000
 20
0.123500
 30
0.000000
  0
SEQEND
  8
0
  0
POLYLINE
  8
180
 66
1
 10
0.000000
 20
0.000000
 30
0.000000
 40
0.003000
 41
0.003000
 70
0
  0
VERTEX
  8
180
 10
10.275000
 20
0.123500
 30
0.000000
 42
1.000000
  0
VERTEX
  8
180
 10
10.275000
 20
0.126500
 30
0.000000
  0
SEQEND
  8
0
  0
POLYLINE
  8
180
 66
1
 10
0.000000
 20
0.000000
 30
0.000000
 40
0.006000
 41
0.006000
 70
0
  0
VERTEX
  8
180
 10
10.525000
 20
0.175000
 30
0.000000
 42
0.414214
  0
VERTEX
  8
180
 10
10.575000
 20
0.125000
 30
0.000000
  0
SEQEND
  8
0
  0
POLYLINE
  8
180
 66
1
 10
0.000000
 20
0.000000
 30
0.000000
 40
0.003000
 41
0.003000
 70
0
  0
VERTEX
  8
180
 10
10.526500
 20
0.175000
 30
0.000000
 42
1.000000
  0
VERTEX
  8
180
 10
10.523500
 20
0.175000
 30
0.000000
  0
SEQEND
  8
0
  0
POLYLINE
  8
180
 66
1
 10
0.000000
 20
0.000000
 30
0.000000
 40
0.003000
 41
0.003000
 70
0
  0
VERTEX
  8
180
 10
10.575000
 20
0.123500
 30
0.000000
 42
1.000000
  0
VERTEX
  8
180
 10
10.575000
 20
0.126500
 30
0.000000
  0
SEQEND
  8
0
  0
POLYLINE
  8
180
 66
1
 10
0.000000
 20
0.000000
 30
0.000000
 40
0.006000
 41
0.006000
 70
0
  0
VERTEX
  8
180
 10
10.525000
 20
0.175000
 30
0.000000
  0
VERTEX
  8
180
 10
10.525000
 20
0.275000
 30
0.000000
  0
SEQEND
  8
0
  0
POLYLINE
  8
180
 66
1
 10
0.000000
 20
0.000000
 30
0.000000
 40
0.003000
 41
0.003000
 70
0
  0
VERTEX
  8
180
 10
10.526500
 20
0.275000
 30
0.000000
 42
1.000000
  0
VERTEX
  8
180
 10
10.523500
 20
0.275000
 30
0.000000
  0
SEQEND
  8
0
  0
POLYLINE
  8
180
 66
1
 10
0.000000
 20
0.000000
 30
0.000000
 40
0.003000
 41
0.003000
 70
0
  0
VERTEX
  8
180
 10
10.523500
 20
0.175000
 30
0.000000
 42
1.000000
  0
VERTEX
  8
180
 10
10.526500
 20
0.175000
 30
0.000000
  0
SEQEND
  8
0
  0
POLYLINE
  8
180
 66
1
 10
0.000000
 20
0.000000
 30
0.000000
 40
0.006000
 41
0.006000
 70
0
  0
VERTEX
  8
180
 10
10.575000
 20
0.325000
 30
0.000000
 42
0.414214
  0
VERTEX
  8
180
 10
10.525000
 20
0.275000
 30
0.000000
  0
SEQEND
  8
0
  0
POLYLINE
  8
180
 66
1
 10
0.000000
 20
0.000000
 30
0.000000
 40
0.003000
 41
0.003000
 70
0
  0
VERTEX
  8
180
 10
10.575000
 20
0.323500
 30
0.000000
 42
1.000000
  0
VERTEX
  8
180
 10
10.575000
 20
0.326500
 30
0.000000
  0
SEQEND
  8
0
  0
POLYLINE
  8
180
 66
1
 10
0.000000
 20
0.000000
 30
0.000000
 40
0.003000
 41
0.003000
 70
0
  0
VERTEX
  8
180
 10
10.523500
 20
0.275000
 30
0.000000
 42
1.000000
  0
VERTEX
  8
180
 10
10.526500
 20
0.275000
 30
0.000000
  0
SEQEND
  8
0
  0
POLYLINE
  8
180
 66
1
 10
0.000000
 20
0.000000
 30
0.000000
 40
0.006000
 41
0.006000
 70
0
  0
VERTEX
  8
180
 10
10.575000
 20
0.325000
 30
0.000000
  0
VERTEX
  8
180
 10
11.075000
 20
0.325000
 30
0.000000
  0
SEQEND
  8
0
  0
POLYLINE
  8
180
 66
1
 10
0.000000
 20
0.000000
 30
0.000000
 40
0.003000
 41
0.003000
 70
0
  0
VERTEX
  8
180
 10
11.075000
 20
0.323500
 30
0.000000
 42
1.000000
  0
VERTEX
  8
180
 10
11.075000
 20
0.326500
 30
0.000000
  0
SEQEND
  8
0
  0
POLYLINE
  8
180
 66
1
 10
0.000000
 20
0.000000
 30
0.000000
 40
0.003000
 41
0.003000
 70
0
  0
VERTEX
  8
180
 10
10.575000
 20
0.326500
 30
0.000000
 42
1.000000
  0
VERTEX
  8
180
 10
10.575000
 20
0.323500
 30
0.000000
  0
SEQEND
  8
0
  0
POLYLINE
  8
180
 66
1
 10
0.000000
 20
0.000000
 30
0.000000
 40
0.006000
 41
0.006000
 70
0
  0
VERTEX
  8
180
 10
11.125000
 20
0.275000
 30
0.000000
 42
0.414214
  0
VERTEX
  8
180
 10
11.075000
 20
0.325000
 30
0.000000
  0
SEQEND
  8
0
  0
POLYLINE
  8
180
 66
1
 10
0.000000
 20
0.000000
 30
0.000000
 40
0.003000
 41
0.003000
 70
0
  0
VERTEX
  8
180
 10
11.123500
 20
0.275000
 30
0.000000
 42
1.000000
  0
VERTEX
  8
180
 10
11.126500
 20
0.275000
 30
0.000000
  0
SEQEND
  8
0
  0
POLYLINE
  8
180
 66
1
 10
0.000000
 20
0.000000
 30
0.000000
 40
0.003000
 41
0.003000
 70
0
  0
VERTEX
  8
180
 10
11.075000
 20
0.326500
 30
0.000000
 42
1.000000
  0
VERTEX
  8
180
 10
11.075000
 20
0.323500
 30
0.000000
  0
SEQEND
  8
0
  0
POLYLINE
  8
180
 66
1
 10
0.000000
 20
0.000000
 30
0.000000
 40
0.006000
 41
0.006000
 70
0
  0
VERTEX
  8
180
 10
11.125000
 20
0.275000
 30
0.000000
  0
VERTEX
  8
180
 10
11.125000
 20
0.175000
 30
0.000000
  0
SEQEND
  8
0
  0
POLYLINE
  8
180
 66
1
 10
0.000000
 20
0.000000
 30
0.000000
 40
0.003000
 41
0.003000
 70
0
  0
VERTEX
  8
180
 10
11.123500
 20
0.175000
 30
0.000000
 42
1.000000
  0
VERTEX
  8
180
 10
11.126500
 20
0.175000
 30
0.000000
  0
SEQEND
  8
0
  0
POLYLINE
  8
180
 66
1
 10
0.000000
 20
0.000000
 30
0.000000
 40
0.003000
 41
0.003000
 70
0
  0
VERTEX
  8
180
 10
11.126500
 20
0.275000
 30
0.000000
 42
1.000000
  0
VERTEX
  8
180
 10
11.123500
 20
0.275000
 30
0.000000
  0
SEQEND
  8
0
  0
POLYLINE
  8
180
 66
1
 10
0.000000
 20
0.000000
 30
0.000000
 40
0.006000
 41
0.006000
 70
0
  0
VERTEX
  8
180
 10
11.075000
 20
0.125000
 30
0.000000
 42
0.414214
  0
VERTEX
  8
180
 10
11.125000
 20
0.175000
 30
0.000000
  0
SEQEND
  8
0
  0
POLYLINE
  8
180
 66
1
 10
0.000000
 20
0.000000
 30
0.000000
 40
0.003000
 41
0.003000
 70
0
  0
VERTEX
  8
180
 10
11.075000
 20
0.126500
 30
0.000000
 42
1.000000
  0
VERTEX
  8
180
 10
11.075000
 20
0.123500
 30
0.000000
  0
SEQEND
  8
0
  0
POLYLINE
  8
180
 66
1
 10
0.000000
 20
0.000000
 30
0.000000
 40
0.003000
 41
0.003000
 70
0
  0
VERTEX
  8
180
 10
11.126500
 20
0.175000
 30
0.000000
 42
1.000000
  0
VERTEX
  8
180
 10
11.123500
 20
0.175000
 30
0.000000
  0
SEQEND
  8
0
  0
POLYLINE
  8
180
 66
1
 10
0.000000
 20
0.000000
 30
0.000000
 40
0.006000
 41
0.006000
 70
0
  0
VERTEX
  8
180
 10
11.075000
 20
0.125000
 30
0.000000
  0
VERTEX
  8
180
 10
10.575000
 20
0.125000
 30
0.000000
  0
SEQEND
  8
0
  0
POLYLINE
  8
180
 66
1
 10
0.000000
 20
0.000000
 30
0.000000
 40
0.003000
 41
0.003000
 70
0
  0
VERTEX
  8
180
 10
10.575000
 20
0.126500
 30
0.000000
 42
1.000000
  0
VERTEX
  8
180
 10
10.575000
 20
0.123500
 30
0.000000
  0
SEQEND
  8
0
  0
POLYLINE
  8
180
 66
1
 10
0.000000
 20
0.000000
 30
0.000000
 40
0.003000
 41
0.003000
 70
0
  0
VERTEX
  8
180
 10
11.075000
 20
0.123500
 30
0.000000
 42
1.000000
  0
VERTEX
  8
180
 10
11.075000
 20
0.126500
 30
0.000000
  0
SEQEND
  8
0
  0
POLYLINE
  8
180
 66
1
 10
0.000000
 20
0.000000
 30
0.000000
 40
0.006000
 41
0.006000
 70
0
  0
VERTEX
  8
180
 10
14.205000
 20
2.825000
 30
0.000000
  0
VERTEX
  8
180
 10
13.845000
 20
2.825000
 30
0.000000
  0
SEQEND
  8
0
  0
POLYLINE
  8
180
 66
1
 10
0.000000
 20
0.000000
 30
0.000000
 40
0.003000
 41
0.003000
 70
0
  0
VERTEX
  8
180
 10
13.845000
 20
2.826500
 30
0.000000
 42
1.000000
  0
VERTEX
  8
180
 10
13.845000
 20
2.823500
 30
0.000000
  0
SEQEND
  8
0
  0
POLYLINE
  8
180
 66
1
 10
0.000000
 20
0.000000
 30
0.000000
 40
0.003000
 41
0.003000
 70
0
  0
VERTEX
  8
180
 10
14.205000
 20
2.823500
 30
0.000000
 42
1.000000
  0
VERTEX
  8
180
 10
14.205000
 20
2.826500
 30
0.000000
  0
SEQEND
  8
0
  0
POLYLINE
  8
180
 66
1
 10
0.000000
 20
0.000000
 30
0.000000
 40
0.006000
 41
0.006000
 70
0
  0
VERTEX
  8
180
 10
13.825000
 20
2.845000
 30
0.000000
 42
0.414214
  0
VERTEX
  8
180
 10
13.845000
 20
2.825000
 30
0.000000
  0
SEQEND
  8
0
  0
POLYLINE
  8
180
 66
1
 10
0.000000
 20
0.000000
 30
0.000000
 40
0.003000
 41
0.003000
 70
0
  0
VERTEX
  8
180
 10
13.826500
 20
2.845000
 30
0.000000
 42
1.000000
  0
VERTEX
  8
180
 10
13.823500
 20
2.845000
 30
0.000000
  0
SEQEND
  8
0
  0
POLYLINE
  8
180
 66
1
 10
0.000000
 20
0.000000
 30
0.000000
 40
0.003000
 41
0.003000
 70
0
  0
VERTEX
  8
180
 10
13.845000
 20
2.823500
 30
0.000000
 42
1.000000
  0
VERTEX
  8
180
 10
13.845000
 20
2.826500
 30
0.000000
  0
SEQEND
  8
0
  0
POLYLINE
  8
180
 66
1
 10
0.000000
 20
0.000000
 30
0.000000
 40
0.006000
 41
0.006000
 70
0
  0
VERTEX
  8
180
 10
13.825000
 20
2.845000
 30
0.000000
  0
VERTEX
  8
180
 10
13.825000
 20
3.205000
 30
0.000000
  0
SEQEND
  8
0
  0
POLYLINE
  8
180
 66
1
 10
0.000000
 20
0.000000
 30
0.000000
 40
0.003000
 41
0.003000
 70
0
  0
VERTEX
  8
180
 10
13.826500
 20
3.205000
 30
0.000000
 42
1.000000
  0
VERTEX
  8
180
 10
13.823500
 20
3.205000
 30
0.000000
  0
SEQEND
  8
0
  0
POLYLINE
  8
180
 66
1
 10
0.000000
 20
0.000000
 30
0.000000
 40
0.003000
 41
0.003000
 70
0
  0
VERTEX
  8
180
 10
13.823500
 20
2.845000
 30
0.000000
 42
1.000000
  0
VERTEX
  8
180
 10
13.826500
 20
2.845000
 30
0.000000
  0
SEQEND
  8
0
  0
POLYLINE
  8
180
 66
1
 10
0.000000
 20
0.000000
 30
0.000000
 40
0.006000
 41
0.006000
 70
0
  0
VERTEX
  8
180
 10
13.845000
 20
3.225000
 30
0.000000
 42
0.414214
  0
VERTEX
  8
180
 10
13.825000
 20
3.205000
 30
0.000000
  0
SEQEND
  8
0
  0
POLYLINE
  8
180
 66
1
 10
0.000000
 20
0.000000
 30
0.000000
 40
0.003000
 41
0.003000
 70
0
  0
VERTEX
  8
180
 10
13.845000
 20
3.223500
 30
0.000000
 42
1.000000
  0
VERTEX
  8
180
 10
13.845000
 20
3.226500
 30
0.000000
  0
SEQEND
  8
0
  0
POLYLINE
  8
180
 66
1
 10
0.000000
 20
0.000000
 30
0.000000
 40
0.003000
 41
0.003000
 70
0
  0
VERTEX
  8
180
 10
13.823500
 20
3.205000
 30
0.000000
 42
1.000000
  0
VERTEX
  8
180
 10
13.826500
 20
3.205000
 30
0.000000
  0
SEQEND
  8
0
  0
POLYLINE
  8
180
 66
1
 10
0.000000
 20
0.000000
 30
0.000000
 40
0.006000
 41
0.006000
 70
0
  0
VERTEX
  8
180
 10
13.845000
 20
3.225000
 30
0.000000
  0
VERTEX
  8
180
 10
14.205000
 20
3.225000
 30
0.000000
  0
SEQEND
  8
0
  0
POLYLINE
  8
180
 66
1
 10
0.000000
 20
0.000000
 30
0.000000
 40
0.003000
 41
0.003000
 70
0
  0
VERTEX
  8
180
 10
14.205000
 20
3.223500
 30
0.000000
 42
1.000000
  0
VERTEX
  8
180
 10
14.205000
 20
3.226500
 30
0.000000
  0
SEQEND
  8
0
  0
POLYLINE
  8
180
 66
1
 10
0.000000
 20
0.000000
 30
0.000000
 40
0.003000
 41
0.003000
 70
0
  0
VERTEX
  8
180
 10
13.845000
 20
3.226500
 30
0.000000
 42
1.000000
  0
VERTEX
  8
180
 10
13.845000
 20
3.223500
 30
0.000000
  0
SEQEND
  8
0
  0
POLYLINE
  8
180
 66
1
 10
0.000000
 20
0.000000
 30
0.000000
 40
0.006000
 41
0.006000
 70
0
  0
VERTEX
  8
180
 10
14.225000
 20
3.205000
 30
0.000000
 42
0.414214
  0
VERTEX
  8
180
 10
14.205000
 20
3.225000
 30
0.000000
  0
SEQEND
  8
0
  0
POLYLINE
  8
180
 66
1
 10
0.000000
 20
0.000000
 30
0.000000
 40
0.003000
 41
0.003000
 70
0
  0
VERTEX
  8
180
 10
14.223500
 20
3.205000
 30
0.000000
 42
1.000000
  0
VERTEX
  8
180
 10
14.226500
 20
3.205000
 30
0.000000
  0
SEQEND
  8
0
  0
POLYLINE
  8
180
 66
1
 10
0.000000
 20
0.000000
 30
0.000000
 40
0.003000
 41
0.003000
 70
0
  0
VERTEX
  8
180
 10
14.205000
 20
3.226500
 30
0.000000
 42
1.000000
  0
VERTEX
  8
180
 10
14.205000
 20
3.223500
 30
0.000000
  0
SEQEND
  8
0
  0
POLYLINE
  8
180
 66
1
 10
0.000000
 20
0.000000
 30
0.000000
 40
0.006000
 41
0.006000
 70
0
  0
VERTEX
  8
180
 10
14.225000
 20
3.205000
 30
0.000000
  0
VERTEX
  8
180
 10
14.225000
 20
2.845000
 30
0.000000
  0
SEQEND
  8
0
  0
POLYLINE
  8
180
 66
1
 10
0.000000
 20
0.000000
 30
0.000000
 40
0.003000
 41
0.003000
 70
0
  0
VERTEX
  8
180
 10
14.223500
 20
2.845000
 30
0.000000
 42
1.000000
  0
VERTEX
  8
180
 10
14.226500
 20
2.845000
 30
0.000000
  0
SEQEND
  8
0
  0
POLYLINE
  8
180
 66
1
 10
0.000000
 20
0.000000
 30
0.000000
 40
0.003000
 41
0.003000
 70
0
  0
VERTEX
  8
180
 10
14.226500
 20
3.205000
 30
0.000000
 42
1.000000
  0
VERTEX
  8
180
 10
14.223500
 20
3.205000
 30
0.000000
  0
SEQEND
  8
0
  0
POLYLINE
  8
180
 66
1
 10
0.000000
 20
0.000000
 30
0.000000
 40
0.006000
 41
0.006000
 70
0
  0
VERTEX
  8
180
 10
14.205000
 20
2.825000
 30
0.000000
 42
0.414214
  0
VERTEX
  8
180
 10
14.225000
 20
2.845000
 30
0.000000
  0
SEQEND
  8
0
  0
POLYLINE
  8
180
 66
1
 10
0.000000
 20
0.000000
 30
0.000000
 40
0.003000
 41
0.003000
 70
0
  0
VERTEX
  8
180
 10
14.205000
 20
2.826500
 30
0.000000
 42
1.000000
  0
VERTEX
  8
180
 10
14.205000
 20
2.823500
 30
0.000000
  0
SEQEND
  8
0
  0
POLYLINE
  8
180
 66
1
 10
0.000000
 20
0.000000
 30
0.000000
 40
0.003000
 41
0.003000
 70
0
  0
VERTEX
  8
180
 10
14.226500
 20
2.845000
 30
0.000000
 42
1.000000
  0
VERTEX
  8
180
 10
14.223500
 20
2.845000
 30
0.000000
  0
SEQEND
  8
0
  0
POLYLINE
  8
180
 66
1
 10
0.000000
 20
0.000000
 30
0.000000
 40
0.001000
 41
0.001000
 70
0
  0
VERTEX
  8
180
 10
11.775000
 20
1.635000
 30
0.000000
 42
1.000000
  0
VERTEX
  8
180
 10
11.775000
 20
2.015000
 30
0.000000
 42
1.000000
  0
VERTEX
  8
180
 10
11.775000
 20
1.635000
 30
0.000000
  0
SEQEND
  8
0
  0
POLYLINE
  8
180
 66
1
 10
0.000000
 20
0.000000
 30
0.000000
 40
0.001000
 41
0.001000
 70
0
  0
VERTEX
  8
180
 10
13.175000
 20
1.635000
 30
0.000000
 42
1.000000
  0
VERTEX
  8
180
 10
13.175000
 20
2.015000
 30
0.000000
 42
1.000000
  0
VERTEX
  8
180
 10
13.175000
 20
1.635000
 30
0.000000
  0
SEQEND
  8
0
  0
POLYLINE
  8
180
 66
1
 10
0.000000
 20
0.000000
 30
0.000000
 40
0.001000
 41
0.001000
 70
0
  0
VERTEX
  8
180
 10
12.475000
 20
0.435000
 30
0.000000
 42
1.000000
  0
VERTEX
  8
180
 10
12.475000
 20
0.815000
 30
0.000000
 42
1.000000
  0
VERTEX
  8
180
 10
12.475000
 20
0.435000
 30
0.000000
  0
SEQEND
  8
0
  0
POLYLINE
  8
180
 66
1
 10
0.000000
 20
0.000000
 30
0.000000
 40
0.001000
 41
0.001000
 70
0
  0
VERTEX
  8
180
 10
13.875000
 20
0.435000
 30
0.000000
 42
1.000000
  0
VERTEX
  8
180
 10
13.875000
 20
0.815000
 30
0.000000
 42
1.000000
  0
VERTEX
  8
180
 10
13.875000
 20
0.435000
 30
0.000000
  0
SEQEND
  8
0
  0
POLYLINE
  8
180
 66
1
 10
0.000000
 20
0.000000
 30
0.000000
 40
0.001000
 41
0.001000
 70
0
  0
VERTEX
  8
180
 10
11.675000
 20
2.860000
 30
0.000000
 42
1.000000
  0
VERTEX
  8
180
 10
11.675000
 20
3.190000
 30
0.000000
 42
1.000000
  0
VERTEX
  8
180
 10
11.675000
 20
2.860000
 30
0.000000
  0
SEQEND
  8
0
  0
POLYLINE
  8
180
 66
1
 10
0.000000
 20
0.000000
 30
0.000000
 40
0.001000
 41
0.001000
 70
0
  0
VERTEX
  8
180
 10
12.175000
 20
2.860000
 30
0.000000
 42
1.000000
  0
VERTEX
  8
180
 10
12.175000
 20
3.190000
 30
0.000000
 42
1.000000
  0
VERTEX
  8
180
 10
12.175000
 20
2.860000
 30
0.000000
  0
SEQEND
  8
0
  0
POLYLINE
  8
180
 66
1
 10
0.000000
 20
0.000000
 30
0.000000
 40
0.001000
 41
0.001000
 70
0
  0
VERTEX
  8
180
 10
12.675000
 20
2.860000
 30
0.000000
 42
1.000000
  0
VERTEX
  8
180
 10
12.675000
 20
3.190000
 30
0.000000
 42
1.000000
  0
VERTEX
  8
180
 10
12.675000
 20
2.860000
 30
0.000000
  0
SEQEND
  8
0
  0
POLYLINE
  8
180
 66
1
 10
0.000000
 20
0.000000
 30
0.000000
 40
0.001000
 41
0.001000
 70
0
  0
VERTEX
  8
180
 10
13.175000
 20
2.860000
 30
0.000000
 42
1.000000
  0
VERTEX
  8
180
 10
13.175000
 20
3.190000
 30
0.000000
 42
1.000000
  0
VERTEX
  8
180
 10
13.175000
 20
2.860000
 30
0.000000
  0
SEQEND
  8
0
  0
POLYLINE
  8
180
 66
1
 10
0.000000
 20
0.000000
 30
0.000000
 40
0.001000
 41
0.001000
 70
0
  0
VERTEX
  8
180
 10
13.425000
 20
3.460000
 30
0.000000
 42
1.000000
  0
VERTEX
  8
180
 10
13.425000
 20
3.790000
 30
0.000000
 42
1.000000
  0
VERTEX
  8
180
 10
13.425000
 20
3.460000
 30
0.000000
  0
SEQEND
  8
0
  0
POLYLINE
  8
180
 66
1
 10
0.000000
 20
0.000000
 30
0.000000
 40
0.001000
 41
0.001000
 70
0
  0
VERTEX
  8
180
 10
12.925000
 20
3.460000
 30
0.000000
 42
1.000000
  0
VERTEX
  8
180
 10
12.925000
 20
3.790000
 30
0.000000
 42
1.000000
  0
VERTEX
  8
180
 10
12.925000
 20
3.460000
 30
0.000000
  0
SEQEND
  8
0
  0
POLYLINE
  8
180
 66
1
 10
0.000000
 20
0.000000
 30
0.000000
 40
0.001000
 41
0.001000
 70
0
  0
VERTEX
  8
180
 10
12.425000
 20
3.460000
 30
0.000000
 42
1.000000
  0
VERTEX
  8
180
 10
12.425000
 20
3.790000
 30
0.000000
 42
1.000000
  0
VERTEX
  8
180
 10
12.425000
 20
3.460000
 30
0.000000
  0
SEQEND
  8
0
  0
POLYLINE
  8
180
 66
1
 10
0.000000
 20
0.000000
 30
0.000000
 40
0.001000
 41
0.001000
 70
0
  0
VERTEX
  8
180
 10
11.925000
 20
3.460000
 30
0.000000
 42
1.000000
  0
VERTEX
  8
180
 10
11.925000
 20
3.790000
 30
0.000000
 42
1.000000
  0
VERTEX
  8
180
 10
11.925000
 20
3.460000
 30
0.000000
  0
SEQEND
  8
0
  0
POLYLINE
  8
180
 66
1
 10
0.000000
 20
0.000000
 30
0.000000
 40
0.001000
 41
0.001000
 70
0
  0
VERTEX
  8
180
 10
8.425000
 20
2.900000
 30
0.000000
 42
1.000000
  0
VERTEX
  8
180
 10
8.425000
 20
3.150000
 30
0.000000
 42
1.000000
  0
VERTEX
  8
180
 10
8.425000
 20
2.900000
 30
0.000000
  0
SEQEND
  8
0
  0
POLYLINE
  8
180
 66
1
 10
0.000000
 20
0.000000
 30
0.000000
 40
0.001000
 41
0.001000
 70
0
  0
VERTEX
  8
180
 10
9.225000
 20
2.900000
 30
0.000000
 42
1.000000
  0
VERTEX
  8
180
 10
9.225000
 20
3.150000
 30
0.000000
 42
1.000000
  0
VERTEX
  8
180
 10
9.225000
 20
2.900000
 30
0.000000
  0
SEQEND
  8
0
  0
POLYLINE
  8
180
 66
1
 10
0.000000
 20
0.000000
 30
0.000000
 40
0.001000
 41
0.001000
 70
0
  0
VERTEX
  8
180
 10
10.025000
 20
2.900000
 30
0.000000
 42
1.000000
  0
VERTEX
  8
180
 10
10.025000
 20
3.150000
 30
0.000000
 42
1.000000
  0
VERTEX
  8
180
 10
10.025000
 20
2.900000
 30
0.000000
  0
SEQEND
  8
0
  0
POLYLINE
  8
180
 66
1
 10
0.000000
 20
0.000000
 30
0.000000
 40
0.001000
 41
0.001000
 70
0
  0
VERTEX
  8
180
 10
10.825000
 20
2.900000
 30
0.000000
 42
1.000000
  0
VERTEX
  8
180
 10
10.825000
 20
3.150000
 30
0.000000
 42
1.000000
  0
VERTEX
  8
180
 10
10.825000
 20
2.900000
 30
0.000000
  0
SEQEND
  8
0
  0
ENDSEC
  0
EOF
