G75*
G70*
%OFA0B0*%
%FSLAX24Y24*%
%IPPOS*%
%LPD*%
%AMOC8*
5,1,8,0,0,1.08239X$1,22.5*
%
%ADD10C,0.1340*%
%ADD11R,0.0710X0.0867*%
%ADD12C,0.0178*%
%ADD13R,0.0680X0.0680*%
%ADD14OC8,0.0680*%
%ADD15R,0.0395X0.0434*%
%ADD16R,0.2180X0.0840*%
%ADD17R,0.0671X0.0237*%
%ADD18R,0.0946X0.0316*%
%ADD19R,0.0434X0.0395*%
%ADD20R,0.0631X0.0828*%
%ADD21OC8,0.0642*%
%ADD22OC8,0.0877*%
%ADD23C,0.0654*%
%ADD24C,0.1386*%
%ADD25R,0.0440X0.0930*%
%ADD26R,0.4332X0.4178*%
%ADD27R,0.1080X0.1080*%
%ADD28OC8,0.1080*%
%ADD29R,0.2245X0.1852*%
%ADD30R,0.0631X0.0789*%
%ADD31R,0.0710X0.1143*%
%ADD32R,0.0560X0.0960*%
%ADD33R,0.1497X0.0946*%
%ADD34R,0.0828X0.0631*%
%ADD35OC8,0.0674*%
%ADD36R,0.0552X0.1655*%
%ADD37R,0.0356X0.1655*%
%ADD38R,0.0867X0.1182*%
%ADD39C,0.0513*%
%ADD40C,0.0710*%
%ADD41C,0.0671*%
%ADD42C,0.0867*%
%ADD43R,0.0671X0.0671*%
%ADD44C,0.0966*%
%ADD45R,0.0237X0.0789*%
%ADD46R,0.0789X0.0237*%
%ADD47R,0.0194X0.0611*%
%ADD48R,0.0611X0.0194*%
%ADD49R,0.0316X0.0946*%
%ADD50R,0.0960X0.0560*%
%ADD51R,0.0946X0.1497*%
%ADD52R,0.0789X0.0631*%
%ADD53R,0.0946X0.0867*%
%ADD54R,0.0474X0.0631*%
%ADD55C,0.0080*%
%ADD56C,0.0134*%
%ADD57C,0.0050*%
%ADD58R,0.0474X0.0237*%
%ADD59R,0.0237X0.0710*%
%ADD60R,0.0640X0.0640*%
%ADD61OC8,0.0640*%
%ADD62C,0.0390*%
%ADD63C,0.0516*%
%ADD64C,0.0476*%
D10*
X001151Y001373D03*
X001151Y034373D03*
X001151Y043373D03*
X067151Y043373D03*
X067151Y029373D03*
X067151Y001373D03*
D11*
X052151Y001310D03*
X052151Y003436D03*
X042901Y003436D03*
X042901Y001310D03*
D12*
X050206Y018954D02*
X050206Y019446D01*
X050403Y019446D02*
X050403Y018954D01*
X050600Y018954D02*
X050600Y019446D01*
X050797Y019446D02*
X050797Y018954D01*
X050994Y018954D02*
X050994Y019446D01*
X051191Y019446D02*
X051191Y018954D01*
X051387Y018954D02*
X051387Y019446D01*
X051584Y019446D02*
X051584Y018954D01*
X051781Y018954D02*
X051781Y019446D01*
X051978Y019446D02*
X051978Y018954D01*
X052175Y018954D02*
X052175Y019446D01*
X052372Y019446D02*
X052372Y018954D01*
X052569Y018954D02*
X052569Y019446D01*
X052765Y019446D02*
X052765Y018954D01*
X052962Y018954D02*
X052962Y019446D01*
X053159Y019446D02*
X053159Y018954D01*
X053356Y018954D02*
X053356Y019446D01*
X053553Y019446D02*
X053553Y018954D01*
X053750Y018954D02*
X053750Y019446D01*
X053946Y019446D02*
X053946Y018954D01*
X054143Y018954D02*
X054143Y019446D01*
X054340Y019446D02*
X054340Y018954D01*
X054537Y018954D02*
X054537Y019446D01*
X054734Y019446D02*
X054734Y018954D01*
X054931Y018954D02*
X054931Y019446D01*
X055128Y019446D02*
X055128Y018954D01*
X055324Y018954D02*
X055324Y019446D01*
X055521Y019446D02*
X055521Y018954D01*
X055718Y018954D02*
X055718Y019446D01*
X055915Y019446D02*
X055915Y018954D01*
X056112Y018954D02*
X056112Y019446D01*
X056309Y019446D02*
X056309Y018954D01*
X056506Y018954D02*
X056506Y019446D01*
X056702Y019446D02*
X056702Y018954D01*
X056899Y018954D02*
X056899Y019446D01*
X057096Y019446D02*
X057096Y018954D01*
X057578Y019928D02*
X058070Y019928D01*
X058070Y020125D02*
X057578Y020125D01*
X057578Y020322D02*
X058070Y020322D01*
X058070Y020519D02*
X057578Y020519D01*
X057578Y020715D02*
X058070Y020715D01*
X058070Y020912D02*
X057578Y020912D01*
X057578Y021109D02*
X058070Y021109D01*
X058070Y021306D02*
X057578Y021306D01*
X057578Y021503D02*
X058070Y021503D01*
X058070Y021700D02*
X057578Y021700D01*
X057578Y021897D02*
X058070Y021897D01*
X058070Y022093D02*
X057578Y022093D01*
X057578Y022290D02*
X058070Y022290D01*
X058070Y022487D02*
X057578Y022487D01*
X057578Y022684D02*
X058070Y022684D01*
X058070Y022881D02*
X057578Y022881D01*
X057578Y023078D02*
X058070Y023078D01*
X058070Y023274D02*
X057578Y023274D01*
X057578Y023471D02*
X058070Y023471D01*
X058070Y023668D02*
X057578Y023668D01*
X057578Y023865D02*
X058070Y023865D01*
X058070Y024062D02*
X057578Y024062D01*
X057578Y024259D02*
X058070Y024259D01*
X058070Y024456D02*
X057578Y024456D01*
X057578Y024652D02*
X058070Y024652D01*
X058070Y024849D02*
X057578Y024849D01*
X057578Y025046D02*
X058070Y025046D01*
X058070Y025243D02*
X057578Y025243D01*
X057578Y025440D02*
X058070Y025440D01*
X058070Y025637D02*
X057578Y025637D01*
X057578Y025834D02*
X058070Y025834D01*
X058070Y026030D02*
X057578Y026030D01*
X057578Y026227D02*
X058070Y026227D01*
X058070Y026424D02*
X057578Y026424D01*
X057578Y026621D02*
X058070Y026621D01*
X058070Y026818D02*
X057578Y026818D01*
X057096Y027300D02*
X057096Y027792D01*
X056899Y027792D02*
X056899Y027300D01*
X056702Y027300D02*
X056702Y027792D01*
X056506Y027792D02*
X056506Y027300D01*
X056309Y027300D02*
X056309Y027792D01*
X056112Y027792D02*
X056112Y027300D01*
X055915Y027300D02*
X055915Y027792D01*
X055718Y027792D02*
X055718Y027300D01*
X055521Y027300D02*
X055521Y027792D01*
X055324Y027792D02*
X055324Y027300D01*
X055128Y027300D02*
X055128Y027792D01*
X054931Y027792D02*
X054931Y027300D01*
X054734Y027300D02*
X054734Y027792D01*
X054537Y027792D02*
X054537Y027300D01*
X054340Y027300D02*
X054340Y027792D01*
X054143Y027792D02*
X054143Y027300D01*
X053946Y027300D02*
X053946Y027792D01*
X053750Y027792D02*
X053750Y027300D01*
X053553Y027300D02*
X053553Y027792D01*
X053356Y027792D02*
X053356Y027300D01*
X053159Y027300D02*
X053159Y027792D01*
X052962Y027792D02*
X052962Y027300D01*
X052765Y027300D02*
X052765Y027792D01*
X052569Y027792D02*
X052569Y027300D01*
X052372Y027300D02*
X052372Y027792D01*
X052175Y027792D02*
X052175Y027300D01*
X051978Y027300D02*
X051978Y027792D01*
X051781Y027792D02*
X051781Y027300D01*
X051584Y027300D02*
X051584Y027792D01*
X051387Y027792D02*
X051387Y027300D01*
X051191Y027300D02*
X051191Y027792D01*
X050994Y027792D02*
X050994Y027300D01*
X050797Y027300D02*
X050797Y027792D01*
X050600Y027792D02*
X050600Y027300D01*
X050403Y027300D02*
X050403Y027792D01*
X050206Y027792D02*
X050206Y027300D01*
X049724Y026818D02*
X049232Y026818D01*
X049232Y026621D02*
X049724Y026621D01*
X049724Y026424D02*
X049232Y026424D01*
X049232Y026227D02*
X049724Y026227D01*
X049724Y026030D02*
X049232Y026030D01*
X049232Y025834D02*
X049724Y025834D01*
X049724Y025637D02*
X049232Y025637D01*
X049232Y025440D02*
X049724Y025440D01*
X049724Y025243D02*
X049232Y025243D01*
X049232Y025046D02*
X049724Y025046D01*
X049724Y024849D02*
X049232Y024849D01*
X049232Y024652D02*
X049724Y024652D01*
X049724Y024456D02*
X049232Y024456D01*
X049232Y024259D02*
X049724Y024259D01*
X049724Y024062D02*
X049232Y024062D01*
X049232Y023865D02*
X049724Y023865D01*
X049724Y023668D02*
X049232Y023668D01*
X049232Y023471D02*
X049724Y023471D01*
X049724Y023274D02*
X049232Y023274D01*
X049232Y023078D02*
X049724Y023078D01*
X049724Y022881D02*
X049232Y022881D01*
X049232Y022684D02*
X049724Y022684D01*
X049724Y022487D02*
X049232Y022487D01*
X049232Y022290D02*
X049724Y022290D01*
X049724Y022093D02*
X049232Y022093D01*
X049232Y021897D02*
X049724Y021897D01*
X049724Y021700D02*
X049232Y021700D01*
X049232Y021503D02*
X049724Y021503D01*
X049724Y021306D02*
X049232Y021306D01*
X049232Y021109D02*
X049724Y021109D01*
X049724Y020912D02*
X049232Y020912D01*
X049232Y020715D02*
X049724Y020715D01*
X049724Y020519D02*
X049232Y020519D01*
X049232Y020322D02*
X049724Y020322D01*
X049724Y020125D02*
X049232Y020125D01*
X049232Y019928D02*
X049724Y019928D01*
D13*
X051901Y030623D03*
X067151Y040873D03*
X038151Y043373D03*
X065651Y017873D03*
X045151Y001873D03*
X001651Y021873D03*
D14*
X002651Y021873D03*
X002651Y020873D03*
X001651Y020873D03*
X001651Y019873D03*
X002651Y019873D03*
X002651Y018873D03*
X001651Y018873D03*
X001651Y017873D03*
X002651Y017873D03*
X002651Y016873D03*
X001651Y016873D03*
X001651Y015873D03*
X002651Y015873D03*
X002651Y014873D03*
X001651Y014873D03*
X001651Y013873D03*
X002651Y013873D03*
X002651Y012873D03*
X001651Y012873D03*
X001651Y011873D03*
X002651Y011873D03*
X002651Y010873D03*
X001651Y010873D03*
X001651Y009873D03*
X002651Y009873D03*
X002651Y008873D03*
X001651Y008873D03*
X001651Y007873D03*
X002651Y007873D03*
X002651Y006873D03*
X001651Y006873D03*
X038151Y036373D03*
X039151Y036373D03*
X039151Y037373D03*
X038151Y037373D03*
X038151Y038373D03*
X039151Y038373D03*
X039151Y039373D03*
X038151Y039373D03*
X038151Y040373D03*
X039151Y040373D03*
X039151Y041373D03*
X038151Y041373D03*
X038151Y042373D03*
X039151Y042373D03*
X039151Y043373D03*
X066651Y017873D03*
X066651Y016873D03*
X065651Y016873D03*
X065651Y015873D03*
X066651Y015873D03*
X066651Y014873D03*
X065651Y014873D03*
X065651Y013873D03*
X066651Y013873D03*
X066651Y012873D03*
X065651Y012873D03*
X065651Y011873D03*
X066651Y011873D03*
X066651Y010873D03*
X065651Y010873D03*
X065651Y009873D03*
X066651Y009873D03*
X066651Y008873D03*
X065651Y008873D03*
X065651Y007873D03*
X066651Y007873D03*
X066651Y006873D03*
X065651Y006873D03*
X065651Y005873D03*
X066651Y005873D03*
X066651Y004873D03*
X065651Y004873D03*
X049151Y002873D03*
X048151Y002873D03*
X047151Y002873D03*
X046151Y002873D03*
X045151Y002873D03*
X046151Y001873D03*
X047151Y001873D03*
X048151Y001873D03*
X049151Y001873D03*
D15*
X050651Y001923D03*
X050651Y001323D03*
X050651Y002823D03*
X050651Y003423D03*
X050651Y004323D03*
X050651Y004923D03*
X050651Y005823D03*
X050651Y006423D03*
X041651Y003423D03*
X041651Y002823D03*
X041651Y001923D03*
X041651Y001323D03*
X036401Y004323D03*
X036401Y004923D03*
X034901Y004923D03*
X034151Y004923D03*
X033401Y004923D03*
X033401Y004323D03*
X034151Y004323D03*
X034901Y004323D03*
X034651Y012323D03*
X034651Y012923D03*
X033901Y012923D03*
X033901Y012323D03*
X052901Y031448D03*
X052901Y032048D03*
X053901Y032048D03*
X053901Y031448D03*
X054901Y031448D03*
X054901Y032048D03*
D16*
X055526Y015873D03*
X051776Y015873D03*
D17*
X050078Y033710D03*
X050078Y033965D03*
X050078Y034221D03*
X050078Y034477D03*
X050078Y034733D03*
X050078Y034989D03*
X050078Y035245D03*
X050078Y035501D03*
X050078Y035757D03*
X050078Y036013D03*
X050078Y036269D03*
X050078Y036524D03*
X050078Y036780D03*
X050078Y037036D03*
X047224Y037036D03*
X047224Y036780D03*
X047224Y036524D03*
X047224Y036269D03*
X047224Y036013D03*
X047224Y035757D03*
X047224Y035501D03*
X047224Y035245D03*
X047224Y034989D03*
X047224Y034733D03*
X047224Y034477D03*
X047224Y034221D03*
X047224Y033965D03*
X047224Y033710D03*
D18*
X045175Y035623D03*
X045175Y036123D03*
X045175Y036623D03*
X045175Y037123D03*
X043128Y037123D03*
X043128Y036623D03*
X043128Y036123D03*
X043128Y035623D03*
D19*
X043851Y034873D03*
X044451Y034873D03*
X044601Y037873D03*
X045201Y037873D03*
X043701Y037873D03*
X043101Y037873D03*
X043201Y030873D03*
X042601Y030873D03*
X043226Y030123D03*
X043826Y030123D03*
X043201Y029373D03*
X042601Y029373D03*
X042601Y028623D03*
X043201Y028623D03*
X035951Y025873D03*
X035351Y025873D03*
X027951Y023373D03*
X027351Y023373D03*
X022951Y023873D03*
X022351Y023873D03*
X020201Y022873D03*
X019601Y022873D03*
X022351Y021873D03*
X022951Y021873D03*
X020201Y030873D03*
X019601Y030873D03*
X019601Y031623D03*
X020201Y031623D03*
X020201Y032373D03*
X019601Y032373D03*
X019601Y033123D03*
X020201Y033123D03*
X020201Y033873D03*
X019601Y033873D03*
X018701Y033873D03*
X018101Y033873D03*
X018101Y034623D03*
X018701Y034623D03*
X019601Y034623D03*
X020201Y034623D03*
X018701Y033123D03*
X018101Y033123D03*
X018101Y032373D03*
X018701Y032373D03*
X018701Y031623D03*
X018101Y031623D03*
X018101Y030873D03*
X018701Y030873D03*
X016451Y032873D03*
X015851Y032873D03*
X015851Y033623D03*
X016451Y033623D03*
X014326Y033873D03*
X013726Y033873D03*
X012826Y033873D03*
X012226Y033873D03*
X012226Y034623D03*
X012826Y034623D03*
X013726Y034623D03*
X014326Y034623D03*
X014326Y033123D03*
X013726Y033123D03*
X013726Y032373D03*
X014326Y032373D03*
X014326Y031623D03*
X013726Y031623D03*
X013726Y030873D03*
X014326Y030873D03*
X012826Y030873D03*
X012226Y030873D03*
X012226Y031623D03*
X012826Y031623D03*
X012826Y032373D03*
X012226Y032373D03*
X012226Y033123D03*
X012826Y033123D03*
D20*
X012651Y035623D03*
X013651Y035623D03*
X018401Y035623D03*
X019401Y035623D03*
X021901Y024873D03*
X022901Y024873D03*
X022901Y022873D03*
X021901Y022873D03*
X043651Y033873D03*
X044651Y033873D03*
X052651Y037998D03*
X053651Y037998D03*
D21*
X047151Y039373D03*
X047151Y040160D03*
X047151Y040948D03*
X047151Y041735D03*
D22*
X046080Y042129D03*
X048222Y042129D03*
X048222Y039373D03*
X046080Y039373D03*
D23*
X052159Y039945D02*
X052159Y040519D01*
X052159Y041306D02*
X052159Y041880D01*
X053143Y041880D02*
X053143Y041306D01*
X053143Y040519D02*
X053143Y039945D01*
D24*
X055013Y042373D03*
X050289Y042373D03*
D25*
X057151Y033623D03*
X057651Y033623D03*
X058151Y033623D03*
X058651Y033623D03*
X059151Y033623D03*
X059651Y033623D03*
X060151Y033623D03*
D26*
X058651Y036873D03*
D27*
X059651Y040873D03*
D28*
X057651Y041998D03*
X059651Y043248D03*
X043084Y042428D03*
X042297Y043373D03*
X043084Y040263D03*
D29*
X064151Y035145D03*
X064151Y031601D03*
D30*
X058151Y031873D03*
X057151Y031873D03*
X053651Y036748D03*
X052651Y036748D03*
D31*
X059351Y031873D03*
X060451Y031873D03*
D32*
X054811Y035468D03*
X053901Y035468D03*
X052991Y035468D03*
D33*
X053901Y033028D03*
D34*
X054901Y036748D03*
X054901Y037748D03*
X041651Y033873D03*
X041651Y032873D03*
X041651Y031373D03*
X041651Y030373D03*
D35*
X063659Y038889D03*
X063659Y039873D03*
X063659Y040857D03*
X064643Y040857D03*
X064643Y039873D03*
X064643Y038889D03*
D36*
X062914Y010602D03*
X061930Y010602D03*
X060946Y010602D03*
X059962Y010602D03*
X058977Y010602D03*
X057993Y010602D03*
X057009Y010602D03*
X056025Y010602D03*
D37*
X055395Y010602D03*
X054883Y010602D03*
X054411Y010602D03*
D38*
X053741Y009854D03*
X063820Y009894D03*
X064765Y001665D03*
X053781Y001665D03*
D39*
X054647Y009421D03*
D40*
X062954Y009421D03*
D41*
X045401Y029623D03*
X045401Y030623D03*
X045401Y031623D03*
D42*
X045401Y028373D03*
D43*
X052151Y006062D03*
X052151Y004684D03*
D44*
X035805Y038503D03*
X035805Y041003D03*
X035805Y043503D03*
X031305Y043503D03*
X028805Y043503D03*
X028805Y041003D03*
X031305Y041003D03*
X031305Y038503D03*
X028805Y038503D03*
X024305Y038503D03*
X021805Y038503D03*
X021805Y041003D03*
X024305Y041003D03*
X024305Y043503D03*
X021805Y043503D03*
X017305Y043503D03*
X014805Y043503D03*
X014805Y041003D03*
X017305Y041003D03*
X017305Y038503D03*
X014805Y038503D03*
X010305Y038503D03*
X007805Y038503D03*
X007805Y041003D03*
X010305Y041003D03*
X010305Y043503D03*
X007805Y043503D03*
X003305Y043503D03*
X003305Y041003D03*
X003305Y038503D03*
D45*
X024616Y021932D03*
X024872Y021932D03*
X025128Y021932D03*
X025383Y021932D03*
X025639Y021932D03*
X025895Y021932D03*
X026151Y021932D03*
X026407Y021932D03*
X026663Y021932D03*
X026919Y021932D03*
X027175Y021932D03*
X027431Y021932D03*
X027687Y021932D03*
X027687Y016814D03*
X027431Y016814D03*
X027175Y016814D03*
X026919Y016814D03*
X026663Y016814D03*
X026407Y016814D03*
X026151Y016814D03*
X025895Y016814D03*
X025639Y016814D03*
X025383Y016814D03*
X025128Y016814D03*
X024872Y016814D03*
X024616Y016814D03*
D46*
X023592Y017837D03*
X023592Y018093D03*
X023592Y018349D03*
X023592Y018605D03*
X023592Y018861D03*
X023592Y019117D03*
X023592Y019373D03*
X023592Y019629D03*
X023592Y019885D03*
X023592Y020141D03*
X023592Y020397D03*
X023592Y020652D03*
X023592Y020908D03*
X028710Y020908D03*
X028710Y020652D03*
X028710Y020397D03*
X028710Y020141D03*
X028710Y019885D03*
X028710Y019629D03*
X028710Y019373D03*
X028710Y019117D03*
X028710Y018861D03*
X028710Y018605D03*
X028710Y018349D03*
X028710Y018093D03*
X028710Y017837D03*
D47*
X032919Y014334D03*
X033116Y014334D03*
X033313Y014334D03*
X033509Y014334D03*
X033706Y014334D03*
X033903Y014334D03*
X034100Y014334D03*
X034297Y014334D03*
X034494Y014334D03*
X034691Y014334D03*
X034887Y014334D03*
X035084Y014334D03*
X035281Y014334D03*
X035478Y014334D03*
X035675Y014334D03*
X035872Y014334D03*
X036069Y014334D03*
X036265Y014334D03*
X036462Y014334D03*
X036659Y014334D03*
X036856Y014334D03*
X037053Y014334D03*
X037250Y014334D03*
X037446Y014334D03*
X037643Y014334D03*
X037840Y014334D03*
X038037Y014334D03*
X038234Y014334D03*
X038431Y014334D03*
X038628Y014334D03*
X038824Y014334D03*
X039021Y014334D03*
X039218Y014334D03*
X039415Y014334D03*
X039612Y014334D03*
X039809Y014334D03*
X040006Y014334D03*
X040202Y014334D03*
X040399Y014334D03*
X040596Y014334D03*
X040793Y014334D03*
X040990Y014334D03*
X041187Y014334D03*
X041383Y014334D03*
X041383Y024412D03*
X041187Y024412D03*
X040990Y024412D03*
X040793Y024412D03*
X040596Y024412D03*
X040399Y024412D03*
X040202Y024412D03*
X040006Y024412D03*
X039809Y024412D03*
X039612Y024412D03*
X039415Y024412D03*
X039218Y024412D03*
X039021Y024412D03*
X038824Y024412D03*
X038628Y024412D03*
X038431Y024412D03*
X038234Y024412D03*
X038037Y024412D03*
X037840Y024412D03*
X037643Y024412D03*
X037446Y024412D03*
X037250Y024412D03*
X037053Y024412D03*
X036856Y024412D03*
X036659Y024412D03*
X036462Y024412D03*
X036265Y024412D03*
X036069Y024412D03*
X035872Y024412D03*
X035675Y024412D03*
X035478Y024412D03*
X035281Y024412D03*
X035084Y024412D03*
X034887Y024412D03*
X034691Y024412D03*
X034494Y024412D03*
X034297Y024412D03*
X034100Y024412D03*
X033903Y024412D03*
X033706Y024412D03*
X033509Y024412D03*
X033313Y024412D03*
X033116Y024412D03*
X032919Y024412D03*
D48*
X032112Y023605D03*
X032112Y023408D03*
X032112Y023211D03*
X032112Y023015D03*
X032112Y022818D03*
X032112Y022621D03*
X032112Y022424D03*
X032112Y022227D03*
X032112Y022030D03*
X032112Y021834D03*
X032112Y021637D03*
X032112Y021440D03*
X032112Y021243D03*
X032112Y021046D03*
X032112Y020849D03*
X032112Y020652D03*
X032112Y020456D03*
X032112Y020259D03*
X032112Y020062D03*
X032112Y019865D03*
X032112Y019668D03*
X032112Y019471D03*
X032112Y019274D03*
X032112Y019078D03*
X032112Y018881D03*
X032112Y018684D03*
X032112Y018487D03*
X032112Y018290D03*
X032112Y018093D03*
X032112Y017897D03*
X032112Y017700D03*
X032112Y017503D03*
X032112Y017306D03*
X032112Y017109D03*
X032112Y016912D03*
X032112Y016715D03*
X032112Y016519D03*
X032112Y016322D03*
X032112Y016125D03*
X032112Y015928D03*
X032112Y015731D03*
X032112Y015534D03*
X032112Y015337D03*
X032112Y015141D03*
X042191Y015141D03*
X042191Y015337D03*
X042191Y015534D03*
X042191Y015731D03*
X042191Y015928D03*
X042191Y016125D03*
X042191Y016322D03*
X042191Y016519D03*
X042191Y016715D03*
X042191Y016912D03*
X042191Y017109D03*
X042191Y017306D03*
X042191Y017503D03*
X042191Y017700D03*
X042191Y017897D03*
X042191Y018093D03*
X042191Y018290D03*
X042191Y018487D03*
X042191Y018684D03*
X042191Y018881D03*
X042191Y019078D03*
X042191Y019274D03*
X042191Y019471D03*
X042191Y019668D03*
X042191Y019865D03*
X042191Y020062D03*
X042191Y020259D03*
X042191Y020456D03*
X042191Y020652D03*
X042191Y020849D03*
X042191Y021046D03*
X042191Y021243D03*
X042191Y021440D03*
X042191Y021637D03*
X042191Y021834D03*
X042191Y022030D03*
X042191Y022227D03*
X042191Y022424D03*
X042191Y022621D03*
X042191Y022818D03*
X042191Y023015D03*
X042191Y023211D03*
X042191Y023408D03*
X042191Y023605D03*
D49*
X041651Y025599D03*
X041151Y025599D03*
X040651Y025599D03*
X040151Y025599D03*
X040151Y027647D03*
X040651Y027647D03*
X041151Y027647D03*
X041651Y027647D03*
D50*
X040371Y029963D03*
X040371Y030873D03*
X040371Y031783D03*
D51*
X037931Y030873D03*
D52*
X040401Y032873D03*
X040401Y033873D03*
D53*
X034151Y028523D03*
X034151Y027223D03*
X042901Y027523D03*
X042901Y026223D03*
D54*
X039151Y027940D03*
X038777Y028806D03*
X039525Y028806D03*
D55*
X038128Y028806D02*
X037162Y028806D01*
X037183Y028796D02*
X037045Y028857D01*
X037045Y029349D01*
X038128Y029349D01*
X038128Y026397D01*
X037045Y026397D01*
X037045Y026889D01*
X037183Y026949D01*
X037311Y027030D01*
X037426Y027127D01*
X037525Y027240D01*
X037608Y027367D01*
X037671Y027504D01*
X037714Y027648D01*
X037736Y027797D01*
X037736Y027948D01*
X037714Y028098D01*
X037671Y028242D01*
X037608Y028379D01*
X037525Y028505D01*
X037426Y028619D01*
X037311Y028716D01*
X037183Y028796D01*
X037294Y028727D02*
X038128Y028727D01*
X038128Y028649D02*
X037390Y028649D01*
X037469Y028570D02*
X038128Y028570D01*
X038128Y028491D02*
X037535Y028491D01*
X037586Y028413D02*
X038128Y028413D01*
X038128Y028334D02*
X037628Y028334D01*
X037665Y028256D02*
X038128Y028256D01*
X038128Y028177D02*
X037690Y028177D01*
X037714Y028099D02*
X038128Y028099D01*
X038128Y028020D02*
X037725Y028020D01*
X037736Y027942D02*
X038128Y027942D01*
X038128Y027863D02*
X037736Y027863D01*
X037734Y027785D02*
X038128Y027785D01*
X038128Y027706D02*
X037722Y027706D01*
X037708Y027627D02*
X038128Y027627D01*
X038128Y027549D02*
X037685Y027549D01*
X037656Y027470D02*
X038128Y027470D01*
X038128Y027392D02*
X037619Y027392D01*
X037573Y027313D02*
X038128Y027313D01*
X038128Y027235D02*
X037520Y027235D01*
X037451Y027156D02*
X038128Y027156D01*
X038128Y027078D02*
X037367Y027078D01*
X037262Y026999D02*
X038128Y026999D01*
X038128Y026921D02*
X037117Y026921D01*
X037045Y026842D02*
X038128Y026842D01*
X038128Y026763D02*
X037045Y026763D01*
X037045Y026685D02*
X038128Y026685D01*
X038128Y026606D02*
X037045Y026606D01*
X037045Y026528D02*
X038128Y026528D01*
X038128Y026449D02*
X037045Y026449D01*
X036257Y026449D02*
X035175Y026449D01*
X035175Y026397D02*
X036257Y026397D01*
X036257Y026889D01*
X036119Y026949D01*
X035992Y027030D01*
X035877Y027127D01*
X035777Y027240D01*
X035695Y027367D01*
X035631Y027504D01*
X035588Y027648D01*
X035567Y027797D01*
X035567Y027948D01*
X035588Y028098D01*
X035631Y028242D01*
X035695Y028379D01*
X035777Y028505D01*
X035877Y028619D01*
X035992Y028716D01*
X036119Y028796D01*
X036257Y028857D01*
X036257Y029349D01*
X035175Y029349D01*
X035175Y026397D01*
X035175Y026528D02*
X036257Y026528D01*
X036257Y026606D02*
X035175Y026606D01*
X035175Y026685D02*
X036257Y026685D01*
X036257Y026763D02*
X035175Y026763D01*
X035175Y026842D02*
X036257Y026842D01*
X036185Y026921D02*
X035175Y026921D01*
X035175Y026999D02*
X036040Y026999D01*
X035935Y027078D02*
X035175Y027078D01*
X035175Y027156D02*
X035851Y027156D01*
X035782Y027235D02*
X035175Y027235D01*
X035175Y027313D02*
X035729Y027313D01*
X035683Y027392D02*
X035175Y027392D01*
X035175Y027470D02*
X035647Y027470D01*
X035618Y027549D02*
X035175Y027549D01*
X035175Y027627D02*
X035594Y027627D01*
X035580Y027706D02*
X035175Y027706D01*
X035175Y027785D02*
X035568Y027785D01*
X035567Y027863D02*
X035175Y027863D01*
X035175Y027942D02*
X035567Y027942D01*
X035577Y028020D02*
X035175Y028020D01*
X035175Y028099D02*
X035589Y028099D01*
X035612Y028177D02*
X035175Y028177D01*
X035175Y028256D02*
X035638Y028256D01*
X035674Y028334D02*
X035175Y028334D01*
X035175Y028413D02*
X035717Y028413D01*
X035768Y028491D02*
X035175Y028491D01*
X035175Y028570D02*
X035834Y028570D01*
X035912Y028649D02*
X035175Y028649D01*
X035175Y028727D02*
X036009Y028727D01*
X036140Y028806D02*
X035175Y028806D01*
X035175Y028884D02*
X036257Y028884D01*
X036257Y028963D02*
X035175Y028963D01*
X035175Y029041D02*
X036257Y029041D01*
X036257Y029120D02*
X035175Y029120D01*
X035175Y029198D02*
X036257Y029198D01*
X036257Y029277D02*
X035175Y029277D01*
X037045Y029277D02*
X038128Y029277D01*
X038128Y029198D02*
X037045Y029198D01*
X037045Y029120D02*
X038128Y029120D01*
X038128Y029041D02*
X037045Y029041D01*
X037045Y028963D02*
X038128Y028963D01*
X038128Y028884D02*
X037045Y028884D01*
D56*
X033208Y026327D02*
X032594Y026327D01*
X032594Y026863D01*
X033208Y026863D01*
X033208Y026327D01*
X033208Y026460D02*
X032594Y026460D01*
X032594Y026593D02*
X033208Y026593D01*
X033208Y026726D02*
X032594Y026726D01*
X032594Y026859D02*
X033208Y026859D01*
X032208Y026327D02*
X031594Y026327D01*
X031594Y026863D01*
X032208Y026863D01*
X032208Y026327D01*
X032208Y026460D02*
X031594Y026460D01*
X031594Y026593D02*
X032208Y026593D01*
X032208Y026726D02*
X031594Y026726D01*
X031594Y026859D02*
X032208Y026859D01*
X032208Y025918D02*
X031594Y025918D01*
X032208Y025918D02*
X032208Y025382D01*
X031594Y025382D01*
X031594Y025918D01*
X031594Y025515D02*
X032208Y025515D01*
X032208Y025648D02*
X031594Y025648D01*
X031594Y025781D02*
X032208Y025781D01*
X032208Y025914D02*
X031594Y025914D01*
X032594Y025382D02*
X033208Y025382D01*
X032594Y025382D02*
X032594Y025918D01*
X033208Y025918D01*
X033208Y025382D01*
X033208Y025515D02*
X032594Y025515D01*
X032594Y025648D02*
X033208Y025648D01*
X033208Y025781D02*
X032594Y025781D01*
X032594Y025914D02*
X033208Y025914D01*
X029958Y016077D02*
X029344Y016077D01*
X029344Y016613D01*
X029958Y016613D01*
X029958Y016077D01*
X029958Y016210D02*
X029344Y016210D01*
X029344Y016343D02*
X029958Y016343D01*
X029958Y016476D02*
X029344Y016476D01*
X029344Y016609D02*
X029958Y016609D01*
X028958Y016077D02*
X028344Y016077D01*
X028344Y016613D01*
X028958Y016613D01*
X028958Y016077D01*
X028958Y016210D02*
X028344Y016210D01*
X028344Y016343D02*
X028958Y016343D01*
X028958Y016476D02*
X028344Y016476D01*
X028344Y016609D02*
X028958Y016609D01*
X028958Y015668D02*
X028344Y015668D01*
X028958Y015668D02*
X028958Y015132D01*
X028344Y015132D01*
X028344Y015668D01*
X028344Y015265D02*
X028958Y015265D01*
X028958Y015398D02*
X028344Y015398D01*
X028344Y015531D02*
X028958Y015531D01*
X028958Y015664D02*
X028344Y015664D01*
X029344Y015132D02*
X029958Y015132D01*
X029344Y015132D02*
X029344Y015668D01*
X029958Y015668D01*
X029958Y015132D01*
X029958Y015265D02*
X029344Y015265D01*
X029344Y015398D02*
X029958Y015398D01*
X029958Y015531D02*
X029344Y015531D01*
X029344Y015664D02*
X029958Y015664D01*
D57*
X033645Y011816D02*
X033687Y011857D01*
X033737Y011890D01*
X033793Y011912D01*
X033851Y011923D01*
X033951Y011923D01*
X034010Y011912D01*
X034065Y011890D01*
X034114Y011857D01*
X034157Y011815D01*
X034190Y011766D01*
X034213Y011711D01*
X034225Y011653D01*
X034225Y011593D01*
X034213Y011535D01*
X034190Y011480D01*
X034157Y011431D01*
X034114Y011389D01*
X034065Y011356D01*
X034010Y011334D01*
X033951Y011323D01*
X033851Y011323D01*
X033793Y011334D01*
X033737Y011356D01*
X033687Y011389D01*
X033645Y011430D01*
X033611Y011480D01*
X033588Y011535D01*
X033577Y011593D01*
X033577Y011653D01*
X033588Y011711D01*
X033611Y011766D01*
X033645Y011816D01*
X033659Y011829D02*
X034143Y011829D01*
X034180Y011781D02*
X033621Y011781D01*
X033597Y011732D02*
X034204Y011732D01*
X034219Y011684D02*
X033583Y011684D01*
X033577Y011635D02*
X034225Y011635D01*
X034223Y011586D02*
X033578Y011586D01*
X033588Y011538D02*
X034214Y011538D01*
X034194Y011489D02*
X033607Y011489D01*
X033638Y011441D02*
X034164Y011441D01*
X034118Y011392D02*
X033684Y011392D01*
X033768Y011344D02*
X034034Y011344D01*
X034362Y011480D02*
X034339Y011535D01*
X034328Y011593D01*
X034328Y011653D01*
X034339Y011711D01*
X034362Y011766D01*
X034396Y011815D01*
X034438Y011857D01*
X034488Y011890D01*
X034543Y011912D01*
X034601Y011923D01*
X034701Y011923D01*
X034760Y011912D01*
X034815Y011890D01*
X034865Y011857D01*
X034908Y011816D01*
X034941Y011766D01*
X034964Y011711D01*
X034976Y011653D01*
X034976Y011593D01*
X034964Y011535D01*
X034941Y011480D01*
X034908Y011430D01*
X034865Y011389D01*
X034815Y011356D01*
X034760Y011334D01*
X034701Y011323D01*
X034601Y011323D01*
X034543Y011334D01*
X034488Y011356D01*
X034438Y011389D01*
X034396Y011431D01*
X034362Y011480D01*
X034358Y011489D02*
X034945Y011489D01*
X034965Y011538D02*
X034339Y011538D01*
X034329Y011586D02*
X034974Y011586D01*
X034976Y011635D02*
X034328Y011635D01*
X034334Y011684D02*
X034970Y011684D01*
X034955Y011732D02*
X034348Y011732D01*
X034372Y011781D02*
X034931Y011781D01*
X034894Y011829D02*
X034410Y011829D01*
X034469Y011878D02*
X034834Y011878D01*
X034915Y011441D02*
X034389Y011441D01*
X034434Y011392D02*
X034869Y011392D01*
X034785Y011344D02*
X034518Y011344D01*
X034083Y011878D02*
X033718Y011878D01*
D58*
X020792Y023489D03*
X020792Y023745D03*
X020792Y024000D03*
X020792Y024256D03*
X019011Y024256D03*
X019011Y024000D03*
X019011Y023745D03*
X019011Y023489D03*
X017042Y031489D03*
X017042Y031745D03*
X017042Y032001D03*
X017042Y032257D03*
X015260Y032257D03*
X015260Y032001D03*
X015260Y031745D03*
X015260Y031489D03*
D59*
X037057Y011519D03*
X037372Y011519D03*
X037687Y011519D03*
X038002Y011519D03*
X038317Y011519D03*
X038631Y011519D03*
X038946Y011519D03*
X039261Y011519D03*
X039576Y011519D03*
X039891Y011519D03*
X040206Y011519D03*
X040521Y011519D03*
X040836Y011519D03*
X041151Y011519D03*
X041466Y011519D03*
X041781Y011519D03*
X042096Y011519D03*
X042411Y011519D03*
X042726Y011519D03*
X043041Y011519D03*
X043356Y011519D03*
X043671Y011519D03*
X043986Y011519D03*
X044301Y011519D03*
X044616Y011519D03*
X044931Y011519D03*
X045246Y011519D03*
X045246Y007227D03*
X044931Y007227D03*
X044616Y007227D03*
X044301Y007227D03*
X043986Y007227D03*
X043671Y007227D03*
X043356Y007227D03*
X043041Y007227D03*
X042726Y007227D03*
X042411Y007227D03*
X042096Y007227D03*
X041781Y007227D03*
X041466Y007227D03*
X041151Y007227D03*
X040836Y007227D03*
X040521Y007227D03*
X040206Y007227D03*
X039891Y007227D03*
X039576Y007227D03*
X039261Y007227D03*
X038946Y007227D03*
X038631Y007227D03*
X038317Y007227D03*
X038002Y007227D03*
X037687Y007227D03*
X037372Y007227D03*
X037057Y007227D03*
D60*
X034151Y001873D03*
D61*
X034151Y002873D03*
X035151Y002873D03*
X036151Y002873D03*
X036151Y001873D03*
X035151Y001873D03*
X037151Y001873D03*
X038151Y001873D03*
X039151Y001873D03*
X039151Y002873D03*
X038151Y002873D03*
X037151Y002873D03*
X040151Y002873D03*
X040151Y001873D03*
D62*
X036401Y003873D03*
X033401Y005373D03*
X037776Y006248D03*
X038651Y006623D03*
X039776Y006248D03*
X040526Y006623D03*
X041401Y006248D03*
X043276Y006623D03*
X043026Y007873D03*
X044276Y009498D03*
X044026Y009873D03*
X043776Y010248D03*
X043526Y010748D03*
X043026Y010748D03*
X042276Y010873D03*
X041776Y010873D03*
X040526Y010873D03*
X039401Y010873D03*
X038901Y010873D03*
X036901Y010498D03*
X036526Y010248D03*
X036901Y009998D03*
X036526Y009748D03*
X036901Y009498D03*
X036526Y009248D03*
X036901Y008998D03*
X036526Y008748D03*
X036526Y010873D03*
X034276Y011123D03*
X034276Y012498D03*
X033526Y013748D03*
X033151Y014998D03*
X034651Y014873D03*
X036151Y014873D03*
X036901Y014873D03*
X037276Y014873D03*
X037651Y014873D03*
X038026Y014873D03*
X038401Y014873D03*
X038776Y013748D03*
X038526Y013123D03*
X038026Y013123D03*
X037651Y013123D03*
X037151Y013123D03*
X036526Y013748D03*
X039026Y013123D03*
X041026Y012748D03*
X041401Y012998D03*
X042026Y012498D03*
X041026Y012123D03*
X041776Y013998D03*
X042026Y014623D03*
X041651Y015373D03*
X040776Y014873D03*
X042776Y015248D03*
X041651Y016998D03*
X040901Y017248D03*
X042776Y017373D03*
X044776Y017248D03*
X045026Y016498D03*
X045276Y015748D03*
X045526Y014998D03*
X045776Y012498D03*
X044526Y010748D03*
X044776Y010248D03*
X045026Y009623D03*
X045276Y008998D03*
X045526Y008373D03*
X045776Y007498D03*
X045526Y006248D03*
X047651Y004623D03*
X047151Y004123D03*
X049151Y003623D03*
X050651Y005373D03*
X052901Y003873D03*
X053151Y001623D03*
X056651Y007373D03*
X055651Y008373D03*
X057401Y009623D03*
X059401Y007873D03*
X060401Y009623D03*
X060651Y012123D03*
X061401Y012123D03*
X059151Y012123D03*
X057651Y012123D03*
X055901Y012123D03*
X054651Y012373D03*
X054401Y011873D03*
X053901Y011373D03*
X052151Y012873D03*
X051651Y012873D03*
X051401Y013123D03*
X050901Y013373D03*
X050651Y013873D03*
X051776Y016873D03*
X052401Y017748D03*
X052151Y017998D03*
X051901Y018248D03*
X051276Y018248D03*
X050901Y018248D03*
X050526Y018623D03*
X049776Y018373D03*
X049401Y018373D03*
X049151Y019498D03*
X048901Y019873D03*
X048901Y020248D03*
X048901Y020623D03*
X048901Y020998D03*
X050151Y021873D03*
X050151Y022373D03*
X050151Y022748D03*
X050151Y023123D03*
X050151Y023498D03*
X050151Y023873D03*
X050151Y025248D03*
X050151Y025623D03*
X050901Y026873D03*
X051651Y026873D03*
X052026Y026873D03*
X052401Y026873D03*
X052776Y026873D03*
X053526Y026873D03*
X053901Y026873D03*
X054401Y026873D03*
X055526Y026873D03*
X055901Y026873D03*
X054651Y025373D03*
X054151Y024623D03*
X055651Y024623D03*
X057151Y024623D03*
X058401Y024748D03*
X058776Y024748D03*
X059151Y024748D03*
X059401Y024498D03*
X059901Y024498D03*
X059526Y025248D03*
X059526Y025873D03*
X059901Y025873D03*
X059151Y026623D03*
X059651Y027123D03*
X058526Y027123D03*
X058276Y027373D03*
X058026Y027623D03*
X057151Y025373D03*
X057151Y023498D03*
X057151Y023123D03*
X056776Y022623D03*
X057151Y021498D03*
X057151Y020623D03*
X057151Y019998D03*
X056526Y019873D03*
X056151Y019873D03*
X055776Y019873D03*
X055401Y019873D03*
X055026Y019873D03*
X054651Y019873D03*
X054276Y019873D03*
X053901Y019873D03*
X052776Y019873D03*
X052401Y019873D03*
X052026Y019873D03*
X051651Y019873D03*
X051276Y019873D03*
X050901Y019873D03*
X050401Y021123D03*
X052401Y021373D03*
X053901Y021373D03*
X055651Y020623D03*
X058401Y020248D03*
X058901Y020623D03*
X059276Y021373D03*
X061151Y021998D03*
X061151Y022373D03*
X061151Y023248D03*
X061401Y024373D03*
X061151Y024623D03*
X061776Y024373D03*
X061151Y025623D03*
X061151Y026123D03*
X063776Y023998D03*
X064151Y023998D03*
X064151Y024498D03*
X064151Y025123D03*
X064151Y025498D03*
X064151Y025873D03*
X064151Y026373D03*
X064151Y026748D03*
X064151Y027123D03*
X065401Y026373D03*
X066651Y026873D03*
X066651Y024873D03*
X065401Y024373D03*
X065401Y022373D03*
X065401Y021998D03*
X065776Y021998D03*
X064151Y021748D03*
X063651Y021123D03*
X063401Y020873D03*
X064151Y020623D03*
X064151Y020248D03*
X064151Y019873D03*
X064151Y019498D03*
X063901Y019123D03*
X063276Y018873D03*
X062901Y017873D03*
X062151Y017623D03*
X061964Y018560D03*
X061151Y018748D03*
X061151Y019248D03*
X059776Y019248D03*
X059276Y019123D03*
X058776Y018998D03*
X058401Y018748D03*
X058151Y018248D03*
X057776Y017873D03*
X059651Y017873D03*
X059901Y017623D03*
X060651Y017373D03*
X065026Y018873D03*
X066651Y019123D03*
X059151Y023123D03*
X058401Y022873D03*
X054401Y018123D03*
X054776Y017810D03*
X055526Y016873D03*
X055901Y017123D03*
X053651Y016873D03*
X047151Y020623D03*
X044276Y021498D03*
X044026Y021123D03*
X043776Y020873D03*
X043526Y020498D03*
X042776Y019623D03*
X041651Y019873D03*
X041651Y019373D03*
X044526Y018873D03*
X041651Y021498D03*
X041276Y021748D03*
X040901Y021998D03*
X040526Y022248D03*
X040026Y023123D03*
X041026Y023873D03*
X041651Y023373D03*
X041651Y022373D03*
X041651Y021998D03*
X042776Y022123D03*
X042776Y022498D03*
X043276Y022873D03*
X043901Y023623D03*
X043526Y023873D03*
X043526Y024373D03*
X044276Y023873D03*
X044651Y024123D03*
X044901Y023373D03*
X046151Y023373D03*
X046651Y023373D03*
X046651Y024623D03*
X046151Y024623D03*
X045026Y025123D03*
X043276Y025123D03*
X042901Y025123D03*
X040401Y024934D03*
X039276Y024998D03*
X037651Y024998D03*
X036651Y025873D03*
X035276Y025123D03*
X033901Y025373D03*
X032901Y027123D03*
X031901Y027123D03*
X031151Y025623D03*
X030651Y025498D03*
X031526Y023748D03*
X031526Y023248D03*
X030651Y022248D03*
X030151Y021623D03*
X029526Y020998D03*
X029776Y020623D03*
X029901Y019873D03*
X030776Y018873D03*
X031276Y018748D03*
X031590Y018559D03*
X031276Y018373D03*
X030401Y017623D03*
X030401Y017248D03*
X028901Y017248D03*
X027901Y017373D03*
X027901Y018123D03*
X028151Y019123D03*
X027901Y019373D03*
X028151Y020373D03*
X028151Y020873D03*
X028151Y022373D03*
X028401Y022873D03*
X029151Y023248D03*
X028151Y024373D03*
X027526Y024373D03*
X026651Y023373D03*
X025526Y021373D03*
X025026Y021373D03*
X022901Y020998D03*
X022901Y020498D03*
X021901Y021873D03*
X020651Y022873D03*
X019401Y023373D03*
X021276Y024498D03*
X021901Y023873D03*
X025026Y017373D03*
X026901Y015873D03*
X027401Y016123D03*
X027401Y015623D03*
X029651Y014873D03*
X032651Y016623D03*
X034901Y017373D03*
X034151Y019373D03*
X032651Y019498D03*
X032651Y021373D03*
X032651Y022248D03*
X033401Y022248D03*
X034151Y022748D03*
X033026Y023873D03*
X035526Y023873D03*
X036651Y023873D03*
X037901Y023123D03*
X042151Y028123D03*
X040026Y028873D03*
X043901Y030873D03*
X044401Y030373D03*
X046151Y032623D03*
X046651Y032623D03*
X049151Y031123D03*
X049901Y029623D03*
X049901Y028123D03*
X049651Y027623D03*
X049151Y027623D03*
X049276Y027123D03*
X050651Y028248D03*
X051901Y028123D03*
X053151Y028123D03*
X055026Y029623D03*
X055901Y029623D03*
X052401Y032373D03*
X051401Y033373D03*
X050651Y034123D03*
X051151Y034873D03*
X050651Y035373D03*
X050901Y035873D03*
X049401Y037123D03*
X047901Y036373D03*
X048151Y035623D03*
X048776Y035623D03*
X046651Y036123D03*
X045901Y036373D03*
X045901Y035623D03*
X044901Y034873D03*
X046651Y034623D03*
X043651Y033123D03*
X039651Y032873D03*
X039651Y033873D03*
X043901Y037123D03*
X044401Y037123D03*
X044151Y038373D03*
X034151Y029248D03*
X031026Y021498D03*
X031526Y021248D03*
X037651Y016498D03*
X051651Y023123D03*
X051651Y023873D03*
X051651Y025373D03*
X062901Y028748D03*
X065151Y029623D03*
X065151Y030123D03*
X063901Y006873D03*
X063901Y006373D03*
X063401Y006373D03*
X020151Y032748D03*
X019651Y032748D03*
X019151Y032748D03*
X018151Y032748D03*
X017526Y032373D03*
X017526Y033498D03*
X018026Y034248D03*
X019151Y034623D03*
X017151Y035623D03*
X015401Y032873D03*
X014776Y031998D03*
X015776Y031498D03*
X018151Y031248D03*
X019151Y031623D03*
X019651Y031998D03*
X012901Y031998D03*
X012151Y031248D03*
X012276Y032748D03*
X012776Y033498D03*
X011901Y038373D03*
D63*
X052651Y038873D03*
X053651Y038873D03*
X056151Y038373D03*
X056151Y037873D03*
X056151Y037373D03*
X056401Y034373D03*
X058651Y032873D03*
X061151Y032873D03*
X061151Y031873D03*
X064151Y030373D03*
X054901Y030873D03*
X053901Y030873D03*
X052901Y030873D03*
D64*
X045901Y031123D03*
X044651Y029623D03*
X044651Y028373D03*
X045401Y033873D03*
M02*
