G75*
G70*
%OFA0B0*%
%FSLAX24Y24*%
%IPPOS*%
%LPD*%
%AMOC8*
5,1,8,0,0,1.08239X$1,22.5*
%
%ADD10C,0.0600*%
%ADD11OC8,0.0554*%
%ADD12C,0.0436*%
%ADD13OC8,0.1000*%
%ADD14R,0.0600X0.0600*%
%ADD15OC8,0.0600*%
%ADD16C,0.0310*%
%ADD17C,0.0160*%
%ADD18C,0.0100*%
%ADD19C,0.0240*%
D10*
X007151Y023980D02*
X007151Y024580D01*
X008151Y024580D02*
X008151Y023980D01*
X009151Y023980D02*
X009151Y024580D01*
X010151Y024580D02*
X010151Y023980D01*
X011151Y023980D02*
X011151Y024580D01*
X012151Y024580D02*
X012151Y023980D01*
X013151Y023980D02*
X013151Y024580D01*
X014151Y024580D02*
X014151Y023980D01*
X015151Y023980D02*
X015151Y024580D01*
X016151Y024580D02*
X016151Y023980D01*
X017151Y023980D02*
X017151Y024580D01*
X018151Y024580D02*
X018151Y023980D01*
X019151Y023980D02*
X019151Y024580D01*
X020151Y024580D02*
X020151Y023980D01*
X021151Y023980D02*
X021151Y024580D01*
X022151Y024580D02*
X022151Y023980D01*
X023151Y023980D02*
X023151Y024580D01*
X024151Y024580D02*
X024151Y023980D01*
X025151Y023980D02*
X025151Y024580D01*
X026151Y024580D02*
X026151Y023980D01*
D11*
X026720Y004764D03*
X029082Y004764D03*
X029082Y002796D03*
X026720Y002796D03*
X021582Y002796D03*
X019220Y002796D03*
X019220Y004764D03*
X021582Y004764D03*
X014082Y004764D03*
X011720Y004764D03*
X011720Y002796D03*
X014082Y002796D03*
X006582Y002796D03*
X004220Y002796D03*
X004220Y004764D03*
X006582Y004764D03*
X061970Y036296D03*
X061970Y038264D03*
X064332Y038264D03*
X064332Y036296D03*
D12*
X055651Y015030D02*
X055651Y014594D01*
X055151Y014594D02*
X055151Y015030D01*
X054651Y015030D02*
X054651Y014594D01*
X054151Y014594D02*
X054151Y015030D01*
X053651Y015030D02*
X053651Y014594D01*
X053151Y014594D02*
X053151Y015030D01*
X043151Y015030D02*
X043151Y014594D01*
X042651Y014594D02*
X042651Y015030D01*
X042151Y015030D02*
X042151Y014594D01*
X041651Y014594D02*
X041651Y015030D01*
X041151Y015030D02*
X041151Y014594D01*
X040651Y014594D02*
X040651Y015030D01*
X046901Y003780D02*
X046901Y003344D01*
X047401Y003344D02*
X047401Y003780D01*
X047901Y003780D02*
X047901Y003344D01*
X048401Y003344D02*
X048401Y003780D01*
X048901Y003780D02*
X048901Y003344D01*
X049401Y003344D02*
X049401Y003780D01*
X059401Y003780D02*
X059401Y003344D01*
X059901Y003344D02*
X059901Y003780D01*
X060401Y003780D02*
X060401Y003344D01*
X060901Y003344D02*
X060901Y003780D01*
X061401Y003780D02*
X061401Y003344D01*
X061901Y003344D02*
X061901Y003780D01*
D13*
X055084Y041170D03*
X055084Y043335D03*
X054297Y044280D03*
X051084Y043335D03*
X050297Y044280D03*
X047084Y043335D03*
X046297Y044280D03*
X043084Y043335D03*
X042297Y044280D03*
X043084Y041170D03*
X047084Y041170D03*
X051084Y041170D03*
D14*
X038151Y044280D03*
X065901Y018530D03*
D15*
X066901Y018530D03*
X066901Y017530D03*
X065901Y017530D03*
X065901Y016530D03*
X066901Y016530D03*
X066901Y015530D03*
X065901Y015530D03*
X065901Y014530D03*
X066901Y014530D03*
X066901Y013530D03*
X065901Y013530D03*
X065901Y012530D03*
X066901Y012530D03*
X066901Y011530D03*
X065901Y011530D03*
X065901Y010530D03*
X066901Y010530D03*
X066901Y009530D03*
X065901Y009530D03*
X065901Y008530D03*
X066901Y008530D03*
X066901Y007530D03*
X065901Y007530D03*
X065901Y006530D03*
X066901Y006530D03*
X066901Y005530D03*
X065901Y005530D03*
X039151Y037280D03*
X038151Y037280D03*
X038151Y038280D03*
X039151Y038280D03*
X039151Y039280D03*
X038151Y039280D03*
X038151Y040280D03*
X039151Y040280D03*
X039151Y041280D03*
X038151Y041280D03*
X038151Y042280D03*
X039151Y042280D03*
X039151Y043280D03*
X038151Y043280D03*
X039151Y044280D03*
D16*
X043151Y038030D03*
X042401Y037530D03*
X046401Y037530D03*
X050401Y037530D03*
X051151Y038030D03*
X054401Y037530D03*
X055151Y038030D03*
X054401Y034780D03*
X054151Y033530D03*
X056401Y031530D03*
X058901Y033030D03*
X057151Y034030D03*
X052151Y031280D03*
X060651Y024030D03*
X060651Y023030D03*
X060651Y022530D03*
X060651Y022030D03*
X060651Y021530D03*
X060651Y021030D03*
X061401Y022530D03*
X061401Y023030D03*
X061901Y023530D03*
X062401Y023530D03*
X062401Y023030D03*
X062901Y022030D03*
X063901Y021530D03*
X064401Y021030D03*
X060651Y019030D03*
X060651Y018530D03*
X060651Y018030D03*
X060651Y017530D03*
X060651Y017030D03*
X060651Y016530D03*
X060651Y016030D03*
X060651Y015530D03*
X060651Y014530D03*
X060651Y014030D03*
X060651Y013530D03*
X060651Y013030D03*
X059401Y011030D03*
X056401Y009780D03*
X055901Y009780D03*
X055901Y012280D03*
X056401Y012280D03*
X055651Y015030D03*
X051151Y014030D03*
X049651Y013280D03*
X049151Y015780D03*
X051151Y016280D03*
X043401Y010030D03*
X043901Y009530D03*
X043901Y006780D03*
X043401Y006780D03*
X044901Y005030D03*
X044901Y002780D03*
X043401Y002030D03*
X055651Y002280D03*
X057401Y002780D03*
X057401Y005030D03*
X038651Y014030D03*
X037151Y013280D03*
X038651Y016280D03*
X030651Y006030D03*
X023151Y006030D03*
X015651Y006030D03*
X008151Y006030D03*
X025151Y026530D03*
X057901Y044530D03*
X059901Y044530D03*
X059901Y043780D03*
X066401Y024030D03*
D17*
X060651Y024030D01*
X057901Y031530D02*
X056401Y031530D01*
X057901Y031530D02*
X058901Y032530D01*
X058901Y033030D01*
X025151Y026530D02*
X025151Y024280D01*
D18*
X002157Y001863D02*
X002081Y001730D01*
X049598Y001730D01*
X048760Y002568D01*
X048760Y002568D01*
X048689Y002638D01*
X048651Y002730D01*
X048651Y003102D01*
X048651Y003102D01*
X048598Y003049D01*
X048470Y002996D01*
X048332Y002996D01*
X048204Y003049D01*
X048151Y003102D01*
X048098Y003049D01*
X047970Y002996D01*
X047832Y002996D01*
X047704Y003049D01*
X047651Y003102D01*
X047598Y003049D01*
X047470Y002996D01*
X047332Y002996D01*
X047204Y003049D01*
X047165Y003087D01*
X047136Y003058D01*
X047076Y003018D01*
X047009Y002990D01*
X046937Y002976D01*
X046910Y002976D01*
X046910Y003771D01*
X046892Y003771D01*
X046533Y003771D01*
X046533Y003308D01*
X046547Y003236D01*
X046575Y003169D01*
X046615Y003109D01*
X046666Y003058D01*
X046727Y003018D01*
X046794Y002990D01*
X046865Y002976D01*
X046892Y002976D01*
X046892Y003771D01*
X046892Y003789D01*
X046533Y003789D01*
X046533Y003816D01*
X046547Y003887D01*
X046575Y003954D01*
X046615Y004015D01*
X046666Y004066D01*
X046727Y004106D01*
X046794Y004134D01*
X046865Y004148D01*
X046892Y004148D01*
X046892Y003789D01*
X046910Y003789D01*
X046910Y004148D01*
X046937Y004148D01*
X047009Y004134D01*
X047076Y004106D01*
X047136Y004066D01*
X047165Y004036D01*
X047204Y004075D01*
X047332Y004128D01*
X047470Y004128D01*
X047598Y004075D01*
X047651Y004022D01*
X047704Y004075D01*
X047832Y004128D01*
X047970Y004128D01*
X048098Y004075D01*
X048151Y004022D01*
X048204Y004075D01*
X048332Y004128D01*
X048470Y004128D01*
X048598Y004075D01*
X048651Y004022D01*
X048704Y004075D01*
X048832Y004128D01*
X048970Y004128D01*
X049098Y004075D01*
X049151Y004022D01*
X049204Y004075D01*
X049332Y004128D01*
X049470Y004128D01*
X049598Y004075D01*
X049696Y003977D01*
X049749Y003849D01*
X049749Y003275D01*
X049696Y003147D01*
X049598Y003049D01*
X049470Y002996D01*
X049332Y002996D01*
X049204Y003049D01*
X049151Y003102D01*
X049151Y002883D01*
X050005Y002030D01*
X061151Y002030D01*
X061151Y003101D01*
X061151Y003101D01*
X061098Y003049D01*
X060970Y002996D01*
X060832Y002996D01*
X060704Y003049D01*
X060651Y003101D01*
X060598Y003049D01*
X060470Y002996D01*
X060332Y002996D01*
X060204Y003049D01*
X060151Y003101D01*
X060098Y003049D01*
X059970Y002996D01*
X059832Y002996D01*
X059704Y003049D01*
X059665Y003087D01*
X059636Y003058D01*
X059576Y003018D01*
X059509Y002990D01*
X059437Y002976D01*
X059410Y002976D01*
X059410Y003771D01*
X059392Y003771D01*
X059033Y003771D01*
X059033Y003307D01*
X059047Y003236D01*
X059075Y003169D01*
X059115Y003109D01*
X059166Y003058D01*
X059227Y003018D01*
X059294Y002990D01*
X059365Y002976D01*
X059392Y002976D01*
X059392Y003771D01*
X059392Y003789D01*
X059033Y003789D01*
X059033Y003816D01*
X059047Y003887D01*
X059075Y003954D01*
X059115Y004015D01*
X059166Y004066D01*
X059227Y004106D01*
X059294Y004134D01*
X059365Y004148D01*
X059392Y004148D01*
X059392Y003789D01*
X059410Y003789D01*
X059410Y004148D01*
X059437Y004148D01*
X059509Y004134D01*
X059576Y004106D01*
X059636Y004066D01*
X059665Y004036D01*
X059704Y004075D01*
X059832Y004128D01*
X059970Y004128D01*
X060098Y004075D01*
X060151Y004022D01*
X060204Y004075D01*
X060332Y004128D01*
X060470Y004128D01*
X060598Y004075D01*
X060651Y004022D01*
X060704Y004075D01*
X060832Y004128D01*
X060970Y004128D01*
X061098Y004075D01*
X061151Y004022D01*
X061204Y004075D01*
X061332Y004128D01*
X061470Y004128D01*
X061598Y004075D01*
X061651Y004022D01*
X061704Y004075D01*
X061832Y004128D01*
X061970Y004128D01*
X062098Y004075D01*
X062196Y003977D01*
X062249Y003849D01*
X062249Y003274D01*
X062196Y003147D01*
X062098Y003049D01*
X061970Y002996D01*
X061832Y002996D01*
X061704Y003049D01*
X061651Y003101D01*
X061651Y003101D01*
X061651Y002030D01*
X065048Y002030D01*
X067401Y004384D01*
X067401Y006280D01*
X067259Y006280D01*
X067079Y006100D01*
X066723Y006100D01*
X066471Y006352D01*
X066471Y006708D01*
X066723Y006960D01*
X067079Y006960D01*
X067259Y006780D01*
X067401Y006780D01*
X067401Y039176D01*
X063048Y043530D01*
X060042Y043530D01*
X059958Y043495D01*
X059844Y043495D01*
X059740Y043538D01*
X059660Y043619D01*
X059616Y043723D01*
X059616Y043837D01*
X059660Y043941D01*
X059740Y044022D01*
X059844Y044065D01*
X059958Y044065D01*
X060042Y044030D01*
X063201Y044030D01*
X063293Y043992D01*
X063363Y043922D01*
X067701Y039583D01*
X067701Y043351D01*
X067568Y043274D01*
X067293Y043200D01*
X067009Y043200D01*
X066734Y043274D01*
X066488Y043416D01*
X066287Y043617D01*
X066145Y043863D01*
X066071Y044138D01*
X066071Y044422D01*
X066145Y044697D01*
X066222Y044830D01*
X059151Y044830D01*
X059151Y033171D01*
X059186Y033087D01*
X059186Y032973D01*
X059151Y032889D01*
X059151Y032280D01*
X058151Y031280D01*
X056542Y031280D01*
X056458Y031245D01*
X056344Y031245D01*
X056260Y031280D01*
X000601Y031280D01*
X000601Y003209D01*
X000734Y003286D01*
X001009Y003360D01*
X001293Y003360D01*
X001568Y003286D01*
X001814Y003144D01*
X002015Y002943D01*
X002157Y002697D01*
X002231Y002422D01*
X002231Y002138D01*
X002157Y001863D01*
X002160Y001871D02*
X049456Y001871D01*
X049358Y001970D02*
X002186Y001970D01*
X002212Y002068D02*
X049259Y002068D01*
X049161Y002167D02*
X002231Y002167D01*
X002231Y002265D02*
X049062Y002265D01*
X048964Y002364D02*
X002231Y002364D01*
X002220Y002463D02*
X003949Y002463D01*
X004043Y002369D02*
X004181Y002369D01*
X004181Y002757D01*
X003793Y002757D01*
X003793Y002619D01*
X004043Y002369D01*
X004181Y002463D02*
X004259Y002463D01*
X004259Y002369D02*
X004397Y002369D01*
X004647Y002619D01*
X004647Y002757D01*
X004259Y002757D01*
X004259Y002834D01*
X004647Y002834D01*
X004647Y002973D01*
X004397Y003223D01*
X004259Y003223D01*
X004259Y002835D01*
X004181Y002835D01*
X004181Y003223D01*
X004043Y003223D01*
X003793Y002973D01*
X003793Y002834D01*
X004181Y002834D01*
X004181Y002757D01*
X004259Y002757D01*
X004259Y002369D01*
X004259Y002561D02*
X004181Y002561D01*
X004181Y002660D02*
X004259Y002660D01*
X004259Y002758D02*
X006543Y002758D01*
X006543Y002757D02*
X006155Y002757D01*
X006155Y002619D01*
X006405Y002369D01*
X006544Y002369D01*
X006544Y002757D01*
X006621Y002757D01*
X006621Y002834D01*
X007009Y002834D01*
X007009Y002973D01*
X006759Y003223D01*
X006621Y003223D01*
X006621Y002835D01*
X006544Y002835D01*
X006544Y003223D01*
X006405Y003223D01*
X006155Y002973D01*
X006155Y002834D01*
X006543Y002834D01*
X006543Y002757D01*
X006621Y002757D02*
X006621Y002369D01*
X006759Y002369D01*
X007009Y002619D01*
X007009Y002757D01*
X006621Y002757D01*
X006621Y002758D02*
X011681Y002758D01*
X011681Y002757D02*
X011293Y002757D01*
X011293Y002619D01*
X011543Y002369D01*
X011681Y002369D01*
X011681Y002757D01*
X011681Y002834D01*
X011293Y002834D01*
X011293Y002973D01*
X011543Y003223D01*
X011681Y003223D01*
X011681Y002835D01*
X011759Y002835D01*
X011759Y003223D01*
X011897Y003223D01*
X012147Y002973D01*
X012147Y002834D01*
X011759Y002834D01*
X011759Y002757D01*
X012147Y002757D01*
X012147Y002619D01*
X011897Y002369D01*
X011759Y002369D01*
X011759Y002757D01*
X011681Y002757D01*
X011759Y002758D02*
X014043Y002758D01*
X014043Y002757D02*
X013655Y002757D01*
X013655Y002619D01*
X013905Y002369D01*
X014044Y002369D01*
X014044Y002757D01*
X014121Y002757D01*
X014121Y002834D01*
X014509Y002834D01*
X014509Y002973D01*
X014259Y003223D01*
X014121Y003223D01*
X014121Y002835D01*
X014044Y002835D01*
X014044Y003223D01*
X013905Y003223D01*
X013655Y002973D01*
X013655Y002834D01*
X014043Y002834D01*
X014043Y002757D01*
X014121Y002757D02*
X014121Y002369D01*
X014259Y002369D01*
X014509Y002619D01*
X014509Y002757D01*
X014121Y002757D01*
X014121Y002758D02*
X019181Y002758D01*
X019181Y002757D02*
X018793Y002757D01*
X018793Y002619D01*
X019043Y002369D01*
X019181Y002369D01*
X019181Y002757D01*
X019181Y002834D01*
X018793Y002834D01*
X018793Y002973D01*
X019043Y003223D01*
X019181Y003223D01*
X019181Y002835D01*
X019259Y002835D01*
X019259Y003223D01*
X019397Y003223D01*
X019647Y002973D01*
X019647Y002834D01*
X019259Y002834D01*
X019259Y002757D01*
X019647Y002757D01*
X019647Y002619D01*
X019397Y002369D01*
X019259Y002369D01*
X019259Y002757D01*
X019181Y002757D01*
X019259Y002758D02*
X021543Y002758D01*
X021543Y002757D02*
X021155Y002757D01*
X021155Y002619D01*
X021405Y002369D01*
X021544Y002369D01*
X021544Y002757D01*
X021621Y002757D01*
X021621Y002834D01*
X022009Y002834D01*
X022009Y002973D01*
X021759Y003223D01*
X021621Y003223D01*
X021621Y002835D01*
X021544Y002835D01*
X021544Y003223D01*
X021405Y003223D01*
X021155Y002973D01*
X021155Y002834D01*
X021543Y002834D01*
X021543Y002757D01*
X021621Y002757D02*
X021621Y002369D01*
X021759Y002369D01*
X022009Y002619D01*
X022009Y002757D01*
X021621Y002757D01*
X021621Y002758D02*
X026681Y002758D01*
X026681Y002757D02*
X026293Y002757D01*
X026293Y002619D01*
X026543Y002369D01*
X026681Y002369D01*
X026681Y002757D01*
X026681Y002834D01*
X026293Y002834D01*
X026293Y002973D01*
X026543Y003223D01*
X026681Y003223D01*
X026681Y002835D01*
X026759Y002835D01*
X026759Y003223D01*
X026897Y003223D01*
X027147Y002973D01*
X027147Y002834D01*
X026759Y002834D01*
X026759Y002757D01*
X027147Y002757D01*
X027147Y002619D01*
X026897Y002369D01*
X026759Y002369D01*
X026759Y002757D01*
X026681Y002757D01*
X026759Y002758D02*
X029043Y002758D01*
X029043Y002757D02*
X028655Y002757D01*
X028655Y002619D01*
X028905Y002369D01*
X029044Y002369D01*
X029044Y002757D01*
X029121Y002757D01*
X029121Y002834D01*
X029509Y002834D01*
X029509Y002973D01*
X029259Y003223D01*
X029121Y003223D01*
X029121Y002835D01*
X029044Y002835D01*
X029044Y003223D01*
X028905Y003223D01*
X028655Y002973D01*
X028655Y002834D01*
X029043Y002834D01*
X029043Y002757D01*
X029121Y002757D02*
X029121Y002369D01*
X029259Y002369D01*
X029509Y002619D01*
X029509Y002757D01*
X029121Y002757D01*
X029121Y002758D02*
X048651Y002758D01*
X048651Y002857D02*
X029509Y002857D01*
X029509Y002955D02*
X048651Y002955D01*
X048651Y003054D02*
X048603Y003054D01*
X048680Y002660D02*
X029509Y002660D01*
X029452Y002561D02*
X048767Y002561D01*
X048865Y002463D02*
X029353Y002463D01*
X029121Y002463D02*
X029044Y002463D01*
X029044Y002561D02*
X029121Y002561D01*
X029121Y002660D02*
X029044Y002660D01*
X029044Y002857D02*
X029121Y002857D01*
X029121Y002955D02*
X029044Y002955D01*
X029044Y003054D02*
X029121Y003054D01*
X029121Y003152D02*
X029044Y003152D01*
X028835Y003152D02*
X026968Y003152D01*
X027066Y003054D02*
X028736Y003054D01*
X028655Y002955D02*
X027147Y002955D01*
X027147Y002857D02*
X028655Y002857D01*
X028655Y002660D02*
X027147Y002660D01*
X027089Y002561D02*
X028713Y002561D01*
X028811Y002463D02*
X026991Y002463D01*
X026759Y002463D02*
X026681Y002463D01*
X026681Y002561D02*
X026759Y002561D01*
X026759Y002660D02*
X026681Y002660D01*
X026681Y002857D02*
X026759Y002857D01*
X026759Y002955D02*
X026681Y002955D01*
X026681Y003054D02*
X026759Y003054D01*
X026759Y003152D02*
X026681Y003152D01*
X026473Y003152D02*
X021830Y003152D01*
X021928Y003054D02*
X026374Y003054D01*
X026293Y002955D02*
X022009Y002955D01*
X022009Y002857D02*
X026293Y002857D01*
X026293Y002660D02*
X022009Y002660D01*
X021952Y002561D02*
X026351Y002561D01*
X026449Y002463D02*
X021853Y002463D01*
X021621Y002463D02*
X021544Y002463D01*
X021544Y002561D02*
X021621Y002561D01*
X021621Y002660D02*
X021544Y002660D01*
X021544Y002857D02*
X021621Y002857D01*
X021621Y002955D02*
X021544Y002955D01*
X021544Y003054D02*
X021621Y003054D01*
X021621Y003152D02*
X021544Y003152D01*
X021335Y003152D02*
X019468Y003152D01*
X019566Y003054D02*
X021236Y003054D01*
X021155Y002955D02*
X019647Y002955D01*
X019647Y002857D02*
X021155Y002857D01*
X021155Y002660D02*
X019647Y002660D01*
X019589Y002561D02*
X021213Y002561D01*
X021311Y002463D02*
X019491Y002463D01*
X019259Y002463D02*
X019181Y002463D01*
X019181Y002561D02*
X019259Y002561D01*
X019259Y002660D02*
X019181Y002660D01*
X019181Y002857D02*
X019259Y002857D01*
X019259Y002955D02*
X019181Y002955D01*
X019181Y003054D02*
X019259Y003054D01*
X019259Y003152D02*
X019181Y003152D01*
X018973Y003152D02*
X014330Y003152D01*
X014428Y003054D02*
X018874Y003054D01*
X018793Y002955D02*
X014509Y002955D01*
X014509Y002857D02*
X018793Y002857D01*
X018793Y002660D02*
X014509Y002660D01*
X014452Y002561D02*
X018851Y002561D01*
X018949Y002463D02*
X014353Y002463D01*
X014121Y002463D02*
X014044Y002463D01*
X014044Y002561D02*
X014121Y002561D01*
X014121Y002660D02*
X014044Y002660D01*
X014044Y002857D02*
X014121Y002857D01*
X014121Y002955D02*
X014044Y002955D01*
X014044Y003054D02*
X014121Y003054D01*
X014121Y003152D02*
X014044Y003152D01*
X013835Y003152D02*
X011968Y003152D01*
X012066Y003054D02*
X013736Y003054D01*
X013655Y002955D02*
X012147Y002955D01*
X012147Y002857D02*
X013655Y002857D01*
X013655Y002660D02*
X012147Y002660D01*
X012089Y002561D02*
X013713Y002561D01*
X013811Y002463D02*
X011991Y002463D01*
X011759Y002463D02*
X011681Y002463D01*
X011681Y002561D02*
X011759Y002561D01*
X011759Y002660D02*
X011681Y002660D01*
X011681Y002857D02*
X011759Y002857D01*
X011759Y002955D02*
X011681Y002955D01*
X011681Y003054D02*
X011759Y003054D01*
X011759Y003152D02*
X011681Y003152D01*
X011473Y003152D02*
X006830Y003152D01*
X006928Y003054D02*
X011374Y003054D01*
X011293Y002955D02*
X007009Y002955D01*
X007009Y002857D02*
X011293Y002857D01*
X011293Y002660D02*
X007009Y002660D01*
X006952Y002561D02*
X011351Y002561D01*
X011449Y002463D02*
X006853Y002463D01*
X006621Y002463D02*
X006544Y002463D01*
X006544Y002561D02*
X006621Y002561D01*
X006621Y002660D02*
X006544Y002660D01*
X006544Y002857D02*
X006621Y002857D01*
X006621Y002955D02*
X006544Y002955D01*
X006544Y003054D02*
X006621Y003054D01*
X006621Y003152D02*
X006544Y003152D01*
X006335Y003152D02*
X004468Y003152D01*
X004566Y003054D02*
X006236Y003054D01*
X006155Y002955D02*
X004647Y002955D01*
X004647Y002857D02*
X006155Y002857D01*
X006155Y002660D02*
X004647Y002660D01*
X004589Y002561D02*
X006213Y002561D01*
X006311Y002463D02*
X004491Y002463D01*
X004181Y002758D02*
X002122Y002758D01*
X002167Y002660D02*
X003793Y002660D01*
X003851Y002561D02*
X002194Y002561D01*
X002065Y002857D02*
X003793Y002857D01*
X003793Y002955D02*
X002003Y002955D01*
X001905Y003054D02*
X003874Y003054D01*
X003973Y003152D02*
X001800Y003152D01*
X001629Y003251D02*
X046544Y003251D01*
X046533Y003349D02*
X001332Y003349D01*
X000970Y003349D02*
X000601Y003349D01*
X000601Y003251D02*
X000673Y003251D01*
X000601Y003448D02*
X046533Y003448D01*
X046533Y003546D02*
X000601Y003546D01*
X000601Y003645D02*
X046533Y003645D01*
X046533Y003744D02*
X000601Y003744D01*
X000601Y003842D02*
X046538Y003842D01*
X046569Y003941D02*
X000601Y003941D01*
X000601Y004039D02*
X046640Y004039D01*
X046813Y004138D02*
X000601Y004138D01*
X000601Y004236D02*
X067254Y004236D01*
X067155Y004138D02*
X059489Y004138D01*
X059410Y004138D02*
X059392Y004138D01*
X059313Y004138D02*
X046990Y004138D01*
X046910Y004138D02*
X046892Y004138D01*
X046892Y004039D02*
X046910Y004039D01*
X046910Y003941D02*
X046892Y003941D01*
X046892Y003842D02*
X046910Y003842D01*
X046910Y003744D02*
X046892Y003744D01*
X046892Y003645D02*
X046910Y003645D01*
X046910Y003546D02*
X046892Y003546D01*
X046892Y003448D02*
X046910Y003448D01*
X046910Y003349D02*
X046892Y003349D01*
X046892Y003251D02*
X046910Y003251D01*
X046910Y003152D02*
X046892Y003152D01*
X046892Y003054D02*
X046910Y003054D01*
X047130Y003054D02*
X047199Y003054D01*
X047603Y003054D02*
X047699Y003054D01*
X048103Y003054D02*
X048199Y003054D01*
X049151Y003054D02*
X049199Y003054D01*
X049151Y002955D02*
X061151Y002955D01*
X061151Y002857D02*
X049178Y002857D01*
X049276Y002758D02*
X061151Y002758D01*
X061151Y002660D02*
X049375Y002660D01*
X049474Y002561D02*
X061151Y002561D01*
X061151Y002463D02*
X049572Y002463D01*
X049671Y002364D02*
X061151Y002364D01*
X061151Y002265D02*
X049769Y002265D01*
X049868Y002167D02*
X061151Y002167D01*
X061151Y002068D02*
X049966Y002068D01*
X049555Y001773D02*
X002105Y001773D01*
X004181Y002857D02*
X004259Y002857D01*
X004259Y002955D02*
X004181Y002955D01*
X004181Y003054D02*
X004259Y003054D01*
X004259Y003152D02*
X004181Y003152D01*
X004051Y004357D02*
X004389Y004357D01*
X004627Y004596D01*
X004627Y004933D01*
X004389Y005171D01*
X004051Y005171D01*
X003813Y004933D01*
X003813Y004596D01*
X004051Y004357D01*
X003975Y004433D02*
X000601Y004433D01*
X000601Y004335D02*
X067353Y004335D01*
X067401Y004433D02*
X029327Y004433D01*
X029251Y004357D02*
X029489Y004596D01*
X029489Y004933D01*
X029251Y005171D01*
X028914Y005171D01*
X028675Y004933D01*
X028675Y004596D01*
X028914Y004357D01*
X029251Y004357D01*
X029426Y004532D02*
X067401Y004532D01*
X067401Y004630D02*
X029489Y004630D01*
X029489Y004729D02*
X067401Y004729D01*
X067401Y004828D02*
X029489Y004828D01*
X029489Y004926D02*
X067401Y004926D01*
X067401Y005025D02*
X029398Y005025D01*
X029299Y005123D02*
X065672Y005123D01*
X065715Y005080D02*
X065451Y005344D01*
X065451Y005480D01*
X065851Y005480D01*
X065851Y005580D01*
X065451Y005580D01*
X065451Y005716D01*
X065715Y005980D01*
X065851Y005980D01*
X065851Y005580D01*
X065951Y005580D01*
X065951Y005980D01*
X066088Y005980D01*
X066351Y005716D01*
X066351Y005580D01*
X065951Y005580D01*
X065951Y005480D01*
X065951Y005080D01*
X066088Y005080D01*
X066351Y005344D01*
X066351Y005480D01*
X065951Y005480D01*
X065851Y005480D01*
X065851Y005080D01*
X065715Y005080D01*
X065851Y005123D02*
X065951Y005123D01*
X065951Y005222D02*
X065851Y005222D01*
X065851Y005320D02*
X065951Y005320D01*
X065951Y005419D02*
X065851Y005419D01*
X065851Y005517D02*
X000601Y005517D01*
X000601Y005419D02*
X065451Y005419D01*
X065474Y005320D02*
X000601Y005320D01*
X000601Y005222D02*
X065573Y005222D01*
X065451Y005616D02*
X000601Y005616D01*
X000601Y005714D02*
X065451Y005714D01*
X065548Y005813D02*
X000601Y005813D01*
X000601Y005912D02*
X065646Y005912D01*
X065723Y006100D02*
X066079Y006100D01*
X066331Y006352D01*
X066331Y006708D01*
X066079Y006960D01*
X065723Y006960D01*
X065471Y006708D01*
X065471Y006352D01*
X065723Y006100D01*
X065714Y006109D02*
X000601Y006109D01*
X000601Y006207D02*
X065616Y006207D01*
X065517Y006306D02*
X000601Y006306D01*
X000601Y006404D02*
X065471Y006404D01*
X065471Y006503D02*
X043977Y006503D01*
X043958Y006495D02*
X044063Y006538D01*
X044143Y006619D01*
X044186Y006723D01*
X044186Y006837D01*
X044143Y006941D01*
X044081Y007003D01*
X044081Y009307D01*
X044143Y009369D01*
X044186Y009473D01*
X044186Y009587D01*
X044143Y009691D01*
X044063Y009772D01*
X043958Y009815D01*
X043844Y009815D01*
X043740Y009772D01*
X043660Y009691D01*
X043616Y009587D01*
X043616Y009473D01*
X043660Y009369D01*
X043721Y009307D01*
X043721Y007003D01*
X043660Y006941D01*
X043651Y006921D01*
X043643Y006941D01*
X043581Y007003D01*
X043581Y009807D01*
X043643Y009869D01*
X043686Y009973D01*
X043686Y010087D01*
X043643Y010191D01*
X043563Y010272D01*
X043458Y010315D01*
X043344Y010315D01*
X043240Y010272D01*
X043160Y010191D01*
X043116Y010087D01*
X043116Y009973D01*
X043160Y009869D01*
X043221Y009807D01*
X043221Y007003D01*
X043160Y006941D01*
X043116Y006837D01*
X043116Y006723D01*
X043160Y006619D01*
X043240Y006538D01*
X043344Y006495D01*
X043458Y006495D01*
X043563Y006538D01*
X043643Y006619D01*
X043651Y006639D01*
X043660Y006619D01*
X043740Y006538D01*
X043844Y006495D01*
X043958Y006495D01*
X043826Y006503D02*
X043477Y006503D01*
X043326Y006503D02*
X000601Y006503D01*
X000601Y006601D02*
X043177Y006601D01*
X043126Y006700D02*
X000601Y006700D01*
X000601Y006798D02*
X043116Y006798D01*
X043141Y006897D02*
X000601Y006897D01*
X000601Y006996D02*
X043214Y006996D01*
X043221Y007094D02*
X000601Y007094D01*
X000601Y007193D02*
X043221Y007193D01*
X043221Y007291D02*
X000601Y007291D01*
X000601Y007390D02*
X043221Y007390D01*
X043221Y007488D02*
X000601Y007488D01*
X000601Y007587D02*
X043221Y007587D01*
X043221Y007685D02*
X000601Y007685D01*
X000601Y007784D02*
X043221Y007784D01*
X043221Y007882D02*
X000601Y007882D01*
X000601Y007981D02*
X043221Y007981D01*
X043221Y008079D02*
X000601Y008079D01*
X000601Y008178D02*
X043221Y008178D01*
X043221Y008277D02*
X000601Y008277D01*
X000601Y008375D02*
X043221Y008375D01*
X043221Y008474D02*
X000601Y008474D01*
X000601Y008572D02*
X043221Y008572D01*
X043221Y008671D02*
X000601Y008671D01*
X000601Y008769D02*
X043221Y008769D01*
X043221Y008868D02*
X000601Y008868D01*
X000601Y008966D02*
X043221Y008966D01*
X043221Y009065D02*
X000601Y009065D01*
X000601Y009163D02*
X043221Y009163D01*
X043221Y009262D02*
X000601Y009262D01*
X000601Y009361D02*
X043221Y009361D01*
X043221Y009459D02*
X000601Y009459D01*
X000601Y009558D02*
X043221Y009558D01*
X043221Y009656D02*
X000601Y009656D01*
X000601Y009755D02*
X043221Y009755D01*
X043175Y009853D02*
X000601Y009853D01*
X000601Y009952D02*
X043125Y009952D01*
X043116Y010050D02*
X000601Y010050D01*
X000601Y010149D02*
X043142Y010149D01*
X043216Y010247D02*
X000601Y010247D01*
X000601Y010346D02*
X055721Y010346D01*
X055721Y010445D02*
X000601Y010445D01*
X000601Y010543D02*
X055721Y010543D01*
X055721Y010642D02*
X000601Y010642D01*
X000601Y010740D02*
X055721Y010740D01*
X055721Y010839D02*
X000601Y010839D01*
X000601Y010937D02*
X055721Y010937D01*
X055721Y011036D02*
X000601Y011036D01*
X000601Y011134D02*
X055721Y011134D01*
X055721Y011233D02*
X000601Y011233D01*
X000601Y011331D02*
X055721Y011331D01*
X055721Y011430D02*
X000601Y011430D01*
X000601Y011529D02*
X055721Y011529D01*
X055721Y011627D02*
X000601Y011627D01*
X000601Y011726D02*
X055721Y011726D01*
X055721Y011824D02*
X000601Y011824D01*
X000601Y011923D02*
X055721Y011923D01*
X055721Y012021D02*
X000601Y012021D01*
X000601Y012120D02*
X055659Y012120D01*
X055660Y012119D02*
X055721Y012057D01*
X055721Y010003D01*
X055660Y009941D01*
X055616Y009837D01*
X055616Y009723D01*
X055660Y009619D01*
X055740Y009538D01*
X055844Y009495D01*
X055958Y009495D01*
X056063Y009538D01*
X056143Y009619D01*
X056151Y009639D01*
X056160Y009619D01*
X056240Y009538D01*
X056344Y009495D01*
X056458Y009495D01*
X056563Y009538D01*
X056643Y009619D01*
X056686Y009723D01*
X056686Y009837D01*
X056643Y009941D01*
X056581Y010003D01*
X056581Y012057D01*
X056643Y012119D01*
X056686Y012223D01*
X056686Y012337D01*
X056643Y012441D01*
X056563Y012522D01*
X056458Y012565D01*
X056344Y012565D01*
X056240Y012522D01*
X056160Y012441D01*
X056151Y012421D01*
X056143Y012441D01*
X056063Y012522D01*
X055958Y012565D01*
X055844Y012565D01*
X055740Y012522D01*
X055660Y012441D01*
X055616Y012337D01*
X055616Y012223D01*
X055660Y012119D01*
X055618Y012218D02*
X000601Y012218D01*
X000601Y012317D02*
X055616Y012317D01*
X055649Y012415D02*
X000601Y012415D01*
X000601Y012514D02*
X055732Y012514D01*
X055901Y012280D02*
X055901Y009780D01*
X055644Y009656D02*
X044157Y009656D01*
X044186Y009558D02*
X055720Y009558D01*
X055616Y009755D02*
X044079Y009755D01*
X043901Y009530D02*
X043901Y006780D01*
X044161Y006897D02*
X065660Y006897D01*
X065562Y006798D02*
X044186Y006798D01*
X044176Y006700D02*
X065471Y006700D01*
X065471Y006601D02*
X044126Y006601D01*
X044089Y006996D02*
X067401Y006996D01*
X067401Y007094D02*
X044081Y007094D01*
X044081Y007193D02*
X065630Y007193D01*
X065723Y007100D02*
X066079Y007100D01*
X066331Y007352D01*
X066331Y007708D01*
X066079Y007960D01*
X065723Y007960D01*
X065471Y007708D01*
X065471Y007352D01*
X065723Y007100D01*
X065532Y007291D02*
X044081Y007291D01*
X044081Y007390D02*
X065471Y007390D01*
X065471Y007488D02*
X044081Y007488D01*
X044081Y007587D02*
X065471Y007587D01*
X065471Y007685D02*
X044081Y007685D01*
X044081Y007784D02*
X065547Y007784D01*
X065646Y007882D02*
X044081Y007882D01*
X044081Y007981D02*
X067401Y007981D01*
X067401Y008079D02*
X044081Y008079D01*
X044081Y008178D02*
X065645Y008178D01*
X065723Y008100D02*
X066079Y008100D01*
X066331Y008352D01*
X066331Y008708D01*
X066079Y008960D01*
X065723Y008960D01*
X065471Y008708D01*
X065471Y008352D01*
X065723Y008100D01*
X065546Y008277D02*
X044081Y008277D01*
X044081Y008375D02*
X065471Y008375D01*
X065471Y008474D02*
X044081Y008474D01*
X044081Y008572D02*
X065471Y008572D01*
X065471Y008671D02*
X044081Y008671D01*
X044081Y008769D02*
X065532Y008769D01*
X065631Y008868D02*
X044081Y008868D01*
X044081Y008966D02*
X067401Y008966D01*
X067401Y008868D02*
X067171Y008868D01*
X067079Y008960D02*
X067331Y008708D01*
X067331Y008352D01*
X067079Y008100D01*
X066723Y008100D01*
X066471Y008352D01*
X066471Y008708D01*
X066723Y008960D01*
X067079Y008960D01*
X067079Y009100D02*
X067331Y009352D01*
X067331Y009708D01*
X067079Y009960D01*
X066723Y009960D01*
X066471Y009708D01*
X066471Y009352D01*
X066723Y009100D01*
X067079Y009100D01*
X067143Y009163D02*
X067401Y009163D01*
X067401Y009065D02*
X044081Y009065D01*
X044081Y009163D02*
X065660Y009163D01*
X065723Y009100D02*
X066079Y009100D01*
X066331Y009352D01*
X066331Y009708D01*
X066079Y009960D01*
X065723Y009960D01*
X065471Y009708D01*
X065471Y009352D01*
X065723Y009100D01*
X065561Y009262D02*
X044081Y009262D01*
X044135Y009361D02*
X065471Y009361D01*
X065471Y009459D02*
X044180Y009459D01*
X043721Y009262D02*
X043581Y009262D01*
X043581Y009361D02*
X043668Y009361D01*
X043622Y009459D02*
X043581Y009459D01*
X043581Y009558D02*
X043616Y009558D01*
X043645Y009656D02*
X043581Y009656D01*
X043581Y009755D02*
X043723Y009755D01*
X043627Y009853D02*
X055623Y009853D01*
X055670Y009952D02*
X043677Y009952D01*
X043686Y010050D02*
X055721Y010050D01*
X055721Y010149D02*
X043660Y010149D01*
X043587Y010247D02*
X055721Y010247D01*
X056082Y009558D02*
X056220Y009558D01*
X056401Y009780D02*
X056401Y012280D01*
X056654Y012415D02*
X057662Y012415D01*
X057761Y012317D02*
X056686Y012317D01*
X056684Y012218D02*
X057859Y012218D01*
X057958Y012120D02*
X056643Y012120D01*
X056581Y012021D02*
X058056Y012021D01*
X058155Y011923D02*
X056581Y011923D01*
X056581Y011824D02*
X058254Y011824D01*
X058352Y011726D02*
X056581Y011726D01*
X056581Y011627D02*
X058451Y011627D01*
X058549Y011529D02*
X056581Y011529D01*
X056581Y011430D02*
X058648Y011430D01*
X058746Y011331D02*
X056581Y011331D01*
X056581Y011233D02*
X058845Y011233D01*
X058943Y011134D02*
X056581Y011134D01*
X056581Y011036D02*
X059042Y011036D01*
X059125Y010953D02*
X059160Y010869D01*
X059240Y010788D01*
X059344Y010745D01*
X059458Y010745D01*
X059563Y010788D01*
X059643Y010869D01*
X059686Y010973D01*
X059686Y011087D01*
X059643Y011191D01*
X059563Y011272D01*
X059478Y011307D01*
X057363Y013422D01*
X057293Y013492D01*
X057201Y013530D01*
X055755Y013530D01*
X055401Y013883D01*
X055401Y014351D01*
X055401Y014352D01*
X055454Y014299D01*
X055582Y014246D01*
X055720Y014246D01*
X055848Y014299D01*
X055946Y014397D01*
X055999Y014525D01*
X055999Y015099D01*
X055946Y015227D01*
X055848Y015325D01*
X055720Y015378D01*
X055582Y015378D01*
X055454Y015325D01*
X055401Y015272D01*
X055401Y015272D01*
X055401Y015330D01*
X055363Y015422D01*
X054793Y015992D01*
X054701Y016030D01*
X054601Y016030D01*
X049292Y016030D01*
X049208Y016065D01*
X049094Y016065D01*
X048990Y016022D01*
X048910Y015941D01*
X048866Y015837D01*
X048866Y015723D01*
X048910Y015619D01*
X048990Y015538D01*
X049094Y015495D01*
X049208Y015495D01*
X049292Y015530D01*
X054548Y015530D01*
X054700Y015378D01*
X054582Y015378D01*
X054454Y015325D01*
X054401Y015272D01*
X054348Y015325D01*
X054220Y015378D01*
X054082Y015378D01*
X053954Y015325D01*
X053901Y015272D01*
X053848Y015325D01*
X053720Y015378D01*
X053582Y015378D01*
X053454Y015325D01*
X053415Y015286D01*
X053386Y015316D01*
X053326Y015356D01*
X053259Y015384D01*
X053187Y015398D01*
X053160Y015398D01*
X053160Y015039D01*
X053142Y015039D01*
X053142Y015021D01*
X052783Y015021D01*
X052783Y014558D01*
X052797Y014486D01*
X052825Y014419D01*
X052865Y014359D01*
X052917Y014308D01*
X052977Y014268D01*
X053044Y014240D01*
X053115Y014226D01*
X053142Y014226D01*
X053142Y015021D01*
X053160Y015021D01*
X053160Y014226D01*
X053187Y014226D01*
X053259Y014240D01*
X053326Y014268D01*
X053386Y014308D01*
X053415Y014337D01*
X053454Y014299D01*
X053582Y014246D01*
X053720Y014246D01*
X053848Y014299D01*
X053901Y014352D01*
X053954Y014299D01*
X054082Y014246D01*
X054220Y014246D01*
X054348Y014299D01*
X054401Y014352D01*
X054454Y014299D01*
X054582Y014246D01*
X054720Y014246D01*
X054848Y014299D01*
X054901Y014352D01*
X054901Y014351D01*
X054901Y013730D01*
X054939Y013638D01*
X055010Y013568D01*
X055510Y013068D01*
X055601Y013030D01*
X055701Y013030D01*
X057048Y013030D01*
X059125Y010953D01*
X059131Y010937D02*
X056581Y010937D01*
X056581Y010839D02*
X059189Y010839D01*
X059613Y010839D02*
X065602Y010839D01*
X065700Y010937D02*
X059671Y010937D01*
X059686Y011036D02*
X067401Y011036D01*
X067401Y011134D02*
X067114Y011134D01*
X067079Y011100D02*
X067331Y011352D01*
X067331Y011708D01*
X067079Y011960D01*
X066723Y011960D01*
X066471Y011708D01*
X066471Y011352D01*
X066723Y011100D01*
X067079Y011100D01*
X067079Y010960D02*
X066723Y010960D01*
X066471Y010708D01*
X066471Y010352D01*
X066723Y010100D01*
X067079Y010100D01*
X067331Y010352D01*
X067331Y010708D01*
X067079Y010960D01*
X067102Y010937D02*
X067401Y010937D01*
X067401Y010839D02*
X067201Y010839D01*
X067299Y010740D02*
X067401Y010740D01*
X067401Y010642D02*
X067331Y010642D01*
X067331Y010543D02*
X067401Y010543D01*
X067401Y010445D02*
X067331Y010445D01*
X067325Y010346D02*
X067401Y010346D01*
X067401Y010247D02*
X067227Y010247D01*
X067128Y010149D02*
X067401Y010149D01*
X067401Y010050D02*
X056581Y010050D01*
X056581Y010149D02*
X065674Y010149D01*
X065723Y010100D02*
X066079Y010100D01*
X066331Y010352D01*
X066331Y010708D01*
X066079Y010960D01*
X065723Y010960D01*
X065471Y010708D01*
X065471Y010352D01*
X065723Y010100D01*
X065715Y009952D02*
X056632Y009952D01*
X056679Y009853D02*
X065616Y009853D01*
X065518Y009755D02*
X056686Y009755D01*
X056658Y009656D02*
X065471Y009656D01*
X065471Y009558D02*
X056582Y009558D01*
X056581Y010247D02*
X065576Y010247D01*
X065477Y010346D02*
X056581Y010346D01*
X056581Y010445D02*
X065471Y010445D01*
X065471Y010543D02*
X056581Y010543D01*
X056581Y010642D02*
X065471Y010642D01*
X065503Y010740D02*
X056581Y010740D01*
X058665Y012120D02*
X065703Y012120D01*
X065723Y012100D02*
X066079Y012100D01*
X066331Y012352D01*
X066331Y012708D01*
X066189Y012850D01*
X066476Y012850D01*
X066581Y012955D01*
X066726Y013100D01*
X067079Y013100D01*
X067331Y013352D01*
X067331Y013708D01*
X067079Y013960D01*
X066723Y013960D01*
X066471Y013708D01*
X066471Y013355D01*
X066327Y013210D01*
X066189Y013210D01*
X066331Y013352D01*
X066331Y013708D01*
X066189Y013850D01*
X066476Y013850D01*
X066581Y013955D01*
X066726Y014100D01*
X067079Y014100D01*
X067331Y014352D01*
X067331Y014708D01*
X067079Y014960D01*
X066723Y014960D01*
X066471Y014708D01*
X066471Y014355D01*
X066327Y014210D01*
X066189Y014210D01*
X066331Y014352D01*
X066331Y014708D01*
X066079Y014960D01*
X065723Y014960D01*
X065473Y014710D01*
X060874Y014710D01*
X060813Y014772D01*
X060708Y014815D01*
X060594Y014815D01*
X060490Y014772D01*
X060410Y014691D01*
X060366Y014587D01*
X060366Y014473D01*
X060410Y014369D01*
X060490Y014288D01*
X060510Y014280D01*
X060490Y014272D01*
X060410Y014191D01*
X060366Y014087D01*
X060366Y013973D01*
X060410Y013869D01*
X060490Y013788D01*
X060510Y013780D01*
X060490Y013772D01*
X060410Y013691D01*
X060366Y013587D01*
X060366Y013473D01*
X060410Y013369D01*
X060490Y013288D01*
X060510Y013280D01*
X060490Y013272D01*
X060410Y013191D01*
X060366Y013087D01*
X060366Y012973D01*
X060410Y012869D01*
X060490Y012788D01*
X060594Y012745D01*
X060708Y012745D01*
X060813Y012788D01*
X060874Y012850D01*
X065613Y012850D01*
X065471Y012708D01*
X065471Y012352D01*
X065723Y012100D01*
X065723Y011960D02*
X065471Y011708D01*
X065471Y011352D01*
X065723Y011100D01*
X066079Y011100D01*
X066331Y011352D01*
X066331Y011708D01*
X066079Y011960D01*
X065723Y011960D01*
X065686Y011923D02*
X058862Y011923D01*
X058763Y012021D02*
X067401Y012021D01*
X067401Y011923D02*
X067117Y011923D01*
X067215Y011824D02*
X067401Y011824D01*
X067401Y011726D02*
X067314Y011726D01*
X067331Y011627D02*
X067401Y011627D01*
X067401Y011529D02*
X067331Y011529D01*
X067331Y011430D02*
X067401Y011430D01*
X067401Y011331D02*
X067311Y011331D01*
X067401Y011233D02*
X067212Y011233D01*
X066689Y011134D02*
X066114Y011134D01*
X066212Y011233D02*
X066590Y011233D01*
X066492Y011331D02*
X066311Y011331D01*
X066331Y011430D02*
X066471Y011430D01*
X066471Y011529D02*
X066331Y011529D01*
X066331Y011627D02*
X066471Y011627D01*
X066489Y011726D02*
X066314Y011726D01*
X066215Y011824D02*
X066587Y011824D01*
X066686Y011923D02*
X066117Y011923D01*
X066099Y012120D02*
X066703Y012120D01*
X066723Y012100D02*
X067079Y012100D01*
X067331Y012352D01*
X067331Y012708D01*
X067079Y012960D01*
X066723Y012960D01*
X066471Y012708D01*
X066471Y012352D01*
X066723Y012100D01*
X066605Y012218D02*
X066198Y012218D01*
X066296Y012317D02*
X066506Y012317D01*
X066471Y012415D02*
X066331Y012415D01*
X066331Y012514D02*
X066471Y012514D01*
X066471Y012612D02*
X066331Y012612D01*
X066328Y012711D02*
X066474Y012711D01*
X066573Y012810D02*
X066230Y012810D01*
X066401Y013030D02*
X060651Y013030D01*
X060393Y012908D02*
X057877Y012908D01*
X057975Y012810D02*
X060469Y012810D01*
X060366Y013007D02*
X057778Y013007D01*
X057679Y013105D02*
X060374Y013105D01*
X060422Y013204D02*
X057581Y013204D01*
X057482Y013302D02*
X060476Y013302D01*
X060396Y013401D02*
X057384Y013401D01*
X057275Y013499D02*
X060366Y013499D01*
X060371Y013598D02*
X055687Y013598D01*
X055588Y013696D02*
X060415Y013696D01*
X060483Y013795D02*
X055490Y013795D01*
X055401Y013894D02*
X060399Y013894D01*
X060366Y013992D02*
X055401Y013992D01*
X055401Y014091D02*
X060368Y014091D01*
X060409Y014189D02*
X055401Y014189D01*
X055401Y014288D02*
X055481Y014288D01*
X055822Y014288D02*
X060491Y014288D01*
X060402Y014386D02*
X055936Y014386D01*
X055983Y014485D02*
X060366Y014485D01*
X060366Y014583D02*
X055999Y014583D01*
X055999Y014682D02*
X060406Y014682D01*
X060511Y014780D02*
X055999Y014780D01*
X055999Y014879D02*
X065642Y014879D01*
X065544Y014780D02*
X060791Y014780D01*
X060651Y014530D02*
X065901Y014530D01*
X066331Y014485D02*
X066471Y014485D01*
X066471Y014583D02*
X066331Y014583D01*
X066331Y014682D02*
X066471Y014682D01*
X066544Y014780D02*
X066259Y014780D01*
X066160Y014879D02*
X066642Y014879D01*
X066723Y015100D02*
X067079Y015100D01*
X067331Y015352D01*
X067331Y015708D01*
X067079Y015960D01*
X066726Y015960D01*
X066476Y016210D01*
X066327Y016210D01*
X066189Y016210D01*
X066331Y016352D01*
X066331Y016708D01*
X066189Y016850D01*
X066327Y016850D01*
X066189Y016850D01*
X066327Y016850D02*
X066471Y016705D01*
X066471Y016352D01*
X066723Y016100D01*
X067079Y016100D01*
X067331Y016352D01*
X067331Y016708D01*
X067079Y016960D01*
X066726Y016960D01*
X066476Y017210D01*
X066327Y017210D01*
X066189Y017210D01*
X066331Y017352D01*
X066331Y017708D01*
X066189Y017850D01*
X066327Y017850D01*
X066471Y017705D01*
X066471Y017352D01*
X066723Y017100D01*
X067079Y017100D01*
X067331Y017352D01*
X067331Y017708D01*
X067079Y017960D01*
X066726Y017960D01*
X066476Y018210D01*
X066331Y018210D01*
X066331Y018846D01*
X066471Y018705D01*
X066471Y018352D01*
X066723Y018100D01*
X067079Y018100D01*
X067331Y018352D01*
X067331Y018708D01*
X067079Y018960D01*
X066726Y018960D01*
X066476Y019210D01*
X066327Y019210D01*
X060874Y019210D01*
X060813Y019272D01*
X060708Y019315D01*
X060594Y019315D01*
X060490Y019272D01*
X060410Y019191D01*
X060366Y019087D01*
X060366Y018973D01*
X060410Y018869D01*
X060490Y018788D01*
X060510Y018780D01*
X060490Y018772D01*
X060410Y018691D01*
X060366Y018587D01*
X060366Y018473D01*
X060410Y018369D01*
X060490Y018288D01*
X060510Y018280D01*
X060490Y018272D01*
X060410Y018191D01*
X060366Y018087D01*
X060366Y017973D01*
X060410Y017869D01*
X060490Y017788D01*
X060510Y017780D01*
X060490Y017772D01*
X060410Y017691D01*
X060366Y017587D01*
X060366Y017473D01*
X060410Y017369D01*
X060490Y017288D01*
X060510Y017280D01*
X060490Y017272D01*
X060410Y017191D01*
X060366Y017087D01*
X060366Y016973D01*
X060410Y016869D01*
X060490Y016788D01*
X060510Y016780D01*
X060490Y016772D01*
X060410Y016691D01*
X060366Y016587D01*
X060366Y016473D01*
X060410Y016369D01*
X060490Y016288D01*
X060510Y016280D01*
X060490Y016272D01*
X060410Y016191D01*
X060366Y016087D01*
X060366Y015973D01*
X060410Y015869D01*
X060490Y015788D01*
X060510Y015780D01*
X060490Y015772D01*
X060410Y015691D01*
X060366Y015587D01*
X060366Y015473D01*
X060410Y015369D01*
X060490Y015288D01*
X060594Y015245D01*
X060708Y015245D01*
X060813Y015288D01*
X060874Y015350D01*
X065473Y015350D01*
X065723Y015100D01*
X066079Y015100D01*
X066331Y015352D01*
X066331Y015708D01*
X066189Y015850D01*
X066327Y015850D01*
X066471Y015705D01*
X066471Y015352D01*
X066723Y015100D01*
X066648Y015175D02*
X066154Y015175D01*
X066252Y015273D02*
X066550Y015273D01*
X066471Y015372D02*
X066331Y015372D01*
X066331Y015470D02*
X066471Y015470D01*
X066471Y015569D02*
X066331Y015569D01*
X066331Y015667D02*
X066471Y015667D01*
X066411Y015766D02*
X066273Y015766D01*
X066401Y016030D02*
X066901Y015530D01*
X067331Y015569D02*
X067401Y015569D01*
X067401Y015667D02*
X067331Y015667D01*
X067273Y015766D02*
X067401Y015766D01*
X067401Y015864D02*
X067175Y015864D01*
X067401Y015963D02*
X066723Y015963D01*
X066624Y016061D02*
X067401Y016061D01*
X067401Y016160D02*
X067139Y016160D01*
X067238Y016259D02*
X067401Y016259D01*
X067401Y016357D02*
X067331Y016357D01*
X067331Y016456D02*
X067401Y016456D01*
X067401Y016554D02*
X067331Y016554D01*
X067331Y016653D02*
X067401Y016653D01*
X067401Y016751D02*
X067288Y016751D01*
X067189Y016850D02*
X067401Y016850D01*
X067401Y016948D02*
X067091Y016948D01*
X067125Y017145D02*
X067401Y017145D01*
X067401Y017047D02*
X066639Y017047D01*
X066678Y017145D02*
X066540Y017145D01*
X066579Y017244D02*
X066223Y017244D01*
X066322Y017343D02*
X066481Y017343D01*
X066471Y017441D02*
X066331Y017441D01*
X066331Y017540D02*
X066471Y017540D01*
X066471Y017638D02*
X066331Y017638D01*
X066302Y017737D02*
X066440Y017737D01*
X066341Y017835D02*
X066204Y017835D01*
X066401Y018030D02*
X066901Y017530D01*
X067204Y017835D02*
X067401Y017835D01*
X067401Y017737D02*
X067302Y017737D01*
X067331Y017638D02*
X067401Y017638D01*
X067401Y017540D02*
X067331Y017540D01*
X067331Y017441D02*
X067401Y017441D01*
X067401Y017343D02*
X067322Y017343D01*
X067401Y017244D02*
X067223Y017244D01*
X066901Y016530D02*
X066401Y017030D01*
X060651Y017030D01*
X060391Y017145D02*
X000601Y017145D01*
X000601Y017047D02*
X060366Y017047D01*
X060376Y016948D02*
X000601Y016948D01*
X000601Y016850D02*
X060428Y016850D01*
X060469Y016751D02*
X000601Y016751D01*
X000601Y016653D02*
X060394Y016653D01*
X060366Y016554D02*
X000601Y016554D01*
X000601Y016456D02*
X060373Y016456D01*
X060421Y016357D02*
X000601Y016357D01*
X000601Y016259D02*
X060477Y016259D01*
X060397Y016160D02*
X000601Y016160D01*
X000601Y016061D02*
X049086Y016061D01*
X049216Y016061D02*
X060366Y016061D01*
X060370Y015963D02*
X054822Y015963D01*
X054920Y015864D02*
X060414Y015864D01*
X060484Y015766D02*
X055019Y015766D01*
X055117Y015667D02*
X060400Y015667D01*
X060366Y015569D02*
X055216Y015569D01*
X055314Y015470D02*
X060367Y015470D01*
X060408Y015372D02*
X055736Y015372D01*
X055566Y015372D02*
X055384Y015372D01*
X055401Y015273D02*
X055402Y015273D01*
X055651Y015030D02*
X055651Y015030D01*
X055900Y015273D02*
X060526Y015273D01*
X060776Y015273D02*
X065550Y015273D01*
X065648Y015175D02*
X055968Y015175D01*
X055999Y015076D02*
X067401Y015076D01*
X067401Y014978D02*
X055999Y014978D01*
X054901Y014288D02*
X054822Y014288D01*
X054901Y014189D02*
X000601Y014189D01*
X000601Y014091D02*
X054901Y014091D01*
X054901Y013992D02*
X000601Y013992D01*
X000601Y013894D02*
X054901Y013894D01*
X054901Y013795D02*
X000601Y013795D01*
X000601Y013696D02*
X054915Y013696D01*
X054980Y013598D02*
X000601Y013598D01*
X000601Y013499D02*
X055078Y013499D01*
X055177Y013401D02*
X000601Y013401D01*
X000601Y013302D02*
X055275Y013302D01*
X055374Y013204D02*
X000601Y013204D01*
X000601Y013105D02*
X055472Y013105D01*
X056070Y012514D02*
X056232Y012514D01*
X056570Y012514D02*
X057564Y012514D01*
X057465Y012612D02*
X000601Y012612D01*
X000601Y012711D02*
X057367Y012711D01*
X057268Y012810D02*
X000601Y012810D01*
X000601Y012908D02*
X057170Y012908D01*
X057071Y013007D02*
X000601Y013007D01*
X000601Y014288D02*
X040447Y014288D01*
X040477Y014268D02*
X040544Y014240D01*
X040615Y014226D01*
X040642Y014226D01*
X040642Y015021D01*
X040283Y015021D01*
X040283Y014557D01*
X040297Y014486D01*
X040325Y014419D01*
X040365Y014359D01*
X040416Y014308D01*
X040477Y014268D01*
X040642Y014288D02*
X040660Y014288D01*
X040660Y014226D02*
X040687Y014226D01*
X040759Y014240D01*
X040826Y014268D01*
X040886Y014308D01*
X040915Y014337D01*
X040954Y014299D01*
X041082Y014246D01*
X041220Y014246D01*
X041348Y014299D01*
X041401Y014351D01*
X041454Y014299D01*
X041582Y014246D01*
X041720Y014246D01*
X041848Y014299D01*
X041901Y014351D01*
X041954Y014299D01*
X042082Y014246D01*
X042220Y014246D01*
X042348Y014299D01*
X042401Y014351D01*
X042454Y014299D01*
X042582Y014246D01*
X042720Y014246D01*
X042848Y014299D01*
X042901Y014351D01*
X042954Y014299D01*
X043082Y014246D01*
X043220Y014246D01*
X043348Y014299D01*
X043446Y014397D01*
X043499Y014524D01*
X043499Y015099D01*
X043446Y015227D01*
X043348Y015325D01*
X043220Y015378D01*
X043082Y015378D01*
X042954Y015325D01*
X042901Y015272D01*
X042848Y015325D01*
X042720Y015378D01*
X042582Y015378D01*
X042454Y015325D01*
X042401Y015272D01*
X042348Y015325D01*
X042220Y015378D01*
X042082Y015378D01*
X041954Y015325D01*
X041901Y015272D01*
X041848Y015325D01*
X041720Y015378D01*
X041582Y015378D01*
X041454Y015325D01*
X041401Y015272D01*
X041348Y015325D01*
X041220Y015378D01*
X041082Y015378D01*
X040954Y015325D01*
X040915Y015286D01*
X040886Y015316D01*
X040826Y015356D01*
X040759Y015384D01*
X040687Y015398D01*
X040660Y015398D01*
X040660Y015039D01*
X040642Y015039D01*
X040642Y015021D01*
X040660Y015021D01*
X040660Y014226D01*
X040660Y014386D02*
X040642Y014386D01*
X040642Y014485D02*
X040660Y014485D01*
X040660Y014583D02*
X040642Y014583D01*
X040642Y014682D02*
X040660Y014682D01*
X040660Y014780D02*
X040642Y014780D01*
X040642Y014879D02*
X040660Y014879D01*
X040660Y014978D02*
X040642Y014978D01*
X040642Y015039D02*
X040283Y015039D01*
X040283Y015066D01*
X040297Y015137D01*
X040325Y015204D01*
X040365Y015265D01*
X040416Y015316D01*
X040477Y015356D01*
X040544Y015384D01*
X040615Y015398D01*
X040642Y015398D01*
X040642Y015039D01*
X040642Y015076D02*
X040660Y015076D01*
X040660Y015175D02*
X040642Y015175D01*
X040642Y015273D02*
X040660Y015273D01*
X040660Y015372D02*
X040642Y015372D01*
X040514Y015372D02*
X000601Y015372D01*
X000601Y015470D02*
X054607Y015470D01*
X054566Y015372D02*
X054236Y015372D01*
X054066Y015372D02*
X053736Y015372D01*
X053566Y015372D02*
X053288Y015372D01*
X053160Y015372D02*
X053142Y015372D01*
X053142Y015398D02*
X053115Y015398D01*
X053044Y015384D01*
X052977Y015356D01*
X052917Y015316D01*
X052865Y015265D01*
X052825Y015204D01*
X052797Y015137D01*
X052783Y015066D01*
X052783Y015039D01*
X053142Y015039D01*
X053142Y015398D01*
X053142Y015273D02*
X053160Y015273D01*
X053160Y015175D02*
X053142Y015175D01*
X053142Y015076D02*
X053160Y015076D01*
X053160Y014978D02*
X053142Y014978D01*
X053142Y014879D02*
X053160Y014879D01*
X053160Y014780D02*
X053142Y014780D01*
X053142Y014682D02*
X053160Y014682D01*
X053160Y014583D02*
X053142Y014583D01*
X053142Y014485D02*
X053160Y014485D01*
X053160Y014386D02*
X053142Y014386D01*
X053142Y014288D02*
X053160Y014288D01*
X053356Y014288D02*
X053481Y014288D01*
X053822Y014288D02*
X053981Y014288D01*
X054322Y014288D02*
X054481Y014288D01*
X054400Y015273D02*
X054402Y015273D01*
X053902Y015273D02*
X053900Y015273D01*
X053014Y015372D02*
X043236Y015372D01*
X043066Y015372D02*
X042736Y015372D01*
X042566Y015372D02*
X042236Y015372D01*
X042066Y015372D02*
X041736Y015372D01*
X041566Y015372D02*
X041236Y015372D01*
X041066Y015372D02*
X040788Y015372D01*
X040374Y015273D02*
X000601Y015273D01*
X000601Y015175D02*
X040313Y015175D01*
X040285Y015076D02*
X000601Y015076D01*
X000601Y014978D02*
X040283Y014978D01*
X040283Y014879D02*
X000601Y014879D01*
X000601Y014780D02*
X040283Y014780D01*
X040283Y014682D02*
X000601Y014682D01*
X000601Y014583D02*
X040283Y014583D01*
X040298Y014485D02*
X000601Y014485D01*
X000601Y014386D02*
X040347Y014386D01*
X040856Y014288D02*
X040980Y014288D01*
X041322Y014288D02*
X041480Y014288D01*
X041822Y014288D02*
X041980Y014288D01*
X042322Y014288D02*
X042480Y014288D01*
X042822Y014288D02*
X042980Y014288D01*
X043322Y014288D02*
X052947Y014288D01*
X052847Y014386D02*
X043436Y014386D01*
X043483Y014485D02*
X052798Y014485D01*
X052783Y014583D02*
X043499Y014583D01*
X043499Y014682D02*
X052783Y014682D01*
X052783Y014780D02*
X043499Y014780D01*
X043499Y014879D02*
X052783Y014879D01*
X052783Y014978D02*
X043499Y014978D01*
X043499Y015076D02*
X052785Y015076D01*
X052813Y015175D02*
X043468Y015175D01*
X043400Y015273D02*
X052874Y015273D01*
X048959Y015569D02*
X000601Y015569D01*
X000601Y015667D02*
X048889Y015667D01*
X048866Y015766D02*
X000601Y015766D01*
X000601Y015864D02*
X048878Y015864D01*
X048931Y015963D02*
X000601Y015963D01*
X000601Y017244D02*
X060462Y017244D01*
X060436Y017343D02*
X000601Y017343D01*
X000601Y017441D02*
X060379Y017441D01*
X060366Y017540D02*
X000601Y017540D01*
X000601Y017638D02*
X060388Y017638D01*
X060455Y017737D02*
X000601Y017737D01*
X000601Y017835D02*
X060443Y017835D01*
X060383Y017934D02*
X000601Y017934D01*
X000601Y018032D02*
X060366Y018032D01*
X060385Y018131D02*
X000601Y018131D01*
X000601Y018229D02*
X060448Y018229D01*
X060450Y018328D02*
X000601Y018328D01*
X000601Y018427D02*
X060386Y018427D01*
X060366Y018525D02*
X000601Y018525D01*
X000601Y018624D02*
X060381Y018624D01*
X060440Y018722D02*
X000601Y018722D01*
X000601Y018821D02*
X060457Y018821D01*
X060389Y018919D02*
X000601Y018919D01*
X000601Y019018D02*
X060366Y019018D01*
X060378Y019116D02*
X000601Y019116D01*
X000601Y019215D02*
X060433Y019215D01*
X060591Y019313D02*
X000601Y019313D01*
X000601Y019412D02*
X067401Y019412D01*
X067401Y019511D02*
X000601Y019511D01*
X000601Y019609D02*
X067401Y019609D01*
X067401Y019708D02*
X000601Y019708D01*
X000601Y019806D02*
X067401Y019806D01*
X067401Y019905D02*
X000601Y019905D01*
X000601Y020003D02*
X067401Y020003D01*
X067401Y020102D02*
X000601Y020102D01*
X000601Y020200D02*
X067401Y020200D01*
X067401Y020299D02*
X000601Y020299D01*
X000601Y020397D02*
X067401Y020397D01*
X067401Y020496D02*
X000601Y020496D01*
X000601Y020594D02*
X067401Y020594D01*
X067401Y020693D02*
X000601Y020693D01*
X000601Y020792D02*
X060487Y020792D01*
X060490Y020788D02*
X060594Y020745D01*
X060708Y020745D01*
X060813Y020788D01*
X060874Y020850D01*
X064178Y020850D01*
X064240Y020788D01*
X064344Y020745D01*
X064458Y020745D01*
X064563Y020788D01*
X064643Y020869D01*
X064686Y020973D01*
X064686Y021087D01*
X067401Y021087D01*
X067401Y020989D02*
X064686Y020989D01*
X064686Y021087D02*
X064643Y021191D01*
X064563Y021272D01*
X064458Y021315D01*
X064344Y021315D01*
X064240Y021272D01*
X064178Y021210D01*
X060874Y021210D01*
X060813Y021272D01*
X060792Y021280D01*
X060813Y021288D01*
X060874Y021350D01*
X063678Y021350D01*
X063740Y021288D01*
X063844Y021245D01*
X063958Y021245D01*
X064063Y021288D01*
X064143Y021369D01*
X064186Y021473D01*
X064186Y021587D01*
X064143Y021691D01*
X064063Y021772D01*
X063958Y021815D01*
X063844Y021815D01*
X063740Y021772D01*
X063678Y021710D01*
X060874Y021710D01*
X060813Y021772D01*
X060792Y021780D01*
X060813Y021788D01*
X060874Y021850D01*
X062678Y021850D01*
X062740Y021788D01*
X062844Y021745D01*
X062958Y021745D01*
X063063Y021788D01*
X063143Y021869D01*
X063186Y021973D01*
X063186Y022087D01*
X063143Y022191D01*
X063063Y022272D01*
X062958Y022315D01*
X062844Y022315D01*
X062740Y022272D01*
X062678Y022210D01*
X060874Y022210D01*
X060813Y022272D01*
X060792Y022280D01*
X060813Y022288D01*
X060874Y022350D01*
X061178Y022350D01*
X061240Y022288D01*
X061344Y022245D01*
X061458Y022245D01*
X061563Y022288D01*
X061624Y022350D01*
X062476Y022350D01*
X062581Y022455D01*
X062956Y022830D01*
X062956Y022980D01*
X062956Y023230D01*
X062851Y023335D01*
X062851Y023335D01*
X062686Y023499D01*
X062686Y023587D01*
X062643Y023691D01*
X062563Y023772D01*
X062458Y023815D01*
X062344Y023815D01*
X062240Y023772D01*
X062160Y023691D01*
X062151Y023671D01*
X062143Y023691D01*
X062063Y023772D01*
X061958Y023815D01*
X061844Y023815D01*
X061740Y023772D01*
X061678Y023710D01*
X061077Y023710D01*
X060971Y023605D01*
X060682Y023315D01*
X060594Y023315D01*
X060490Y023272D01*
X060410Y023191D01*
X060366Y023087D01*
X060366Y022973D01*
X060410Y022869D01*
X060490Y022788D01*
X060510Y022780D01*
X060490Y022772D01*
X060410Y022691D01*
X060366Y022587D01*
X060366Y022473D01*
X060410Y022369D01*
X060490Y022288D01*
X060510Y022280D01*
X060490Y022272D01*
X060410Y022191D01*
X060366Y022087D01*
X060366Y021973D01*
X060410Y021869D01*
X060490Y021788D01*
X060510Y021780D01*
X060490Y021772D01*
X060410Y021691D01*
X060366Y021587D01*
X060366Y021473D01*
X060410Y021369D01*
X060490Y021288D01*
X060510Y021280D01*
X060490Y021272D01*
X060410Y021191D01*
X060366Y021087D01*
X060366Y020973D01*
X060410Y020869D01*
X060490Y020788D01*
X060401Y020890D02*
X000601Y020890D01*
X000601Y020989D02*
X060366Y020989D01*
X060366Y021087D02*
X000601Y021087D01*
X000601Y021186D02*
X060407Y021186D01*
X060500Y021284D02*
X000601Y021284D01*
X000601Y021383D02*
X060404Y021383D01*
X060366Y021481D02*
X000601Y021481D01*
X000601Y021580D02*
X060366Y021580D01*
X060404Y021678D02*
X000601Y021678D01*
X000601Y021777D02*
X060503Y021777D01*
X060407Y021876D02*
X000601Y021876D01*
X000601Y021974D02*
X060366Y021974D01*
X060366Y022073D02*
X000601Y022073D01*
X000601Y022171D02*
X060401Y022171D01*
X060488Y022270D02*
X000601Y022270D01*
X000601Y022368D02*
X060410Y022368D01*
X060369Y022467D02*
X000601Y022467D01*
X000601Y022565D02*
X060366Y022565D01*
X060398Y022664D02*
X000601Y022664D01*
X000601Y022762D02*
X060481Y022762D01*
X060417Y022861D02*
X000601Y022861D01*
X000601Y022960D02*
X060372Y022960D01*
X060366Y023058D02*
X000601Y023058D01*
X000601Y023157D02*
X060395Y023157D01*
X060473Y023255D02*
X000601Y023255D01*
X000601Y023354D02*
X060720Y023354D01*
X060819Y023452D02*
X000601Y023452D01*
X000601Y023551D02*
X007016Y023551D01*
X007046Y023541D02*
X006978Y023563D01*
X006915Y023595D01*
X006858Y023637D01*
X006808Y023687D01*
X006766Y023744D01*
X006734Y023807D01*
X006712Y023875D01*
X006701Y023945D01*
X000601Y023945D01*
X000601Y024044D02*
X006701Y024044D01*
X006701Y024142D02*
X000601Y024142D01*
X000601Y024241D02*
X007101Y024241D01*
X007101Y024230D02*
X006701Y024230D01*
X006701Y023945D01*
X006721Y023846D02*
X000601Y023846D01*
X000601Y023748D02*
X006764Y023748D01*
X006845Y023649D02*
X000601Y023649D01*
X000601Y024339D02*
X006701Y024339D01*
X006701Y024330D02*
X007101Y024330D01*
X007101Y024230D01*
X007201Y024230D01*
X007201Y023532D01*
X007257Y023541D01*
X007324Y023563D01*
X007387Y023595D01*
X007444Y023637D01*
X007494Y023687D01*
X007536Y023744D01*
X007568Y023807D01*
X007590Y023875D01*
X007601Y023945D01*
X007701Y023945D01*
X007712Y023875D01*
X007734Y023807D01*
X007766Y023744D01*
X007808Y023687D01*
X007858Y023637D01*
X007915Y023595D01*
X007978Y023563D01*
X008046Y023541D01*
X008101Y023532D01*
X008101Y024230D01*
X007701Y024230D01*
X007701Y023945D01*
X007701Y024044D02*
X007601Y024044D01*
X007601Y024142D02*
X007701Y024142D01*
X007601Y024230D02*
X007201Y024230D01*
X007201Y024330D01*
X007101Y024330D01*
X007101Y025028D01*
X007046Y025019D01*
X006978Y024997D01*
X006915Y024965D01*
X006858Y024923D01*
X006808Y024873D01*
X006766Y024816D01*
X006734Y024753D01*
X006712Y024685D01*
X006701Y024615D01*
X006701Y024330D01*
X006701Y024438D02*
X000601Y024438D01*
X000601Y024536D02*
X006701Y024536D01*
X006704Y024635D02*
X000601Y024635D01*
X000601Y024733D02*
X006728Y024733D01*
X006778Y024832D02*
X000601Y024832D01*
X000601Y024930D02*
X006868Y024930D01*
X007101Y024930D02*
X007201Y024930D01*
X007201Y025028D02*
X007201Y024330D01*
X007601Y024330D01*
X007601Y024615D01*
X007590Y024685D01*
X007568Y024753D01*
X007536Y024816D01*
X007494Y024873D01*
X007444Y024923D01*
X007387Y024965D01*
X007324Y024997D01*
X007257Y025019D01*
X007201Y025028D01*
X007201Y024832D02*
X007101Y024832D01*
X007101Y024733D02*
X007201Y024733D01*
X007201Y024635D02*
X007101Y024635D01*
X007101Y024536D02*
X007201Y024536D01*
X007201Y024438D02*
X007101Y024438D01*
X007101Y024339D02*
X007201Y024339D01*
X007201Y024241D02*
X008101Y024241D01*
X008101Y024230D02*
X008101Y024330D01*
X007701Y024330D01*
X007701Y024615D01*
X007712Y024685D01*
X007734Y024753D01*
X007766Y024816D01*
X007808Y024873D01*
X007858Y024923D01*
X007915Y024965D01*
X007978Y024997D01*
X008046Y025019D01*
X008101Y025028D01*
X008101Y024330D01*
X008201Y024330D01*
X008201Y025028D01*
X008257Y025019D01*
X008324Y024997D01*
X008387Y024965D01*
X008444Y024923D01*
X008494Y024873D01*
X008536Y024816D01*
X008568Y024753D01*
X008590Y024685D01*
X008601Y024615D01*
X008601Y024330D01*
X008201Y024330D01*
X008201Y024230D01*
X008201Y023532D01*
X008257Y023541D01*
X008324Y023563D01*
X008387Y023595D01*
X008444Y023637D01*
X008494Y023687D01*
X008536Y023744D01*
X008568Y023807D01*
X008590Y023875D01*
X008601Y023945D01*
X008721Y023945D01*
X008721Y023894D02*
X008787Y023736D01*
X008908Y023615D01*
X009066Y023550D01*
X009237Y023550D01*
X009395Y023615D01*
X009516Y023736D01*
X009581Y023894D01*
X009581Y024666D01*
X009516Y024824D01*
X009395Y024944D01*
X009237Y025010D01*
X009066Y025010D01*
X008908Y024944D01*
X008787Y024824D01*
X008721Y024666D01*
X008721Y023894D01*
X008741Y023846D02*
X008581Y023846D01*
X008601Y023945D02*
X008601Y024230D01*
X008201Y024230D01*
X008101Y024230D01*
X008101Y024142D02*
X008201Y024142D01*
X008201Y024044D02*
X008101Y024044D01*
X008101Y023945D02*
X008201Y023945D01*
X008201Y023846D02*
X008101Y023846D01*
X008101Y023748D02*
X008201Y023748D01*
X008201Y023649D02*
X008101Y023649D01*
X008101Y023551D02*
X008201Y023551D01*
X008286Y023551D02*
X009064Y023551D01*
X009239Y023551D02*
X010064Y023551D01*
X010066Y023550D02*
X010237Y023550D01*
X010395Y023615D01*
X010516Y023736D01*
X010581Y023894D01*
X010581Y024666D01*
X010516Y024824D01*
X010395Y024944D01*
X010237Y025010D01*
X010066Y025010D01*
X009908Y024944D01*
X009787Y024824D01*
X009721Y024666D01*
X009721Y023894D01*
X009787Y023736D01*
X009908Y023615D01*
X010066Y023550D01*
X010239Y023551D02*
X011064Y023551D01*
X011066Y023550D02*
X011237Y023550D01*
X011395Y023615D01*
X011516Y023736D01*
X011581Y023894D01*
X011581Y024666D01*
X011516Y024824D01*
X011395Y024944D01*
X011237Y025010D01*
X011066Y025010D01*
X010908Y024944D01*
X010787Y024824D01*
X010721Y024666D01*
X010721Y023894D01*
X010787Y023736D01*
X010908Y023615D01*
X011066Y023550D01*
X011239Y023551D02*
X012064Y023551D01*
X012066Y023550D02*
X012237Y023550D01*
X012395Y023615D01*
X012516Y023736D01*
X012581Y023894D01*
X012581Y024666D01*
X012516Y024824D01*
X012395Y024944D01*
X012237Y025010D01*
X012066Y025010D01*
X011908Y024944D01*
X011787Y024824D01*
X011721Y024666D01*
X011721Y023894D01*
X011787Y023736D01*
X011908Y023615D01*
X012066Y023550D01*
X012239Y023551D02*
X013016Y023551D01*
X013046Y023541D02*
X012978Y023563D01*
X012915Y023595D01*
X012858Y023637D01*
X012808Y023687D01*
X012766Y023744D01*
X012734Y023807D01*
X012712Y023875D01*
X012701Y023945D01*
X012581Y023945D01*
X012581Y024044D02*
X012701Y024044D01*
X012701Y024142D02*
X012581Y024142D01*
X012581Y024241D02*
X013101Y024241D01*
X013101Y024230D02*
X012701Y024230D01*
X012701Y023945D01*
X012721Y023846D02*
X012561Y023846D01*
X012520Y023748D02*
X012764Y023748D01*
X012845Y023649D02*
X012429Y023649D01*
X011874Y023649D02*
X011429Y023649D01*
X011520Y023748D02*
X011782Y023748D01*
X011741Y023846D02*
X011561Y023846D01*
X011581Y023945D02*
X011721Y023945D01*
X011721Y024044D02*
X011581Y024044D01*
X011581Y024142D02*
X011721Y024142D01*
X011721Y024241D02*
X011581Y024241D01*
X011581Y024339D02*
X011721Y024339D01*
X011721Y024438D02*
X011581Y024438D01*
X011581Y024536D02*
X011721Y024536D01*
X011721Y024635D02*
X011581Y024635D01*
X011553Y024733D02*
X011749Y024733D01*
X011795Y024832D02*
X011507Y024832D01*
X011409Y024930D02*
X011894Y024930D01*
X012409Y024930D02*
X012868Y024930D01*
X012858Y024923D02*
X012808Y024873D01*
X012766Y024816D01*
X012734Y024753D01*
X012712Y024685D01*
X012701Y024615D01*
X012701Y024330D01*
X013101Y024330D01*
X013101Y024230D01*
X013201Y024230D01*
X013201Y023532D01*
X013257Y023541D01*
X013324Y023563D01*
X013387Y023595D01*
X013444Y023637D01*
X013494Y023687D01*
X013536Y023744D01*
X013568Y023807D01*
X013590Y023875D01*
X013601Y023945D01*
X013701Y023945D01*
X013712Y023875D01*
X013734Y023807D01*
X013766Y023744D01*
X013808Y023687D01*
X013858Y023637D01*
X013915Y023595D01*
X013978Y023563D01*
X014046Y023541D01*
X014101Y023532D01*
X014101Y024230D01*
X013701Y024230D01*
X013701Y023945D01*
X013701Y024044D02*
X013601Y024044D01*
X013601Y024142D02*
X013701Y024142D01*
X013601Y024230D02*
X013201Y024230D01*
X013201Y024330D01*
X013101Y024330D01*
X013101Y025028D01*
X013046Y025019D01*
X012978Y024997D01*
X012915Y024965D01*
X012858Y024923D01*
X012778Y024832D02*
X012507Y024832D01*
X012553Y024733D02*
X012728Y024733D01*
X012704Y024635D02*
X012581Y024635D01*
X012581Y024536D02*
X012701Y024536D01*
X012701Y024438D02*
X012581Y024438D01*
X012581Y024339D02*
X012701Y024339D01*
X013101Y024339D02*
X013201Y024339D01*
X013201Y024330D02*
X013201Y025028D01*
X013257Y025019D01*
X013324Y024997D01*
X013387Y024965D01*
X013444Y024923D01*
X013494Y024873D01*
X013536Y024816D01*
X013568Y024753D01*
X013590Y024685D01*
X013601Y024615D01*
X013601Y024330D01*
X013201Y024330D01*
X013201Y024241D02*
X014101Y024241D01*
X014101Y024230D02*
X014101Y024330D01*
X013701Y024330D01*
X013701Y024615D01*
X013712Y024685D01*
X013734Y024753D01*
X013766Y024816D01*
X013808Y024873D01*
X013858Y024923D01*
X013915Y024965D01*
X013978Y024997D01*
X014046Y025019D01*
X014101Y025028D01*
X014101Y024330D01*
X014201Y024330D01*
X014201Y025028D01*
X014257Y025019D01*
X014324Y024997D01*
X014387Y024965D01*
X014444Y024923D01*
X014494Y024873D01*
X014536Y024816D01*
X014568Y024753D01*
X014590Y024685D01*
X014601Y024615D01*
X014601Y024330D01*
X014201Y024330D01*
X014201Y024230D01*
X014201Y023532D01*
X014257Y023541D01*
X014324Y023563D01*
X014387Y023595D01*
X014444Y023637D01*
X014494Y023687D01*
X014536Y023744D01*
X014568Y023807D01*
X014590Y023875D01*
X014601Y023945D01*
X014701Y023945D01*
X014712Y023875D01*
X014734Y023807D01*
X014766Y023744D01*
X014808Y023687D01*
X014858Y023637D01*
X014915Y023595D01*
X014978Y023563D01*
X015046Y023541D01*
X015101Y023532D01*
X015101Y024230D01*
X014701Y024230D01*
X014701Y023945D01*
X014701Y024044D02*
X014601Y024044D01*
X014601Y024142D02*
X014701Y024142D01*
X014601Y024230D02*
X014201Y024230D01*
X014101Y024230D01*
X014101Y024142D02*
X014201Y024142D01*
X014201Y024044D02*
X014101Y024044D01*
X014101Y023945D02*
X014201Y023945D01*
X014201Y023846D02*
X014101Y023846D01*
X014101Y023748D02*
X014201Y023748D01*
X014201Y023649D02*
X014101Y023649D01*
X014101Y023551D02*
X014201Y023551D01*
X014286Y023551D02*
X015016Y023551D01*
X015101Y023551D02*
X015201Y023551D01*
X015201Y023532D02*
X015257Y023541D01*
X015324Y023563D01*
X015387Y023595D01*
X015444Y023637D01*
X015494Y023687D01*
X015536Y023744D01*
X015568Y023807D01*
X015590Y023875D01*
X015601Y023945D01*
X015701Y023945D01*
X015712Y023875D01*
X015734Y023807D01*
X015766Y023744D01*
X015808Y023687D01*
X015858Y023637D01*
X015915Y023595D01*
X015978Y023563D01*
X016046Y023541D01*
X016101Y023532D01*
X016101Y024230D01*
X015701Y024230D01*
X015701Y023945D01*
X015701Y024044D02*
X015601Y024044D01*
X015601Y024142D02*
X015701Y024142D01*
X015601Y024230D02*
X015201Y024230D01*
X015201Y023532D01*
X015286Y023551D02*
X016016Y023551D01*
X016101Y023551D02*
X016201Y023551D01*
X016201Y023532D02*
X016257Y023541D01*
X016324Y023563D01*
X016387Y023595D01*
X016444Y023637D01*
X016494Y023687D01*
X016536Y023744D01*
X016568Y023807D01*
X016590Y023875D01*
X016601Y023945D01*
X016701Y023945D01*
X016712Y023875D01*
X016734Y023807D01*
X016766Y023744D01*
X016808Y023687D01*
X016858Y023637D01*
X016915Y023595D01*
X016978Y023563D01*
X017046Y023541D01*
X017101Y023532D01*
X017101Y024230D01*
X016701Y024230D01*
X016701Y023945D01*
X016701Y024044D02*
X016601Y024044D01*
X016601Y024142D02*
X016701Y024142D01*
X016601Y024230D02*
X016201Y024230D01*
X016201Y023532D01*
X016286Y023551D02*
X017016Y023551D01*
X017101Y023551D02*
X017201Y023551D01*
X017201Y023532D02*
X017257Y023541D01*
X017324Y023563D01*
X017387Y023595D01*
X017444Y023637D01*
X017494Y023687D01*
X017536Y023744D01*
X017568Y023807D01*
X017590Y023875D01*
X017601Y023945D01*
X017721Y023945D01*
X017721Y023894D02*
X017787Y023736D01*
X017908Y023615D01*
X018066Y023550D01*
X018237Y023550D01*
X018395Y023615D01*
X018516Y023736D01*
X018581Y023894D01*
X018581Y024666D01*
X018516Y024824D01*
X018395Y024944D01*
X018237Y025010D01*
X018066Y025010D01*
X017908Y024944D01*
X017787Y024824D01*
X017721Y024666D01*
X017721Y023894D01*
X017741Y023846D02*
X017581Y023846D01*
X017601Y023945D02*
X017601Y024230D01*
X017201Y024230D01*
X017201Y023532D01*
X017286Y023551D02*
X018064Y023551D01*
X018239Y023551D02*
X019064Y023551D01*
X019066Y023550D02*
X019237Y023550D01*
X019395Y023615D01*
X019516Y023736D01*
X019581Y023894D01*
X019581Y024666D01*
X019516Y024824D01*
X019395Y024944D01*
X019237Y025010D01*
X019066Y025010D01*
X018908Y024944D01*
X018787Y024824D01*
X018721Y024666D01*
X018721Y023894D01*
X018787Y023736D01*
X018908Y023615D01*
X019066Y023550D01*
X019239Y023551D02*
X020064Y023551D01*
X020066Y023550D02*
X020237Y023550D01*
X020395Y023615D01*
X020516Y023736D01*
X020581Y023894D01*
X020581Y024666D01*
X020516Y024824D01*
X020395Y024944D01*
X020237Y025010D01*
X020066Y025010D01*
X019908Y024944D01*
X019787Y024824D01*
X019721Y024666D01*
X019721Y023894D01*
X019787Y023736D01*
X019908Y023615D01*
X020066Y023550D01*
X020239Y023551D02*
X021016Y023551D01*
X021046Y023541D02*
X020978Y023563D01*
X020915Y023595D01*
X020858Y023637D01*
X020808Y023687D01*
X020766Y023744D01*
X020734Y023807D01*
X020712Y023875D01*
X020701Y023945D01*
X020581Y023945D01*
X020581Y024044D02*
X020701Y024044D01*
X020701Y024142D02*
X020581Y024142D01*
X020581Y024241D02*
X021101Y024241D01*
X021101Y024230D02*
X020701Y024230D01*
X020701Y023945D01*
X020721Y023846D02*
X020561Y023846D01*
X020520Y023748D02*
X020764Y023748D01*
X020845Y023649D02*
X020429Y023649D01*
X019874Y023649D02*
X019429Y023649D01*
X019520Y023748D02*
X019782Y023748D01*
X019741Y023846D02*
X019561Y023846D01*
X019581Y023945D02*
X019721Y023945D01*
X019721Y024044D02*
X019581Y024044D01*
X019581Y024142D02*
X019721Y024142D01*
X019721Y024241D02*
X019581Y024241D01*
X019581Y024339D02*
X019721Y024339D01*
X019721Y024438D02*
X019581Y024438D01*
X019581Y024536D02*
X019721Y024536D01*
X019721Y024635D02*
X019581Y024635D01*
X019553Y024733D02*
X019749Y024733D01*
X019795Y024832D02*
X019507Y024832D01*
X019409Y024930D02*
X019894Y024930D01*
X020409Y024930D02*
X020868Y024930D01*
X020858Y024923D02*
X020808Y024873D01*
X020766Y024816D01*
X020734Y024753D01*
X020712Y024685D01*
X020701Y024615D01*
X020701Y024330D01*
X021101Y024330D01*
X021101Y024230D01*
X021201Y024230D01*
X021201Y023532D01*
X021257Y023541D01*
X021324Y023563D01*
X021387Y023595D01*
X021444Y023637D01*
X021494Y023687D01*
X021536Y023744D01*
X021568Y023807D01*
X021590Y023875D01*
X021601Y023945D01*
X021701Y023945D01*
X021712Y023875D01*
X021734Y023807D01*
X021766Y023744D01*
X021808Y023687D01*
X021858Y023637D01*
X021915Y023595D01*
X021978Y023563D01*
X022046Y023541D01*
X022101Y023532D01*
X022101Y024230D01*
X021701Y024230D01*
X021701Y023945D01*
X021701Y024044D02*
X021601Y024044D01*
X021601Y024142D02*
X021701Y024142D01*
X021601Y024230D02*
X021201Y024230D01*
X021201Y024330D01*
X021101Y024330D01*
X021101Y025028D01*
X021046Y025019D01*
X020978Y024997D01*
X020915Y024965D01*
X020858Y024923D01*
X020778Y024832D02*
X020507Y024832D01*
X020553Y024733D02*
X020728Y024733D01*
X020704Y024635D02*
X020581Y024635D01*
X020581Y024536D02*
X020701Y024536D01*
X020701Y024438D02*
X020581Y024438D01*
X020581Y024339D02*
X020701Y024339D01*
X021101Y024339D02*
X021201Y024339D01*
X021201Y024330D02*
X021201Y025028D01*
X021257Y025019D01*
X021324Y024997D01*
X021387Y024965D01*
X021444Y024923D01*
X021494Y024873D01*
X021536Y024816D01*
X021568Y024753D01*
X021590Y024685D01*
X021601Y024615D01*
X021601Y024330D01*
X021201Y024330D01*
X021201Y024241D02*
X022101Y024241D01*
X022101Y024230D02*
X022101Y024330D01*
X021701Y024330D01*
X021701Y024615D01*
X021712Y024685D01*
X021734Y024753D01*
X021766Y024816D01*
X021808Y024873D01*
X021858Y024923D01*
X021915Y024965D01*
X021978Y024997D01*
X022046Y025019D01*
X022101Y025028D01*
X022101Y024330D01*
X022201Y024330D01*
X022201Y025028D01*
X022257Y025019D01*
X022324Y024997D01*
X022387Y024965D01*
X022444Y024923D01*
X022494Y024873D01*
X022536Y024816D01*
X022568Y024753D01*
X022590Y024685D01*
X022601Y024615D01*
X022601Y024330D01*
X022201Y024330D01*
X022201Y024230D01*
X022201Y023532D01*
X022257Y023541D01*
X022324Y023563D01*
X022387Y023595D01*
X022444Y023637D01*
X022494Y023687D01*
X022536Y023744D01*
X022568Y023807D01*
X022590Y023875D01*
X022601Y023945D01*
X022721Y023945D01*
X022721Y023894D02*
X022787Y023736D01*
X022908Y023615D01*
X023066Y023550D01*
X023237Y023550D01*
X023395Y023615D01*
X023516Y023736D01*
X023581Y023894D01*
X023581Y024666D01*
X023516Y024824D01*
X023395Y024944D01*
X023237Y025010D01*
X023066Y025010D01*
X022908Y024944D01*
X022787Y024824D01*
X022721Y024666D01*
X022721Y023894D01*
X022741Y023846D02*
X022581Y023846D01*
X022601Y023945D02*
X022601Y024230D01*
X022201Y024230D01*
X022101Y024230D01*
X022101Y024142D02*
X022201Y024142D01*
X022201Y024044D02*
X022101Y024044D01*
X022101Y023945D02*
X022201Y023945D01*
X022201Y023846D02*
X022101Y023846D01*
X022101Y023748D02*
X022201Y023748D01*
X022201Y023649D02*
X022101Y023649D01*
X022101Y023551D02*
X022201Y023551D01*
X022286Y023551D02*
X023064Y023551D01*
X023239Y023551D02*
X024064Y023551D01*
X024066Y023550D02*
X024237Y023550D01*
X024395Y023615D01*
X024516Y023736D01*
X024581Y023894D01*
X024581Y024666D01*
X024516Y024824D01*
X024395Y024944D01*
X024237Y025010D01*
X024066Y025010D01*
X023908Y024944D01*
X023787Y024824D01*
X023721Y024666D01*
X023721Y023894D01*
X023787Y023736D01*
X023908Y023615D01*
X024066Y023550D01*
X024239Y023551D02*
X025064Y023551D01*
X025066Y023550D02*
X025237Y023550D01*
X025395Y023615D01*
X025516Y023736D01*
X025581Y023894D01*
X025581Y024666D01*
X025516Y024824D01*
X025395Y024944D01*
X025361Y024958D01*
X025361Y026337D01*
X025393Y026369D01*
X025436Y026473D01*
X025436Y026587D01*
X025393Y026691D01*
X025313Y026772D01*
X025208Y026815D01*
X025094Y026815D01*
X024990Y026772D01*
X024910Y026691D01*
X024866Y026587D01*
X024866Y026473D01*
X024910Y026369D01*
X024941Y026337D01*
X024941Y024958D01*
X024908Y024944D01*
X024787Y024824D01*
X024721Y024666D01*
X024721Y023894D01*
X024787Y023736D01*
X024908Y023615D01*
X025066Y023550D01*
X025239Y023551D02*
X026016Y023551D01*
X026046Y023541D02*
X025978Y023563D01*
X025915Y023595D01*
X025858Y023637D01*
X025808Y023687D01*
X025766Y023744D01*
X025734Y023807D01*
X025712Y023875D01*
X025701Y023945D01*
X025581Y023945D01*
X025581Y024044D02*
X025701Y024044D01*
X025701Y024142D02*
X025581Y024142D01*
X025581Y024241D02*
X026101Y024241D01*
X026101Y024230D02*
X025701Y024230D01*
X025701Y023945D01*
X025721Y023846D02*
X025561Y023846D01*
X025520Y023748D02*
X025764Y023748D01*
X025845Y023649D02*
X025429Y023649D01*
X024874Y023649D02*
X024429Y023649D01*
X024520Y023748D02*
X024782Y023748D01*
X024741Y023846D02*
X024561Y023846D01*
X024581Y023945D02*
X024721Y023945D01*
X024721Y024044D02*
X024581Y024044D01*
X024581Y024142D02*
X024721Y024142D01*
X024721Y024241D02*
X024581Y024241D01*
X024581Y024339D02*
X024721Y024339D01*
X024721Y024438D02*
X024581Y024438D01*
X024581Y024536D02*
X024721Y024536D01*
X024721Y024635D02*
X024581Y024635D01*
X024553Y024733D02*
X024749Y024733D01*
X024795Y024832D02*
X024507Y024832D01*
X024409Y024930D02*
X024894Y024930D01*
X024941Y025029D02*
X000601Y025029D01*
X000601Y025127D02*
X024941Y025127D01*
X024941Y025226D02*
X000601Y025226D01*
X000601Y025325D02*
X024941Y025325D01*
X024941Y025423D02*
X000601Y025423D01*
X000601Y025522D02*
X024941Y025522D01*
X024941Y025620D02*
X000601Y025620D01*
X000601Y025719D02*
X024941Y025719D01*
X024941Y025817D02*
X000601Y025817D01*
X000601Y025916D02*
X024941Y025916D01*
X024941Y026014D02*
X000601Y026014D01*
X000601Y026113D02*
X024941Y026113D01*
X024941Y026211D02*
X000601Y026211D01*
X000601Y026310D02*
X024941Y026310D01*
X024893Y026409D02*
X000601Y026409D01*
X000601Y026507D02*
X024866Y026507D01*
X024874Y026606D02*
X000601Y026606D01*
X000601Y026704D02*
X024922Y026704D01*
X025065Y026803D02*
X000601Y026803D01*
X000601Y026901D02*
X067401Y026901D01*
X067401Y026803D02*
X025237Y026803D01*
X025380Y026704D02*
X067401Y026704D01*
X067401Y026606D02*
X025428Y026606D01*
X025436Y026507D02*
X067401Y026507D01*
X067401Y026409D02*
X025409Y026409D01*
X025361Y026310D02*
X067401Y026310D01*
X067401Y026211D02*
X025361Y026211D01*
X025361Y026113D02*
X067401Y026113D01*
X067401Y026014D02*
X025361Y026014D01*
X025361Y025916D02*
X067401Y025916D01*
X067401Y025817D02*
X025361Y025817D01*
X025361Y025719D02*
X067401Y025719D01*
X067401Y025620D02*
X025361Y025620D01*
X025361Y025522D02*
X067401Y025522D01*
X067401Y025423D02*
X025361Y025423D01*
X025361Y025325D02*
X067401Y025325D01*
X067401Y025226D02*
X025361Y025226D01*
X025361Y025127D02*
X067401Y025127D01*
X067401Y025029D02*
X025361Y025029D01*
X025409Y024930D02*
X025868Y024930D01*
X025858Y024923D02*
X025808Y024873D01*
X025766Y024816D01*
X025734Y024753D01*
X025712Y024685D01*
X025701Y024615D01*
X025701Y024330D01*
X026101Y024330D01*
X026101Y024230D01*
X026201Y024230D01*
X026201Y023532D01*
X026257Y023541D01*
X026324Y023563D01*
X026387Y023595D01*
X026444Y023637D01*
X026494Y023687D01*
X026536Y023744D01*
X026568Y023807D01*
X026590Y023875D01*
X026601Y023945D01*
X060378Y023945D01*
X060366Y023973D02*
X060410Y023869D01*
X060490Y023788D01*
X060594Y023745D01*
X060708Y023745D01*
X060813Y023788D01*
X060844Y023820D01*
X066208Y023820D01*
X066240Y023788D01*
X066344Y023745D01*
X066458Y023745D01*
X066563Y023788D01*
X066643Y023869D01*
X066686Y023973D01*
X066686Y024087D01*
X066643Y024191D01*
X066563Y024272D01*
X066458Y024315D01*
X066344Y024315D01*
X066240Y024272D01*
X066208Y024240D01*
X060844Y024240D01*
X060813Y024272D01*
X060708Y024315D01*
X060594Y024315D01*
X060490Y024272D01*
X060410Y024191D01*
X060366Y024087D01*
X060366Y023973D01*
X060366Y024044D02*
X026601Y024044D01*
X026601Y024142D02*
X060389Y024142D01*
X060459Y024241D02*
X026201Y024241D01*
X026201Y024230D02*
X026201Y024330D01*
X026101Y024330D01*
X026101Y025028D01*
X026046Y025019D01*
X025978Y024997D01*
X025915Y024965D01*
X025858Y024923D01*
X025778Y024832D02*
X025507Y024832D01*
X025553Y024733D02*
X025728Y024733D01*
X025704Y024635D02*
X025581Y024635D01*
X025581Y024536D02*
X025701Y024536D01*
X025701Y024438D02*
X025581Y024438D01*
X025581Y024339D02*
X025701Y024339D01*
X026101Y024339D02*
X026201Y024339D01*
X026201Y024330D02*
X026201Y025028D01*
X026257Y025019D01*
X026324Y024997D01*
X026387Y024965D01*
X026444Y024923D01*
X026494Y024873D01*
X026536Y024816D01*
X026568Y024753D01*
X026590Y024685D01*
X026601Y024615D01*
X026601Y024330D01*
X026201Y024330D01*
X026201Y024230D02*
X026601Y024230D01*
X026601Y023945D01*
X026581Y023846D02*
X060432Y023846D01*
X060587Y023748D02*
X026538Y023748D01*
X026457Y023649D02*
X061016Y023649D01*
X060917Y023551D02*
X026286Y023551D01*
X026201Y023551D02*
X026101Y023551D01*
X026101Y023532D02*
X026101Y024230D01*
X026101Y024142D02*
X026201Y024142D01*
X026201Y024044D02*
X026101Y024044D01*
X026101Y023945D02*
X026201Y023945D01*
X026201Y023846D02*
X026101Y023846D01*
X026101Y023748D02*
X026201Y023748D01*
X026201Y023649D02*
X026101Y023649D01*
X026101Y023532D02*
X026046Y023541D01*
X026601Y024339D02*
X067401Y024339D01*
X067401Y024241D02*
X066594Y024241D01*
X066663Y024142D02*
X067401Y024142D01*
X067401Y024044D02*
X066686Y024044D01*
X066674Y023945D02*
X067401Y023945D01*
X067401Y023846D02*
X066621Y023846D01*
X066465Y023748D02*
X067401Y023748D01*
X067401Y023649D02*
X062660Y023649D01*
X062686Y023551D02*
X067401Y023551D01*
X067401Y023452D02*
X062733Y023452D01*
X062832Y023354D02*
X067401Y023354D01*
X067401Y023255D02*
X062931Y023255D01*
X062956Y023157D02*
X067401Y023157D01*
X067401Y023058D02*
X062956Y023058D01*
X062956Y022960D02*
X067401Y022960D01*
X067401Y022861D02*
X062956Y022861D01*
X062888Y022762D02*
X067401Y022762D01*
X067401Y022664D02*
X062790Y022664D01*
X062691Y022565D02*
X067401Y022565D01*
X067401Y022467D02*
X062593Y022467D01*
X062494Y022368D02*
X067401Y022368D01*
X067401Y022270D02*
X063064Y022270D01*
X063151Y022171D02*
X067401Y022171D01*
X067401Y022073D02*
X063186Y022073D01*
X063186Y021974D02*
X067401Y021974D01*
X067401Y021876D02*
X063146Y021876D01*
X063035Y021777D02*
X063753Y021777D01*
X063901Y021530D02*
X060651Y021530D01*
X060799Y021777D02*
X062767Y021777D01*
X062901Y022030D02*
X060651Y022030D01*
X060814Y022270D02*
X061285Y022270D01*
X061518Y022270D02*
X062738Y022270D01*
X062401Y022530D02*
X061401Y022530D01*
X060651Y022530D01*
X060651Y023030D02*
X061151Y023530D01*
X061901Y023530D01*
X061716Y023748D02*
X060715Y023748D01*
X060844Y024241D02*
X066209Y024241D01*
X066337Y023748D02*
X062586Y023748D01*
X062401Y023530D02*
X062776Y023155D01*
X062776Y022905D01*
X062401Y022530D01*
X062401Y023030D02*
X061401Y023030D01*
X062086Y023748D02*
X062216Y023748D01*
X064049Y021777D02*
X067401Y021777D01*
X067401Y021678D02*
X064148Y021678D01*
X064186Y021580D02*
X067401Y021580D01*
X067401Y021481D02*
X064186Y021481D01*
X064149Y021383D02*
X067401Y021383D01*
X067401Y021284D02*
X064532Y021284D01*
X064645Y021186D02*
X067401Y021186D01*
X067401Y020890D02*
X064652Y020890D01*
X064566Y020792D02*
X067401Y020792D01*
X067401Y019313D02*
X060712Y019313D01*
X060869Y019215D02*
X067401Y019215D01*
X067401Y019116D02*
X066569Y019116D01*
X066668Y019018D02*
X067401Y019018D01*
X067401Y018919D02*
X067120Y018919D01*
X067219Y018821D02*
X067401Y018821D01*
X067401Y018722D02*
X067317Y018722D01*
X067331Y018624D02*
X067401Y018624D01*
X067401Y018525D02*
X067331Y018525D01*
X067331Y018427D02*
X067401Y018427D01*
X067401Y018328D02*
X067307Y018328D01*
X067401Y018229D02*
X067209Y018229D01*
X067110Y018131D02*
X067401Y018131D01*
X067401Y018032D02*
X066653Y018032D01*
X066692Y018131D02*
X066555Y018131D01*
X066594Y018229D02*
X066331Y018229D01*
X066331Y018328D02*
X066495Y018328D01*
X066471Y018427D02*
X066331Y018427D01*
X066331Y018525D02*
X066471Y018525D01*
X066471Y018624D02*
X066331Y018624D01*
X066331Y018722D02*
X066454Y018722D01*
X066356Y018821D02*
X066331Y018821D01*
X066401Y019030D02*
X066901Y018530D01*
X067105Y017934D02*
X067401Y017934D01*
X066401Y018030D02*
X060651Y018030D01*
X060651Y017530D02*
X065901Y017530D01*
X066288Y016751D02*
X066425Y016751D01*
X066471Y016653D02*
X066331Y016653D01*
X066331Y016554D02*
X066471Y016554D01*
X066471Y016456D02*
X066331Y016456D01*
X066331Y016357D02*
X066471Y016357D01*
X066564Y016259D02*
X066238Y016259D01*
X066401Y016030D02*
X060651Y016030D01*
X060651Y015530D02*
X065901Y015530D01*
X066526Y016160D02*
X066663Y016160D01*
X065901Y016530D02*
X060651Y016530D01*
X060651Y018530D02*
X065901Y018530D01*
X066401Y019030D02*
X060651Y019030D01*
X060816Y020792D02*
X064237Y020792D01*
X064401Y021030D02*
X060651Y021030D01*
X060803Y021284D02*
X063750Y021284D01*
X064053Y021284D02*
X064270Y021284D01*
X067401Y024438D02*
X026601Y024438D01*
X026601Y024536D02*
X067401Y024536D01*
X067401Y024635D02*
X026598Y024635D01*
X026575Y024733D02*
X067401Y024733D01*
X067401Y024832D02*
X026524Y024832D01*
X026434Y024930D02*
X067401Y024930D01*
X067401Y027000D02*
X000601Y027000D01*
X000601Y027098D02*
X067401Y027098D01*
X067401Y027197D02*
X000601Y027197D01*
X000601Y027295D02*
X067401Y027295D01*
X067401Y027394D02*
X000601Y027394D01*
X000601Y027493D02*
X067401Y027493D01*
X067401Y027591D02*
X000601Y027591D01*
X000601Y027690D02*
X067401Y027690D01*
X067401Y027788D02*
X000601Y027788D01*
X000601Y027887D02*
X067401Y027887D01*
X067401Y027985D02*
X000601Y027985D01*
X000601Y028084D02*
X067401Y028084D01*
X067401Y028182D02*
X000601Y028182D01*
X000601Y028281D02*
X067401Y028281D01*
X067401Y028379D02*
X000601Y028379D01*
X000601Y028478D02*
X067401Y028478D01*
X067401Y028576D02*
X000601Y028576D01*
X000601Y028675D02*
X067401Y028675D01*
X067401Y028774D02*
X000601Y028774D01*
X000601Y028872D02*
X067401Y028872D01*
X067401Y028971D02*
X000601Y028971D01*
X000601Y029069D02*
X067401Y029069D01*
X067401Y029168D02*
X000601Y029168D01*
X000601Y029266D02*
X067401Y029266D01*
X067401Y029365D02*
X000601Y029365D01*
X000601Y029463D02*
X067401Y029463D01*
X067401Y029562D02*
X000601Y029562D01*
X000601Y029660D02*
X067401Y029660D01*
X067401Y029759D02*
X000601Y029759D01*
X000601Y029858D02*
X067401Y029858D01*
X067401Y029956D02*
X000601Y029956D01*
X000601Y030055D02*
X067401Y030055D01*
X067401Y030153D02*
X000601Y030153D01*
X000601Y030252D02*
X067401Y030252D01*
X067401Y030350D02*
X000601Y030350D01*
X000601Y030449D02*
X067401Y030449D01*
X067401Y030547D02*
X000601Y030547D01*
X000601Y030646D02*
X067401Y030646D01*
X067401Y030744D02*
X000601Y030744D01*
X000601Y030843D02*
X067401Y030843D01*
X067401Y030942D02*
X000601Y030942D01*
X000601Y031040D02*
X067401Y031040D01*
X067401Y031139D02*
X000601Y031139D01*
X000601Y031237D02*
X067401Y031237D01*
X067401Y031336D02*
X058207Y031336D01*
X058305Y031434D02*
X067401Y031434D01*
X067401Y031533D02*
X058404Y031533D01*
X058503Y031631D02*
X067401Y031631D01*
X067401Y031730D02*
X058601Y031730D01*
X058700Y031828D02*
X067401Y031828D01*
X067401Y031927D02*
X058798Y031927D01*
X058897Y032026D02*
X067401Y032026D01*
X067401Y032124D02*
X058995Y032124D01*
X059094Y032223D02*
X067401Y032223D01*
X067401Y032321D02*
X059151Y032321D01*
X059151Y032420D02*
X067401Y032420D01*
X067401Y032518D02*
X059151Y032518D01*
X059151Y032617D02*
X067401Y032617D01*
X067401Y032715D02*
X059151Y032715D01*
X059151Y032814D02*
X067401Y032814D01*
X067401Y032912D02*
X059161Y032912D01*
X059186Y033011D02*
X067401Y033011D01*
X067401Y033109D02*
X059177Y033109D01*
X059151Y033208D02*
X067401Y033208D01*
X067401Y033307D02*
X059151Y033307D01*
X059151Y033405D02*
X067401Y033405D01*
X067401Y033504D02*
X059151Y033504D01*
X059151Y033602D02*
X067401Y033602D01*
X067401Y033701D02*
X059151Y033701D01*
X059151Y033799D02*
X067401Y033799D01*
X067401Y033898D02*
X059151Y033898D01*
X059151Y033996D02*
X067401Y033996D01*
X067401Y034095D02*
X059151Y034095D01*
X059151Y034193D02*
X067401Y034193D01*
X067401Y034292D02*
X059151Y034292D01*
X059151Y034391D02*
X067401Y034391D01*
X067401Y034489D02*
X059151Y034489D01*
X059151Y034588D02*
X067401Y034588D01*
X067401Y034686D02*
X059151Y034686D01*
X059151Y034785D02*
X067401Y034785D01*
X067401Y034883D02*
X059151Y034883D01*
X059151Y034982D02*
X067401Y034982D01*
X067401Y035080D02*
X059151Y035080D01*
X059151Y035179D02*
X067401Y035179D01*
X067401Y035277D02*
X059151Y035277D01*
X059151Y035376D02*
X067401Y035376D01*
X067401Y035475D02*
X059151Y035475D01*
X059151Y035573D02*
X067401Y035573D01*
X067401Y035672D02*
X059151Y035672D01*
X059151Y035770D02*
X067401Y035770D01*
X067401Y035869D02*
X059151Y035869D01*
X059151Y035967D02*
X061723Y035967D01*
X061801Y035889D02*
X062139Y035889D01*
X062366Y036116D01*
X063936Y036116D01*
X064164Y035889D01*
X064501Y035889D01*
X064739Y036127D01*
X064739Y036464D01*
X064501Y036703D01*
X064164Y036703D01*
X063936Y036476D01*
X062366Y036476D01*
X062139Y036703D01*
X061801Y036703D01*
X061563Y036464D01*
X061563Y036127D01*
X061801Y035889D01*
X061624Y036066D02*
X059151Y036066D01*
X059151Y036164D02*
X061563Y036164D01*
X061563Y036263D02*
X059151Y036263D01*
X059151Y036361D02*
X061563Y036361D01*
X061563Y036460D02*
X059151Y036460D01*
X059151Y036559D02*
X061657Y036559D01*
X061756Y036657D02*
X059151Y036657D01*
X059151Y036756D02*
X067401Y036756D01*
X067401Y036854D02*
X059151Y036854D01*
X059151Y036953D02*
X067401Y036953D01*
X067401Y037051D02*
X059151Y037051D01*
X059151Y037150D02*
X067401Y037150D01*
X067401Y037248D02*
X059151Y037248D01*
X059151Y037347D02*
X067401Y037347D01*
X067401Y037445D02*
X059151Y037445D01*
X059151Y037544D02*
X067401Y037544D01*
X067401Y037642D02*
X059151Y037642D01*
X059151Y037741D02*
X067401Y037741D01*
X067401Y037840D02*
X064512Y037840D01*
X064509Y037837D02*
X064759Y038087D01*
X064759Y038226D01*
X064371Y038226D01*
X064371Y038303D01*
X064294Y038303D01*
X064294Y038691D01*
X064155Y038691D01*
X063905Y038441D01*
X063905Y038303D01*
X064293Y038303D01*
X064293Y038226D01*
X063905Y038226D01*
X063905Y038087D01*
X064155Y037837D01*
X064294Y037837D01*
X064294Y038225D01*
X064371Y038225D01*
X064371Y037837D01*
X064509Y037837D01*
X064371Y037840D02*
X064294Y037840D01*
X064294Y037938D02*
X064371Y037938D01*
X064371Y038037D02*
X064294Y038037D01*
X064294Y038135D02*
X064371Y038135D01*
X064371Y038234D02*
X067401Y038234D01*
X067401Y038332D02*
X064759Y038332D01*
X064759Y038303D02*
X064759Y038441D01*
X064509Y038691D01*
X064371Y038691D01*
X064371Y038303D01*
X064759Y038303D01*
X064759Y038431D02*
X067401Y038431D01*
X067401Y038529D02*
X064671Y038529D01*
X064573Y038628D02*
X067401Y038628D01*
X067401Y038726D02*
X059151Y038726D01*
X059151Y038628D02*
X061730Y038628D01*
X061793Y038691D02*
X061543Y038441D01*
X061543Y038303D01*
X061931Y038303D01*
X061931Y038226D01*
X061543Y038226D01*
X061543Y038087D01*
X061793Y037837D01*
X061931Y037837D01*
X061931Y038225D01*
X062009Y038225D01*
X062009Y037837D01*
X062147Y037837D01*
X062397Y038087D01*
X062397Y038226D01*
X062009Y038226D01*
X062009Y038303D01*
X062397Y038303D01*
X062397Y038441D01*
X062147Y038691D01*
X062009Y038691D01*
X062009Y038303D01*
X061931Y038303D01*
X061931Y038691D01*
X061793Y038691D01*
X061931Y038628D02*
X062009Y038628D01*
X062009Y038529D02*
X061931Y038529D01*
X061931Y038431D02*
X062009Y038431D01*
X062009Y038332D02*
X061931Y038332D01*
X061931Y038234D02*
X059151Y038234D01*
X059151Y038332D02*
X061543Y038332D01*
X061543Y038431D02*
X059151Y038431D01*
X059151Y038529D02*
X061631Y038529D01*
X061543Y038135D02*
X059151Y038135D01*
X059151Y038037D02*
X061594Y038037D01*
X061692Y037938D02*
X059151Y037938D01*
X059151Y037840D02*
X061791Y037840D01*
X061931Y037840D02*
X062009Y037840D01*
X062009Y037938D02*
X061931Y037938D01*
X061931Y038037D02*
X062009Y038037D01*
X062009Y038135D02*
X061931Y038135D01*
X062009Y038234D02*
X064293Y038234D01*
X064294Y038332D02*
X064371Y038332D01*
X064371Y038431D02*
X064294Y038431D01*
X064294Y038529D02*
X064371Y038529D01*
X064371Y038628D02*
X064294Y038628D01*
X064092Y038628D02*
X062210Y038628D01*
X062309Y038529D02*
X063993Y038529D01*
X063905Y038431D02*
X062397Y038431D01*
X062397Y038332D02*
X063905Y038332D01*
X063905Y038135D02*
X062397Y038135D01*
X062347Y038037D02*
X063956Y038037D01*
X064054Y037938D02*
X062248Y037938D01*
X062149Y037840D02*
X064153Y037840D01*
X064610Y037938D02*
X067401Y037938D01*
X067401Y038037D02*
X064709Y038037D01*
X064759Y038135D02*
X067401Y038135D01*
X067401Y038825D02*
X059151Y038825D01*
X059151Y038924D02*
X067401Y038924D01*
X067401Y039022D02*
X059151Y039022D01*
X059151Y039121D02*
X067401Y039121D01*
X067358Y039219D02*
X059151Y039219D01*
X059151Y039318D02*
X067260Y039318D01*
X067161Y039416D02*
X059151Y039416D01*
X059151Y039515D02*
X067063Y039515D01*
X066964Y039613D02*
X059151Y039613D01*
X059151Y039712D02*
X066866Y039712D01*
X066767Y039810D02*
X059151Y039810D01*
X059151Y039909D02*
X066669Y039909D01*
X066570Y040008D02*
X059151Y040008D01*
X059151Y040106D02*
X066472Y040106D01*
X066373Y040205D02*
X059151Y040205D01*
X059151Y040303D02*
X066274Y040303D01*
X066176Y040402D02*
X059151Y040402D01*
X059151Y040500D02*
X066077Y040500D01*
X065979Y040599D02*
X059151Y040599D01*
X059151Y040697D02*
X065880Y040697D01*
X065782Y040796D02*
X059151Y040796D01*
X059151Y040894D02*
X065683Y040894D01*
X065585Y040993D02*
X059151Y040993D01*
X059151Y041091D02*
X065486Y041091D01*
X065388Y041190D02*
X059151Y041190D01*
X059151Y041289D02*
X065289Y041289D01*
X065191Y041387D02*
X059151Y041387D01*
X059151Y041486D02*
X065092Y041486D01*
X064993Y041584D02*
X059151Y041584D01*
X059151Y041683D02*
X064895Y041683D01*
X064796Y041781D02*
X059151Y041781D01*
X059151Y041880D02*
X064698Y041880D01*
X064599Y041978D02*
X059151Y041978D01*
X059151Y042077D02*
X064501Y042077D01*
X064402Y042175D02*
X059151Y042175D01*
X059151Y042274D02*
X064304Y042274D01*
X064205Y042373D02*
X059151Y042373D01*
X059151Y042471D02*
X064107Y042471D01*
X064008Y042570D02*
X059151Y042570D01*
X059151Y042668D02*
X063909Y042668D01*
X063811Y042767D02*
X059151Y042767D01*
X059151Y042865D02*
X063712Y042865D01*
X063614Y042964D02*
X059151Y042964D01*
X059151Y043062D02*
X063515Y043062D01*
X063417Y043161D02*
X059151Y043161D01*
X059151Y043259D02*
X063318Y043259D01*
X063220Y043358D02*
X059151Y043358D01*
X059151Y043457D02*
X063121Y043457D01*
X063434Y043851D02*
X066152Y043851D01*
X066122Y043949D02*
X063335Y043949D01*
X063532Y043752D02*
X066209Y043752D01*
X066266Y043654D02*
X063631Y043654D01*
X063730Y043555D02*
X066349Y043555D01*
X066447Y043457D02*
X063828Y043457D01*
X063927Y043358D02*
X066588Y043358D01*
X066787Y043259D02*
X064025Y043259D01*
X064124Y043161D02*
X067701Y043161D01*
X067701Y043259D02*
X067515Y043259D01*
X067701Y043062D02*
X064222Y043062D01*
X064321Y042964D02*
X067701Y042964D01*
X067701Y042865D02*
X064419Y042865D01*
X064518Y042767D02*
X067701Y042767D01*
X067701Y042668D02*
X064616Y042668D01*
X064715Y042570D02*
X067701Y042570D01*
X067701Y042471D02*
X064814Y042471D01*
X064912Y042373D02*
X067701Y042373D01*
X067701Y042274D02*
X065011Y042274D01*
X065109Y042175D02*
X067701Y042175D01*
X067701Y042077D02*
X065208Y042077D01*
X065306Y041978D02*
X067701Y041978D01*
X067701Y041880D02*
X065405Y041880D01*
X065503Y041781D02*
X067701Y041781D01*
X067701Y041683D02*
X065602Y041683D01*
X065700Y041584D02*
X067701Y041584D01*
X067701Y041486D02*
X065799Y041486D01*
X065898Y041387D02*
X067701Y041387D01*
X067701Y041289D02*
X065996Y041289D01*
X066095Y041190D02*
X067701Y041190D01*
X067701Y041091D02*
X066193Y041091D01*
X066292Y040993D02*
X067701Y040993D01*
X067701Y040894D02*
X066390Y040894D01*
X066489Y040796D02*
X067701Y040796D01*
X067701Y040697D02*
X066587Y040697D01*
X066686Y040599D02*
X067701Y040599D01*
X067701Y040500D02*
X066784Y040500D01*
X066883Y040402D02*
X067701Y040402D01*
X067701Y040303D02*
X066981Y040303D01*
X067080Y040205D02*
X067701Y040205D01*
X067701Y040106D02*
X067179Y040106D01*
X067277Y040008D02*
X067701Y040008D01*
X067701Y039909D02*
X067376Y039909D01*
X067474Y039810D02*
X067701Y039810D01*
X067701Y039712D02*
X067573Y039712D01*
X067671Y039613D02*
X067701Y039613D01*
X067401Y036657D02*
X064547Y036657D01*
X064645Y036559D02*
X067401Y036559D01*
X067401Y036460D02*
X064739Y036460D01*
X064739Y036361D02*
X067401Y036361D01*
X067401Y036263D02*
X064739Y036263D01*
X064739Y036164D02*
X067401Y036164D01*
X067401Y036066D02*
X064678Y036066D01*
X064580Y035967D02*
X067401Y035967D01*
X064332Y036296D02*
X061970Y036296D01*
X061936Y036330D01*
X062185Y036657D02*
X064118Y036657D01*
X064019Y036559D02*
X062283Y036559D01*
X062316Y036066D02*
X063986Y036066D01*
X064085Y035967D02*
X062217Y035967D01*
X058651Y035967D02*
X000601Y035967D01*
X000601Y035869D02*
X058651Y035869D01*
X058651Y035770D02*
X000601Y035770D01*
X000601Y035672D02*
X058651Y035672D01*
X058651Y035573D02*
X000601Y035573D01*
X000601Y035475D02*
X058651Y035475D01*
X058651Y035376D02*
X000601Y035376D01*
X000601Y035277D02*
X058651Y035277D01*
X058651Y035179D02*
X000601Y035179D01*
X000601Y035080D02*
X058651Y035080D01*
X058651Y034982D02*
X000601Y034982D01*
X000601Y034883D02*
X058651Y034883D01*
X058651Y034785D02*
X000601Y034785D01*
X000601Y034686D02*
X058651Y034686D01*
X058651Y034588D02*
X000601Y034588D01*
X000601Y034489D02*
X058651Y034489D01*
X058651Y034391D02*
X000601Y034391D01*
X000601Y034292D02*
X058651Y034292D01*
X058651Y034193D02*
X000601Y034193D01*
X000601Y034095D02*
X058651Y034095D01*
X058651Y033996D02*
X000601Y033996D01*
X000601Y033898D02*
X058651Y033898D01*
X058651Y033799D02*
X000601Y033799D01*
X000601Y033701D02*
X058651Y033701D01*
X058651Y033602D02*
X000601Y033602D01*
X000601Y033504D02*
X058651Y033504D01*
X058651Y033405D02*
X000601Y033405D01*
X000601Y033307D02*
X058651Y033307D01*
X058651Y033208D02*
X000601Y033208D01*
X000601Y033109D02*
X058626Y033109D01*
X058616Y033087D02*
X058616Y032973D01*
X058651Y032889D01*
X058651Y032780D01*
X057651Y031780D01*
X056542Y031780D01*
X056458Y031815D01*
X056344Y031815D01*
X056260Y031780D01*
X000601Y031780D01*
X000601Y043351D01*
X000734Y043274D01*
X001009Y043200D01*
X001293Y043200D01*
X001568Y043274D01*
X001814Y043416D01*
X002015Y043617D01*
X002157Y043863D01*
X002231Y044138D01*
X002231Y044422D01*
X002157Y044697D01*
X002081Y044830D01*
X041928Y044830D01*
X041647Y044549D01*
X041647Y044330D01*
X042247Y044330D01*
X042247Y044230D01*
X042347Y044230D01*
X042347Y044330D01*
X042947Y044330D01*
X042947Y044549D01*
X042666Y044830D01*
X045928Y044830D01*
X045647Y044549D01*
X045647Y044330D01*
X046247Y044330D01*
X046247Y044230D01*
X046347Y044230D01*
X046347Y044330D01*
X046947Y044330D01*
X046947Y044549D01*
X046666Y044830D01*
X049928Y044830D01*
X049647Y044549D01*
X049647Y044330D01*
X050247Y044330D01*
X050247Y044230D01*
X050347Y044230D01*
X050347Y044330D01*
X050947Y044330D01*
X050947Y044549D01*
X050666Y044830D01*
X053928Y044830D01*
X053647Y044549D01*
X053647Y044330D01*
X054247Y044330D01*
X054247Y044230D01*
X054347Y044230D01*
X054347Y044330D01*
X054947Y044330D01*
X054947Y044549D01*
X054666Y044830D01*
X058651Y044830D01*
X058651Y033171D01*
X058616Y033087D01*
X058616Y033011D02*
X000601Y033011D01*
X000601Y032912D02*
X058641Y032912D01*
X058651Y032814D02*
X000601Y032814D01*
X000601Y032715D02*
X058586Y032715D01*
X058488Y032617D02*
X000601Y032617D01*
X000601Y032518D02*
X058389Y032518D01*
X058291Y032420D02*
X000601Y032420D01*
X000601Y032321D02*
X058192Y032321D01*
X058094Y032223D02*
X000601Y032223D01*
X000601Y032124D02*
X057995Y032124D01*
X057897Y032026D02*
X000601Y032026D01*
X000601Y031927D02*
X057798Y031927D01*
X057700Y031828D02*
X000601Y031828D01*
X000601Y036066D02*
X058651Y036066D01*
X058651Y036164D02*
X000601Y036164D01*
X000601Y036263D02*
X058651Y036263D01*
X058651Y036361D02*
X000601Y036361D01*
X000601Y036460D02*
X058651Y036460D01*
X058651Y036559D02*
X000601Y036559D01*
X000601Y036657D02*
X058651Y036657D01*
X058651Y036756D02*
X000601Y036756D01*
X000601Y036854D02*
X037969Y036854D01*
X037973Y036850D02*
X038329Y036850D01*
X038581Y037102D01*
X038581Y037458D01*
X038329Y037710D01*
X037973Y037710D01*
X037721Y037458D01*
X037721Y037102D01*
X037973Y036850D01*
X037870Y036953D02*
X000601Y036953D01*
X000601Y037051D02*
X037772Y037051D01*
X037721Y037150D02*
X000601Y037150D01*
X000601Y037248D02*
X037721Y037248D01*
X037721Y037347D02*
X000601Y037347D01*
X000601Y037445D02*
X037721Y037445D01*
X037807Y037544D02*
X000601Y037544D01*
X000601Y037642D02*
X037906Y037642D01*
X037973Y037850D02*
X037721Y038102D01*
X037721Y038458D01*
X037973Y038710D01*
X038329Y038710D01*
X038581Y038458D01*
X038581Y038102D01*
X038329Y037850D01*
X037973Y037850D01*
X037885Y037938D02*
X000601Y037938D01*
X000601Y037840D02*
X042221Y037840D01*
X042221Y037753D02*
X042160Y037691D01*
X042116Y037587D01*
X042116Y037473D01*
X042160Y037369D01*
X042240Y037288D01*
X042344Y037245D01*
X042458Y037245D01*
X042563Y037288D01*
X042643Y037369D01*
X042686Y037473D01*
X042686Y037587D01*
X042643Y037691D01*
X042581Y037753D01*
X042581Y040782D01*
X042823Y040540D01*
X043345Y040540D01*
X043714Y040909D01*
X043714Y041431D01*
X043345Y041800D01*
X042823Y041800D01*
X042581Y041558D01*
X042581Y042577D01*
X042766Y042762D01*
X042823Y042705D01*
X043345Y042705D01*
X043714Y043074D01*
X043714Y043596D01*
X043345Y043965D01*
X042901Y043965D01*
X042947Y044011D01*
X042947Y044230D01*
X042347Y044230D01*
X042347Y043630D01*
X042488Y043630D01*
X042454Y043596D01*
X042454Y043074D01*
X042512Y043017D01*
X042221Y042727D01*
X042221Y042577D01*
X042221Y037753D01*
X042209Y037741D02*
X000601Y037741D01*
X000601Y038037D02*
X037786Y038037D01*
X037721Y038135D02*
X000601Y038135D01*
X000601Y038234D02*
X037721Y038234D01*
X037721Y038332D02*
X000601Y038332D01*
X000601Y038431D02*
X037721Y038431D01*
X037792Y038529D02*
X000601Y038529D01*
X000601Y038628D02*
X037891Y038628D01*
X037973Y038850D02*
X037721Y039102D01*
X037721Y039458D01*
X037973Y039710D01*
X038329Y039710D01*
X038581Y039458D01*
X038581Y039102D01*
X038329Y038850D01*
X037973Y038850D01*
X037900Y038924D02*
X000601Y038924D01*
X000601Y039022D02*
X037801Y039022D01*
X037721Y039121D02*
X000601Y039121D01*
X000601Y039219D02*
X037721Y039219D01*
X037721Y039318D02*
X000601Y039318D01*
X000601Y039416D02*
X037721Y039416D01*
X037778Y039515D02*
X000601Y039515D01*
X000601Y039613D02*
X037876Y039613D01*
X037973Y039850D02*
X037721Y040102D01*
X037721Y040458D01*
X037973Y040710D01*
X038329Y040710D01*
X038581Y040458D01*
X038581Y040102D01*
X038329Y039850D01*
X037973Y039850D01*
X037914Y039909D02*
X000601Y039909D01*
X000601Y040008D02*
X037816Y040008D01*
X037721Y040106D02*
X000601Y040106D01*
X000601Y040205D02*
X037721Y040205D01*
X037721Y040303D02*
X000601Y040303D01*
X000601Y040402D02*
X037721Y040402D01*
X037763Y040500D02*
X000601Y040500D01*
X000601Y040599D02*
X037862Y040599D01*
X037960Y040697D02*
X000601Y040697D01*
X000601Y040796D02*
X042221Y040796D01*
X042221Y040894D02*
X039374Y040894D01*
X039329Y040850D02*
X039581Y041102D01*
X039581Y041458D01*
X039329Y041710D01*
X038973Y041710D01*
X038721Y041458D01*
X038721Y041102D01*
X038973Y040850D01*
X039329Y040850D01*
X039329Y040710D02*
X038973Y040710D01*
X038721Y040458D01*
X038721Y040102D01*
X038973Y039850D01*
X039329Y039850D01*
X039581Y040102D01*
X039581Y040458D01*
X039329Y040710D01*
X039342Y040697D02*
X042221Y040697D01*
X042221Y040599D02*
X039440Y040599D01*
X039539Y040500D02*
X042221Y040500D01*
X042221Y040402D02*
X039581Y040402D01*
X039581Y040303D02*
X042221Y040303D01*
X042221Y040205D02*
X039581Y040205D01*
X039581Y040106D02*
X042221Y040106D01*
X042221Y040008D02*
X039487Y040008D01*
X039388Y039909D02*
X042221Y039909D01*
X042221Y039810D02*
X000601Y039810D01*
X000601Y039712D02*
X042221Y039712D01*
X042221Y039613D02*
X039426Y039613D01*
X039329Y039710D02*
X038973Y039710D01*
X038721Y039458D01*
X038721Y039102D01*
X038973Y038850D01*
X039329Y038850D01*
X039581Y039102D01*
X039581Y039458D01*
X039329Y039710D01*
X039524Y039515D02*
X042221Y039515D01*
X042221Y039416D02*
X039581Y039416D01*
X039581Y039318D02*
X042221Y039318D01*
X042221Y039219D02*
X039581Y039219D01*
X039581Y039121D02*
X042221Y039121D01*
X042221Y039022D02*
X039501Y039022D01*
X039403Y038924D02*
X042221Y038924D01*
X042221Y038825D02*
X000601Y038825D01*
X000601Y038726D02*
X042221Y038726D01*
X042221Y038628D02*
X039411Y038628D01*
X039329Y038710D02*
X038973Y038710D01*
X038721Y038458D01*
X038721Y038102D01*
X038973Y037850D01*
X039329Y037850D01*
X039581Y038102D01*
X039581Y038458D01*
X039329Y038710D01*
X039510Y038529D02*
X042221Y038529D01*
X042221Y038431D02*
X039581Y038431D01*
X039581Y038332D02*
X042221Y038332D01*
X042221Y038234D02*
X039581Y038234D01*
X039581Y038135D02*
X042221Y038135D01*
X042221Y038037D02*
X039516Y038037D01*
X039417Y037938D02*
X042221Y037938D01*
X042139Y037642D02*
X039397Y037642D01*
X039329Y037710D02*
X038973Y037710D01*
X038721Y037458D01*
X038721Y037102D01*
X038973Y036850D01*
X039329Y036850D01*
X039581Y037102D01*
X039581Y037458D01*
X039329Y037710D01*
X039495Y037544D02*
X042116Y037544D01*
X042128Y037445D02*
X039581Y037445D01*
X039581Y037347D02*
X042181Y037347D01*
X042336Y037248D02*
X039581Y037248D01*
X039581Y037150D02*
X058651Y037150D01*
X058651Y037248D02*
X054466Y037248D01*
X054458Y037245D02*
X054563Y037288D01*
X054643Y037369D01*
X054686Y037473D01*
X054686Y037587D01*
X054643Y037691D01*
X054581Y037753D01*
X054581Y040782D01*
X054823Y040540D01*
X055345Y040540D01*
X055714Y040909D01*
X055714Y041431D01*
X055345Y041800D01*
X054823Y041800D01*
X054581Y041558D01*
X054581Y042577D01*
X054766Y042762D01*
X054823Y042705D01*
X055345Y042705D01*
X055714Y043074D01*
X055714Y043596D01*
X055345Y043965D01*
X054901Y043965D01*
X054947Y044011D01*
X054947Y044230D01*
X054347Y044230D01*
X054347Y043630D01*
X054488Y043630D01*
X054454Y043596D01*
X054454Y043074D01*
X054512Y043017D01*
X054221Y042727D01*
X054221Y042577D01*
X054221Y037753D01*
X054160Y037691D01*
X054116Y037587D01*
X054116Y037473D01*
X054160Y037369D01*
X054240Y037288D01*
X054344Y037245D01*
X054458Y037245D01*
X054336Y037248D02*
X050466Y037248D01*
X050458Y037245D02*
X050563Y037288D01*
X050643Y037369D01*
X050686Y037473D01*
X050686Y037587D01*
X050643Y037691D01*
X050581Y037753D01*
X050581Y040782D01*
X050823Y040540D01*
X051345Y040540D01*
X051714Y040909D01*
X051714Y041431D01*
X051345Y041800D01*
X050823Y041800D01*
X050581Y041558D01*
X050581Y042577D01*
X050766Y042762D01*
X050823Y042705D01*
X051345Y042705D01*
X051714Y043074D01*
X051714Y043596D01*
X051345Y043965D01*
X050901Y043965D01*
X050947Y044011D01*
X050947Y044230D01*
X050347Y044230D01*
X050347Y043630D01*
X050488Y043630D01*
X050454Y043596D01*
X050454Y043074D01*
X050512Y043017D01*
X050221Y042727D01*
X050221Y042577D01*
X050221Y037753D01*
X050160Y037691D01*
X050116Y037587D01*
X050116Y037473D01*
X050160Y037369D01*
X050240Y037288D01*
X050344Y037245D01*
X050458Y037245D01*
X050336Y037248D02*
X046466Y037248D01*
X046458Y037245D02*
X046563Y037288D01*
X046643Y037369D01*
X046686Y037473D01*
X046686Y037587D01*
X046643Y037691D01*
X046581Y037753D01*
X046581Y040782D01*
X046823Y040540D01*
X047345Y040540D01*
X047714Y040909D01*
X047714Y041431D01*
X047345Y041800D01*
X046823Y041800D01*
X046581Y041558D01*
X046581Y042577D01*
X046766Y042762D01*
X046823Y042705D01*
X047345Y042705D01*
X047714Y043074D01*
X047714Y043596D01*
X047345Y043965D01*
X046901Y043965D01*
X046947Y044011D01*
X046947Y044230D01*
X046347Y044230D01*
X046347Y043630D01*
X046488Y043630D01*
X046454Y043596D01*
X046454Y043074D01*
X046512Y043017D01*
X046221Y042727D01*
X046221Y042577D01*
X046221Y037753D01*
X046160Y037691D01*
X046116Y037587D01*
X046116Y037473D01*
X046160Y037369D01*
X046240Y037288D01*
X046344Y037245D01*
X046458Y037245D01*
X046336Y037248D02*
X042466Y037248D01*
X042621Y037347D02*
X046181Y037347D01*
X046128Y037445D02*
X042675Y037445D01*
X042686Y037544D02*
X046116Y037544D01*
X046139Y037642D02*
X042663Y037642D01*
X042593Y037741D02*
X046209Y037741D01*
X046221Y037840D02*
X042581Y037840D01*
X042581Y037938D02*
X046221Y037938D01*
X046221Y038037D02*
X042581Y038037D01*
X042581Y038135D02*
X046221Y038135D01*
X046221Y038234D02*
X042581Y038234D01*
X042581Y038332D02*
X046221Y038332D01*
X046221Y038431D02*
X042581Y038431D01*
X042581Y038529D02*
X046221Y038529D01*
X046221Y038628D02*
X042581Y038628D01*
X042581Y038726D02*
X046221Y038726D01*
X046221Y038825D02*
X042581Y038825D01*
X042581Y038924D02*
X046221Y038924D01*
X046221Y039022D02*
X042581Y039022D01*
X042581Y039121D02*
X046221Y039121D01*
X046221Y039219D02*
X042581Y039219D01*
X042581Y039318D02*
X046221Y039318D01*
X046221Y039416D02*
X042581Y039416D01*
X042581Y039515D02*
X046221Y039515D01*
X046221Y039613D02*
X042581Y039613D01*
X042581Y039712D02*
X046221Y039712D01*
X046221Y039810D02*
X042581Y039810D01*
X042581Y039909D02*
X046221Y039909D01*
X046221Y040008D02*
X042581Y040008D01*
X042581Y040106D02*
X046221Y040106D01*
X046221Y040205D02*
X042581Y040205D01*
X042581Y040303D02*
X046221Y040303D01*
X046221Y040402D02*
X042581Y040402D01*
X042581Y040500D02*
X046221Y040500D01*
X046221Y040599D02*
X043404Y040599D01*
X043503Y040697D02*
X046221Y040697D01*
X046221Y040796D02*
X043601Y040796D01*
X043700Y040894D02*
X046221Y040894D01*
X046221Y040993D02*
X043714Y040993D01*
X043714Y041091D02*
X046221Y041091D01*
X046221Y041190D02*
X043714Y041190D01*
X043714Y041289D02*
X046221Y041289D01*
X046221Y041387D02*
X043714Y041387D01*
X043659Y041486D02*
X046221Y041486D01*
X046221Y041584D02*
X043561Y041584D01*
X043462Y041683D02*
X046221Y041683D01*
X046221Y041781D02*
X043364Y041781D01*
X042805Y041781D02*
X042581Y041781D01*
X042581Y041683D02*
X042706Y041683D01*
X042608Y041584D02*
X042581Y041584D01*
X042581Y041880D02*
X046221Y041880D01*
X046221Y041978D02*
X042581Y041978D01*
X042581Y042077D02*
X046221Y042077D01*
X046221Y042175D02*
X042581Y042175D01*
X042581Y042274D02*
X046221Y042274D01*
X046221Y042373D02*
X042581Y042373D01*
X042581Y042471D02*
X046221Y042471D01*
X046221Y042570D02*
X042581Y042570D01*
X042672Y042668D02*
X046221Y042668D01*
X046261Y042767D02*
X043407Y042767D01*
X043505Y042865D02*
X046360Y042865D01*
X046458Y042964D02*
X043604Y042964D01*
X043702Y043062D02*
X046466Y043062D01*
X046454Y043161D02*
X043714Y043161D01*
X043714Y043259D02*
X046454Y043259D01*
X046454Y043358D02*
X043714Y043358D01*
X043714Y043457D02*
X046454Y043457D01*
X046454Y043555D02*
X043714Y043555D01*
X043657Y043654D02*
X046004Y043654D01*
X046028Y043630D02*
X046247Y043630D01*
X046247Y044230D01*
X045647Y044230D01*
X045647Y044011D01*
X046028Y043630D01*
X045905Y043752D02*
X043558Y043752D01*
X043460Y043851D02*
X045807Y043851D01*
X045708Y043949D02*
X043361Y043949D01*
X042947Y044048D02*
X045647Y044048D01*
X045647Y044146D02*
X042947Y044146D01*
X042947Y044343D02*
X045647Y044343D01*
X045647Y044442D02*
X042947Y044442D01*
X042947Y044541D02*
X045647Y044541D01*
X045737Y044639D02*
X042857Y044639D01*
X042758Y044738D02*
X045835Y044738D01*
X046247Y044245D02*
X042347Y044245D01*
X042347Y044146D02*
X042247Y044146D01*
X042247Y044230D02*
X042247Y043630D01*
X042028Y043630D01*
X041647Y044011D01*
X041647Y044230D01*
X042247Y044230D01*
X042247Y044245D02*
X039581Y044245D01*
X039581Y044343D02*
X041647Y044343D01*
X041647Y044442D02*
X039581Y044442D01*
X039581Y044458D02*
X039329Y044710D01*
X038973Y044710D01*
X038721Y044458D01*
X038721Y044102D01*
X038973Y043850D01*
X039329Y043850D01*
X039581Y044102D01*
X039581Y044458D01*
X039499Y044541D02*
X041647Y044541D01*
X041737Y044639D02*
X039400Y044639D01*
X038902Y044639D02*
X038576Y044639D01*
X038581Y044634D02*
X038505Y044710D01*
X037797Y044710D01*
X037721Y044634D01*
X037721Y043926D01*
X037797Y043850D01*
X038505Y043850D01*
X038581Y043926D01*
X038581Y044634D01*
X038581Y044541D02*
X038804Y044541D01*
X038721Y044442D02*
X038581Y044442D01*
X038581Y044343D02*
X038721Y044343D01*
X038721Y044245D02*
X038581Y044245D01*
X038581Y044146D02*
X038721Y044146D01*
X038775Y044048D02*
X038581Y044048D01*
X038581Y043949D02*
X038874Y043949D01*
X038972Y043851D02*
X038506Y043851D01*
X038329Y043710D02*
X037973Y043710D01*
X037721Y043458D01*
X037721Y043102D01*
X037973Y042850D01*
X038329Y042850D01*
X038581Y043102D01*
X038581Y043458D01*
X038329Y043710D01*
X038386Y043654D02*
X038917Y043654D01*
X038973Y043710D02*
X038721Y043458D01*
X038721Y043102D01*
X038973Y042850D01*
X039329Y042850D01*
X039581Y043102D01*
X039581Y043458D01*
X039329Y043710D01*
X038973Y043710D01*
X038818Y043555D02*
X038484Y043555D01*
X038581Y043457D02*
X038721Y043457D01*
X038721Y043358D02*
X038581Y043358D01*
X038581Y043259D02*
X038721Y043259D01*
X038721Y043161D02*
X038581Y043161D01*
X038542Y043062D02*
X038761Y043062D01*
X038859Y042964D02*
X038443Y042964D01*
X038345Y042865D02*
X038958Y042865D01*
X038973Y042710D02*
X038721Y042458D01*
X038721Y042102D01*
X038973Y041850D01*
X039329Y041850D01*
X039581Y042102D01*
X039581Y042458D01*
X039329Y042710D01*
X038973Y042710D01*
X038931Y042668D02*
X038371Y042668D01*
X038329Y042710D02*
X037973Y042710D01*
X037721Y042458D01*
X037721Y042102D01*
X037973Y041850D01*
X038329Y041850D01*
X038581Y042102D01*
X038581Y042458D01*
X038329Y042710D01*
X038470Y042570D02*
X038833Y042570D01*
X038734Y042471D02*
X038568Y042471D01*
X038581Y042373D02*
X038721Y042373D01*
X038721Y042274D02*
X038581Y042274D01*
X038581Y042175D02*
X038721Y042175D01*
X038746Y042077D02*
X038556Y042077D01*
X038458Y041978D02*
X038845Y041978D01*
X038943Y041880D02*
X038359Y041880D01*
X038329Y041710D02*
X037973Y041710D01*
X037721Y041458D01*
X037721Y041102D01*
X037973Y040850D01*
X038329Y040850D01*
X038581Y041102D01*
X038581Y041458D01*
X038329Y041710D01*
X038356Y041683D02*
X038946Y041683D01*
X038847Y041584D02*
X038455Y041584D01*
X038554Y041486D02*
X038749Y041486D01*
X038721Y041387D02*
X038581Y041387D01*
X038581Y041289D02*
X038721Y041289D01*
X038721Y041190D02*
X038581Y041190D01*
X038571Y041091D02*
X038732Y041091D01*
X038830Y040993D02*
X038472Y040993D01*
X038374Y040894D02*
X038929Y040894D01*
X038960Y040697D02*
X038342Y040697D01*
X038440Y040599D02*
X038862Y040599D01*
X038763Y040500D02*
X038539Y040500D01*
X038581Y040402D02*
X038721Y040402D01*
X038721Y040303D02*
X038581Y040303D01*
X038581Y040205D02*
X038721Y040205D01*
X038721Y040106D02*
X038581Y040106D01*
X038487Y040008D02*
X038816Y040008D01*
X038914Y039909D02*
X038388Y039909D01*
X038426Y039613D02*
X038876Y039613D01*
X038778Y039515D02*
X038524Y039515D01*
X038581Y039416D02*
X038721Y039416D01*
X038721Y039318D02*
X038581Y039318D01*
X038581Y039219D02*
X038721Y039219D01*
X038721Y039121D02*
X038581Y039121D01*
X038501Y039022D02*
X038801Y039022D01*
X038900Y038924D02*
X038403Y038924D01*
X038411Y038628D02*
X038891Y038628D01*
X038792Y038529D02*
X038510Y038529D01*
X038581Y038431D02*
X038721Y038431D01*
X038721Y038332D02*
X038581Y038332D01*
X038581Y038234D02*
X038721Y038234D01*
X038721Y038135D02*
X038581Y038135D01*
X038516Y038037D02*
X038786Y038037D01*
X038885Y037938D02*
X038417Y037938D01*
X038397Y037642D02*
X038906Y037642D01*
X038807Y037544D02*
X038495Y037544D01*
X038581Y037445D02*
X038721Y037445D01*
X038721Y037347D02*
X038581Y037347D01*
X038581Y037248D02*
X038721Y037248D01*
X038721Y037150D02*
X038581Y037150D01*
X038530Y037051D02*
X038772Y037051D01*
X038870Y036953D02*
X038432Y036953D01*
X038333Y036854D02*
X038969Y036854D01*
X039333Y036854D02*
X058651Y036854D01*
X058651Y036953D02*
X039432Y036953D01*
X039530Y037051D02*
X058651Y037051D01*
X058651Y037347D02*
X054621Y037347D01*
X054675Y037445D02*
X058651Y037445D01*
X058651Y037544D02*
X054686Y037544D01*
X054663Y037642D02*
X058651Y037642D01*
X058651Y037741D02*
X054593Y037741D01*
X054581Y037840D02*
X058651Y037840D01*
X058651Y037938D02*
X054581Y037938D01*
X054581Y038037D02*
X058651Y038037D01*
X058651Y038135D02*
X054581Y038135D01*
X054581Y038234D02*
X058651Y038234D01*
X058651Y038332D02*
X054581Y038332D01*
X054581Y038431D02*
X058651Y038431D01*
X058651Y038529D02*
X054581Y038529D01*
X054581Y038628D02*
X058651Y038628D01*
X058651Y038726D02*
X054581Y038726D01*
X054581Y038825D02*
X058651Y038825D01*
X058651Y038924D02*
X054581Y038924D01*
X054581Y039022D02*
X058651Y039022D01*
X058651Y039121D02*
X054581Y039121D01*
X054581Y039219D02*
X058651Y039219D01*
X058651Y039318D02*
X054581Y039318D01*
X054581Y039416D02*
X058651Y039416D01*
X058651Y039515D02*
X054581Y039515D01*
X054581Y039613D02*
X058651Y039613D01*
X058651Y039712D02*
X054581Y039712D01*
X054581Y039810D02*
X058651Y039810D01*
X058651Y039909D02*
X054581Y039909D01*
X054581Y040008D02*
X058651Y040008D01*
X058651Y040106D02*
X054581Y040106D01*
X054581Y040205D02*
X058651Y040205D01*
X058651Y040303D02*
X054581Y040303D01*
X054581Y040402D02*
X058651Y040402D01*
X058651Y040500D02*
X054581Y040500D01*
X054581Y040599D02*
X054764Y040599D01*
X054666Y040697D02*
X054581Y040697D01*
X054221Y040697D02*
X051503Y040697D01*
X051404Y040599D02*
X054221Y040599D01*
X054221Y040500D02*
X050581Y040500D01*
X050581Y040402D02*
X054221Y040402D01*
X054221Y040303D02*
X050581Y040303D01*
X050581Y040205D02*
X054221Y040205D01*
X054221Y040106D02*
X050581Y040106D01*
X050581Y040008D02*
X054221Y040008D01*
X054221Y039909D02*
X050581Y039909D01*
X050581Y039810D02*
X054221Y039810D01*
X054221Y039712D02*
X050581Y039712D01*
X050581Y039613D02*
X054221Y039613D01*
X054221Y039515D02*
X050581Y039515D01*
X050581Y039416D02*
X054221Y039416D01*
X054221Y039318D02*
X050581Y039318D01*
X050581Y039219D02*
X054221Y039219D01*
X054221Y039121D02*
X050581Y039121D01*
X050581Y039022D02*
X054221Y039022D01*
X054221Y038924D02*
X050581Y038924D01*
X050581Y038825D02*
X054221Y038825D01*
X054221Y038726D02*
X050581Y038726D01*
X050581Y038628D02*
X054221Y038628D01*
X054221Y038529D02*
X050581Y038529D01*
X050581Y038431D02*
X054221Y038431D01*
X054221Y038332D02*
X050581Y038332D01*
X050581Y038234D02*
X054221Y038234D01*
X054221Y038135D02*
X050581Y038135D01*
X050581Y038037D02*
X054221Y038037D01*
X054221Y037938D02*
X050581Y037938D01*
X050581Y037840D02*
X054221Y037840D01*
X054209Y037741D02*
X050593Y037741D01*
X050663Y037642D02*
X054139Y037642D01*
X054116Y037544D02*
X050686Y037544D01*
X050675Y037445D02*
X054128Y037445D01*
X054181Y037347D02*
X050621Y037347D01*
X050401Y037530D02*
X050401Y042652D01*
X051084Y043335D01*
X050454Y043358D02*
X047714Y043358D01*
X047714Y043457D02*
X050454Y043457D01*
X050454Y043555D02*
X047714Y043555D01*
X047657Y043654D02*
X050004Y043654D01*
X050028Y043630D02*
X050247Y043630D01*
X050247Y044230D01*
X049647Y044230D01*
X049647Y044011D01*
X050028Y043630D01*
X049905Y043752D02*
X047558Y043752D01*
X047460Y043851D02*
X049807Y043851D01*
X049708Y043949D02*
X047361Y043949D01*
X046947Y044048D02*
X049647Y044048D01*
X049647Y044146D02*
X046947Y044146D01*
X046947Y044343D02*
X049647Y044343D01*
X049647Y044442D02*
X046947Y044442D01*
X046947Y044541D02*
X049647Y044541D01*
X049737Y044639D02*
X046857Y044639D01*
X046758Y044738D02*
X049835Y044738D01*
X050247Y044245D02*
X046347Y044245D01*
X046347Y044146D02*
X046247Y044146D01*
X046247Y044048D02*
X046347Y044048D01*
X046347Y043949D02*
X046247Y043949D01*
X046247Y043851D02*
X046347Y043851D01*
X046347Y043752D02*
X046247Y043752D01*
X046247Y043654D02*
X046347Y043654D01*
X047084Y043335D02*
X046401Y042652D01*
X046401Y037530D01*
X046663Y037642D02*
X050139Y037642D01*
X050116Y037544D02*
X046686Y037544D01*
X046675Y037445D02*
X050128Y037445D01*
X050181Y037347D02*
X046621Y037347D01*
X046593Y037741D02*
X050209Y037741D01*
X050221Y037840D02*
X046581Y037840D01*
X046581Y037938D02*
X050221Y037938D01*
X050221Y038037D02*
X046581Y038037D01*
X046581Y038135D02*
X050221Y038135D01*
X050221Y038234D02*
X046581Y038234D01*
X046581Y038332D02*
X050221Y038332D01*
X050221Y038431D02*
X046581Y038431D01*
X046581Y038529D02*
X050221Y038529D01*
X050221Y038628D02*
X046581Y038628D01*
X046581Y038726D02*
X050221Y038726D01*
X050221Y038825D02*
X046581Y038825D01*
X046581Y038924D02*
X050221Y038924D01*
X050221Y039022D02*
X046581Y039022D01*
X046581Y039121D02*
X050221Y039121D01*
X050221Y039219D02*
X046581Y039219D01*
X046581Y039318D02*
X050221Y039318D01*
X050221Y039416D02*
X046581Y039416D01*
X046581Y039515D02*
X050221Y039515D01*
X050221Y039613D02*
X046581Y039613D01*
X046581Y039712D02*
X050221Y039712D01*
X050221Y039810D02*
X046581Y039810D01*
X046581Y039909D02*
X050221Y039909D01*
X050221Y040008D02*
X046581Y040008D01*
X046581Y040106D02*
X050221Y040106D01*
X050221Y040205D02*
X046581Y040205D01*
X046581Y040303D02*
X050221Y040303D01*
X050221Y040402D02*
X046581Y040402D01*
X046581Y040500D02*
X050221Y040500D01*
X050221Y040599D02*
X047404Y040599D01*
X047503Y040697D02*
X050221Y040697D01*
X050221Y040796D02*
X047601Y040796D01*
X047700Y040894D02*
X050221Y040894D01*
X050221Y040993D02*
X047714Y040993D01*
X047714Y041091D02*
X050221Y041091D01*
X050221Y041190D02*
X047714Y041190D01*
X047714Y041289D02*
X050221Y041289D01*
X050221Y041387D02*
X047714Y041387D01*
X047659Y041486D02*
X050221Y041486D01*
X050221Y041584D02*
X047561Y041584D01*
X047462Y041683D02*
X050221Y041683D01*
X050221Y041781D02*
X047364Y041781D01*
X046805Y041781D02*
X046581Y041781D01*
X046581Y041683D02*
X046706Y041683D01*
X046608Y041584D02*
X046581Y041584D01*
X046581Y041880D02*
X050221Y041880D01*
X050221Y041978D02*
X046581Y041978D01*
X046581Y042077D02*
X050221Y042077D01*
X050221Y042175D02*
X046581Y042175D01*
X046581Y042274D02*
X050221Y042274D01*
X050221Y042373D02*
X046581Y042373D01*
X046581Y042471D02*
X050221Y042471D01*
X050221Y042570D02*
X046581Y042570D01*
X046672Y042668D02*
X050221Y042668D01*
X050261Y042767D02*
X047407Y042767D01*
X047505Y042865D02*
X050360Y042865D01*
X050458Y042964D02*
X047604Y042964D01*
X047702Y043062D02*
X050466Y043062D01*
X050454Y043161D02*
X047714Y043161D01*
X047714Y043259D02*
X050454Y043259D01*
X050347Y043654D02*
X050247Y043654D01*
X050247Y043752D02*
X050347Y043752D01*
X050347Y043851D02*
X050247Y043851D01*
X050247Y043949D02*
X050347Y043949D01*
X050347Y044048D02*
X050247Y044048D01*
X050247Y044146D02*
X050347Y044146D01*
X050347Y044245D02*
X054247Y044245D01*
X054247Y044230D02*
X053647Y044230D01*
X053647Y044011D01*
X054028Y043630D01*
X054247Y043630D01*
X054247Y044230D01*
X054247Y044146D02*
X054347Y044146D01*
X054347Y044048D02*
X054247Y044048D01*
X054247Y043949D02*
X054347Y043949D01*
X054347Y043851D02*
X054247Y043851D01*
X054247Y043752D02*
X054347Y043752D01*
X054347Y043654D02*
X054247Y043654D01*
X054454Y043555D02*
X051714Y043555D01*
X051714Y043457D02*
X054454Y043457D01*
X054454Y043358D02*
X051714Y043358D01*
X051714Y043259D02*
X054454Y043259D01*
X054454Y043161D02*
X051714Y043161D01*
X051702Y043062D02*
X054466Y043062D01*
X054458Y042964D02*
X051604Y042964D01*
X051505Y042865D02*
X054360Y042865D01*
X054261Y042767D02*
X051407Y042767D01*
X050672Y042668D02*
X054221Y042668D01*
X054221Y042570D02*
X050581Y042570D01*
X050581Y042471D02*
X054221Y042471D01*
X054221Y042373D02*
X050581Y042373D01*
X050581Y042274D02*
X054221Y042274D01*
X054221Y042175D02*
X050581Y042175D01*
X050581Y042077D02*
X054221Y042077D01*
X054221Y041978D02*
X050581Y041978D01*
X050581Y041880D02*
X054221Y041880D01*
X054221Y041781D02*
X051364Y041781D01*
X051462Y041683D02*
X054221Y041683D01*
X054221Y041584D02*
X051561Y041584D01*
X051659Y041486D02*
X054221Y041486D01*
X054221Y041387D02*
X051714Y041387D01*
X051714Y041289D02*
X054221Y041289D01*
X054221Y041190D02*
X051714Y041190D01*
X051714Y041091D02*
X054221Y041091D01*
X054221Y040993D02*
X051714Y040993D01*
X051700Y040894D02*
X054221Y040894D01*
X054221Y040796D02*
X051601Y040796D01*
X050764Y040599D02*
X050581Y040599D01*
X050581Y040697D02*
X050666Y040697D01*
X050608Y041584D02*
X050581Y041584D01*
X050581Y041683D02*
X050706Y041683D01*
X050805Y041781D02*
X050581Y041781D01*
X051657Y043654D02*
X054004Y043654D01*
X053905Y043752D02*
X051558Y043752D01*
X051460Y043851D02*
X053807Y043851D01*
X053708Y043949D02*
X051361Y043949D01*
X050947Y044048D02*
X053647Y044048D01*
X053647Y044146D02*
X050947Y044146D01*
X050947Y044343D02*
X053647Y044343D01*
X053647Y044442D02*
X050947Y044442D01*
X050947Y044541D02*
X053647Y044541D01*
X053737Y044639D02*
X050857Y044639D01*
X050758Y044738D02*
X053835Y044738D01*
X054347Y044245D02*
X058651Y044245D01*
X058651Y044343D02*
X054947Y044343D01*
X054947Y044442D02*
X058651Y044442D01*
X058651Y044541D02*
X054947Y044541D01*
X054857Y044639D02*
X058651Y044639D01*
X058651Y044738D02*
X054758Y044738D01*
X054947Y044146D02*
X058651Y044146D01*
X058651Y044048D02*
X054947Y044048D01*
X055361Y043949D02*
X058651Y043949D01*
X058651Y043851D02*
X055460Y043851D01*
X055558Y043752D02*
X058651Y043752D01*
X058651Y043654D02*
X055657Y043654D01*
X055714Y043555D02*
X058651Y043555D01*
X058651Y043457D02*
X055714Y043457D01*
X055714Y043358D02*
X058651Y043358D01*
X058651Y043259D02*
X055714Y043259D01*
X055714Y043161D02*
X058651Y043161D01*
X058651Y043062D02*
X055702Y043062D01*
X055604Y042964D02*
X058651Y042964D01*
X058651Y042865D02*
X055505Y042865D01*
X055407Y042767D02*
X058651Y042767D01*
X058651Y042668D02*
X054672Y042668D01*
X054581Y042570D02*
X058651Y042570D01*
X058651Y042471D02*
X054581Y042471D01*
X054581Y042373D02*
X058651Y042373D01*
X058651Y042274D02*
X054581Y042274D01*
X054581Y042175D02*
X058651Y042175D01*
X058651Y042077D02*
X054581Y042077D01*
X054581Y041978D02*
X058651Y041978D01*
X058651Y041880D02*
X054581Y041880D01*
X054581Y041781D02*
X054805Y041781D01*
X054706Y041683D02*
X054581Y041683D01*
X054581Y041584D02*
X054608Y041584D01*
X055364Y041781D02*
X058651Y041781D01*
X058651Y041683D02*
X055462Y041683D01*
X055561Y041584D02*
X058651Y041584D01*
X058651Y041486D02*
X055659Y041486D01*
X055714Y041387D02*
X058651Y041387D01*
X058651Y041289D02*
X055714Y041289D01*
X055714Y041190D02*
X058651Y041190D01*
X058651Y041091D02*
X055714Y041091D01*
X055714Y040993D02*
X058651Y040993D01*
X058651Y040894D02*
X055700Y040894D01*
X055601Y040796D02*
X058651Y040796D01*
X058651Y040697D02*
X055503Y040697D01*
X055404Y040599D02*
X058651Y040599D01*
X059151Y043555D02*
X059723Y043555D01*
X059645Y043654D02*
X059151Y043654D01*
X059151Y043752D02*
X059616Y043752D01*
X059622Y043851D02*
X059151Y043851D01*
X059151Y043949D02*
X059667Y043949D01*
X059803Y044048D02*
X059151Y044048D01*
X059151Y044146D02*
X066071Y044146D01*
X066071Y044245D02*
X059151Y044245D01*
X059151Y044343D02*
X066071Y044343D01*
X066077Y044442D02*
X059151Y044442D01*
X059151Y044541D02*
X066103Y044541D01*
X066129Y044639D02*
X059151Y044639D01*
X059151Y044738D02*
X066168Y044738D01*
X066095Y044048D02*
X059999Y044048D01*
X055084Y043335D02*
X054401Y042652D01*
X054401Y037530D01*
X046764Y040599D02*
X046581Y040599D01*
X046581Y040697D02*
X046666Y040697D01*
X042764Y040599D02*
X042581Y040599D01*
X042581Y040697D02*
X042666Y040697D01*
X042221Y040993D02*
X039472Y040993D01*
X039571Y041091D02*
X042221Y041091D01*
X042221Y041190D02*
X039581Y041190D01*
X039581Y041289D02*
X042221Y041289D01*
X042221Y041387D02*
X039581Y041387D01*
X039554Y041486D02*
X042221Y041486D01*
X042221Y041584D02*
X039455Y041584D01*
X039356Y041683D02*
X042221Y041683D01*
X042221Y041781D02*
X000601Y041781D01*
X000601Y041683D02*
X037946Y041683D01*
X037847Y041584D02*
X000601Y041584D01*
X000601Y041486D02*
X037749Y041486D01*
X037721Y041387D02*
X000601Y041387D01*
X000601Y041289D02*
X037721Y041289D01*
X037721Y041190D02*
X000601Y041190D01*
X000601Y041091D02*
X037732Y041091D01*
X037830Y040993D02*
X000601Y040993D01*
X000601Y040894D02*
X037929Y040894D01*
X037943Y041880D02*
X000601Y041880D01*
X000601Y041978D02*
X037845Y041978D01*
X037746Y042077D02*
X000601Y042077D01*
X000601Y042175D02*
X037721Y042175D01*
X037721Y042274D02*
X000601Y042274D01*
X000601Y042373D02*
X037721Y042373D01*
X037734Y042471D02*
X000601Y042471D01*
X000601Y042570D02*
X037833Y042570D01*
X037931Y042668D02*
X000601Y042668D01*
X000601Y042767D02*
X042261Y042767D01*
X042221Y042668D02*
X039371Y042668D01*
X039470Y042570D02*
X042221Y042570D01*
X042221Y042471D02*
X039568Y042471D01*
X039581Y042373D02*
X042221Y042373D01*
X042221Y042274D02*
X039581Y042274D01*
X039581Y042175D02*
X042221Y042175D01*
X042221Y042077D02*
X039556Y042077D01*
X039458Y041978D02*
X042221Y041978D01*
X042221Y041880D02*
X039359Y041880D01*
X039345Y042865D02*
X042360Y042865D01*
X042458Y042964D02*
X039443Y042964D01*
X039542Y043062D02*
X042466Y043062D01*
X042454Y043161D02*
X039581Y043161D01*
X039581Y043259D02*
X042454Y043259D01*
X042454Y043358D02*
X039581Y043358D01*
X039581Y043457D02*
X042454Y043457D01*
X042454Y043555D02*
X039484Y043555D01*
X039386Y043654D02*
X042004Y043654D01*
X041905Y043752D02*
X002093Y043752D01*
X002036Y043654D02*
X037917Y043654D01*
X037818Y043555D02*
X001954Y043555D01*
X001855Y043457D02*
X037721Y043457D01*
X037721Y043358D02*
X001714Y043358D01*
X001515Y043259D02*
X037721Y043259D01*
X037721Y043161D02*
X000601Y043161D01*
X000601Y043259D02*
X000787Y043259D01*
X000601Y043062D02*
X037761Y043062D01*
X037859Y042964D02*
X000601Y042964D01*
X000601Y042865D02*
X037958Y042865D01*
X037797Y043851D02*
X002150Y043851D01*
X002181Y043949D02*
X037721Y043949D01*
X037721Y044048D02*
X002207Y044048D01*
X002231Y044146D02*
X037721Y044146D01*
X037721Y044245D02*
X002231Y044245D01*
X002231Y044343D02*
X037721Y044343D01*
X037721Y044442D02*
X002226Y044442D01*
X002199Y044541D02*
X037721Y044541D01*
X037726Y044639D02*
X002173Y044639D01*
X002134Y044738D02*
X041835Y044738D01*
X041647Y044146D02*
X039581Y044146D01*
X039527Y044048D02*
X041647Y044048D01*
X041708Y043949D02*
X039429Y043949D01*
X039330Y043851D02*
X041807Y043851D01*
X042247Y043851D02*
X042347Y043851D01*
X042347Y043949D02*
X042247Y043949D01*
X042247Y044048D02*
X042347Y044048D01*
X042347Y043752D02*
X042247Y043752D01*
X042247Y043654D02*
X042347Y043654D01*
X043084Y043335D02*
X042401Y042652D01*
X042401Y037530D01*
X026201Y024930D02*
X026101Y024930D01*
X026101Y024832D02*
X026201Y024832D01*
X026201Y024733D02*
X026101Y024733D01*
X026101Y024635D02*
X026201Y024635D01*
X026201Y024536D02*
X026101Y024536D01*
X026101Y024438D02*
X026201Y024438D01*
X023894Y024930D02*
X023409Y024930D01*
X023507Y024832D02*
X023795Y024832D01*
X023749Y024733D02*
X023553Y024733D01*
X023581Y024635D02*
X023721Y024635D01*
X023721Y024536D02*
X023581Y024536D01*
X023581Y024438D02*
X023721Y024438D01*
X023721Y024339D02*
X023581Y024339D01*
X023581Y024241D02*
X023721Y024241D01*
X023721Y024142D02*
X023581Y024142D01*
X023581Y024044D02*
X023721Y024044D01*
X023721Y023945D02*
X023581Y023945D01*
X023561Y023846D02*
X023741Y023846D01*
X023782Y023748D02*
X023520Y023748D01*
X023429Y023649D02*
X023874Y023649D01*
X022874Y023649D02*
X022457Y023649D01*
X022538Y023748D02*
X022782Y023748D01*
X022721Y024044D02*
X022601Y024044D01*
X022601Y024142D02*
X022721Y024142D01*
X022721Y024241D02*
X022201Y024241D01*
X022201Y024339D02*
X022101Y024339D01*
X022101Y024438D02*
X022201Y024438D01*
X022201Y024536D02*
X022101Y024536D01*
X022101Y024635D02*
X022201Y024635D01*
X022201Y024733D02*
X022101Y024733D01*
X022101Y024832D02*
X022201Y024832D01*
X022201Y024930D02*
X022101Y024930D01*
X021868Y024930D02*
X021434Y024930D01*
X021524Y024832D02*
X021778Y024832D01*
X021728Y024733D02*
X021575Y024733D01*
X021598Y024635D02*
X021704Y024635D01*
X021701Y024536D02*
X021601Y024536D01*
X021601Y024438D02*
X021701Y024438D01*
X021701Y024339D02*
X021601Y024339D01*
X021601Y024230D02*
X021601Y023945D01*
X021581Y023846D02*
X021721Y023846D01*
X021764Y023748D02*
X021538Y023748D01*
X021457Y023649D02*
X021845Y023649D01*
X022016Y023551D02*
X021286Y023551D01*
X021201Y023551D02*
X021101Y023551D01*
X021101Y023532D02*
X021101Y024230D01*
X021101Y024142D02*
X021201Y024142D01*
X021201Y024044D02*
X021101Y024044D01*
X021101Y023945D02*
X021201Y023945D01*
X021201Y023846D02*
X021101Y023846D01*
X021101Y023748D02*
X021201Y023748D01*
X021201Y023649D02*
X021101Y023649D01*
X021101Y023532D02*
X021046Y023541D01*
X021101Y024438D02*
X021201Y024438D01*
X021201Y024536D02*
X021101Y024536D01*
X021101Y024635D02*
X021201Y024635D01*
X021201Y024733D02*
X021101Y024733D01*
X021101Y024832D02*
X021201Y024832D01*
X021201Y024930D02*
X021101Y024930D01*
X022434Y024930D02*
X022894Y024930D01*
X022795Y024832D02*
X022524Y024832D01*
X022575Y024733D02*
X022749Y024733D01*
X022721Y024635D02*
X022598Y024635D01*
X022601Y024536D02*
X022721Y024536D01*
X022721Y024438D02*
X022601Y024438D01*
X022601Y024339D02*
X022721Y024339D01*
X018894Y024930D02*
X018409Y024930D01*
X018507Y024832D02*
X018795Y024832D01*
X018749Y024733D02*
X018553Y024733D01*
X018581Y024635D02*
X018721Y024635D01*
X018721Y024536D02*
X018581Y024536D01*
X018581Y024438D02*
X018721Y024438D01*
X018721Y024339D02*
X018581Y024339D01*
X018581Y024241D02*
X018721Y024241D01*
X018721Y024142D02*
X018581Y024142D01*
X018581Y024044D02*
X018721Y024044D01*
X018721Y023945D02*
X018581Y023945D01*
X018561Y023846D02*
X018741Y023846D01*
X018782Y023748D02*
X018520Y023748D01*
X018429Y023649D02*
X018874Y023649D01*
X017874Y023649D02*
X017457Y023649D01*
X017538Y023748D02*
X017782Y023748D01*
X017721Y024044D02*
X017601Y024044D01*
X017601Y024142D02*
X017721Y024142D01*
X017721Y024241D02*
X017201Y024241D01*
X017201Y024230D02*
X017201Y024330D01*
X017101Y024330D01*
X017101Y024230D01*
X017201Y024230D01*
X017201Y024142D02*
X017101Y024142D01*
X017101Y024044D02*
X017201Y024044D01*
X017201Y023945D02*
X017101Y023945D01*
X017101Y023846D02*
X017201Y023846D01*
X017201Y023748D02*
X017101Y023748D01*
X017101Y023649D02*
X017201Y023649D01*
X016845Y023649D02*
X016457Y023649D01*
X016538Y023748D02*
X016764Y023748D01*
X016721Y023846D02*
X016581Y023846D01*
X016601Y023945D02*
X016601Y024230D01*
X016601Y024330D02*
X016601Y024615D01*
X016590Y024685D01*
X016568Y024753D01*
X016536Y024816D01*
X016494Y024873D01*
X016444Y024923D01*
X016387Y024965D01*
X016324Y024997D01*
X016257Y025019D01*
X016201Y025028D01*
X016201Y024330D01*
X016101Y024330D01*
X016101Y024230D01*
X016201Y024230D01*
X016201Y024330D01*
X016601Y024330D01*
X016601Y024339D02*
X016701Y024339D01*
X016701Y024330D02*
X017101Y024330D01*
X017101Y025028D01*
X017046Y025019D01*
X016978Y024997D01*
X016915Y024965D01*
X016858Y024923D01*
X016808Y024873D01*
X016766Y024816D01*
X016734Y024753D01*
X016712Y024685D01*
X016701Y024615D01*
X016701Y024330D01*
X016701Y024438D02*
X016601Y024438D01*
X016601Y024536D02*
X016701Y024536D01*
X016704Y024635D02*
X016598Y024635D01*
X016575Y024733D02*
X016728Y024733D01*
X016778Y024832D02*
X016524Y024832D01*
X016434Y024930D02*
X016868Y024930D01*
X017101Y024930D02*
X017201Y024930D01*
X017201Y025028D02*
X017201Y024330D01*
X017601Y024330D01*
X017601Y024615D01*
X017590Y024685D01*
X017568Y024753D01*
X017536Y024816D01*
X017494Y024873D01*
X017444Y024923D01*
X017387Y024965D01*
X017324Y024997D01*
X017257Y025019D01*
X017201Y025028D01*
X017201Y024832D02*
X017101Y024832D01*
X017101Y024733D02*
X017201Y024733D01*
X017201Y024635D02*
X017101Y024635D01*
X017101Y024536D02*
X017201Y024536D01*
X017201Y024438D02*
X017101Y024438D01*
X017101Y024339D02*
X017201Y024339D01*
X017101Y024241D02*
X016201Y024241D01*
X016201Y024339D02*
X016101Y024339D01*
X016101Y024330D02*
X016101Y025028D01*
X016046Y025019D01*
X015978Y024997D01*
X015915Y024965D01*
X015858Y024923D01*
X015808Y024873D01*
X015766Y024816D01*
X015734Y024753D01*
X015712Y024685D01*
X015701Y024615D01*
X015701Y024330D01*
X016101Y024330D01*
X016101Y024241D02*
X015201Y024241D01*
X015201Y024230D02*
X015201Y024330D01*
X015101Y024330D01*
X015101Y024230D01*
X015201Y024230D01*
X015201Y024142D02*
X015101Y024142D01*
X015101Y024044D02*
X015201Y024044D01*
X015201Y023945D02*
X015101Y023945D01*
X015101Y023846D02*
X015201Y023846D01*
X015201Y023748D02*
X015101Y023748D01*
X015101Y023649D02*
X015201Y023649D01*
X015457Y023649D02*
X015845Y023649D01*
X015764Y023748D02*
X015538Y023748D01*
X015581Y023846D02*
X015721Y023846D01*
X015601Y023945D02*
X015601Y024230D01*
X015601Y024330D02*
X015601Y024615D01*
X015590Y024685D01*
X015568Y024753D01*
X015536Y024816D01*
X015494Y024873D01*
X015444Y024923D01*
X015387Y024965D01*
X015324Y024997D01*
X015257Y025019D01*
X015201Y025028D01*
X015201Y024330D01*
X015601Y024330D01*
X015601Y024339D02*
X015701Y024339D01*
X015701Y024438D02*
X015601Y024438D01*
X015601Y024536D02*
X015701Y024536D01*
X015704Y024635D02*
X015598Y024635D01*
X015575Y024733D02*
X015728Y024733D01*
X015778Y024832D02*
X015524Y024832D01*
X015434Y024930D02*
X015868Y024930D01*
X016101Y024930D02*
X016201Y024930D01*
X016201Y024832D02*
X016101Y024832D01*
X016101Y024733D02*
X016201Y024733D01*
X016201Y024635D02*
X016101Y024635D01*
X016101Y024536D02*
X016201Y024536D01*
X016201Y024438D02*
X016101Y024438D01*
X016101Y024142D02*
X016201Y024142D01*
X016201Y024044D02*
X016101Y024044D01*
X016101Y023945D02*
X016201Y023945D01*
X016201Y023846D02*
X016101Y023846D01*
X016101Y023748D02*
X016201Y023748D01*
X016201Y023649D02*
X016101Y023649D01*
X015201Y024339D02*
X015101Y024339D01*
X015101Y024330D02*
X015101Y025028D01*
X015046Y025019D01*
X014978Y024997D01*
X014915Y024965D01*
X014858Y024923D01*
X014808Y024873D01*
X014766Y024816D01*
X014734Y024753D01*
X014712Y024685D01*
X014701Y024615D01*
X014701Y024330D01*
X015101Y024330D01*
X015101Y024241D02*
X014201Y024241D01*
X014201Y024339D02*
X014101Y024339D01*
X014101Y024438D02*
X014201Y024438D01*
X014201Y024536D02*
X014101Y024536D01*
X014101Y024635D02*
X014201Y024635D01*
X014201Y024733D02*
X014101Y024733D01*
X014101Y024832D02*
X014201Y024832D01*
X014201Y024930D02*
X014101Y024930D01*
X013868Y024930D02*
X013434Y024930D01*
X013524Y024832D02*
X013778Y024832D01*
X013728Y024733D02*
X013575Y024733D01*
X013598Y024635D02*
X013704Y024635D01*
X013701Y024536D02*
X013601Y024536D01*
X013601Y024438D02*
X013701Y024438D01*
X013701Y024339D02*
X013601Y024339D01*
X013601Y024230D02*
X013601Y023945D01*
X013581Y023846D02*
X013721Y023846D01*
X013764Y023748D02*
X013538Y023748D01*
X013457Y023649D02*
X013845Y023649D01*
X014016Y023551D02*
X013286Y023551D01*
X013201Y023551D02*
X013101Y023551D01*
X013101Y023532D02*
X013101Y024230D01*
X013101Y024142D02*
X013201Y024142D01*
X013201Y024044D02*
X013101Y024044D01*
X013101Y023945D02*
X013201Y023945D01*
X013201Y023846D02*
X013101Y023846D01*
X013101Y023748D02*
X013201Y023748D01*
X013201Y023649D02*
X013101Y023649D01*
X013101Y023532D02*
X013046Y023541D01*
X013101Y024438D02*
X013201Y024438D01*
X013201Y024536D02*
X013101Y024536D01*
X013101Y024635D02*
X013201Y024635D01*
X013201Y024733D02*
X013101Y024733D01*
X013101Y024832D02*
X013201Y024832D01*
X013201Y024930D02*
X013101Y024930D01*
X014434Y024930D02*
X014868Y024930D01*
X014778Y024832D02*
X014524Y024832D01*
X014575Y024733D02*
X014728Y024733D01*
X014704Y024635D02*
X014598Y024635D01*
X014601Y024536D02*
X014701Y024536D01*
X014701Y024438D02*
X014601Y024438D01*
X014601Y024339D02*
X014701Y024339D01*
X014601Y024230D02*
X014601Y023945D01*
X014581Y023846D02*
X014721Y023846D01*
X014764Y023748D02*
X014538Y023748D01*
X014457Y023649D02*
X014845Y023649D01*
X015101Y024438D02*
X015201Y024438D01*
X015201Y024536D02*
X015101Y024536D01*
X015101Y024635D02*
X015201Y024635D01*
X015201Y024733D02*
X015101Y024733D01*
X015101Y024832D02*
X015201Y024832D01*
X015201Y024930D02*
X015101Y024930D01*
X017434Y024930D02*
X017894Y024930D01*
X017795Y024832D02*
X017524Y024832D01*
X017575Y024733D02*
X017749Y024733D01*
X017721Y024635D02*
X017598Y024635D01*
X017601Y024536D02*
X017721Y024536D01*
X017721Y024438D02*
X017601Y024438D01*
X017601Y024339D02*
X017721Y024339D01*
X010894Y024930D02*
X010409Y024930D01*
X010507Y024832D02*
X010795Y024832D01*
X010749Y024733D02*
X010553Y024733D01*
X010581Y024635D02*
X010721Y024635D01*
X010721Y024536D02*
X010581Y024536D01*
X010581Y024438D02*
X010721Y024438D01*
X010721Y024339D02*
X010581Y024339D01*
X010581Y024241D02*
X010721Y024241D01*
X010721Y024142D02*
X010581Y024142D01*
X010581Y024044D02*
X010721Y024044D01*
X010721Y023945D02*
X010581Y023945D01*
X010561Y023846D02*
X010741Y023846D01*
X010782Y023748D02*
X010520Y023748D01*
X010429Y023649D02*
X010874Y023649D01*
X009874Y023649D02*
X009429Y023649D01*
X009520Y023748D02*
X009782Y023748D01*
X009741Y023846D02*
X009561Y023846D01*
X009581Y023945D02*
X009721Y023945D01*
X009721Y024044D02*
X009581Y024044D01*
X009581Y024142D02*
X009721Y024142D01*
X009721Y024241D02*
X009581Y024241D01*
X009581Y024339D02*
X009721Y024339D01*
X009721Y024438D02*
X009581Y024438D01*
X009581Y024536D02*
X009721Y024536D01*
X009721Y024635D02*
X009581Y024635D01*
X009553Y024733D02*
X009749Y024733D01*
X009795Y024832D02*
X009507Y024832D01*
X009409Y024930D02*
X009894Y024930D01*
X008894Y024930D02*
X008434Y024930D01*
X008524Y024832D02*
X008795Y024832D01*
X008749Y024733D02*
X008575Y024733D01*
X008598Y024635D02*
X008721Y024635D01*
X008721Y024536D02*
X008601Y024536D01*
X008601Y024438D02*
X008721Y024438D01*
X008721Y024339D02*
X008601Y024339D01*
X008721Y024241D02*
X008201Y024241D01*
X008201Y024339D02*
X008101Y024339D01*
X008101Y024438D02*
X008201Y024438D01*
X008201Y024536D02*
X008101Y024536D01*
X008101Y024635D02*
X008201Y024635D01*
X008201Y024733D02*
X008101Y024733D01*
X008101Y024832D02*
X008201Y024832D01*
X008201Y024930D02*
X008101Y024930D01*
X007868Y024930D02*
X007434Y024930D01*
X007524Y024832D02*
X007778Y024832D01*
X007728Y024733D02*
X007575Y024733D01*
X007598Y024635D02*
X007704Y024635D01*
X007701Y024536D02*
X007601Y024536D01*
X007601Y024438D02*
X007701Y024438D01*
X007701Y024339D02*
X007601Y024339D01*
X007601Y024230D02*
X007601Y023945D01*
X007581Y023846D02*
X007721Y023846D01*
X007764Y023748D02*
X007538Y023748D01*
X007457Y023649D02*
X007845Y023649D01*
X008016Y023551D02*
X007286Y023551D01*
X007201Y023551D02*
X007101Y023551D01*
X007101Y023532D02*
X007101Y024230D01*
X007101Y024142D02*
X007201Y024142D01*
X007201Y024044D02*
X007101Y024044D01*
X007101Y023945D02*
X007201Y023945D01*
X007201Y023846D02*
X007101Y023846D01*
X007101Y023748D02*
X007201Y023748D01*
X007201Y023649D02*
X007101Y023649D01*
X007101Y023532D02*
X007046Y023541D01*
X008457Y023649D02*
X008874Y023649D01*
X008782Y023748D02*
X008538Y023748D01*
X008601Y024044D02*
X008721Y024044D01*
X008721Y024142D02*
X008601Y024142D01*
X000601Y006010D02*
X067401Y006010D01*
X067401Y005912D02*
X067156Y005912D01*
X067088Y005980D02*
X066951Y005980D01*
X066951Y005580D01*
X066851Y005580D01*
X066851Y005480D01*
X066451Y005480D01*
X066451Y005344D01*
X066715Y005080D01*
X066851Y005080D01*
X066851Y005480D01*
X066951Y005480D01*
X066951Y005080D01*
X067088Y005080D01*
X067351Y005344D01*
X067351Y005480D01*
X066951Y005480D01*
X066951Y005580D01*
X067351Y005580D01*
X067351Y005716D01*
X067088Y005980D01*
X067088Y006109D02*
X067401Y006109D01*
X067401Y006207D02*
X067186Y006207D01*
X066951Y005912D02*
X066851Y005912D01*
X066851Y005980D02*
X066715Y005980D01*
X066451Y005716D01*
X066451Y005580D01*
X066851Y005580D01*
X066851Y005980D01*
X066851Y005813D02*
X066951Y005813D01*
X066951Y005714D02*
X066851Y005714D01*
X066851Y005616D02*
X066951Y005616D01*
X066951Y005517D02*
X067401Y005517D01*
X067401Y005419D02*
X067351Y005419D01*
X067328Y005320D02*
X067401Y005320D01*
X067401Y005222D02*
X067229Y005222D01*
X067131Y005123D02*
X067401Y005123D01*
X066951Y005123D02*
X066851Y005123D01*
X066851Y005222D02*
X066951Y005222D01*
X066951Y005320D02*
X066851Y005320D01*
X066851Y005419D02*
X066951Y005419D01*
X066851Y005517D02*
X065951Y005517D01*
X065951Y005616D02*
X065851Y005616D01*
X065851Y005714D02*
X065951Y005714D01*
X065951Y005813D02*
X065851Y005813D01*
X065851Y005912D02*
X065951Y005912D01*
X066156Y005912D02*
X066646Y005912D01*
X066548Y005813D02*
X066255Y005813D01*
X066351Y005714D02*
X066451Y005714D01*
X066451Y005616D02*
X066351Y005616D01*
X066351Y005419D02*
X066451Y005419D01*
X066474Y005320D02*
X066328Y005320D01*
X066229Y005222D02*
X066573Y005222D01*
X066672Y005123D02*
X066131Y005123D01*
X067351Y005616D02*
X067401Y005616D01*
X067401Y005714D02*
X067351Y005714D01*
X067401Y005813D02*
X067255Y005813D01*
X066714Y006109D02*
X066088Y006109D01*
X066186Y006207D02*
X066616Y006207D01*
X066517Y006306D02*
X066285Y006306D01*
X066331Y006404D02*
X066471Y006404D01*
X066471Y006503D02*
X066331Y006503D01*
X066331Y006601D02*
X066471Y006601D01*
X066471Y006700D02*
X066331Y006700D01*
X066241Y006798D02*
X066562Y006798D01*
X066660Y006897D02*
X066142Y006897D01*
X066172Y007193D02*
X066630Y007193D01*
X066723Y007100D02*
X067079Y007100D01*
X067331Y007352D01*
X067331Y007708D01*
X067079Y007960D01*
X066723Y007960D01*
X066471Y007708D01*
X066471Y007352D01*
X066723Y007100D01*
X066532Y007291D02*
X066270Y007291D01*
X066331Y007390D02*
X066471Y007390D01*
X066471Y007488D02*
X066331Y007488D01*
X066331Y007587D02*
X066471Y007587D01*
X066471Y007685D02*
X066331Y007685D01*
X066255Y007784D02*
X066547Y007784D01*
X066646Y007882D02*
X066157Y007882D01*
X066157Y008178D02*
X066645Y008178D01*
X066546Y008277D02*
X066256Y008277D01*
X066331Y008375D02*
X066471Y008375D01*
X066471Y008474D02*
X066331Y008474D01*
X066331Y008572D02*
X066471Y008572D01*
X066471Y008671D02*
X066331Y008671D01*
X066270Y008769D02*
X066532Y008769D01*
X066631Y008868D02*
X066171Y008868D01*
X066143Y009163D02*
X066660Y009163D01*
X066561Y009262D02*
X066241Y009262D01*
X066331Y009361D02*
X066471Y009361D01*
X066471Y009459D02*
X066331Y009459D01*
X066331Y009558D02*
X066471Y009558D01*
X066471Y009656D02*
X066331Y009656D01*
X066284Y009755D02*
X066518Y009755D01*
X066616Y009853D02*
X066186Y009853D01*
X066087Y009952D02*
X066715Y009952D01*
X066674Y010149D02*
X066128Y010149D01*
X066227Y010247D02*
X066576Y010247D01*
X066477Y010346D02*
X066325Y010346D01*
X066331Y010445D02*
X066471Y010445D01*
X066471Y010543D02*
X066331Y010543D01*
X066331Y010642D02*
X066471Y010642D01*
X066503Y010740D02*
X066299Y010740D01*
X066201Y010839D02*
X066602Y010839D01*
X066700Y010937D02*
X066102Y010937D01*
X065689Y011134D02*
X059666Y011134D01*
X059601Y011233D02*
X065590Y011233D01*
X065492Y011331D02*
X059453Y011331D01*
X059355Y011430D02*
X065471Y011430D01*
X065471Y011529D02*
X059256Y011529D01*
X059158Y011627D02*
X065471Y011627D01*
X065489Y011726D02*
X059059Y011726D01*
X058961Y011824D02*
X065587Y011824D01*
X065605Y012218D02*
X058566Y012218D01*
X058468Y012317D02*
X065506Y012317D01*
X065471Y012415D02*
X058369Y012415D01*
X058271Y012514D02*
X065471Y012514D01*
X065471Y012612D02*
X058172Y012612D01*
X058074Y012711D02*
X065474Y012711D01*
X065573Y012810D02*
X060834Y012810D01*
X060651Y013530D02*
X065901Y013530D01*
X066331Y013499D02*
X066471Y013499D01*
X066471Y013401D02*
X066331Y013401D01*
X066281Y013302D02*
X066419Y013302D01*
X066401Y013030D02*
X066901Y013530D01*
X067331Y013499D02*
X067401Y013499D01*
X067401Y013401D02*
X067331Y013401D01*
X067282Y013302D02*
X067401Y013302D01*
X067401Y013204D02*
X067183Y013204D01*
X067084Y013105D02*
X067401Y013105D01*
X067401Y013007D02*
X066632Y013007D01*
X066671Y012908D02*
X066534Y012908D01*
X067131Y012908D02*
X067401Y012908D01*
X067401Y012810D02*
X067230Y012810D01*
X067328Y012711D02*
X067401Y012711D01*
X067401Y012612D02*
X067331Y012612D01*
X067331Y012514D02*
X067401Y012514D01*
X067401Y012415D02*
X067331Y012415D01*
X067296Y012317D02*
X067401Y012317D01*
X067401Y012218D02*
X067198Y012218D01*
X067099Y012120D02*
X067401Y012120D01*
X067401Y013598D02*
X067331Y013598D01*
X067331Y013696D02*
X067401Y013696D01*
X067401Y013795D02*
X067244Y013795D01*
X067146Y013894D02*
X067401Y013894D01*
X067401Y013992D02*
X066618Y013992D01*
X066657Y013894D02*
X066519Y013894D01*
X066558Y013795D02*
X066244Y013795D01*
X066331Y013696D02*
X066471Y013696D01*
X066471Y013598D02*
X066331Y013598D01*
X066401Y014030D02*
X060651Y014030D01*
X066267Y014288D02*
X066404Y014288D01*
X066471Y014386D02*
X066331Y014386D01*
X066401Y014030D02*
X066901Y014530D01*
X067331Y014485D02*
X067401Y014485D01*
X067401Y014583D02*
X067331Y014583D01*
X067331Y014682D02*
X067401Y014682D01*
X067401Y014780D02*
X067259Y014780D01*
X067160Y014879D02*
X067401Y014879D01*
X067401Y015175D02*
X067154Y015175D01*
X067252Y015273D02*
X067401Y015273D01*
X067401Y015372D02*
X067331Y015372D01*
X067331Y015470D02*
X067401Y015470D01*
X067401Y014386D02*
X067331Y014386D01*
X067267Y014288D02*
X067401Y014288D01*
X067401Y014189D02*
X067168Y014189D01*
X067401Y014091D02*
X066716Y014091D01*
X067087Y009952D02*
X067401Y009952D01*
X067401Y009853D02*
X067186Y009853D01*
X067284Y009755D02*
X067401Y009755D01*
X067401Y009656D02*
X067331Y009656D01*
X067331Y009558D02*
X067401Y009558D01*
X067401Y009459D02*
X067331Y009459D01*
X067331Y009361D02*
X067401Y009361D01*
X067401Y009262D02*
X067241Y009262D01*
X067270Y008769D02*
X067401Y008769D01*
X067401Y008671D02*
X067331Y008671D01*
X067331Y008572D02*
X067401Y008572D01*
X067401Y008474D02*
X067331Y008474D01*
X067331Y008375D02*
X067401Y008375D01*
X067401Y008277D02*
X067256Y008277D01*
X067157Y008178D02*
X067401Y008178D01*
X067401Y007882D02*
X067157Y007882D01*
X067255Y007784D02*
X067401Y007784D01*
X067401Y007685D02*
X067331Y007685D01*
X067331Y007587D02*
X067401Y007587D01*
X067401Y007488D02*
X067331Y007488D01*
X067331Y007390D02*
X067401Y007390D01*
X067401Y007291D02*
X067270Y007291D01*
X067172Y007193D02*
X067401Y007193D01*
X067401Y006897D02*
X067142Y006897D01*
X067241Y006798D02*
X067401Y006798D01*
X067057Y004039D02*
X062134Y004039D01*
X062211Y003941D02*
X066958Y003941D01*
X066860Y003842D02*
X062249Y003842D01*
X062249Y003744D02*
X066761Y003744D01*
X066663Y003645D02*
X062249Y003645D01*
X062249Y003546D02*
X066564Y003546D01*
X066466Y003448D02*
X062249Y003448D01*
X062249Y003349D02*
X066367Y003349D01*
X066269Y003251D02*
X062239Y003251D01*
X062199Y003152D02*
X066170Y003152D01*
X066071Y003054D02*
X062103Y003054D01*
X061699Y003054D02*
X061651Y003054D01*
X061651Y002955D02*
X065973Y002955D01*
X065874Y002857D02*
X061651Y002857D01*
X061651Y002758D02*
X065776Y002758D01*
X065677Y002660D02*
X061651Y002660D01*
X061651Y002561D02*
X065579Y002561D01*
X065480Y002463D02*
X061651Y002463D01*
X061651Y002364D02*
X065382Y002364D01*
X065283Y002265D02*
X061651Y002265D01*
X061651Y002167D02*
X065185Y002167D01*
X065086Y002068D02*
X061651Y002068D01*
X061151Y003054D02*
X061103Y003054D01*
X060699Y003054D02*
X060603Y003054D01*
X060199Y003054D02*
X060103Y003054D01*
X059699Y003054D02*
X059630Y003054D01*
X059410Y003054D02*
X059392Y003054D01*
X059392Y003152D02*
X059410Y003152D01*
X059410Y003251D02*
X059392Y003251D01*
X059392Y003349D02*
X059410Y003349D01*
X059410Y003448D02*
X059392Y003448D01*
X059392Y003546D02*
X059410Y003546D01*
X059410Y003645D02*
X059392Y003645D01*
X059392Y003744D02*
X059410Y003744D01*
X059410Y003842D02*
X059392Y003842D01*
X059392Y003941D02*
X059410Y003941D01*
X059410Y004039D02*
X059392Y004039D01*
X059140Y004039D02*
X049634Y004039D01*
X049711Y003941D02*
X059069Y003941D01*
X059038Y003842D02*
X049749Y003842D01*
X049749Y003744D02*
X059033Y003744D01*
X059033Y003645D02*
X049749Y003645D01*
X049749Y003546D02*
X059033Y003546D01*
X059033Y003448D02*
X049749Y003448D01*
X049749Y003349D02*
X059033Y003349D01*
X059044Y003251D02*
X049739Y003251D01*
X049699Y003152D02*
X059086Y003152D01*
X059173Y003054D02*
X049603Y003054D01*
X049168Y004039D02*
X049134Y004039D01*
X048668Y004039D02*
X048634Y004039D01*
X048168Y004039D02*
X048134Y004039D01*
X047668Y004039D02*
X047634Y004039D01*
X047168Y004039D02*
X047163Y004039D01*
X046586Y003152D02*
X029330Y003152D01*
X029428Y003054D02*
X046673Y003054D01*
X043677Y006601D02*
X043626Y006601D01*
X043401Y006780D02*
X043401Y010030D01*
X043581Y009163D02*
X043721Y009163D01*
X043721Y009065D02*
X043581Y009065D01*
X043581Y008966D02*
X043721Y008966D01*
X043721Y008868D02*
X043581Y008868D01*
X043581Y008769D02*
X043721Y008769D01*
X043721Y008671D02*
X043581Y008671D01*
X043581Y008572D02*
X043721Y008572D01*
X043721Y008474D02*
X043581Y008474D01*
X043581Y008375D02*
X043721Y008375D01*
X043721Y008277D02*
X043581Y008277D01*
X043581Y008178D02*
X043721Y008178D01*
X043721Y008079D02*
X043581Y008079D01*
X043581Y007981D02*
X043721Y007981D01*
X043721Y007882D02*
X043581Y007882D01*
X043581Y007784D02*
X043721Y007784D01*
X043721Y007685D02*
X043581Y007685D01*
X043581Y007587D02*
X043721Y007587D01*
X043721Y007488D02*
X043581Y007488D01*
X043581Y007390D02*
X043721Y007390D01*
X043721Y007291D02*
X043581Y007291D01*
X043581Y007193D02*
X043721Y007193D01*
X043721Y007094D02*
X043581Y007094D01*
X043589Y006996D02*
X043714Y006996D01*
X042900Y015273D02*
X042902Y015273D01*
X042402Y015273D02*
X042400Y015273D01*
X041902Y015273D02*
X041900Y015273D01*
X041402Y015273D02*
X041400Y015273D01*
X028865Y005123D02*
X026937Y005123D01*
X026889Y005171D02*
X027127Y004933D01*
X027127Y004596D01*
X026889Y004357D01*
X026551Y004357D01*
X026313Y004596D01*
X026313Y004933D01*
X026551Y005171D01*
X026889Y005171D01*
X027035Y005025D02*
X028767Y005025D01*
X028675Y004926D02*
X027127Y004926D01*
X027127Y004828D02*
X028675Y004828D01*
X028675Y004729D02*
X027127Y004729D01*
X027127Y004630D02*
X028675Y004630D01*
X028739Y004532D02*
X027064Y004532D01*
X026965Y004433D02*
X028837Y004433D01*
X026475Y004433D02*
X021827Y004433D01*
X021751Y004357D02*
X021989Y004596D01*
X021989Y004933D01*
X021751Y005171D01*
X021414Y005171D01*
X021175Y004933D01*
X021175Y004596D01*
X021414Y004357D01*
X021751Y004357D01*
X021926Y004532D02*
X026377Y004532D01*
X026313Y004630D02*
X021989Y004630D01*
X021989Y004729D02*
X026313Y004729D01*
X026313Y004828D02*
X021989Y004828D01*
X021989Y004926D02*
X026313Y004926D01*
X026405Y005025D02*
X021898Y005025D01*
X021799Y005123D02*
X026503Y005123D01*
X021365Y005123D02*
X019437Y005123D01*
X019389Y005171D02*
X019627Y004933D01*
X019627Y004596D01*
X019389Y004357D01*
X019051Y004357D01*
X018813Y004596D01*
X018813Y004933D01*
X019051Y005171D01*
X019389Y005171D01*
X019535Y005025D02*
X021267Y005025D01*
X021175Y004926D02*
X019627Y004926D01*
X019627Y004828D02*
X021175Y004828D01*
X021175Y004729D02*
X019627Y004729D01*
X019627Y004630D02*
X021175Y004630D01*
X021239Y004532D02*
X019564Y004532D01*
X019465Y004433D02*
X021337Y004433D01*
X018975Y004433D02*
X014327Y004433D01*
X014251Y004357D02*
X014489Y004596D01*
X014489Y004933D01*
X014251Y005171D01*
X013914Y005171D01*
X013675Y004933D01*
X013675Y004596D01*
X013914Y004357D01*
X014251Y004357D01*
X014426Y004532D02*
X018877Y004532D01*
X018813Y004630D02*
X014489Y004630D01*
X014489Y004729D02*
X018813Y004729D01*
X018813Y004828D02*
X014489Y004828D01*
X014489Y004926D02*
X018813Y004926D01*
X018905Y005025D02*
X014398Y005025D01*
X014299Y005123D02*
X019003Y005123D01*
X013865Y005123D02*
X011937Y005123D01*
X011889Y005171D02*
X012127Y004933D01*
X012127Y004596D01*
X011889Y004357D01*
X011551Y004357D01*
X011313Y004596D01*
X011313Y004933D01*
X011551Y005171D01*
X011889Y005171D01*
X012035Y005025D02*
X013767Y005025D01*
X013675Y004926D02*
X012127Y004926D01*
X012127Y004828D02*
X013675Y004828D01*
X013675Y004729D02*
X012127Y004729D01*
X012127Y004630D02*
X013675Y004630D01*
X013739Y004532D02*
X012064Y004532D01*
X011965Y004433D02*
X013837Y004433D01*
X011475Y004433D02*
X006827Y004433D01*
X006751Y004357D02*
X006989Y004596D01*
X006989Y004933D01*
X006751Y005171D01*
X006414Y005171D01*
X006175Y004933D01*
X006175Y004596D01*
X006414Y004357D01*
X006751Y004357D01*
X006926Y004532D02*
X011377Y004532D01*
X011313Y004630D02*
X006989Y004630D01*
X006989Y004729D02*
X011313Y004729D01*
X011313Y004828D02*
X006989Y004828D01*
X006989Y004926D02*
X011313Y004926D01*
X011405Y005025D02*
X006898Y005025D01*
X006799Y005123D02*
X011503Y005123D01*
X006365Y005123D02*
X004437Y005123D01*
X004535Y005025D02*
X006267Y005025D01*
X006175Y004926D02*
X004627Y004926D01*
X004627Y004828D02*
X006175Y004828D01*
X006175Y004729D02*
X004627Y004729D01*
X004627Y004630D02*
X006175Y004630D01*
X006239Y004532D02*
X004564Y004532D01*
X004465Y004433D02*
X006337Y004433D01*
X004003Y005123D02*
X000601Y005123D01*
X000601Y005025D02*
X003905Y005025D01*
X003813Y004926D02*
X000601Y004926D01*
X000601Y004828D02*
X003813Y004828D01*
X003813Y004729D02*
X000601Y004729D01*
X000601Y004630D02*
X003813Y004630D01*
X003877Y004532D02*
X000601Y004532D01*
X059663Y004039D02*
X059668Y004039D01*
X060134Y004039D02*
X060168Y004039D01*
X060634Y004039D02*
X060668Y004039D01*
X061134Y004039D02*
X061168Y004039D01*
X061634Y004039D02*
X061668Y004039D01*
D19*
X061401Y003780D02*
X061401Y001780D01*
X065151Y001780D01*
X067651Y004280D01*
X067651Y006530D01*
X067651Y039280D01*
X063151Y043780D01*
X059901Y043780D01*
X054651Y015780D02*
X049151Y015780D01*
X054651Y015780D02*
X055151Y015280D01*
X055151Y015030D01*
X055151Y013780D01*
X055651Y013280D01*
X057151Y013280D01*
X059401Y011030D01*
X066901Y006530D02*
X067651Y006530D01*
X061401Y001780D02*
X049901Y001780D01*
X048901Y002780D01*
X048901Y003780D01*
M02*
