G75*
G70*
%OFA0B0*%
%FSLAX24Y24*%
%IPPOS*%
%LPD*%
%AMOC8*
5,1,8,0,0,1.08239X$1,22.5*
%
%ADD10C,0.0000*%
%ADD11R,0.9000X0.2000*%
%ADD12R,0.0630X0.0787*%
%ADD13C,0.0098*%
%ADD14R,0.0600X0.0600*%
%ADD15OC8,0.0600*%
%ADD16R,0.0315X0.0354*%
%ADD17R,0.2100X0.0760*%
%ADD18R,0.0354X0.0315*%
%ADD19C,0.0394*%
%ADD20R,0.0236X0.0866*%
%ADD21R,0.0748X0.0551*%
%ADD22OC8,0.0543*%
%ADD23OC8,0.0945*%
%ADD24C,0.0561*%
%ADD25C,0.1306*%
%ADD26R,0.0360X0.0850*%
%ADD27R,0.4252X0.4098*%
%ADD28R,0.1000X0.1000*%
%ADD29OC8,0.1000*%
%ADD30R,0.2165X0.1772*%
%ADD31R,0.0551X0.0709*%
%ADD32R,0.0787X0.0866*%
%ADD33R,0.0480X0.0880*%
%ADD34R,0.1417X0.0866*%
%ADD35OC8,0.0591*%
%ADD36R,0.0472X0.1575*%
%ADD37R,0.0276X0.1575*%
%ADD38R,0.0472X0.1500*%
%ADD39R,0.0787X0.1102*%
%ADD40C,0.0591*%
%ADD41C,0.0787*%
%ADD42R,0.0591X0.0591*%
%ADD43C,0.0886*%
%ADD44R,0.0880X0.0480*%
%ADD45R,0.0866X0.1417*%
%ADD46R,0.0709X0.0551*%
%ADD47R,0.1181X0.0630*%
%ADD48R,0.0394X0.0551*%
%ADD49R,0.1024X0.2874*%
%ADD50C,0.0118*%
%ADD51R,0.0551X0.0748*%
%ADD52R,0.0157X0.0630*%
%ADD53R,0.0540X0.0540*%
%ADD54OC8,0.0540*%
%ADD55R,0.0118X0.0630*%
%ADD56R,0.0630X0.0118*%
%ADD57R,0.0472X0.0472*%
%ADD58R,0.0591X0.0118*%
%ADD59R,0.0354X0.0236*%
%ADD60OC8,0.0886*%
%ADD61R,0.0866X0.0236*%
%ADD62R,0.0551X0.0394*%
%ADD63OC8,0.0700*%
%ADD64R,0.0700X0.0700*%
%ADD65R,0.0591X0.0197*%
%ADD66R,0.0197X0.0591*%
%ADD67R,0.0472X0.0217*%
%ADD68R,0.0551X0.0551*%
%ADD69R,0.0700X0.2400*%
%ADD70C,0.2000*%
%ADD71C,0.0060*%
%ADD72C,0.0270*%
%ADD73C,0.0080*%
%ADD74C,0.0100*%
%ADD75C,0.0160*%
%ADD76C,0.0356*%
%ADD77C,0.0413*%
%ADD78C,0.0240*%
D10*
X007425Y003368D02*
X007425Y046868D01*
X075925Y046868D01*
X075925Y003368D01*
X007425Y003368D01*
X061891Y012542D02*
X061893Y012571D01*
X061899Y012599D01*
X061908Y012627D01*
X061921Y012653D01*
X061938Y012676D01*
X061957Y012698D01*
X061979Y012717D01*
X062004Y012732D01*
X062030Y012745D01*
X062058Y012753D01*
X062086Y012758D01*
X062115Y012759D01*
X062144Y012756D01*
X062172Y012749D01*
X062199Y012739D01*
X062225Y012725D01*
X062248Y012708D01*
X062269Y012688D01*
X062287Y012665D01*
X062302Y012640D01*
X062313Y012613D01*
X062321Y012585D01*
X062325Y012556D01*
X062325Y012528D01*
X062321Y012499D01*
X062313Y012471D01*
X062302Y012444D01*
X062287Y012419D01*
X062269Y012396D01*
X062248Y012376D01*
X062225Y012359D01*
X062199Y012345D01*
X062172Y012335D01*
X062144Y012328D01*
X062115Y012325D01*
X062086Y012326D01*
X062058Y012331D01*
X062030Y012339D01*
X062004Y012352D01*
X061979Y012367D01*
X061957Y012386D01*
X061938Y012408D01*
X061921Y012431D01*
X061908Y012457D01*
X061899Y012485D01*
X061893Y012513D01*
X061891Y012542D01*
X070100Y012542D02*
X070102Y012577D01*
X070108Y012612D01*
X070118Y012646D01*
X070131Y012679D01*
X070148Y012710D01*
X070169Y012738D01*
X070192Y012765D01*
X070219Y012788D01*
X070247Y012809D01*
X070278Y012826D01*
X070311Y012839D01*
X070345Y012849D01*
X070380Y012855D01*
X070415Y012857D01*
X070450Y012855D01*
X070485Y012849D01*
X070519Y012839D01*
X070552Y012826D01*
X070583Y012809D01*
X070611Y012788D01*
X070638Y012765D01*
X070661Y012738D01*
X070682Y012710D01*
X070699Y012679D01*
X070712Y012646D01*
X070722Y012612D01*
X070728Y012577D01*
X070730Y012542D01*
X070728Y012507D01*
X070722Y012472D01*
X070712Y012438D01*
X070699Y012405D01*
X070682Y012374D01*
X070661Y012346D01*
X070638Y012319D01*
X070611Y012296D01*
X070583Y012275D01*
X070552Y012258D01*
X070519Y012245D01*
X070485Y012235D01*
X070450Y012229D01*
X070415Y012227D01*
X070380Y012229D01*
X070345Y012235D01*
X070311Y012245D01*
X070278Y012258D01*
X070247Y012275D01*
X070219Y012296D01*
X070192Y012319D01*
X070169Y012346D01*
X070148Y012374D01*
X070131Y012405D01*
X070118Y012438D01*
X070108Y012472D01*
X070102Y012507D01*
X070100Y012542D01*
D11*
X011925Y014868D03*
D12*
X050675Y006181D03*
X050675Y004055D03*
D13*
X047907Y015333D02*
X047907Y015825D01*
X047710Y015825D02*
X047710Y015333D01*
X047514Y015333D02*
X047514Y015825D01*
X047317Y015825D02*
X047317Y015333D01*
X047120Y015333D02*
X047120Y015825D01*
X046923Y015825D02*
X046923Y015333D01*
X046726Y015333D02*
X046726Y015825D01*
X046529Y015825D02*
X046529Y015333D01*
X046332Y015333D02*
X046332Y015825D01*
X046136Y015825D02*
X046136Y015333D01*
X045939Y015333D02*
X045939Y015825D01*
X045742Y015825D02*
X045742Y015333D01*
X045545Y015333D02*
X045545Y015825D01*
X045348Y015825D02*
X045348Y015333D01*
X045151Y015333D02*
X045151Y015825D01*
X044955Y015825D02*
X044955Y015333D01*
X044758Y015333D02*
X044758Y015825D01*
X044561Y015825D02*
X044561Y015333D01*
X044364Y015333D02*
X044364Y015825D01*
X044167Y015825D02*
X044167Y015333D01*
X043970Y015333D02*
X043970Y015825D01*
X043773Y015825D02*
X043773Y015333D01*
X043577Y015333D02*
X043577Y015825D01*
X043380Y015825D02*
X043380Y015333D01*
X043183Y015333D02*
X043183Y015825D01*
X042986Y015825D02*
X042986Y015333D01*
X042789Y015333D02*
X042789Y015825D01*
X042592Y015825D02*
X042592Y015333D01*
X042395Y015333D02*
X042395Y015825D01*
X042199Y015825D02*
X042199Y015333D01*
X042002Y015333D02*
X042002Y015825D01*
X041805Y015825D02*
X041805Y015333D01*
X041608Y015333D02*
X041608Y015825D01*
X041411Y015825D02*
X041411Y015333D01*
X041214Y015333D02*
X041214Y015825D01*
X041018Y015825D02*
X041018Y015333D01*
X040821Y015333D02*
X040821Y015825D01*
X040624Y015825D02*
X040624Y015333D01*
X040427Y015333D02*
X040427Y015825D01*
X040230Y015825D02*
X040230Y015333D01*
X040033Y015333D02*
X040033Y015825D01*
X039836Y015825D02*
X039836Y015333D01*
X039640Y015333D02*
X039640Y015825D01*
X039443Y015825D02*
X039443Y015333D01*
X038882Y016386D02*
X038390Y016386D01*
X038390Y016583D02*
X038882Y016583D01*
X038882Y016780D02*
X038390Y016780D01*
X038390Y016977D02*
X038882Y016977D01*
X038882Y017173D02*
X038390Y017173D01*
X038390Y017370D02*
X038882Y017370D01*
X038882Y017567D02*
X038390Y017567D01*
X038390Y017764D02*
X038882Y017764D01*
X038882Y017961D02*
X038390Y017961D01*
X038390Y018158D02*
X038882Y018158D01*
X038882Y018355D02*
X038390Y018355D01*
X038390Y018551D02*
X038882Y018551D01*
X038882Y018748D02*
X038390Y018748D01*
X038390Y018945D02*
X038882Y018945D01*
X038882Y019142D02*
X038390Y019142D01*
X038390Y019339D02*
X038882Y019339D01*
X038882Y019536D02*
X038390Y019536D01*
X038390Y019733D02*
X038882Y019733D01*
X038882Y019929D02*
X038390Y019929D01*
X038390Y020126D02*
X038882Y020126D01*
X038882Y020323D02*
X038390Y020323D01*
X038390Y020520D02*
X038882Y020520D01*
X038882Y020717D02*
X038390Y020717D01*
X038390Y020914D02*
X038882Y020914D01*
X038882Y021110D02*
X038390Y021110D01*
X038390Y021307D02*
X038882Y021307D01*
X038882Y021504D02*
X038390Y021504D01*
X038390Y021701D02*
X038882Y021701D01*
X038882Y021898D02*
X038390Y021898D01*
X038390Y022095D02*
X038882Y022095D01*
X038882Y022292D02*
X038390Y022292D01*
X038390Y022488D02*
X038882Y022488D01*
X038882Y022685D02*
X038390Y022685D01*
X038390Y022882D02*
X038882Y022882D01*
X038882Y023079D02*
X038390Y023079D01*
X038390Y023276D02*
X038882Y023276D01*
X038882Y023473D02*
X038390Y023473D01*
X038390Y023670D02*
X038882Y023670D01*
X038882Y023866D02*
X038390Y023866D01*
X038390Y024063D02*
X038882Y024063D01*
X038882Y024260D02*
X038390Y024260D01*
X038390Y024457D02*
X038882Y024457D01*
X038882Y024654D02*
X038390Y024654D01*
X038390Y024851D02*
X038882Y024851D01*
X039443Y025412D02*
X039443Y025904D01*
X039640Y025904D02*
X039640Y025412D01*
X039836Y025412D02*
X039836Y025904D01*
X040033Y025904D02*
X040033Y025412D01*
X040230Y025412D02*
X040230Y025904D01*
X040427Y025904D02*
X040427Y025412D01*
X040624Y025412D02*
X040624Y025904D01*
X040821Y025904D02*
X040821Y025412D01*
X041018Y025412D02*
X041018Y025904D01*
X041214Y025904D02*
X041214Y025412D01*
X041411Y025412D02*
X041411Y025904D01*
X041608Y025904D02*
X041608Y025412D01*
X041805Y025412D02*
X041805Y025904D01*
X042002Y025904D02*
X042002Y025412D01*
X042199Y025412D02*
X042199Y025904D01*
X042395Y025904D02*
X042395Y025412D01*
X042592Y025412D02*
X042592Y025904D01*
X042789Y025904D02*
X042789Y025412D01*
X042986Y025412D02*
X042986Y025904D01*
X043183Y025904D02*
X043183Y025412D01*
X043380Y025412D02*
X043380Y025904D01*
X043577Y025904D02*
X043577Y025412D01*
X043773Y025412D02*
X043773Y025904D01*
X043970Y025904D02*
X043970Y025412D01*
X044167Y025412D02*
X044167Y025904D01*
X044364Y025904D02*
X044364Y025412D01*
X044561Y025412D02*
X044561Y025904D01*
X044758Y025904D02*
X044758Y025412D01*
X044955Y025412D02*
X044955Y025904D01*
X045151Y025904D02*
X045151Y025412D01*
X045348Y025412D02*
X045348Y025904D01*
X045545Y025904D02*
X045545Y025412D01*
X045742Y025412D02*
X045742Y025904D01*
X045939Y025904D02*
X045939Y025412D01*
X046136Y025412D02*
X046136Y025904D01*
X046332Y025904D02*
X046332Y025412D01*
X046529Y025412D02*
X046529Y025904D01*
X046726Y025904D02*
X046726Y025412D01*
X046923Y025412D02*
X046923Y025904D01*
X047120Y025904D02*
X047120Y025412D01*
X047317Y025412D02*
X047317Y025904D01*
X047514Y025904D02*
X047514Y025412D01*
X047710Y025412D02*
X047710Y025904D01*
X047907Y025904D02*
X047907Y025412D01*
X048468Y024851D02*
X048960Y024851D01*
X048960Y024654D02*
X048468Y024654D01*
X048468Y024457D02*
X048960Y024457D01*
X048960Y024260D02*
X048468Y024260D01*
X048468Y024063D02*
X048960Y024063D01*
X048960Y023866D02*
X048468Y023866D01*
X048468Y023670D02*
X048960Y023670D01*
X048960Y023473D02*
X048468Y023473D01*
X048468Y023276D02*
X048960Y023276D01*
X048960Y023079D02*
X048468Y023079D01*
X048468Y022882D02*
X048960Y022882D01*
X048960Y022685D02*
X048468Y022685D01*
X048468Y022488D02*
X048960Y022488D01*
X048960Y022292D02*
X048468Y022292D01*
X048468Y022095D02*
X048960Y022095D01*
X048960Y021898D02*
X048468Y021898D01*
X048468Y021701D02*
X048960Y021701D01*
X048960Y021504D02*
X048468Y021504D01*
X048468Y021307D02*
X048960Y021307D01*
X048960Y021110D02*
X048468Y021110D01*
X048468Y020914D02*
X048960Y020914D01*
X048960Y020717D02*
X048468Y020717D01*
X048468Y020520D02*
X048960Y020520D01*
X048960Y020323D02*
X048468Y020323D01*
X048468Y020126D02*
X048960Y020126D01*
X048960Y019929D02*
X048468Y019929D01*
X048468Y019733D02*
X048960Y019733D01*
X048960Y019536D02*
X048468Y019536D01*
X048468Y019339D02*
X048960Y019339D01*
X048960Y019142D02*
X048468Y019142D01*
X048468Y018945D02*
X048960Y018945D01*
X048960Y018748D02*
X048468Y018748D01*
X048468Y018551D02*
X048960Y018551D01*
X048960Y018355D02*
X048468Y018355D01*
X048468Y018158D02*
X048960Y018158D01*
X048960Y017961D02*
X048468Y017961D01*
X048468Y017764D02*
X048960Y017764D01*
X048960Y017567D02*
X048468Y017567D01*
X048468Y017370D02*
X048960Y017370D01*
X048960Y017173D02*
X048468Y017173D01*
X048468Y016977D02*
X048960Y016977D01*
X048960Y016780D02*
X048468Y016780D01*
X048468Y016583D02*
X048960Y016583D01*
X048960Y016386D02*
X048468Y016386D01*
X056730Y020199D02*
X056730Y020691D01*
X056927Y020691D02*
X056927Y020199D01*
X057124Y020199D02*
X057124Y020691D01*
X057321Y020691D02*
X057321Y020199D01*
X057518Y020199D02*
X057518Y020691D01*
X057714Y020691D02*
X057714Y020199D01*
X057911Y020199D02*
X057911Y020691D01*
X058108Y020691D02*
X058108Y020199D01*
X058305Y020199D02*
X058305Y020691D01*
X058502Y020691D02*
X058502Y020199D01*
X058699Y020199D02*
X058699Y020691D01*
X058895Y020691D02*
X058895Y020199D01*
X059092Y020199D02*
X059092Y020691D01*
X059289Y020691D02*
X059289Y020199D01*
X059486Y020199D02*
X059486Y020691D01*
X059683Y020691D02*
X059683Y020199D01*
X059880Y020199D02*
X059880Y020691D01*
X060077Y020691D02*
X060077Y020199D01*
X060273Y020199D02*
X060273Y020691D01*
X060470Y020691D02*
X060470Y020199D01*
X060667Y020199D02*
X060667Y020691D01*
X060864Y020691D02*
X060864Y020199D01*
X061061Y020199D02*
X061061Y020691D01*
X061258Y020691D02*
X061258Y020199D01*
X061455Y020199D02*
X061455Y020691D01*
X061651Y020691D02*
X061651Y020199D01*
X061848Y020199D02*
X061848Y020691D01*
X062045Y020691D02*
X062045Y020199D01*
X062242Y020199D02*
X062242Y020691D01*
X062439Y020691D02*
X062439Y020199D01*
X062636Y020199D02*
X062636Y020691D01*
X062832Y020691D02*
X062832Y020199D01*
X063029Y020199D02*
X063029Y020691D01*
X063226Y020691D02*
X063226Y020199D01*
X063423Y020199D02*
X063423Y020691D01*
X063620Y020691D02*
X063620Y020199D01*
X064102Y021173D02*
X064594Y021173D01*
X064594Y021370D02*
X064102Y021370D01*
X064102Y021567D02*
X064594Y021567D01*
X064594Y021764D02*
X064102Y021764D01*
X064102Y021961D02*
X064594Y021961D01*
X064594Y022158D02*
X064102Y022158D01*
X064102Y022355D02*
X064594Y022355D01*
X064594Y022551D02*
X064102Y022551D01*
X064102Y022748D02*
X064594Y022748D01*
X064594Y022945D02*
X064102Y022945D01*
X064102Y023142D02*
X064594Y023142D01*
X064594Y023339D02*
X064102Y023339D01*
X064102Y023536D02*
X064594Y023536D01*
X064594Y023733D02*
X064102Y023733D01*
X064102Y023929D02*
X064594Y023929D01*
X064594Y024126D02*
X064102Y024126D01*
X064102Y024323D02*
X064594Y024323D01*
X064594Y024520D02*
X064102Y024520D01*
X064102Y024717D02*
X064594Y024717D01*
X064594Y024914D02*
X064102Y024914D01*
X064102Y025110D02*
X064594Y025110D01*
X064594Y025307D02*
X064102Y025307D01*
X064102Y025504D02*
X064594Y025504D01*
X064594Y025701D02*
X064102Y025701D01*
X064102Y025898D02*
X064594Y025898D01*
X064594Y026095D02*
X064102Y026095D01*
X064102Y026292D02*
X064594Y026292D01*
X064594Y026488D02*
X064102Y026488D01*
X064102Y026685D02*
X064594Y026685D01*
X064594Y026882D02*
X064102Y026882D01*
X064102Y027079D02*
X064594Y027079D01*
X064594Y027276D02*
X064102Y027276D01*
X064102Y027473D02*
X064594Y027473D01*
X064594Y027670D02*
X064102Y027670D01*
X064102Y027866D02*
X064594Y027866D01*
X064594Y028063D02*
X064102Y028063D01*
X063620Y028546D02*
X063620Y029038D01*
X063423Y029038D02*
X063423Y028546D01*
X063226Y028546D02*
X063226Y029038D01*
X063029Y029038D02*
X063029Y028546D01*
X062832Y028546D02*
X062832Y029038D01*
X062636Y029038D02*
X062636Y028546D01*
X062439Y028546D02*
X062439Y029038D01*
X062242Y029038D02*
X062242Y028546D01*
X062045Y028546D02*
X062045Y029038D01*
X061848Y029038D02*
X061848Y028546D01*
X061651Y028546D02*
X061651Y029038D01*
X061455Y029038D02*
X061455Y028546D01*
X061258Y028546D02*
X061258Y029038D01*
X061061Y029038D02*
X061061Y028546D01*
X060864Y028546D02*
X060864Y029038D01*
X060667Y029038D02*
X060667Y028546D01*
X060470Y028546D02*
X060470Y029038D01*
X060273Y029038D02*
X060273Y028546D01*
X060077Y028546D02*
X060077Y029038D01*
X059880Y029038D02*
X059880Y028546D01*
X059683Y028546D02*
X059683Y029038D01*
X059486Y029038D02*
X059486Y028546D01*
X059289Y028546D02*
X059289Y029038D01*
X059092Y029038D02*
X059092Y028546D01*
X058895Y028546D02*
X058895Y029038D01*
X058699Y029038D02*
X058699Y028546D01*
X058502Y028546D02*
X058502Y029038D01*
X058305Y029038D02*
X058305Y028546D01*
X058108Y028546D02*
X058108Y029038D01*
X057911Y029038D02*
X057911Y028546D01*
X057714Y028546D02*
X057714Y029038D01*
X057518Y029038D02*
X057518Y028546D01*
X057321Y028546D02*
X057321Y029038D01*
X057124Y029038D02*
X057124Y028546D01*
X056927Y028546D02*
X056927Y029038D01*
X056730Y029038D02*
X056730Y028546D01*
X056248Y028063D02*
X055756Y028063D01*
X055756Y027866D02*
X056248Y027866D01*
X056248Y027670D02*
X055756Y027670D01*
X055756Y027473D02*
X056248Y027473D01*
X056248Y027276D02*
X055756Y027276D01*
X055756Y027079D02*
X056248Y027079D01*
X056248Y026882D02*
X055756Y026882D01*
X055756Y026685D02*
X056248Y026685D01*
X056248Y026488D02*
X055756Y026488D01*
X055756Y026292D02*
X056248Y026292D01*
X056248Y026095D02*
X055756Y026095D01*
X055756Y025898D02*
X056248Y025898D01*
X056248Y025701D02*
X055756Y025701D01*
X055756Y025504D02*
X056248Y025504D01*
X056248Y025307D02*
X055756Y025307D01*
X055756Y025110D02*
X056248Y025110D01*
X056248Y024914D02*
X055756Y024914D01*
X055756Y024717D02*
X056248Y024717D01*
X056248Y024520D02*
X055756Y024520D01*
X055756Y024323D02*
X056248Y024323D01*
X056248Y024126D02*
X055756Y024126D01*
X055756Y023929D02*
X056248Y023929D01*
X056248Y023733D02*
X055756Y023733D01*
X055756Y023536D02*
X056248Y023536D01*
X056248Y023339D02*
X055756Y023339D01*
X055756Y023142D02*
X056248Y023142D01*
X056248Y022945D02*
X055756Y022945D01*
X055756Y022748D02*
X056248Y022748D01*
X056248Y022551D02*
X055756Y022551D01*
X055756Y022355D02*
X056248Y022355D01*
X056248Y022158D02*
X055756Y022158D01*
X055756Y021961D02*
X056248Y021961D01*
X056248Y021764D02*
X055756Y021764D01*
X055756Y021567D02*
X056248Y021567D01*
X056248Y021370D02*
X055756Y021370D01*
X055756Y021173D02*
X056248Y021173D01*
D14*
X073925Y022118D03*
X053425Y007368D03*
X034175Y012618D03*
X011175Y026118D03*
D15*
X012175Y026118D03*
X013175Y026118D03*
X014175Y026118D03*
X015175Y026118D03*
X016175Y026118D03*
X016175Y027118D03*
X015175Y027118D03*
X014175Y027118D03*
X013175Y027118D03*
X012175Y027118D03*
X011175Y027118D03*
X034175Y013618D03*
X035175Y013618D03*
X035175Y012618D03*
X036175Y012618D03*
X036175Y013618D03*
X053425Y008368D03*
X054425Y008368D03*
X054425Y007368D03*
X055425Y007368D03*
X056425Y007368D03*
X057425Y007368D03*
X057425Y008368D03*
X056425Y008368D03*
X055425Y008368D03*
X073925Y009118D03*
X074925Y009118D03*
X074925Y010118D03*
X073925Y010118D03*
X073925Y011118D03*
X074925Y011118D03*
X074925Y012118D03*
X073925Y012118D03*
X073925Y013118D03*
X074925Y013118D03*
X074925Y014118D03*
X073925Y014118D03*
X073925Y015118D03*
X074925Y015118D03*
X074925Y016118D03*
X073925Y016118D03*
X073925Y017118D03*
X074925Y017118D03*
X074925Y018118D03*
X073925Y018118D03*
X073925Y019118D03*
X074925Y019118D03*
X074925Y020118D03*
X073925Y020118D03*
X073925Y021118D03*
X074925Y021118D03*
X074925Y022118D03*
X072425Y045618D03*
D16*
X051925Y040668D03*
X051925Y040068D03*
X051925Y039168D03*
X051925Y038568D03*
X048925Y039318D03*
X048925Y039918D03*
X052300Y036168D03*
X052300Y035568D03*
X059425Y033293D03*
X059425Y032693D03*
X060425Y032693D03*
X060425Y033293D03*
X061425Y033293D03*
X061425Y032693D03*
X043425Y033318D03*
X043425Y033918D03*
X042675Y033918D03*
X042675Y033318D03*
X039050Y035193D03*
X039050Y035793D03*
X034550Y035793D03*
X034550Y035193D03*
X029175Y035068D03*
X029175Y035668D03*
X025675Y035293D03*
X025675Y034693D03*
X025675Y033793D03*
X025675Y033193D03*
X025675Y032043D03*
X025675Y031443D03*
X025675Y030543D03*
X025675Y029943D03*
X029175Y030168D03*
X029175Y029568D03*
X029175Y031068D03*
X029175Y031668D03*
X029175Y033568D03*
X029175Y034168D03*
X023925Y036068D03*
X023925Y036668D03*
X023175Y036668D03*
X023175Y036068D03*
X022425Y036068D03*
X022425Y036668D03*
X021675Y036668D03*
X021675Y036068D03*
X019175Y036068D03*
X019175Y036668D03*
X018175Y036668D03*
X018175Y036068D03*
X017425Y036068D03*
X017425Y036668D03*
X016675Y036668D03*
X016675Y036068D03*
X014675Y034418D03*
X014675Y033818D03*
X013925Y033818D03*
X013925Y034418D03*
X009925Y034318D03*
X009925Y034918D03*
X009175Y034918D03*
X009175Y034318D03*
X027050Y024418D03*
X027050Y023818D03*
X029175Y021418D03*
X029175Y020818D03*
X029175Y017793D03*
X029175Y017193D03*
X028425Y017193D03*
X028425Y017793D03*
X020550Y020443D03*
X020550Y021043D03*
X017175Y021043D03*
X017175Y020443D03*
X016425Y020443D03*
X016425Y021043D03*
X015675Y021043D03*
X015675Y020443D03*
X015675Y021818D03*
X015675Y022418D03*
X016425Y022418D03*
X016425Y021818D03*
X017175Y021818D03*
X017175Y022418D03*
X011675Y022418D03*
X011675Y021818D03*
X010925Y021818D03*
X010925Y022418D03*
X010175Y022418D03*
X010175Y021818D03*
X010175Y021043D03*
X010175Y020443D03*
X010925Y020443D03*
X010925Y021043D03*
X011675Y021043D03*
X011675Y020443D03*
X020550Y014043D03*
X020550Y013443D03*
X035675Y007418D03*
X035675Y006818D03*
X036425Y006818D03*
X036425Y007418D03*
X037175Y007418D03*
X037175Y006818D03*
X038675Y007318D03*
X038675Y007918D03*
X040425Y013568D03*
X040425Y014168D03*
X041175Y014168D03*
X041175Y013568D03*
X051925Y006168D03*
X051925Y005568D03*
X051925Y004668D03*
X051925Y004068D03*
X058925Y004568D03*
X058925Y005168D03*
D17*
X058300Y017118D03*
X062050Y017118D03*
D18*
X060225Y010618D03*
X059625Y010618D03*
X059625Y009868D03*
X060225Y009868D03*
X060225Y009118D03*
X059625Y009118D03*
X059625Y008368D03*
X060225Y008368D03*
X060225Y007618D03*
X059625Y007618D03*
X059625Y006868D03*
X060225Y006868D03*
X054225Y009368D03*
X053625Y009368D03*
X035850Y017743D03*
X035250Y017743D03*
X029100Y016368D03*
X028500Y016368D03*
X023475Y018118D03*
X022875Y018118D03*
X022875Y018868D03*
X023475Y018868D03*
X021975Y018868D03*
X021375Y018868D03*
X021375Y018118D03*
X021975Y018118D03*
X021975Y020368D03*
X021375Y020368D03*
X021375Y021118D03*
X021975Y021118D03*
X022875Y021118D03*
X023475Y021118D03*
X023475Y020368D03*
X022875Y020368D03*
X016725Y019618D03*
X016125Y019618D03*
X015225Y019618D03*
X014625Y019618D03*
X012725Y019618D03*
X012125Y019618D03*
X011225Y019618D03*
X010625Y019618D03*
X011000Y023118D03*
X011600Y023118D03*
X012500Y023118D03*
X013100Y023118D03*
X014250Y023118D03*
X014850Y023118D03*
X015750Y023118D03*
X016350Y023118D03*
X021375Y025118D03*
X021975Y025118D03*
X021975Y025868D03*
X021375Y025868D03*
X022875Y025868D03*
X023475Y025868D03*
X023475Y025118D03*
X022875Y025118D03*
X030250Y022618D03*
X030850Y022618D03*
X041875Y027118D03*
X042475Y027118D03*
X038225Y030368D03*
X037625Y030368D03*
X037625Y031118D03*
X038225Y031118D03*
X036725Y031118D03*
X036125Y031118D03*
X036125Y030368D03*
X036725Y030368D03*
X033725Y030368D03*
X033125Y030368D03*
X033125Y031118D03*
X033725Y031118D03*
X032225Y031118D03*
X031625Y031118D03*
X031625Y030368D03*
X032225Y030368D03*
X028350Y030618D03*
X027750Y030618D03*
X027750Y029868D03*
X028350Y029868D03*
X028350Y029118D03*
X027750Y029118D03*
X026975Y029118D03*
X026375Y029118D03*
X026375Y029868D03*
X026975Y029868D03*
X026975Y030618D03*
X026375Y030618D03*
X026375Y034618D03*
X026975Y034618D03*
X026975Y035368D03*
X026375Y035368D03*
X026375Y036118D03*
X026975Y036118D03*
X027750Y036118D03*
X028350Y036118D03*
X028350Y035368D03*
X027750Y035368D03*
X027750Y034618D03*
X028350Y034618D03*
X031625Y035118D03*
X032225Y035118D03*
X032225Y035868D03*
X031625Y035868D03*
X033125Y035868D03*
X033725Y035868D03*
X033725Y035118D03*
X033125Y035118D03*
X036125Y035118D03*
X036725Y035118D03*
X036725Y035868D03*
X036125Y035868D03*
X037625Y035868D03*
X038225Y035868D03*
X038225Y035118D03*
X037625Y035118D03*
X049125Y032118D03*
X049725Y032118D03*
X049750Y031368D03*
X050350Y031368D03*
X049725Y030618D03*
X049125Y030618D03*
X049125Y029868D03*
X049725Y029868D03*
X054125Y032618D03*
X054725Y032618D03*
X055875Y032618D03*
X056475Y032618D03*
X023475Y014118D03*
X022875Y014118D03*
X022875Y013368D03*
X023475Y013368D03*
X021975Y013368D03*
X021375Y013368D03*
X021375Y014118D03*
X021975Y014118D03*
X025375Y007868D03*
X025975Y007868D03*
X025975Y007118D03*
X025375Y007118D03*
X025375Y006368D03*
X025975Y006368D03*
X025975Y005618D03*
X025375Y005618D03*
X025375Y004868D03*
X025975Y004868D03*
X025975Y004118D03*
X025375Y004118D03*
X014600Y032493D03*
X014000Y032493D03*
X012225Y032493D03*
X011625Y032493D03*
X009850Y032493D03*
X009250Y032493D03*
X009250Y033618D03*
X009850Y033618D03*
X011625Y035618D03*
X012225Y035618D03*
D19*
X044175Y027118D03*
X061050Y029618D03*
D20*
X048175Y028892D03*
X047675Y028892D03*
X047175Y028892D03*
X046675Y028892D03*
X046675Y026845D03*
X047175Y026845D03*
X047675Y026845D03*
X048175Y026845D03*
X037675Y032095D03*
X037175Y032095D03*
X036675Y032095D03*
X036175Y032095D03*
X036175Y034142D03*
X036675Y034142D03*
X037175Y034142D03*
X037675Y034142D03*
X033175Y034142D03*
X032675Y034142D03*
X032175Y034142D03*
X031675Y034142D03*
X031675Y032095D03*
X032175Y032095D03*
X032675Y032095D03*
X033175Y032095D03*
X027925Y031595D03*
X027425Y031595D03*
X026925Y031595D03*
X026425Y031595D03*
X026425Y033642D03*
X026925Y033642D03*
X027425Y033642D03*
X027925Y033642D03*
X027675Y025142D03*
X028175Y025142D03*
X028675Y025142D03*
X029175Y025142D03*
X029175Y023095D03*
X028675Y023095D03*
X028175Y023095D03*
X027675Y023095D03*
X023425Y022095D03*
X022925Y022095D03*
X022425Y022095D03*
X021925Y022095D03*
X021925Y024142D03*
X022425Y024142D03*
X022925Y024142D03*
X023425Y024142D03*
X023425Y017142D03*
X022925Y017142D03*
X022425Y017142D03*
X021925Y017142D03*
X021925Y015095D03*
X022425Y015095D03*
X022925Y015095D03*
X023425Y015095D03*
X049675Y038595D03*
X050175Y038595D03*
X050675Y038595D03*
X051175Y038595D03*
X051175Y040642D03*
X050675Y040642D03*
X050175Y040642D03*
X049675Y040642D03*
D21*
X047925Y040118D03*
X047925Y039118D03*
X043050Y036243D03*
X043050Y035243D03*
X048175Y035118D03*
X048175Y034118D03*
X048175Y032618D03*
X048175Y031618D03*
X061425Y037993D03*
X061425Y038993D03*
X024675Y034368D03*
X024675Y033368D03*
X024675Y031868D03*
X024675Y030868D03*
X028175Y021618D03*
X028175Y020618D03*
D22*
X055175Y039618D03*
X055175Y040406D03*
X055175Y041193D03*
X055175Y041981D03*
D23*
X054033Y042177D03*
X056317Y042177D03*
X056317Y039421D03*
X054033Y039421D03*
D24*
X059683Y040453D02*
X059683Y041014D01*
X059683Y041801D02*
X059683Y042362D01*
X060667Y042362D02*
X060667Y041801D01*
X060667Y041014D02*
X060667Y040453D01*
D25*
X062537Y042868D03*
X057813Y042868D03*
D26*
X063675Y034868D03*
X064175Y034868D03*
X064675Y034868D03*
X065175Y034868D03*
X065675Y034868D03*
X066175Y034868D03*
X066675Y034868D03*
D27*
X065175Y038118D03*
D28*
X066175Y041368D03*
D29*
X064175Y042493D03*
X066175Y043743D03*
X051108Y043152D03*
X051108Y045317D03*
X050321Y046262D03*
D30*
X070675Y036390D03*
X070675Y032847D03*
D31*
X064675Y033118D03*
X063675Y033118D03*
X060175Y037993D03*
X059175Y037993D03*
X045675Y036368D03*
X044675Y036368D03*
X044675Y035118D03*
X045675Y035118D03*
D32*
X065775Y033118D03*
X067075Y033118D03*
D33*
X061335Y036713D03*
X060425Y036713D03*
X059515Y036713D03*
D34*
X060425Y034273D03*
D35*
X069683Y039634D03*
X070667Y039634D03*
X070667Y040618D03*
X069683Y040618D03*
X069683Y041603D03*
X070667Y041603D03*
D36*
X069392Y013723D03*
X068407Y013723D03*
X067423Y013723D03*
X066439Y013723D03*
X065455Y013723D03*
X064470Y013723D03*
X063486Y013723D03*
D37*
X062856Y013723D03*
X062344Y013723D03*
X061872Y013723D03*
D38*
X070376Y013723D03*
D39*
X071281Y013014D03*
X061203Y012975D03*
X061242Y004786D03*
X072226Y004786D03*
D40*
X052175Y029618D03*
X052175Y030618D03*
X052175Y031618D03*
D41*
X052175Y028368D03*
D42*
X059925Y005557D03*
X059925Y004179D03*
D43*
X023271Y005238D03*
X023271Y007738D03*
X018771Y007738D03*
X016271Y007738D03*
X016271Y005238D03*
X018771Y005238D03*
X011771Y005238D03*
X011771Y007738D03*
X011771Y010238D03*
X016271Y010238D03*
X018771Y010238D03*
X023271Y010238D03*
X015079Y039998D03*
X015079Y042498D03*
X015079Y044998D03*
X010579Y044998D03*
X010579Y042498D03*
X010579Y039998D03*
D44*
X046895Y033028D03*
X046895Y032118D03*
X046895Y031208D03*
D45*
X044455Y032118D03*
D46*
X046925Y034118D03*
X046925Y035118D03*
X038675Y033618D03*
X038675Y032618D03*
X034175Y032618D03*
X034175Y033618D03*
X020925Y023618D03*
X020925Y022618D03*
X020925Y016618D03*
X020925Y015618D03*
X072675Y041868D03*
X072675Y042868D03*
D47*
X049425Y028768D03*
X049425Y027468D03*
X040675Y028468D03*
X040675Y029768D03*
D48*
X045301Y030051D03*
X046049Y030051D03*
X045675Y029185D03*
D49*
X044100Y029118D03*
X042250Y029118D03*
D50*
X039700Y027605D02*
X039150Y027605D01*
X039150Y028077D01*
X039700Y028077D01*
X039700Y027605D01*
X039700Y027722D02*
X039150Y027722D01*
X039150Y027839D02*
X039700Y027839D01*
X039700Y027956D02*
X039150Y027956D01*
X039150Y028073D02*
X039700Y028073D01*
X038700Y027605D02*
X038150Y027605D01*
X038150Y028077D01*
X038700Y028077D01*
X038700Y027605D01*
X038700Y027722D02*
X038150Y027722D01*
X038150Y027839D02*
X038700Y027839D01*
X038700Y027956D02*
X038150Y027956D01*
X038150Y028073D02*
X038700Y028073D01*
X038700Y027132D02*
X038150Y027132D01*
X038700Y027132D02*
X038700Y026660D01*
X038150Y026660D01*
X038150Y027132D01*
X038150Y026777D02*
X038700Y026777D01*
X038700Y026894D02*
X038150Y026894D01*
X038150Y027011D02*
X038700Y027011D01*
X038700Y027128D02*
X038150Y027128D01*
X039150Y026660D02*
X039700Y026660D01*
X039150Y026660D02*
X039150Y027132D01*
X039700Y027132D01*
X039700Y026660D01*
X039700Y026777D02*
X039150Y026777D01*
X039150Y026894D02*
X039700Y026894D01*
X039700Y027011D02*
X039150Y027011D01*
X039150Y027128D02*
X039700Y027128D01*
X035825Y016605D02*
X035275Y016605D01*
X035275Y017077D01*
X035825Y017077D01*
X035825Y016605D01*
X035825Y016722D02*
X035275Y016722D01*
X035275Y016839D02*
X035825Y016839D01*
X035825Y016956D02*
X035275Y016956D01*
X035275Y017073D02*
X035825Y017073D01*
X034825Y016605D02*
X034275Y016605D01*
X034275Y017077D01*
X034825Y017077D01*
X034825Y016605D01*
X034825Y016722D02*
X034275Y016722D01*
X034275Y016839D02*
X034825Y016839D01*
X034825Y016956D02*
X034275Y016956D01*
X034275Y017073D02*
X034825Y017073D01*
X034825Y016132D02*
X034275Y016132D01*
X034825Y016132D02*
X034825Y015660D01*
X034275Y015660D01*
X034275Y016132D01*
X034275Y015777D02*
X034825Y015777D01*
X034825Y015894D02*
X034275Y015894D01*
X034275Y016011D02*
X034825Y016011D01*
X034825Y016128D02*
X034275Y016128D01*
X035275Y015660D02*
X035825Y015660D01*
X035275Y015660D02*
X035275Y016132D01*
X035825Y016132D01*
X035825Y015660D01*
X035825Y015777D02*
X035275Y015777D01*
X035275Y015894D02*
X035825Y015894D01*
X035825Y016011D02*
X035275Y016011D01*
X035275Y016128D02*
X035825Y016128D01*
D51*
X031050Y023618D03*
X030050Y023618D03*
X015425Y024118D03*
X014425Y024118D03*
X012925Y024118D03*
X011925Y024118D03*
X011425Y036618D03*
X010425Y036618D03*
X009425Y036618D03*
X012425Y036618D03*
X013925Y036618D03*
X014925Y036618D03*
X073925Y036618D03*
X074925Y036618D03*
D52*
X051769Y012764D03*
X051455Y012764D03*
X051140Y012764D03*
X050825Y012764D03*
X050510Y012764D03*
X050195Y012764D03*
X049880Y012764D03*
X049565Y012764D03*
X049250Y012764D03*
X048935Y012764D03*
X048620Y012764D03*
X048305Y012764D03*
X047990Y012764D03*
X047675Y012764D03*
X047360Y012764D03*
X047045Y012764D03*
X046730Y012764D03*
X046415Y012764D03*
X046100Y012764D03*
X045785Y012764D03*
X045470Y012764D03*
X045155Y012764D03*
X044840Y012764D03*
X044525Y012764D03*
X044210Y012764D03*
X043895Y012764D03*
X043581Y012764D03*
X043581Y008473D03*
X043895Y008473D03*
X044210Y008473D03*
X044525Y008473D03*
X044840Y008473D03*
X045155Y008473D03*
X045470Y008473D03*
X045785Y008473D03*
X046100Y008473D03*
X046415Y008473D03*
X046730Y008473D03*
X047045Y008473D03*
X047360Y008473D03*
X047675Y008473D03*
X047990Y008473D03*
X048305Y008473D03*
X048620Y008473D03*
X048935Y008473D03*
X049250Y008473D03*
X049565Y008473D03*
X049880Y008473D03*
X050195Y008473D03*
X050510Y008473D03*
X050825Y008473D03*
X051140Y008473D03*
X051455Y008473D03*
X051769Y008473D03*
D53*
X036425Y004868D03*
D54*
X037425Y004868D03*
X038425Y004868D03*
X039425Y004868D03*
X040425Y004868D03*
X041425Y004868D03*
X042425Y004868D03*
X042425Y005868D03*
X041425Y005868D03*
X040425Y005868D03*
X039425Y005868D03*
X038425Y005868D03*
X037425Y005868D03*
X036425Y005868D03*
D55*
X033651Y017414D03*
X033455Y017414D03*
X033258Y017414D03*
X033061Y017414D03*
X032864Y017414D03*
X032667Y017414D03*
X032470Y017414D03*
X032273Y017414D03*
X032077Y017414D03*
X031880Y017414D03*
X031683Y017414D03*
X031486Y017414D03*
X031289Y017414D03*
X031092Y017414D03*
X030895Y017414D03*
X030699Y017414D03*
X030699Y021823D03*
X030895Y021823D03*
X031092Y021823D03*
X031289Y021823D03*
X031486Y021823D03*
X031683Y021823D03*
X031880Y021823D03*
X032077Y021823D03*
X032273Y021823D03*
X032470Y021823D03*
X032667Y021823D03*
X032864Y021823D03*
X033061Y021823D03*
X033258Y021823D03*
X033455Y021823D03*
X033651Y021823D03*
X067411Y020839D03*
X067608Y020839D03*
X067805Y020839D03*
X068002Y020839D03*
X068199Y020839D03*
X068395Y020839D03*
X068592Y020839D03*
X068789Y020839D03*
X068986Y020839D03*
X069183Y020839D03*
X069380Y020839D03*
X069577Y020839D03*
X069773Y020839D03*
X069970Y020839D03*
X070167Y020839D03*
X070364Y020839D03*
X070561Y020839D03*
X070758Y020839D03*
X070955Y020839D03*
X071151Y020839D03*
X071348Y020839D03*
X071545Y020839D03*
X071742Y020839D03*
X071939Y020839D03*
X071939Y028398D03*
X071742Y028398D03*
X071545Y028398D03*
X071348Y028398D03*
X071151Y028398D03*
X070955Y028398D03*
X070758Y028398D03*
X070561Y028398D03*
X070364Y028398D03*
X070167Y028398D03*
X069970Y028398D03*
X069773Y028398D03*
X069577Y028398D03*
X069380Y028398D03*
X069183Y028398D03*
X068986Y028398D03*
X068789Y028398D03*
X068592Y028398D03*
X068395Y028398D03*
X068199Y028398D03*
X068002Y028398D03*
X067805Y028398D03*
X067608Y028398D03*
X067411Y028398D03*
D56*
X034380Y021095D03*
X034380Y020898D03*
X034380Y020701D03*
X034380Y020504D03*
X034380Y020307D03*
X034380Y020110D03*
X034380Y019914D03*
X034380Y019717D03*
X034380Y019520D03*
X034380Y019323D03*
X034380Y019126D03*
X034380Y018929D03*
X034380Y018733D03*
X034380Y018536D03*
X034380Y018339D03*
X034380Y018142D03*
X029970Y018142D03*
X029970Y018339D03*
X029970Y018536D03*
X029970Y018733D03*
X029970Y018929D03*
X029970Y019126D03*
X029970Y019323D03*
X029970Y019520D03*
X029970Y019717D03*
X029970Y019914D03*
X029970Y020110D03*
X029970Y020307D03*
X029970Y020504D03*
X029970Y020701D03*
X029970Y020898D03*
X029970Y021095D03*
D57*
X042675Y031705D03*
X043425Y031705D03*
X043425Y032532D03*
X042675Y032532D03*
D58*
X035527Y011264D03*
X035527Y011008D03*
X035527Y010752D03*
X035527Y010496D03*
X035527Y010240D03*
X035527Y009984D03*
X035527Y009729D03*
X035527Y009473D03*
X033323Y009473D03*
X033323Y009729D03*
X033323Y009984D03*
X033323Y010240D03*
X033323Y010496D03*
X033323Y010752D03*
X033323Y011008D03*
X033323Y011264D03*
D59*
X028128Y005242D03*
X028128Y004868D03*
X028128Y004494D03*
X027222Y004494D03*
X027222Y004868D03*
X027222Y005242D03*
D60*
X029079Y038805D03*
X029579Y040057D03*
X029079Y041305D03*
X029579Y042557D03*
X031579Y042557D03*
X031079Y043805D03*
X031579Y045055D03*
X029579Y045055D03*
X029079Y043805D03*
X032079Y046187D03*
X036579Y045055D03*
X036079Y043805D03*
X038079Y043805D03*
X038579Y045055D03*
X039079Y046187D03*
X043579Y045055D03*
X043079Y043805D03*
X043579Y042557D03*
X043079Y041305D03*
X043579Y040057D03*
X043079Y038805D03*
X038579Y040057D03*
X038079Y041305D03*
X036579Y040057D03*
X036079Y041305D03*
X036579Y042557D03*
X038579Y042557D03*
X031579Y040057D03*
X031079Y041305D03*
X031079Y038805D03*
X036079Y038805D03*
X038079Y038805D03*
X024579Y040057D03*
X024079Y041305D03*
X022579Y040057D03*
X022079Y041305D03*
X022579Y042557D03*
X024579Y042557D03*
X024079Y043805D03*
X024579Y045055D03*
X022579Y045055D03*
X022079Y043805D03*
X025079Y046187D03*
X018079Y046187D03*
X017579Y045055D03*
X017079Y043805D03*
X017579Y042557D03*
X017079Y041305D03*
X017579Y040057D03*
X017079Y038805D03*
X022079Y038805D03*
X024079Y038805D03*
D61*
X012949Y034868D03*
X012949Y034368D03*
X012949Y033868D03*
X012949Y033368D03*
X010901Y033368D03*
X010901Y033868D03*
X010901Y034368D03*
X010901Y034868D03*
X010901Y031743D03*
X010901Y031243D03*
X010901Y030743D03*
X010901Y030243D03*
X012949Y030243D03*
X012949Y030743D03*
X012949Y031243D03*
X012949Y031743D03*
X012651Y022368D03*
X012651Y021868D03*
X012651Y021368D03*
X012651Y020868D03*
X014699Y020868D03*
X014699Y021368D03*
X014699Y021868D03*
X014699Y022368D03*
D62*
X047242Y041494D03*
X047242Y042242D03*
X047242Y042994D03*
X047242Y043742D03*
X048108Y043368D03*
X048108Y041868D03*
D63*
X045925Y041368D03*
X045925Y040368D03*
X045925Y039368D03*
X045925Y042368D03*
D64*
X045925Y038368D03*
D65*
X053142Y037443D03*
X053142Y037128D03*
X053142Y036813D03*
X053142Y036498D03*
X053142Y036183D03*
X053142Y035868D03*
X053142Y035553D03*
X053142Y035238D03*
X053142Y034923D03*
X053142Y034609D03*
X053142Y034294D03*
X057708Y034294D03*
X057708Y034609D03*
X057708Y034923D03*
X057708Y035238D03*
X057708Y035553D03*
X057708Y035868D03*
X057708Y036183D03*
X057708Y036498D03*
X057708Y036813D03*
X057708Y037128D03*
X057708Y037443D03*
D66*
X057000Y038152D03*
X056685Y038152D03*
X056370Y038152D03*
X056055Y038152D03*
X055740Y038152D03*
X055425Y038152D03*
X055110Y038152D03*
X054795Y038152D03*
X054480Y038152D03*
X054165Y038152D03*
X053850Y038152D03*
X053850Y033585D03*
X054165Y033585D03*
X054480Y033585D03*
X054795Y033585D03*
X055110Y033585D03*
X055425Y033585D03*
X055740Y033585D03*
X056055Y033585D03*
X056370Y033585D03*
X056685Y033585D03*
X057000Y033585D03*
D67*
X073913Y041744D03*
X073913Y042492D03*
X074937Y042492D03*
X074937Y042118D03*
X074937Y041744D03*
D68*
X075175Y037618D03*
X073675Y037618D03*
D69*
X073245Y039743D03*
X075105Y039743D03*
D70*
X074675Y044868D03*
X045925Y044868D03*
X008675Y044868D03*
X008675Y004618D03*
X045925Y004618D03*
X074675Y004618D03*
D71*
X069392Y011835D02*
X064425Y006868D01*
X060225Y006868D01*
X059625Y006868D02*
X059175Y006868D01*
X059625Y006868D02*
X059625Y007618D01*
X059625Y008368D01*
X059625Y009118D01*
X059625Y009868D01*
X059625Y010618D01*
X060175Y010618D02*
X060175Y013618D01*
X060675Y014118D01*
X061300Y014743D01*
X062175Y014743D01*
X062344Y014574D01*
X062344Y013723D01*
X061925Y013868D02*
X061175Y013868D01*
X060800Y013868D01*
X060425Y013493D01*
X060425Y011368D01*
X060675Y011118D01*
X060675Y010118D01*
X060425Y009868D01*
X060225Y009868D01*
X060225Y009118D02*
X060550Y009118D01*
X063300Y011868D01*
X063486Y012054D01*
X063486Y013723D01*
X063486Y013929D01*
X063486Y014243D01*
X064486Y015243D01*
X070675Y015243D01*
X072300Y013618D01*
X074425Y013618D01*
X074925Y013118D01*
X074425Y012618D02*
X073050Y012618D01*
X070675Y014993D01*
X066175Y014993D01*
X065455Y014273D01*
X065455Y013723D01*
X065455Y011648D01*
X065050Y011243D01*
X062175Y008368D01*
X060225Y008368D01*
X060225Y007618D02*
X063925Y007618D01*
X068175Y011868D01*
X068407Y012101D01*
X068407Y013723D01*
X068407Y014226D01*
X068925Y014743D01*
X070675Y014743D01*
X073300Y012118D01*
X073925Y012118D01*
X074425Y012618D02*
X074925Y012118D01*
X074925Y014118D02*
X074425Y014618D01*
X072675Y014618D01*
X072175Y014118D01*
X072550Y014118D02*
X073925Y014118D01*
X069392Y013723D02*
X069392Y011835D01*
X069392Y013723D02*
X069300Y014118D01*
X068925Y014118D01*
X066175Y017868D02*
X063425Y015118D01*
X060175Y015118D01*
X056925Y011868D01*
X056925Y007868D01*
X057425Y007368D01*
X055925Y007868D02*
X055425Y007368D01*
X055925Y007868D02*
X055925Y011868D01*
X059675Y015618D01*
X063425Y015618D01*
X066675Y018868D01*
X067175Y018868D01*
X067550Y018618D02*
X067300Y018368D01*
X066425Y018368D01*
X063425Y015368D01*
X059925Y015368D01*
X056425Y011868D01*
X056425Y009118D01*
X060175Y010618D02*
X060225Y010618D01*
X055425Y011868D02*
X059425Y015868D01*
X063425Y015868D01*
X066925Y019368D01*
X067175Y019368D01*
X067175Y020493D02*
X065550Y018868D01*
X060175Y018868D01*
X059486Y019557D01*
X059486Y020445D01*
X059683Y020445D02*
X059683Y021110D01*
X059425Y021368D01*
X058050Y021368D01*
X057800Y021118D01*
X057425Y021118D02*
X057800Y021493D01*
X059550Y021493D01*
X060077Y020967D01*
X060077Y020445D01*
X060273Y020445D02*
X060273Y019520D01*
X060675Y019118D01*
X065300Y019118D01*
X066925Y020743D01*
X066925Y021493D01*
X067050Y021618D01*
X067925Y021618D01*
X068199Y021345D01*
X068199Y020839D01*
X068395Y020839D02*
X068395Y021398D01*
X068050Y021743D01*
X066925Y021743D01*
X066800Y021618D01*
X066800Y020868D01*
X065175Y019243D01*
X061925Y019243D01*
X061061Y020108D01*
X061061Y020445D01*
X061258Y020445D02*
X061258Y021036D01*
X061175Y021118D01*
X061550Y021118D02*
X061651Y021017D01*
X061651Y020445D01*
X061455Y020445D02*
X061455Y020089D01*
X062175Y019368D01*
X065050Y019368D01*
X066675Y020993D01*
X066675Y021743D01*
X066800Y021868D01*
X068175Y021868D01*
X068592Y021451D01*
X068592Y020839D01*
X068789Y020839D02*
X068789Y021504D01*
X068300Y021993D01*
X066675Y021993D01*
X066550Y021868D01*
X066550Y021118D01*
X064925Y019493D01*
X062425Y019493D01*
X061848Y020070D01*
X061848Y020445D01*
X062045Y020445D02*
X062045Y020998D01*
X061925Y021118D01*
X062300Y021118D02*
X062439Y020980D01*
X062439Y020445D01*
X062636Y020445D02*
X062636Y020033D01*
X062925Y019743D01*
X064675Y019743D01*
X066300Y021368D01*
X066300Y022118D01*
X066425Y022243D01*
X070050Y022243D01*
X070955Y021339D01*
X070955Y020839D01*
X071151Y020839D02*
X071151Y021392D01*
X070175Y022368D01*
X066300Y022368D01*
X066175Y022243D01*
X066175Y021493D01*
X064550Y019868D01*
X063300Y019868D01*
X063029Y020139D01*
X063029Y020445D01*
X062832Y020445D02*
X062832Y020961D01*
X062675Y021118D01*
X063050Y021118D02*
X063226Y020942D01*
X063226Y020445D01*
X063423Y020445D02*
X063423Y020120D01*
X063550Y019993D01*
X064425Y019993D01*
X066050Y021618D01*
X066050Y022368D01*
X066175Y022493D01*
X070300Y022493D01*
X071348Y021445D01*
X071348Y020839D01*
X071545Y020839D02*
X071545Y021498D01*
X070425Y022618D01*
X066050Y022618D01*
X065925Y022493D01*
X065925Y021743D01*
X065425Y021243D01*
X064800Y021243D01*
X064673Y021370D01*
X064348Y021370D01*
X064348Y021567D02*
X064851Y021567D01*
X064925Y021493D01*
X065029Y021764D02*
X064348Y021764D01*
X064348Y021961D02*
X065332Y021961D01*
X065425Y021868D01*
X065425Y021493D02*
X065800Y021868D01*
X065800Y022618D01*
X065925Y022743D01*
X070550Y022743D01*
X071742Y021551D01*
X071742Y020839D01*
X071939Y020839D02*
X071939Y021605D01*
X070675Y022868D01*
X065800Y022868D01*
X065089Y022158D01*
X064348Y022158D01*
X065029Y021764D02*
X065300Y021493D01*
X065425Y021493D01*
X066425Y021243D02*
X066425Y021993D01*
X066550Y022118D01*
X069925Y022118D01*
X070758Y021286D01*
X070758Y020839D01*
X070561Y020839D02*
X070561Y020379D01*
X069925Y019743D01*
X069925Y020243D02*
X070175Y020243D01*
X070364Y020432D01*
X070364Y020839D01*
X070167Y020839D02*
X070167Y021501D01*
X069800Y021868D01*
X069425Y021743D02*
X069970Y021198D01*
X069970Y020839D01*
X069380Y020839D02*
X069380Y021289D01*
X068925Y021743D01*
X068002Y021292D02*
X068002Y020839D01*
X067805Y020839D02*
X067805Y021238D01*
X067675Y021368D01*
X067300Y021368D01*
X067175Y021243D01*
X067175Y020493D01*
X067050Y020618D02*
X067050Y021368D01*
X067175Y021493D01*
X067800Y021493D01*
X068002Y021292D01*
X067608Y020839D02*
X067608Y020426D01*
X065550Y018368D01*
X057175Y018368D01*
X056050Y019493D01*
X056050Y020618D01*
X056550Y021118D01*
X056550Y021993D01*
X056386Y022158D01*
X056002Y022158D01*
X056002Y022355D02*
X056564Y022355D01*
X056675Y022243D01*
X056925Y022368D02*
X056742Y022551D01*
X056002Y022551D01*
X056002Y022748D02*
X055555Y022748D01*
X055175Y022368D01*
X055175Y020868D01*
X055425Y020618D01*
X055425Y019618D01*
X056175Y018868D01*
X056175Y018368D01*
X057175Y018618D02*
X056300Y019493D01*
X056300Y020618D01*
X056925Y021243D01*
X056925Y022368D01*
X057175Y022743D02*
X057175Y020993D01*
X056927Y020745D01*
X056927Y020445D01*
X057124Y020445D02*
X057124Y019942D01*
X057050Y019868D01*
X057321Y019598D02*
X057425Y019493D01*
X057321Y019598D02*
X057321Y020445D01*
X057518Y020445D02*
X057518Y019776D01*
X057800Y019493D01*
X058175Y019493D02*
X058425Y019493D01*
X058175Y019493D02*
X057714Y019954D01*
X057714Y020445D01*
X057911Y020445D02*
X057911Y020007D01*
X058175Y019743D01*
X058550Y019743D01*
X058675Y019618D01*
X058675Y019243D01*
X058925Y018993D02*
X058925Y019618D01*
X058550Y019993D01*
X058175Y019993D01*
X058108Y020060D01*
X058108Y020445D01*
X056730Y020445D02*
X056730Y019548D01*
X056675Y019493D01*
X057175Y018618D02*
X065550Y018618D01*
X067411Y020480D01*
X067411Y020839D01*
X067050Y020618D02*
X065425Y018993D01*
X060550Y018993D01*
X059880Y019664D01*
X059880Y020445D01*
X062242Y020445D02*
X062242Y020051D01*
X062675Y019618D01*
X064800Y019618D01*
X066425Y021243D01*
X065425Y022743D02*
X064925Y022743D01*
X064723Y022945D01*
X064348Y022945D01*
X064348Y023339D02*
X064830Y023339D01*
X065050Y023118D01*
X068050Y023118D01*
X068300Y023368D01*
X068300Y022993D02*
X071939Y026632D01*
X071939Y028398D01*
X071742Y028398D02*
X071742Y028801D01*
X069675Y030868D01*
X056925Y030868D01*
X055050Y028993D01*
X055425Y029118D02*
X055425Y028743D01*
X055425Y028368D02*
X055800Y028743D01*
X055800Y029118D01*
X057300Y030618D01*
X069300Y030618D01*
X071151Y028767D01*
X071151Y028398D01*
X070955Y028398D02*
X070955Y027839D01*
X070925Y027743D01*
X070561Y027879D02*
X070425Y027743D01*
X070561Y027879D02*
X070561Y028398D01*
X070758Y028398D02*
X070758Y028786D01*
X069050Y030493D01*
X057800Y030493D01*
X056927Y029620D01*
X056927Y028792D01*
X057124Y028792D02*
X057124Y029442D01*
X057175Y029493D01*
X057321Y029264D02*
X057321Y028792D01*
X057518Y028792D02*
X057518Y028211D01*
X057425Y028118D01*
X057050Y027743D02*
X056675Y028118D01*
X057050Y027743D02*
X058925Y027743D01*
X059289Y028108D01*
X059289Y028792D01*
X059092Y028792D02*
X059092Y029536D01*
X059550Y029993D01*
X067800Y029993D01*
X068986Y028807D01*
X068986Y028398D01*
X068789Y028398D02*
X068800Y028243D01*
X068800Y027993D01*
X068300Y027493D01*
X068175Y027743D02*
X068050Y027743D01*
X067800Y027493D01*
X067425Y027493D02*
X067800Y027868D01*
X067925Y027868D01*
X068002Y027945D01*
X068002Y028398D01*
X068199Y028398D02*
X068199Y028845D01*
X067300Y029743D01*
X062050Y029743D01*
X061848Y029542D01*
X061848Y028792D01*
X061455Y028792D02*
X061455Y029398D01*
X061925Y029868D01*
X067550Y029868D01*
X068592Y028826D01*
X068592Y028398D01*
X068395Y028398D02*
X068395Y027964D01*
X068175Y027743D01*
X067608Y028051D02*
X067608Y028398D01*
X067411Y028398D02*
X067411Y028632D01*
X067300Y028743D01*
X067175Y028743D01*
X067050Y028618D01*
X066675Y028618D01*
X066050Y028743D02*
X066925Y027868D01*
X067425Y027868D01*
X067608Y028051D01*
X067425Y027493D02*
X067425Y027368D01*
X067175Y027118D01*
X066800Y026868D02*
X067550Y026118D01*
X067550Y024368D01*
X067050Y024368D02*
X067050Y026118D01*
X066550Y026618D01*
X066550Y027743D01*
X065300Y028993D01*
X064550Y028993D01*
X060925Y025368D01*
X060175Y025368D01*
X058300Y027243D01*
X056675Y027243D01*
X056511Y027079D01*
X056002Y027079D01*
X056002Y027276D02*
X054582Y027276D01*
X053675Y026368D01*
X051425Y026368D01*
X051175Y026618D02*
X053550Y026618D01*
X054601Y027670D01*
X056002Y027670D01*
X056002Y027866D02*
X055677Y027866D01*
X055425Y028118D01*
X055425Y028368D01*
X055675Y028243D02*
X055800Y028368D01*
X055675Y028243D02*
X055675Y028118D01*
X055730Y028063D01*
X056002Y028063D01*
X056002Y027473D02*
X058446Y027473D01*
X060300Y025618D01*
X060925Y025618D01*
X064425Y029118D01*
X065425Y029118D01*
X066800Y027743D01*
X066800Y026868D01*
X066175Y026618D02*
X066175Y027118D01*
X065925Y027493D02*
X065117Y026685D01*
X064348Y026685D01*
X064348Y026488D02*
X065545Y026488D01*
X065675Y026618D01*
X065848Y026292D02*
X066175Y026618D01*
X065848Y026292D02*
X064348Y026292D01*
X064348Y026095D02*
X066151Y026095D01*
X066175Y026118D01*
X066050Y025743D02*
X065811Y025504D01*
X064348Y025504D01*
X064348Y025307D02*
X066239Y025307D01*
X066425Y025493D01*
X065933Y025110D02*
X064348Y025110D01*
X064348Y024914D02*
X065505Y024914D01*
X065675Y024743D01*
X065933Y025110D02*
X066300Y024743D01*
X065175Y024368D02*
X064736Y023929D01*
X064348Y023929D01*
X064348Y023733D02*
X064914Y023733D01*
X065175Y023993D01*
X065550Y023993D02*
X068050Y023993D01*
X068675Y023743D02*
X065925Y023743D01*
X065800Y023618D01*
X065550Y023618D01*
X065675Y022993D02*
X068300Y022993D01*
X065675Y022993D02*
X065425Y022743D01*
X061800Y023243D02*
X061800Y024118D01*
X061550Y024368D01*
X061550Y025743D01*
X064425Y028618D01*
X064925Y028618D01*
X064925Y028243D02*
X064745Y028063D01*
X064348Y028063D01*
X064348Y027670D02*
X064976Y027670D01*
X065175Y027868D01*
X065550Y027618D02*
X065207Y027276D01*
X064348Y027276D01*
X063620Y028792D02*
X063620Y029063D01*
X063925Y029368D01*
X066300Y029368D01*
X066425Y029243D01*
X066675Y029493D02*
X063800Y029493D01*
X063423Y029116D01*
X063423Y028792D01*
X063029Y028792D02*
X063029Y029223D01*
X063425Y029618D01*
X067050Y029618D01*
X067175Y029493D01*
X066800Y029368D02*
X066675Y029493D01*
X066050Y028993D02*
X066050Y028743D01*
X068050Y030118D02*
X069380Y028789D01*
X069380Y028398D01*
X069183Y028398D02*
X069183Y028001D01*
X068925Y027743D01*
X069773Y027645D02*
X070050Y027368D01*
X070167Y027626D02*
X070167Y028398D01*
X069970Y028398D02*
X069970Y028823D01*
X068550Y030243D01*
X058550Y030243D01*
X057714Y029408D01*
X057714Y028792D01*
X057321Y029264D02*
X058425Y030368D01*
X068800Y030368D01*
X070364Y028804D01*
X070364Y028398D01*
X069773Y028398D02*
X069773Y027645D01*
X070167Y027626D02*
X070425Y027368D01*
X071348Y028398D02*
X071348Y028820D01*
X069425Y030743D01*
X057050Y030743D01*
X055425Y029118D01*
X054675Y029618D02*
X054675Y028618D01*
X053175Y027118D01*
X052925Y027618D02*
X054425Y029118D01*
X054425Y029868D01*
X055925Y031368D01*
X058300Y031368D01*
X058675Y031118D02*
X056175Y031118D01*
X054675Y029618D01*
X055175Y031118D02*
X055675Y031618D01*
X057675Y031618D01*
X057925Y031868D01*
X058300Y031868D01*
X058675Y032118D02*
X057800Y032118D01*
X057550Y031868D01*
X055550Y031868D01*
X055175Y031493D01*
X058425Y029368D02*
X058502Y029292D01*
X058502Y028792D01*
X058699Y028792D02*
X058699Y029392D01*
X059425Y030118D01*
X068050Y030118D01*
X061050Y029618D02*
X060667Y029235D01*
X060667Y028792D01*
X059683Y028792D02*
X059683Y029376D01*
X059925Y029618D01*
X059550Y029618D02*
X059486Y029554D01*
X059486Y028792D01*
X058895Y028792D02*
X058895Y028148D01*
X058925Y028118D01*
X056002Y026882D02*
X054689Y026882D01*
X053925Y026118D01*
X053050Y026118D01*
X052800Y025868D01*
X053175Y025868D02*
X054925Y025868D01*
X055151Y026095D01*
X056002Y026095D01*
X056002Y026292D02*
X055002Y026292D01*
X054925Y026368D01*
X055300Y026618D02*
X055367Y026685D01*
X056002Y026685D01*
X056002Y025898D02*
X055330Y025898D01*
X055050Y025618D01*
X050675Y025618D01*
X050425Y025368D01*
X050425Y024868D02*
X055425Y024868D01*
X055577Y024717D01*
X056002Y024717D01*
X056002Y024914D02*
X055630Y024914D01*
X055425Y025118D01*
X051800Y025118D01*
X051300Y025368D02*
X055425Y025368D01*
X055561Y025504D01*
X056002Y025504D01*
X056002Y024323D02*
X054755Y024323D01*
X053925Y023493D01*
X053925Y019618D01*
X054175Y019368D01*
X054175Y017493D01*
X053925Y017118D02*
X053925Y019118D01*
X053425Y019618D01*
X053425Y023618D01*
X053175Y023868D01*
X053175Y023243D02*
X053175Y019368D01*
X053675Y018868D01*
X053675Y016743D01*
X054675Y016118D02*
X054675Y019868D01*
X054425Y020118D01*
X054425Y022993D01*
X055361Y023929D01*
X056002Y023929D01*
X056002Y023733D02*
X056664Y023733D01*
X056925Y023993D01*
X061175Y023993D01*
X061425Y023743D01*
X061050Y023743D02*
X061425Y023368D01*
X061550Y022993D02*
X061800Y023243D01*
X061550Y022993D02*
X061175Y022993D01*
X060675Y023493D01*
X057175Y023493D01*
X056627Y022945D01*
X056002Y022945D01*
X056002Y023142D02*
X055574Y023142D01*
X054925Y022493D01*
X054925Y020618D01*
X055175Y020368D01*
X055175Y016868D01*
X054925Y016493D02*
X054925Y020118D01*
X054675Y020368D01*
X054675Y022743D01*
X055467Y023536D01*
X056002Y023536D01*
X056002Y023339D02*
X056645Y023339D01*
X057050Y023743D01*
X061050Y023743D01*
X056002Y024126D02*
X055058Y024126D01*
X054175Y023243D01*
X054175Y019868D01*
X054425Y019618D01*
X054425Y015743D01*
X052050Y016243D02*
X049348Y018945D01*
X048714Y018945D01*
X048714Y019142D02*
X049651Y019142D01*
X051800Y016993D01*
X051550Y017743D02*
X049955Y019339D01*
X048714Y019339D01*
X048714Y019536D02*
X050258Y019536D01*
X051300Y018493D01*
X051050Y020118D02*
X049300Y021868D01*
X049300Y022243D01*
X049055Y022488D01*
X048714Y022488D01*
X048714Y022292D02*
X048223Y022292D01*
X048175Y022243D01*
X048401Y022095D02*
X048175Y021868D01*
X048175Y021493D01*
X048401Y022095D02*
X048714Y022095D01*
X048714Y022685D02*
X049108Y022685D01*
X050050Y021743D01*
X050300Y022118D02*
X049536Y022882D01*
X048714Y022882D01*
X048714Y023079D02*
X049839Y023079D01*
X050550Y022368D01*
X050800Y022743D02*
X049480Y024063D01*
X048714Y024063D01*
X048714Y024260D02*
X049658Y024260D01*
X049800Y024118D01*
X049196Y023473D02*
X048714Y023473D01*
X049196Y023473D02*
X049300Y023368D01*
X048175Y022743D02*
X039425Y022743D01*
X039286Y022882D01*
X038636Y022882D01*
X038636Y023079D02*
X039464Y023079D01*
X039550Y022993D01*
X047800Y022993D01*
X047425Y023243D02*
X039050Y023243D01*
X039018Y023276D01*
X038636Y023276D01*
X038636Y023670D02*
X038976Y023670D01*
X039050Y023743D01*
X039675Y023743D01*
X039925Y023493D01*
X047050Y023493D01*
X046925Y023743D02*
X048550Y025368D01*
X049925Y025368D01*
X051175Y026618D01*
X049800Y025618D02*
X048550Y025618D01*
X046925Y023993D01*
X046550Y023993D01*
X045545Y024998D01*
X045545Y025658D01*
X042925Y026368D02*
X042789Y026233D01*
X042789Y025658D01*
X042592Y025658D02*
X042592Y026201D01*
X042425Y026368D01*
X040821Y025658D02*
X040821Y024848D01*
X041050Y024618D01*
X041050Y024368D01*
X040675Y024368D02*
X040675Y024743D01*
X040624Y024795D01*
X040624Y025658D01*
X039800Y024868D02*
X039425Y024868D01*
X038925Y025368D01*
X038925Y028118D01*
X038675Y028368D01*
X038425Y028368D01*
X039175Y024743D02*
X039175Y024063D01*
X039855Y024063D01*
X040175Y023743D01*
X046925Y023743D01*
X046675Y022243D02*
X041675Y022243D01*
X041925Y021743D02*
X041925Y020243D01*
X039425Y017743D01*
X039425Y017368D02*
X042175Y020118D01*
X042175Y021243D01*
X040675Y023993D02*
X039800Y024868D01*
X039175Y024063D02*
X038636Y024063D01*
X038636Y023866D02*
X037927Y023866D01*
X037925Y023868D01*
X037723Y022292D02*
X037425Y021993D01*
X037675Y021743D02*
X037830Y021898D01*
X038636Y021898D01*
X038636Y021701D02*
X038258Y021701D01*
X038050Y021493D01*
X037675Y021743D02*
X037675Y021118D01*
X038202Y020520D02*
X038175Y020493D01*
X037175Y020493D01*
X037800Y020243D02*
X036175Y020243D01*
X036550Y019993D02*
X037800Y019993D01*
X037933Y020126D01*
X038636Y020126D01*
X038636Y020323D02*
X037880Y020323D01*
X037800Y020243D01*
X038202Y020520D02*
X038636Y020520D01*
X036300Y019743D02*
X035539Y020504D01*
X034380Y020504D01*
X034380Y020307D02*
X035486Y020307D01*
X036050Y019743D01*
X036050Y019243D01*
X036800Y018493D01*
X038050Y018493D01*
X038305Y018748D01*
X038636Y018748D01*
X038636Y018945D02*
X038252Y018945D01*
X038050Y018743D01*
X036800Y018743D01*
X036300Y019243D01*
X036300Y019743D01*
X036550Y019618D02*
X036633Y019536D01*
X038636Y019536D01*
X038636Y019339D02*
X038145Y019339D01*
X038050Y019243D01*
X036675Y019243D01*
X036925Y018993D02*
X038050Y018993D01*
X038199Y019142D01*
X038636Y019142D01*
X036175Y018868D02*
X035800Y019243D01*
X035800Y019743D01*
X035433Y020110D01*
X034380Y020110D01*
X034380Y019914D02*
X035380Y019914D01*
X035550Y019743D01*
X035550Y019243D01*
X035800Y018993D01*
X035800Y018743D01*
X036175Y018743D02*
X036175Y018868D01*
X035425Y018743D02*
X035239Y018929D01*
X034380Y018929D01*
X034380Y018733D02*
X034936Y018733D01*
X035050Y018618D01*
X034758Y018536D02*
X035050Y018243D01*
X034758Y018536D02*
X034380Y018536D01*
X034380Y019126D02*
X035058Y019126D01*
X035300Y019368D01*
X035300Y018868D02*
X035425Y018743D01*
X035800Y017818D02*
X035850Y017743D01*
X035800Y017743D02*
X035800Y017818D01*
X035800Y017743D02*
X035550Y017493D01*
X035550Y016841D01*
X035925Y016368D02*
X035022Y016368D01*
X034550Y015896D01*
X035925Y016368D02*
X036300Y016743D01*
X036925Y017243D02*
X036925Y011618D01*
X036059Y010752D01*
X035527Y010752D01*
X035527Y010496D02*
X036303Y010496D01*
X037175Y011368D01*
X037175Y017618D01*
X037425Y017868D01*
X037425Y017368D02*
X038050Y017993D01*
X038050Y018118D01*
X038052Y017370D02*
X037675Y016993D01*
X037675Y015118D01*
X038550Y014243D01*
X038550Y010243D01*
X036425Y008118D01*
X036425Y007418D01*
X036425Y006818D02*
X036425Y005868D01*
X036175Y005368D02*
X035675Y005868D01*
X035675Y006818D01*
X035675Y007418D02*
X035675Y007868D01*
X037175Y007418D02*
X037175Y008368D01*
X038800Y009993D01*
X038800Y014368D01*
X037800Y015368D01*
X037800Y016868D01*
X038105Y017173D01*
X038636Y017173D01*
X038636Y016977D02*
X038158Y016977D01*
X037925Y016743D01*
X037925Y015618D01*
X039050Y014493D01*
X039050Y009743D01*
X037925Y008618D01*
X037925Y006368D01*
X038425Y005868D01*
X037925Y005743D02*
X037925Y005993D01*
X037675Y006243D01*
X037675Y006868D01*
X037175Y007368D01*
X037175Y007418D01*
X037175Y006818D02*
X037175Y006118D01*
X037425Y005868D01*
X037925Y005743D02*
X038425Y005243D01*
X039800Y005243D01*
X040425Y005868D01*
X039925Y005743D02*
X039925Y005993D01*
X040300Y006368D01*
X040925Y006368D01*
X041425Y005868D01*
X039925Y005743D02*
X039675Y005493D01*
X039175Y005493D01*
X038925Y005743D01*
X038925Y006118D01*
X038175Y006868D01*
X038175Y008368D01*
X039300Y009493D01*
X039300Y014618D01*
X038050Y015868D01*
X038050Y016618D01*
X038211Y016780D01*
X038636Y016780D01*
X038636Y016583D02*
X038265Y016583D01*
X038175Y016493D01*
X038175Y016118D01*
X039550Y014743D01*
X039550Y009243D01*
X038675Y008368D01*
X038675Y007918D01*
X038675Y007318D02*
X038675Y006868D01*
X039425Y005868D02*
X039425Y008618D01*
X039800Y008993D01*
X039800Y014368D01*
X040427Y014995D01*
X040427Y015579D01*
X040624Y015579D02*
X040624Y014817D01*
X040550Y014743D01*
X040425Y014618D01*
X040425Y014168D01*
X040425Y014118D01*
X040425Y014168D02*
X040425Y014243D01*
X040425Y013568D02*
X041175Y013568D01*
X041475Y013568D01*
X041675Y013368D01*
X041175Y014168D02*
X041175Y014493D01*
X040925Y014743D01*
X040821Y014848D01*
X040821Y015579D01*
X041214Y015579D02*
X041214Y014704D01*
X042675Y013243D01*
X043675Y013243D01*
X043895Y013023D01*
X043895Y012764D01*
X044525Y012764D02*
X044525Y013018D01*
X044175Y013368D01*
X042800Y013368D01*
X041411Y014757D01*
X041411Y015579D01*
X041608Y015579D02*
X041608Y014810D01*
X042925Y013493D01*
X044425Y013493D01*
X044840Y013078D01*
X044840Y012764D01*
X045470Y012764D02*
X045470Y013073D01*
X044925Y013618D01*
X043050Y013618D01*
X041805Y014863D01*
X041805Y015579D01*
X042002Y015579D02*
X042002Y014917D01*
X043175Y013743D01*
X045175Y013743D01*
X045785Y013133D01*
X045785Y012764D01*
X046415Y012764D02*
X046415Y013128D01*
X045675Y013868D01*
X043300Y013868D01*
X042199Y014970D01*
X042199Y015579D01*
X042395Y015579D02*
X042395Y015023D01*
X043425Y013993D01*
X045925Y013993D01*
X046730Y013188D01*
X046730Y012764D01*
X047360Y012764D02*
X047360Y013058D01*
X046300Y014118D01*
X043550Y014118D01*
X042592Y015076D01*
X042592Y015579D01*
X043183Y015579D02*
X043183Y015235D01*
X043300Y015118D01*
X043300Y014743D01*
X043675Y014368D01*
X044175Y014368D02*
X043577Y014967D01*
X043577Y015579D01*
X043380Y015579D02*
X043380Y016073D01*
X043425Y016118D01*
X044167Y016110D02*
X044175Y016118D01*
X044167Y016110D02*
X044167Y015579D01*
X043970Y015579D02*
X043970Y014948D01*
X044550Y014368D01*
X045050Y014368D02*
X044364Y015054D01*
X044364Y015579D01*
X044561Y015579D02*
X044561Y015983D01*
X044550Y016118D01*
X044758Y015579D02*
X044758Y015161D01*
X045550Y014368D01*
X045742Y015176D02*
X046925Y013993D01*
X047550Y013993D01*
X047925Y014243D02*
X046925Y014243D01*
X045939Y015230D01*
X045939Y015579D01*
X045742Y015579D02*
X045742Y015176D01*
X046923Y015120D02*
X046923Y015579D01*
X046923Y015120D02*
X047300Y014743D01*
X048675Y014743D01*
X049250Y014169D01*
X049250Y012764D01*
X049550Y012779D02*
X049565Y012764D01*
X049550Y012779D02*
X049550Y016618D01*
X049389Y016780D01*
X048714Y016780D01*
X048714Y017173D02*
X049245Y017173D01*
X049675Y016743D01*
X049675Y013368D01*
X049880Y013164D01*
X049880Y012764D01*
X050195Y012764D02*
X050195Y013224D01*
X049800Y013618D01*
X049800Y016868D01*
X049298Y017370D01*
X048714Y017370D01*
X048714Y017567D02*
X049351Y017567D01*
X050050Y016868D01*
X050050Y013743D01*
X050510Y013284D01*
X050510Y012764D01*
X050825Y012764D02*
X050825Y013344D01*
X050300Y013868D01*
X050300Y016868D01*
X049404Y017764D01*
X048714Y017764D01*
X048714Y017961D02*
X049457Y017961D01*
X050550Y016868D01*
X050550Y013993D01*
X051140Y013404D01*
X051140Y012764D01*
X051455Y012764D02*
X051455Y013464D01*
X050800Y014118D01*
X050800Y016868D01*
X049511Y018158D01*
X048714Y018158D01*
X048289Y019733D02*
X047050Y018493D01*
X047050Y017368D01*
X048550Y015868D01*
X048300Y015868D02*
X048300Y015243D01*
X048300Y015868D02*
X046925Y017243D01*
X046925Y018618D01*
X048236Y019929D01*
X048714Y019929D01*
X048714Y019733D02*
X048289Y019733D01*
X055425Y021118D02*
X055677Y021370D01*
X056002Y021370D01*
X056002Y021567D02*
X055499Y021567D01*
X055425Y021493D01*
X055707Y021961D02*
X055425Y022243D01*
X055707Y021961D02*
X056002Y021961D01*
X066175Y017868D02*
X067425Y017868D01*
X068050Y018493D01*
X061925Y013868D02*
X061872Y013671D01*
X061872Y013723D01*
X052050Y009618D02*
X051455Y009023D01*
X051455Y008473D01*
X051140Y008473D02*
X051140Y009083D01*
X051800Y009743D01*
X051800Y010243D01*
X051550Y009868D02*
X051550Y010868D01*
X051300Y011493D02*
X051300Y009993D01*
X050510Y009203D01*
X050510Y008473D01*
X050825Y008473D02*
X050825Y009143D01*
X051550Y009868D01*
X051050Y010118D02*
X050195Y009263D01*
X050195Y008473D01*
X049880Y008473D02*
X049880Y007948D01*
X049800Y007868D01*
X049565Y008473D02*
X049565Y009104D01*
X049550Y009118D01*
X049250Y009193D02*
X049250Y008473D01*
X048935Y008473D02*
X048935Y009503D01*
X050550Y011118D01*
X050800Y010743D02*
X049250Y009193D01*
X048620Y009813D02*
X048620Y008473D01*
X048305Y008473D02*
X048305Y010248D01*
X050050Y011993D01*
X049550Y011993D02*
X049300Y011993D01*
X048935Y012359D01*
X048935Y012764D01*
X048620Y012764D02*
X048620Y012298D01*
X048800Y012118D01*
X048300Y012118D02*
X048300Y010618D01*
X048050Y010368D01*
X048050Y008993D01*
X047990Y008933D01*
X047990Y008473D01*
X047360Y008473D02*
X047360Y008808D01*
X044425Y011743D01*
X043425Y011743D01*
X043050Y011493D02*
X044050Y011493D01*
X046730Y008813D01*
X046730Y008473D01*
X046415Y008473D02*
X046415Y008753D01*
X043925Y011243D01*
X043425Y011243D01*
X043800Y010993D02*
X043050Y010993D01*
X043425Y010743D02*
X043675Y010743D01*
X045470Y008948D01*
X045470Y008473D01*
X045785Y008473D02*
X045785Y009008D01*
X043800Y010993D01*
X043550Y010493D02*
X043050Y010493D01*
X043425Y010243D02*
X044525Y009143D01*
X044525Y008473D01*
X044840Y008473D02*
X044840Y009203D01*
X043550Y010493D01*
X043050Y009993D02*
X043895Y009148D01*
X043895Y008473D01*
X048620Y009813D02*
X050300Y011493D01*
X051050Y011993D02*
X051050Y010118D01*
X048305Y012764D02*
X048305Y013488D01*
X048550Y013743D01*
X038175Y013118D02*
X038175Y010368D01*
X037279Y009473D01*
X035527Y009473D01*
X035279Y009473D01*
X035527Y009984D02*
X036809Y009984D01*
X036925Y009868D01*
X036547Y010240D02*
X035527Y010240D01*
X035524Y010493D02*
X035527Y010496D01*
X035527Y011008D02*
X035940Y011008D01*
X036175Y011243D01*
X036547Y010240D02*
X037425Y011118D01*
X037425Y017368D01*
X036925Y017243D02*
X036425Y017743D01*
X035250Y017743D02*
X034300Y017743D01*
X034050Y017493D01*
X034050Y017243D01*
X033550Y016743D01*
X031175Y016743D01*
X030895Y017023D01*
X030895Y017414D01*
X032175Y017993D02*
X033050Y017993D01*
X033258Y017786D01*
X033258Y017414D01*
X034550Y017493D02*
X034550Y016841D01*
X038052Y017370D02*
X038636Y017370D01*
X033425Y019618D02*
X033425Y020368D01*
X033758Y020701D01*
X034380Y020701D01*
X034380Y020898D02*
X033895Y020898D01*
X033800Y020993D01*
X037723Y022292D02*
X038636Y022292D01*
X037925Y005368D02*
X036175Y005368D01*
X037925Y005368D02*
X038425Y004868D01*
X028129Y005243D02*
X028128Y005242D01*
X051175Y038595D02*
X051175Y039368D01*
X051175Y039868D02*
X051175Y040642D01*
X047925Y040118D02*
X047425Y040118D01*
X047175Y039868D01*
D72*
X047175Y039868D03*
X048925Y038868D03*
X049675Y037868D03*
X050425Y037868D03*
X051175Y039368D03*
X051175Y039868D03*
X052425Y039618D03*
X054300Y037493D03*
X054675Y036868D03*
X054675Y036368D03*
X056550Y037618D03*
X056925Y037618D03*
X057050Y037243D03*
X057925Y038618D03*
X052550Y036993D03*
X052300Y036618D03*
X050550Y035993D03*
X050550Y035493D03*
X053425Y033868D03*
X054425Y034118D03*
X054925Y034118D03*
X056550Y034243D03*
X058300Y034118D03*
X058300Y034743D03*
X057425Y032993D03*
X056925Y032618D03*
X057925Y032368D03*
X058300Y031868D03*
X058675Y032118D03*
X058300Y031368D03*
X058675Y031118D03*
X056425Y030868D03*
X055175Y031118D03*
X055175Y031493D03*
X055300Y032618D03*
X053675Y032618D03*
X050925Y031618D03*
X050425Y032118D03*
X049675Y033118D03*
X046300Y034118D03*
X046300Y035118D03*
X046675Y038368D03*
X039050Y034743D03*
X038175Y034368D03*
X035675Y035118D03*
X034550Y034743D03*
X033675Y034368D03*
X031175Y035118D03*
X029175Y036118D03*
X027925Y036618D03*
X027425Y036868D03*
X025675Y035743D03*
X025175Y034993D03*
X024675Y034993D03*
X023175Y035618D03*
X021675Y035618D03*
X021175Y036618D03*
X018675Y036368D03*
X017079Y035272D03*
X012175Y034868D03*
X010175Y033118D03*
X010925Y032493D03*
X012175Y031743D03*
X011800Y030243D03*
X020925Y025868D03*
X020925Y025118D03*
X023925Y025118D03*
X025300Y024368D03*
X025675Y023993D03*
X026050Y023618D03*
X026425Y023243D03*
X027050Y023368D03*
X024925Y022868D03*
X024675Y023368D03*
X022675Y023118D03*
X021675Y023118D03*
X021425Y021868D03*
X020550Y021493D03*
X019425Y019868D03*
X017175Y019618D03*
X015050Y020243D03*
X013425Y020868D03*
X013925Y021868D03*
X013925Y023493D03*
X013425Y023493D03*
X016050Y023618D03*
X016050Y024118D03*
X016800Y023118D03*
X017675Y022118D03*
X017675Y021243D03*
X021925Y019868D03*
X020925Y018868D03*
X020925Y018118D03*
X021675Y016118D03*
X022675Y016118D03*
X021425Y014868D03*
X020550Y014493D03*
X021925Y012868D03*
X023925Y014118D03*
X024675Y015118D03*
X028425Y016743D03*
X026675Y018243D03*
X026425Y018493D03*
X026175Y018743D03*
X025925Y018993D03*
X025050Y018993D03*
X025050Y018493D03*
X023925Y018118D03*
X030550Y018493D03*
X030550Y018993D03*
X031175Y017993D03*
X031550Y017993D03*
X032175Y017993D03*
X033925Y017868D03*
X034550Y017493D03*
X035050Y018243D03*
X035050Y018618D03*
X035425Y018743D03*
X035800Y018743D03*
X036175Y018743D03*
X036675Y019243D03*
X036925Y018993D03*
X036550Y019618D03*
X036550Y019993D03*
X036175Y020243D03*
X037175Y020493D03*
X037675Y021118D03*
X038050Y021493D03*
X037425Y021993D03*
X038050Y022618D03*
X039175Y022618D03*
X039175Y023493D03*
X039925Y023493D03*
X040675Y023993D03*
X040675Y024368D03*
X041050Y024368D03*
X042050Y025118D03*
X043175Y025118D03*
X044425Y024368D03*
X044800Y025118D03*
X044175Y026243D03*
X042925Y026368D03*
X042425Y026368D03*
X041800Y026368D03*
X040425Y026618D03*
X039175Y025493D03*
X039175Y024743D03*
X038050Y024993D03*
X037925Y023868D03*
X041675Y022243D03*
X041925Y021743D03*
X042175Y021243D03*
X040675Y020618D03*
X039175Y020743D03*
X038114Y019805D03*
X035300Y019368D03*
X033425Y019618D03*
X033800Y020993D03*
X031675Y021118D03*
X031300Y020868D03*
X030925Y021118D03*
X030550Y020868D03*
X030550Y020493D03*
X029175Y021868D03*
X029175Y022368D03*
X029800Y022618D03*
X033925Y022368D03*
X027050Y024868D03*
X030175Y027368D03*
X030550Y027618D03*
X031300Y027618D03*
X031300Y028243D03*
X031925Y027118D03*
X031675Y026868D03*
X032675Y026868D03*
X033175Y026618D03*
X037425Y026868D03*
X038425Y028368D03*
X039425Y028368D03*
X039425Y029618D03*
X038675Y030368D03*
X038675Y031118D03*
X035675Y031118D03*
X034175Y031118D03*
X034175Y030368D03*
X031425Y029118D03*
X031175Y031118D03*
X031050Y032368D03*
X030925Y033118D03*
X032425Y033118D03*
X033425Y033118D03*
X035050Y033368D03*
X035300Y032868D03*
X036925Y033118D03*
X037925Y033118D03*
X042675Y031243D03*
X043425Y031243D03*
X040675Y030493D03*
X046550Y030118D03*
X048675Y029368D03*
X052925Y027618D03*
X053175Y027118D03*
X051425Y026368D03*
X052800Y025868D03*
X053175Y025868D03*
X051800Y025118D03*
X051300Y025368D03*
X050425Y025368D03*
X050425Y024868D03*
X049800Y024118D03*
X049300Y023743D03*
X049300Y023368D03*
X048175Y023243D03*
X048175Y023618D03*
X047800Y022993D03*
X048175Y022743D03*
X048175Y022243D03*
X048175Y021493D03*
X048175Y021118D03*
X048175Y020618D03*
X049300Y020868D03*
X050050Y021743D03*
X050300Y022118D03*
X050550Y022368D03*
X050800Y022743D03*
X053175Y023243D03*
X053175Y023868D03*
X055175Y024618D03*
X056675Y024743D03*
X056675Y024368D03*
X056675Y025118D03*
X058175Y025118D03*
X058175Y024368D03*
X058925Y022618D03*
X060425Y022618D03*
X061425Y023368D03*
X061425Y023743D03*
X062050Y024243D03*
X061925Y024618D03*
X062175Y025868D03*
X061175Y026618D03*
X060675Y025868D03*
X058175Y026618D03*
X058175Y028118D03*
X058550Y028118D03*
X058925Y028118D03*
X059925Y028118D03*
X060425Y028118D03*
X060925Y028118D03*
X062050Y028118D03*
X062425Y028118D03*
X064925Y028243D03*
X064925Y028618D03*
X065175Y027868D03*
X065550Y027618D03*
X065925Y027493D03*
X066175Y027118D03*
X065675Y026618D03*
X066175Y026118D03*
X066050Y025743D03*
X066425Y025493D03*
X066300Y024743D03*
X065675Y024743D03*
X065175Y024368D03*
X065175Y023993D03*
X065550Y023993D03*
X065550Y023618D03*
X067050Y024368D03*
X067550Y024368D03*
X068050Y023993D03*
X068300Y023368D03*
X068675Y023743D03*
X069800Y021868D03*
X069425Y021743D03*
X068925Y021743D03*
X069425Y020118D03*
X069925Y020243D03*
X069925Y019743D03*
X067925Y020118D03*
X067175Y019368D03*
X067175Y018868D03*
X067550Y018618D03*
X068050Y018493D03*
X062050Y018118D03*
X061425Y019368D03*
X058925Y018993D03*
X058675Y019243D03*
X058425Y019493D03*
X057800Y019493D03*
X057425Y019493D03*
X057050Y019868D03*
X056675Y019493D03*
X056175Y018368D03*
X058300Y018118D03*
X060175Y018118D03*
X055175Y016868D03*
X054925Y016493D03*
X054675Y016118D03*
X054425Y015743D03*
X053675Y016743D03*
X053925Y017118D03*
X054175Y017493D03*
X051800Y016993D03*
X052050Y016243D03*
X051550Y017743D03*
X051300Y018493D03*
X051050Y020118D03*
X049300Y018618D03*
X048175Y018243D03*
X047425Y018493D03*
X044175Y017743D03*
X044175Y016118D03*
X044550Y016118D03*
X044925Y016118D03*
X043800Y016118D03*
X043425Y016118D03*
X042675Y016118D03*
X041175Y016118D03*
X039675Y016243D03*
X039425Y017368D03*
X039425Y017743D03*
X039175Y018118D03*
X038050Y018118D03*
X037425Y017868D03*
X036425Y017743D03*
X036300Y016743D03*
X035550Y015368D03*
X038175Y013118D03*
X040050Y014993D03*
X040550Y014743D03*
X040925Y014743D03*
X043050Y014993D03*
X043675Y014368D03*
X044175Y014368D03*
X044550Y014368D03*
X045050Y014368D03*
X045550Y014368D03*
X045300Y014993D03*
X047550Y013993D03*
X047925Y014243D03*
X048550Y013743D03*
X047550Y013368D03*
X047050Y012118D03*
X045925Y012118D03*
X045425Y012118D03*
X043425Y011743D03*
X043050Y011493D03*
X043425Y011243D03*
X043050Y010993D03*
X043425Y010743D03*
X043050Y010493D03*
X043425Y010243D03*
X043050Y009993D03*
X043050Y012118D03*
X041675Y013368D03*
X041675Y013743D03*
X036175Y011243D03*
X034925Y011618D03*
X034425Y010368D03*
X032800Y010243D03*
X031925Y010118D03*
X031925Y010618D03*
X034175Y009118D03*
X036925Y009868D03*
X035675Y007868D03*
X038675Y006868D03*
X044300Y007493D03*
X045175Y007868D03*
X046300Y007493D03*
X047050Y007868D03*
X047925Y007493D03*
X049800Y007868D03*
X052050Y007493D03*
X052300Y008743D03*
X052050Y009618D03*
X051800Y010243D03*
X051550Y010868D03*
X051300Y011493D03*
X051050Y011993D03*
X050300Y011493D03*
X050550Y011118D03*
X050800Y010743D03*
X050050Y011993D03*
X049550Y011993D03*
X048800Y012118D03*
X048300Y012118D03*
X052300Y013743D03*
X048300Y015243D03*
X048550Y015868D03*
X048175Y016618D03*
X047300Y016118D03*
X049300Y016493D03*
X041425Y018618D03*
X046675Y022243D03*
X047425Y023243D03*
X047050Y023493D03*
X046550Y024368D03*
X047550Y025118D03*
X048175Y024618D03*
X049800Y025618D03*
X049425Y026118D03*
X049425Y026868D03*
X046925Y026180D03*
X045800Y026243D03*
X053675Y021868D03*
X055425Y021868D03*
X055425Y021493D03*
X055425Y021118D03*
X055675Y020743D03*
X055425Y022243D03*
X056675Y022243D03*
X057175Y022743D03*
X057425Y021118D03*
X057800Y021118D03*
X058175Y021118D03*
X058550Y021118D03*
X058925Y021118D03*
X059300Y021118D03*
X060425Y021118D03*
X060800Y021118D03*
X061175Y021118D03*
X061550Y021118D03*
X061925Y021118D03*
X062300Y021118D03*
X062675Y021118D03*
X063050Y021118D03*
X063675Y021243D03*
X063675Y021868D03*
X063675Y022743D03*
X062175Y021868D03*
X064925Y021493D03*
X065425Y021868D03*
X063675Y025868D03*
X063675Y026618D03*
X067175Y027118D03*
X067800Y027493D03*
X068300Y027493D03*
X068925Y027743D03*
X069425Y027618D03*
X070050Y027368D03*
X070425Y027368D03*
X070425Y027743D03*
X070925Y027743D03*
X071675Y027743D03*
X069425Y026118D03*
X067675Y028993D03*
X067175Y029493D03*
X066800Y029368D03*
X066425Y029243D03*
X066050Y028993D03*
X066675Y028618D03*
X062425Y031118D03*
X059925Y029618D03*
X059550Y029618D03*
X058425Y029368D03*
X057175Y029493D03*
X056425Y029368D03*
X055800Y028368D03*
X055425Y028743D03*
X055050Y028993D03*
X056675Y028118D03*
X057425Y028118D03*
X055300Y026618D03*
X054925Y026368D03*
X074925Y035868D03*
X073175Y037618D03*
X071175Y037868D03*
X075425Y042118D03*
X075425Y042868D03*
X073425Y042868D03*
X053425Y043868D03*
X048425Y042618D03*
X046675Y043368D03*
X037675Y036368D03*
X033175Y036368D03*
X028550Y033993D03*
X026925Y032868D03*
X027925Y032368D03*
X029175Y032118D03*
X025300Y032368D03*
X025300Y032868D03*
X024675Y030243D03*
X025675Y029493D03*
X027675Y028368D03*
X028175Y028618D03*
X024675Y021368D03*
X023925Y021118D03*
X013175Y019618D03*
X009675Y021368D03*
X009675Y022118D03*
X010550Y023118D03*
X010925Y036618D03*
X023425Y037368D03*
X060675Y014118D03*
X061175Y013868D03*
X063300Y011868D03*
X064675Y011868D03*
X065050Y011243D03*
X066675Y011868D03*
X067175Y011868D03*
X068175Y011868D03*
X068925Y014118D03*
X072175Y014118D03*
X072550Y014118D03*
X059175Y006868D03*
X060675Y005618D03*
X060425Y004118D03*
X058925Y004118D03*
X052675Y004118D03*
X050675Y004743D03*
X052675Y006118D03*
X049550Y009118D03*
X056425Y009118D03*
X029175Y004868D03*
X028550Y004868D03*
X029175Y004118D03*
X026800Y004868D03*
X024925Y004118D03*
X024925Y005618D03*
X024925Y007868D03*
D73*
X026675Y018243D02*
X028800Y018243D01*
X029486Y018929D01*
X029970Y018929D01*
X029970Y019126D02*
X029433Y019126D01*
X028800Y018493D01*
X026425Y018493D01*
X026175Y018743D02*
X028800Y018743D01*
X029380Y019323D01*
X029970Y019323D01*
X029970Y019520D02*
X029327Y019520D01*
X028800Y018993D01*
X025925Y018993D01*
X025800Y019243D02*
X025050Y018493D01*
X025050Y018993D02*
X025550Y019493D01*
X028800Y019493D01*
X029220Y019914D01*
X029970Y019914D01*
X029970Y020110D02*
X029167Y020110D01*
X028800Y019743D01*
X027550Y019743D01*
X024675Y022618D01*
X024675Y023368D01*
X024925Y022868D02*
X027800Y019993D01*
X028800Y019993D01*
X029114Y020307D01*
X029970Y020307D01*
X029970Y019717D02*
X029273Y019717D01*
X028800Y019243D01*
X025800Y019243D01*
X031683Y021823D02*
X031683Y024485D01*
X030175Y025993D01*
X030175Y027368D01*
X030550Y027618D02*
X030550Y025993D01*
X031880Y024664D01*
X031880Y021823D01*
X032077Y021823D02*
X032077Y024842D01*
X030925Y025993D01*
X030925Y027868D01*
X031300Y028243D01*
X031300Y027618D02*
X031300Y025993D01*
X032273Y025020D01*
X032273Y021823D01*
X032470Y021823D02*
X032470Y026073D01*
X031675Y026868D01*
X031925Y027118D02*
X032667Y026376D01*
X032667Y021823D01*
X032864Y021823D02*
X032864Y026679D01*
X032675Y026868D01*
X033061Y026483D02*
X033175Y026618D01*
X033061Y026483D02*
X033061Y021823D01*
X055425Y021868D02*
X055529Y021764D01*
X056002Y021764D01*
X056002Y021173D02*
X055730Y021173D01*
X055675Y021118D01*
X055675Y020743D01*
X058175Y021118D02*
X058305Y020988D01*
X058305Y020445D01*
X058502Y020445D02*
X058502Y020820D01*
X058550Y020868D01*
X058550Y021118D01*
X058550Y020868D02*
X058699Y020720D01*
X058699Y020445D01*
X058895Y020445D02*
X058895Y021089D01*
X058925Y021118D01*
X059092Y020786D02*
X059289Y020983D01*
X059300Y021118D01*
X059289Y020983D02*
X059289Y020445D01*
X059092Y020445D02*
X059092Y020786D01*
X060425Y021118D02*
X060550Y020993D01*
X060550Y020868D01*
X060470Y020789D01*
X060470Y020445D01*
X060667Y020445D02*
X060667Y020751D01*
X060550Y020868D01*
X060800Y020868D02*
X060800Y021118D01*
X060800Y020868D02*
X060864Y020804D01*
X060864Y020445D01*
X063300Y021118D02*
X063300Y021493D01*
X063675Y021868D01*
X063675Y022368D01*
X063867Y022551D01*
X064348Y022551D01*
X064348Y022748D02*
X063680Y022748D01*
X063675Y022743D01*
X063667Y024126D02*
X063550Y024243D01*
X062050Y024243D01*
X061925Y024618D02*
X063550Y024618D01*
X063845Y024323D01*
X064348Y024323D01*
X064348Y024126D02*
X063667Y024126D01*
X063842Y025701D02*
X063675Y025868D01*
X063705Y025898D01*
X064348Y025898D01*
X064348Y025701D02*
X063842Y025701D01*
X063675Y026618D02*
X063939Y026882D01*
X064348Y026882D01*
X062439Y028132D02*
X062425Y028118D01*
X062439Y028132D02*
X062439Y028792D01*
X062242Y028792D02*
X062242Y028310D01*
X062050Y028118D01*
X060925Y028118D02*
X060667Y028376D01*
X060667Y028792D01*
X060470Y028792D02*
X060470Y028164D01*
X060425Y028118D01*
X060273Y028467D02*
X059925Y028118D01*
X060273Y028467D02*
X060273Y028792D01*
X060925Y028118D02*
X060925Y027868D01*
X060675Y027618D01*
X060675Y025868D01*
X058550Y028118D02*
X058305Y028363D01*
X058305Y028792D01*
X058108Y028792D02*
X058108Y028310D01*
X058175Y028243D01*
X058175Y028118D01*
X056730Y028792D02*
X056730Y029063D01*
X056425Y029368D01*
X057925Y032368D02*
X057675Y032618D01*
X057425Y032618D01*
X056685Y033359D01*
X056685Y033585D01*
X056370Y033585D02*
X056370Y034063D01*
X056425Y034118D01*
X056550Y034243D01*
X053850Y033818D02*
X053675Y033993D01*
X053550Y033993D01*
X053425Y033868D01*
X053850Y033818D02*
X053850Y033585D01*
X053142Y034294D02*
X050750Y034294D01*
X049425Y035618D01*
X049425Y036118D01*
X046175Y039368D01*
X045925Y039368D01*
X046425Y039368D02*
X049675Y036118D01*
X049675Y035618D01*
X050685Y034609D01*
X053142Y034609D01*
X053142Y034923D02*
X050620Y034923D01*
X049925Y035618D01*
X049925Y036118D01*
X046675Y039368D01*
X046675Y040618D01*
X045925Y041368D01*
X045925Y040368D02*
X046425Y039868D01*
X046425Y039368D01*
X052300Y036618D02*
X052300Y036168D01*
X052315Y036183D01*
X053142Y036183D01*
X053142Y035868D02*
X052800Y035868D01*
X052550Y035618D01*
X052350Y035618D01*
X052300Y035568D01*
X061300Y037868D02*
X061425Y037993D01*
X056486Y025307D02*
X056675Y025118D01*
X056486Y025307D02*
X056002Y025307D01*
X056002Y025110D02*
X056308Y025110D01*
X056675Y024743D01*
X056523Y024520D02*
X056675Y024368D01*
X056523Y024520D02*
X056002Y024520D01*
X063300Y021118D02*
X063620Y020813D01*
X063620Y020445D01*
X063745Y021173D02*
X063675Y021243D01*
X063745Y021173D02*
X064348Y021173D01*
X062050Y018118D02*
X062050Y017118D01*
X058300Y017118D02*
X058300Y018118D01*
X055425Y011868D02*
X055425Y009368D01*
X054925Y008868D01*
X054925Y008118D01*
X054675Y007868D01*
X053925Y007868D01*
X053425Y007368D01*
D74*
X053425Y008368D02*
X053425Y009168D01*
X053625Y009368D01*
X054225Y009368D02*
X054425Y009168D01*
X054425Y008368D01*
X054925Y007618D02*
X055425Y008118D01*
X055425Y008368D01*
X054925Y007618D02*
X054925Y007118D01*
X054425Y006618D01*
X052675Y006618D01*
X051675Y006618D01*
X051175Y006118D01*
X051675Y005618D01*
X051875Y005618D01*
X051925Y005568D01*
X051975Y005618D01*
X051925Y005618D01*
X051925Y005568D02*
X051925Y004668D01*
X051975Y004618D01*
X051925Y004118D02*
X052675Y004118D01*
X051925Y004118D02*
X051925Y004068D01*
X050675Y004055D02*
X050675Y004743D01*
X050675Y006118D02*
X051175Y006118D01*
X050675Y006118D02*
X050675Y006181D01*
X051925Y006168D02*
X051925Y006118D01*
X052675Y006118D01*
X052675Y006618D02*
X052675Y023868D01*
X053425Y024618D01*
X055175Y024618D01*
X049300Y023743D02*
X049173Y023866D01*
X048714Y023866D01*
X048714Y023670D02*
X048226Y023670D01*
X048175Y023618D01*
X048207Y023276D02*
X048175Y023243D01*
X048207Y023276D02*
X048714Y023276D01*
X048714Y024457D02*
X048336Y024457D01*
X048237Y024556D01*
X048335Y024654D01*
X048714Y024654D01*
X048714Y024851D02*
X048407Y024851D01*
X048175Y024618D01*
X048237Y024556D01*
X047675Y025118D02*
X047710Y025154D01*
X047710Y025658D01*
X047514Y025658D02*
X047514Y025155D01*
X047550Y025118D01*
X047675Y025118D01*
X047710Y025154D02*
X047907Y025351D01*
X047907Y025658D01*
X047800Y026118D02*
X047300Y026118D01*
X047237Y026056D01*
X047317Y025977D01*
X047317Y025658D01*
X047120Y025658D02*
X047120Y025938D01*
X047237Y026056D01*
X046923Y026116D02*
X046925Y026180D01*
X046923Y026116D02*
X046923Y025658D01*
X046726Y025658D02*
X046726Y025170D01*
X046675Y025118D01*
X046425Y025118D01*
X046529Y025223D01*
X046529Y025658D01*
X046332Y025658D02*
X046332Y025211D01*
X046425Y025118D01*
X046425Y024493D01*
X046550Y024368D01*
X045348Y025292D02*
X045175Y025118D01*
X045151Y025118D01*
X044800Y025118D01*
X044550Y025118D01*
X044364Y025304D01*
X044364Y025658D01*
X044561Y025658D02*
X044561Y026108D01*
X044425Y026243D01*
X044175Y026243D01*
X044167Y026235D01*
X044167Y025658D01*
X044758Y025658D02*
X044758Y025118D01*
X044800Y025118D01*
X045151Y025118D02*
X045151Y025658D01*
X045348Y025658D02*
X045348Y025292D01*
X045742Y025658D02*
X045742Y026185D01*
X045800Y026243D01*
X046136Y026408D02*
X045925Y026618D01*
X040425Y026618D01*
X040427Y025658D02*
X040427Y025245D01*
X040300Y025118D01*
X040175Y025118D01*
X040230Y025173D01*
X040230Y025658D01*
X040033Y025658D02*
X040033Y025135D01*
X040050Y025118D01*
X040175Y025118D01*
X040050Y025118D02*
X039800Y025118D01*
X039836Y025155D01*
X039836Y025658D01*
X039640Y025658D02*
X039640Y025154D01*
X039675Y025118D01*
X039550Y025118D01*
X039443Y025226D01*
X039175Y025493D01*
X039443Y025658D02*
X039443Y026878D01*
X039425Y026896D01*
X038425Y026896D02*
X038397Y026868D01*
X037425Y026868D01*
X039443Y025658D02*
X039443Y025226D01*
X039675Y025118D02*
X039800Y025118D01*
X038636Y024851D02*
X038193Y024851D01*
X038050Y024993D01*
X038636Y023473D02*
X039154Y023473D01*
X039175Y023493D01*
X039108Y022685D02*
X038636Y022685D01*
X038636Y022488D02*
X038180Y022488D01*
X038050Y022618D01*
X039108Y022685D02*
X039175Y022618D01*
X039175Y020743D02*
X039148Y020717D01*
X038636Y020717D01*
X038636Y019929D02*
X039986Y019929D01*
X040675Y020618D01*
X038636Y019733D02*
X038186Y019733D01*
X038114Y019805D01*
X034380Y019717D02*
X034023Y019717D01*
X033925Y019618D01*
X033925Y019493D01*
X033952Y019520D01*
X034380Y019520D01*
X034380Y019323D02*
X033970Y019323D01*
X033925Y019368D01*
X033925Y019493D01*
X033925Y019618D02*
X033425Y019618D01*
X033425Y018543D01*
X033651Y018317D01*
X033651Y017414D01*
X033925Y017868D02*
X034199Y018142D01*
X034380Y018142D01*
X031550Y017993D02*
X031486Y017929D01*
X031486Y017414D01*
X031289Y017414D02*
X031289Y017879D01*
X031175Y017993D01*
X030925Y017993D01*
X030699Y017767D01*
X030699Y017414D01*
X029175Y017193D02*
X029175Y016443D01*
X029100Y016368D01*
X028500Y016368D02*
X028425Y016443D01*
X028425Y016743D01*
X028425Y017193D01*
X028425Y017793D02*
X029175Y017793D01*
X029175Y018368D01*
X029539Y018733D01*
X029970Y018733D01*
X029970Y018536D02*
X030467Y018536D01*
X030550Y018493D01*
X029970Y020504D02*
X029539Y020504D01*
X029300Y020743D01*
X029175Y020743D01*
X029223Y020770D01*
X029175Y020818D01*
X028875Y020818D01*
X028675Y020618D01*
X028175Y020618D01*
X028175Y021618D02*
X028675Y021618D01*
X028875Y021418D01*
X029175Y021418D01*
X029175Y021868D01*
X029175Y022368D02*
X029175Y023095D01*
X028675Y023095D02*
X028675Y023868D01*
X028925Y024118D01*
X030550Y024118D01*
X031050Y023618D01*
X031050Y023118D01*
X030850Y022918D01*
X030850Y022618D01*
X030895Y022573D01*
X030895Y021823D01*
X030699Y021823D02*
X030699Y021345D01*
X030925Y021118D01*
X031092Y021286D01*
X031092Y021823D01*
X031289Y021823D02*
X031289Y020879D01*
X031300Y020868D01*
X031675Y021118D02*
X031486Y021307D01*
X031486Y021823D01*
X030887Y022582D02*
X030850Y022618D01*
X030250Y022618D02*
X029800Y022618D01*
X030250Y022618D02*
X030250Y022918D01*
X030050Y023118D01*
X030050Y023618D01*
X029175Y024618D02*
X028925Y024368D01*
X028425Y024368D01*
X028175Y024118D01*
X028175Y023095D01*
X027675Y023095D01*
X027675Y022618D01*
X027550Y022493D01*
X026550Y022493D01*
X024925Y024118D01*
X024300Y023493D01*
X024300Y021743D01*
X024675Y021368D01*
X024675Y015118D01*
X024300Y014243D02*
X023800Y014743D01*
X023800Y016493D01*
X023425Y016868D01*
X023425Y017142D01*
X023425Y018068D01*
X023475Y018118D01*
X023925Y018118D01*
X023475Y018118D02*
X023475Y018868D01*
X022875Y018868D02*
X022875Y018118D01*
X022925Y018068D01*
X022925Y017142D01*
X022425Y017142D02*
X022425Y016368D01*
X021925Y015868D01*
X021925Y015095D01*
X021651Y015095D01*
X021425Y014868D01*
X021800Y014493D02*
X021425Y014118D01*
X021375Y014118D01*
X021375Y013368D01*
X021050Y013368D01*
X020925Y013493D01*
X020600Y013493D01*
X020550Y013443D01*
X020550Y014043D02*
X020550Y014493D01*
X021800Y014493D02*
X022175Y014493D01*
X022425Y014743D01*
X022425Y015095D01*
X022925Y015095D02*
X022925Y014743D01*
X022300Y014118D01*
X021975Y014118D01*
X021975Y013368D01*
X021925Y013318D01*
X021925Y012868D01*
X021800Y012493D02*
X021375Y012918D01*
X021375Y013368D01*
X021975Y013368D02*
X021975Y013318D01*
X022050Y012493D02*
X022875Y013318D01*
X022875Y013368D01*
X023475Y013368D02*
X023675Y013368D01*
X024300Y013993D01*
X024300Y014243D01*
X023925Y014118D02*
X023475Y014118D01*
X023425Y014168D01*
X023425Y015095D01*
X023175Y015618D02*
X023175Y014368D01*
X022925Y014118D01*
X022875Y014118D01*
X023175Y015618D02*
X022675Y016118D01*
X021675Y016118D02*
X021675Y016618D01*
X021925Y016868D01*
X021925Y017142D01*
X021925Y018068D01*
X021975Y018118D01*
X021375Y018118D02*
X021375Y017443D01*
X020925Y016993D01*
X020925Y016618D01*
X020800Y015743D02*
X020925Y015618D01*
X020800Y015743D02*
X020675Y015743D01*
X020925Y018118D02*
X021375Y018118D01*
X021375Y018868D02*
X020925Y018868D01*
X021975Y018868D02*
X022875Y018868D01*
X022050Y019493D02*
X021800Y019493D01*
X021375Y019918D01*
X021375Y020368D01*
X021050Y020368D01*
X020925Y020493D01*
X020600Y020493D01*
X020550Y020443D01*
X020550Y021043D02*
X020550Y021493D01*
X021375Y021118D02*
X021375Y020368D01*
X021925Y020318D02*
X021975Y020368D01*
X021975Y020318D01*
X021925Y020318D02*
X021925Y019868D01*
X022050Y019493D02*
X022875Y020318D01*
X022875Y020368D01*
X023475Y020368D02*
X023675Y020368D01*
X024300Y020993D01*
X024300Y021243D01*
X023800Y021743D01*
X023800Y023493D01*
X023425Y023868D01*
X023425Y024142D01*
X023425Y025068D01*
X023475Y025118D01*
X023925Y025118D01*
X023475Y025118D02*
X023475Y025868D01*
X022875Y025868D02*
X022875Y025118D01*
X022925Y025068D01*
X022925Y024142D01*
X022425Y024142D02*
X022425Y023368D01*
X021925Y022868D01*
X021925Y022095D01*
X021651Y022095D01*
X021425Y021868D01*
X021800Y021493D02*
X021425Y021118D01*
X021375Y021118D01*
X021800Y021493D02*
X022175Y021493D01*
X022425Y021743D01*
X022425Y022095D01*
X022925Y022095D02*
X022925Y021743D01*
X022300Y021118D01*
X021975Y021118D01*
X021975Y020368D01*
X022875Y021118D02*
X022925Y021118D01*
X023175Y021368D01*
X023175Y022618D01*
X022675Y023118D01*
X021675Y023118D02*
X021675Y023618D01*
X021925Y023868D01*
X021925Y024142D01*
X021925Y025068D01*
X021975Y025118D01*
X021375Y025118D02*
X021375Y024443D01*
X020925Y023993D01*
X020925Y023618D01*
X020925Y025118D02*
X021375Y025118D01*
X021375Y025868D02*
X020925Y025868D01*
X021975Y025868D02*
X022875Y025868D01*
X024925Y024868D02*
X024925Y024118D01*
X025300Y024368D02*
X025300Y024743D01*
X030425Y029868D01*
X030425Y032618D01*
X030925Y033118D01*
X031300Y032743D02*
X031675Y032368D01*
X031675Y032095D01*
X031675Y031168D01*
X031625Y031118D01*
X031175Y031118D01*
X031625Y031118D02*
X031625Y030368D01*
X032225Y030368D02*
X032225Y031118D01*
X032175Y031168D01*
X032175Y032095D01*
X032675Y032095D02*
X032675Y032868D01*
X033175Y033368D01*
X033175Y034142D01*
X033449Y034142D01*
X033675Y034368D01*
X033300Y034743D02*
X032925Y034743D01*
X032675Y034493D01*
X032675Y034142D01*
X032175Y034142D02*
X032175Y034493D01*
X032800Y035118D01*
X033125Y035118D01*
X033125Y035868D01*
X033175Y035918D01*
X033175Y036368D01*
X033300Y036743D02*
X033725Y036318D01*
X033725Y035868D01*
X034050Y035868D01*
X034175Y035743D01*
X034500Y035743D01*
X034550Y035793D01*
X034550Y035193D02*
X034550Y034743D01*
X035050Y034368D02*
X035050Y036243D01*
X032488Y038805D01*
X031079Y038805D01*
X030175Y038868D02*
X030175Y039368D01*
X030864Y040057D01*
X031579Y040057D01*
X030175Y038868D02*
X028925Y037618D01*
X026925Y037618D01*
X024675Y035368D01*
X024675Y034993D01*
X024675Y034368D01*
X025675Y034693D02*
X025675Y033793D01*
X025675Y033243D02*
X025675Y033193D01*
X025625Y033193D01*
X025300Y032868D01*
X025675Y033243D01*
X025300Y032868D02*
X024925Y033243D01*
X024800Y033243D01*
X024675Y033368D01*
X025300Y032368D02*
X024975Y032043D01*
X024850Y032043D01*
X024675Y031868D01*
X025300Y032368D02*
X025550Y032118D01*
X025675Y032043D01*
X025675Y031443D02*
X025750Y031368D01*
X026425Y031368D01*
X026425Y031595D01*
X026425Y031368D02*
X026425Y030668D01*
X026375Y030618D01*
X025750Y030618D01*
X025675Y030543D01*
X025675Y029943D02*
X025675Y029493D01*
X025750Y029868D02*
X025675Y029943D01*
X025750Y029868D02*
X026375Y029868D01*
X026375Y029118D01*
X026975Y029118D02*
X026975Y029068D01*
X027675Y028368D01*
X028175Y028618D02*
X027750Y029043D01*
X027750Y029118D01*
X028350Y029118D02*
X028350Y029868D01*
X028875Y029868D01*
X029175Y030168D01*
X029175Y031068D01*
X029175Y031668D02*
X029175Y032118D01*
X029550Y032368D02*
X029175Y032743D01*
X029175Y033568D01*
X029175Y034168D02*
X029175Y035068D01*
X028875Y035368D01*
X028350Y035368D01*
X028350Y036118D01*
X027750Y036118D02*
X027750Y036443D01*
X027925Y036618D01*
X027425Y036868D02*
X026975Y036418D01*
X026975Y036118D01*
X026375Y036118D02*
X026375Y035368D01*
X025750Y035368D01*
X025675Y035293D01*
X025675Y035743D01*
X026975Y035368D02*
X026975Y034618D01*
X027425Y034168D01*
X027425Y033642D01*
X026925Y033642D02*
X026925Y034068D01*
X026375Y034618D01*
X025750Y034618D01*
X025675Y034693D01*
X026425Y033642D02*
X026425Y033368D01*
X026925Y032868D01*
X027925Y032368D02*
X027925Y031595D01*
X027925Y031243D01*
X028300Y030868D01*
X028300Y030668D01*
X028350Y030618D01*
X028425Y030543D01*
X027750Y030618D02*
X027750Y029868D01*
X027750Y030618D02*
X027425Y030943D01*
X027425Y031595D01*
X026925Y031595D02*
X026925Y030668D01*
X026975Y030618D01*
X026975Y029868D01*
X029175Y029568D02*
X029175Y029118D01*
X024925Y024868D01*
X025675Y024743D02*
X030800Y029868D01*
X030800Y032118D01*
X031050Y032368D01*
X031300Y032743D02*
X031300Y034493D01*
X030800Y034993D01*
X030800Y035243D01*
X031425Y035868D01*
X031625Y035868D01*
X032225Y035868D02*
X032225Y035918D01*
X033050Y036743D01*
X033300Y036743D01*
X033125Y035918D02*
X033125Y035868D01*
X033725Y035868D02*
X033725Y035118D01*
X033675Y035118D01*
X033300Y034743D01*
X032225Y035118D02*
X032175Y035118D01*
X031925Y034868D01*
X031925Y033618D01*
X032425Y033118D01*
X033425Y033118D02*
X033425Y032618D01*
X033175Y032368D01*
X033175Y032095D01*
X033175Y031168D01*
X033125Y031118D01*
X033725Y031118D02*
X034175Y031118D01*
X033725Y031118D02*
X033725Y031793D01*
X034175Y032243D01*
X034175Y032618D01*
X035300Y032868D02*
X035300Y030618D01*
X034300Y029618D01*
X031300Y029618D01*
X026425Y024743D01*
X026425Y023243D01*
X026050Y023618D02*
X026050Y024743D01*
X031175Y029868D01*
X034175Y029868D01*
X035050Y030743D01*
X035050Y033368D01*
X034300Y033618D02*
X035050Y034368D01*
X035300Y034993D02*
X035800Y034493D01*
X035800Y032743D01*
X036175Y032368D01*
X036175Y032095D01*
X036175Y031168D01*
X036125Y031118D01*
X035675Y031118D01*
X036125Y031118D02*
X036125Y030368D01*
X036725Y030368D02*
X036725Y031118D01*
X036675Y031168D01*
X036675Y032095D01*
X037175Y032095D02*
X037175Y032868D01*
X037675Y033368D01*
X037675Y034142D01*
X037949Y034142D01*
X038175Y034368D01*
X037800Y034743D02*
X037425Y034743D01*
X037175Y034493D01*
X037175Y034142D01*
X036675Y034142D02*
X036675Y034493D01*
X037300Y035118D01*
X037625Y035118D01*
X037625Y035868D01*
X037675Y035918D01*
X037675Y036368D01*
X037800Y036743D02*
X038225Y036318D01*
X038225Y035868D01*
X038550Y035868D01*
X038675Y035743D01*
X039000Y035743D01*
X039050Y035793D01*
X039050Y035193D02*
X039050Y034743D01*
X039550Y034368D02*
X039550Y037334D01*
X038079Y038805D01*
X037800Y036743D02*
X037550Y036743D01*
X036725Y035918D01*
X036725Y035868D01*
X036125Y035868D02*
X035925Y035868D01*
X035300Y035243D01*
X035300Y034993D01*
X035675Y035118D02*
X036125Y035118D01*
X036175Y035068D01*
X036175Y034142D01*
X036425Y033618D02*
X036925Y033118D01*
X036425Y033618D02*
X036425Y034868D01*
X036675Y035118D01*
X036725Y035118D01*
X037800Y034743D02*
X038175Y035118D01*
X038225Y035118D01*
X038225Y035868D01*
X037625Y035868D02*
X037625Y035918D01*
X039550Y034368D02*
X038800Y033618D01*
X038675Y033618D01*
X037925Y033118D02*
X037925Y032618D01*
X037675Y032368D01*
X037675Y032095D01*
X037675Y031168D01*
X037625Y031118D01*
X038225Y031118D02*
X038675Y031118D01*
X038225Y031118D02*
X038225Y031793D01*
X038675Y032243D01*
X038675Y032618D01*
X040175Y030868D02*
X039425Y030118D01*
X039425Y029618D01*
X038675Y030368D02*
X038225Y030368D01*
X037625Y030368D02*
X036725Y030368D01*
X034175Y030368D02*
X033725Y030368D01*
X033125Y030368D02*
X032225Y030368D01*
X031425Y029118D02*
X029175Y026868D01*
X029175Y025142D01*
X029175Y024618D01*
X028675Y025142D02*
X028175Y025142D01*
X027675Y025142D02*
X027675Y024868D01*
X027300Y024493D01*
X027125Y024493D01*
X027050Y024493D01*
X027050Y024868D01*
X027125Y024493D02*
X027050Y024418D01*
X027050Y023818D02*
X027050Y023368D01*
X025675Y023993D02*
X025675Y024743D01*
X023425Y022095D02*
X023425Y021168D01*
X023475Y021118D01*
X023925Y021118D01*
X019425Y019868D02*
X018425Y018868D01*
X015175Y018868D01*
X014625Y019418D01*
X014625Y019618D01*
X013800Y019618D01*
X013425Y019243D01*
X011000Y019243D01*
X010625Y019618D01*
X010925Y019918D02*
X011225Y019618D01*
X012125Y019618D01*
X012725Y019618D02*
X013175Y019618D01*
X015050Y020243D02*
X015250Y020443D01*
X015675Y020443D01*
X015675Y020493D01*
X015300Y020868D02*
X015475Y021043D01*
X015675Y021043D01*
X016425Y021043D01*
X016425Y020443D02*
X016425Y019918D01*
X016125Y019618D01*
X015225Y019618D01*
X016725Y019618D02*
X017175Y019618D01*
X017175Y020443D02*
X016425Y020443D01*
X017175Y021043D02*
X017475Y021043D01*
X017675Y021243D01*
X017375Y021818D02*
X017675Y022118D01*
X017375Y021818D02*
X017175Y021818D01*
X017175Y022418D02*
X016425Y022418D01*
X016425Y023043D01*
X016350Y023118D01*
X016800Y023118D01*
X015750Y023118D02*
X014850Y023118D01*
X014300Y023118D02*
X014250Y023118D01*
X014250Y023168D01*
X013925Y023493D01*
X014300Y023118D01*
X013925Y023493D02*
X014300Y023868D01*
X014300Y023993D01*
X014425Y024118D01*
X015425Y024118D02*
X016050Y024118D01*
X015750Y023118D02*
X015675Y023043D01*
X015675Y022418D01*
X015125Y021868D01*
X014699Y021868D01*
X014699Y021368D02*
X015225Y021368D01*
X015675Y021818D01*
X016425Y021818D01*
X014699Y022368D02*
X014425Y022368D01*
X013925Y021868D01*
X012651Y021868D02*
X011725Y021868D01*
X011675Y021818D01*
X010925Y021818D01*
X010925Y022418D02*
X010175Y022418D01*
X009675Y022118D02*
X009975Y021818D01*
X010175Y021818D01*
X009675Y021368D02*
X010000Y021043D01*
X010175Y021043D01*
X010175Y020443D02*
X010925Y020443D01*
X010925Y019918D01*
X011600Y020368D02*
X011675Y020443D01*
X011725Y020493D01*
X011925Y020493D01*
X012300Y020868D01*
X012651Y020868D01*
X013425Y020868D01*
X012651Y021368D02*
X012000Y021368D01*
X011675Y021043D01*
X010925Y021043D01*
X010925Y022418D02*
X010925Y023043D01*
X011000Y023118D01*
X010550Y023118D01*
X011600Y023118D02*
X011675Y023043D01*
X011675Y022418D01*
X011725Y022368D01*
X012425Y022368D01*
X012425Y023043D01*
X012500Y023118D01*
X013100Y023118D02*
X013175Y023243D01*
X013425Y023493D01*
X013100Y023818D01*
X013100Y023943D01*
X012925Y024118D01*
X012651Y022368D02*
X012425Y022368D01*
X014699Y020868D02*
X015300Y020868D01*
X029970Y020701D02*
X030383Y020701D01*
X030550Y020868D01*
X033258Y021823D02*
X033258Y022201D01*
X033425Y022368D01*
X033455Y022368D01*
X033455Y021823D01*
X033651Y021823D02*
X033651Y022368D01*
X033455Y022368D01*
X033651Y022368D02*
X033925Y022368D01*
X033901Y021095D02*
X033800Y020993D01*
X033901Y021095D02*
X034380Y021095D01*
X038636Y017961D02*
X039018Y017961D01*
X039175Y018118D01*
X039532Y016386D02*
X038636Y016386D01*
X039443Y016011D02*
X039443Y015579D01*
X039640Y015579D02*
X039640Y016208D01*
X039675Y016243D01*
X039532Y016386D01*
X039675Y016243D02*
X039836Y016082D01*
X039836Y015579D01*
X040033Y015579D02*
X040033Y015885D01*
X039836Y016082D01*
X039640Y016208D02*
X039443Y016011D01*
X040230Y015579D02*
X040230Y015173D01*
X040050Y014993D01*
X041018Y015579D02*
X041018Y015961D01*
X041175Y016118D01*
X042675Y016118D02*
X042789Y016004D01*
X042789Y015579D01*
X042986Y015579D02*
X042986Y015057D01*
X043050Y014993D01*
X043773Y015579D02*
X043773Y016092D01*
X043800Y016118D01*
X044925Y016118D02*
X044955Y015964D01*
X044955Y015579D01*
X045151Y015579D02*
X045151Y015142D01*
X045300Y014993D01*
X047120Y015579D02*
X047120Y015938D01*
X047300Y016118D01*
X047317Y016102D01*
X047317Y015579D01*
X047514Y015579D02*
X047514Y016082D01*
X047550Y016118D01*
X047675Y016118D01*
X047710Y016083D01*
X047710Y015579D01*
X047907Y015579D02*
X047907Y016011D01*
X047800Y016118D01*
X047675Y016118D01*
X047550Y016118D02*
X047300Y016118D01*
X048175Y016618D02*
X048407Y016386D01*
X048714Y016386D01*
X048714Y016583D02*
X049210Y016583D01*
X049300Y016493D01*
X048714Y018355D02*
X048286Y018355D01*
X048175Y018243D01*
X048714Y018551D02*
X047483Y018551D01*
X047425Y018493D01*
X048714Y018748D02*
X049170Y018748D01*
X049300Y018618D01*
X048714Y020717D02*
X048273Y020717D01*
X048175Y020618D01*
X048183Y021110D02*
X048175Y021118D01*
X048183Y021110D02*
X048714Y021110D01*
X048714Y020914D02*
X049255Y020914D01*
X049300Y020868D01*
X043183Y025126D02*
X043175Y025118D01*
X043183Y025126D02*
X043183Y025658D01*
X042199Y025658D02*
X042199Y025267D01*
X042050Y025118D01*
X042002Y025658D02*
X042002Y026167D01*
X041800Y026368D01*
X039425Y027841D02*
X039425Y028368D01*
X038425Y028368D02*
X038425Y027841D01*
X040675Y029768D02*
X040675Y030493D01*
X040175Y030868D02*
X041175Y030868D01*
X042175Y031868D01*
X042175Y033743D01*
X042350Y033918D01*
X042675Y033918D01*
X043425Y033918D01*
X043425Y033318D02*
X043425Y032532D01*
X042675Y032532D02*
X042675Y033318D01*
X042675Y031705D02*
X042675Y031243D01*
X043425Y031243D02*
X043425Y031705D01*
X049675Y033118D02*
X050175Y032618D01*
X051175Y032618D01*
X052175Y031618D01*
X052175Y030618D02*
X052675Y030118D01*
X052175Y029618D02*
X051425Y029618D01*
X051425Y028368D02*
X052175Y028368D01*
X048175Y026845D02*
X048175Y026493D01*
X047800Y026118D01*
X046136Y026408D02*
X046136Y025658D01*
X053675Y032618D02*
X054175Y032618D01*
X054175Y032668D01*
X054125Y032618D01*
X054175Y032668D02*
X054175Y032868D01*
X054300Y032993D01*
X054925Y032993D01*
X055110Y033178D01*
X055110Y033585D01*
X054795Y033585D02*
X054795Y033988D01*
X054925Y034118D01*
X054480Y034063D02*
X054425Y034118D01*
X054480Y034063D02*
X054480Y033585D01*
X054165Y033585D02*
X054165Y033234D01*
X054050Y033118D01*
X051425Y033118D01*
X049175Y035368D01*
X049175Y036118D01*
X046925Y038368D01*
X046675Y038368D01*
X047925Y039118D02*
X048425Y039118D01*
X048625Y039318D01*
X048925Y039318D01*
X048925Y038868D01*
X049675Y038595D02*
X049675Y037868D01*
X050175Y038118D02*
X050425Y037868D01*
X050675Y038118D01*
X050675Y038595D01*
X050175Y038595D02*
X050175Y038118D01*
X051175Y038595D02*
X051899Y038595D01*
X051925Y038568D01*
X051925Y039118D02*
X051925Y039168D01*
X051975Y039168D01*
X052425Y039618D01*
X052175Y039868D01*
X051925Y040068D01*
X051925Y040118D01*
X051899Y040642D02*
X051925Y040668D01*
X051899Y040642D02*
X051175Y040642D01*
X050675Y040642D02*
X050675Y041368D01*
X054563Y041368D01*
X055175Y041981D01*
X055675Y042118D02*
X053925Y043868D01*
X053425Y043868D01*
X050425Y043868D01*
X049550Y042993D01*
X047300Y042993D01*
X047299Y042994D01*
X047242Y042994D01*
X047049Y042867D01*
X046800Y042618D01*
X046800Y041743D01*
X047050Y041493D01*
X047241Y041493D01*
X047242Y041494D01*
X047242Y042242D02*
X047549Y042242D01*
X047675Y042368D01*
X048175Y042368D01*
X048425Y042618D01*
X048108Y041868D02*
X049758Y041801D01*
X051108Y043152D01*
X049159Y043368D02*
X048108Y043368D01*
X047242Y043742D02*
X047051Y043742D01*
X046675Y043368D01*
X047051Y042242D02*
X047242Y042242D01*
X049159Y043368D02*
X051108Y045317D01*
X055675Y042118D02*
X055675Y041118D01*
X057425Y039368D01*
X057425Y038618D01*
X058675Y037368D01*
X058675Y032993D01*
X058975Y032693D01*
X059425Y032693D01*
X057425Y032993D02*
X057000Y033419D01*
X057000Y033585D01*
X056300Y032993D02*
X055550Y032993D01*
X055425Y033118D01*
X055425Y033585D01*
X056300Y032993D02*
X056425Y032868D01*
X056425Y032668D01*
X056425Y032618D01*
X056925Y032618D01*
X056475Y032618D02*
X056425Y032668D01*
X055875Y032618D02*
X055300Y032618D01*
X054725Y032618D01*
X058125Y034294D02*
X058300Y034118D01*
X058125Y034294D02*
X057708Y034294D01*
X057708Y034609D02*
X058165Y034609D01*
X058300Y034743D01*
X054675Y036368D02*
X053860Y035553D01*
X053142Y035553D01*
X053142Y036498D02*
X054305Y036498D01*
X054675Y036868D01*
X054550Y037243D02*
X057050Y037243D01*
X056925Y037618D02*
X057000Y037669D01*
X057000Y038152D01*
X056685Y038152D02*
X056685Y037753D01*
X056550Y037618D01*
X054550Y037243D02*
X054120Y036813D01*
X053142Y036813D01*
X053142Y037128D02*
X053560Y037128D01*
X053850Y037419D01*
X053850Y038152D01*
X053850Y038544D01*
X053925Y038618D01*
X054425Y038618D01*
X054480Y038563D01*
X054480Y038152D01*
X054165Y038152D02*
X054165Y037628D01*
X054300Y037493D01*
X053142Y037128D02*
X052685Y037128D01*
X052550Y036993D01*
X052925Y038368D02*
X050550Y035993D01*
X050175Y035868D02*
X050175Y036118D01*
X052675Y038618D01*
X052675Y039618D01*
X053925Y040868D01*
X054850Y040868D01*
X055175Y041193D01*
X055175Y040406D02*
X055138Y040368D01*
X053925Y040368D01*
X052925Y039368D01*
X052925Y038368D01*
X050175Y040642D02*
X050175Y041368D01*
X050675Y041368D01*
X050175Y041368D02*
X049675Y041368D01*
X049675Y040642D01*
X049675Y041368D02*
X049425Y041368D01*
X048925Y040868D01*
X048925Y039918D01*
X048625Y039918D01*
X048425Y040118D01*
X047925Y040118D01*
X050175Y035868D02*
X050550Y035493D01*
X057925Y038618D02*
X059683Y040376D01*
X059683Y041014D01*
X034300Y033618D02*
X034175Y033618D01*
X031675Y034142D02*
X031675Y035068D01*
X031625Y035118D01*
X031175Y035118D01*
X029175Y035668D02*
X029175Y036118D01*
X027750Y035368D02*
X027750Y034618D01*
X027750Y034418D01*
X027925Y034243D01*
X027925Y033642D01*
X028350Y034193D02*
X028550Y033993D01*
X028350Y034193D02*
X028350Y034618D01*
X028300Y034618D01*
X029550Y032368D02*
X029550Y029943D01*
X029175Y029568D01*
X024675Y030243D02*
X024675Y030868D01*
X015175Y033118D02*
X014600Y032543D01*
X014600Y032493D01*
X014000Y032493D02*
X013925Y032418D01*
X013925Y031618D01*
X013550Y031243D01*
X012949Y031243D01*
X012949Y030743D01*
X012949Y031743D02*
X012175Y031743D01*
X012175Y032443D01*
X012225Y032493D01*
X011625Y032493D02*
X010925Y032493D01*
X010901Y031743D02*
X010600Y031743D01*
X009850Y032493D01*
X009250Y032493D02*
X009250Y032543D01*
X008675Y033118D01*
X008675Y034618D01*
X008925Y034868D01*
X009125Y034868D01*
X009175Y034918D01*
X009425Y035418D02*
X009925Y034918D01*
X009975Y034868D01*
X010901Y034868D01*
X010901Y034368D02*
X009975Y034368D01*
X009925Y034318D01*
X009175Y034318D01*
X009250Y033618D02*
X009250Y033543D01*
X009675Y033118D01*
X010175Y033118D01*
X010425Y033368D01*
X010901Y033368D01*
X012949Y033368D01*
X012949Y033868D02*
X013875Y033868D01*
X013925Y033818D01*
X014675Y033818D01*
X014725Y034368D02*
X014675Y034418D01*
X014725Y034368D02*
X014925Y034368D01*
X015175Y034118D01*
X015175Y033118D01*
X013875Y034368D02*
X013925Y034418D01*
X013925Y034868D01*
X014925Y035868D01*
X014925Y036618D01*
X012425Y036618D02*
X012425Y036118D01*
X012225Y035918D01*
X012225Y035618D01*
X012175Y035568D01*
X012175Y034868D01*
X012949Y034868D01*
X012949Y034368D02*
X013875Y034368D01*
X011625Y035618D02*
X011625Y035918D01*
X011425Y036118D01*
X011425Y036618D01*
X010925Y036618D01*
X009425Y036618D02*
X009425Y035418D01*
X010100Y033868D02*
X009850Y033618D01*
X010100Y033868D02*
X010901Y033868D01*
X010901Y031743D02*
X010901Y031243D01*
X010901Y030243D02*
X011800Y030243D01*
X035550Y015896D02*
X035550Y015368D01*
X035425Y014368D02*
X033425Y014368D01*
X032175Y013118D01*
X032175Y011118D01*
X032541Y010752D01*
X033323Y010752D01*
X033323Y010496D02*
X034297Y010496D01*
X034425Y010368D01*
X034785Y009729D02*
X034175Y009118D01*
X034785Y009729D02*
X035527Y009729D01*
X033323Y009729D02*
X032315Y009729D01*
X031925Y010118D01*
X031925Y010618D02*
X032559Y009984D01*
X033323Y009984D01*
X033323Y010240D02*
X032803Y010240D01*
X032800Y010243D01*
X032785Y011008D02*
X032425Y011368D01*
X032425Y012868D01*
X033675Y014118D01*
X034675Y014118D01*
X035175Y013618D01*
X035425Y014368D02*
X036175Y013618D01*
X034925Y011618D02*
X035279Y011264D01*
X035527Y011264D01*
X033323Y011008D02*
X032785Y011008D01*
X025975Y007868D02*
X025975Y007118D01*
X026300Y007118D01*
X026800Y006618D01*
X026800Y005368D01*
X026926Y005242D01*
X027222Y005242D01*
X027222Y004868D02*
X026800Y004868D01*
X026801Y004494D02*
X026425Y004118D01*
X025975Y004118D01*
X025975Y004868D01*
X025800Y005243D02*
X025550Y005243D01*
X025375Y005068D01*
X025375Y004868D01*
X024925Y004868D01*
X021175Y008618D01*
X017925Y008618D01*
X016425Y010118D01*
X016271Y010238D01*
X021800Y012493D02*
X022050Y012493D01*
X023271Y010238D02*
X023271Y008772D01*
X024925Y007118D01*
X025375Y007118D01*
X025375Y006918D01*
X025550Y006743D01*
X025800Y006743D01*
X025975Y006568D01*
X025975Y006368D01*
X025375Y006368D02*
X025375Y005618D01*
X024925Y005618D01*
X025800Y005243D02*
X025975Y005418D01*
X025975Y005618D01*
X026801Y004494D02*
X027222Y004494D01*
X028128Y004494D02*
X028799Y004494D01*
X029175Y004118D01*
X029175Y004868D02*
X028801Y005242D01*
X028128Y005242D01*
X028128Y004868D02*
X028550Y004868D01*
X025375Y004118D02*
X024925Y004118D01*
X024925Y007868D02*
X025375Y007868D01*
X043050Y012118D02*
X043550Y012118D01*
X043581Y012149D01*
X043581Y012764D01*
X044210Y012764D02*
X044210Y012279D01*
X044050Y012118D01*
X043550Y012118D01*
X045155Y012388D02*
X045425Y012118D01*
X045155Y012388D02*
X045155Y012764D01*
X046100Y012764D02*
X046100Y012294D01*
X045925Y012118D01*
X047045Y012123D02*
X047045Y012764D01*
X047675Y012764D02*
X047675Y013243D01*
X047550Y013368D01*
X047045Y012123D02*
X047050Y012118D01*
X051769Y012764D02*
X051769Y013213D01*
X052300Y013743D01*
X051769Y008473D02*
X051769Y007774D01*
X052050Y007493D01*
X047925Y007493D02*
X047675Y007743D01*
X047675Y008473D01*
X047045Y008473D02*
X047045Y007873D01*
X047050Y007868D01*
X046300Y007493D02*
X046100Y007693D01*
X046100Y008473D01*
X045155Y008473D02*
X045155Y007888D01*
X045175Y007868D01*
X044300Y007943D02*
X044210Y008033D01*
X044210Y008473D01*
X044300Y007943D02*
X044300Y007743D01*
X044300Y007493D01*
X044300Y007743D02*
X043800Y007743D01*
X043581Y007963D01*
X043581Y008473D01*
X058925Y005168D02*
X059536Y005168D01*
X059925Y005557D01*
X058925Y004568D02*
X058925Y004118D01*
X059925Y004118D02*
X059925Y004179D01*
X059925Y004118D02*
X060425Y004118D01*
X069425Y020118D02*
X069577Y020270D01*
X069577Y020839D01*
X069425Y027618D02*
X069577Y027770D01*
X069577Y028398D01*
X067805Y028398D02*
X067805Y028863D01*
X067675Y028993D01*
X071545Y028398D02*
X071545Y027873D01*
X071675Y027743D01*
D75*
X062175Y033368D02*
X061762Y033368D01*
X061762Y033494D01*
X061750Y033540D01*
X061727Y033581D01*
X061693Y033615D01*
X061652Y033638D01*
X061606Y033651D01*
X061425Y033651D01*
X061244Y033651D01*
X061198Y033638D01*
X061157Y033615D01*
X061123Y033581D01*
X061100Y033540D01*
X061088Y033494D01*
X061088Y033368D01*
X060762Y033368D01*
X060762Y033494D01*
X060750Y033540D01*
X060727Y033581D01*
X060693Y033615D01*
X060652Y033638D01*
X060606Y033651D01*
X060425Y033651D01*
X060244Y033651D01*
X060198Y033638D01*
X060157Y033615D01*
X060123Y033581D01*
X060100Y033540D01*
X060088Y033494D01*
X060088Y033368D01*
X059762Y033368D01*
X059762Y033494D01*
X059750Y033540D01*
X059727Y033581D01*
X059693Y033615D01*
X059652Y033638D01*
X059606Y033651D01*
X059425Y033651D01*
X059244Y033651D01*
X059198Y033638D01*
X059157Y033615D01*
X059123Y033581D01*
X059100Y033540D01*
X059088Y033494D01*
X059088Y033368D01*
X058925Y033368D01*
X058925Y035868D01*
X062175Y035868D01*
X062175Y033368D01*
X062175Y033483D02*
X061762Y033483D01*
X061638Y033642D02*
X062175Y033642D01*
X062175Y033800D02*
X061309Y033800D01*
X061314Y033816D02*
X061314Y034193D01*
X060505Y034193D01*
X060505Y033660D01*
X061157Y033660D01*
X061203Y033672D01*
X061244Y033696D01*
X061278Y033730D01*
X061301Y033771D01*
X061314Y033816D01*
X061314Y033959D02*
X062175Y033959D01*
X062175Y034117D02*
X061314Y034117D01*
X061314Y034353D02*
X061314Y034730D01*
X061301Y034776D01*
X061278Y034817D01*
X061244Y034850D01*
X061203Y034874D01*
X061157Y034886D01*
X060505Y034886D01*
X060505Y034353D01*
X061314Y034353D01*
X061314Y034434D02*
X062175Y034434D01*
X062175Y034276D02*
X060505Y034276D01*
X060505Y034353D02*
X060505Y034193D01*
X060345Y034193D01*
X060345Y033660D01*
X059693Y033660D01*
X059647Y033672D01*
X059606Y033696D01*
X059572Y033730D01*
X059549Y033771D01*
X059536Y033816D01*
X059536Y034193D01*
X060345Y034193D01*
X060345Y034353D01*
X059536Y034353D01*
X059536Y034730D01*
X059549Y034776D01*
X059572Y034817D01*
X059606Y034850D01*
X059647Y034874D01*
X059693Y034886D01*
X060345Y034886D01*
X060345Y034353D01*
X060505Y034353D01*
X060505Y034434D02*
X060345Y034434D01*
X060345Y034276D02*
X058925Y034276D01*
X058925Y034434D02*
X059536Y034434D01*
X059536Y034593D02*
X058925Y034593D01*
X058925Y034751D02*
X059542Y034751D01*
X059536Y034117D02*
X058925Y034117D01*
X058925Y033959D02*
X059536Y033959D01*
X059541Y033800D02*
X058925Y033800D01*
X058925Y033642D02*
X059212Y033642D01*
X059088Y033483D02*
X058925Y033483D01*
X059425Y033483D02*
X059425Y033483D01*
X059425Y033368D02*
X059425Y033651D01*
X059425Y033368D01*
X059425Y033368D01*
X059425Y033642D02*
X059425Y033642D01*
X059638Y033642D02*
X060212Y033642D01*
X060088Y033483D02*
X059762Y033483D01*
X060425Y033483D02*
X060425Y033483D01*
X060425Y033368D02*
X060425Y033651D01*
X060425Y033368D01*
X060425Y033368D01*
X060425Y033642D02*
X060425Y033642D01*
X060345Y033800D02*
X060505Y033800D01*
X060505Y033959D02*
X060345Y033959D01*
X060345Y034117D02*
X060505Y034117D01*
X060505Y034593D02*
X060345Y034593D01*
X060345Y034751D02*
X060505Y034751D01*
X061308Y034751D02*
X062175Y034751D01*
X062175Y034593D02*
X061314Y034593D01*
X062175Y034910D02*
X058925Y034910D01*
X058925Y035068D02*
X062175Y035068D01*
X062175Y035227D02*
X058925Y035227D01*
X058925Y035385D02*
X062175Y035385D01*
X062175Y035544D02*
X058925Y035544D01*
X058925Y035702D02*
X062175Y035702D01*
X062175Y035861D02*
X058925Y035861D01*
X060638Y033642D02*
X061212Y033642D01*
X061088Y033483D02*
X060762Y033483D01*
X061425Y033483D02*
X061425Y033483D01*
X061425Y033368D02*
X061425Y033651D01*
X061425Y033368D01*
X061425Y033368D01*
X061425Y033642D02*
X061425Y033642D01*
X066675Y034868D02*
X067175Y034868D01*
X069175Y036868D01*
X069175Y038118D01*
X070175Y039118D01*
X070175Y040126D01*
X070667Y040618D01*
X072675Y041868D02*
X073175Y041368D01*
X073175Y040343D01*
X073245Y039743D01*
X073275Y038968D01*
X072675Y038368D01*
X072675Y038118D01*
X070925Y036368D01*
X073175Y037618D02*
X073675Y037618D01*
X073925Y037368D01*
X073925Y036618D01*
X074925Y036618D02*
X074925Y035868D01*
X075175Y037618D02*
X075075Y037718D01*
X075105Y039743D01*
X075075Y041343D01*
X074925Y041493D01*
X074925Y041732D01*
X074937Y041744D01*
X074937Y042118D02*
X075425Y042118D01*
X075049Y042492D02*
X074937Y042492D01*
X075049Y042492D02*
X075425Y042868D01*
X073925Y042504D02*
X073913Y042492D01*
X073913Y041744D01*
X073426Y041744D01*
X073300Y041868D01*
X072675Y041868D01*
X072675Y042868D02*
X073425Y042868D01*
X050925Y031618D02*
X050675Y031368D01*
X050350Y031368D01*
X049750Y031368D02*
X049725Y031343D01*
X049725Y030618D01*
X049725Y030568D01*
X050800Y029493D01*
X050800Y027493D01*
X049425Y026118D01*
X049425Y026868D02*
X049425Y027468D01*
X049275Y027618D01*
X049550Y027618D01*
X050300Y028368D01*
X050300Y029293D01*
X049725Y029868D01*
X049125Y029868D02*
X049125Y030618D01*
X049125Y032118D01*
X048625Y032618D01*
X048175Y032618D01*
X047675Y032118D01*
X046895Y032118D01*
X044455Y032118D01*
X044535Y032057D02*
X046175Y032057D01*
X046175Y032215D02*
X045068Y032215D01*
X045068Y032198D02*
X045068Y032851D01*
X045056Y032896D01*
X045032Y032938D01*
X044999Y032971D01*
X044957Y032995D01*
X044912Y033007D01*
X044535Y033007D01*
X044535Y032198D01*
X045068Y032198D01*
X045068Y032038D02*
X044535Y032038D01*
X044535Y031230D01*
X044912Y031230D01*
X044957Y031242D01*
X044999Y031266D01*
X045032Y031299D01*
X045056Y031340D01*
X045068Y031386D01*
X045068Y032038D01*
X045068Y031898D02*
X046175Y031898D01*
X046175Y031740D02*
X045068Y031740D01*
X045068Y031581D02*
X046175Y031581D01*
X046175Y031423D02*
X045068Y031423D01*
X044996Y031264D02*
X046175Y031264D01*
X046175Y031106D02*
X044175Y031106D01*
X044175Y031230D02*
X044375Y031230D01*
X044375Y032038D01*
X044535Y032038D01*
X044535Y032198D01*
X044375Y032198D01*
X044375Y033007D01*
X044175Y033007D01*
X044175Y034368D01*
X045925Y034368D01*
X045925Y033868D01*
X046175Y033618D01*
X046175Y030868D01*
X044175Y030868D01*
X044175Y031230D01*
X044375Y031264D02*
X044535Y031264D01*
X044535Y031423D02*
X044375Y031423D01*
X044375Y031581D02*
X044535Y031581D01*
X044535Y031740D02*
X044375Y031740D01*
X044375Y031898D02*
X044535Y031898D01*
X044535Y032215D02*
X044375Y032215D01*
X044375Y032374D02*
X044535Y032374D01*
X044535Y032532D02*
X044375Y032532D01*
X044375Y032691D02*
X044535Y032691D01*
X044535Y032849D02*
X044375Y032849D01*
X044175Y033008D02*
X046175Y033008D01*
X046175Y033166D02*
X044175Y033166D01*
X044175Y033325D02*
X046175Y033325D01*
X046175Y033483D02*
X044175Y033483D01*
X044175Y033642D02*
X046151Y033642D01*
X045993Y033800D02*
X044175Y033800D01*
X044175Y033959D02*
X045925Y033959D01*
X045925Y034117D02*
X044175Y034117D01*
X044175Y034276D02*
X045925Y034276D01*
X046300Y034118D02*
X046925Y034118D01*
X048175Y034118D01*
X048925Y033118D02*
X049675Y032368D01*
X049675Y032168D01*
X049725Y032118D01*
X050425Y032118D01*
X048925Y033118D02*
X048925Y035493D01*
X048050Y036368D01*
X045675Y036368D01*
X044675Y036368D02*
X043925Y036368D01*
X043800Y036243D01*
X043050Y036243D01*
X043050Y035243D02*
X043800Y035243D01*
X043925Y035118D01*
X044675Y035118D01*
X045675Y035118D02*
X046300Y035118D01*
X046925Y035118D01*
X048175Y035118D01*
X046925Y034118D02*
X046895Y034088D01*
X046895Y033028D01*
X046175Y032849D02*
X045068Y032849D01*
X045068Y032691D02*
X046175Y032691D01*
X046175Y032532D02*
X045068Y032532D01*
X045068Y032374D02*
X046175Y032374D01*
X046675Y031118D02*
X046805Y031118D01*
X046925Y031118D01*
X046925Y030493D01*
X046550Y030118D01*
X046116Y030118D01*
X046049Y030051D01*
X046425Y029493D02*
X046675Y029493D01*
X046675Y028892D01*
X047175Y028892D02*
X047175Y029493D01*
X047675Y029493D01*
X047675Y028892D01*
X048175Y028892D02*
X048175Y029368D01*
X048050Y029493D01*
X047675Y029493D01*
X047175Y029493D02*
X046675Y029493D01*
X046425Y029493D02*
X046050Y029118D01*
X045675Y029118D01*
X045675Y029185D01*
X045608Y029118D01*
X044100Y029118D01*
X042250Y029118D02*
X042175Y029044D01*
X042175Y028743D01*
X041900Y028468D01*
X040675Y028468D01*
X040675Y027868D01*
X041425Y027118D01*
X041875Y027118D01*
X042475Y027118D02*
X043425Y027118D01*
X044175Y027118D01*
X046675Y027368D02*
X046675Y026845D01*
X047175Y026845D02*
X047175Y027618D01*
X047675Y027618D01*
X047675Y026845D01*
X047675Y027618D02*
X049275Y027618D01*
X047175Y027618D02*
X046925Y027618D01*
X046675Y027368D01*
X048675Y029368D02*
X049275Y028768D01*
X049425Y028768D01*
X048675Y029368D02*
X048175Y029868D01*
X048175Y031618D01*
X046895Y031208D02*
X046805Y031118D01*
X046175Y030947D02*
X044175Y030947D01*
X023925Y036068D02*
X023175Y036068D01*
X023175Y035618D01*
X022425Y035368D02*
X022425Y036068D01*
X022425Y036668D02*
X022425Y037118D01*
X023175Y037868D01*
X023175Y039368D01*
X023864Y040057D01*
X024579Y040057D01*
X024079Y038805D02*
X024079Y037522D01*
X023925Y037368D01*
X023925Y036668D01*
X023175Y036668D02*
X023175Y037118D01*
X023425Y037368D01*
X021675Y036668D02*
X021625Y036618D01*
X021175Y036618D01*
X021675Y036068D02*
X021675Y035618D01*
X022425Y035368D02*
X021175Y034118D01*
X019175Y034118D01*
X012175Y027118D01*
X012675Y026368D02*
X012675Y025618D01*
X011925Y024868D01*
X011925Y024118D01*
X011425Y025368D02*
X010675Y025368D01*
X010175Y025868D01*
X010175Y030493D01*
X010425Y030743D01*
X010901Y030743D01*
X012675Y030243D02*
X012949Y030243D01*
X012675Y030243D02*
X010675Y028243D01*
X010675Y026618D01*
X011175Y026118D01*
X011425Y025368D02*
X012175Y026118D01*
X012675Y026368D02*
X012925Y026618D01*
X013675Y026618D01*
X014175Y026118D01*
X014175Y025118D02*
X014925Y025118D01*
X015425Y024618D01*
X015425Y024118D01*
X014175Y025118D02*
X013175Y026118D01*
X015175Y026118D02*
X015675Y026618D01*
X016800Y026618D01*
X020800Y022618D01*
X020925Y022618D01*
X019925Y022368D02*
X019925Y016493D01*
X020675Y015743D01*
X019925Y022368D02*
X016175Y026118D01*
X011175Y027118D02*
X015925Y031868D01*
X015925Y034618D01*
X016675Y035368D01*
X016675Y036068D01*
X016675Y036668D02*
X016675Y037868D01*
X016175Y038368D01*
X016175Y039368D01*
X016864Y040057D01*
X017579Y040057D01*
X019175Y040868D02*
X019175Y036668D01*
X018675Y036368D02*
X018975Y036068D01*
X019175Y036068D01*
X018675Y036368D02*
X018375Y036668D01*
X018175Y036668D01*
X018175Y036068D02*
X017425Y036068D01*
X017425Y035618D01*
X017079Y035272D01*
X017425Y036668D02*
X017425Y037868D01*
X017079Y038215D01*
X017079Y038805D01*
X019175Y040868D02*
X017579Y042465D01*
X017579Y042557D01*
X013925Y038368D02*
X010579Y041715D01*
X010579Y042498D01*
X010579Y039998D02*
X010579Y037522D01*
X010425Y037368D01*
X010425Y036618D01*
X013925Y036618D02*
X013925Y038368D01*
X064470Y013723D02*
X064470Y012073D01*
X064675Y011868D01*
X066439Y012105D02*
X066675Y011868D01*
X066439Y012105D02*
X066439Y013723D01*
X067423Y013723D02*
X067423Y012116D01*
X067175Y011868D01*
X060675Y005618D02*
X061242Y005051D01*
X061242Y004786D01*
D76*
X043425Y027118D03*
X051425Y028368D03*
X051425Y029618D03*
X052675Y030118D03*
X043925Y035118D03*
X043925Y036368D03*
X073675Y033618D03*
D77*
X070675Y031618D03*
X067175Y034118D03*
X067675Y034618D03*
X065175Y034118D03*
X062925Y035618D03*
X063675Y037118D03*
X064425Y037118D03*
X065175Y037118D03*
X065925Y037118D03*
X066675Y037118D03*
X060175Y038868D03*
X059175Y038868D03*
X059425Y032118D03*
X060425Y032118D03*
X061425Y032118D03*
D78*
X061425Y032693D01*
X061425Y033293D02*
X061425Y033368D01*
X060675Y034118D02*
X060580Y034118D01*
X060425Y034273D01*
X060270Y034118D01*
X060175Y034118D01*
X060425Y034273D02*
X060425Y036713D01*
X060425Y036993D01*
X061300Y037868D01*
X061675Y037368D02*
X061925Y037368D01*
X062175Y037618D01*
X062175Y038368D01*
X061675Y038868D01*
X061550Y038868D01*
X061425Y038993D01*
X061300Y038868D01*
X060175Y038868D01*
X060175Y037993D01*
X059515Y037278D02*
X059175Y037618D01*
X059175Y037993D01*
X059175Y038868D01*
X061175Y039118D02*
X061300Y039118D01*
X061425Y038993D01*
X061675Y037368D02*
X061335Y037028D01*
X061335Y036713D01*
X059515Y036713D02*
X059515Y037278D01*
X062925Y035618D02*
X063925Y035618D01*
X064175Y035368D01*
X064175Y034868D01*
X064675Y034868D02*
X064675Y033118D01*
X063675Y033118D02*
X063675Y032618D01*
X064175Y032118D01*
X068175Y032118D01*
X068903Y032847D01*
X070675Y032847D01*
X070675Y031618D01*
X067175Y033218D02*
X067075Y033118D01*
X067175Y033218D02*
X067175Y034118D01*
X066425Y034118D01*
X066175Y034368D01*
X066175Y034868D01*
X065175Y034868D02*
X065175Y038118D01*
X068175Y034118D02*
X069925Y035868D01*
X069947Y036390D01*
X070675Y036390D01*
X070697Y036368D01*
X070925Y036368D01*
X073675Y033618D01*
X073925Y034368D02*
X073925Y036618D01*
X073925Y034368D02*
X075675Y032618D01*
X075675Y011868D01*
X074925Y011118D01*
X060425Y032118D02*
X060425Y032693D01*
X059425Y032693D02*
X059425Y032118D01*
X059425Y033293D02*
X059425Y033368D01*
X063675Y033118D02*
X063675Y034868D01*
X065175Y034868D02*
X065175Y034118D01*
X065925Y033368D01*
X065925Y033268D01*
X065775Y033118D01*
X067175Y034118D02*
X068175Y034118D01*
M02*
