G75*
G70*
%OFA0B0*%
%FSLAX24Y24*%
%IPPOS*%
%LPD*%
%AMOC8*
5,1,8,0,0,1.08239X$1,22.5*
%
%ADD10R,0.0680X0.0680*%
%ADD11OC8,0.0680*%
%ADD12R,0.0395X0.0434*%
%ADD13R,0.0434X0.0395*%
%ADD14R,0.0631X0.0789*%
%ADD15R,0.0789X0.0631*%
%ADD16R,0.0631X0.0828*%
%ADD17OC8,0.0623*%
%ADD18OC8,0.1025*%
%ADD19C,0.0641*%
%ADD20C,0.1386*%
%ADD21R,0.1080X0.1080*%
%ADD22OC8,0.1080*%
%ADD23R,0.1182X0.1576*%
%ADD24R,0.1576X0.1182*%
%ADD25OC8,0.0671*%
%ADD26C,0.0513*%
%ADD27C,0.0710*%
%ADD28C,0.0966*%
%ADD29R,0.0828X0.0631*%
%ADD30R,0.0620X0.0620*%
%ADD31OC8,0.0620*%
%ADD32OC8,0.0966*%
%ADD33OC8,0.0780*%
%ADD34R,0.0780X0.0780*%
%ADD35R,0.0867X0.1025*%
%ADD36C,0.2080*%
%ADD37C,0.0350*%
%ADD38C,0.0436*%
%ADD39C,0.0493*%
D10*
X034175Y012618D03*
X053425Y007368D03*
X073925Y022118D03*
X011175Y026118D03*
D11*
X012175Y026118D03*
X013175Y026118D03*
X014175Y026118D03*
X015175Y026118D03*
X016175Y026118D03*
X016175Y027118D03*
X015175Y027118D03*
X014175Y027118D03*
X013175Y027118D03*
X012175Y027118D03*
X011175Y027118D03*
X034175Y013618D03*
X035175Y013618D03*
X035175Y012618D03*
X036175Y012618D03*
X036175Y013618D03*
X053425Y008368D03*
X054425Y008368D03*
X054425Y007368D03*
X055425Y007368D03*
X056425Y007368D03*
X057425Y007368D03*
X057425Y008368D03*
X056425Y008368D03*
X055425Y008368D03*
X073925Y009118D03*
X074925Y009118D03*
X074925Y010118D03*
X073925Y010118D03*
X073925Y011118D03*
X074925Y011118D03*
X074925Y012118D03*
X073925Y012118D03*
X073925Y013118D03*
X074925Y013118D03*
X074925Y014118D03*
X073925Y014118D03*
X073925Y015118D03*
X074925Y015118D03*
X074925Y016118D03*
X073925Y016118D03*
X073925Y017118D03*
X074925Y017118D03*
X074925Y018118D03*
X073925Y018118D03*
X073925Y019118D03*
X074925Y019118D03*
X074925Y020118D03*
X073925Y020118D03*
X073925Y021118D03*
X074925Y021118D03*
X074925Y022118D03*
X072425Y045618D03*
D12*
X071675Y041168D03*
X071675Y040568D03*
X058425Y040418D03*
X058425Y039818D03*
X057675Y039818D03*
X057675Y040418D03*
X037425Y034168D03*
X037425Y033568D03*
X036675Y033568D03*
X036675Y034168D03*
X035925Y033418D03*
X035925Y032818D03*
X036675Y032668D03*
X036675Y032068D03*
X037425Y032068D03*
X037425Y032668D03*
X032925Y032668D03*
X032925Y032068D03*
X032175Y032068D03*
X032175Y032668D03*
X031425Y032818D03*
X031425Y033418D03*
X032175Y033568D03*
X032175Y034168D03*
X032925Y034168D03*
X032925Y033568D03*
X026425Y032918D03*
X026425Y032318D03*
X025675Y032043D03*
X025675Y031443D03*
X025675Y030543D03*
X025675Y029943D03*
X024675Y031068D03*
X024675Y031668D03*
X025675Y033193D03*
X025675Y033793D03*
X025675Y034693D03*
X025675Y035293D03*
X024675Y034168D03*
X024675Y033568D03*
X038175Y026668D03*
X038175Y026068D03*
X038925Y026068D03*
X038925Y026668D03*
X039675Y026668D03*
X039675Y026068D03*
X041675Y024668D03*
X041675Y024068D03*
X043175Y024068D03*
X043175Y024668D03*
X043925Y024668D03*
X043925Y024068D03*
X045425Y024068D03*
X045425Y024668D03*
X046175Y024668D03*
X046175Y024068D03*
X034300Y020668D03*
X034300Y020068D03*
X033425Y018543D03*
X033425Y017943D03*
X032675Y017943D03*
X032675Y018543D03*
X030050Y018318D03*
X030050Y018918D03*
X030050Y020318D03*
X030050Y020918D03*
X023675Y022818D03*
X023675Y023418D03*
X022925Y023568D03*
X022925Y024168D03*
X022175Y024168D03*
X022175Y023568D03*
X022175Y022668D03*
X022175Y022068D03*
X022925Y022068D03*
X022925Y022668D03*
X022925Y017168D03*
X022925Y016568D03*
X022175Y016568D03*
X022175Y017168D03*
X023675Y016418D03*
X023675Y015818D03*
X022925Y015668D03*
X022925Y015068D03*
X022175Y015068D03*
X022175Y015668D03*
X040425Y014168D03*
X040425Y013568D03*
X041175Y013568D03*
X041175Y014168D03*
X041925Y016568D03*
X041925Y017168D03*
X042675Y017168D03*
X042675Y016568D03*
X043425Y016568D03*
X043425Y017168D03*
X044175Y017168D03*
X044175Y016568D03*
X044925Y016568D03*
X044925Y017168D03*
X045425Y013168D03*
X045425Y012568D03*
X047050Y012568D03*
X047050Y013168D03*
X048800Y013168D03*
X048800Y012568D03*
X047675Y008543D03*
X047675Y007943D03*
X046050Y007943D03*
X046050Y008543D03*
X044300Y008543D03*
X044300Y007943D03*
X043550Y007943D03*
X043550Y008543D03*
X051800Y008543D03*
X051800Y007943D03*
X058175Y021568D03*
X058175Y022168D03*
X058925Y022168D03*
X058925Y021568D03*
X060425Y021568D03*
X060425Y022168D03*
X061175Y022168D03*
X061175Y021568D03*
X061175Y025193D03*
X061175Y025793D03*
X061175Y027068D03*
X061175Y027668D03*
X060425Y027668D03*
X060425Y027068D03*
X059675Y027068D03*
X059675Y027668D03*
X058175Y027668D03*
X058175Y027068D03*
X057425Y027068D03*
X057425Y027668D03*
X056425Y029818D03*
X056425Y030418D03*
X055675Y030418D03*
X055675Y029818D03*
X062425Y029418D03*
X062425Y028818D03*
X063175Y028818D03*
X063175Y029418D03*
X069425Y027168D03*
X069425Y026568D03*
D13*
X063225Y026618D03*
X062625Y026618D03*
X062625Y025868D03*
X063225Y025868D03*
X063225Y025118D03*
X062625Y025118D03*
X062625Y027368D03*
X063225Y027368D03*
X057725Y025868D03*
X057125Y025868D03*
X057125Y025118D03*
X057725Y025118D03*
X057725Y024368D03*
X057125Y024368D03*
X057125Y023618D03*
X057725Y023618D03*
X054725Y022618D03*
X054125Y022618D03*
X054125Y021868D03*
X054725Y021868D03*
X054725Y021118D03*
X054125Y021118D03*
X054125Y020368D03*
X054725Y020368D03*
X059125Y018118D03*
X059725Y018118D03*
X060625Y018118D03*
X061225Y018118D03*
X068375Y020118D03*
X068975Y020118D03*
X063225Y021868D03*
X062625Y021868D03*
X062625Y022618D03*
X063225Y022618D03*
X047725Y022243D03*
X047125Y022243D03*
X047125Y021493D03*
X047725Y021493D03*
X047725Y020368D03*
X047125Y020368D03*
X047125Y019618D03*
X047725Y019618D03*
X047725Y018868D03*
X047125Y018868D03*
X040225Y019118D03*
X039625Y019118D03*
X039625Y019868D03*
X040225Y019868D03*
X040225Y020618D03*
X039625Y020618D03*
X039625Y023993D03*
X040225Y023993D03*
X040225Y024743D03*
X039625Y024743D03*
X031600Y021743D03*
X031000Y021743D03*
X030875Y017493D03*
X031475Y017493D03*
X035250Y017743D03*
X035850Y017743D03*
X035850Y017118D03*
X035250Y017118D03*
X034725Y009868D03*
X034125Y009868D03*
X013975Y022368D03*
X013375Y022368D03*
X013100Y023118D03*
X012500Y023118D03*
X011600Y023118D03*
X011000Y023118D03*
X012125Y024118D03*
X012725Y024118D03*
X014625Y024118D03*
X015225Y024118D03*
X014850Y023118D03*
X014250Y023118D03*
X015750Y023118D03*
X016350Y023118D03*
X054375Y034618D03*
X054975Y034618D03*
X055875Y036868D03*
X056475Y036868D03*
X068375Y037618D03*
X068975Y037618D03*
X069875Y037618D03*
X070475Y037618D03*
X074125Y041368D03*
X074725Y041368D03*
X074725Y042118D03*
X074125Y042118D03*
X074125Y042868D03*
X074725Y042868D03*
X070475Y042618D03*
X069875Y042618D03*
X052975Y043868D03*
X052375Y043868D03*
X052375Y044618D03*
X052975Y044618D03*
D14*
X062925Y034618D03*
X063925Y034618D03*
X060425Y028868D03*
X059425Y028868D03*
X062675Y024243D03*
X063675Y024243D03*
X060925Y019493D03*
X059925Y019493D03*
D15*
X056300Y020618D03*
X056300Y021618D03*
X048425Y027368D03*
X048425Y028368D03*
X061488Y028931D03*
X061488Y029931D03*
D16*
X062925Y033368D03*
X063925Y033368D03*
X055175Y035618D03*
X054175Y035618D03*
X059175Y037993D03*
X060175Y037993D03*
X037425Y030868D03*
X036425Y030868D03*
X032925Y030868D03*
X031925Y030868D03*
X023175Y025368D03*
X022175Y025368D03*
X022175Y018368D03*
X023175Y018368D03*
X033925Y010868D03*
X034925Y010868D03*
X046425Y017618D03*
X047425Y017618D03*
X040925Y022118D03*
X039925Y022118D03*
D17*
X055175Y039618D03*
X055175Y040406D03*
X055175Y041193D03*
X055175Y041981D03*
D18*
X054033Y042177D03*
X056317Y042177D03*
X056317Y039421D03*
X054033Y039421D03*
D19*
X059683Y040453D02*
X059683Y041014D01*
X059683Y041801D02*
X059683Y042362D01*
X060667Y042362D02*
X060667Y041801D01*
X060667Y041014D02*
X060667Y040453D01*
D20*
X062537Y042868D03*
X057813Y042868D03*
D21*
X066175Y041368D03*
D22*
X064175Y042493D03*
X066175Y043743D03*
X051108Y043152D03*
X051108Y045317D03*
X050321Y046262D03*
D23*
X064800Y039118D03*
X067550Y039118D03*
D24*
X070675Y035993D03*
X070675Y033243D03*
D25*
X070667Y039634D03*
X069683Y039634D03*
X069683Y040618D03*
X070667Y040618D03*
X070667Y041603D03*
X069683Y041603D03*
D26*
X062108Y012542D03*
D27*
X070415Y012542D03*
D28*
X023271Y010238D03*
X018771Y010238D03*
X016271Y010238D03*
X011771Y010238D03*
X011771Y007738D03*
X011771Y005238D03*
X016271Y005238D03*
X018771Y005238D03*
X018771Y007738D03*
X016271Y007738D03*
X023271Y007738D03*
X023271Y005238D03*
X015079Y039998D03*
X015079Y042498D03*
X015079Y044998D03*
X010579Y044998D03*
X010579Y042498D03*
X010579Y039998D03*
D29*
X047175Y028368D03*
X047175Y027368D03*
X040675Y017868D03*
X040675Y016868D03*
D30*
X036425Y004868D03*
D31*
X037425Y004868D03*
X038425Y004868D03*
X039425Y004868D03*
X040425Y004868D03*
X041425Y004868D03*
X042425Y004868D03*
X042425Y005868D03*
X041425Y005868D03*
X040425Y005868D03*
X039425Y005868D03*
X038425Y005868D03*
X037425Y005868D03*
X036425Y005868D03*
D32*
X036079Y038805D03*
X038079Y038805D03*
X038579Y040057D03*
X038079Y041305D03*
X036579Y040057D03*
X036079Y041305D03*
X036579Y042557D03*
X038579Y042557D03*
X038079Y043805D03*
X038579Y045055D03*
X036579Y045055D03*
X036079Y043805D03*
X039079Y046187D03*
X043579Y045055D03*
X043079Y043805D03*
X043579Y042557D03*
X043079Y041305D03*
X043579Y040057D03*
X043079Y038805D03*
X031579Y040057D03*
X031079Y041305D03*
X029579Y040057D03*
X029079Y041305D03*
X029579Y042557D03*
X031579Y042557D03*
X031079Y043805D03*
X031579Y045055D03*
X029579Y045055D03*
X029079Y043805D03*
X032079Y046187D03*
X025079Y046187D03*
X024579Y045055D03*
X024079Y043805D03*
X022579Y045055D03*
X022079Y043805D03*
X022579Y042557D03*
X024579Y042557D03*
X024079Y041305D03*
X024579Y040057D03*
X022579Y040057D03*
X022079Y041305D03*
X022079Y038805D03*
X024079Y038805D03*
X029079Y038805D03*
X031079Y038805D03*
X017579Y040057D03*
X017079Y041305D03*
X017579Y042557D03*
X017079Y043805D03*
X017579Y045055D03*
X018079Y046187D03*
X017079Y038805D03*
D33*
X045925Y039368D03*
X045925Y040368D03*
X045925Y041368D03*
X045925Y042368D03*
D34*
X045925Y038368D03*
D35*
X054513Y032618D03*
X056087Y032618D03*
D36*
X008675Y004618D03*
X045925Y004618D03*
X074675Y004618D03*
X074675Y044868D03*
X045925Y044868D03*
X008675Y044868D03*
D37*
X023425Y037368D03*
X021175Y036618D03*
X018675Y036368D03*
X017079Y035272D03*
X021675Y035618D03*
X023175Y035618D03*
X024675Y034993D03*
X025175Y034993D03*
X025675Y035743D03*
X027425Y036868D03*
X027925Y036618D03*
X029175Y036118D03*
X031175Y035118D03*
X033675Y034368D03*
X034550Y034743D03*
X035675Y035118D03*
X038175Y034368D03*
X039050Y034743D03*
X037925Y033118D03*
X036925Y033118D03*
X035300Y032868D03*
X035050Y033368D03*
X033425Y033118D03*
X032425Y033118D03*
X030925Y033118D03*
X031050Y032368D03*
X031175Y031118D03*
X031425Y029118D03*
X031300Y028243D03*
X031300Y027618D03*
X030550Y027618D03*
X030175Y027368D03*
X031675Y026868D03*
X031925Y027118D03*
X032675Y026868D03*
X033175Y026618D03*
X037425Y026868D03*
X039175Y025493D03*
X039175Y024743D03*
X038050Y024993D03*
X037925Y023868D03*
X038050Y022618D03*
X037425Y021993D03*
X038050Y021493D03*
X037675Y021118D03*
X037175Y020493D03*
X036550Y019993D03*
X036550Y019618D03*
X036675Y019243D03*
X036925Y018993D03*
X036175Y018743D03*
X035800Y018743D03*
X035425Y018743D03*
X035050Y018618D03*
X035050Y018243D03*
X034550Y017493D03*
X033925Y017868D03*
X032175Y017993D03*
X031550Y017993D03*
X031175Y017993D03*
X030550Y018493D03*
X030550Y018993D03*
X030550Y020493D03*
X030550Y020868D03*
X030925Y021118D03*
X031300Y020868D03*
X031675Y021118D03*
X033800Y020993D03*
X033925Y022368D03*
X029800Y022618D03*
X029175Y022368D03*
X029175Y021868D03*
X026425Y023243D03*
X026050Y023618D03*
X025675Y023993D03*
X025300Y024368D03*
X024675Y023368D03*
X024925Y022868D03*
X027050Y023368D03*
X027050Y024868D03*
X023925Y025118D03*
X020925Y025118D03*
X020925Y025868D03*
X016050Y024118D03*
X016050Y023618D03*
X016800Y023118D03*
X017675Y022118D03*
X017675Y021243D03*
X019425Y019868D03*
X017175Y019618D03*
X015050Y020243D03*
X013425Y020868D03*
X013925Y021868D03*
X013925Y023493D03*
X013425Y023493D03*
X010550Y023118D03*
X009675Y022118D03*
X009675Y021368D03*
X013175Y019618D03*
X020550Y021493D03*
X021425Y021868D03*
X021675Y023118D03*
X022675Y023118D03*
X023925Y021118D03*
X024675Y021368D03*
X021925Y019868D03*
X020925Y018868D03*
X020925Y018118D03*
X021675Y016118D03*
X022675Y016118D03*
X021425Y014868D03*
X020550Y014493D03*
X021925Y012868D03*
X023925Y014118D03*
X024675Y015118D03*
X028425Y016743D03*
X026675Y018243D03*
X026425Y018493D03*
X026175Y018743D03*
X025925Y018993D03*
X025050Y018993D03*
X025050Y018493D03*
X023925Y018118D03*
X033425Y019618D03*
X035300Y019368D03*
X036175Y020243D03*
X038114Y019805D03*
X039175Y020743D03*
X040675Y020618D03*
X042175Y021243D03*
X041925Y021743D03*
X041675Y022243D03*
X039175Y022618D03*
X039175Y023493D03*
X039925Y023493D03*
X040675Y023993D03*
X040675Y024368D03*
X041050Y024368D03*
X042050Y025118D03*
X043175Y025118D03*
X044425Y024368D03*
X044800Y025118D03*
X044175Y026243D03*
X042925Y026368D03*
X042425Y026368D03*
X041800Y026368D03*
X040425Y026618D03*
X039425Y028368D03*
X038425Y028368D03*
X039425Y029618D03*
X038675Y030368D03*
X038675Y031118D03*
X035675Y031118D03*
X034175Y031118D03*
X034175Y030368D03*
X029175Y032118D03*
X027925Y032368D03*
X026925Y032868D03*
X025300Y032868D03*
X025300Y032368D03*
X028550Y033993D03*
X033175Y036368D03*
X037675Y036368D03*
X046300Y035118D03*
X046300Y034118D03*
X049675Y033118D03*
X050425Y032118D03*
X050925Y031618D03*
X053675Y032618D03*
X055300Y032618D03*
X055175Y031493D03*
X055175Y031118D03*
X056425Y030868D03*
X058300Y031368D03*
X058675Y031118D03*
X058300Y031868D03*
X058675Y032118D03*
X057925Y032368D03*
X057425Y032993D03*
X056925Y032618D03*
X058300Y034118D03*
X058300Y034743D03*
X056550Y034243D03*
X054925Y034118D03*
X054425Y034118D03*
X053425Y033868D03*
X050550Y035493D03*
X050550Y035993D03*
X052300Y036618D03*
X052550Y036993D03*
X054300Y037493D03*
X054675Y036868D03*
X054675Y036368D03*
X056550Y037618D03*
X056925Y037618D03*
X057050Y037243D03*
X057925Y038618D03*
X052425Y039618D03*
X051175Y039368D03*
X051175Y039868D03*
X050425Y037868D03*
X049675Y037868D03*
X048925Y038868D03*
X047175Y039868D03*
X046675Y038368D03*
X048425Y042618D03*
X046675Y043368D03*
X053425Y043868D03*
X071175Y037868D03*
X073175Y037618D03*
X074925Y035868D03*
X075425Y042118D03*
X075425Y042868D03*
X073425Y042868D03*
X062425Y031118D03*
X059925Y029618D03*
X059550Y029618D03*
X058425Y029368D03*
X057175Y029493D03*
X056425Y029368D03*
X055800Y028368D03*
X055425Y028743D03*
X055050Y028993D03*
X056675Y028118D03*
X057425Y028118D03*
X058175Y028118D03*
X058550Y028118D03*
X058925Y028118D03*
X059925Y028118D03*
X060425Y028118D03*
X060925Y028118D03*
X062050Y028118D03*
X062425Y028118D03*
X064925Y028243D03*
X064925Y028618D03*
X065175Y027868D03*
X065550Y027618D03*
X065925Y027493D03*
X066175Y027118D03*
X065675Y026618D03*
X066175Y026118D03*
X066050Y025743D03*
X066425Y025493D03*
X066300Y024743D03*
X065675Y024743D03*
X065175Y024368D03*
X065175Y023993D03*
X065550Y023993D03*
X065550Y023618D03*
X067050Y024368D03*
X067550Y024368D03*
X068050Y023993D03*
X068300Y023368D03*
X068675Y023743D03*
X069800Y021868D03*
X069425Y021743D03*
X068925Y021743D03*
X069425Y020118D03*
X069925Y020243D03*
X069925Y019743D03*
X067925Y020118D03*
X067175Y019368D03*
X067175Y018868D03*
X067550Y018618D03*
X068050Y018493D03*
X062050Y018118D03*
X061425Y019368D03*
X058925Y018993D03*
X058675Y019243D03*
X058425Y019493D03*
X057800Y019493D03*
X057425Y019493D03*
X057050Y019868D03*
X056675Y019493D03*
X056175Y018368D03*
X058300Y018118D03*
X060175Y018118D03*
X055175Y016868D03*
X054925Y016493D03*
X054675Y016118D03*
X054425Y015743D03*
X053675Y016743D03*
X053925Y017118D03*
X054175Y017493D03*
X051800Y016993D03*
X052050Y016243D03*
X051550Y017743D03*
X051300Y018493D03*
X051050Y020118D03*
X049300Y020868D03*
X048175Y020618D03*
X048175Y021118D03*
X048175Y021493D03*
X048175Y022243D03*
X048175Y022743D03*
X047800Y022993D03*
X047425Y023243D03*
X047050Y023493D03*
X046550Y024368D03*
X047550Y025118D03*
X048175Y024618D03*
X048175Y023618D03*
X048175Y023243D03*
X049300Y023368D03*
X049300Y023743D03*
X049800Y024118D03*
X050425Y024868D03*
X050425Y025368D03*
X049800Y025618D03*
X049425Y026118D03*
X049425Y026868D03*
X046925Y026180D03*
X045800Y026243D03*
X048675Y029368D03*
X046550Y030118D03*
X043425Y031243D03*
X042675Y031243D03*
X040675Y030493D03*
X051425Y026368D03*
X052800Y025868D03*
X053175Y025868D03*
X051800Y025118D03*
X051300Y025368D03*
X053175Y023868D03*
X053175Y023243D03*
X053675Y021868D03*
X055425Y021868D03*
X055425Y021493D03*
X055425Y021118D03*
X055675Y020743D03*
X055425Y022243D03*
X056675Y022243D03*
X057175Y022743D03*
X057425Y021118D03*
X057800Y021118D03*
X058175Y021118D03*
X058550Y021118D03*
X058925Y021118D03*
X059300Y021118D03*
X060425Y021118D03*
X060800Y021118D03*
X061175Y021118D03*
X061550Y021118D03*
X061925Y021118D03*
X062300Y021118D03*
X062675Y021118D03*
X063050Y021118D03*
X063675Y021243D03*
X063675Y021868D03*
X063675Y022743D03*
X062175Y021868D03*
X060425Y022618D03*
X061425Y023368D03*
X061425Y023743D03*
X062050Y024243D03*
X061925Y024618D03*
X062175Y025868D03*
X061175Y026618D03*
X060675Y025868D03*
X058175Y025118D03*
X058175Y024368D03*
X056675Y024368D03*
X056675Y024743D03*
X056675Y025118D03*
X055175Y024618D03*
X054925Y026368D03*
X055300Y026618D03*
X053175Y027118D03*
X052925Y027618D03*
X058175Y026618D03*
X063675Y026618D03*
X063675Y025868D03*
X067175Y027118D03*
X067800Y027493D03*
X068300Y027493D03*
X068925Y027743D03*
X069425Y027618D03*
X070050Y027368D03*
X070425Y027368D03*
X070425Y027743D03*
X070925Y027743D03*
X071675Y027743D03*
X069425Y026118D03*
X067675Y028993D03*
X067175Y029493D03*
X066800Y029368D03*
X066425Y029243D03*
X066050Y028993D03*
X066675Y028618D03*
X058925Y022618D03*
X064925Y021493D03*
X065425Y021868D03*
X050800Y022743D03*
X050550Y022368D03*
X050300Y022118D03*
X050050Y021743D03*
X046675Y022243D03*
X047425Y018493D03*
X048175Y018243D03*
X049300Y018618D03*
X049300Y016493D03*
X048550Y015868D03*
X048300Y015243D03*
X047925Y014243D03*
X047550Y013993D03*
X047550Y013368D03*
X048550Y013743D03*
X048800Y012118D03*
X048300Y012118D03*
X047050Y012118D03*
X045925Y012118D03*
X045425Y012118D03*
X043425Y011743D03*
X043050Y011493D03*
X043425Y011243D03*
X043050Y010993D03*
X043425Y010743D03*
X043050Y010493D03*
X043425Y010243D03*
X043050Y009993D03*
X043050Y012118D03*
X041675Y013368D03*
X041675Y013743D03*
X040925Y014743D03*
X040550Y014743D03*
X040050Y014993D03*
X039675Y016243D03*
X039425Y017368D03*
X039425Y017743D03*
X039175Y018118D03*
X038050Y018118D03*
X037425Y017868D03*
X036425Y017743D03*
X036300Y016743D03*
X035550Y015368D03*
X038175Y013118D03*
X036175Y011243D03*
X034925Y011618D03*
X034425Y010368D03*
X032800Y010243D03*
X031925Y010118D03*
X031925Y010618D03*
X034175Y009118D03*
X036925Y009868D03*
X035675Y007868D03*
X038675Y006868D03*
X044300Y007493D03*
X045175Y007868D03*
X046300Y007493D03*
X047050Y007868D03*
X047925Y007493D03*
X049800Y007868D03*
X052050Y007493D03*
X052300Y008743D03*
X052050Y009618D03*
X051800Y010243D03*
X051550Y010868D03*
X051300Y011493D03*
X051050Y011993D03*
X050300Y011493D03*
X050550Y011118D03*
X050800Y010743D03*
X050050Y011993D03*
X049550Y011993D03*
X052300Y013743D03*
X048175Y016618D03*
X047300Y016118D03*
X044925Y016118D03*
X044550Y016118D03*
X044175Y016118D03*
X043800Y016118D03*
X043425Y016118D03*
X042675Y016118D03*
X041175Y016118D03*
X043050Y014993D03*
X043675Y014368D03*
X044175Y014368D03*
X044550Y014368D03*
X045050Y014368D03*
X045550Y014368D03*
X045300Y014993D03*
X044175Y017743D03*
X041425Y018618D03*
X049550Y009118D03*
X052675Y006118D03*
X050675Y004743D03*
X052675Y004118D03*
X058925Y004118D03*
X060425Y004118D03*
X060675Y005618D03*
X059175Y006868D03*
X056425Y009118D03*
X063300Y011868D03*
X064675Y011868D03*
X065050Y011243D03*
X066675Y011868D03*
X067175Y011868D03*
X068175Y011868D03*
X068925Y014118D03*
X072175Y014118D03*
X072550Y014118D03*
X061175Y013868D03*
X060675Y014118D03*
X029175Y004868D03*
X028550Y004868D03*
X029175Y004118D03*
X026800Y004868D03*
X024925Y004118D03*
X024925Y005618D03*
X024925Y007868D03*
X027675Y028368D03*
X028175Y028618D03*
X025675Y029493D03*
X024675Y030243D03*
X012175Y031743D03*
X010925Y032493D03*
X010175Y033118D03*
X012175Y034868D03*
X010925Y036618D03*
X011800Y030243D03*
D38*
X043425Y027118D03*
X051425Y028368D03*
X051425Y029618D03*
X052675Y030118D03*
X043925Y035118D03*
X043925Y036368D03*
X073675Y033618D03*
D39*
X070675Y031618D03*
X067175Y034118D03*
X067675Y034618D03*
X065175Y034118D03*
X062925Y035618D03*
X063675Y037118D03*
X064425Y037118D03*
X065175Y037118D03*
X065925Y037118D03*
X066675Y037118D03*
X060175Y038868D03*
X059175Y038868D03*
X059425Y032118D03*
X060425Y032118D03*
X061425Y032118D03*
M02*
