G75*
G70*
%OFA0B0*%
%FSLAX24Y24*%
%IPPOS*%
%LPD*%
%AMOC8*
5,1,8,0,0,1.08239X$1,22.5*
%
%ADD10R,0.0315X0.0354*%
%ADD11R,0.0354X0.0315*%
%ADD12R,0.0551X0.0748*%
%ADD13R,0.0630X0.0157*%
%ADD14R,0.1102X0.1496*%
%ADD15R,0.1496X0.1102*%
%ADD16R,0.0551X0.0709*%
%ADD17R,0.0709X0.0551*%
%ADD18R,0.1063X0.0630*%
%ADD19R,0.0630X0.1063*%
%ADD20R,0.0551X0.0551*%
D10*
X023526Y020448D03*
X023526Y021048D03*
X031651Y024823D03*
X032401Y024823D03*
X033151Y024823D03*
X033151Y025423D03*
X032401Y025423D03*
X031651Y025423D03*
X035151Y023423D03*
X035151Y022823D03*
X036651Y022823D03*
X037401Y022823D03*
X037401Y023423D03*
X036651Y023423D03*
X038901Y023423D03*
X039651Y023423D03*
X039651Y022823D03*
X038901Y022823D03*
X038401Y015923D03*
X038401Y015323D03*
X037651Y015323D03*
X037651Y015923D03*
X036901Y015923D03*
X036901Y015323D03*
X036151Y015323D03*
X036151Y015923D03*
X035401Y015923D03*
X035401Y015323D03*
X038901Y011923D03*
X038901Y011323D03*
X040526Y011323D03*
X040526Y011923D03*
X042276Y011923D03*
X042276Y011323D03*
X041151Y007298D03*
X041151Y006698D03*
X039526Y006698D03*
X039526Y007298D03*
X037776Y007298D03*
X037776Y006698D03*
X037026Y006698D03*
X037026Y007298D03*
X045276Y007298D03*
X045276Y006698D03*
X053776Y012073D03*
X053776Y012673D03*
X055276Y012673D03*
X055276Y012073D03*
X056526Y012073D03*
X056526Y012673D03*
X058276Y012673D03*
X058276Y012073D03*
X060026Y012073D03*
X060026Y012673D03*
X062026Y012673D03*
X062026Y012073D03*
X054651Y020323D03*
X054651Y020923D03*
X053901Y020923D03*
X053901Y020323D03*
X052401Y020323D03*
X052401Y020923D03*
X051651Y020923D03*
X051651Y020323D03*
X050901Y020323D03*
X050901Y020923D03*
X054651Y023948D03*
X054651Y024548D03*
X054651Y025823D03*
X053901Y025823D03*
X053151Y025823D03*
X052401Y025823D03*
X051651Y025823D03*
X050901Y025823D03*
X050901Y026423D03*
X051651Y026423D03*
X052401Y026423D03*
X053151Y026423D03*
X053901Y026423D03*
X054651Y026423D03*
X055401Y026423D03*
X055401Y025823D03*
X055901Y028573D03*
X055901Y029173D03*
X056651Y029173D03*
X056651Y028573D03*
X049901Y028573D03*
X049901Y029173D03*
X049151Y029173D03*
X049151Y028573D03*
X049151Y031573D03*
X049151Y032173D03*
X049901Y032173D03*
X049901Y031573D03*
D11*
X048951Y035123D03*
X048351Y035123D03*
X048351Y036373D03*
X048951Y036373D03*
X048951Y037123D03*
X048351Y037123D03*
X048351Y037873D03*
X048951Y037873D03*
X062851Y036873D03*
X063451Y036873D03*
X064851Y036873D03*
X065451Y036873D03*
X065601Y027623D03*
X066201Y027623D03*
X066201Y026873D03*
X065601Y026873D03*
X065601Y024873D03*
X066201Y024873D03*
X059701Y023998D03*
X059101Y023998D03*
X059101Y022623D03*
X059701Y022623D03*
X059701Y021873D03*
X059101Y021873D03*
X056701Y021373D03*
X056101Y021373D03*
X056101Y020623D03*
X056701Y020623D03*
X056701Y023123D03*
X056101Y023123D03*
X056101Y023873D03*
X056701Y023873D03*
X056701Y024623D03*
X056101Y024623D03*
X056101Y025373D03*
X056701Y025373D03*
X056701Y026123D03*
X056101Y026123D03*
X051201Y024623D03*
X050601Y024623D03*
X050601Y023873D03*
X051201Y023873D03*
X051201Y023123D03*
X050601Y023123D03*
X050601Y022373D03*
X051201Y022373D03*
X048201Y021373D03*
X047601Y021373D03*
X047601Y020623D03*
X048201Y020623D03*
X048201Y019873D03*
X047601Y019873D03*
X047601Y019123D03*
X048201Y019123D03*
X052601Y016873D03*
X053201Y016873D03*
X054101Y016873D03*
X054701Y016873D03*
X053951Y018123D03*
X053351Y018123D03*
X041201Y018373D03*
X040601Y018373D03*
X040601Y017623D03*
X041201Y017623D03*
X041201Y019873D03*
X040601Y019873D03*
X033701Y019373D03*
X033101Y019373D03*
X033101Y018623D03*
X033701Y018623D03*
X033701Y017873D03*
X033101Y017873D03*
X029951Y018123D03*
X029351Y018123D03*
X029351Y017248D03*
X029951Y017248D03*
X029951Y019123D03*
X029351Y019123D03*
X025576Y021998D03*
X024976Y021998D03*
X027226Y023123D03*
X027826Y023123D03*
X027826Y023873D03*
X027226Y023873D03*
X029601Y023998D03*
X030201Y023998D03*
X030201Y024748D03*
X029601Y024748D03*
X029601Y025498D03*
X030201Y025498D03*
X030201Y026248D03*
X029601Y026248D03*
X029601Y023248D03*
X030201Y023248D03*
X030201Y022498D03*
X029601Y022498D03*
X033101Y022748D03*
X033701Y022748D03*
X016451Y032248D03*
X015851Y032248D03*
X065601Y019873D03*
X066201Y019873D03*
X066201Y019123D03*
X065601Y019123D03*
D12*
X049151Y034123D03*
X048151Y034123D03*
D13*
X060506Y027467D03*
X060506Y027152D03*
X060506Y026837D03*
X060506Y026523D03*
X060506Y026208D03*
X060506Y025893D03*
X060506Y025578D03*
X060506Y025263D03*
X060506Y024948D03*
X060506Y024633D03*
X060506Y024318D03*
X060506Y024003D03*
X060506Y023688D03*
X060506Y023373D03*
X060506Y023058D03*
X060506Y022743D03*
X060506Y022428D03*
X060506Y022113D03*
X060506Y021798D03*
X060506Y021483D03*
X060506Y021168D03*
X060506Y020853D03*
X060506Y020538D03*
X060506Y020223D03*
X060506Y019908D03*
X060506Y019593D03*
X060506Y019278D03*
X064797Y019278D03*
X064797Y019593D03*
X064797Y019908D03*
X064797Y020223D03*
X064797Y020538D03*
X064797Y020853D03*
X064797Y021168D03*
X064797Y021483D03*
X064797Y021798D03*
X064797Y022113D03*
X064797Y022428D03*
X064797Y022743D03*
X064797Y023058D03*
X064797Y023373D03*
X064797Y023688D03*
X064797Y024003D03*
X064797Y024318D03*
X064797Y024633D03*
X064797Y024948D03*
X064797Y025263D03*
X064797Y025578D03*
X064797Y025893D03*
X064797Y026208D03*
X064797Y026523D03*
X064797Y026837D03*
X064797Y027152D03*
X064797Y027467D03*
D14*
X061026Y038373D03*
X058276Y038373D03*
D15*
X064151Y034748D03*
X064151Y031998D03*
D16*
X057401Y032123D03*
X056401Y032123D03*
X056401Y033373D03*
X057401Y033373D03*
D17*
X041901Y027123D03*
X040651Y027123D03*
X040651Y026123D03*
X041901Y026123D03*
D18*
X034151Y016773D03*
X034151Y015473D03*
D19*
X039751Y016373D03*
X041051Y016373D03*
X034551Y020873D03*
X033251Y020873D03*
D20*
X066401Y038373D03*
X066401Y039873D03*
M02*
