%
M48
M72
T01C0.0150
T02C0.0236
T03C0.0276
T04C0.0320
T05C0.0360
T06C0.0362
T07C0.0374
T08C0.0394
T09C0.0400
T10C0.0433
T11C0.0490
T12C0.0591
T13C0.0630
T14C0.0787
T15C0.0906
T16C0.1181
T17C0.1200
%
T01
X18350Y4118
X18350Y5618
X20225Y4868
X21975Y4868
X22600Y4868
X22600Y4118
X18350Y7868
X15350Y12868
X13975Y14493
X14850Y14868
X15100Y16118
X16100Y16118
X18100Y15118
X17350Y14118
X21850Y16743
X20100Y18243
X19850Y18493
X19600Y18743
X19350Y18993
X18475Y18993
X18475Y18493
X17350Y18118
X15350Y19868
X14350Y18868
X14350Y18118
X12850Y19868
X13975Y21493
X14850Y21868
X15100Y23118
X16100Y23118
X18100Y23368
X18350Y22868
X19475Y23618
X19850Y23243
X20475Y23368
X19100Y23993
X18725Y24368
X17350Y25118
X20475Y24868
X22600Y22368
X22600Y21868
X23225Y22618
X24350Y21118
X23975Y20868
X23975Y20493
X24725Y20868
X25100Y21118
X27225Y20993
X27350Y22368
X29600Y20243
X30600Y20493
X31100Y21118
X31475Y21493
X30850Y21993
X31475Y22618
X32600Y22618
X32600Y23493
X33350Y23493
X34100Y23993
X34100Y24368
X34475Y24368
X35475Y25118
X36100Y24618
X35725Y24118
X36600Y25118
X37850Y24368
X38225Y25118
X39975Y24368
X40975Y25118
X41600Y24618
X41600Y23618
X41600Y23243
X41225Y22993
X41600Y22743
X41600Y22243
X41600Y21493
X41600Y21118
X41600Y20618
X42725Y20868
X43475Y21743
X43725Y22118
X43975Y22368
X44225Y22743
X42725Y23368
X42725Y23743
X43225Y24118
X43850Y24868
X43850Y25368
X43225Y25618
X42850Y26118
X42850Y26868
X44850Y26368
X44725Y25368
X45225Y25118
X46225Y25868
X46600Y25868
X46600Y27118
X46600Y27618
X46600Y28368
X46600Y28868
X48475Y28993
X48850Y28743
X49225Y28368
X50100Y28118
X50850Y28118
X51600Y28118
X51975Y28118
X52350Y28118
X53350Y28118
X53850Y28118
X54350Y28118
X55350Y28118
X55725Y28118
X56100Y28118
X56475Y28118
X58350Y28243
X58350Y28618
X58600Y27868
X58975Y27618
X59350Y27493
X59600Y27118
X59100Y26618
X59600Y26118
X59475Y25743
X59850Y25493
X59725Y24743
X59100Y24743
X58600Y24368
X58600Y23993
X58975Y23993
X58975Y23618
X60475Y24368
X60975Y24368
X61475Y23993
X61725Y23368
X62100Y23743
X62350Y21743
X62850Y21743
X63225Y21868
X63350Y20243
X63350Y19743
X62850Y20118
X61350Y20118
X60600Y19368
X60600Y18868
X60975Y18618
X61475Y18493
X58350Y21493
X58850Y21868
X57100Y21868
X57100Y21243
X56475Y21118
X56100Y21118
X55725Y21118
X55350Y21118
X54975Y21118
X54600Y21118
X54225Y21118
X53850Y21118
X52725Y21118
X52350Y21118
X51975Y21118
X51600Y21118
X51225Y21118
X50850Y21118
X50475Y19868
X50100Y19493
X50850Y19493
X51225Y19493
X51850Y19493
X52100Y19243
X52350Y18993
X51725Y18118
X53600Y18118
X55475Y18118
X54850Y19368
X55600Y21868
X57100Y22743
X55475Y24243
X55350Y24618
X54850Y23743
X54850Y23368
X53850Y22618
X52350Y22618
X50600Y22743
X50100Y22243
X48850Y22243
X48850Y21868
X48850Y21493
X48850Y21118
X49100Y20743
X47100Y21868
X46600Y23243
X46600Y23868
X48600Y24618
X50100Y24743
X50100Y24368
X50100Y25118
X51600Y25118
X51600Y24368
X51600Y26618
X54100Y25868
X54600Y26618
X55600Y25868
X57100Y25868
X57100Y26618
X60100Y28618
X59475Y28993
X59850Y29243
X60225Y29368
X60600Y29493
X61100Y28993
X62350Y27743
X62850Y27618
X63475Y27368
X63850Y27368
X63850Y27743
X64350Y27743
X65100Y27743
X62850Y26118
X61725Y27493
X61225Y27493
X60600Y27118
X54850Y31118
X55475Y31618
X56225Y31243
X53350Y29618
X52975Y29618
X51850Y29368
X50600Y29493
X49850Y29368
X49850Y30868
X51725Y31368
X52100Y31118
X51350Y32368
X50850Y32993
X50350Y32618
X48725Y32618
X47100Y32618
X46850Y33868
X47850Y34118
X48350Y34118
X49975Y34243
X51725Y34118
X51725Y34743
X50475Y37243
X50350Y37618
X49975Y37618
X51350Y38618
X48100Y36868
X48100Y36368
X47725Y37493
X45975Y36993
X45725Y36618
X43975Y35993
X43975Y35493
X43850Y37868
X43100Y37868
X42350Y38868
X40600Y39868
X40100Y38368
X44600Y39368
X44600Y39868
X45350Y39618
X41850Y42618
X40100Y43368
X46225Y43868
X46850Y45368
X39725Y35118
X39725Y34118
X43100Y33118
X43850Y32118
X44350Y31618
X42100Y29368
X39975Y30118
X36850Y31243
X36100Y31243
X34100Y30493
X32850Y29618
X32100Y30368
X32100Y31118
X31350Y33118
X30350Y33118
X28725Y32868
X28475Y33368
X27975Y34743
X27100Y34368
X26850Y33118
X25850Y33118
X24350Y33118
X24475Y32368
X22600Y32118
X21350Y32368
X20350Y32868
X21975Y33993
X22600Y36118
X21350Y36618
X20850Y36868
X19100Y35743
X18600Y34993
X18100Y34993
X16600Y35618
X15100Y35618
X14600Y36618
X16850Y37368
X12100Y36368
X10504Y35272
X5600Y34868
X4350Y36618
X3600Y33118
X4350Y32493
X5600Y31743
X5225Y30243
X14350Y25868
X14350Y25118
X10225Y23118
X9475Y23618
X9475Y24118
X7350Y23493
X6850Y23493
X7350Y21868
X6850Y20868
X8475Y20243
X6600Y19618
X3100Y21368
X3100Y22118
X3975Y23118
X4850Y24118
X11100Y22118
X11100Y21243
X10600Y19618
X17350Y21118
X18100Y21368
X23975Y18993
X23975Y18493
X24600Y17993
X24975Y17993
X25600Y17993
X27350Y17868
X27975Y17493
X28475Y18243
X28475Y18618
X29225Y18743
X29600Y18743
X30100Y19243
X30350Y18993
X29850Y19618
X28725Y19368
X26850Y19618
X29725Y16743
X28975Y15368
X30100Y14618
X30475Y15118
X30850Y14868
X31600Y13118
X33475Y14993
X33975Y14743
X34350Y14743
X35100Y13743
X35100Y13368
X36475Y12118
X36850Y11743
X36475Y11493
X36850Y11243
X36475Y10993
X36850Y10743
X36475Y10493
X36850Y10243
X36475Y9993
X38600Y7868
X37725Y7493
X39725Y7493
X40475Y7868
X41350Y7493
X43225Y7868
X42975Y9118
X44225Y10743
X43975Y11118
X43725Y11493
X43475Y11993
X42975Y11993
X42225Y12118
X41725Y12118
X40475Y12118
X39350Y12118
X38850Y12118
X40975Y13368
X40975Y13993
X41350Y14243
X41975Y13743
X41725Y15243
X41975Y15868
X41600Y16618
X40725Y16118
X42725Y16493
X45225Y16993
X45475Y16243
X47100Y16743
X47350Y17118
X47600Y17493
X48600Y16868
X48350Y16493
X48100Y16118
X47850Y15743
X45725Y13743
X44475Y11993
X44725Y11493
X44975Y10868
X45225Y10243
X45475Y9618
X45725Y8743
X45475Y7493
X46100Y6118
X44100Y4743
X46100Y4118
X52350Y4118
X53850Y4118
X54100Y5618
X52600Y6868
X49850Y9118
X54600Y13868
X54100Y14118
X56725Y11868
X58100Y11868
X58475Y11243
X60100Y11868
X60600Y11868
X61600Y11868
X62350Y14118
X66475Y11243
X68350Y7618
X49600Y18368
X44975Y17743
X44725Y18493
X44475Y20118
X42725Y18618
X41600Y18243
X40850Y18493
X37600Y17743
X37600Y16118
X37975Y16118
X38350Y16118
X37225Y16118
X36850Y16118
X36100Y16118
X36475Y14993
X37100Y14368
X37600Y14368
X37975Y14368
X38475Y14368
X38975Y14368
X38725Y14993
X34600Y16118
X33100Y16243
X32850Y17368
X32850Y17743
X32600Y18118
X34850Y18618
X34100Y20618
X32600Y20743
X31539Y19805
X35100Y22243
X35350Y21743
X35600Y21243
X40100Y22243
X40850Y23243
X40475Y23493
X40350Y26180
X39225Y26243
X37600Y26243
X36350Y26368
X35850Y26368
X35225Y26368
X33850Y26618
X32600Y25493
X32600Y24743
X31475Y24993
X31350Y23868
X30850Y26868
X31850Y28368
X32850Y28368
X29100Y31118
X27600Y31118
X27600Y30368
X24850Y29118
X24725Y28243
X24725Y27618
X23975Y27618
X23600Y27368
X25100Y26868
X25350Y27118
X26100Y26868
X26600Y26618
X21600Y28618
X21100Y28368
X19100Y29493
X18100Y30243
X18725Y32368
X18725Y32868
X24600Y31118
X24600Y35118
X26600Y36368
X29100Y35118
X31100Y36368
X31600Y34368
X32475Y34743
X48350Y26368
X48725Y26618
X64600Y37868
X66600Y37618
X68350Y35868
X68850Y42118
X68850Y42868
X66850Y42868
X28350Y11618
X29600Y11243
X30350Y9868
X29100Y7868
X27600Y9118
X27850Y10368
X26225Y10243
X25475Y9993
X25475Y10493
X32100Y6868
T02
X36850Y27118
X44850Y28368
X44850Y29618
X46100Y30118
X37350Y35118
X37350Y36368
X67100Y33618
T03
X64100Y31618
X61100Y34118
X61100Y34868
X58600Y34118
X56350Y35618
X57100Y37118
X57850Y37118
X58600Y37118
X59350Y37118
X60100Y37118
X53600Y38868
X52600Y38868
X52850Y32118
X53850Y32118
X54850Y32118
T04
X39350Y38368
X39350Y39368
X39350Y40368
X39350Y41368
X39350Y42368
T05
X35850Y5868
X34850Y5868
X34850Y4868
X35850Y4868
X33850Y4868
X32850Y4868
X31850Y4868
X30850Y4868
X29850Y4868
X29850Y5868
X30850Y5868
X31850Y5868
X32850Y5868
X33850Y5868
T06
X48600Y39618
X48600Y40406
X48600Y41193
X48600Y41981
T07
X53108Y41801
X53108Y41014
X54092Y41014
X54092Y41801
T08
X63108Y41603
X64092Y41603
X64092Y40618
X63108Y40618
X63108Y39634
X64092Y39634
T09
X65850Y45618
X67350Y22118
X68350Y22118
X68350Y21118
X67350Y21118
X67350Y20118
X68350Y20118
X68350Y19118
X67350Y19118
X67350Y18118
X68350Y18118
X68350Y17118
X67350Y17118
X67350Y16118
X67350Y15118
X68350Y15118
X68350Y16118
X68350Y14118
X67350Y14118
X67350Y13118
X68350Y13118
X68350Y12118
X67350Y12118
X67350Y11118
X68350Y11118
X68350Y10118
X67350Y10118
X67350Y9118
X68350Y9118
X50850Y8368
X49850Y8368
X49850Y7368
X50850Y7368
X48850Y7368
X47850Y7368
X46850Y7368
X46850Y8368
X47850Y8368
X48850Y8368
X26600Y12618
X25600Y12618
X24600Y12618
X24600Y13618
X25600Y13618
X26600Y13618
X25850Y5868
X24850Y5868
X23850Y5868
X9600Y26118
X8600Y26118
X7600Y26118
X6600Y26118
X5600Y26118
X4600Y26118
X4600Y27118
X5600Y27118
X6600Y27118
X7600Y27118
X8600Y27118
X9600Y27118
T10
X55533Y12542
T11
X59600Y41368
X57600Y42493
X59600Y43743
T12
X37004Y42557
X36504Y43805
X37004Y45055
X32504Y46187
X32004Y45055
X31504Y43805
X32004Y42557
X31504Y41305
X32004Y40057
X31504Y38805
X30004Y40057
X29504Y41305
X30004Y42557
X29504Y43805
X30004Y45055
X25504Y46187
X25004Y45055
X24504Y43805
X25004Y42557
X24504Y41305
X25004Y40057
X24504Y38805
X23004Y40057
X22504Y41305
X23004Y42557
X22504Y43805
X23004Y45055
X18504Y46187
X18004Y45055
X16004Y45055
X15504Y43805
X16004Y42557
X17504Y43805
X18004Y42557
X17504Y41305
X18004Y40057
X17504Y38805
X16004Y40057
X15504Y41305
X15504Y38805
X11004Y40057
X10504Y41305
X11004Y42557
X10504Y43805
X11004Y45055
X11504Y46187
X8504Y45195
X8504Y42695
X8504Y40195
X10504Y38805
X4004Y40195
X4004Y42695
X4004Y45195
X22504Y38805
X29504Y38805
X36504Y38805
X37004Y40057
X36504Y41305
X16696Y10042
X16696Y7542
X16696Y5042
X12196Y5042
X9696Y5042
X9696Y7542
X12196Y7542
X12196Y10042
X9696Y10042
X5196Y10042
X5196Y7542
X5196Y5042
T13
X47458Y39421
X49742Y39421
X49742Y42177
X47458Y42177
X44533Y43152
X44533Y45317
X43746Y46262
X63840Y12542
T14
X16696Y6301
X12196Y6301
X9696Y6301
X5196Y6301
X4004Y43935
X8504Y43935
T15
X51238Y42868
X55962Y42868
T16
X15858Y8801
X8858Y8801
X4842Y41435
T17
X2100Y4618
X39350Y4618
X68100Y4618
X68100Y44868
X39350Y44868
X2100Y44868
M30
