%
M48
M72
T01C0.0150
T02C0.0236
T03C0.0276
T04C0.0320
T05C0.0360
T06C0.0362
T07C0.0374
T08C0.0394
T09C0.0400
T10C0.0433
T11C0.0560
T12C0.0591
T13C0.0630
T14C0.0906
T15C0.1200
%
T01
X24925Y4118
X26800Y4868
X28550Y4868
X29175Y4868
X29175Y4118
X24925Y5618
X24925Y7868
X31925Y10118
X31925Y10618
X32800Y10243
X34425Y10368
X34925Y11618
X36175Y11243
X36925Y9868
X34175Y9118
X35675Y7868
X38675Y6868
X43050Y9993
X43425Y10243
X43050Y10493
X43425Y10743
X43050Y10993
X43425Y11243
X43050Y11493
X43425Y11743
X43050Y12118
X41675Y13368
X41675Y13743
X40925Y14743
X40550Y14743
X40050Y14993
X39675Y16243
X39425Y17368
X39425Y17743
X39175Y18118
X38050Y18118
X37425Y17868
X36425Y17743
X36300Y16743
X34550Y17493
X33925Y17868
X35050Y18243
X35050Y18618
X35425Y18743
X35800Y18743
X36175Y18743
X36675Y19243
X36925Y18993
X36550Y19618
X36550Y19993
X36175Y20243
X37175Y20493
X37675Y21118
X38050Y21493
X37425Y21993
X38050Y22618
X39175Y22618
X39175Y23493
X39925Y23493
X40675Y23993
X40675Y24368
X41050Y24368
X42050Y25118
X43175Y25118
X44425Y24368
X44800Y25118
X44175Y26243
X42925Y26368
X42425Y26368
X41800Y26368
X40425Y26618
X39175Y25493
X39175Y24743
X38050Y24993
X37925Y23868
X41675Y22243
X41925Y21743
X42175Y21243
X40675Y20618
X39175Y20743
X38114Y19805
X35300Y19368
X33425Y19618
X33800Y20993
X31675Y21118
X31300Y20868
X30925Y21118
X30550Y20868
X30550Y20493
X30550Y18993
X30550Y18493
X31175Y17993
X31550Y17993
X32175Y17993
X28425Y16743
X26675Y18243
X26425Y18493
X26175Y18743
X25925Y18993
X25050Y18993
X25050Y18493
X23925Y18118
X22675Y16118
X21675Y16118
X21425Y14868
X20550Y14493
X21925Y12868
X23925Y14118
X24675Y15118
X20925Y18118
X20925Y18868
X21925Y19868
X20550Y21493
X21425Y21868
X21675Y23118
X22675Y23118
X24675Y23368
X24925Y22868
X26050Y23618
X26425Y23243
X27050Y23368
X25675Y23993
X25300Y24368
X23925Y25118
X20925Y25118
X20925Y25868
X16050Y24118
X16050Y23618
X16800Y23118
X17675Y22118
X17675Y21243
X19425Y19868
X17175Y19618
X15050Y20243
X13425Y20868
X13925Y21868
X13925Y23493
X13425Y23493
X10550Y23118
X9675Y22118
X9675Y21368
X13175Y19618
X23925Y21118
X24675Y21368
X29175Y21868
X29175Y22368
X29800Y22618
X33925Y22368
X27050Y24868
X30175Y27368
X30550Y27618
X31300Y27618
X31300Y28243
X31925Y27118
X31675Y26868
X32675Y26868
X33175Y26618
X37425Y26868
X38425Y28368
X39425Y28368
X39425Y29618
X38675Y30368
X38675Y31118
X35675Y31118
X34175Y31118
X34175Y30368
X31425Y29118
X31175Y31118
X31050Y32368
X30925Y33118
X32425Y33118
X33425Y33118
X35050Y33368
X35300Y32868
X36925Y33118
X37925Y33118
X38175Y34368
X39050Y34743
X35675Y35118
X34550Y34743
X33675Y34368
X31175Y35118
X29175Y36118
X27925Y36618
X27425Y36868
X25675Y35743
X25175Y34993
X24675Y34993
X23175Y35618
X21675Y35618
X21175Y36618
X18675Y36368
X17079Y35272
X12175Y34868
X10175Y33118
X10925Y32493
X12175Y31743
X11800Y30243
X24675Y30243
X25675Y29493
X27675Y28368
X28175Y28618
X29175Y32118
X27925Y32368
X26925Y32868
X25300Y32868
X25300Y32368
X28550Y33993
X33175Y36368
X37675Y36368
X46300Y35118
X46300Y34118
X49675Y33118
X50425Y32118
X50925Y31618
X53675Y32618
X55300Y32618
X55175Y31493
X55175Y31118
X56425Y30868
X58300Y31368
X58675Y31118
X58300Y31868
X58675Y32118
X57925Y32368
X57425Y32993
X56925Y32618
X58300Y34118
X58300Y34743
X56550Y34243
X54925Y34118
X54425Y34118
X53425Y33868
X50550Y35493
X50550Y35993
X52300Y36618
X52550Y36993
X54300Y37493
X54675Y36868
X54675Y36368
X56550Y37618
X56925Y37618
X57050Y37243
X57925Y38618
X52425Y39618
X51175Y39368
X51175Y39868
X50425Y37868
X49675Y37868
X48925Y38868
X47175Y39868
X46675Y38368
X48425Y42618
X46675Y43368
X53425Y43868
X71175Y37868
X73175Y37618
X74925Y35868
X75425Y42118
X75425Y42868
X73425Y42868
X62425Y31118
X59925Y29618
X59550Y29618
X58425Y29368
X57175Y29493
X56425Y29368
X55800Y28368
X55425Y28743
X55050Y28993
X56675Y28118
X57425Y28118
X58175Y28118
X58550Y28118
X58925Y28118
X59925Y28118
X60425Y28118
X60925Y28118
X62050Y28118
X62425Y28118
X64925Y28243
X64925Y28618
X65175Y27868
X65550Y27618
X65925Y27493
X66175Y27118
X65675Y26618
X66175Y26118
X66050Y25743
X66425Y25493
X66300Y24743
X65675Y24743
X65175Y24368
X65175Y23993
X65550Y23993
X65550Y23618
X67050Y24368
X67550Y24368
X68050Y23993
X68300Y23368
X68675Y23743
X69800Y21868
X69425Y21743
X68925Y21743
X69425Y20118
X69925Y20243
X69925Y19743
X67925Y20118
X67175Y19368
X67175Y18868
X67550Y18618
X68050Y18493
X62050Y18118
X61425Y19368
X58925Y18993
X58675Y19243
X58425Y19493
X57800Y19493
X57425Y19493
X57050Y19868
X56675Y19493
X56175Y18368
X58300Y18118
X60175Y18118
X55175Y16868
X54925Y16493
X54675Y16118
X54425Y15743
X53675Y16743
X53925Y17118
X54175Y17493
X51800Y16993
X52050Y16243
X51550Y17743
X51300Y18493
X51050Y20118
X49300Y20868
X48175Y20618
X48175Y21118
X48175Y21493
X48175Y22243
X48175Y22743
X47800Y22993
X47425Y23243
X47050Y23493
X46550Y24368
X47550Y25118
X48175Y24618
X48175Y23618
X48175Y23243
X49300Y23368
X49300Y23743
X49800Y24118
X50425Y24868
X50425Y25368
X49800Y25618
X49425Y26118
X49425Y26868
X46925Y26180
X45800Y26243
X48675Y29368
X46550Y30118
X43425Y31243
X42675Y31243
X40675Y30493
X51425Y26368
X52800Y25868
X53175Y25868
X51800Y25118
X51300Y25368
X53175Y23868
X53175Y23243
X53675Y21868
X55425Y21868
X55425Y21493
X55425Y21118
X55675Y20743
X55425Y22243
X56675Y22243
X57175Y22743
X57425Y21118
X57800Y21118
X58175Y21118
X58550Y21118
X58925Y21118
X59300Y21118
X60425Y21118
X60800Y21118
X61175Y21118
X61550Y21118
X61925Y21118
X62300Y21118
X62675Y21118
X63050Y21118
X63675Y21243
X63675Y21868
X63675Y22743
X62175Y21868
X60425Y22618
X61425Y23368
X61425Y23743
X62050Y24243
X61925Y24618
X62175Y25868
X61175Y26618
X60675Y25868
X58175Y25118
X58175Y24368
X56675Y24368
X56675Y24743
X56675Y25118
X55175Y24618
X54925Y26368
X55300Y26618
X53175Y27118
X52925Y27618
X58175Y26618
X63675Y26618
X63675Y25868
X67175Y27118
X67800Y27493
X68300Y27493
X68925Y27743
X69425Y27618
X70050Y27368
X70425Y27368
X70425Y27743
X70925Y27743
X71675Y27743
X69425Y26118
X67675Y28993
X67175Y29493
X66800Y29368
X66425Y29243
X66050Y28993
X66675Y28618
X58925Y22618
X64925Y21493
X65425Y21868
X50800Y22743
X50550Y22368
X50300Y22118
X50050Y21743
X46675Y22243
X47425Y18493
X48175Y18243
X49300Y18618
X49300Y16493
X48550Y15868
X48300Y15243
X47925Y14243
X47550Y13993
X47550Y13368
X48550Y13743
X48800Y12118
X48300Y12118
X47050Y12118
X45925Y12118
X45425Y12118
X45550Y14368
X45050Y14368
X44550Y14368
X44175Y14368
X43675Y14368
X43050Y14993
X42675Y16118
X43425Y16118
X43800Y16118
X44175Y16118
X44550Y16118
X44925Y16118
X47300Y16118
X48175Y16618
X45300Y14993
X41175Y16118
X44175Y17743
X41425Y18618
X35550Y15368
X38175Y13118
X44300Y7493
X45175Y7868
X46300Y7493
X47050Y7868
X47925Y7493
X49800Y7868
X52050Y7493
X52300Y8743
X52050Y9618
X51800Y10243
X51550Y10868
X51300Y11493
X51050Y11993
X50300Y11493
X50550Y11118
X50800Y10743
X50050Y11993
X49550Y11993
X52300Y13743
X49550Y9118
X52675Y6118
X50675Y4743
X52675Y4118
X58925Y4118
X60425Y4118
X60675Y5618
X59175Y6868
X56425Y9118
X63300Y11868
X64675Y11868
X65050Y11243
X66675Y11868
X67175Y11868
X68175Y11868
X68925Y14118
X72175Y14118
X72550Y14118
X61175Y13868
X60675Y14118
X23425Y37368
X10925Y36618
T02
X43925Y36368
X43925Y35118
X52675Y30118
X51425Y29618
X51425Y28368
X43425Y27118
X73675Y33618
T03
X70675Y31618
X67175Y34118
X67675Y34618
X65175Y34118
X62925Y35618
X63675Y37118
X64425Y37118
X65175Y37118
X65925Y37118
X66675Y37118
X60175Y38868
X59175Y38868
X59425Y32118
X60425Y32118
X61425Y32118
T04
X45925Y38368
X45925Y39368
X45925Y40368
X45925Y41368
X45925Y42368
T05
X42425Y5868
X41425Y5868
X40425Y5868
X39425Y5868
X38425Y5868
X37425Y5868
X36425Y5868
X36425Y4868
X37425Y4868
X38425Y4868
X39425Y4868
X40425Y4868
X41425Y4868
X42425Y4868
T06
X55175Y39618
X55175Y40406
X55175Y41193
X55175Y41981
T07
X59683Y41801
X59683Y41014
X60667Y41014
X60667Y41801
T08
X69683Y41603
X70667Y41603
X70667Y40618
X70667Y39634
X69683Y39634
X69683Y40618
T09
X72425Y45618
X73925Y22118
X73925Y21118
X74925Y21118
X74925Y22118
X74925Y20118
X74925Y19118
X73925Y19118
X73925Y20118
X73925Y18118
X73925Y17118
X73925Y16118
X74925Y16118
X74925Y17118
X74925Y18118
X74925Y15118
X74925Y14118
X74925Y13118
X73925Y13118
X73925Y14118
X73925Y15118
X73925Y12118
X73925Y11118
X74925Y11118
X74925Y12118
X74925Y10118
X74925Y9118
X73925Y9118
X73925Y10118
X57425Y8368
X57425Y7368
X56425Y7368
X55425Y7368
X54425Y7368
X53425Y7368
X53425Y8368
X54425Y8368
X55425Y8368
X56425Y8368
X36175Y12618
X35175Y12618
X34175Y12618
X34175Y13618
X35175Y13618
X36175Y13618
X16175Y26118
X15175Y26118
X14175Y26118
X13175Y26118
X12175Y26118
X11175Y26118
X11175Y27118
X12175Y27118
X13175Y27118
X14175Y27118
X15175Y27118
X16175Y27118
T10
X62108Y12542
T11
X66175Y41368
X64175Y42493
X66175Y43743
T12
X43579Y42557
X43079Y43805
X43579Y45055
X39079Y46187
X38579Y45055
X38079Y43805
X36579Y45055
X36079Y43805
X36579Y42557
X38579Y42557
X38079Y41305
X38579Y40057
X36579Y40057
X36079Y41305
X36079Y38805
X38079Y38805
X43079Y38805
X43579Y40057
X43079Y41305
X31579Y40057
X31079Y41305
X29579Y40057
X29079Y41305
X29579Y42557
X31579Y42557
X31079Y43805
X31579Y45055
X29579Y45055
X29079Y43805
X32079Y46187
X25079Y46187
X24579Y45055
X24079Y43805
X22579Y45055
X22079Y43805
X22579Y42557
X24579Y42557
X24079Y41305
X24579Y40057
X22579Y40057
X22079Y41305
X22079Y38805
X24079Y38805
X29079Y38805
X31079Y38805
X17579Y40057
X17079Y41305
X17579Y42557
X17079Y43805
X17579Y45055
X18079Y46187
X15079Y44998
X15079Y42498
X15079Y39998
X17079Y38805
X10579Y39998
X10579Y42498
X10579Y44998
X11771Y10238
X16271Y10238
X18771Y10238
X23271Y10238
X23271Y7738
X23271Y5238
X18771Y5238
X16271Y5238
X16271Y7738
X18771Y7738
X11771Y7738
X11771Y5238
T13
X70415Y12542
X56317Y39421
X54033Y39421
X54033Y42177
X51108Y43152
X51108Y45317
X50321Y46262
X56317Y42177
T14
X57813Y42868
X62537Y42868
T15
X8675Y4618
X45925Y4618
X74675Y4618
X74675Y44868
X45925Y44868
X8675Y44868
M30
