G75*
G70*
%OFA0B0*%
%FSLAX24Y24*%
%IPPOS*%
%LPD*%
%AMOC8*
5,1,8,0,0,1.08239X$1,22.5*
%
%ADD10C,0.0050*%
%ADD11C,0.0060*%
%ADD12C,0.0080*%
%ADD13C,0.0040*%
%ADD14R,0.0315X0.0160*%
%ADD15R,0.0335X0.0295*%
%ADD16R,0.0394X0.0079*%
%ADD17C,0.0020*%
%ADD18C,0.0279*%
%ADD19R,0.0080X0.0330*%
%ADD20R,0.0160X0.0315*%
%ADD21R,0.0630X0.0157*%
%ADD22R,0.1000X0.0193*%
%ADD23R,0.0157X0.0630*%
%ADD24R,0.0193X0.1000*%
%ADD25R,0.0200X0.0200*%
%ADD26C,0.0160*%
%ADD27R,0.0049X0.0197*%
%ADD28R,0.0128X0.0089*%
%ADD29R,0.0089X0.0049*%
%ADD30R,0.0049X0.0167*%
%ADD31R,0.0138X0.0197*%
%ADD32R,0.0049X0.0236*%
%ADD33R,0.0118X0.0669*%
%ADD34R,0.0276X0.0669*%
%ADD35R,0.0167X0.0128*%
%ADD36R,0.0138X0.0138*%
%ADD37C,0.0100*%
%ADD38R,0.0230X0.0180*%
%ADD39C,0.0250*%
%ADD40R,0.0433X0.0193*%
%ADD41R,0.0128X0.0197*%
%ADD42R,0.0059X0.0098*%
%ADD43R,0.0157X0.0069*%
%ADD44R,0.0079X0.0079*%
%ADD45R,0.0118X0.0118*%
%ADD46R,0.0128X0.0030*%
%ADD47R,0.0374X0.0118*%
%ADD48R,0.0690X0.0290*%
%ADD49R,0.0193X0.0433*%
D10*
X003188Y001275D02*
X003188Y001625D01*
X003247Y001450D02*
X003422Y001275D01*
X003557Y001333D02*
X003790Y001567D01*
X003790Y001333D01*
X003732Y001275D01*
X003615Y001275D01*
X003557Y001333D01*
X003557Y001567D01*
X003615Y001625D01*
X003732Y001625D01*
X003790Y001567D01*
X003422Y001625D02*
X003188Y001392D01*
X008675Y002938D02*
X008675Y003114D01*
X008733Y003172D01*
X008850Y003172D01*
X008908Y003114D01*
X008908Y002938D01*
X009025Y002938D02*
X008675Y002938D01*
X008908Y003055D02*
X009025Y003172D01*
X009025Y003307D02*
X008791Y003540D01*
X008733Y003540D01*
X008675Y003482D01*
X008675Y003365D01*
X008733Y003307D01*
X009025Y003307D02*
X009025Y003540D01*
X009425Y003482D02*
X009483Y003540D01*
X009541Y003540D01*
X009600Y003482D01*
X009658Y003540D01*
X009717Y003540D01*
X009775Y003482D01*
X009775Y003365D01*
X009717Y003307D01*
X009775Y003172D02*
X009658Y003055D01*
X009658Y003114D02*
X009658Y002938D01*
X009775Y002938D02*
X009425Y002938D01*
X009425Y003114D01*
X009483Y003172D01*
X009600Y003172D01*
X009658Y003114D01*
X009483Y003307D02*
X009425Y003365D01*
X009425Y003482D01*
X009600Y003482D02*
X009600Y003423D01*
X010175Y003307D02*
X010350Y003307D01*
X010291Y003423D01*
X010291Y003482D01*
X010350Y003540D01*
X010467Y003540D01*
X010525Y003482D01*
X010525Y003365D01*
X010467Y003307D01*
X010467Y003172D02*
X010525Y003114D01*
X010525Y002997D01*
X010467Y002938D01*
X010350Y002938D02*
X010291Y003055D01*
X010291Y003114D01*
X010350Y003172D01*
X010467Y003172D01*
X010350Y002938D02*
X010175Y002938D01*
X010175Y003172D01*
X010175Y003307D02*
X010175Y003540D01*
X010233Y002804D02*
X010175Y002745D01*
X010175Y002628D01*
X010233Y002570D01*
X010467Y002570D01*
X010525Y002628D01*
X010525Y002745D01*
X010467Y002804D01*
X011188Y001625D02*
X011188Y001275D01*
X011188Y001392D02*
X011422Y001625D01*
X011557Y001509D02*
X011673Y001625D01*
X011673Y001275D01*
X011557Y001275D02*
X011790Y001275D01*
X011422Y001275D02*
X011247Y001450D01*
X016675Y002570D02*
X016675Y002745D01*
X016733Y002804D01*
X016850Y002804D01*
X016908Y002745D01*
X016908Y002570D01*
X016908Y002687D02*
X017025Y002804D01*
X017025Y002938D02*
X016791Y003172D01*
X016733Y003172D01*
X016675Y003114D01*
X016675Y002997D01*
X016733Y002938D01*
X017025Y002938D02*
X017025Y003172D01*
X016967Y003307D02*
X017025Y003365D01*
X017025Y003482D01*
X016967Y003540D01*
X016733Y003540D01*
X016675Y003482D01*
X016675Y003365D01*
X016733Y003307D01*
X016791Y003307D01*
X016850Y003365D01*
X016850Y003540D01*
X017425Y003482D02*
X017483Y003540D01*
X017541Y003540D01*
X017600Y003482D01*
X017600Y003365D01*
X017541Y003307D01*
X017483Y003307D01*
X017425Y003365D01*
X017425Y003482D01*
X017600Y003482D02*
X017658Y003540D01*
X017717Y003540D01*
X017775Y003482D01*
X017775Y003365D01*
X017717Y003307D01*
X017658Y003307D01*
X017600Y003365D01*
X017541Y003172D02*
X017483Y003172D01*
X017425Y003114D01*
X017425Y002997D01*
X017483Y002938D01*
X017483Y002804D02*
X017600Y002804D01*
X017658Y002745D01*
X017658Y002570D01*
X017658Y002687D02*
X017775Y002804D01*
X017775Y002938D02*
X017541Y003172D01*
X017775Y003172D02*
X017775Y002938D01*
X017483Y002804D02*
X017425Y002745D01*
X017425Y002570D01*
X017775Y002570D01*
X018175Y002628D02*
X018233Y002570D01*
X018467Y002570D01*
X018525Y002628D01*
X018525Y002745D01*
X018467Y002804D01*
X018467Y002938D02*
X018525Y002997D01*
X018525Y003114D01*
X018467Y003172D01*
X018350Y003172D01*
X018291Y003114D01*
X018291Y003055D01*
X018350Y002938D01*
X018175Y002938D01*
X018175Y003172D01*
X018350Y003307D02*
X018350Y003482D01*
X018408Y003540D01*
X018467Y003540D01*
X018525Y003482D01*
X018525Y003365D01*
X018467Y003307D01*
X018350Y003307D01*
X018233Y003423D01*
X018175Y003540D01*
X018233Y002804D02*
X018175Y002745D01*
X018175Y002628D01*
X017025Y002570D02*
X016675Y002570D01*
X019188Y001625D02*
X019188Y001275D01*
X019188Y001392D02*
X019422Y001625D01*
X019557Y001567D02*
X019615Y001625D01*
X019732Y001625D01*
X019790Y001567D01*
X019790Y001509D01*
X019557Y001275D01*
X019790Y001275D01*
X019422Y001275D02*
X019247Y001450D01*
X024675Y002570D02*
X024675Y002745D01*
X024733Y002804D01*
X024850Y002804D01*
X024908Y002745D01*
X024908Y002570D01*
X024908Y002687D02*
X025025Y002804D01*
X024967Y002938D02*
X025025Y002997D01*
X025025Y003114D01*
X024967Y003172D01*
X024908Y003172D01*
X024850Y003114D01*
X024850Y003055D01*
X024850Y003114D02*
X024791Y003172D01*
X024733Y003172D01*
X024675Y003114D01*
X024675Y002997D01*
X024733Y002938D01*
X024733Y003307D02*
X024675Y003365D01*
X024675Y003482D01*
X024733Y003540D01*
X024967Y003307D01*
X025025Y003365D01*
X025025Y003482D01*
X024967Y003540D01*
X024733Y003540D01*
X024733Y003307D02*
X024967Y003307D01*
X025425Y003423D02*
X025775Y003423D01*
X025775Y003307D02*
X025775Y003540D01*
X025541Y003307D02*
X025425Y003423D01*
X025483Y003172D02*
X025541Y003172D01*
X025600Y003114D01*
X025658Y003172D01*
X025717Y003172D01*
X025775Y003114D01*
X025775Y002997D01*
X025717Y002938D01*
X025775Y002804D02*
X025658Y002687D01*
X025658Y002745D02*
X025658Y002570D01*
X025775Y002570D02*
X025425Y002570D01*
X025425Y002745D01*
X025483Y002804D01*
X025600Y002804D01*
X025658Y002745D01*
X025483Y002938D02*
X025425Y002997D01*
X025425Y003114D01*
X025483Y003172D01*
X025600Y003114D02*
X025600Y003055D01*
X026175Y002938D02*
X026350Y002938D01*
X026291Y003055D01*
X026291Y003114D01*
X026350Y003172D01*
X026467Y003172D01*
X026525Y003114D01*
X026525Y002997D01*
X026467Y002938D01*
X026467Y002804D02*
X026525Y002745D01*
X026525Y002628D01*
X026467Y002570D01*
X026233Y002570D01*
X026175Y002628D01*
X026175Y002745D01*
X026233Y002804D01*
X026175Y002938D02*
X026175Y003172D01*
X026175Y003307D02*
X026175Y003540D01*
X026233Y003540D01*
X026467Y003307D01*
X026525Y003307D01*
X025025Y002570D02*
X024675Y002570D01*
X027188Y001625D02*
X027188Y001275D01*
X027188Y001392D02*
X027422Y001625D01*
X027557Y001567D02*
X027615Y001625D01*
X027732Y001625D01*
X027790Y001567D01*
X027790Y001509D01*
X027732Y001450D01*
X027790Y001392D01*
X027790Y001333D01*
X027732Y001275D01*
X027615Y001275D01*
X027557Y001333D01*
X027422Y001275D02*
X027247Y001450D01*
X027673Y001450D02*
X027732Y001450D01*
X032675Y002570D02*
X032675Y002745D01*
X032733Y002804D01*
X032850Y002804D01*
X032908Y002745D01*
X032908Y002570D01*
X032908Y002687D02*
X033025Y002804D01*
X032967Y002938D02*
X033025Y002997D01*
X033025Y003114D01*
X032967Y003172D01*
X032908Y003172D01*
X032850Y003114D01*
X032850Y003055D01*
X032850Y003114D02*
X032791Y003172D01*
X032733Y003172D01*
X032675Y003114D01*
X032675Y002997D01*
X032733Y002938D01*
X032733Y003307D02*
X032675Y003365D01*
X032675Y003482D01*
X032733Y003540D01*
X032791Y003540D01*
X033025Y003307D01*
X033025Y003540D01*
X033425Y003482D02*
X033483Y003540D01*
X033541Y003540D01*
X033600Y003482D01*
X033658Y003540D01*
X033717Y003540D01*
X033775Y003482D01*
X033775Y003365D01*
X033717Y003307D01*
X033717Y003172D02*
X033775Y003114D01*
X033775Y002997D01*
X033717Y002938D01*
X033775Y002804D02*
X033658Y002687D01*
X033658Y002745D02*
X033658Y002570D01*
X033775Y002570D02*
X033425Y002570D01*
X033425Y002745D01*
X033483Y002804D01*
X033600Y002804D01*
X033658Y002745D01*
X033483Y002938D02*
X033425Y002997D01*
X033425Y003114D01*
X033483Y003172D01*
X033541Y003172D01*
X033600Y003114D01*
X033658Y003172D01*
X033717Y003172D01*
X033600Y003114D02*
X033600Y003055D01*
X033483Y003307D02*
X033425Y003365D01*
X033425Y003482D01*
X033600Y003482D02*
X033600Y003423D01*
X034175Y003365D02*
X034175Y003482D01*
X034233Y003540D01*
X034291Y003540D01*
X034350Y003482D01*
X034350Y003365D01*
X034291Y003307D01*
X034233Y003307D01*
X034175Y003365D01*
X034350Y003365D02*
X034408Y003307D01*
X034467Y003307D01*
X034525Y003365D01*
X034525Y003482D01*
X034467Y003540D01*
X034408Y003540D01*
X034350Y003482D01*
X034350Y003172D02*
X034467Y003172D01*
X034525Y003114D01*
X034525Y002997D01*
X034467Y002938D01*
X034350Y002938D02*
X034291Y003055D01*
X034291Y003114D01*
X034350Y003172D01*
X034175Y003172D02*
X034175Y002938D01*
X034350Y002938D01*
X034467Y002804D02*
X034525Y002745D01*
X034525Y002628D01*
X034467Y002570D01*
X034233Y002570D01*
X034175Y002628D01*
X034175Y002745D01*
X034233Y002804D01*
X033025Y002570D02*
X032675Y002570D01*
X038570Y004458D02*
X038628Y004400D01*
X038745Y004400D01*
X038804Y004458D01*
X038938Y004458D02*
X038997Y004400D01*
X039114Y004400D01*
X039172Y004458D01*
X039172Y004517D01*
X039114Y004575D01*
X039055Y004575D01*
X039114Y004575D02*
X039172Y004634D01*
X039172Y004692D01*
X039114Y004750D01*
X038997Y004750D01*
X038938Y004692D01*
X038804Y004692D02*
X038745Y004750D01*
X038628Y004750D01*
X038570Y004692D01*
X038570Y004458D01*
X039307Y004575D02*
X039540Y004575D01*
X039482Y004400D02*
X039482Y004750D01*
X039307Y004575D01*
X041570Y005708D02*
X041570Y005942D01*
X041628Y006000D01*
X041745Y006000D01*
X041804Y005942D01*
X041938Y006000D02*
X041938Y005825D01*
X042055Y005884D01*
X042114Y005884D01*
X042172Y005825D01*
X042172Y005708D01*
X042114Y005650D01*
X041997Y005650D01*
X041938Y005708D01*
X041804Y005708D02*
X041745Y005650D01*
X041628Y005650D01*
X041570Y005708D01*
X041938Y006000D02*
X042172Y006000D01*
X042307Y005942D02*
X042307Y005884D01*
X042365Y005825D01*
X042540Y005825D01*
X042540Y005708D02*
X042540Y005942D01*
X042482Y006000D01*
X042365Y006000D01*
X042307Y005942D01*
X042307Y005708D02*
X042365Y005650D01*
X042482Y005650D01*
X042540Y005708D01*
X046050Y003217D02*
X046050Y002983D01*
X046108Y002925D01*
X046225Y002925D01*
X046284Y002983D01*
X046418Y002983D02*
X046477Y002925D01*
X046593Y002925D01*
X046652Y002983D01*
X046652Y003042D01*
X046593Y003100D01*
X046418Y003100D01*
X046418Y002983D01*
X046418Y003100D02*
X046535Y003217D01*
X046652Y003275D01*
X046787Y003159D02*
X046903Y003275D01*
X046903Y002925D01*
X046787Y002925D02*
X047020Y002925D01*
X046284Y003217D02*
X046225Y003275D01*
X046108Y003275D01*
X046050Y003217D01*
X051363Y002096D02*
X051479Y002213D01*
X051479Y001863D01*
X051363Y001863D02*
X051596Y001863D01*
X051731Y001921D02*
X051789Y001863D01*
X051906Y001863D01*
X051964Y001921D01*
X051964Y001979D01*
X051906Y002038D01*
X051848Y002038D01*
X051906Y002038D02*
X051964Y002096D01*
X051964Y002154D01*
X051906Y002213D01*
X051789Y002213D01*
X051731Y002154D01*
X052099Y002154D02*
X052158Y002213D01*
X052274Y002213D01*
X052333Y002154D01*
X052099Y001921D01*
X052158Y001863D01*
X052274Y001863D01*
X052333Y001921D01*
X052333Y002154D01*
X052467Y002213D02*
X052467Y002038D01*
X052584Y002096D01*
X052643Y002096D01*
X052701Y002038D01*
X052701Y001921D01*
X052643Y001863D01*
X052526Y001863D01*
X052467Y001921D01*
X052467Y002213D02*
X052701Y002213D01*
X052836Y002154D02*
X052894Y002213D01*
X053011Y002213D01*
X053069Y002154D01*
X052836Y001921D01*
X052894Y001863D01*
X053011Y001863D01*
X053069Y001921D01*
X053069Y002154D01*
X053204Y002213D02*
X053438Y002213D01*
X053438Y002154D01*
X053204Y001921D01*
X053204Y001863D01*
X052836Y001921D02*
X052836Y002154D01*
X052099Y002154D02*
X052099Y001921D01*
X060050Y002733D02*
X060108Y002675D01*
X060225Y002675D01*
X060284Y002733D01*
X060418Y002733D02*
X060477Y002675D01*
X060593Y002675D01*
X060652Y002733D01*
X060652Y002792D01*
X060593Y002850D01*
X060418Y002850D01*
X060418Y002733D01*
X060418Y002850D02*
X060535Y002967D01*
X060652Y003025D01*
X060787Y002967D02*
X060845Y003025D01*
X060962Y003025D01*
X061020Y002967D01*
X060787Y002733D01*
X060845Y002675D01*
X060962Y002675D01*
X061020Y002733D01*
X061020Y002967D01*
X060787Y002967D02*
X060787Y002733D01*
X060284Y002967D02*
X060225Y003025D01*
X060108Y003025D01*
X060050Y002967D01*
X060050Y002733D01*
X063175Y004483D02*
X063233Y004425D01*
X063350Y004425D01*
X063409Y004483D01*
X063543Y004425D02*
X063777Y004425D01*
X063660Y004425D02*
X063660Y004775D01*
X063543Y004659D01*
X063409Y004717D02*
X063350Y004775D01*
X063233Y004775D01*
X063175Y004717D01*
X063175Y004483D01*
X063912Y004425D02*
X064145Y004659D01*
X064145Y004717D01*
X064087Y004775D01*
X063970Y004775D01*
X063912Y004717D01*
X063912Y004425D02*
X064145Y004425D01*
X064280Y004425D02*
X064280Y004483D01*
X064513Y004717D01*
X064513Y004775D01*
X064280Y004775D01*
X064293Y005425D02*
X064527Y005425D01*
X064410Y005425D02*
X064410Y005775D01*
X064293Y005659D01*
X064159Y005717D02*
X064100Y005775D01*
X063983Y005775D01*
X063925Y005717D01*
X063925Y005483D01*
X063983Y005425D01*
X064100Y005425D01*
X064159Y005483D01*
X064662Y005425D02*
X064895Y005659D01*
X064895Y005717D01*
X064837Y005775D01*
X064720Y005775D01*
X064662Y005717D01*
X064662Y005425D02*
X064895Y005425D01*
X065030Y005483D02*
X065088Y005425D01*
X065205Y005425D01*
X065263Y005483D01*
X065263Y005600D01*
X065205Y005659D01*
X065147Y005659D01*
X065030Y005600D01*
X065030Y005775D01*
X065263Y005775D01*
X064455Y006675D02*
X064338Y006675D01*
X064280Y006733D01*
X064280Y006792D01*
X064338Y006850D01*
X064455Y006850D01*
X064513Y006792D01*
X064513Y006733D01*
X064455Y006675D01*
X064455Y006850D02*
X064513Y006909D01*
X064513Y006967D01*
X064455Y007025D01*
X064338Y007025D01*
X064280Y006967D01*
X064280Y006909D01*
X064338Y006850D01*
X064145Y006909D02*
X063912Y006675D01*
X064145Y006675D01*
X064145Y006909D02*
X064145Y006967D01*
X064087Y007025D01*
X063970Y007025D01*
X063912Y006967D01*
X063660Y007025D02*
X063660Y006675D01*
X063543Y006675D02*
X063777Y006675D01*
X063543Y006909D02*
X063660Y007025D01*
X063409Y006967D02*
X063350Y007025D01*
X063233Y007025D01*
X063175Y006967D01*
X063175Y006733D01*
X063233Y006675D01*
X063350Y006675D01*
X063409Y006733D01*
X063983Y007675D02*
X064100Y007675D01*
X064159Y007733D01*
X064293Y007675D02*
X064527Y007675D01*
X064410Y007675D02*
X064410Y008025D01*
X064293Y007909D01*
X064159Y007967D02*
X064100Y008025D01*
X063983Y008025D01*
X063925Y007967D01*
X063925Y007733D01*
X063983Y007675D01*
X064662Y007675D02*
X064895Y007909D01*
X064895Y007967D01*
X064837Y008025D01*
X064720Y008025D01*
X064662Y007967D01*
X064662Y007675D02*
X064895Y007675D01*
X065030Y007733D02*
X065088Y007675D01*
X065205Y007675D01*
X065263Y007733D01*
X065263Y007792D01*
X065205Y007850D01*
X065030Y007850D01*
X065030Y007733D01*
X065030Y007850D02*
X065147Y007967D01*
X065263Y008025D01*
X054020Y014925D02*
X053787Y014925D01*
X054020Y015159D01*
X054020Y015217D01*
X053962Y015275D01*
X053845Y015275D01*
X053787Y015217D01*
X053652Y015275D02*
X053535Y015217D01*
X053418Y015100D01*
X053593Y015100D01*
X053652Y015042D01*
X053652Y014983D01*
X053593Y014925D01*
X053477Y014925D01*
X053418Y014983D01*
X053418Y015100D01*
X053284Y014983D02*
X053225Y014925D01*
X053108Y014925D01*
X053050Y014983D01*
X053050Y015217D01*
X053108Y015275D01*
X053225Y015275D01*
X053284Y015217D01*
X042750Y009587D02*
X042750Y009470D01*
X042692Y009412D01*
X042575Y009412D02*
X042516Y009528D01*
X042516Y009587D01*
X042575Y009645D01*
X042692Y009645D01*
X042750Y009587D01*
X042575Y009412D02*
X042400Y009412D01*
X042400Y009645D01*
X042458Y009277D02*
X042516Y009277D01*
X042575Y009218D01*
X042633Y009277D01*
X042692Y009277D01*
X042750Y009218D01*
X042750Y009102D01*
X042692Y009043D01*
X042750Y008909D02*
X042633Y008792D01*
X042633Y008850D02*
X042633Y008675D01*
X042750Y008675D02*
X042400Y008675D01*
X042400Y008850D01*
X042458Y008909D01*
X042575Y008909D01*
X042633Y008850D01*
X042458Y009043D02*
X042400Y009102D01*
X042400Y009218D01*
X042458Y009277D01*
X042575Y009218D02*
X042575Y009160D01*
X042000Y009102D02*
X041942Y009043D01*
X042000Y009102D02*
X042000Y009218D01*
X041942Y009277D01*
X041883Y009277D01*
X041825Y009218D01*
X041825Y009160D01*
X041825Y009218D02*
X041766Y009277D01*
X041708Y009277D01*
X041650Y009218D01*
X041650Y009102D01*
X041708Y009043D01*
X041708Y008909D02*
X041825Y008909D01*
X041883Y008850D01*
X041883Y008675D01*
X041883Y008792D02*
X042000Y008909D01*
X042000Y008675D02*
X041650Y008675D01*
X041650Y008850D01*
X041708Y008909D01*
X041825Y009412D02*
X041825Y009645D01*
X042000Y009587D02*
X041650Y009587D01*
X041825Y009412D01*
X039915Y009458D02*
X039915Y009692D01*
X039857Y009750D01*
X039740Y009750D01*
X039682Y009692D01*
X039682Y009634D01*
X039740Y009575D01*
X039915Y009575D01*
X039915Y009458D02*
X039857Y009400D01*
X039740Y009400D01*
X039682Y009458D01*
X039547Y009400D02*
X039313Y009400D01*
X039430Y009400D02*
X039430Y009750D01*
X039313Y009634D01*
X039179Y009750D02*
X039179Y009458D01*
X039120Y009400D01*
X039003Y009400D01*
X038945Y009458D01*
X038945Y009750D01*
X035150Y012628D02*
X035150Y012745D01*
X035092Y012804D01*
X035092Y012938D02*
X035150Y012997D01*
X035150Y013114D01*
X035092Y013172D01*
X035033Y013172D01*
X034975Y013114D01*
X034975Y012938D01*
X035092Y012938D01*
X034975Y012938D02*
X034858Y013055D01*
X034800Y013172D01*
X034858Y013307D02*
X034800Y013365D01*
X034800Y013482D01*
X034858Y013540D01*
X035092Y013540D01*
X035150Y013482D01*
X035150Y013365D01*
X035092Y013307D01*
X034975Y013365D02*
X034975Y013540D01*
X034975Y013365D02*
X034916Y013307D01*
X034858Y013307D01*
X034858Y012804D02*
X034800Y012745D01*
X034800Y012628D01*
X034858Y012570D01*
X035092Y012570D01*
X035150Y012628D01*
X033275Y012607D02*
X033275Y012490D01*
X033217Y012432D01*
X033158Y012432D01*
X033100Y012490D01*
X033100Y012607D01*
X033158Y012665D01*
X033217Y012665D01*
X033275Y012607D01*
X033100Y012607D02*
X033041Y012665D01*
X032983Y012665D01*
X032925Y012607D01*
X032925Y012490D01*
X032983Y012432D01*
X033041Y012432D01*
X033100Y012490D01*
X033158Y012297D02*
X033100Y012239D01*
X033100Y012063D01*
X033217Y012063D01*
X033275Y012122D01*
X033275Y012239D01*
X033217Y012297D01*
X033158Y012297D01*
X032983Y012180D02*
X032925Y012297D01*
X032983Y012180D02*
X033100Y012063D01*
X033217Y011929D02*
X033275Y011870D01*
X033275Y011753D01*
X033217Y011695D01*
X032983Y011695D01*
X032925Y011753D01*
X032925Y011870D01*
X032983Y011929D01*
X035525Y014425D02*
X035817Y014425D01*
X035875Y014483D01*
X035875Y014600D01*
X035817Y014659D01*
X035525Y014659D01*
X035641Y014793D02*
X035525Y014910D01*
X035875Y014910D01*
X035875Y014793D02*
X035875Y015027D01*
X035817Y015162D02*
X035583Y015395D01*
X035817Y015395D01*
X035875Y015337D01*
X035875Y015220D01*
X035817Y015162D01*
X035583Y015162D01*
X035525Y015220D01*
X035525Y015337D01*
X035583Y015395D01*
X035600Y015800D02*
X035483Y015800D01*
X035425Y015858D01*
X035425Y016092D01*
X035483Y016150D01*
X035600Y016150D01*
X035659Y016092D01*
X035793Y016150D02*
X036027Y016150D01*
X036027Y016092D01*
X035793Y015858D01*
X035793Y015800D01*
X035659Y015858D02*
X035600Y015800D01*
X036162Y015800D02*
X036395Y016034D01*
X036395Y016092D01*
X036337Y016150D01*
X036220Y016150D01*
X036162Y016092D01*
X036162Y015800D02*
X036395Y015800D01*
X036162Y016425D02*
X036162Y016483D01*
X036395Y016717D01*
X036395Y016775D01*
X036162Y016775D01*
X036027Y016775D02*
X035910Y016717D01*
X035793Y016600D01*
X035968Y016600D01*
X036027Y016542D01*
X036027Y016483D01*
X035968Y016425D01*
X035852Y016425D01*
X035793Y016483D01*
X035793Y016600D01*
X035659Y016600D02*
X035600Y016542D01*
X035425Y016542D01*
X035542Y016542D02*
X035659Y016425D01*
X035659Y016600D02*
X035659Y016717D01*
X035600Y016775D01*
X035425Y016775D01*
X035425Y016425D01*
X033645Y017483D02*
X033587Y017425D01*
X033470Y017425D01*
X033412Y017483D01*
X033645Y017717D01*
X033645Y017483D01*
X033412Y017483D02*
X033412Y017717D01*
X033470Y017775D01*
X033587Y017775D01*
X033645Y017717D01*
X033277Y017717D02*
X033043Y017483D01*
X033043Y017425D01*
X032909Y017483D02*
X032850Y017425D01*
X032733Y017425D01*
X032675Y017483D01*
X032675Y017717D01*
X032733Y017775D01*
X032850Y017775D01*
X032909Y017717D01*
X033043Y017775D02*
X033277Y017775D01*
X033277Y017717D01*
X032145Y019425D02*
X031912Y019425D01*
X032028Y019425D02*
X032028Y019775D01*
X031912Y019659D01*
X031777Y019717D02*
X031543Y019483D01*
X031543Y019425D01*
X031409Y019483D02*
X031350Y019425D01*
X031233Y019425D01*
X031175Y019483D01*
X031175Y019717D01*
X031233Y019775D01*
X031350Y019775D01*
X031409Y019717D01*
X031543Y019775D02*
X031777Y019775D01*
X031777Y019717D01*
X025900Y019732D02*
X025900Y019615D01*
X025842Y019557D01*
X025725Y019557D02*
X025666Y019673D01*
X025666Y019732D01*
X025725Y019790D01*
X025842Y019790D01*
X025900Y019732D01*
X025725Y019557D02*
X025550Y019557D01*
X025550Y019790D01*
X025608Y019422D02*
X025666Y019422D01*
X025725Y019364D01*
X025725Y019247D01*
X025666Y019188D01*
X025608Y019188D01*
X025550Y019247D01*
X025550Y019364D01*
X025608Y019422D01*
X025725Y019364D02*
X025783Y019422D01*
X025842Y019422D01*
X025900Y019364D01*
X025900Y019247D01*
X025842Y019188D01*
X025783Y019188D01*
X025725Y019247D01*
X025900Y019054D02*
X025900Y018820D01*
X025900Y018937D02*
X025550Y018937D01*
X025666Y018820D01*
X025608Y018685D02*
X025725Y018685D01*
X025783Y018627D01*
X025783Y018452D01*
X025783Y018569D02*
X025900Y018685D01*
X025900Y018452D02*
X025550Y018452D01*
X025550Y018627D01*
X025608Y018685D01*
X024415Y018692D02*
X024415Y018634D01*
X024357Y018575D01*
X024240Y018575D01*
X024182Y018634D01*
X024182Y018692D01*
X024240Y018750D01*
X024357Y018750D01*
X024415Y018692D01*
X024357Y018575D02*
X024415Y018517D01*
X024415Y018458D01*
X024357Y018400D01*
X024240Y018400D01*
X024182Y018458D01*
X024182Y018517D01*
X024240Y018575D01*
X024047Y018458D02*
X023989Y018400D01*
X023872Y018400D01*
X023813Y018458D01*
X024047Y018692D01*
X024047Y018458D01*
X023813Y018458D02*
X023813Y018692D01*
X023872Y018750D01*
X023989Y018750D01*
X024047Y018692D01*
X023679Y018692D02*
X023620Y018750D01*
X023503Y018750D01*
X023445Y018692D01*
X023310Y018692D02*
X023252Y018750D01*
X023135Y018750D01*
X023077Y018692D01*
X023077Y018458D01*
X023135Y018400D01*
X023252Y018400D01*
X023310Y018458D01*
X023445Y018400D02*
X023679Y018634D01*
X023679Y018692D01*
X023679Y018400D02*
X023445Y018400D01*
X025025Y017513D02*
X025083Y017397D01*
X025200Y017280D01*
X025200Y017455D01*
X025258Y017513D01*
X025317Y017513D01*
X025375Y017455D01*
X025375Y017338D01*
X025317Y017280D01*
X025200Y017280D01*
X025083Y017145D02*
X025317Y016912D01*
X025375Y016912D01*
X025375Y016777D02*
X025375Y016543D01*
X025375Y016660D02*
X025025Y016660D01*
X025141Y016543D01*
X025083Y016409D02*
X025200Y016409D01*
X025258Y016350D01*
X025258Y016175D01*
X025258Y016292D02*
X025375Y016409D01*
X025375Y016175D02*
X025025Y016175D01*
X025025Y016350D01*
X025083Y016409D01*
X025083Y016013D02*
X025317Y015780D01*
X025375Y015780D01*
X025083Y015645D02*
X025317Y015412D01*
X025375Y015412D01*
X025375Y015277D02*
X025375Y015043D01*
X025375Y015160D02*
X025025Y015160D01*
X025141Y015043D01*
X025083Y014909D02*
X025200Y014909D01*
X025258Y014850D01*
X025258Y014675D01*
X025258Y014792D02*
X025375Y014909D01*
X025375Y014675D02*
X025025Y014675D01*
X025025Y014850D01*
X025083Y014909D01*
X025025Y015412D02*
X025025Y015645D01*
X025083Y015645D01*
X025025Y015780D02*
X025025Y016013D01*
X025083Y016013D01*
X025025Y016912D02*
X025025Y017145D01*
X025083Y017145D01*
X025156Y014275D02*
X025156Y013925D01*
X025272Y013925D02*
X025039Y013925D01*
X024904Y013983D02*
X024846Y013925D01*
X024729Y013925D01*
X024671Y013983D01*
X024671Y014217D01*
X024729Y014275D01*
X024846Y014275D01*
X024904Y014217D01*
X025039Y014159D02*
X025156Y014275D01*
X025407Y014217D02*
X025466Y014275D01*
X025582Y014275D01*
X025641Y014217D01*
X025641Y014159D01*
X025582Y014100D01*
X025641Y014042D01*
X025641Y013983D01*
X025582Y013925D01*
X025466Y013925D01*
X025407Y013983D01*
X025524Y014100D02*
X025582Y014100D01*
X025608Y013290D02*
X025666Y013290D01*
X025725Y013232D01*
X025725Y013115D01*
X025666Y013057D01*
X025608Y013057D01*
X025550Y013115D01*
X025550Y013232D01*
X025608Y013290D01*
X025725Y013232D02*
X025783Y013290D01*
X025842Y013290D01*
X025900Y013232D01*
X025900Y013115D01*
X025842Y013057D01*
X025783Y013057D01*
X025725Y013115D01*
X025608Y012922D02*
X025842Y012688D01*
X025900Y012688D01*
X025900Y012554D02*
X025900Y012320D01*
X025900Y012437D02*
X025550Y012437D01*
X025666Y012320D01*
X025608Y012185D02*
X025725Y012185D01*
X025783Y012127D01*
X025783Y011952D01*
X025783Y012069D02*
X025900Y012185D01*
X025900Y011952D02*
X025550Y011952D01*
X025550Y012127D01*
X025608Y012185D01*
X025550Y012688D02*
X025550Y012922D01*
X025608Y012922D01*
X024542Y013925D02*
X024425Y013925D01*
X024483Y013925D02*
X024483Y014275D01*
X024425Y014275D02*
X024542Y014275D01*
X023790Y012125D02*
X023790Y012067D01*
X023557Y011833D01*
X023557Y011775D01*
X023422Y011833D02*
X023364Y011775D01*
X023247Y011775D01*
X023188Y011833D01*
X023247Y011950D02*
X023188Y012009D01*
X023188Y012067D01*
X023247Y012125D01*
X023364Y012125D01*
X023422Y012067D01*
X023422Y011833D01*
X023422Y011950D02*
X023247Y011950D01*
X023054Y011775D02*
X022820Y011775D01*
X022937Y011775D02*
X022937Y012125D01*
X022820Y012009D01*
X022685Y012067D02*
X022627Y012125D01*
X022510Y012125D01*
X022452Y012067D01*
X022452Y011833D01*
X022510Y011775D01*
X022627Y011775D01*
X022685Y011833D01*
X023557Y012125D02*
X023790Y012125D01*
X020875Y012425D02*
X020525Y012425D01*
X020525Y012600D01*
X020583Y012659D01*
X020700Y012659D01*
X020758Y012600D01*
X020758Y012425D01*
X020758Y012542D02*
X020875Y012659D01*
X020875Y012793D02*
X020875Y013027D01*
X020875Y012910D02*
X020525Y012910D01*
X020641Y012793D01*
X020375Y012793D02*
X020375Y013027D01*
X020375Y012910D02*
X020025Y012910D01*
X020141Y012793D01*
X020083Y012659D02*
X020200Y012659D01*
X020258Y012600D01*
X020258Y012425D01*
X020258Y012542D02*
X020375Y012659D01*
X020375Y012425D02*
X020025Y012425D01*
X020025Y012600D01*
X020083Y012659D01*
X019400Y012540D02*
X019400Y012307D01*
X019166Y012540D01*
X019108Y012540D01*
X019050Y012482D01*
X019050Y012365D01*
X019108Y012307D01*
X019108Y012172D02*
X019050Y012114D01*
X019050Y011997D01*
X019108Y011938D01*
X019166Y011938D01*
X019225Y011997D01*
X019225Y012172D01*
X019342Y012172D02*
X019108Y012172D01*
X019342Y012172D02*
X019400Y012114D01*
X019400Y011997D01*
X019342Y011938D01*
X019400Y011804D02*
X019400Y011570D01*
X019400Y011687D02*
X019050Y011687D01*
X019166Y011570D01*
X019108Y011435D02*
X019050Y011377D01*
X019050Y011260D01*
X019108Y011202D01*
X019342Y011202D01*
X019400Y011260D01*
X019400Y011377D01*
X019342Y011435D01*
X018125Y010455D02*
X018067Y010513D01*
X018008Y010513D01*
X017950Y010455D01*
X017950Y010280D01*
X018067Y010280D01*
X018125Y010338D01*
X018125Y010455D01*
X017950Y010280D02*
X017833Y010397D01*
X017775Y010513D01*
X017775Y010145D02*
X017775Y009912D01*
X017950Y009912D01*
X017891Y010028D01*
X017891Y010087D01*
X017950Y010145D01*
X018067Y010145D01*
X018125Y010087D01*
X018125Y009970D01*
X018067Y009912D01*
X018125Y009777D02*
X018125Y009543D01*
X018125Y009660D02*
X017775Y009660D01*
X017891Y009543D01*
X017833Y009409D02*
X017950Y009409D01*
X018008Y009350D01*
X018008Y009175D01*
X018008Y009292D02*
X018125Y009409D01*
X018125Y009175D02*
X017775Y009175D01*
X017775Y009350D01*
X017833Y009409D01*
X016540Y009708D02*
X016482Y009650D01*
X016365Y009650D01*
X016307Y009708D01*
X016307Y009825D02*
X016423Y009884D01*
X016482Y009884D01*
X016540Y009825D01*
X016540Y009708D01*
X016307Y009825D02*
X016307Y010000D01*
X016540Y010000D01*
X016172Y009942D02*
X016114Y010000D01*
X015997Y010000D01*
X015938Y009942D01*
X015938Y009884D01*
X015997Y009825D01*
X016172Y009825D01*
X016172Y009708D02*
X016172Y009942D01*
X016172Y009708D02*
X016114Y009650D01*
X015997Y009650D01*
X015938Y009708D01*
X015804Y009650D02*
X015570Y009650D01*
X015687Y009650D02*
X015687Y010000D01*
X015570Y009884D01*
X015435Y009942D02*
X015377Y010000D01*
X015260Y010000D01*
X015202Y009942D01*
X015202Y009708D01*
X015260Y009650D01*
X015377Y009650D01*
X015435Y009708D01*
X013525Y009685D02*
X013408Y009569D01*
X013408Y009627D02*
X013408Y009452D01*
X013525Y009452D02*
X013175Y009452D01*
X013175Y009627D01*
X013233Y009685D01*
X013350Y009685D01*
X013408Y009627D01*
X013291Y009820D02*
X013175Y009937D01*
X013525Y009937D01*
X013525Y009820D02*
X013525Y010054D01*
X013467Y010188D02*
X013525Y010247D01*
X013525Y010364D01*
X013467Y010422D01*
X013350Y010422D01*
X013291Y010364D01*
X013291Y010305D01*
X013350Y010188D01*
X013175Y010188D01*
X013175Y010422D01*
X013233Y010557D02*
X013291Y010557D01*
X013350Y010615D01*
X013350Y010732D01*
X013408Y010790D01*
X013467Y010790D01*
X013525Y010732D01*
X013525Y010615D01*
X013467Y010557D01*
X013408Y010557D01*
X013350Y010615D01*
X013350Y010732D02*
X013291Y010790D01*
X013233Y010790D01*
X013175Y010732D01*
X013175Y010615D01*
X013233Y010557D01*
X012717Y011202D02*
X012775Y011260D01*
X012775Y011377D01*
X012717Y011435D01*
X012775Y011570D02*
X012775Y011804D01*
X012775Y011687D02*
X012425Y011687D01*
X012541Y011570D01*
X012483Y011435D02*
X012425Y011377D01*
X012425Y011260D01*
X012483Y011202D01*
X012717Y011202D01*
X012717Y011938D02*
X012775Y011997D01*
X012775Y012114D01*
X012717Y012172D01*
X012483Y012172D01*
X012425Y012114D01*
X012425Y011997D01*
X012483Y011938D01*
X012541Y011938D01*
X012600Y011997D01*
X012600Y012172D01*
X012717Y012307D02*
X012775Y012365D01*
X012775Y012482D01*
X012717Y012540D01*
X012658Y012540D01*
X012600Y012482D01*
X012600Y012423D01*
X012600Y012482D02*
X012541Y012540D01*
X012483Y012540D01*
X012425Y012482D01*
X012425Y012365D01*
X012483Y012307D01*
X012013Y012275D02*
X011780Y012275D01*
X011780Y012100D01*
X011897Y012159D01*
X011955Y012159D01*
X012013Y012100D01*
X012013Y011983D01*
X011955Y011925D01*
X011838Y011925D01*
X011780Y011983D01*
X011645Y011983D02*
X011587Y011925D01*
X011470Y011925D01*
X011412Y011983D01*
X011412Y012100D02*
X011528Y012159D01*
X011587Y012159D01*
X011645Y012100D01*
X011645Y011983D01*
X011412Y012100D02*
X011412Y012275D01*
X011645Y012275D01*
X011160Y012275D02*
X011160Y011925D01*
X011043Y011925D02*
X011277Y011925D01*
X011043Y012159D02*
X011160Y012275D01*
X010909Y012217D02*
X010909Y012100D01*
X010850Y012042D01*
X010675Y012042D01*
X010792Y012042D02*
X010909Y011925D01*
X010675Y011925D02*
X010675Y012275D01*
X010850Y012275D01*
X010909Y012217D01*
X010916Y010290D02*
X010858Y010290D01*
X010800Y010232D01*
X010800Y010115D01*
X010858Y010057D01*
X010858Y009922D02*
X010916Y009922D01*
X010975Y009864D01*
X011033Y009922D01*
X011092Y009922D01*
X011150Y009864D01*
X011150Y009747D01*
X011092Y009688D01*
X011150Y009554D02*
X011150Y009320D01*
X011150Y009437D02*
X010800Y009437D01*
X010916Y009320D01*
X010858Y009185D02*
X010975Y009185D01*
X011033Y009127D01*
X011033Y008952D01*
X011033Y009069D02*
X011150Y009185D01*
X011150Y008952D02*
X010800Y008952D01*
X010800Y009127D01*
X010858Y009185D01*
X010858Y009688D02*
X010800Y009747D01*
X010800Y009864D01*
X010858Y009922D01*
X010975Y009864D02*
X010975Y009805D01*
X011150Y010057D02*
X010916Y010290D01*
X011150Y010290D02*
X011150Y010057D01*
X011550Y009922D02*
X011550Y009688D01*
X011725Y009688D01*
X011666Y009805D01*
X011666Y009864D01*
X011725Y009922D01*
X011842Y009922D01*
X011900Y009864D01*
X011900Y009747D01*
X011842Y009688D01*
X011900Y009554D02*
X011900Y009320D01*
X011900Y009437D02*
X011550Y009437D01*
X011666Y009320D01*
X011608Y009185D02*
X011725Y009185D01*
X011783Y009127D01*
X011783Y008952D01*
X011783Y009069D02*
X011900Y009185D01*
X011900Y008952D02*
X011550Y008952D01*
X011550Y009127D01*
X011608Y009185D01*
X011725Y010057D02*
X011550Y010232D01*
X011900Y010232D01*
X011725Y010290D02*
X011725Y010057D01*
X009145Y009775D02*
X009145Y009717D01*
X008912Y009483D01*
X008912Y009425D01*
X008777Y009483D02*
X008777Y009542D01*
X008718Y009600D01*
X008602Y009600D01*
X008543Y009659D01*
X008543Y009717D01*
X008602Y009775D01*
X008718Y009775D01*
X008777Y009717D01*
X008912Y009775D02*
X009145Y009775D01*
X008777Y009483D02*
X008718Y009425D01*
X008602Y009425D01*
X008543Y009483D01*
X008409Y009483D02*
X008409Y009775D01*
X008175Y009775D02*
X008175Y009483D01*
X008233Y009425D01*
X008350Y009425D01*
X008409Y009483D01*
X008660Y009367D02*
X008660Y009834D01*
X008718Y008025D02*
X008777Y007967D01*
X008777Y007850D01*
X008718Y007792D01*
X008543Y007792D01*
X008543Y007675D02*
X008543Y008025D01*
X008718Y008025D01*
X008912Y007850D02*
X009145Y007850D01*
X009087Y007675D02*
X009087Y008025D01*
X008912Y007850D01*
X008409Y008025D02*
X008292Y008025D01*
X008350Y008025D02*
X008350Y007733D01*
X008292Y007675D01*
X008233Y007675D01*
X008175Y007733D01*
X005625Y010675D02*
X005275Y010675D01*
X005275Y010850D01*
X005333Y010909D01*
X005450Y010909D01*
X005508Y010850D01*
X005508Y010675D01*
X005508Y010792D02*
X005625Y010909D01*
X005625Y011043D02*
X005625Y011277D01*
X005625Y011160D02*
X005275Y011160D01*
X005391Y011043D01*
X005125Y011043D02*
X005125Y011277D01*
X005125Y011160D02*
X004775Y011160D01*
X004891Y011043D01*
X004833Y010909D02*
X004950Y010909D01*
X005008Y010850D01*
X005008Y010675D01*
X005008Y010792D02*
X005125Y010909D01*
X005125Y010675D02*
X004775Y010675D01*
X004775Y010850D01*
X004833Y010909D01*
X004833Y011412D02*
X004775Y011470D01*
X004775Y011587D01*
X004833Y011645D01*
X004891Y011645D01*
X004950Y011587D01*
X005008Y011645D01*
X005067Y011645D01*
X005125Y011587D01*
X005125Y011470D01*
X005067Y011412D01*
X004950Y011528D02*
X004950Y011587D01*
X005067Y011780D02*
X004833Y012013D01*
X005067Y012013D01*
X005125Y011955D01*
X005125Y011838D01*
X005067Y011780D01*
X004833Y011780D01*
X004775Y011838D01*
X004775Y011955D01*
X004833Y012013D01*
X004780Y012425D02*
X005013Y012425D01*
X004897Y012425D02*
X004897Y012775D01*
X004780Y012659D01*
X004645Y012659D02*
X004587Y012600D01*
X004645Y012542D01*
X004645Y012483D01*
X004587Y012425D01*
X004470Y012425D01*
X004412Y012483D01*
X004277Y012425D02*
X004043Y012425D01*
X004160Y012425D02*
X004160Y012775D01*
X004043Y012659D01*
X003909Y012717D02*
X003909Y012600D01*
X003850Y012542D01*
X003675Y012542D01*
X003792Y012542D02*
X003909Y012425D01*
X003675Y012425D02*
X003675Y012775D01*
X003850Y012775D01*
X003909Y012717D01*
X004412Y012717D02*
X004470Y012775D01*
X004587Y012775D01*
X004645Y012717D01*
X004645Y012659D01*
X004587Y012600D02*
X004528Y012600D01*
X005175Y012717D02*
X005175Y012483D01*
X005233Y012425D01*
X005350Y012425D01*
X005409Y012483D01*
X005543Y012425D02*
X005777Y012425D01*
X005660Y012425D02*
X005660Y012775D01*
X005543Y012659D01*
X005409Y012717D02*
X005350Y012775D01*
X005233Y012775D01*
X005175Y012717D01*
X005912Y012600D02*
X006087Y012600D01*
X006145Y012542D01*
X006145Y012483D01*
X006087Y012425D01*
X005970Y012425D01*
X005912Y012483D01*
X005912Y012600D01*
X006028Y012717D01*
X006145Y012775D01*
X006280Y012659D02*
X006397Y012775D01*
X006397Y012425D01*
X006513Y012425D02*
X006280Y012425D01*
X005625Y011955D02*
X005567Y012013D01*
X005333Y012013D01*
X005275Y011955D01*
X005275Y011838D01*
X005333Y011780D01*
X005391Y011780D01*
X005450Y011838D01*
X005450Y012013D01*
X005625Y011955D02*
X005625Y011838D01*
X005567Y011780D01*
X005625Y011645D02*
X005625Y011412D01*
X005391Y011645D01*
X005333Y011645D01*
X005275Y011587D01*
X005275Y011470D01*
X005333Y011412D01*
X004337Y014050D02*
X004395Y014108D01*
X004395Y014342D01*
X004337Y014400D01*
X004162Y014400D01*
X004162Y014050D01*
X004337Y014050D01*
X004027Y014050D02*
X004027Y014400D01*
X003793Y014400D02*
X004027Y014050D01*
X003793Y014050D02*
X003793Y014400D01*
X003659Y014342D02*
X003600Y014400D01*
X003483Y014400D01*
X003425Y014342D01*
X003425Y014108D01*
X003483Y014050D01*
X003600Y014050D01*
X003659Y014108D01*
X003659Y014225D01*
X003542Y014225D01*
X003659Y015050D02*
X003659Y015400D01*
X003793Y015400D02*
X003968Y015400D01*
X004027Y015342D01*
X004027Y015225D01*
X003968Y015167D01*
X003793Y015167D01*
X003793Y015050D02*
X003793Y015400D01*
X003659Y015225D02*
X003425Y015225D01*
X003425Y015050D02*
X003425Y015400D01*
X004162Y015400D02*
X004162Y015050D01*
X004395Y015050D01*
X004395Y016050D02*
X004278Y016167D01*
X004337Y016167D02*
X004162Y016167D01*
X004162Y016050D02*
X004162Y016400D01*
X004337Y016400D01*
X004395Y016342D01*
X004395Y016225D01*
X004337Y016167D01*
X004027Y016225D02*
X004027Y016342D01*
X003968Y016400D01*
X003793Y016400D01*
X003793Y016050D01*
X003793Y016167D02*
X003968Y016167D01*
X004027Y016225D01*
X003659Y016225D02*
X003425Y016225D01*
X003425Y016050D02*
X003425Y016400D01*
X003659Y016400D02*
X003659Y016050D01*
X003671Y017050D02*
X003671Y017400D01*
X003904Y017050D01*
X003904Y017400D01*
X004039Y017284D02*
X004156Y017400D01*
X004156Y017050D01*
X004272Y017050D02*
X004039Y017050D01*
X004407Y017050D02*
X004407Y017400D01*
X004582Y017400D01*
X004641Y017342D01*
X004641Y017225D01*
X004582Y017167D01*
X004407Y017167D01*
X004524Y017167D02*
X004641Y017050D01*
X003542Y017050D02*
X003425Y017050D01*
X003483Y017050D02*
X003483Y017400D01*
X003425Y017400D02*
X003542Y017400D01*
X003542Y018050D02*
X003425Y018050D01*
X003483Y018050D02*
X003483Y018400D01*
X003425Y018400D02*
X003542Y018400D01*
X003671Y018400D02*
X003904Y018050D01*
X003904Y018400D01*
X004039Y018284D02*
X004156Y018400D01*
X004156Y018050D01*
X004272Y018050D02*
X004039Y018050D01*
X004407Y018050D02*
X004407Y018400D01*
X004407Y018050D02*
X004641Y018050D01*
X003671Y018050D02*
X003671Y018400D01*
X003600Y019050D02*
X003659Y019108D01*
X003659Y019342D01*
X003600Y019400D01*
X003483Y019400D01*
X003425Y019342D01*
X003425Y019108D01*
X003483Y019050D01*
X003600Y019050D01*
X003793Y019108D02*
X003852Y019050D01*
X003968Y019050D01*
X004027Y019108D01*
X004027Y019400D01*
X004162Y019400D02*
X004395Y019400D01*
X004278Y019400D02*
X004278Y019050D01*
X004530Y019050D02*
X004763Y019050D01*
X004647Y019050D02*
X004647Y019400D01*
X004530Y019284D01*
X004898Y019400D02*
X004898Y019050D01*
X004898Y019167D02*
X005073Y019167D01*
X005132Y019225D01*
X005132Y019342D01*
X005073Y019400D01*
X004898Y019400D01*
X005015Y019167D02*
X005132Y019050D01*
X003793Y019108D02*
X003793Y019400D01*
X003852Y020050D02*
X003968Y020050D01*
X004027Y020108D01*
X004027Y020400D01*
X004162Y020400D02*
X004395Y020400D01*
X004278Y020400D02*
X004278Y020050D01*
X004530Y020050D02*
X004763Y020050D01*
X004647Y020050D02*
X004647Y020400D01*
X004530Y020284D01*
X004898Y020400D02*
X004898Y020050D01*
X005132Y020050D01*
X005952Y020333D02*
X005952Y020567D01*
X006010Y020625D01*
X006127Y020625D01*
X006185Y020567D01*
X006320Y020509D02*
X006437Y020625D01*
X006437Y020275D01*
X006320Y020275D02*
X006554Y020275D01*
X006688Y020333D02*
X006747Y020275D01*
X006864Y020275D01*
X006922Y020333D01*
X006922Y020567D01*
X006864Y020625D01*
X006747Y020625D01*
X006688Y020567D01*
X006688Y020509D01*
X006747Y020450D01*
X006922Y020450D01*
X007057Y020450D02*
X007290Y020450D01*
X007232Y020275D02*
X007232Y020625D01*
X007057Y020450D01*
X006185Y020333D02*
X006127Y020275D01*
X006010Y020275D01*
X005952Y020333D01*
X007952Y020275D02*
X007952Y020625D01*
X008127Y020625D01*
X008185Y020567D01*
X008185Y020450D01*
X008127Y020392D01*
X007952Y020392D01*
X008069Y020392D02*
X008185Y020275D01*
X008320Y020275D02*
X008554Y020275D01*
X008437Y020275D02*
X008437Y020625D01*
X008320Y020509D01*
X008688Y020567D02*
X008747Y020625D01*
X008864Y020625D01*
X008922Y020567D01*
X008922Y020509D01*
X008688Y020275D01*
X008922Y020275D01*
X009057Y020333D02*
X009115Y020275D01*
X009232Y020275D01*
X009290Y020333D01*
X009290Y020392D01*
X009232Y020450D01*
X009057Y020450D01*
X009057Y020333D01*
X009057Y020450D02*
X009173Y020567D01*
X009290Y020625D01*
X009702Y020625D02*
X009702Y020275D01*
X009702Y020392D02*
X009877Y020392D01*
X009935Y020450D01*
X009935Y020567D01*
X009877Y020625D01*
X009702Y020625D01*
X009819Y020392D02*
X009935Y020275D01*
X010070Y020275D02*
X010304Y020275D01*
X010187Y020275D02*
X010187Y020625D01*
X010070Y020509D01*
X010438Y020567D02*
X010497Y020625D01*
X010614Y020625D01*
X010672Y020567D01*
X010672Y020509D01*
X010438Y020275D01*
X010672Y020275D01*
X010807Y020275D02*
X010807Y020333D01*
X011040Y020567D01*
X011040Y020625D01*
X010807Y020625D01*
X011275Y020582D02*
X011333Y020641D01*
X011567Y020407D01*
X011625Y020466D01*
X011625Y020582D01*
X011567Y020641D01*
X011333Y020641D01*
X011275Y020582D02*
X011275Y020466D01*
X011333Y020407D01*
X011567Y020407D01*
X011625Y020272D02*
X011625Y020039D01*
X011625Y020156D02*
X011275Y020156D01*
X011391Y020039D01*
X011333Y019904D02*
X011275Y019846D01*
X011275Y019729D01*
X011333Y019671D01*
X011567Y019671D01*
X011625Y019729D01*
X011625Y019846D01*
X011567Y019904D01*
X011625Y019542D02*
X011625Y019425D01*
X011625Y019483D02*
X011275Y019483D01*
X011275Y019425D02*
X011275Y019542D01*
X011702Y020775D02*
X011702Y021125D01*
X011877Y021125D01*
X011935Y021067D01*
X011935Y020950D01*
X011877Y020892D01*
X011702Y020892D01*
X011819Y020892D02*
X011935Y020775D01*
X012070Y020775D02*
X012304Y020775D01*
X012187Y020775D02*
X012187Y021125D01*
X012070Y021009D01*
X012438Y021067D02*
X012497Y021125D01*
X012614Y021125D01*
X012672Y021067D01*
X012672Y021009D01*
X012438Y020775D01*
X012672Y020775D01*
X012807Y020833D02*
X012807Y020892D01*
X012865Y020950D01*
X012982Y020950D01*
X013040Y020892D01*
X013040Y020833D01*
X012982Y020775D01*
X012865Y020775D01*
X012807Y020833D01*
X012865Y020950D02*
X012807Y021009D01*
X012807Y021067D01*
X012865Y021125D01*
X012982Y021125D01*
X013040Y021067D01*
X013040Y021009D01*
X012982Y020950D01*
X013952Y020625D02*
X014127Y020625D01*
X014185Y020567D01*
X014185Y020450D01*
X014127Y020392D01*
X013952Y020392D01*
X014069Y020392D02*
X014185Y020275D01*
X014320Y020275D02*
X014554Y020275D01*
X014437Y020275D02*
X014437Y020625D01*
X014320Y020509D01*
X014688Y020509D02*
X014805Y020625D01*
X014805Y020275D01*
X014688Y020275D02*
X014922Y020275D01*
X015057Y020333D02*
X015115Y020275D01*
X015232Y020275D01*
X015290Y020333D01*
X015290Y020567D01*
X015232Y020625D01*
X015115Y020625D01*
X015057Y020567D01*
X015057Y020509D01*
X015115Y020450D01*
X015290Y020450D01*
X015702Y020392D02*
X015877Y020392D01*
X015935Y020450D01*
X015935Y020567D01*
X015877Y020625D01*
X015702Y020625D01*
X015702Y020275D01*
X015819Y020392D02*
X015935Y020275D01*
X016070Y020275D02*
X016304Y020275D01*
X016187Y020275D02*
X016187Y020625D01*
X016070Y020509D01*
X016438Y020567D02*
X016497Y020625D01*
X016614Y020625D01*
X016672Y020567D01*
X016672Y020509D01*
X016438Y020275D01*
X016672Y020275D01*
X016807Y020333D02*
X017040Y020567D01*
X017040Y020333D01*
X016982Y020275D01*
X016865Y020275D01*
X016807Y020333D01*
X016807Y020567D01*
X016865Y020625D01*
X016982Y020625D01*
X017040Y020567D01*
X017275Y020214D02*
X017450Y020039D01*
X017450Y020272D01*
X017625Y020214D02*
X017275Y020214D01*
X017333Y019904D02*
X017275Y019846D01*
X017275Y019729D01*
X017333Y019671D01*
X017567Y019671D01*
X017625Y019729D01*
X017625Y019846D01*
X017567Y019904D01*
X017625Y019542D02*
X017625Y019425D01*
X017625Y019483D02*
X017275Y019483D01*
X017275Y019425D02*
X017275Y019542D01*
X017952Y020775D02*
X017952Y021125D01*
X018127Y021125D01*
X018185Y021067D01*
X018185Y020950D01*
X018127Y020892D01*
X017952Y020892D01*
X018069Y020892D02*
X018185Y020775D01*
X018320Y020775D02*
X018554Y020775D01*
X018437Y020775D02*
X018437Y021125D01*
X018320Y021009D01*
X018688Y021067D02*
X018747Y021125D01*
X018864Y021125D01*
X018922Y021067D01*
X018922Y021009D01*
X018688Y020775D01*
X018922Y020775D01*
X019057Y020775D02*
X019290Y020775D01*
X019173Y020775D02*
X019173Y021125D01*
X019057Y021009D01*
X020025Y020205D02*
X020083Y020263D01*
X020317Y020030D01*
X020375Y020088D01*
X020375Y020205D01*
X020317Y020263D01*
X020083Y020263D01*
X020025Y020205D02*
X020025Y020088D01*
X020083Y020030D01*
X020317Y020030D01*
X020317Y019895D02*
X020375Y019837D01*
X020375Y019720D01*
X020317Y019662D01*
X020258Y019662D01*
X020200Y019720D01*
X020200Y019837D01*
X020258Y019895D01*
X020317Y019895D01*
X020200Y019837D02*
X020141Y019895D01*
X020083Y019895D01*
X020025Y019837D01*
X020025Y019720D01*
X020083Y019662D01*
X020141Y019662D01*
X020200Y019720D01*
X020375Y019527D02*
X020375Y019293D01*
X020375Y019410D02*
X020025Y019410D01*
X020141Y019293D01*
X020083Y019159D02*
X020200Y019159D01*
X020258Y019100D01*
X020258Y018925D01*
X020258Y019042D02*
X020375Y019159D01*
X020525Y019100D02*
X020525Y018925D01*
X020875Y018925D01*
X020758Y018925D02*
X020758Y019100D01*
X020700Y019159D01*
X020583Y019159D01*
X020525Y019100D01*
X020641Y019293D02*
X020525Y019410D01*
X020875Y019410D01*
X020875Y019293D02*
X020875Y019527D01*
X020875Y019662D02*
X020817Y019662D01*
X020583Y019895D01*
X020525Y019895D01*
X020525Y019662D01*
X020583Y020030D02*
X020641Y020030D01*
X020700Y020088D01*
X020700Y020263D01*
X020817Y020263D02*
X020583Y020263D01*
X020525Y020205D01*
X020525Y020088D01*
X020583Y020030D01*
X020817Y020030D02*
X020875Y020088D01*
X020875Y020205D01*
X020817Y020263D01*
X020717Y020952D02*
X020483Y020952D01*
X020425Y021010D01*
X020425Y021127D01*
X020483Y021185D01*
X020483Y021320D02*
X020425Y021378D01*
X020425Y021495D01*
X020483Y021554D01*
X020541Y021554D01*
X020775Y021320D01*
X020775Y021554D01*
X020775Y021688D02*
X020775Y021922D01*
X020775Y021805D02*
X020425Y021805D01*
X020541Y021688D01*
X020483Y022057D02*
X020425Y022115D01*
X020425Y022232D01*
X020483Y022290D01*
X020717Y022057D01*
X020775Y022115D01*
X020775Y022232D01*
X020717Y022290D01*
X020483Y022290D01*
X020483Y022057D02*
X020717Y022057D01*
X020717Y021185D02*
X020775Y021127D01*
X020775Y021010D01*
X020717Y020952D01*
X019625Y019513D02*
X019625Y019280D01*
X019625Y019397D02*
X019275Y019397D01*
X019391Y019280D01*
X019450Y019145D02*
X019450Y018912D01*
X019275Y019087D01*
X019625Y019087D01*
X019625Y018777D02*
X019625Y018543D01*
X019625Y018660D02*
X019275Y018660D01*
X019391Y018543D01*
X019333Y018409D02*
X019275Y018350D01*
X019275Y018233D01*
X019333Y018175D01*
X019567Y018175D01*
X019625Y018233D01*
X019625Y018350D01*
X019567Y018409D01*
X019775Y017763D02*
X019775Y017530D01*
X019950Y017530D01*
X019891Y017647D01*
X019891Y017705D01*
X019950Y017763D01*
X020067Y017763D01*
X020125Y017705D01*
X020125Y017588D01*
X020067Y017530D01*
X020275Y017588D02*
X020275Y017705D01*
X020333Y017763D01*
X020391Y017763D01*
X020450Y017705D01*
X020450Y017588D01*
X020391Y017530D01*
X020333Y017530D01*
X020275Y017588D01*
X020450Y017588D02*
X020508Y017530D01*
X020567Y017530D01*
X020625Y017588D01*
X020625Y017705D01*
X020567Y017763D01*
X020508Y017763D01*
X020450Y017705D01*
X020450Y017395D02*
X020450Y017220D01*
X020391Y017162D01*
X020333Y017162D01*
X020275Y017220D01*
X020275Y017337D01*
X020333Y017395D01*
X020567Y017395D01*
X020625Y017337D01*
X020625Y017220D01*
X020567Y017162D01*
X020625Y017027D02*
X020625Y016793D01*
X020625Y016910D02*
X020275Y016910D01*
X020391Y016793D01*
X020333Y016659D02*
X020275Y016600D01*
X020275Y016483D01*
X020333Y016425D01*
X020567Y016425D01*
X020625Y016483D01*
X020625Y016600D01*
X020567Y016659D01*
X020125Y016659D02*
X020008Y016542D01*
X020008Y016600D02*
X020008Y016425D01*
X020125Y016425D02*
X019775Y016425D01*
X019775Y016600D01*
X019833Y016659D01*
X019950Y016659D01*
X020008Y016600D01*
X019891Y016793D02*
X019775Y016910D01*
X020125Y016910D01*
X020125Y016793D02*
X020125Y017027D01*
X020125Y017162D02*
X020067Y017162D01*
X019833Y017395D01*
X019775Y017395D01*
X019775Y017162D01*
X018982Y016250D02*
X019040Y016192D01*
X019040Y016134D01*
X018982Y016075D01*
X018865Y016075D01*
X018807Y016134D01*
X018807Y016192D01*
X018865Y016250D01*
X018982Y016250D01*
X018982Y016075D02*
X019040Y016017D01*
X019040Y015958D01*
X018982Y015900D01*
X018865Y015900D01*
X018807Y015958D01*
X018807Y016017D01*
X018865Y016075D01*
X018672Y016017D02*
X018614Y016075D01*
X018438Y016075D01*
X018438Y015958D01*
X018497Y015900D01*
X018614Y015900D01*
X018672Y015958D01*
X018672Y016017D01*
X018555Y016192D02*
X018438Y016075D01*
X018304Y016075D02*
X018245Y016017D01*
X018070Y016017D01*
X018187Y016017D02*
X018304Y015900D01*
X018245Y015750D02*
X018304Y015692D01*
X018304Y015575D01*
X018245Y015517D01*
X018070Y015517D01*
X018187Y015517D02*
X018304Y015400D01*
X018438Y015458D02*
X018497Y015400D01*
X018614Y015400D01*
X018672Y015458D01*
X018672Y015517D01*
X018614Y015575D01*
X018438Y015575D01*
X018438Y015458D01*
X018438Y015575D02*
X018555Y015692D01*
X018672Y015750D01*
X018807Y015692D02*
X018807Y015634D01*
X018865Y015575D01*
X019040Y015575D01*
X019040Y015458D02*
X019040Y015692D01*
X018982Y015750D01*
X018865Y015750D01*
X018807Y015692D01*
X018807Y015458D02*
X018865Y015400D01*
X018982Y015400D01*
X019040Y015458D01*
X018245Y015750D02*
X018070Y015750D01*
X018070Y015400D01*
X017958Y014763D02*
X018192Y014530D01*
X018250Y014530D01*
X018192Y014395D02*
X018250Y014337D01*
X018250Y014220D01*
X018192Y014162D01*
X018075Y014162D02*
X018016Y014278D01*
X018016Y014337D01*
X018075Y014395D01*
X018192Y014395D01*
X018075Y014162D02*
X017900Y014162D01*
X017900Y014395D01*
X017900Y014530D02*
X017900Y014763D01*
X017958Y014763D01*
X018250Y014027D02*
X018250Y013793D01*
X018250Y013910D02*
X017900Y013910D01*
X018016Y013793D01*
X017958Y013659D02*
X018075Y013659D01*
X018133Y013600D01*
X018133Y013425D01*
X018133Y013542D02*
X018250Y013659D01*
X018250Y013425D02*
X017900Y013425D01*
X017900Y013600D01*
X017958Y013659D01*
X016540Y013317D02*
X016482Y013375D01*
X016365Y013375D01*
X016307Y013317D01*
X016540Y013317D02*
X016540Y013259D01*
X016307Y013025D01*
X016540Y013025D01*
X016172Y013025D02*
X015938Y013025D01*
X016055Y013025D02*
X016055Y013375D01*
X015938Y013259D01*
X015804Y013317D02*
X015745Y013375D01*
X015628Y013375D01*
X015570Y013317D01*
X015570Y013083D01*
X015628Y013025D01*
X015745Y013025D01*
X015804Y013083D01*
X015441Y013025D02*
X015325Y013025D01*
X015383Y013025D02*
X015383Y013375D01*
X015325Y013375D02*
X015441Y013375D01*
X014982Y014775D02*
X014865Y014775D01*
X014807Y014833D01*
X014807Y014892D01*
X014865Y014950D01*
X014982Y014950D01*
X015040Y014892D01*
X015040Y014833D01*
X014982Y014775D01*
X014982Y014950D02*
X015040Y015009D01*
X015040Y015067D01*
X014982Y015125D01*
X014865Y015125D01*
X014807Y015067D01*
X014807Y015009D01*
X014865Y014950D01*
X014672Y014775D02*
X014438Y014775D01*
X014555Y014775D02*
X014555Y015125D01*
X014438Y015009D01*
X014304Y014775D02*
X014070Y014775D01*
X014187Y014775D02*
X014187Y015125D01*
X014070Y015009D01*
X013935Y015067D02*
X013935Y014950D01*
X013877Y014892D01*
X013702Y014892D01*
X013819Y014892D02*
X013935Y014775D01*
X013702Y014775D02*
X013702Y015125D01*
X013877Y015125D01*
X013935Y015067D01*
X013877Y015650D02*
X013935Y015708D01*
X013877Y015650D02*
X013760Y015650D01*
X013702Y015708D01*
X013702Y015942D01*
X013760Y016000D01*
X013877Y016000D01*
X013935Y015942D01*
X014070Y015884D02*
X014187Y016000D01*
X014187Y015650D01*
X014070Y015650D02*
X014304Y015650D01*
X014438Y015708D02*
X014497Y015650D01*
X014614Y015650D01*
X014672Y015708D01*
X014672Y015825D01*
X014614Y015884D01*
X014555Y015884D01*
X014438Y015825D01*
X014438Y016000D01*
X014672Y016000D01*
X014807Y016000D02*
X014807Y015825D01*
X014923Y015884D01*
X014982Y015884D01*
X015040Y015825D01*
X015040Y015708D01*
X014982Y015650D01*
X014865Y015650D01*
X014807Y015708D01*
X014807Y016000D02*
X015040Y016000D01*
X015675Y015967D02*
X015675Y015733D01*
X015733Y015675D01*
X015850Y015675D01*
X015909Y015733D01*
X016043Y015675D02*
X016277Y015675D01*
X016160Y015675D02*
X016160Y016025D01*
X016043Y015909D01*
X015909Y015967D02*
X015850Y016025D01*
X015733Y016025D01*
X015675Y015967D01*
X016412Y016025D02*
X016412Y015850D01*
X016528Y015909D01*
X016587Y015909D01*
X016645Y015850D01*
X016645Y015733D01*
X016587Y015675D01*
X016470Y015675D01*
X016412Y015733D01*
X016412Y016025D02*
X016645Y016025D01*
X016780Y015850D02*
X016897Y015967D01*
X017013Y016025D01*
X016955Y015850D02*
X016780Y015850D01*
X016780Y015733D01*
X016838Y015675D01*
X016955Y015675D01*
X017013Y015733D01*
X017013Y015792D01*
X016955Y015850D01*
X018070Y015900D02*
X018070Y016250D01*
X018245Y016250D01*
X018304Y016192D01*
X018304Y016075D01*
X018555Y016192D02*
X018672Y016250D01*
X020275Y015763D02*
X020333Y015763D01*
X020567Y015530D01*
X020625Y015530D01*
X020567Y015395D02*
X020333Y015395D01*
X020567Y015162D01*
X020625Y015220D01*
X020625Y015337D01*
X020567Y015395D01*
X020567Y015162D02*
X020333Y015162D01*
X020275Y015220D01*
X020275Y015337D01*
X020333Y015395D01*
X020275Y015530D02*
X020275Y015763D01*
X020333Y015027D02*
X020275Y014968D01*
X020275Y014852D01*
X020333Y014793D01*
X020333Y014659D02*
X020275Y014600D01*
X020275Y014483D01*
X020333Y014425D01*
X020567Y014425D01*
X020625Y014483D01*
X020625Y014600D01*
X020567Y014659D01*
X020625Y014793D02*
X020391Y015027D01*
X020333Y015027D01*
X020625Y015027D02*
X020625Y014793D01*
X020583Y013763D02*
X020817Y013530D01*
X020875Y013588D01*
X020875Y013705D01*
X020817Y013763D01*
X020583Y013763D01*
X020525Y013705D01*
X020525Y013588D01*
X020583Y013530D01*
X020817Y013530D01*
X020817Y013395D02*
X020758Y013395D01*
X020700Y013337D01*
X020700Y013162D01*
X020817Y013162D01*
X020875Y013220D01*
X020875Y013337D01*
X020817Y013395D01*
X020700Y013162D02*
X020583Y013278D01*
X020525Y013395D01*
X020375Y013337D02*
X020317Y013395D01*
X020258Y013395D01*
X020200Y013337D01*
X020200Y013162D01*
X020317Y013162D01*
X020375Y013220D01*
X020375Y013337D01*
X020375Y013530D02*
X020375Y013763D01*
X020375Y013647D02*
X020025Y013647D01*
X020141Y013530D01*
X020025Y013395D02*
X020083Y013278D01*
X020200Y013162D01*
X014025Y017577D02*
X013675Y017577D01*
X013675Y017752D01*
X013733Y017810D01*
X013850Y017810D01*
X013908Y017752D01*
X013908Y017577D01*
X013908Y017694D02*
X014025Y017810D01*
X014025Y017945D02*
X014025Y018179D01*
X014025Y018062D02*
X013675Y018062D01*
X013791Y017945D01*
X013567Y018175D02*
X013625Y018233D01*
X013625Y018350D01*
X013567Y018409D01*
X013675Y018430D02*
X014025Y018430D01*
X014025Y018313D02*
X014025Y018547D01*
X014025Y018682D02*
X013967Y018682D01*
X013733Y018915D01*
X013675Y018915D01*
X013675Y018682D01*
X013625Y018660D02*
X013275Y018660D01*
X013391Y018543D01*
X013333Y018409D02*
X013275Y018350D01*
X013275Y018233D01*
X013333Y018175D01*
X013567Y018175D01*
X013791Y018313D02*
X013675Y018430D01*
X013625Y018543D02*
X013625Y018777D01*
X013567Y018912D02*
X013625Y018970D01*
X013625Y019087D01*
X013567Y019145D01*
X013450Y019145D01*
X013391Y019087D01*
X013391Y019028D01*
X013450Y018912D01*
X013275Y018912D01*
X013275Y019145D01*
X013275Y019280D02*
X013275Y019513D01*
X013333Y019513D01*
X013567Y019280D01*
X013625Y019280D01*
X013952Y020275D02*
X013952Y020625D01*
X019775Y022925D02*
X019775Y023100D01*
X019833Y023159D01*
X019950Y023159D01*
X020008Y023100D01*
X020008Y022925D01*
X020008Y023042D02*
X020125Y023159D01*
X020125Y023293D02*
X020125Y023527D01*
X020125Y023410D02*
X019775Y023410D01*
X019891Y023293D01*
X019891Y023662D02*
X019833Y023662D01*
X019775Y023720D01*
X019775Y023837D01*
X019833Y023895D01*
X019891Y023895D01*
X019950Y023837D01*
X019950Y023720D01*
X019891Y023662D01*
X019950Y023720D02*
X020008Y023662D01*
X020067Y023662D01*
X020125Y023720D01*
X020125Y023837D01*
X020067Y023895D01*
X020008Y023895D01*
X019950Y023837D01*
X019833Y024030D02*
X019775Y024088D01*
X019775Y024205D01*
X019833Y024263D01*
X019891Y024263D01*
X020125Y024030D01*
X020125Y024263D01*
X020275Y024205D02*
X020275Y024088D01*
X020333Y024030D01*
X020391Y024030D01*
X020450Y024088D01*
X020450Y024263D01*
X020567Y024263D02*
X020333Y024263D01*
X020275Y024205D01*
X020567Y024263D02*
X020625Y024205D01*
X020625Y024088D01*
X020567Y024030D01*
X020567Y023895D02*
X020625Y023837D01*
X020625Y023720D01*
X020567Y023662D01*
X020333Y023895D01*
X020567Y023895D01*
X020567Y023662D02*
X020333Y023662D01*
X020275Y023720D01*
X020275Y023837D01*
X020333Y023895D01*
X020333Y023527D02*
X020275Y023468D01*
X020275Y023352D01*
X020333Y023293D01*
X020333Y023159D02*
X020275Y023100D01*
X020275Y022983D01*
X020333Y022925D01*
X020567Y022925D01*
X020625Y022983D01*
X020625Y023100D01*
X020567Y023159D01*
X020625Y023293D02*
X020391Y023527D01*
X020333Y023527D01*
X020625Y023527D02*
X020625Y023293D01*
X020125Y022925D02*
X019775Y022925D01*
X023525Y023425D02*
X023525Y023542D01*
X023525Y023483D02*
X023875Y023483D01*
X023875Y023425D02*
X023875Y023542D01*
X023817Y023671D02*
X023875Y023729D01*
X023875Y023846D01*
X023817Y023904D01*
X023875Y024039D02*
X023875Y024272D01*
X023875Y024156D02*
X023525Y024156D01*
X023641Y024039D01*
X023583Y023904D02*
X023525Y023846D01*
X023525Y023729D01*
X023583Y023671D01*
X023817Y023671D01*
X023700Y024407D02*
X023700Y024641D01*
X023875Y024582D02*
X023525Y024582D01*
X023700Y024407D01*
X025025Y023955D02*
X025083Y024013D01*
X025141Y024013D01*
X025200Y023955D01*
X025258Y024013D01*
X025317Y024013D01*
X025375Y023955D01*
X025375Y023838D01*
X025317Y023780D01*
X025317Y023645D02*
X025375Y023587D01*
X025375Y023470D01*
X025317Y023412D01*
X025258Y023412D01*
X025200Y023470D01*
X025200Y023587D01*
X025258Y023645D01*
X025317Y023645D01*
X025200Y023587D02*
X025141Y023645D01*
X025083Y023645D01*
X025025Y023587D01*
X025025Y023470D01*
X025083Y023412D01*
X025141Y023412D01*
X025200Y023470D01*
X025375Y023277D02*
X025375Y023043D01*
X025375Y023160D02*
X025025Y023160D01*
X025141Y023043D01*
X025083Y022909D02*
X025200Y022909D01*
X025258Y022850D01*
X025258Y022675D01*
X025258Y022792D02*
X025375Y022909D01*
X025375Y022675D02*
X025025Y022675D01*
X025025Y022850D01*
X025083Y022909D01*
X025200Y022263D02*
X025200Y022030D01*
X025025Y022205D01*
X025375Y022205D01*
X025317Y021895D02*
X025375Y021837D01*
X025375Y021720D01*
X025317Y021662D01*
X025258Y021662D01*
X025200Y021720D01*
X025200Y021837D01*
X025258Y021895D01*
X025317Y021895D01*
X025200Y021837D02*
X025141Y021895D01*
X025083Y021895D01*
X025025Y021837D01*
X025025Y021720D01*
X025083Y021662D01*
X025141Y021662D01*
X025200Y021720D01*
X025375Y021527D02*
X025375Y021293D01*
X025375Y021410D02*
X025025Y021410D01*
X025141Y021293D01*
X025083Y021159D02*
X025200Y021159D01*
X025258Y021100D01*
X025258Y020925D01*
X025258Y021042D02*
X025375Y021159D01*
X025375Y020925D02*
X025025Y020925D01*
X025025Y021100D01*
X025083Y021159D01*
X025083Y023780D02*
X025025Y023838D01*
X025025Y023955D01*
X025200Y023955D02*
X025200Y023897D01*
X024567Y025675D02*
X024625Y025733D01*
X024625Y025850D01*
X024567Y025909D01*
X024625Y026043D02*
X024625Y026277D01*
X024625Y026160D02*
X024275Y026160D01*
X024391Y026043D01*
X024333Y025909D02*
X024275Y025850D01*
X024275Y025733D01*
X024333Y025675D01*
X024567Y025675D01*
X024567Y026412D02*
X024625Y026470D01*
X024625Y026587D01*
X024567Y026645D01*
X024333Y026645D01*
X024275Y026587D01*
X024275Y026470D01*
X024333Y026412D01*
X024391Y026412D01*
X024450Y026470D01*
X024450Y026645D01*
X024450Y026780D02*
X024450Y026955D01*
X024508Y027013D01*
X024567Y027013D01*
X024625Y026955D01*
X024625Y026838D01*
X024567Y026780D01*
X024450Y026780D01*
X024333Y026897D01*
X024275Y027013D01*
X023375Y026918D02*
X023375Y027152D01*
X023375Y027287D02*
X023025Y027287D01*
X023025Y027462D01*
X023083Y027520D01*
X023317Y027520D01*
X023375Y027462D01*
X023375Y027287D01*
X023200Y027035D02*
X023200Y026918D01*
X023025Y026918D02*
X023375Y026918D01*
X023375Y026784D02*
X023375Y026550D01*
X023025Y026550D01*
X023025Y026918D02*
X023025Y027152D01*
X023141Y027655D02*
X023025Y027772D01*
X023375Y027772D01*
X023375Y027888D02*
X023375Y027655D01*
X023317Y028023D02*
X023083Y028023D01*
X023025Y028082D01*
X023025Y028198D01*
X023083Y028257D01*
X023317Y028023D01*
X023375Y028082D01*
X023375Y028198D01*
X023317Y028257D01*
X023083Y028257D01*
X024194Y028226D02*
X024194Y027875D01*
X024194Y027992D02*
X024369Y027992D01*
X024428Y028051D01*
X024428Y028167D01*
X024369Y028226D01*
X024194Y028226D01*
X024563Y028226D02*
X024796Y028226D01*
X024796Y028167D01*
X024563Y027934D01*
X024563Y027875D01*
X024906Y028394D02*
X018213Y028394D01*
X018213Y033906D01*
X024906Y033906D01*
X024906Y028394D01*
X026213Y028394D02*
X026213Y033906D01*
X032906Y033906D01*
X032906Y028394D01*
X026213Y028394D01*
X028900Y028140D02*
X029016Y028023D01*
X028900Y028140D02*
X029250Y028140D01*
X029250Y028023D02*
X029250Y028257D01*
X029250Y027888D02*
X029250Y027655D01*
X029250Y027772D02*
X028900Y027772D01*
X029016Y027655D01*
X028958Y027520D02*
X028900Y027462D01*
X028900Y027287D01*
X029250Y027287D01*
X029250Y027462D01*
X029192Y027520D01*
X028958Y027520D01*
X028900Y027152D02*
X028900Y026918D01*
X029250Y026918D01*
X029250Y027152D01*
X029075Y027035D02*
X029075Y026918D01*
X029250Y026784D02*
X029250Y026550D01*
X028900Y026550D01*
X031025Y026550D02*
X031375Y026550D01*
X031375Y026784D01*
X031375Y026918D02*
X031375Y027152D01*
X031375Y027287D02*
X031375Y027462D01*
X031317Y027520D01*
X031083Y027520D01*
X031025Y027462D01*
X031025Y027287D01*
X031375Y027287D01*
X031200Y027035D02*
X031200Y026918D01*
X031025Y026918D02*
X031375Y026918D01*
X031025Y026918D02*
X031025Y027152D01*
X031141Y027655D02*
X031025Y027772D01*
X031375Y027772D01*
X031375Y027888D02*
X031375Y027655D01*
X031375Y028023D02*
X031141Y028257D01*
X031083Y028257D01*
X031025Y028198D01*
X031025Y028082D01*
X031083Y028023D01*
X031375Y028023D02*
X031375Y028257D01*
X032194Y028226D02*
X032194Y027875D01*
X032194Y027992D02*
X032369Y027992D01*
X032428Y028051D01*
X032428Y028167D01*
X032369Y028226D01*
X032194Y028226D01*
X032563Y028167D02*
X032563Y028109D01*
X032621Y028051D01*
X032738Y028051D01*
X032796Y027992D01*
X032796Y027934D01*
X032738Y027875D01*
X032621Y027875D01*
X032563Y027934D01*
X032563Y027992D01*
X032621Y028051D01*
X032738Y028051D02*
X032796Y028109D01*
X032796Y028167D01*
X032738Y028226D01*
X032621Y028226D01*
X032563Y028167D01*
X036068Y028323D02*
X036068Y028440D01*
X036068Y028382D02*
X036360Y028382D01*
X036418Y028323D01*
X036418Y028265D01*
X036360Y028206D01*
X036681Y028197D02*
X036681Y033906D01*
X040619Y033906D01*
X040619Y028197D01*
X036681Y028197D01*
X036418Y028575D02*
X036418Y028808D01*
X036418Y028692D02*
X036068Y028692D01*
X036185Y028575D01*
X036243Y028943D02*
X036068Y028943D01*
X036068Y029177D01*
X036185Y029118D02*
X036243Y029177D01*
X036360Y029177D01*
X036418Y029118D01*
X036418Y029002D01*
X036360Y028943D01*
X036243Y028943D02*
X036185Y029060D01*
X036185Y029118D01*
X037275Y026040D02*
X037275Y025807D01*
X037275Y025923D02*
X036925Y025923D01*
X037041Y025807D01*
X037100Y025672D02*
X037217Y025672D01*
X037275Y025614D01*
X037275Y025497D01*
X037217Y025438D01*
X037100Y025438D02*
X037041Y025555D01*
X037041Y025614D01*
X037100Y025672D01*
X036925Y025672D02*
X036925Y025438D01*
X037100Y025438D01*
X037100Y025304D02*
X037158Y025245D01*
X037158Y025070D01*
X037158Y025187D02*
X037275Y025304D01*
X037100Y025304D02*
X036983Y025304D01*
X036925Y025245D01*
X036925Y025070D01*
X037275Y025070D01*
X037675Y024982D02*
X037675Y024865D01*
X037733Y024807D01*
X037733Y024672D02*
X037675Y024614D01*
X037675Y024438D01*
X038025Y024438D01*
X038025Y024614D01*
X037967Y024672D01*
X037733Y024672D01*
X037967Y024807D02*
X038025Y024865D01*
X038025Y024982D01*
X037967Y025040D01*
X037908Y025040D01*
X037850Y024982D01*
X037850Y024923D01*
X037850Y024982D02*
X037791Y025040D01*
X037733Y025040D01*
X037675Y024982D01*
X038425Y024482D02*
X038483Y024540D01*
X038541Y024540D01*
X038775Y024307D01*
X038775Y024540D01*
X038425Y024482D02*
X038425Y024365D01*
X038483Y024307D01*
X038425Y024172D02*
X038425Y023938D01*
X038600Y023938D01*
X038541Y024055D01*
X038541Y024114D01*
X038600Y024172D01*
X038717Y024172D01*
X038775Y024114D01*
X038775Y023997D01*
X038717Y023938D01*
X038775Y023804D02*
X038658Y023687D01*
X038658Y023745D02*
X038658Y023570D01*
X038775Y023570D02*
X038425Y023570D01*
X038425Y023745D01*
X038483Y023804D01*
X038600Y023804D01*
X038658Y023745D01*
X039175Y023745D02*
X039175Y023570D01*
X039525Y023570D01*
X039408Y023570D02*
X039408Y023745D01*
X039350Y023804D01*
X039233Y023804D01*
X039175Y023745D01*
X039175Y023938D02*
X039350Y023938D01*
X039291Y024055D01*
X039291Y024114D01*
X039350Y024172D01*
X039467Y024172D01*
X039525Y024114D01*
X039525Y023997D01*
X039467Y023938D01*
X039525Y023804D02*
X039408Y023687D01*
X039175Y023938D02*
X039175Y024172D01*
X039233Y024307D02*
X039175Y024365D01*
X039175Y024482D01*
X039233Y024540D01*
X039291Y024540D01*
X039350Y024482D01*
X039408Y024540D01*
X039467Y024540D01*
X039525Y024482D01*
X039525Y024365D01*
X039467Y024307D01*
X039350Y024423D02*
X039350Y024482D01*
X040300Y024820D02*
X040592Y024820D01*
X040650Y024878D01*
X040650Y024995D01*
X040592Y025054D01*
X040300Y025054D01*
X040358Y025188D02*
X040300Y025247D01*
X040300Y025364D01*
X040358Y025422D01*
X040416Y025422D01*
X040650Y025188D01*
X040650Y025422D01*
X040650Y025557D02*
X040416Y025790D01*
X040358Y025790D01*
X040300Y025732D01*
X040300Y025615D01*
X040358Y025557D01*
X040650Y025557D02*
X040650Y025790D01*
X040583Y026425D02*
X040817Y026425D01*
X040875Y026483D01*
X040875Y026600D01*
X040817Y026659D01*
X040817Y026793D02*
X040875Y026852D01*
X040875Y026968D01*
X040817Y027027D01*
X040758Y027027D01*
X040700Y026968D01*
X040700Y026793D01*
X040817Y026793D01*
X040700Y026793D02*
X040583Y026910D01*
X040525Y027027D01*
X040700Y027162D02*
X040700Y027395D01*
X040875Y027337D02*
X040525Y027337D01*
X040700Y027162D01*
X040583Y026659D02*
X040525Y026600D01*
X040525Y026483D01*
X040583Y026425D01*
X041925Y025232D02*
X042100Y025057D01*
X042100Y025290D01*
X042275Y025232D02*
X041925Y025232D01*
X041925Y024922D02*
X041925Y024688D01*
X042100Y024688D01*
X042041Y024805D01*
X042041Y024864D01*
X042100Y024922D01*
X042217Y024922D01*
X042275Y024864D01*
X042275Y024747D01*
X042217Y024688D01*
X042275Y024554D02*
X042158Y024437D01*
X042158Y024495D02*
X042158Y024320D01*
X042275Y024320D02*
X041925Y024320D01*
X041925Y024495D01*
X041983Y024554D01*
X042100Y024554D01*
X042158Y024495D01*
X042675Y024438D02*
X042675Y024614D01*
X042733Y024672D01*
X042967Y024672D01*
X043025Y024614D01*
X043025Y024438D01*
X042675Y024438D01*
X042850Y024807D02*
X042850Y025040D01*
X043025Y024982D02*
X042675Y024982D01*
X042850Y024807D01*
X043425Y024540D02*
X043425Y024307D01*
X043600Y024307D01*
X043541Y024423D01*
X043541Y024482D01*
X043600Y024540D01*
X043717Y024540D01*
X043775Y024482D01*
X043775Y024365D01*
X043717Y024307D01*
X043717Y024172D02*
X043775Y024114D01*
X043775Y023997D01*
X043717Y023938D01*
X043600Y023938D02*
X043541Y024055D01*
X043541Y024114D01*
X043600Y024172D01*
X043717Y024172D01*
X043600Y023938D02*
X043425Y023938D01*
X043425Y024172D01*
X043483Y023804D02*
X043600Y023804D01*
X043658Y023745D01*
X043658Y023570D01*
X043658Y023687D02*
X043775Y023804D01*
X043775Y023570D02*
X043425Y023570D01*
X043425Y023745D01*
X043483Y023804D01*
X044175Y023745D02*
X044175Y023570D01*
X044525Y023570D01*
X044408Y023570D02*
X044408Y023745D01*
X044350Y023804D01*
X044233Y023804D01*
X044175Y023745D01*
X044175Y023938D02*
X044350Y023938D01*
X044291Y024055D01*
X044291Y024114D01*
X044350Y024172D01*
X044467Y024172D01*
X044525Y024114D01*
X044525Y023997D01*
X044467Y023938D01*
X044525Y023804D02*
X044408Y023687D01*
X044175Y023938D02*
X044175Y024172D01*
X044350Y024307D02*
X044350Y024482D01*
X044408Y024540D01*
X044467Y024540D01*
X044525Y024482D01*
X044525Y024365D01*
X044467Y024307D01*
X044350Y024307D01*
X044233Y024423D01*
X044175Y024540D01*
X045300Y024820D02*
X045592Y024820D01*
X045650Y024878D01*
X045650Y024995D01*
X045592Y025054D01*
X045300Y025054D01*
X045358Y025188D02*
X045300Y025247D01*
X045300Y025364D01*
X045358Y025422D01*
X045416Y025422D01*
X045650Y025188D01*
X045650Y025422D01*
X045592Y025557D02*
X045650Y025615D01*
X045650Y025732D01*
X045592Y025790D01*
X045533Y025790D01*
X045475Y025732D01*
X045475Y025673D01*
X045475Y025732D02*
X045416Y025790D01*
X045358Y025790D01*
X045300Y025732D01*
X045300Y025615D01*
X045358Y025557D01*
X045583Y026425D02*
X045817Y026425D01*
X045875Y026483D01*
X045875Y026600D01*
X045817Y026659D01*
X045817Y026793D02*
X045700Y026793D01*
X045700Y026968D01*
X045758Y027027D01*
X045817Y027027D01*
X045875Y026968D01*
X045875Y026852D01*
X045817Y026793D01*
X045700Y026793D02*
X045583Y026910D01*
X045525Y027027D01*
X045525Y027162D02*
X045700Y027162D01*
X045641Y027278D01*
X045641Y027337D01*
X045700Y027395D01*
X045817Y027395D01*
X045875Y027337D01*
X045875Y027220D01*
X045817Y027162D01*
X045525Y027162D02*
X045525Y027395D01*
X045583Y026659D02*
X045525Y026600D01*
X045525Y026483D01*
X045583Y026425D01*
X046925Y025290D02*
X046983Y025290D01*
X047217Y025057D01*
X047275Y025057D01*
X047217Y024922D02*
X047100Y024922D01*
X047041Y024864D01*
X047041Y024805D01*
X047100Y024688D01*
X046925Y024688D01*
X046925Y024922D01*
X046925Y025057D02*
X046925Y025290D01*
X047217Y024922D02*
X047275Y024864D01*
X047275Y024747D01*
X047217Y024688D01*
X047275Y024554D02*
X047158Y024437D01*
X047158Y024495D02*
X047158Y024320D01*
X047275Y024320D02*
X046925Y024320D01*
X046925Y024495D01*
X046983Y024554D01*
X047100Y024554D01*
X047158Y024495D01*
X047675Y024438D02*
X047675Y024614D01*
X047733Y024672D01*
X047967Y024672D01*
X048025Y024614D01*
X048025Y024438D01*
X047675Y024438D01*
X047675Y024807D02*
X047850Y024807D01*
X047791Y024923D01*
X047791Y024982D01*
X047850Y025040D01*
X047967Y025040D01*
X048025Y024982D01*
X048025Y024865D01*
X047967Y024807D01*
X047675Y024807D02*
X047675Y025040D01*
X048425Y024482D02*
X048483Y024540D01*
X048541Y024540D01*
X048600Y024482D01*
X048600Y024365D01*
X048541Y024307D01*
X048483Y024307D01*
X048425Y024365D01*
X048425Y024482D01*
X048600Y024482D02*
X048658Y024540D01*
X048717Y024540D01*
X048775Y024482D01*
X048775Y024365D01*
X048717Y024307D01*
X048658Y024307D01*
X048600Y024365D01*
X048600Y024172D02*
X048717Y024172D01*
X048775Y024114D01*
X048775Y023997D01*
X048717Y023938D01*
X048600Y023938D02*
X048541Y024055D01*
X048541Y024114D01*
X048600Y024172D01*
X048425Y024172D02*
X048425Y023938D01*
X048600Y023938D01*
X048600Y023804D02*
X048658Y023745D01*
X048658Y023570D01*
X048658Y023687D02*
X048775Y023804D01*
X048600Y023804D02*
X048483Y023804D01*
X048425Y023745D01*
X048425Y023570D01*
X048775Y023570D01*
X049175Y023570D02*
X049175Y023745D01*
X049233Y023804D01*
X049350Y023804D01*
X049408Y023745D01*
X049408Y023570D01*
X049408Y023687D02*
X049525Y023804D01*
X049467Y023938D02*
X049525Y023997D01*
X049525Y024114D01*
X049467Y024172D01*
X049350Y024172D01*
X049291Y024114D01*
X049291Y024055D01*
X049350Y023938D01*
X049175Y023938D01*
X049175Y024172D01*
X049233Y024307D02*
X049175Y024365D01*
X049175Y024482D01*
X049233Y024540D01*
X049467Y024540D01*
X049525Y024482D01*
X049525Y024365D01*
X049467Y024307D01*
X049350Y024365D02*
X049350Y024540D01*
X049350Y024365D02*
X049291Y024307D01*
X049233Y024307D01*
X050300Y024820D02*
X050592Y024820D01*
X050650Y024878D01*
X050650Y024995D01*
X050592Y025054D01*
X050300Y025054D01*
X050358Y025188D02*
X050300Y025247D01*
X050300Y025364D01*
X050358Y025422D01*
X050416Y025422D01*
X050650Y025188D01*
X050650Y025422D01*
X050475Y025557D02*
X050475Y025790D01*
X050650Y025732D02*
X050300Y025732D01*
X050475Y025557D01*
X050583Y026425D02*
X050525Y026483D01*
X050525Y026600D01*
X050583Y026659D01*
X050700Y026793D02*
X050700Y026968D01*
X050758Y027027D01*
X050817Y027027D01*
X050875Y026968D01*
X050875Y026852D01*
X050817Y026793D01*
X050700Y026793D01*
X050583Y026910D01*
X050525Y027027D01*
X050700Y027162D02*
X050700Y027337D01*
X050758Y027395D01*
X050817Y027395D01*
X050875Y027337D01*
X050875Y027220D01*
X050817Y027162D01*
X050700Y027162D01*
X050583Y027278D01*
X050525Y027395D01*
X050817Y026659D02*
X050875Y026600D01*
X050875Y026483D01*
X050817Y026425D01*
X050583Y026425D01*
X051925Y025232D02*
X051983Y025290D01*
X052217Y025057D01*
X052275Y025115D01*
X052275Y025232D01*
X052217Y025290D01*
X051983Y025290D01*
X051925Y025232D02*
X051925Y025115D01*
X051983Y025057D01*
X052217Y025057D01*
X052217Y024922D02*
X052158Y024922D01*
X052100Y024864D01*
X052100Y024688D01*
X052217Y024688D01*
X052275Y024747D01*
X052275Y024864D01*
X052217Y024922D01*
X051983Y024805D02*
X052100Y024688D01*
X052100Y024554D02*
X052158Y024495D01*
X052158Y024320D01*
X052158Y024437D02*
X052275Y024554D01*
X052100Y024554D02*
X051983Y024554D01*
X051925Y024495D01*
X051925Y024320D01*
X052275Y024320D01*
X052675Y024438D02*
X052675Y024614D01*
X052733Y024672D01*
X052967Y024672D01*
X053025Y024614D01*
X053025Y024438D01*
X052675Y024438D01*
X052850Y024807D02*
X052850Y024982D01*
X052908Y025040D01*
X052967Y025040D01*
X053025Y024982D01*
X053025Y024865D01*
X052967Y024807D01*
X052850Y024807D01*
X052733Y024923D01*
X052675Y025040D01*
X051983Y024805D02*
X051925Y024922D01*
X053425Y024423D02*
X053775Y024423D01*
X053775Y024307D02*
X053775Y024540D01*
X053541Y024307D02*
X053425Y024423D01*
X053425Y024172D02*
X053483Y024055D01*
X053600Y023938D01*
X053600Y024114D01*
X053658Y024172D01*
X053717Y024172D01*
X053775Y024114D01*
X053775Y023997D01*
X053717Y023938D01*
X053600Y023938D01*
X053600Y023804D02*
X053658Y023745D01*
X053658Y023570D01*
X053658Y023687D02*
X053775Y023804D01*
X053600Y023804D02*
X053483Y023804D01*
X053425Y023745D01*
X053425Y023570D01*
X053775Y023570D01*
X054175Y023570D02*
X054175Y023745D01*
X054233Y023804D01*
X054350Y023804D01*
X054408Y023745D01*
X054408Y023570D01*
X054408Y023687D02*
X054525Y023804D01*
X054467Y023938D02*
X054525Y023997D01*
X054525Y024114D01*
X054467Y024172D01*
X054408Y024172D01*
X054350Y024114D01*
X054350Y023938D01*
X054467Y023938D01*
X054350Y023938D02*
X054233Y024055D01*
X054175Y024172D01*
X054233Y024307D02*
X054175Y024365D01*
X054175Y024482D01*
X054233Y024540D01*
X054291Y024540D01*
X054525Y024307D01*
X054525Y024540D01*
X055300Y024820D02*
X055592Y024820D01*
X055650Y024878D01*
X055650Y024995D01*
X055592Y025054D01*
X055300Y025054D01*
X055358Y025188D02*
X055300Y025247D01*
X055300Y025364D01*
X055358Y025422D01*
X055416Y025422D01*
X055650Y025188D01*
X055650Y025422D01*
X055592Y025557D02*
X055650Y025615D01*
X055650Y025732D01*
X055592Y025790D01*
X055475Y025790D01*
X055416Y025732D01*
X055416Y025673D01*
X055475Y025557D01*
X055300Y025557D01*
X055300Y025790D01*
X055583Y026425D02*
X055817Y026425D01*
X055875Y026483D01*
X055875Y026600D01*
X055817Y026659D01*
X055817Y026793D02*
X055875Y026852D01*
X055875Y026968D01*
X055817Y027027D01*
X055758Y027027D01*
X055700Y026968D01*
X055700Y026793D01*
X055817Y026793D01*
X055700Y026793D02*
X055583Y026910D01*
X055525Y027027D01*
X055525Y027162D02*
X055525Y027395D01*
X055583Y027395D01*
X055817Y027162D01*
X055875Y027162D01*
X055583Y026659D02*
X055525Y026600D01*
X055525Y026483D01*
X055583Y026425D01*
X055619Y028197D02*
X051681Y028197D01*
X051681Y033906D01*
X055619Y033906D01*
X055619Y028197D01*
X059452Y027375D02*
X059452Y027025D01*
X059685Y027025D01*
X059820Y027025D02*
X060054Y027025D01*
X060188Y027025D02*
X060188Y027375D01*
X060364Y027375D01*
X060422Y027317D01*
X060422Y027083D01*
X060364Y027025D01*
X060188Y027025D01*
X059937Y027200D02*
X059820Y027200D01*
X059820Y027375D02*
X059820Y027025D01*
X059820Y027375D02*
X060054Y027375D01*
X060557Y027259D02*
X060673Y027375D01*
X060673Y027025D01*
X060557Y027025D02*
X060790Y027025D01*
X060793Y028675D02*
X060793Y029025D01*
X060910Y028909D01*
X061027Y029025D01*
X061027Y028675D01*
X060659Y028675D02*
X060483Y028850D01*
X060425Y028792D02*
X060659Y029025D01*
X060425Y029025D02*
X060425Y028675D01*
X063570Y026625D02*
X063745Y026625D01*
X063804Y026567D01*
X063804Y026450D01*
X063745Y026392D01*
X063570Y026392D01*
X063687Y026392D02*
X063804Y026275D01*
X063938Y026275D02*
X064172Y026509D01*
X064172Y026567D01*
X064114Y026625D01*
X063997Y026625D01*
X063938Y026567D01*
X063938Y026275D02*
X064172Y026275D01*
X064307Y026275D02*
X064540Y026275D01*
X064423Y026275D02*
X064423Y026625D01*
X064307Y026509D01*
X063570Y026625D02*
X063570Y026275D01*
X065175Y023775D02*
X065350Y023775D01*
X065409Y023717D01*
X065409Y023600D01*
X065350Y023542D01*
X065175Y023542D01*
X065175Y023425D02*
X065175Y023775D01*
X065543Y023717D02*
X065602Y023775D01*
X065718Y023775D01*
X065777Y023717D01*
X065777Y023659D01*
X065543Y023425D01*
X065777Y023425D01*
X054525Y023570D02*
X054175Y023570D01*
X049525Y023570D02*
X049175Y023570D01*
X050619Y028197D02*
X046681Y028197D01*
X046681Y033906D01*
X050619Y033906D01*
X050619Y028197D01*
X051068Y028323D02*
X051068Y028440D01*
X051068Y028382D02*
X051360Y028382D01*
X051418Y028323D01*
X051418Y028265D01*
X051360Y028206D01*
X051418Y028575D02*
X051418Y028808D01*
X051418Y028692D02*
X051068Y028692D01*
X051185Y028575D01*
X051185Y028943D02*
X051126Y028943D01*
X051068Y029002D01*
X051068Y029118D01*
X051126Y029177D01*
X051185Y029177D01*
X051243Y029118D01*
X051243Y029002D01*
X051185Y028943D01*
X051243Y029002D02*
X051302Y028943D01*
X051360Y028943D01*
X051418Y029002D01*
X051418Y029118D01*
X051360Y029177D01*
X051302Y029177D01*
X051243Y029118D01*
X046418Y028943D02*
X046360Y028943D01*
X046126Y029177D01*
X046068Y029177D01*
X046068Y028943D01*
X046068Y028692D02*
X046418Y028692D01*
X046418Y028808D02*
X046418Y028575D01*
X046360Y028382D02*
X046068Y028382D01*
X046068Y028440D02*
X046068Y028323D01*
X046185Y028575D02*
X046068Y028692D01*
X046360Y028382D02*
X046418Y028323D01*
X046418Y028265D01*
X046360Y028206D01*
X045619Y028197D02*
X041681Y028197D01*
X041681Y033906D01*
X045619Y033906D01*
X045619Y028197D01*
X041418Y028265D02*
X041418Y028323D01*
X041360Y028382D01*
X041068Y028382D01*
X041068Y028440D02*
X041068Y028323D01*
X041185Y028575D02*
X041068Y028692D01*
X041418Y028692D01*
X041418Y028808D02*
X041418Y028575D01*
X041418Y028265D02*
X041360Y028206D01*
X041360Y028943D02*
X041418Y029002D01*
X041418Y029118D01*
X041360Y029177D01*
X041302Y029177D01*
X041243Y029118D01*
X041243Y028943D01*
X041360Y028943D01*
X041243Y028943D02*
X041126Y029060D01*
X041068Y029177D01*
X039181Y034197D02*
X039181Y039906D01*
X043119Y039906D01*
X043119Y034197D01*
X039181Y034197D01*
X044181Y034197D02*
X044181Y039906D01*
X048119Y039906D01*
X048119Y034197D01*
X044181Y034197D01*
X049181Y034197D02*
X049181Y039906D01*
X053119Y039906D01*
X053119Y034197D01*
X049181Y034197D01*
X054181Y034197D02*
X054181Y039906D01*
X058119Y039906D01*
X058119Y034197D01*
X054181Y034197D01*
X059425Y035358D02*
X059483Y035300D01*
X059600Y035300D01*
X059659Y035358D01*
X059793Y035300D02*
X060027Y035300D01*
X059910Y035300D02*
X059910Y035650D01*
X059793Y035534D01*
X059659Y035592D02*
X059600Y035650D01*
X059483Y035650D01*
X059425Y035592D01*
X059425Y035358D01*
X059675Y035150D02*
X059850Y035150D01*
X059909Y035092D01*
X059909Y034975D01*
X059850Y034917D01*
X059675Y034917D01*
X059792Y034917D02*
X059909Y034800D01*
X060043Y034800D02*
X060277Y034800D01*
X060160Y034800D02*
X060160Y035150D01*
X060043Y035034D01*
X060162Y035300D02*
X060162Y035358D01*
X060395Y035592D01*
X060395Y035650D01*
X060162Y035650D01*
X060160Y035800D02*
X060160Y036150D01*
X060043Y036034D01*
X059909Y036092D02*
X059909Y035975D01*
X059850Y035917D01*
X059675Y035917D01*
X059792Y035917D02*
X059909Y035800D01*
X060043Y035800D02*
X060277Y035800D01*
X060412Y035975D02*
X060645Y035975D01*
X060780Y035975D02*
X060955Y035975D01*
X061013Y035917D01*
X061013Y035858D01*
X060955Y035800D01*
X060838Y035800D01*
X060780Y035858D01*
X060780Y035975D01*
X060897Y036092D01*
X061013Y036150D01*
X060780Y036300D02*
X060780Y036358D01*
X061013Y036592D01*
X061013Y036650D01*
X060780Y036650D01*
X060587Y036650D02*
X060412Y036475D01*
X060645Y036475D01*
X060587Y036300D02*
X060587Y036650D01*
X060160Y036650D02*
X060160Y036300D01*
X060043Y036300D02*
X060277Y036300D01*
X060043Y036534D02*
X060160Y036650D01*
X059909Y036592D02*
X059909Y036475D01*
X059850Y036417D01*
X059675Y036417D01*
X059792Y036417D02*
X059909Y036300D01*
X059850Y036150D02*
X059909Y036092D01*
X059850Y036150D02*
X059675Y036150D01*
X059675Y035800D01*
X059675Y035150D02*
X059675Y034800D01*
X059675Y034650D02*
X059850Y034650D01*
X059909Y034592D01*
X059909Y034475D01*
X059850Y034417D01*
X059675Y034417D01*
X059792Y034417D02*
X059909Y034300D01*
X060043Y034300D02*
X060277Y034300D01*
X060160Y034300D02*
X060160Y034650D01*
X060043Y034534D01*
X060412Y034475D02*
X060645Y034475D01*
X060780Y034534D02*
X060838Y034475D01*
X061013Y034475D01*
X061013Y034358D02*
X061013Y034592D01*
X060955Y034650D01*
X060838Y034650D01*
X060780Y034592D01*
X060780Y034534D01*
X060780Y034358D02*
X060838Y034300D01*
X060955Y034300D01*
X061013Y034358D01*
X060587Y034300D02*
X060587Y034650D01*
X060412Y034475D01*
X060587Y034800D02*
X060587Y035150D01*
X060412Y034975D01*
X060645Y034975D01*
X060780Y034917D02*
X060838Y034975D01*
X060955Y034975D01*
X061013Y034917D01*
X061013Y034858D01*
X060955Y034800D01*
X060838Y034800D01*
X060780Y034858D01*
X060780Y034917D01*
X060838Y034975D02*
X060780Y035034D01*
X060780Y035092D01*
X060838Y035150D01*
X060955Y035150D01*
X061013Y035092D01*
X061013Y035034D01*
X060955Y034975D01*
X060705Y035300D02*
X060588Y035300D01*
X060530Y035358D01*
X060530Y035417D01*
X060588Y035475D01*
X060705Y035475D01*
X060763Y035417D01*
X060763Y035358D01*
X060705Y035300D01*
X060705Y035475D02*
X060763Y035534D01*
X060763Y035592D01*
X060705Y035650D01*
X060588Y035650D01*
X060530Y035592D01*
X060530Y035534D01*
X060588Y035475D01*
X060587Y035800D02*
X060587Y036150D01*
X060412Y035975D01*
X059909Y036592D02*
X059850Y036650D01*
X059675Y036650D01*
X059675Y036300D01*
X061550Y037175D02*
X061667Y037175D01*
X061608Y037175D02*
X061608Y037525D01*
X061550Y037525D02*
X061667Y037525D01*
X061796Y037467D02*
X061796Y037233D01*
X061854Y037175D01*
X061971Y037175D01*
X062029Y037233D01*
X062164Y037233D02*
X062222Y037175D01*
X062339Y037175D01*
X062397Y037233D01*
X062397Y037467D01*
X062339Y037525D01*
X062222Y037525D01*
X062164Y037467D01*
X062164Y037409D01*
X062222Y037350D01*
X062397Y037350D01*
X062029Y037467D02*
X061971Y037525D01*
X061854Y037525D01*
X061796Y037467D01*
X065425Y037417D02*
X065600Y037417D01*
X065659Y037475D01*
X065659Y037592D01*
X065600Y037650D01*
X065425Y037650D01*
X065425Y037300D01*
X065542Y037417D02*
X065659Y037300D01*
X065793Y037300D02*
X066027Y037300D01*
X065910Y037300D02*
X065910Y037650D01*
X065793Y037534D01*
X066162Y037475D02*
X066278Y037534D01*
X066337Y037534D01*
X066395Y037475D01*
X066395Y037358D01*
X066337Y037300D01*
X066220Y037300D01*
X066162Y037358D01*
X066162Y037475D02*
X066162Y037650D01*
X066395Y037650D01*
X066530Y037534D02*
X066647Y037650D01*
X066647Y037300D01*
X066763Y037300D02*
X066530Y037300D01*
X066588Y038050D02*
X066530Y038108D01*
X066763Y038342D01*
X066763Y038108D01*
X066705Y038050D01*
X066588Y038050D01*
X066530Y038108D02*
X066530Y038342D01*
X066588Y038400D01*
X066705Y038400D01*
X066763Y038342D01*
X066395Y038400D02*
X066162Y038400D01*
X066162Y038225D01*
X066278Y038284D01*
X066337Y038284D01*
X066395Y038225D01*
X066395Y038108D01*
X066337Y038050D01*
X066220Y038050D01*
X066162Y038108D01*
X066027Y038050D02*
X065793Y038050D01*
X065910Y038050D02*
X065910Y038400D01*
X065793Y038284D01*
X065659Y038342D02*
X065659Y038225D01*
X065600Y038167D01*
X065425Y038167D01*
X065542Y038167D02*
X065659Y038050D01*
X065425Y038050D02*
X065425Y038400D01*
X065600Y038400D01*
X065659Y038342D01*
X065659Y038800D02*
X065542Y038917D01*
X065600Y038917D02*
X065425Y038917D01*
X065425Y038800D02*
X065425Y039150D01*
X065600Y039150D01*
X065659Y039092D01*
X065659Y038975D01*
X065600Y038917D01*
X065793Y039034D02*
X065910Y039150D01*
X065910Y038800D01*
X065793Y038800D02*
X066027Y038800D01*
X066162Y038858D02*
X066220Y038800D01*
X066337Y038800D01*
X066395Y038858D01*
X066395Y038975D01*
X066337Y039034D01*
X066278Y039034D01*
X066162Y038975D01*
X066162Y039150D01*
X066395Y039150D01*
X066530Y039092D02*
X066588Y039150D01*
X066705Y039150D01*
X066763Y039092D01*
X066763Y039034D01*
X066530Y038800D01*
X066763Y038800D01*
X066705Y039550D02*
X066588Y039550D01*
X066530Y039608D01*
X066395Y039608D02*
X066337Y039550D01*
X066220Y039550D01*
X066162Y039608D01*
X066162Y039725D02*
X066278Y039784D01*
X066337Y039784D01*
X066395Y039725D01*
X066395Y039608D01*
X066162Y039725D02*
X066162Y039900D01*
X066395Y039900D01*
X066530Y039842D02*
X066588Y039900D01*
X066705Y039900D01*
X066763Y039842D01*
X066763Y039784D01*
X066705Y039725D01*
X066763Y039667D01*
X066763Y039608D01*
X066705Y039550D01*
X066705Y039725D02*
X066647Y039725D01*
X066027Y039550D02*
X065793Y039550D01*
X065910Y039550D02*
X065910Y039900D01*
X065793Y039784D01*
X065659Y039842D02*
X065659Y039725D01*
X065600Y039667D01*
X065425Y039667D01*
X065542Y039667D02*
X065659Y039550D01*
X065425Y039550D02*
X065425Y039900D01*
X065600Y039900D01*
X065659Y039842D01*
X058177Y040132D02*
X057943Y040132D01*
X058177Y040365D01*
X058177Y040424D01*
X058118Y040482D01*
X058002Y040482D01*
X057943Y040424D01*
X057808Y040424D02*
X057750Y040482D01*
X057633Y040482D01*
X057575Y040424D01*
X057440Y040482D02*
X057323Y040482D01*
X057382Y040482D02*
X057382Y040190D01*
X057323Y040132D01*
X057265Y040132D01*
X057206Y040190D01*
X057575Y040132D02*
X057808Y040365D01*
X057808Y040424D01*
X057808Y040132D02*
X057575Y040132D01*
X053177Y040132D02*
X052943Y040132D01*
X053060Y040132D02*
X053060Y040482D01*
X052943Y040365D01*
X052808Y040365D02*
X052808Y040424D01*
X052750Y040482D01*
X052633Y040482D01*
X052575Y040424D01*
X052440Y040482D02*
X052323Y040482D01*
X052382Y040482D02*
X052382Y040190D01*
X052323Y040132D01*
X052265Y040132D01*
X052206Y040190D01*
X052575Y040132D02*
X052808Y040365D01*
X052808Y040132D02*
X052575Y040132D01*
X048177Y040190D02*
X048118Y040132D01*
X048002Y040132D01*
X047943Y040190D01*
X048177Y040424D01*
X048177Y040190D01*
X048177Y040424D02*
X048118Y040482D01*
X048002Y040482D01*
X047943Y040424D01*
X047943Y040190D01*
X047808Y040132D02*
X047575Y040132D01*
X047808Y040365D01*
X047808Y040424D01*
X047750Y040482D01*
X047633Y040482D01*
X047575Y040424D01*
X047440Y040482D02*
X047323Y040482D01*
X047382Y040482D02*
X047382Y040190D01*
X047323Y040132D01*
X047265Y040132D01*
X047206Y040190D01*
X043177Y040190D02*
X043177Y040424D01*
X043118Y040482D01*
X043002Y040482D01*
X042943Y040424D01*
X042943Y040365D01*
X043002Y040307D01*
X043177Y040307D01*
X043177Y040190D02*
X043118Y040132D01*
X043002Y040132D01*
X042943Y040190D01*
X042808Y040132D02*
X042575Y040132D01*
X042692Y040132D02*
X042692Y040482D01*
X042575Y040365D01*
X042440Y040482D02*
X042323Y040482D01*
X042382Y040482D02*
X042382Y040190D01*
X042323Y040132D01*
X042265Y040132D01*
X042206Y040190D01*
X059675Y034650D02*
X059675Y034300D01*
X066300Y032794D02*
X066358Y032853D01*
X066592Y032619D01*
X066650Y032678D01*
X066650Y032794D01*
X066592Y032853D01*
X066358Y032853D01*
X066300Y032794D02*
X066300Y032678D01*
X066358Y032619D01*
X066592Y032619D01*
X066650Y032484D02*
X066650Y032251D01*
X066650Y032368D02*
X066300Y032368D01*
X066416Y032251D01*
X066650Y032116D02*
X066650Y031883D01*
X066300Y031883D01*
X040020Y014967D02*
X040020Y014909D01*
X039962Y014850D01*
X040020Y014792D01*
X040020Y014733D01*
X039962Y014675D01*
X039845Y014675D01*
X039787Y014733D01*
X039652Y014733D02*
X039652Y014792D01*
X039593Y014850D01*
X039418Y014850D01*
X039418Y014733D01*
X039477Y014675D01*
X039593Y014675D01*
X039652Y014733D01*
X039535Y014967D02*
X039418Y014850D01*
X039535Y014967D02*
X039652Y015025D01*
X039787Y014967D02*
X039845Y015025D01*
X039962Y015025D01*
X040020Y014967D01*
X039962Y014850D02*
X039903Y014850D01*
X039284Y014733D02*
X039225Y014675D01*
X039108Y014675D01*
X039050Y014733D01*
X039050Y014967D01*
X039108Y015025D01*
X039225Y015025D01*
X039284Y014967D01*
X031375Y014858D02*
X031375Y014975D01*
X031317Y015034D01*
X031025Y015034D01*
X031025Y015168D02*
X031200Y015168D01*
X031141Y015285D01*
X031141Y015343D01*
X031200Y015402D01*
X031317Y015402D01*
X031375Y015343D01*
X031375Y015227D01*
X031317Y015168D01*
X031025Y015168D02*
X031025Y015402D01*
X031025Y014800D02*
X031317Y014800D01*
X031375Y014858D01*
X020875Y019159D02*
X020758Y019042D01*
X020375Y018925D02*
X020025Y018925D01*
X020025Y019100D01*
X020083Y019159D01*
X013040Y016192D02*
X012982Y016250D01*
X012865Y016250D01*
X012807Y016192D01*
X012672Y016192D02*
X012614Y016250D01*
X012497Y016250D01*
X012438Y016192D01*
X012672Y016192D02*
X012672Y016134D01*
X012438Y015900D01*
X012672Y015900D01*
X012807Y015900D02*
X013040Y016134D01*
X013040Y016192D01*
X013040Y015900D02*
X012807Y015900D01*
X012865Y015750D02*
X012982Y015750D01*
X013040Y015692D01*
X013040Y015634D01*
X012982Y015575D01*
X013040Y015517D01*
X013040Y015458D01*
X012982Y015400D01*
X012865Y015400D01*
X012807Y015458D01*
X012672Y015400D02*
X012438Y015400D01*
X012672Y015634D01*
X012672Y015692D01*
X012614Y015750D01*
X012497Y015750D01*
X012438Y015692D01*
X012304Y015900D02*
X012070Y015900D01*
X012187Y015900D02*
X012187Y016250D01*
X012070Y016134D01*
X011935Y016192D02*
X011935Y016075D01*
X011877Y016017D01*
X011702Y016017D01*
X011819Y016017D02*
X011935Y015900D01*
X011877Y015750D02*
X011935Y015692D01*
X011935Y015575D01*
X011877Y015517D01*
X011702Y015517D01*
X011819Y015517D02*
X011935Y015400D01*
X012070Y015400D02*
X012304Y015400D01*
X012187Y015400D02*
X012187Y015750D01*
X012070Y015634D01*
X011877Y015750D02*
X011702Y015750D01*
X011702Y015400D01*
X011763Y014775D02*
X011530Y014775D01*
X011530Y014600D01*
X011647Y014659D01*
X011705Y014659D01*
X011763Y014600D01*
X011763Y014483D01*
X011705Y014425D01*
X011588Y014425D01*
X011530Y014483D01*
X011395Y014483D02*
X011395Y014542D01*
X011337Y014600D01*
X011162Y014600D01*
X011162Y014483D01*
X011220Y014425D01*
X011337Y014425D01*
X011395Y014483D01*
X011162Y014600D02*
X011278Y014717D01*
X011395Y014775D01*
X010910Y014775D02*
X010910Y014425D01*
X010793Y014425D02*
X011027Y014425D01*
X010793Y014659D02*
X010910Y014775D01*
X010659Y014717D02*
X010600Y014775D01*
X010483Y014775D01*
X010425Y014717D01*
X010425Y014483D01*
X010483Y014425D01*
X010600Y014425D01*
X010659Y014483D01*
X009513Y014425D02*
X009280Y014425D01*
X009513Y014659D01*
X009513Y014717D01*
X009455Y014775D01*
X009338Y014775D01*
X009280Y014717D01*
X009145Y014775D02*
X009028Y014717D01*
X008912Y014600D01*
X009087Y014600D01*
X009145Y014542D01*
X009145Y014483D01*
X009087Y014425D01*
X008970Y014425D01*
X008912Y014483D01*
X008912Y014600D01*
X008777Y014425D02*
X008543Y014425D01*
X008660Y014425D02*
X008660Y014775D01*
X008543Y014659D01*
X008409Y014717D02*
X008350Y014775D01*
X008233Y014775D01*
X008175Y014717D01*
X008175Y014483D01*
X008233Y014425D01*
X008350Y014425D01*
X008409Y014483D01*
X007263Y014600D02*
X007030Y014600D01*
X007205Y014775D01*
X007205Y014425D01*
X006895Y014483D02*
X006895Y014542D01*
X006837Y014600D01*
X006662Y014600D01*
X006662Y014483D01*
X006720Y014425D01*
X006837Y014425D01*
X006895Y014483D01*
X006662Y014600D02*
X006778Y014717D01*
X006895Y014775D01*
X006410Y014775D02*
X006410Y014425D01*
X006293Y014425D02*
X006527Y014425D01*
X006293Y014659D02*
X006410Y014775D01*
X006159Y014717D02*
X006100Y014775D01*
X005983Y014775D01*
X005925Y014717D01*
X005925Y014483D01*
X005983Y014425D01*
X006100Y014425D01*
X006159Y014483D01*
X006452Y016275D02*
X006452Y016625D01*
X006627Y016625D01*
X006685Y016567D01*
X006685Y016450D01*
X006627Y016392D01*
X006452Y016392D01*
X006569Y016392D02*
X006685Y016275D01*
X006820Y016275D02*
X007054Y016275D01*
X006937Y016275D02*
X006937Y016625D01*
X006820Y016509D01*
X007188Y016567D02*
X007247Y016625D01*
X007364Y016625D01*
X007422Y016567D01*
X007422Y016509D01*
X007188Y016275D01*
X007422Y016275D01*
X007557Y016333D02*
X007615Y016275D01*
X007732Y016275D01*
X007790Y016333D01*
X007790Y016450D01*
X007732Y016509D01*
X007673Y016509D01*
X007557Y016450D01*
X007557Y016625D01*
X007790Y016625D01*
X007732Y017025D02*
X007615Y017025D01*
X007557Y017083D01*
X007557Y017142D01*
X007615Y017200D01*
X007732Y017200D01*
X007790Y017142D01*
X007790Y017083D01*
X007732Y017025D01*
X007732Y017200D02*
X007790Y017259D01*
X007790Y017317D01*
X007732Y017375D01*
X007615Y017375D01*
X007557Y017317D01*
X007557Y017259D01*
X007615Y017200D01*
X007422Y017200D02*
X007364Y017259D01*
X007305Y017259D01*
X007188Y017200D01*
X007188Y017375D01*
X007422Y017375D01*
X007422Y017200D02*
X007422Y017083D01*
X007364Y017025D01*
X007247Y017025D01*
X007188Y017083D01*
X007054Y017025D02*
X006820Y017025D01*
X006937Y017025D02*
X006937Y017375D01*
X006820Y017259D01*
X006685Y017317D02*
X006627Y017375D01*
X006510Y017375D01*
X006452Y017317D01*
X006452Y017083D01*
X006510Y017025D01*
X006627Y017025D01*
X006685Y017083D01*
X007675Y017952D02*
X007675Y018127D01*
X007733Y018185D01*
X007850Y018185D01*
X007908Y018127D01*
X007908Y017952D01*
X007908Y018069D02*
X008025Y018185D01*
X008025Y018320D02*
X008025Y018554D01*
X008025Y018437D02*
X007675Y018437D01*
X007791Y018320D01*
X007733Y018688D02*
X007675Y018747D01*
X007675Y018864D01*
X007733Y018922D01*
X007791Y018922D01*
X008025Y018688D01*
X008025Y018922D01*
X007850Y019057D02*
X007850Y019290D01*
X008025Y019232D02*
X007675Y019232D01*
X007850Y019057D01*
X008025Y017952D02*
X007675Y017952D01*
X009675Y015967D02*
X009675Y015733D01*
X009733Y015675D01*
X009850Y015675D01*
X009909Y015733D01*
X010043Y015675D02*
X010277Y015675D01*
X010160Y015675D02*
X010160Y016025D01*
X010043Y015909D01*
X009909Y015967D02*
X009850Y016025D01*
X009733Y016025D01*
X009675Y015967D01*
X010412Y016025D02*
X010412Y015850D01*
X010528Y015909D01*
X010587Y015909D01*
X010645Y015850D01*
X010645Y015733D01*
X010587Y015675D01*
X010470Y015675D01*
X010412Y015733D01*
X010412Y016025D02*
X010645Y016025D01*
X010780Y015967D02*
X010780Y015909D01*
X010838Y015850D01*
X011013Y015850D01*
X011013Y015733D02*
X011013Y015967D01*
X010955Y016025D01*
X010838Y016025D01*
X010780Y015967D01*
X010780Y015733D02*
X010838Y015675D01*
X010955Y015675D01*
X011013Y015733D01*
X011702Y015900D02*
X011702Y016250D01*
X011877Y016250D01*
X011935Y016192D01*
X012807Y015692D02*
X012865Y015750D01*
X012923Y015575D02*
X012982Y015575D01*
X013233Y014540D02*
X013175Y014482D01*
X013175Y014365D01*
X013233Y014307D01*
X013291Y014307D01*
X013350Y014365D01*
X013350Y014540D01*
X013467Y014540D02*
X013233Y014540D01*
X013467Y014540D02*
X013525Y014482D01*
X013525Y014365D01*
X013467Y014307D01*
X013467Y014172D02*
X013525Y014114D01*
X013525Y013997D01*
X013467Y013938D01*
X013350Y013938D02*
X013291Y014055D01*
X013291Y014114D01*
X013350Y014172D01*
X013467Y014172D01*
X013350Y013938D02*
X013175Y013938D01*
X013175Y014172D01*
X013175Y013687D02*
X013525Y013687D01*
X013525Y013570D02*
X013525Y013804D01*
X013291Y013570D02*
X013175Y013687D01*
X013233Y013435D02*
X013350Y013435D01*
X013408Y013377D01*
X013408Y013202D01*
X013408Y013319D02*
X013525Y013435D01*
X013525Y013202D02*
X013175Y013202D01*
X013175Y013377D01*
X013233Y013435D01*
X003852Y020050D02*
X003793Y020108D01*
X003793Y020400D01*
X003659Y020342D02*
X003600Y020400D01*
X003483Y020400D01*
X003425Y020342D01*
X003425Y020108D01*
X003483Y020050D01*
X003600Y020050D01*
X003659Y020108D01*
X003659Y020342D01*
X002784Y020983D02*
X002725Y020925D01*
X002608Y020925D01*
X002550Y020983D01*
X002550Y021217D01*
X002608Y021275D01*
X002725Y021275D01*
X002784Y021217D01*
X001784Y021275D02*
X001667Y021275D01*
X001725Y021275D02*
X001725Y020983D01*
X001667Y020925D01*
X001608Y020925D01*
X001550Y020983D01*
X004575Y022775D02*
X004691Y022775D01*
X004633Y022775D02*
X004633Y023125D01*
X004575Y023125D02*
X004691Y023125D01*
X004820Y023067D02*
X004820Y022833D01*
X004878Y022775D01*
X004995Y022775D01*
X005054Y022833D01*
X005188Y022775D02*
X005422Y022775D01*
X005305Y022775D02*
X005305Y023125D01*
X005188Y023009D01*
X005054Y023067D02*
X004995Y023125D01*
X004878Y023125D01*
X004820Y023067D01*
X005557Y023009D02*
X005673Y023125D01*
X005673Y022775D01*
X005557Y022775D02*
X005790Y022775D01*
X002275Y025010D02*
X002275Y025127D01*
X002217Y025185D01*
X002275Y025320D02*
X002275Y025554D01*
X002275Y025437D02*
X001925Y025437D01*
X002041Y025320D01*
X001983Y025185D02*
X001925Y025127D01*
X001925Y025010D01*
X001983Y024952D01*
X002217Y024952D01*
X002275Y025010D01*
X002217Y025688D02*
X002275Y025747D01*
X002275Y025864D01*
X002217Y025922D01*
X001983Y025922D01*
X001925Y025864D01*
X001925Y025747D01*
X001983Y025688D01*
X002041Y025688D01*
X002100Y025747D01*
X002100Y025922D01*
X002041Y026057D02*
X001925Y026173D01*
X002275Y026173D01*
X002275Y026057D02*
X002275Y026290D01*
X001525Y026232D02*
X001525Y026115D01*
X001467Y026057D01*
X001467Y025922D02*
X001408Y025922D01*
X001350Y025864D01*
X001350Y025688D01*
X001467Y025688D01*
X001525Y025747D01*
X001525Y025864D01*
X001467Y025922D01*
X001233Y025805D02*
X001350Y025688D01*
X001233Y025805D02*
X001175Y025922D01*
X001233Y026057D02*
X001175Y026115D01*
X001175Y026232D01*
X001233Y026290D01*
X001291Y026290D01*
X001350Y026232D01*
X001408Y026290D01*
X001467Y026290D01*
X001525Y026232D01*
X001350Y026232D02*
X001350Y026173D01*
X001525Y025554D02*
X001525Y025320D01*
X001525Y025437D02*
X001175Y025437D01*
X001291Y025320D01*
X001233Y025185D02*
X001175Y025127D01*
X001175Y025010D01*
X001233Y024952D01*
X001467Y024952D01*
X001525Y025010D01*
X001525Y025127D01*
X001467Y025185D01*
X004525Y026675D02*
X004875Y026675D01*
X004875Y026909D01*
X004875Y027043D02*
X004875Y027277D01*
X004875Y027412D02*
X004875Y027587D01*
X004817Y027645D01*
X004583Y027645D01*
X004525Y027587D01*
X004525Y027412D01*
X004875Y027412D01*
X004700Y027160D02*
X004700Y027043D01*
X004525Y027043D02*
X004875Y027043D01*
X004525Y027043D02*
X004525Y027277D01*
X004525Y027780D02*
X004700Y027780D01*
X004641Y027897D01*
X004641Y027955D01*
X004700Y028013D01*
X004817Y028013D01*
X004875Y027955D01*
X004875Y027838D01*
X004817Y027780D01*
X004525Y027780D02*
X004525Y028013D01*
X006025Y028013D02*
X006083Y027897D01*
X006200Y027780D01*
X006200Y027955D01*
X006258Y028013D01*
X006317Y028013D01*
X006375Y027955D01*
X006375Y027838D01*
X006317Y027780D01*
X006200Y027780D01*
X006317Y027645D02*
X006083Y027645D01*
X006025Y027587D01*
X006025Y027412D01*
X006375Y027412D01*
X006375Y027587D01*
X006317Y027645D01*
X006375Y027277D02*
X006375Y027043D01*
X006025Y027043D01*
X006025Y027277D01*
X006200Y027160D02*
X006200Y027043D01*
X006375Y026909D02*
X006375Y026675D01*
X006025Y026675D01*
X008025Y026895D02*
X008083Y026778D01*
X008200Y026662D01*
X008200Y026837D01*
X008258Y026895D01*
X008317Y026895D01*
X008375Y026837D01*
X008375Y026720D01*
X008317Y026662D01*
X008200Y026662D01*
X008375Y026527D02*
X008375Y026293D01*
X008375Y026410D02*
X008025Y026410D01*
X008141Y026293D01*
X008083Y026159D02*
X008025Y026100D01*
X008025Y025983D01*
X008083Y025925D01*
X008317Y025925D01*
X008375Y025983D01*
X008375Y026100D01*
X008317Y026159D01*
X008317Y027030D02*
X008083Y027030D01*
X008025Y027088D01*
X008025Y027205D01*
X008083Y027263D01*
X008317Y027030D01*
X008375Y027088D01*
X008375Y027205D01*
X008317Y027263D01*
X008083Y027263D01*
X008194Y027875D02*
X008194Y028226D01*
X008369Y028226D01*
X008428Y028167D01*
X008428Y028051D01*
X008369Y027992D01*
X008194Y027992D01*
X008563Y027934D02*
X008621Y027875D01*
X008738Y027875D01*
X008796Y027934D01*
X008796Y027992D01*
X008738Y028051D01*
X008563Y028051D01*
X008563Y027934D01*
X008563Y028051D02*
X008679Y028167D01*
X008796Y028226D01*
X008906Y028394D02*
X002213Y028394D01*
X002213Y033906D01*
X008906Y033906D01*
X008906Y028394D01*
X010213Y028394D02*
X010213Y033906D01*
X016906Y033906D01*
X016906Y028394D01*
X010213Y028394D01*
X011083Y027263D02*
X011317Y027030D01*
X011375Y027088D01*
X011375Y027205D01*
X011317Y027263D01*
X011083Y027263D01*
X011025Y027205D01*
X011025Y027088D01*
X011083Y027030D01*
X011317Y027030D01*
X011200Y026895D02*
X011200Y026662D01*
X011025Y026837D01*
X011375Y026837D01*
X011375Y026527D02*
X011375Y026293D01*
X011375Y026410D02*
X011025Y026410D01*
X011141Y026293D01*
X011083Y026159D02*
X011025Y026100D01*
X011025Y025983D01*
X011083Y025925D01*
X011317Y025925D01*
X011375Y025983D01*
X011375Y026100D01*
X011317Y026159D01*
X012525Y026675D02*
X012875Y026675D01*
X012875Y026909D01*
X012875Y027043D02*
X012875Y027277D01*
X012875Y027412D02*
X012875Y027587D01*
X012817Y027645D01*
X012583Y027645D01*
X012525Y027587D01*
X012525Y027412D01*
X012875Y027412D01*
X012700Y027160D02*
X012700Y027043D01*
X012525Y027043D02*
X012875Y027043D01*
X012525Y027043D02*
X012525Y027277D01*
X012525Y027780D02*
X012525Y028013D01*
X012583Y028013D01*
X012817Y027780D01*
X012875Y027780D01*
X014025Y027838D02*
X014025Y027955D01*
X014083Y028013D01*
X014141Y028013D01*
X014200Y027955D01*
X014200Y027838D01*
X014141Y027780D01*
X014083Y027780D01*
X014025Y027838D01*
X014200Y027838D02*
X014258Y027780D01*
X014317Y027780D01*
X014375Y027838D01*
X014375Y027955D01*
X014317Y028013D01*
X014258Y028013D01*
X014200Y027955D01*
X014317Y027645D02*
X014083Y027645D01*
X014025Y027587D01*
X014025Y027412D01*
X014375Y027412D01*
X014375Y027587D01*
X014317Y027645D01*
X014375Y027277D02*
X014375Y027043D01*
X014025Y027043D01*
X014025Y027277D01*
X014200Y027160D02*
X014200Y027043D01*
X014375Y026909D02*
X014375Y026675D01*
X014025Y026675D01*
X016275Y026778D02*
X016391Y026662D01*
X016391Y026527D02*
X016333Y026527D01*
X016275Y026468D01*
X016275Y026352D01*
X016333Y026293D01*
X016333Y026159D02*
X016275Y026100D01*
X016275Y025983D01*
X016333Y025925D01*
X016567Y025925D01*
X016625Y025983D01*
X016625Y026100D01*
X016567Y026159D01*
X016625Y026293D02*
X016391Y026527D01*
X016625Y026527D02*
X016625Y026293D01*
X016625Y026662D02*
X016625Y026895D01*
X016625Y026778D02*
X016275Y026778D01*
X016391Y027030D02*
X016275Y027147D01*
X016625Y027147D01*
X016625Y027263D02*
X016625Y027030D01*
X016621Y027875D02*
X016563Y027934D01*
X016621Y027875D02*
X016738Y027875D01*
X016796Y027934D01*
X016796Y028051D01*
X016738Y028109D01*
X016679Y028109D01*
X016563Y028051D01*
X016563Y028226D01*
X016796Y028226D01*
X016428Y028167D02*
X016428Y028051D01*
X016369Y027992D01*
X016194Y027992D01*
X016194Y027875D02*
X016194Y028226D01*
X016369Y028226D01*
X016428Y028167D01*
X020900Y027830D02*
X020900Y027713D01*
X020958Y027655D01*
X021016Y027655D01*
X021075Y027713D01*
X021075Y027888D01*
X021192Y027888D02*
X020958Y027888D01*
X020900Y027830D01*
X021192Y027888D02*
X021250Y027830D01*
X021250Y027713D01*
X021192Y027655D01*
X021192Y027520D02*
X020958Y027520D01*
X020900Y027462D01*
X020900Y027287D01*
X021250Y027287D01*
X021250Y027462D01*
X021192Y027520D01*
X021250Y027152D02*
X021250Y026918D01*
X020900Y026918D01*
X020900Y027152D01*
X021075Y027035D02*
X021075Y026918D01*
X021250Y026784D02*
X021250Y026550D01*
X020900Y026550D01*
X007115Y035077D02*
X007057Y035019D01*
X006940Y035019D01*
X006881Y035077D01*
X006747Y035019D02*
X006513Y035019D01*
X006630Y035019D02*
X006630Y035369D01*
X006513Y035253D01*
X006378Y035369D02*
X006262Y035369D01*
X006320Y035369D02*
X006320Y035077D01*
X006262Y035019D01*
X006203Y035019D01*
X006145Y035077D01*
X006881Y035311D02*
X006940Y035369D01*
X007057Y035369D01*
X007115Y035311D01*
X007115Y035253D01*
X007057Y035194D01*
X007115Y035136D01*
X007115Y035077D01*
X007057Y035194D02*
X006998Y035194D01*
X007225Y035788D02*
X004075Y035788D01*
X004075Y041693D01*
X004469Y041693D01*
X004469Y045237D01*
X006831Y045237D01*
X006831Y041693D01*
X007225Y041693D01*
X007225Y035788D01*
X003763Y037842D02*
X003530Y037608D01*
X003530Y037550D01*
X003395Y037608D02*
X003395Y037667D01*
X003337Y037725D01*
X003220Y037725D01*
X003162Y037784D01*
X003162Y037842D01*
X003220Y037900D01*
X003337Y037900D01*
X003395Y037842D01*
X003395Y037784D01*
X003337Y037725D01*
X003220Y037725D02*
X003162Y037667D01*
X003162Y037608D01*
X003220Y037550D01*
X003337Y037550D01*
X003395Y037608D01*
X003530Y037900D02*
X003763Y037900D01*
X003763Y037842D01*
X003027Y037550D02*
X002793Y037550D01*
X002910Y037550D02*
X002910Y037900D01*
X002793Y037784D01*
X002659Y037842D02*
X002659Y037725D01*
X002600Y037667D01*
X002425Y037667D01*
X002542Y037667D02*
X002659Y037550D01*
X002425Y037550D02*
X002425Y037900D01*
X002600Y037900D01*
X002659Y037842D01*
X002013Y037900D02*
X001897Y037842D01*
X001780Y037725D01*
X001955Y037725D01*
X002013Y037667D01*
X002013Y037608D01*
X001955Y037550D01*
X001838Y037550D01*
X001780Y037608D01*
X001780Y037725D01*
X001645Y037667D02*
X001645Y037608D01*
X001587Y037550D01*
X001470Y037550D01*
X001412Y037608D01*
X001412Y037667D01*
X001470Y037725D01*
X001587Y037725D01*
X001645Y037667D01*
X001587Y037725D02*
X001645Y037784D01*
X001645Y037842D01*
X001587Y037900D01*
X001470Y037900D01*
X001412Y037842D01*
X001412Y037784D01*
X001470Y037725D01*
X001277Y037550D02*
X001043Y037550D01*
X001160Y037550D02*
X001160Y037900D01*
X001043Y037784D01*
X000909Y037842D02*
X000909Y037725D01*
X000850Y037667D01*
X000675Y037667D01*
X000792Y037667D02*
X000909Y037550D01*
X000675Y037550D02*
X000675Y037900D01*
X000850Y037900D01*
X000909Y037842D01*
X000909Y039550D02*
X000792Y039667D01*
X000850Y039667D02*
X000675Y039667D01*
X000675Y039550D02*
X000675Y039900D01*
X000850Y039900D01*
X000909Y039842D01*
X000909Y039725D01*
X000850Y039667D01*
X001043Y039784D02*
X001160Y039900D01*
X001160Y039550D01*
X001043Y039550D02*
X001277Y039550D01*
X001412Y039608D02*
X001470Y039550D01*
X001587Y039550D01*
X001645Y039608D01*
X001645Y039667D01*
X001587Y039725D01*
X001412Y039725D01*
X001412Y039608D01*
X001412Y039725D02*
X001528Y039842D01*
X001645Y039900D01*
X001780Y039725D02*
X001955Y039725D01*
X002013Y039667D01*
X002013Y039608D01*
X001955Y039550D01*
X001838Y039550D01*
X001780Y039608D01*
X001780Y039725D01*
X001897Y039842D01*
X002013Y039900D01*
X002425Y039900D02*
X002600Y039900D01*
X002659Y039842D01*
X002659Y039725D01*
X002600Y039667D01*
X002425Y039667D01*
X002542Y039667D02*
X002659Y039550D01*
X002793Y039550D02*
X003027Y039550D01*
X002910Y039550D02*
X002910Y039900D01*
X002793Y039784D01*
X003162Y039784D02*
X003162Y039842D01*
X003220Y039900D01*
X003337Y039900D01*
X003395Y039842D01*
X003395Y039784D01*
X003337Y039725D01*
X003220Y039725D01*
X003162Y039784D01*
X003220Y039725D02*
X003162Y039667D01*
X003162Y039608D01*
X003220Y039550D01*
X003337Y039550D01*
X003395Y039608D01*
X003395Y039667D01*
X003337Y039725D01*
X003530Y039784D02*
X003647Y039900D01*
X003647Y039550D01*
X003763Y039550D02*
X003530Y039550D01*
X002425Y039550D02*
X002425Y039900D01*
X004469Y041693D02*
X006831Y041693D01*
X001718Y011275D02*
X001543Y011100D01*
X001777Y011100D01*
X001718Y010925D02*
X001718Y011275D01*
X001409Y011217D02*
X001409Y011100D01*
X001350Y011042D01*
X001175Y011042D01*
X001175Y010925D02*
X001175Y011275D01*
X001350Y011275D01*
X001409Y011217D01*
D11*
X008150Y007150D02*
X008400Y007400D01*
X008900Y007400D01*
X009150Y007150D01*
X009400Y007400D01*
X009900Y007400D01*
X010150Y007150D01*
X010150Y006650D01*
X009900Y006400D01*
X009400Y006400D01*
X009150Y006650D01*
X008900Y006400D01*
X008400Y006400D01*
X008150Y006650D01*
X008150Y007150D01*
X009150Y007150D02*
X009150Y006650D01*
X010150Y006650D02*
X010400Y006400D01*
X010900Y006400D01*
X011150Y006650D01*
X011400Y006400D01*
X011900Y006400D01*
X012150Y006650D01*
X012400Y006400D01*
X012900Y006400D01*
X013150Y006650D01*
X013150Y007150D01*
X012900Y007400D01*
X012400Y007400D01*
X012150Y007150D01*
X012150Y006650D01*
X012150Y007150D02*
X011900Y007400D01*
X011400Y007400D01*
X011150Y007150D01*
X011150Y006650D01*
X011150Y007150D02*
X010900Y007400D01*
X010400Y007400D01*
X010150Y007150D01*
X013150Y007150D02*
X013400Y007400D01*
X013900Y007400D01*
X014150Y007150D01*
X014400Y007400D01*
X014900Y007400D01*
X015150Y007150D01*
X015400Y007400D01*
X015900Y007400D01*
X016150Y007150D01*
X016150Y006650D01*
X015900Y006400D01*
X015400Y006400D01*
X015150Y006650D01*
X014900Y006400D01*
X014400Y006400D01*
X014150Y006650D01*
X013900Y006400D01*
X013400Y006400D01*
X013150Y006650D01*
X014150Y006650D02*
X014150Y007150D01*
X015150Y007150D02*
X015150Y006650D01*
X016150Y006650D02*
X016400Y006400D01*
X016900Y006400D01*
X017150Y006650D01*
X017400Y006400D01*
X017900Y006400D01*
X018150Y006650D01*
X018400Y006400D01*
X018900Y006400D01*
X019150Y006650D01*
X019150Y007150D01*
X018900Y007400D01*
X018400Y007400D01*
X018150Y007150D01*
X018150Y006650D01*
X018150Y007150D02*
X017900Y007400D01*
X017400Y007400D01*
X017150Y007150D01*
X017150Y006650D01*
X017150Y007150D02*
X016900Y007400D01*
X016400Y007400D01*
X016150Y007150D01*
X019150Y007150D02*
X019400Y007400D01*
X019900Y007400D01*
X020150Y007150D01*
X020400Y007400D01*
X020900Y007400D01*
X021150Y007150D01*
X021400Y007400D01*
X021900Y007400D01*
X022150Y007150D01*
X022150Y006650D01*
X021900Y006400D01*
X021400Y006400D01*
X021150Y006650D01*
X020900Y006400D01*
X020400Y006400D01*
X020150Y006650D01*
X019900Y006400D01*
X019400Y006400D01*
X019150Y006650D01*
X020150Y006650D02*
X020150Y007150D01*
X021150Y007150D02*
X021150Y006650D01*
X022150Y006650D02*
X022400Y006400D01*
X022900Y006400D01*
X023150Y006650D01*
X023400Y006400D01*
X023900Y006400D01*
X024150Y006650D01*
X024400Y006400D01*
X024900Y006400D01*
X025150Y006650D01*
X025150Y007150D01*
X024900Y007400D01*
X024400Y007400D01*
X024150Y007150D01*
X024150Y006650D01*
X024150Y007150D02*
X023900Y007400D01*
X023400Y007400D01*
X023150Y007150D01*
X023150Y006650D01*
X023150Y007150D02*
X022900Y007400D01*
X022400Y007400D01*
X022150Y007150D01*
X025150Y007150D02*
X025400Y007400D01*
X025900Y007400D01*
X026150Y007150D01*
X026400Y007400D01*
X026900Y007400D01*
X027150Y007150D01*
X027400Y007400D01*
X027900Y007400D01*
X028150Y007150D01*
X028150Y006650D01*
X027900Y006400D01*
X027400Y006400D01*
X027150Y006650D01*
X026900Y006400D01*
X026400Y006400D01*
X026150Y006650D01*
X025900Y006400D01*
X025400Y006400D01*
X025150Y006650D01*
X026150Y006650D02*
X026150Y007150D01*
X027150Y007150D02*
X027150Y006650D01*
X051368Y002566D02*
X051441Y002639D01*
X051661Y002639D01*
X051661Y002713D02*
X051661Y002493D01*
X051441Y002493D01*
X051368Y002566D01*
X051441Y002786D02*
X051588Y002786D01*
X051661Y002713D01*
X051828Y002933D02*
X051901Y002933D01*
X051901Y002493D01*
X051828Y002493D02*
X051975Y002493D01*
X052135Y002566D02*
X052135Y002713D01*
X052208Y002786D01*
X052355Y002786D01*
X052428Y002713D01*
X052428Y002639D01*
X052135Y002639D01*
X052135Y002566D02*
X052208Y002493D01*
X052355Y002493D01*
X052595Y002493D02*
X052815Y002493D01*
X052889Y002566D01*
X052889Y002713D01*
X052815Y002786D01*
X052595Y002786D01*
X052595Y002346D01*
X053056Y002493D02*
X053056Y002933D01*
X053129Y002786D02*
X053276Y002786D01*
X053349Y002713D01*
X053349Y002493D01*
X053516Y002493D02*
X053810Y002933D01*
X053976Y002786D02*
X054050Y002786D01*
X054050Y002493D01*
X054123Y002493D02*
X053976Y002493D01*
X054283Y002493D02*
X054283Y002786D01*
X054504Y002786D01*
X054577Y002713D01*
X054577Y002493D01*
X054817Y002566D02*
X054817Y002859D01*
X054744Y002786D02*
X054891Y002786D01*
X054817Y002566D02*
X054891Y002493D01*
X054050Y002933D02*
X054050Y003006D01*
X053129Y002786D02*
X053056Y002713D01*
D12*
X050963Y002713D02*
X050713Y002963D01*
X050463Y002963D02*
X050963Y002463D01*
X050838Y002338D02*
X050588Y002588D01*
X050213Y002213D02*
X049963Y002463D01*
X049838Y002338D02*
X050338Y001838D01*
X050088Y001838D02*
X049838Y002088D01*
X049838Y002838D02*
X050838Y001838D01*
X050963Y001963D02*
X049963Y002963D01*
X047225Y003400D02*
X047225Y003900D01*
X046075Y003900D01*
X046075Y003400D01*
X047225Y003400D01*
X042725Y006150D02*
X042725Y006650D01*
X041575Y006650D01*
X041575Y006150D01*
X042725Y006150D01*
X042900Y007325D02*
X042400Y007325D01*
X042400Y008475D01*
X042900Y008475D01*
X042900Y007325D01*
X042150Y007325D02*
X041650Y007325D01*
X041650Y008475D01*
X042150Y008475D01*
X042150Y007325D01*
X039900Y005600D02*
X038400Y005600D01*
X038400Y009200D01*
X039900Y009200D01*
X039900Y005600D01*
X039650Y005600D02*
X038650Y005600D01*
X038650Y009200D01*
X039650Y009200D01*
X039650Y005600D01*
X039725Y005400D02*
X039725Y004900D01*
X038575Y004900D01*
X038575Y005400D01*
X039725Y005400D01*
X034650Y004975D02*
X034650Y003825D01*
X034150Y003825D01*
X034150Y004975D01*
X034650Y004975D01*
X033900Y004975D02*
X033900Y003825D01*
X033400Y003825D01*
X033400Y004975D01*
X033900Y004975D01*
X033150Y004975D02*
X033150Y003825D01*
X032650Y003825D01*
X032650Y004975D01*
X033150Y004975D01*
X026650Y004975D02*
X026650Y003825D01*
X026150Y003825D01*
X026150Y004975D01*
X026650Y004975D01*
X025900Y004975D02*
X025900Y003825D01*
X025400Y003825D01*
X025400Y004975D01*
X025900Y004975D01*
X025150Y004975D02*
X025150Y003825D01*
X024650Y003825D01*
X024650Y004975D01*
X025150Y004975D01*
X018650Y004975D02*
X018650Y003825D01*
X018150Y003825D01*
X018150Y004975D01*
X018650Y004975D01*
X017900Y004975D02*
X017400Y004975D01*
X017400Y003825D01*
X017900Y003825D01*
X017900Y004975D01*
X017150Y004975D02*
X017150Y003825D01*
X016650Y003825D01*
X016650Y004975D01*
X017150Y004975D01*
X010650Y004975D02*
X010650Y003825D01*
X010150Y003825D01*
X010150Y004975D01*
X010650Y004975D01*
X009900Y004975D02*
X009400Y004975D01*
X009400Y003825D01*
X009900Y003825D01*
X009900Y004975D01*
X009150Y004975D02*
X009150Y003825D01*
X008650Y003825D01*
X008650Y004975D01*
X009150Y004975D01*
X009400Y010100D02*
X008400Y010100D01*
X008400Y012200D01*
X009400Y012200D01*
X009400Y010100D01*
X009650Y010100D02*
X009650Y012200D01*
X008150Y012200D01*
X008150Y010100D01*
X009650Y010100D01*
X010650Y010575D02*
X010650Y011725D01*
X011150Y011725D01*
X011150Y010575D01*
X010650Y010575D01*
X011400Y010575D02*
X011900Y010575D01*
X011900Y011725D01*
X011400Y011725D01*
X011400Y010575D01*
X012900Y011325D02*
X012900Y012475D01*
X013400Y012475D01*
X013400Y011325D01*
X012900Y011325D01*
X013650Y011725D02*
X013650Y010575D01*
X014150Y010575D01*
X014150Y011725D01*
X013650Y011725D01*
X013650Y012075D02*
X013650Y013225D01*
X014150Y013225D01*
X014150Y012075D01*
X013650Y012075D01*
X012300Y013150D02*
X012300Y014150D01*
X011300Y014150D01*
X011300Y013150D01*
X010975Y012900D02*
X010975Y012400D01*
X009825Y012400D01*
X009825Y012900D01*
X010975Y012900D01*
X010770Y013335D02*
X010770Y013965D01*
X012030Y013965D01*
X012030Y013335D01*
X010770Y013335D01*
X010357Y013150D02*
X010350Y013150D01*
X010350Y014150D01*
X011300Y014150D01*
X009950Y014150D02*
X009950Y013150D01*
X009000Y013150D01*
X009000Y014150D01*
X009530Y013965D02*
X008270Y013965D01*
X008270Y013335D01*
X009530Y013335D01*
X009530Y013965D01*
X009943Y014150D02*
X009950Y014150D01*
X009943Y014150D02*
X008000Y014150D01*
X008000Y013150D01*
X009000Y013150D01*
X009475Y012900D02*
X009475Y012400D01*
X008325Y012400D01*
X008325Y012900D01*
X009475Y012900D01*
X010357Y013150D02*
X012300Y013150D01*
X015152Y012845D02*
X015152Y010955D01*
X016451Y010955D01*
X016451Y012845D01*
X016648Y012845D01*
X016648Y010955D01*
X016451Y010955D01*
X016475Y010650D02*
X016475Y010150D01*
X015325Y010150D01*
X015325Y010650D01*
X016475Y010650D01*
X017650Y010575D02*
X017650Y011725D01*
X018150Y011725D01*
X018150Y010575D01*
X017650Y010575D01*
X018400Y011325D02*
X018400Y012475D01*
X018900Y012475D01*
X018900Y011325D01*
X018400Y011325D01*
X018150Y012075D02*
X017650Y012075D01*
X017650Y013225D01*
X018150Y013225D01*
X018150Y012075D01*
X016451Y012845D02*
X015152Y012845D01*
X015225Y016150D02*
X014075Y016150D01*
X014075Y016650D01*
X015225Y016650D01*
X015225Y016150D01*
X015500Y016150D02*
X015500Y017150D01*
X017443Y017150D01*
X017450Y017150D01*
X017450Y016150D01*
X016500Y016150D01*
X016500Y017150D01*
X016951Y017455D02*
X016951Y019345D01*
X017148Y019345D01*
X017148Y017455D01*
X016951Y017455D01*
X015652Y017455D01*
X015652Y019345D01*
X016951Y019345D01*
X016975Y019650D02*
X015825Y019650D01*
X015825Y020150D01*
X016975Y020150D01*
X016975Y019650D01*
X018150Y019800D02*
X018150Y018800D01*
X019150Y018800D01*
X018965Y018270D02*
X018335Y018270D01*
X018335Y019530D01*
X018965Y019530D01*
X018965Y018270D01*
X019150Y017857D02*
X019150Y017850D01*
X018150Y017850D01*
X018150Y018800D01*
X018150Y019800D02*
X019150Y019800D01*
X019150Y017857D01*
X019225Y017650D02*
X019225Y017150D01*
X018075Y017150D01*
X018075Y017650D01*
X019225Y017650D01*
X019225Y016900D02*
X019225Y016400D01*
X018075Y016400D01*
X018075Y016900D01*
X019225Y016900D01*
X020900Y016325D02*
X021400Y016325D01*
X021400Y017475D01*
X020900Y017475D01*
X020900Y016325D01*
X020900Y016050D02*
X021900Y016050D01*
X021900Y014107D01*
X021900Y014100D01*
X020900Y014100D01*
X020900Y015050D01*
X021900Y015050D01*
X022205Y014599D02*
X024095Y014599D01*
X024095Y014402D01*
X022205Y014402D01*
X022205Y014599D01*
X022205Y015898D01*
X024095Y015898D01*
X024095Y014599D01*
X024400Y014575D02*
X024400Y015725D01*
X024900Y015725D01*
X024900Y014575D01*
X024400Y014575D01*
X024550Y013400D02*
X023550Y013400D01*
X023550Y012400D01*
X023020Y012585D02*
X023020Y013215D01*
X024280Y013215D01*
X024280Y012585D01*
X023020Y012585D01*
X022607Y012400D02*
X022600Y012400D01*
X022600Y013400D01*
X023550Y013400D01*
X024550Y013400D02*
X024550Y012400D01*
X022607Y012400D01*
X022400Y012325D02*
X021900Y012325D01*
X021900Y013475D01*
X022400Y013475D01*
X022400Y012325D01*
X021650Y012325D02*
X021150Y012325D01*
X021150Y013475D01*
X021650Y013475D01*
X021650Y012325D01*
X021715Y014520D02*
X021085Y014520D01*
X021085Y015780D01*
X021715Y015780D01*
X021715Y014520D01*
X020900Y015050D02*
X020900Y016050D01*
X021650Y016325D02*
X022150Y016325D01*
X022150Y017475D01*
X021650Y017475D01*
X021650Y016325D01*
X024400Y016075D02*
X024900Y016075D01*
X024900Y017225D01*
X024400Y017225D01*
X024400Y016075D01*
X024900Y013475D02*
X025400Y013475D01*
X025400Y012325D01*
X024900Y012325D01*
X024900Y013475D01*
X031325Y017400D02*
X031325Y017900D01*
X032475Y017900D01*
X032475Y017400D01*
X031325Y017400D01*
X031000Y018150D02*
X031000Y019150D01*
X032943Y019150D01*
X032950Y019150D01*
X032950Y018150D01*
X032000Y018150D01*
X032000Y019150D01*
X032530Y018965D02*
X031270Y018965D01*
X031270Y018335D01*
X032530Y018335D01*
X032530Y018965D01*
X032000Y018150D02*
X031000Y018150D01*
X031587Y016516D02*
X031587Y016359D01*
X033713Y016359D01*
X033713Y014941D01*
X031587Y014941D01*
X031587Y016359D01*
X031587Y016516D02*
X033713Y016516D01*
X033713Y016359D01*
X034075Y016400D02*
X034075Y016900D01*
X035225Y016900D01*
X035225Y016400D01*
X034075Y016400D01*
X034075Y016150D02*
X034075Y015650D01*
X035225Y015650D01*
X035225Y016150D01*
X034075Y016150D01*
X034390Y015460D02*
X034390Y015201D01*
X034390Y015460D02*
X034710Y015460D01*
X034910Y015460D02*
X034390Y015460D01*
X034390Y014340D01*
X034390Y014599D01*
X034390Y014340D02*
X034710Y014340D01*
X034910Y014340D02*
X034390Y014340D01*
X034650Y013950D02*
X033650Y013950D01*
X033650Y013943D01*
X033650Y012000D01*
X034650Y012000D01*
X034650Y013000D01*
X033650Y013000D01*
X033400Y012825D02*
X032900Y012825D01*
X032900Y013975D01*
X033400Y013975D01*
X033400Y012825D01*
X033835Y012270D02*
X034465Y012270D01*
X034465Y013530D01*
X033835Y013530D01*
X033835Y012270D01*
X034650Y013000D02*
X034650Y013950D01*
X034910Y014340D02*
X034910Y015460D01*
X033713Y014941D02*
X033713Y014784D01*
X031587Y014784D01*
X031587Y014941D01*
X025400Y018825D02*
X024900Y018825D01*
X024900Y019975D01*
X025400Y019975D01*
X025400Y018825D01*
X024550Y018900D02*
X024550Y019900D01*
X023550Y019900D01*
X023550Y018900D01*
X023020Y019085D02*
X023020Y019715D01*
X024280Y019715D01*
X024280Y019085D01*
X023020Y019085D01*
X022607Y018900D02*
X022600Y018900D01*
X022600Y019900D01*
X023550Y019900D01*
X022400Y019975D02*
X022400Y018825D01*
X021900Y018825D01*
X021900Y019975D01*
X022400Y019975D01*
X021650Y019975D02*
X021650Y018825D01*
X021150Y018825D01*
X021150Y019975D01*
X021650Y019975D01*
X021900Y020600D02*
X020900Y020600D01*
X020900Y021550D01*
X021900Y021550D01*
X022205Y021099D02*
X024095Y021099D01*
X024095Y020902D01*
X022205Y020902D01*
X022205Y021099D01*
X022205Y022398D01*
X024095Y022398D01*
X024095Y021099D01*
X024400Y021075D02*
X024400Y022225D01*
X024900Y022225D01*
X024900Y021075D01*
X024400Y021075D01*
X024400Y022575D02*
X024900Y022575D01*
X024900Y023725D01*
X024400Y023725D01*
X024400Y022575D01*
X022150Y022825D02*
X022150Y023975D01*
X021650Y023975D01*
X021650Y022825D01*
X022150Y022825D01*
X021900Y022550D02*
X020900Y022550D01*
X020900Y021550D01*
X021085Y021020D02*
X021085Y022280D01*
X021715Y022280D01*
X021715Y021020D01*
X021085Y021020D01*
X021900Y020607D02*
X021900Y020600D01*
X021900Y020607D02*
X021900Y022550D01*
X021400Y022825D02*
X020900Y022825D01*
X020900Y023975D01*
X021400Y023975D01*
X021400Y022825D01*
X019225Y020650D02*
X018075Y020650D01*
X018075Y020150D01*
X019225Y020150D01*
X019225Y020650D01*
X022607Y018900D02*
X024550Y018900D01*
X017030Y016965D02*
X017030Y016335D01*
X015770Y016335D01*
X015770Y016965D01*
X017030Y016965D01*
X016500Y016150D02*
X015500Y016150D01*
X015225Y016900D02*
X014075Y016900D01*
X014075Y017400D01*
X015225Y017400D01*
X015225Y016900D01*
X014650Y017825D02*
X014150Y017825D01*
X014150Y018975D01*
X014650Y018975D01*
X014650Y017825D01*
X013225Y017650D02*
X013225Y017150D01*
X012075Y017150D01*
X012075Y017650D01*
X013225Y017650D01*
X013150Y017850D02*
X012150Y017850D01*
X012150Y018800D01*
X013150Y018800D01*
X012965Y018270D02*
X012335Y018270D01*
X012335Y019530D01*
X012965Y019530D01*
X012965Y018270D01*
X013150Y017857D02*
X013150Y017850D01*
X013150Y017857D02*
X013150Y019800D01*
X012150Y019800D01*
X012150Y018800D01*
X011148Y019345D02*
X011148Y017455D01*
X010951Y017455D01*
X010951Y019345D01*
X011148Y019345D01*
X010951Y019345D02*
X009652Y019345D01*
X009652Y017455D01*
X010951Y017455D01*
X011030Y016965D02*
X011030Y016335D01*
X009770Y016335D01*
X009770Y016965D01*
X011030Y016965D01*
X011443Y017150D02*
X011450Y017150D01*
X011450Y016150D01*
X010500Y016150D01*
X010500Y017150D01*
X011443Y017150D02*
X009500Y017150D01*
X009500Y016150D01*
X010500Y016150D01*
X009225Y016150D02*
X009225Y016650D01*
X008075Y016650D01*
X008075Y016150D01*
X009225Y016150D01*
X009225Y016900D02*
X008075Y016900D01*
X008075Y017400D01*
X009225Y017400D01*
X009225Y016900D01*
X008650Y017825D02*
X008150Y017825D01*
X008150Y018975D01*
X008650Y018975D01*
X008650Y017825D01*
X008325Y019650D02*
X008325Y020150D01*
X009475Y020150D01*
X009475Y019650D01*
X008325Y019650D01*
X009825Y019650D02*
X009825Y020150D01*
X010975Y020150D01*
X010975Y019650D01*
X009825Y019650D01*
X012075Y020150D02*
X012075Y020650D01*
X013225Y020650D01*
X013225Y020150D01*
X012075Y020150D01*
X014325Y020150D02*
X014325Y019650D01*
X015475Y019650D01*
X015475Y020150D01*
X014325Y020150D01*
X013225Y016900D02*
X012075Y016900D01*
X012075Y016400D01*
X013225Y016400D01*
X013225Y016900D01*
X007800Y014150D02*
X007800Y013150D01*
X005857Y013150D01*
X005850Y013150D01*
X005850Y014150D01*
X006800Y014150D01*
X006800Y013150D01*
X006825Y012900D02*
X007975Y012900D01*
X007975Y012400D01*
X006825Y012400D01*
X006825Y012900D01*
X006270Y013335D02*
X006270Y013965D01*
X007530Y013965D01*
X007530Y013335D01*
X006270Y013335D01*
X006800Y014150D02*
X007800Y014150D01*
X007150Y012225D02*
X006650Y012225D01*
X006650Y011075D01*
X007150Y011075D01*
X007150Y012225D01*
X006400Y012225D02*
X005900Y012225D01*
X005900Y011075D01*
X006400Y011075D01*
X006400Y012225D01*
X005725Y019900D02*
X004575Y019900D01*
X004575Y020400D01*
X005725Y020400D01*
X005725Y019900D01*
X005701Y020705D02*
X004402Y020705D01*
X004402Y022595D01*
X005701Y022595D01*
X005701Y020705D01*
X005898Y020705D01*
X005898Y022595D01*
X005701Y022595D01*
X008650Y025750D02*
X009650Y025750D01*
X009650Y026750D01*
X008650Y026750D01*
X008835Y027280D02*
X008835Y026020D01*
X009465Y026020D01*
X009465Y027280D01*
X008835Y027280D01*
X008650Y027693D02*
X008650Y027700D01*
X009650Y027700D01*
X009650Y026750D01*
X009900Y026750D02*
X010900Y026750D01*
X010900Y025750D01*
X009900Y025750D01*
X009900Y027693D01*
X009900Y027700D01*
X010900Y027700D01*
X010900Y026750D01*
X010715Y027280D02*
X010715Y026020D01*
X010085Y026020D01*
X010085Y027280D01*
X010715Y027280D01*
X008650Y027693D02*
X008650Y025750D01*
X002400Y026575D02*
X001900Y026575D01*
X001900Y027725D01*
X002400Y027725D01*
X002400Y026575D01*
X001650Y026575D02*
X001150Y026575D01*
X001150Y027725D01*
X001650Y027725D01*
X001650Y026575D01*
X016900Y026750D02*
X017900Y026750D01*
X017900Y025750D01*
X016900Y025750D01*
X016900Y027693D01*
X016900Y027700D01*
X017900Y027700D01*
X017900Y026750D01*
X017715Y027280D02*
X017715Y026020D01*
X017085Y026020D01*
X017085Y027280D01*
X017715Y027280D01*
X024900Y027693D02*
X024900Y025750D01*
X025900Y025750D01*
X025900Y026750D01*
X024900Y026750D01*
X025085Y027280D02*
X025085Y026020D01*
X025715Y026020D01*
X025715Y027280D01*
X025085Y027280D01*
X024900Y027693D02*
X024900Y027700D01*
X025900Y027700D01*
X025900Y026750D01*
X036900Y026325D02*
X036900Y027475D01*
X037400Y027475D01*
X037400Y026325D01*
X036900Y026325D01*
X037624Y026556D02*
X038176Y026556D01*
X038176Y027244D01*
X037624Y027244D01*
X037624Y026556D01*
X037900Y026782D02*
X038057Y027018D01*
X037743Y027018D01*
X037900Y026782D01*
X037900Y026861D02*
X037979Y026979D01*
X037821Y026979D01*
X037900Y026861D01*
X037861Y026919D02*
X037939Y026919D01*
X038400Y027475D02*
X038400Y026325D01*
X038900Y026325D01*
X038900Y027475D01*
X038400Y027475D01*
X039150Y027475D02*
X039650Y027475D01*
X039650Y026325D01*
X039150Y026325D01*
X039150Y027475D01*
X039900Y027475D02*
X040400Y027475D01*
X040400Y026325D01*
X039900Y026325D01*
X039900Y027475D01*
X039660Y025960D02*
X039340Y025960D01*
X039140Y025960D02*
X039660Y025960D01*
X039660Y025701D01*
X039660Y025960D02*
X039660Y024840D01*
X039660Y025099D01*
X039660Y024840D02*
X039340Y024840D01*
X039140Y024840D02*
X039140Y025960D01*
X039140Y024840D02*
X039660Y024840D01*
X041900Y026325D02*
X041900Y027475D01*
X042400Y027475D01*
X042400Y026325D01*
X041900Y026325D01*
X042624Y026556D02*
X043176Y026556D01*
X043176Y027244D01*
X042624Y027244D01*
X042624Y026556D01*
X042900Y026782D02*
X043057Y027018D01*
X042743Y027018D01*
X042900Y026782D01*
X042900Y026861D02*
X042979Y026979D01*
X042821Y026979D01*
X042900Y026861D01*
X042861Y026919D02*
X042939Y026919D01*
X043400Y027475D02*
X043400Y026325D01*
X043900Y026325D01*
X043900Y027475D01*
X043400Y027475D01*
X044150Y027475D02*
X044650Y027475D01*
X044650Y026325D01*
X044150Y026325D01*
X044150Y027475D01*
X044900Y027475D02*
X045400Y027475D01*
X045400Y026325D01*
X044900Y026325D01*
X044900Y027475D01*
X044660Y025960D02*
X044340Y025960D01*
X044140Y025960D02*
X044660Y025960D01*
X044660Y025701D01*
X044660Y025960D02*
X044660Y024840D01*
X044660Y025099D01*
X044660Y024840D02*
X044340Y024840D01*
X044140Y024840D02*
X044140Y025960D01*
X044140Y024840D02*
X044660Y024840D01*
X046900Y026325D02*
X046900Y027475D01*
X047400Y027475D01*
X047400Y026325D01*
X046900Y026325D01*
X047624Y026556D02*
X048176Y026556D01*
X048176Y027244D01*
X047624Y027244D01*
X047624Y026556D01*
X047900Y026782D02*
X047743Y027018D01*
X048057Y027018D01*
X047900Y026782D01*
X047900Y026861D02*
X047979Y026979D01*
X047821Y026979D01*
X047900Y026861D01*
X047861Y026919D02*
X047939Y026919D01*
X048400Y027475D02*
X048400Y026325D01*
X048900Y026325D01*
X048900Y027475D01*
X048400Y027475D01*
X049150Y027475D02*
X049650Y027475D01*
X049650Y026325D01*
X049150Y026325D01*
X049150Y027475D01*
X049900Y027475D02*
X049900Y026325D01*
X050400Y026325D01*
X050400Y027475D01*
X049900Y027475D01*
X051900Y027475D02*
X051900Y026325D01*
X052400Y026325D01*
X052400Y027475D01*
X051900Y027475D01*
X052624Y027244D02*
X052624Y026556D01*
X053176Y026556D01*
X053176Y027244D01*
X052624Y027244D01*
X052743Y027018D02*
X053057Y027018D01*
X052900Y026782D01*
X052743Y027018D01*
X052821Y026979D02*
X052979Y026979D01*
X052900Y026861D01*
X052821Y026979D01*
X052861Y026919D02*
X052939Y026919D01*
X053400Y027475D02*
X053400Y026325D01*
X053900Y026325D01*
X053900Y027475D01*
X053400Y027475D01*
X054150Y027475D02*
X054650Y027475D01*
X054650Y026325D01*
X054150Y026325D01*
X054150Y027475D01*
X054900Y027475D02*
X055400Y027475D01*
X055400Y026325D01*
X054900Y026325D01*
X054900Y027475D01*
X054660Y025960D02*
X054340Y025960D01*
X054140Y025960D02*
X054660Y025960D01*
X054660Y025701D01*
X054660Y025960D02*
X054660Y024840D01*
X054660Y025099D01*
X054660Y024840D02*
X054340Y024840D01*
X054140Y024840D02*
X054140Y025960D01*
X054140Y024840D02*
X054660Y024840D01*
X049660Y024840D02*
X049660Y025099D01*
X049660Y024840D02*
X049140Y024840D01*
X049140Y025960D01*
X049660Y025960D01*
X049660Y025701D01*
X049660Y025960D02*
X049340Y025960D01*
X049660Y025960D02*
X049660Y024840D01*
X049340Y024840D01*
X053075Y015900D02*
X054225Y015900D01*
X054225Y015400D01*
X053075Y015400D01*
X053075Y015900D01*
X040225Y015650D02*
X040225Y015150D01*
X039075Y015150D01*
X039075Y015650D01*
X040225Y015650D01*
X060075Y003650D02*
X060075Y003150D01*
X061225Y003150D01*
X061225Y003650D01*
X060075Y003650D01*
X065250Y004150D02*
X065250Y005150D01*
X067193Y005150D01*
X067200Y005150D01*
X067200Y004150D01*
X066250Y004150D01*
X066250Y005150D01*
X066725Y005400D02*
X065575Y005400D01*
X065575Y005900D01*
X066725Y005900D01*
X066725Y005400D01*
X066780Y004965D02*
X066780Y004335D01*
X065520Y004335D01*
X065520Y004965D01*
X066780Y004965D01*
X066250Y004150D02*
X065250Y004150D01*
X065250Y006400D02*
X065250Y007400D01*
X067193Y007400D01*
X067200Y007400D01*
X067200Y006400D01*
X066250Y006400D01*
X066250Y007400D01*
X066725Y007650D02*
X065575Y007650D01*
X065575Y008150D01*
X066725Y008150D01*
X066725Y007650D01*
X066780Y007215D02*
X066780Y006585D01*
X065520Y006585D01*
X065520Y007215D01*
X066780Y007215D01*
X066250Y006400D02*
X065250Y006400D01*
X064725Y026900D02*
X063575Y026900D01*
X063575Y027400D01*
X064725Y027400D01*
X064725Y026900D01*
X065200Y031250D02*
X065200Y033050D01*
X066100Y033050D01*
X066100Y031250D01*
X065200Y031250D01*
X060725Y036900D02*
X059575Y036900D01*
X059575Y037400D01*
X060725Y037400D01*
X060725Y036900D01*
X060725Y037650D02*
X059575Y037650D01*
X059575Y038150D01*
X060725Y038150D01*
X060725Y037650D01*
X060475Y038400D02*
X059325Y038400D01*
X059325Y038900D01*
X060475Y038900D01*
X060475Y038400D01*
X060725Y039150D02*
X059575Y039150D01*
X059575Y039650D01*
X060725Y039650D01*
X060725Y039150D01*
X060725Y039900D02*
X059575Y039900D01*
X059575Y040400D01*
X060725Y040400D01*
X060725Y039900D01*
X061554Y039614D02*
X061554Y037686D01*
X063246Y037686D01*
X063246Y039614D01*
X061554Y039614D01*
X062164Y039614D02*
X062166Y039584D01*
X062171Y039555D01*
X062181Y039527D01*
X062193Y039500D01*
X062209Y039475D01*
X062228Y039452D01*
X062250Y039432D01*
X062274Y039415D01*
X062300Y039400D01*
X062327Y039390D01*
X062356Y039382D01*
X062385Y039378D01*
X062415Y039378D01*
X062444Y039382D01*
X062473Y039390D01*
X062500Y039400D01*
X062526Y039415D01*
X062550Y039432D01*
X062572Y039452D01*
X062591Y039475D01*
X062607Y039500D01*
X062619Y039527D01*
X062629Y039555D01*
X062634Y039584D01*
X062636Y039614D01*
X064075Y039525D02*
X064075Y040025D01*
X065225Y040025D01*
X065225Y039525D01*
X064075Y039525D01*
X064075Y039275D02*
X065225Y039275D01*
X065225Y038775D01*
X064075Y038775D01*
X064075Y039275D01*
X064075Y038525D02*
X065225Y038525D01*
X065225Y038025D01*
X064075Y038025D01*
X064075Y038525D01*
X064075Y037775D02*
X064075Y037275D01*
X065225Y037275D01*
X065225Y037775D01*
X064075Y037775D01*
X003725Y037400D02*
X003725Y036900D01*
X002575Y036900D01*
X002575Y037400D01*
X003725Y037400D01*
X002225Y037400D02*
X002225Y036900D01*
X001075Y036900D01*
X001075Y037400D01*
X002225Y037400D01*
X002225Y038900D02*
X001075Y038900D01*
X001075Y039400D01*
X002225Y039400D01*
X002225Y038900D01*
X002575Y038900D02*
X002575Y039400D01*
X003725Y039400D01*
X003725Y038900D01*
X002575Y038900D01*
D13*
X002980Y039030D02*
X003320Y039030D01*
X003320Y039270D02*
X002980Y039270D01*
X001820Y039270D02*
X001480Y039270D01*
X001480Y039030D02*
X001820Y039030D01*
X001820Y037270D02*
X001480Y037270D01*
X001480Y037030D02*
X001820Y037030D01*
X002980Y037030D02*
X003320Y037030D01*
X003320Y037270D02*
X002980Y037270D01*
X002270Y027320D02*
X002270Y026980D01*
X002030Y026980D02*
X002030Y027320D01*
X001520Y027320D02*
X001520Y026980D01*
X001280Y026980D02*
X001280Y027320D01*
X005174Y027514D02*
X005174Y026953D01*
X005263Y026785D02*
X005268Y026807D01*
X005276Y026827D01*
X005287Y026845D01*
X005302Y026862D01*
X005318Y026876D01*
X005337Y026888D01*
X005357Y026896D01*
X005378Y026901D01*
X005400Y026903D01*
X005422Y026901D01*
X005443Y026896D01*
X005463Y026888D01*
X005482Y026876D01*
X005498Y026862D01*
X005513Y026845D01*
X005524Y026827D01*
X005532Y026807D01*
X005537Y026785D01*
X005626Y026943D02*
X005626Y027357D01*
X005537Y027515D02*
X005532Y027493D01*
X005524Y027473D01*
X005513Y027455D01*
X005498Y027438D01*
X005482Y027424D01*
X005463Y027412D01*
X005443Y027404D01*
X005422Y027399D01*
X005400Y027397D01*
X005378Y027399D01*
X005357Y027404D01*
X005337Y027412D01*
X005318Y027424D01*
X005302Y027438D01*
X005287Y027455D01*
X005276Y027473D01*
X005268Y027493D01*
X005263Y027515D01*
X005182Y027485D02*
X005184Y027497D01*
X005189Y027508D01*
X005197Y027517D01*
X005208Y027523D01*
X005220Y027526D01*
X005232Y027525D01*
X005244Y027521D01*
X005253Y027513D01*
X005260Y027503D01*
X005264Y027491D01*
X005264Y027479D01*
X005260Y027467D01*
X005253Y027457D01*
X005243Y027449D01*
X005232Y027445D01*
X005220Y027444D01*
X005208Y027447D01*
X005197Y027453D01*
X005189Y027462D01*
X005184Y027473D01*
X005182Y027485D01*
X006674Y027514D02*
X006674Y026953D01*
X006763Y026785D02*
X006768Y026807D01*
X006776Y026827D01*
X006787Y026845D01*
X006802Y026862D01*
X006818Y026876D01*
X006837Y026888D01*
X006857Y026896D01*
X006878Y026901D01*
X006900Y026903D01*
X006922Y026901D01*
X006943Y026896D01*
X006963Y026888D01*
X006982Y026876D01*
X006998Y026862D01*
X007013Y026845D01*
X007024Y026827D01*
X007032Y026807D01*
X007037Y026785D01*
X007126Y026943D02*
X007126Y027357D01*
X007037Y027515D02*
X007032Y027493D01*
X007024Y027473D01*
X007013Y027455D01*
X006998Y027438D01*
X006982Y027424D01*
X006963Y027412D01*
X006943Y027404D01*
X006922Y027399D01*
X006900Y027397D01*
X006878Y027399D01*
X006857Y027404D01*
X006837Y027412D01*
X006818Y027424D01*
X006802Y027438D01*
X006787Y027455D01*
X006776Y027473D01*
X006768Y027493D01*
X006763Y027515D01*
X006682Y027485D02*
X006684Y027497D01*
X006689Y027508D01*
X006697Y027517D01*
X006708Y027523D01*
X006720Y027526D01*
X006732Y027525D01*
X006744Y027521D01*
X006753Y027513D01*
X006760Y027503D01*
X006764Y027491D01*
X006764Y027479D01*
X006760Y027467D01*
X006753Y027457D01*
X006743Y027449D01*
X006732Y027445D01*
X006720Y027444D01*
X006708Y027447D01*
X006697Y027453D01*
X006689Y027462D01*
X006684Y027473D01*
X006682Y027485D01*
X013174Y027514D02*
X013174Y026953D01*
X013263Y026785D02*
X013268Y026807D01*
X013276Y026827D01*
X013287Y026845D01*
X013302Y026862D01*
X013318Y026876D01*
X013337Y026888D01*
X013357Y026896D01*
X013378Y026901D01*
X013400Y026903D01*
X013422Y026901D01*
X013443Y026896D01*
X013463Y026888D01*
X013482Y026876D01*
X013498Y026862D01*
X013513Y026845D01*
X013524Y026827D01*
X013532Y026807D01*
X013537Y026785D01*
X013626Y026943D02*
X013626Y027357D01*
X013537Y027515D02*
X013532Y027493D01*
X013524Y027473D01*
X013513Y027455D01*
X013498Y027438D01*
X013482Y027424D01*
X013463Y027412D01*
X013443Y027404D01*
X013422Y027399D01*
X013400Y027397D01*
X013378Y027399D01*
X013357Y027404D01*
X013337Y027412D01*
X013318Y027424D01*
X013302Y027438D01*
X013287Y027455D01*
X013276Y027473D01*
X013268Y027493D01*
X013263Y027515D01*
X013182Y027485D02*
X013184Y027497D01*
X013189Y027508D01*
X013197Y027517D01*
X013208Y027523D01*
X013220Y027526D01*
X013232Y027525D01*
X013244Y027521D01*
X013253Y027513D01*
X013260Y027503D01*
X013264Y027491D01*
X013264Y027479D01*
X013260Y027467D01*
X013253Y027457D01*
X013243Y027449D01*
X013232Y027445D01*
X013220Y027444D01*
X013208Y027447D01*
X013197Y027453D01*
X013189Y027462D01*
X013184Y027473D01*
X013182Y027485D01*
X014674Y027514D02*
X014674Y026953D01*
X014763Y026785D02*
X014768Y026807D01*
X014776Y026827D01*
X014787Y026845D01*
X014802Y026862D01*
X014818Y026876D01*
X014837Y026888D01*
X014857Y026896D01*
X014878Y026901D01*
X014900Y026903D01*
X014922Y026901D01*
X014943Y026896D01*
X014963Y026888D01*
X014982Y026876D01*
X014998Y026862D01*
X015013Y026845D01*
X015024Y026827D01*
X015032Y026807D01*
X015037Y026785D01*
X015126Y026943D02*
X015126Y027357D01*
X015037Y027515D02*
X015032Y027493D01*
X015024Y027473D01*
X015013Y027455D01*
X014998Y027438D01*
X014982Y027424D01*
X014963Y027412D01*
X014943Y027404D01*
X014922Y027399D01*
X014900Y027397D01*
X014878Y027399D01*
X014857Y027404D01*
X014837Y027412D01*
X014818Y027424D01*
X014802Y027438D01*
X014787Y027455D01*
X014776Y027473D01*
X014768Y027493D01*
X014763Y027515D01*
X014682Y027485D02*
X014684Y027497D01*
X014689Y027508D01*
X014697Y027517D01*
X014708Y027523D01*
X014720Y027526D01*
X014732Y027525D01*
X014744Y027521D01*
X014753Y027513D01*
X014760Y027503D01*
X014764Y027491D01*
X014764Y027479D01*
X014760Y027467D01*
X014753Y027457D01*
X014743Y027449D01*
X014732Y027445D01*
X014720Y027444D01*
X014708Y027447D01*
X014697Y027453D01*
X014689Y027462D01*
X014684Y027473D01*
X014682Y027485D01*
X021030Y023570D02*
X021030Y023230D01*
X021270Y023230D02*
X021270Y023570D01*
X021780Y023570D02*
X021780Y023230D01*
X022020Y023230D02*
X022020Y023570D01*
X024530Y023320D02*
X024530Y022980D01*
X024770Y022980D02*
X024770Y023320D01*
X024770Y021820D02*
X024770Y021480D01*
X024530Y021480D02*
X024530Y021820D01*
X025030Y019570D02*
X025030Y019230D01*
X025270Y019230D02*
X025270Y019570D01*
X022270Y019570D02*
X022270Y019230D01*
X022030Y019230D02*
X022030Y019570D01*
X021520Y019570D02*
X021520Y019230D01*
X021280Y019230D02*
X021280Y019570D01*
X018820Y020280D02*
X018480Y020280D01*
X018480Y020520D02*
X018820Y020520D01*
X016570Y020020D02*
X016230Y020020D01*
X016230Y019780D02*
X016570Y019780D01*
X015070Y019780D02*
X014730Y019780D01*
X014730Y020020D02*
X015070Y020020D01*
X014520Y018570D02*
X014520Y018230D01*
X014280Y018230D02*
X014280Y018570D01*
X014480Y017270D02*
X014820Y017270D01*
X014820Y017030D02*
X014480Y017030D01*
X014480Y016520D02*
X014820Y016520D01*
X014820Y016280D02*
X014480Y016280D01*
X012820Y016530D02*
X012480Y016530D01*
X012480Y016770D02*
X012820Y016770D01*
X012820Y017280D02*
X012480Y017280D01*
X012480Y017520D02*
X012820Y017520D01*
X010570Y019780D02*
X010230Y019780D01*
X010230Y020020D02*
X010570Y020020D01*
X009070Y020020D02*
X008730Y020020D01*
X008730Y019780D02*
X009070Y019780D01*
X008520Y018570D02*
X008520Y018230D01*
X008280Y018230D02*
X008280Y018570D01*
X008480Y017270D02*
X008820Y017270D01*
X008820Y017030D02*
X008480Y017030D01*
X008480Y016520D02*
X008820Y016520D01*
X008820Y016280D02*
X008480Y016280D01*
X008730Y012770D02*
X009070Y012770D01*
X009070Y012530D02*
X008730Y012530D01*
X007570Y012530D02*
X007230Y012530D01*
X007230Y012770D02*
X007570Y012770D01*
X007020Y011820D02*
X007020Y011480D01*
X006780Y011480D02*
X006780Y011820D01*
X006270Y011820D02*
X006270Y011480D01*
X006030Y011480D02*
X006030Y011820D01*
X010230Y012530D02*
X010570Y012530D01*
X010570Y012770D02*
X010230Y012770D01*
X010780Y011320D02*
X010780Y010980D01*
X011020Y010980D02*
X011020Y011320D01*
X011530Y011320D02*
X011530Y010980D01*
X011770Y010980D02*
X011770Y011320D01*
X013030Y011730D02*
X013030Y012070D01*
X013270Y012070D02*
X013270Y011730D01*
X013780Y011320D02*
X013780Y010980D01*
X014020Y010980D02*
X014020Y011320D01*
X014020Y012480D02*
X014020Y012820D01*
X013780Y012820D02*
X013780Y012480D01*
X015730Y010520D02*
X016070Y010520D01*
X016070Y010280D02*
X015730Y010280D01*
X017780Y010980D02*
X017780Y011320D01*
X018020Y011320D02*
X018020Y010980D01*
X018530Y011730D02*
X018530Y012070D01*
X018770Y012070D02*
X018770Y011730D01*
X018020Y012480D02*
X018020Y012820D01*
X017780Y012820D02*
X017780Y012480D01*
X021280Y012730D02*
X021280Y013070D01*
X021520Y013070D02*
X021520Y012730D01*
X022030Y012730D02*
X022030Y013070D01*
X022270Y013070D02*
X022270Y012730D01*
X025030Y012730D02*
X025030Y013070D01*
X025270Y013070D02*
X025270Y012730D01*
X024770Y014980D02*
X024770Y015320D01*
X024530Y015320D02*
X024530Y014980D01*
X024530Y016480D02*
X024530Y016820D01*
X024770Y016820D02*
X024770Y016480D01*
X022020Y016730D02*
X022020Y017070D01*
X021780Y017070D02*
X021780Y016730D01*
X021270Y016730D02*
X021270Y017070D01*
X021030Y017070D02*
X021030Y016730D01*
X018820Y016770D02*
X018480Y016770D01*
X018480Y016530D02*
X018820Y016530D01*
X018820Y017280D02*
X018480Y017280D01*
X018480Y017520D02*
X018820Y017520D01*
X012820Y020280D02*
X012480Y020280D01*
X012480Y020520D02*
X012820Y020520D01*
X005320Y020270D02*
X004980Y020270D01*
X004980Y020030D02*
X005320Y020030D01*
X021549Y026953D02*
X021549Y027514D01*
X021557Y027485D02*
X021559Y027497D01*
X021564Y027508D01*
X021572Y027517D01*
X021583Y027523D01*
X021595Y027526D01*
X021607Y027525D01*
X021619Y027521D01*
X021628Y027513D01*
X021635Y027503D01*
X021639Y027491D01*
X021639Y027479D01*
X021635Y027467D01*
X021628Y027457D01*
X021618Y027449D01*
X021607Y027445D01*
X021595Y027444D01*
X021583Y027447D01*
X021572Y027453D01*
X021564Y027462D01*
X021559Y027473D01*
X021557Y027485D01*
X021638Y027515D02*
X021643Y027493D01*
X021651Y027473D01*
X021662Y027455D01*
X021677Y027438D01*
X021693Y027424D01*
X021712Y027412D01*
X021732Y027404D01*
X021753Y027399D01*
X021775Y027397D01*
X021797Y027399D01*
X021818Y027404D01*
X021838Y027412D01*
X021857Y027424D01*
X021873Y027438D01*
X021888Y027455D01*
X021899Y027473D01*
X021907Y027493D01*
X021912Y027515D01*
X022001Y027357D02*
X022001Y026943D01*
X021912Y026785D02*
X021907Y026807D01*
X021899Y026827D01*
X021888Y026845D01*
X021873Y026862D01*
X021857Y026876D01*
X021838Y026888D01*
X021818Y026896D01*
X021797Y026901D01*
X021775Y026903D01*
X021753Y026901D01*
X021732Y026896D01*
X021712Y026888D01*
X021693Y026876D01*
X021677Y026862D01*
X021662Y026845D01*
X021651Y026827D01*
X021643Y026807D01*
X021638Y026785D01*
X022299Y026953D02*
X022299Y027514D01*
X022307Y027485D02*
X022309Y027497D01*
X022314Y027508D01*
X022322Y027517D01*
X022333Y027523D01*
X022345Y027526D01*
X022357Y027525D01*
X022369Y027521D01*
X022378Y027513D01*
X022385Y027503D01*
X022389Y027491D01*
X022389Y027479D01*
X022385Y027467D01*
X022378Y027457D01*
X022368Y027449D01*
X022357Y027445D01*
X022345Y027444D01*
X022333Y027447D01*
X022322Y027453D01*
X022314Y027462D01*
X022309Y027473D01*
X022307Y027485D01*
X022388Y027515D02*
X022393Y027493D01*
X022401Y027473D01*
X022412Y027455D01*
X022427Y027438D01*
X022443Y027424D01*
X022462Y027412D01*
X022482Y027404D01*
X022503Y027399D01*
X022525Y027397D01*
X022547Y027399D01*
X022568Y027404D01*
X022588Y027412D01*
X022607Y027424D01*
X022623Y027438D01*
X022638Y027455D01*
X022649Y027473D01*
X022657Y027493D01*
X022662Y027515D01*
X022751Y027357D02*
X022751Y026943D01*
X022662Y026785D02*
X022657Y026807D01*
X022649Y026827D01*
X022638Y026845D01*
X022623Y026862D01*
X022607Y026876D01*
X022588Y026888D01*
X022568Y026896D01*
X022547Y026901D01*
X022525Y026903D01*
X022503Y026901D01*
X022482Y026896D01*
X022462Y026888D01*
X022443Y026876D01*
X022427Y026862D01*
X022412Y026845D01*
X022401Y026827D01*
X022393Y026807D01*
X022388Y026785D01*
X029549Y026953D02*
X029549Y027514D01*
X029557Y027485D02*
X029559Y027497D01*
X029564Y027508D01*
X029572Y027517D01*
X029583Y027523D01*
X029595Y027526D01*
X029607Y027525D01*
X029619Y027521D01*
X029628Y027513D01*
X029635Y027503D01*
X029639Y027491D01*
X029639Y027479D01*
X029635Y027467D01*
X029628Y027457D01*
X029618Y027449D01*
X029607Y027445D01*
X029595Y027444D01*
X029583Y027447D01*
X029572Y027453D01*
X029564Y027462D01*
X029559Y027473D01*
X029557Y027485D01*
X029638Y027515D02*
X029643Y027493D01*
X029651Y027473D01*
X029662Y027455D01*
X029677Y027438D01*
X029693Y027424D01*
X029712Y027412D01*
X029732Y027404D01*
X029753Y027399D01*
X029775Y027397D01*
X029797Y027399D01*
X029818Y027404D01*
X029838Y027412D01*
X029857Y027424D01*
X029873Y027438D01*
X029888Y027455D01*
X029899Y027473D01*
X029907Y027493D01*
X029912Y027515D01*
X030001Y027357D02*
X030001Y026943D01*
X029912Y026785D02*
X029907Y026807D01*
X029899Y026827D01*
X029888Y026845D01*
X029873Y026862D01*
X029857Y026876D01*
X029838Y026888D01*
X029818Y026896D01*
X029797Y026901D01*
X029775Y026903D01*
X029753Y026901D01*
X029732Y026896D01*
X029712Y026888D01*
X029693Y026876D01*
X029677Y026862D01*
X029662Y026845D01*
X029651Y026827D01*
X029643Y026807D01*
X029638Y026785D01*
X030299Y026953D02*
X030299Y027514D01*
X030307Y027485D02*
X030309Y027497D01*
X030314Y027508D01*
X030322Y027517D01*
X030333Y027523D01*
X030345Y027526D01*
X030357Y027525D01*
X030369Y027521D01*
X030378Y027513D01*
X030385Y027503D01*
X030389Y027491D01*
X030389Y027479D01*
X030385Y027467D01*
X030378Y027457D01*
X030368Y027449D01*
X030357Y027445D01*
X030345Y027444D01*
X030333Y027447D01*
X030322Y027453D01*
X030314Y027462D01*
X030309Y027473D01*
X030307Y027485D01*
X030388Y027515D02*
X030393Y027493D01*
X030401Y027473D01*
X030412Y027455D01*
X030427Y027438D01*
X030443Y027424D01*
X030462Y027412D01*
X030482Y027404D01*
X030503Y027399D01*
X030525Y027397D01*
X030547Y027399D01*
X030568Y027404D01*
X030588Y027412D01*
X030607Y027424D01*
X030623Y027438D01*
X030638Y027455D01*
X030649Y027473D01*
X030657Y027493D01*
X030662Y027515D01*
X030751Y027357D02*
X030751Y026943D01*
X030662Y026785D02*
X030657Y026807D01*
X030649Y026827D01*
X030638Y026845D01*
X030623Y026862D01*
X030607Y026876D01*
X030588Y026888D01*
X030568Y026896D01*
X030547Y026901D01*
X030525Y026903D01*
X030503Y026901D01*
X030482Y026896D01*
X030462Y026888D01*
X030443Y026876D01*
X030427Y026862D01*
X030412Y026845D01*
X030401Y026827D01*
X030393Y026807D01*
X030388Y026785D01*
X037030Y026730D02*
X037030Y027070D01*
X037270Y027070D02*
X037270Y026730D01*
X038530Y026730D02*
X038530Y027070D01*
X038770Y027070D02*
X038770Y026730D01*
X039280Y026730D02*
X039280Y027070D01*
X039520Y027070D02*
X039520Y026730D01*
X040030Y026730D02*
X040030Y027070D01*
X040270Y027070D02*
X040270Y026730D01*
X042030Y026730D02*
X042030Y027070D01*
X042270Y027070D02*
X042270Y026730D01*
X043530Y026730D02*
X043530Y027070D01*
X043770Y027070D02*
X043770Y026730D01*
X044280Y026730D02*
X044280Y027070D01*
X044520Y027070D02*
X044520Y026730D01*
X045030Y026730D02*
X045030Y027070D01*
X045270Y027070D02*
X045270Y026730D01*
X047030Y026730D02*
X047030Y027070D01*
X047270Y027070D02*
X047270Y026730D01*
X048530Y026730D02*
X048530Y027070D01*
X048770Y027070D02*
X048770Y026730D01*
X049280Y026730D02*
X049280Y027070D01*
X049520Y027070D02*
X049520Y026730D01*
X050030Y026730D02*
X050030Y027070D01*
X050270Y027070D02*
X050270Y026730D01*
X052030Y026730D02*
X052030Y027070D01*
X052270Y027070D02*
X052270Y026730D01*
X053530Y026730D02*
X053530Y027070D01*
X053770Y027070D02*
X053770Y026730D01*
X054280Y026730D02*
X054280Y027070D01*
X054520Y027070D02*
X054520Y026730D01*
X055030Y026730D02*
X055030Y027070D01*
X055270Y027070D02*
X055270Y026730D01*
X061776Y026835D02*
X062524Y026835D01*
X062780Y026992D02*
X062756Y026996D01*
X062734Y027002D01*
X062712Y027013D01*
X062692Y027026D01*
X062675Y027042D01*
X062660Y027060D01*
X062648Y027081D01*
X062639Y027103D01*
X062634Y027126D01*
X062632Y027150D01*
X062634Y027174D01*
X062639Y027197D01*
X062648Y027219D01*
X062660Y027240D01*
X062675Y027258D01*
X062692Y027274D01*
X062712Y027287D01*
X062734Y027298D01*
X062756Y027304D01*
X062780Y027308D01*
X062672Y027367D02*
X062674Y027379D01*
X062679Y027390D01*
X062688Y027399D01*
X062699Y027404D01*
X062711Y027406D01*
X062723Y027404D01*
X062734Y027399D01*
X062743Y027390D01*
X062748Y027379D01*
X062750Y027367D01*
X062748Y027355D01*
X062743Y027344D01*
X062734Y027335D01*
X062723Y027330D01*
X062711Y027328D01*
X062699Y027330D01*
X062688Y027335D01*
X062679Y027344D01*
X062674Y027355D01*
X062672Y027367D01*
X062524Y027465D02*
X061776Y027465D01*
X063980Y027270D02*
X064320Y027270D01*
X064320Y027030D02*
X063980Y027030D01*
X065330Y031775D02*
X065330Y032530D01*
X065970Y032530D02*
X065970Y031775D01*
X060320Y037030D02*
X059980Y037030D01*
X059980Y037270D02*
X060320Y037270D01*
X060320Y037780D02*
X059980Y037780D01*
X059980Y038020D02*
X060320Y038020D01*
X060070Y038530D02*
X059730Y038530D01*
X059730Y038770D02*
X060070Y038770D01*
X059980Y039280D02*
X060320Y039280D01*
X060320Y039520D02*
X059980Y039520D01*
X059980Y040030D02*
X060320Y040030D01*
X060320Y040270D02*
X059980Y040270D01*
X064480Y039895D02*
X064820Y039895D01*
X064820Y039655D02*
X064480Y039655D01*
X064480Y039145D02*
X064820Y039145D01*
X064820Y038905D02*
X064480Y038905D01*
X064480Y038395D02*
X064820Y038395D01*
X064820Y038155D02*
X064480Y038155D01*
X064480Y037645D02*
X064820Y037645D01*
X064820Y037405D02*
X064480Y037405D01*
X034820Y016770D02*
X034480Y016770D01*
X034480Y016530D02*
X034820Y016530D01*
X034820Y016020D02*
X034480Y016020D01*
X034480Y015780D02*
X034820Y015780D01*
X032070Y017530D02*
X031730Y017530D01*
X031730Y017770D02*
X032070Y017770D01*
X033030Y013570D02*
X033030Y013230D01*
X033270Y013230D02*
X033270Y013570D01*
X039480Y015280D02*
X039820Y015280D01*
X039820Y015520D02*
X039480Y015520D01*
X041780Y008070D02*
X041780Y007730D01*
X042020Y007730D02*
X042020Y008070D01*
X042530Y008070D02*
X042530Y007730D01*
X042770Y007730D02*
X042770Y008070D01*
X042320Y006520D02*
X041980Y006520D01*
X041980Y006280D02*
X042320Y006280D01*
X039320Y005270D02*
X038980Y005270D01*
X038980Y005030D02*
X039320Y005030D01*
X034520Y004570D02*
X034520Y004230D01*
X034280Y004230D02*
X034280Y004570D01*
X033770Y004570D02*
X033770Y004230D01*
X033530Y004230D02*
X033530Y004570D01*
X033020Y004570D02*
X033020Y004230D01*
X032780Y004230D02*
X032780Y004570D01*
X026520Y004570D02*
X026520Y004230D01*
X026280Y004230D02*
X026280Y004570D01*
X025770Y004570D02*
X025770Y004230D01*
X025530Y004230D02*
X025530Y004570D01*
X025020Y004570D02*
X025020Y004230D01*
X024780Y004230D02*
X024780Y004570D01*
X018520Y004570D02*
X018520Y004230D01*
X018280Y004230D02*
X018280Y004570D01*
X017770Y004570D02*
X017770Y004230D01*
X017530Y004230D02*
X017530Y004570D01*
X017020Y004570D02*
X017020Y004230D01*
X016780Y004230D02*
X016780Y004570D01*
X010520Y004570D02*
X010520Y004230D01*
X010280Y004230D02*
X010280Y004570D01*
X009770Y004570D02*
X009770Y004230D01*
X009530Y004230D02*
X009530Y004570D01*
X009020Y004570D02*
X009020Y004230D01*
X008780Y004230D02*
X008780Y004570D01*
X046480Y003770D02*
X046820Y003770D01*
X046820Y003530D02*
X046480Y003530D01*
X060480Y003520D02*
X060820Y003520D01*
X060820Y003280D02*
X060480Y003280D01*
X065980Y005530D02*
X066320Y005530D01*
X066320Y005770D02*
X065980Y005770D01*
X065980Y007780D02*
X066320Y007780D01*
X066320Y008020D02*
X065980Y008020D01*
X053820Y015530D02*
X053480Y015530D01*
X053480Y015770D02*
X053820Y015770D01*
D14*
X042650Y008150D03*
X042650Y007650D03*
X041900Y007650D03*
X041900Y008150D03*
X034400Y004650D03*
X034400Y004150D03*
X033650Y004150D03*
X033650Y004650D03*
X032900Y004650D03*
X032900Y004150D03*
X026400Y004150D03*
X026400Y004650D03*
X025650Y004650D03*
X025650Y004150D03*
X024900Y004150D03*
X024900Y004650D03*
X018400Y004650D03*
X018400Y004150D03*
X017650Y004150D03*
X017650Y004650D03*
X016900Y004650D03*
X016900Y004150D03*
X010400Y004150D03*
X010400Y004650D03*
X009650Y004650D03*
X009650Y004150D03*
X008900Y004150D03*
X008900Y004650D03*
X010900Y010900D03*
X010900Y011400D03*
X011650Y011400D03*
X011650Y010900D03*
X013150Y011650D03*
X013150Y012150D03*
X013900Y012400D03*
X013900Y012900D03*
X013900Y011400D03*
X013900Y010900D03*
X017900Y010900D03*
X017900Y011400D03*
X018650Y011650D03*
X018650Y012150D03*
X017900Y012400D03*
X017900Y012900D03*
X021400Y012650D03*
X021400Y013150D03*
X022150Y013150D03*
X022150Y012650D03*
X025150Y012650D03*
X025150Y013150D03*
X024650Y014900D03*
X024650Y015400D03*
X024650Y016400D03*
X024650Y016900D03*
X021900Y016650D03*
X021900Y017150D03*
X021150Y017150D03*
X021150Y016650D03*
X021400Y019150D03*
X021400Y019650D03*
X022150Y019650D03*
X022150Y019150D03*
X025150Y019150D03*
X025150Y019650D03*
X024650Y021400D03*
X024650Y021900D03*
X024650Y022900D03*
X024650Y023400D03*
X021900Y023150D03*
X021900Y023650D03*
X021150Y023650D03*
X021150Y023150D03*
X014400Y018650D03*
X014400Y018150D03*
X008400Y018150D03*
X008400Y018650D03*
X006900Y011900D03*
X006900Y011400D03*
X006150Y011400D03*
X006150Y011900D03*
X002150Y026900D03*
X002150Y027400D03*
X001400Y027400D03*
X001400Y026900D03*
X033150Y013650D03*
X033150Y013150D03*
X037150Y026650D03*
X037150Y027150D03*
X038650Y027150D03*
X038650Y026650D03*
X039400Y026650D03*
X039400Y027150D03*
X040150Y027150D03*
X040150Y026650D03*
X042150Y026650D03*
X042150Y027150D03*
X043650Y027150D03*
X043650Y026650D03*
X044400Y026650D03*
X044400Y027150D03*
X045150Y027150D03*
X045150Y026650D03*
X047150Y026650D03*
X047150Y027150D03*
X048650Y027150D03*
X048650Y026650D03*
X049400Y026650D03*
X049400Y027150D03*
X050150Y027150D03*
X050150Y026650D03*
X052150Y026650D03*
X052150Y027150D03*
X053650Y027150D03*
X053650Y026650D03*
X054400Y026650D03*
X054400Y027150D03*
X055150Y027150D03*
X055150Y026650D03*
D15*
X052910Y026369D03*
X052910Y027431D03*
X047910Y027431D03*
X047910Y026369D03*
X042910Y026369D03*
X042910Y027431D03*
X037910Y027431D03*
X037910Y026369D03*
D16*
X037900Y026743D03*
X042900Y026743D03*
X047900Y026743D03*
X052900Y026743D03*
D17*
X033609Y016419D02*
X033609Y014881D01*
X031691Y014881D01*
X031691Y016419D01*
X033609Y016419D01*
D18*
X031864Y015245D03*
D19*
X031754Y014586D03*
X032010Y014586D03*
X032266Y014586D03*
X032522Y014586D03*
X032778Y014586D03*
X033034Y014586D03*
X033290Y014586D03*
X033546Y014586D03*
X033546Y016714D03*
X033290Y016714D03*
X033034Y016714D03*
X032778Y016714D03*
X032522Y016714D03*
X032266Y016714D03*
X032010Y016714D03*
X031754Y016714D03*
D20*
X031650Y017650D03*
X032150Y017650D03*
X034400Y016650D03*
X034900Y016650D03*
X034900Y015900D03*
X034400Y015900D03*
X039400Y015400D03*
X039900Y015400D03*
X041900Y006400D03*
X042400Y006400D03*
X039400Y005150D03*
X038900Y005150D03*
X046400Y003650D03*
X046900Y003650D03*
X060400Y003400D03*
X060900Y003400D03*
X065900Y005650D03*
X066400Y005650D03*
X066400Y007900D03*
X065900Y007900D03*
X053900Y015650D03*
X053400Y015650D03*
X063900Y027150D03*
X064400Y027150D03*
X060400Y037150D03*
X059900Y037150D03*
X059900Y037900D03*
X060400Y037900D03*
X060150Y038650D03*
X059650Y038650D03*
X059900Y039400D03*
X060400Y039400D03*
X060400Y040150D03*
X059900Y040150D03*
X064400Y039775D03*
X064900Y039775D03*
X064900Y039025D03*
X064400Y039025D03*
X064400Y038275D03*
X064900Y038275D03*
X064900Y037525D03*
X064400Y037525D03*
X018900Y020400D03*
X018400Y020400D03*
X016650Y019900D03*
X016150Y019900D03*
X015150Y019900D03*
X014650Y019900D03*
X012900Y020400D03*
X012400Y020400D03*
X010650Y019900D03*
X010150Y019900D03*
X009150Y019900D03*
X008650Y019900D03*
X005400Y020150D03*
X004900Y020150D03*
X008400Y017150D03*
X008900Y017150D03*
X008900Y016400D03*
X008400Y016400D03*
X012400Y016650D03*
X012900Y016650D03*
X012900Y017400D03*
X012400Y017400D03*
X014400Y017150D03*
X014900Y017150D03*
X014900Y016400D03*
X014400Y016400D03*
X018400Y016650D03*
X018900Y016650D03*
X018900Y017400D03*
X018400Y017400D03*
X010650Y012650D03*
X010150Y012650D03*
X009150Y012650D03*
X008650Y012650D03*
X007650Y012650D03*
X007150Y012650D03*
X015650Y010400D03*
X016150Y010400D03*
X003400Y037150D03*
X002900Y037150D03*
X001900Y037150D03*
X001400Y037150D03*
X001400Y039150D03*
X001900Y039150D03*
X002900Y039150D03*
X003400Y039150D03*
D21*
X009150Y027201D03*
X009150Y026926D03*
X009150Y026099D03*
X010400Y026099D03*
X010400Y026926D03*
X010400Y027201D03*
X017400Y027201D03*
X017400Y026926D03*
X017400Y026099D03*
X021400Y022201D03*
X021400Y021374D03*
X021400Y021099D03*
X018650Y019451D03*
X018650Y018624D03*
X018650Y018349D03*
X021400Y015701D03*
X021400Y014874D03*
X021400Y014599D03*
X012650Y018349D03*
X012650Y018624D03*
X012650Y019451D03*
X025400Y026099D03*
X025400Y026926D03*
X025400Y027201D03*
X034150Y013451D03*
X034150Y013176D03*
X034150Y012349D03*
D22*
X034150Y013847D03*
X021400Y014203D03*
X018650Y017953D03*
X021400Y020703D03*
X012650Y017953D03*
X010400Y027597D03*
X009150Y027597D03*
X017400Y027597D03*
X025400Y027597D03*
D23*
X024201Y019400D03*
X023374Y019400D03*
X023099Y019400D03*
X016951Y016650D03*
X016676Y016650D03*
X015849Y016650D03*
X011951Y013650D03*
X011124Y013650D03*
X010849Y013650D03*
X009451Y013650D03*
X009176Y013650D03*
X008349Y013650D03*
X007451Y013650D03*
X006624Y013650D03*
X006349Y013650D03*
X009849Y016650D03*
X010676Y016650D03*
X010951Y016650D03*
X023099Y012900D03*
X023374Y012900D03*
X024201Y012900D03*
X031349Y018650D03*
X032176Y018650D03*
X032451Y018650D03*
X065599Y006900D03*
X066426Y006900D03*
X066701Y006900D03*
X066701Y004650D03*
X066426Y004650D03*
X065599Y004650D03*
D24*
X067097Y004650D03*
X067097Y006900D03*
X032847Y018650D03*
X022703Y019400D03*
X017347Y016650D03*
X022703Y012900D03*
X011347Y016650D03*
X010453Y013650D03*
X009847Y013650D03*
X005953Y013650D03*
D25*
X002650Y013150D03*
X001650Y013150D03*
X001650Y012150D03*
X002650Y012150D03*
X002650Y014150D03*
X001650Y014150D03*
X001650Y015150D03*
X002650Y015150D03*
X002650Y016150D03*
X001650Y016150D03*
X001650Y017150D03*
X002650Y017150D03*
X002650Y018150D03*
X001650Y018150D03*
X001650Y019150D03*
X002650Y019150D03*
X002650Y020150D03*
X001650Y020150D03*
X008650Y006900D03*
X009650Y006900D03*
X010650Y006900D03*
X011650Y006900D03*
X012650Y006900D03*
X013650Y006900D03*
X014650Y006900D03*
X015650Y006900D03*
X016650Y006900D03*
X017650Y006900D03*
X018650Y006900D03*
X019650Y006900D03*
X020650Y006900D03*
X021650Y006900D03*
X022650Y006900D03*
X023650Y006900D03*
X024650Y006900D03*
X025650Y006900D03*
X026650Y006900D03*
X027650Y006900D03*
X065650Y009650D03*
X066650Y009650D03*
X066650Y010650D03*
X065650Y010650D03*
X065650Y011650D03*
X066650Y011650D03*
X066650Y012650D03*
X065650Y012650D03*
X065650Y013650D03*
X066650Y013650D03*
X066650Y014650D03*
X065650Y014650D03*
X065650Y015650D03*
X066650Y015650D03*
X066650Y016650D03*
X065650Y016650D03*
X065650Y017650D03*
X066650Y017650D03*
X066650Y018650D03*
X065650Y018650D03*
X065650Y019650D03*
X066650Y019650D03*
X066650Y020650D03*
X065650Y020650D03*
X065650Y021650D03*
X066650Y021650D03*
X066650Y022650D03*
X065650Y022650D03*
D26*
X064119Y029181D02*
X060181Y029181D01*
X060181Y033119D01*
X064119Y033119D01*
X064119Y029181D01*
X032119Y005119D02*
X028181Y005119D01*
X028181Y001181D01*
X032119Y001181D01*
X032119Y005119D01*
X024119Y005119D02*
X024119Y001181D01*
X020181Y001181D01*
X020181Y005119D01*
X024119Y005119D01*
X016119Y005119D02*
X016119Y001181D01*
X012181Y001181D01*
X012181Y005119D01*
X016119Y005119D01*
X008119Y005119D02*
X008119Y001181D01*
X004181Y001181D01*
X004181Y005119D01*
X008119Y005119D01*
D27*
X062775Y027386D03*
D28*
X062696Y027440D03*
D29*
X062677Y027303D03*
D30*
X062657Y027322D03*
D31*
X062731Y026914D03*
D32*
X062657Y026933D03*
D33*
X062583Y027150D03*
D34*
X061638Y027150D03*
D35*
X062371Y027421D03*
X062371Y026879D03*
D36*
X062219Y027150D03*
D37*
X065150Y023150D02*
X065150Y022150D01*
X066150Y022150D01*
X066150Y023150D01*
X067150Y023150D01*
X067150Y009150D01*
X065150Y009150D01*
X065150Y022150D01*
X065150Y023150D02*
X066150Y023150D01*
X003150Y020650D02*
X003150Y011650D01*
X001150Y011650D01*
X001150Y019650D01*
X002150Y019650D01*
X002150Y020650D01*
X003150Y020650D01*
X002150Y020650D02*
X001150Y020650D01*
X001150Y019650D01*
D38*
X034255Y014900D03*
X035045Y015270D03*
X035045Y014530D03*
X039005Y025030D03*
X039005Y025770D03*
X039795Y025400D03*
X044005Y025030D03*
X044005Y025770D03*
X044795Y025400D03*
X049005Y025030D03*
X049005Y025770D03*
X049795Y025400D03*
X054005Y025030D03*
X054005Y025770D03*
X054795Y025400D03*
D39*
X039375Y005900D03*
X008650Y011900D03*
D40*
X007896Y011900D03*
X007896Y011400D03*
X007896Y010900D03*
X007896Y010400D03*
X009904Y010400D03*
X009904Y010900D03*
X009904Y011400D03*
X009904Y011900D03*
X014896Y011650D03*
X014896Y011150D03*
X014896Y012150D03*
X014896Y012650D03*
X016904Y012650D03*
X016904Y012150D03*
X016904Y011650D03*
X016904Y011150D03*
X017404Y017650D03*
X017404Y018150D03*
X017404Y018650D03*
X017404Y019150D03*
X015396Y019150D03*
X015396Y018650D03*
X015396Y018150D03*
X015396Y017650D03*
X011404Y017650D03*
X011404Y018150D03*
X011404Y018650D03*
X011404Y019150D03*
X009396Y019150D03*
X009396Y018650D03*
X009396Y018150D03*
X009396Y017650D03*
X006154Y020900D03*
X006154Y021400D03*
X006154Y021900D03*
X006154Y022400D03*
X004146Y022400D03*
X004146Y021900D03*
X004146Y021400D03*
X004146Y020900D03*
X038146Y008900D03*
X038146Y008400D03*
X038146Y007900D03*
X038146Y007400D03*
X038146Y006900D03*
X038146Y006400D03*
X038146Y005900D03*
X040154Y005900D03*
X040154Y006400D03*
X040154Y006900D03*
X040154Y007400D03*
X040154Y007900D03*
X040154Y008400D03*
X040154Y008900D03*
D41*
X030707Y026855D03*
X030343Y026855D03*
X029957Y026855D03*
X029593Y026855D03*
X029957Y027445D03*
X030707Y027445D03*
X022707Y027445D03*
X022707Y026855D03*
X022343Y026855D03*
X021957Y026855D03*
X021593Y026855D03*
X021957Y027445D03*
X015082Y027445D03*
X015082Y026855D03*
X014718Y026855D03*
X013582Y026855D03*
X013218Y026855D03*
X013582Y027445D03*
X007082Y027445D03*
X007082Y026855D03*
X006718Y026855D03*
X005582Y026855D03*
X005218Y026855D03*
X005582Y027445D03*
D42*
X005498Y027396D03*
X005302Y027396D03*
X005302Y026904D03*
X005498Y026904D03*
X006802Y026904D03*
X006998Y026904D03*
X006998Y027396D03*
X006802Y027396D03*
X013302Y027396D03*
X013498Y027396D03*
X013498Y026904D03*
X013302Y026904D03*
X014802Y026904D03*
X014998Y026904D03*
X014998Y027396D03*
X014802Y027396D03*
X021677Y027396D03*
X021873Y027396D03*
X021873Y026904D03*
X021677Y026904D03*
X022427Y026904D03*
X022623Y026904D03*
X022623Y027396D03*
X022427Y027396D03*
X029677Y027396D03*
X029873Y027396D03*
X029873Y026904D03*
X029677Y026904D03*
X030427Y026904D03*
X030623Y026904D03*
X030623Y027396D03*
X030427Y027396D03*
D43*
X030525Y027381D03*
X030525Y026919D03*
X029775Y026919D03*
X029775Y027381D03*
X022525Y027381D03*
X022525Y026919D03*
X021775Y026919D03*
X021775Y027381D03*
X014900Y027381D03*
X014900Y026919D03*
X013400Y026919D03*
X013400Y027381D03*
X006900Y027381D03*
X006900Y026919D03*
X005400Y026919D03*
X005400Y027381D03*
D44*
X005400Y027189D03*
X006900Y027189D03*
X013400Y027189D03*
X014900Y027189D03*
X021775Y027189D03*
X022525Y027189D03*
X029775Y027189D03*
X030525Y027189D03*
D45*
X030348Y027406D03*
X029598Y027406D03*
X022348Y027406D03*
X021598Y027406D03*
X014723Y027406D03*
X013223Y027406D03*
X006723Y027406D03*
X005223Y027406D03*
D46*
X005218Y027529D03*
X006718Y027529D03*
X013218Y027529D03*
X014718Y027529D03*
X021593Y027529D03*
X022343Y027529D03*
X029593Y027529D03*
X030343Y027529D03*
D47*
X061327Y037882D03*
X061327Y038138D03*
X061327Y038394D03*
X061327Y038650D03*
X061327Y038906D03*
X061327Y039162D03*
X061327Y039418D03*
X063473Y039418D03*
X063473Y039162D03*
X063473Y038906D03*
X063473Y038650D03*
X063473Y038394D03*
X063473Y038138D03*
X063473Y037882D03*
D48*
X065650Y032670D03*
X065650Y031630D03*
D49*
X023900Y022654D03*
X023400Y022654D03*
X022900Y022654D03*
X022400Y022654D03*
X022400Y020646D03*
X022900Y020646D03*
X023400Y020646D03*
X023900Y020646D03*
X023900Y016154D03*
X023400Y016154D03*
X022900Y016154D03*
X022400Y016154D03*
X022400Y014146D03*
X022900Y014146D03*
X023400Y014146D03*
X023900Y014146D03*
M02*
