G75*
G70*
%OFA0B0*%
%FSLAX24Y24*%
%IPPOS*%
%LPD*%
%AMOC8*
5,1,8,0,0,1.08239X$1,22.5*
%
%ADD10C,0.1340*%
%ADD11R,0.0680X0.0680*%
%ADD12OC8,0.0680*%
%ADD13R,0.0395X0.0434*%
%ADD14R,0.0434X0.0395*%
%ADD15C,0.0671*%
%ADD16R,0.0631X0.0828*%
%ADD17OC8,0.0642*%
%ADD18OC8,0.0877*%
%ADD19C,0.0654*%
%ADD20C,0.1386*%
%ADD21R,0.0710X0.0237*%
%ADD22R,0.1080X0.1080*%
%ADD23OC8,0.1080*%
%ADD24R,0.1182X0.1576*%
%ADD25R,0.1576X0.1182*%
%ADD26R,0.0631X0.0789*%
%ADD27OC8,0.0674*%
%ADD28C,0.0513*%
%ADD29C,0.0710*%
%ADD30C,0.0966*%
%ADD31R,0.0789X0.0631*%
%ADD32R,0.1143X0.0710*%
%ADD33R,0.0710X0.1143*%
%ADD34R,0.0631X0.0631*%
%ADD35R,0.0640X0.0640*%
%ADD36OC8,0.0640*%
%ADD37C,0.0390*%
%ADD38C,0.0516*%
%ADD39C,0.0476*%
D10*
X001151Y001373D03*
X001151Y034373D03*
X001151Y043373D03*
X067151Y043373D03*
X067151Y029373D03*
X067151Y001373D03*
D11*
X045151Y001873D03*
X065651Y017873D03*
X051901Y030623D03*
X067151Y040873D03*
X038151Y043373D03*
X001651Y021873D03*
D12*
X002651Y021873D03*
X002651Y020873D03*
X001651Y020873D03*
X001651Y019873D03*
X002651Y019873D03*
X002651Y018873D03*
X001651Y018873D03*
X001651Y017873D03*
X002651Y017873D03*
X002651Y016873D03*
X001651Y016873D03*
X001651Y015873D03*
X002651Y015873D03*
X002651Y014873D03*
X001651Y014873D03*
X001651Y013873D03*
X002651Y013873D03*
X002651Y012873D03*
X001651Y012873D03*
X001651Y011873D03*
X002651Y011873D03*
X002651Y010873D03*
X001651Y010873D03*
X001651Y009873D03*
X002651Y009873D03*
X002651Y008873D03*
X001651Y008873D03*
X001651Y007873D03*
X002651Y007873D03*
X002651Y006873D03*
X001651Y006873D03*
X038151Y036373D03*
X039151Y036373D03*
X039151Y037373D03*
X038151Y037373D03*
X038151Y038373D03*
X039151Y038373D03*
X039151Y039373D03*
X038151Y039373D03*
X038151Y040373D03*
X039151Y040373D03*
X039151Y041373D03*
X038151Y041373D03*
X038151Y042373D03*
X039151Y042373D03*
X039151Y043373D03*
X066651Y017873D03*
X066651Y016873D03*
X065651Y016873D03*
X065651Y015873D03*
X066651Y015873D03*
X066651Y014873D03*
X065651Y014873D03*
X065651Y013873D03*
X066651Y013873D03*
X066651Y012873D03*
X065651Y012873D03*
X065651Y011873D03*
X066651Y011873D03*
X066651Y010873D03*
X065651Y010873D03*
X065651Y009873D03*
X066651Y009873D03*
X066651Y008873D03*
X065651Y008873D03*
X065651Y007873D03*
X066651Y007873D03*
X066651Y006873D03*
X065651Y006873D03*
X065651Y005873D03*
X066651Y005873D03*
X066651Y004873D03*
X065651Y004873D03*
X049151Y002873D03*
X048151Y002873D03*
X047151Y002873D03*
X046151Y002873D03*
X045151Y002873D03*
X046151Y001873D03*
X047151Y001873D03*
X048151Y001873D03*
X049151Y001873D03*
D13*
X045276Y006698D03*
X045276Y007298D03*
X041151Y007298D03*
X041151Y006698D03*
X039526Y006698D03*
X039526Y007298D03*
X037776Y007298D03*
X037776Y006698D03*
X037026Y006698D03*
X037026Y007298D03*
X038901Y011323D03*
X038901Y011923D03*
X040526Y011923D03*
X040526Y011323D03*
X042276Y011323D03*
X042276Y011923D03*
X038401Y015323D03*
X038401Y015923D03*
X037651Y015923D03*
X037651Y015323D03*
X036901Y015323D03*
X036901Y015923D03*
X036151Y015923D03*
X036151Y015323D03*
X035401Y015323D03*
X035401Y015923D03*
X035151Y022823D03*
X035151Y023423D03*
X036651Y023423D03*
X037401Y023423D03*
X037401Y022823D03*
X036651Y022823D03*
X038901Y022823D03*
X039651Y022823D03*
X039651Y023423D03*
X038901Y023423D03*
X033151Y024823D03*
X032401Y024823D03*
X031651Y024823D03*
X031651Y025423D03*
X032401Y025423D03*
X033151Y025423D03*
X023526Y021048D03*
X023526Y020448D03*
X049151Y028573D03*
X049151Y029173D03*
X049901Y029173D03*
X049901Y028573D03*
X050901Y026423D03*
X051651Y026423D03*
X052401Y026423D03*
X053151Y026423D03*
X053901Y026423D03*
X054651Y026423D03*
X055401Y026423D03*
X055401Y025823D03*
X054651Y025823D03*
X053901Y025823D03*
X053151Y025823D03*
X052401Y025823D03*
X051651Y025823D03*
X050901Y025823D03*
X054651Y024548D03*
X054651Y023948D03*
X054651Y020923D03*
X054651Y020323D03*
X053901Y020323D03*
X053901Y020923D03*
X052401Y020923D03*
X052401Y020323D03*
X051651Y020323D03*
X051651Y020923D03*
X050901Y020923D03*
X050901Y020323D03*
X053776Y012673D03*
X053776Y012073D03*
X055276Y012073D03*
X055276Y012673D03*
X056526Y012673D03*
X056526Y012073D03*
X058276Y012073D03*
X058276Y012673D03*
X060026Y012673D03*
X060026Y012073D03*
X062026Y012073D03*
X062026Y012673D03*
X056651Y028573D03*
X056651Y029173D03*
X055901Y029173D03*
X055901Y028573D03*
X049901Y031573D03*
X049901Y032173D03*
X049151Y032173D03*
X049151Y031573D03*
D14*
X048951Y035123D03*
X048351Y035123D03*
X048351Y036373D03*
X048951Y036373D03*
X048951Y037123D03*
X048351Y037123D03*
X048351Y037873D03*
X048951Y037873D03*
X062851Y036873D03*
X063451Y036873D03*
X064851Y036873D03*
X065451Y036873D03*
X065601Y027623D03*
X066201Y027623D03*
X066201Y026873D03*
X065601Y026873D03*
X065601Y024873D03*
X066201Y024873D03*
X059701Y023998D03*
X059101Y023998D03*
X059101Y022623D03*
X059701Y022623D03*
X059701Y021873D03*
X059101Y021873D03*
X056701Y021373D03*
X056101Y021373D03*
X056101Y020623D03*
X056701Y020623D03*
X056701Y023123D03*
X056101Y023123D03*
X056101Y023873D03*
X056701Y023873D03*
X056701Y024623D03*
X056101Y024623D03*
X056101Y025373D03*
X056701Y025373D03*
X056701Y026123D03*
X056101Y026123D03*
X051201Y024623D03*
X050601Y024623D03*
X050601Y023873D03*
X051201Y023873D03*
X051201Y023123D03*
X050601Y023123D03*
X050601Y022373D03*
X051201Y022373D03*
X048201Y021373D03*
X047601Y021373D03*
X047601Y020623D03*
X048201Y020623D03*
X048201Y019873D03*
X047601Y019873D03*
X047601Y019123D03*
X048201Y019123D03*
X052601Y016873D03*
X053201Y016873D03*
X054101Y016873D03*
X054701Y016873D03*
X053951Y018123D03*
X053351Y018123D03*
X041201Y018373D03*
X040601Y018373D03*
X040601Y017623D03*
X041201Y017623D03*
X041201Y019873D03*
X040601Y019873D03*
X033701Y019373D03*
X033101Y019373D03*
X033101Y018623D03*
X033701Y018623D03*
X033701Y017873D03*
X033101Y017873D03*
X029951Y018123D03*
X029351Y018123D03*
X029351Y017248D03*
X029951Y017248D03*
X029951Y019123D03*
X029351Y019123D03*
X025576Y021998D03*
X024976Y021998D03*
X027226Y023123D03*
X027826Y023123D03*
X027826Y023873D03*
X027226Y023873D03*
X029601Y023998D03*
X030201Y023998D03*
X030201Y024748D03*
X029601Y024748D03*
X029601Y025498D03*
X030201Y025498D03*
X030201Y026248D03*
X029601Y026248D03*
X029601Y023248D03*
X030201Y023248D03*
X030201Y022498D03*
X029601Y022498D03*
X033101Y022748D03*
X033701Y022748D03*
X016451Y032248D03*
X015851Y032248D03*
X065601Y019873D03*
X066201Y019873D03*
X066201Y019123D03*
X065601Y019123D03*
D15*
X053651Y024123D03*
D16*
X049151Y034123D03*
X048151Y034123D03*
D17*
X047151Y039373D03*
X047151Y040160D03*
X047151Y040948D03*
X047151Y041735D03*
D18*
X046080Y042129D03*
X048222Y042129D03*
X048222Y039373D03*
X046080Y039373D03*
D19*
X052159Y039945D02*
X052159Y040519D01*
X052159Y041306D02*
X052159Y041880D01*
X053143Y041880D02*
X053143Y041306D01*
X053143Y040519D02*
X053143Y039945D01*
D20*
X055013Y042373D03*
X050289Y042373D03*
D21*
X060506Y027467D03*
X060506Y027152D03*
X060506Y026837D03*
X060506Y026523D03*
X060506Y026208D03*
X060506Y025893D03*
X060506Y025578D03*
X060506Y025263D03*
X060506Y024948D03*
X060506Y024633D03*
X060506Y024318D03*
X060506Y024003D03*
X060506Y023688D03*
X060506Y023373D03*
X060506Y023058D03*
X060506Y022743D03*
X060506Y022428D03*
X060506Y022113D03*
X060506Y021798D03*
X060506Y021483D03*
X060506Y021168D03*
X060506Y020853D03*
X060506Y020538D03*
X060506Y020223D03*
X060506Y019908D03*
X060506Y019593D03*
X060506Y019278D03*
X064797Y019278D03*
X064797Y019593D03*
X064797Y019908D03*
X064797Y020223D03*
X064797Y020538D03*
X064797Y020853D03*
X064797Y021168D03*
X064797Y021483D03*
X064797Y021798D03*
X064797Y022113D03*
X064797Y022428D03*
X064797Y022743D03*
X064797Y023058D03*
X064797Y023373D03*
X064797Y023688D03*
X064797Y024003D03*
X064797Y024318D03*
X064797Y024633D03*
X064797Y024948D03*
X064797Y025263D03*
X064797Y025578D03*
X064797Y025893D03*
X064797Y026208D03*
X064797Y026523D03*
X064797Y026837D03*
X064797Y027152D03*
X064797Y027467D03*
D22*
X059651Y040873D03*
D23*
X057651Y041998D03*
X059651Y043248D03*
X043084Y042428D03*
X042297Y043373D03*
X043084Y040263D03*
D24*
X058276Y038373D03*
X061026Y038373D03*
D25*
X064151Y034748D03*
X064151Y031998D03*
D26*
X057401Y032123D03*
X056401Y032123D03*
X056401Y033373D03*
X057401Y033373D03*
D27*
X063659Y038889D03*
X063659Y039873D03*
X063659Y040857D03*
X064643Y040857D03*
X064643Y039873D03*
X064643Y038889D03*
D28*
X054647Y009421D03*
D29*
X062954Y009421D03*
D30*
X035805Y038503D03*
X035805Y041003D03*
X035805Y043503D03*
X031305Y043503D03*
X028805Y043503D03*
X028805Y041003D03*
X031305Y041003D03*
X031305Y038503D03*
X028805Y038503D03*
X024305Y038503D03*
X021805Y038503D03*
X021805Y041003D03*
X024305Y041003D03*
X024305Y043503D03*
X021805Y043503D03*
X017305Y043503D03*
X014805Y043503D03*
X014805Y041003D03*
X017305Y041003D03*
X017305Y038503D03*
X014805Y038503D03*
X010305Y038503D03*
X007805Y038503D03*
X007805Y041003D03*
X010305Y041003D03*
X010305Y043503D03*
X007805Y043503D03*
X003305Y043503D03*
X003305Y041003D03*
X003305Y038503D03*
D31*
X040651Y027123D03*
X041901Y027123D03*
X041901Y026123D03*
X040651Y026123D03*
D32*
X034151Y016773D03*
X034151Y015473D03*
D33*
X039751Y016373D03*
X041051Y016373D03*
X034551Y020873D03*
X033251Y020873D03*
D34*
X066401Y038373D03*
X066401Y039873D03*
D35*
X034151Y001873D03*
D36*
X034151Y002873D03*
X035151Y002873D03*
X036151Y002873D03*
X036151Y001873D03*
X035151Y001873D03*
X037151Y001873D03*
X038151Y001873D03*
X039151Y001873D03*
X039151Y002873D03*
X038151Y002873D03*
X037151Y002873D03*
X040151Y002873D03*
X040151Y001873D03*
D37*
X036401Y003873D03*
X033401Y005373D03*
X037776Y006248D03*
X038651Y006623D03*
X039776Y006248D03*
X040526Y006623D03*
X041401Y006248D03*
X043276Y006623D03*
X043026Y007873D03*
X044276Y009498D03*
X044026Y009873D03*
X043776Y010248D03*
X043526Y010748D03*
X043026Y010748D03*
X042276Y010873D03*
X041776Y010873D03*
X040526Y010873D03*
X039401Y010873D03*
X038901Y010873D03*
X036901Y010498D03*
X036526Y010248D03*
X036901Y009998D03*
X036526Y009748D03*
X036901Y009498D03*
X036526Y009248D03*
X036901Y008998D03*
X036526Y008748D03*
X036526Y010873D03*
X034276Y011123D03*
X034276Y012498D03*
X033526Y013748D03*
X033151Y014998D03*
X034651Y014873D03*
X036151Y014873D03*
X036901Y014873D03*
X037276Y014873D03*
X037651Y014873D03*
X038026Y014873D03*
X038401Y014873D03*
X038776Y013748D03*
X038526Y013123D03*
X038026Y013123D03*
X037651Y013123D03*
X037151Y013123D03*
X036526Y013748D03*
X039026Y013123D03*
X041026Y012748D03*
X041401Y012998D03*
X042026Y012498D03*
X041026Y012123D03*
X041776Y013998D03*
X042026Y014623D03*
X041651Y015373D03*
X040776Y014873D03*
X042776Y015248D03*
X041651Y016998D03*
X040901Y017248D03*
X042776Y017373D03*
X044776Y017248D03*
X045026Y016498D03*
X045276Y015748D03*
X045526Y014998D03*
X045776Y012498D03*
X044526Y010748D03*
X044776Y010248D03*
X045026Y009623D03*
X045276Y008998D03*
X045526Y008373D03*
X045776Y007498D03*
X045526Y006248D03*
X047651Y004623D03*
X047151Y004123D03*
X049151Y003623D03*
X050651Y005373D03*
X052901Y003873D03*
X053151Y001623D03*
X056651Y007373D03*
X055651Y008373D03*
X057401Y009623D03*
X059401Y007873D03*
X060401Y009623D03*
X060651Y012123D03*
X061401Y012123D03*
X059151Y012123D03*
X057651Y012123D03*
X055901Y012123D03*
X054651Y012373D03*
X054401Y011873D03*
X053901Y011373D03*
X052151Y012873D03*
X051651Y012873D03*
X051401Y013123D03*
X050901Y013373D03*
X050651Y013873D03*
X051776Y016873D03*
X052401Y017748D03*
X052151Y017998D03*
X051901Y018248D03*
X051276Y018248D03*
X050901Y018248D03*
X050526Y018623D03*
X049776Y018373D03*
X049401Y018373D03*
X049151Y019498D03*
X048901Y019873D03*
X048901Y020248D03*
X048901Y020623D03*
X048901Y020998D03*
X050151Y021873D03*
X050151Y022373D03*
X050151Y022748D03*
X050151Y023123D03*
X050151Y023498D03*
X050151Y023873D03*
X050151Y025248D03*
X050151Y025623D03*
X050901Y026873D03*
X051651Y026873D03*
X052026Y026873D03*
X052401Y026873D03*
X052776Y026873D03*
X053526Y026873D03*
X053901Y026873D03*
X054401Y026873D03*
X055526Y026873D03*
X055901Y026873D03*
X054651Y025373D03*
X054151Y024623D03*
X055651Y024623D03*
X057151Y024623D03*
X058401Y024748D03*
X058776Y024748D03*
X059151Y024748D03*
X059401Y024498D03*
X059901Y024498D03*
X059526Y025248D03*
X059526Y025873D03*
X059901Y025873D03*
X059151Y026623D03*
X059651Y027123D03*
X058526Y027123D03*
X058276Y027373D03*
X058026Y027623D03*
X057151Y025373D03*
X057151Y023498D03*
X057151Y023123D03*
X056776Y022623D03*
X057151Y021498D03*
X057151Y020623D03*
X057151Y019998D03*
X056526Y019873D03*
X056151Y019873D03*
X055776Y019873D03*
X055401Y019873D03*
X055026Y019873D03*
X054651Y019873D03*
X054276Y019873D03*
X053901Y019873D03*
X052776Y019873D03*
X052401Y019873D03*
X052026Y019873D03*
X051651Y019873D03*
X051276Y019873D03*
X050901Y019873D03*
X050401Y021123D03*
X052401Y021373D03*
X053901Y021373D03*
X055651Y020623D03*
X058401Y020248D03*
X058901Y020623D03*
X059276Y021373D03*
X061151Y021998D03*
X061151Y022373D03*
X061151Y023248D03*
X061401Y024373D03*
X061151Y024623D03*
X061776Y024373D03*
X061151Y025623D03*
X061151Y026123D03*
X063776Y023998D03*
X064151Y023998D03*
X064151Y024498D03*
X064151Y025123D03*
X064151Y025498D03*
X064151Y025873D03*
X064151Y026373D03*
X064151Y026748D03*
X064151Y027123D03*
X065401Y026373D03*
X066651Y026873D03*
X066651Y024873D03*
X065401Y024373D03*
X065401Y022373D03*
X065401Y021998D03*
X065776Y021998D03*
X064151Y021748D03*
X063651Y021123D03*
X063401Y020873D03*
X064151Y020623D03*
X064151Y020248D03*
X064151Y019873D03*
X064151Y019498D03*
X063901Y019123D03*
X063276Y018873D03*
X062901Y017873D03*
X062151Y017623D03*
X061964Y018560D03*
X061151Y018748D03*
X061151Y019248D03*
X059776Y019248D03*
X059276Y019123D03*
X058776Y018998D03*
X058401Y018748D03*
X058151Y018248D03*
X057776Y017873D03*
X059651Y017873D03*
X059901Y017623D03*
X060651Y017373D03*
X065026Y018873D03*
X066651Y019123D03*
X059151Y023123D03*
X058401Y022873D03*
X054401Y018123D03*
X054776Y017810D03*
X055526Y016873D03*
X055901Y017123D03*
X053651Y016873D03*
X047151Y020623D03*
X044276Y021498D03*
X044026Y021123D03*
X043776Y020873D03*
X043526Y020498D03*
X042776Y019623D03*
X041651Y019873D03*
X041651Y019373D03*
X044526Y018873D03*
X041651Y021498D03*
X041276Y021748D03*
X040901Y021998D03*
X040526Y022248D03*
X040026Y023123D03*
X041026Y023873D03*
X041651Y023373D03*
X041651Y022373D03*
X041651Y021998D03*
X042776Y022123D03*
X042776Y022498D03*
X043276Y022873D03*
X043901Y023623D03*
X043526Y023873D03*
X043526Y024373D03*
X044276Y023873D03*
X044651Y024123D03*
X044901Y023373D03*
X046151Y023373D03*
X046651Y023373D03*
X046651Y024623D03*
X046151Y024623D03*
X045026Y025123D03*
X043276Y025123D03*
X042901Y025123D03*
X040401Y024934D03*
X039276Y024998D03*
X037651Y024998D03*
X036651Y025873D03*
X035276Y025123D03*
X033901Y025373D03*
X032901Y027123D03*
X031901Y027123D03*
X031151Y025623D03*
X030651Y025498D03*
X031526Y023748D03*
X031526Y023248D03*
X030651Y022248D03*
X030151Y021623D03*
X029526Y020998D03*
X029776Y020623D03*
X029901Y019873D03*
X030776Y018873D03*
X031276Y018748D03*
X031590Y018559D03*
X031276Y018373D03*
X030401Y017623D03*
X030401Y017248D03*
X028901Y017248D03*
X027901Y017373D03*
X027901Y018123D03*
X028151Y019123D03*
X027901Y019373D03*
X028151Y020373D03*
X028151Y020873D03*
X028151Y022373D03*
X028401Y022873D03*
X029151Y023248D03*
X028151Y024373D03*
X027526Y024373D03*
X026651Y023373D03*
X025526Y021373D03*
X025026Y021373D03*
X022901Y020998D03*
X022901Y020498D03*
X021901Y021873D03*
X020651Y022873D03*
X019401Y023373D03*
X021276Y024498D03*
X021901Y023873D03*
X025026Y017373D03*
X026901Y015873D03*
X027401Y016123D03*
X027401Y015623D03*
X029651Y014873D03*
X032651Y016623D03*
X034901Y017373D03*
X034151Y019373D03*
X032651Y019498D03*
X032651Y021373D03*
X032651Y022248D03*
X033401Y022248D03*
X034151Y022748D03*
X033026Y023873D03*
X035526Y023873D03*
X036651Y023873D03*
X037901Y023123D03*
X042151Y028123D03*
X040026Y028873D03*
X043901Y030873D03*
X044401Y030373D03*
X046151Y032623D03*
X046651Y032623D03*
X049151Y031123D03*
X049901Y029623D03*
X049901Y028123D03*
X049651Y027623D03*
X049151Y027623D03*
X049276Y027123D03*
X050651Y028248D03*
X051901Y028123D03*
X053151Y028123D03*
X055026Y029623D03*
X055901Y029623D03*
X052401Y032373D03*
X051401Y033373D03*
X050651Y034123D03*
X051151Y034873D03*
X050651Y035373D03*
X050901Y035873D03*
X049401Y037123D03*
X047901Y036373D03*
X048151Y035623D03*
X048776Y035623D03*
X046651Y036123D03*
X045901Y036373D03*
X045901Y035623D03*
X044901Y034873D03*
X046651Y034623D03*
X043651Y033123D03*
X039651Y032873D03*
X039651Y033873D03*
X043901Y037123D03*
X044401Y037123D03*
X044151Y038373D03*
X034151Y029248D03*
X031026Y021498D03*
X031526Y021248D03*
X037651Y016498D03*
X051651Y023123D03*
X051651Y023873D03*
X051651Y025373D03*
X062901Y028748D03*
X065151Y029623D03*
X065151Y030123D03*
X063901Y006873D03*
X063901Y006373D03*
X063401Y006373D03*
X020151Y032748D03*
X019651Y032748D03*
X019151Y032748D03*
X018151Y032748D03*
X017526Y032373D03*
X017526Y033498D03*
X018026Y034248D03*
X019151Y034623D03*
X017151Y035623D03*
X015401Y032873D03*
X014776Y031998D03*
X015776Y031498D03*
X018151Y031248D03*
X019151Y031623D03*
X019651Y031998D03*
X012901Y031998D03*
X012151Y031248D03*
X012276Y032748D03*
X012776Y033498D03*
X011901Y038373D03*
D38*
X052651Y038873D03*
X053651Y038873D03*
X056151Y038373D03*
X056151Y037873D03*
X056151Y037373D03*
X056401Y034373D03*
X058651Y032873D03*
X061151Y032873D03*
X061151Y031873D03*
X064151Y030373D03*
X054901Y030873D03*
X053901Y030873D03*
X052901Y030873D03*
D39*
X045901Y031123D03*
X044651Y029623D03*
X044651Y028373D03*
X045401Y033873D03*
M02*
