G75*
G70*
%OFA0B0*%
%FSLAX24Y24*%
%IPPOS*%
%LPD*%
%AMOC8*
5,1,8,0,0,1.08239X$1,22.5*
%
%ADD10R,0.0630X0.0787*%
%ADD11C,0.0098*%
%ADD12R,0.0315X0.0354*%
%ADD13R,0.2100X0.0760*%
%ADD14R,0.0591X0.0157*%
%ADD15R,0.0866X0.0236*%
%ADD16R,0.0354X0.0315*%
%ADD17R,0.0551X0.0748*%
%ADD18R,0.0360X0.0850*%
%ADD19R,0.4252X0.4098*%
%ADD20R,0.2165X0.1772*%
%ADD21R,0.0551X0.0709*%
%ADD22R,0.0630X0.1063*%
%ADD23R,0.0480X0.0880*%
%ADD24R,0.1417X0.0866*%
%ADD25R,0.0748X0.0551*%
%ADD26R,0.0472X0.1575*%
%ADD27R,0.0276X0.1575*%
%ADD28R,0.0787X0.1102*%
%ADD29R,0.0591X0.0591*%
%ADD30R,0.0236X0.0866*%
%ADD31R,0.0880X0.0480*%
%ADD32R,0.0866X0.1417*%
%ADD33R,0.0709X0.0551*%
%ADD34R,0.0866X0.0787*%
%ADD35R,0.0394X0.0551*%
%ADD36C,0.0080*%
%ADD37C,0.0118*%
%ADD38R,0.0157X0.0630*%
%ADD39R,0.1181X0.0630*%
%ADD40R,0.0157X0.0709*%
%ADD41R,0.0709X0.0157*%
%ADD42R,0.0472X0.0472*%
%ADD43R,0.0118X0.0591*%
%ADD44R,0.0260X0.0800*%
D10*
X042901Y001088D03*
X042901Y003214D03*
X052151Y003214D03*
X052151Y001088D03*
D11*
X041383Y013866D02*
X041383Y014358D01*
X041187Y014358D02*
X041187Y013866D01*
X040990Y013866D02*
X040990Y014358D01*
X040793Y014358D02*
X040793Y013866D01*
X040596Y013866D02*
X040596Y014358D01*
X040399Y014358D02*
X040399Y013866D01*
X040202Y013866D02*
X040202Y014358D01*
X040006Y014358D02*
X040006Y013866D01*
X039809Y013866D02*
X039809Y014358D01*
X039612Y014358D02*
X039612Y013866D01*
X039415Y013866D02*
X039415Y014358D01*
X039218Y014358D02*
X039218Y013866D01*
X039021Y013866D02*
X039021Y014358D01*
X038824Y014358D02*
X038824Y013866D01*
X038628Y013866D02*
X038628Y014358D01*
X038431Y014358D02*
X038431Y013866D01*
X038234Y013866D02*
X038234Y014358D01*
X038037Y014358D02*
X038037Y013866D01*
X037840Y013866D02*
X037840Y014358D01*
X037643Y014358D02*
X037643Y013866D01*
X037446Y013866D02*
X037446Y014358D01*
X037250Y014358D02*
X037250Y013866D01*
X037053Y013866D02*
X037053Y014358D01*
X036856Y014358D02*
X036856Y013866D01*
X036659Y013866D02*
X036659Y014358D01*
X036462Y014358D02*
X036462Y013866D01*
X036265Y013866D02*
X036265Y014358D01*
X036069Y014358D02*
X036069Y013866D01*
X035872Y013866D02*
X035872Y014358D01*
X035675Y014358D02*
X035675Y013866D01*
X035478Y013866D02*
X035478Y014358D01*
X035281Y014358D02*
X035281Y013866D01*
X035084Y013866D02*
X035084Y014358D01*
X034887Y014358D02*
X034887Y013866D01*
X034691Y013866D02*
X034691Y014358D01*
X034494Y014358D02*
X034494Y013866D01*
X034297Y013866D02*
X034297Y014358D01*
X034100Y014358D02*
X034100Y013866D01*
X033903Y013866D02*
X033903Y014358D01*
X033706Y014358D02*
X033706Y013866D01*
X033509Y013866D02*
X033509Y014358D01*
X033313Y014358D02*
X033313Y013866D01*
X033116Y013866D02*
X033116Y014358D01*
X032919Y014358D02*
X032919Y013866D01*
X032358Y014919D02*
X031866Y014919D01*
X031866Y015116D02*
X032358Y015116D01*
X032358Y015313D02*
X031866Y015313D01*
X031866Y015509D02*
X032358Y015509D01*
X032358Y015706D02*
X031866Y015706D01*
X031866Y015903D02*
X032358Y015903D01*
X032358Y016100D02*
X031866Y016100D01*
X031866Y016297D02*
X032358Y016297D01*
X032358Y016494D02*
X031866Y016494D01*
X031866Y016691D02*
X032358Y016691D01*
X032358Y016887D02*
X031866Y016887D01*
X031866Y017084D02*
X032358Y017084D01*
X032358Y017281D02*
X031866Y017281D01*
X031866Y017478D02*
X032358Y017478D01*
X032358Y017675D02*
X031866Y017675D01*
X031866Y017872D02*
X032358Y017872D01*
X032358Y018069D02*
X031866Y018069D01*
X031866Y018265D02*
X032358Y018265D01*
X032358Y018462D02*
X031866Y018462D01*
X031866Y018659D02*
X032358Y018659D01*
X032358Y018856D02*
X031866Y018856D01*
X031866Y019053D02*
X032358Y019053D01*
X032358Y019250D02*
X031866Y019250D01*
X031866Y019446D02*
X032358Y019446D01*
X032358Y019643D02*
X031866Y019643D01*
X031866Y019840D02*
X032358Y019840D01*
X032358Y020037D02*
X031866Y020037D01*
X031866Y020234D02*
X032358Y020234D01*
X032358Y020431D02*
X031866Y020431D01*
X031866Y020628D02*
X032358Y020628D01*
X032358Y020824D02*
X031866Y020824D01*
X031866Y021021D02*
X032358Y021021D01*
X032358Y021218D02*
X031866Y021218D01*
X031866Y021415D02*
X032358Y021415D01*
X032358Y021612D02*
X031866Y021612D01*
X031866Y021809D02*
X032358Y021809D01*
X032358Y022006D02*
X031866Y022006D01*
X031866Y022202D02*
X032358Y022202D01*
X032358Y022399D02*
X031866Y022399D01*
X031866Y022596D02*
X032358Y022596D01*
X032358Y022793D02*
X031866Y022793D01*
X031866Y022990D02*
X032358Y022990D01*
X032358Y023187D02*
X031866Y023187D01*
X031866Y023383D02*
X032358Y023383D01*
X032919Y023945D02*
X032919Y024437D01*
X033116Y024437D02*
X033116Y023945D01*
X033313Y023945D02*
X033313Y024437D01*
X033509Y024437D02*
X033509Y023945D01*
X033706Y023945D02*
X033706Y024437D01*
X033903Y024437D02*
X033903Y023945D01*
X034100Y023945D02*
X034100Y024437D01*
X034297Y024437D02*
X034297Y023945D01*
X034494Y023945D02*
X034494Y024437D01*
X034691Y024437D02*
X034691Y023945D01*
X034887Y023945D02*
X034887Y024437D01*
X035084Y024437D02*
X035084Y023945D01*
X035281Y023945D02*
X035281Y024437D01*
X035478Y024437D02*
X035478Y023945D01*
X035675Y023945D02*
X035675Y024437D01*
X035872Y024437D02*
X035872Y023945D01*
X036069Y023945D02*
X036069Y024437D01*
X036265Y024437D02*
X036265Y023945D01*
X036462Y023945D02*
X036462Y024437D01*
X036659Y024437D02*
X036659Y023945D01*
X036856Y023945D02*
X036856Y024437D01*
X037053Y024437D02*
X037053Y023945D01*
X037250Y023945D02*
X037250Y024437D01*
X037446Y024437D02*
X037446Y023945D01*
X037643Y023945D02*
X037643Y024437D01*
X037840Y024437D02*
X037840Y023945D01*
X038037Y023945D02*
X038037Y024437D01*
X038234Y024437D02*
X038234Y023945D01*
X038431Y023945D02*
X038431Y024437D01*
X038628Y024437D02*
X038628Y023945D01*
X038824Y023945D02*
X038824Y024437D01*
X039021Y024437D02*
X039021Y023945D01*
X039218Y023945D02*
X039218Y024437D01*
X039415Y024437D02*
X039415Y023945D01*
X039612Y023945D02*
X039612Y024437D01*
X039809Y024437D02*
X039809Y023945D01*
X040006Y023945D02*
X040006Y024437D01*
X040202Y024437D02*
X040202Y023945D01*
X040399Y023945D02*
X040399Y024437D01*
X040596Y024437D02*
X040596Y023945D01*
X040793Y023945D02*
X040793Y024437D01*
X040990Y024437D02*
X040990Y023945D01*
X041187Y023945D02*
X041187Y024437D01*
X041383Y024437D02*
X041383Y023945D01*
X041945Y023383D02*
X042437Y023383D01*
X042437Y023187D02*
X041945Y023187D01*
X041945Y022990D02*
X042437Y022990D01*
X042437Y022793D02*
X041945Y022793D01*
X041945Y022596D02*
X042437Y022596D01*
X042437Y022399D02*
X041945Y022399D01*
X041945Y022202D02*
X042437Y022202D01*
X042437Y022006D02*
X041945Y022006D01*
X041945Y021809D02*
X042437Y021809D01*
X042437Y021612D02*
X041945Y021612D01*
X041945Y021415D02*
X042437Y021415D01*
X042437Y021218D02*
X041945Y021218D01*
X041945Y021021D02*
X042437Y021021D01*
X042437Y020824D02*
X041945Y020824D01*
X041945Y020628D02*
X042437Y020628D01*
X042437Y020431D02*
X041945Y020431D01*
X041945Y020234D02*
X042437Y020234D01*
X042437Y020037D02*
X041945Y020037D01*
X041945Y019840D02*
X042437Y019840D01*
X042437Y019643D02*
X041945Y019643D01*
X041945Y019446D02*
X042437Y019446D01*
X042437Y019250D02*
X041945Y019250D01*
X041945Y019053D02*
X042437Y019053D01*
X042437Y018856D02*
X041945Y018856D01*
X041945Y018659D02*
X042437Y018659D01*
X042437Y018462D02*
X041945Y018462D01*
X041945Y018265D02*
X042437Y018265D01*
X042437Y018069D02*
X041945Y018069D01*
X041945Y017872D02*
X042437Y017872D01*
X042437Y017675D02*
X041945Y017675D01*
X041945Y017478D02*
X042437Y017478D01*
X042437Y017281D02*
X041945Y017281D01*
X041945Y017084D02*
X042437Y017084D01*
X042437Y016887D02*
X041945Y016887D01*
X041945Y016691D02*
X042437Y016691D01*
X042437Y016494D02*
X041945Y016494D01*
X041945Y016297D02*
X042437Y016297D01*
X042437Y016100D02*
X041945Y016100D01*
X041945Y015903D02*
X042437Y015903D01*
X042437Y015706D02*
X041945Y015706D01*
X041945Y015509D02*
X042437Y015509D01*
X042437Y015313D02*
X041945Y015313D01*
X041945Y015116D02*
X042437Y015116D01*
X042437Y014919D02*
X041945Y014919D01*
X049232Y019706D02*
X049724Y019706D01*
X049724Y019903D02*
X049232Y019903D01*
X049232Y020100D02*
X049724Y020100D01*
X049724Y020297D02*
X049232Y020297D01*
X049232Y020494D02*
X049724Y020494D01*
X049724Y020691D02*
X049232Y020691D01*
X049232Y020887D02*
X049724Y020887D01*
X049724Y021084D02*
X049232Y021084D01*
X049232Y021281D02*
X049724Y021281D01*
X049724Y021478D02*
X049232Y021478D01*
X049232Y021675D02*
X049724Y021675D01*
X049724Y021872D02*
X049232Y021872D01*
X049232Y022069D02*
X049724Y022069D01*
X049724Y022265D02*
X049232Y022265D01*
X049232Y022462D02*
X049724Y022462D01*
X049724Y022659D02*
X049232Y022659D01*
X049232Y022856D02*
X049724Y022856D01*
X049724Y023053D02*
X049232Y023053D01*
X049232Y023250D02*
X049724Y023250D01*
X049724Y023446D02*
X049232Y023446D01*
X049232Y023643D02*
X049724Y023643D01*
X049724Y023840D02*
X049232Y023840D01*
X049232Y024037D02*
X049724Y024037D01*
X049724Y024234D02*
X049232Y024234D01*
X049232Y024431D02*
X049724Y024431D01*
X049724Y024628D02*
X049232Y024628D01*
X049232Y024824D02*
X049724Y024824D01*
X049724Y025021D02*
X049232Y025021D01*
X049232Y025218D02*
X049724Y025218D01*
X049724Y025415D02*
X049232Y025415D01*
X049232Y025612D02*
X049724Y025612D01*
X049724Y025809D02*
X049232Y025809D01*
X049232Y026006D02*
X049724Y026006D01*
X049724Y026202D02*
X049232Y026202D01*
X049232Y026399D02*
X049724Y026399D01*
X049724Y026596D02*
X049232Y026596D01*
X050206Y027078D02*
X050206Y027570D01*
X050403Y027570D02*
X050403Y027078D01*
X050600Y027078D02*
X050600Y027570D01*
X050797Y027570D02*
X050797Y027078D01*
X050994Y027078D02*
X050994Y027570D01*
X051191Y027570D02*
X051191Y027078D01*
X051387Y027078D02*
X051387Y027570D01*
X051584Y027570D02*
X051584Y027078D01*
X051781Y027078D02*
X051781Y027570D01*
X051978Y027570D02*
X051978Y027078D01*
X052175Y027078D02*
X052175Y027570D01*
X052372Y027570D02*
X052372Y027078D01*
X052569Y027078D02*
X052569Y027570D01*
X052765Y027570D02*
X052765Y027078D01*
X052962Y027078D02*
X052962Y027570D01*
X053159Y027570D02*
X053159Y027078D01*
X053356Y027078D02*
X053356Y027570D01*
X053553Y027570D02*
X053553Y027078D01*
X053750Y027078D02*
X053750Y027570D01*
X053946Y027570D02*
X053946Y027078D01*
X054143Y027078D02*
X054143Y027570D01*
X054340Y027570D02*
X054340Y027078D01*
X054537Y027078D02*
X054537Y027570D01*
X054734Y027570D02*
X054734Y027078D01*
X054931Y027078D02*
X054931Y027570D01*
X055128Y027570D02*
X055128Y027078D01*
X055324Y027078D02*
X055324Y027570D01*
X055521Y027570D02*
X055521Y027078D01*
X055718Y027078D02*
X055718Y027570D01*
X055915Y027570D02*
X055915Y027078D01*
X056112Y027078D02*
X056112Y027570D01*
X056309Y027570D02*
X056309Y027078D01*
X056506Y027078D02*
X056506Y027570D01*
X056702Y027570D02*
X056702Y027078D01*
X056899Y027078D02*
X056899Y027570D01*
X057096Y027570D02*
X057096Y027078D01*
X057578Y026596D02*
X058070Y026596D01*
X058070Y026399D02*
X057578Y026399D01*
X057578Y026202D02*
X058070Y026202D01*
X058070Y026006D02*
X057578Y026006D01*
X057578Y025809D02*
X058070Y025809D01*
X058070Y025612D02*
X057578Y025612D01*
X057578Y025415D02*
X058070Y025415D01*
X058070Y025218D02*
X057578Y025218D01*
X057578Y025021D02*
X058070Y025021D01*
X058070Y024824D02*
X057578Y024824D01*
X057578Y024628D02*
X058070Y024628D01*
X058070Y024431D02*
X057578Y024431D01*
X057578Y024234D02*
X058070Y024234D01*
X058070Y024037D02*
X057578Y024037D01*
X057578Y023840D02*
X058070Y023840D01*
X058070Y023643D02*
X057578Y023643D01*
X057578Y023446D02*
X058070Y023446D01*
X058070Y023250D02*
X057578Y023250D01*
X057578Y023053D02*
X058070Y023053D01*
X058070Y022856D02*
X057578Y022856D01*
X057578Y022659D02*
X058070Y022659D01*
X058070Y022462D02*
X057578Y022462D01*
X057578Y022265D02*
X058070Y022265D01*
X058070Y022069D02*
X057578Y022069D01*
X057578Y021872D02*
X058070Y021872D01*
X058070Y021675D02*
X057578Y021675D01*
X057578Y021478D02*
X058070Y021478D01*
X058070Y021281D02*
X057578Y021281D01*
X057578Y021084D02*
X058070Y021084D01*
X058070Y020887D02*
X057578Y020887D01*
X057578Y020691D02*
X058070Y020691D01*
X058070Y020494D02*
X057578Y020494D01*
X057578Y020297D02*
X058070Y020297D01*
X058070Y020100D02*
X057578Y020100D01*
X057578Y019903D02*
X058070Y019903D01*
X058070Y019706D02*
X057578Y019706D01*
X057096Y019224D02*
X057096Y018732D01*
X056899Y018732D02*
X056899Y019224D01*
X056702Y019224D02*
X056702Y018732D01*
X056506Y018732D02*
X056506Y019224D01*
X056309Y019224D02*
X056309Y018732D01*
X056112Y018732D02*
X056112Y019224D01*
X055915Y019224D02*
X055915Y018732D01*
X055718Y018732D02*
X055718Y019224D01*
X055521Y019224D02*
X055521Y018732D01*
X055324Y018732D02*
X055324Y019224D01*
X055128Y019224D02*
X055128Y018732D01*
X054931Y018732D02*
X054931Y019224D01*
X054734Y019224D02*
X054734Y018732D01*
X054537Y018732D02*
X054537Y019224D01*
X054340Y019224D02*
X054340Y018732D01*
X054143Y018732D02*
X054143Y019224D01*
X053946Y019224D02*
X053946Y018732D01*
X053750Y018732D02*
X053750Y019224D01*
X053553Y019224D02*
X053553Y018732D01*
X053356Y018732D02*
X053356Y019224D01*
X053159Y019224D02*
X053159Y018732D01*
X052962Y018732D02*
X052962Y019224D01*
X052765Y019224D02*
X052765Y018732D01*
X052569Y018732D02*
X052569Y019224D01*
X052372Y019224D02*
X052372Y018732D01*
X052175Y018732D02*
X052175Y019224D01*
X051978Y019224D02*
X051978Y018732D01*
X051781Y018732D02*
X051781Y019224D01*
X051584Y019224D02*
X051584Y018732D01*
X051387Y018732D02*
X051387Y019224D01*
X051191Y019224D02*
X051191Y018732D01*
X050994Y018732D02*
X050994Y019224D01*
X050797Y019224D02*
X050797Y018732D01*
X050600Y018732D02*
X050600Y019224D01*
X050403Y019224D02*
X050403Y018732D01*
X050206Y018732D02*
X050206Y019224D01*
D12*
X034651Y012701D03*
X033901Y012701D03*
X033901Y012101D03*
X034651Y012101D03*
X034901Y004701D03*
X034901Y004101D03*
X034151Y004101D03*
X034151Y004701D03*
X033401Y004701D03*
X033401Y004101D03*
X036401Y004101D03*
X036401Y004701D03*
X041651Y003201D03*
X041651Y002601D03*
X041651Y001701D03*
X041651Y001101D03*
X050651Y001101D03*
X050651Y001701D03*
X050651Y002601D03*
X050651Y003201D03*
X050651Y004101D03*
X050651Y004701D03*
X050651Y005601D03*
X050651Y006201D03*
X021526Y015726D03*
X021526Y016326D03*
X020776Y016326D03*
X020776Y015726D03*
X021401Y019351D03*
X021401Y019951D03*
X011151Y017451D03*
X011151Y016851D03*
X010401Y016851D03*
X010401Y017451D03*
X010401Y015951D03*
X010401Y015351D03*
X011151Y015351D03*
X011151Y015951D03*
X006401Y016101D03*
X006401Y016701D03*
X005651Y016701D03*
X005651Y016101D03*
X005651Y015201D03*
X005651Y014601D03*
X006401Y014601D03*
X006401Y015201D03*
X010151Y029976D03*
X010901Y029976D03*
X011651Y029976D03*
X011651Y030576D03*
X010901Y030576D03*
X010151Y030576D03*
X010151Y031351D03*
X010151Y031951D03*
X010901Y031951D03*
X010901Y031351D03*
X011651Y031351D03*
X011651Y031951D03*
X015651Y031951D03*
X015651Y031351D03*
X016401Y031351D03*
X016401Y031951D03*
X017151Y031951D03*
X017151Y031351D03*
X017151Y030576D03*
X016401Y030576D03*
X015651Y030576D03*
X015651Y029976D03*
X016401Y029976D03*
X017151Y029976D03*
X023151Y030601D03*
X023151Y031201D03*
X023901Y031201D03*
X023901Y030601D03*
X023901Y032101D03*
X023901Y032701D03*
X023151Y032701D03*
X023151Y032101D03*
X027901Y032101D03*
X027901Y032701D03*
X028651Y032701D03*
X028651Y032101D03*
X028651Y031201D03*
X028651Y030601D03*
X027901Y030601D03*
X027901Y031201D03*
X036151Y031851D03*
X036151Y032451D03*
X036901Y032451D03*
X036901Y031851D03*
X052901Y031826D03*
X052901Y031226D03*
X053901Y031226D03*
X053901Y031826D03*
X054901Y031826D03*
X054901Y031226D03*
D13*
X055526Y015651D03*
X051776Y015651D03*
D14*
X050078Y033488D03*
X050078Y033744D03*
X050078Y034000D03*
X050078Y034256D03*
X050078Y034511D03*
X050078Y034767D03*
X050078Y035023D03*
X050078Y035279D03*
X050078Y035535D03*
X050078Y035791D03*
X050078Y036047D03*
X050078Y036303D03*
X050078Y036559D03*
X050078Y036815D03*
X047224Y036815D03*
X047224Y036559D03*
X047224Y036303D03*
X047224Y036047D03*
X047224Y035791D03*
X047224Y035535D03*
X047224Y035279D03*
X047224Y035023D03*
X047224Y034767D03*
X047224Y034511D03*
X047224Y034256D03*
X047224Y034000D03*
X047224Y033744D03*
X047224Y033488D03*
D15*
X045175Y035401D03*
X045175Y035901D03*
X045175Y036401D03*
X045175Y036901D03*
X043128Y036901D03*
X043128Y036401D03*
X043128Y035901D03*
X043128Y035401D03*
X026925Y032151D03*
X026925Y031651D03*
X026925Y031151D03*
X026925Y030651D03*
X024878Y030651D03*
X024878Y031151D03*
X024878Y031651D03*
X024878Y032151D03*
X014675Y031901D03*
X014675Y031401D03*
X014675Y030901D03*
X014675Y030401D03*
X012628Y030401D03*
X012628Y030901D03*
X012628Y031401D03*
X012628Y031901D03*
X009425Y016651D03*
X009425Y016151D03*
X009425Y015651D03*
X009425Y015151D03*
X007378Y015151D03*
X007378Y015651D03*
X007378Y016151D03*
X007378Y016651D03*
D16*
X008101Y017401D03*
X008701Y017401D03*
X020851Y014901D03*
X021451Y014901D03*
X028601Y015526D03*
X029201Y015526D03*
X027451Y022151D03*
X026851Y022151D03*
X023451Y021901D03*
X022851Y021901D03*
X016701Y029151D03*
X016101Y029151D03*
X015201Y029151D03*
X014601Y029151D03*
X012701Y029151D03*
X012101Y029151D03*
X011201Y029151D03*
X010601Y029151D03*
X010976Y032651D03*
X011576Y032651D03*
X012476Y032651D03*
X013076Y032651D03*
X014226Y032651D03*
X014826Y032651D03*
X015726Y032651D03*
X016326Y032651D03*
X035351Y025651D03*
X035951Y025651D03*
X042601Y028401D03*
X043201Y028401D03*
X043201Y029151D03*
X042601Y029151D03*
X043226Y029901D03*
X043826Y029901D03*
X043201Y030651D03*
X042601Y030651D03*
X043851Y034651D03*
X044451Y034651D03*
X044601Y037651D03*
X045201Y037651D03*
X043701Y037651D03*
X043101Y037651D03*
X059101Y021651D03*
X059701Y021651D03*
D17*
X044651Y033651D03*
X043651Y033651D03*
X052651Y037776D03*
X053651Y037776D03*
X023651Y022901D03*
X022651Y022901D03*
X015401Y033651D03*
X014401Y033651D03*
X012901Y033651D03*
X011901Y033651D03*
D18*
X057151Y033401D03*
X057651Y033401D03*
X058151Y033401D03*
X058651Y033401D03*
X059151Y033401D03*
X059651Y033401D03*
X060151Y033401D03*
D19*
X058651Y036651D03*
D20*
X064151Y034923D03*
X064151Y031380D03*
D21*
X058151Y031651D03*
X057151Y031651D03*
X053651Y036526D03*
X052651Y036526D03*
X039151Y034901D03*
X038151Y034901D03*
X038151Y033651D03*
X039151Y033651D03*
X026401Y033151D03*
X025401Y033151D03*
D22*
X059351Y031651D03*
X060451Y031651D03*
D23*
X054811Y035246D03*
X053901Y035246D03*
X052991Y035246D03*
D24*
X053901Y032806D03*
D25*
X054901Y036526D03*
X054901Y037526D03*
X041651Y033651D03*
X041651Y032651D03*
X041651Y031151D03*
X041651Y030151D03*
X036526Y033776D03*
X036526Y034776D03*
X020401Y020151D03*
X020401Y019151D03*
X012151Y017401D03*
X012151Y016401D03*
D26*
X056025Y010381D03*
X057009Y010381D03*
X057993Y010381D03*
X058977Y010381D03*
X059962Y010381D03*
X060946Y010381D03*
X061930Y010381D03*
X062914Y010381D03*
D27*
X055395Y010381D03*
X054883Y010381D03*
X054411Y010381D03*
D28*
X053741Y009632D03*
X063820Y009672D03*
X064765Y001444D03*
X053781Y001444D03*
D29*
X052151Y004462D03*
X052151Y005840D03*
D30*
X005901Y002628D03*
X006401Y002628D03*
X006901Y002628D03*
X007401Y002628D03*
X007901Y002628D03*
X008401Y002628D03*
X008901Y002628D03*
X009401Y002628D03*
X010401Y002628D03*
X010901Y002628D03*
X011401Y002628D03*
X011901Y002628D03*
X012401Y002628D03*
X012901Y002628D03*
X013401Y002628D03*
X013901Y002628D03*
X014901Y002628D03*
X015401Y002628D03*
X015901Y002628D03*
X016401Y002628D03*
X016901Y002628D03*
X017401Y002628D03*
X017901Y002628D03*
X018401Y002628D03*
X018401Y004675D03*
X017901Y004675D03*
X017401Y004675D03*
X016901Y004675D03*
X016401Y004675D03*
X015901Y004675D03*
X015401Y004675D03*
X014901Y004675D03*
X013901Y004675D03*
X013401Y004675D03*
X012901Y004675D03*
X012401Y004675D03*
X011901Y004675D03*
X011401Y004675D03*
X010901Y004675D03*
X010401Y004675D03*
X009401Y004675D03*
X008901Y004675D03*
X008401Y004675D03*
X007901Y004675D03*
X007401Y004675D03*
X006901Y004675D03*
X006401Y004675D03*
X005901Y004675D03*
X040151Y025378D03*
X040651Y025378D03*
X041151Y025378D03*
X041651Y025378D03*
X041651Y027425D03*
X041151Y027425D03*
X040651Y027425D03*
X040151Y027425D03*
D31*
X040371Y029741D03*
X040371Y030651D03*
X040371Y031561D03*
D32*
X037931Y030651D03*
D33*
X040401Y032651D03*
X040401Y033651D03*
D34*
X034151Y028301D03*
X034151Y027001D03*
D35*
X038777Y028584D03*
X039525Y028584D03*
X039151Y027718D03*
D36*
X038029Y027720D02*
X037759Y027720D01*
X037759Y027733D02*
X037735Y027894D01*
X037686Y028050D01*
X037616Y028197D01*
X037524Y028332D01*
X037412Y028452D01*
X037285Y028554D01*
X037143Y028635D01*
X037143Y029029D01*
X038029Y029029D01*
X038029Y026273D01*
X037143Y026273D01*
X037143Y026667D01*
X037285Y026749D01*
X037412Y026850D01*
X037524Y026970D01*
X037616Y027105D01*
X037686Y027252D01*
X037735Y027408D01*
X037759Y027570D01*
X037759Y027733D01*
X037749Y027798D02*
X038029Y027798D01*
X038029Y027877D02*
X037737Y027877D01*
X037716Y027956D02*
X038029Y027956D01*
X038029Y028034D02*
X037691Y028034D01*
X037656Y028113D02*
X038029Y028113D01*
X038029Y028191D02*
X037619Y028191D01*
X037566Y028270D02*
X038029Y028270D01*
X038029Y028348D02*
X037509Y028348D01*
X037436Y028427D02*
X038029Y028427D01*
X038029Y028505D02*
X037346Y028505D01*
X037233Y028584D02*
X038029Y028584D01*
X038029Y028662D02*
X037143Y028662D01*
X037143Y028741D02*
X038029Y028741D01*
X038029Y028819D02*
X037143Y028819D01*
X037143Y028898D02*
X038029Y028898D01*
X038029Y028977D02*
X037143Y028977D01*
X036159Y028977D02*
X035273Y028977D01*
X035273Y029029D02*
X036159Y029029D01*
X036159Y028635D01*
X036022Y028562D01*
X035897Y028471D01*
X035787Y028362D01*
X035693Y028238D01*
X035618Y028102D01*
X035564Y027957D01*
X035530Y027806D01*
X035519Y027651D01*
X035530Y027497D01*
X035564Y027345D01*
X035618Y027200D01*
X035693Y027064D01*
X035787Y026941D01*
X035897Y026832D01*
X036022Y026740D01*
X036159Y026667D01*
X036159Y026273D01*
X035273Y026273D01*
X035273Y029029D01*
X035273Y028898D02*
X036159Y028898D01*
X036159Y028819D02*
X035273Y028819D01*
X035273Y028741D02*
X036159Y028741D01*
X036159Y028662D02*
X035273Y028662D01*
X035273Y028584D02*
X036062Y028584D01*
X035945Y028505D02*
X035273Y028505D01*
X035273Y028427D02*
X035853Y028427D01*
X035777Y028348D02*
X035273Y028348D01*
X035273Y028270D02*
X035717Y028270D01*
X035667Y028191D02*
X035273Y028191D01*
X035273Y028113D02*
X035624Y028113D01*
X035593Y028034D02*
X035273Y028034D01*
X035273Y027956D02*
X035563Y027956D01*
X035546Y027877D02*
X035273Y027877D01*
X035273Y027798D02*
X035530Y027798D01*
X035524Y027720D02*
X035273Y027720D01*
X035273Y027641D02*
X035520Y027641D01*
X035526Y027563D02*
X035273Y027563D01*
X035273Y027484D02*
X035533Y027484D01*
X035550Y027406D02*
X035273Y027406D01*
X035273Y027327D02*
X035570Y027327D01*
X035600Y027249D02*
X035273Y027249D01*
X035273Y027170D02*
X035635Y027170D01*
X035678Y027092D02*
X035273Y027092D01*
X035273Y027013D02*
X035732Y027013D01*
X035793Y026934D02*
X035273Y026934D01*
X035273Y026856D02*
X035873Y026856D01*
X035971Y026777D02*
X035273Y026777D01*
X035273Y026699D02*
X036099Y026699D01*
X036159Y026620D02*
X035273Y026620D01*
X035273Y026542D02*
X036159Y026542D01*
X036159Y026463D02*
X035273Y026463D01*
X035273Y026385D02*
X036159Y026385D01*
X036159Y026306D02*
X035273Y026306D01*
X037143Y026306D02*
X038029Y026306D01*
X038029Y026385D02*
X037143Y026385D01*
X037143Y026463D02*
X038029Y026463D01*
X038029Y026542D02*
X037143Y026542D01*
X037143Y026620D02*
X038029Y026620D01*
X038029Y026699D02*
X037199Y026699D01*
X037321Y026777D02*
X038029Y026777D01*
X038029Y026856D02*
X037418Y026856D01*
X037491Y026934D02*
X038029Y026934D01*
X038029Y027013D02*
X037553Y027013D01*
X037606Y027092D02*
X038029Y027092D01*
X038029Y027170D02*
X037647Y027170D01*
X037685Y027249D02*
X038029Y027249D01*
X038029Y027327D02*
X037710Y027327D01*
X037734Y027406D02*
X038029Y027406D01*
X038029Y027484D02*
X037746Y027484D01*
X037758Y027563D02*
X038029Y027563D01*
X038029Y027641D02*
X037759Y027641D01*
D37*
X033176Y026138D02*
X032626Y026138D01*
X032626Y026610D01*
X033176Y026610D01*
X033176Y026138D01*
X033176Y026255D02*
X032626Y026255D01*
X032626Y026372D02*
X033176Y026372D01*
X033176Y026489D02*
X032626Y026489D01*
X032626Y026606D02*
X033176Y026606D01*
X033176Y025193D02*
X032626Y025193D01*
X032626Y025665D01*
X033176Y025665D01*
X033176Y025193D01*
X033176Y025310D02*
X032626Y025310D01*
X032626Y025427D02*
X033176Y025427D01*
X033176Y025544D02*
X032626Y025544D01*
X032626Y025661D02*
X033176Y025661D01*
X032176Y025665D02*
X031626Y025665D01*
X032176Y025665D02*
X032176Y025193D01*
X031626Y025193D01*
X031626Y025665D01*
X031626Y025310D02*
X032176Y025310D01*
X032176Y025427D02*
X031626Y025427D01*
X031626Y025544D02*
X032176Y025544D01*
X032176Y025661D02*
X031626Y025661D01*
X031626Y026138D02*
X032176Y026138D01*
X031626Y026138D02*
X031626Y026610D01*
X032176Y026610D01*
X032176Y026138D01*
X032176Y026255D02*
X031626Y026255D01*
X031626Y026372D02*
X032176Y026372D01*
X032176Y026489D02*
X031626Y026489D01*
X031626Y026606D02*
X032176Y026606D01*
X029176Y014388D02*
X028626Y014388D01*
X028626Y014860D01*
X029176Y014860D01*
X029176Y014388D01*
X029176Y014505D02*
X028626Y014505D01*
X028626Y014622D02*
X029176Y014622D01*
X029176Y014739D02*
X028626Y014739D01*
X028626Y014856D02*
X029176Y014856D01*
X029176Y013443D02*
X028626Y013443D01*
X028626Y013915D01*
X029176Y013915D01*
X029176Y013443D01*
X029176Y013560D02*
X028626Y013560D01*
X028626Y013677D02*
X029176Y013677D01*
X029176Y013794D02*
X028626Y013794D01*
X028626Y013911D02*
X029176Y013911D01*
X028176Y013915D02*
X027626Y013915D01*
X028176Y013915D02*
X028176Y013443D01*
X027626Y013443D01*
X027626Y013915D01*
X027626Y013560D02*
X028176Y013560D01*
X028176Y013677D02*
X027626Y013677D01*
X027626Y013794D02*
X028176Y013794D01*
X028176Y013911D02*
X027626Y013911D01*
X027626Y014388D02*
X028176Y014388D01*
X027626Y014388D02*
X027626Y014860D01*
X028176Y014860D01*
X028176Y014388D01*
X028176Y014505D02*
X027626Y014505D01*
X027626Y014622D02*
X028176Y014622D01*
X028176Y014739D02*
X027626Y014739D01*
X027626Y014856D02*
X028176Y014856D01*
D38*
X037057Y011297D03*
X037372Y011297D03*
X037687Y011297D03*
X038002Y011297D03*
X038317Y011297D03*
X038631Y011297D03*
X038946Y011297D03*
X039261Y011297D03*
X039576Y011297D03*
X039891Y011297D03*
X040206Y011297D03*
X040521Y011297D03*
X040836Y011297D03*
X041151Y011297D03*
X041466Y011297D03*
X041781Y011297D03*
X042096Y011297D03*
X042411Y011297D03*
X042726Y011297D03*
X043041Y011297D03*
X043356Y011297D03*
X043671Y011297D03*
X043986Y011297D03*
X044301Y011297D03*
X044616Y011297D03*
X044931Y011297D03*
X045246Y011297D03*
X045246Y007006D03*
X044931Y007006D03*
X044616Y007006D03*
X044301Y007006D03*
X043986Y007006D03*
X043671Y007006D03*
X043356Y007006D03*
X043041Y007006D03*
X042726Y007006D03*
X042411Y007006D03*
X042096Y007006D03*
X041781Y007006D03*
X041466Y007006D03*
X041151Y007006D03*
X040836Y007006D03*
X040521Y007006D03*
X040206Y007006D03*
X039891Y007006D03*
X039576Y007006D03*
X039261Y007006D03*
X038946Y007006D03*
X038631Y007006D03*
X038317Y007006D03*
X038002Y007006D03*
X037687Y007006D03*
X037372Y007006D03*
X037057Y007006D03*
D39*
X042901Y026001D03*
X042901Y027301D03*
D40*
X027070Y020946D03*
X026815Y020946D03*
X026559Y020946D03*
X026303Y020946D03*
X026047Y020946D03*
X025791Y020946D03*
X025535Y020946D03*
X025279Y020946D03*
X025023Y020946D03*
X024767Y020946D03*
X024511Y020946D03*
X024256Y020946D03*
X024000Y020946D03*
X023744Y020946D03*
X023488Y020946D03*
X023232Y020946D03*
X023232Y015356D03*
X023488Y015356D03*
X023744Y015356D03*
X024000Y015356D03*
X024256Y015356D03*
X024511Y015356D03*
X024767Y015356D03*
X025023Y015356D03*
X025279Y015356D03*
X025535Y015356D03*
X025791Y015356D03*
X026047Y015356D03*
X026303Y015356D03*
X026559Y015356D03*
X026815Y015356D03*
X027070Y015356D03*
D41*
X027946Y016232D03*
X027946Y016488D03*
X027946Y016744D03*
X027946Y017000D03*
X027946Y017256D03*
X027946Y017511D03*
X027946Y017767D03*
X027946Y018023D03*
X027946Y018279D03*
X027946Y018535D03*
X027946Y018791D03*
X027946Y019047D03*
X027946Y019303D03*
X027946Y019559D03*
X027946Y019815D03*
X027946Y020070D03*
X022356Y020070D03*
X022356Y019815D03*
X022356Y019559D03*
X022356Y019303D03*
X022356Y019047D03*
X022356Y018791D03*
X022356Y018535D03*
X022356Y018279D03*
X022356Y018023D03*
X022356Y017767D03*
X022356Y017511D03*
X022356Y017256D03*
X022356Y017000D03*
X022356Y016744D03*
X022356Y016488D03*
X022356Y016232D03*
D42*
X036151Y030238D03*
X036901Y030238D03*
X036901Y031065D03*
X036151Y031065D03*
D43*
X027547Y004754D03*
X027291Y004754D03*
X027035Y004754D03*
X026779Y004754D03*
X026523Y004754D03*
X026267Y004754D03*
X026011Y004754D03*
X025756Y004754D03*
X024547Y004754D03*
X024291Y004754D03*
X024035Y004754D03*
X023779Y004754D03*
X023523Y004754D03*
X023267Y004754D03*
X023011Y004754D03*
X022756Y004754D03*
X021297Y004754D03*
X021041Y004754D03*
X020785Y004754D03*
X020529Y004754D03*
X020273Y004754D03*
X020017Y004754D03*
X019761Y004754D03*
X019506Y004754D03*
X019506Y002549D03*
X019761Y002549D03*
X020017Y002549D03*
X020273Y002549D03*
X020529Y002549D03*
X020785Y002549D03*
X021041Y002549D03*
X021297Y002549D03*
X022756Y002549D03*
X023011Y002549D03*
X023267Y002549D03*
X023523Y002549D03*
X023779Y002549D03*
X024035Y002549D03*
X024291Y002549D03*
X024547Y002549D03*
X025756Y002549D03*
X026011Y002549D03*
X026267Y002549D03*
X026523Y002549D03*
X026779Y002549D03*
X027035Y002549D03*
X027291Y002549D03*
X027547Y002549D03*
D44*
X016151Y008941D03*
X015651Y008941D03*
X015151Y008941D03*
X014651Y008941D03*
X014151Y008941D03*
X013651Y008941D03*
X013151Y008941D03*
X013151Y011361D03*
X013651Y011361D03*
X014151Y011361D03*
X014651Y011361D03*
X015151Y011361D03*
X015651Y011361D03*
X016151Y011361D03*
X009651Y011361D03*
X009151Y011361D03*
X008651Y011361D03*
X008151Y011361D03*
X007651Y011361D03*
X007151Y011361D03*
X006651Y011361D03*
X006651Y008941D03*
X007151Y008941D03*
X007651Y008941D03*
X008151Y008941D03*
X008651Y008941D03*
X009151Y008941D03*
X009651Y008941D03*
M02*
