G75*
G70*
%OFA0B0*%
%FSLAX24Y24*%
%IPPOS*%
%LPD*%
%AMOC8*
5,1,8,0,0,1.08239X$1,22.5*
%
%ADD10C,0.0000*%
%ADD11R,0.0315X0.0354*%
%ADD12R,0.0551X0.0551*%
%ADD13R,0.0591X0.0118*%
%ADD14R,0.0354X0.0315*%
%ADD15R,0.0551X0.0748*%
%ADD16R,0.0748X0.0551*%
%ADD17C,0.0600*%
%ADD18OC8,0.0554*%
%ADD19R,0.0591X0.0591*%
%ADD20C,0.0436*%
%ADD21OC8,0.1000*%
%ADD22R,0.0600X0.0600*%
%ADD23OC8,0.0600*%
%ADD24R,0.0394X0.0551*%
%ADD25C,0.0100*%
%ADD26C,0.0160*%
%ADD27C,0.0310*%
%ADD28C,0.0080*%
%ADD29C,0.0240*%
%ADD30C,0.0060*%
D10*
X000151Y001280D02*
X000151Y045280D01*
X068151Y045280D01*
X068151Y001280D01*
X000151Y001280D01*
X000521Y002280D02*
X000523Y002330D01*
X000529Y002380D01*
X000539Y002429D01*
X000553Y002477D01*
X000570Y002524D01*
X000591Y002569D01*
X000616Y002613D01*
X000644Y002654D01*
X000676Y002693D01*
X000710Y002730D01*
X000747Y002764D01*
X000787Y002794D01*
X000829Y002821D01*
X000873Y002845D01*
X000919Y002866D01*
X000966Y002882D01*
X001014Y002895D01*
X001064Y002904D01*
X001113Y002909D01*
X001164Y002910D01*
X001214Y002907D01*
X001263Y002900D01*
X001312Y002889D01*
X001360Y002874D01*
X001406Y002856D01*
X001451Y002834D01*
X001494Y002808D01*
X001535Y002779D01*
X001574Y002747D01*
X001610Y002712D01*
X001642Y002674D01*
X001672Y002634D01*
X001699Y002591D01*
X001722Y002547D01*
X001741Y002501D01*
X001757Y002453D01*
X001769Y002404D01*
X001777Y002355D01*
X001781Y002305D01*
X001781Y002255D01*
X001777Y002205D01*
X001769Y002156D01*
X001757Y002107D01*
X001741Y002059D01*
X001722Y002013D01*
X001699Y001969D01*
X001672Y001926D01*
X001642Y001886D01*
X001610Y001848D01*
X001574Y001813D01*
X001535Y001781D01*
X001494Y001752D01*
X001451Y001726D01*
X001406Y001704D01*
X001360Y001686D01*
X001312Y001671D01*
X001263Y001660D01*
X001214Y001653D01*
X001164Y001650D01*
X001113Y001651D01*
X001064Y001656D01*
X001014Y001665D01*
X000966Y001678D01*
X000919Y001694D01*
X000873Y001715D01*
X000829Y001739D01*
X000787Y001766D01*
X000747Y001796D01*
X000710Y001830D01*
X000676Y001867D01*
X000644Y001906D01*
X000616Y001947D01*
X000591Y001991D01*
X000570Y002036D01*
X000553Y002083D01*
X000539Y002131D01*
X000529Y002180D01*
X000523Y002230D01*
X000521Y002280D01*
X000521Y044280D02*
X000523Y044330D01*
X000529Y044380D01*
X000539Y044429D01*
X000553Y044477D01*
X000570Y044524D01*
X000591Y044569D01*
X000616Y044613D01*
X000644Y044654D01*
X000676Y044693D01*
X000710Y044730D01*
X000747Y044764D01*
X000787Y044794D01*
X000829Y044821D01*
X000873Y044845D01*
X000919Y044866D01*
X000966Y044882D01*
X001014Y044895D01*
X001064Y044904D01*
X001113Y044909D01*
X001164Y044910D01*
X001214Y044907D01*
X001263Y044900D01*
X001312Y044889D01*
X001360Y044874D01*
X001406Y044856D01*
X001451Y044834D01*
X001494Y044808D01*
X001535Y044779D01*
X001574Y044747D01*
X001610Y044712D01*
X001642Y044674D01*
X001672Y044634D01*
X001699Y044591D01*
X001722Y044547D01*
X001741Y044501D01*
X001757Y044453D01*
X001769Y044404D01*
X001777Y044355D01*
X001781Y044305D01*
X001781Y044255D01*
X001777Y044205D01*
X001769Y044156D01*
X001757Y044107D01*
X001741Y044059D01*
X001722Y044013D01*
X001699Y043969D01*
X001672Y043926D01*
X001642Y043886D01*
X001610Y043848D01*
X001574Y043813D01*
X001535Y043781D01*
X001494Y043752D01*
X001451Y043726D01*
X001406Y043704D01*
X001360Y043686D01*
X001312Y043671D01*
X001263Y043660D01*
X001214Y043653D01*
X001164Y043650D01*
X001113Y043651D01*
X001064Y043656D01*
X001014Y043665D01*
X000966Y043678D01*
X000919Y043694D01*
X000873Y043715D01*
X000829Y043739D01*
X000787Y043766D01*
X000747Y043796D01*
X000710Y043830D01*
X000676Y043867D01*
X000644Y043906D01*
X000616Y043947D01*
X000591Y043991D01*
X000570Y044036D01*
X000553Y044083D01*
X000539Y044131D01*
X000529Y044180D01*
X000523Y044230D01*
X000521Y044280D01*
X066521Y044280D02*
X066523Y044330D01*
X066529Y044380D01*
X066539Y044429D01*
X066553Y044477D01*
X066570Y044524D01*
X066591Y044569D01*
X066616Y044613D01*
X066644Y044654D01*
X066676Y044693D01*
X066710Y044730D01*
X066747Y044764D01*
X066787Y044794D01*
X066829Y044821D01*
X066873Y044845D01*
X066919Y044866D01*
X066966Y044882D01*
X067014Y044895D01*
X067064Y044904D01*
X067113Y044909D01*
X067164Y044910D01*
X067214Y044907D01*
X067263Y044900D01*
X067312Y044889D01*
X067360Y044874D01*
X067406Y044856D01*
X067451Y044834D01*
X067494Y044808D01*
X067535Y044779D01*
X067574Y044747D01*
X067610Y044712D01*
X067642Y044674D01*
X067672Y044634D01*
X067699Y044591D01*
X067722Y044547D01*
X067741Y044501D01*
X067757Y044453D01*
X067769Y044404D01*
X067777Y044355D01*
X067781Y044305D01*
X067781Y044255D01*
X067777Y044205D01*
X067769Y044156D01*
X067757Y044107D01*
X067741Y044059D01*
X067722Y044013D01*
X067699Y043969D01*
X067672Y043926D01*
X067642Y043886D01*
X067610Y043848D01*
X067574Y043813D01*
X067535Y043781D01*
X067494Y043752D01*
X067451Y043726D01*
X067406Y043704D01*
X067360Y043686D01*
X067312Y043671D01*
X067263Y043660D01*
X067214Y043653D01*
X067164Y043650D01*
X067113Y043651D01*
X067064Y043656D01*
X067014Y043665D01*
X066966Y043678D01*
X066919Y043694D01*
X066873Y043715D01*
X066829Y043739D01*
X066787Y043766D01*
X066747Y043796D01*
X066710Y043830D01*
X066676Y043867D01*
X066644Y043906D01*
X066616Y043947D01*
X066591Y043991D01*
X066570Y044036D01*
X066553Y044083D01*
X066539Y044131D01*
X066529Y044180D01*
X066523Y044230D01*
X066521Y044280D01*
X066521Y002280D02*
X066523Y002330D01*
X066529Y002380D01*
X066539Y002429D01*
X066553Y002477D01*
X066570Y002524D01*
X066591Y002569D01*
X066616Y002613D01*
X066644Y002654D01*
X066676Y002693D01*
X066710Y002730D01*
X066747Y002764D01*
X066787Y002794D01*
X066829Y002821D01*
X066873Y002845D01*
X066919Y002866D01*
X066966Y002882D01*
X067014Y002895D01*
X067064Y002904D01*
X067113Y002909D01*
X067164Y002910D01*
X067214Y002907D01*
X067263Y002900D01*
X067312Y002889D01*
X067360Y002874D01*
X067406Y002856D01*
X067451Y002834D01*
X067494Y002808D01*
X067535Y002779D01*
X067574Y002747D01*
X067610Y002712D01*
X067642Y002674D01*
X067672Y002634D01*
X067699Y002591D01*
X067722Y002547D01*
X067741Y002501D01*
X067757Y002453D01*
X067769Y002404D01*
X067777Y002355D01*
X067781Y002305D01*
X067781Y002255D01*
X067777Y002205D01*
X067769Y002156D01*
X067757Y002107D01*
X067741Y002059D01*
X067722Y002013D01*
X067699Y001969D01*
X067672Y001926D01*
X067642Y001886D01*
X067610Y001848D01*
X067574Y001813D01*
X067535Y001781D01*
X067494Y001752D01*
X067451Y001726D01*
X067406Y001704D01*
X067360Y001686D01*
X067312Y001671D01*
X067263Y001660D01*
X067214Y001653D01*
X067164Y001650D01*
X067113Y001651D01*
X067064Y001656D01*
X067014Y001665D01*
X066966Y001678D01*
X066919Y001694D01*
X066873Y001715D01*
X066829Y001739D01*
X066787Y001766D01*
X066747Y001796D01*
X066710Y001830D01*
X066676Y001867D01*
X066644Y001906D01*
X066616Y001947D01*
X066591Y001991D01*
X066570Y002036D01*
X066553Y002083D01*
X066539Y002131D01*
X066529Y002180D01*
X066523Y002230D01*
X066521Y002280D01*
D11*
X030651Y004730D03*
X030651Y005330D03*
X023151Y005330D03*
X023151Y004730D03*
X015651Y004730D03*
X015651Y005330D03*
X008151Y005330D03*
X008151Y004730D03*
X052151Y032480D03*
X052151Y033080D03*
X053151Y035230D03*
X053901Y035230D03*
X053901Y035830D03*
X053151Y035830D03*
X052901Y038480D03*
X053651Y038480D03*
X053651Y039080D03*
X052901Y039080D03*
X051901Y039080D03*
X051151Y039080D03*
X051151Y038480D03*
X051901Y038480D03*
X049651Y038480D03*
X048901Y038480D03*
X047901Y038480D03*
X047151Y038480D03*
X047151Y039080D03*
X047901Y039080D03*
X048901Y039080D03*
X049651Y039080D03*
X045651Y039080D03*
X044901Y039080D03*
X044901Y038480D03*
X045651Y038480D03*
X043901Y038480D03*
X043151Y038480D03*
X043151Y039080D03*
X043901Y039080D03*
X041651Y039080D03*
X040901Y039080D03*
X040901Y038480D03*
X041651Y038480D03*
X055151Y038480D03*
X055151Y039080D03*
X055901Y039080D03*
X055901Y038480D03*
X060401Y036330D03*
X060401Y035730D03*
D12*
X054401Y038030D03*
X054401Y039530D03*
X050401Y039530D03*
X050401Y038030D03*
X046401Y038030D03*
X046401Y039530D03*
X042401Y039530D03*
X042401Y038030D03*
D13*
X053049Y034426D03*
X053049Y034170D03*
X053049Y033914D03*
X053049Y033658D03*
X053049Y033402D03*
X053049Y033146D03*
X053049Y032890D03*
X053049Y032634D03*
X055254Y032634D03*
X055254Y032890D03*
X055254Y033146D03*
X055254Y033402D03*
X055254Y033658D03*
X055254Y033914D03*
X055254Y034170D03*
X055254Y034426D03*
D14*
X056101Y034030D03*
X056701Y034030D03*
X062851Y041280D03*
X063451Y041280D03*
X059201Y043780D03*
X058601Y043780D03*
X058601Y044530D03*
X059201Y044530D03*
X050701Y016280D03*
X050101Y016280D03*
X050101Y015530D03*
X050701Y015530D03*
X050701Y014780D03*
X050101Y014780D03*
X050101Y014030D03*
X050701Y014030D03*
X050701Y013280D03*
X050101Y013280D03*
X038201Y013280D03*
X037601Y013280D03*
X037601Y014030D03*
X038201Y014030D03*
X038201Y014780D03*
X037601Y014780D03*
X037601Y015530D03*
X038201Y015530D03*
X038201Y016280D03*
X037601Y016280D03*
X043851Y005030D03*
X044451Y005030D03*
X044451Y004280D03*
X043851Y004280D03*
X043851Y003530D03*
X044451Y003530D03*
X044451Y002780D03*
X043851Y002780D03*
X043851Y002030D03*
X044451Y002030D03*
X056351Y002030D03*
X056951Y002030D03*
X056951Y002780D03*
X056351Y002780D03*
X056351Y003530D03*
X056951Y003530D03*
X056951Y004280D03*
X056351Y004280D03*
X056351Y005030D03*
X056951Y005030D03*
D15*
X057401Y035030D03*
X056401Y035030D03*
D16*
X051151Y033280D03*
X051151Y032280D03*
D17*
X026151Y024580D02*
X026151Y023980D01*
X025151Y023980D02*
X025151Y024580D01*
X024151Y024580D02*
X024151Y023980D01*
X023151Y023980D02*
X023151Y024580D01*
X022151Y024580D02*
X022151Y023980D01*
X021151Y023980D02*
X021151Y024580D01*
X020151Y024580D02*
X020151Y023980D01*
X019151Y023980D02*
X019151Y024580D01*
X018151Y024580D02*
X018151Y023980D01*
X017151Y023980D02*
X017151Y024580D01*
X016151Y024580D02*
X016151Y023980D01*
X015151Y023980D02*
X015151Y024580D01*
X014151Y024580D02*
X014151Y023980D01*
X013151Y023980D02*
X013151Y024580D01*
X012151Y024580D02*
X012151Y023980D01*
X011151Y023980D02*
X011151Y024580D01*
X010151Y024580D02*
X010151Y023980D01*
X009151Y023980D02*
X009151Y024580D01*
X008151Y024580D02*
X008151Y023980D01*
X007151Y023980D02*
X007151Y024580D01*
D18*
X006582Y004764D03*
X004220Y004764D03*
X004220Y002796D03*
X006582Y002796D03*
X011720Y002796D03*
X014082Y002796D03*
X014082Y004764D03*
X011720Y004764D03*
X019220Y004764D03*
X021582Y004764D03*
X021582Y002796D03*
X019220Y002796D03*
X026720Y002796D03*
X029082Y002796D03*
X029082Y004764D03*
X026720Y004764D03*
X061970Y036296D03*
X061970Y038264D03*
X064332Y038264D03*
X064332Y036296D03*
D19*
X063840Y040280D03*
X062462Y040280D03*
D20*
X055651Y015030D02*
X055651Y014594D01*
X055151Y014594D02*
X055151Y015030D01*
X054651Y015030D02*
X054651Y014594D01*
X054151Y014594D02*
X054151Y015030D01*
X053651Y015030D02*
X053651Y014594D01*
X053151Y014594D02*
X053151Y015030D01*
X043151Y015030D02*
X043151Y014594D01*
X042651Y014594D02*
X042651Y015030D01*
X042151Y015030D02*
X042151Y014594D01*
X041651Y014594D02*
X041651Y015030D01*
X041151Y015030D02*
X041151Y014594D01*
X040651Y014594D02*
X040651Y015030D01*
X046901Y003780D02*
X046901Y003344D01*
X047401Y003344D02*
X047401Y003780D01*
X047901Y003780D02*
X047901Y003344D01*
X048401Y003344D02*
X048401Y003780D01*
X048901Y003780D02*
X048901Y003344D01*
X049401Y003344D02*
X049401Y003780D01*
X059401Y003780D02*
X059401Y003344D01*
X059901Y003344D02*
X059901Y003780D01*
X060401Y003780D02*
X060401Y003344D01*
X060901Y003344D02*
X060901Y003780D01*
X061401Y003780D02*
X061401Y003344D01*
X061901Y003344D02*
X061901Y003780D01*
D21*
X055084Y041170D03*
X055084Y043335D03*
X054297Y044280D03*
X051084Y043335D03*
X050297Y044280D03*
X047084Y043335D03*
X046297Y044280D03*
X043084Y043335D03*
X042297Y044280D03*
X043084Y041170D03*
X047084Y041170D03*
X051084Y041170D03*
D22*
X038151Y044280D03*
X065901Y018530D03*
D23*
X066901Y018530D03*
X066901Y017530D03*
X065901Y017530D03*
X065901Y016530D03*
X066901Y016530D03*
X066901Y015530D03*
X065901Y015530D03*
X065901Y014530D03*
X066901Y014530D03*
X066901Y013530D03*
X065901Y013530D03*
X065901Y012530D03*
X066901Y012530D03*
X066901Y011530D03*
X065901Y011530D03*
X065901Y010530D03*
X066901Y010530D03*
X066901Y009530D03*
X065901Y009530D03*
X065901Y008530D03*
X066901Y008530D03*
X066901Y007530D03*
X065901Y007530D03*
X065901Y006530D03*
X066901Y006530D03*
X066901Y005530D03*
X065901Y005530D03*
X039151Y037280D03*
X038151Y037280D03*
X038151Y038280D03*
X039151Y038280D03*
X039151Y039280D03*
X038151Y039280D03*
X038151Y040280D03*
X039151Y040280D03*
X039151Y041280D03*
X038151Y041280D03*
X038151Y042280D03*
X039151Y042280D03*
X039151Y043280D03*
X038151Y043280D03*
X039151Y044280D03*
D24*
X054527Y035963D03*
X055275Y035963D03*
X054901Y035097D03*
D25*
X054527Y035406D02*
X054401Y035280D01*
X054351Y035230D01*
X053901Y035230D01*
X054401Y035280D02*
X054401Y034780D01*
X054756Y034426D01*
X054776Y034405D01*
X054776Y033530D01*
X054151Y033530D01*
X053901Y033280D01*
X053526Y033280D01*
X053526Y032780D01*
X053381Y032634D01*
X053049Y032634D01*
X053049Y032890D02*
X052541Y032890D01*
X052526Y032875D01*
X052660Y033146D02*
X052401Y033405D01*
X052026Y033405D01*
X051401Y034030D01*
X050776Y034030D01*
X050526Y033780D01*
X050526Y031905D01*
X051526Y030905D01*
X057276Y030905D01*
X061401Y026780D01*
X061401Y023030D01*
X061901Y023530D02*
X061901Y026780D01*
X056047Y032634D01*
X055254Y032634D01*
X055254Y032890D02*
X056291Y032890D01*
X062401Y026780D01*
X062401Y023530D01*
X061901Y023530D02*
X061901Y013530D01*
X065901Y009530D01*
X065651Y010030D02*
X062401Y013280D01*
X062401Y023030D01*
X061401Y022530D02*
X061401Y013030D01*
X065901Y008530D01*
X066901Y009530D02*
X066401Y010030D01*
X065651Y010030D01*
X065901Y010530D02*
X062901Y013530D01*
X062901Y022030D01*
X063901Y021530D02*
X063901Y013530D01*
X065901Y011530D01*
X065651Y011030D02*
X063401Y013280D01*
X063401Y026280D01*
X056535Y033146D01*
X055254Y033146D01*
X055254Y033402D02*
X054904Y033402D01*
X054776Y033530D01*
X055254Y033658D02*
X055654Y033658D01*
X055776Y033780D01*
X055642Y033914D01*
X055254Y033914D01*
X055254Y034170D02*
X055666Y034170D01*
X055776Y034280D01*
X055776Y035405D01*
X055275Y035906D01*
X055275Y035963D01*
X055275Y036406D01*
X055151Y036530D01*
X054151Y036530D01*
X053901Y036280D01*
X053901Y035830D01*
X053151Y035830D01*
X052651Y035780D02*
X052651Y036280D01*
X053151Y036780D01*
X056401Y036780D01*
X055901Y038030D02*
X054901Y037030D01*
X052901Y037030D01*
X052401Y036530D01*
X052401Y034780D01*
X052756Y034426D01*
X053049Y034426D01*
X053049Y034170D02*
X052511Y034170D01*
X052151Y034530D01*
X052151Y038230D01*
X051901Y038480D01*
X051151Y038480D02*
X049651Y038480D01*
X049276Y038655D02*
X049101Y038480D01*
X048901Y038480D01*
X049276Y038655D02*
X049276Y039405D01*
X050151Y040280D01*
X051901Y040280D01*
X052401Y040780D01*
X052401Y042030D01*
X056401Y042030D01*
X055084Y041170D02*
X054991Y041170D01*
X054901Y041280D01*
X054401Y041280D01*
X052901Y039780D01*
X052901Y039080D01*
X053276Y039405D02*
X053276Y038655D01*
X053101Y038480D01*
X052901Y038480D01*
X053651Y038480D02*
X055151Y038480D01*
X054401Y038030D02*
X054401Y037530D01*
X054527Y035963D02*
X054527Y035406D01*
X054756Y034426D02*
X055254Y034426D01*
X054922Y034426D01*
X055776Y033780D02*
X056026Y034030D01*
X056101Y034030D01*
X056651Y034030D02*
X056701Y034030D01*
X056701Y034330D01*
X056901Y034530D01*
X056901Y034780D01*
X057151Y035030D01*
X057401Y035030D01*
X057151Y034030D02*
X056701Y034030D01*
X053526Y033280D02*
X053404Y033402D01*
X053049Y033402D01*
X053049Y033146D02*
X052660Y033146D01*
X052201Y033030D02*
X052151Y033080D01*
X052023Y033658D02*
X051651Y034030D01*
X051651Y035280D01*
X049901Y037030D01*
X045351Y037030D01*
X043901Y038480D01*
X043151Y038480D02*
X041651Y038480D01*
X041276Y038655D02*
X041276Y039405D01*
X042151Y040280D01*
X044151Y040280D01*
X045901Y042030D01*
X048401Y042030D01*
X048401Y040780D01*
X047901Y040280D01*
X046151Y040280D01*
X045276Y039405D01*
X045276Y038655D01*
X045101Y038480D01*
X044901Y038480D01*
X045651Y038480D02*
X047151Y038480D01*
X047901Y038480D02*
X048601Y037780D01*
X049651Y037780D01*
X051901Y035530D01*
X051901Y034280D01*
X052267Y033914D01*
X053049Y033914D01*
X053049Y033658D02*
X052023Y033658D01*
X052151Y032480D02*
X052151Y031280D01*
X053151Y035230D02*
X053151Y035280D01*
X052651Y035780D01*
X050401Y037530D02*
X050401Y038030D01*
X050851Y039080D02*
X050401Y039530D01*
X050851Y039080D02*
X051151Y039080D01*
X053276Y039405D02*
X054151Y040280D01*
X056401Y040280D01*
X055151Y039080D02*
X054851Y039080D01*
X054401Y039530D01*
X055901Y038480D02*
X055901Y038030D01*
X060401Y036330D02*
X061936Y036330D01*
X061970Y036296D01*
X062401Y036030D02*
X062401Y037833D01*
X061970Y038264D01*
X062401Y040280D02*
X062462Y040280D01*
X062851Y041280D02*
X063351Y041780D01*
X063901Y041780D01*
X065901Y039780D01*
X065901Y019530D01*
X066401Y019030D01*
X066401Y013030D01*
X066901Y012530D01*
X066401Y012030D02*
X065651Y012030D01*
X064401Y013280D01*
X064401Y021030D01*
X060651Y021030D02*
X014401Y021030D01*
X011151Y024280D01*
X010901Y025030D02*
X010151Y024280D01*
X010901Y025030D02*
X012401Y025030D01*
X012651Y024780D01*
X012651Y023530D01*
X013151Y023030D01*
X021901Y023030D01*
X022651Y023780D01*
X022651Y024780D01*
X022901Y025030D01*
X026651Y025030D01*
X029651Y022030D01*
X060651Y022030D01*
X060651Y021530D02*
X025651Y021530D01*
X023151Y024030D01*
X023151Y024280D01*
X022401Y025530D02*
X021651Y024780D01*
X021651Y023780D01*
X021401Y023530D01*
X019901Y023530D01*
X019151Y024280D01*
X020151Y024280D02*
X020151Y024530D01*
X021651Y026030D01*
X026651Y026030D01*
X029651Y023030D01*
X060651Y023030D01*
X060651Y022530D02*
X029651Y022530D01*
X026651Y025530D01*
X022401Y025530D01*
X037151Y017030D02*
X039151Y019030D01*
X060651Y019030D01*
X060651Y018530D02*
X039151Y018530D01*
X037651Y017030D01*
X037651Y016280D01*
X037601Y016280D01*
X037601Y015530D01*
X037151Y015280D02*
X037151Y017030D01*
X038201Y016280D02*
X038651Y016280D01*
X038201Y015530D02*
X040651Y015530D01*
X041151Y015030D01*
X042901Y014280D02*
X038901Y014280D01*
X038401Y014780D01*
X038201Y014780D01*
X037651Y014780D02*
X037151Y015280D01*
X037601Y014780D02*
X037651Y014780D01*
X037601Y014780D02*
X037601Y014030D01*
X038201Y014030D02*
X038651Y014030D01*
X038201Y013280D02*
X042651Y013280D01*
X043651Y014280D01*
X043651Y015780D01*
X043151Y015030D02*
X043151Y014530D01*
X042901Y014280D01*
X037601Y013280D02*
X037151Y013280D01*
X043401Y010030D02*
X046651Y010030D01*
X049401Y012780D01*
X055401Y012780D01*
X059651Y017030D01*
X060651Y017030D01*
X060651Y016530D02*
X059651Y016530D01*
X055401Y012280D01*
X049401Y012280D01*
X049151Y012030D01*
X046651Y009530D01*
X043901Y009530D01*
X046401Y008780D02*
X034651Y008780D01*
X030651Y004780D01*
X030651Y004730D01*
X029117Y004730D01*
X029082Y004764D01*
X029098Y004780D01*
X029082Y004764D02*
X026720Y004764D01*
X023851Y004030D02*
X023151Y004730D01*
X021617Y004730D01*
X021582Y004764D01*
X019220Y004764D01*
X016601Y003780D02*
X015651Y004730D01*
X014117Y004730D01*
X014082Y004764D01*
X014098Y004780D01*
X014082Y004764D02*
X011720Y004764D01*
X009351Y003530D02*
X008151Y004730D01*
X006617Y004730D01*
X006582Y004764D01*
X006598Y004780D01*
X006582Y004764D02*
X004220Y004764D01*
X008151Y005330D02*
X008151Y006030D01*
X009351Y003530D02*
X031901Y003530D01*
X035651Y007280D01*
X046401Y007280D01*
X049401Y010280D01*
X057901Y010280D01*
X060651Y013030D01*
X060651Y013530D02*
X057901Y010780D01*
X049401Y010780D01*
X046401Y007780D01*
X035651Y007780D01*
X031651Y003780D01*
X016601Y003780D01*
X015651Y004730D02*
X015651Y004780D01*
X015651Y005330D02*
X015651Y006030D01*
X023151Y006030D02*
X023151Y005330D01*
X023851Y004030D02*
X031401Y004030D01*
X035651Y008280D01*
X046401Y008280D01*
X049401Y011280D01*
X057901Y011280D01*
X060651Y014030D01*
X060651Y014530D02*
X057901Y011780D01*
X049401Y011780D01*
X046401Y008780D01*
X043901Y006780D02*
X043901Y005030D01*
X043851Y005030D01*
X043851Y004280D01*
X044451Y004280D02*
X046901Y004280D01*
X047401Y003780D01*
X048901Y003780D02*
X048901Y004030D01*
X049151Y004280D01*
X049651Y004280D01*
X049901Y004030D01*
X049901Y003030D01*
X048901Y002030D01*
X044451Y002030D01*
X043851Y002030D02*
X043401Y002030D01*
X043851Y002780D02*
X043901Y002780D01*
X043851Y002780D02*
X043851Y003530D01*
X043651Y003530D01*
X043401Y003780D01*
X043401Y006780D01*
X044451Y005030D02*
X044901Y005030D01*
X044651Y003530D02*
X044451Y003530D01*
X044651Y003530D02*
X045173Y003008D01*
X049130Y003008D01*
X049401Y003280D01*
X049401Y003780D01*
X044901Y002780D02*
X044451Y002780D01*
X055651Y002280D02*
X055901Y002030D01*
X056351Y002030D01*
X056951Y002030D02*
X061151Y002030D01*
X062401Y003280D01*
X062401Y004030D01*
X062151Y004280D01*
X061401Y004280D01*
X061901Y003780D02*
X061901Y003280D01*
X061630Y003008D01*
X057673Y003008D01*
X057151Y003530D01*
X056951Y003530D01*
X056401Y003530D02*
X056151Y003530D01*
X055901Y003780D01*
X055901Y009780D01*
X056401Y009780D02*
X056401Y005030D01*
X056351Y005030D01*
X056351Y004280D01*
X056951Y004280D02*
X059401Y004280D01*
X059901Y003780D01*
X057401Y002780D02*
X056951Y002780D01*
X056951Y002730D01*
X056401Y002780D02*
X056351Y002780D01*
X056351Y003530D01*
X056351Y003580D02*
X056401Y003530D01*
X056951Y005030D02*
X057401Y005030D01*
X065651Y011030D02*
X066401Y011030D01*
X066901Y010530D01*
X066901Y011530D02*
X066401Y012030D01*
X065901Y012530D02*
X065401Y013030D01*
X065401Y035227D01*
X064332Y036296D01*
X062401Y036030D02*
X062101Y035730D01*
X060401Y035730D01*
X063840Y040280D02*
X063840Y040891D01*
X063451Y041280D01*
X059901Y044530D02*
X059201Y044530D01*
X058601Y044530D02*
X057901Y044530D01*
X052401Y042030D02*
X048401Y042030D01*
X047084Y041170D02*
X046991Y041170D01*
X046901Y041280D01*
X046401Y041280D01*
X044901Y039780D01*
X044901Y039080D01*
X046401Y039530D02*
X046851Y039080D01*
X047901Y039080D01*
X048901Y039080D02*
X048901Y039780D01*
X050401Y041280D01*
X050901Y041280D01*
X050991Y041170D01*
X051084Y041170D01*
X046401Y038030D02*
X046401Y037530D01*
X043151Y039080D02*
X042851Y039080D01*
X042401Y039530D01*
X041276Y038655D02*
X041101Y038480D01*
X040901Y038480D01*
X040901Y039080D02*
X040901Y039780D01*
X042401Y041280D01*
X042901Y041280D01*
X042991Y041170D01*
X043084Y041170D01*
X042401Y038030D02*
X042401Y037530D01*
X050651Y018030D02*
X060651Y018030D01*
X060651Y017530D02*
X050651Y017530D01*
X050151Y017030D01*
X050151Y016330D01*
X050151Y016280D01*
X050101Y016280D02*
X050151Y016330D01*
X050101Y016280D02*
X050101Y015530D01*
X049651Y015280D02*
X049651Y017030D01*
X050651Y018030D01*
X050701Y016280D02*
X051151Y016280D01*
X050701Y015530D02*
X053151Y015530D01*
X053651Y015030D01*
X055380Y014258D02*
X051473Y014258D01*
X050951Y014780D01*
X050701Y014780D01*
X050151Y014780D02*
X049651Y015280D01*
X050101Y014780D02*
X050151Y014780D01*
X050101Y014780D02*
X050101Y014030D01*
X050276Y013655D02*
X049526Y013655D01*
X049151Y014030D01*
X049151Y015780D01*
X050701Y014030D02*
X051151Y014030D01*
X050701Y013280D02*
X050651Y013280D01*
X050276Y013655D01*
X050101Y013280D02*
X049651Y013280D01*
X055380Y014258D02*
X055651Y014530D01*
X055651Y015030D01*
X055901Y012280D02*
X059651Y016030D01*
X060651Y016030D01*
X060651Y015530D02*
X059651Y015530D01*
X056401Y012280D01*
X030651Y006030D02*
X030651Y005330D01*
D26*
X058151Y026530D02*
X060651Y024030D01*
X058151Y026530D02*
X025151Y026530D01*
X041651Y039080D02*
X041951Y039080D01*
X042401Y039530D01*
X045651Y039080D02*
X045951Y039080D01*
X046401Y039530D01*
X049651Y039080D02*
X049951Y039080D01*
X050401Y039530D01*
X053651Y039080D02*
X053951Y039080D01*
X054401Y039530D01*
X058901Y038280D02*
X058901Y033030D01*
X056401Y031530D02*
X055651Y032280D01*
X052776Y032280D01*
X052526Y032530D01*
X052526Y032875D01*
X052541Y032890D02*
X052401Y033030D01*
X052201Y033030D01*
X052151Y033080D02*
X051851Y033080D01*
X051651Y033280D01*
X051151Y033280D01*
X051851Y032480D02*
X051651Y032280D01*
X051151Y032280D01*
X051851Y032480D02*
X052151Y032480D01*
X058901Y038280D02*
X061651Y041030D01*
X062401Y040280D01*
X061651Y041030D02*
X062901Y042280D01*
X063901Y042280D01*
X067651Y038530D01*
X067651Y024030D01*
X066401Y024030D01*
X067651Y024030D02*
X067651Y007530D01*
X067151Y007030D01*
X066401Y007030D01*
X065901Y006530D01*
D27*
X059401Y011030D03*
X060651Y013030D03*
X060651Y013530D03*
X060651Y014030D03*
X060651Y014530D03*
X060651Y015530D03*
X060651Y016030D03*
X060651Y016530D03*
X060651Y017030D03*
X060651Y017530D03*
X060651Y018030D03*
X060651Y018530D03*
X060651Y019030D03*
X060651Y021030D03*
X060651Y021530D03*
X060651Y022030D03*
X060651Y022530D03*
X060651Y023030D03*
X061401Y023030D03*
X061901Y023530D03*
X062401Y023530D03*
X062401Y023030D03*
X061401Y022530D03*
X062901Y022030D03*
X063901Y021530D03*
X064401Y021030D03*
X066401Y024030D03*
X060651Y024030D03*
X052151Y031280D03*
X054151Y033530D03*
X054401Y034780D03*
X057151Y034030D03*
X058901Y033030D03*
X056401Y031530D03*
X054401Y037530D03*
X055151Y038030D03*
X051151Y038030D03*
X050401Y037530D03*
X046401Y037530D03*
X043151Y038030D03*
X042401Y037530D03*
X057901Y044530D03*
X059901Y044530D03*
X059901Y043780D03*
X025151Y026530D03*
X038651Y016280D03*
X038651Y014030D03*
X037151Y013280D03*
X043401Y010030D03*
X043901Y009530D03*
X043901Y006780D03*
X043401Y006780D03*
X044901Y005030D03*
X044901Y002780D03*
X043401Y002030D03*
X055651Y002280D03*
X057401Y002780D03*
X057401Y005030D03*
X056401Y009780D03*
X055901Y009780D03*
X055901Y012280D03*
X056401Y012280D03*
X055651Y015030D03*
X051151Y014030D03*
X049651Y013280D03*
X049151Y015780D03*
X051151Y016280D03*
X030651Y006030D03*
X023151Y006030D03*
X015651Y006030D03*
X008151Y006030D03*
D28*
X043151Y038030D02*
X043151Y038480D01*
X043151Y039080D02*
X043901Y039080D01*
X043951Y039080D01*
X047151Y039080D02*
X047901Y039080D01*
X051151Y039080D02*
X051901Y039080D01*
X051151Y038480D02*
X051151Y038030D01*
X055151Y038030D02*
X055151Y038480D01*
X055151Y039080D02*
X055901Y039080D01*
X056351Y003580D02*
X056351Y003530D01*
D29*
X061401Y003780D02*
X061401Y004280D01*
X061401Y009030D01*
X059401Y011030D01*
X049151Y015780D02*
X043651Y015780D01*
X043151Y015780D01*
X042651Y015280D01*
X042651Y015030D01*
X056101Y034030D02*
X056101Y034230D01*
X056401Y034530D01*
X056401Y035030D01*
X056401Y036780D01*
X056401Y040280D01*
X056401Y042030D01*
X058151Y043780D01*
X058601Y043780D01*
X059201Y043780D02*
X059901Y043780D01*
D30*
X062851Y041280D02*
X062901Y041280D01*
M02*
