G75*
G70*
%OFA0B0*%
%FSLAX24Y24*%
%IPPOS*%
%LPD*%
%AMOC8*
5,1,8,0,0,1.08239X$1,22.5*
%
%ADD10C,0.0040*%
%ADD11C,0.0080*%
%ADD12R,0.0315X0.0160*%
%ADD13R,0.0160X0.0315*%
%ADD14R,0.0290X0.0690*%
%ADD15R,0.0690X0.0290*%
%ADD16R,0.0157X0.0630*%
%ADD17R,0.0193X0.1000*%
%ADD18R,0.0210X0.0860*%
%ADD19R,0.0492X0.2441*%
%ADD20R,0.0860X0.0210*%
%ADD21R,0.2441X0.0492*%
%ADD22R,0.0630X0.0157*%
%ADD23R,0.1000X0.0193*%
%ADD24C,0.0250*%
%ADD25R,0.0193X0.0433*%
%ADD26R,0.0236X0.1575*%
D10*
X012530Y015323D02*
X012530Y015663D01*
X012770Y015663D02*
X012770Y015323D01*
X011770Y016448D02*
X011770Y016788D01*
X011530Y016788D02*
X011530Y016448D01*
X012530Y016823D02*
X012530Y017163D01*
X012770Y017163D02*
X012770Y016823D01*
X013280Y017698D02*
X013280Y018038D01*
X013520Y018038D02*
X013520Y017698D01*
X012770Y018573D02*
X012770Y018913D01*
X012530Y018913D02*
X012530Y018573D01*
X011770Y018948D02*
X011770Y019288D01*
X011530Y019288D02*
X011530Y018948D01*
X012530Y020073D02*
X012530Y020413D01*
X012770Y020413D02*
X012770Y020073D01*
X008270Y017538D02*
X008270Y017198D01*
X008030Y017198D02*
X008030Y017538D01*
X007520Y017948D02*
X007520Y018288D01*
X007280Y018288D02*
X007280Y017948D01*
X006770Y017948D02*
X006770Y018288D01*
X006530Y018288D02*
X006530Y017948D01*
X006530Y016788D02*
X006530Y016448D01*
X006770Y016448D02*
X006770Y016788D01*
X007280Y016788D02*
X007280Y016448D01*
X007520Y016448D02*
X007520Y016788D01*
X007520Y023948D02*
X007520Y024288D01*
X007280Y024288D02*
X007280Y023948D01*
X006770Y023948D02*
X006770Y024288D01*
X006530Y024288D02*
X006530Y023948D01*
X008030Y024698D02*
X008030Y025038D01*
X008270Y025038D02*
X008270Y024698D01*
X007520Y025448D02*
X007520Y025788D01*
X007280Y025788D02*
X007280Y025448D01*
X006770Y025448D02*
X006770Y025788D01*
X006530Y025788D02*
X006530Y025448D01*
X005770Y029823D02*
X005770Y030163D01*
X005530Y030163D02*
X005530Y029823D01*
X004770Y030948D02*
X004770Y031288D01*
X004530Y031288D02*
X004530Y030948D01*
X005530Y031323D02*
X005530Y031663D01*
X005770Y031663D02*
X005770Y031323D01*
X006280Y032198D02*
X006280Y032538D01*
X006520Y032538D02*
X006520Y032198D01*
X005770Y033073D02*
X005770Y033413D01*
X005530Y033413D02*
X005530Y033073D01*
X004770Y033448D02*
X004770Y033788D01*
X004530Y033788D02*
X004530Y033448D01*
X005530Y034573D02*
X005530Y034913D01*
X005770Y034913D02*
X005770Y034573D01*
X011530Y033788D02*
X011530Y033448D01*
X011770Y033448D02*
X011770Y033788D01*
X012530Y033413D02*
X012530Y033073D01*
X012770Y033073D02*
X012770Y033413D01*
X013280Y032538D02*
X013280Y032198D01*
X013520Y032198D02*
X013520Y032538D01*
X012770Y031663D02*
X012770Y031323D01*
X012530Y031323D02*
X012530Y031663D01*
X011770Y031288D02*
X011770Y030948D01*
X011530Y030948D02*
X011530Y031288D01*
X012530Y030163D02*
X012530Y029823D01*
X012770Y029823D02*
X012770Y030163D01*
X012770Y034573D02*
X012770Y034913D01*
X012530Y034913D02*
X012530Y034573D01*
X019530Y032538D02*
X019530Y032198D01*
X019770Y032198D02*
X019770Y032538D01*
X020280Y032948D02*
X020280Y033288D01*
X020520Y033288D02*
X020520Y032948D01*
X021030Y032948D02*
X021030Y033288D01*
X021270Y033288D02*
X021270Y032948D01*
X021270Y031788D02*
X021270Y031448D01*
X021030Y031448D02*
X021030Y031788D01*
X020520Y031788D02*
X020520Y031448D01*
X020280Y031448D02*
X020280Y031788D01*
X025030Y032198D02*
X025030Y032538D01*
X025270Y032538D02*
X025270Y032198D01*
X025780Y031788D02*
X025780Y031448D01*
X026020Y031448D02*
X026020Y031788D01*
X026530Y031788D02*
X026530Y031448D01*
X026770Y031448D02*
X026770Y031788D01*
X026770Y032948D02*
X026770Y033288D01*
X026530Y033288D02*
X026530Y032948D01*
X026020Y032948D02*
X026020Y033288D01*
X025780Y033288D02*
X025780Y032948D01*
X030530Y027288D02*
X030530Y026948D01*
X030770Y026948D02*
X030770Y027288D01*
X031280Y027288D02*
X031280Y026948D01*
X031520Y026948D02*
X031520Y027288D01*
X032030Y027288D02*
X032030Y026948D01*
X032270Y026948D02*
X032270Y027288D01*
X032230Y025614D02*
X032570Y025614D01*
X032570Y025373D02*
X032230Y025373D01*
X032230Y024864D02*
X032570Y024864D01*
X032570Y024623D02*
X032230Y024623D01*
X034030Y024948D02*
X034030Y025288D01*
X034270Y025288D02*
X034270Y024948D01*
X035530Y024948D02*
X035530Y025288D01*
X035770Y025288D02*
X035770Y024948D01*
X036280Y024948D02*
X036280Y025288D01*
X036520Y025288D02*
X036520Y024948D01*
X037780Y024948D02*
X037780Y025288D01*
X038020Y025288D02*
X038020Y024948D01*
X038530Y024948D02*
X038530Y025288D01*
X038770Y025288D02*
X038770Y024948D01*
X039730Y023114D02*
X040070Y023114D01*
X040070Y022873D02*
X039730Y022873D01*
X039730Y022364D02*
X040070Y022364D01*
X040070Y022123D02*
X039730Y022123D01*
X039730Y021239D02*
X040070Y021239D01*
X040070Y020998D02*
X039730Y020998D01*
X039730Y020489D02*
X040070Y020489D01*
X040070Y020248D02*
X039730Y020248D01*
X039730Y019739D02*
X040070Y019739D01*
X040070Y019498D02*
X039730Y019498D01*
X037520Y017788D02*
X037520Y017448D01*
X037280Y017448D02*
X037280Y017788D01*
X036770Y017788D02*
X036770Y017448D01*
X036530Y017448D02*
X036530Y017788D01*
X036020Y017788D02*
X036020Y017448D01*
X035780Y017448D02*
X035780Y017788D01*
X035270Y017788D02*
X035270Y017448D01*
X035030Y017448D02*
X035030Y017788D01*
X034520Y017788D02*
X034520Y017448D01*
X034280Y017448D02*
X034280Y017788D01*
X032570Y019748D02*
X032230Y019748D01*
X032230Y019989D02*
X032570Y019989D01*
X032570Y020498D02*
X032230Y020498D01*
X032230Y020739D02*
X032570Y020739D01*
X032570Y021248D02*
X032230Y021248D01*
X032230Y021489D02*
X032570Y021489D01*
X033405Y020413D02*
X033405Y020073D01*
X033645Y020073D02*
X033645Y020413D01*
X034155Y020413D02*
X034155Y020073D01*
X034395Y020073D02*
X034395Y020413D01*
X028195Y018614D02*
X027855Y018614D01*
X027855Y018373D02*
X028195Y018373D01*
X028195Y017989D02*
X027855Y017989D01*
X027855Y017748D02*
X028195Y017748D01*
X026020Y018823D02*
X026020Y019163D01*
X025780Y019163D02*
X025780Y018823D01*
X025270Y018823D02*
X025270Y019163D01*
X025030Y019163D02*
X025030Y018823D01*
X023820Y018364D02*
X023480Y018364D01*
X023480Y018123D02*
X023820Y018123D01*
X022645Y019198D02*
X022645Y019538D01*
X022405Y019538D02*
X022405Y019198D01*
X022405Y021198D02*
X022405Y021538D01*
X022645Y021538D02*
X022645Y021198D01*
X023605Y022373D02*
X023945Y022373D01*
X023945Y022614D02*
X023605Y022614D01*
X026655Y021288D02*
X026655Y020948D01*
X026895Y020948D02*
X026895Y021288D01*
X032780Y014788D02*
X032780Y014448D01*
X033020Y014448D02*
X033020Y014788D01*
X033530Y014788D02*
X033530Y014448D01*
X033770Y014448D02*
X033770Y014788D01*
X037780Y013788D02*
X037780Y013448D01*
X038020Y013448D02*
X038020Y013788D01*
X039405Y013788D02*
X039405Y013448D01*
X039645Y013448D02*
X039645Y013788D01*
X041155Y013788D02*
X041155Y013448D01*
X041395Y013448D02*
X041395Y013788D01*
X040270Y009163D02*
X040270Y008823D01*
X040030Y008823D02*
X040030Y009163D01*
X038645Y009163D02*
X038645Y008823D01*
X038405Y008823D02*
X038405Y009163D01*
X036895Y009163D02*
X036895Y008823D01*
X036655Y008823D02*
X036655Y009163D01*
X036145Y009163D02*
X036145Y008823D01*
X035905Y008823D02*
X035905Y009163D01*
X044155Y009163D02*
X044155Y008823D01*
X044395Y008823D02*
X044395Y009163D01*
X051730Y018748D02*
X052070Y018748D01*
X052070Y018989D02*
X051730Y018989D01*
X052520Y019923D02*
X053275Y019923D01*
X053275Y020563D02*
X052520Y020563D01*
X053230Y018989D02*
X053570Y018989D01*
X053570Y018748D02*
X053230Y018748D01*
X049095Y021488D02*
X049095Y022243D01*
X048455Y022243D02*
X048455Y021488D01*
X047070Y021239D02*
X046730Y021239D01*
X046730Y020998D02*
X047070Y020998D01*
X047070Y021748D02*
X046730Y021748D01*
X046730Y021989D02*
X047070Y021989D01*
X047070Y022498D02*
X046730Y022498D01*
X046730Y022739D02*
X047070Y022739D01*
X047070Y023248D02*
X046730Y023248D01*
X046730Y023489D02*
X047070Y023489D01*
X049730Y024248D02*
X050070Y024248D01*
X050070Y024489D02*
X049730Y024489D01*
X049730Y024998D02*
X050070Y024998D01*
X050070Y025239D02*
X049730Y025239D01*
X049730Y025748D02*
X050070Y025748D01*
X050070Y025989D02*
X049730Y025989D01*
X049730Y026498D02*
X050070Y026498D01*
X050070Y026739D02*
X049730Y026739D01*
X049780Y027948D02*
X049780Y028288D01*
X050020Y028288D02*
X050020Y027948D01*
X050530Y027948D02*
X050530Y028288D01*
X050770Y028288D02*
X050770Y027948D01*
X052030Y027948D02*
X052030Y028288D01*
X052270Y028288D02*
X052270Y027948D01*
X052780Y027948D02*
X052780Y028288D01*
X053020Y028288D02*
X053020Y027948D01*
X053530Y027948D02*
X053530Y028288D01*
X053770Y028288D02*
X053770Y027948D01*
X054280Y027948D02*
X054280Y028288D01*
X054520Y028288D02*
X054520Y027948D01*
X055230Y027998D02*
X055570Y027998D01*
X055570Y028239D02*
X055230Y028239D01*
X055230Y027489D02*
X055570Y027489D01*
X055570Y027248D02*
X055230Y027248D01*
X055230Y026739D02*
X055570Y026739D01*
X055570Y026498D02*
X055230Y026498D01*
X055230Y025989D02*
X055570Y025989D01*
X055570Y025748D02*
X055230Y025748D01*
X055275Y025313D02*
X056030Y025313D01*
X056030Y024673D02*
X055275Y024673D01*
X055230Y023489D02*
X055570Y023489D01*
X055570Y023248D02*
X055230Y023248D01*
X055230Y022739D02*
X055570Y022739D01*
X055570Y022498D02*
X055230Y022498D01*
X053770Y022448D02*
X053770Y022788D01*
X053530Y022788D02*
X053530Y022448D01*
X053020Y022448D02*
X053020Y022788D01*
X052780Y022788D02*
X052780Y022448D01*
X051520Y022448D02*
X051520Y022788D01*
X051280Y022788D02*
X051280Y022448D01*
X050770Y022448D02*
X050770Y022788D01*
X050530Y022788D02*
X050530Y022448D01*
X053530Y026073D02*
X053530Y026413D01*
X053770Y026413D02*
X053770Y026073D01*
X053155Y029298D02*
X052400Y029298D01*
X052400Y029938D02*
X053155Y029938D01*
X054780Y030698D02*
X054780Y031038D01*
X055020Y031038D02*
X055020Y030698D01*
X055530Y030698D02*
X055530Y031038D01*
X055770Y031038D02*
X055770Y030698D01*
X055525Y033798D02*
X056280Y033798D01*
X056280Y034438D02*
X055525Y034438D01*
X055525Y035048D02*
X056280Y035048D01*
X056280Y035688D02*
X055525Y035688D01*
X060980Y038248D02*
X061320Y038248D01*
X061320Y038489D02*
X060980Y038489D01*
X062480Y038489D02*
X062820Y038489D01*
X062820Y038248D02*
X062480Y038248D01*
X064030Y041448D02*
X064030Y041788D01*
X064270Y041788D02*
X064270Y041448D01*
X062820Y043248D02*
X062480Y043248D01*
X062480Y043489D02*
X062820Y043489D01*
X067280Y041788D02*
X067280Y041448D01*
X067520Y041448D02*
X067520Y041788D01*
X049320Y038989D02*
X048980Y038989D01*
X048980Y038748D02*
X049320Y038748D01*
X047820Y038748D02*
X047480Y038748D01*
X047480Y038989D02*
X047820Y038989D01*
X047820Y038239D02*
X047480Y038239D01*
X047480Y037998D02*
X047820Y037998D01*
X047820Y036989D02*
X047480Y036989D01*
X047480Y036748D02*
X047820Y036748D01*
X048030Y034038D02*
X048030Y033698D01*
X048270Y033698D02*
X048270Y034038D01*
X048780Y034038D02*
X048780Y033698D01*
X049020Y033698D02*
X049020Y034038D01*
X049020Y031038D02*
X049020Y030698D01*
X048780Y030698D02*
X048780Y031038D01*
X048270Y031038D02*
X048270Y030698D01*
X048030Y030698D02*
X048030Y031038D01*
X041220Y028998D02*
X041220Y028243D01*
X040580Y028243D02*
X040580Y028998D01*
X060980Y020989D02*
X061320Y020989D01*
X061320Y020748D02*
X060980Y020748D01*
X061780Y027448D02*
X061780Y027788D01*
X062020Y027788D02*
X062020Y027448D01*
X027070Y011739D02*
X026730Y011739D01*
X026730Y011498D02*
X027070Y011498D01*
D11*
X012900Y014918D02*
X012400Y014918D01*
X012400Y016068D01*
X012900Y016068D01*
X012900Y014918D01*
X011900Y016043D02*
X011400Y016043D01*
X011400Y017193D01*
X011900Y017193D01*
X011900Y016043D01*
X012400Y016418D02*
X012900Y016418D01*
X012900Y017568D01*
X012400Y017568D01*
X012400Y016418D01*
X013150Y017293D02*
X013650Y017293D01*
X013650Y018443D01*
X013150Y018443D01*
X013150Y017293D01*
X012900Y018168D02*
X012400Y018168D01*
X012400Y019318D01*
X012900Y019318D01*
X012900Y018168D01*
X011900Y018543D02*
X011900Y019693D01*
X011400Y019693D01*
X011400Y018543D01*
X011900Y018543D01*
X012400Y019668D02*
X012900Y019668D01*
X012900Y020818D01*
X012400Y020818D01*
X012400Y019668D01*
X008200Y020118D02*
X008200Y019118D01*
X008193Y019118D01*
X006250Y019118D01*
X006250Y020118D01*
X007250Y020118D01*
X007250Y019118D01*
X007150Y018693D02*
X007650Y018693D01*
X007650Y017543D01*
X007150Y017543D01*
X007150Y018693D01*
X006900Y018693D02*
X006400Y018693D01*
X006400Y017543D01*
X006900Y017543D01*
X006900Y018693D01*
X006520Y019303D02*
X006520Y019933D01*
X007780Y019933D01*
X007780Y019303D01*
X006520Y019303D01*
X007250Y020118D02*
X008200Y020118D01*
X008400Y017943D02*
X007900Y017943D01*
X007900Y016793D01*
X008400Y016793D01*
X008400Y017943D01*
X007650Y017193D02*
X007150Y017193D01*
X007150Y016043D01*
X007650Y016043D01*
X007650Y017193D01*
X006900Y017193D02*
X006400Y017193D01*
X006400Y016043D01*
X006900Y016043D01*
X006900Y017193D01*
X006900Y023543D02*
X006900Y024693D01*
X006400Y024693D01*
X006400Y023543D01*
X006900Y023543D01*
X007150Y023543D02*
X007650Y023543D01*
X007650Y024693D01*
X007150Y024693D01*
X007150Y023543D01*
X007900Y024293D02*
X008400Y024293D01*
X008400Y025443D01*
X007900Y025443D01*
X007900Y024293D01*
X007650Y025043D02*
X007650Y026193D01*
X007150Y026193D01*
X007150Y025043D01*
X007650Y025043D01*
X006900Y025043D02*
X006400Y025043D01*
X006400Y026193D01*
X006900Y026193D01*
X006900Y025043D01*
X007250Y026618D02*
X007250Y027618D01*
X006250Y027618D01*
X006250Y026618D01*
X008193Y026618D01*
X008200Y026618D01*
X008200Y027618D01*
X007250Y027618D01*
X007780Y027433D02*
X006520Y027433D01*
X006520Y026803D01*
X007780Y026803D01*
X007780Y027433D01*
X005900Y029418D02*
X005400Y029418D01*
X005400Y030568D01*
X005900Y030568D01*
X005900Y029418D01*
X005900Y030918D02*
X005400Y030918D01*
X005400Y032068D01*
X005900Y032068D01*
X005900Y030918D01*
X006150Y031793D02*
X006650Y031793D01*
X006650Y032943D01*
X006150Y032943D01*
X006150Y031793D01*
X005900Y032668D02*
X005400Y032668D01*
X005400Y033818D01*
X005900Y033818D01*
X005900Y032668D01*
X004900Y033043D02*
X004900Y034193D01*
X004400Y034193D01*
X004400Y033043D01*
X004900Y033043D01*
X004900Y031693D02*
X004400Y031693D01*
X004400Y030543D01*
X004900Y030543D01*
X004900Y031693D01*
X005400Y034168D02*
X005900Y034168D01*
X005900Y035318D01*
X005400Y035318D01*
X005400Y034168D01*
X011400Y034193D02*
X011400Y033043D01*
X011900Y033043D01*
X011900Y034193D01*
X011400Y034193D01*
X012400Y034168D02*
X012900Y034168D01*
X012900Y035318D01*
X012400Y035318D01*
X012400Y034168D01*
X012400Y033818D02*
X012900Y033818D01*
X012900Y032668D01*
X012400Y032668D01*
X012400Y033818D01*
X013150Y032943D02*
X013150Y031793D01*
X013650Y031793D01*
X013650Y032943D01*
X013150Y032943D01*
X012900Y032068D02*
X012400Y032068D01*
X012400Y030918D01*
X012900Y030918D01*
X012900Y032068D01*
X011900Y031693D02*
X011400Y031693D01*
X011400Y030543D01*
X011900Y030543D01*
X011900Y031693D01*
X012400Y030568D02*
X012900Y030568D01*
X012900Y029418D01*
X012400Y029418D01*
X012400Y030568D01*
X019400Y031793D02*
X019900Y031793D01*
X019900Y032943D01*
X019400Y032943D01*
X019400Y031793D01*
X020150Y032193D02*
X020150Y031043D01*
X020650Y031043D01*
X020650Y032193D01*
X020150Y032193D01*
X020150Y032543D02*
X020650Y032543D01*
X020650Y033693D01*
X020150Y033693D01*
X020150Y032543D01*
X020900Y032543D02*
X021400Y032543D01*
X021400Y033693D01*
X020900Y033693D01*
X020900Y032543D01*
X020900Y032193D02*
X021400Y032193D01*
X021400Y031043D01*
X020900Y031043D01*
X020900Y032193D01*
X020550Y030618D02*
X020550Y029618D01*
X021550Y029618D01*
X021550Y030618D01*
X019607Y030618D01*
X019600Y030618D01*
X019600Y029618D01*
X020550Y029618D01*
X020020Y029803D02*
X020020Y030433D01*
X021280Y030433D01*
X021280Y029803D01*
X020020Y029803D01*
X025100Y029618D02*
X026050Y029618D01*
X026050Y030618D01*
X026150Y031043D02*
X025650Y031043D01*
X025650Y032193D01*
X026150Y032193D01*
X026150Y031043D01*
X026400Y031043D02*
X026900Y031043D01*
X026900Y032193D01*
X026400Y032193D01*
X026400Y031043D01*
X027050Y030618D02*
X027050Y029618D01*
X026050Y029618D01*
X025520Y029803D02*
X026780Y029803D01*
X026780Y030433D01*
X025520Y030433D01*
X025520Y029803D01*
X025100Y029618D02*
X025100Y030618D01*
X025107Y030618D01*
X027050Y030618D01*
X025400Y031793D02*
X024900Y031793D01*
X024900Y032943D01*
X025400Y032943D01*
X025400Y031793D01*
X025650Y032543D02*
X026150Y032543D01*
X026150Y033693D01*
X025650Y033693D01*
X025650Y032543D01*
X026400Y032543D02*
X026900Y032543D01*
X026900Y033693D01*
X026400Y033693D01*
X026400Y032543D01*
X030400Y027693D02*
X030400Y026543D01*
X030900Y026543D01*
X030900Y027693D01*
X030400Y027693D01*
X031150Y027693D02*
X031650Y027693D01*
X031650Y026543D01*
X031150Y026543D01*
X031150Y027693D01*
X031900Y027693D02*
X031900Y026543D01*
X032400Y026543D01*
X032400Y027693D01*
X031900Y027693D01*
X031825Y025743D02*
X031825Y025243D01*
X032975Y025243D01*
X032975Y025743D01*
X031825Y025743D01*
X031825Y024993D02*
X031825Y024493D01*
X032975Y024493D01*
X032975Y024993D01*
X031825Y024993D01*
X033900Y024543D02*
X034400Y024543D01*
X034400Y025693D01*
X033900Y025693D01*
X033900Y024543D01*
X035400Y024543D02*
X035400Y025693D01*
X035900Y025693D01*
X035900Y024543D01*
X035400Y024543D01*
X036150Y024543D02*
X036650Y024543D01*
X036650Y025693D01*
X036150Y025693D01*
X036150Y024543D01*
X037650Y024543D02*
X037650Y025693D01*
X038150Y025693D01*
X038150Y024543D01*
X037650Y024543D01*
X038400Y024543D02*
X038900Y024543D01*
X038900Y025693D01*
X038400Y025693D01*
X038400Y024543D01*
X039325Y023243D02*
X039325Y022743D01*
X040475Y022743D01*
X040475Y023243D01*
X039325Y023243D01*
X039325Y022493D02*
X039325Y021993D01*
X040475Y021993D01*
X040475Y022493D01*
X039325Y022493D01*
X039325Y021368D02*
X039325Y020868D01*
X040475Y020868D01*
X040475Y021368D01*
X039325Y021368D01*
X039325Y020618D02*
X039325Y020118D01*
X040475Y020118D01*
X040475Y020618D01*
X039325Y020618D01*
X039325Y019868D02*
X039325Y019368D01*
X040475Y019368D01*
X040475Y019868D01*
X039325Y019868D01*
X039500Y018868D02*
X038500Y018868D01*
X038500Y017868D01*
X040443Y017868D01*
X040450Y017868D01*
X040450Y018868D01*
X039500Y018868D01*
X039500Y017868D01*
X040030Y018053D02*
X040030Y018683D01*
X038770Y018683D01*
X038770Y018053D01*
X040030Y018053D01*
X037650Y018193D02*
X037650Y017043D01*
X037150Y017043D01*
X037150Y018193D01*
X037650Y018193D01*
X036900Y018193D02*
X036400Y018193D01*
X036400Y017043D01*
X036900Y017043D01*
X036900Y018193D01*
X036150Y018193D02*
X035650Y018193D01*
X035650Y017043D01*
X036150Y017043D01*
X036150Y018193D01*
X035400Y018193D02*
X034900Y018193D01*
X034900Y017043D01*
X035400Y017043D01*
X035400Y018193D01*
X034650Y018193D02*
X034150Y018193D01*
X034150Y017043D01*
X034650Y017043D01*
X034650Y018193D01*
X033650Y018018D02*
X033650Y017068D01*
X032650Y017068D01*
X032650Y017075D01*
X032650Y019018D01*
X033650Y019018D01*
X033650Y018018D01*
X032650Y018018D01*
X032835Y017488D02*
X033465Y017488D01*
X033465Y018748D01*
X032835Y018748D01*
X032835Y017488D01*
X032975Y019618D02*
X031825Y019618D01*
X031825Y020118D01*
X032975Y020118D01*
X032975Y019618D01*
X033275Y019668D02*
X033775Y019668D01*
X033775Y020818D01*
X033275Y020818D01*
X033275Y019668D01*
X034025Y019668D02*
X034525Y019668D01*
X034525Y020818D01*
X034025Y020818D01*
X034025Y019668D01*
X032975Y020368D02*
X032975Y020868D01*
X031825Y020868D01*
X031825Y020368D01*
X032975Y020368D01*
X032975Y021118D02*
X031825Y021118D01*
X031825Y021618D01*
X032975Y021618D01*
X032975Y021118D01*
X032800Y022368D02*
X031850Y022368D01*
X031850Y023368D01*
X031857Y023368D01*
X033800Y023368D01*
X033800Y022368D01*
X032800Y022368D01*
X032800Y023368D01*
X032270Y023183D02*
X032270Y022553D01*
X033530Y022553D01*
X033530Y023183D01*
X032270Y023183D01*
X027025Y021693D02*
X027025Y020543D01*
X026525Y020543D01*
X026525Y021693D01*
X027025Y021693D01*
X026150Y019568D02*
X025650Y019568D01*
X025650Y018418D01*
X026150Y018418D01*
X026150Y019568D01*
X025400Y019568D02*
X024900Y019568D01*
X024900Y018418D01*
X025400Y018418D01*
X025400Y019568D01*
X024225Y018493D02*
X024225Y017993D01*
X023075Y017993D01*
X023075Y018493D01*
X024225Y018493D01*
X022775Y018793D02*
X022275Y018793D01*
X022275Y019943D01*
X022775Y019943D01*
X022775Y018793D01*
X022775Y020793D02*
X022275Y020793D01*
X022275Y021943D01*
X022775Y021943D01*
X022775Y020793D01*
X023200Y022243D02*
X023200Y022743D01*
X024350Y022743D01*
X024350Y022243D01*
X023200Y022243D01*
X027450Y018743D02*
X027450Y018243D01*
X028600Y018243D01*
X028600Y018743D01*
X027450Y018743D01*
X027450Y018118D02*
X027450Y017618D01*
X028600Y017618D01*
X028600Y018118D01*
X027450Y018118D01*
X032650Y015193D02*
X032650Y014043D01*
X033150Y014043D01*
X033150Y015193D01*
X032650Y015193D01*
X033400Y015193D02*
X033900Y015193D01*
X033900Y014043D01*
X033400Y014043D01*
X033400Y015193D01*
X037650Y014193D02*
X037650Y013043D01*
X038150Y013043D01*
X038150Y014193D01*
X037650Y014193D01*
X039275Y014193D02*
X039275Y013043D01*
X039775Y013043D01*
X039775Y014193D01*
X039275Y014193D01*
X041025Y014193D02*
X041025Y013043D01*
X041525Y013043D01*
X041525Y014193D01*
X041025Y014193D01*
X040400Y009568D02*
X039900Y009568D01*
X039900Y008418D01*
X040400Y008418D01*
X040400Y009568D01*
X038775Y009568D02*
X038775Y008418D01*
X038275Y008418D01*
X038275Y009568D01*
X038775Y009568D01*
X037025Y009568D02*
X037025Y008418D01*
X036525Y008418D01*
X036525Y009568D01*
X037025Y009568D01*
X036275Y009568D02*
X035775Y009568D01*
X035775Y008418D01*
X036275Y008418D01*
X036275Y009568D01*
X044025Y009568D02*
X044025Y008418D01*
X044525Y008418D01*
X044525Y009568D01*
X044025Y009568D01*
X051325Y018618D02*
X051325Y019118D01*
X052475Y019118D01*
X052475Y018618D01*
X051325Y018618D01*
X052000Y019793D02*
X052000Y020693D01*
X053800Y020693D01*
X053800Y019793D01*
X052000Y019793D01*
X052825Y019118D02*
X052825Y018618D01*
X053975Y018618D01*
X053975Y019118D01*
X052825Y019118D01*
X052650Y022043D02*
X053150Y022043D01*
X053150Y023193D01*
X052650Y023193D01*
X052650Y022043D01*
X053400Y022043D02*
X053900Y022043D01*
X053900Y023193D01*
X053400Y023193D01*
X053400Y022043D01*
X054825Y022368D02*
X055975Y022368D01*
X055975Y022868D01*
X054825Y022868D01*
X054825Y022368D01*
X054825Y023118D02*
X055975Y023118D01*
X055975Y023618D01*
X054825Y023618D01*
X054825Y023118D01*
X054750Y024543D02*
X056550Y024543D01*
X056550Y025443D01*
X054750Y025443D01*
X054750Y024543D01*
X054825Y025618D02*
X055975Y025618D01*
X055975Y026118D01*
X054825Y026118D01*
X054825Y025618D01*
X054825Y026368D02*
X055975Y026368D01*
X055975Y026868D01*
X054825Y026868D01*
X054825Y026368D01*
X053900Y026818D02*
X053900Y025668D01*
X053400Y025668D01*
X053400Y026818D01*
X053900Y026818D01*
X054825Y027118D02*
X055975Y027118D01*
X055975Y027618D01*
X054825Y027618D01*
X054825Y027118D01*
X054650Y027543D02*
X054150Y027543D01*
X054150Y028693D01*
X054650Y028693D01*
X054650Y027543D01*
X054825Y027868D02*
X054825Y028368D01*
X055975Y028368D01*
X055975Y027868D01*
X054825Y027868D01*
X053900Y027543D02*
X053900Y028693D01*
X053400Y028693D01*
X053400Y027543D01*
X053900Y027543D01*
X053150Y027543D02*
X053150Y028693D01*
X052650Y028693D01*
X052650Y027543D01*
X053150Y027543D01*
X052400Y027543D02*
X052400Y028693D01*
X051900Y028693D01*
X051900Y027543D01*
X052400Y027543D01*
X050900Y027543D02*
X050900Y028693D01*
X050400Y028693D01*
X050400Y027543D01*
X050900Y027543D01*
X050150Y027543D02*
X050150Y028693D01*
X049650Y028693D01*
X049650Y027543D01*
X050150Y027543D01*
X050475Y026868D02*
X049325Y026868D01*
X049325Y026368D01*
X050475Y026368D01*
X050475Y026868D01*
X050475Y026118D02*
X049325Y026118D01*
X049325Y025618D01*
X050475Y025618D01*
X050475Y026118D01*
X050475Y025368D02*
X049325Y025368D01*
X049325Y024868D01*
X050475Y024868D01*
X050475Y025368D01*
X050475Y024618D02*
X049325Y024618D01*
X049325Y024118D01*
X050475Y024118D01*
X050475Y024618D01*
X050400Y023193D02*
X050400Y022043D01*
X050900Y022043D01*
X050900Y023193D01*
X050400Y023193D01*
X051150Y023193D02*
X051150Y022043D01*
X051650Y022043D01*
X051650Y023193D01*
X051150Y023193D01*
X049225Y022768D02*
X048325Y022768D01*
X048325Y020968D01*
X049225Y020968D01*
X049225Y022768D01*
X047475Y022868D02*
X047475Y022368D01*
X046325Y022368D01*
X046325Y022868D01*
X047475Y022868D01*
X047475Y023118D02*
X047475Y023618D01*
X046325Y023618D01*
X046325Y023118D01*
X047475Y023118D01*
X047475Y022118D02*
X046325Y022118D01*
X046325Y021618D01*
X047475Y021618D01*
X047475Y022118D01*
X047475Y021368D02*
X046325Y021368D01*
X046325Y020868D01*
X047475Y020868D01*
X047475Y021368D01*
X041350Y027718D02*
X040450Y027718D01*
X040450Y029518D01*
X041350Y029518D01*
X041350Y027718D01*
X040150Y027568D02*
X040150Y028518D01*
X039150Y028518D01*
X039335Y027988D02*
X039965Y027988D01*
X039965Y029248D01*
X039335Y029248D01*
X039335Y027988D01*
X039150Y027575D02*
X039150Y027568D01*
X040150Y027568D01*
X040150Y028518D02*
X040150Y029518D01*
X039150Y029518D01*
X039150Y027575D01*
X047900Y030293D02*
X048400Y030293D01*
X048400Y031443D01*
X047900Y031443D01*
X047900Y030293D01*
X048650Y030293D02*
X049150Y030293D01*
X049150Y031443D01*
X048650Y031443D01*
X048650Y030293D01*
X051875Y030068D02*
X051875Y029168D01*
X053675Y029168D01*
X053675Y030068D01*
X051875Y030068D01*
X054650Y030293D02*
X055150Y030293D01*
X055150Y031443D01*
X054650Y031443D01*
X054650Y030293D01*
X055400Y030293D02*
X055900Y030293D01*
X055900Y031443D01*
X055400Y031443D01*
X055400Y030293D01*
X055000Y033668D02*
X056800Y033668D01*
X056800Y034568D01*
X055000Y034568D01*
X055000Y033668D01*
X055000Y034918D02*
X056800Y034918D01*
X056800Y035818D01*
X055000Y035818D01*
X055000Y034918D01*
X053050Y038243D02*
X052050Y038243D01*
X052050Y039243D01*
X051520Y039058D02*
X051520Y038428D01*
X052780Y038428D01*
X052780Y039058D01*
X051520Y039058D01*
X051107Y039243D02*
X051100Y039243D01*
X051100Y038243D01*
X052050Y038243D01*
X053050Y038243D02*
X053050Y039243D01*
X051107Y039243D01*
X049725Y039118D02*
X049725Y038618D01*
X048575Y038618D01*
X048575Y039118D01*
X049725Y039118D01*
X048225Y039118D02*
X048225Y038618D01*
X047075Y038618D01*
X047075Y039118D01*
X048225Y039118D01*
X048225Y038368D02*
X048225Y037868D01*
X047075Y037868D01*
X047075Y038368D01*
X048225Y038368D01*
X048225Y037118D02*
X047075Y037118D01*
X047075Y036618D01*
X048225Y036618D01*
X048225Y037118D01*
X048550Y036368D02*
X048550Y035368D01*
X047550Y035368D01*
X047550Y036368D01*
X047020Y036183D02*
X047020Y035553D01*
X048280Y035553D01*
X048280Y036183D01*
X047020Y036183D01*
X046607Y036368D02*
X046600Y036368D01*
X046600Y035368D01*
X047550Y035368D01*
X047900Y034443D02*
X047900Y033293D01*
X048400Y033293D01*
X048400Y034443D01*
X047900Y034443D01*
X048650Y034443D02*
X048650Y033293D01*
X049150Y033293D01*
X049150Y034443D01*
X048650Y034443D01*
X048550Y036368D02*
X046607Y036368D01*
X057233Y038648D02*
X057233Y038992D01*
X057233Y040745D01*
X057233Y041089D01*
X060067Y041089D01*
X060067Y040745D01*
X060067Y038992D01*
X060067Y038648D01*
X057233Y038648D01*
X058338Y039556D02*
X058338Y040181D01*
X058400Y039868D02*
X058900Y040181D01*
X058900Y039556D01*
X058400Y039868D01*
X058453Y039868D02*
X058847Y039632D01*
X058847Y040105D01*
X058453Y039868D01*
X058458Y039871D02*
X058847Y039871D01*
X058847Y039949D02*
X058588Y039949D01*
X058719Y040028D02*
X058847Y040028D01*
X058847Y039792D02*
X058580Y039792D01*
X058710Y039714D02*
X058847Y039714D01*
X058841Y039635D02*
X058847Y039635D01*
X060575Y038618D02*
X060575Y038118D01*
X061725Y038118D01*
X061725Y038618D01*
X060575Y038618D01*
X062075Y038618D02*
X062075Y038118D01*
X063225Y038118D01*
X063225Y038618D01*
X062075Y038618D01*
X061930Y036786D02*
X062273Y036786D01*
X064027Y036786D01*
X064370Y036786D01*
X064370Y033951D01*
X064027Y033951D01*
X062273Y033951D01*
X061930Y033951D01*
X061930Y036786D01*
X062837Y035618D02*
X063150Y035118D01*
X063463Y035618D01*
X062837Y035618D01*
X062914Y035565D02*
X063150Y035171D01*
X063386Y035565D01*
X062914Y035565D01*
X062921Y035553D02*
X063379Y035553D01*
X063332Y035475D02*
X062968Y035475D01*
X063015Y035396D02*
X063285Y035396D01*
X063238Y035318D02*
X063062Y035318D01*
X063109Y035239D02*
X063191Y035239D01*
X063463Y035056D02*
X062837Y035056D01*
X063900Y041043D02*
X064400Y041043D01*
X064400Y042193D01*
X063900Y042193D01*
X063900Y041043D01*
X064850Y041118D02*
X064850Y042118D01*
X066950Y042118D01*
X066950Y041118D01*
X064850Y041118D01*
X064850Y040868D02*
X066950Y040868D01*
X066950Y042368D01*
X064850Y042368D01*
X064850Y040868D01*
X067150Y041043D02*
X067650Y041043D01*
X067650Y042193D01*
X067150Y042193D01*
X067150Y041043D01*
X066800Y043568D02*
X065000Y043568D01*
X065000Y043761D01*
X065000Y043773D02*
X065000Y043948D01*
X065000Y043968D02*
X064800Y043968D01*
X064800Y044768D01*
X065000Y044768D01*
X065000Y044982D01*
X065000Y044976D02*
X065000Y045168D01*
X066300Y045168D01*
X066200Y045168D01*
X066300Y045168D02*
X066800Y045168D01*
X066800Y044976D01*
X066800Y044756D01*
X066800Y044768D01*
X067000Y044768D01*
X067000Y043968D01*
X066800Y043968D01*
X066800Y044756D01*
X066800Y043968D02*
X066800Y043761D01*
X066800Y043568D01*
X065000Y043968D02*
X065000Y044768D01*
X063225Y043618D02*
X063225Y043118D01*
X062075Y043118D01*
X062075Y043618D01*
X063225Y043618D01*
X062150Y028193D02*
X061650Y028193D01*
X061650Y027043D01*
X062150Y027043D01*
X062150Y028193D01*
X061725Y021118D02*
X060575Y021118D01*
X060575Y020618D01*
X061725Y020618D01*
X061725Y021118D01*
X027800Y013118D02*
X027800Y012118D01*
X026800Y012118D01*
X026800Y013118D01*
X026270Y012933D02*
X026270Y012303D01*
X027530Y012303D01*
X027530Y012933D01*
X026270Y012933D01*
X025857Y013118D02*
X025850Y013118D01*
X025850Y012118D01*
X026800Y012118D01*
X026325Y011868D02*
X026325Y011368D01*
X027475Y011368D01*
X027475Y011868D01*
X026325Y011868D01*
X025857Y013118D02*
X027800Y013118D01*
D12*
X032900Y014368D03*
X032900Y014868D03*
X033650Y014868D03*
X033650Y014368D03*
X034400Y017368D03*
X034400Y017868D03*
X035150Y017868D03*
X035150Y017368D03*
X035900Y017368D03*
X035900Y017868D03*
X036650Y017868D03*
X036650Y017368D03*
X037400Y017368D03*
X037400Y017868D03*
X034275Y019993D03*
X034275Y020493D03*
X033525Y020493D03*
X033525Y019993D03*
X034150Y024868D03*
X034150Y025368D03*
X035650Y025368D03*
X035650Y024868D03*
X036400Y024868D03*
X036400Y025368D03*
X037900Y025368D03*
X037900Y024868D03*
X038650Y024868D03*
X038650Y025368D03*
X032150Y026868D03*
X032150Y027368D03*
X031400Y027368D03*
X031400Y026868D03*
X030650Y026868D03*
X030650Y027368D03*
X026650Y031368D03*
X026650Y031868D03*
X025900Y031868D03*
X025900Y031368D03*
X025150Y032118D03*
X025150Y032618D03*
X025900Y032868D03*
X025900Y033368D03*
X026650Y033368D03*
X026650Y032868D03*
X021150Y032868D03*
X021150Y033368D03*
X020400Y033368D03*
X020400Y032868D03*
X019650Y032618D03*
X019650Y032118D03*
X020400Y031868D03*
X020400Y031368D03*
X021150Y031368D03*
X021150Y031868D03*
X013400Y032118D03*
X013400Y032618D03*
X012650Y032993D03*
X012650Y033493D03*
X011650Y033368D03*
X011650Y033868D03*
X012650Y034493D03*
X012650Y034993D03*
X012650Y031743D03*
X012650Y031243D03*
X011650Y031368D03*
X011650Y030868D03*
X012650Y030243D03*
X012650Y029743D03*
X007400Y025868D03*
X007400Y025368D03*
X006650Y025368D03*
X006650Y025868D03*
X008150Y025118D03*
X008150Y024618D03*
X007400Y024368D03*
X007400Y023868D03*
X006650Y023868D03*
X006650Y024368D03*
X012650Y020493D03*
X012650Y019993D03*
X011650Y019368D03*
X011650Y018868D03*
X012650Y018993D03*
X012650Y018493D03*
X013400Y018118D03*
X013400Y017618D03*
X012650Y017243D03*
X012650Y016743D03*
X011650Y016868D03*
X011650Y016368D03*
X012650Y015743D03*
X012650Y015243D03*
X008150Y017118D03*
X008150Y017618D03*
X007400Y017868D03*
X007400Y018368D03*
X006650Y018368D03*
X006650Y017868D03*
X006650Y016868D03*
X006650Y016368D03*
X007400Y016368D03*
X007400Y016868D03*
X022525Y019118D03*
X022525Y019618D03*
X022525Y021118D03*
X022525Y021618D03*
X025150Y019243D03*
X025150Y018743D03*
X025900Y018743D03*
X025900Y019243D03*
X026775Y020868D03*
X026775Y021368D03*
X037900Y013868D03*
X037900Y013368D03*
X039525Y013368D03*
X039525Y013868D03*
X041275Y013868D03*
X041275Y013368D03*
X040150Y009243D03*
X040150Y008743D03*
X038525Y008743D03*
X038525Y009243D03*
X036775Y009243D03*
X036775Y008743D03*
X036025Y008743D03*
X036025Y009243D03*
X044275Y009243D03*
X044275Y008743D03*
X050650Y022368D03*
X050650Y022868D03*
X051400Y022868D03*
X051400Y022368D03*
X052900Y022368D03*
X052900Y022868D03*
X053650Y022868D03*
X053650Y022368D03*
X053650Y025993D03*
X053650Y026493D03*
X053650Y027868D03*
X053650Y028368D03*
X052900Y028368D03*
X052900Y027868D03*
X052150Y027868D03*
X052150Y028368D03*
X050650Y028368D03*
X050650Y027868D03*
X049900Y027868D03*
X049900Y028368D03*
X048900Y030618D03*
X048900Y031118D03*
X048150Y031118D03*
X048150Y030618D03*
X048150Y033618D03*
X048150Y034118D03*
X048900Y034118D03*
X048900Y033618D03*
X054900Y031118D03*
X054900Y030618D03*
X055650Y030618D03*
X055650Y031118D03*
X054400Y028368D03*
X054400Y027868D03*
X061900Y027868D03*
X061900Y027368D03*
X064150Y041368D03*
X064150Y041868D03*
X067400Y041868D03*
X067400Y041368D03*
X006400Y032618D03*
X006400Y032118D03*
X005650Y031743D03*
X005650Y031243D03*
X005650Y030243D03*
X005650Y029743D03*
X004650Y030868D03*
X004650Y031368D03*
X005650Y032993D03*
X005650Y033493D03*
X005650Y034493D03*
X005650Y034993D03*
X004650Y033868D03*
X004650Y033368D03*
D13*
X023525Y022493D03*
X024025Y022493D03*
X027775Y018493D03*
X028275Y018493D03*
X028275Y017868D03*
X027775Y017868D03*
X023900Y018243D03*
X023400Y018243D03*
X032150Y019868D03*
X032650Y019868D03*
X032650Y020618D03*
X032150Y020618D03*
X032150Y021368D03*
X032650Y021368D03*
X032650Y024743D03*
X032150Y024743D03*
X032150Y025493D03*
X032650Y025493D03*
X039650Y022993D03*
X040150Y022993D03*
X040150Y022243D03*
X039650Y022243D03*
X039650Y021118D03*
X040150Y021118D03*
X040150Y020368D03*
X039650Y020368D03*
X039650Y019618D03*
X040150Y019618D03*
X046650Y021118D03*
X047150Y021118D03*
X047150Y021868D03*
X046650Y021868D03*
X046650Y022618D03*
X047150Y022618D03*
X047150Y023368D03*
X046650Y023368D03*
X049650Y024368D03*
X050150Y024368D03*
X050150Y025118D03*
X049650Y025118D03*
X049650Y025868D03*
X050150Y025868D03*
X050150Y026618D03*
X049650Y026618D03*
X055150Y026618D03*
X055650Y026618D03*
X055650Y027368D03*
X055150Y027368D03*
X055150Y028118D03*
X055650Y028118D03*
X055650Y025868D03*
X055150Y025868D03*
X055150Y023368D03*
X055650Y023368D03*
X055650Y022618D03*
X055150Y022618D03*
X053650Y018868D03*
X053150Y018868D03*
X052150Y018868D03*
X051650Y018868D03*
X060900Y020868D03*
X061400Y020868D03*
X047900Y036868D03*
X047400Y036868D03*
X047400Y038118D03*
X047900Y038118D03*
X047900Y038868D03*
X047400Y038868D03*
X048900Y038868D03*
X049400Y038868D03*
X060900Y038368D03*
X061400Y038368D03*
X062400Y038368D03*
X062900Y038368D03*
X062900Y043368D03*
X062400Y043368D03*
X027150Y011618D03*
X026650Y011618D03*
D14*
X052380Y020243D03*
X053420Y020243D03*
X055130Y024993D03*
X056170Y024993D03*
X053295Y029618D03*
X052255Y029618D03*
X055380Y034118D03*
X056420Y034118D03*
X056420Y035368D03*
X055380Y035368D03*
D15*
X040900Y029138D03*
X040900Y028098D03*
X048775Y022388D03*
X048775Y021348D03*
D16*
X039951Y018368D03*
X039676Y018368D03*
X038849Y018368D03*
X033451Y022868D03*
X032624Y022868D03*
X032349Y022868D03*
X026701Y030118D03*
X025874Y030118D03*
X025599Y030118D03*
X021201Y030118D03*
X020374Y030118D03*
X020099Y030118D03*
X007701Y027118D03*
X007426Y027118D03*
X006599Y027118D03*
X006599Y019618D03*
X007426Y019618D03*
X007701Y019618D03*
X026349Y012618D03*
X026624Y012618D03*
X027451Y012618D03*
X047099Y035868D03*
X047374Y035868D03*
X048201Y035868D03*
X051599Y038743D03*
X051874Y038743D03*
X052701Y038743D03*
D17*
X051203Y038743D03*
X046703Y035868D03*
X031953Y022868D03*
X040347Y018368D03*
X025953Y012618D03*
X008097Y019618D03*
X008097Y027118D03*
X019703Y030118D03*
X025203Y030118D03*
D18*
X057143Y039868D03*
X060157Y039868D03*
D19*
X058148Y039868D03*
D20*
X063150Y036875D03*
X063150Y033862D03*
D21*
X063150Y034866D03*
D22*
X039650Y029170D03*
X039650Y028343D03*
X039650Y028067D03*
X033150Y018670D03*
X033150Y017843D03*
X033150Y017567D03*
D23*
X033150Y017172D03*
X039650Y027672D03*
D24*
X066650Y041368D03*
D25*
X066650Y040614D03*
X066150Y040614D03*
X065650Y040614D03*
X065150Y040614D03*
X065150Y042622D03*
X065650Y042622D03*
X066150Y042622D03*
X066650Y042622D03*
D26*
X066294Y044368D03*
M02*
