G75*
G70*
%OFA0B0*%
%FSLAX24Y24*%
%IPPOS*%
%LPD*%
%AMOC8*
5,1,8,0,0,1.08239X$1,22.5*
%
%ADD10C,0.1340*%
%ADD11C,0.1182*%
%ADD12C,0.0680*%
%ADD13OC8,0.0611*%
%ADD14C,0.0436*%
%ADD15R,0.0680X0.0680*%
%ADD16OC8,0.0680*%
%ADD17C,0.0966*%
%ADD18OC8,0.0552*%
%ADD19OC8,0.1346*%
%ADD20OC8,0.0671*%
%ADD21C,0.0436*%
%ADD22C,0.0350*%
D10*
X001150Y001150D03*
X001150Y043150D03*
X037650Y043150D03*
X067150Y043150D03*
X067150Y001150D03*
D11*
X033400Y006900D03*
X033400Y023650D03*
X002900Y023650D03*
X002900Y006900D03*
D12*
X008650Y006600D02*
X008650Y007200D01*
X009650Y007200D02*
X009650Y006600D01*
X010650Y006600D02*
X010650Y007200D01*
X011650Y007200D02*
X011650Y006600D01*
X012650Y006600D02*
X012650Y007200D01*
X013650Y007200D02*
X013650Y006600D01*
X014650Y006600D02*
X014650Y007200D01*
X015650Y007200D02*
X015650Y006600D01*
X016650Y006600D02*
X016650Y007200D01*
X017650Y007200D02*
X017650Y006600D01*
X018650Y006600D02*
X018650Y007200D01*
X019650Y007200D02*
X019650Y006600D01*
X020650Y006600D02*
X020650Y007200D01*
X021650Y007200D02*
X021650Y006600D01*
X022650Y006600D02*
X022650Y007200D01*
X023650Y007200D02*
X023650Y006600D01*
X024650Y006600D02*
X024650Y007200D01*
X025650Y007200D02*
X025650Y006600D01*
X026650Y006600D02*
X026650Y007200D01*
X027650Y007200D02*
X027650Y006600D01*
D13*
X028969Y004134D03*
X031331Y004134D03*
X031331Y002166D03*
X028969Y002166D03*
X023331Y002166D03*
X020969Y002166D03*
X020969Y004134D03*
X023331Y004134D03*
X015331Y004134D03*
X012969Y004134D03*
X012969Y002166D03*
X015331Y002166D03*
X007331Y002166D03*
X004969Y002166D03*
X004969Y004134D03*
X007331Y004134D03*
X060969Y030166D03*
X063331Y030166D03*
X063331Y032134D03*
X060969Y032134D03*
D14*
X054900Y016900D02*
X054900Y016544D01*
X054400Y016544D02*
X054400Y016900D01*
X053900Y016900D02*
X053900Y016544D01*
X053400Y016544D02*
X053400Y016900D01*
X052900Y016900D02*
X052900Y016544D01*
X052400Y016544D02*
X052400Y016900D01*
X040900Y016650D02*
X040900Y016294D01*
X040400Y016294D02*
X040400Y016650D01*
X039900Y016650D02*
X039900Y016294D01*
X039400Y016294D02*
X039400Y016650D01*
X038900Y016650D02*
X038900Y016294D01*
X038400Y016294D02*
X038400Y016650D01*
X045400Y004900D02*
X045400Y004544D01*
X045900Y004544D02*
X045900Y004900D01*
X046400Y004900D02*
X046400Y004544D01*
X046900Y004544D02*
X046900Y004900D01*
X047400Y004900D02*
X047400Y004544D01*
X047900Y004544D02*
X047900Y004900D01*
X059400Y004650D02*
X059400Y004294D01*
X059900Y004294D02*
X059900Y004650D01*
X060400Y004650D02*
X060400Y004294D01*
X060900Y004294D02*
X060900Y004650D01*
X061400Y004650D02*
X061400Y004294D01*
X061900Y004294D02*
X061900Y004650D01*
D15*
X065650Y022650D03*
X001650Y020150D03*
D16*
X002650Y020150D03*
X002650Y019150D03*
X001650Y019150D03*
X001650Y018150D03*
X002650Y018150D03*
X002650Y017150D03*
X001650Y017150D03*
X001650Y016150D03*
X002650Y016150D03*
X002650Y015150D03*
X001650Y015150D03*
X001650Y014150D03*
X002650Y014150D03*
X002650Y013150D03*
X001650Y013150D03*
X001650Y012150D03*
X002650Y012150D03*
X065650Y011650D03*
X066650Y011650D03*
X066650Y010650D03*
X065650Y010650D03*
X065650Y009650D03*
X066650Y009650D03*
X066650Y012650D03*
X065650Y012650D03*
X065650Y013650D03*
X066650Y013650D03*
X066650Y014650D03*
X065650Y014650D03*
X065650Y015650D03*
X066650Y015650D03*
X066650Y016650D03*
X065650Y016650D03*
X065650Y017650D03*
X066650Y017650D03*
X066650Y018650D03*
X065650Y018650D03*
X065650Y019650D03*
X066650Y019650D03*
X066650Y020650D03*
X065650Y020650D03*
X065650Y021650D03*
X066650Y021650D03*
X066650Y022650D03*
D17*
X054516Y029536D03*
X052784Y030166D03*
X053650Y031150D03*
X054319Y032134D03*
X052981Y033119D03*
X052016Y035536D03*
X051150Y037150D03*
X050284Y036166D03*
X051819Y038134D03*
X050481Y039119D03*
X046819Y038134D03*
X045481Y039119D03*
X046150Y037150D03*
X045284Y036166D03*
X047016Y035536D03*
X047981Y033119D03*
X049319Y032134D03*
X048650Y031150D03*
X047784Y030166D03*
X049516Y029536D03*
X044516Y029536D03*
X043650Y031150D03*
X044319Y032134D03*
X042981Y033119D03*
X042016Y035536D03*
X041150Y037150D03*
X040284Y036166D03*
X041819Y038134D03*
X040481Y039119D03*
X037981Y033119D03*
X039319Y032134D03*
X038650Y031150D03*
X037784Y030166D03*
X039516Y029536D03*
X042784Y030166D03*
X055284Y036166D03*
X056150Y037150D03*
X056819Y038134D03*
X055481Y039119D03*
X057016Y035536D03*
D18*
X025819Y033119D03*
X025819Y032331D03*
X025819Y031544D03*
X025819Y030756D03*
X025819Y029969D03*
X025819Y029181D03*
X017819Y029181D03*
X017819Y029969D03*
X017819Y030756D03*
X017819Y031544D03*
X017819Y032331D03*
X017819Y033119D03*
X009819Y033119D03*
X009819Y032331D03*
X009819Y031544D03*
X009819Y030756D03*
X009819Y029969D03*
X009819Y029181D03*
X001819Y029181D03*
X001819Y029969D03*
X001819Y030756D03*
X001819Y031544D03*
X001819Y032331D03*
X001819Y033119D03*
D19*
X006150Y033315D03*
X006150Y028985D03*
X014150Y028985D03*
X014150Y033315D03*
X022150Y033315D03*
X022150Y028985D03*
X030150Y028985D03*
X030150Y033315D03*
D20*
X006142Y037166D03*
X005158Y037166D03*
X005158Y038150D03*
X006142Y038150D03*
X006142Y039134D03*
X005158Y039134D03*
D21*
X064900Y006900D03*
X067150Y005650D03*
X064900Y004650D03*
X067650Y007900D03*
X066650Y027400D03*
X066650Y031650D03*
D22*
X063650Y036650D03*
X062900Y037400D03*
X062400Y038650D03*
X064025Y038650D03*
X060775Y038650D03*
X059150Y038650D03*
X054400Y027650D03*
X052150Y025650D03*
X053150Y025400D03*
X052150Y022900D03*
X048150Y025400D03*
X047150Y025650D03*
X049400Y027650D03*
X044400Y027650D03*
X042150Y025650D03*
X043150Y025400D03*
X042150Y022900D03*
X040650Y022150D03*
X038900Y023900D03*
X038150Y025400D03*
X039400Y027650D03*
X047150Y022900D03*
X037900Y018650D03*
X035900Y020650D03*
X031525Y016150D03*
X032650Y015650D03*
X033900Y015400D03*
X035150Y013400D03*
X037150Y014400D03*
X040400Y015400D03*
X044650Y012400D03*
X044150Y011900D03*
X043650Y011400D03*
X043150Y010900D03*
X045150Y012900D03*
X045650Y013400D03*
X046150Y013900D03*
X048650Y011400D03*
X048150Y010900D03*
X047650Y010400D03*
X047150Y009900D03*
X046650Y009400D03*
X046150Y008900D03*
X045650Y008400D03*
X041900Y007150D03*
X041400Y006400D03*
X041900Y005150D03*
X039900Y005150D03*
X037150Y005650D03*
X034900Y004650D03*
X039900Y003150D03*
X040900Y007900D03*
X040900Y008900D03*
X034150Y008900D03*
X033650Y008400D03*
X033650Y010650D03*
X033650Y011400D03*
X032650Y013150D03*
X031400Y010900D03*
X026150Y015150D03*
X024650Y013650D03*
X022650Y015150D03*
X022150Y015150D03*
X022900Y017100D03*
X023400Y017400D03*
X022900Y018650D03*
X024650Y020150D03*
X022650Y021650D03*
X022150Y021650D03*
X022900Y023600D03*
X021150Y025400D03*
X018900Y025400D03*
X018650Y026650D03*
X018650Y027150D03*
X020650Y027900D03*
X012900Y023900D03*
X012900Y023400D03*
X011900Y022900D03*
X010650Y023400D03*
X010650Y023900D03*
X009400Y023400D03*
X006900Y023400D03*
X006400Y023900D03*
X006150Y024400D03*
X006150Y024900D03*
X005400Y023650D03*
X004900Y023400D03*
X006900Y022400D03*
X007900Y021400D03*
X008150Y020900D03*
X006150Y020150D03*
X006900Y019650D03*
X006400Y019400D03*
X005400Y019650D03*
X004900Y018650D03*
X003900Y019650D03*
X005150Y017650D03*
X005900Y016900D03*
X006150Y017400D03*
X007900Y017650D03*
X010400Y017400D03*
X012150Y015400D03*
X012150Y014900D03*
X010150Y013650D03*
X007900Y013650D03*
X008900Y011650D03*
X007150Y010400D03*
X013150Y012900D03*
X014650Y015400D03*
X016650Y014900D03*
X017650Y014400D03*
X018650Y012900D03*
X022150Y011900D03*
X024150Y012150D03*
X016900Y010400D03*
X013900Y010150D03*
X010900Y004650D03*
X018900Y004650D03*
X026900Y004650D03*
X016400Y017400D03*
X016400Y017900D03*
X017900Y019900D03*
X020150Y018400D03*
X026650Y021650D03*
X011900Y019900D03*
X007900Y028650D03*
X008400Y029150D03*
X008400Y029650D03*
X008400Y030400D03*
X001400Y037900D03*
X047400Y003650D03*
X055650Y007900D03*
X056150Y007900D03*
X056650Y007900D03*
X057150Y007900D03*
X055150Y011900D03*
X055150Y014900D03*
X055650Y015400D03*
X056150Y015400D03*
X056650Y015400D03*
X057150Y015400D03*
X054400Y015650D03*
X063150Y013650D03*
X063150Y013150D03*
X066150Y017150D03*
X061400Y003400D03*
M02*
