%
M48
M72
T01C0.0150
T02C0.0236
T03C0.0276
T04C0.0360
T05C0.0362
T06C0.0374
T07C0.0394
T08C0.0400
T09C0.0433
T10C0.0531
T11C0.0560
T12C0.0591
T13C0.0630
T14C0.0906
T15C0.1260
%
T01
X25026Y17373
X26901Y15873
X27401Y16123
X27401Y15623
X27901Y17373
X27901Y18123
X28151Y19123
X27901Y19373
X28151Y20373
X28151Y20873
X29526Y20998
X29776Y20623
X29901Y19873
X30776Y18873
X31276Y18748
X31590Y18559
X31276Y18373
X30401Y17623
X30401Y17248
X28901Y17248
X29651Y14873
X32651Y16623
X34901Y17373
X34151Y19373
X32651Y19498
X32651Y21373
X32651Y22248
X33401Y22248
X34151Y22748
X33026Y23873
X31526Y23748
X31526Y23248
X30651Y22248
X30151Y21623
X31026Y21498
X31526Y21248
X29151Y23248
X28401Y22873
X28151Y22373
X26651Y23373
X27526Y24373
X28151Y24373
X30651Y25498
X31151Y25623
X31901Y27123
X32901Y27123
X33901Y25373
X35276Y25123
X36651Y25873
X37651Y24998
X36651Y23873
X35526Y23873
X37901Y23123
X40026Y23123
X41026Y23873
X41651Y23373
X41651Y22373
X41651Y21998
X41276Y21748
X40901Y21998
X40526Y22248
X41651Y21498
X42776Y22123
X42776Y22498
X43276Y22873
X43901Y23623
X43526Y23873
X43526Y24373
X44276Y23873
X44651Y24123
X44901Y23373
X46151Y23373
X46651Y23373
X46651Y24623
X46151Y24623
X45026Y25123
X43276Y25123
X42901Y25123
X40401Y24934
X39276Y24998
X42151Y28123
X40026Y28873
X43901Y30873
X44401Y30373
X46151Y32623
X46651Y32623
X49151Y31123
X49901Y29623
X49901Y28123
X49651Y27623
X49151Y27623
X49276Y27123
X50651Y28248
X51901Y28123
X53151Y28123
X52776Y26873
X52401Y26873
X52026Y26873
X51651Y26873
X50901Y26873
X50151Y25623
X50151Y25248
X50151Y23873
X50151Y23498
X50151Y23123
X50151Y22748
X50151Y22373
X50151Y21873
X50401Y21123
X48901Y20998
X48901Y20623
X48901Y20248
X48901Y19873
X49151Y19498
X49401Y18373
X49776Y18373
X50526Y18623
X50901Y18248
X51276Y18248
X51901Y18248
X52151Y17998
X52401Y17748
X51776Y16873
X53651Y16873
X54776Y17810
X54401Y18123
X55901Y17123
X55526Y16873
X57776Y17873
X58151Y18248
X58401Y18748
X58776Y18998
X59276Y19123
X59776Y19248
X61151Y19248
X61151Y18748
X61964Y18560
X62151Y17623
X62901Y17873
X63276Y18873
X63901Y19123
X64151Y19498
X64151Y19873
X64151Y20248
X64151Y20623
X63651Y21123
X63401Y20873
X64151Y21748
X65401Y21998
X65401Y22373
X65776Y21998
X65401Y24373
X64151Y24498
X64151Y23998
X63776Y23998
X64151Y25123
X64151Y25498
X64151Y25873
X64151Y26373
X64151Y26748
X64151Y27123
X65401Y26373
X66651Y26873
X66651Y24873
X61776Y24373
X61401Y24373
X61151Y24623
X59901Y24498
X59401Y24498
X59151Y24748
X58776Y24748
X58401Y24748
X57151Y24623
X57151Y25373
X55651Y24623
X54651Y25373
X54151Y24623
X51651Y25373
X53526Y26873
X53901Y26873
X54401Y26873
X55526Y26873
X55901Y26873
X58026Y27623
X58276Y27373
X58526Y27123
X59151Y26623
X59651Y27123
X59526Y25873
X59901Y25873
X61151Y26123
X61151Y25623
X59526Y25248
X57151Y23498
X57151Y23123
X56776Y22623
X57151Y21498
X57151Y20623
X57151Y19998
X56526Y19873
X56151Y19873
X55776Y19873
X55401Y19873
X55026Y19873
X54651Y19873
X54276Y19873
X53901Y19873
X52776Y19873
X52401Y19873
X52026Y19873
X51651Y19873
X51276Y19873
X50901Y19873
X52401Y21373
X53901Y21373
X55651Y20623
X58401Y20248
X58901Y20623
X59276Y21373
X61151Y21998
X61151Y22373
X61151Y23248
X59151Y23123
X58401Y22873
X51651Y23123
X51651Y23873
X47151Y20623
X44276Y21498
X44026Y21123
X43776Y20873
X43526Y20498
X42776Y19623
X41651Y19873
X41651Y19373
X40901Y17248
X41651Y16998
X42776Y17373
X44776Y17248
X45026Y16498
X45276Y15748
X45526Y14998
X42776Y15248
X42026Y14623
X41776Y13998
X41401Y12998
X41026Y12748
X41026Y12123
X42026Y12498
X41776Y10873
X42276Y10873
X43026Y10748
X43526Y10748
X43776Y10248
X44026Y9873
X44276Y9498
X45026Y9623
X45276Y8998
X45526Y8373
X45776Y7498
X45526Y6248
X47651Y4623
X47151Y4123
X49151Y3623
X50651Y5373
X52901Y3873
X53151Y1623
X56651Y7373
X55651Y8373
X57401Y9623
X59401Y7873
X60401Y9623
X60651Y12123
X61401Y12123
X59151Y12123
X57651Y12123
X55901Y12123
X54651Y12373
X54401Y11873
X53901Y11373
X52151Y12873
X51651Y12873
X51401Y13123
X50901Y13373
X50651Y13873
X45776Y12498
X44526Y10748
X44776Y10248
X43026Y7873
X43276Y6623
X41401Y6248
X40526Y6623
X39776Y6248
X38651Y6623
X37776Y6248
X36401Y3873
X33401Y5373
X36526Y8748
X36901Y8998
X36526Y9248
X36901Y9498
X36526Y9748
X36901Y9998
X36526Y10248
X36901Y10498
X36526Y10873
X38901Y10873
X39401Y10873
X40526Y10873
X39026Y13123
X38526Y13123
X38026Y13123
X37651Y13123
X37151Y13123
X36526Y13748
X36151Y14873
X36901Y14873
X37276Y14873
X37651Y14873
X38026Y14873
X38401Y14873
X38776Y13748
X40776Y14873
X41651Y15373
X37651Y16498
X34651Y14873
X33151Y14998
X33526Y13748
X34276Y12498
X34276Y11123
X44526Y18873
X34151Y29248
X39651Y32873
X39651Y33873
X43651Y33123
X44901Y34873
X45901Y35623
X45901Y36373
X46651Y36123
X47901Y36373
X48151Y35623
X48776Y35623
X49401Y37123
X50901Y35873
X50651Y35373
X51151Y34873
X50651Y34123
X51401Y33373
X52401Y32373
X55026Y29623
X55901Y29623
X62901Y28748
X65151Y29623
X65151Y30123
X66651Y19123
X65026Y18873
X60651Y17373
X59901Y17623
X59651Y17873
X63901Y6873
X63901Y6373
X63401Y6373
X25526Y21373
X25026Y21373
X22901Y20998
X22901Y20498
X21901Y21873
X20651Y22873
X19401Y23373
X21276Y24498
X21901Y23873
X19151Y31623
X19651Y31998
X19651Y32748
X19151Y32748
X18151Y32748
X17526Y32373
X17526Y33498
X18026Y34248
X19151Y34623
X17151Y35623
X15401Y32873
X14776Y31998
X15776Y31498
X18151Y31248
X20151Y32748
X12901Y31998
X12151Y31248
X12276Y32748
X12776Y33498
X11901Y38373
X43901Y37123
X44401Y37123
X44151Y38373
X46651Y34623
T02
X45401Y33873
X45901Y31123
X44651Y29623
X44651Y28373
T03
X52901Y30873
X53901Y30873
X54901Y30873
X58651Y32873
X61151Y32873
X61151Y31873
X64151Y30373
X56401Y34373
X56151Y37373
X56151Y37873
X56151Y38373
X53651Y38873
X52651Y38873
T04
X40151Y2873
X39151Y2873
X38151Y2873
X37151Y2873
X36151Y2873
X35151Y2873
X34151Y2873
X34151Y1873
X35151Y1873
X36151Y1873
X37151Y1873
X38151Y1873
X39151Y1873
X40151Y1873
T05
X47151Y39373
X47151Y40160
X47151Y40948
X47151Y41735
T06
X52159Y41306
X52159Y40519
X53143Y40519
X53143Y41306
T07
X63659Y40857
X63659Y39873
X64643Y39873
X64643Y40857
X64643Y38889
X63659Y38889
T08
X67151Y40873
X51901Y30623
X39151Y36373
X38151Y36373
X38151Y37373
X39151Y37373
X39151Y38373
X38151Y38373
X38151Y39373
X39151Y39373
X39151Y40373
X38151Y40373
X38151Y41373
X39151Y41373
X39151Y42373
X38151Y42373
X38151Y43373
X39151Y43373
X65651Y17873
X66651Y17873
X66651Y16873
X65651Y16873
X65651Y15873
X66651Y15873
X66651Y14873
X65651Y14873
X65651Y13873
X66651Y13873
X66651Y12873
X65651Y12873
X65651Y11873
X66651Y11873
X66651Y10873
X65651Y10873
X65651Y9873
X66651Y9873
X66651Y8873
X65651Y8873
X65651Y7873
X66651Y7873
X66651Y6873
X65651Y6873
X65651Y5873
X66651Y5873
X66651Y4873
X65651Y4873
X49151Y2873
X48151Y2873
X47151Y2873
X46151Y2873
X45151Y2873
X45151Y1873
X46151Y1873
X47151Y1873
X48151Y1873
X49151Y1873
X2651Y6873
X1651Y6873
X1651Y7873
X2651Y7873
X2651Y8873
X1651Y8873
X1651Y9873
X2651Y9873
X2651Y10873
X1651Y10873
X1651Y11873
X2651Y11873
X2651Y12873
X1651Y12873
X1651Y13873
X2651Y13873
X2651Y14873
X1651Y14873
X1651Y15873
X2651Y15873
X2651Y16873
X1651Y16873
X1651Y17873
X2651Y17873
X2651Y18873
X1651Y18873
X1651Y19873
X2651Y19873
X2651Y20873
X1651Y20873
X1651Y21873
X2651Y21873
T09
X54647Y9421
T10
X48222Y39373
X46080Y39373
X46080Y42129
X48222Y42129
T11
X57651Y41998
X59651Y40873
X59651Y43248
T12
X43084Y42428
X42297Y43373
X43084Y40263
X35805Y41003
X35805Y43503
X31305Y43503
X28805Y43503
X28805Y41003
X31305Y41003
X31305Y38503
X28805Y38503
X24305Y38503
X21805Y38503
X21805Y41003
X24305Y41003
X24305Y43503
X21805Y43503
X17305Y43503
X14805Y43503
X14805Y41003
X17305Y41003
X17305Y38503
X14805Y38503
X10305Y38503
X7805Y38503
X7805Y41003
X10305Y41003
X10305Y43503
X7805Y43503
X3305Y43503
X3305Y41003
X3305Y38503
X35805Y38503
T13
X62954Y9421
T14
X55013Y42373
X50289Y42373
T15
X1151Y1373
X1151Y34373
X1151Y43373
X67151Y43373
X67151Y29373
X67151Y1373
M30
