G75*
G70*
%OFA0B0*%
%FSLAX24Y24*%
%IPPOS*%
%LPD*%
%AMOC8*
5,1,8,0,0,1.08239X$1,22.5*
%
%ADD10C,0.0050*%
%ADD11C,0.0060*%
%ADD12R,0.1250X0.1250*%
%ADD13C,0.0080*%
%ADD14R,0.0335X0.0295*%
%ADD15R,0.0394X0.0079*%
%ADD16C,0.0070*%
%ADD17C,0.0040*%
%ADD18R,0.0315X0.0160*%
%ADD19C,0.0020*%
%ADD20C,0.0279*%
%ADD21R,0.0080X0.0330*%
%ADD22R,0.0160X0.0315*%
%ADD23R,0.0630X0.0157*%
%ADD24R,0.1000X0.0193*%
%ADD25R,0.0157X0.0630*%
%ADD26R,0.0193X0.1000*%
%ADD27R,0.0200X0.0200*%
%ADD28C,0.0160*%
%ADD29R,0.0049X0.0197*%
%ADD30R,0.0128X0.0089*%
%ADD31R,0.0089X0.0049*%
%ADD32R,0.0049X0.0167*%
%ADD33R,0.0138X0.0197*%
%ADD34R,0.0049X0.0236*%
%ADD35R,0.0118X0.0669*%
%ADD36R,0.0276X0.0669*%
%ADD37R,0.0167X0.0128*%
%ADD38R,0.0138X0.0138*%
%ADD39C,0.0100*%
%ADD40R,0.0230X0.0180*%
%ADD41C,0.0250*%
%ADD42R,0.0433X0.0193*%
%ADD43R,0.0374X0.0118*%
%ADD44R,0.0690X0.0290*%
%ADD45R,0.0128X0.0197*%
%ADD46R,0.0059X0.0098*%
%ADD47R,0.0157X0.0069*%
%ADD48R,0.0079X0.0079*%
%ADD49R,0.0118X0.0118*%
%ADD50R,0.0128X0.0030*%
%ADD51R,0.0295X0.0335*%
%ADD52R,0.0079X0.0394*%
%ADD53R,0.0197X0.0128*%
%ADD54R,0.0098X0.0059*%
%ADD55R,0.0069X0.0157*%
%ADD56R,0.0030X0.0128*%
D10*
X003163Y028344D02*
X003163Y033856D01*
X009856Y033856D01*
X009856Y028344D01*
X003163Y028344D01*
X011163Y028344D02*
X011163Y033856D01*
X017856Y033856D01*
X017856Y028344D01*
X011163Y028344D01*
X019163Y028344D02*
X019163Y033856D01*
X025856Y033856D01*
X025856Y028344D01*
X019163Y028344D01*
X027163Y028344D02*
X027163Y033856D01*
X033856Y033856D01*
X033856Y028344D01*
X027163Y028344D01*
X036631Y028344D02*
X036631Y034053D01*
X040569Y034053D01*
X040569Y028344D01*
X036631Y028344D01*
X041631Y028344D02*
X041631Y034053D01*
X045569Y034053D01*
X045569Y028344D01*
X041631Y028344D01*
X046631Y028344D02*
X046631Y034053D01*
X050569Y034053D01*
X050569Y028344D01*
X046631Y028344D01*
X051631Y028344D02*
X051631Y034053D01*
X055569Y034053D01*
X055569Y028344D01*
X051631Y028344D01*
X053069Y034147D02*
X049131Y034147D01*
X049131Y039856D01*
X053069Y039856D01*
X053069Y034147D01*
X054131Y034147D02*
X054131Y039856D01*
X058069Y039856D01*
X058069Y034147D01*
X054131Y034147D01*
X048069Y034147D02*
X044131Y034147D01*
X044131Y039856D01*
X048069Y039856D01*
X048069Y034147D01*
X043069Y034147D02*
X039131Y034147D01*
X039131Y039856D01*
X043069Y039856D01*
X043069Y034147D01*
X058063Y042563D02*
X058296Y042563D01*
X058179Y042563D02*
X058179Y042913D01*
X058063Y042796D01*
X058431Y042854D02*
X058489Y042913D01*
X058606Y042913D01*
X058664Y042854D01*
X058664Y042796D01*
X058606Y042738D01*
X058664Y042679D01*
X058664Y042621D01*
X058606Y042563D01*
X058489Y042563D01*
X058431Y042621D01*
X058548Y042738D02*
X058606Y042738D01*
X058799Y042854D02*
X058858Y042913D01*
X058974Y042913D01*
X059033Y042854D01*
X058799Y042621D01*
X058858Y042563D01*
X058974Y042563D01*
X059033Y042621D01*
X059033Y042854D01*
X059167Y042913D02*
X059167Y042738D01*
X059284Y042796D01*
X059343Y042796D01*
X059401Y042738D01*
X059401Y042621D01*
X059343Y042563D01*
X059226Y042563D01*
X059167Y042621D01*
X059167Y042913D02*
X059401Y042913D01*
X059536Y042854D02*
X059594Y042913D01*
X059711Y042913D01*
X059769Y042854D01*
X059536Y042621D01*
X059594Y042563D01*
X059711Y042563D01*
X059769Y042621D01*
X059769Y042854D01*
X059904Y042913D02*
X060138Y042913D01*
X060138Y042854D01*
X059904Y042621D01*
X059904Y042563D01*
X059536Y042621D02*
X059536Y042854D01*
X058799Y042854D02*
X058799Y042621D01*
X008425Y041643D02*
X008425Y035738D01*
X005275Y035738D01*
X005275Y041643D01*
X005669Y041643D01*
X005669Y045187D01*
X008031Y045187D01*
X008031Y041643D01*
X008425Y041643D01*
X008031Y041643D02*
X005669Y041643D01*
D11*
X058068Y043266D02*
X058141Y043339D01*
X058361Y043339D01*
X058361Y043413D02*
X058361Y043193D01*
X058141Y043193D01*
X058068Y043266D01*
X058141Y043486D02*
X058288Y043486D01*
X058361Y043413D01*
X058528Y043633D02*
X058601Y043633D01*
X058601Y043193D01*
X058528Y043193D02*
X058675Y043193D01*
X058835Y043266D02*
X058835Y043413D01*
X058908Y043486D01*
X059055Y043486D01*
X059128Y043413D01*
X059128Y043339D01*
X058835Y043339D01*
X058835Y043266D02*
X058908Y043193D01*
X059055Y043193D01*
X059295Y043193D02*
X059515Y043193D01*
X059589Y043266D01*
X059589Y043413D01*
X059515Y043486D01*
X059295Y043486D01*
X059295Y043046D01*
X059756Y043193D02*
X059756Y043633D01*
X059829Y043486D02*
X059976Y043486D01*
X060049Y043413D01*
X060049Y043193D01*
X060216Y043193D02*
X060510Y043633D01*
X060676Y043486D02*
X060750Y043486D01*
X060750Y043193D01*
X060823Y043193D02*
X060676Y043193D01*
X060983Y043193D02*
X060983Y043486D01*
X061204Y043486D01*
X061277Y043413D01*
X061277Y043193D01*
X061517Y043266D02*
X061591Y043193D01*
X061517Y043266D02*
X061517Y043559D01*
X061444Y043486D02*
X061591Y043486D01*
X060750Y043633D02*
X060750Y043706D01*
X059829Y043486D02*
X059756Y043413D01*
X028850Y007350D02*
X028350Y007350D01*
X028100Y007100D01*
X028100Y006600D01*
X028350Y006350D01*
X028850Y006350D01*
X029100Y006600D01*
X029100Y007100D01*
X028850Y007350D01*
X028100Y007100D02*
X027850Y007350D01*
X027350Y007350D01*
X027100Y007100D01*
X027100Y006600D01*
X027350Y006350D01*
X027850Y006350D01*
X028100Y006600D01*
X027100Y006600D02*
X026850Y006350D01*
X026350Y006350D01*
X026100Y006600D01*
X025850Y006350D01*
X025350Y006350D01*
X025100Y006600D01*
X024850Y006350D01*
X024350Y006350D01*
X024100Y006600D01*
X023850Y006350D01*
X023350Y006350D01*
X023100Y006600D01*
X022850Y006350D01*
X022350Y006350D01*
X022100Y006600D01*
X021850Y006350D01*
X021350Y006350D01*
X021100Y006600D01*
X020850Y006350D01*
X020350Y006350D01*
X020100Y006600D01*
X019850Y006350D01*
X019350Y006350D01*
X019100Y006600D01*
X018850Y006350D01*
X018350Y006350D01*
X018100Y006600D01*
X017850Y006350D01*
X017350Y006350D01*
X017100Y006600D01*
X016850Y006350D01*
X016350Y006350D01*
X016100Y006600D01*
X015850Y006350D01*
X015350Y006350D01*
X015100Y006600D01*
X014850Y006350D01*
X014350Y006350D01*
X014100Y006600D01*
X013850Y006350D01*
X013350Y006350D01*
X013100Y006600D01*
X012850Y006350D01*
X012350Y006350D01*
X012100Y006600D01*
X011850Y006350D01*
X011350Y006350D01*
X011100Y006600D01*
X010850Y006350D01*
X010350Y006350D01*
X010100Y006600D01*
X009850Y006350D01*
X009350Y006350D01*
X009100Y006600D01*
X009100Y007100D01*
X009350Y007350D01*
X009850Y007350D01*
X010100Y007100D01*
X010350Y007350D01*
X010850Y007350D01*
X011100Y007100D01*
X011100Y006600D01*
X011100Y007100D02*
X011350Y007350D01*
X011850Y007350D01*
X012100Y007100D01*
X012350Y007350D01*
X012850Y007350D01*
X013100Y007100D01*
X013350Y007350D01*
X013850Y007350D01*
X014100Y007100D01*
X014100Y006600D01*
X014100Y007100D02*
X014350Y007350D01*
X014850Y007350D01*
X015100Y007100D01*
X015350Y007350D01*
X015850Y007350D01*
X016100Y007100D01*
X016350Y007350D01*
X016850Y007350D01*
X017100Y007100D01*
X017100Y006600D01*
X017100Y007100D02*
X017350Y007350D01*
X017850Y007350D01*
X018100Y007100D01*
X018350Y007350D01*
X018850Y007350D01*
X019100Y007100D01*
X019350Y007350D01*
X019850Y007350D01*
X020100Y007100D01*
X020100Y006600D01*
X020100Y007100D02*
X020350Y007350D01*
X020850Y007350D01*
X021100Y007100D01*
X021350Y007350D01*
X021850Y007350D01*
X022100Y007100D01*
X022350Y007350D01*
X022850Y007350D01*
X023100Y007100D01*
X023100Y006600D01*
X023100Y007100D02*
X023350Y007350D01*
X023850Y007350D01*
X024100Y007100D01*
X024350Y007350D01*
X024850Y007350D01*
X025100Y007100D01*
X025350Y007350D01*
X025850Y007350D01*
X026100Y007100D01*
X026100Y006600D01*
X026100Y007100D02*
X026350Y007350D01*
X026850Y007350D01*
X027100Y007100D01*
X025100Y007100D02*
X025100Y006600D01*
X024100Y006600D02*
X024100Y007100D01*
X022100Y007100D02*
X022100Y006600D01*
X021100Y006600D02*
X021100Y007100D01*
X019100Y007100D02*
X019100Y006600D01*
X018100Y006600D02*
X018100Y007100D01*
X016100Y007100D02*
X016100Y006600D01*
X015100Y006600D02*
X015100Y007100D01*
X013100Y007100D02*
X013100Y006600D01*
X012100Y006600D02*
X012100Y007100D01*
X010100Y007100D02*
X010100Y006600D01*
D12*
X057100Y043100D03*
D13*
X060525Y040350D02*
X061675Y040350D01*
X061675Y039850D01*
X060525Y039850D01*
X060525Y040350D01*
X060525Y039600D02*
X060525Y039100D01*
X061675Y039100D01*
X061675Y039600D01*
X060525Y039600D01*
X060275Y038850D02*
X061425Y038850D01*
X061425Y038350D01*
X060275Y038350D01*
X060275Y038850D01*
X060525Y038100D02*
X060525Y037600D01*
X061675Y037600D01*
X061675Y038100D01*
X060525Y038100D01*
X060525Y037350D02*
X061675Y037350D01*
X061675Y036850D01*
X060525Y036850D01*
X060525Y037350D01*
X062504Y037636D02*
X062504Y039564D01*
X064196Y039564D01*
X064196Y037636D01*
X062504Y037636D01*
X065025Y037725D02*
X065025Y037225D01*
X066175Y037225D01*
X066175Y037725D01*
X065025Y037725D01*
X065025Y037975D02*
X065025Y038475D01*
X066175Y038475D01*
X066175Y037975D01*
X065025Y037975D01*
X065025Y038725D02*
X065025Y039225D01*
X066175Y039225D01*
X066175Y038725D01*
X065025Y038725D01*
X065025Y039475D02*
X065025Y039975D01*
X066175Y039975D01*
X066175Y039475D01*
X065025Y039475D01*
X063586Y039564D02*
X063584Y039534D01*
X063579Y039505D01*
X063569Y039477D01*
X063557Y039450D01*
X063541Y039425D01*
X063522Y039402D01*
X063500Y039382D01*
X063476Y039365D01*
X063450Y039350D01*
X063423Y039340D01*
X063394Y039332D01*
X063365Y039328D01*
X063335Y039328D01*
X063306Y039332D01*
X063277Y039340D01*
X063250Y039350D01*
X063224Y039365D01*
X063200Y039382D01*
X063178Y039402D01*
X063159Y039425D01*
X063143Y039450D01*
X063131Y039477D01*
X063121Y039505D01*
X063116Y039534D01*
X063114Y039564D01*
X066150Y033000D02*
X067050Y033000D01*
X067050Y031200D01*
X066150Y031200D01*
X066150Y033000D01*
X065675Y027350D02*
X064525Y027350D01*
X064525Y026850D01*
X065675Y026850D01*
X065675Y027350D01*
X065175Y021600D02*
X064025Y021600D01*
X064025Y021100D01*
X065175Y021100D01*
X065175Y021600D01*
X065643Y020850D02*
X065650Y020850D01*
X065650Y019850D01*
X064700Y019850D01*
X064700Y020850D01*
X065230Y020665D02*
X063970Y020665D01*
X063970Y020035D01*
X065230Y020035D01*
X065230Y020665D01*
X065643Y020850D02*
X063700Y020850D01*
X063700Y019850D01*
X064700Y019850D01*
X055610Y024790D02*
X055610Y025049D01*
X055610Y024790D02*
X055290Y024790D01*
X055090Y024790D02*
X055090Y025910D01*
X055610Y025910D01*
X055610Y025651D01*
X055610Y025910D02*
X055290Y025910D01*
X055610Y025910D02*
X055610Y024790D01*
X055090Y024790D01*
X055100Y026275D02*
X055600Y026275D01*
X055600Y027425D01*
X055100Y027425D01*
X055100Y026275D01*
X054850Y026275D02*
X054350Y026275D01*
X054350Y027425D01*
X054850Y027425D01*
X054850Y026275D01*
X054126Y026506D02*
X053574Y026506D01*
X053574Y027194D01*
X054126Y027194D01*
X054126Y026506D01*
X053850Y026732D02*
X054007Y026968D01*
X053693Y026968D01*
X053850Y026732D01*
X053850Y026811D02*
X053929Y026929D01*
X053771Y026929D01*
X053850Y026811D01*
X053835Y026834D02*
X053865Y026834D01*
X053918Y026912D02*
X053782Y026912D01*
X055850Y027425D02*
X055850Y026275D01*
X056350Y026275D01*
X056350Y027425D01*
X055850Y027425D01*
X051350Y027425D02*
X051350Y026275D01*
X050850Y026275D01*
X050850Y027425D01*
X051350Y027425D01*
X050600Y027425D02*
X050600Y026275D01*
X050100Y026275D01*
X050100Y027425D01*
X050600Y027425D01*
X049850Y027425D02*
X049850Y026275D01*
X049350Y026275D01*
X049350Y027425D01*
X049850Y027425D01*
X049126Y027194D02*
X049126Y026506D01*
X048574Y026506D01*
X048574Y027194D01*
X049126Y027194D01*
X049007Y026968D02*
X048850Y026732D01*
X048693Y026968D01*
X049007Y026968D01*
X048929Y026929D02*
X048850Y026811D01*
X048771Y026929D01*
X048929Y026929D01*
X048918Y026912D02*
X048782Y026912D01*
X048835Y026834D02*
X048865Y026834D01*
X050090Y025910D02*
X050610Y025910D01*
X050610Y025651D01*
X050610Y025910D02*
X050290Y025910D01*
X050090Y025910D02*
X050090Y024790D01*
X050610Y024790D01*
X050610Y025049D01*
X050610Y024790D02*
X050290Y024790D01*
X050610Y024790D02*
X050610Y025910D01*
X046350Y026275D02*
X045850Y026275D01*
X045850Y027425D01*
X046350Y027425D01*
X046350Y026275D01*
X045600Y026275D02*
X045100Y026275D01*
X045100Y027425D01*
X045600Y027425D01*
X045600Y026275D01*
X045610Y025910D02*
X045610Y025651D01*
X045610Y025910D02*
X045290Y025910D01*
X045090Y025910D02*
X045610Y025910D01*
X045610Y024790D01*
X045610Y025049D01*
X045610Y024790D02*
X045290Y024790D01*
X045090Y024790D02*
X045090Y025910D01*
X044850Y026275D02*
X044350Y026275D01*
X044350Y027425D01*
X044850Y027425D01*
X044850Y026275D01*
X044126Y026506D02*
X043574Y026506D01*
X043574Y027194D01*
X044126Y027194D01*
X044126Y026506D01*
X043850Y026732D02*
X044007Y026968D01*
X043693Y026968D01*
X043850Y026732D01*
X043850Y026811D02*
X043929Y026929D01*
X043771Y026929D01*
X043850Y026811D01*
X043835Y026834D02*
X043865Y026834D01*
X043918Y026912D02*
X043782Y026912D01*
X041350Y027425D02*
X041350Y026275D01*
X040850Y026275D01*
X040850Y027425D01*
X041350Y027425D01*
X040600Y027425D02*
X040600Y026275D01*
X040100Y026275D01*
X040100Y027425D01*
X040600Y027425D01*
X039850Y027425D02*
X039850Y026275D01*
X039350Y026275D01*
X039350Y027425D01*
X039850Y027425D01*
X039126Y027194D02*
X039126Y026506D01*
X038574Y026506D01*
X038574Y027194D01*
X039126Y027194D01*
X039007Y026968D02*
X038850Y026732D01*
X038693Y026968D01*
X039007Y026968D01*
X038929Y026929D02*
X038850Y026811D01*
X038771Y026929D01*
X038929Y026929D01*
X038918Y026912D02*
X038782Y026912D01*
X038835Y026834D02*
X038865Y026834D01*
X040090Y025910D02*
X040610Y025910D01*
X040610Y025651D01*
X040610Y025910D02*
X040290Y025910D01*
X040090Y025910D02*
X040090Y024790D01*
X040610Y024790D01*
X040610Y025049D01*
X040610Y024790D02*
X040290Y024790D01*
X040610Y024790D02*
X040610Y025910D01*
X045090Y024790D02*
X045610Y024790D01*
X033900Y019100D02*
X033900Y018100D01*
X032950Y018100D01*
X032950Y019100D01*
X033480Y018915D02*
X032220Y018915D01*
X032220Y018285D01*
X033480Y018285D01*
X033480Y018915D01*
X033893Y019100D02*
X033900Y019100D01*
X033893Y019100D02*
X031950Y019100D01*
X031950Y018100D01*
X032950Y018100D01*
X033425Y017850D02*
X033425Y017350D01*
X032275Y017350D01*
X032275Y017850D01*
X033425Y017850D01*
X035025Y016850D02*
X035025Y016350D01*
X036175Y016350D01*
X036175Y016850D01*
X035025Y016850D01*
X034663Y016466D02*
X032537Y016466D01*
X032537Y016309D01*
X034663Y016309D01*
X034663Y014891D01*
X032537Y014891D01*
X032537Y016309D01*
X032537Y014891D02*
X032537Y014734D01*
X034663Y014734D01*
X034663Y014891D01*
X035340Y015151D02*
X035340Y015410D01*
X035660Y015410D01*
X035860Y015410D02*
X035340Y015410D01*
X035340Y014290D01*
X035340Y014549D01*
X035340Y014290D02*
X035660Y014290D01*
X035860Y014290D02*
X035340Y014290D01*
X035600Y013900D02*
X034600Y013900D01*
X034600Y013893D01*
X034600Y011950D01*
X035600Y011950D01*
X035600Y012950D01*
X034600Y012950D01*
X034350Y012775D02*
X033850Y012775D01*
X033850Y013925D01*
X034350Y013925D01*
X034350Y012775D01*
X034785Y012220D02*
X034785Y013480D01*
X035415Y013480D01*
X035415Y012220D01*
X034785Y012220D01*
X035600Y012950D02*
X035600Y013900D01*
X035860Y014290D02*
X035860Y015410D01*
X036175Y015600D02*
X035025Y015600D01*
X035025Y016100D01*
X036175Y016100D01*
X036175Y015600D01*
X034663Y016309D02*
X034663Y016466D01*
X029675Y017100D02*
X029675Y017600D01*
X028525Y017600D01*
X028525Y017100D01*
X029675Y017100D01*
X028350Y016900D02*
X028350Y014800D01*
X026850Y014800D01*
X026850Y016900D01*
X028350Y016900D01*
X028100Y016900D02*
X027100Y016900D01*
X027100Y014800D01*
X028100Y014800D01*
X028100Y016900D01*
X028175Y017100D02*
X027025Y017100D01*
X027025Y017600D01*
X028175Y017600D01*
X028175Y017100D01*
X028500Y017850D02*
X028500Y018850D01*
X027500Y018850D01*
X027500Y017850D01*
X026970Y018035D02*
X026970Y018665D01*
X028230Y018665D01*
X028230Y018035D01*
X026970Y018035D01*
X026557Y017850D02*
X026550Y017850D01*
X026550Y018850D01*
X027500Y018850D01*
X027025Y019100D02*
X027025Y019600D01*
X028175Y019600D01*
X028175Y019100D01*
X027025Y019100D01*
X026350Y018425D02*
X025850Y018425D01*
X025850Y017275D01*
X026350Y017275D01*
X026350Y018425D01*
X026557Y017850D02*
X028500Y017850D01*
X025626Y017944D02*
X025626Y017256D01*
X025074Y017256D01*
X025074Y017944D01*
X025626Y017944D01*
X025350Y017718D02*
X025193Y017482D01*
X025507Y017482D01*
X025350Y017718D01*
X025350Y017639D02*
X025271Y017521D01*
X025429Y017521D01*
X025350Y017639D01*
X025304Y017571D02*
X025396Y017571D01*
X023175Y017600D02*
X023175Y017100D01*
X022025Y017100D01*
X022025Y017600D01*
X023175Y017600D01*
X022000Y017850D02*
X022000Y018850D01*
X021000Y018850D01*
X021000Y017850D01*
X020525Y017600D02*
X020525Y017100D01*
X021675Y017100D01*
X021675Y017600D01*
X020525Y017600D01*
X020470Y018035D02*
X020470Y018665D01*
X021730Y018665D01*
X021730Y018035D01*
X020470Y018035D01*
X020057Y017850D02*
X020050Y017850D01*
X020050Y018850D01*
X021000Y018850D01*
X020525Y019100D02*
X020525Y019600D01*
X021675Y019600D01*
X021675Y019100D01*
X020525Y019100D01*
X019850Y018425D02*
X019350Y018425D01*
X019350Y017275D01*
X019850Y017275D01*
X019850Y018425D01*
X020057Y017850D02*
X022000Y017850D01*
X021850Y016900D02*
X021850Y014800D01*
X020350Y014800D01*
X020350Y016900D01*
X021850Y016900D01*
X021600Y016900D02*
X020600Y016900D01*
X020600Y014800D01*
X021600Y014800D01*
X021600Y016900D01*
X019126Y017256D02*
X018574Y017256D01*
X018574Y017944D01*
X019126Y017944D01*
X019126Y017256D01*
X019007Y017482D02*
X018693Y017482D01*
X018850Y017718D01*
X019007Y017482D01*
X018929Y017521D02*
X018771Y017521D01*
X018850Y017639D01*
X018929Y017521D01*
X018896Y017571D02*
X018804Y017571D01*
X016675Y017600D02*
X016675Y017100D01*
X015525Y017100D01*
X015525Y017600D01*
X016675Y017600D01*
X015500Y017850D02*
X015500Y018850D01*
X014500Y018850D01*
X014500Y017850D01*
X014025Y017600D02*
X014025Y017100D01*
X015175Y017100D01*
X015175Y017600D01*
X014025Y017600D01*
X013970Y018035D02*
X013970Y018665D01*
X015230Y018665D01*
X015230Y018035D01*
X013970Y018035D01*
X013557Y017850D02*
X013550Y017850D01*
X013550Y018850D01*
X014500Y018850D01*
X014025Y019100D02*
X014025Y019600D01*
X015175Y019600D01*
X015175Y019100D01*
X014025Y019100D01*
X013350Y018425D02*
X012850Y018425D01*
X012850Y017275D01*
X013350Y017275D01*
X013350Y018425D01*
X013557Y017850D02*
X015500Y017850D01*
X015350Y016900D02*
X015350Y014800D01*
X013850Y014800D01*
X013850Y016900D01*
X015350Y016900D01*
X015100Y016900D02*
X014100Y016900D01*
X014100Y014800D01*
X015100Y014800D01*
X015100Y016900D01*
X012626Y017256D02*
X012074Y017256D01*
X012074Y017944D01*
X012626Y017944D01*
X012626Y017256D01*
X012507Y017482D02*
X012193Y017482D01*
X012350Y017718D01*
X012507Y017482D01*
X012429Y017521D02*
X012271Y017521D01*
X012350Y017639D01*
X012429Y017521D01*
X012396Y017571D02*
X012304Y017571D01*
X012194Y015626D02*
X011506Y015626D01*
X011506Y015074D01*
X012194Y015074D01*
X012194Y015626D01*
X011968Y015507D02*
X011968Y015193D01*
X011732Y015350D01*
X011968Y015507D01*
X011929Y015429D02*
X011929Y015271D01*
X011811Y015350D01*
X011929Y015429D01*
X011929Y015373D02*
X011844Y015373D01*
X011895Y015294D02*
X011929Y015294D01*
X012425Y014850D02*
X011275Y014850D01*
X011275Y014350D01*
X012425Y014350D01*
X012425Y014850D01*
X009100Y011925D02*
X008600Y011925D01*
X008600Y010775D01*
X009100Y010775D01*
X009100Y011925D01*
X008350Y011525D02*
X007850Y011525D01*
X007850Y012675D01*
X008350Y012675D01*
X008350Y011525D01*
X008350Y011175D02*
X007850Y011175D01*
X007850Y010025D01*
X008350Y010025D01*
X008350Y011175D01*
X006848Y010405D02*
X006651Y010405D01*
X006651Y012295D01*
X006848Y012295D01*
X006848Y010405D01*
X006651Y010405D02*
X005352Y010405D01*
X005352Y012295D01*
X006651Y012295D01*
X004350Y012675D02*
X004350Y011525D01*
X003850Y011525D01*
X003850Y012675D01*
X004350Y012675D01*
X003600Y011925D02*
X003100Y011925D01*
X003100Y010775D01*
X003600Y010775D01*
X003600Y011925D01*
X003850Y011175D02*
X004350Y011175D01*
X004350Y010025D01*
X003850Y010025D01*
X003850Y011175D01*
X005525Y010100D02*
X006675Y010100D01*
X006675Y009600D01*
X005525Y009600D01*
X005525Y010100D01*
X005307Y014850D02*
X005300Y014850D01*
X005300Y015850D01*
X006250Y015850D01*
X006250Y014850D01*
X005720Y015035D02*
X005720Y015665D01*
X006980Y015665D01*
X006980Y015035D01*
X005720Y015035D01*
X005307Y014850D02*
X007250Y014850D01*
X007250Y015850D01*
X006250Y015850D01*
X005848Y016655D02*
X004549Y016655D01*
X004549Y018545D01*
X005848Y018545D01*
X005848Y016655D01*
X006900Y016475D02*
X006900Y016975D01*
X008050Y016975D01*
X008050Y016475D01*
X006900Y016475D01*
X006850Y017275D02*
X007350Y017275D01*
X007350Y018425D01*
X006850Y018425D01*
X006850Y017275D01*
X007600Y017275D02*
X008100Y017275D01*
X008100Y018425D01*
X007600Y018425D01*
X007600Y017275D01*
X007450Y018850D02*
X006450Y018850D01*
X006450Y019850D01*
X008393Y019850D01*
X008400Y019850D01*
X008400Y018850D01*
X007450Y018850D01*
X007450Y019850D01*
X007925Y020100D02*
X006775Y020100D01*
X006775Y020600D01*
X007925Y020600D01*
X007925Y020100D01*
X007980Y019665D02*
X007980Y019035D01*
X006720Y019035D01*
X006720Y019665D01*
X007980Y019665D01*
X009350Y019775D02*
X009850Y019775D01*
X009850Y020925D01*
X009350Y020925D01*
X009350Y019775D01*
X010100Y019775D02*
X010600Y019775D01*
X010600Y020925D01*
X010100Y020925D01*
X010100Y019775D01*
X005675Y019350D02*
X005675Y018850D01*
X004525Y018850D01*
X004525Y019350D01*
X005675Y019350D01*
X004549Y018545D02*
X004352Y018545D01*
X004352Y016655D01*
X004549Y016655D01*
X004893Y015850D02*
X002950Y015850D01*
X002950Y014850D01*
X003950Y014850D01*
X003950Y015850D01*
X004480Y015665D02*
X004480Y015035D01*
X003220Y015035D01*
X003220Y015665D01*
X004480Y015665D01*
X004893Y015850D02*
X004900Y015850D01*
X004900Y014850D01*
X003950Y014850D01*
X003350Y016025D02*
X002850Y016025D01*
X002850Y017175D01*
X003350Y017175D01*
X003350Y016025D01*
X003350Y017525D02*
X002850Y017525D01*
X002850Y018675D01*
X003350Y018675D01*
X003350Y017525D01*
X002600Y017525D02*
X002100Y017525D01*
X002100Y018675D01*
X002600Y018675D01*
X002600Y017525D01*
X002700Y018850D02*
X001700Y018850D01*
X001700Y019850D01*
X003643Y019850D01*
X003650Y019850D01*
X003650Y018850D01*
X002700Y018850D01*
X002700Y019850D01*
X003175Y020100D02*
X002025Y020100D01*
X002025Y020600D01*
X003175Y020600D01*
X003175Y020100D01*
X003230Y019665D02*
X003230Y019035D01*
X001970Y019035D01*
X001970Y019665D01*
X003230Y019665D01*
X007850Y025950D02*
X008850Y025950D01*
X008850Y026950D01*
X007850Y026950D01*
X008035Y027480D02*
X008665Y027480D01*
X008665Y026220D01*
X008035Y026220D01*
X008035Y027480D01*
X007850Y027893D02*
X007850Y027900D01*
X008850Y027900D01*
X008850Y026950D01*
X009100Y026950D02*
X010100Y026950D01*
X010100Y025950D01*
X009100Y025950D01*
X009100Y027893D01*
X009100Y027900D01*
X010100Y027900D01*
X010100Y026950D01*
X009915Y027480D02*
X009285Y027480D01*
X009285Y026220D01*
X009915Y026220D01*
X009915Y027480D01*
X007850Y027893D02*
X007850Y025950D01*
X005600Y026775D02*
X005600Y027925D01*
X005100Y027925D01*
X005100Y026775D01*
X005600Y026775D01*
X004850Y026775D02*
X004350Y026775D01*
X004350Y027925D01*
X004850Y027925D01*
X004850Y026775D01*
X014100Y026525D02*
X014600Y026525D01*
X014600Y027675D01*
X014100Y027675D01*
X014100Y026525D01*
X016100Y026000D02*
X017100Y026000D01*
X017100Y024057D01*
X017100Y024050D01*
X016100Y024050D01*
X016100Y025000D01*
X017100Y025000D01*
X016915Y024470D02*
X016285Y024470D01*
X016285Y025730D01*
X016915Y025730D01*
X016915Y024470D01*
X018102Y024795D02*
X018299Y024795D01*
X018299Y022905D01*
X018102Y022905D01*
X018102Y024795D01*
X018299Y024795D02*
X019598Y024795D01*
X019598Y022905D01*
X018299Y022905D01*
X018275Y022600D02*
X018275Y022100D01*
X019425Y022100D01*
X019425Y022600D01*
X018275Y022600D01*
X017100Y022775D02*
X016600Y022775D01*
X016600Y023925D01*
X017100Y023925D01*
X017100Y022775D01*
X019700Y022600D02*
X019700Y021600D01*
X020700Y021600D01*
X020700Y022600D01*
X021230Y022415D02*
X021230Y021785D01*
X019970Y021785D01*
X019970Y022415D01*
X021230Y022415D01*
X021643Y022600D02*
X021650Y022600D01*
X021650Y021600D01*
X020700Y021600D01*
X021643Y022600D02*
X019700Y022600D01*
X020600Y023275D02*
X020600Y024425D01*
X021100Y024425D01*
X021100Y023275D01*
X020600Y023275D01*
X021350Y023275D02*
X021850Y023275D01*
X021850Y024425D01*
X021350Y024425D01*
X021350Y023275D01*
X021750Y024850D02*
X019807Y024850D01*
X019800Y024850D01*
X019800Y025850D01*
X020750Y025850D01*
X020750Y024850D01*
X020220Y025035D02*
X020220Y025665D01*
X021480Y025665D01*
X021480Y025035D01*
X020220Y025035D01*
X019425Y025100D02*
X019425Y025600D01*
X018275Y025600D01*
X018275Y025100D01*
X019425Y025100D01*
X020750Y025850D02*
X021750Y025850D01*
X021750Y024850D01*
X021850Y026525D02*
X022350Y026525D01*
X022350Y027675D01*
X021850Y027675D01*
X021850Y026525D01*
X023850Y026525D02*
X024350Y026525D01*
X024350Y027675D01*
X023850Y027675D01*
X023850Y026525D01*
X024100Y026000D02*
X025100Y026000D01*
X025100Y024057D01*
X025100Y024050D01*
X024100Y024050D01*
X024100Y025000D01*
X025100Y025000D01*
X024915Y024470D02*
X024285Y024470D01*
X024285Y025730D01*
X024915Y025730D01*
X024915Y024470D01*
X024100Y025000D02*
X024100Y026000D01*
X026275Y025600D02*
X026275Y025100D01*
X027425Y025100D01*
X027425Y025600D01*
X026275Y025600D01*
X026299Y024795D02*
X026299Y022905D01*
X026102Y022905D01*
X026102Y024795D01*
X026299Y024795D01*
X027598Y024795D01*
X027598Y022905D01*
X026299Y022905D01*
X026275Y022600D02*
X026275Y022100D01*
X027425Y022100D01*
X027425Y022600D01*
X026275Y022600D01*
X025100Y022775D02*
X024600Y022775D01*
X024600Y023925D01*
X025100Y023925D01*
X025100Y022775D01*
X027700Y022600D02*
X027700Y021600D01*
X028700Y021600D01*
X028700Y022600D01*
X029230Y022415D02*
X029230Y021785D01*
X027970Y021785D01*
X027970Y022415D01*
X029230Y022415D01*
X029643Y022600D02*
X029650Y022600D01*
X029650Y021600D01*
X028700Y021600D01*
X029643Y022600D02*
X027700Y022600D01*
X028600Y023275D02*
X028600Y024425D01*
X029100Y024425D01*
X029100Y023275D01*
X028600Y023275D01*
X029350Y023275D02*
X029850Y023275D01*
X029850Y024425D01*
X029350Y024425D01*
X029350Y023275D01*
X029750Y024850D02*
X027807Y024850D01*
X027800Y024850D01*
X027800Y025850D01*
X028750Y025850D01*
X028750Y024850D01*
X028220Y025035D02*
X028220Y025665D01*
X029480Y025665D01*
X029480Y025035D01*
X028220Y025035D01*
X028750Y025850D02*
X029750Y025850D01*
X029750Y024850D01*
X029850Y026525D02*
X030350Y026525D01*
X030350Y027675D01*
X029850Y027675D01*
X029850Y026525D01*
X031850Y026525D02*
X031850Y027675D01*
X032350Y027675D01*
X032350Y026525D01*
X031850Y026525D01*
X016100Y026000D02*
X016100Y025000D01*
X018006Y015626D02*
X018006Y015074D01*
X018694Y015074D01*
X018694Y015626D01*
X018006Y015626D01*
X018232Y015350D02*
X018468Y015193D01*
X018468Y015507D01*
X018232Y015350D01*
X018311Y015350D02*
X018429Y015429D01*
X018429Y015271D01*
X018311Y015350D01*
X018344Y015373D02*
X018429Y015373D01*
X018429Y015294D02*
X018395Y015294D01*
X018925Y014850D02*
X017775Y014850D01*
X017775Y014350D01*
X018925Y014350D01*
X018925Y014850D01*
X020275Y014600D02*
X020275Y014100D01*
X021425Y014100D01*
X021425Y014600D01*
X020275Y014600D01*
X021775Y014600D02*
X021775Y014100D01*
X022925Y014100D01*
X022925Y014600D01*
X021775Y014600D01*
X024275Y014350D02*
X024275Y014850D01*
X025425Y014850D01*
X025425Y014350D01*
X024275Y014350D01*
X024506Y015074D02*
X024506Y015626D01*
X025194Y015626D01*
X025194Y015074D01*
X024506Y015074D01*
X024732Y015350D02*
X024968Y015507D01*
X024968Y015193D01*
X024732Y015350D01*
X024811Y015350D02*
X024929Y015271D01*
X024929Y015429D01*
X024811Y015350D01*
X024844Y015373D02*
X024929Y015373D01*
X024929Y015294D02*
X024895Y015294D01*
X026775Y014600D02*
X026775Y014100D01*
X027925Y014100D01*
X027925Y014600D01*
X026775Y014600D01*
X028275Y014600D02*
X028275Y014100D01*
X029425Y014100D01*
X029425Y014600D01*
X028275Y014600D01*
X039350Y009150D02*
X039350Y005550D01*
X040850Y005550D01*
X040850Y009150D01*
X039350Y009150D01*
X039600Y009150D02*
X040600Y009150D01*
X040600Y005550D01*
X039600Y005550D01*
X039600Y009150D01*
X042600Y008425D02*
X042600Y007275D01*
X043100Y007275D01*
X043100Y008425D01*
X042600Y008425D01*
X043350Y008425D02*
X043850Y008425D01*
X043850Y007275D01*
X043350Y007275D01*
X043350Y008425D01*
X043675Y006600D02*
X042525Y006600D01*
X042525Y006100D01*
X043675Y006100D01*
X043675Y006600D01*
X040675Y005350D02*
X040675Y004850D01*
X039525Y004850D01*
X039525Y005350D01*
X040675Y005350D01*
X035600Y004925D02*
X035600Y003775D01*
X035100Y003775D01*
X035100Y004925D01*
X035600Y004925D01*
X034850Y004925D02*
X034850Y003775D01*
X034350Y003775D01*
X034350Y004925D01*
X034850Y004925D01*
X034100Y004925D02*
X034100Y003775D01*
X033600Y003775D01*
X033600Y004925D01*
X034100Y004925D01*
X027600Y004925D02*
X027600Y003775D01*
X027100Y003775D01*
X027100Y004925D01*
X027600Y004925D01*
X026850Y004925D02*
X026850Y003775D01*
X026350Y003775D01*
X026350Y004925D01*
X026850Y004925D01*
X026100Y004925D02*
X026100Y003775D01*
X025600Y003775D01*
X025600Y004925D01*
X026100Y004925D01*
X019600Y004925D02*
X019600Y003775D01*
X019100Y003775D01*
X019100Y004925D01*
X019600Y004925D01*
X018850Y004925D02*
X018350Y004925D01*
X018350Y003775D01*
X018850Y003775D01*
X018850Y004925D01*
X018100Y004925D02*
X018100Y003775D01*
X017600Y003775D01*
X017600Y004925D01*
X018100Y004925D01*
X011600Y004925D02*
X011600Y003775D01*
X011100Y003775D01*
X011100Y004925D01*
X011600Y004925D01*
X010850Y004925D02*
X010350Y004925D01*
X010350Y003775D01*
X010850Y003775D01*
X010850Y004925D01*
X010100Y004925D02*
X010100Y003775D01*
X009600Y003775D01*
X009600Y004925D01*
X010100Y004925D01*
X040025Y015350D02*
X040025Y015850D01*
X041175Y015850D01*
X041175Y015350D01*
X040025Y015350D01*
X054025Y015350D02*
X054025Y015850D01*
X055175Y015850D01*
X055175Y015350D01*
X054025Y015350D01*
X065775Y005600D02*
X065775Y005100D01*
X066925Y005100D01*
X066925Y005600D01*
X065775Y005600D01*
X065450Y004850D02*
X065450Y003850D01*
X066450Y003850D01*
X066450Y004850D01*
X066980Y004665D02*
X065720Y004665D01*
X065720Y004035D01*
X066980Y004035D01*
X066980Y004665D01*
X067393Y004850D02*
X067400Y004850D01*
X067400Y003850D01*
X066450Y003850D01*
X067393Y004850D02*
X065450Y004850D01*
X062175Y003850D02*
X062175Y003350D01*
X061025Y003350D01*
X061025Y003850D01*
X062175Y003850D01*
X048175Y003850D02*
X048175Y003350D01*
X047025Y003350D01*
X047025Y003850D01*
X048175Y003850D01*
X004675Y035850D02*
X003525Y035850D01*
X003525Y036350D01*
X004675Y036350D01*
X004675Y035850D01*
X004675Y036600D02*
X003525Y036600D01*
X003525Y037100D01*
X004675Y037100D01*
X004675Y036600D01*
X004675Y037350D02*
X003525Y037350D01*
X003525Y037850D01*
X004675Y037850D01*
X004675Y037350D01*
X004675Y038100D02*
X003525Y038100D01*
X003525Y038600D01*
X004675Y038600D01*
X004675Y038100D01*
D14*
X012340Y018131D03*
X012340Y017069D03*
X018840Y017069D03*
X018840Y018131D03*
X025340Y018131D03*
X025340Y017069D03*
X038860Y026319D03*
X038860Y027381D03*
X043860Y027381D03*
X043860Y026319D03*
X048860Y026319D03*
X048860Y027381D03*
X053860Y027381D03*
X053860Y026319D03*
D15*
X053850Y026693D03*
X048850Y026693D03*
X043850Y026693D03*
X038850Y026693D03*
X025350Y017757D03*
X018850Y017757D03*
X012350Y017757D03*
D16*
X011815Y017885D02*
X011815Y018050D01*
X011760Y018105D01*
X011540Y018105D01*
X011485Y018050D01*
X011485Y017885D01*
X011815Y017885D01*
X011815Y018253D02*
X011760Y018253D01*
X011540Y018474D01*
X011485Y018474D01*
X011485Y018253D01*
X012985Y018635D02*
X012985Y018800D01*
X013040Y018855D01*
X013150Y018855D01*
X013205Y018800D01*
X013205Y018635D01*
X013315Y018635D02*
X012985Y018635D01*
X013205Y018745D02*
X013315Y018855D01*
X013315Y019003D02*
X013315Y019224D01*
X013315Y019113D02*
X012985Y019113D01*
X013095Y019003D01*
X013040Y019372D02*
X012985Y019427D01*
X012985Y019537D01*
X013040Y019592D01*
X013260Y019372D01*
X013315Y019427D01*
X013315Y019537D01*
X013260Y019592D01*
X013040Y019592D01*
X012985Y019740D02*
X013150Y019740D01*
X013095Y019850D01*
X013095Y019905D01*
X013150Y019960D01*
X013260Y019960D01*
X013315Y019905D01*
X013315Y019795D01*
X013260Y019740D01*
X012985Y019740D02*
X012985Y019960D01*
X013040Y019372D02*
X013260Y019372D01*
X014135Y019760D02*
X014135Y020090D01*
X014300Y020090D01*
X014355Y020035D01*
X014355Y019925D01*
X014300Y019870D01*
X014135Y019870D01*
X014245Y019870D02*
X014355Y019760D01*
X014503Y019815D02*
X014558Y019760D01*
X014668Y019760D01*
X014724Y019815D01*
X014724Y020035D01*
X014668Y020090D01*
X014558Y020090D01*
X014503Y020035D01*
X014503Y019980D01*
X014558Y019925D01*
X014724Y019925D01*
X014872Y019815D02*
X014927Y019760D01*
X015037Y019760D01*
X015092Y019815D01*
X015092Y019870D01*
X015037Y019925D01*
X014982Y019925D01*
X015037Y019925D02*
X015092Y019980D01*
X015092Y020035D01*
X015037Y020090D01*
X014927Y020090D01*
X014872Y020035D01*
X015815Y019090D02*
X015760Y019035D01*
X015760Y018815D01*
X015815Y018760D01*
X015925Y018760D01*
X015980Y018815D01*
X016128Y018815D02*
X016128Y018870D01*
X016183Y018925D01*
X016293Y018925D01*
X016349Y018870D01*
X016349Y018815D01*
X016293Y018760D01*
X016183Y018760D01*
X016128Y018815D01*
X016183Y018925D02*
X016128Y018980D01*
X016128Y019035D01*
X016183Y019090D01*
X016293Y019090D01*
X016349Y019035D01*
X016349Y018980D01*
X016293Y018925D01*
X016497Y019035D02*
X016552Y019090D01*
X016662Y019090D01*
X016717Y019035D01*
X016717Y018980D01*
X016497Y018760D01*
X016717Y018760D01*
X016613Y018590D02*
X016613Y018260D01*
X016503Y018260D02*
X016724Y018260D01*
X016872Y018315D02*
X017092Y018535D01*
X017092Y018315D01*
X017037Y018260D01*
X016927Y018260D01*
X016872Y018315D01*
X016872Y018535D01*
X016927Y018590D01*
X017037Y018590D01*
X017092Y018535D01*
X017240Y018535D02*
X017240Y018480D01*
X017295Y018425D01*
X017405Y018425D01*
X017460Y018370D01*
X017460Y018315D01*
X017405Y018260D01*
X017295Y018260D01*
X017240Y018315D01*
X017240Y018370D01*
X017295Y018425D01*
X017405Y018425D02*
X017460Y018480D01*
X017460Y018535D01*
X017405Y018590D01*
X017295Y018590D01*
X017240Y018535D01*
X016613Y018590D02*
X016503Y018480D01*
X016355Y018425D02*
X016300Y018370D01*
X016135Y018370D01*
X016135Y018260D02*
X016135Y018590D01*
X016300Y018590D01*
X016355Y018535D01*
X016355Y018425D01*
X016245Y018370D02*
X016355Y018260D01*
X015980Y019035D02*
X015925Y019090D01*
X015815Y019090D01*
X018085Y018418D02*
X018140Y018474D01*
X018195Y018474D01*
X018250Y018418D01*
X018250Y018308D01*
X018195Y018253D01*
X018140Y018253D01*
X018085Y018308D01*
X018085Y018418D01*
X018250Y018418D02*
X018305Y018474D01*
X018360Y018474D01*
X018415Y018418D01*
X018415Y018308D01*
X018360Y018253D01*
X018305Y018253D01*
X018250Y018308D01*
X018360Y018105D02*
X018140Y018105D01*
X018085Y018050D01*
X018085Y017885D01*
X018415Y017885D01*
X018415Y018050D01*
X018360Y018105D01*
X017842Y017535D02*
X017622Y017315D01*
X017677Y017260D01*
X017787Y017260D01*
X017842Y017315D01*
X017842Y017535D01*
X017787Y017590D01*
X017677Y017590D01*
X017622Y017535D01*
X017622Y017315D01*
X017474Y017315D02*
X017474Y017535D01*
X017418Y017590D01*
X017308Y017590D01*
X017253Y017535D01*
X017253Y017480D01*
X017308Y017425D01*
X017474Y017425D01*
X017474Y017315D02*
X017418Y017260D01*
X017308Y017260D01*
X017253Y017315D01*
X017105Y017315D02*
X017050Y017260D01*
X016940Y017260D01*
X016885Y017315D01*
X016885Y017535D01*
X016940Y017590D01*
X017050Y017590D01*
X017105Y017535D01*
X017132Y016815D02*
X016912Y016815D01*
X016912Y016485D01*
X017132Y016485D01*
X017280Y016485D02*
X017445Y016485D01*
X017500Y016540D01*
X017500Y016760D01*
X017445Y016815D01*
X017280Y016815D01*
X017280Y016485D01*
X017022Y016650D02*
X016912Y016650D01*
X016764Y016485D02*
X016543Y016485D01*
X016543Y016815D01*
X017648Y016705D02*
X017758Y016815D01*
X017758Y016485D01*
X017648Y016485D02*
X017869Y016485D01*
X018017Y016540D02*
X018237Y016760D01*
X018237Y016540D01*
X018182Y016485D01*
X018072Y016485D01*
X018017Y016540D01*
X018017Y016760D01*
X018072Y016815D01*
X018182Y016815D01*
X018237Y016760D01*
X017377Y014815D02*
X017377Y014485D01*
X017267Y014485D02*
X017487Y014485D01*
X017267Y014705D02*
X017377Y014815D01*
X017008Y014815D02*
X017008Y014485D01*
X016898Y014485D02*
X017119Y014485D01*
X016898Y014705D02*
X017008Y014815D01*
X016750Y014760D02*
X016695Y014815D01*
X016530Y014815D01*
X016530Y014485D01*
X016695Y014485D01*
X016750Y014540D01*
X016750Y014760D01*
X017412Y014065D02*
X017577Y014065D01*
X017632Y014010D01*
X017632Y013900D01*
X017577Y013845D01*
X017412Y013845D01*
X017522Y013845D02*
X017632Y013735D01*
X017780Y013735D02*
X018000Y013735D01*
X017890Y013735D02*
X017890Y014065D01*
X017780Y013955D01*
X018148Y014010D02*
X018203Y014065D01*
X018314Y014065D01*
X018369Y014010D01*
X018369Y013955D01*
X018148Y013735D01*
X018369Y013735D01*
X018517Y013790D02*
X018737Y014010D01*
X018737Y013790D01*
X018682Y013735D01*
X018572Y013735D01*
X018517Y013790D01*
X018517Y014010D01*
X018572Y014065D01*
X018682Y014065D01*
X018737Y014010D01*
X017412Y014065D02*
X017412Y013735D01*
X020135Y013840D02*
X020135Y013510D01*
X020135Y013620D02*
X020300Y013620D01*
X020355Y013675D01*
X020355Y013785D01*
X020300Y013840D01*
X020135Y013840D01*
X020245Y013620D02*
X020355Y013510D01*
X020503Y013510D02*
X020724Y013510D01*
X020613Y013510D02*
X020613Y013840D01*
X020503Y013730D01*
X020872Y013785D02*
X020927Y013840D01*
X021037Y013840D01*
X021092Y013785D01*
X021092Y013730D01*
X020872Y013510D01*
X021092Y013510D01*
X021240Y013510D02*
X021460Y013730D01*
X021460Y013785D01*
X021405Y013840D01*
X021295Y013840D01*
X021240Y013785D01*
X021240Y013510D02*
X021460Y013510D01*
X021760Y013510D02*
X021760Y013840D01*
X021925Y013840D01*
X021980Y013785D01*
X021980Y013675D01*
X021925Y013620D01*
X021760Y013620D01*
X021870Y013620D02*
X021980Y013510D01*
X022128Y013510D02*
X022349Y013510D01*
X022238Y013510D02*
X022238Y013840D01*
X022128Y013730D01*
X022497Y013785D02*
X022552Y013840D01*
X022662Y013840D01*
X022717Y013785D01*
X022717Y013730D01*
X022497Y013510D01*
X022717Y013510D01*
X022865Y013565D02*
X022920Y013510D01*
X023030Y013510D01*
X023085Y013565D01*
X023085Y013620D01*
X023030Y013675D01*
X022975Y013675D01*
X023030Y013675D02*
X023085Y013730D01*
X023085Y013785D01*
X023030Y013840D01*
X022920Y013840D01*
X022865Y013785D01*
X023785Y013780D02*
X023785Y013945D01*
X023840Y014000D01*
X024060Y014000D01*
X024115Y013945D01*
X024115Y013780D01*
X023785Y013780D01*
X023895Y014148D02*
X023785Y014258D01*
X024115Y014258D01*
X024115Y014148D02*
X024115Y014369D01*
X024115Y014517D02*
X023895Y014737D01*
X023840Y014737D01*
X023785Y014682D01*
X023785Y014572D01*
X023840Y014517D01*
X024115Y014517D02*
X024115Y014737D01*
X024385Y014215D02*
X024550Y014215D01*
X024605Y014160D01*
X024605Y014050D01*
X024550Y013995D01*
X024385Y013995D01*
X024385Y013885D02*
X024385Y014215D01*
X024495Y013995D02*
X024605Y013885D01*
X024753Y013885D02*
X024974Y013885D01*
X024863Y013885D02*
X024863Y014215D01*
X024753Y014105D01*
X025122Y014160D02*
X025177Y014215D01*
X025287Y014215D01*
X025342Y014160D01*
X025342Y014105D01*
X025122Y013885D01*
X025342Y013885D01*
X025490Y013885D02*
X025710Y013885D01*
X025600Y013885D02*
X025600Y014215D01*
X025490Y014105D01*
X026885Y013840D02*
X026885Y013510D01*
X026885Y013620D02*
X027050Y013620D01*
X027105Y013675D01*
X027105Y013785D01*
X027050Y013840D01*
X026885Y013840D01*
X026995Y013620D02*
X027105Y013510D01*
X027253Y013510D02*
X027474Y013510D01*
X027363Y013510D02*
X027363Y013840D01*
X027253Y013730D01*
X027622Y013785D02*
X027677Y013840D01*
X027787Y013840D01*
X027842Y013785D01*
X027842Y013730D01*
X027622Y013510D01*
X027842Y013510D01*
X027990Y013675D02*
X028210Y013675D01*
X028155Y013510D02*
X028155Y013840D01*
X027990Y013675D01*
X029635Y014260D02*
X029635Y014590D01*
X029800Y014590D01*
X029855Y014535D01*
X029855Y014425D01*
X029800Y014370D01*
X029635Y014370D01*
X029745Y014370D02*
X029855Y014260D01*
X030003Y014260D02*
X030224Y014260D01*
X030113Y014260D02*
X030113Y014590D01*
X030003Y014480D01*
X030372Y014535D02*
X030427Y014590D01*
X030537Y014590D01*
X030592Y014535D01*
X030592Y014480D01*
X030372Y014260D01*
X030592Y014260D01*
X030740Y014315D02*
X030795Y014260D01*
X030905Y014260D01*
X030960Y014315D01*
X030960Y014425D01*
X030905Y014480D01*
X030850Y014480D01*
X030740Y014425D01*
X030740Y014590D01*
X030960Y014590D01*
X031985Y014760D02*
X032260Y014760D01*
X032315Y014815D01*
X032315Y014925D01*
X032260Y014980D01*
X031985Y014980D01*
X032040Y015128D02*
X031985Y015183D01*
X031985Y015293D01*
X032040Y015349D01*
X032095Y015349D01*
X032315Y015128D01*
X032315Y015349D01*
X032315Y015497D02*
X032315Y015717D01*
X032315Y015607D02*
X031985Y015607D01*
X032095Y015497D01*
X029565Y015940D02*
X029565Y016050D01*
X029510Y016105D01*
X029235Y016105D01*
X029290Y016253D02*
X029235Y016308D01*
X029235Y016418D01*
X029290Y016474D01*
X029345Y016474D01*
X029565Y016253D01*
X029565Y016474D01*
X029510Y016622D02*
X029290Y016842D01*
X029510Y016842D01*
X029565Y016787D01*
X029565Y016677D01*
X029510Y016622D01*
X029290Y016622D01*
X029235Y016677D01*
X029235Y016787D01*
X029290Y016842D01*
X029885Y017315D02*
X029940Y017260D01*
X030050Y017260D01*
X030105Y017315D01*
X030253Y017315D02*
X030308Y017260D01*
X030418Y017260D01*
X030474Y017315D01*
X030474Y017535D01*
X030418Y017590D01*
X030308Y017590D01*
X030253Y017535D01*
X030253Y017480D01*
X030308Y017425D01*
X030474Y017425D01*
X030622Y017535D02*
X030677Y017590D01*
X030787Y017590D01*
X030842Y017535D01*
X030842Y017480D01*
X030622Y017260D01*
X030842Y017260D01*
X030105Y017535D02*
X030050Y017590D01*
X029940Y017590D01*
X029885Y017535D01*
X029885Y017315D01*
X029872Y018260D02*
X030092Y018260D01*
X029982Y018260D02*
X029982Y018590D01*
X029872Y018480D01*
X029724Y018260D02*
X029503Y018260D01*
X029613Y018260D02*
X029613Y018590D01*
X029503Y018480D01*
X029355Y018425D02*
X029300Y018370D01*
X029135Y018370D01*
X029135Y018260D02*
X029135Y018590D01*
X029300Y018590D01*
X029355Y018535D01*
X029355Y018425D01*
X029245Y018370D02*
X029355Y018260D01*
X029293Y018760D02*
X029183Y018760D01*
X029128Y018815D01*
X029128Y018870D01*
X029183Y018925D01*
X029293Y018925D01*
X029349Y018870D01*
X029349Y018815D01*
X029293Y018760D01*
X029293Y018925D02*
X029349Y018980D01*
X029349Y019035D01*
X029293Y019090D01*
X029183Y019090D01*
X029128Y019035D01*
X029128Y018980D01*
X029183Y018925D01*
X028980Y018815D02*
X028925Y018760D01*
X028815Y018760D01*
X028760Y018815D01*
X028760Y019035D01*
X028815Y019090D01*
X028925Y019090D01*
X028980Y019035D01*
X029497Y018925D02*
X029717Y018925D01*
X029662Y018760D02*
X029662Y019090D01*
X029497Y018925D01*
X030240Y018535D02*
X030295Y018590D01*
X030405Y018590D01*
X030460Y018535D01*
X030240Y018315D01*
X030295Y018260D01*
X030405Y018260D01*
X030460Y018315D01*
X030460Y018535D01*
X030240Y018535D02*
X030240Y018315D01*
X032135Y019440D02*
X032190Y019385D01*
X032300Y019385D01*
X032355Y019440D01*
X032503Y019440D02*
X032503Y019495D01*
X032558Y019550D01*
X032668Y019550D01*
X032724Y019495D01*
X032724Y019440D01*
X032668Y019385D01*
X032558Y019385D01*
X032503Y019440D01*
X032558Y019550D02*
X032503Y019605D01*
X032503Y019660D01*
X032558Y019715D01*
X032668Y019715D01*
X032724Y019660D01*
X032724Y019605D01*
X032668Y019550D01*
X032872Y019605D02*
X032982Y019715D01*
X032982Y019385D01*
X032872Y019385D02*
X033092Y019385D01*
X032355Y019660D02*
X032300Y019715D01*
X032190Y019715D01*
X032135Y019660D01*
X032135Y019440D01*
X033690Y017715D02*
X033635Y017660D01*
X033635Y017440D01*
X033690Y017385D01*
X033800Y017385D01*
X033855Y017440D01*
X034003Y017440D02*
X034003Y017495D01*
X034058Y017550D01*
X034168Y017550D01*
X034224Y017495D01*
X034224Y017440D01*
X034168Y017385D01*
X034058Y017385D01*
X034003Y017440D01*
X034058Y017550D02*
X034003Y017605D01*
X034003Y017660D01*
X034058Y017715D01*
X034168Y017715D01*
X034224Y017660D01*
X034224Y017605D01*
X034168Y017550D01*
X034372Y017605D02*
X034427Y017550D01*
X034592Y017550D01*
X034592Y017440D02*
X034592Y017660D01*
X034537Y017715D01*
X034427Y017715D01*
X034372Y017660D01*
X034372Y017605D01*
X034372Y017440D02*
X034427Y017385D01*
X034537Y017385D01*
X034592Y017440D01*
X033855Y017660D02*
X033800Y017715D01*
X033690Y017715D01*
X036385Y016715D02*
X036550Y016715D01*
X036605Y016660D01*
X036605Y016550D01*
X036550Y016495D01*
X036385Y016495D01*
X036385Y016385D02*
X036385Y016715D01*
X036495Y016495D02*
X036605Y016385D01*
X036753Y016385D02*
X036974Y016385D01*
X036863Y016385D02*
X036863Y016715D01*
X036753Y016605D01*
X037122Y016605D02*
X037232Y016715D01*
X037232Y016385D01*
X037122Y016385D02*
X037342Y016385D01*
X037490Y016440D02*
X037545Y016385D01*
X037655Y016385D01*
X037710Y016440D01*
X037710Y016550D01*
X037655Y016605D01*
X037600Y016605D01*
X037490Y016550D01*
X037490Y016715D01*
X037710Y016715D01*
X037342Y016090D02*
X037122Y016090D01*
X037122Y015925D01*
X037232Y015980D01*
X037287Y015980D01*
X037342Y015925D01*
X037342Y015815D01*
X037287Y015760D01*
X037177Y015760D01*
X037122Y015815D01*
X036974Y015815D02*
X036974Y016035D01*
X036918Y016090D01*
X036808Y016090D01*
X036753Y016035D01*
X036753Y015980D01*
X036808Y015925D01*
X036974Y015925D01*
X036974Y015815D02*
X036918Y015760D01*
X036808Y015760D01*
X036753Y015815D01*
X036605Y015815D02*
X036550Y015760D01*
X036440Y015760D01*
X036385Y015815D01*
X036385Y016035D01*
X036440Y016090D01*
X036550Y016090D01*
X036605Y016035D01*
X036595Y015342D02*
X036540Y015342D01*
X036485Y015287D01*
X036485Y015177D01*
X036540Y015122D01*
X036540Y014974D02*
X036485Y014918D01*
X036485Y014808D01*
X036540Y014753D01*
X036485Y014605D02*
X036760Y014605D01*
X036815Y014550D01*
X036815Y014440D01*
X036760Y014385D01*
X036485Y014385D01*
X036815Y014753D02*
X036595Y014974D01*
X036540Y014974D01*
X036815Y014974D02*
X036815Y014753D01*
X036815Y015122D02*
X036595Y015342D01*
X036815Y015342D02*
X036815Y015122D01*
X040010Y015160D02*
X040010Y014940D01*
X040065Y014885D01*
X040175Y014885D01*
X040230Y014940D01*
X040378Y014940D02*
X040433Y014885D01*
X040543Y014885D01*
X040599Y014940D01*
X040599Y015160D01*
X040543Y015215D01*
X040433Y015215D01*
X040378Y015160D01*
X040378Y015105D01*
X040433Y015050D01*
X040599Y015050D01*
X040747Y014995D02*
X040747Y014940D01*
X040802Y014885D01*
X040912Y014885D01*
X040967Y014940D01*
X040967Y014995D01*
X040912Y015050D01*
X040802Y015050D01*
X040747Y015105D01*
X040747Y015160D01*
X040802Y015215D01*
X040912Y015215D01*
X040967Y015160D01*
X040967Y015105D01*
X040912Y015050D01*
X040802Y015050D02*
X040747Y014995D01*
X040230Y015160D02*
X040175Y015215D01*
X040065Y015215D01*
X040010Y015160D01*
X036090Y012932D02*
X036090Y012822D01*
X036035Y012767D01*
X035925Y012767D02*
X035870Y012877D01*
X035870Y012932D01*
X035925Y012987D01*
X036035Y012987D01*
X036090Y012932D01*
X035925Y012767D02*
X035760Y012767D01*
X035760Y012987D01*
X035815Y012619D02*
X035760Y012564D01*
X035760Y012453D01*
X035815Y012398D01*
X036035Y012398D01*
X035815Y012619D01*
X036035Y012619D01*
X036090Y012564D01*
X036090Y012453D01*
X036035Y012398D01*
X036090Y012250D02*
X036090Y012030D01*
X036090Y012140D02*
X035760Y012140D01*
X035870Y012030D01*
X035815Y011882D02*
X035760Y011827D01*
X035760Y011717D01*
X035815Y011662D01*
X036035Y011662D01*
X036090Y011717D01*
X036090Y011827D01*
X036035Y011882D01*
X034215Y011875D02*
X034215Y011655D01*
X034215Y011765D02*
X033885Y011765D01*
X033995Y011655D01*
X033940Y011507D02*
X033885Y011452D01*
X033885Y011342D01*
X033940Y011287D01*
X034160Y011287D01*
X034215Y011342D01*
X034215Y011452D01*
X034160Y011507D01*
X034160Y012023D02*
X033940Y012244D01*
X034160Y012244D01*
X034215Y012189D01*
X034215Y012078D01*
X034160Y012023D01*
X033940Y012023D01*
X033885Y012078D01*
X033885Y012189D01*
X033940Y012244D01*
X034050Y012392D02*
X034050Y012612D01*
X034215Y012557D02*
X033885Y012557D01*
X034050Y012392D01*
X029565Y015940D02*
X029510Y015885D01*
X029235Y015885D01*
X026190Y018635D02*
X025860Y018635D01*
X025860Y018800D01*
X025915Y018855D01*
X026025Y018855D01*
X026080Y018800D01*
X026080Y018635D01*
X026080Y018745D02*
X026190Y018855D01*
X026190Y019003D02*
X026190Y019224D01*
X026190Y019113D02*
X025860Y019113D01*
X025970Y019003D01*
X025915Y019372D02*
X025860Y019427D01*
X025860Y019537D01*
X025915Y019592D01*
X026135Y019372D01*
X026190Y019427D01*
X026190Y019537D01*
X026135Y019592D01*
X025915Y019592D01*
X025860Y019740D02*
X025860Y019960D01*
X025915Y019960D01*
X026135Y019740D01*
X026190Y019740D01*
X026135Y019372D02*
X025915Y019372D01*
X027135Y019760D02*
X027135Y020090D01*
X027300Y020090D01*
X027355Y020035D01*
X027355Y019925D01*
X027300Y019870D01*
X027135Y019870D01*
X027245Y019870D02*
X027355Y019760D01*
X027503Y019815D02*
X027558Y019760D01*
X027668Y019760D01*
X027724Y019815D01*
X027724Y020035D01*
X027668Y020090D01*
X027558Y020090D01*
X027503Y020035D01*
X027503Y019980D01*
X027558Y019925D01*
X027724Y019925D01*
X027872Y019925D02*
X027982Y019980D01*
X028037Y019980D01*
X028092Y019925D01*
X028092Y019815D01*
X028037Y019760D01*
X027927Y019760D01*
X027872Y019815D01*
X027872Y019925D02*
X027872Y020090D01*
X028092Y020090D01*
X028585Y020985D02*
X028695Y020985D01*
X028750Y021040D01*
X028898Y021040D02*
X028953Y020985D01*
X029064Y020985D01*
X029119Y021040D01*
X029119Y021095D01*
X029064Y021150D01*
X028898Y021150D01*
X028898Y021040D01*
X028898Y021150D02*
X029008Y021260D01*
X029119Y021315D01*
X029267Y021150D02*
X029432Y021315D01*
X029432Y020985D01*
X029487Y021150D02*
X029267Y021150D01*
X028750Y021260D02*
X028695Y021315D01*
X028585Y021315D01*
X028530Y021260D01*
X028530Y021040D01*
X028585Y020985D01*
X027342Y021690D02*
X027342Y021910D01*
X027122Y021690D01*
X027177Y021635D01*
X027287Y021635D01*
X027342Y021690D01*
X027342Y021910D02*
X027287Y021965D01*
X027177Y021965D01*
X027122Y021910D01*
X027122Y021690D01*
X026974Y021690D02*
X026918Y021635D01*
X026808Y021635D01*
X026753Y021690D01*
X026753Y021745D01*
X026808Y021800D01*
X026918Y021800D01*
X026974Y021745D01*
X026974Y021690D01*
X026918Y021800D02*
X026974Y021855D01*
X026974Y021910D01*
X026918Y021965D01*
X026808Y021965D01*
X026753Y021910D01*
X026753Y021855D01*
X026808Y021800D01*
X026605Y021800D02*
X026550Y021745D01*
X026385Y021745D01*
X026385Y021635D02*
X026385Y021965D01*
X026550Y021965D01*
X026605Y021910D01*
X026605Y021800D01*
X026495Y021745D02*
X026605Y021635D01*
X025965Y021653D02*
X025965Y021763D01*
X025965Y021708D02*
X025635Y021708D01*
X025635Y021653D02*
X025635Y021763D01*
X025690Y021898D02*
X025910Y021898D01*
X025965Y021953D01*
X025965Y022064D01*
X025910Y022119D01*
X025910Y022267D02*
X025965Y022267D01*
X025910Y022267D02*
X025690Y022487D01*
X025635Y022487D01*
X025635Y022267D01*
X025690Y022119D02*
X025635Y022064D01*
X025635Y021953D01*
X025690Y021898D01*
X024465Y022780D02*
X024135Y022780D01*
X024135Y022945D01*
X024190Y023000D01*
X024300Y023000D01*
X024355Y022945D01*
X024355Y022780D01*
X024355Y022890D02*
X024465Y023000D01*
X024465Y023148D02*
X024410Y023148D01*
X024190Y023369D01*
X024135Y023369D01*
X024135Y023148D01*
X024190Y023517D02*
X024245Y023517D01*
X024300Y023572D01*
X024300Y023682D01*
X024355Y023737D01*
X024410Y023737D01*
X024465Y023682D01*
X024465Y023572D01*
X024410Y023517D01*
X024355Y023517D01*
X024300Y023572D01*
X024300Y023682D02*
X024245Y023737D01*
X024190Y023737D01*
X024135Y023682D01*
X024135Y023572D01*
X024190Y023517D01*
X022815Y023605D02*
X022705Y023495D01*
X022705Y023550D02*
X022705Y023385D01*
X022815Y023385D02*
X022485Y023385D01*
X022485Y023550D01*
X022540Y023605D01*
X022650Y023605D01*
X022705Y023550D01*
X022760Y023753D02*
X022815Y023753D01*
X022760Y023753D02*
X022540Y023974D01*
X022485Y023974D01*
X022485Y023753D01*
X022315Y023808D02*
X022260Y023753D01*
X022315Y023808D02*
X022315Y023918D01*
X022260Y023974D01*
X022150Y023974D01*
X022095Y023918D01*
X022095Y023863D01*
X022150Y023753D01*
X021985Y023753D01*
X021985Y023974D01*
X022040Y024122D02*
X022095Y024122D01*
X022150Y024177D01*
X022150Y024342D01*
X022260Y024342D02*
X022040Y024342D01*
X021985Y024287D01*
X021985Y024177D01*
X022040Y024122D01*
X022260Y024122D02*
X022315Y024177D01*
X022315Y024287D01*
X022260Y024342D01*
X022485Y024287D02*
X022540Y024342D01*
X022595Y024342D01*
X022650Y024287D01*
X022705Y024342D01*
X022760Y024342D01*
X022815Y024287D01*
X022815Y024177D01*
X022760Y024122D01*
X022650Y024232D02*
X022650Y024287D01*
X022485Y024287D02*
X022485Y024177D01*
X022540Y024122D01*
X022260Y023605D02*
X022315Y023550D01*
X022315Y023440D01*
X022260Y023385D01*
X022040Y023385D01*
X021985Y023440D01*
X021985Y023550D01*
X022040Y023605D01*
X022510Y024912D02*
X022840Y024912D01*
X022840Y025132D01*
X022840Y025280D02*
X022840Y025500D01*
X022840Y025648D02*
X022840Y025814D01*
X022785Y025869D01*
X022565Y025869D01*
X022510Y025814D01*
X022510Y025648D01*
X022840Y025648D01*
X022675Y025390D02*
X022675Y025280D01*
X022510Y025280D02*
X022840Y025280D01*
X022510Y025280D02*
X022510Y025500D01*
X022675Y026017D02*
X022675Y026237D01*
X022840Y026182D02*
X022510Y026182D01*
X022675Y026017D01*
X023510Y026017D02*
X023675Y026017D01*
X023620Y026127D01*
X023620Y026182D01*
X023675Y026237D01*
X023785Y026237D01*
X023840Y026182D01*
X023840Y026072D01*
X023785Y026017D01*
X023785Y025869D02*
X023565Y025869D01*
X023510Y025814D01*
X023510Y025648D01*
X023840Y025648D01*
X023840Y025814D01*
X023785Y025869D01*
X023510Y026017D02*
X023510Y026237D01*
X023510Y025500D02*
X023510Y025280D01*
X023840Y025280D01*
X023840Y025500D01*
X023675Y025390D02*
X023675Y025280D01*
X023840Y025132D02*
X023840Y024912D01*
X023510Y024912D01*
X025235Y025190D02*
X025290Y025135D01*
X025510Y025135D01*
X025565Y025190D01*
X025565Y025300D01*
X025510Y025355D01*
X025510Y025503D02*
X025565Y025558D01*
X025565Y025668D01*
X025510Y025724D01*
X025400Y025724D01*
X025345Y025668D01*
X025345Y025613D01*
X025400Y025503D01*
X025235Y025503D01*
X025235Y025724D01*
X025290Y025872D02*
X025235Y025927D01*
X025235Y026037D01*
X025290Y026092D01*
X025345Y026092D01*
X025400Y026037D01*
X025400Y025927D01*
X025345Y025872D01*
X025290Y025872D01*
X025400Y025927D02*
X025455Y025872D01*
X025510Y025872D01*
X025565Y025927D01*
X025565Y026037D01*
X025510Y026092D01*
X025455Y026092D01*
X025400Y026037D01*
X025735Y026050D02*
X025735Y025940D01*
X025790Y025885D01*
X026010Y025885D01*
X026065Y025940D01*
X026065Y026050D01*
X026010Y026105D01*
X026010Y026253D02*
X026065Y026308D01*
X026065Y026418D01*
X026010Y026474D01*
X025900Y026474D01*
X025845Y026418D01*
X025845Y026363D01*
X025900Y026253D01*
X025735Y026253D01*
X025735Y026474D01*
X025735Y026622D02*
X025900Y026622D01*
X025845Y026732D01*
X025845Y026787D01*
X025900Y026842D01*
X026010Y026842D01*
X026065Y026787D01*
X026065Y026677D01*
X026010Y026622D01*
X025735Y026622D02*
X025735Y026842D01*
X024840Y026750D02*
X024730Y026640D01*
X024730Y026695D02*
X024730Y026530D01*
X024840Y026530D02*
X024510Y026530D01*
X024510Y026695D01*
X024565Y026750D01*
X024675Y026750D01*
X024730Y026695D01*
X024785Y026898D02*
X024840Y026953D01*
X024840Y027064D01*
X024785Y027119D01*
X024675Y027119D01*
X024620Y027064D01*
X024620Y027008D01*
X024675Y026898D01*
X024510Y026898D01*
X024510Y027119D01*
X024565Y027267D02*
X024620Y027267D01*
X024675Y027322D01*
X024675Y027432D01*
X024730Y027487D01*
X024785Y027487D01*
X024840Y027432D01*
X024840Y027322D01*
X024785Y027267D01*
X024730Y027267D01*
X024675Y027322D01*
X024675Y027432D02*
X024620Y027487D01*
X024565Y027487D01*
X024510Y027432D01*
X024510Y027322D01*
X024565Y027267D01*
X025790Y026105D02*
X025735Y026050D01*
X025290Y025355D02*
X025235Y025300D01*
X025235Y025190D01*
X027885Y026190D02*
X027940Y026135D01*
X028050Y026135D01*
X028105Y026190D01*
X028253Y026190D02*
X028308Y026135D01*
X028418Y026135D01*
X028474Y026190D01*
X028474Y026300D01*
X028418Y026355D01*
X028363Y026355D01*
X028253Y026300D01*
X028253Y026465D01*
X028474Y026465D01*
X028622Y026300D02*
X028787Y026300D01*
X028842Y026245D01*
X028842Y026190D01*
X028787Y026135D01*
X028677Y026135D01*
X028622Y026190D01*
X028622Y026300D01*
X028732Y026410D01*
X028842Y026465D01*
X029360Y026635D02*
X029360Y026800D01*
X029415Y026855D01*
X029525Y026855D01*
X029580Y026800D01*
X029580Y026635D01*
X029690Y026635D02*
X029360Y026635D01*
X029580Y026745D02*
X029690Y026855D01*
X029635Y027003D02*
X029690Y027058D01*
X029690Y027168D01*
X029635Y027224D01*
X029525Y027224D01*
X029470Y027168D01*
X029470Y027113D01*
X029525Y027003D01*
X029360Y027003D01*
X029360Y027224D01*
X029415Y027372D02*
X029470Y027372D01*
X029525Y027427D01*
X029525Y027592D01*
X029635Y027592D02*
X029415Y027592D01*
X029360Y027537D01*
X029360Y027427D01*
X029415Y027372D01*
X029635Y027372D02*
X029690Y027427D01*
X029690Y027537D01*
X029635Y027592D01*
X028493Y027890D02*
X028438Y027835D01*
X028328Y027835D01*
X028273Y027890D01*
X028273Y028001D02*
X028383Y028056D01*
X028438Y028056D01*
X028493Y028001D01*
X028493Y027890D01*
X028273Y028001D02*
X028273Y028166D01*
X028493Y028166D01*
X028124Y028111D02*
X028124Y028001D01*
X028069Y027945D01*
X027904Y027945D01*
X027904Y027835D02*
X027904Y028166D01*
X028069Y028166D01*
X028124Y028111D01*
X028050Y026465D02*
X027940Y026465D01*
X027885Y026410D01*
X027885Y026190D01*
X028105Y026410D02*
X028050Y026465D01*
X030510Y026237D02*
X030565Y026127D01*
X030675Y026017D01*
X030675Y026182D01*
X030730Y026237D01*
X030785Y026237D01*
X030840Y026182D01*
X030840Y026072D01*
X030785Y026017D01*
X030675Y026017D01*
X030785Y025869D02*
X030565Y025869D01*
X030510Y025814D01*
X030510Y025648D01*
X030840Y025648D01*
X030840Y025814D01*
X030785Y025869D01*
X030840Y025500D02*
X030840Y025280D01*
X030510Y025280D01*
X030510Y025500D01*
X030675Y025390D02*
X030675Y025280D01*
X030840Y025132D02*
X030840Y024912D01*
X030510Y024912D01*
X030650Y024342D02*
X030650Y024122D01*
X030485Y024287D01*
X030815Y024287D01*
X030540Y023974D02*
X030760Y023753D01*
X030815Y023753D01*
X030815Y023605D02*
X030705Y023495D01*
X030705Y023550D02*
X030705Y023385D01*
X030815Y023385D02*
X030485Y023385D01*
X030485Y023550D01*
X030540Y023605D01*
X030650Y023605D01*
X030705Y023550D01*
X030485Y023753D02*
X030485Y023974D01*
X030540Y023974D01*
X030315Y023918D02*
X030260Y023974D01*
X030205Y023974D01*
X030150Y023918D01*
X030150Y023753D01*
X030260Y023753D01*
X030315Y023808D01*
X030315Y023918D01*
X030260Y024122D02*
X030040Y024342D01*
X030260Y024342D01*
X030315Y024287D01*
X030315Y024177D01*
X030260Y024122D01*
X030040Y024122D01*
X029985Y024177D01*
X029985Y024287D01*
X030040Y024342D01*
X029985Y023974D02*
X030040Y023863D01*
X030150Y023753D01*
X030260Y023605D02*
X030315Y023550D01*
X030315Y023440D01*
X030260Y023385D01*
X030040Y023385D01*
X029985Y023440D01*
X029985Y023550D01*
X030040Y023605D01*
X031385Y024912D02*
X031715Y024912D01*
X031715Y025132D01*
X031715Y025280D02*
X031715Y025500D01*
X031715Y025648D02*
X031715Y025814D01*
X031660Y025869D01*
X031440Y025869D01*
X031385Y025814D01*
X031385Y025648D01*
X031715Y025648D01*
X031550Y025390D02*
X031550Y025280D01*
X031385Y025280D02*
X031715Y025280D01*
X032010Y025280D02*
X032010Y025445D01*
X032065Y025500D01*
X032175Y025500D01*
X032230Y025445D01*
X032230Y025280D01*
X032340Y025280D02*
X032010Y025280D01*
X032230Y025390D02*
X032340Y025500D01*
X032285Y025648D02*
X032340Y025703D01*
X032340Y025814D01*
X032285Y025869D01*
X032230Y025869D01*
X032175Y025814D01*
X032175Y025648D01*
X032285Y025648D01*
X032175Y025648D02*
X032065Y025758D01*
X032010Y025869D01*
X032065Y026017D02*
X032010Y026072D01*
X032010Y026182D01*
X032065Y026237D01*
X032285Y026017D01*
X032340Y026072D01*
X032340Y026182D01*
X032285Y026237D01*
X032065Y026237D01*
X032065Y026017D02*
X032285Y026017D01*
X031715Y026017D02*
X031660Y026017D01*
X031440Y026237D01*
X031385Y026237D01*
X031385Y026017D01*
X031385Y025500D02*
X031385Y025280D01*
X038635Y024932D02*
X038635Y024822D01*
X038690Y024767D01*
X038690Y024619D02*
X038635Y024564D01*
X038635Y024398D01*
X038965Y024398D01*
X038965Y024564D01*
X038910Y024619D01*
X038690Y024619D01*
X038910Y024767D02*
X038965Y024822D01*
X038965Y024932D01*
X038910Y024987D01*
X038855Y024987D01*
X038800Y024932D01*
X038800Y024877D01*
X038800Y024932D02*
X038745Y024987D01*
X038690Y024987D01*
X038635Y024932D01*
X041260Y025000D02*
X041535Y025000D01*
X041590Y024945D01*
X041590Y024835D01*
X041535Y024780D01*
X041260Y024780D01*
X041370Y025148D02*
X041260Y025258D01*
X041590Y025258D01*
X041590Y025148D02*
X041590Y025369D01*
X041590Y025517D02*
X041590Y025737D01*
X041590Y025627D02*
X041260Y025627D01*
X041370Y025517D01*
X041485Y026385D02*
X041485Y026550D01*
X041540Y026605D01*
X041650Y026605D01*
X041705Y026550D01*
X041705Y026385D01*
X041815Y026385D02*
X041485Y026385D01*
X041705Y026495D02*
X041815Y026605D01*
X041760Y026753D02*
X041815Y026808D01*
X041815Y026918D01*
X041760Y026974D01*
X041705Y026974D01*
X041650Y026918D01*
X041650Y026753D01*
X041760Y026753D01*
X041650Y026753D02*
X041540Y026863D01*
X041485Y026974D01*
X041540Y027122D02*
X041485Y027177D01*
X041485Y027287D01*
X041540Y027342D01*
X041595Y027342D01*
X041815Y027122D01*
X041815Y027342D01*
X041985Y027287D02*
X042040Y027342D01*
X042095Y027342D01*
X042150Y027287D01*
X042205Y027342D01*
X042260Y027342D01*
X042315Y027287D01*
X042315Y027177D01*
X042260Y027122D01*
X042260Y026974D02*
X042205Y026974D01*
X042150Y026918D01*
X042150Y026753D01*
X042260Y026753D01*
X042315Y026808D01*
X042315Y026918D01*
X042260Y026974D01*
X042485Y026918D02*
X042650Y026753D01*
X042650Y026974D01*
X042815Y026918D02*
X042485Y026918D01*
X042485Y027122D02*
X042485Y027342D01*
X042540Y027342D01*
X042760Y027122D01*
X042815Y027122D01*
X042760Y026605D02*
X042815Y026550D01*
X042815Y026440D01*
X042760Y026385D01*
X042540Y026385D01*
X042485Y026440D01*
X042485Y026550D01*
X042540Y026605D01*
X042315Y026605D02*
X042205Y026495D01*
X042205Y026550D02*
X042205Y026385D01*
X042315Y026385D02*
X041985Y026385D01*
X041985Y026550D01*
X042040Y026605D01*
X042150Y026605D01*
X042205Y026550D01*
X042150Y026753D02*
X042040Y026863D01*
X041985Y026974D01*
X042040Y027122D02*
X041985Y027177D01*
X041985Y027287D01*
X042150Y027287D02*
X042150Y027232D01*
X043635Y024932D02*
X043800Y024767D01*
X043800Y024987D01*
X043965Y024932D02*
X043635Y024932D01*
X043690Y024619D02*
X043635Y024564D01*
X043635Y024398D01*
X043965Y024398D01*
X043965Y024564D01*
X043910Y024619D01*
X043690Y024619D01*
X046260Y024780D02*
X046535Y024780D01*
X046590Y024835D01*
X046590Y024945D01*
X046535Y025000D01*
X046260Y025000D01*
X046370Y025148D02*
X046260Y025258D01*
X046590Y025258D01*
X046590Y025148D02*
X046590Y025369D01*
X046590Y025517D02*
X046370Y025737D01*
X046315Y025737D01*
X046260Y025682D01*
X046260Y025572D01*
X046315Y025517D01*
X046590Y025517D02*
X046590Y025737D01*
X046485Y026385D02*
X046485Y026550D01*
X046540Y026605D01*
X046650Y026605D01*
X046705Y026550D01*
X046705Y026385D01*
X046815Y026385D02*
X046485Y026385D01*
X046705Y026495D02*
X046815Y026605D01*
X046760Y026753D02*
X046815Y026808D01*
X046815Y026918D01*
X046760Y026974D01*
X046705Y026974D01*
X046650Y026918D01*
X046650Y026753D01*
X046760Y026753D01*
X046650Y026753D02*
X046540Y026863D01*
X046485Y026974D01*
X046650Y027122D02*
X046650Y027342D01*
X046815Y027287D02*
X046485Y027287D01*
X046650Y027122D01*
X046985Y027122D02*
X047150Y027122D01*
X047095Y027232D01*
X047095Y027287D01*
X047150Y027342D01*
X047260Y027342D01*
X047315Y027287D01*
X047315Y027177D01*
X047260Y027122D01*
X047260Y026974D02*
X047205Y026974D01*
X047150Y026918D01*
X047150Y026753D01*
X047260Y026753D01*
X047315Y026808D01*
X047315Y026918D01*
X047260Y026974D01*
X047485Y026918D02*
X047650Y026753D01*
X047650Y026974D01*
X047705Y027122D02*
X047650Y027177D01*
X047650Y027287D01*
X047705Y027342D01*
X047760Y027342D01*
X047815Y027287D01*
X047815Y027177D01*
X047760Y027122D01*
X047705Y027122D01*
X047650Y027177D02*
X047595Y027122D01*
X047540Y027122D01*
X047485Y027177D01*
X047485Y027287D01*
X047540Y027342D01*
X047595Y027342D01*
X047650Y027287D01*
X047815Y026918D02*
X047485Y026918D01*
X047540Y026605D02*
X047485Y026550D01*
X047485Y026440D01*
X047540Y026385D01*
X047760Y026385D01*
X047815Y026440D01*
X047815Y026550D01*
X047760Y026605D01*
X047315Y026605D02*
X047205Y026495D01*
X047205Y026550D02*
X047205Y026385D01*
X047315Y026385D02*
X046985Y026385D01*
X046985Y026550D01*
X047040Y026605D01*
X047150Y026605D01*
X047205Y026550D01*
X047150Y026753D02*
X047040Y026863D01*
X046985Y026974D01*
X046985Y027122D02*
X046985Y027342D01*
X048635Y024987D02*
X048635Y024767D01*
X048800Y024767D01*
X048745Y024877D01*
X048745Y024932D01*
X048800Y024987D01*
X048910Y024987D01*
X048965Y024932D01*
X048965Y024822D01*
X048910Y024767D01*
X048910Y024619D02*
X048690Y024619D01*
X048635Y024564D01*
X048635Y024398D01*
X048965Y024398D01*
X048965Y024564D01*
X048910Y024619D01*
X051260Y024780D02*
X051535Y024780D01*
X051590Y024835D01*
X051590Y024945D01*
X051535Y025000D01*
X051260Y025000D01*
X051370Y025148D02*
X051260Y025258D01*
X051590Y025258D01*
X051590Y025148D02*
X051590Y025369D01*
X051535Y025517D02*
X051590Y025572D01*
X051590Y025682D01*
X051535Y025737D01*
X051480Y025737D01*
X051425Y025682D01*
X051425Y025627D01*
X051425Y025682D02*
X051370Y025737D01*
X051315Y025737D01*
X051260Y025682D01*
X051260Y025572D01*
X051315Y025517D01*
X051485Y026385D02*
X051485Y026550D01*
X051540Y026605D01*
X051650Y026605D01*
X051705Y026550D01*
X051705Y026385D01*
X051815Y026385D02*
X051485Y026385D01*
X051705Y026495D02*
X051815Y026605D01*
X051760Y026753D02*
X051815Y026808D01*
X051815Y026918D01*
X051760Y026974D01*
X051705Y026974D01*
X051650Y026918D01*
X051650Y026753D01*
X051760Y026753D01*
X051650Y026753D02*
X051540Y026863D01*
X051485Y026974D01*
X051650Y027122D02*
X051650Y027287D01*
X051705Y027342D01*
X051760Y027342D01*
X051815Y027287D01*
X051815Y027177D01*
X051760Y027122D01*
X051650Y027122D01*
X051540Y027232D01*
X051485Y027342D01*
X051985Y027342D02*
X051985Y027122D01*
X051985Y026974D02*
X052040Y026863D01*
X052150Y026753D01*
X052150Y026918D01*
X052205Y026974D01*
X052260Y026974D01*
X052315Y026918D01*
X052315Y026808D01*
X052260Y026753D01*
X052150Y026753D01*
X052150Y026605D02*
X052205Y026550D01*
X052205Y026385D01*
X052315Y026385D02*
X051985Y026385D01*
X051985Y026550D01*
X052040Y026605D01*
X052150Y026605D01*
X052205Y026495D02*
X052315Y026605D01*
X052485Y026550D02*
X052485Y026440D01*
X052540Y026385D01*
X052760Y026385D01*
X052815Y026440D01*
X052815Y026550D01*
X052760Y026605D01*
X052650Y026753D02*
X052650Y026974D01*
X052595Y027122D02*
X052650Y027177D01*
X052650Y027342D01*
X052760Y027342D02*
X052540Y027342D01*
X052485Y027287D01*
X052485Y027177D01*
X052540Y027122D01*
X052595Y027122D01*
X052760Y027122D02*
X052815Y027177D01*
X052815Y027287D01*
X052760Y027342D01*
X052815Y026918D02*
X052485Y026918D01*
X052650Y026753D01*
X052540Y026605D02*
X052485Y026550D01*
X052315Y027122D02*
X052260Y027122D01*
X052040Y027342D01*
X051985Y027342D01*
X053635Y024987D02*
X053690Y024877D01*
X053800Y024767D01*
X053800Y024932D01*
X053855Y024987D01*
X053910Y024987D01*
X053965Y024932D01*
X053965Y024822D01*
X053910Y024767D01*
X053800Y024767D01*
X053910Y024619D02*
X053690Y024619D01*
X053635Y024564D01*
X053635Y024398D01*
X053965Y024398D01*
X053965Y024564D01*
X053910Y024619D01*
X056260Y024780D02*
X056535Y024780D01*
X056590Y024835D01*
X056590Y024945D01*
X056535Y025000D01*
X056260Y025000D01*
X056370Y025148D02*
X056260Y025258D01*
X056590Y025258D01*
X056590Y025148D02*
X056590Y025369D01*
X056425Y025517D02*
X056425Y025737D01*
X056590Y025682D02*
X056260Y025682D01*
X056425Y025517D01*
X056485Y026385D02*
X056485Y026550D01*
X056540Y026605D01*
X056650Y026605D01*
X056705Y026550D01*
X056705Y026385D01*
X056815Y026385D02*
X056485Y026385D01*
X056705Y026495D02*
X056815Y026605D01*
X056760Y026753D02*
X056815Y026808D01*
X056815Y026918D01*
X056760Y026974D01*
X056705Y026974D01*
X056650Y026918D01*
X056650Y026753D01*
X056760Y026753D01*
X056650Y026753D02*
X056540Y026863D01*
X056485Y026974D01*
X056540Y027122D02*
X056595Y027122D01*
X056650Y027177D01*
X056650Y027287D01*
X056705Y027342D01*
X056760Y027342D01*
X056815Y027287D01*
X056815Y027177D01*
X056760Y027122D01*
X056705Y027122D01*
X056650Y027177D01*
X056650Y027287D02*
X056595Y027342D01*
X056540Y027342D01*
X056485Y027287D01*
X056485Y027177D01*
X056540Y027122D01*
X056985Y027177D02*
X056985Y027287D01*
X057040Y027342D01*
X057260Y027342D01*
X057315Y027287D01*
X057315Y027177D01*
X057260Y027122D01*
X057150Y027177D02*
X057150Y027342D01*
X057150Y027177D02*
X057095Y027122D01*
X057040Y027122D01*
X056985Y027177D01*
X056985Y026974D02*
X057040Y026863D01*
X057150Y026753D01*
X057150Y026918D01*
X057205Y026974D01*
X057260Y026974D01*
X057315Y026918D01*
X057315Y026808D01*
X057260Y026753D01*
X057150Y026753D01*
X057150Y026605D02*
X057205Y026550D01*
X057205Y026385D01*
X057315Y026385D02*
X056985Y026385D01*
X056985Y026550D01*
X057040Y026605D01*
X057150Y026605D01*
X057205Y026495D02*
X057315Y026605D01*
X057485Y026550D02*
X057485Y026440D01*
X057540Y026385D01*
X057760Y026385D01*
X057815Y026440D01*
X057815Y026550D01*
X057760Y026605D01*
X057760Y026753D02*
X057815Y026808D01*
X057815Y026918D01*
X057760Y026974D01*
X057650Y026974D01*
X057595Y026918D01*
X057595Y026863D01*
X057650Y026753D01*
X057485Y026753D01*
X057485Y026974D01*
X057540Y027122D02*
X057485Y027177D01*
X057485Y027287D01*
X057540Y027342D01*
X057760Y027122D01*
X057815Y027177D01*
X057815Y027287D01*
X057760Y027342D01*
X057540Y027342D01*
X057540Y027122D02*
X057760Y027122D01*
X057540Y026605D02*
X057485Y026550D01*
X060412Y026985D02*
X060632Y026985D01*
X060780Y026985D02*
X061000Y026985D01*
X061148Y026985D02*
X061148Y027315D01*
X061314Y027315D01*
X061369Y027260D01*
X061369Y027040D01*
X061314Y026985D01*
X061148Y026985D01*
X060890Y027150D02*
X060780Y027150D01*
X060780Y027315D02*
X060780Y026985D01*
X060780Y027315D02*
X061000Y027315D01*
X061517Y027260D02*
X061517Y027205D01*
X061572Y027150D01*
X061682Y027150D01*
X061737Y027095D01*
X061737Y027040D01*
X061682Y026985D01*
X061572Y026985D01*
X061517Y027040D01*
X061517Y027095D01*
X061572Y027150D01*
X061682Y027150D02*
X061737Y027205D01*
X061737Y027260D01*
X061682Y027315D01*
X061572Y027315D01*
X061517Y027260D01*
X060412Y027315D02*
X060412Y026985D01*
X061385Y028635D02*
X061385Y028965D01*
X061440Y028800D02*
X061605Y028635D01*
X061753Y028635D02*
X061753Y028965D01*
X061863Y028855D01*
X061974Y028965D01*
X061974Y028635D01*
X061605Y028965D02*
X061385Y028745D01*
X064530Y026565D02*
X064695Y026565D01*
X064750Y026510D01*
X064750Y026400D01*
X064695Y026345D01*
X064530Y026345D01*
X064530Y026235D02*
X064530Y026565D01*
X064640Y026345D02*
X064750Y026235D01*
X064898Y026290D02*
X064953Y026235D01*
X065064Y026235D01*
X065119Y026290D01*
X065119Y026345D01*
X065064Y026400D01*
X064898Y026400D01*
X064898Y026290D01*
X064898Y026400D02*
X065008Y026510D01*
X065119Y026565D01*
X065267Y026455D02*
X065377Y026565D01*
X065377Y026235D01*
X065267Y026235D02*
X065487Y026235D01*
X065037Y022215D02*
X065092Y022160D01*
X065092Y022105D01*
X065037Y022050D01*
X064927Y022050D01*
X064872Y022105D01*
X064872Y022160D01*
X064927Y022215D01*
X065037Y022215D01*
X065037Y022050D02*
X065092Y021995D01*
X065092Y021940D01*
X065037Y021885D01*
X064927Y021885D01*
X064872Y021940D01*
X064872Y021995D01*
X064927Y022050D01*
X064724Y021995D02*
X064668Y022050D01*
X064503Y022050D01*
X064503Y021940D01*
X064558Y021885D01*
X064668Y021885D01*
X064724Y021940D01*
X064724Y021995D01*
X064613Y022160D02*
X064503Y022050D01*
X064613Y022160D02*
X064724Y022215D01*
X064355Y022160D02*
X064300Y022215D01*
X064190Y022215D01*
X064135Y022160D01*
X064135Y021940D01*
X064190Y021885D01*
X064300Y021885D01*
X064355Y021940D01*
X066885Y020715D02*
X066885Y020385D01*
X066885Y020495D02*
X067050Y020495D01*
X067105Y020550D01*
X067105Y020660D01*
X067050Y020715D01*
X066885Y020715D01*
X067253Y020660D02*
X067253Y020605D01*
X067308Y020550D01*
X067474Y020550D01*
X067474Y020440D02*
X067474Y020660D01*
X067418Y020715D01*
X067308Y020715D01*
X067253Y020660D01*
X067253Y020440D02*
X067308Y020385D01*
X067418Y020385D01*
X067474Y020440D01*
X064842Y019410D02*
X064622Y019190D01*
X064677Y019135D01*
X064787Y019135D01*
X064842Y019190D01*
X064842Y019410D01*
X064787Y019465D01*
X064677Y019465D01*
X064622Y019410D01*
X064622Y019190D01*
X064474Y019410D02*
X064253Y019190D01*
X064253Y019135D01*
X064105Y019190D02*
X064050Y019135D01*
X063940Y019135D01*
X063885Y019190D01*
X063885Y019410D01*
X063940Y019465D01*
X064050Y019465D01*
X064105Y019410D01*
X064253Y019465D02*
X064474Y019465D01*
X064474Y019410D01*
X054967Y015160D02*
X054967Y014940D01*
X054912Y014885D01*
X054802Y014885D01*
X054747Y014940D01*
X054802Y015050D02*
X054747Y015105D01*
X054747Y015160D01*
X054802Y015215D01*
X054912Y015215D01*
X054967Y015160D01*
X054967Y015050D02*
X054802Y015050D01*
X054599Y015050D02*
X054433Y015050D01*
X054378Y015105D01*
X054378Y015160D01*
X054433Y015215D01*
X054543Y015215D01*
X054599Y015160D01*
X054599Y014940D01*
X054543Y014885D01*
X054433Y014885D01*
X054378Y014940D01*
X054230Y014940D02*
X054175Y014885D01*
X054065Y014885D01*
X054010Y014940D01*
X054010Y015160D01*
X054065Y015215D01*
X054175Y015215D01*
X054230Y015160D01*
X043690Y009905D02*
X043635Y009960D01*
X043580Y009960D01*
X043525Y009905D01*
X043525Y009740D01*
X043635Y009740D01*
X043690Y009795D01*
X043690Y009905D01*
X043525Y009740D02*
X043415Y009850D01*
X043360Y009960D01*
X043415Y009592D02*
X043470Y009592D01*
X043525Y009537D01*
X043580Y009592D01*
X043635Y009592D01*
X043690Y009537D01*
X043690Y009427D01*
X043635Y009372D01*
X043525Y009482D02*
X043525Y009537D01*
X043415Y009592D02*
X043360Y009537D01*
X043360Y009427D01*
X043415Y009372D01*
X043360Y009113D02*
X043690Y009113D01*
X043690Y009003D02*
X043690Y009224D01*
X043470Y009003D02*
X043360Y009113D01*
X043415Y008855D02*
X043525Y008855D01*
X043580Y008800D01*
X043580Y008635D01*
X043690Y008635D02*
X043360Y008635D01*
X043360Y008800D01*
X043415Y008855D01*
X043580Y008745D02*
X043690Y008855D01*
X042940Y008855D02*
X042830Y008745D01*
X042830Y008800D02*
X042830Y008635D01*
X042940Y008635D02*
X042610Y008635D01*
X042610Y008800D01*
X042665Y008855D01*
X042775Y008855D01*
X042830Y008800D01*
X042940Y009003D02*
X042940Y009224D01*
X042940Y009113D02*
X042610Y009113D01*
X042720Y009003D01*
X042665Y009372D02*
X042610Y009427D01*
X042610Y009537D01*
X042665Y009592D01*
X042720Y009592D01*
X042775Y009537D01*
X042830Y009592D01*
X042885Y009592D01*
X042940Y009537D01*
X042940Y009427D01*
X042885Y009372D01*
X042775Y009482D02*
X042775Y009537D01*
X042775Y009740D02*
X042720Y009850D01*
X042720Y009905D01*
X042775Y009960D01*
X042885Y009960D01*
X042940Y009905D01*
X042940Y009795D01*
X042885Y009740D01*
X042775Y009740D02*
X042610Y009740D01*
X042610Y009960D01*
X040612Y009690D02*
X040392Y009690D01*
X040392Y009525D01*
X040502Y009580D01*
X040557Y009580D01*
X040612Y009525D01*
X040612Y009415D01*
X040557Y009360D01*
X040447Y009360D01*
X040392Y009415D01*
X040244Y009360D02*
X040023Y009360D01*
X040244Y009580D01*
X040244Y009635D01*
X040189Y009690D01*
X040078Y009690D01*
X040023Y009635D01*
X039875Y009690D02*
X039875Y009415D01*
X039820Y009360D01*
X039710Y009360D01*
X039655Y009415D01*
X039655Y009690D01*
X042217Y005940D02*
X042162Y005885D01*
X042162Y005665D01*
X042217Y005610D01*
X042327Y005610D01*
X042382Y005665D01*
X042530Y005610D02*
X042750Y005610D01*
X042640Y005610D02*
X042640Y005940D01*
X042530Y005830D01*
X042382Y005885D02*
X042327Y005940D01*
X042217Y005940D01*
X042898Y005830D02*
X043008Y005940D01*
X043008Y005610D01*
X042898Y005610D02*
X043119Y005610D01*
X043267Y005610D02*
X043487Y005830D01*
X043487Y005885D01*
X043432Y005940D01*
X043322Y005940D01*
X043267Y005885D01*
X043267Y005610D02*
X043487Y005610D01*
X040487Y004690D02*
X040267Y004690D01*
X040267Y004525D01*
X040377Y004580D01*
X040432Y004580D01*
X040487Y004525D01*
X040487Y004415D01*
X040432Y004360D01*
X040322Y004360D01*
X040267Y004415D01*
X040119Y004360D02*
X039898Y004360D01*
X040008Y004360D02*
X040008Y004690D01*
X039898Y004580D01*
X039750Y004360D02*
X039530Y004360D01*
X039640Y004360D02*
X039640Y004690D01*
X039530Y004580D01*
X039382Y004635D02*
X039327Y004690D01*
X039217Y004690D01*
X039162Y004635D01*
X039162Y004415D01*
X039217Y004360D01*
X039327Y004360D01*
X039382Y004415D01*
X035465Y003432D02*
X035410Y003487D01*
X035190Y003487D01*
X035135Y003432D01*
X035135Y003322D01*
X035190Y003267D01*
X035245Y003267D01*
X035300Y003322D01*
X035300Y003487D01*
X035465Y003432D02*
X035465Y003322D01*
X035410Y003267D01*
X035465Y003119D02*
X035465Y002898D01*
X035465Y003008D02*
X035135Y003008D01*
X035245Y002898D01*
X035465Y002750D02*
X035465Y002530D01*
X035465Y002640D02*
X035135Y002640D01*
X035245Y002530D01*
X035190Y002382D02*
X035135Y002327D01*
X035135Y002217D01*
X035190Y002162D01*
X035410Y002162D01*
X035465Y002217D01*
X035465Y002327D01*
X035410Y002382D01*
X034715Y002382D02*
X034605Y002272D01*
X034605Y002327D02*
X034605Y002162D01*
X034715Y002162D02*
X034385Y002162D01*
X034385Y002327D01*
X034440Y002382D01*
X034550Y002382D01*
X034605Y002327D01*
X034715Y002530D02*
X034715Y002750D01*
X034715Y002640D02*
X034385Y002640D01*
X034495Y002530D01*
X034550Y002898D02*
X034385Y002898D01*
X034385Y003119D01*
X034495Y003064D02*
X034550Y003119D01*
X034660Y003119D01*
X034715Y003064D01*
X034715Y002953D01*
X034660Y002898D01*
X034550Y002898D02*
X034495Y003008D01*
X034495Y003064D01*
X034550Y003267D02*
X034385Y003432D01*
X034715Y003432D01*
X034550Y003487D02*
X034550Y003267D01*
X033965Y003322D02*
X033910Y003267D01*
X033965Y003322D02*
X033965Y003432D01*
X033910Y003487D01*
X033855Y003487D01*
X033800Y003432D01*
X033800Y003377D01*
X033800Y003432D02*
X033745Y003487D01*
X033690Y003487D01*
X033635Y003432D01*
X033635Y003322D01*
X033690Y003267D01*
X033635Y003119D02*
X033635Y002898D01*
X033800Y002898D01*
X033745Y003008D01*
X033745Y003064D01*
X033800Y003119D01*
X033910Y003119D01*
X033965Y003064D01*
X033965Y002953D01*
X033910Y002898D01*
X033965Y002750D02*
X033965Y002530D01*
X033965Y002640D02*
X033635Y002640D01*
X033745Y002530D01*
X033800Y002382D02*
X033855Y002327D01*
X033855Y002162D01*
X033855Y002272D02*
X033965Y002382D01*
X033800Y002382D02*
X033690Y002382D01*
X033635Y002327D01*
X033635Y002162D01*
X033965Y002162D01*
X028737Y001400D02*
X028517Y001400D01*
X028682Y001565D01*
X028682Y001235D01*
X028369Y001235D02*
X028203Y001400D01*
X028148Y001345D02*
X028369Y001565D01*
X028148Y001565D02*
X028148Y001235D01*
X027410Y002162D02*
X027190Y002162D01*
X027135Y002217D01*
X027135Y002327D01*
X027190Y002382D01*
X027245Y002530D02*
X027135Y002640D01*
X027465Y002640D01*
X027465Y002530D02*
X027465Y002750D01*
X027465Y002898D02*
X027465Y003119D01*
X027465Y003008D02*
X027135Y003008D01*
X027245Y002898D01*
X027245Y003267D02*
X027190Y003267D01*
X027135Y003322D01*
X027135Y003432D01*
X027190Y003487D01*
X027245Y003487D01*
X027300Y003432D01*
X027300Y003322D01*
X027245Y003267D01*
X027300Y003322D02*
X027355Y003267D01*
X027410Y003267D01*
X027465Y003322D01*
X027465Y003432D01*
X027410Y003487D01*
X027355Y003487D01*
X027300Y003432D01*
X026715Y003487D02*
X026715Y003267D01*
X026495Y003487D01*
X026440Y003487D01*
X026385Y003432D01*
X026385Y003322D01*
X026440Y003267D01*
X026385Y003119D02*
X026385Y002898D01*
X026550Y002898D01*
X026495Y003008D01*
X026495Y003064D01*
X026550Y003119D01*
X026660Y003119D01*
X026715Y003064D01*
X026715Y002953D01*
X026660Y002898D01*
X026715Y002750D02*
X026715Y002530D01*
X026715Y002640D02*
X026385Y002640D01*
X026495Y002530D01*
X026550Y002382D02*
X026605Y002327D01*
X026605Y002162D01*
X026605Y002272D02*
X026715Y002382D01*
X026550Y002382D02*
X026440Y002382D01*
X026385Y002327D01*
X026385Y002162D01*
X026715Y002162D01*
X027410Y002162D02*
X027465Y002217D01*
X027465Y002327D01*
X027410Y002382D01*
X025965Y002382D02*
X025855Y002272D01*
X025855Y002327D02*
X025855Y002162D01*
X025965Y002162D02*
X025635Y002162D01*
X025635Y002327D01*
X025690Y002382D01*
X025800Y002382D01*
X025855Y002327D01*
X025965Y002530D02*
X025965Y002750D01*
X025965Y002640D02*
X025635Y002640D01*
X025745Y002530D01*
X025800Y002898D02*
X025745Y003008D01*
X025745Y003064D01*
X025800Y003119D01*
X025910Y003119D01*
X025965Y003064D01*
X025965Y002953D01*
X025910Y002898D01*
X025800Y002898D02*
X025635Y002898D01*
X025635Y003119D01*
X025745Y003267D02*
X025635Y003377D01*
X025965Y003377D01*
X025965Y003267D02*
X025965Y003487D01*
X020737Y001510D02*
X020737Y001455D01*
X020682Y001400D01*
X020737Y001345D01*
X020737Y001290D01*
X020682Y001235D01*
X020572Y001235D01*
X020517Y001290D01*
X020627Y001400D02*
X020682Y001400D01*
X020737Y001510D02*
X020682Y001565D01*
X020572Y001565D01*
X020517Y001510D01*
X020369Y001565D02*
X020148Y001345D01*
X020203Y001400D02*
X020369Y001235D01*
X020148Y001235D02*
X020148Y001565D01*
X019465Y002217D02*
X019465Y002327D01*
X019410Y002382D01*
X019465Y002530D02*
X019465Y002750D01*
X019465Y002640D02*
X019135Y002640D01*
X019245Y002530D01*
X019190Y002382D02*
X019135Y002327D01*
X019135Y002217D01*
X019190Y002162D01*
X019410Y002162D01*
X019465Y002217D01*
X018715Y002162D02*
X018385Y002162D01*
X018385Y002327D01*
X018440Y002382D01*
X018550Y002382D01*
X018605Y002327D01*
X018605Y002162D01*
X018605Y002272D02*
X018715Y002382D01*
X018715Y002530D02*
X018715Y002750D01*
X018715Y002640D02*
X018385Y002640D01*
X018495Y002530D01*
X018550Y002898D02*
X018495Y003008D01*
X018495Y003064D01*
X018550Y003119D01*
X018660Y003119D01*
X018715Y003064D01*
X018715Y002953D01*
X018660Y002898D01*
X018550Y002898D02*
X018385Y002898D01*
X018385Y003119D01*
X018440Y003267D02*
X018385Y003322D01*
X018385Y003432D01*
X018440Y003487D01*
X018660Y003267D01*
X018715Y003322D01*
X018715Y003432D01*
X018660Y003487D01*
X018440Y003487D01*
X018440Y003267D02*
X018660Y003267D01*
X019135Y003267D02*
X019135Y003487D01*
X019190Y003487D01*
X019410Y003267D01*
X019465Y003267D01*
X019465Y003119D02*
X019465Y002898D01*
X019465Y003008D02*
X019135Y003008D01*
X019245Y002898D01*
X017965Y002750D02*
X017965Y002530D01*
X017965Y002640D02*
X017635Y002640D01*
X017745Y002530D01*
X017800Y002382D02*
X017855Y002327D01*
X017855Y002162D01*
X017855Y002272D02*
X017965Y002382D01*
X017800Y002382D02*
X017690Y002382D01*
X017635Y002327D01*
X017635Y002162D01*
X017965Y002162D01*
X017800Y002898D02*
X017800Y003119D01*
X017745Y003267D02*
X017800Y003322D01*
X017800Y003487D01*
X017910Y003487D02*
X017690Y003487D01*
X017635Y003432D01*
X017635Y003322D01*
X017690Y003267D01*
X017745Y003267D01*
X017910Y003267D02*
X017965Y003322D01*
X017965Y003432D01*
X017910Y003487D01*
X017965Y003064D02*
X017635Y003064D01*
X017800Y002898D01*
X012737Y001510D02*
X012682Y001565D01*
X012572Y001565D01*
X012517Y001510D01*
X012369Y001565D02*
X012148Y001345D01*
X012203Y001400D02*
X012369Y001235D01*
X012517Y001235D02*
X012737Y001455D01*
X012737Y001510D01*
X012737Y001235D02*
X012517Y001235D01*
X012148Y001235D02*
X012148Y001565D01*
X011465Y002217D02*
X011465Y002327D01*
X011410Y002382D01*
X011465Y002530D02*
X011465Y002750D01*
X011465Y002640D02*
X011135Y002640D01*
X011245Y002530D01*
X011190Y002382D02*
X011135Y002327D01*
X011135Y002217D01*
X011190Y002162D01*
X011410Y002162D01*
X011465Y002217D01*
X010715Y002162D02*
X010385Y002162D01*
X010385Y002327D01*
X010440Y002382D01*
X010550Y002382D01*
X010605Y002327D01*
X010605Y002162D01*
X010605Y002272D02*
X010715Y002382D01*
X010715Y002530D02*
X010715Y002750D01*
X010715Y002640D02*
X010385Y002640D01*
X010495Y002530D01*
X010550Y002898D02*
X010385Y003064D01*
X010715Y003064D01*
X010550Y003119D02*
X010550Y002898D01*
X010605Y003267D02*
X010550Y003322D01*
X010550Y003432D01*
X010605Y003487D01*
X010660Y003487D01*
X010715Y003432D01*
X010715Y003322D01*
X010660Y003267D01*
X010605Y003267D01*
X010550Y003322D02*
X010495Y003267D01*
X010440Y003267D01*
X010385Y003322D01*
X010385Y003432D01*
X010440Y003487D01*
X010495Y003487D01*
X010550Y003432D01*
X011135Y003487D02*
X011190Y003377D01*
X011300Y003267D01*
X011300Y003432D01*
X011355Y003487D01*
X011410Y003487D01*
X011465Y003432D01*
X011465Y003322D01*
X011410Y003267D01*
X011300Y003267D01*
X011465Y003119D02*
X011465Y002898D01*
X011465Y003008D02*
X011135Y003008D01*
X011245Y002898D01*
X009965Y002750D02*
X009965Y002530D01*
X009965Y002640D02*
X009635Y002640D01*
X009745Y002530D01*
X009800Y002382D02*
X009855Y002327D01*
X009855Y002162D01*
X009855Y002272D02*
X009965Y002382D01*
X009800Y002382D02*
X009690Y002382D01*
X009635Y002327D01*
X009635Y002162D01*
X009965Y002162D01*
X009800Y002898D02*
X009800Y003119D01*
X009965Y003064D02*
X009635Y003064D01*
X009800Y002898D01*
X009910Y003267D02*
X009690Y003487D01*
X009635Y003487D01*
X009635Y003267D01*
X009910Y003267D02*
X009965Y003267D01*
X004627Y001565D02*
X004627Y001235D01*
X004517Y001235D02*
X004737Y001235D01*
X004517Y001455D02*
X004627Y001565D01*
X004369Y001565D02*
X004148Y001345D01*
X004203Y001400D02*
X004369Y001235D01*
X004148Y001235D02*
X004148Y001565D01*
X009190Y007635D02*
X009245Y007635D01*
X009300Y007690D01*
X009300Y007965D01*
X009245Y007965D02*
X009355Y007965D01*
X009503Y007965D02*
X009668Y007965D01*
X009724Y007910D01*
X009724Y007800D01*
X009668Y007745D01*
X009503Y007745D01*
X009503Y007635D02*
X009503Y007965D01*
X009872Y007855D02*
X009982Y007965D01*
X009982Y007635D01*
X009872Y007635D02*
X010092Y007635D01*
X009190Y007635D02*
X009135Y007690D01*
X008215Y008412D02*
X007885Y008412D01*
X007885Y008577D01*
X007940Y008632D01*
X008050Y008632D01*
X008105Y008577D01*
X008105Y008412D01*
X008105Y008522D02*
X008215Y008632D01*
X008215Y008780D02*
X008215Y009000D01*
X008215Y008890D02*
X007885Y008890D01*
X007995Y008780D01*
X007940Y009148D02*
X007885Y009203D01*
X007885Y009314D01*
X007940Y009369D01*
X007995Y009369D01*
X008050Y009314D01*
X008105Y009369D01*
X008160Y009369D01*
X008215Y009314D01*
X008215Y009203D01*
X008160Y009148D01*
X008050Y009258D02*
X008050Y009314D01*
X008160Y009517D02*
X008215Y009572D01*
X008215Y009682D01*
X008160Y009737D01*
X008105Y009737D01*
X008050Y009682D01*
X008050Y009627D01*
X008050Y009682D02*
X007995Y009737D01*
X007940Y009737D01*
X007885Y009682D01*
X007885Y009572D01*
X007940Y009517D01*
X006737Y009385D02*
X006517Y009165D01*
X006572Y009110D01*
X006682Y009110D01*
X006737Y009165D01*
X006737Y009385D01*
X006682Y009440D01*
X006572Y009440D01*
X006517Y009385D01*
X006517Y009165D01*
X006369Y009110D02*
X006148Y009110D01*
X006258Y009110D02*
X006258Y009440D01*
X006148Y009330D01*
X006000Y009110D02*
X005780Y009110D01*
X005890Y009110D02*
X005890Y009440D01*
X005780Y009330D01*
X005632Y009385D02*
X005577Y009440D01*
X005467Y009440D01*
X005412Y009385D01*
X005412Y009165D01*
X005467Y009110D01*
X005577Y009110D01*
X005632Y009165D01*
X004215Y009237D02*
X004215Y009017D01*
X003995Y009237D01*
X003940Y009237D01*
X003885Y009182D01*
X003885Y009072D01*
X003940Y009017D01*
X003940Y008869D02*
X003995Y008869D01*
X004050Y008814D01*
X004105Y008869D01*
X004160Y008869D01*
X004215Y008814D01*
X004215Y008703D01*
X004160Y008648D01*
X004050Y008758D02*
X004050Y008814D01*
X003940Y008869D02*
X003885Y008814D01*
X003885Y008703D01*
X003940Y008648D01*
X003885Y008390D02*
X004215Y008390D01*
X004215Y008280D02*
X004215Y008500D01*
X003995Y008280D02*
X003885Y008390D01*
X003940Y008132D02*
X004050Y008132D01*
X004105Y008077D01*
X004105Y007912D01*
X004105Y008022D02*
X004215Y008132D01*
X004215Y007912D02*
X003885Y007912D01*
X003885Y008077D01*
X003940Y008132D01*
X002910Y010662D02*
X002690Y010662D01*
X002635Y010717D01*
X002635Y010827D01*
X002690Y010882D01*
X002745Y011030D02*
X002635Y011140D01*
X002965Y011140D01*
X002965Y011030D02*
X002965Y011250D01*
X002910Y011398D02*
X002690Y011619D01*
X002910Y011619D01*
X002965Y011564D01*
X002965Y011453D01*
X002910Y011398D01*
X002690Y011398D01*
X002635Y011453D01*
X002635Y011564D01*
X002690Y011619D01*
X002690Y011767D02*
X002745Y011767D01*
X002800Y011822D01*
X002800Y011932D01*
X002855Y011987D01*
X002910Y011987D01*
X002965Y011932D01*
X002965Y011822D01*
X002910Y011767D01*
X002855Y011767D01*
X002800Y011822D01*
X002800Y011932D02*
X002745Y011987D01*
X002690Y011987D01*
X002635Y011932D01*
X002635Y011822D01*
X002690Y011767D01*
X002910Y010882D02*
X002965Y010827D01*
X002965Y010717D01*
X002910Y010662D01*
X005535Y012485D02*
X005645Y012485D01*
X005590Y012485D02*
X005590Y012815D01*
X005535Y012815D02*
X005645Y012815D01*
X005780Y012760D02*
X005780Y012540D01*
X005835Y012485D01*
X005945Y012485D01*
X006000Y012540D01*
X006148Y012485D02*
X006369Y012485D01*
X006258Y012485D02*
X006258Y012815D01*
X006148Y012705D01*
X006000Y012760D02*
X005945Y012815D01*
X005835Y012815D01*
X005780Y012760D01*
X006517Y012760D02*
X006572Y012815D01*
X006682Y012815D01*
X006737Y012760D01*
X006737Y012705D01*
X006682Y012650D01*
X006737Y012595D01*
X006737Y012540D01*
X006682Y012485D01*
X006572Y012485D01*
X006517Y012540D01*
X006627Y012650D02*
X006682Y012650D01*
X008110Y012885D02*
X008110Y013050D01*
X008165Y013105D01*
X008275Y013105D01*
X008330Y013050D01*
X008330Y012885D01*
X008440Y012885D02*
X008110Y012885D01*
X008330Y012995D02*
X008440Y013105D01*
X008440Y013253D02*
X008440Y013474D01*
X008440Y013363D02*
X008110Y013363D01*
X008220Y013253D01*
X008165Y013622D02*
X008110Y013677D01*
X008110Y013787D01*
X008165Y013842D01*
X008220Y013842D01*
X008440Y013622D01*
X008440Y013842D01*
X008385Y013990D02*
X008440Y014045D01*
X008440Y014155D01*
X008385Y014210D01*
X008330Y014210D01*
X008275Y014155D01*
X008275Y014045D01*
X008220Y013990D01*
X008165Y013990D01*
X008110Y014045D01*
X008110Y014155D01*
X008165Y014210D01*
X008220Y014210D01*
X008275Y014155D01*
X008275Y014045D02*
X008330Y013990D01*
X008385Y013990D01*
X006987Y014235D02*
X006767Y014235D01*
X006877Y014235D02*
X006877Y014565D01*
X006767Y014455D01*
X006619Y014510D02*
X006398Y014290D01*
X006453Y014235D01*
X006564Y014235D01*
X006619Y014290D01*
X006619Y014510D01*
X006564Y014565D01*
X006453Y014565D01*
X006398Y014510D01*
X006398Y014290D01*
X006250Y014235D02*
X006030Y014235D01*
X006140Y014235D02*
X006140Y014565D01*
X006030Y014455D01*
X005882Y014510D02*
X005827Y014565D01*
X005717Y014565D01*
X005662Y014510D01*
X005662Y014290D01*
X005717Y014235D01*
X005827Y014235D01*
X005882Y014290D01*
X004315Y013990D02*
X004260Y013990D01*
X004040Y014210D01*
X003985Y014210D01*
X003985Y013990D01*
X004040Y013842D02*
X003985Y013787D01*
X003985Y013677D01*
X004040Y013622D01*
X004040Y013842D02*
X004095Y013842D01*
X004315Y013622D01*
X004315Y013842D01*
X004315Y013474D02*
X004315Y013253D01*
X004315Y013363D02*
X003985Y013363D01*
X004095Y013253D01*
X004150Y013105D02*
X004205Y013050D01*
X004205Y012885D01*
X004315Y012885D02*
X003985Y012885D01*
X003985Y013050D01*
X004040Y013105D01*
X004150Y013105D01*
X004205Y012995D02*
X004315Y013105D01*
X002682Y014985D02*
X002572Y014985D01*
X002517Y015040D01*
X002737Y015260D01*
X002737Y015040D01*
X002682Y014985D01*
X002517Y015040D02*
X002517Y015260D01*
X002572Y015315D01*
X002682Y015315D01*
X002737Y015260D01*
X002369Y015260D02*
X002148Y015040D01*
X002203Y014985D01*
X002314Y014985D01*
X002369Y015040D01*
X002369Y015260D01*
X002314Y015315D01*
X002203Y015315D01*
X002148Y015260D01*
X002148Y015040D01*
X002000Y014985D02*
X001780Y014985D01*
X001890Y014985D02*
X001890Y015315D01*
X001780Y015205D01*
X001632Y015260D02*
X001577Y015315D01*
X001467Y015315D01*
X001412Y015260D01*
X001412Y015040D01*
X001467Y014985D01*
X001577Y014985D01*
X001632Y015040D01*
X002360Y015885D02*
X002360Y016050D01*
X002415Y016105D01*
X002525Y016105D01*
X002580Y016050D01*
X002580Y015885D01*
X002690Y015885D02*
X002360Y015885D01*
X002580Y015995D02*
X002690Y016105D01*
X002690Y016253D02*
X002690Y016474D01*
X002690Y016363D02*
X002360Y016363D01*
X002470Y016253D01*
X002470Y016622D02*
X002360Y016732D01*
X002690Y016732D01*
X002690Y016622D02*
X002690Y016842D01*
X002525Y016990D02*
X002525Y017210D01*
X002690Y017155D02*
X002360Y017155D01*
X002525Y016990D01*
X001940Y017385D02*
X001610Y017385D01*
X001610Y017550D01*
X001665Y017605D01*
X001775Y017605D01*
X001830Y017550D01*
X001830Y017385D01*
X001830Y017495D02*
X001940Y017605D01*
X001940Y017753D02*
X001940Y017974D01*
X001940Y017863D02*
X001610Y017863D01*
X001720Y017753D01*
X001440Y017808D02*
X001385Y017753D01*
X001330Y017753D01*
X001275Y017808D01*
X001275Y017918D01*
X001330Y017974D01*
X001385Y017974D01*
X001440Y017918D01*
X001440Y017808D01*
X001275Y017808D02*
X001220Y017753D01*
X001165Y017753D01*
X001110Y017808D01*
X001110Y017918D01*
X001165Y017974D01*
X001220Y017974D01*
X001275Y017918D01*
X001385Y018122D02*
X001440Y018122D01*
X001385Y018122D02*
X001165Y018342D01*
X001110Y018342D01*
X001110Y018122D01*
X001610Y018177D02*
X001610Y018287D01*
X001665Y018342D01*
X001885Y018122D01*
X001940Y018177D01*
X001940Y018287D01*
X001885Y018342D01*
X001665Y018342D01*
X001720Y018490D02*
X001610Y018600D01*
X001940Y018600D01*
X001940Y018490D02*
X001940Y018710D01*
X001565Y018940D02*
X001565Y019050D01*
X001510Y019105D01*
X001510Y019253D02*
X001565Y019253D01*
X001510Y019253D02*
X001290Y019474D01*
X001235Y019474D01*
X001235Y019253D01*
X001290Y019105D02*
X001235Y019050D01*
X001235Y018940D01*
X001290Y018885D01*
X001510Y018885D01*
X001565Y018940D01*
X001610Y018177D02*
X001665Y018122D01*
X001885Y018122D01*
X001385Y017605D02*
X001440Y017550D01*
X001440Y017440D01*
X001385Y017385D01*
X001165Y017385D01*
X001110Y017440D01*
X001110Y017550D01*
X001165Y017605D01*
X001400Y019622D02*
X001400Y019842D01*
X001565Y019787D02*
X001235Y019787D01*
X001400Y019622D01*
X002010Y020760D02*
X002010Y021090D01*
X002175Y021090D01*
X002230Y021035D01*
X002230Y020925D01*
X002175Y020870D01*
X002010Y020870D01*
X002120Y020870D02*
X002230Y020760D01*
X002378Y020815D02*
X002378Y020870D01*
X002433Y020925D01*
X002543Y020925D01*
X002599Y020870D01*
X002599Y020815D01*
X002543Y020760D01*
X002433Y020760D01*
X002378Y020815D01*
X002433Y020925D02*
X002378Y020980D01*
X002378Y021035D01*
X002433Y021090D01*
X002543Y021090D01*
X002599Y021035D01*
X002599Y020980D01*
X002543Y020925D01*
X002747Y020925D02*
X002857Y020980D01*
X002912Y020980D01*
X002967Y020925D01*
X002967Y020815D01*
X002912Y020760D01*
X002802Y020760D01*
X002747Y020815D01*
X002747Y020925D02*
X002747Y021090D01*
X002967Y021090D01*
X004510Y019785D02*
X004510Y019565D01*
X004565Y019510D01*
X004675Y019510D01*
X004730Y019565D01*
X004878Y019565D02*
X004878Y019510D01*
X004878Y019565D02*
X005099Y019785D01*
X005099Y019840D01*
X004878Y019840D01*
X004730Y019785D02*
X004675Y019840D01*
X004565Y019840D01*
X004510Y019785D01*
X005247Y019675D02*
X005412Y019675D01*
X005467Y019620D01*
X005467Y019565D01*
X005412Y019510D01*
X005302Y019510D01*
X005247Y019565D01*
X005247Y019675D01*
X005357Y019785D01*
X005467Y019840D01*
X005860Y019977D02*
X006190Y019977D01*
X006190Y019867D02*
X006190Y020087D01*
X005970Y019867D02*
X005860Y019977D01*
X005860Y019609D02*
X006190Y019609D01*
X006190Y019499D02*
X006190Y019719D01*
X005970Y019499D02*
X005860Y019609D01*
X005915Y019351D02*
X005860Y019296D01*
X005860Y019186D01*
X005915Y019131D01*
X006135Y019131D01*
X006190Y019186D01*
X006190Y019296D01*
X006135Y019351D01*
X006190Y018995D02*
X006190Y018885D01*
X006190Y018940D02*
X005860Y018940D01*
X005860Y018885D02*
X005860Y018995D01*
X008235Y018287D02*
X008290Y018342D01*
X008345Y018342D01*
X008400Y018287D01*
X008400Y018177D01*
X008345Y018122D01*
X008290Y018122D01*
X008235Y018177D01*
X008235Y018287D01*
X008400Y018287D02*
X008455Y018342D01*
X008510Y018342D01*
X008565Y018287D01*
X008565Y018177D01*
X008510Y018122D01*
X008455Y018122D01*
X008400Y018177D01*
X008455Y017974D02*
X008400Y017918D01*
X008400Y017808D01*
X008345Y017753D01*
X008290Y017753D01*
X008235Y017808D01*
X008235Y017918D01*
X008290Y017974D01*
X008345Y017974D01*
X008400Y017918D01*
X008455Y017974D02*
X008510Y017974D01*
X008565Y017918D01*
X008565Y017808D01*
X008510Y017753D01*
X008455Y017753D01*
X008400Y017808D01*
X008510Y017605D02*
X008565Y017550D01*
X008565Y017440D01*
X008510Y017385D01*
X008290Y017385D01*
X008235Y017440D01*
X008235Y017550D01*
X008290Y017605D01*
X008735Y017550D02*
X008790Y017605D01*
X008900Y017605D01*
X008955Y017550D01*
X008955Y017385D01*
X009065Y017385D02*
X008735Y017385D01*
X008735Y017550D01*
X008955Y017495D02*
X009065Y017605D01*
X009065Y017753D02*
X009065Y017974D01*
X009065Y017863D02*
X008735Y017863D01*
X008845Y017753D01*
X008790Y018122D02*
X008735Y018177D01*
X008735Y018287D01*
X008790Y018342D01*
X009010Y018122D01*
X009065Y018177D01*
X009065Y018287D01*
X009010Y018342D01*
X008790Y018342D01*
X008900Y018490D02*
X008900Y018710D01*
X009065Y018655D02*
X008735Y018655D01*
X008900Y018490D01*
X009010Y018122D02*
X008790Y018122D01*
X008738Y016965D02*
X008738Y016635D01*
X008628Y016635D02*
X008849Y016635D01*
X008997Y016635D02*
X009217Y016635D01*
X009107Y016635D02*
X009107Y016965D01*
X008997Y016855D01*
X008738Y016965D02*
X008628Y016855D01*
X008480Y016800D02*
X008425Y016745D01*
X008260Y016745D01*
X008260Y016635D02*
X008260Y016965D01*
X008425Y016965D01*
X008480Y016910D01*
X008480Y016800D01*
X008370Y016745D02*
X008480Y016635D01*
X009365Y016690D02*
X009420Y016635D01*
X009530Y016635D01*
X009585Y016690D01*
X009585Y016745D01*
X009530Y016800D01*
X009475Y016800D01*
X009530Y016800D02*
X009585Y016855D01*
X009585Y016910D01*
X009530Y016965D01*
X009420Y016965D01*
X009365Y016910D01*
X009662Y016315D02*
X009662Y015985D01*
X009882Y015985D01*
X010030Y015985D02*
X010250Y015985D01*
X010398Y015985D02*
X010564Y015985D01*
X010619Y016040D01*
X010619Y016260D01*
X010564Y016315D01*
X010398Y016315D01*
X010398Y015985D01*
X010140Y016150D02*
X010030Y016150D01*
X010030Y016315D02*
X010030Y015985D01*
X010030Y016315D02*
X010250Y016315D01*
X010767Y016260D02*
X010767Y016205D01*
X010822Y016150D01*
X010987Y016150D01*
X010987Y016040D02*
X010987Y016260D01*
X010932Y016315D01*
X010822Y016315D01*
X010767Y016260D01*
X010767Y016040D02*
X010822Y015985D01*
X010932Y015985D01*
X010987Y016040D01*
X010537Y015465D02*
X010427Y015465D01*
X010372Y015410D01*
X010372Y015190D01*
X010592Y015410D01*
X010592Y015190D01*
X010537Y015135D01*
X010427Y015135D01*
X010372Y015190D01*
X010224Y015135D02*
X010003Y015135D01*
X010113Y015135D02*
X010113Y015465D01*
X010003Y015355D01*
X009855Y015410D02*
X009855Y015190D01*
X009800Y015135D01*
X009635Y015135D01*
X009635Y015465D01*
X009800Y015465D01*
X009855Y015410D01*
X010537Y015465D02*
X010592Y015410D01*
X010912Y014065D02*
X011077Y014065D01*
X011132Y014010D01*
X011132Y013900D01*
X011077Y013845D01*
X010912Y013845D01*
X011022Y013845D02*
X011132Y013735D01*
X011280Y013735D02*
X011500Y013735D01*
X011390Y013735D02*
X011390Y014065D01*
X011280Y013955D01*
X011648Y013955D02*
X011758Y014065D01*
X011758Y013735D01*
X011648Y013735D02*
X011869Y013735D01*
X012017Y013790D02*
X012072Y013735D01*
X012182Y013735D01*
X012237Y013790D01*
X012237Y014010D01*
X012182Y014065D01*
X012072Y014065D01*
X012017Y014010D01*
X012017Y013955D01*
X012072Y013900D01*
X012237Y013900D01*
X010912Y013735D02*
X010912Y014065D01*
X013985Y014113D02*
X014315Y014113D01*
X014315Y014003D02*
X014315Y014224D01*
X014260Y014372D02*
X014205Y014372D01*
X014150Y014427D01*
X014150Y014537D01*
X014205Y014592D01*
X014260Y014592D01*
X014315Y014537D01*
X014315Y014427D01*
X014260Y014372D01*
X014150Y014427D02*
X014095Y014372D01*
X014040Y014372D01*
X013985Y014427D01*
X013985Y014537D01*
X014040Y014592D01*
X014095Y014592D01*
X014150Y014537D01*
X013985Y014113D02*
X014095Y014003D01*
X013985Y013855D02*
X014260Y013855D01*
X014315Y013800D01*
X014315Y013690D01*
X014260Y013635D01*
X013985Y013635D01*
X009590Y011932D02*
X009535Y011987D01*
X009315Y011987D01*
X009260Y011932D01*
X009260Y011822D01*
X009315Y011767D01*
X009370Y011767D01*
X009425Y011822D01*
X009425Y011987D01*
X009590Y011932D02*
X009590Y011822D01*
X009535Y011767D01*
X009535Y011619D02*
X009590Y011564D01*
X009590Y011453D01*
X009535Y011398D01*
X009315Y011619D01*
X009535Y011619D01*
X009315Y011619D02*
X009260Y011564D01*
X009260Y011453D01*
X009315Y011398D01*
X009535Y011398D01*
X009590Y011250D02*
X009590Y011030D01*
X009590Y011140D02*
X009260Y011140D01*
X009370Y011030D01*
X009315Y010882D02*
X009260Y010827D01*
X009260Y010717D01*
X009315Y010662D01*
X009535Y010662D01*
X009590Y010717D01*
X009590Y010827D01*
X009535Y010882D01*
X019485Y018635D02*
X019485Y018800D01*
X019540Y018855D01*
X019650Y018855D01*
X019705Y018800D01*
X019705Y018635D01*
X019815Y018635D02*
X019485Y018635D01*
X019705Y018745D02*
X019815Y018855D01*
X019815Y019003D02*
X019815Y019224D01*
X019815Y019113D02*
X019485Y019113D01*
X019595Y019003D01*
X019540Y019372D02*
X019485Y019427D01*
X019485Y019537D01*
X019540Y019592D01*
X019760Y019372D01*
X019815Y019427D01*
X019815Y019537D01*
X019760Y019592D01*
X019540Y019592D01*
X019650Y019740D02*
X019650Y019905D01*
X019705Y019960D01*
X019760Y019960D01*
X019815Y019905D01*
X019815Y019795D01*
X019760Y019740D01*
X019650Y019740D01*
X019540Y019850D01*
X019485Y019960D01*
X019540Y019372D02*
X019760Y019372D01*
X020885Y019760D02*
X020885Y020090D01*
X021050Y020090D01*
X021105Y020035D01*
X021105Y019925D01*
X021050Y019870D01*
X020885Y019870D01*
X020995Y019870D02*
X021105Y019760D01*
X021253Y019815D02*
X021308Y019760D01*
X021418Y019760D01*
X021474Y019815D01*
X021474Y020035D01*
X021418Y020090D01*
X021308Y020090D01*
X021253Y020035D01*
X021253Y019980D01*
X021308Y019925D01*
X021474Y019925D01*
X021622Y019925D02*
X021842Y019925D01*
X021787Y019760D02*
X021787Y020090D01*
X021622Y019925D01*
X022315Y019090D02*
X022260Y019035D01*
X022260Y018815D01*
X022315Y018760D01*
X022425Y018760D01*
X022480Y018815D01*
X022628Y018815D02*
X022628Y018870D01*
X022683Y018925D01*
X022793Y018925D01*
X022849Y018870D01*
X022849Y018815D01*
X022793Y018760D01*
X022683Y018760D01*
X022628Y018815D01*
X022683Y018925D02*
X022628Y018980D01*
X022628Y019035D01*
X022683Y019090D01*
X022793Y019090D01*
X022849Y019035D01*
X022849Y018980D01*
X022793Y018925D01*
X022997Y018815D02*
X023052Y018760D01*
X023162Y018760D01*
X023217Y018815D01*
X023217Y018870D01*
X023162Y018925D01*
X023107Y018925D01*
X023162Y018925D02*
X023217Y018980D01*
X023217Y019035D01*
X023162Y019090D01*
X023052Y019090D01*
X022997Y019035D01*
X023113Y018590D02*
X023113Y018260D01*
X023003Y018260D02*
X023224Y018260D01*
X023372Y018315D02*
X023592Y018535D01*
X023592Y018315D01*
X023537Y018260D01*
X023427Y018260D01*
X023372Y018315D01*
X023372Y018535D01*
X023427Y018590D01*
X023537Y018590D01*
X023592Y018535D01*
X023740Y018535D02*
X023740Y018480D01*
X023795Y018425D01*
X023960Y018425D01*
X023960Y018315D02*
X023960Y018535D01*
X023905Y018590D01*
X023795Y018590D01*
X023740Y018535D01*
X023740Y018315D02*
X023795Y018260D01*
X023905Y018260D01*
X023960Y018315D01*
X024485Y018308D02*
X024540Y018253D01*
X024595Y018253D01*
X024650Y018308D01*
X024650Y018474D01*
X024760Y018474D02*
X024540Y018474D01*
X024485Y018418D01*
X024485Y018308D01*
X024540Y018105D02*
X024485Y018050D01*
X024485Y017885D01*
X024815Y017885D01*
X024815Y018050D01*
X024760Y018105D01*
X024540Y018105D01*
X024760Y018253D02*
X024815Y018308D01*
X024815Y018418D01*
X024760Y018474D01*
X024232Y017590D02*
X024232Y017260D01*
X024122Y017260D02*
X024342Y017260D01*
X024122Y017480D02*
X024232Y017590D01*
X023974Y017535D02*
X023918Y017590D01*
X023808Y017590D01*
X023753Y017535D01*
X023753Y017480D01*
X023808Y017425D01*
X023974Y017425D01*
X023974Y017315D02*
X023974Y017535D01*
X023974Y017315D02*
X023918Y017260D01*
X023808Y017260D01*
X023753Y017315D01*
X023605Y017315D02*
X023550Y017260D01*
X023440Y017260D01*
X023385Y017315D01*
X023385Y017535D01*
X023440Y017590D01*
X023550Y017590D01*
X023605Y017535D01*
X023662Y016815D02*
X023662Y016485D01*
X023882Y016485D01*
X024030Y016485D02*
X024195Y016485D01*
X024250Y016540D01*
X024250Y016760D01*
X024195Y016815D01*
X024030Y016815D01*
X024030Y016485D01*
X023772Y016650D02*
X023662Y016650D01*
X023662Y016815D02*
X023882Y016815D01*
X023514Y016485D02*
X023293Y016485D01*
X023293Y016815D01*
X023065Y016787D02*
X023065Y016677D01*
X023010Y016622D01*
X022900Y016677D02*
X022900Y016842D01*
X023010Y016842D02*
X022790Y016842D01*
X022735Y016787D01*
X022735Y016677D01*
X022790Y016622D01*
X022845Y016622D01*
X022900Y016677D01*
X023065Y016787D02*
X023010Y016842D01*
X023065Y016474D02*
X023065Y016253D01*
X023065Y016363D02*
X022735Y016363D01*
X022845Y016253D01*
X022735Y016105D02*
X023010Y016105D01*
X023065Y016050D01*
X023065Y015940D01*
X023010Y015885D01*
X022735Y015885D01*
X024398Y016485D02*
X024619Y016485D01*
X024508Y016485D02*
X024508Y016815D01*
X024398Y016705D01*
X024767Y016705D02*
X024877Y016815D01*
X024877Y016485D01*
X024767Y016485D02*
X024987Y016485D01*
X022855Y018260D02*
X022745Y018370D01*
X022800Y018370D02*
X022635Y018370D01*
X022635Y018260D02*
X022635Y018590D01*
X022800Y018590D01*
X022855Y018535D01*
X022855Y018425D01*
X022800Y018370D01*
X023003Y018480D02*
X023113Y018590D01*
X022480Y019035D02*
X022425Y019090D01*
X022315Y019090D01*
X021432Y020985D02*
X021322Y020985D01*
X021267Y021040D01*
X021119Y021040D02*
X021119Y021095D01*
X021064Y021150D01*
X020898Y021150D01*
X020898Y021040D01*
X020953Y020985D01*
X021064Y020985D01*
X021119Y021040D01*
X021008Y021260D02*
X021119Y021315D01*
X021008Y021260D02*
X020898Y021150D01*
X020750Y021040D02*
X020695Y020985D01*
X020585Y020985D01*
X020530Y021040D01*
X020530Y021260D01*
X020585Y021315D01*
X020695Y021315D01*
X020750Y021260D01*
X021267Y021260D02*
X021322Y021315D01*
X021432Y021315D01*
X021487Y021260D01*
X021487Y021205D01*
X021432Y021150D01*
X021487Y021095D01*
X021487Y021040D01*
X021432Y020985D01*
X021432Y021150D02*
X021377Y021150D01*
X018565Y021105D02*
X018455Y020995D01*
X018455Y021050D02*
X018455Y020885D01*
X018565Y020885D02*
X018235Y020885D01*
X018235Y021050D01*
X018290Y021105D01*
X018400Y021105D01*
X018455Y021050D01*
X018510Y021253D02*
X018565Y021253D01*
X018510Y021253D02*
X018290Y021474D01*
X018235Y021474D01*
X018235Y021253D01*
X018290Y021622D02*
X018235Y021677D01*
X018235Y021787D01*
X018290Y021842D01*
X018510Y021842D01*
X018565Y021787D01*
X018565Y021677D01*
X018510Y021622D01*
X018400Y021677D02*
X018400Y021842D01*
X018400Y021677D02*
X018345Y021622D01*
X018290Y021622D01*
X017965Y021653D02*
X017965Y021763D01*
X017965Y021708D02*
X017635Y021708D01*
X017635Y021653D02*
X017635Y021763D01*
X017690Y021898D02*
X017910Y021898D01*
X017965Y021953D01*
X017965Y022064D01*
X017910Y022119D01*
X017910Y022267D02*
X017965Y022322D01*
X017965Y022432D01*
X017910Y022487D01*
X017855Y022487D01*
X017800Y022432D01*
X017800Y022267D01*
X017910Y022267D01*
X017800Y022267D02*
X017690Y022377D01*
X017635Y022487D01*
X017690Y022119D02*
X017635Y022064D01*
X017635Y021953D01*
X017690Y021898D01*
X016965Y021898D02*
X016910Y021898D01*
X016690Y022119D01*
X016635Y022119D01*
X016635Y021898D01*
X016690Y021750D02*
X016800Y021750D01*
X016855Y021695D01*
X016855Y021530D01*
X016965Y021530D02*
X016635Y021530D01*
X016635Y021695D01*
X016690Y021750D01*
X016855Y021640D02*
X016965Y021750D01*
X016965Y022267D02*
X016910Y022267D01*
X016690Y022487D01*
X016635Y022487D01*
X016635Y022267D01*
X016215Y024412D02*
X015885Y024412D01*
X016215Y024412D02*
X016215Y024632D01*
X016215Y024780D02*
X016215Y025000D01*
X016215Y025148D02*
X016215Y025314D01*
X016160Y025369D01*
X015940Y025369D01*
X015885Y025314D01*
X015885Y025148D01*
X016215Y025148D01*
X016050Y024890D02*
X016050Y024780D01*
X015885Y024780D02*
X016215Y024780D01*
X015885Y024780D02*
X015885Y025000D01*
X015940Y025517D02*
X015885Y025572D01*
X015885Y025682D01*
X015940Y025737D01*
X015995Y025737D01*
X016050Y025682D01*
X016105Y025737D01*
X016160Y025737D01*
X016215Y025682D01*
X016215Y025572D01*
X016160Y025517D01*
X016050Y025627D02*
X016050Y025682D01*
X017260Y025642D02*
X017260Y025862D01*
X017315Y025862D01*
X017535Y025642D01*
X017590Y025642D01*
X017535Y025494D02*
X017590Y025439D01*
X017590Y025328D01*
X017535Y025273D01*
X017425Y025273D02*
X017370Y025383D01*
X017370Y025439D01*
X017425Y025494D01*
X017535Y025494D01*
X017425Y025273D02*
X017260Y025273D01*
X017260Y025494D01*
X017315Y025125D02*
X017260Y025070D01*
X017260Y024960D01*
X017315Y024905D01*
X017535Y024905D01*
X017590Y024960D01*
X017590Y025070D01*
X017535Y025125D01*
X018290Y025885D02*
X018235Y025940D01*
X018235Y026050D01*
X018290Y026105D01*
X018235Y026253D02*
X018400Y026253D01*
X018345Y026363D01*
X018345Y026418D01*
X018400Y026474D01*
X018510Y026474D01*
X018565Y026418D01*
X018565Y026308D01*
X018510Y026253D01*
X018510Y026105D02*
X018565Y026050D01*
X018565Y025940D01*
X018510Y025885D01*
X018290Y025885D01*
X018235Y026253D02*
X018235Y026474D01*
X018290Y026622D02*
X018235Y026677D01*
X018235Y026787D01*
X018290Y026842D01*
X018345Y026842D01*
X018400Y026787D01*
X018455Y026842D01*
X018510Y026842D01*
X018565Y026787D01*
X018565Y026677D01*
X018510Y026622D01*
X018400Y026732D02*
X018400Y026787D01*
X019154Y027835D02*
X019154Y028166D01*
X019319Y028166D01*
X019374Y028111D01*
X019374Y028001D01*
X019319Y027945D01*
X019154Y027945D01*
X019523Y028001D02*
X019743Y028001D01*
X019688Y028166D02*
X019688Y027835D01*
X019523Y028001D02*
X019688Y028166D01*
X021360Y027592D02*
X021415Y027592D01*
X021635Y027372D01*
X021690Y027372D01*
X021635Y027224D02*
X021690Y027168D01*
X021690Y027058D01*
X021635Y027003D01*
X021525Y027003D02*
X021470Y027113D01*
X021470Y027168D01*
X021525Y027224D01*
X021635Y027224D01*
X021525Y027003D02*
X021360Y027003D01*
X021360Y027224D01*
X021360Y027372D02*
X021360Y027592D01*
X021415Y026855D02*
X021525Y026855D01*
X021580Y026800D01*
X021580Y026635D01*
X021690Y026635D02*
X021360Y026635D01*
X021360Y026800D01*
X021415Y026855D01*
X021580Y026745D02*
X021690Y026855D01*
X020932Y026315D02*
X020767Y026150D01*
X020987Y026150D01*
X020932Y025985D02*
X020932Y026315D01*
X020619Y026315D02*
X020398Y026315D01*
X020398Y026150D01*
X020508Y026205D01*
X020564Y026205D01*
X020619Y026150D01*
X020619Y026040D01*
X020564Y025985D01*
X020453Y025985D01*
X020398Y026040D01*
X020250Y026040D02*
X020195Y025985D01*
X020085Y025985D01*
X020030Y026040D01*
X020030Y026260D01*
X020085Y026315D01*
X020195Y026315D01*
X020250Y026260D01*
X013940Y026635D02*
X013610Y026635D01*
X013610Y026800D01*
X013665Y026855D01*
X013775Y026855D01*
X013830Y026800D01*
X013830Y026635D01*
X013830Y026745D02*
X013940Y026855D01*
X013885Y027003D02*
X013940Y027058D01*
X013940Y027168D01*
X013885Y027224D01*
X013775Y027224D01*
X013720Y027168D01*
X013720Y027113D01*
X013775Y027003D01*
X013610Y027003D01*
X013610Y027224D01*
X013775Y027372D02*
X013775Y027537D01*
X013830Y027592D01*
X013885Y027592D01*
X013940Y027537D01*
X013940Y027427D01*
X013885Y027372D01*
X013775Y027372D01*
X013665Y027482D01*
X013610Y027592D01*
X011743Y027890D02*
X011688Y027835D01*
X011578Y027835D01*
X011523Y027890D01*
X011633Y028001D02*
X011688Y028001D01*
X011743Y027945D01*
X011743Y027890D01*
X011688Y028001D02*
X011743Y028056D01*
X011743Y028111D01*
X011688Y028166D01*
X011578Y028166D01*
X011523Y028111D01*
X011374Y028111D02*
X011374Y028001D01*
X011319Y027945D01*
X011154Y027945D01*
X011154Y027835D02*
X011154Y028166D01*
X011319Y028166D01*
X011374Y028111D01*
X010565Y027787D02*
X010510Y027842D01*
X010455Y027842D01*
X010400Y027787D01*
X010400Y027622D01*
X010510Y027622D01*
X010565Y027677D01*
X010565Y027787D01*
X010400Y027622D02*
X010290Y027732D01*
X010235Y027842D01*
X010400Y027474D02*
X010400Y027253D01*
X010235Y027418D01*
X010565Y027418D01*
X010510Y027105D02*
X010565Y027050D01*
X010565Y026940D01*
X010510Y026885D01*
X010290Y026885D01*
X010235Y026940D01*
X010235Y027050D01*
X010290Y027105D01*
X007690Y026912D02*
X007690Y026802D01*
X007635Y026747D01*
X007525Y026747D02*
X007470Y026857D01*
X007470Y026912D01*
X007525Y026967D01*
X007635Y026967D01*
X007690Y026912D01*
X007525Y026747D02*
X007360Y026747D01*
X007360Y026967D01*
X007525Y026599D02*
X007525Y026378D01*
X007360Y026543D01*
X007690Y026543D01*
X007635Y026230D02*
X007690Y026175D01*
X007690Y026065D01*
X007635Y026010D01*
X007415Y026010D01*
X007360Y026065D01*
X007360Y026175D01*
X007415Y026230D01*
X005465Y026189D02*
X005135Y026189D01*
X005300Y026023D01*
X005300Y026244D01*
X005300Y026392D02*
X005300Y026612D01*
X005465Y026557D02*
X005135Y026557D01*
X005300Y026392D01*
X005410Y025875D02*
X005465Y025820D01*
X005465Y025710D01*
X005410Y025655D01*
X005190Y025655D01*
X005135Y025710D01*
X005135Y025820D01*
X005190Y025875D01*
X004715Y025820D02*
X004660Y025875D01*
X004715Y025820D02*
X004715Y025710D01*
X004660Y025655D01*
X004440Y025655D01*
X004385Y025710D01*
X004385Y025820D01*
X004440Y025875D01*
X004550Y026023D02*
X004550Y026244D01*
X004715Y026189D02*
X004385Y026189D01*
X004550Y026023D01*
X004660Y026392D02*
X004715Y026447D01*
X004715Y026557D01*
X004660Y026612D01*
X004605Y026612D01*
X004550Y026557D01*
X004550Y026502D01*
X004550Y026557D02*
X004495Y026612D01*
X004440Y026612D01*
X004385Y026557D01*
X004385Y026447D01*
X004440Y026392D01*
X003743Y027835D02*
X003523Y027835D01*
X003743Y028056D01*
X003743Y028111D01*
X003688Y028166D01*
X003578Y028166D01*
X003523Y028111D01*
X003374Y028111D02*
X003374Y028001D01*
X003319Y027945D01*
X003154Y027945D01*
X003154Y027835D02*
X003154Y028166D01*
X003319Y028166D01*
X003374Y028111D01*
X003485Y023724D02*
X003540Y023724D01*
X003760Y023503D01*
X003815Y023503D01*
X003650Y023355D02*
X003705Y023300D01*
X003705Y023135D01*
X003815Y023135D02*
X003485Y023135D01*
X003485Y023300D01*
X003540Y023355D01*
X003650Y023355D01*
X003485Y023503D02*
X003485Y023724D01*
X006760Y021090D02*
X006925Y021090D01*
X006980Y021035D01*
X006980Y020925D01*
X006925Y020870D01*
X006760Y020870D01*
X006760Y020760D02*
X006760Y021090D01*
X006870Y020870D02*
X006980Y020760D01*
X007128Y020815D02*
X007128Y020870D01*
X007183Y020925D01*
X007293Y020925D01*
X007349Y020870D01*
X007349Y020815D01*
X007293Y020760D01*
X007183Y020760D01*
X007128Y020815D01*
X007183Y020925D02*
X007128Y020980D01*
X007128Y021035D01*
X007183Y021090D01*
X007293Y021090D01*
X007349Y021035D01*
X007349Y020980D01*
X007293Y020925D01*
X007497Y020925D02*
X007662Y020925D01*
X007717Y020870D01*
X007717Y020815D01*
X007662Y020760D01*
X007552Y020760D01*
X007497Y020815D01*
X007497Y020925D01*
X007607Y021035D01*
X007717Y021090D01*
X008860Y020842D02*
X008915Y020842D01*
X009135Y020622D01*
X009190Y020622D01*
X009135Y020474D02*
X009190Y020418D01*
X009190Y020308D01*
X009135Y020253D01*
X009080Y020253D01*
X009025Y020308D01*
X009025Y020418D01*
X009080Y020474D01*
X009135Y020474D01*
X009025Y020418D02*
X008970Y020474D01*
X008915Y020474D01*
X008860Y020418D01*
X008860Y020308D01*
X008915Y020253D01*
X008970Y020253D01*
X009025Y020308D01*
X009025Y020105D02*
X009080Y020050D01*
X009080Y019885D01*
X009190Y019885D02*
X008860Y019885D01*
X008860Y020050D01*
X008915Y020105D01*
X009025Y020105D01*
X009080Y019995D02*
X009190Y020105D01*
X008860Y020622D02*
X008860Y020842D01*
X008800Y019465D02*
X008690Y019465D01*
X008635Y019410D01*
X008635Y019190D01*
X008690Y019135D01*
X008800Y019135D01*
X008855Y019190D01*
X009003Y019190D02*
X009003Y019135D01*
X009003Y019190D02*
X009224Y019410D01*
X009224Y019465D01*
X009003Y019465D01*
X008855Y019410D02*
X008800Y019465D01*
X009372Y019465D02*
X009372Y019300D01*
X009482Y019355D01*
X009537Y019355D01*
X009592Y019300D01*
X009592Y019190D01*
X009537Y019135D01*
X009427Y019135D01*
X009372Y019190D01*
X009372Y019465D02*
X009592Y019465D01*
X010735Y019885D02*
X010735Y020050D01*
X010790Y020105D01*
X010900Y020105D01*
X010955Y020050D01*
X010955Y019885D01*
X011065Y019885D02*
X010735Y019885D01*
X010955Y019995D02*
X011065Y020105D01*
X011010Y020253D02*
X010955Y020253D01*
X010900Y020308D01*
X010900Y020418D01*
X010955Y020474D01*
X011010Y020474D01*
X011065Y020418D01*
X011065Y020308D01*
X011010Y020253D01*
X010900Y020308D02*
X010845Y020253D01*
X010790Y020253D01*
X010735Y020308D01*
X010735Y020418D01*
X010790Y020474D01*
X010845Y020474D01*
X010900Y020418D01*
X010955Y020622D02*
X010900Y020677D01*
X010900Y020787D01*
X010955Y020842D01*
X011010Y020842D01*
X011065Y020787D01*
X011065Y020677D01*
X011010Y020622D01*
X010955Y020622D01*
X010900Y020677D02*
X010845Y020622D01*
X010790Y020622D01*
X010735Y020677D01*
X010735Y020787D01*
X010790Y020842D01*
X010845Y020842D01*
X010900Y020787D01*
X026485Y010537D02*
X026540Y010592D01*
X026760Y010372D01*
X026815Y010427D01*
X026815Y010537D01*
X026760Y010592D01*
X026540Y010592D01*
X026485Y010537D02*
X026485Y010427D01*
X026540Y010372D01*
X026760Y010372D01*
X026815Y010224D02*
X026815Y010003D01*
X026815Y010113D02*
X026485Y010113D01*
X026595Y010003D01*
X026650Y009855D02*
X026705Y009800D01*
X026705Y009635D01*
X026815Y009635D02*
X026485Y009635D01*
X026485Y009800D01*
X026540Y009855D01*
X026650Y009855D01*
X047010Y003160D02*
X047010Y002940D01*
X047065Y002885D01*
X047175Y002885D01*
X047230Y002940D01*
X047378Y002885D02*
X047599Y002885D01*
X047488Y002885D02*
X047488Y003215D01*
X047378Y003105D01*
X047230Y003160D02*
X047175Y003215D01*
X047065Y003215D01*
X047010Y003160D01*
X047747Y003160D02*
X047802Y003215D01*
X047912Y003215D01*
X047967Y003160D01*
X047967Y003105D01*
X047747Y002885D01*
X047967Y002885D01*
X048115Y002885D02*
X048335Y002885D01*
X048225Y002885D02*
X048225Y003215D01*
X048115Y003105D01*
X061010Y003160D02*
X061010Y002940D01*
X061065Y002885D01*
X061175Y002885D01*
X061230Y002940D01*
X061378Y002885D02*
X061599Y002885D01*
X061488Y002885D02*
X061488Y003215D01*
X061378Y003105D01*
X061230Y003160D02*
X061175Y003215D01*
X061065Y003215D01*
X061010Y003160D01*
X061747Y003160D02*
X061802Y003215D01*
X061912Y003215D01*
X061967Y003160D01*
X061967Y003105D01*
X061747Y002885D01*
X061967Y002885D01*
X062115Y002885D02*
X062335Y003105D01*
X062335Y003160D01*
X062280Y003215D01*
X062170Y003215D01*
X062115Y003160D01*
X062115Y002885D02*
X062335Y002885D01*
X064217Y005235D02*
X064327Y005235D01*
X064382Y005290D01*
X064530Y005235D02*
X064750Y005235D01*
X064640Y005235D02*
X064640Y005565D01*
X064530Y005455D01*
X064382Y005510D02*
X064327Y005565D01*
X064217Y005565D01*
X064162Y005510D01*
X064162Y005290D01*
X064217Y005235D01*
X064898Y005235D02*
X065119Y005235D01*
X065008Y005235D02*
X065008Y005565D01*
X064898Y005455D01*
X065267Y005400D02*
X065487Y005400D01*
X065432Y005235D02*
X065432Y005565D01*
X065267Y005400D01*
X065690Y003715D02*
X065635Y003660D01*
X065635Y003440D01*
X065690Y003385D01*
X065800Y003385D01*
X065855Y003440D01*
X066003Y003385D02*
X066224Y003385D01*
X066113Y003385D02*
X066113Y003715D01*
X066003Y003605D01*
X065855Y003660D02*
X065800Y003715D01*
X065690Y003715D01*
X066372Y003660D02*
X066427Y003715D01*
X066537Y003715D01*
X066592Y003660D01*
X066592Y003605D01*
X066372Y003385D01*
X066592Y003385D01*
X066740Y003440D02*
X066960Y003660D01*
X066960Y003440D01*
X066905Y003385D01*
X066795Y003385D01*
X066740Y003440D01*
X066740Y003660D01*
X066795Y003715D01*
X066905Y003715D01*
X066960Y003660D01*
X067260Y032211D02*
X067590Y032211D01*
X067590Y032431D01*
X067535Y032579D02*
X067590Y032634D01*
X067590Y032744D01*
X067535Y032799D01*
X067425Y032799D01*
X067370Y032744D01*
X067370Y032689D01*
X067425Y032579D01*
X067260Y032579D01*
X067260Y032799D01*
X063344Y037135D02*
X063124Y037135D01*
X063234Y037135D02*
X063234Y037465D01*
X063124Y037355D01*
X062976Y037410D02*
X062921Y037465D01*
X062811Y037465D01*
X062756Y037410D01*
X062756Y037190D01*
X062811Y037135D01*
X062921Y037135D01*
X062976Y037190D01*
X062620Y037135D02*
X062510Y037135D01*
X062565Y037135D02*
X062565Y037465D01*
X062510Y037465D02*
X062620Y037465D01*
X060237Y037665D02*
X060182Y037610D01*
X060072Y037610D01*
X060017Y037665D01*
X060017Y037720D01*
X060072Y037775D01*
X060182Y037775D01*
X060237Y037720D01*
X060237Y037665D01*
X060182Y037775D02*
X060237Y037830D01*
X060237Y037885D01*
X060182Y037940D01*
X060072Y037940D01*
X060017Y037885D01*
X060017Y037830D01*
X060072Y037775D01*
X059869Y037775D02*
X059814Y037720D01*
X059648Y037720D01*
X059648Y037610D02*
X059648Y037940D01*
X059814Y037940D01*
X059869Y037885D01*
X059869Y037775D01*
X059758Y037720D02*
X059869Y037610D01*
X059758Y037190D02*
X059758Y036860D01*
X059648Y036860D02*
X059869Y036860D01*
X060017Y036860D02*
X060237Y036860D01*
X060127Y036860D02*
X060127Y037190D01*
X060017Y037080D01*
X059758Y037190D02*
X059648Y037080D01*
X059500Y037025D02*
X059445Y036970D01*
X059280Y036970D01*
X059280Y036860D02*
X059280Y037190D01*
X059445Y037190D01*
X059500Y037135D01*
X059500Y037025D01*
X059390Y036970D02*
X059500Y036860D01*
X059517Y038360D02*
X059737Y038580D01*
X059737Y038635D01*
X059682Y038690D01*
X059572Y038690D01*
X059517Y038635D01*
X059369Y038635D02*
X059314Y038690D01*
X059203Y038690D01*
X059148Y038635D01*
X059148Y038415D01*
X059203Y038360D01*
X059314Y038360D01*
X059369Y038415D01*
X059517Y038360D02*
X059737Y038360D01*
X059648Y039110D02*
X059648Y039440D01*
X059814Y039440D01*
X059869Y039385D01*
X059869Y039275D01*
X059814Y039220D01*
X059648Y039220D01*
X059758Y039220D02*
X059869Y039110D01*
X060017Y039165D02*
X060072Y039110D01*
X060182Y039110D01*
X060237Y039165D01*
X060237Y039220D01*
X060182Y039275D01*
X060127Y039275D01*
X060182Y039275D02*
X060237Y039330D01*
X060237Y039385D01*
X060182Y039440D01*
X060072Y039440D01*
X060017Y039385D01*
X060017Y039860D02*
X060237Y039860D01*
X060127Y039860D02*
X060127Y040190D01*
X060017Y040080D01*
X059869Y040025D02*
X059814Y039970D01*
X059648Y039970D01*
X059648Y039860D02*
X059648Y040190D01*
X059814Y040190D01*
X059869Y040135D01*
X059869Y040025D01*
X059758Y039970D02*
X059869Y039860D01*
X058672Y039650D02*
X058672Y039540D01*
X058617Y039485D01*
X058507Y039485D02*
X058452Y039595D01*
X058452Y039650D01*
X058507Y039705D01*
X058617Y039705D01*
X058672Y039650D01*
X058507Y039485D02*
X058341Y039485D01*
X058341Y039705D01*
X058341Y039227D02*
X058672Y039227D01*
X058672Y039117D02*
X058672Y039337D01*
X058452Y039117D02*
X058341Y039227D01*
X058341Y038969D02*
X058341Y038859D01*
X058341Y038914D02*
X058617Y038914D01*
X058672Y038859D01*
X058672Y038804D01*
X058617Y038749D01*
X053672Y038804D02*
X053672Y038859D01*
X053617Y038914D01*
X053341Y038914D01*
X053341Y038859D02*
X053341Y038969D01*
X053452Y039117D02*
X053341Y039227D01*
X053672Y039227D01*
X053672Y039117D02*
X053672Y039337D01*
X053507Y039485D02*
X053341Y039650D01*
X053672Y039650D01*
X053507Y039705D02*
X053507Y039485D01*
X053672Y038804D02*
X053617Y038749D01*
X048672Y038804D02*
X048672Y038859D01*
X048617Y038914D01*
X048341Y038914D01*
X048341Y038859D02*
X048341Y038969D01*
X048452Y039117D02*
X048341Y039227D01*
X048672Y039227D01*
X048672Y039117D02*
X048672Y039337D01*
X048617Y039485D02*
X048672Y039540D01*
X048672Y039650D01*
X048617Y039705D01*
X048562Y039705D01*
X048507Y039650D01*
X048507Y039595D01*
X048507Y039650D02*
X048452Y039705D01*
X048396Y039705D01*
X048341Y039650D01*
X048341Y039540D01*
X048396Y039485D01*
X048672Y038804D02*
X048617Y038749D01*
X043672Y038804D02*
X043672Y038859D01*
X043617Y038914D01*
X043341Y038914D01*
X043341Y038859D02*
X043341Y038969D01*
X043452Y039117D02*
X043341Y039227D01*
X043672Y039227D01*
X043672Y039117D02*
X043672Y039337D01*
X043672Y039485D02*
X043452Y039705D01*
X043396Y039705D01*
X043341Y039650D01*
X043341Y039540D01*
X043396Y039485D01*
X043672Y039485D02*
X043672Y039705D01*
X043672Y038804D02*
X043617Y038749D01*
X045841Y033955D02*
X045896Y033955D01*
X046117Y033735D01*
X046172Y033735D01*
X046172Y033587D02*
X046172Y033367D01*
X046172Y033477D02*
X045841Y033477D01*
X045952Y033367D01*
X045841Y033219D02*
X045841Y033109D01*
X045841Y033164D02*
X046117Y033164D01*
X046172Y033109D01*
X046172Y033054D01*
X046117Y032999D01*
X045841Y033735D02*
X045841Y033955D01*
X041172Y033900D02*
X041117Y033955D01*
X041062Y033955D01*
X041007Y033900D01*
X041007Y033735D01*
X041117Y033735D01*
X041172Y033790D01*
X041172Y033900D01*
X041007Y033735D02*
X040896Y033845D01*
X040841Y033955D01*
X040841Y033477D02*
X041172Y033477D01*
X041172Y033367D02*
X041172Y033587D01*
X040952Y033367D02*
X040841Y033477D01*
X040841Y033219D02*
X040841Y033109D01*
X040841Y033164D02*
X041117Y033164D01*
X041172Y033109D01*
X041172Y033054D01*
X041117Y032999D01*
X050841Y033109D02*
X050841Y033219D01*
X050841Y033164D02*
X051117Y033164D01*
X051172Y033109D01*
X051172Y033054D01*
X051117Y032999D01*
X051172Y033367D02*
X051172Y033587D01*
X051172Y033477D02*
X050841Y033477D01*
X050952Y033367D01*
X050952Y033735D02*
X050896Y033735D01*
X050841Y033790D01*
X050841Y033900D01*
X050896Y033955D01*
X050952Y033955D01*
X051007Y033900D01*
X051007Y033790D01*
X050952Y033735D01*
X051007Y033790D02*
X051062Y033735D01*
X051117Y033735D01*
X051172Y033790D01*
X051172Y033900D01*
X051117Y033955D01*
X051062Y033955D01*
X051007Y033900D01*
X055841Y033900D02*
X055841Y033790D01*
X055896Y033735D01*
X055952Y033735D01*
X056007Y033790D01*
X056007Y033955D01*
X056117Y033955D02*
X055896Y033955D01*
X055841Y033900D01*
X056117Y033955D02*
X056172Y033900D01*
X056172Y033790D01*
X056117Y033735D01*
X056172Y033587D02*
X056172Y033367D01*
X056172Y033477D02*
X055841Y033477D01*
X055952Y033367D01*
X055841Y033219D02*
X055841Y033109D01*
X055841Y033164D02*
X056117Y033164D01*
X056172Y033109D01*
X056172Y033054D01*
X056117Y032999D01*
X066385Y037260D02*
X066385Y037590D01*
X066550Y037590D01*
X066605Y037535D01*
X066605Y037425D01*
X066550Y037370D01*
X066385Y037370D01*
X066495Y037370D02*
X066605Y037260D01*
X066753Y037260D02*
X066974Y037260D01*
X066863Y037260D02*
X066863Y037590D01*
X066753Y037480D01*
X067122Y037535D02*
X067177Y037590D01*
X067287Y037590D01*
X067342Y037535D01*
X067122Y037315D01*
X067177Y037260D01*
X067287Y037260D01*
X067342Y037315D01*
X067342Y037535D01*
X067122Y037535D02*
X067122Y037315D01*
X066918Y038010D02*
X066974Y038065D01*
X066974Y038120D01*
X066918Y038175D01*
X066753Y038175D01*
X066753Y038065D01*
X066808Y038010D01*
X066918Y038010D01*
X066753Y038175D02*
X066863Y038285D01*
X066974Y038340D01*
X066605Y038285D02*
X066605Y038175D01*
X066550Y038120D01*
X066385Y038120D01*
X066385Y038010D02*
X066385Y038340D01*
X066550Y038340D01*
X066605Y038285D01*
X066495Y038120D02*
X066605Y038010D01*
X066605Y038760D02*
X066495Y038870D01*
X066550Y038870D02*
X066385Y038870D01*
X066385Y038760D02*
X066385Y039090D01*
X066550Y039090D01*
X066605Y039035D01*
X066605Y038925D01*
X066550Y038870D01*
X066753Y038925D02*
X066918Y039090D01*
X066918Y038760D01*
X066974Y038925D02*
X066753Y038925D01*
X066753Y039510D02*
X066974Y039730D01*
X066974Y039785D01*
X066918Y039840D01*
X066808Y039840D01*
X066753Y039785D01*
X066605Y039785D02*
X066605Y039675D01*
X066550Y039620D01*
X066385Y039620D01*
X066385Y039510D02*
X066385Y039840D01*
X066550Y039840D01*
X066605Y039785D01*
X066495Y039620D02*
X066605Y039510D01*
X066753Y039510D02*
X066974Y039510D01*
X008312Y035254D02*
X008091Y035034D01*
X008147Y034979D01*
X008257Y034979D01*
X008312Y035034D01*
X008312Y035254D01*
X008257Y035309D01*
X008147Y035309D01*
X008091Y035254D01*
X008091Y035034D01*
X007943Y034979D02*
X007723Y034979D01*
X007833Y034979D02*
X007833Y035309D01*
X007723Y035199D01*
X007575Y035309D02*
X007465Y035309D01*
X007520Y035309D02*
X007520Y035034D01*
X007465Y034979D01*
X007410Y034979D01*
X007355Y035034D01*
X003237Y036025D02*
X003017Y036025D01*
X003182Y036190D01*
X003182Y035860D01*
X002869Y035860D02*
X002648Y035860D01*
X002758Y035860D02*
X002758Y036190D01*
X002648Y036080D01*
X002500Y036025D02*
X002445Y035970D01*
X002280Y035970D01*
X002280Y035860D02*
X002280Y036190D01*
X002445Y036190D01*
X002500Y036135D01*
X002500Y036025D01*
X002390Y035970D02*
X002500Y035860D01*
X002500Y036610D02*
X002390Y036720D01*
X002445Y036720D02*
X002280Y036720D01*
X002280Y036610D02*
X002280Y036940D01*
X002445Y036940D01*
X002500Y036885D01*
X002500Y036775D01*
X002445Y036720D01*
X002648Y036610D02*
X002869Y036610D01*
X002758Y036610D02*
X002758Y036940D01*
X002648Y036830D01*
X003017Y036885D02*
X003072Y036940D01*
X003182Y036940D01*
X003237Y036885D01*
X003237Y036830D01*
X003017Y036610D01*
X003237Y036610D01*
X003182Y037360D02*
X003237Y037415D01*
X003237Y037635D01*
X003182Y037690D01*
X003072Y037690D01*
X003017Y037635D01*
X003017Y037580D01*
X003072Y037525D01*
X003237Y037525D01*
X003182Y037360D02*
X003072Y037360D01*
X003017Y037415D01*
X002869Y037360D02*
X002758Y037470D01*
X002814Y037470D02*
X002648Y037470D01*
X002648Y037360D02*
X002648Y037690D01*
X002814Y037690D01*
X002869Y037635D01*
X002869Y037525D01*
X002814Y037470D01*
X002869Y038110D02*
X002758Y038220D01*
X002814Y038220D02*
X002648Y038220D01*
X002648Y038110D02*
X002648Y038440D01*
X002814Y038440D01*
X002869Y038385D01*
X002869Y038275D01*
X002814Y038220D01*
X003017Y038165D02*
X003072Y038110D01*
X003182Y038110D01*
X003237Y038165D01*
X003237Y038275D01*
X003182Y038330D01*
X003127Y038330D01*
X003017Y038275D01*
X003017Y038440D01*
X003237Y038440D01*
D17*
X003930Y038470D02*
X004270Y038470D01*
X004270Y038230D02*
X003930Y038230D01*
X003930Y037720D02*
X004270Y037720D01*
X004270Y037480D02*
X003930Y037480D01*
X003930Y036970D02*
X004270Y036970D01*
X004270Y036730D02*
X003930Y036730D01*
X003930Y036220D02*
X004270Y036220D01*
X004270Y035980D02*
X003930Y035980D01*
X004480Y027520D02*
X004480Y027180D01*
X004720Y027180D02*
X004720Y027520D01*
X005230Y027520D02*
X005230Y027180D01*
X005470Y027180D02*
X005470Y027520D01*
X014230Y027270D02*
X014230Y026930D01*
X014470Y026930D02*
X014470Y027270D01*
X014874Y027307D02*
X014874Y026893D01*
X014963Y026735D02*
X014968Y026757D01*
X014976Y026777D01*
X014987Y026795D01*
X015002Y026812D01*
X015018Y026826D01*
X015037Y026838D01*
X015057Y026846D01*
X015078Y026851D01*
X015100Y026853D01*
X015122Y026851D01*
X015143Y026846D01*
X015163Y026838D01*
X015182Y026826D01*
X015198Y026812D01*
X015213Y026795D01*
X015224Y026777D01*
X015232Y026757D01*
X015237Y026735D01*
X015236Y026765D02*
X015238Y026777D01*
X015243Y026788D01*
X015251Y026797D01*
X015262Y026803D01*
X015274Y026806D01*
X015286Y026805D01*
X015298Y026801D01*
X015307Y026793D01*
X015314Y026783D01*
X015318Y026771D01*
X015318Y026759D01*
X015314Y026747D01*
X015307Y026737D01*
X015297Y026729D01*
X015286Y026725D01*
X015274Y026724D01*
X015262Y026727D01*
X015251Y026733D01*
X015243Y026742D01*
X015238Y026753D01*
X015236Y026765D01*
X015326Y026736D02*
X015326Y027297D01*
X015237Y027465D02*
X015232Y027443D01*
X015224Y027423D01*
X015213Y027405D01*
X015198Y027388D01*
X015182Y027374D01*
X015163Y027362D01*
X015143Y027354D01*
X015122Y027349D01*
X015100Y027347D01*
X015078Y027349D01*
X015057Y027354D01*
X015037Y027362D01*
X015018Y027374D01*
X015002Y027388D01*
X014987Y027405D01*
X014976Y027423D01*
X014968Y027443D01*
X014963Y027465D01*
X018680Y025470D02*
X019020Y025470D01*
X019020Y025230D02*
X018680Y025230D01*
X020730Y024020D02*
X020730Y023680D01*
X020970Y023680D02*
X020970Y024020D01*
X021480Y024020D02*
X021480Y023680D01*
X021720Y023680D02*
X021720Y024020D01*
X019020Y022470D02*
X018680Y022470D01*
X018680Y022230D02*
X019020Y022230D01*
X016970Y023180D02*
X016970Y023520D01*
X016730Y023520D02*
X016730Y023180D01*
X021980Y026930D02*
X021980Y027270D01*
X022220Y027270D02*
X022220Y026930D01*
X022499Y026893D02*
X022499Y027307D01*
X022588Y027465D02*
X022593Y027443D01*
X022601Y027423D01*
X022612Y027405D01*
X022627Y027388D01*
X022643Y027374D01*
X022662Y027362D01*
X022682Y027354D01*
X022703Y027349D01*
X022725Y027347D01*
X022747Y027349D01*
X022768Y027354D01*
X022788Y027362D01*
X022807Y027374D01*
X022823Y027388D01*
X022838Y027405D01*
X022849Y027423D01*
X022857Y027443D01*
X022862Y027465D01*
X022951Y027297D02*
X022951Y026736D01*
X022861Y026765D02*
X022863Y026777D01*
X022868Y026788D01*
X022876Y026797D01*
X022887Y026803D01*
X022899Y026806D01*
X022911Y026805D01*
X022923Y026801D01*
X022932Y026793D01*
X022939Y026783D01*
X022943Y026771D01*
X022943Y026759D01*
X022939Y026747D01*
X022932Y026737D01*
X022922Y026729D01*
X022911Y026725D01*
X022899Y026724D01*
X022887Y026727D01*
X022876Y026733D01*
X022868Y026742D01*
X022863Y026753D01*
X022861Y026765D01*
X022862Y026735D02*
X022857Y026757D01*
X022849Y026777D01*
X022838Y026795D01*
X022823Y026812D01*
X022807Y026826D01*
X022788Y026838D01*
X022768Y026846D01*
X022747Y026851D01*
X022725Y026853D01*
X022703Y026851D01*
X022682Y026846D01*
X022662Y026838D01*
X022643Y026826D01*
X022627Y026812D01*
X022612Y026795D01*
X022601Y026777D01*
X022593Y026757D01*
X022588Y026735D01*
X023249Y026893D02*
X023249Y027307D01*
X023338Y027465D02*
X023343Y027443D01*
X023351Y027423D01*
X023362Y027405D01*
X023377Y027388D01*
X023393Y027374D01*
X023412Y027362D01*
X023432Y027354D01*
X023453Y027349D01*
X023475Y027347D01*
X023497Y027349D01*
X023518Y027354D01*
X023538Y027362D01*
X023557Y027374D01*
X023573Y027388D01*
X023588Y027405D01*
X023599Y027423D01*
X023607Y027443D01*
X023612Y027465D01*
X023701Y027297D02*
X023701Y026736D01*
X023611Y026765D02*
X023613Y026777D01*
X023618Y026788D01*
X023626Y026797D01*
X023637Y026803D01*
X023649Y026806D01*
X023661Y026805D01*
X023673Y026801D01*
X023682Y026793D01*
X023689Y026783D01*
X023693Y026771D01*
X023693Y026759D01*
X023689Y026747D01*
X023682Y026737D01*
X023672Y026729D01*
X023661Y026725D01*
X023649Y026724D01*
X023637Y026727D01*
X023626Y026733D01*
X023618Y026742D01*
X023613Y026753D01*
X023611Y026765D01*
X023612Y026735D02*
X023607Y026757D01*
X023599Y026777D01*
X023588Y026795D01*
X023573Y026812D01*
X023557Y026826D01*
X023538Y026838D01*
X023518Y026846D01*
X023497Y026851D01*
X023475Y026853D01*
X023453Y026851D01*
X023432Y026846D01*
X023412Y026838D01*
X023393Y026826D01*
X023377Y026812D01*
X023362Y026795D01*
X023351Y026777D01*
X023343Y026757D01*
X023338Y026735D01*
X023980Y026930D02*
X023980Y027270D01*
X024220Y027270D02*
X024220Y026930D01*
X026680Y025470D02*
X027020Y025470D01*
X027020Y025230D02*
X026680Y025230D01*
X028730Y024020D02*
X028730Y023680D01*
X028970Y023680D02*
X028970Y024020D01*
X029480Y024020D02*
X029480Y023680D01*
X029720Y023680D02*
X029720Y024020D01*
X027020Y022470D02*
X026680Y022470D01*
X026680Y022230D02*
X027020Y022230D01*
X024970Y023180D02*
X024970Y023520D01*
X024730Y023520D02*
X024730Y023180D01*
X029980Y026930D02*
X029980Y027270D01*
X030220Y027270D02*
X030220Y026930D01*
X030499Y026893D02*
X030499Y027307D01*
X030588Y027465D02*
X030593Y027443D01*
X030601Y027423D01*
X030612Y027405D01*
X030627Y027388D01*
X030643Y027374D01*
X030662Y027362D01*
X030682Y027354D01*
X030703Y027349D01*
X030725Y027347D01*
X030747Y027349D01*
X030768Y027354D01*
X030788Y027362D01*
X030807Y027374D01*
X030823Y027388D01*
X030838Y027405D01*
X030849Y027423D01*
X030857Y027443D01*
X030862Y027465D01*
X030951Y027297D02*
X030951Y026736D01*
X030861Y026765D02*
X030863Y026777D01*
X030868Y026788D01*
X030876Y026797D01*
X030887Y026803D01*
X030899Y026806D01*
X030911Y026805D01*
X030923Y026801D01*
X030932Y026793D01*
X030939Y026783D01*
X030943Y026771D01*
X030943Y026759D01*
X030939Y026747D01*
X030932Y026737D01*
X030922Y026729D01*
X030911Y026725D01*
X030899Y026724D01*
X030887Y026727D01*
X030876Y026733D01*
X030868Y026742D01*
X030863Y026753D01*
X030861Y026765D01*
X030862Y026735D02*
X030857Y026757D01*
X030849Y026777D01*
X030838Y026795D01*
X030823Y026812D01*
X030807Y026826D01*
X030788Y026838D01*
X030768Y026846D01*
X030747Y026851D01*
X030725Y026853D01*
X030703Y026851D01*
X030682Y026846D01*
X030662Y026838D01*
X030643Y026826D01*
X030627Y026812D01*
X030612Y026795D01*
X030601Y026777D01*
X030593Y026757D01*
X030588Y026735D01*
X031249Y026893D02*
X031249Y027307D01*
X031338Y027465D02*
X031343Y027443D01*
X031351Y027423D01*
X031362Y027405D01*
X031377Y027388D01*
X031393Y027374D01*
X031412Y027362D01*
X031432Y027354D01*
X031453Y027349D01*
X031475Y027347D01*
X031497Y027349D01*
X031518Y027354D01*
X031538Y027362D01*
X031557Y027374D01*
X031573Y027388D01*
X031588Y027405D01*
X031599Y027423D01*
X031607Y027443D01*
X031612Y027465D01*
X031701Y027297D02*
X031701Y026736D01*
X031611Y026765D02*
X031613Y026777D01*
X031618Y026788D01*
X031626Y026797D01*
X031637Y026803D01*
X031649Y026806D01*
X031661Y026805D01*
X031673Y026801D01*
X031682Y026793D01*
X031689Y026783D01*
X031693Y026771D01*
X031693Y026759D01*
X031689Y026747D01*
X031682Y026737D01*
X031672Y026729D01*
X031661Y026725D01*
X031649Y026724D01*
X031637Y026727D01*
X031626Y026733D01*
X031618Y026742D01*
X031613Y026753D01*
X031611Y026765D01*
X031612Y026735D02*
X031607Y026757D01*
X031599Y026777D01*
X031588Y026795D01*
X031573Y026812D01*
X031557Y026826D01*
X031538Y026838D01*
X031518Y026846D01*
X031497Y026851D01*
X031475Y026853D01*
X031453Y026851D01*
X031432Y026846D01*
X031412Y026838D01*
X031393Y026826D01*
X031377Y026812D01*
X031362Y026795D01*
X031351Y026777D01*
X031343Y026757D01*
X031338Y026735D01*
X031980Y026930D02*
X031980Y027270D01*
X032220Y027270D02*
X032220Y026930D01*
X039480Y027020D02*
X039480Y026680D01*
X039720Y026680D02*
X039720Y027020D01*
X040230Y027020D02*
X040230Y026680D01*
X040470Y026680D02*
X040470Y027020D01*
X040980Y027020D02*
X040980Y026680D01*
X041220Y026680D02*
X041220Y027020D01*
X044480Y027020D02*
X044480Y026680D01*
X044720Y026680D02*
X044720Y027020D01*
X045230Y027020D02*
X045230Y026680D01*
X045470Y026680D02*
X045470Y027020D01*
X045980Y027020D02*
X045980Y026680D01*
X046220Y026680D02*
X046220Y027020D01*
X049480Y027020D02*
X049480Y026680D01*
X049720Y026680D02*
X049720Y027020D01*
X050230Y027020D02*
X050230Y026680D01*
X050470Y026680D02*
X050470Y027020D01*
X050980Y027020D02*
X050980Y026680D01*
X051220Y026680D02*
X051220Y027020D01*
X054480Y027020D02*
X054480Y026680D01*
X054720Y026680D02*
X054720Y027020D01*
X055230Y027020D02*
X055230Y026680D01*
X055470Y026680D02*
X055470Y027020D01*
X055980Y027020D02*
X055980Y026680D01*
X056220Y026680D02*
X056220Y027020D01*
X062726Y026785D02*
X063474Y026785D01*
X063730Y026942D02*
X063706Y026946D01*
X063684Y026952D01*
X063662Y026963D01*
X063642Y026976D01*
X063625Y026992D01*
X063610Y027010D01*
X063598Y027031D01*
X063589Y027053D01*
X063584Y027076D01*
X063582Y027100D01*
X063584Y027124D01*
X063589Y027147D01*
X063598Y027169D01*
X063610Y027190D01*
X063625Y027208D01*
X063642Y027224D01*
X063662Y027237D01*
X063684Y027248D01*
X063706Y027254D01*
X063730Y027258D01*
X063622Y027317D02*
X063624Y027329D01*
X063629Y027340D01*
X063638Y027349D01*
X063649Y027354D01*
X063661Y027356D01*
X063673Y027354D01*
X063684Y027349D01*
X063693Y027340D01*
X063698Y027329D01*
X063700Y027317D01*
X063698Y027305D01*
X063693Y027294D01*
X063684Y027285D01*
X063673Y027280D01*
X063661Y027278D01*
X063649Y027280D01*
X063638Y027285D01*
X063629Y027294D01*
X063624Y027305D01*
X063622Y027317D01*
X063474Y027415D02*
X062726Y027415D01*
X064930Y027220D02*
X065270Y027220D01*
X065270Y026980D02*
X064930Y026980D01*
X066280Y031725D02*
X066280Y032480D01*
X066920Y032480D02*
X066920Y031725D01*
X061270Y036980D02*
X060930Y036980D01*
X060930Y037220D02*
X061270Y037220D01*
X061270Y037730D02*
X060930Y037730D01*
X060930Y037970D02*
X061270Y037970D01*
X061020Y038480D02*
X060680Y038480D01*
X060680Y038720D02*
X061020Y038720D01*
X060930Y039230D02*
X061270Y039230D01*
X061270Y039470D02*
X060930Y039470D01*
X060930Y039980D02*
X061270Y039980D01*
X061270Y040220D02*
X060930Y040220D01*
X065430Y039845D02*
X065770Y039845D01*
X065770Y039605D02*
X065430Y039605D01*
X065430Y039095D02*
X065770Y039095D01*
X065770Y038855D02*
X065430Y038855D01*
X065430Y038345D02*
X065770Y038345D01*
X065770Y038105D02*
X065430Y038105D01*
X065430Y037595D02*
X065770Y037595D01*
X065770Y037355D02*
X065430Y037355D01*
X064770Y021470D02*
X064430Y021470D01*
X064430Y021230D02*
X064770Y021230D01*
X054770Y015720D02*
X054430Y015720D01*
X054430Y015480D02*
X054770Y015480D01*
X043720Y008020D02*
X043720Y007680D01*
X043480Y007680D02*
X043480Y008020D01*
X042970Y008020D02*
X042970Y007680D01*
X042730Y007680D02*
X042730Y008020D01*
X042930Y006470D02*
X043270Y006470D01*
X043270Y006230D02*
X042930Y006230D01*
X040270Y005220D02*
X039930Y005220D01*
X039930Y004980D02*
X040270Y004980D01*
X035470Y004520D02*
X035470Y004180D01*
X035230Y004180D02*
X035230Y004520D01*
X034720Y004520D02*
X034720Y004180D01*
X034480Y004180D02*
X034480Y004520D01*
X033970Y004520D02*
X033970Y004180D01*
X033730Y004180D02*
X033730Y004520D01*
X027470Y004520D02*
X027470Y004180D01*
X027230Y004180D02*
X027230Y004520D01*
X026720Y004520D02*
X026720Y004180D01*
X026480Y004180D02*
X026480Y004520D01*
X025970Y004520D02*
X025970Y004180D01*
X025730Y004180D02*
X025730Y004520D01*
X019470Y004520D02*
X019470Y004180D01*
X019230Y004180D02*
X019230Y004520D01*
X018720Y004520D02*
X018720Y004180D01*
X018480Y004180D02*
X018480Y004520D01*
X017970Y004520D02*
X017970Y004180D01*
X017730Y004180D02*
X017730Y004520D01*
X011470Y004520D02*
X011470Y004180D01*
X011230Y004180D02*
X011230Y004520D01*
X010720Y004520D02*
X010720Y004180D01*
X010480Y004180D02*
X010480Y004520D01*
X009970Y004520D02*
X009970Y004180D01*
X009730Y004180D02*
X009730Y004520D01*
X006270Y009730D02*
X005930Y009730D01*
X005930Y009970D02*
X006270Y009970D01*
X004220Y010430D02*
X004220Y010770D01*
X003980Y010770D02*
X003980Y010430D01*
X003470Y011180D02*
X003470Y011520D01*
X003230Y011520D02*
X003230Y011180D01*
X003980Y011930D02*
X003980Y012270D01*
X004220Y012270D02*
X004220Y011930D01*
X007980Y011930D02*
X007980Y012270D01*
X008220Y012270D02*
X008220Y011930D01*
X008730Y011520D02*
X008730Y011180D01*
X008970Y011180D02*
X008970Y011520D01*
X008220Y010770D02*
X008220Y010430D01*
X007980Y010430D02*
X007980Y010770D01*
X011680Y014480D02*
X012020Y014480D01*
X012020Y014720D02*
X011680Y014720D01*
X011986Y015874D02*
X012547Y015874D01*
X012715Y015963D02*
X012693Y015968D01*
X012673Y015976D01*
X012655Y015987D01*
X012638Y016002D01*
X012624Y016018D01*
X012612Y016037D01*
X012604Y016057D01*
X012599Y016078D01*
X012597Y016100D01*
X012599Y016122D01*
X012604Y016143D01*
X012612Y016163D01*
X012624Y016182D01*
X012638Y016198D01*
X012655Y016213D01*
X012673Y016224D01*
X012693Y016232D01*
X012715Y016237D01*
X012557Y016326D02*
X012143Y016326D01*
X011985Y016237D02*
X012007Y016232D01*
X012027Y016224D01*
X012045Y016213D01*
X012062Y016198D01*
X012076Y016182D01*
X012088Y016163D01*
X012096Y016143D01*
X012101Y016122D01*
X012103Y016100D01*
X012101Y016078D01*
X012096Y016057D01*
X012088Y016037D01*
X012076Y016018D01*
X012062Y016002D01*
X012045Y015987D01*
X012027Y015976D01*
X012007Y015968D01*
X011985Y015963D01*
X011974Y015923D02*
X011976Y015935D01*
X011981Y015946D01*
X011989Y015955D01*
X012000Y015961D01*
X012012Y015964D01*
X012024Y015963D01*
X012036Y015959D01*
X012045Y015951D01*
X012052Y015941D01*
X012056Y015929D01*
X012056Y015917D01*
X012052Y015905D01*
X012045Y015895D01*
X012035Y015887D01*
X012024Y015883D01*
X012012Y015882D01*
X012000Y015885D01*
X011989Y015891D01*
X011981Y015900D01*
X011976Y015911D01*
X011974Y015923D01*
X014430Y017230D02*
X014770Y017230D01*
X014770Y017470D02*
X014430Y017470D01*
X013220Y017680D02*
X013220Y018020D01*
X012980Y018020D02*
X012980Y017680D01*
X014430Y019230D02*
X014770Y019230D01*
X014770Y019470D02*
X014430Y019470D01*
X015930Y017470D02*
X016270Y017470D01*
X016270Y017230D02*
X015930Y017230D01*
X018485Y016237D02*
X018507Y016232D01*
X018527Y016224D01*
X018545Y016213D01*
X018562Y016198D01*
X018576Y016182D01*
X018588Y016163D01*
X018596Y016143D01*
X018601Y016122D01*
X018603Y016100D01*
X018601Y016078D01*
X018596Y016057D01*
X018588Y016037D01*
X018576Y016018D01*
X018562Y016002D01*
X018545Y015987D01*
X018527Y015976D01*
X018507Y015968D01*
X018485Y015963D01*
X018474Y015923D02*
X018476Y015935D01*
X018481Y015946D01*
X018489Y015955D01*
X018500Y015961D01*
X018512Y015964D01*
X018524Y015963D01*
X018536Y015959D01*
X018545Y015951D01*
X018552Y015941D01*
X018556Y015929D01*
X018556Y015917D01*
X018552Y015905D01*
X018545Y015895D01*
X018535Y015887D01*
X018524Y015883D01*
X018512Y015882D01*
X018500Y015885D01*
X018489Y015891D01*
X018481Y015900D01*
X018476Y015911D01*
X018474Y015923D01*
X018486Y015874D02*
X019047Y015874D01*
X019215Y015963D02*
X019193Y015968D01*
X019173Y015976D01*
X019155Y015987D01*
X019138Y016002D01*
X019124Y016018D01*
X019112Y016037D01*
X019104Y016057D01*
X019099Y016078D01*
X019097Y016100D01*
X019099Y016122D01*
X019104Y016143D01*
X019112Y016163D01*
X019124Y016182D01*
X019138Y016198D01*
X019155Y016213D01*
X019173Y016224D01*
X019193Y016232D01*
X019215Y016237D01*
X019057Y016326D02*
X018643Y016326D01*
X019480Y017680D02*
X019480Y018020D01*
X019720Y018020D02*
X019720Y017680D01*
X020930Y017470D02*
X021270Y017470D01*
X021270Y017230D02*
X020930Y017230D01*
X022430Y017230D02*
X022770Y017230D01*
X022770Y017470D02*
X022430Y017470D01*
X021270Y019230D02*
X020930Y019230D01*
X020930Y019470D02*
X021270Y019470D01*
X025143Y016326D02*
X025557Y016326D01*
X025715Y016237D02*
X025693Y016232D01*
X025673Y016224D01*
X025655Y016213D01*
X025638Y016198D01*
X025624Y016182D01*
X025612Y016163D01*
X025604Y016143D01*
X025599Y016122D01*
X025597Y016100D01*
X025599Y016078D01*
X025604Y016057D01*
X025612Y016037D01*
X025624Y016018D01*
X025638Y016002D01*
X025655Y015987D01*
X025673Y015976D01*
X025693Y015968D01*
X025715Y015963D01*
X025547Y015874D02*
X024986Y015874D01*
X024974Y015923D02*
X024976Y015935D01*
X024981Y015946D01*
X024989Y015955D01*
X025000Y015961D01*
X025012Y015964D01*
X025024Y015963D01*
X025036Y015959D01*
X025045Y015951D01*
X025052Y015941D01*
X025056Y015929D01*
X025056Y015917D01*
X025052Y015905D01*
X025045Y015895D01*
X025035Y015887D01*
X025024Y015883D01*
X025012Y015882D01*
X025000Y015885D01*
X024989Y015891D01*
X024981Y015900D01*
X024976Y015911D01*
X024974Y015923D01*
X024985Y015963D02*
X025007Y015968D01*
X025027Y015976D01*
X025045Y015987D01*
X025062Y016002D01*
X025076Y016018D01*
X025088Y016037D01*
X025096Y016057D01*
X025101Y016078D01*
X025103Y016100D01*
X025101Y016122D01*
X025096Y016143D01*
X025088Y016163D01*
X025076Y016182D01*
X025062Y016198D01*
X025045Y016213D01*
X025027Y016224D01*
X025007Y016232D01*
X024985Y016237D01*
X025020Y014720D02*
X024680Y014720D01*
X024680Y014480D02*
X025020Y014480D01*
X027180Y014470D02*
X027520Y014470D01*
X027520Y014230D02*
X027180Y014230D01*
X028680Y014230D02*
X029020Y014230D01*
X029020Y014470D02*
X028680Y014470D01*
X028930Y017230D02*
X029270Y017230D01*
X029270Y017470D02*
X028930Y017470D01*
X027770Y017470D02*
X027430Y017470D01*
X027430Y017230D02*
X027770Y017230D01*
X026220Y017680D02*
X026220Y018020D01*
X025980Y018020D02*
X025980Y017680D01*
X027430Y019230D02*
X027770Y019230D01*
X027770Y019470D02*
X027430Y019470D01*
X032680Y017720D02*
X033020Y017720D01*
X033020Y017480D02*
X032680Y017480D01*
X035430Y016720D02*
X035770Y016720D01*
X035770Y016480D02*
X035430Y016480D01*
X035430Y015970D02*
X035770Y015970D01*
X035770Y015730D02*
X035430Y015730D01*
X034220Y013520D02*
X034220Y013180D01*
X033980Y013180D02*
X033980Y013520D01*
X040430Y015480D02*
X040770Y015480D01*
X040770Y015720D02*
X040430Y015720D01*
X022520Y014470D02*
X022180Y014470D01*
X022180Y014230D02*
X022520Y014230D01*
X021020Y014230D02*
X020680Y014230D01*
X020680Y014470D02*
X021020Y014470D01*
X018520Y014480D02*
X018180Y014480D01*
X018180Y014720D02*
X018520Y014720D01*
X010470Y020180D02*
X010470Y020520D01*
X010230Y020520D02*
X010230Y020180D01*
X009720Y020180D02*
X009720Y020520D01*
X009480Y020520D02*
X009480Y020180D01*
X007520Y020230D02*
X007180Y020230D01*
X007180Y020470D02*
X007520Y020470D01*
X005270Y019220D02*
X004930Y019220D01*
X004930Y018980D02*
X005270Y018980D01*
X006980Y018020D02*
X006980Y017680D01*
X007220Y017680D02*
X007220Y018020D01*
X007730Y018020D02*
X007730Y017680D01*
X007970Y017680D02*
X007970Y018020D01*
X007645Y016845D02*
X007305Y016845D01*
X007305Y016605D02*
X007645Y016605D01*
X003220Y016430D02*
X003220Y016770D01*
X002980Y016770D02*
X002980Y016430D01*
X002980Y017930D02*
X002980Y018270D01*
X003220Y018270D02*
X003220Y017930D01*
X002470Y017930D02*
X002470Y018270D01*
X002230Y018270D02*
X002230Y017930D01*
X002430Y020230D02*
X002770Y020230D01*
X002770Y020470D02*
X002430Y020470D01*
X047430Y003720D02*
X047770Y003720D01*
X047770Y003480D02*
X047430Y003480D01*
X061430Y003480D02*
X061770Y003480D01*
X061770Y003720D02*
X061430Y003720D01*
X066180Y005230D02*
X066520Y005230D01*
X066520Y005470D02*
X066180Y005470D01*
D18*
X043600Y007600D03*
X043600Y008100D03*
X042850Y008100D03*
X042850Y007600D03*
X035350Y004600D03*
X035350Y004100D03*
X034600Y004100D03*
X034600Y004600D03*
X033850Y004600D03*
X033850Y004100D03*
X027350Y004100D03*
X027350Y004600D03*
X026600Y004600D03*
X026600Y004100D03*
X025850Y004100D03*
X025850Y004600D03*
X019350Y004600D03*
X019350Y004100D03*
X018600Y004100D03*
X018600Y004600D03*
X017850Y004600D03*
X017850Y004100D03*
X011350Y004100D03*
X011350Y004600D03*
X010600Y004600D03*
X010600Y004100D03*
X009850Y004100D03*
X009850Y004600D03*
X008100Y010350D03*
X008100Y010850D03*
X008850Y011100D03*
X008850Y011600D03*
X008100Y011850D03*
X008100Y012350D03*
X004100Y012350D03*
X004100Y011850D03*
X003350Y011600D03*
X003350Y011100D03*
X004100Y010850D03*
X004100Y010350D03*
X003100Y016350D03*
X003100Y016850D03*
X003100Y017850D03*
X003100Y018350D03*
X002350Y018350D03*
X002350Y017850D03*
X007100Y017600D03*
X007100Y018100D03*
X007850Y018100D03*
X007850Y017600D03*
X009600Y020100D03*
X009600Y020600D03*
X010350Y020600D03*
X010350Y020100D03*
X013100Y018100D03*
X013100Y017600D03*
X019600Y017600D03*
X019600Y018100D03*
X026100Y018100D03*
X026100Y017600D03*
X034100Y013600D03*
X034100Y013100D03*
X024850Y023100D03*
X024850Y023600D03*
X021600Y023600D03*
X021600Y024100D03*
X020850Y024100D03*
X020850Y023600D03*
X016850Y023600D03*
X016850Y023100D03*
X014350Y026850D03*
X014350Y027350D03*
X022100Y027350D03*
X022100Y026850D03*
X024100Y026850D03*
X024100Y027350D03*
X028850Y024100D03*
X028850Y023600D03*
X029600Y023600D03*
X029600Y024100D03*
X030100Y026850D03*
X030100Y027350D03*
X032100Y027350D03*
X032100Y026850D03*
X039600Y026600D03*
X039600Y027100D03*
X040350Y027100D03*
X040350Y026600D03*
X041100Y026600D03*
X041100Y027100D03*
X044600Y027100D03*
X044600Y026600D03*
X045350Y026600D03*
X045350Y027100D03*
X046100Y027100D03*
X046100Y026600D03*
X049600Y026600D03*
X049600Y027100D03*
X050350Y027100D03*
X050350Y026600D03*
X051100Y026600D03*
X051100Y027100D03*
X054600Y027100D03*
X054600Y026600D03*
X055350Y026600D03*
X055350Y027100D03*
X056100Y027100D03*
X056100Y026600D03*
X005350Y027100D03*
X005350Y027600D03*
X004600Y027600D03*
X004600Y027100D03*
D19*
X000595Y002100D02*
X000597Y002177D01*
X000603Y002255D01*
X000613Y002332D01*
X000627Y002408D01*
X000645Y002483D01*
X000666Y002558D01*
X000692Y002631D01*
X000721Y002703D01*
X000754Y002773D01*
X000790Y002841D01*
X000830Y002908D01*
X000873Y002972D01*
X000920Y003034D01*
X000970Y003094D01*
X001022Y003150D01*
X001078Y003204D01*
X001136Y003256D01*
X001197Y003304D01*
X001260Y003349D01*
X001325Y003390D01*
X001393Y003428D01*
X001462Y003463D01*
X001533Y003494D01*
X001606Y003521D01*
X001679Y003545D01*
X001754Y003565D01*
X001830Y003581D01*
X001907Y003593D01*
X001984Y003601D01*
X002061Y003605D01*
X002139Y003605D01*
X002216Y003601D01*
X002293Y003593D01*
X002370Y003581D01*
X002446Y003565D01*
X002521Y003545D01*
X002594Y003521D01*
X002667Y003494D01*
X002738Y003463D01*
X002807Y003428D01*
X002875Y003390D01*
X002940Y003349D01*
X003003Y003304D01*
X003064Y003256D01*
X003122Y003204D01*
X003178Y003150D01*
X003230Y003094D01*
X003280Y003034D01*
X003327Y002972D01*
X003370Y002908D01*
X003410Y002841D01*
X003446Y002773D01*
X003479Y002703D01*
X003508Y002631D01*
X003534Y002558D01*
X003555Y002483D01*
X003573Y002408D01*
X003587Y002332D01*
X003597Y002255D01*
X003603Y002177D01*
X003605Y002100D01*
X003603Y002023D01*
X003597Y001945D01*
X003587Y001868D01*
X003573Y001792D01*
X003555Y001717D01*
X003534Y001642D01*
X003508Y001569D01*
X003479Y001497D01*
X003446Y001427D01*
X003410Y001359D01*
X003370Y001292D01*
X003327Y001228D01*
X003280Y001166D01*
X003230Y001106D01*
X003178Y001050D01*
X003122Y000996D01*
X003064Y000944D01*
X003003Y000896D01*
X002940Y000851D01*
X002875Y000810D01*
X002807Y000772D01*
X002738Y000737D01*
X002667Y000706D01*
X002594Y000679D01*
X002521Y000655D01*
X002446Y000635D01*
X002370Y000619D01*
X002293Y000607D01*
X002216Y000599D01*
X002139Y000595D01*
X002061Y000595D01*
X001984Y000599D01*
X001907Y000607D01*
X001830Y000619D01*
X001754Y000635D01*
X001679Y000655D01*
X001606Y000679D01*
X001533Y000706D01*
X001462Y000737D01*
X001393Y000772D01*
X001325Y000810D01*
X001260Y000851D01*
X001197Y000896D01*
X001136Y000944D01*
X001078Y000996D01*
X001022Y001050D01*
X000970Y001106D01*
X000920Y001166D01*
X000873Y001228D01*
X000830Y001292D01*
X000790Y001359D01*
X000754Y001427D01*
X000721Y001497D01*
X000692Y001569D01*
X000666Y001642D01*
X000645Y001717D01*
X000627Y001792D01*
X000613Y001868D01*
X000603Y001945D01*
X000597Y002023D01*
X000595Y002100D01*
X032641Y014831D02*
X032641Y016369D01*
X034559Y016369D01*
X034559Y014831D01*
X032641Y014831D01*
X037845Y002100D02*
X037847Y002177D01*
X037853Y002255D01*
X037863Y002332D01*
X037877Y002408D01*
X037895Y002483D01*
X037916Y002558D01*
X037942Y002631D01*
X037971Y002703D01*
X038004Y002773D01*
X038040Y002841D01*
X038080Y002908D01*
X038123Y002972D01*
X038170Y003034D01*
X038220Y003094D01*
X038272Y003150D01*
X038328Y003204D01*
X038386Y003256D01*
X038447Y003304D01*
X038510Y003349D01*
X038575Y003390D01*
X038643Y003428D01*
X038712Y003463D01*
X038783Y003494D01*
X038856Y003521D01*
X038929Y003545D01*
X039004Y003565D01*
X039080Y003581D01*
X039157Y003593D01*
X039234Y003601D01*
X039311Y003605D01*
X039389Y003605D01*
X039466Y003601D01*
X039543Y003593D01*
X039620Y003581D01*
X039696Y003565D01*
X039771Y003545D01*
X039844Y003521D01*
X039917Y003494D01*
X039988Y003463D01*
X040057Y003428D01*
X040125Y003390D01*
X040190Y003349D01*
X040253Y003304D01*
X040314Y003256D01*
X040372Y003204D01*
X040428Y003150D01*
X040480Y003094D01*
X040530Y003034D01*
X040577Y002972D01*
X040620Y002908D01*
X040660Y002841D01*
X040696Y002773D01*
X040729Y002703D01*
X040758Y002631D01*
X040784Y002558D01*
X040805Y002483D01*
X040823Y002408D01*
X040837Y002332D01*
X040847Y002255D01*
X040853Y002177D01*
X040855Y002100D01*
X040853Y002023D01*
X040847Y001945D01*
X040837Y001868D01*
X040823Y001792D01*
X040805Y001717D01*
X040784Y001642D01*
X040758Y001569D01*
X040729Y001497D01*
X040696Y001427D01*
X040660Y001359D01*
X040620Y001292D01*
X040577Y001228D01*
X040530Y001166D01*
X040480Y001106D01*
X040428Y001050D01*
X040372Y000996D01*
X040314Y000944D01*
X040253Y000896D01*
X040190Y000851D01*
X040125Y000810D01*
X040057Y000772D01*
X039988Y000737D01*
X039917Y000706D01*
X039844Y000679D01*
X039771Y000655D01*
X039696Y000635D01*
X039620Y000619D01*
X039543Y000607D01*
X039466Y000599D01*
X039389Y000595D01*
X039311Y000595D01*
X039234Y000599D01*
X039157Y000607D01*
X039080Y000619D01*
X039004Y000635D01*
X038929Y000655D01*
X038856Y000679D01*
X038783Y000706D01*
X038712Y000737D01*
X038643Y000772D01*
X038575Y000810D01*
X038510Y000851D01*
X038447Y000896D01*
X038386Y000944D01*
X038328Y000996D01*
X038272Y001050D01*
X038220Y001106D01*
X038170Y001166D01*
X038123Y001228D01*
X038080Y001292D01*
X038040Y001359D01*
X038004Y001427D01*
X037971Y001497D01*
X037942Y001569D01*
X037916Y001642D01*
X037895Y001717D01*
X037877Y001792D01*
X037863Y001868D01*
X037853Y001945D01*
X037847Y002023D01*
X037845Y002100D01*
X066595Y002100D02*
X066597Y002177D01*
X066603Y002255D01*
X066613Y002332D01*
X066627Y002408D01*
X066645Y002483D01*
X066666Y002558D01*
X066692Y002631D01*
X066721Y002703D01*
X066754Y002773D01*
X066790Y002841D01*
X066830Y002908D01*
X066873Y002972D01*
X066920Y003034D01*
X066970Y003094D01*
X067022Y003150D01*
X067078Y003204D01*
X067136Y003256D01*
X067197Y003304D01*
X067260Y003349D01*
X067325Y003390D01*
X067393Y003428D01*
X067462Y003463D01*
X067533Y003494D01*
X067606Y003521D01*
X067679Y003545D01*
X067754Y003565D01*
X067830Y003581D01*
X067907Y003593D01*
X067984Y003601D01*
X068061Y003605D01*
X068139Y003605D01*
X068216Y003601D01*
X068293Y003593D01*
X068370Y003581D01*
X068446Y003565D01*
X068521Y003545D01*
X068594Y003521D01*
X068667Y003494D01*
X068738Y003463D01*
X068807Y003428D01*
X068875Y003390D01*
X068940Y003349D01*
X069003Y003304D01*
X069064Y003256D01*
X069122Y003204D01*
X069178Y003150D01*
X069230Y003094D01*
X069280Y003034D01*
X069327Y002972D01*
X069370Y002908D01*
X069410Y002841D01*
X069446Y002773D01*
X069479Y002703D01*
X069508Y002631D01*
X069534Y002558D01*
X069555Y002483D01*
X069573Y002408D01*
X069587Y002332D01*
X069597Y002255D01*
X069603Y002177D01*
X069605Y002100D01*
X069603Y002023D01*
X069597Y001945D01*
X069587Y001868D01*
X069573Y001792D01*
X069555Y001717D01*
X069534Y001642D01*
X069508Y001569D01*
X069479Y001497D01*
X069446Y001427D01*
X069410Y001359D01*
X069370Y001292D01*
X069327Y001228D01*
X069280Y001166D01*
X069230Y001106D01*
X069178Y001050D01*
X069122Y000996D01*
X069064Y000944D01*
X069003Y000896D01*
X068940Y000851D01*
X068875Y000810D01*
X068807Y000772D01*
X068738Y000737D01*
X068667Y000706D01*
X068594Y000679D01*
X068521Y000655D01*
X068446Y000635D01*
X068370Y000619D01*
X068293Y000607D01*
X068216Y000599D01*
X068139Y000595D01*
X068061Y000595D01*
X067984Y000599D01*
X067907Y000607D01*
X067830Y000619D01*
X067754Y000635D01*
X067679Y000655D01*
X067606Y000679D01*
X067533Y000706D01*
X067462Y000737D01*
X067393Y000772D01*
X067325Y000810D01*
X067260Y000851D01*
X067197Y000896D01*
X067136Y000944D01*
X067078Y000996D01*
X067022Y001050D01*
X066970Y001106D01*
X066920Y001166D01*
X066873Y001228D01*
X066830Y001292D01*
X066790Y001359D01*
X066754Y001427D01*
X066721Y001497D01*
X066692Y001569D01*
X066666Y001642D01*
X066645Y001717D01*
X066627Y001792D01*
X066613Y001868D01*
X066603Y001945D01*
X066597Y002023D01*
X066595Y002100D01*
X056595Y031100D02*
X056597Y031177D01*
X056603Y031255D01*
X056613Y031332D01*
X056627Y031408D01*
X056645Y031483D01*
X056666Y031558D01*
X056692Y031631D01*
X056721Y031703D01*
X056754Y031773D01*
X056790Y031841D01*
X056830Y031908D01*
X056873Y031972D01*
X056920Y032034D01*
X056970Y032094D01*
X057022Y032150D01*
X057078Y032204D01*
X057136Y032256D01*
X057197Y032304D01*
X057260Y032349D01*
X057325Y032390D01*
X057393Y032428D01*
X057462Y032463D01*
X057533Y032494D01*
X057606Y032521D01*
X057679Y032545D01*
X057754Y032565D01*
X057830Y032581D01*
X057907Y032593D01*
X057984Y032601D01*
X058061Y032605D01*
X058139Y032605D01*
X058216Y032601D01*
X058293Y032593D01*
X058370Y032581D01*
X058446Y032565D01*
X058521Y032545D01*
X058594Y032521D01*
X058667Y032494D01*
X058738Y032463D01*
X058807Y032428D01*
X058875Y032390D01*
X058940Y032349D01*
X059003Y032304D01*
X059064Y032256D01*
X059122Y032204D01*
X059178Y032150D01*
X059230Y032094D01*
X059280Y032034D01*
X059327Y031972D01*
X059370Y031908D01*
X059410Y031841D01*
X059446Y031773D01*
X059479Y031703D01*
X059508Y031631D01*
X059534Y031558D01*
X059555Y031483D01*
X059573Y031408D01*
X059587Y031332D01*
X059597Y031255D01*
X059603Y031177D01*
X059605Y031100D01*
X059603Y031023D01*
X059597Y030945D01*
X059587Y030868D01*
X059573Y030792D01*
X059555Y030717D01*
X059534Y030642D01*
X059508Y030569D01*
X059479Y030497D01*
X059446Y030427D01*
X059410Y030359D01*
X059370Y030292D01*
X059327Y030228D01*
X059280Y030166D01*
X059230Y030106D01*
X059178Y030050D01*
X059122Y029996D01*
X059064Y029944D01*
X059003Y029896D01*
X058940Y029851D01*
X058875Y029810D01*
X058807Y029772D01*
X058738Y029737D01*
X058667Y029706D01*
X058594Y029679D01*
X058521Y029655D01*
X058446Y029635D01*
X058370Y029619D01*
X058293Y029607D01*
X058216Y029599D01*
X058139Y029595D01*
X058061Y029595D01*
X057984Y029599D01*
X057907Y029607D01*
X057830Y029619D01*
X057754Y029635D01*
X057679Y029655D01*
X057606Y029679D01*
X057533Y029706D01*
X057462Y029737D01*
X057393Y029772D01*
X057325Y029810D01*
X057260Y029851D01*
X057197Y029896D01*
X057136Y029944D01*
X057078Y029996D01*
X057022Y030050D01*
X056970Y030106D01*
X056920Y030166D01*
X056873Y030228D01*
X056830Y030292D01*
X056790Y030359D01*
X056754Y030427D01*
X056721Y030497D01*
X056692Y030569D01*
X056666Y030642D01*
X056645Y030717D01*
X056627Y030792D01*
X056613Y030868D01*
X056603Y030945D01*
X056597Y031023D01*
X056595Y031100D01*
X066595Y042350D02*
X066597Y042427D01*
X066603Y042505D01*
X066613Y042582D01*
X066627Y042658D01*
X066645Y042733D01*
X066666Y042808D01*
X066692Y042881D01*
X066721Y042953D01*
X066754Y043023D01*
X066790Y043091D01*
X066830Y043158D01*
X066873Y043222D01*
X066920Y043284D01*
X066970Y043344D01*
X067022Y043400D01*
X067078Y043454D01*
X067136Y043506D01*
X067197Y043554D01*
X067260Y043599D01*
X067325Y043640D01*
X067393Y043678D01*
X067462Y043713D01*
X067533Y043744D01*
X067606Y043771D01*
X067679Y043795D01*
X067754Y043815D01*
X067830Y043831D01*
X067907Y043843D01*
X067984Y043851D01*
X068061Y043855D01*
X068139Y043855D01*
X068216Y043851D01*
X068293Y043843D01*
X068370Y043831D01*
X068446Y043815D01*
X068521Y043795D01*
X068594Y043771D01*
X068667Y043744D01*
X068738Y043713D01*
X068807Y043678D01*
X068875Y043640D01*
X068940Y043599D01*
X069003Y043554D01*
X069064Y043506D01*
X069122Y043454D01*
X069178Y043400D01*
X069230Y043344D01*
X069280Y043284D01*
X069327Y043222D01*
X069370Y043158D01*
X069410Y043091D01*
X069446Y043023D01*
X069479Y042953D01*
X069508Y042881D01*
X069534Y042808D01*
X069555Y042733D01*
X069573Y042658D01*
X069587Y042582D01*
X069597Y042505D01*
X069603Y042427D01*
X069605Y042350D01*
X069603Y042273D01*
X069597Y042195D01*
X069587Y042118D01*
X069573Y042042D01*
X069555Y041967D01*
X069534Y041892D01*
X069508Y041819D01*
X069479Y041747D01*
X069446Y041677D01*
X069410Y041609D01*
X069370Y041542D01*
X069327Y041478D01*
X069280Y041416D01*
X069230Y041356D01*
X069178Y041300D01*
X069122Y041246D01*
X069064Y041194D01*
X069003Y041146D01*
X068940Y041101D01*
X068875Y041060D01*
X068807Y041022D01*
X068738Y040987D01*
X068667Y040956D01*
X068594Y040929D01*
X068521Y040905D01*
X068446Y040885D01*
X068370Y040869D01*
X068293Y040857D01*
X068216Y040849D01*
X068139Y040845D01*
X068061Y040845D01*
X067984Y040849D01*
X067907Y040857D01*
X067830Y040869D01*
X067754Y040885D01*
X067679Y040905D01*
X067606Y040929D01*
X067533Y040956D01*
X067462Y040987D01*
X067393Y041022D01*
X067325Y041060D01*
X067260Y041101D01*
X067197Y041146D01*
X067136Y041194D01*
X067078Y041246D01*
X067022Y041300D01*
X066970Y041356D01*
X066920Y041416D01*
X066873Y041478D01*
X066830Y041542D01*
X066790Y041609D01*
X066754Y041677D01*
X066721Y041747D01*
X066692Y041819D01*
X066666Y041892D01*
X066645Y041967D01*
X066627Y042042D01*
X066613Y042118D01*
X066603Y042195D01*
X066597Y042273D01*
X066595Y042350D01*
X037845Y042350D02*
X037847Y042427D01*
X037853Y042505D01*
X037863Y042582D01*
X037877Y042658D01*
X037895Y042733D01*
X037916Y042808D01*
X037942Y042881D01*
X037971Y042953D01*
X038004Y043023D01*
X038040Y043091D01*
X038080Y043158D01*
X038123Y043222D01*
X038170Y043284D01*
X038220Y043344D01*
X038272Y043400D01*
X038328Y043454D01*
X038386Y043506D01*
X038447Y043554D01*
X038510Y043599D01*
X038575Y043640D01*
X038643Y043678D01*
X038712Y043713D01*
X038783Y043744D01*
X038856Y043771D01*
X038929Y043795D01*
X039004Y043815D01*
X039080Y043831D01*
X039157Y043843D01*
X039234Y043851D01*
X039311Y043855D01*
X039389Y043855D01*
X039466Y043851D01*
X039543Y043843D01*
X039620Y043831D01*
X039696Y043815D01*
X039771Y043795D01*
X039844Y043771D01*
X039917Y043744D01*
X039988Y043713D01*
X040057Y043678D01*
X040125Y043640D01*
X040190Y043599D01*
X040253Y043554D01*
X040314Y043506D01*
X040372Y043454D01*
X040428Y043400D01*
X040480Y043344D01*
X040530Y043284D01*
X040577Y043222D01*
X040620Y043158D01*
X040660Y043091D01*
X040696Y043023D01*
X040729Y042953D01*
X040758Y042881D01*
X040784Y042808D01*
X040805Y042733D01*
X040823Y042658D01*
X040837Y042582D01*
X040847Y042505D01*
X040853Y042427D01*
X040855Y042350D01*
X040853Y042273D01*
X040847Y042195D01*
X040837Y042118D01*
X040823Y042042D01*
X040805Y041967D01*
X040784Y041892D01*
X040758Y041819D01*
X040729Y041747D01*
X040696Y041677D01*
X040660Y041609D01*
X040620Y041542D01*
X040577Y041478D01*
X040530Y041416D01*
X040480Y041356D01*
X040428Y041300D01*
X040372Y041246D01*
X040314Y041194D01*
X040253Y041146D01*
X040190Y041101D01*
X040125Y041060D01*
X040057Y041022D01*
X039988Y040987D01*
X039917Y040956D01*
X039844Y040929D01*
X039771Y040905D01*
X039696Y040885D01*
X039620Y040869D01*
X039543Y040857D01*
X039466Y040849D01*
X039389Y040845D01*
X039311Y040845D01*
X039234Y040849D01*
X039157Y040857D01*
X039080Y040869D01*
X039004Y040885D01*
X038929Y040905D01*
X038856Y040929D01*
X038783Y040956D01*
X038712Y040987D01*
X038643Y041022D01*
X038575Y041060D01*
X038510Y041101D01*
X038447Y041146D01*
X038386Y041194D01*
X038328Y041246D01*
X038272Y041300D01*
X038220Y041356D01*
X038170Y041416D01*
X038123Y041478D01*
X038080Y041542D01*
X038040Y041609D01*
X038004Y041677D01*
X037971Y041747D01*
X037942Y041819D01*
X037916Y041892D01*
X037895Y041967D01*
X037877Y042042D01*
X037863Y042118D01*
X037853Y042195D01*
X037847Y042273D01*
X037845Y042350D01*
X033595Y031100D02*
X033597Y031177D01*
X033603Y031255D01*
X033613Y031332D01*
X033627Y031408D01*
X033645Y031483D01*
X033666Y031558D01*
X033692Y031631D01*
X033721Y031703D01*
X033754Y031773D01*
X033790Y031841D01*
X033830Y031908D01*
X033873Y031972D01*
X033920Y032034D01*
X033970Y032094D01*
X034022Y032150D01*
X034078Y032204D01*
X034136Y032256D01*
X034197Y032304D01*
X034260Y032349D01*
X034325Y032390D01*
X034393Y032428D01*
X034462Y032463D01*
X034533Y032494D01*
X034606Y032521D01*
X034679Y032545D01*
X034754Y032565D01*
X034830Y032581D01*
X034907Y032593D01*
X034984Y032601D01*
X035061Y032605D01*
X035139Y032605D01*
X035216Y032601D01*
X035293Y032593D01*
X035370Y032581D01*
X035446Y032565D01*
X035521Y032545D01*
X035594Y032521D01*
X035667Y032494D01*
X035738Y032463D01*
X035807Y032428D01*
X035875Y032390D01*
X035940Y032349D01*
X036003Y032304D01*
X036064Y032256D01*
X036122Y032204D01*
X036178Y032150D01*
X036230Y032094D01*
X036280Y032034D01*
X036327Y031972D01*
X036370Y031908D01*
X036410Y031841D01*
X036446Y031773D01*
X036479Y031703D01*
X036508Y031631D01*
X036534Y031558D01*
X036555Y031483D01*
X036573Y031408D01*
X036587Y031332D01*
X036597Y031255D01*
X036603Y031177D01*
X036605Y031100D01*
X036603Y031023D01*
X036597Y030945D01*
X036587Y030868D01*
X036573Y030792D01*
X036555Y030717D01*
X036534Y030642D01*
X036508Y030569D01*
X036479Y030497D01*
X036446Y030427D01*
X036410Y030359D01*
X036370Y030292D01*
X036327Y030228D01*
X036280Y030166D01*
X036230Y030106D01*
X036178Y030050D01*
X036122Y029996D01*
X036064Y029944D01*
X036003Y029896D01*
X035940Y029851D01*
X035875Y029810D01*
X035807Y029772D01*
X035738Y029737D01*
X035667Y029706D01*
X035594Y029679D01*
X035521Y029655D01*
X035446Y029635D01*
X035370Y029619D01*
X035293Y029607D01*
X035216Y029599D01*
X035139Y029595D01*
X035061Y029595D01*
X034984Y029599D01*
X034907Y029607D01*
X034830Y029619D01*
X034754Y029635D01*
X034679Y029655D01*
X034606Y029679D01*
X034533Y029706D01*
X034462Y029737D01*
X034393Y029772D01*
X034325Y029810D01*
X034260Y029851D01*
X034197Y029896D01*
X034136Y029944D01*
X034078Y029996D01*
X034022Y030050D01*
X033970Y030106D01*
X033920Y030166D01*
X033873Y030228D01*
X033830Y030292D01*
X033790Y030359D01*
X033754Y030427D01*
X033721Y030497D01*
X033692Y030569D01*
X033666Y030642D01*
X033645Y030717D01*
X033627Y030792D01*
X033613Y030868D01*
X033603Y030945D01*
X033597Y031023D01*
X033595Y031100D01*
X000595Y026600D02*
X000597Y026677D01*
X000603Y026755D01*
X000613Y026832D01*
X000627Y026908D01*
X000645Y026983D01*
X000666Y027058D01*
X000692Y027131D01*
X000721Y027203D01*
X000754Y027273D01*
X000790Y027341D01*
X000830Y027408D01*
X000873Y027472D01*
X000920Y027534D01*
X000970Y027594D01*
X001022Y027650D01*
X001078Y027704D01*
X001136Y027756D01*
X001197Y027804D01*
X001260Y027849D01*
X001325Y027890D01*
X001393Y027928D01*
X001462Y027963D01*
X001533Y027994D01*
X001606Y028021D01*
X001679Y028045D01*
X001754Y028065D01*
X001830Y028081D01*
X001907Y028093D01*
X001984Y028101D01*
X002061Y028105D01*
X002139Y028105D01*
X002216Y028101D01*
X002293Y028093D01*
X002370Y028081D01*
X002446Y028065D01*
X002521Y028045D01*
X002594Y028021D01*
X002667Y027994D01*
X002738Y027963D01*
X002807Y027928D01*
X002875Y027890D01*
X002940Y027849D01*
X003003Y027804D01*
X003064Y027756D01*
X003122Y027704D01*
X003178Y027650D01*
X003230Y027594D01*
X003280Y027534D01*
X003327Y027472D01*
X003370Y027408D01*
X003410Y027341D01*
X003446Y027273D01*
X003479Y027203D01*
X003508Y027131D01*
X003534Y027058D01*
X003555Y026983D01*
X003573Y026908D01*
X003587Y026832D01*
X003597Y026755D01*
X003603Y026677D01*
X003605Y026600D01*
X003603Y026523D01*
X003597Y026445D01*
X003587Y026368D01*
X003573Y026292D01*
X003555Y026217D01*
X003534Y026142D01*
X003508Y026069D01*
X003479Y025997D01*
X003446Y025927D01*
X003410Y025859D01*
X003370Y025792D01*
X003327Y025728D01*
X003280Y025666D01*
X003230Y025606D01*
X003178Y025550D01*
X003122Y025496D01*
X003064Y025444D01*
X003003Y025396D01*
X002940Y025351D01*
X002875Y025310D01*
X002807Y025272D01*
X002738Y025237D01*
X002667Y025206D01*
X002594Y025179D01*
X002521Y025155D01*
X002446Y025135D01*
X002370Y025119D01*
X002293Y025107D01*
X002216Y025099D01*
X002139Y025095D01*
X002061Y025095D01*
X001984Y025099D01*
X001907Y025107D01*
X001830Y025119D01*
X001754Y025135D01*
X001679Y025155D01*
X001606Y025179D01*
X001533Y025206D01*
X001462Y025237D01*
X001393Y025272D01*
X001325Y025310D01*
X001260Y025351D01*
X001197Y025396D01*
X001136Y025444D01*
X001078Y025496D01*
X001022Y025550D01*
X000970Y025606D01*
X000920Y025666D01*
X000873Y025728D01*
X000830Y025792D01*
X000790Y025859D01*
X000754Y025927D01*
X000721Y025997D01*
X000692Y026069D01*
X000666Y026142D01*
X000645Y026217D01*
X000627Y026292D01*
X000613Y026368D01*
X000603Y026445D01*
X000597Y026523D01*
X000595Y026600D01*
X000595Y042350D02*
X000597Y042427D01*
X000603Y042505D01*
X000613Y042582D01*
X000627Y042658D01*
X000645Y042733D01*
X000666Y042808D01*
X000692Y042881D01*
X000721Y042953D01*
X000754Y043023D01*
X000790Y043091D01*
X000830Y043158D01*
X000873Y043222D01*
X000920Y043284D01*
X000970Y043344D01*
X001022Y043400D01*
X001078Y043454D01*
X001136Y043506D01*
X001197Y043554D01*
X001260Y043599D01*
X001325Y043640D01*
X001393Y043678D01*
X001462Y043713D01*
X001533Y043744D01*
X001606Y043771D01*
X001679Y043795D01*
X001754Y043815D01*
X001830Y043831D01*
X001907Y043843D01*
X001984Y043851D01*
X002061Y043855D01*
X002139Y043855D01*
X002216Y043851D01*
X002293Y043843D01*
X002370Y043831D01*
X002446Y043815D01*
X002521Y043795D01*
X002594Y043771D01*
X002667Y043744D01*
X002738Y043713D01*
X002807Y043678D01*
X002875Y043640D01*
X002940Y043599D01*
X003003Y043554D01*
X003064Y043506D01*
X003122Y043454D01*
X003178Y043400D01*
X003230Y043344D01*
X003280Y043284D01*
X003327Y043222D01*
X003370Y043158D01*
X003410Y043091D01*
X003446Y043023D01*
X003479Y042953D01*
X003508Y042881D01*
X003534Y042808D01*
X003555Y042733D01*
X003573Y042658D01*
X003587Y042582D01*
X003597Y042505D01*
X003603Y042427D01*
X003605Y042350D01*
X003603Y042273D01*
X003597Y042195D01*
X003587Y042118D01*
X003573Y042042D01*
X003555Y041967D01*
X003534Y041892D01*
X003508Y041819D01*
X003479Y041747D01*
X003446Y041677D01*
X003410Y041609D01*
X003370Y041542D01*
X003327Y041478D01*
X003280Y041416D01*
X003230Y041356D01*
X003178Y041300D01*
X003122Y041246D01*
X003064Y041194D01*
X003003Y041146D01*
X002940Y041101D01*
X002875Y041060D01*
X002807Y041022D01*
X002738Y040987D01*
X002667Y040956D01*
X002594Y040929D01*
X002521Y040905D01*
X002446Y040885D01*
X002370Y040869D01*
X002293Y040857D01*
X002216Y040849D01*
X002139Y040845D01*
X002061Y040845D01*
X001984Y040849D01*
X001907Y040857D01*
X001830Y040869D01*
X001754Y040885D01*
X001679Y040905D01*
X001606Y040929D01*
X001533Y040956D01*
X001462Y040987D01*
X001393Y041022D01*
X001325Y041060D01*
X001260Y041101D01*
X001197Y041146D01*
X001136Y041194D01*
X001078Y041246D01*
X001022Y041300D01*
X000970Y041356D01*
X000920Y041416D01*
X000873Y041478D01*
X000830Y041542D01*
X000790Y041609D01*
X000754Y041677D01*
X000721Y041747D01*
X000692Y041819D01*
X000666Y041892D01*
X000645Y041967D01*
X000627Y042042D01*
X000613Y042118D01*
X000603Y042195D01*
X000597Y042273D01*
X000595Y042350D01*
D20*
X032814Y015195D03*
D21*
X032704Y014536D03*
X032960Y014536D03*
X033216Y014536D03*
X033472Y014536D03*
X033728Y014536D03*
X033984Y014536D03*
X034240Y014536D03*
X034496Y014536D03*
X034496Y016664D03*
X034240Y016664D03*
X033984Y016664D03*
X033728Y016664D03*
X033472Y016664D03*
X033216Y016664D03*
X032960Y016664D03*
X032704Y016664D03*
D22*
X032600Y017600D03*
X033100Y017600D03*
X035350Y016600D03*
X035850Y016600D03*
X035850Y015850D03*
X035350Y015850D03*
X040350Y015600D03*
X040850Y015600D03*
X029350Y017350D03*
X028850Y017350D03*
X027850Y017350D03*
X027350Y017350D03*
X027350Y019350D03*
X027850Y019350D03*
X027100Y022350D03*
X026600Y022350D03*
X026600Y025350D03*
X027100Y025350D03*
X019100Y025350D03*
X018600Y025350D03*
X018600Y022350D03*
X019100Y022350D03*
X020850Y019350D03*
X021350Y019350D03*
X021350Y017350D03*
X020850Y017350D03*
X022350Y017350D03*
X022850Y017350D03*
X024600Y014600D03*
X025100Y014600D03*
X027100Y014350D03*
X027600Y014350D03*
X028600Y014350D03*
X029100Y014350D03*
X022600Y014350D03*
X022100Y014350D03*
X021100Y014350D03*
X020600Y014350D03*
X018600Y014600D03*
X018100Y014600D03*
X016350Y017350D03*
X015850Y017350D03*
X014850Y017350D03*
X014350Y017350D03*
X014350Y019350D03*
X014850Y019350D03*
X012100Y014600D03*
X011600Y014600D03*
X007725Y016725D03*
X007225Y016725D03*
X005350Y019100D03*
X004850Y019100D03*
X002850Y020350D03*
X002350Y020350D03*
X007100Y020350D03*
X007600Y020350D03*
X006350Y009850D03*
X005850Y009850D03*
X039850Y005100D03*
X040350Y005100D03*
X042850Y006350D03*
X043350Y006350D03*
X047350Y003600D03*
X047850Y003600D03*
X061350Y003600D03*
X061850Y003600D03*
X066100Y005350D03*
X066600Y005350D03*
X054850Y015600D03*
X054350Y015600D03*
X064350Y021350D03*
X064850Y021350D03*
X064850Y027100D03*
X065350Y027100D03*
X061350Y037100D03*
X060850Y037100D03*
X060850Y037850D03*
X061350Y037850D03*
X061100Y038600D03*
X060600Y038600D03*
X060850Y039350D03*
X061350Y039350D03*
X061350Y040100D03*
X060850Y040100D03*
X065350Y039725D03*
X065850Y039725D03*
X065850Y038975D03*
X065350Y038975D03*
X065350Y038225D03*
X065850Y038225D03*
X065850Y037475D03*
X065350Y037475D03*
X004350Y037600D03*
X003850Y037600D03*
X003850Y036850D03*
X004350Y036850D03*
X004350Y036100D03*
X003850Y036100D03*
X003850Y038350D03*
X004350Y038350D03*
D23*
X008350Y027401D03*
X008350Y027126D03*
X008350Y026299D03*
X009600Y026299D03*
X009600Y027126D03*
X009600Y027401D03*
X016600Y025651D03*
X016600Y024824D03*
X016600Y024549D03*
X024600Y024549D03*
X024600Y024824D03*
X024600Y025651D03*
X035100Y013401D03*
X035100Y013126D03*
X035100Y012299D03*
D24*
X035100Y013797D03*
X024600Y024153D03*
X016600Y024153D03*
X009600Y027797D03*
X008350Y027797D03*
D25*
X020299Y025350D03*
X020574Y025350D03*
X021401Y025350D03*
X021151Y022100D03*
X020876Y022100D03*
X020049Y022100D03*
X020549Y018350D03*
X020824Y018350D03*
X021651Y018350D03*
X027049Y018350D03*
X027324Y018350D03*
X028151Y018350D03*
X032299Y018600D03*
X033126Y018600D03*
X033401Y018600D03*
X029151Y022100D03*
X028876Y022100D03*
X028049Y022100D03*
X028299Y025350D03*
X028574Y025350D03*
X029401Y025350D03*
X015151Y018350D03*
X014324Y018350D03*
X014049Y018350D03*
X007901Y019350D03*
X007626Y019350D03*
X006799Y019350D03*
X003151Y019350D03*
X002876Y019350D03*
X002049Y019350D03*
X003299Y015350D03*
X004126Y015350D03*
X004401Y015350D03*
X005799Y015350D03*
X006074Y015350D03*
X006901Y015350D03*
X064049Y020350D03*
X064876Y020350D03*
X065151Y020350D03*
X065799Y004350D03*
X066626Y004350D03*
X066901Y004350D03*
D26*
X067297Y004350D03*
X065547Y020350D03*
X033797Y018600D03*
X029547Y022100D03*
X027903Y025350D03*
X021547Y022100D03*
X019903Y025350D03*
X020153Y018350D03*
X013653Y018350D03*
X008297Y019350D03*
X003547Y019350D03*
X004797Y015350D03*
X005403Y015350D03*
X026653Y018350D03*
D27*
X027600Y011100D03*
X028600Y011100D03*
X028600Y010100D03*
X027600Y010100D03*
X029600Y010100D03*
X029600Y011100D03*
X028600Y006850D03*
X027600Y006850D03*
X026600Y006850D03*
X025600Y006850D03*
X024600Y006850D03*
X023600Y006850D03*
X022600Y006850D03*
X021600Y006850D03*
X020600Y006850D03*
X019600Y006850D03*
X018600Y006850D03*
X017600Y006850D03*
X016600Y006850D03*
X015600Y006850D03*
X014600Y006850D03*
X013600Y006850D03*
X012600Y006850D03*
X011600Y006850D03*
X010600Y006850D03*
X009600Y006850D03*
X009600Y023600D03*
X008600Y023600D03*
X008600Y024600D03*
X009600Y024600D03*
X007600Y024600D03*
X006600Y024600D03*
X006600Y023600D03*
X007600Y023600D03*
X005600Y023600D03*
X004600Y023600D03*
X004600Y024600D03*
X005600Y024600D03*
X067350Y019600D03*
X067350Y018600D03*
X068350Y018600D03*
X068350Y019600D03*
X068350Y017600D03*
X068350Y016600D03*
X068350Y015600D03*
X068350Y014600D03*
X068350Y013600D03*
X067350Y013600D03*
X067350Y014600D03*
X067350Y015600D03*
X067350Y016600D03*
X067350Y017600D03*
X067350Y012600D03*
X067350Y011600D03*
X067350Y010600D03*
X067350Y009600D03*
X068350Y009600D03*
X068350Y010600D03*
X068350Y011600D03*
X068350Y012600D03*
X068350Y008600D03*
X068350Y007600D03*
X068350Y006600D03*
X067350Y006600D03*
X067350Y007600D03*
X067350Y008600D03*
D28*
X065069Y029131D02*
X061131Y029131D01*
X061131Y033069D01*
X065069Y033069D01*
X065069Y029131D01*
X033069Y005069D02*
X029131Y005069D01*
X029131Y001131D01*
X033069Y001131D01*
X033069Y005069D01*
X025069Y005069D02*
X025069Y001131D01*
X021131Y001131D01*
X021131Y005069D01*
X025069Y005069D01*
X017069Y005069D02*
X017069Y001131D01*
X013131Y001131D01*
X013131Y005069D01*
X017069Y005069D01*
X009069Y005069D02*
X009069Y001131D01*
X005131Y001131D01*
X005131Y005069D01*
X009069Y005069D01*
D29*
X063725Y027336D03*
D30*
X063646Y027390D03*
D31*
X063627Y027253D03*
D32*
X063607Y027272D03*
D33*
X063681Y026864D03*
D34*
X063607Y026883D03*
D35*
X063533Y027100D03*
D36*
X062588Y027100D03*
D37*
X063321Y027371D03*
X063321Y026829D03*
D38*
X063169Y027100D03*
D39*
X066850Y020100D02*
X066850Y019100D01*
X067850Y019100D01*
X067850Y020100D01*
X068850Y020100D01*
X068850Y006100D01*
X066850Y006100D01*
X066850Y019100D01*
X066850Y020100D02*
X067850Y020100D01*
X030100Y011600D02*
X030100Y009600D01*
X028100Y009600D01*
X028100Y010600D01*
X027100Y010600D01*
X027100Y011600D01*
X030100Y011600D01*
X028100Y009600D02*
X027100Y009600D01*
X027100Y010600D01*
X010100Y023100D02*
X010100Y025100D01*
X004100Y025100D01*
X004100Y024100D01*
X005100Y024100D01*
X005100Y023100D01*
X010100Y023100D01*
X005100Y023100D02*
X004100Y023100D01*
X004100Y024100D01*
D40*
X035205Y014850D03*
X035995Y014480D03*
X035995Y015220D03*
X039955Y024980D03*
X039955Y025720D03*
X040745Y025350D03*
X044955Y024980D03*
X044955Y025720D03*
X045745Y025350D03*
X049955Y024980D03*
X049955Y025720D03*
X050745Y025350D03*
X054955Y024980D03*
X054955Y025720D03*
X055745Y025350D03*
D41*
X027350Y016600D03*
X020850Y016600D03*
X014350Y016600D03*
X040325Y005850D03*
D42*
X041104Y005850D03*
X041104Y006350D03*
X041104Y006850D03*
X041104Y007350D03*
X041104Y007850D03*
X041104Y008350D03*
X041104Y008850D03*
X039096Y008850D03*
X039096Y008350D03*
X039096Y007850D03*
X039096Y007350D03*
X039096Y006850D03*
X039096Y006350D03*
X039096Y005850D03*
X028604Y015100D03*
X028604Y015600D03*
X028604Y016100D03*
X028604Y016600D03*
X026596Y016600D03*
X026596Y016100D03*
X026596Y015600D03*
X026596Y015100D03*
X022104Y015100D03*
X022104Y015600D03*
X022104Y016100D03*
X022104Y016600D03*
X020096Y016600D03*
X020096Y016100D03*
X020096Y015600D03*
X020096Y015100D03*
X015604Y015100D03*
X015604Y015600D03*
X015604Y016100D03*
X015604Y016600D03*
X013596Y016600D03*
X013596Y016100D03*
X013596Y015600D03*
X013596Y015100D03*
X007104Y012100D03*
X007104Y011600D03*
X007104Y011100D03*
X007104Y010600D03*
X005096Y010600D03*
X005096Y011100D03*
X005096Y011600D03*
X005096Y012100D03*
X004096Y016850D03*
X004096Y017350D03*
X004096Y017850D03*
X004096Y018350D03*
X006104Y018350D03*
X006104Y017850D03*
X006104Y017350D03*
X006104Y016850D03*
X017846Y023100D03*
X017846Y023600D03*
X017846Y024100D03*
X017846Y024600D03*
X019854Y024600D03*
X019854Y024100D03*
X019854Y023600D03*
X019854Y023100D03*
X025846Y023100D03*
X025846Y023600D03*
X025846Y024100D03*
X025846Y024600D03*
X027854Y024600D03*
X027854Y024100D03*
X027854Y023600D03*
X027854Y023100D03*
D43*
X062277Y037832D03*
X062277Y038088D03*
X062277Y038344D03*
X062277Y038600D03*
X062277Y038856D03*
X062277Y039112D03*
X062277Y039368D03*
X064423Y039368D03*
X064423Y039112D03*
X064423Y038856D03*
X064423Y038600D03*
X064423Y038344D03*
X064423Y038088D03*
X064423Y037832D03*
D44*
X066600Y032620D03*
X066600Y031580D03*
D45*
X031657Y027395D03*
X031293Y027395D03*
X030907Y027395D03*
X030543Y027395D03*
X030543Y026805D03*
X031293Y026805D03*
X023657Y027395D03*
X023293Y027395D03*
X022907Y027395D03*
X022543Y027395D03*
X022543Y026805D03*
X023293Y026805D03*
X015282Y027395D03*
X014918Y027395D03*
X014918Y026805D03*
D46*
X015002Y026854D03*
X015198Y026854D03*
X015198Y027346D03*
X015002Y027346D03*
X022627Y027346D03*
X022823Y027346D03*
X022823Y026854D03*
X022627Y026854D03*
X023377Y026854D03*
X023573Y026854D03*
X023573Y027346D03*
X023377Y027346D03*
X030627Y027346D03*
X030823Y027346D03*
X030823Y026854D03*
X030627Y026854D03*
X031377Y026854D03*
X031573Y026854D03*
X031573Y027346D03*
X031377Y027346D03*
D47*
X031475Y027331D03*
X031475Y026869D03*
X030725Y026869D03*
X030725Y027331D03*
X023475Y027331D03*
X023475Y026869D03*
X022725Y026869D03*
X022725Y027331D03*
X015100Y027331D03*
X015100Y026869D03*
D48*
X015100Y027061D03*
X022725Y027061D03*
X023475Y027061D03*
X030725Y027061D03*
X031475Y027061D03*
X025311Y016100D03*
X018811Y016100D03*
X012311Y016100D03*
D49*
X012094Y015923D03*
X018594Y015923D03*
X025094Y015923D03*
X023652Y026844D03*
X022902Y026844D03*
X015277Y026844D03*
X030902Y026844D03*
X031652Y026844D03*
D50*
X031657Y026721D03*
X030907Y026721D03*
X023657Y026721D03*
X022907Y026721D03*
X015282Y026721D03*
D51*
X017819Y015340D03*
X018881Y015340D03*
X024319Y015340D03*
X025381Y015340D03*
X012381Y015340D03*
X011319Y015340D03*
D52*
X011693Y015350D03*
X018193Y015350D03*
X024693Y015350D03*
D53*
X025055Y016282D03*
X025645Y016282D03*
X025645Y015918D03*
X019145Y015918D03*
X019145Y016282D03*
X018555Y016282D03*
X012645Y016282D03*
X012645Y015918D03*
X012055Y016282D03*
D54*
X012104Y016198D03*
X012104Y016002D03*
X012596Y016002D03*
X012596Y016198D03*
X018604Y016198D03*
X018604Y016002D03*
X019096Y016002D03*
X019096Y016198D03*
X025104Y016198D03*
X025104Y016002D03*
X025596Y016002D03*
X025596Y016198D03*
D55*
X025581Y016100D03*
X025119Y016100D03*
X019081Y016100D03*
X018619Y016100D03*
X012581Y016100D03*
X012119Y016100D03*
D56*
X011971Y015918D03*
X018471Y015918D03*
X024971Y015918D03*
M02*
