G75*
G70*
%OFA0B0*%
%FSLAX24Y24*%
%IPPOS*%
%LPD*%
%AMOC8*
5,1,8,0,0,1.08239X$1,22.5*
%
%ADD10R,0.0315X0.0354*%
%ADD11R,0.0354X0.0315*%
%ADD12R,0.0551X0.0709*%
%ADD13R,0.0709X0.0551*%
%ADD14R,0.0551X0.0748*%
%ADD15R,0.1102X0.1496*%
%ADD16R,0.1496X0.1102*%
%ADD17R,0.0748X0.0551*%
%ADD18R,0.0787X0.0945*%
D10*
X022175Y015068D03*
X022175Y015668D03*
X022925Y015668D03*
X022925Y015068D03*
X023675Y015818D03*
X023675Y016418D03*
X022925Y016568D03*
X022925Y017168D03*
X022175Y017168D03*
X022175Y016568D03*
X030050Y018318D03*
X030050Y018918D03*
X030050Y020318D03*
X030050Y020918D03*
X032675Y018543D03*
X032675Y017943D03*
X033425Y017943D03*
X033425Y018543D03*
X034300Y020068D03*
X034300Y020668D03*
X041675Y024068D03*
X041675Y024668D03*
X043175Y024668D03*
X043175Y024068D03*
X043925Y024068D03*
X043925Y024668D03*
X045425Y024668D03*
X045425Y024068D03*
X046175Y024068D03*
X046175Y024668D03*
X039675Y026068D03*
X039675Y026668D03*
X038925Y026668D03*
X038925Y026068D03*
X038175Y026068D03*
X038175Y026668D03*
X037425Y032068D03*
X037425Y032668D03*
X036675Y032668D03*
X036675Y032068D03*
X035925Y032818D03*
X035925Y033418D03*
X036675Y033568D03*
X036675Y034168D03*
X037425Y034168D03*
X037425Y033568D03*
X032925Y033568D03*
X032925Y034168D03*
X032175Y034168D03*
X032175Y033568D03*
X031425Y033418D03*
X031425Y032818D03*
X032175Y032668D03*
X032175Y032068D03*
X032925Y032068D03*
X032925Y032668D03*
X026425Y032918D03*
X026425Y032318D03*
X025675Y032043D03*
X025675Y031443D03*
X025675Y030543D03*
X025675Y029943D03*
X024675Y031068D03*
X024675Y031668D03*
X025675Y033193D03*
X025675Y033793D03*
X025675Y034693D03*
X025675Y035293D03*
X024675Y034168D03*
X024675Y033568D03*
X022925Y024168D03*
X022925Y023568D03*
X022175Y023568D03*
X022175Y024168D03*
X023675Y023418D03*
X023675Y022818D03*
X022925Y022668D03*
X022925Y022068D03*
X022175Y022068D03*
X022175Y022668D03*
X040425Y014168D03*
X040425Y013568D03*
X041175Y013568D03*
X041175Y014168D03*
X041925Y016568D03*
X041925Y017168D03*
X042675Y017168D03*
X042675Y016568D03*
X043425Y016568D03*
X043425Y017168D03*
X044175Y017168D03*
X044175Y016568D03*
X044925Y016568D03*
X044925Y017168D03*
X045425Y013168D03*
X045425Y012568D03*
X047050Y012568D03*
X047050Y013168D03*
X048800Y013168D03*
X048800Y012568D03*
X047675Y008543D03*
X047675Y007943D03*
X046050Y007943D03*
X046050Y008543D03*
X044300Y008543D03*
X044300Y007943D03*
X043550Y007943D03*
X043550Y008543D03*
X051800Y008543D03*
X051800Y007943D03*
X058175Y021568D03*
X058175Y022168D03*
X058925Y022168D03*
X058925Y021568D03*
X060425Y021568D03*
X060425Y022168D03*
X061175Y022168D03*
X061175Y021568D03*
X061175Y025193D03*
X061175Y025793D03*
X061175Y027068D03*
X061175Y027668D03*
X060425Y027668D03*
X060425Y027068D03*
X059675Y027068D03*
X059675Y027668D03*
X058175Y027668D03*
X058175Y027068D03*
X057425Y027068D03*
X057425Y027668D03*
X056425Y029818D03*
X056425Y030418D03*
X055675Y030418D03*
X055675Y029818D03*
X062425Y029418D03*
X062425Y028818D03*
X063175Y028818D03*
X063175Y029418D03*
X069425Y027168D03*
X069425Y026568D03*
X058425Y039818D03*
X058425Y040418D03*
X057675Y040418D03*
X057675Y039818D03*
X071675Y040568D03*
X071675Y041168D03*
D11*
X074125Y041368D03*
X074725Y041368D03*
X074725Y042118D03*
X074125Y042118D03*
X074125Y042868D03*
X074725Y042868D03*
X070475Y042618D03*
X069875Y042618D03*
X069875Y037618D03*
X070475Y037618D03*
X068975Y037618D03*
X068375Y037618D03*
X056475Y036868D03*
X055875Y036868D03*
X054975Y034618D03*
X054375Y034618D03*
X062625Y027368D03*
X063225Y027368D03*
X063225Y026618D03*
X062625Y026618D03*
X062625Y025868D03*
X063225Y025868D03*
X063225Y025118D03*
X062625Y025118D03*
X062625Y022618D03*
X063225Y022618D03*
X063225Y021868D03*
X062625Y021868D03*
X057725Y023618D03*
X057125Y023618D03*
X057125Y024368D03*
X057725Y024368D03*
X057725Y025118D03*
X057125Y025118D03*
X057125Y025868D03*
X057725Y025868D03*
X054725Y022618D03*
X054125Y022618D03*
X054125Y021868D03*
X054725Y021868D03*
X054725Y021118D03*
X054125Y021118D03*
X054125Y020368D03*
X054725Y020368D03*
X059125Y018118D03*
X059725Y018118D03*
X060625Y018118D03*
X061225Y018118D03*
X068375Y020118D03*
X068975Y020118D03*
X047725Y020368D03*
X047125Y020368D03*
X047125Y021493D03*
X047725Y021493D03*
X047725Y022243D03*
X047125Y022243D03*
X047125Y019618D03*
X047725Y019618D03*
X047725Y018868D03*
X047125Y018868D03*
X040225Y019118D03*
X039625Y019118D03*
X039625Y019868D03*
X040225Y019868D03*
X040225Y020618D03*
X039625Y020618D03*
X039625Y023993D03*
X040225Y023993D03*
X040225Y024743D03*
X039625Y024743D03*
X031600Y021743D03*
X031000Y021743D03*
X030875Y017493D03*
X031475Y017493D03*
X035250Y017743D03*
X035850Y017743D03*
X035850Y017118D03*
X035250Y017118D03*
X034725Y009868D03*
X034125Y009868D03*
X013975Y022368D03*
X013375Y022368D03*
X013100Y023118D03*
X012500Y023118D03*
X011600Y023118D03*
X011000Y023118D03*
X012125Y024118D03*
X012725Y024118D03*
X014625Y024118D03*
X015225Y024118D03*
X014850Y023118D03*
X014250Y023118D03*
X015750Y023118D03*
X016350Y023118D03*
X052375Y043868D03*
X052975Y043868D03*
X052975Y044618D03*
X052375Y044618D03*
D12*
X062925Y034618D03*
X063925Y034618D03*
X060425Y028868D03*
X059425Y028868D03*
X062675Y024243D03*
X063675Y024243D03*
X060925Y019493D03*
X059925Y019493D03*
D13*
X056300Y020618D03*
X056300Y021618D03*
X048425Y027368D03*
X048425Y028368D03*
X061488Y028931D03*
X061488Y029931D03*
D14*
X062925Y033368D03*
X063925Y033368D03*
X055175Y035618D03*
X054175Y035618D03*
X059175Y037993D03*
X060175Y037993D03*
X037425Y030868D03*
X036425Y030868D03*
X032925Y030868D03*
X031925Y030868D03*
X023175Y025368D03*
X022175Y025368D03*
X022175Y018368D03*
X023175Y018368D03*
X033925Y010868D03*
X034925Y010868D03*
X046425Y017618D03*
X047425Y017618D03*
X040925Y022118D03*
X039925Y022118D03*
D15*
X064800Y039118D03*
X067550Y039118D03*
D16*
X070675Y035993D03*
X070675Y033243D03*
D17*
X047175Y028368D03*
X047175Y027368D03*
X040675Y017868D03*
X040675Y016868D03*
D18*
X054513Y032618D03*
X056087Y032618D03*
M02*
