G75*
G70*
%OFA0B0*%
%FSLAX24Y24*%
%IPPOS*%
%LPD*%
%AMOC8*
5,1,8,0,0,1.08239X$1,22.5*
%
%ADD10R,0.0600X0.0600*%
%ADD11OC8,0.0600*%
%ADD12R,0.0315X0.0354*%
%ADD13R,0.0354X0.0315*%
%ADD14C,0.0591*%
%ADD15R,0.0551X0.0748*%
%ADD16OC8,0.0562*%
%ADD17OC8,0.0797*%
%ADD18C,0.0574*%
%ADD19C,0.1306*%
%ADD20R,0.0630X0.0157*%
%ADD21R,0.1000X0.1000*%
%ADD22OC8,0.1000*%
%ADD23R,0.1102X0.1496*%
%ADD24R,0.1496X0.1102*%
%ADD25R,0.0551X0.0709*%
%ADD26OC8,0.0594*%
%ADD27C,0.0886*%
%ADD28R,0.0709X0.0551*%
%ADD29R,0.1063X0.0630*%
%ADD30R,0.0630X0.1063*%
%ADD31R,0.0551X0.0551*%
%ADD32R,0.0560X0.0560*%
%ADD33OC8,0.0560*%
%ADD34C,0.0060*%
%ADD35C,0.0310*%
%ADD36C,0.0080*%
%ADD37C,0.0436*%
%ADD38C,0.0396*%
%ADD39C,0.0240*%
%ADD40C,0.0100*%
%ADD41C,0.0160*%
D10*
X001651Y021873D03*
X038151Y043373D03*
X051901Y030623D03*
X067151Y040873D03*
X065651Y017873D03*
X045151Y001873D03*
D11*
X001651Y006873D03*
X002651Y006873D03*
X002651Y007873D03*
X001651Y007873D03*
X001651Y008873D03*
X002651Y008873D03*
X002651Y009873D03*
X001651Y009873D03*
X001651Y010873D03*
X002651Y010873D03*
X002651Y011873D03*
X001651Y011873D03*
X001651Y012873D03*
X002651Y012873D03*
X002651Y013873D03*
X001651Y013873D03*
X001651Y014873D03*
X002651Y014873D03*
X002651Y015873D03*
X001651Y015873D03*
X001651Y016873D03*
X002651Y016873D03*
X002651Y017873D03*
X001651Y017873D03*
X001651Y018873D03*
X002651Y018873D03*
X002651Y019873D03*
X001651Y019873D03*
X001651Y020873D03*
X002651Y020873D03*
X002651Y021873D03*
X038151Y036373D03*
X039151Y036373D03*
X039151Y037373D03*
X038151Y037373D03*
X038151Y038373D03*
X039151Y038373D03*
X039151Y039373D03*
X038151Y039373D03*
X038151Y040373D03*
X039151Y040373D03*
X039151Y041373D03*
X038151Y041373D03*
X038151Y042373D03*
X039151Y042373D03*
X039151Y043373D03*
X066651Y017873D03*
X066651Y016873D03*
X065651Y016873D03*
X065651Y015873D03*
X066651Y015873D03*
X066651Y014873D03*
X065651Y014873D03*
X065651Y013873D03*
X066651Y013873D03*
X066651Y012873D03*
X065651Y012873D03*
X065651Y011873D03*
X066651Y011873D03*
X066651Y010873D03*
X065651Y010873D03*
X065651Y009873D03*
X066651Y009873D03*
X066651Y008873D03*
X065651Y008873D03*
X065651Y007873D03*
X066651Y007873D03*
X066651Y006873D03*
X065651Y006873D03*
X065651Y005873D03*
X066651Y005873D03*
X066651Y004873D03*
X065651Y004873D03*
X049151Y002873D03*
X048151Y002873D03*
X047151Y002873D03*
X046151Y002873D03*
X045151Y002873D03*
X046151Y001873D03*
X047151Y001873D03*
X048151Y001873D03*
X049151Y001873D03*
D12*
X045276Y006698D03*
X045276Y007298D03*
X041151Y007298D03*
X041151Y006698D03*
X039526Y006698D03*
X039526Y007298D03*
X037776Y007298D03*
X037776Y006698D03*
X037026Y006698D03*
X037026Y007298D03*
X038901Y011323D03*
X038901Y011923D03*
X040526Y011923D03*
X040526Y011323D03*
X042276Y011323D03*
X042276Y011923D03*
X038401Y015323D03*
X038401Y015923D03*
X037651Y015923D03*
X037651Y015323D03*
X036901Y015323D03*
X036901Y015923D03*
X036151Y015923D03*
X036151Y015323D03*
X035401Y015323D03*
X035401Y015923D03*
X035151Y022823D03*
X035151Y023423D03*
X036651Y023423D03*
X037401Y023423D03*
X037401Y022823D03*
X036651Y022823D03*
X038901Y022823D03*
X039651Y022823D03*
X039651Y023423D03*
X038901Y023423D03*
X033151Y024823D03*
X032401Y024823D03*
X031651Y024823D03*
X031651Y025423D03*
X032401Y025423D03*
X033151Y025423D03*
X023526Y021048D03*
X023526Y020448D03*
X049151Y028573D03*
X049151Y029173D03*
X049901Y029173D03*
X049901Y028573D03*
X050901Y026423D03*
X051651Y026423D03*
X052401Y026423D03*
X053151Y026423D03*
X053901Y026423D03*
X054651Y026423D03*
X055401Y026423D03*
X055401Y025823D03*
X054651Y025823D03*
X053901Y025823D03*
X053151Y025823D03*
X052401Y025823D03*
X051651Y025823D03*
X050901Y025823D03*
X054651Y024548D03*
X054651Y023948D03*
X054651Y020923D03*
X054651Y020323D03*
X053901Y020323D03*
X053901Y020923D03*
X052401Y020923D03*
X052401Y020323D03*
X051651Y020323D03*
X051651Y020923D03*
X050901Y020923D03*
X050901Y020323D03*
X053776Y012673D03*
X053776Y012073D03*
X055276Y012073D03*
X055276Y012673D03*
X056526Y012673D03*
X056526Y012073D03*
X058276Y012073D03*
X058276Y012673D03*
X060026Y012673D03*
X060026Y012073D03*
X062026Y012073D03*
X062026Y012673D03*
X056651Y028573D03*
X056651Y029173D03*
X055901Y029173D03*
X055901Y028573D03*
X049901Y031573D03*
X049901Y032173D03*
X049151Y032173D03*
X049151Y031573D03*
D13*
X048951Y035123D03*
X048351Y035123D03*
X048351Y036373D03*
X048951Y036373D03*
X048951Y037123D03*
X048351Y037123D03*
X048351Y037873D03*
X048951Y037873D03*
X062851Y036873D03*
X063451Y036873D03*
X064851Y036873D03*
X065451Y036873D03*
X065601Y027623D03*
X066201Y027623D03*
X066201Y026873D03*
X065601Y026873D03*
X065601Y024873D03*
X066201Y024873D03*
X059701Y023998D03*
X059101Y023998D03*
X059101Y022623D03*
X059701Y022623D03*
X059701Y021873D03*
X059101Y021873D03*
X056701Y021373D03*
X056101Y021373D03*
X056101Y020623D03*
X056701Y020623D03*
X056701Y023123D03*
X056101Y023123D03*
X056101Y023873D03*
X056701Y023873D03*
X056701Y024623D03*
X056101Y024623D03*
X056101Y025373D03*
X056701Y025373D03*
X056701Y026123D03*
X056101Y026123D03*
X051201Y024623D03*
X050601Y024623D03*
X050601Y023873D03*
X051201Y023873D03*
X051201Y023123D03*
X050601Y023123D03*
X050601Y022373D03*
X051201Y022373D03*
X048201Y021373D03*
X047601Y021373D03*
X047601Y020623D03*
X048201Y020623D03*
X048201Y019873D03*
X047601Y019873D03*
X047601Y019123D03*
X048201Y019123D03*
X052601Y016873D03*
X053201Y016873D03*
X054101Y016873D03*
X054701Y016873D03*
X053951Y018123D03*
X053351Y018123D03*
X041201Y018373D03*
X040601Y018373D03*
X040601Y017623D03*
X041201Y017623D03*
X041201Y019873D03*
X040601Y019873D03*
X033701Y019373D03*
X033101Y019373D03*
X033101Y018623D03*
X033701Y018623D03*
X033701Y017873D03*
X033101Y017873D03*
X029951Y018123D03*
X029351Y018123D03*
X029351Y017248D03*
X029951Y017248D03*
X029951Y019123D03*
X029351Y019123D03*
X025576Y021998D03*
X024976Y021998D03*
X027226Y023123D03*
X027826Y023123D03*
X027826Y023873D03*
X027226Y023873D03*
X029601Y023998D03*
X030201Y023998D03*
X030201Y024748D03*
X029601Y024748D03*
X029601Y025498D03*
X030201Y025498D03*
X030201Y026248D03*
X029601Y026248D03*
X029601Y023248D03*
X030201Y023248D03*
X030201Y022498D03*
X029601Y022498D03*
X033101Y022748D03*
X033701Y022748D03*
X016451Y032248D03*
X015851Y032248D03*
X065601Y019873D03*
X066201Y019873D03*
X066201Y019123D03*
X065601Y019123D03*
D14*
X053651Y024123D03*
D15*
X049151Y034123D03*
X048151Y034123D03*
D16*
X047151Y039373D03*
X047151Y040160D03*
X047151Y040948D03*
X047151Y041735D03*
D17*
X046080Y042129D03*
X048222Y042129D03*
X048222Y039373D03*
X046080Y039373D03*
D18*
X052159Y039945D02*
X052159Y040519D01*
X052159Y041306D02*
X052159Y041880D01*
X053143Y041880D02*
X053143Y041306D01*
X053143Y040519D02*
X053143Y039945D01*
D19*
X055013Y042373D03*
X050289Y042373D03*
D20*
X060506Y027467D03*
X060506Y027152D03*
X060506Y026837D03*
X060506Y026523D03*
X060506Y026208D03*
X060506Y025893D03*
X060506Y025578D03*
X060506Y025263D03*
X060506Y024948D03*
X060506Y024633D03*
X060506Y024318D03*
X060506Y024003D03*
X060506Y023688D03*
X060506Y023373D03*
X060506Y023058D03*
X060506Y022743D03*
X060506Y022428D03*
X060506Y022113D03*
X060506Y021798D03*
X060506Y021483D03*
X060506Y021168D03*
X060506Y020853D03*
X060506Y020538D03*
X060506Y020223D03*
X060506Y019908D03*
X060506Y019593D03*
X060506Y019278D03*
X064797Y019278D03*
X064797Y019593D03*
X064797Y019908D03*
X064797Y020223D03*
X064797Y020538D03*
X064797Y020853D03*
X064797Y021168D03*
X064797Y021483D03*
X064797Y021798D03*
X064797Y022113D03*
X064797Y022428D03*
X064797Y022743D03*
X064797Y023058D03*
X064797Y023373D03*
X064797Y023688D03*
X064797Y024003D03*
X064797Y024318D03*
X064797Y024633D03*
X064797Y024948D03*
X064797Y025263D03*
X064797Y025578D03*
X064797Y025893D03*
X064797Y026208D03*
X064797Y026523D03*
X064797Y026837D03*
X064797Y027152D03*
X064797Y027467D03*
D21*
X059651Y040873D03*
D22*
X057651Y041998D03*
X059651Y043248D03*
X043084Y042428D03*
X042297Y043373D03*
X043084Y040263D03*
D23*
X058276Y038373D03*
X061026Y038373D03*
D24*
X064151Y034748D03*
X064151Y031998D03*
D25*
X057401Y032123D03*
X056401Y032123D03*
X056401Y033373D03*
X057401Y033373D03*
D26*
X063659Y038889D03*
X063659Y039873D03*
X063659Y040857D03*
X064643Y040857D03*
X064643Y039873D03*
X064643Y038889D03*
D27*
X035805Y038503D03*
X035805Y041003D03*
X035805Y043503D03*
X031305Y043503D03*
X028805Y043503D03*
X028805Y041003D03*
X031305Y041003D03*
X031305Y038503D03*
X028805Y038503D03*
X024305Y038503D03*
X021805Y038503D03*
X021805Y041003D03*
X024305Y041003D03*
X024305Y043503D03*
X021805Y043503D03*
X017305Y043503D03*
X014805Y043503D03*
X014805Y041003D03*
X017305Y041003D03*
X017305Y038503D03*
X014805Y038503D03*
X010305Y038503D03*
X007805Y038503D03*
X007805Y041003D03*
X010305Y041003D03*
X010305Y043503D03*
X007805Y043503D03*
X003305Y043503D03*
X003305Y041003D03*
X003305Y038503D03*
D28*
X040651Y027123D03*
X041901Y027123D03*
X041901Y026123D03*
X040651Y026123D03*
D29*
X034151Y016773D03*
X034151Y015473D03*
D30*
X039751Y016373D03*
X041051Y016373D03*
X034551Y020873D03*
X033251Y020873D03*
D31*
X066401Y038373D03*
X066401Y039873D03*
D32*
X034151Y001873D03*
D33*
X034151Y002873D03*
X035151Y002873D03*
X036151Y002873D03*
X036151Y001873D03*
X035151Y001873D03*
X037151Y001873D03*
X038151Y001873D03*
X039151Y001873D03*
X039151Y002873D03*
X038151Y002873D03*
X037151Y002873D03*
X040151Y002873D03*
X040151Y001873D03*
D34*
X040151Y002873D02*
X039151Y003873D01*
X036401Y003873D01*
X036526Y008748D02*
X038026Y008748D01*
X039901Y010623D01*
X039901Y011998D01*
X039026Y012873D01*
X039026Y013123D01*
X038776Y013248D02*
X038776Y012748D01*
X039651Y011873D01*
X039651Y010748D01*
X037901Y008998D01*
X036901Y008998D01*
X036526Y009248D02*
X037526Y009248D01*
X038401Y010123D01*
X038401Y012623D01*
X038526Y012748D01*
X038526Y013123D01*
X038276Y013248D02*
X038276Y012748D01*
X038151Y012623D01*
X038151Y010248D01*
X037401Y009498D01*
X036901Y009498D01*
X036526Y009748D02*
X037276Y009748D01*
X037901Y010373D01*
X037901Y012748D01*
X038026Y012873D01*
X038026Y013123D01*
X038276Y013248D02*
X037651Y013873D01*
X037651Y014873D01*
X038026Y014873D02*
X038026Y013998D01*
X038776Y013248D01*
X037651Y013123D02*
X037651Y010498D01*
X037151Y009998D01*
X036901Y009998D01*
X037026Y010248D02*
X037401Y010623D01*
X037401Y013248D01*
X036901Y013748D01*
X036901Y014873D01*
X037151Y013123D02*
X037151Y010748D01*
X036901Y010498D01*
X037026Y010248D02*
X036526Y010248D01*
X041026Y012748D02*
X041276Y012498D01*
X041276Y008623D01*
X043276Y006623D01*
X043026Y007873D02*
X041526Y009373D01*
X041526Y012873D01*
X041401Y012998D01*
X042026Y012498D02*
X042026Y014623D01*
X041776Y013998D02*
X041776Y010873D01*
X042276Y010873D02*
X042276Y011323D01*
X042276Y011923D02*
X042276Y012123D01*
X043026Y012873D01*
X043026Y021873D01*
X042776Y022123D01*
X042401Y021873D02*
X042401Y022873D01*
X042651Y023123D01*
X044151Y023123D01*
X044651Y023623D01*
X044651Y024123D01*
X044901Y024248D02*
X045026Y024373D01*
X045026Y025123D01*
X044276Y025123D01*
X043526Y024373D01*
X043526Y023873D02*
X042526Y023873D01*
X040901Y022248D01*
X040526Y022248D01*
X040901Y021998D02*
X042526Y023623D01*
X043901Y023623D01*
X044026Y023373D02*
X044276Y023623D01*
X044276Y023873D01*
X044026Y023373D02*
X042526Y023373D01*
X042151Y022998D01*
X042151Y021873D01*
X042026Y021748D01*
X041276Y021748D01*
X041651Y021498D02*
X042026Y021498D01*
X042401Y021873D01*
X043276Y022873D02*
X043276Y010998D01*
X043026Y010748D01*
X043526Y010748D02*
X043526Y020498D01*
X043776Y020873D02*
X043776Y010248D01*
X044026Y009873D02*
X044026Y021123D01*
X044276Y021498D02*
X044276Y009498D01*
X045026Y009623D02*
X045026Y016498D01*
X045276Y015748D02*
X045276Y008998D01*
X045526Y008373D02*
X045526Y014998D01*
X044776Y017248D02*
X044776Y010248D01*
X044526Y010748D02*
X044526Y018873D01*
X048201Y019123D02*
X048901Y019823D01*
X048901Y019873D01*
X048526Y019873D02*
X048901Y020248D01*
X048526Y019873D02*
X048201Y019873D01*
X048901Y020998D02*
X048651Y021248D01*
X048651Y022123D01*
X047651Y023123D01*
X047651Y032123D01*
X046901Y032873D01*
X043901Y032873D01*
X043651Y033123D01*
X043901Y034123D02*
X043901Y037123D01*
X044401Y037123D02*
X044401Y034123D01*
X045151Y033373D01*
X046901Y033373D01*
X048151Y032123D01*
X048151Y023123D01*
X049401Y021873D01*
X050151Y021873D01*
X049901Y021123D02*
X047901Y023123D01*
X047901Y032123D01*
X046901Y033123D01*
X044901Y033123D01*
X043901Y034123D01*
X051901Y030623D02*
X053151Y029373D01*
X053151Y028123D01*
X053026Y027123D02*
X052776Y026873D01*
X053026Y027123D02*
X053901Y027123D01*
X055026Y028248D01*
X055026Y029623D01*
X058026Y027623D02*
X058526Y028123D01*
X061776Y028123D01*
X062651Y027248D01*
X062651Y017623D01*
X062401Y017373D01*
X060651Y017373D01*
X059901Y017623D02*
X061651Y017623D01*
X062401Y018373D01*
X062401Y026998D01*
X061526Y027873D01*
X059276Y027873D01*
X058526Y027123D01*
X058276Y027373D02*
X058901Y027998D01*
X061651Y027998D01*
X062526Y027123D01*
X062526Y017998D01*
X062151Y017623D01*
X061651Y017873D02*
X062276Y018498D01*
X062276Y026873D01*
X061401Y027748D01*
X059776Y027748D01*
X058401Y026373D01*
X058401Y024748D01*
X058776Y024748D02*
X057526Y023498D01*
X057151Y023498D01*
X057151Y023123D02*
X057526Y023123D01*
X059151Y024748D01*
X059386Y025013D02*
X059151Y025248D01*
X059151Y026623D01*
X059276Y026248D02*
X059276Y025498D01*
X059526Y025248D01*
X059386Y025013D02*
X059666Y025013D01*
X059901Y025248D01*
X060506Y025263D01*
X060506Y025578D02*
X061106Y025578D01*
X061151Y025623D01*
X061151Y026123D02*
X061067Y026208D01*
X060506Y026208D01*
X060506Y026523D02*
X060176Y026523D01*
X059526Y025873D01*
X059276Y026248D02*
X060181Y027152D01*
X060506Y027152D01*
X062901Y028748D02*
X062901Y017873D01*
X063401Y017873D02*
X065651Y017873D01*
X066151Y017373D02*
X066651Y017873D01*
X066151Y017373D02*
X063401Y017373D01*
X062651Y016623D01*
X058401Y016623D01*
X057276Y017748D01*
X057276Y018998D01*
X058401Y020248D01*
X058901Y020373D02*
X058901Y020623D01*
X058901Y020373D02*
X057526Y018998D01*
X057526Y017748D01*
X058401Y016873D01*
X062401Y016873D01*
X063401Y017873D01*
X063401Y016873D02*
X065651Y016873D01*
X066151Y016373D02*
X066651Y016873D01*
X066151Y016373D02*
X063401Y016373D01*
X063151Y016123D01*
X058401Y016123D01*
X056151Y018373D01*
X056151Y019873D01*
X055776Y019873D02*
X055776Y018498D01*
X058401Y015873D01*
X065651Y015873D01*
X065151Y015623D02*
X065401Y015373D01*
X066151Y015373D01*
X066651Y015873D01*
X066651Y014873D02*
X066151Y014373D01*
X065401Y014373D01*
X064651Y015123D01*
X058401Y015123D01*
X054651Y018873D01*
X054651Y019873D01*
X055026Y019873D02*
X055026Y018748D01*
X058401Y015373D01*
X065151Y015373D01*
X065651Y014873D01*
X064901Y014623D02*
X065651Y013873D01*
X065401Y013373D02*
X066151Y013373D01*
X066651Y013873D01*
X065401Y013373D02*
X064401Y014373D01*
X051651Y014373D01*
X050901Y015123D01*
X050901Y016873D01*
X051651Y017623D01*
X051901Y017623D01*
X052151Y017873D01*
X052151Y017998D01*
X051901Y018248D02*
X050651Y016998D01*
X050651Y015123D01*
X051651Y014123D01*
X064401Y014123D01*
X065651Y012873D01*
X065401Y012373D02*
X066151Y012373D01*
X066651Y012873D01*
X065401Y012373D02*
X063901Y013873D01*
X051651Y013873D01*
X050401Y015123D01*
X050401Y017123D01*
X051276Y017998D01*
X051276Y018248D01*
X050901Y018248D02*
X050151Y017498D01*
X050151Y015123D01*
X051651Y013623D01*
X063901Y013623D01*
X065651Y011873D01*
X065401Y011373D02*
X066151Y011373D01*
X066651Y011873D01*
X065401Y011373D02*
X063401Y013373D01*
X051651Y013373D01*
X049901Y015123D01*
X049901Y017623D01*
X050526Y018248D01*
X050526Y018623D01*
X049776Y018373D02*
X051276Y019873D01*
X050901Y019873D02*
X049401Y018373D01*
X051151Y016873D02*
X051151Y015123D01*
X051651Y014623D01*
X064901Y014623D01*
X065151Y015623D02*
X058401Y015623D01*
X055401Y018623D01*
X055401Y019873D01*
X056526Y019873D02*
X056526Y018248D01*
X058401Y016373D01*
X062901Y016373D01*
X063401Y016873D01*
X061651Y017873D02*
X059651Y017873D01*
X058776Y018998D02*
X060002Y020223D01*
X060506Y020223D01*
X060506Y019908D02*
X060062Y019908D01*
X059276Y019123D01*
X059776Y019248D02*
X060122Y019593D01*
X060506Y019593D01*
X061151Y018748D02*
X061526Y019123D01*
X061526Y020998D01*
X061041Y021483D01*
X060506Y021483D01*
X060506Y021168D02*
X060071Y021168D01*
X057776Y018873D01*
X057776Y017873D01*
X058151Y018248D02*
X058151Y018998D01*
X060006Y020853D01*
X060506Y020853D01*
X060506Y020538D02*
X059942Y020538D01*
X058401Y018998D01*
X058401Y018748D01*
X055901Y017123D02*
X055214Y017810D01*
X054776Y017810D01*
X052401Y017748D02*
X052026Y017373D01*
X051651Y017373D01*
X051151Y016873D01*
X050651Y013873D02*
X050651Y012873D01*
X050901Y012623D01*
X050901Y008373D01*
X047151Y004623D01*
X047151Y004123D01*
X047651Y004623D02*
X051151Y008123D01*
X051151Y012873D01*
X050901Y013123D01*
X050901Y013373D01*
X051401Y013123D02*
X051401Y007873D01*
X046651Y003123D01*
X046651Y002373D01*
X046151Y001873D01*
X045651Y001373D02*
X045151Y001873D01*
X045651Y001373D02*
X047401Y001373D01*
X047651Y001623D01*
X047651Y003623D01*
X051651Y007623D01*
X051651Y012873D01*
X051901Y012623D02*
X052151Y012873D01*
X051901Y012623D02*
X051901Y007373D01*
X049151Y004623D01*
X049151Y003623D01*
X055651Y008373D02*
X055651Y009123D01*
X055901Y009373D01*
X055901Y012123D01*
X056476Y012123D01*
X056526Y012073D01*
X056526Y012673D02*
X058276Y012673D01*
X059151Y012673D01*
X059151Y012123D01*
X059151Y012673D02*
X060026Y012673D01*
X062026Y012673D01*
X061976Y012123D02*
X061401Y012123D01*
X061976Y012123D02*
X062026Y012073D01*
X060651Y012123D02*
X060076Y012123D01*
X060026Y012073D01*
X059401Y011448D01*
X059401Y007873D01*
X056651Y007373D02*
X056651Y011123D01*
X057651Y012123D01*
X058226Y012123D01*
X058276Y012073D01*
X056526Y012673D02*
X055276Y012673D01*
X053776Y012673D01*
X053826Y012123D02*
X053776Y012073D01*
X053826Y012123D02*
X054151Y012123D01*
X054401Y011873D01*
X054576Y011373D02*
X053901Y011373D01*
X054576Y011373D02*
X055276Y012073D01*
X055226Y012123D01*
X054901Y012123D01*
X054651Y012373D01*
X063401Y008623D02*
X063401Y006373D01*
X063901Y006373D02*
X064901Y007373D01*
X064901Y007873D01*
X065401Y008373D01*
X065901Y008373D01*
X066151Y008623D01*
X066151Y010373D01*
X066651Y010873D01*
X065651Y010873D02*
X063401Y008623D01*
X063901Y008123D02*
X065651Y009873D01*
X063901Y008123D02*
X063901Y006873D01*
X061964Y018560D02*
X061964Y020748D01*
X060914Y021798D01*
X060506Y021798D01*
X060506Y022113D02*
X059941Y022113D01*
X059701Y021873D01*
X059101Y021873D02*
X059101Y021548D01*
X059276Y021373D01*
X060506Y022113D02*
X061036Y022113D01*
X061151Y021998D01*
X061151Y022373D02*
X061096Y022428D01*
X060506Y022428D01*
X059896Y022428D01*
X059701Y022623D01*
X059151Y022623D02*
X059151Y023123D01*
X059151Y022623D02*
X059101Y022623D01*
X058401Y022873D02*
X057401Y022873D01*
X056401Y021873D01*
X056026Y021873D01*
X056026Y022123D02*
X056276Y022123D01*
X056776Y022623D01*
X060506Y022743D02*
X060901Y022748D01*
X061146Y022993D01*
X061146Y023243D01*
X061151Y023248D01*
X061091Y023688D02*
X061776Y024373D01*
X061401Y024373D02*
X061346Y024318D01*
X060506Y024318D01*
X060515Y024623D02*
X060506Y024633D01*
X060515Y024623D02*
X061151Y024623D01*
X061091Y023688D02*
X060506Y023688D01*
X063776Y023998D02*
X064086Y023688D01*
X064797Y023688D01*
X064797Y024318D02*
X064331Y024318D01*
X064151Y024498D01*
X064391Y024633D02*
X064151Y024873D01*
X064151Y025123D01*
X064386Y025263D02*
X064151Y025498D01*
X064446Y025578D02*
X064151Y025873D01*
X064317Y026208D02*
X064151Y026373D01*
X064317Y026208D02*
X064797Y026208D01*
X064797Y026523D02*
X064377Y026523D01*
X064151Y026748D01*
X064151Y027123D02*
X064247Y027152D01*
X064797Y027152D01*
X064797Y025578D02*
X064446Y025578D01*
X064386Y025263D02*
X064797Y025263D01*
X064797Y024633D02*
X064391Y024633D01*
X064336Y023058D02*
X063401Y022123D01*
X063401Y020873D01*
X063651Y021123D02*
X063651Y021623D01*
X064141Y022113D01*
X064797Y022113D01*
X064797Y021798D02*
X064201Y021798D01*
X064151Y021748D01*
X064386Y021483D02*
X063776Y020873D01*
X063776Y019373D01*
X063276Y018873D01*
X063901Y019123D02*
X063901Y020748D01*
X064321Y021168D01*
X064797Y021168D01*
X064797Y020853D02*
X065131Y020853D01*
X065401Y021123D01*
X065401Y021998D01*
X065401Y022373D02*
X065346Y022428D01*
X064797Y022428D01*
X064797Y022743D02*
X065531Y022743D01*
X065776Y022498D01*
X065776Y021998D01*
X064797Y021483D02*
X064386Y021483D01*
X064151Y020623D02*
X064236Y020538D01*
X064797Y020538D01*
X064772Y020248D02*
X064151Y020248D01*
X064187Y019908D02*
X064797Y019908D01*
X064797Y019593D02*
X064247Y019593D01*
X064151Y019498D01*
X064151Y019873D02*
X064187Y019908D01*
X064772Y020248D02*
X064797Y020223D01*
X064797Y023058D02*
X064336Y023058D01*
X065151Y029623D02*
X065651Y030123D01*
X065651Y034873D01*
X066401Y035623D01*
X066401Y038373D01*
X066151Y037623D02*
X065401Y038373D01*
X065401Y038873D01*
X064901Y039373D01*
X064159Y039373D01*
X063659Y039873D01*
X066151Y037623D02*
X066151Y035873D01*
X065401Y035123D01*
X065401Y030373D01*
X065151Y030123D01*
X050401Y026873D02*
X050401Y025498D01*
X050151Y025248D01*
X050151Y025623D02*
X050151Y026623D01*
X049151Y027623D01*
X049651Y027623D02*
X050401Y026873D01*
X046651Y024623D02*
X046651Y023373D01*
X046151Y023373D02*
X046151Y024623D01*
X044901Y024248D02*
X044901Y023373D01*
X049901Y021123D02*
X050401Y021123D01*
X034151Y022748D02*
X033701Y022748D01*
X033401Y022498D02*
X033401Y022248D01*
X033401Y022498D02*
X033151Y022748D01*
X033101Y022748D01*
X031526Y023248D02*
X031526Y021623D01*
X030276Y020373D01*
X028151Y020373D01*
X028026Y019873D02*
X027651Y019498D01*
X027651Y018373D01*
X027901Y018123D01*
X028151Y019123D02*
X029351Y019123D01*
X029951Y019123D02*
X029951Y018123D01*
X029951Y018073D01*
X030401Y017623D01*
X030401Y017248D02*
X029951Y017248D01*
X029351Y017848D01*
X029351Y018123D01*
X029351Y017248D02*
X028901Y017248D01*
X030151Y016123D02*
X027401Y016123D01*
X027401Y015623D02*
X030151Y015623D01*
X031276Y016748D01*
X031276Y018373D01*
X031026Y018498D02*
X031276Y018748D01*
X031026Y018498D02*
X031026Y016748D01*
X030151Y015873D01*
X026901Y015873D01*
X030151Y016123D02*
X030776Y016748D01*
X030776Y018873D01*
X029901Y019873D02*
X028026Y019873D01*
X029276Y020748D02*
X029401Y020623D01*
X029776Y020623D01*
X029526Y020998D02*
X029526Y021748D01*
X028901Y022373D01*
X028901Y024123D01*
X029526Y024748D01*
X029601Y024748D01*
X030201Y024748D02*
X030201Y025498D01*
X030651Y025498D01*
X030201Y026248D02*
X030201Y026298D01*
X031026Y027123D01*
X031901Y027123D01*
X029601Y026248D02*
X029601Y026198D01*
X028401Y024998D01*
X028401Y022873D01*
X028401Y022872D01*
X028651Y022248D02*
X029276Y021623D01*
X029276Y020748D01*
X030151Y021623D02*
X029901Y021873D01*
X029901Y023748D01*
X029651Y023998D01*
X029601Y023998D01*
X030201Y023998D02*
X030201Y024748D01*
X029601Y025448D02*
X028651Y024498D01*
X028651Y022248D01*
X029601Y022498D02*
X029601Y023248D01*
X029151Y023248D01*
X030201Y023248D02*
X031526Y023248D01*
X030651Y022248D02*
X030401Y022498D01*
X030201Y022498D01*
X030151Y021623D02*
X030526Y021623D01*
X030651Y021498D01*
X031026Y021498D01*
X029601Y025448D02*
X029601Y025498D01*
X020151Y031998D02*
X020151Y032748D01*
X019651Y032748D02*
X018901Y033498D01*
X017526Y033498D01*
X017526Y032373D02*
X016451Y032248D01*
X015851Y032248D02*
X015851Y031948D01*
X015776Y031873D01*
X015776Y031498D01*
X014776Y031998D02*
X012901Y031998D01*
X012276Y032748D02*
X015276Y032748D01*
X015401Y032873D01*
X018151Y031248D02*
X019401Y031248D01*
X020151Y031998D01*
X019151Y031623D02*
X019151Y032748D01*
D35*
X019151Y032748D03*
X019651Y032748D03*
X020151Y032748D03*
X019651Y031998D03*
X019151Y031623D03*
X018151Y031248D03*
X017526Y032373D03*
X018151Y032748D03*
X017526Y033498D03*
X018026Y034248D03*
X019151Y034623D03*
X017151Y035623D03*
X015401Y032873D03*
X014776Y031998D03*
X015776Y031498D03*
X012901Y031998D03*
X012151Y031248D03*
X012276Y032748D03*
X012776Y033498D03*
X011901Y038373D03*
X030651Y025498D03*
X031151Y025623D03*
X031901Y027123D03*
X032901Y027123D03*
X033901Y025373D03*
X035276Y025123D03*
X036651Y025873D03*
X037651Y024998D03*
X036651Y023873D03*
X035526Y023873D03*
X034151Y022748D03*
X033401Y022248D03*
X032651Y022248D03*
X032651Y021373D03*
X031526Y021248D03*
X031026Y021498D03*
X030651Y022248D03*
X030151Y021623D03*
X029526Y020998D03*
X029776Y020623D03*
X029901Y019873D03*
X030776Y018873D03*
X031276Y018748D03*
X031590Y018559D03*
X031276Y018373D03*
X030401Y017623D03*
X030401Y017248D03*
X028901Y017248D03*
X027901Y017373D03*
X027901Y018123D03*
X028151Y019123D03*
X027901Y019373D03*
X028151Y020373D03*
X028151Y020873D03*
X028151Y022373D03*
X028401Y022873D03*
X029151Y023248D03*
X028151Y024373D03*
X027526Y024373D03*
X026651Y023373D03*
X025526Y021373D03*
X025026Y021373D03*
X022901Y020998D03*
X022901Y020498D03*
X021901Y021873D03*
X020651Y022873D03*
X019401Y023373D03*
X021276Y024498D03*
X021901Y023873D03*
X025026Y017373D03*
X026901Y015873D03*
X027401Y016123D03*
X027401Y015623D03*
X029651Y014873D03*
X032651Y016623D03*
X034901Y017373D03*
X034151Y019373D03*
X032651Y019498D03*
X037651Y016498D03*
X037651Y014873D03*
X037276Y014873D03*
X036901Y014873D03*
X036151Y014873D03*
X036526Y013748D03*
X037151Y013123D03*
X037651Y013123D03*
X038026Y013123D03*
X038526Y013123D03*
X039026Y013123D03*
X038776Y013748D03*
X038401Y014873D03*
X038026Y014873D03*
X040776Y014873D03*
X041651Y015373D03*
X042026Y014623D03*
X041776Y013998D03*
X041401Y012998D03*
X041026Y012748D03*
X041026Y012123D03*
X042026Y012498D03*
X041776Y010873D03*
X042276Y010873D03*
X043026Y010748D03*
X043526Y010748D03*
X043776Y010248D03*
X044026Y009873D03*
X044276Y009498D03*
X045026Y009623D03*
X045276Y008998D03*
X045526Y008373D03*
X045776Y007498D03*
X045526Y006248D03*
X047651Y004623D03*
X047151Y004123D03*
X049151Y003623D03*
X050651Y005373D03*
X052901Y003873D03*
X053151Y001623D03*
X056651Y007373D03*
X055651Y008373D03*
X057401Y009623D03*
X059401Y007873D03*
X060401Y009623D03*
X060651Y012123D03*
X061401Y012123D03*
X059151Y012123D03*
X057651Y012123D03*
X055901Y012123D03*
X054651Y012373D03*
X054401Y011873D03*
X053901Y011373D03*
X052151Y012873D03*
X051651Y012873D03*
X051401Y013123D03*
X050901Y013373D03*
X050651Y013873D03*
X051776Y016873D03*
X052401Y017748D03*
X052151Y017998D03*
X051901Y018248D03*
X051276Y018248D03*
X050901Y018248D03*
X050526Y018623D03*
X049776Y018373D03*
X049401Y018373D03*
X049151Y019498D03*
X048901Y019873D03*
X048901Y020248D03*
X048901Y020623D03*
X048901Y020998D03*
X050151Y021873D03*
X050151Y022373D03*
X050151Y022748D03*
X050151Y023123D03*
X050151Y023498D03*
X050151Y023873D03*
X050151Y025248D03*
X050151Y025623D03*
X050901Y026873D03*
X051651Y026873D03*
X052026Y026873D03*
X052401Y026873D03*
X052776Y026873D03*
X053526Y026873D03*
X053901Y026873D03*
X054401Y026873D03*
X055526Y026873D03*
X055901Y026873D03*
X054651Y025373D03*
X054151Y024623D03*
X055651Y024623D03*
X057151Y024623D03*
X058401Y024748D03*
X058776Y024748D03*
X059151Y024748D03*
X059401Y024498D03*
X059901Y024498D03*
X059526Y025248D03*
X059526Y025873D03*
X059901Y025873D03*
X059151Y026623D03*
X059651Y027123D03*
X058526Y027123D03*
X058276Y027373D03*
X058026Y027623D03*
X057151Y025373D03*
X057151Y023498D03*
X057151Y023123D03*
X056776Y022623D03*
X057151Y021498D03*
X057151Y020623D03*
X057151Y019998D03*
X056526Y019873D03*
X056151Y019873D03*
X055776Y019873D03*
X055401Y019873D03*
X055026Y019873D03*
X054651Y019873D03*
X054276Y019873D03*
X053901Y019873D03*
X052776Y019873D03*
X052401Y019873D03*
X052026Y019873D03*
X051651Y019873D03*
X051276Y019873D03*
X050901Y019873D03*
X050401Y021123D03*
X052401Y021373D03*
X053901Y021373D03*
X055651Y020623D03*
X058401Y020248D03*
X058901Y020623D03*
X059276Y021373D03*
X061151Y021998D03*
X061151Y022373D03*
X061151Y023248D03*
X061401Y024373D03*
X061151Y024623D03*
X061776Y024373D03*
X061151Y025623D03*
X061151Y026123D03*
X063776Y023998D03*
X064151Y023998D03*
X064151Y024498D03*
X064151Y025123D03*
X064151Y025498D03*
X064151Y025873D03*
X064151Y026373D03*
X064151Y026748D03*
X064151Y027123D03*
X065401Y026373D03*
X066651Y026873D03*
X066651Y024873D03*
X065401Y024373D03*
X065401Y022373D03*
X065401Y021998D03*
X065776Y021998D03*
X064151Y021748D03*
X063651Y021123D03*
X063401Y020873D03*
X064151Y020623D03*
X064151Y020248D03*
X064151Y019873D03*
X064151Y019498D03*
X063901Y019123D03*
X063276Y018873D03*
X062901Y017873D03*
X062151Y017623D03*
X061964Y018560D03*
X061151Y018748D03*
X061151Y019248D03*
X059776Y019248D03*
X059276Y019123D03*
X058776Y018998D03*
X058401Y018748D03*
X058151Y018248D03*
X057776Y017873D03*
X059651Y017873D03*
X059901Y017623D03*
X060651Y017373D03*
X065026Y018873D03*
X066651Y019123D03*
X059151Y023123D03*
X058401Y022873D03*
X054401Y018123D03*
X054776Y017810D03*
X055526Y016873D03*
X055901Y017123D03*
X053651Y016873D03*
X047151Y020623D03*
X044276Y021498D03*
X044026Y021123D03*
X043776Y020873D03*
X043526Y020498D03*
X042776Y019623D03*
X041651Y019873D03*
X041651Y019373D03*
X040901Y017248D03*
X041651Y016998D03*
X042776Y017373D03*
X044776Y017248D03*
X045026Y016498D03*
X045276Y015748D03*
X045526Y014998D03*
X042776Y015248D03*
X045776Y012498D03*
X044526Y010748D03*
X044776Y010248D03*
X043026Y007873D03*
X043276Y006623D03*
X041401Y006248D03*
X040526Y006623D03*
X039776Y006248D03*
X038651Y006623D03*
X037776Y006248D03*
X036401Y003873D03*
X033401Y005373D03*
X036526Y008748D03*
X036901Y008998D03*
X036526Y009248D03*
X036901Y009498D03*
X036526Y009748D03*
X036901Y009998D03*
X036526Y010248D03*
X036901Y010498D03*
X036526Y010873D03*
X038901Y010873D03*
X039401Y010873D03*
X040526Y010873D03*
X034651Y014873D03*
X033151Y014998D03*
X033526Y013748D03*
X034276Y012498D03*
X034276Y011123D03*
X044526Y018873D03*
X041651Y021498D03*
X041276Y021748D03*
X040901Y021998D03*
X040526Y022248D03*
X040026Y023123D03*
X041026Y023873D03*
X041651Y023373D03*
X041651Y022373D03*
X041651Y021998D03*
X042776Y022123D03*
X042776Y022498D03*
X043276Y022873D03*
X043901Y023623D03*
X043526Y023873D03*
X043526Y024373D03*
X044276Y023873D03*
X044651Y024123D03*
X044901Y023373D03*
X046151Y023373D03*
X046651Y023373D03*
X046651Y024623D03*
X046151Y024623D03*
X045026Y025123D03*
X043276Y025123D03*
X042901Y025123D03*
X040401Y024934D03*
X039276Y024998D03*
X037901Y023123D03*
X033026Y023873D03*
X031526Y023748D03*
X031526Y023248D03*
X034151Y029248D03*
X039651Y032873D03*
X039651Y033873D03*
X043651Y033123D03*
X044901Y034873D03*
X045901Y035623D03*
X045901Y036373D03*
X046651Y036123D03*
X047901Y036373D03*
X048151Y035623D03*
X048776Y035623D03*
X049401Y037123D03*
X050901Y035873D03*
X050651Y035373D03*
X051151Y034873D03*
X050651Y034123D03*
X051401Y033373D03*
X052401Y032373D03*
X049151Y031123D03*
X049901Y029623D03*
X049901Y028123D03*
X049651Y027623D03*
X049151Y027623D03*
X049276Y027123D03*
X050651Y028248D03*
X051901Y028123D03*
X053151Y028123D03*
X055026Y029623D03*
X055901Y029623D03*
X051651Y025373D03*
X051651Y023873D03*
X051651Y023123D03*
X042151Y028123D03*
X040026Y028873D03*
X043901Y030873D03*
X044401Y030373D03*
X046151Y032623D03*
X046651Y032623D03*
X046651Y034623D03*
X044401Y037123D03*
X043901Y037123D03*
X044151Y038373D03*
X062901Y028748D03*
X065151Y029623D03*
X065151Y030123D03*
X063901Y006873D03*
X063901Y006373D03*
X063401Y006373D03*
D36*
X055526Y016873D02*
X054701Y016873D01*
X054201Y017373D01*
X053276Y017373D01*
X052901Y017748D01*
X052901Y019123D01*
X053401Y019623D01*
X053401Y021373D01*
X053901Y021873D01*
X056026Y021873D01*
X056026Y022123D02*
X053901Y022123D01*
X053151Y021373D01*
X053151Y019623D01*
X052651Y019123D01*
X052651Y016923D01*
X052601Y016873D01*
X051776Y016873D01*
X053201Y016873D02*
X053651Y016873D01*
X054101Y016873D01*
X053951Y018123D02*
X054401Y018123D01*
X053351Y018123D02*
X053351Y019323D01*
X053901Y019873D01*
X053901Y020323D01*
X054651Y020323D01*
X054651Y020923D02*
X053901Y020923D01*
X053901Y021373D01*
X052901Y020623D02*
X052601Y020323D01*
X052401Y020323D01*
X051651Y020323D01*
X050901Y020323D01*
X050901Y020923D02*
X051651Y020923D01*
X052401Y020923D01*
X052401Y021373D01*
X052901Y020623D02*
X052901Y022623D01*
X054226Y023948D01*
X054651Y023948D01*
X054651Y024548D02*
X054576Y024623D01*
X054151Y024623D01*
X053651Y024123D01*
X054076Y024548D02*
X054151Y024623D01*
X054651Y025373D02*
X054651Y025823D01*
X053901Y025823D01*
X053151Y025823D01*
X052401Y025823D02*
X051651Y025823D01*
X051651Y025373D01*
X051276Y025248D02*
X050601Y025248D01*
X050601Y024623D01*
X050601Y023873D01*
X050601Y023123D01*
X050601Y022373D01*
X050651Y022373D01*
X050151Y022373D02*
X048401Y024123D01*
X048401Y032123D01*
X049101Y032123D01*
X049151Y032173D01*
X049151Y031573D02*
X049901Y031573D01*
X050401Y031673D02*
X049901Y032173D01*
X049201Y032873D01*
X047901Y032873D01*
X046401Y034373D01*
X046401Y037373D01*
X044151Y039623D01*
X043651Y039623D01*
X043084Y040190D01*
X043084Y040263D01*
X042651Y039373D02*
X042151Y039873D01*
X042151Y041495D01*
X043084Y042428D01*
X042651Y039373D02*
X044151Y039373D01*
X046151Y037373D01*
X046151Y034373D01*
X048401Y032123D01*
X049151Y031573D02*
X049151Y031123D01*
X050401Y031373D02*
X050401Y031673D01*
X050401Y031373D02*
X048651Y029623D01*
X048651Y024248D01*
X050151Y022748D01*
X050151Y023123D02*
X050601Y023123D01*
X051201Y023123D02*
X051201Y023873D01*
X051201Y024623D01*
X051526Y024998D02*
X051276Y025248D01*
X051526Y024998D02*
X055401Y024998D01*
X055776Y025373D01*
X055776Y025623D01*
X055901Y025748D01*
X056701Y025748D01*
X056701Y026123D01*
X056701Y025748D02*
X056701Y025373D01*
X056701Y024623D01*
X056701Y023873D01*
X056701Y023123D01*
X056101Y023123D02*
X056101Y023873D01*
X056101Y024623D01*
X055651Y024623D01*
X056101Y024623D02*
X056101Y025373D01*
X056701Y025373D02*
X057151Y025373D01*
X056101Y026123D02*
X056026Y026123D01*
X055726Y026423D01*
X055401Y026423D01*
X054651Y026423D01*
X054651Y026373D01*
X054651Y026423D02*
X054401Y026623D01*
X054401Y026873D01*
X053901Y026873D02*
X053901Y026423D01*
X053151Y026423D01*
X052401Y026423D01*
X052401Y026873D02*
X052401Y028123D01*
X051401Y029123D01*
X051401Y033373D01*
X050651Y034123D02*
X050651Y028248D01*
X049901Y028123D02*
X049901Y028573D01*
X049151Y028573D01*
X049151Y029173D02*
X049901Y029173D01*
X049901Y029623D01*
X051151Y028873D02*
X051151Y034873D01*
X050901Y035873D02*
X050901Y026873D01*
X050901Y026423D02*
X050601Y026123D01*
X050601Y025248D01*
X050901Y025823D02*
X051651Y025823D01*
X051651Y026423D02*
X050901Y026423D01*
X051651Y026423D02*
X051651Y026873D01*
X051901Y028123D02*
X051151Y028873D01*
X047401Y031873D02*
X046651Y032623D01*
X046151Y032623D02*
X047151Y031623D01*
X047151Y021998D01*
X046526Y021373D01*
X046526Y020123D01*
X047526Y019123D01*
X047601Y019123D01*
X047601Y019873D02*
X047276Y019873D01*
X046776Y020373D01*
X046776Y021248D01*
X047401Y021873D01*
X047401Y031873D01*
X055901Y029623D02*
X055901Y029173D01*
X056651Y029173D01*
X056651Y028573D02*
X055901Y028573D01*
X055901Y026873D01*
X055401Y025823D02*
X054651Y025823D01*
X051651Y023873D02*
X051201Y023873D01*
X050601Y023873D02*
X050151Y023873D01*
X051201Y023123D02*
X051651Y023123D01*
X051201Y023123D02*
X051201Y022373D01*
X048901Y020623D02*
X048201Y020623D01*
X048201Y021373D01*
X047601Y021373D02*
X047601Y020623D01*
X047151Y020623D01*
X052401Y020323D02*
X052401Y019873D01*
X055651Y020623D02*
X056101Y020623D01*
X056101Y021373D01*
X056701Y021373D02*
X056701Y020623D01*
X057151Y020623D01*
X060506Y019278D02*
X061121Y019278D01*
X061151Y019248D01*
X064797Y019278D02*
X065121Y019278D01*
X065276Y019123D01*
X065026Y018873D01*
X065276Y019123D02*
X065601Y019123D01*
X065601Y019873D01*
X066201Y019873D02*
X066201Y019123D01*
X066651Y019123D01*
X065151Y023373D02*
X065401Y023623D01*
X065401Y024373D01*
X065276Y024498D01*
X065276Y024873D01*
X065601Y024873D01*
X065276Y024873D02*
X065201Y024948D01*
X064797Y024948D01*
X064797Y025893D02*
X065381Y025893D01*
X066151Y025123D01*
X066151Y024923D01*
X066201Y024873D01*
X066151Y024823D01*
X066201Y024873D02*
X066651Y024873D01*
X064797Y024003D02*
X064156Y024003D01*
X064151Y023998D01*
X064797Y023373D02*
X065151Y023373D01*
X060506Y023373D02*
X059726Y023373D01*
X059101Y023998D01*
X059101Y024198D01*
X059401Y024498D01*
X059851Y024948D01*
X060506Y024948D01*
X059901Y024498D02*
X059706Y024303D01*
X059706Y024003D01*
X059701Y023998D01*
X059706Y024003D02*
X060506Y024003D01*
X060506Y025893D02*
X059921Y025893D01*
X059901Y025873D01*
X064797Y026837D02*
X065276Y026837D01*
X065276Y026498D01*
X065401Y026373D01*
X065276Y026837D02*
X065276Y027373D01*
X065182Y027467D01*
X064797Y027467D01*
X065276Y026837D02*
X065566Y026837D01*
X065601Y026873D01*
X065601Y027623D01*
X066201Y027623D02*
X066201Y026873D01*
X066651Y026873D01*
D37*
X064151Y030373D03*
X061151Y031873D03*
X061151Y032873D03*
X058651Y032873D03*
X056401Y034373D03*
X056151Y037373D03*
X056151Y037873D03*
X056151Y038373D03*
X053651Y038873D03*
X052651Y038873D03*
X052901Y030873D03*
X053901Y030873D03*
X054901Y030873D03*
D38*
X045901Y031123D03*
X044651Y029623D03*
X044651Y028373D03*
X045401Y033873D03*
D39*
X056401Y033373D02*
X056401Y032123D01*
X057401Y032123D02*
X057401Y033373D01*
X058151Y033373D01*
X058651Y032873D01*
X056401Y033373D02*
X056401Y034373D01*
X056401Y036373D01*
X058276Y038248D01*
X058276Y038373D01*
X060901Y038498D02*
X061026Y038373D01*
X060901Y038498D02*
X060901Y039623D01*
X059651Y040873D01*
X063026Y034748D02*
X062401Y034123D01*
X062401Y033123D01*
X061151Y031873D01*
X064151Y031998D02*
X064151Y030373D01*
X064151Y034748D02*
X063026Y034748D01*
D40*
X060932Y027467D02*
X061026Y027373D01*
X061026Y026998D01*
X060866Y026837D01*
X060506Y026837D01*
X060506Y027467D02*
X059996Y027467D01*
X059651Y027123D01*
X060506Y027467D02*
X060932Y027467D01*
X049151Y034123D02*
X049151Y034623D01*
X048951Y034823D01*
X048951Y035123D01*
X048951Y035448D01*
X048776Y035623D01*
X048776Y035998D01*
X048951Y036173D01*
X048951Y036373D01*
X048351Y036973D01*
X048351Y037123D01*
X048951Y037123D02*
X048951Y037873D01*
X048651Y038373D02*
X051151Y038373D01*
X052151Y039373D01*
X052151Y040511D01*
X052159Y040519D01*
X048651Y038373D02*
X048351Y038073D01*
X048351Y037873D01*
X048951Y037123D02*
X049401Y037123D01*
X048351Y036373D02*
X047901Y036373D01*
X048151Y035623D02*
X048351Y035423D01*
X048351Y035123D01*
X048351Y034823D01*
X048151Y034623D01*
X048151Y034123D01*
X042151Y028123D02*
X041901Y027873D01*
X041901Y027123D01*
X040651Y027123D01*
X039276Y024998D02*
X039276Y024123D01*
X038901Y023748D01*
X038901Y023423D01*
X039651Y023423D01*
X040026Y023123D02*
X039726Y022823D01*
X039651Y022823D01*
X038901Y022823D01*
X037901Y023123D02*
X037601Y022823D01*
X037401Y022823D01*
X036651Y022823D01*
X036651Y023423D02*
X037401Y023423D01*
X036651Y023423D02*
X036651Y023873D01*
X035526Y023873D02*
X035526Y023198D01*
X035151Y022823D01*
X035151Y023423D02*
X035151Y024998D01*
X035276Y025123D01*
X033901Y025373D02*
X033351Y024823D01*
X033151Y024823D01*
X032401Y024823D02*
X031651Y024823D01*
X031451Y024823D01*
X031151Y025123D01*
X031151Y025623D01*
X031651Y025423D02*
X031651Y025873D01*
X031901Y026123D01*
X031901Y027123D01*
X032901Y027123D02*
X033151Y026873D01*
X033151Y025423D01*
X032401Y025423D01*
X027826Y023873D02*
X027826Y023123D01*
X027826Y022698D01*
X028151Y022373D01*
X027226Y023123D02*
X027226Y023873D01*
X027226Y024073D01*
X027526Y024373D01*
X025576Y021998D02*
X025576Y021448D01*
X025526Y021373D01*
X025026Y021373D02*
X024976Y021448D01*
X024976Y021998D01*
X023526Y021048D02*
X022951Y021048D01*
X022901Y020998D01*
X022901Y020498D02*
X022951Y020448D01*
X023526Y020448D01*
X031526Y021248D02*
X031901Y020873D01*
X033251Y020873D01*
X034151Y020248D02*
X034151Y019373D01*
X033701Y019373D01*
X033701Y018623D01*
X033701Y017873D01*
X033101Y017873D02*
X033101Y018623D01*
X031654Y018623D01*
X031590Y018559D01*
X032651Y019498D02*
X032776Y019498D01*
X032901Y019373D01*
X033101Y019373D01*
X034151Y020248D02*
X034551Y020648D01*
X034551Y020873D01*
X034901Y017373D02*
X034301Y016773D01*
X034151Y016773D01*
X035401Y015923D02*
X036151Y015923D01*
X036901Y015923D01*
X037651Y015923D01*
X037651Y016498D01*
X037651Y015923D02*
X038401Y015923D01*
X038401Y015323D02*
X038451Y015323D01*
X038776Y014998D01*
X038776Y013748D01*
X037276Y014873D02*
X036901Y015248D01*
X036901Y015323D01*
X037651Y015323D01*
X036526Y014873D02*
X036526Y013748D01*
X036526Y014873D02*
X036151Y015248D01*
X036151Y015323D01*
X035401Y015323D01*
X034151Y015473D02*
X034151Y014373D01*
X033526Y013748D01*
X038901Y011923D02*
X039226Y011923D01*
X039401Y011748D01*
X039401Y010873D01*
X038901Y010873D02*
X038901Y011323D01*
X040526Y011323D02*
X040526Y010873D01*
X040526Y011923D02*
X040576Y011923D01*
X040776Y012123D01*
X041026Y012123D01*
X041051Y016373D02*
X041051Y016648D01*
X041151Y016748D01*
X041151Y017573D01*
X041201Y017623D01*
X041201Y018373D01*
X040601Y018373D02*
X040601Y017623D01*
X040276Y017623D01*
X039751Y017098D01*
X039751Y016373D01*
X040901Y017248D02*
X040601Y017548D01*
X040601Y017623D01*
X041201Y017623D02*
X042526Y017623D01*
X042776Y017373D01*
X041651Y019373D02*
X041101Y019373D01*
X040601Y019873D01*
X041201Y019873D02*
X041651Y019873D01*
X045776Y007498D02*
X045576Y007298D01*
X045276Y007298D01*
X045276Y006698D02*
X045276Y006498D01*
X045526Y006248D01*
X041401Y006248D02*
X041151Y006498D01*
X041151Y006698D01*
X041151Y007298D02*
X040821Y007298D01*
X040521Y006998D01*
X040521Y006628D01*
X040526Y006623D01*
X039776Y006248D02*
X039526Y006498D01*
X039526Y006698D01*
X039526Y007298D02*
X039326Y007298D01*
X038651Y006623D01*
X037976Y007298D01*
X037776Y007298D01*
X037026Y007298D01*
X037026Y006698D02*
X037776Y006698D01*
X037776Y006248D01*
D41*
X042901Y025123D02*
X041901Y026123D01*
X040651Y026123D01*
X058276Y038248D02*
X059651Y036873D01*
X062851Y036873D01*
X063451Y036873D02*
X064851Y036873D01*
X064901Y036923D01*
X064901Y038123D01*
X064651Y038373D01*
X064651Y038881D01*
X064643Y038889D01*
X064643Y039873D02*
X066401Y039873D01*
X065451Y036873D02*
X065451Y035923D01*
X064276Y034748D01*
X064151Y034748D01*
X017151Y035623D02*
X014651Y035623D01*
X011901Y038373D01*
M02*
