G75*
G70*
%OFA0B0*%
%FSLAX24Y24*%
%IPPOS*%
%LPD*%
%AMOC8*
5,1,8,0,0,1.08239X$1,22.5*
%
%ADD10C,0.0000*%
%ADD11R,0.7500X0.2000*%
%ADD12R,0.0551X0.0551*%
%ADD13R,0.0315X0.0354*%
%ADD14R,0.0118X0.0591*%
%ADD15R,0.0354X0.0315*%
%ADD16R,0.0748X0.0551*%
%ADD17R,0.0551X0.0748*%
%ADD18C,0.0600*%
%ADD19OC8,0.0531*%
%ADD20R,0.0591X0.0591*%
%ADD21C,0.0356*%
%ADD22R,0.0600X0.0600*%
%ADD23OC8,0.0600*%
%ADD24R,0.0551X0.0394*%
%ADD25C,0.0886*%
%ADD26R,0.0866X0.0236*%
%ADD27OC8,0.0472*%
%ADD28OC8,0.1266*%
%ADD29R,0.0354X0.0138*%
%ADD30R,0.0709X0.0551*%
%ADD31OC8,0.0591*%
%ADD32C,0.2000*%
%ADD33R,0.0472X0.0472*%
%ADD34C,0.0160*%
%ADD35C,0.0100*%
%ADD36C,0.0270*%
%ADD37C,0.0240*%
%ADD38C,0.0356*%
D10*
X000850Y000850D02*
X000850Y044100D01*
X009350Y044100D01*
X009350Y034850D01*
X009362Y034801D01*
X009378Y034754D01*
X009397Y034708D01*
X009420Y034663D01*
X009446Y034621D01*
X009475Y034580D01*
X009508Y034542D01*
X009543Y034507D01*
X009581Y034474D01*
X009622Y034445D01*
X009664Y034419D01*
X009709Y034396D01*
X009755Y034377D01*
X009803Y034362D01*
X009851Y034350D01*
X009901Y034342D01*
X009951Y034338D01*
X010001Y034339D01*
X010051Y034342D01*
X010100Y034350D01*
X037100Y034350D01*
X037850Y034850D02*
X037850Y044100D01*
X069350Y044100D01*
X069350Y000850D01*
X000850Y000850D01*
X037100Y034350D02*
X037147Y034343D01*
X037195Y034339D01*
X037242Y034338D01*
X037290Y034341D01*
X037337Y034348D01*
X037383Y034358D01*
X037429Y034372D01*
X037474Y034389D01*
X037517Y034409D01*
X037558Y034432D01*
X037598Y034459D01*
X037635Y034488D01*
X037671Y034520D01*
X037703Y034554D01*
X037734Y034591D01*
X037761Y034631D01*
X037785Y034672D01*
X037806Y034714D01*
X037824Y034758D01*
X037839Y034804D01*
X037850Y034850D01*
D11*
X059850Y043100D03*
D12*
X053850Y027600D03*
X053850Y026100D03*
X048850Y026100D03*
X048850Y027600D03*
X043850Y027600D03*
X043850Y026100D03*
X038850Y026100D03*
X038850Y027600D03*
X025350Y018350D03*
X025350Y016850D03*
X025600Y015350D03*
X024100Y015350D03*
X019100Y015350D03*
X017600Y015350D03*
X018850Y016850D03*
X018850Y018350D03*
X012350Y018350D03*
X012350Y016850D03*
X012600Y015350D03*
X011100Y015350D03*
D13*
X013100Y017550D03*
X013100Y018150D03*
X010350Y020050D03*
X010350Y020650D03*
X009600Y020650D03*
X009600Y020050D03*
X007850Y018150D03*
X007100Y018150D03*
X007100Y017550D03*
X007850Y017550D03*
X003100Y017800D03*
X003100Y018400D03*
X002350Y018400D03*
X002350Y017800D03*
X003100Y016900D03*
X003100Y016300D03*
X004100Y012400D03*
X004100Y011800D03*
X003350Y011650D03*
X003350Y011050D03*
X004100Y010900D03*
X004100Y010300D03*
X008100Y010300D03*
X008100Y010900D03*
X008850Y011050D03*
X008850Y011650D03*
X008100Y011800D03*
X008100Y012400D03*
X019600Y017550D03*
X019600Y018150D03*
X016850Y023050D03*
X016850Y023650D03*
X020850Y023550D03*
X021600Y023550D03*
X021600Y024150D03*
X020850Y024150D03*
X022100Y026800D03*
X022100Y027400D03*
X024100Y027400D03*
X024100Y026800D03*
X024850Y023650D03*
X024850Y023050D03*
X028850Y023550D03*
X029600Y023550D03*
X029600Y024150D03*
X028850Y024150D03*
X030100Y026800D03*
X030100Y027400D03*
X032100Y027400D03*
X032100Y026800D03*
X039600Y026550D03*
X039600Y027150D03*
X040350Y027150D03*
X040350Y026550D03*
X041100Y026550D03*
X041100Y027150D03*
X044600Y027150D03*
X044600Y026550D03*
X045350Y026550D03*
X045350Y027150D03*
X046100Y027150D03*
X046100Y026550D03*
X049600Y026550D03*
X049600Y027150D03*
X050350Y027150D03*
X050350Y026550D03*
X051100Y026550D03*
X051100Y027150D03*
X054600Y027150D03*
X054600Y026550D03*
X055350Y026550D03*
X055350Y027150D03*
X056100Y027150D03*
X056100Y026550D03*
X034100Y013650D03*
X034100Y013050D03*
X026100Y017550D03*
X026100Y018150D03*
X014350Y026800D03*
X014350Y027400D03*
X005350Y027650D03*
X004600Y027650D03*
X004600Y027050D03*
X005350Y027050D03*
X009850Y004650D03*
X010600Y004650D03*
X011350Y004650D03*
X011350Y004050D03*
X010600Y004050D03*
X009850Y004050D03*
X017850Y004050D03*
X018600Y004050D03*
X019350Y004050D03*
X019350Y004650D03*
X018600Y004650D03*
X017850Y004650D03*
X025850Y004650D03*
X026600Y004650D03*
X027350Y004650D03*
X027350Y004050D03*
X026600Y004050D03*
X025850Y004050D03*
X033850Y004050D03*
X034600Y004050D03*
X035350Y004050D03*
X035350Y004650D03*
X034600Y004650D03*
X033850Y004650D03*
X042850Y007550D03*
X042850Y008150D03*
X043600Y008150D03*
X043600Y007550D03*
D14*
X034496Y014498D03*
X034240Y014498D03*
X033984Y014498D03*
X033728Y014498D03*
X033472Y014498D03*
X033216Y014498D03*
X032960Y014498D03*
X032704Y014498D03*
X032704Y016702D03*
X032960Y016702D03*
X033216Y016702D03*
X033472Y016702D03*
X033728Y016702D03*
X033984Y016702D03*
X034240Y016702D03*
X034496Y016702D03*
D15*
X035300Y016600D03*
X035900Y016600D03*
X035900Y015850D03*
X035300Y015850D03*
X033150Y017600D03*
X032550Y017600D03*
X029400Y017350D03*
X028800Y017350D03*
X027900Y017350D03*
X027300Y017350D03*
X027300Y019350D03*
X027900Y019350D03*
X027150Y022350D03*
X026550Y022350D03*
X026550Y025350D03*
X027150Y025350D03*
X019150Y025350D03*
X018550Y025350D03*
X018550Y022350D03*
X019150Y022350D03*
X020800Y019350D03*
X021400Y019350D03*
X021400Y017350D03*
X020800Y017350D03*
X022300Y017350D03*
X022900Y017350D03*
X024550Y014600D03*
X025150Y014600D03*
X027050Y014350D03*
X027650Y014350D03*
X028550Y014350D03*
X029150Y014350D03*
X022650Y014350D03*
X022050Y014350D03*
X021150Y014350D03*
X020550Y014350D03*
X018650Y014600D03*
X018050Y014600D03*
X016400Y017350D03*
X015800Y017350D03*
X014900Y017350D03*
X014300Y017350D03*
X014300Y019350D03*
X014900Y019350D03*
X012150Y014600D03*
X011550Y014600D03*
X007775Y016725D03*
X007175Y016725D03*
X005400Y019100D03*
X004800Y019100D03*
X002900Y020350D03*
X002300Y020350D03*
X007050Y020350D03*
X007650Y020350D03*
X006400Y009850D03*
X005800Y009850D03*
X039800Y005100D03*
X040400Y005100D03*
X042800Y006350D03*
X043400Y006350D03*
X047300Y003600D03*
X047900Y003600D03*
X061300Y003600D03*
X061900Y003600D03*
X066050Y005350D03*
X066650Y005350D03*
X054900Y015600D03*
X054300Y015600D03*
X064300Y021350D03*
X064900Y021350D03*
X064800Y027100D03*
X065400Y027100D03*
X061400Y037100D03*
X060800Y037100D03*
X060800Y037850D03*
X061400Y037850D03*
X061150Y038600D03*
X060550Y038600D03*
X060800Y039350D03*
X061400Y039350D03*
X061400Y040100D03*
X060800Y040100D03*
X065300Y039725D03*
X065900Y039725D03*
X065900Y038975D03*
X065300Y038975D03*
X065300Y038225D03*
X065900Y038225D03*
X065900Y037475D03*
X065300Y037475D03*
X040900Y015600D03*
X040300Y015600D03*
X004400Y036100D03*
X003800Y036100D03*
X003800Y036850D03*
X004400Y036850D03*
X004400Y037600D03*
X003800Y037600D03*
X003800Y038350D03*
X004400Y038350D03*
D16*
X008350Y027350D03*
X008350Y026350D03*
X009600Y026350D03*
X009600Y027350D03*
X016600Y025600D03*
X016600Y024600D03*
X024600Y024600D03*
X024600Y025600D03*
X035100Y013350D03*
X035100Y012350D03*
D17*
X028100Y018350D03*
X027100Y018350D03*
X028100Y022100D03*
X029100Y022100D03*
X029350Y025350D03*
X028350Y025350D03*
X021350Y025350D03*
X020350Y025350D03*
X020100Y022100D03*
X021100Y022100D03*
X020600Y018350D03*
X021600Y018350D03*
X015100Y018350D03*
X014100Y018350D03*
X007850Y019350D03*
X006850Y019350D03*
X003100Y019350D03*
X002100Y019350D03*
X003350Y015350D03*
X004350Y015350D03*
X005850Y015350D03*
X006850Y015350D03*
X032350Y018600D03*
X033350Y018600D03*
X064100Y020350D03*
X065100Y020350D03*
X065850Y004350D03*
X066850Y004350D03*
D18*
X028600Y006550D02*
X028600Y007150D01*
X027600Y007150D02*
X027600Y006550D01*
X026600Y006550D02*
X026600Y007150D01*
X025600Y007150D02*
X025600Y006550D01*
X024600Y006550D02*
X024600Y007150D01*
X023600Y007150D02*
X023600Y006550D01*
X022600Y006550D02*
X022600Y007150D01*
X021600Y007150D02*
X021600Y006550D01*
X020600Y006550D02*
X020600Y007150D01*
X019600Y007150D02*
X019600Y006550D01*
X018600Y006550D02*
X018600Y007150D01*
X017600Y007150D02*
X017600Y006550D01*
X016600Y006550D02*
X016600Y007150D01*
X015600Y007150D02*
X015600Y006550D01*
X014600Y006550D02*
X014600Y007150D01*
X013600Y007150D02*
X013600Y006550D01*
X012600Y006550D02*
X012600Y007150D01*
X011600Y007150D02*
X011600Y006550D01*
X010600Y006550D02*
X010600Y007150D01*
X009600Y007150D02*
X009600Y006550D01*
D19*
X008281Y004084D03*
X005919Y004084D03*
X005919Y002116D03*
X008281Y002116D03*
X013919Y002116D03*
X016281Y002116D03*
X016281Y004084D03*
X013919Y004084D03*
X021919Y004084D03*
X024281Y004084D03*
X024281Y002116D03*
X021919Y002116D03*
X029919Y002116D03*
X032281Y002116D03*
X032281Y004084D03*
X029919Y004084D03*
X061919Y030116D03*
X064281Y030116D03*
X064281Y032084D03*
X061919Y032084D03*
D20*
X062411Y027100D03*
X063789Y027100D03*
D21*
X055850Y016600D02*
X055850Y016244D01*
X055350Y016244D02*
X055350Y016600D01*
X054850Y016600D02*
X054850Y016244D01*
X054350Y016244D02*
X054350Y016600D01*
X053850Y016600D02*
X053850Y016244D01*
X053350Y016244D02*
X053350Y016600D01*
X041850Y016600D02*
X041850Y016244D01*
X041350Y016244D02*
X041350Y016600D01*
X040850Y016600D02*
X040850Y016244D01*
X040350Y016244D02*
X040350Y016600D01*
X039850Y016600D02*
X039850Y016244D01*
X039350Y016244D02*
X039350Y016600D01*
X046350Y004600D02*
X046350Y004244D01*
X046850Y004244D02*
X046850Y004600D01*
X047350Y004600D02*
X047350Y004244D01*
X047850Y004244D02*
X047850Y004600D01*
X048350Y004600D02*
X048350Y004244D01*
X048850Y004244D02*
X048850Y004600D01*
X060350Y004600D02*
X060350Y004244D01*
X060850Y004244D02*
X060850Y004600D01*
X061350Y004600D02*
X061350Y004244D01*
X061850Y004244D02*
X061850Y004600D01*
X062350Y004600D02*
X062350Y004244D01*
X062850Y004244D02*
X062850Y004600D01*
D22*
X067350Y019600D03*
X027600Y010100D03*
X004600Y023600D03*
D23*
X005600Y023600D03*
X005600Y024600D03*
X004600Y024600D03*
X006600Y024600D03*
X007600Y024600D03*
X007600Y023600D03*
X006600Y023600D03*
X008600Y023600D03*
X009600Y023600D03*
X009600Y024600D03*
X008600Y024600D03*
X027600Y011100D03*
X028600Y011100D03*
X028600Y010100D03*
X029600Y010100D03*
X029600Y011100D03*
X067350Y010600D03*
X067350Y009600D03*
X068350Y009600D03*
X068350Y010600D03*
X068350Y011600D03*
X068350Y012600D03*
X067350Y012600D03*
X067350Y011600D03*
X067350Y013600D03*
X067350Y014600D03*
X067350Y015600D03*
X067350Y016600D03*
X067350Y017600D03*
X068350Y017600D03*
X068350Y016600D03*
X068350Y015600D03*
X068350Y014600D03*
X068350Y013600D03*
X068350Y018600D03*
X068350Y019600D03*
X067350Y018600D03*
X067350Y008600D03*
X067350Y007600D03*
X067350Y006600D03*
X068350Y006600D03*
X068350Y007600D03*
X068350Y008600D03*
D24*
X055783Y025350D03*
X054917Y025724D03*
X054917Y024976D03*
X050783Y025350D03*
X049917Y025724D03*
X049917Y024976D03*
X045783Y025350D03*
X044917Y024976D03*
X044917Y025724D03*
X040783Y025350D03*
X039917Y024976D03*
X039917Y025724D03*
X036033Y015224D03*
X035167Y014850D03*
X036033Y014476D03*
D25*
X039269Y029131D03*
X037931Y030116D03*
X038600Y031100D03*
X039466Y032084D03*
X037734Y032714D03*
X041966Y035486D03*
X040234Y036116D03*
X041100Y037100D03*
X041769Y038084D03*
X040431Y039069D03*
X045431Y039069D03*
X046769Y038084D03*
X046100Y037100D03*
X045234Y036116D03*
X046966Y035486D03*
X050234Y036116D03*
X051100Y037100D03*
X051769Y038084D03*
X050431Y039069D03*
X055431Y039069D03*
X056769Y038084D03*
X056100Y037100D03*
X055234Y036116D03*
X056966Y035486D03*
X052734Y032714D03*
X054466Y032084D03*
X053600Y031100D03*
X052931Y030116D03*
X054269Y029131D03*
X049269Y029131D03*
X047931Y030116D03*
X048600Y031100D03*
X049466Y032084D03*
X047734Y032714D03*
X044466Y032084D03*
X043600Y031100D03*
X042931Y030116D03*
X044269Y029131D03*
X042734Y032714D03*
X051966Y035486D03*
D26*
X027874Y024600D03*
X027874Y024100D03*
X027874Y023600D03*
X027874Y023100D03*
X025826Y023100D03*
X025826Y023600D03*
X025826Y024100D03*
X025826Y024600D03*
X019874Y024600D03*
X019874Y024100D03*
X019874Y023600D03*
X019874Y023100D03*
X017826Y023100D03*
X017826Y023600D03*
X017826Y024100D03*
X017826Y024600D03*
X006124Y018350D03*
X006124Y017850D03*
X006124Y017350D03*
X006124Y016850D03*
X004076Y016850D03*
X004076Y017350D03*
X004076Y017850D03*
X004076Y018350D03*
X005076Y012100D03*
X005076Y011600D03*
X005076Y011100D03*
X005076Y010600D03*
X007124Y010600D03*
X007124Y011100D03*
X007124Y011600D03*
X007124Y012100D03*
X013576Y015100D03*
X013576Y015600D03*
X013576Y016100D03*
X013576Y016600D03*
X015624Y016600D03*
X015624Y016100D03*
X015624Y015600D03*
X015624Y015100D03*
X020076Y015100D03*
X020076Y015600D03*
X020076Y016100D03*
X020076Y016600D03*
X022124Y016600D03*
X022124Y016100D03*
X022124Y015600D03*
X022124Y015100D03*
X026576Y015100D03*
X026576Y015600D03*
X026576Y016100D03*
X026576Y016600D03*
X028624Y016600D03*
X028624Y016100D03*
X028624Y015600D03*
X028624Y015100D03*
X039076Y008850D03*
X039076Y008350D03*
X039076Y007850D03*
X039076Y007350D03*
X039076Y006850D03*
X039076Y006350D03*
X039076Y005850D03*
X041124Y005850D03*
X041124Y006350D03*
X041124Y006850D03*
X041124Y007350D03*
X041124Y007850D03*
X041124Y008350D03*
X041124Y008850D03*
D27*
X026769Y029131D03*
X026769Y029919D03*
X026769Y030706D03*
X026769Y031494D03*
X026769Y032281D03*
X026769Y033069D03*
X018769Y033069D03*
X018769Y032281D03*
X018769Y031494D03*
X018769Y030706D03*
X018769Y029919D03*
X018769Y029131D03*
X010769Y029131D03*
X010769Y029919D03*
X010769Y030706D03*
X010769Y031494D03*
X010769Y032281D03*
X010769Y033069D03*
X002769Y033069D03*
X002769Y032281D03*
X002769Y031494D03*
X002769Y030706D03*
X002769Y029919D03*
X002769Y029131D03*
D28*
X007100Y028935D03*
X007100Y033265D03*
X015100Y033265D03*
X015100Y028935D03*
X023100Y028935D03*
X023100Y033265D03*
X031100Y033265D03*
X031100Y028935D03*
D29*
X062218Y037832D03*
X062218Y038088D03*
X062218Y038344D03*
X062218Y038600D03*
X062218Y038856D03*
X062218Y039112D03*
X062218Y039368D03*
X064482Y039368D03*
X064482Y039112D03*
X064482Y038856D03*
X064482Y038600D03*
X064482Y038344D03*
X064482Y038088D03*
X064482Y037832D03*
D30*
X066600Y032600D03*
X066600Y031600D03*
D31*
X007342Y037116D03*
X006358Y037116D03*
X006358Y038100D03*
X007342Y038100D03*
X007342Y039084D03*
X006358Y039084D03*
D32*
X002100Y042350D03*
X002100Y026600D03*
X035100Y031100D03*
X039350Y042350D03*
X058100Y031100D03*
X068100Y042350D03*
X068100Y002100D03*
X039350Y002100D03*
X002100Y002100D03*
D33*
X011937Y016100D03*
X012763Y016100D03*
X018437Y016100D03*
X019263Y016100D03*
X024937Y016100D03*
X025763Y016100D03*
X023475Y026687D03*
X022725Y026687D03*
X022725Y027513D03*
X023475Y027513D03*
X030725Y027513D03*
X031475Y027513D03*
X031475Y026687D03*
X030725Y026687D03*
X015100Y026687D03*
X015100Y027513D03*
D34*
X014987Y027400D01*
X014350Y027400D01*
X014350Y026800D02*
X013800Y026800D01*
X013600Y026600D01*
X015100Y026687D02*
X015437Y026687D01*
X015600Y026850D01*
X016100Y026850D02*
X015350Y026100D01*
X010350Y026100D01*
X010850Y026600D02*
X012225Y027975D01*
X025225Y027975D01*
X025725Y027475D01*
X027475Y027475D01*
X029350Y025600D01*
X029350Y025350D01*
X029350Y024850D01*
X029600Y024600D01*
X029600Y024150D01*
X028850Y024150D02*
X028850Y024600D01*
X028350Y025100D01*
X028350Y025350D01*
X027600Y026350D01*
X026850Y025850D02*
X027150Y025550D01*
X027150Y025350D01*
X027150Y025050D01*
X027600Y024600D01*
X027874Y024600D01*
X027874Y024100D02*
X028800Y024100D01*
X028850Y024150D01*
X028800Y023600D02*
X028850Y023550D01*
X028800Y023600D02*
X027874Y023600D01*
X027100Y023600D01*
X027150Y023550D01*
X027150Y022350D01*
X026550Y022350D02*
X024850Y022350D01*
X023350Y022350D01*
X021600Y020600D01*
X018850Y020600D01*
X013350Y020600D01*
X006350Y013600D01*
X006350Y011350D01*
X006600Y011100D01*
X007124Y011100D01*
X005850Y011850D02*
X005600Y011600D01*
X005076Y011600D01*
X005850Y011850D02*
X005850Y013350D01*
X005100Y014100D01*
X003350Y014100D01*
X001225Y016225D01*
X001225Y023350D01*
X003350Y025350D01*
X003350Y027600D01*
X002100Y028850D01*
X002100Y030850D01*
X002744Y031494D01*
X002769Y031494D01*
X002769Y032281D01*
X002669Y032281D01*
X002225Y032725D01*
X002225Y033350D01*
X002475Y033600D01*
X003350Y033600D01*
X004669Y032281D01*
X010769Y032281D01*
X010769Y031494D01*
X010769Y030706D02*
X006706Y030706D01*
X006100Y030100D01*
X004600Y029600D02*
X004600Y027650D01*
X005350Y027650D02*
X005350Y028600D01*
X005100Y028850D01*
X003850Y029626D02*
X002769Y030706D01*
X003850Y029626D02*
X003850Y024350D01*
X004600Y023600D01*
X005100Y024100D02*
X005100Y025600D01*
X004100Y026600D01*
X004100Y031738D01*
X002769Y033069D01*
X004100Y034850D02*
X007350Y034850D01*
X008600Y033600D01*
X010350Y033600D01*
X010769Y033069D02*
X008319Y033069D01*
X007850Y032600D01*
X008600Y034100D02*
X007350Y035350D01*
X004100Y035350D01*
X003800Y035650D01*
X003800Y036100D01*
X003800Y036850D01*
X004400Y036850D02*
X005100Y036850D01*
X005366Y037116D01*
X006358Y037116D01*
X006850Y037600D02*
X004400Y037600D01*
X003800Y037600D02*
X003600Y037600D01*
X003350Y037350D01*
X003350Y035600D01*
X004100Y034850D01*
X004400Y036100D02*
X004850Y036100D01*
X003800Y037600D02*
X003800Y038350D01*
X004400Y038350D02*
X005100Y038350D01*
X005350Y038600D01*
X006850Y038600D01*
X007334Y039084D01*
X007342Y039084D01*
X006850Y037600D02*
X007334Y037116D01*
X007342Y037116D01*
X010769Y029919D02*
X011350Y029338D01*
X011350Y028850D01*
X009850Y027350D01*
X009600Y027350D01*
X009600Y026350D02*
X008100Y024850D01*
X008100Y023225D01*
X007850Y022975D01*
X007225Y022975D01*
X006600Y023600D01*
X006100Y024100D01*
X006100Y025550D01*
X004600Y027050D01*
X005350Y027050D02*
X007100Y025300D01*
X008150Y026350D01*
X008350Y026350D01*
X008350Y027350D02*
X008350Y028350D01*
X009100Y029100D01*
X010738Y029100D01*
X010769Y029131D01*
X016100Y028850D02*
X016100Y029600D01*
X017994Y031494D01*
X018769Y031494D01*
X020100Y031350D02*
X020100Y031850D01*
X018881Y033069D01*
X018769Y033069D01*
X021100Y030600D02*
X024600Y030600D01*
X027225Y027975D01*
X027600Y027975D01*
X026350Y027975D02*
X024475Y029850D01*
X021100Y029850D01*
X019600Y028350D01*
X018100Y028350D01*
X017600Y028850D01*
X016600Y028850D01*
X017100Y029850D02*
X018350Y028600D01*
X019100Y028600D01*
X021100Y030600D01*
X020100Y027600D02*
X022100Y025600D01*
X022100Y022600D01*
X021600Y022100D01*
X021100Y022100D01*
X020100Y022100D02*
X020100Y023100D01*
X019874Y023100D01*
X019100Y023600D02*
X019100Y022400D01*
X019150Y022350D01*
X018550Y022350D02*
X018550Y021900D01*
X018850Y021600D01*
X018550Y022350D02*
X017350Y022350D01*
X016850Y022850D01*
X016850Y023050D01*
X016800Y023100D01*
X016350Y023100D01*
X016100Y023350D01*
X016850Y023650D02*
X016900Y023600D01*
X017826Y023600D01*
X017826Y024100D02*
X017100Y024100D01*
X016600Y024600D01*
X017350Y024850D02*
X017350Y025350D01*
X017725Y025225D02*
X017725Y025850D01*
X017100Y026475D01*
X016600Y025600D02*
X009350Y025600D01*
X008600Y024850D01*
X008600Y024600D01*
X009600Y024600D02*
X013100Y021100D01*
X021600Y021100D01*
X023850Y023350D01*
X023850Y025100D01*
X024350Y025600D01*
X024600Y025600D01*
X025350Y026100D02*
X025350Y024850D01*
X025600Y024600D01*
X025826Y024600D01*
X025975Y024975D02*
X025725Y025225D01*
X025725Y025725D01*
X026350Y026350D01*
X026269Y027019D02*
X025350Y026100D01*
X026100Y025350D02*
X026550Y025350D01*
X026475Y024975D02*
X025975Y024975D01*
X026475Y024975D02*
X026850Y024600D01*
X026850Y023850D01*
X027100Y023600D01*
X027874Y023100D02*
X028100Y023100D01*
X028100Y022100D01*
X029100Y022100D02*
X030100Y023100D01*
X030100Y025850D01*
X029100Y026850D01*
X029100Y030850D01*
X026881Y033069D01*
X026769Y033069D01*
X024100Y027400D02*
X023588Y027400D01*
X023475Y027513D01*
X022725Y027513D02*
X022612Y027400D01*
X022100Y027400D01*
X022100Y026800D02*
X022100Y026350D01*
X022600Y025850D01*
X022600Y022850D01*
X023100Y023350D02*
X023100Y025350D01*
X024100Y026350D01*
X024100Y026800D01*
X023475Y026687D02*
X023437Y026687D01*
X023437Y026437D01*
X023100Y026100D01*
X022763Y026437D01*
X022763Y026687D01*
X022725Y026687D01*
X021350Y025600D02*
X021350Y025350D01*
X021350Y024850D01*
X021600Y024600D01*
X021600Y024150D01*
X020850Y024150D02*
X020850Y024600D01*
X020350Y025100D01*
X020350Y025350D01*
X020350Y025600D01*
X019600Y026350D01*
X019100Y025850D02*
X019100Y025400D01*
X019150Y025350D01*
X019150Y025050D01*
X019600Y024600D01*
X019874Y024600D01*
X019874Y024100D02*
X020800Y024100D01*
X020850Y024150D01*
X020800Y023600D02*
X019874Y023600D01*
X019100Y023600D01*
X018850Y023850D01*
X018850Y024600D01*
X018475Y024975D01*
X017975Y024975D01*
X017725Y025225D01*
X018100Y025350D02*
X018550Y025350D01*
X017826Y024600D02*
X017600Y024600D01*
X017350Y024850D01*
X016600Y025600D02*
X016350Y025600D01*
X016100Y026850D02*
X020100Y026850D01*
X021350Y025600D01*
X020800Y023600D02*
X020850Y023550D01*
X021600Y023550D02*
X021600Y023100D01*
X023100Y021350D02*
X023100Y018100D01*
X023350Y017850D01*
X023350Y016850D01*
X022600Y016100D01*
X022124Y016100D01*
X022124Y016600D02*
X021350Y016600D01*
X021350Y017300D01*
X021400Y017350D01*
X022300Y017350D01*
X022600Y017850D02*
X022900Y017550D01*
X022900Y017350D01*
X023850Y017850D02*
X023850Y016600D01*
X023600Y016350D01*
X023600Y014850D01*
X024350Y014100D01*
X024850Y014100D01*
X025100Y014350D01*
X025100Y014550D01*
X025150Y014600D01*
X025150Y014900D01*
X025600Y015350D01*
X025850Y015600D01*
X026576Y015600D01*
X026576Y016100D02*
X025763Y016100D01*
X026350Y016600D02*
X026100Y016850D01*
X025350Y016850D01*
X024600Y016850D01*
X024100Y016350D01*
X024100Y015350D01*
X024550Y014900D01*
X024550Y014600D01*
X023100Y014850D02*
X022650Y014400D01*
X022650Y014350D01*
X022050Y014350D02*
X022050Y015026D01*
X022124Y015100D01*
X022124Y015600D02*
X022850Y015600D01*
X021350Y015350D02*
X021350Y016600D01*
X020850Y016350D02*
X020600Y016100D01*
X020076Y016100D01*
X019263Y016100D01*
X019350Y015600D02*
X019100Y015350D01*
X018650Y014900D01*
X018650Y014600D01*
X018600Y014550D01*
X018600Y014350D01*
X018350Y014100D01*
X017600Y014100D01*
X017100Y014600D01*
X017100Y017600D01*
X019600Y020100D01*
X020600Y020100D01*
X020850Y019600D02*
X020850Y019400D01*
X020800Y019350D01*
X020600Y019150D01*
X020600Y018350D01*
X020100Y017850D01*
X020100Y017600D01*
X020050Y017550D01*
X019600Y017550D01*
X020100Y017600D02*
X020100Y017100D01*
X020076Y016600D02*
X019850Y016600D01*
X019600Y016850D01*
X018850Y016850D01*
X018100Y016850D01*
X017600Y016350D01*
X017600Y015350D01*
X018050Y014900D01*
X018050Y014600D01*
X019350Y015600D02*
X020076Y015600D01*
X020076Y015100D02*
X019850Y015100D01*
X019850Y014600D01*
X020550Y014550D02*
X020550Y014350D01*
X020550Y013650D01*
X020600Y013600D01*
X021150Y014350D02*
X022050Y014350D01*
X021350Y015350D02*
X020550Y014550D01*
X018437Y016100D02*
X017975Y016100D01*
X016400Y017350D02*
X016400Y017550D01*
X016100Y017850D01*
X015800Y017350D02*
X014900Y017350D01*
X014850Y017300D01*
X014850Y016850D01*
X015100Y016600D01*
X015624Y016600D01*
X015624Y015600D02*
X015624Y015124D01*
X015600Y015100D01*
X015350Y015100D01*
X014850Y014600D01*
X015624Y015100D02*
X015624Y015600D01*
X014350Y016350D02*
X014350Y017300D01*
X014300Y017350D01*
X014350Y016350D02*
X014100Y016100D01*
X013576Y016100D01*
X012763Y016100D01*
X012850Y015600D02*
X012600Y015350D01*
X012150Y014900D01*
X012150Y014600D01*
X012100Y014550D01*
X012100Y014350D01*
X011850Y014100D01*
X011100Y014100D01*
X010350Y014850D01*
X010350Y016850D01*
X011100Y016350D02*
X011600Y016850D01*
X012350Y016850D01*
X013100Y016850D01*
X013350Y016600D01*
X013576Y016600D01*
X013300Y017550D02*
X013100Y017550D01*
X013300Y017550D02*
X014100Y018350D01*
X014100Y019150D01*
X014300Y019350D01*
X013600Y020050D01*
X013600Y020100D01*
X014900Y019350D02*
X015100Y019150D01*
X015100Y018350D01*
X015725Y018350D01*
X013100Y018150D02*
X012900Y018350D01*
X012350Y018350D01*
X010350Y018350D02*
X010350Y020050D01*
X009600Y020050D01*
X009600Y020650D02*
X009600Y021100D01*
X009100Y021600D01*
X009350Y022100D02*
X010350Y021100D01*
X010350Y020650D01*
X008850Y020850D02*
X007100Y022600D01*
X006350Y021600D02*
X007100Y020850D01*
X007100Y020475D01*
X007050Y020425D01*
X007050Y020350D01*
X006850Y020150D01*
X006850Y019350D01*
X007850Y019350D02*
X007850Y018150D01*
X007100Y018150D01*
X007050Y018100D01*
X006850Y018100D01*
X006600Y017850D01*
X006124Y017850D01*
X006124Y017350D02*
X006600Y017350D01*
X006725Y017475D01*
X007025Y017475D01*
X007100Y017550D01*
X007850Y017550D01*
X007850Y016800D01*
X007775Y016725D01*
X007175Y016725D02*
X007175Y016675D01*
X006725Y016225D01*
X005975Y016225D01*
X005600Y016100D02*
X005600Y016600D01*
X005850Y016850D01*
X006124Y016850D01*
X004975Y016975D02*
X004975Y015975D01*
X004350Y015350D01*
X005100Y015350D02*
X005100Y014100D01*
X005850Y015350D02*
X005850Y015850D01*
X005600Y016100D01*
X004600Y016350D02*
X004600Y016600D01*
X004350Y016850D01*
X004076Y016850D01*
X004076Y017350D02*
X004600Y017350D01*
X004975Y016975D01*
X004225Y016225D02*
X003175Y016225D01*
X003100Y016300D01*
X003100Y016900D02*
X003100Y017800D01*
X002350Y017800D01*
X002350Y018400D02*
X003100Y018400D01*
X003100Y019350D01*
X004100Y019100D02*
X004800Y019100D01*
X005350Y019150D02*
X005400Y019100D01*
X005400Y018800D01*
X005850Y018350D01*
X006124Y018350D01*
X005350Y019150D02*
X005350Y020850D01*
X005350Y022600D01*
X004850Y022850D02*
X004350Y022850D01*
X002350Y020850D01*
X002350Y020350D01*
X002300Y020350D01*
X002100Y020150D01*
X002100Y019350D01*
X002900Y020350D02*
X003600Y020350D01*
X001475Y021725D02*
X003350Y023600D01*
X003350Y024600D01*
X005100Y024100D02*
X005600Y023600D01*
X007100Y024100D02*
X007100Y025300D01*
X007100Y024100D02*
X007600Y023600D01*
X008850Y020850D02*
X008850Y016850D01*
X007350Y015350D01*
X006850Y015350D01*
X003350Y015350D02*
X003100Y015350D01*
X001475Y016975D01*
X001475Y021725D01*
X003100Y018400D02*
X003150Y018350D01*
X004076Y018350D01*
X004076Y017850D02*
X003150Y017850D01*
X003100Y017800D01*
X007650Y020350D02*
X008350Y020350D01*
X011100Y016350D02*
X011100Y015350D01*
X011550Y014900D01*
X011550Y014600D01*
X012850Y015600D02*
X013576Y015600D01*
X013576Y015100D02*
X013350Y015100D01*
X013350Y014600D01*
X011937Y016100D02*
X011475Y016100D01*
X018850Y018350D02*
X019400Y018350D01*
X019600Y018150D01*
X020800Y017350D02*
X020850Y017300D01*
X020850Y016350D01*
X021600Y018350D02*
X022225Y018350D01*
X021600Y018350D02*
X021600Y019150D01*
X021400Y019350D01*
X021600Y019850D02*
X021100Y019850D01*
X020850Y019600D01*
X021600Y019850D02*
X022600Y020850D01*
X024850Y022350D02*
X024850Y023050D01*
X025600Y023100D02*
X025600Y022725D01*
X025600Y023100D02*
X025826Y023100D01*
X025826Y023600D02*
X024900Y023600D01*
X024850Y023650D01*
X025100Y024100D02*
X024600Y024600D01*
X025100Y024100D02*
X025826Y024100D01*
X026269Y027019D02*
X026769Y027019D01*
X030100Y026800D02*
X030100Y026350D01*
X031100Y025350D01*
X031100Y022350D01*
X028600Y019850D01*
X027600Y019850D01*
X027350Y019600D01*
X027350Y019400D01*
X027300Y019350D01*
X027100Y019150D01*
X027100Y018350D01*
X026600Y017850D01*
X026600Y017600D01*
X026550Y017550D01*
X026100Y017550D01*
X026600Y017600D02*
X026600Y017100D01*
X026576Y016600D02*
X026350Y016600D01*
X026576Y016100D02*
X027100Y016100D01*
X027350Y016350D01*
X027350Y017300D01*
X027300Y017350D01*
X027850Y017300D02*
X027900Y017350D01*
X028800Y017350D01*
X029100Y017850D02*
X029400Y017550D01*
X029400Y017350D01*
X030100Y016850D02*
X029350Y016100D01*
X028624Y016100D01*
X028624Y016600D02*
X027850Y016600D01*
X027850Y017300D01*
X027850Y016600D02*
X027850Y015350D01*
X027050Y014550D01*
X027050Y014350D01*
X027050Y013650D01*
X027100Y013600D01*
X027650Y014350D02*
X028550Y014350D01*
X028550Y015026D01*
X028624Y015100D01*
X028624Y015600D02*
X029350Y015600D01*
X029600Y014850D02*
X029150Y014400D01*
X029150Y014350D01*
X030600Y013100D02*
X028600Y011100D01*
X028600Y010100D02*
X029100Y009600D01*
X030100Y009600D01*
X031350Y010850D01*
X031350Y018850D01*
X037100Y024600D01*
X037100Y033225D01*
X037225Y033350D01*
X037975Y033350D01*
X038475Y033850D01*
X061600Y033850D01*
X062850Y035100D01*
X062350Y035100D02*
X061350Y034100D01*
X038350Y034100D01*
X037850Y033600D01*
X037100Y033600D01*
X036850Y033350D01*
X036850Y024850D01*
X031100Y019100D01*
X031100Y011600D01*
X029600Y010100D01*
X029600Y011100D02*
X030850Y012350D01*
X030850Y019350D01*
X036600Y025100D01*
X036600Y033475D01*
X036975Y033850D01*
X037725Y033850D01*
X038225Y034350D01*
X061100Y034350D01*
X061850Y035100D01*
X061350Y035100D02*
X060850Y034600D01*
X038100Y034600D01*
X037600Y034100D01*
X036850Y034100D01*
X036350Y033600D01*
X036350Y025350D01*
X030600Y019600D01*
X030600Y013100D01*
X032100Y011100D02*
X032350Y010850D01*
X032100Y011100D02*
X032100Y017100D01*
X032550Y017550D01*
X032550Y017600D01*
X032550Y017900D01*
X032350Y018100D01*
X032350Y018600D01*
X033350Y018600D02*
X034850Y018600D01*
X036850Y020600D01*
X038850Y018600D02*
X052350Y018600D01*
X053100Y019350D01*
X062350Y019350D01*
X062411Y019411D01*
X062411Y027100D01*
X054269Y029019D02*
X053850Y028600D01*
X053850Y027600D01*
X054269Y029019D02*
X054269Y029131D01*
X049269Y029131D02*
X049269Y029019D01*
X048850Y028600D01*
X048850Y027600D01*
X044269Y029019D02*
X043850Y028600D01*
X043850Y027600D01*
X044269Y029019D02*
X044269Y029131D01*
X039269Y029131D02*
X039269Y029019D01*
X038850Y028600D01*
X038850Y027600D01*
X034850Y024850D02*
X032850Y026850D01*
X032100Y026800D02*
X032100Y022850D01*
X030100Y020850D01*
X030100Y016850D01*
X028725Y018350D02*
X028100Y018350D01*
X028100Y019150D01*
X027900Y019350D01*
X028600Y020350D02*
X026350Y020350D01*
X023850Y017850D01*
X025350Y018350D02*
X025900Y018350D01*
X026100Y018150D01*
X028600Y020350D02*
X030600Y022350D01*
X030600Y022850D01*
X029600Y023100D02*
X029600Y023550D01*
X031100Y025850D02*
X030763Y026187D01*
X030763Y026687D01*
X030725Y026687D01*
X031437Y026687D02*
X031437Y026187D01*
X031100Y025850D01*
X031437Y026687D02*
X031475Y026687D01*
X031588Y027400D02*
X031475Y027513D01*
X031588Y027400D02*
X032100Y027400D01*
X030725Y027513D02*
X030612Y027400D01*
X030100Y027400D01*
X018600Y027350D02*
X015850Y027350D01*
X013600Y025100D02*
X013600Y021600D01*
X017600Y022725D02*
X017600Y023100D01*
X017826Y023100D01*
X024475Y016100D02*
X024937Y016100D01*
X026350Y015100D02*
X026350Y014600D01*
X026350Y015100D02*
X026576Y015100D01*
X033150Y017600D02*
X033150Y017900D01*
X033350Y018100D01*
X033350Y018600D01*
X035300Y016800D02*
X035600Y017100D01*
X037100Y017100D01*
X035300Y016800D02*
X035300Y016600D01*
X038100Y014350D02*
X038600Y014850D01*
X040350Y014850D01*
X040300Y014900D01*
X040300Y015600D01*
X039850Y016050D01*
X039850Y016600D01*
X040900Y015600D02*
X041350Y015600D01*
X040350Y014850D02*
X053850Y014850D01*
X054300Y015300D01*
X054300Y015600D01*
X053850Y016050D01*
X053850Y016600D01*
X054900Y015600D02*
X055350Y015600D01*
X062350Y019350D02*
X065100Y019350D01*
X065100Y020350D01*
X065100Y020850D01*
X064900Y021050D01*
X064900Y021350D01*
X064300Y021350D02*
X064300Y021050D01*
X064100Y020850D01*
X064100Y020350D01*
X063350Y020350D01*
X065100Y019350D02*
X066600Y019350D01*
X067350Y018600D01*
X066650Y005350D02*
X066650Y005050D01*
X066850Y004850D01*
X066850Y004350D01*
X065850Y004350D02*
X065100Y004350D01*
X065850Y004350D02*
X065850Y004850D01*
X066050Y005050D01*
X066050Y005350D01*
X062350Y003600D02*
X061900Y003600D01*
X061300Y003600D02*
X061300Y002900D01*
X061350Y002850D01*
X061300Y003600D02*
X060850Y004050D01*
X060850Y004600D01*
X048350Y003600D02*
X047900Y003600D01*
X047300Y003600D02*
X047300Y002900D01*
X047350Y002850D01*
X047300Y003600D02*
X046850Y004050D01*
X046850Y004600D01*
X042850Y004100D02*
X039850Y004100D01*
X039850Y005150D01*
X039850Y005600D01*
X039600Y005850D01*
X039076Y005850D01*
X038350Y005850D01*
X038100Y005600D01*
X037100Y004100D02*
X039850Y004100D01*
X037100Y004100D02*
X036600Y003600D01*
X033850Y003600D01*
X033850Y004050D01*
X033850Y003600D02*
X025850Y003600D01*
X025850Y004050D01*
X025850Y003600D02*
X017850Y003600D01*
X017850Y004050D01*
X017850Y003600D02*
X010100Y003600D01*
X009850Y003850D01*
X009850Y004050D01*
X041124Y007850D02*
X041850Y007850D01*
X041850Y008850D02*
X041124Y008850D01*
X066575Y032625D02*
X066600Y032600D01*
D35*
X064281Y030116D02*
X061919Y030116D01*
X061919Y028169D01*
X053600Y019850D01*
X052350Y019850D01*
X051600Y019100D01*
X052350Y017600D02*
X053600Y018850D01*
X065100Y018850D01*
X066850Y017100D01*
X067850Y017100D01*
X068350Y016600D01*
X067850Y016100D02*
X068350Y015600D01*
X067850Y015100D02*
X068350Y014600D01*
X067850Y014100D02*
X068350Y013600D01*
X067850Y014100D02*
X066100Y014100D01*
X064350Y015850D01*
X058100Y015850D01*
X057600Y015350D01*
X058100Y015350D02*
X064100Y015350D01*
X065850Y013600D01*
X067350Y013600D01*
X067850Y013100D02*
X066600Y013100D01*
X066100Y012600D02*
X067350Y012600D01*
X067850Y012100D02*
X068350Y011600D01*
X067850Y011100D02*
X068350Y010600D01*
X068350Y009600D02*
X067850Y009100D01*
X063350Y009100D01*
X062100Y010350D01*
X056850Y010350D01*
X056350Y009850D01*
X048100Y009850D01*
X047600Y009350D02*
X056350Y009350D01*
X056850Y009850D01*
X062100Y009850D01*
X063350Y008600D01*
X067350Y008600D01*
X067100Y008100D02*
X067850Y008100D01*
X068350Y008600D01*
X068350Y007600D02*
X067850Y007100D01*
X065350Y007100D01*
X064350Y008100D01*
X065350Y007600D02*
X066600Y007600D01*
X067100Y008100D01*
X067350Y006600D02*
X064850Y006600D01*
X062100Y009350D01*
X056850Y009350D01*
X056350Y008850D01*
X047100Y008850D01*
X046600Y008350D02*
X056350Y008350D01*
X056850Y008850D01*
X062100Y008850D01*
X064850Y006100D01*
X067850Y006100D01*
X068350Y006600D01*
X067350Y009600D02*
X063350Y009600D01*
X062100Y010850D01*
X056850Y010850D01*
X056350Y010350D01*
X048600Y010350D01*
X049100Y010850D02*
X056350Y010850D01*
X056850Y011350D01*
X062100Y011350D01*
X063350Y010100D01*
X063850Y010100D01*
X064350Y010100D02*
X062600Y011850D01*
X056850Y011850D01*
X056350Y011350D01*
X049600Y011350D01*
X049100Y011850D02*
X056100Y011850D01*
X056100Y014850D02*
X063850Y014850D01*
X066100Y012600D01*
X065850Y012100D02*
X067850Y012100D01*
X067350Y011600D02*
X065600Y011600D01*
X063350Y013850D01*
X048350Y013850D01*
X044350Y009850D01*
X040600Y009850D01*
X040100Y009350D01*
X040100Y008350D01*
X039600Y007850D01*
X039076Y007850D01*
X039076Y008350D02*
X038350Y008350D01*
X035600Y005600D01*
X014350Y005600D01*
X012800Y004050D01*
X011350Y004050D01*
X010600Y004050D01*
X010600Y004650D02*
X009850Y004650D01*
X009800Y004600D01*
X008850Y004600D01*
X008350Y004100D01*
X008297Y004100D01*
X008281Y004084D01*
X005919Y004084D01*
X011350Y004600D02*
X011850Y004600D01*
X011350Y004600D02*
X011350Y004650D01*
X013919Y004084D02*
X016281Y004084D01*
X016297Y004100D01*
X016350Y004100D01*
X016850Y004600D01*
X017800Y004600D01*
X017850Y004650D01*
X018600Y004650D01*
X019350Y004650D02*
X019350Y004600D01*
X019850Y004600D01*
X019800Y004050D02*
X019350Y004050D01*
X018600Y004050D01*
X019800Y004050D02*
X021100Y005350D01*
X035850Y005350D01*
X037850Y007350D01*
X039076Y007350D01*
X039076Y006850D02*
X039600Y006850D01*
X040350Y007600D01*
X040350Y009100D01*
X040850Y009600D01*
X044600Y009600D01*
X048350Y013350D01*
X062850Y013350D01*
X065100Y011100D01*
X066600Y011100D01*
X067350Y010600D02*
X064850Y010600D01*
X062600Y012850D01*
X048350Y012850D01*
X044350Y008850D01*
X042600Y008850D01*
X042350Y008600D01*
X042350Y007850D01*
X041850Y007350D01*
X041124Y007350D01*
X041124Y006850D02*
X043350Y006850D01*
X043350Y006400D01*
X043400Y006350D01*
X043350Y006850D02*
X043600Y007100D01*
X043600Y007550D01*
X043600Y008150D02*
X042850Y008150D01*
X042850Y007550D02*
X042850Y007100D01*
X042800Y006350D02*
X042350Y006350D01*
X041850Y006350D02*
X042600Y005600D01*
X043600Y005600D01*
X044600Y006600D01*
X044600Y007350D01*
X049100Y011850D01*
X048350Y012350D02*
X044150Y008150D01*
X043600Y008150D01*
X041850Y006350D02*
X041124Y006350D01*
X040350Y005850D02*
X040100Y006100D01*
X038100Y006100D01*
X036050Y004050D01*
X035350Y004050D01*
X034600Y004050D01*
X034600Y004650D02*
X033850Y004650D01*
X033800Y004600D01*
X032850Y004600D01*
X032350Y004100D01*
X032297Y004100D01*
X032281Y004084D01*
X029919Y004084D01*
X029050Y004050D02*
X030100Y005100D01*
X036100Y005100D01*
X037350Y006350D01*
X039076Y006350D01*
X040350Y005850D02*
X041124Y005850D01*
X040850Y005100D02*
X040400Y005100D01*
X039850Y005150D02*
X039800Y005100D01*
X042850Y005100D02*
X042850Y004100D01*
X046350Y004600D02*
X046350Y005350D01*
X048100Y007100D01*
X055850Y007100D01*
X056600Y007850D01*
X057100Y007850D02*
X055850Y006600D01*
X049600Y006600D01*
X048350Y005350D01*
X048350Y004600D01*
X044100Y010100D02*
X040350Y010100D01*
X039850Y009600D01*
X039850Y009100D01*
X039600Y008850D01*
X039076Y008850D01*
X039350Y010850D02*
X036850Y008350D01*
X034600Y008350D01*
X032100Y005850D01*
X016350Y005850D01*
X015600Y006600D01*
X015600Y006850D01*
X016600Y006850D02*
X016600Y006600D01*
X017100Y006100D01*
X031600Y006100D01*
X034350Y008850D01*
X035100Y008850D01*
X036850Y008850D01*
X039350Y011350D01*
X044600Y011350D01*
X045100Y011850D02*
X039350Y011850D01*
X036850Y009350D01*
X032600Y009350D01*
X031100Y007850D01*
X026350Y007850D01*
X025600Y007100D01*
X025600Y006850D01*
X024600Y006850D02*
X024600Y007100D01*
X025600Y008100D01*
X030850Y008100D01*
X032350Y009600D01*
X036600Y009600D01*
X039350Y012350D01*
X045600Y012350D01*
X046100Y012850D02*
X039350Y012850D01*
X036350Y009850D01*
X032100Y009850D01*
X030600Y008350D01*
X013850Y008350D01*
X012600Y007100D01*
X012600Y006850D01*
X008100Y010300D02*
X006400Y010300D01*
X006100Y010600D01*
X005800Y010600D01*
X005800Y009850D01*
X006400Y009850D02*
X007100Y009850D01*
X007124Y010600D02*
X007124Y011100D01*
X007124Y011600D02*
X007600Y011600D01*
X007850Y011350D01*
X008100Y011350D01*
X008350Y011350D01*
X008650Y011050D01*
X008850Y011050D01*
X008850Y011650D02*
X008850Y012350D01*
X008150Y012350D01*
X008100Y012400D01*
X007900Y012400D01*
X007600Y012100D01*
X007124Y012100D01*
X008100Y011800D02*
X008100Y011350D01*
X008100Y010900D01*
X005800Y010600D02*
X005076Y010600D01*
X004600Y010600D01*
X004300Y010300D01*
X004100Y010300D01*
X004100Y009600D01*
X004100Y010900D02*
X004100Y011350D01*
X003850Y011350D01*
X003550Y011050D01*
X003350Y011050D01*
X003350Y011650D02*
X003350Y012350D01*
X004050Y012350D01*
X004100Y012400D01*
X004150Y011850D02*
X004100Y011800D01*
X004100Y011350D01*
X004150Y011850D02*
X004350Y011850D01*
X004600Y012100D01*
X005076Y012100D01*
X005076Y011600D02*
X005076Y011100D01*
X021919Y004084D02*
X024281Y004084D01*
X024334Y004084D01*
X024850Y004600D01*
X025800Y004600D01*
X025850Y004650D01*
X026600Y004650D01*
X027350Y004650D02*
X027350Y004600D01*
X027850Y004600D01*
X027350Y004050D02*
X026600Y004050D01*
X027350Y004050D02*
X029050Y004050D01*
X035350Y004600D02*
X035850Y004600D01*
X035350Y004600D02*
X035350Y004650D01*
X036100Y010100D02*
X033850Y010100D01*
X032475Y011475D01*
X032475Y014975D01*
X033216Y015716D01*
X033216Y016702D01*
X032960Y016702D02*
X032960Y017210D01*
X033100Y017350D01*
X033100Y017550D01*
X033150Y017600D01*
X033728Y017728D02*
X034100Y018100D01*
X035100Y018100D01*
X040850Y023850D01*
X040850Y025283D01*
X040783Y025350D01*
X040850Y025350D01*
X041100Y025600D01*
X041100Y026550D01*
X040350Y026550D01*
X039600Y026550D01*
X039600Y027150D02*
X039400Y027150D01*
X038850Y026600D01*
X038850Y026100D01*
X039474Y025724D02*
X039100Y025350D01*
X039474Y025724D02*
X039917Y025724D01*
X039917Y024976D02*
X039850Y024909D01*
X039850Y023850D01*
X041850Y023850D02*
X049850Y023850D01*
X050850Y024850D01*
X050850Y025283D01*
X050783Y025350D01*
X050850Y025350D01*
X051100Y025600D01*
X051100Y026550D01*
X050350Y026550D01*
X049600Y026550D01*
X049600Y027150D02*
X049400Y027150D01*
X048850Y026600D01*
X048850Y026100D01*
X049474Y025724D02*
X049100Y025350D01*
X049474Y025724D02*
X049917Y025724D01*
X049917Y024976D02*
X048724Y024976D01*
X048100Y024350D01*
X045850Y024850D02*
X045850Y025283D01*
X045783Y025350D01*
X045850Y025350D01*
X046100Y025600D01*
X046100Y026550D01*
X045350Y026550D01*
X044600Y026550D01*
X044600Y027150D02*
X044400Y027150D01*
X043850Y026600D01*
X043850Y026100D01*
X044474Y025724D02*
X044100Y025350D01*
X044474Y025724D02*
X044917Y025724D01*
X044917Y024976D02*
X043224Y024976D01*
X043100Y024850D01*
X041850Y024350D02*
X045350Y024350D01*
X045850Y024850D01*
X046100Y027150D02*
X045350Y027150D01*
X045350Y027600D01*
X041100Y027150D02*
X040350Y027150D01*
X040350Y027600D01*
X041850Y024350D02*
X035350Y017850D01*
X034350Y017850D01*
X033984Y017484D01*
X033984Y016702D01*
X034240Y016702D02*
X034240Y017240D01*
X034600Y017600D01*
X035600Y017600D01*
X041850Y023850D01*
X041850Y023350D02*
X054350Y023350D01*
X055850Y024850D01*
X055850Y025283D01*
X055783Y025350D01*
X056100Y025667D01*
X056100Y026550D01*
X055350Y026550D01*
X054600Y026550D01*
X054600Y027150D02*
X054400Y027150D01*
X053850Y026600D01*
X053850Y026100D01*
X054474Y025724D02*
X054100Y025350D01*
X054224Y024976D02*
X053100Y023850D01*
X054224Y024976D02*
X054917Y024976D01*
X054917Y025724D02*
X054474Y025724D01*
X055350Y027150D02*
X055350Y027600D01*
X055350Y027150D02*
X056100Y027150D01*
X051100Y027150D02*
X050350Y027150D01*
X050350Y027600D01*
X041850Y023350D02*
X035850Y017350D01*
X034850Y017350D01*
X034496Y016996D01*
X034496Y016702D01*
X033728Y016702D02*
X033728Y017728D01*
X033475Y016705D02*
X033472Y016702D01*
X033472Y016347D01*
X033600Y016225D01*
X033600Y015600D01*
X033600Y014975D01*
X034475Y014975D01*
X034496Y014996D01*
X034850Y015350D01*
X035350Y015350D01*
X035300Y015400D01*
X035300Y015850D01*
X035350Y015350D02*
X035476Y015224D01*
X036033Y015224D01*
X035900Y015850D02*
X036350Y015850D01*
X036600Y015600D01*
X036600Y014600D01*
X036476Y014476D01*
X036033Y014476D01*
X035976Y014476D01*
X035475Y013975D01*
X034350Y013975D01*
X034240Y014085D01*
X034240Y014498D01*
X034496Y014498D02*
X034496Y014829D01*
X034496Y014996D02*
X034496Y014498D01*
X033984Y014498D02*
X033984Y014109D01*
X033850Y013975D01*
X033728Y014097D01*
X033728Y014498D01*
X033472Y014498D02*
X033472Y014847D01*
X033600Y014975D01*
X033216Y014498D02*
X033216Y012216D01*
X033582Y011850D01*
X035850Y011850D01*
X037850Y013850D01*
X047100Y013850D01*
X046600Y013350D02*
X039350Y013350D01*
X036100Y010100D01*
X034600Y010600D02*
X033850Y010600D01*
X032704Y011746D01*
X032704Y014498D01*
X032960Y014498D02*
X032960Y011990D01*
X033600Y011350D01*
X034600Y011350D01*
X035100Y012350D02*
X035100Y012600D01*
X034850Y012850D01*
X034600Y012850D01*
X034400Y013050D01*
X034100Y013050D01*
X034100Y013100D01*
X033600Y013100D01*
X034100Y013650D02*
X034100Y013725D01*
X033850Y013975D01*
X035900Y015850D02*
X035900Y016600D01*
X032704Y016702D02*
X032704Y016329D01*
X032475Y016100D01*
X039350Y016600D02*
X039350Y016850D01*
X040100Y017600D01*
X052350Y017600D01*
X052600Y017100D02*
X053850Y018350D01*
X065100Y018350D01*
X066850Y016600D01*
X067350Y016600D01*
X066850Y016100D02*
X067850Y016100D01*
X067350Y015600D02*
X066850Y015600D01*
X065100Y017350D01*
X055600Y017350D01*
X055350Y017100D01*
X055350Y016600D01*
X054100Y017850D02*
X065100Y017850D01*
X066850Y016100D01*
X066600Y015100D02*
X067850Y015100D01*
X067350Y014600D02*
X066350Y014600D01*
X064600Y016350D01*
X058100Y016350D01*
X057100Y015350D01*
X056600Y015350D02*
X058100Y016850D01*
X064850Y016850D01*
X066600Y015100D01*
X063600Y014350D02*
X065850Y012100D01*
X067850Y013100D02*
X068350Y012600D01*
X063600Y014350D02*
X048350Y014350D01*
X044100Y010100D01*
X044100Y010850D02*
X039350Y010850D01*
X048350Y012350D02*
X051100Y012350D01*
X053350Y016600D02*
X053350Y017100D01*
X054100Y017850D01*
X052600Y017100D02*
X041600Y017100D01*
X041350Y016850D01*
X041350Y016600D01*
X057600Y007850D02*
X060350Y005100D01*
X060350Y004600D01*
X060850Y005100D02*
X058100Y007850D01*
X060850Y005100D02*
X062100Y005100D01*
X062350Y004850D01*
X062350Y004600D01*
X067850Y019100D02*
X067850Y025100D01*
X065850Y027100D01*
X065400Y027100D01*
X064800Y027100D02*
X063789Y027100D01*
X062411Y027100D02*
X062411Y027161D01*
X062350Y035100D02*
X063350Y036100D01*
X063350Y037850D01*
X063844Y038344D01*
X064482Y038344D01*
X064482Y038088D02*
X064737Y038088D01*
X064975Y037850D01*
X065850Y037850D01*
X065850Y038175D01*
X065900Y038225D01*
X065850Y037850D02*
X065850Y037400D01*
X065900Y037475D01*
X065350Y037425D02*
X065300Y037475D01*
X064975Y037475D01*
X064618Y037832D01*
X064482Y037832D01*
X063850Y037350D02*
X063850Y036100D01*
X062850Y035100D01*
X061850Y035100D02*
X063100Y036350D01*
X063100Y038350D01*
X062594Y038856D01*
X062218Y038856D01*
X062218Y039112D02*
X061963Y039112D01*
X061850Y039225D01*
X061850Y039600D01*
X061725Y039725D01*
X060850Y039725D01*
X060850Y040050D01*
X060800Y040100D01*
X060850Y039725D02*
X060850Y039400D01*
X060800Y039350D01*
X060725Y038975D02*
X060600Y038850D01*
X060600Y038650D01*
X060550Y038600D01*
X060600Y038550D01*
X060600Y038350D01*
X060725Y038225D01*
X061225Y038225D01*
X061400Y038050D01*
X061400Y037850D01*
X061850Y037975D02*
X061850Y037600D01*
X061725Y037475D01*
X060850Y037475D01*
X060850Y037150D01*
X060800Y037100D01*
X060850Y037475D02*
X060850Y037800D01*
X060800Y037850D01*
X060550Y038600D02*
X060100Y038600D01*
X060725Y038975D02*
X061225Y038975D01*
X061400Y039150D01*
X061400Y039350D01*
X061150Y038600D02*
X061725Y038600D01*
X062218Y038600D01*
X062218Y038344D02*
X062606Y038344D01*
X062850Y038100D01*
X062850Y036600D01*
X061350Y035100D01*
X061225Y036600D02*
X059350Y036600D01*
X056850Y039100D01*
X055462Y039100D01*
X055431Y039069D01*
X052100Y040600D02*
X050600Y039100D01*
X050431Y039069D01*
X052100Y040600D02*
X061225Y040600D01*
X061400Y040425D01*
X061400Y040100D01*
X061975Y040100D01*
X062475Y039600D01*
X062475Y039475D01*
X062368Y039368D01*
X062218Y039368D01*
X062218Y038088D02*
X061963Y038088D01*
X061850Y037975D01*
X062218Y037832D02*
X062368Y037832D01*
X062475Y037725D01*
X062475Y037600D01*
X061975Y037100D01*
X061400Y037100D01*
X061350Y037050D01*
X061350Y036725D01*
X061225Y036600D01*
X063350Y038600D02*
X063606Y038856D01*
X064482Y038856D01*
X064482Y039112D02*
X064737Y039112D01*
X064975Y039350D01*
X065850Y039350D01*
X065850Y039675D01*
X065900Y039725D01*
X065850Y039350D02*
X065850Y039025D01*
X065900Y038975D01*
X065300Y038975D02*
X065300Y038600D01*
X064975Y038600D01*
X064482Y038600D01*
X064482Y039112D02*
X064463Y039112D01*
X064482Y039368D02*
X063832Y039368D01*
X062100Y041100D01*
X047600Y041100D01*
X045600Y039100D01*
X045431Y039069D01*
X043100Y041600D02*
X065100Y041600D01*
X066475Y040225D01*
X066475Y037225D01*
X066225Y036975D01*
X065600Y036975D01*
X065350Y037225D01*
X065350Y037425D01*
X065300Y038225D02*
X065300Y038600D01*
X064618Y039368D02*
X064975Y039725D01*
X065300Y039725D01*
X064618Y039368D02*
X064482Y039368D01*
X043100Y041600D02*
X040569Y039069D01*
X040431Y039069D01*
D36*
X027600Y027975D03*
X026350Y027975D03*
X026769Y027019D03*
X026350Y026350D03*
X026850Y025850D03*
X027600Y026350D03*
X026100Y025350D03*
X025600Y022725D03*
X023100Y023350D03*
X022600Y022850D03*
X021600Y023100D03*
X023100Y021350D03*
X022600Y020850D03*
X020600Y020100D03*
X018850Y020600D03*
X018850Y021600D03*
X017600Y022725D03*
X016100Y023350D03*
X017350Y025350D03*
X018100Y025350D03*
X019100Y025850D03*
X019600Y026350D03*
X020100Y027600D03*
X018600Y027350D03*
X017100Y026475D03*
X015850Y027350D03*
X015600Y026850D03*
X013600Y026600D03*
X013600Y025100D03*
X010850Y026600D03*
X010350Y026100D03*
X005100Y028850D03*
X004600Y029600D03*
X006100Y030100D03*
X007850Y032600D03*
X010350Y033600D03*
X008600Y034100D03*
X004850Y036100D03*
X016100Y028850D03*
X016600Y028850D03*
X017100Y029850D03*
X020100Y031350D03*
X023100Y026100D03*
X021600Y024600D03*
X013600Y021600D03*
X013600Y020100D03*
X015725Y018350D03*
X016100Y017850D03*
X017975Y016100D03*
X020100Y017100D03*
X022225Y018350D03*
X022600Y017850D03*
X024475Y016100D03*
X022850Y015600D03*
X023100Y014850D03*
X019850Y014600D03*
X014850Y014600D03*
X013350Y014600D03*
X011475Y016100D03*
X010350Y016850D03*
X010350Y018350D03*
X008350Y020350D03*
X009100Y021600D03*
X009350Y022100D03*
X007100Y022600D03*
X006350Y021600D03*
X005350Y020850D03*
X003600Y020350D03*
X004100Y019100D03*
X004600Y016350D03*
X004225Y016225D03*
X005100Y015350D03*
X005975Y016225D03*
X003350Y012350D03*
X004100Y009600D03*
X007100Y009850D03*
X008850Y012350D03*
X011850Y004600D03*
X019850Y004600D03*
X027850Y004600D03*
X034600Y008350D03*
X035100Y008850D03*
X034600Y010600D03*
X034600Y011350D03*
X033600Y013100D03*
X036100Y013350D03*
X038100Y014350D03*
X041350Y015600D03*
X038850Y018600D03*
X039600Y020100D03*
X036850Y020600D03*
X039850Y023850D03*
X039100Y025350D03*
X040350Y027600D03*
X044100Y025350D03*
X043100Y024850D03*
X043100Y022850D03*
X041600Y022100D03*
X048100Y022850D03*
X048100Y024350D03*
X049100Y025350D03*
X050350Y027600D03*
X054100Y025350D03*
X053100Y023850D03*
X053100Y022850D03*
X051600Y019100D03*
X055350Y015600D03*
X056100Y014850D03*
X056600Y015350D03*
X057100Y015350D03*
X057600Y015350D03*
X058100Y015350D03*
X056100Y011850D03*
X051100Y012350D03*
X049600Y011350D03*
X049100Y010850D03*
X048600Y010350D03*
X048100Y009850D03*
X047600Y009350D03*
X047100Y008850D03*
X046600Y008350D03*
X044100Y010850D03*
X044600Y011350D03*
X045100Y011850D03*
X045600Y012350D03*
X046100Y012850D03*
X046600Y013350D03*
X047100Y013850D03*
X041850Y008850D03*
X041850Y007850D03*
X042850Y007100D03*
X042350Y006350D03*
X042850Y005100D03*
X042850Y004100D03*
X040850Y005100D03*
X038100Y005600D03*
X035850Y004600D03*
X032350Y010850D03*
X028600Y013600D03*
X029600Y014850D03*
X029350Y015600D03*
X026600Y017100D03*
X028725Y018350D03*
X029100Y017850D03*
X032475Y016100D03*
X033600Y015600D03*
X034850Y015350D03*
X026350Y014600D03*
X029600Y023100D03*
X030600Y022850D03*
X029600Y024600D03*
X031100Y025850D03*
X032850Y026850D03*
X034850Y024850D03*
X045350Y027600D03*
X055350Y027600D03*
X067850Y019100D03*
X066600Y013100D03*
X066600Y011100D03*
X067850Y011100D03*
X064350Y010100D03*
X063850Y010100D03*
X064350Y008100D03*
X065350Y007600D03*
X067350Y004350D03*
X062350Y003600D03*
X058100Y007850D03*
X057600Y007850D03*
X057100Y007850D03*
X056600Y007850D03*
X048350Y003600D03*
X005350Y022600D03*
X004850Y022850D03*
X003350Y024600D03*
X060100Y038600D03*
X061725Y038600D03*
X063350Y038600D03*
X064975Y038600D03*
X063850Y037350D03*
X064600Y036600D03*
D37*
X068350Y032850D01*
X068350Y019600D01*
X067350Y018600D02*
X067850Y018100D01*
X068600Y018100D01*
X069100Y017600D01*
X069100Y005100D01*
X066350Y002350D01*
X043100Y002350D01*
X041850Y003600D01*
X037350Y003600D01*
X036850Y003100D01*
X006100Y003100D01*
X005350Y003850D01*
X005350Y004350D01*
X006100Y005100D01*
X009100Y005100D01*
X010600Y006600D01*
X010600Y006850D01*
X017350Y013600D02*
X016350Y014600D01*
X016350Y016350D01*
X016100Y016600D01*
X015624Y016600D01*
X017350Y013600D02*
X020600Y013600D01*
X027100Y013600D01*
X028600Y013600D01*
X034100Y013650D02*
X034300Y013650D01*
X034600Y013350D01*
X035100Y013350D01*
X036100Y013350D01*
X037100Y014350D01*
X037100Y017100D01*
X037100Y017600D01*
X039600Y020100D01*
X041600Y022100D01*
X042350Y022850D01*
X043100Y022850D01*
X048100Y022850D01*
X053100Y022850D01*
X054850Y022850D01*
X060350Y028350D01*
X060350Y031850D01*
X061850Y033350D01*
X066350Y033350D01*
X066575Y033125D01*
X066575Y032625D01*
X066600Y031600D02*
X067600Y031600D01*
X067350Y004350D02*
X066850Y004350D01*
X066850Y003600D01*
X066100Y002850D01*
X061350Y002850D01*
X047350Y002850D01*
X044100Y002850D01*
X042850Y004100D01*
D38*
X065100Y004350D03*
X063350Y020350D03*
X067600Y031600D03*
M02*
