G75*
G70*
%OFA0B0*%
%FSLAX24Y24*%
%IPPOS*%
%LPD*%
%AMOC8*
5,1,8,0,0,1.08239X$1,22.5*
%
%ADD10C,0.0000*%
%ADD11R,0.0630X0.0787*%
%ADD12C,0.0098*%
%ADD13R,0.0600X0.0600*%
%ADD14OC8,0.0600*%
%ADD15R,0.0315X0.0354*%
%ADD16R,0.2100X0.0760*%
%ADD17R,0.0591X0.0157*%
%ADD18R,0.0866X0.0236*%
%ADD19R,0.0354X0.0315*%
%ADD20R,0.0551X0.0748*%
%ADD21OC8,0.0562*%
%ADD22OC8,0.0797*%
%ADD23C,0.0574*%
%ADD24C,0.1306*%
%ADD25R,0.0360X0.0850*%
%ADD26R,0.4252X0.4098*%
%ADD27R,0.1000X0.1000*%
%ADD28OC8,0.1000*%
%ADD29R,0.2165X0.1772*%
%ADD30R,0.0551X0.0709*%
%ADD31R,0.0630X0.1063*%
%ADD32R,0.0480X0.0880*%
%ADD33R,0.1417X0.0866*%
%ADD34R,0.0748X0.0551*%
%ADD35OC8,0.0594*%
%ADD36R,0.0472X0.1575*%
%ADD37R,0.0276X0.1575*%
%ADD38R,0.0787X0.1102*%
%ADD39C,0.0591*%
%ADD40C,0.0787*%
%ADD41R,0.0591X0.0591*%
%ADD42C,0.0886*%
%ADD43R,0.0236X0.0866*%
%ADD44R,0.0880X0.0480*%
%ADD45R,0.0866X0.1417*%
%ADD46R,0.0709X0.0551*%
%ADD47R,0.0866X0.0787*%
%ADD48R,0.0394X0.0551*%
%ADD49R,0.1024X0.2874*%
%ADD50C,0.0118*%
%ADD51R,0.0157X0.0630*%
%ADD52R,0.0560X0.0560*%
%ADD53OC8,0.0560*%
%ADD54R,0.1181X0.0630*%
%ADD55R,0.0157X0.0709*%
%ADD56R,0.0709X0.0157*%
%ADD57R,0.0472X0.0472*%
%ADD58R,0.0118X0.0591*%
%ADD59R,0.0260X0.0800*%
%ADD60C,0.0060*%
%ADD61C,0.0310*%
%ADD62C,0.0160*%
%ADD63C,0.0240*%
%ADD64C,0.0436*%
%ADD65C,0.0100*%
%ADD66C,0.0396*%
%ADD67C,0.0080*%
D10*
X000151Y000151D02*
X000151Y044151D01*
X068151Y044151D01*
X068151Y000151D01*
X000151Y000151D01*
X000521Y001151D02*
X000523Y001201D01*
X000529Y001251D01*
X000539Y001300D01*
X000553Y001348D01*
X000570Y001395D01*
X000591Y001440D01*
X000616Y001484D01*
X000644Y001525D01*
X000676Y001564D01*
X000710Y001601D01*
X000747Y001635D01*
X000787Y001665D01*
X000829Y001692D01*
X000873Y001716D01*
X000919Y001737D01*
X000966Y001753D01*
X001014Y001766D01*
X001064Y001775D01*
X001113Y001780D01*
X001164Y001781D01*
X001214Y001778D01*
X001263Y001771D01*
X001312Y001760D01*
X001360Y001745D01*
X001406Y001727D01*
X001451Y001705D01*
X001494Y001679D01*
X001535Y001650D01*
X001574Y001618D01*
X001610Y001583D01*
X001642Y001545D01*
X001672Y001505D01*
X001699Y001462D01*
X001722Y001418D01*
X001741Y001372D01*
X001757Y001324D01*
X001769Y001275D01*
X001777Y001226D01*
X001781Y001176D01*
X001781Y001126D01*
X001777Y001076D01*
X001769Y001027D01*
X001757Y000978D01*
X001741Y000930D01*
X001722Y000884D01*
X001699Y000840D01*
X001672Y000797D01*
X001642Y000757D01*
X001610Y000719D01*
X001574Y000684D01*
X001535Y000652D01*
X001494Y000623D01*
X001451Y000597D01*
X001406Y000575D01*
X001360Y000557D01*
X001312Y000542D01*
X001263Y000531D01*
X001214Y000524D01*
X001164Y000521D01*
X001113Y000522D01*
X001064Y000527D01*
X001014Y000536D01*
X000966Y000549D01*
X000919Y000565D01*
X000873Y000586D01*
X000829Y000610D01*
X000787Y000637D01*
X000747Y000667D01*
X000710Y000701D01*
X000676Y000738D01*
X000644Y000777D01*
X000616Y000818D01*
X000591Y000862D01*
X000570Y000907D01*
X000553Y000954D01*
X000539Y001002D01*
X000529Y001051D01*
X000523Y001101D01*
X000521Y001151D01*
X000521Y034151D02*
X000523Y034201D01*
X000529Y034251D01*
X000539Y034300D01*
X000553Y034348D01*
X000570Y034395D01*
X000591Y034440D01*
X000616Y034484D01*
X000644Y034525D01*
X000676Y034564D01*
X000710Y034601D01*
X000747Y034635D01*
X000787Y034665D01*
X000829Y034692D01*
X000873Y034716D01*
X000919Y034737D01*
X000966Y034753D01*
X001014Y034766D01*
X001064Y034775D01*
X001113Y034780D01*
X001164Y034781D01*
X001214Y034778D01*
X001263Y034771D01*
X001312Y034760D01*
X001360Y034745D01*
X001406Y034727D01*
X001451Y034705D01*
X001494Y034679D01*
X001535Y034650D01*
X001574Y034618D01*
X001610Y034583D01*
X001642Y034545D01*
X001672Y034505D01*
X001699Y034462D01*
X001722Y034418D01*
X001741Y034372D01*
X001757Y034324D01*
X001769Y034275D01*
X001777Y034226D01*
X001781Y034176D01*
X001781Y034126D01*
X001777Y034076D01*
X001769Y034027D01*
X001757Y033978D01*
X001741Y033930D01*
X001722Y033884D01*
X001699Y033840D01*
X001672Y033797D01*
X001642Y033757D01*
X001610Y033719D01*
X001574Y033684D01*
X001535Y033652D01*
X001494Y033623D01*
X001451Y033597D01*
X001406Y033575D01*
X001360Y033557D01*
X001312Y033542D01*
X001263Y033531D01*
X001214Y033524D01*
X001164Y033521D01*
X001113Y033522D01*
X001064Y033527D01*
X001014Y033536D01*
X000966Y033549D01*
X000919Y033565D01*
X000873Y033586D01*
X000829Y033610D01*
X000787Y033637D01*
X000747Y033667D01*
X000710Y033701D01*
X000676Y033738D01*
X000644Y033777D01*
X000616Y033818D01*
X000591Y033862D01*
X000570Y033907D01*
X000553Y033954D01*
X000539Y034002D01*
X000529Y034051D01*
X000523Y034101D01*
X000521Y034151D01*
X000521Y043151D02*
X000523Y043201D01*
X000529Y043251D01*
X000539Y043300D01*
X000553Y043348D01*
X000570Y043395D01*
X000591Y043440D01*
X000616Y043484D01*
X000644Y043525D01*
X000676Y043564D01*
X000710Y043601D01*
X000747Y043635D01*
X000787Y043665D01*
X000829Y043692D01*
X000873Y043716D01*
X000919Y043737D01*
X000966Y043753D01*
X001014Y043766D01*
X001064Y043775D01*
X001113Y043780D01*
X001164Y043781D01*
X001214Y043778D01*
X001263Y043771D01*
X001312Y043760D01*
X001360Y043745D01*
X001406Y043727D01*
X001451Y043705D01*
X001494Y043679D01*
X001535Y043650D01*
X001574Y043618D01*
X001610Y043583D01*
X001642Y043545D01*
X001672Y043505D01*
X001699Y043462D01*
X001722Y043418D01*
X001741Y043372D01*
X001757Y043324D01*
X001769Y043275D01*
X001777Y043226D01*
X001781Y043176D01*
X001781Y043126D01*
X001777Y043076D01*
X001769Y043027D01*
X001757Y042978D01*
X001741Y042930D01*
X001722Y042884D01*
X001699Y042840D01*
X001672Y042797D01*
X001642Y042757D01*
X001610Y042719D01*
X001574Y042684D01*
X001535Y042652D01*
X001494Y042623D01*
X001451Y042597D01*
X001406Y042575D01*
X001360Y042557D01*
X001312Y042542D01*
X001263Y042531D01*
X001214Y042524D01*
X001164Y042521D01*
X001113Y042522D01*
X001064Y042527D01*
X001014Y042536D01*
X000966Y042549D01*
X000919Y042565D01*
X000873Y042586D01*
X000829Y042610D01*
X000787Y042637D01*
X000747Y042667D01*
X000710Y042701D01*
X000676Y042738D01*
X000644Y042777D01*
X000616Y042818D01*
X000591Y042862D01*
X000570Y042907D01*
X000553Y042954D01*
X000539Y043002D01*
X000529Y043051D01*
X000523Y043101D01*
X000521Y043151D01*
X054430Y009199D02*
X054432Y009228D01*
X054438Y009256D01*
X054447Y009284D01*
X054460Y009310D01*
X054477Y009333D01*
X054496Y009355D01*
X054518Y009374D01*
X054543Y009389D01*
X054569Y009402D01*
X054597Y009410D01*
X054625Y009415D01*
X054654Y009416D01*
X054683Y009413D01*
X054711Y009406D01*
X054738Y009396D01*
X054764Y009382D01*
X054787Y009365D01*
X054808Y009345D01*
X054826Y009322D01*
X054841Y009297D01*
X054852Y009270D01*
X054860Y009242D01*
X054864Y009213D01*
X054864Y009185D01*
X054860Y009156D01*
X054852Y009128D01*
X054841Y009101D01*
X054826Y009076D01*
X054808Y009053D01*
X054787Y009033D01*
X054764Y009016D01*
X054738Y009002D01*
X054711Y008992D01*
X054683Y008985D01*
X054654Y008982D01*
X054625Y008983D01*
X054597Y008988D01*
X054569Y008996D01*
X054543Y009009D01*
X054518Y009024D01*
X054496Y009043D01*
X054477Y009065D01*
X054460Y009088D01*
X054447Y009114D01*
X054438Y009142D01*
X054432Y009170D01*
X054430Y009199D01*
X062639Y009199D02*
X062641Y009234D01*
X062647Y009269D01*
X062657Y009303D01*
X062670Y009336D01*
X062687Y009367D01*
X062708Y009395D01*
X062731Y009422D01*
X062758Y009445D01*
X062786Y009466D01*
X062817Y009483D01*
X062850Y009496D01*
X062884Y009506D01*
X062919Y009512D01*
X062954Y009514D01*
X062989Y009512D01*
X063024Y009506D01*
X063058Y009496D01*
X063091Y009483D01*
X063122Y009466D01*
X063150Y009445D01*
X063177Y009422D01*
X063200Y009395D01*
X063221Y009367D01*
X063238Y009336D01*
X063251Y009303D01*
X063261Y009269D01*
X063267Y009234D01*
X063269Y009199D01*
X063267Y009164D01*
X063261Y009129D01*
X063251Y009095D01*
X063238Y009062D01*
X063221Y009031D01*
X063200Y009003D01*
X063177Y008976D01*
X063150Y008953D01*
X063122Y008932D01*
X063091Y008915D01*
X063058Y008902D01*
X063024Y008892D01*
X062989Y008886D01*
X062954Y008884D01*
X062919Y008886D01*
X062884Y008892D01*
X062850Y008902D01*
X062817Y008915D01*
X062786Y008932D01*
X062758Y008953D01*
X062731Y008976D01*
X062708Y009003D01*
X062687Y009031D01*
X062670Y009062D01*
X062657Y009095D01*
X062647Y009129D01*
X062641Y009164D01*
X062639Y009199D01*
X066521Y001151D02*
X066523Y001201D01*
X066529Y001251D01*
X066539Y001300D01*
X066553Y001348D01*
X066570Y001395D01*
X066591Y001440D01*
X066616Y001484D01*
X066644Y001525D01*
X066676Y001564D01*
X066710Y001601D01*
X066747Y001635D01*
X066787Y001665D01*
X066829Y001692D01*
X066873Y001716D01*
X066919Y001737D01*
X066966Y001753D01*
X067014Y001766D01*
X067064Y001775D01*
X067113Y001780D01*
X067164Y001781D01*
X067214Y001778D01*
X067263Y001771D01*
X067312Y001760D01*
X067360Y001745D01*
X067406Y001727D01*
X067451Y001705D01*
X067494Y001679D01*
X067535Y001650D01*
X067574Y001618D01*
X067610Y001583D01*
X067642Y001545D01*
X067672Y001505D01*
X067699Y001462D01*
X067722Y001418D01*
X067741Y001372D01*
X067757Y001324D01*
X067769Y001275D01*
X067777Y001226D01*
X067781Y001176D01*
X067781Y001126D01*
X067777Y001076D01*
X067769Y001027D01*
X067757Y000978D01*
X067741Y000930D01*
X067722Y000884D01*
X067699Y000840D01*
X067672Y000797D01*
X067642Y000757D01*
X067610Y000719D01*
X067574Y000684D01*
X067535Y000652D01*
X067494Y000623D01*
X067451Y000597D01*
X067406Y000575D01*
X067360Y000557D01*
X067312Y000542D01*
X067263Y000531D01*
X067214Y000524D01*
X067164Y000521D01*
X067113Y000522D01*
X067064Y000527D01*
X067014Y000536D01*
X066966Y000549D01*
X066919Y000565D01*
X066873Y000586D01*
X066829Y000610D01*
X066787Y000637D01*
X066747Y000667D01*
X066710Y000701D01*
X066676Y000738D01*
X066644Y000777D01*
X066616Y000818D01*
X066591Y000862D01*
X066570Y000907D01*
X066553Y000954D01*
X066539Y001002D01*
X066529Y001051D01*
X066523Y001101D01*
X066521Y001151D01*
X066521Y029151D02*
X066523Y029201D01*
X066529Y029251D01*
X066539Y029300D01*
X066553Y029348D01*
X066570Y029395D01*
X066591Y029440D01*
X066616Y029484D01*
X066644Y029525D01*
X066676Y029564D01*
X066710Y029601D01*
X066747Y029635D01*
X066787Y029665D01*
X066829Y029692D01*
X066873Y029716D01*
X066919Y029737D01*
X066966Y029753D01*
X067014Y029766D01*
X067064Y029775D01*
X067113Y029780D01*
X067164Y029781D01*
X067214Y029778D01*
X067263Y029771D01*
X067312Y029760D01*
X067360Y029745D01*
X067406Y029727D01*
X067451Y029705D01*
X067494Y029679D01*
X067535Y029650D01*
X067574Y029618D01*
X067610Y029583D01*
X067642Y029545D01*
X067672Y029505D01*
X067699Y029462D01*
X067722Y029418D01*
X067741Y029372D01*
X067757Y029324D01*
X067769Y029275D01*
X067777Y029226D01*
X067781Y029176D01*
X067781Y029126D01*
X067777Y029076D01*
X067769Y029027D01*
X067757Y028978D01*
X067741Y028930D01*
X067722Y028884D01*
X067699Y028840D01*
X067672Y028797D01*
X067642Y028757D01*
X067610Y028719D01*
X067574Y028684D01*
X067535Y028652D01*
X067494Y028623D01*
X067451Y028597D01*
X067406Y028575D01*
X067360Y028557D01*
X067312Y028542D01*
X067263Y028531D01*
X067214Y028524D01*
X067164Y028521D01*
X067113Y028522D01*
X067064Y028527D01*
X067014Y028536D01*
X066966Y028549D01*
X066919Y028565D01*
X066873Y028586D01*
X066829Y028610D01*
X066787Y028637D01*
X066747Y028667D01*
X066710Y028701D01*
X066676Y028738D01*
X066644Y028777D01*
X066616Y028818D01*
X066591Y028862D01*
X066570Y028907D01*
X066553Y028954D01*
X066539Y029002D01*
X066529Y029051D01*
X066523Y029101D01*
X066521Y029151D01*
X066521Y043151D02*
X066523Y043201D01*
X066529Y043251D01*
X066539Y043300D01*
X066553Y043348D01*
X066570Y043395D01*
X066591Y043440D01*
X066616Y043484D01*
X066644Y043525D01*
X066676Y043564D01*
X066710Y043601D01*
X066747Y043635D01*
X066787Y043665D01*
X066829Y043692D01*
X066873Y043716D01*
X066919Y043737D01*
X066966Y043753D01*
X067014Y043766D01*
X067064Y043775D01*
X067113Y043780D01*
X067164Y043781D01*
X067214Y043778D01*
X067263Y043771D01*
X067312Y043760D01*
X067360Y043745D01*
X067406Y043727D01*
X067451Y043705D01*
X067494Y043679D01*
X067535Y043650D01*
X067574Y043618D01*
X067610Y043583D01*
X067642Y043545D01*
X067672Y043505D01*
X067699Y043462D01*
X067722Y043418D01*
X067741Y043372D01*
X067757Y043324D01*
X067769Y043275D01*
X067777Y043226D01*
X067781Y043176D01*
X067781Y043126D01*
X067777Y043076D01*
X067769Y043027D01*
X067757Y042978D01*
X067741Y042930D01*
X067722Y042884D01*
X067699Y042840D01*
X067672Y042797D01*
X067642Y042757D01*
X067610Y042719D01*
X067574Y042684D01*
X067535Y042652D01*
X067494Y042623D01*
X067451Y042597D01*
X067406Y042575D01*
X067360Y042557D01*
X067312Y042542D01*
X067263Y042531D01*
X067214Y042524D01*
X067164Y042521D01*
X067113Y042522D01*
X067064Y042527D01*
X067014Y042536D01*
X066966Y042549D01*
X066919Y042565D01*
X066873Y042586D01*
X066829Y042610D01*
X066787Y042637D01*
X066747Y042667D01*
X066710Y042701D01*
X066676Y042738D01*
X066644Y042777D01*
X066616Y042818D01*
X066591Y042862D01*
X066570Y042907D01*
X066553Y042954D01*
X066539Y043002D01*
X066529Y043051D01*
X066523Y043101D01*
X066521Y043151D01*
D11*
X052151Y003214D03*
X052151Y001088D03*
X042901Y001088D03*
X042901Y003214D03*
D12*
X041383Y013866D02*
X041383Y014358D01*
X041187Y014358D02*
X041187Y013866D01*
X040990Y013866D02*
X040990Y014358D01*
X040793Y014358D02*
X040793Y013866D01*
X040596Y013866D02*
X040596Y014358D01*
X040399Y014358D02*
X040399Y013866D01*
X040202Y013866D02*
X040202Y014358D01*
X040006Y014358D02*
X040006Y013866D01*
X039809Y013866D02*
X039809Y014358D01*
X039612Y014358D02*
X039612Y013866D01*
X039415Y013866D02*
X039415Y014358D01*
X039218Y014358D02*
X039218Y013866D01*
X039021Y013866D02*
X039021Y014358D01*
X038824Y014358D02*
X038824Y013866D01*
X038628Y013866D02*
X038628Y014358D01*
X038431Y014358D02*
X038431Y013866D01*
X038234Y013866D02*
X038234Y014358D01*
X038037Y014358D02*
X038037Y013866D01*
X037840Y013866D02*
X037840Y014358D01*
X037643Y014358D02*
X037643Y013866D01*
X037446Y013866D02*
X037446Y014358D01*
X037250Y014358D02*
X037250Y013866D01*
X037053Y013866D02*
X037053Y014358D01*
X036856Y014358D02*
X036856Y013866D01*
X036659Y013866D02*
X036659Y014358D01*
X036462Y014358D02*
X036462Y013866D01*
X036265Y013866D02*
X036265Y014358D01*
X036069Y014358D02*
X036069Y013866D01*
X035872Y013866D02*
X035872Y014358D01*
X035675Y014358D02*
X035675Y013866D01*
X035478Y013866D02*
X035478Y014358D01*
X035281Y014358D02*
X035281Y013866D01*
X035084Y013866D02*
X035084Y014358D01*
X034887Y014358D02*
X034887Y013866D01*
X034691Y013866D02*
X034691Y014358D01*
X034494Y014358D02*
X034494Y013866D01*
X034297Y013866D02*
X034297Y014358D01*
X034100Y014358D02*
X034100Y013866D01*
X033903Y013866D02*
X033903Y014358D01*
X033706Y014358D02*
X033706Y013866D01*
X033509Y013866D02*
X033509Y014358D01*
X033313Y014358D02*
X033313Y013866D01*
X033116Y013866D02*
X033116Y014358D01*
X032919Y014358D02*
X032919Y013866D01*
X032358Y014919D02*
X031866Y014919D01*
X031866Y015116D02*
X032358Y015116D01*
X032358Y015313D02*
X031866Y015313D01*
X031866Y015509D02*
X032358Y015509D01*
X032358Y015706D02*
X031866Y015706D01*
X031866Y015903D02*
X032358Y015903D01*
X032358Y016100D02*
X031866Y016100D01*
X031866Y016297D02*
X032358Y016297D01*
X032358Y016494D02*
X031866Y016494D01*
X031866Y016691D02*
X032358Y016691D01*
X032358Y016887D02*
X031866Y016887D01*
X031866Y017084D02*
X032358Y017084D01*
X032358Y017281D02*
X031866Y017281D01*
X031866Y017478D02*
X032358Y017478D01*
X032358Y017675D02*
X031866Y017675D01*
X031866Y017872D02*
X032358Y017872D01*
X032358Y018069D02*
X031866Y018069D01*
X031866Y018265D02*
X032358Y018265D01*
X032358Y018462D02*
X031866Y018462D01*
X031866Y018659D02*
X032358Y018659D01*
X032358Y018856D02*
X031866Y018856D01*
X031866Y019053D02*
X032358Y019053D01*
X032358Y019250D02*
X031866Y019250D01*
X031866Y019446D02*
X032358Y019446D01*
X032358Y019643D02*
X031866Y019643D01*
X031866Y019840D02*
X032358Y019840D01*
X032358Y020037D02*
X031866Y020037D01*
X031866Y020234D02*
X032358Y020234D01*
X032358Y020431D02*
X031866Y020431D01*
X031866Y020628D02*
X032358Y020628D01*
X032358Y020824D02*
X031866Y020824D01*
X031866Y021021D02*
X032358Y021021D01*
X032358Y021218D02*
X031866Y021218D01*
X031866Y021415D02*
X032358Y021415D01*
X032358Y021612D02*
X031866Y021612D01*
X031866Y021809D02*
X032358Y021809D01*
X032358Y022006D02*
X031866Y022006D01*
X031866Y022202D02*
X032358Y022202D01*
X032358Y022399D02*
X031866Y022399D01*
X031866Y022596D02*
X032358Y022596D01*
X032358Y022793D02*
X031866Y022793D01*
X031866Y022990D02*
X032358Y022990D01*
X032358Y023187D02*
X031866Y023187D01*
X031866Y023383D02*
X032358Y023383D01*
X032919Y023945D02*
X032919Y024437D01*
X033116Y024437D02*
X033116Y023945D01*
X033313Y023945D02*
X033313Y024437D01*
X033509Y024437D02*
X033509Y023945D01*
X033706Y023945D02*
X033706Y024437D01*
X033903Y024437D02*
X033903Y023945D01*
X034100Y023945D02*
X034100Y024437D01*
X034297Y024437D02*
X034297Y023945D01*
X034494Y023945D02*
X034494Y024437D01*
X034691Y024437D02*
X034691Y023945D01*
X034887Y023945D02*
X034887Y024437D01*
X035084Y024437D02*
X035084Y023945D01*
X035281Y023945D02*
X035281Y024437D01*
X035478Y024437D02*
X035478Y023945D01*
X035675Y023945D02*
X035675Y024437D01*
X035872Y024437D02*
X035872Y023945D01*
X036069Y023945D02*
X036069Y024437D01*
X036265Y024437D02*
X036265Y023945D01*
X036462Y023945D02*
X036462Y024437D01*
X036659Y024437D02*
X036659Y023945D01*
X036856Y023945D02*
X036856Y024437D01*
X037053Y024437D02*
X037053Y023945D01*
X037250Y023945D02*
X037250Y024437D01*
X037446Y024437D02*
X037446Y023945D01*
X037643Y023945D02*
X037643Y024437D01*
X037840Y024437D02*
X037840Y023945D01*
X038037Y023945D02*
X038037Y024437D01*
X038234Y024437D02*
X038234Y023945D01*
X038431Y023945D02*
X038431Y024437D01*
X038628Y024437D02*
X038628Y023945D01*
X038824Y023945D02*
X038824Y024437D01*
X039021Y024437D02*
X039021Y023945D01*
X039218Y023945D02*
X039218Y024437D01*
X039415Y024437D02*
X039415Y023945D01*
X039612Y023945D02*
X039612Y024437D01*
X039809Y024437D02*
X039809Y023945D01*
X040006Y023945D02*
X040006Y024437D01*
X040202Y024437D02*
X040202Y023945D01*
X040399Y023945D02*
X040399Y024437D01*
X040596Y024437D02*
X040596Y023945D01*
X040793Y023945D02*
X040793Y024437D01*
X040990Y024437D02*
X040990Y023945D01*
X041187Y023945D02*
X041187Y024437D01*
X041383Y024437D02*
X041383Y023945D01*
X041945Y023383D02*
X042437Y023383D01*
X042437Y023187D02*
X041945Y023187D01*
X041945Y022990D02*
X042437Y022990D01*
X042437Y022793D02*
X041945Y022793D01*
X041945Y022596D02*
X042437Y022596D01*
X042437Y022399D02*
X041945Y022399D01*
X041945Y022202D02*
X042437Y022202D01*
X042437Y022006D02*
X041945Y022006D01*
X041945Y021809D02*
X042437Y021809D01*
X042437Y021612D02*
X041945Y021612D01*
X041945Y021415D02*
X042437Y021415D01*
X042437Y021218D02*
X041945Y021218D01*
X041945Y021021D02*
X042437Y021021D01*
X042437Y020824D02*
X041945Y020824D01*
X041945Y020628D02*
X042437Y020628D01*
X042437Y020431D02*
X041945Y020431D01*
X041945Y020234D02*
X042437Y020234D01*
X042437Y020037D02*
X041945Y020037D01*
X041945Y019840D02*
X042437Y019840D01*
X042437Y019643D02*
X041945Y019643D01*
X041945Y019446D02*
X042437Y019446D01*
X042437Y019250D02*
X041945Y019250D01*
X041945Y019053D02*
X042437Y019053D01*
X042437Y018856D02*
X041945Y018856D01*
X041945Y018659D02*
X042437Y018659D01*
X042437Y018462D02*
X041945Y018462D01*
X041945Y018265D02*
X042437Y018265D01*
X042437Y018069D02*
X041945Y018069D01*
X041945Y017872D02*
X042437Y017872D01*
X042437Y017675D02*
X041945Y017675D01*
X041945Y017478D02*
X042437Y017478D01*
X042437Y017281D02*
X041945Y017281D01*
X041945Y017084D02*
X042437Y017084D01*
X042437Y016887D02*
X041945Y016887D01*
X041945Y016691D02*
X042437Y016691D01*
X042437Y016494D02*
X041945Y016494D01*
X041945Y016297D02*
X042437Y016297D01*
X042437Y016100D02*
X041945Y016100D01*
X041945Y015903D02*
X042437Y015903D01*
X042437Y015706D02*
X041945Y015706D01*
X041945Y015509D02*
X042437Y015509D01*
X042437Y015313D02*
X041945Y015313D01*
X041945Y015116D02*
X042437Y015116D01*
X042437Y014919D02*
X041945Y014919D01*
X049232Y019706D02*
X049724Y019706D01*
X049724Y019903D02*
X049232Y019903D01*
X049232Y020100D02*
X049724Y020100D01*
X049724Y020297D02*
X049232Y020297D01*
X049232Y020494D02*
X049724Y020494D01*
X049724Y020691D02*
X049232Y020691D01*
X049232Y020887D02*
X049724Y020887D01*
X049724Y021084D02*
X049232Y021084D01*
X049232Y021281D02*
X049724Y021281D01*
X049724Y021478D02*
X049232Y021478D01*
X049232Y021675D02*
X049724Y021675D01*
X049724Y021872D02*
X049232Y021872D01*
X049232Y022069D02*
X049724Y022069D01*
X049724Y022265D02*
X049232Y022265D01*
X049232Y022462D02*
X049724Y022462D01*
X049724Y022659D02*
X049232Y022659D01*
X049232Y022856D02*
X049724Y022856D01*
X049724Y023053D02*
X049232Y023053D01*
X049232Y023250D02*
X049724Y023250D01*
X049724Y023446D02*
X049232Y023446D01*
X049232Y023643D02*
X049724Y023643D01*
X049724Y023840D02*
X049232Y023840D01*
X049232Y024037D02*
X049724Y024037D01*
X049724Y024234D02*
X049232Y024234D01*
X049232Y024431D02*
X049724Y024431D01*
X049724Y024628D02*
X049232Y024628D01*
X049232Y024824D02*
X049724Y024824D01*
X049724Y025021D02*
X049232Y025021D01*
X049232Y025218D02*
X049724Y025218D01*
X049724Y025415D02*
X049232Y025415D01*
X049232Y025612D02*
X049724Y025612D01*
X049724Y025809D02*
X049232Y025809D01*
X049232Y026006D02*
X049724Y026006D01*
X049724Y026202D02*
X049232Y026202D01*
X049232Y026399D02*
X049724Y026399D01*
X049724Y026596D02*
X049232Y026596D01*
X050206Y027078D02*
X050206Y027570D01*
X050403Y027570D02*
X050403Y027078D01*
X050600Y027078D02*
X050600Y027570D01*
X050797Y027570D02*
X050797Y027078D01*
X050994Y027078D02*
X050994Y027570D01*
X051191Y027570D02*
X051191Y027078D01*
X051387Y027078D02*
X051387Y027570D01*
X051584Y027570D02*
X051584Y027078D01*
X051781Y027078D02*
X051781Y027570D01*
X051978Y027570D02*
X051978Y027078D01*
X052175Y027078D02*
X052175Y027570D01*
X052372Y027570D02*
X052372Y027078D01*
X052569Y027078D02*
X052569Y027570D01*
X052765Y027570D02*
X052765Y027078D01*
X052962Y027078D02*
X052962Y027570D01*
X053159Y027570D02*
X053159Y027078D01*
X053356Y027078D02*
X053356Y027570D01*
X053553Y027570D02*
X053553Y027078D01*
X053750Y027078D02*
X053750Y027570D01*
X053946Y027570D02*
X053946Y027078D01*
X054143Y027078D02*
X054143Y027570D01*
X054340Y027570D02*
X054340Y027078D01*
X054537Y027078D02*
X054537Y027570D01*
X054734Y027570D02*
X054734Y027078D01*
X054931Y027078D02*
X054931Y027570D01*
X055128Y027570D02*
X055128Y027078D01*
X055324Y027078D02*
X055324Y027570D01*
X055521Y027570D02*
X055521Y027078D01*
X055718Y027078D02*
X055718Y027570D01*
X055915Y027570D02*
X055915Y027078D01*
X056112Y027078D02*
X056112Y027570D01*
X056309Y027570D02*
X056309Y027078D01*
X056506Y027078D02*
X056506Y027570D01*
X056702Y027570D02*
X056702Y027078D01*
X056899Y027078D02*
X056899Y027570D01*
X057096Y027570D02*
X057096Y027078D01*
X057578Y026596D02*
X058070Y026596D01*
X058070Y026399D02*
X057578Y026399D01*
X057578Y026202D02*
X058070Y026202D01*
X058070Y026006D02*
X057578Y026006D01*
X057578Y025809D02*
X058070Y025809D01*
X058070Y025612D02*
X057578Y025612D01*
X057578Y025415D02*
X058070Y025415D01*
X058070Y025218D02*
X057578Y025218D01*
X057578Y025021D02*
X058070Y025021D01*
X058070Y024824D02*
X057578Y024824D01*
X057578Y024628D02*
X058070Y024628D01*
X058070Y024431D02*
X057578Y024431D01*
X057578Y024234D02*
X058070Y024234D01*
X058070Y024037D02*
X057578Y024037D01*
X057578Y023840D02*
X058070Y023840D01*
X058070Y023643D02*
X057578Y023643D01*
X057578Y023446D02*
X058070Y023446D01*
X058070Y023250D02*
X057578Y023250D01*
X057578Y023053D02*
X058070Y023053D01*
X058070Y022856D02*
X057578Y022856D01*
X057578Y022659D02*
X058070Y022659D01*
X058070Y022462D02*
X057578Y022462D01*
X057578Y022265D02*
X058070Y022265D01*
X058070Y022069D02*
X057578Y022069D01*
X057578Y021872D02*
X058070Y021872D01*
X058070Y021675D02*
X057578Y021675D01*
X057578Y021478D02*
X058070Y021478D01*
X058070Y021281D02*
X057578Y021281D01*
X057578Y021084D02*
X058070Y021084D01*
X058070Y020887D02*
X057578Y020887D01*
X057578Y020691D02*
X058070Y020691D01*
X058070Y020494D02*
X057578Y020494D01*
X057578Y020297D02*
X058070Y020297D01*
X058070Y020100D02*
X057578Y020100D01*
X057578Y019903D02*
X058070Y019903D01*
X058070Y019706D02*
X057578Y019706D01*
X057096Y019224D02*
X057096Y018732D01*
X056899Y018732D02*
X056899Y019224D01*
X056702Y019224D02*
X056702Y018732D01*
X056506Y018732D02*
X056506Y019224D01*
X056309Y019224D02*
X056309Y018732D01*
X056112Y018732D02*
X056112Y019224D01*
X055915Y019224D02*
X055915Y018732D01*
X055718Y018732D02*
X055718Y019224D01*
X055521Y019224D02*
X055521Y018732D01*
X055324Y018732D02*
X055324Y019224D01*
X055128Y019224D02*
X055128Y018732D01*
X054931Y018732D02*
X054931Y019224D01*
X054734Y019224D02*
X054734Y018732D01*
X054537Y018732D02*
X054537Y019224D01*
X054340Y019224D02*
X054340Y018732D01*
X054143Y018732D02*
X054143Y019224D01*
X053946Y019224D02*
X053946Y018732D01*
X053750Y018732D02*
X053750Y019224D01*
X053553Y019224D02*
X053553Y018732D01*
X053356Y018732D02*
X053356Y019224D01*
X053159Y019224D02*
X053159Y018732D01*
X052962Y018732D02*
X052962Y019224D01*
X052765Y019224D02*
X052765Y018732D01*
X052569Y018732D02*
X052569Y019224D01*
X052372Y019224D02*
X052372Y018732D01*
X052175Y018732D02*
X052175Y019224D01*
X051978Y019224D02*
X051978Y018732D01*
X051781Y018732D02*
X051781Y019224D01*
X051584Y019224D02*
X051584Y018732D01*
X051387Y018732D02*
X051387Y019224D01*
X051191Y019224D02*
X051191Y018732D01*
X050994Y018732D02*
X050994Y019224D01*
X050797Y019224D02*
X050797Y018732D01*
X050600Y018732D02*
X050600Y019224D01*
X050403Y019224D02*
X050403Y018732D01*
X050206Y018732D02*
X050206Y019224D01*
D13*
X065651Y017651D03*
X051901Y030401D03*
X067151Y036651D03*
X038151Y043151D03*
X031151Y035651D03*
X024151Y035651D03*
X024151Y033651D03*
X017151Y033651D03*
X017151Y035651D03*
X010151Y035651D03*
X010151Y033651D03*
X003151Y035651D03*
X001651Y027651D03*
X001651Y021651D03*
X007651Y014151D03*
X008901Y014151D03*
X012151Y015151D03*
X012151Y008651D03*
X010651Y008651D03*
X005651Y008651D03*
X017151Y008651D03*
X045151Y001651D03*
D14*
X046151Y001651D03*
X047151Y001651D03*
X047151Y002651D03*
X046151Y002651D03*
X045151Y002651D03*
X048151Y002651D03*
X049151Y002651D03*
X049151Y001651D03*
X048151Y001651D03*
X065651Y004651D03*
X066651Y004651D03*
X066651Y005651D03*
X065651Y005651D03*
X065651Y006651D03*
X066651Y006651D03*
X066651Y007651D03*
X065651Y007651D03*
X065651Y008651D03*
X066651Y008651D03*
X066651Y009651D03*
X065651Y009651D03*
X065651Y010651D03*
X066651Y010651D03*
X066651Y011651D03*
X065651Y011651D03*
X065651Y012651D03*
X066651Y012651D03*
X066651Y013651D03*
X065651Y013651D03*
X065651Y014651D03*
X066651Y014651D03*
X066651Y015651D03*
X065651Y015651D03*
X065651Y016651D03*
X066651Y016651D03*
X066651Y017651D03*
X039151Y036151D03*
X038151Y036151D03*
X038151Y037151D03*
X039151Y037151D03*
X039151Y038151D03*
X038151Y038151D03*
X038151Y039151D03*
X039151Y039151D03*
X039151Y040151D03*
X038151Y040151D03*
X038151Y041151D03*
X039151Y041151D03*
X039151Y042151D03*
X038151Y042151D03*
X039151Y043151D03*
X002651Y021651D03*
X002651Y020651D03*
X001651Y020651D03*
X001651Y019651D03*
X002651Y019651D03*
X002651Y018651D03*
X001651Y018651D03*
X001651Y017651D03*
X002651Y017651D03*
X002651Y016651D03*
X001651Y016651D03*
X001651Y015651D03*
X002651Y015651D03*
X002651Y014651D03*
X001651Y014651D03*
X001651Y013651D03*
X002651Y013651D03*
X002651Y012651D03*
X001651Y012651D03*
X001651Y011651D03*
X002651Y011651D03*
X002651Y010651D03*
X001651Y010651D03*
X001651Y009651D03*
X002651Y009651D03*
X002651Y008651D03*
X001651Y008651D03*
X001651Y007651D03*
X002651Y007651D03*
X002651Y006651D03*
X001651Y006651D03*
X005651Y009651D03*
X005651Y010651D03*
X005651Y011651D03*
X010651Y011651D03*
X012151Y011651D03*
X012151Y010651D03*
X012151Y009651D03*
X010651Y009651D03*
X010651Y010651D03*
X017151Y010651D03*
X017151Y009651D03*
X017151Y011651D03*
D15*
X020776Y015726D03*
X020776Y016326D03*
X021526Y016326D03*
X021526Y015726D03*
X021401Y019351D03*
X021401Y019951D03*
X011151Y017451D03*
X011151Y016851D03*
X010401Y016851D03*
X010401Y017451D03*
X010401Y015951D03*
X010401Y015351D03*
X011151Y015351D03*
X011151Y015951D03*
X006401Y016101D03*
X006401Y016701D03*
X005651Y016701D03*
X005651Y016101D03*
X005651Y015201D03*
X005651Y014601D03*
X006401Y014601D03*
X006401Y015201D03*
X010151Y029976D03*
X010901Y029976D03*
X011651Y029976D03*
X011651Y030576D03*
X010901Y030576D03*
X010151Y030576D03*
X010151Y031351D03*
X010151Y031951D03*
X010901Y031951D03*
X010901Y031351D03*
X011651Y031351D03*
X011651Y031951D03*
X015651Y031951D03*
X015651Y031351D03*
X016401Y031351D03*
X016401Y031951D03*
X017151Y031951D03*
X017151Y031351D03*
X017151Y030576D03*
X016401Y030576D03*
X015651Y030576D03*
X015651Y029976D03*
X016401Y029976D03*
X017151Y029976D03*
X023151Y030601D03*
X023151Y031201D03*
X023901Y031201D03*
X023901Y030601D03*
X023901Y032101D03*
X023901Y032701D03*
X023151Y032701D03*
X023151Y032101D03*
X027901Y032101D03*
X027901Y032701D03*
X028651Y032701D03*
X028651Y032101D03*
X028651Y031201D03*
X028651Y030601D03*
X027901Y030601D03*
X027901Y031201D03*
X036151Y031851D03*
X036151Y032451D03*
X036901Y032451D03*
X036901Y031851D03*
X052901Y031826D03*
X052901Y031226D03*
X053901Y031226D03*
X053901Y031826D03*
X054901Y031826D03*
X054901Y031226D03*
X034651Y012701D03*
X033901Y012701D03*
X033901Y012101D03*
X034651Y012101D03*
X034901Y004701D03*
X034901Y004101D03*
X034151Y004101D03*
X034151Y004701D03*
X033401Y004701D03*
X033401Y004101D03*
X036401Y004101D03*
X036401Y004701D03*
X041651Y003201D03*
X041651Y002601D03*
X041651Y001701D03*
X041651Y001101D03*
X050651Y001101D03*
X050651Y001701D03*
X050651Y002601D03*
X050651Y003201D03*
X050651Y004101D03*
X050651Y004701D03*
X050651Y005601D03*
X050651Y006201D03*
D16*
X051776Y015651D03*
X055526Y015651D03*
D17*
X050078Y033488D03*
X050078Y033744D03*
X050078Y034000D03*
X050078Y034256D03*
X050078Y034511D03*
X050078Y034767D03*
X050078Y035023D03*
X050078Y035279D03*
X050078Y035535D03*
X050078Y035791D03*
X050078Y036047D03*
X050078Y036303D03*
X050078Y036559D03*
X050078Y036815D03*
X047224Y036815D03*
X047224Y036559D03*
X047224Y036303D03*
X047224Y036047D03*
X047224Y035791D03*
X047224Y035535D03*
X047224Y035279D03*
X047224Y035023D03*
X047224Y034767D03*
X047224Y034511D03*
X047224Y034256D03*
X047224Y034000D03*
X047224Y033744D03*
X047224Y033488D03*
D18*
X045175Y035401D03*
X045175Y035901D03*
X045175Y036401D03*
X045175Y036901D03*
X043128Y036901D03*
X043128Y036401D03*
X043128Y035901D03*
X043128Y035401D03*
X026925Y032151D03*
X026925Y031651D03*
X026925Y031151D03*
X026925Y030651D03*
X024878Y030651D03*
X024878Y031151D03*
X024878Y031651D03*
X024878Y032151D03*
X014675Y031901D03*
X014675Y031401D03*
X014675Y030901D03*
X014675Y030401D03*
X012628Y030401D03*
X012628Y030901D03*
X012628Y031401D03*
X012628Y031901D03*
X009425Y016651D03*
X009425Y016151D03*
X009425Y015651D03*
X009425Y015151D03*
X007378Y015151D03*
X007378Y015651D03*
X007378Y016151D03*
X007378Y016651D03*
D19*
X008101Y017401D03*
X008701Y017401D03*
X020851Y014901D03*
X021451Y014901D03*
X028601Y015526D03*
X029201Y015526D03*
X027451Y022151D03*
X026851Y022151D03*
X023451Y021901D03*
X022851Y021901D03*
X016701Y029151D03*
X016101Y029151D03*
X015201Y029151D03*
X014601Y029151D03*
X012701Y029151D03*
X012101Y029151D03*
X011201Y029151D03*
X010601Y029151D03*
X010976Y032651D03*
X011576Y032651D03*
X012476Y032651D03*
X013076Y032651D03*
X014226Y032651D03*
X014826Y032651D03*
X015726Y032651D03*
X016326Y032651D03*
X035351Y025651D03*
X035951Y025651D03*
X042601Y028401D03*
X043201Y028401D03*
X043201Y029151D03*
X042601Y029151D03*
X043226Y029901D03*
X043826Y029901D03*
X043201Y030651D03*
X042601Y030651D03*
X043851Y034651D03*
X044451Y034651D03*
X044601Y037651D03*
X045201Y037651D03*
X043701Y037651D03*
X043101Y037651D03*
X059101Y021651D03*
X059701Y021651D03*
D20*
X044651Y033651D03*
X043651Y033651D03*
X052651Y037776D03*
X053651Y037776D03*
X023651Y022901D03*
X022651Y022901D03*
X015401Y033651D03*
X014401Y033651D03*
X012901Y033651D03*
X011901Y033651D03*
D21*
X047151Y039151D03*
X047151Y039939D03*
X047151Y040726D03*
X047151Y041513D03*
D22*
X046080Y041907D03*
X048222Y041907D03*
X048222Y039151D03*
X046080Y039151D03*
D23*
X052159Y039723D02*
X052159Y040297D01*
X052159Y041084D02*
X052159Y041658D01*
X053143Y041658D02*
X053143Y041084D01*
X053143Y040297D02*
X053143Y039723D01*
D24*
X055013Y042151D03*
X050289Y042151D03*
D25*
X057151Y033401D03*
X057651Y033401D03*
X058151Y033401D03*
X058651Y033401D03*
X059151Y033401D03*
X059651Y033401D03*
X060151Y033401D03*
D26*
X058651Y036651D03*
D27*
X059651Y040651D03*
D28*
X057651Y041776D03*
X059651Y043026D03*
X043084Y042206D03*
X042297Y043151D03*
X043084Y040041D03*
D29*
X064151Y034923D03*
X064151Y031380D03*
D30*
X058151Y031651D03*
X057151Y031651D03*
X053651Y036526D03*
X052651Y036526D03*
X039151Y034901D03*
X038151Y034901D03*
X038151Y033651D03*
X039151Y033651D03*
X026401Y033151D03*
X025401Y033151D03*
D31*
X059351Y031651D03*
X060451Y031651D03*
D32*
X054811Y035246D03*
X053901Y035246D03*
X052991Y035246D03*
D33*
X053901Y032806D03*
D34*
X054901Y036526D03*
X054901Y037526D03*
X041651Y033651D03*
X041651Y032651D03*
X041651Y031151D03*
X041651Y030151D03*
X036526Y033776D03*
X036526Y034776D03*
X020401Y020151D03*
X020401Y019151D03*
X012151Y017401D03*
X012151Y016401D03*
D35*
X063659Y038667D03*
X064643Y038667D03*
X064643Y039651D03*
X063659Y039651D03*
X063659Y040635D03*
X064643Y040635D03*
D36*
X062914Y010381D03*
X061930Y010381D03*
X060946Y010381D03*
X059962Y010381D03*
X058977Y010381D03*
X057993Y010381D03*
X057009Y010381D03*
X056025Y010381D03*
D37*
X055395Y010381D03*
X054883Y010381D03*
X054411Y010381D03*
D38*
X053741Y009632D03*
X063820Y009672D03*
X064765Y001444D03*
X053781Y001444D03*
D39*
X045401Y029401D03*
X045401Y030401D03*
X045401Y031401D03*
D40*
X045401Y028151D03*
D41*
X052151Y005840D03*
X052151Y004462D03*
D42*
X035805Y038281D03*
X035805Y040781D03*
X035805Y043281D03*
X031305Y043281D03*
X028805Y043281D03*
X028805Y040781D03*
X031305Y040781D03*
X031305Y038281D03*
X028805Y038281D03*
X024305Y038281D03*
X021805Y038281D03*
X021805Y040781D03*
X024305Y040781D03*
X024305Y043281D03*
X021805Y043281D03*
X017305Y043281D03*
X014805Y043281D03*
X014805Y040781D03*
X017305Y040781D03*
X017305Y038281D03*
X014805Y038281D03*
X010305Y038281D03*
X007805Y038281D03*
X007805Y040781D03*
X010305Y040781D03*
X010305Y043281D03*
X007805Y043281D03*
X003305Y043281D03*
X003305Y040781D03*
X003305Y038281D03*
D43*
X040151Y027425D03*
X040651Y027425D03*
X041151Y027425D03*
X041651Y027425D03*
X041651Y025378D03*
X041151Y025378D03*
X040651Y025378D03*
X040151Y025378D03*
X018401Y004675D03*
X017901Y004675D03*
X017401Y004675D03*
X016901Y004675D03*
X016401Y004675D03*
X015901Y004675D03*
X015401Y004675D03*
X014901Y004675D03*
X013901Y004675D03*
X013401Y004675D03*
X012901Y004675D03*
X012401Y004675D03*
X011901Y004675D03*
X011401Y004675D03*
X010901Y004675D03*
X010401Y004675D03*
X009401Y004675D03*
X008901Y004675D03*
X008401Y004675D03*
X007901Y004675D03*
X007401Y004675D03*
X006901Y004675D03*
X006401Y004675D03*
X005901Y004675D03*
X005901Y002628D03*
X006401Y002628D03*
X006901Y002628D03*
X007401Y002628D03*
X007901Y002628D03*
X008401Y002628D03*
X008901Y002628D03*
X009401Y002628D03*
X010401Y002628D03*
X010901Y002628D03*
X011401Y002628D03*
X011901Y002628D03*
X012401Y002628D03*
X012901Y002628D03*
X013401Y002628D03*
X013901Y002628D03*
X014901Y002628D03*
X015401Y002628D03*
X015901Y002628D03*
X016401Y002628D03*
X016901Y002628D03*
X017401Y002628D03*
X017901Y002628D03*
X018401Y002628D03*
D44*
X040371Y029741D03*
X040371Y030651D03*
X040371Y031561D03*
D45*
X037931Y030651D03*
D46*
X040401Y032651D03*
X040401Y033651D03*
D47*
X034151Y028301D03*
X034151Y027001D03*
D48*
X038777Y028584D03*
X039525Y028584D03*
X039151Y027718D03*
D49*
X037576Y027651D03*
X035726Y027651D03*
D50*
X033176Y026138D02*
X032626Y026138D01*
X032626Y026610D01*
X033176Y026610D01*
X033176Y026138D01*
X033176Y026255D02*
X032626Y026255D01*
X032626Y026372D02*
X033176Y026372D01*
X033176Y026489D02*
X032626Y026489D01*
X032626Y026606D02*
X033176Y026606D01*
X033176Y025193D02*
X032626Y025193D01*
X032626Y025665D01*
X033176Y025665D01*
X033176Y025193D01*
X033176Y025310D02*
X032626Y025310D01*
X032626Y025427D02*
X033176Y025427D01*
X033176Y025544D02*
X032626Y025544D01*
X032626Y025661D02*
X033176Y025661D01*
X032176Y025665D02*
X031626Y025665D01*
X032176Y025665D02*
X032176Y025193D01*
X031626Y025193D01*
X031626Y025665D01*
X031626Y025310D02*
X032176Y025310D01*
X032176Y025427D02*
X031626Y025427D01*
X031626Y025544D02*
X032176Y025544D01*
X032176Y025661D02*
X031626Y025661D01*
X031626Y026138D02*
X032176Y026138D01*
X031626Y026138D02*
X031626Y026610D01*
X032176Y026610D01*
X032176Y026138D01*
X032176Y026255D02*
X031626Y026255D01*
X031626Y026372D02*
X032176Y026372D01*
X032176Y026489D02*
X031626Y026489D01*
X031626Y026606D02*
X032176Y026606D01*
X029176Y014388D02*
X028626Y014388D01*
X028626Y014860D01*
X029176Y014860D01*
X029176Y014388D01*
X029176Y014505D02*
X028626Y014505D01*
X028626Y014622D02*
X029176Y014622D01*
X029176Y014739D02*
X028626Y014739D01*
X028626Y014856D02*
X029176Y014856D01*
X029176Y013443D02*
X028626Y013443D01*
X028626Y013915D01*
X029176Y013915D01*
X029176Y013443D01*
X029176Y013560D02*
X028626Y013560D01*
X028626Y013677D02*
X029176Y013677D01*
X029176Y013794D02*
X028626Y013794D01*
X028626Y013911D02*
X029176Y013911D01*
X028176Y013915D02*
X027626Y013915D01*
X028176Y013915D02*
X028176Y013443D01*
X027626Y013443D01*
X027626Y013915D01*
X027626Y013560D02*
X028176Y013560D01*
X028176Y013677D02*
X027626Y013677D01*
X027626Y013794D02*
X028176Y013794D01*
X028176Y013911D02*
X027626Y013911D01*
X027626Y014388D02*
X028176Y014388D01*
X027626Y014388D02*
X027626Y014860D01*
X028176Y014860D01*
X028176Y014388D01*
X028176Y014505D02*
X027626Y014505D01*
X027626Y014622D02*
X028176Y014622D01*
X028176Y014739D02*
X027626Y014739D01*
X027626Y014856D02*
X028176Y014856D01*
D51*
X037057Y011297D03*
X037372Y011297D03*
X037687Y011297D03*
X038002Y011297D03*
X038317Y011297D03*
X038631Y011297D03*
X038946Y011297D03*
X039261Y011297D03*
X039576Y011297D03*
X039891Y011297D03*
X040206Y011297D03*
X040521Y011297D03*
X040836Y011297D03*
X041151Y011297D03*
X041466Y011297D03*
X041781Y011297D03*
X042096Y011297D03*
X042411Y011297D03*
X042726Y011297D03*
X043041Y011297D03*
X043356Y011297D03*
X043671Y011297D03*
X043986Y011297D03*
X044301Y011297D03*
X044616Y011297D03*
X044931Y011297D03*
X045246Y011297D03*
X045246Y007006D03*
X044931Y007006D03*
X044616Y007006D03*
X044301Y007006D03*
X043986Y007006D03*
X043671Y007006D03*
X043356Y007006D03*
X043041Y007006D03*
X042726Y007006D03*
X042411Y007006D03*
X042096Y007006D03*
X041781Y007006D03*
X041466Y007006D03*
X041151Y007006D03*
X040836Y007006D03*
X040521Y007006D03*
X040206Y007006D03*
X039891Y007006D03*
X039576Y007006D03*
X039261Y007006D03*
X038946Y007006D03*
X038631Y007006D03*
X038317Y007006D03*
X038002Y007006D03*
X037687Y007006D03*
X037372Y007006D03*
X037057Y007006D03*
D52*
X034151Y001651D03*
D53*
X035151Y001651D03*
X035151Y002651D03*
X034151Y002651D03*
X036151Y002651D03*
X037151Y002651D03*
X037151Y001651D03*
X036151Y001651D03*
X038151Y001651D03*
X039151Y001651D03*
X039151Y002651D03*
X038151Y002651D03*
X040151Y002651D03*
X040151Y001651D03*
D54*
X042901Y026001D03*
X042901Y027301D03*
D55*
X027070Y020946D03*
X026815Y020946D03*
X026559Y020946D03*
X026303Y020946D03*
X026047Y020946D03*
X025791Y020946D03*
X025535Y020946D03*
X025279Y020946D03*
X025023Y020946D03*
X024767Y020946D03*
X024511Y020946D03*
X024256Y020946D03*
X024000Y020946D03*
X023744Y020946D03*
X023488Y020946D03*
X023232Y020946D03*
X023232Y015356D03*
X023488Y015356D03*
X023744Y015356D03*
X024000Y015356D03*
X024256Y015356D03*
X024511Y015356D03*
X024767Y015356D03*
X025023Y015356D03*
X025279Y015356D03*
X025535Y015356D03*
X025791Y015356D03*
X026047Y015356D03*
X026303Y015356D03*
X026559Y015356D03*
X026815Y015356D03*
X027070Y015356D03*
D56*
X027946Y016232D03*
X027946Y016488D03*
X027946Y016744D03*
X027946Y017000D03*
X027946Y017256D03*
X027946Y017511D03*
X027946Y017767D03*
X027946Y018023D03*
X027946Y018279D03*
X027946Y018535D03*
X027946Y018791D03*
X027946Y019047D03*
X027946Y019303D03*
X027946Y019559D03*
X027946Y019815D03*
X027946Y020070D03*
X022356Y020070D03*
X022356Y019815D03*
X022356Y019559D03*
X022356Y019303D03*
X022356Y019047D03*
X022356Y018791D03*
X022356Y018535D03*
X022356Y018279D03*
X022356Y018023D03*
X022356Y017767D03*
X022356Y017511D03*
X022356Y017256D03*
X022356Y017000D03*
X022356Y016744D03*
X022356Y016488D03*
X022356Y016232D03*
D57*
X036151Y030238D03*
X036901Y030238D03*
X036901Y031065D03*
X036151Y031065D03*
D58*
X027547Y004754D03*
X027291Y004754D03*
X027035Y004754D03*
X026779Y004754D03*
X026523Y004754D03*
X026267Y004754D03*
X026011Y004754D03*
X025756Y004754D03*
X024547Y004754D03*
X024291Y004754D03*
X024035Y004754D03*
X023779Y004754D03*
X023523Y004754D03*
X023267Y004754D03*
X023011Y004754D03*
X022756Y004754D03*
X021297Y004754D03*
X021041Y004754D03*
X020785Y004754D03*
X020529Y004754D03*
X020273Y004754D03*
X020017Y004754D03*
X019761Y004754D03*
X019506Y004754D03*
X019506Y002549D03*
X019761Y002549D03*
X020017Y002549D03*
X020273Y002549D03*
X020529Y002549D03*
X020785Y002549D03*
X021041Y002549D03*
X021297Y002549D03*
X022756Y002549D03*
X023011Y002549D03*
X023267Y002549D03*
X023523Y002549D03*
X023779Y002549D03*
X024035Y002549D03*
X024291Y002549D03*
X024547Y002549D03*
X025756Y002549D03*
X026011Y002549D03*
X026267Y002549D03*
X026523Y002549D03*
X026779Y002549D03*
X027035Y002549D03*
X027291Y002549D03*
X027547Y002549D03*
D59*
X016151Y008941D03*
X015651Y008941D03*
X015151Y008941D03*
X014651Y008941D03*
X014151Y008941D03*
X013651Y008941D03*
X013151Y008941D03*
X013151Y011361D03*
X013651Y011361D03*
X014151Y011361D03*
X014651Y011361D03*
X015151Y011361D03*
X015651Y011361D03*
X016151Y011361D03*
X009651Y011361D03*
X009151Y011361D03*
X008651Y011361D03*
X008151Y011361D03*
X007651Y011361D03*
X007151Y011361D03*
X006651Y011361D03*
X006651Y008941D03*
X007151Y008941D03*
X007651Y008941D03*
X008151Y008941D03*
X008651Y008941D03*
X009151Y008941D03*
X009651Y008941D03*
D60*
X010151Y003401D02*
X008651Y003401D01*
X008401Y003151D01*
X008401Y002628D01*
X007401Y002628D02*
X007401Y001651D01*
X007901Y001151D01*
X007151Y001401D02*
X006901Y001651D01*
X006901Y002628D01*
X010151Y003401D02*
X010401Y003151D01*
X010401Y002628D01*
X011401Y002628D02*
X011401Y001651D01*
X011651Y001401D01*
X011901Y001651D02*
X011901Y002628D01*
X011901Y001651D02*
X012401Y001151D01*
X012901Y002628D02*
X012901Y003151D01*
X013151Y003401D01*
X014651Y003401D01*
X014901Y003151D01*
X014901Y002628D01*
X015901Y002628D02*
X015901Y001651D01*
X016151Y001401D01*
X016401Y001651D02*
X016401Y002628D01*
X017401Y002628D02*
X017401Y003151D01*
X017651Y003401D01*
X018651Y003401D01*
X019506Y004256D01*
X019506Y004754D01*
X020785Y003035D02*
X021401Y003651D01*
X021901Y003651D01*
X020785Y003035D02*
X020785Y002549D01*
X020529Y002549D02*
X020529Y001773D01*
X021151Y001151D01*
X021151Y001651D02*
X021041Y001761D01*
X021041Y002549D01*
X020273Y002549D02*
X020273Y001529D01*
X020401Y001401D01*
X019776Y001901D02*
X019506Y002172D01*
X019506Y002549D01*
X020017Y002549D02*
X020017Y002160D01*
X020026Y002151D01*
X020026Y000651D01*
X022756Y002047D02*
X022756Y002549D01*
X022756Y002047D02*
X022901Y001901D01*
X023267Y002160D02*
X023276Y002151D01*
X023276Y000651D01*
X023651Y001401D02*
X023523Y001529D01*
X023523Y002549D01*
X023267Y002549D02*
X023267Y002160D01*
X023779Y001773D02*
X024401Y001151D01*
X024401Y001651D02*
X024291Y001761D01*
X024291Y002549D01*
X023779Y002549D02*
X023779Y001773D01*
X025756Y002047D02*
X025901Y001901D01*
X025756Y002047D02*
X025756Y002549D01*
X026267Y002549D02*
X026267Y002160D01*
X026276Y002151D01*
X026276Y000651D01*
X026651Y001401D02*
X026523Y001529D01*
X026523Y002549D01*
X026779Y002549D02*
X026779Y001773D01*
X027401Y001151D01*
X027401Y001651D02*
X027291Y001761D01*
X027291Y002549D01*
X027035Y002549D02*
X027035Y003035D01*
X027651Y003651D01*
X028401Y003651D01*
X030151Y005401D01*
X030151Y015776D01*
X029901Y016026D01*
X030401Y016401D02*
X030401Y005151D01*
X028401Y003151D01*
X028401Y002651D01*
X030651Y002651D02*
X030651Y016151D01*
X030901Y016401D01*
X030901Y015901D02*
X030901Y003401D01*
X031401Y004401D02*
X031401Y012651D01*
X031651Y012151D02*
X031651Y005151D01*
X033401Y005151D02*
X033401Y004701D01*
X033401Y004101D02*
X033401Y002651D01*
X033901Y002151D01*
X035651Y002151D01*
X036151Y001651D01*
X036151Y002026D02*
X037526Y002026D01*
X038151Y002651D01*
X037651Y002526D02*
X037401Y002276D01*
X036901Y002276D01*
X036651Y002526D01*
X036651Y002901D01*
X035901Y003651D01*
X035901Y005651D01*
X035401Y006151D01*
X035401Y008776D01*
X032776Y011401D01*
X032776Y013151D01*
X031526Y014401D01*
X031526Y015151D01*
X031688Y015313D01*
X032112Y015313D01*
X032112Y015509D02*
X031634Y015509D01*
X031401Y015276D01*
X031401Y014151D01*
X032526Y013026D01*
X032526Y011276D01*
X035151Y008651D01*
X035151Y005901D01*
X035651Y005401D01*
X035651Y003151D01*
X036151Y002651D01*
X035651Y002526D02*
X036151Y002026D01*
X035651Y002526D02*
X035651Y002776D01*
X035401Y003026D01*
X035401Y004151D01*
X034901Y004651D01*
X034901Y004701D01*
X034901Y008526D01*
X032276Y011151D01*
X032276Y012901D01*
X031276Y013901D01*
X031276Y015401D01*
X031581Y015706D01*
X032112Y015706D01*
X032112Y015903D02*
X031528Y015903D01*
X031151Y015526D01*
X031151Y013651D01*
X032026Y012776D01*
X032026Y011026D01*
X034651Y008401D01*
X034651Y005651D01*
X034151Y005151D01*
X034151Y004701D01*
X034151Y004101D02*
X034151Y002651D01*
X034901Y002901D02*
X035151Y002651D01*
X034901Y002901D02*
X034901Y004101D01*
X036401Y004101D02*
X036401Y003651D01*
X036401Y004651D02*
X036401Y004701D01*
X036401Y005651D01*
X035651Y006401D01*
X035651Y008901D01*
X033026Y011526D01*
X033026Y013276D01*
X031651Y014651D01*
X031651Y015026D01*
X031741Y015116D01*
X032112Y015116D01*
X032901Y015901D02*
X033651Y016651D01*
X035651Y016651D01*
X035901Y016901D01*
X035901Y019901D01*
X035401Y020401D01*
X035151Y020776D02*
X040151Y020776D01*
X040901Y021776D02*
X032526Y021776D01*
X032494Y021809D01*
X032112Y021809D01*
X031309Y021809D01*
X031026Y021526D01*
X030651Y021526D01*
X029901Y021526D01*
X028651Y020276D01*
X027026Y020276D01*
X026815Y020488D01*
X026815Y020946D01*
X026559Y020946D02*
X026559Y021859D01*
X026851Y022151D01*
X027476Y022776D01*
X030276Y022776D01*
X031401Y022776D01*
X031615Y022990D01*
X032112Y022990D01*
X032112Y022596D02*
X032651Y022596D01*
X032651Y023276D01*
X032901Y023401D02*
X032401Y023901D01*
X032401Y026651D01*
X032151Y026901D01*
X031901Y026901D01*
X032901Y028901D02*
X033401Y029401D01*
X034651Y029401D01*
X035651Y030401D01*
X035651Y032276D01*
X035826Y032451D01*
X036151Y032451D01*
X036901Y032451D01*
X036901Y031851D02*
X036901Y031065D01*
X036151Y031065D02*
X036151Y031851D01*
X036151Y030238D02*
X036151Y029776D01*
X036901Y029776D02*
X036901Y030238D01*
X043651Y032901D02*
X043651Y033651D01*
X043901Y036901D02*
X043128Y036901D01*
X044401Y036901D02*
X045175Y036901D01*
X050078Y036047D02*
X050506Y036047D01*
X050901Y035651D01*
X051151Y034651D02*
X051011Y034511D01*
X050078Y034511D01*
X050078Y034000D02*
X050553Y034000D01*
X050651Y033901D01*
X051065Y033488D02*
X050078Y033488D01*
X051065Y033488D02*
X051401Y033151D01*
X054651Y030151D02*
X063151Y030151D01*
X063651Y029651D01*
X064901Y029651D01*
X065151Y029901D01*
X065151Y029401D02*
X063401Y029401D01*
X062901Y029901D01*
X054901Y029901D01*
X054401Y029401D01*
X050651Y029401D01*
X049401Y028151D01*
X049401Y027651D01*
X049651Y027401D01*
X049901Y027526D02*
X049651Y027776D01*
X049651Y028026D01*
X050776Y029151D01*
X061901Y029151D01*
X064151Y026901D01*
X064151Y026526D02*
X061651Y029026D01*
X051276Y029026D01*
X050403Y028153D01*
X050403Y027324D01*
X050600Y027324D02*
X050600Y027975D01*
X050651Y028026D01*
X050797Y027797D02*
X050797Y027324D01*
X050994Y027324D02*
X050994Y026744D01*
X050901Y026651D01*
X051191Y027324D02*
X051191Y027941D01*
X052026Y028776D01*
X061026Y028776D01*
X064151Y025651D01*
X064151Y025276D02*
X060776Y028651D01*
X052901Y028651D01*
X052175Y027925D01*
X052175Y027324D01*
X052372Y027324D02*
X052372Y026681D01*
X052401Y026651D01*
X052765Y026662D02*
X052776Y026651D01*
X052765Y026662D02*
X052765Y027324D01*
X052569Y027324D02*
X052569Y028069D01*
X053026Y028526D01*
X060526Y028526D01*
X064151Y024901D01*
X064151Y024526D02*
X060276Y028401D01*
X055401Y028401D01*
X054931Y027931D01*
X054931Y027324D01*
X055324Y027324D02*
X055324Y028074D01*
X055526Y028276D01*
X060151Y028276D01*
X063776Y024651D01*
X063776Y023776D01*
X064151Y024276D02*
X064151Y024526D01*
X064151Y026151D02*
X061401Y028901D01*
X051901Y028901D01*
X050797Y027797D01*
X051901Y027901D02*
X051978Y027824D01*
X051978Y027324D01*
X052962Y027324D02*
X052962Y027712D01*
X053151Y027901D01*
X055026Y029401D02*
X055401Y029401D01*
X055651Y029651D01*
X056151Y029651D01*
X056401Y029401D01*
X062026Y029401D01*
X062901Y028526D01*
X061901Y026276D02*
X060026Y028151D01*
X056901Y028151D01*
X056506Y027756D01*
X056506Y027324D01*
X056899Y027324D02*
X056899Y027649D01*
X057276Y028026D01*
X059901Y028026D01*
X061651Y026276D01*
X061651Y024276D01*
X061526Y024151D01*
X061901Y024151D02*
X061901Y026276D01*
X061526Y026151D02*
X061526Y024776D01*
X061151Y024401D01*
X060276Y024651D02*
X059276Y024651D01*
X059151Y024526D01*
X059324Y024824D02*
X059526Y025026D01*
X059401Y025276D02*
X059901Y025276D01*
X063401Y021776D01*
X065401Y021776D01*
X065776Y021776D02*
X065276Y021276D01*
X063151Y021276D01*
X061401Y023026D01*
X059901Y023026D01*
X059526Y023401D01*
X058401Y023401D01*
X058250Y023250D01*
X057824Y023250D01*
X057824Y023446D02*
X058196Y023446D01*
X058401Y023651D01*
X058401Y024526D01*
X058776Y024526D02*
X060026Y023276D01*
X061276Y023276D01*
X061401Y022776D02*
X063026Y021151D01*
X065526Y021151D01*
X066026Y021651D01*
X066026Y021901D01*
X065776Y022151D01*
X065401Y022151D01*
X064151Y021526D02*
X063401Y021526D01*
X060276Y024651D01*
X059324Y024824D02*
X057824Y024824D01*
X057824Y025021D02*
X059146Y025021D01*
X059401Y025276D01*
X059526Y025651D02*
X059401Y025776D01*
X058776Y025776D01*
X058218Y025218D01*
X057824Y025218D01*
X057824Y025809D02*
X058184Y025809D01*
X058276Y025901D01*
X061151Y025901D01*
X061401Y026026D02*
X061401Y025651D01*
X061151Y025401D01*
X061401Y026026D02*
X061276Y026151D01*
X058276Y026151D01*
X058225Y026202D01*
X057824Y026202D01*
X057824Y026596D02*
X058956Y026596D01*
X059151Y026401D01*
X059026Y026526D01*
X058526Y026901D02*
X057651Y026901D01*
X056901Y026151D01*
X056901Y024276D01*
X057140Y024037D01*
X057824Y024037D01*
X057824Y023840D02*
X057087Y023840D01*
X056776Y024151D01*
X056776Y026276D01*
X057651Y027151D01*
X058276Y027151D01*
X058026Y027401D02*
X057651Y027401D01*
X056651Y026401D01*
X056651Y024026D01*
X057034Y023643D01*
X057824Y023643D01*
X057824Y023053D02*
X058303Y023053D01*
X058401Y023151D01*
X059401Y023151D01*
X059776Y022776D01*
X061401Y022776D01*
X061401Y022526D02*
X063026Y020901D01*
X063651Y020901D01*
X063401Y020651D02*
X063026Y020651D01*
X061401Y022276D01*
X058776Y022276D01*
X058372Y021872D01*
X057824Y021872D01*
X057824Y022069D02*
X058319Y022069D01*
X058776Y022526D01*
X061401Y022526D01*
X060901Y022026D02*
X061151Y021776D01*
X060901Y022026D02*
X058776Y022026D01*
X058425Y021675D01*
X057824Y021675D01*
X057824Y022265D02*
X057515Y022265D01*
X057151Y021901D01*
X050401Y021901D01*
X050151Y022151D01*
X050151Y022526D02*
X050526Y022151D01*
X057151Y022151D01*
X057462Y022462D01*
X057824Y022462D01*
X057824Y022659D02*
X058409Y022659D01*
X058401Y022651D01*
X057824Y022856D02*
X057481Y022856D01*
X057026Y022401D01*
X056776Y022401D01*
X057151Y022901D02*
X052776Y022901D01*
X051276Y024401D01*
X050401Y024401D01*
X049978Y024824D01*
X049478Y024824D01*
X049478Y024628D02*
X048628Y024628D01*
X048401Y024401D01*
X046651Y024401D01*
X046401Y024651D02*
X046151Y024401D01*
X046401Y024651D02*
X048276Y024651D01*
X049040Y025415D01*
X049478Y025415D01*
X049478Y025612D02*
X049941Y025612D01*
X050151Y025401D01*
X049959Y025218D02*
X050151Y025026D01*
X049959Y025218D02*
X049478Y025218D01*
X049478Y024431D02*
X048806Y024431D01*
X048526Y024151D01*
X044276Y024151D01*
X043776Y023651D01*
X043526Y023651D01*
X043651Y023901D02*
X044901Y025151D01*
X047901Y025151D01*
X048952Y026202D01*
X049478Y026202D01*
X049478Y026006D02*
X049922Y026006D01*
X052651Y023276D01*
X057151Y023276D01*
X059101Y021651D02*
X058337Y020887D01*
X057824Y020887D01*
X057824Y020691D02*
X058987Y020691D01*
X059526Y020151D01*
X063901Y020151D01*
X064151Y020401D01*
X064151Y020026D02*
X063901Y019776D01*
X059151Y019776D01*
X058631Y020297D01*
X057824Y020297D01*
X057824Y020494D02*
X058809Y020494D01*
X058901Y020401D01*
X058401Y020026D02*
X058327Y020100D01*
X057824Y020100D01*
X057824Y019903D02*
X058149Y019903D01*
X058651Y019401D01*
X063901Y019401D01*
X064151Y019651D01*
X064151Y019276D02*
X058026Y019276D01*
X057276Y018526D01*
X057026Y018526D01*
X056899Y018653D01*
X056899Y018978D01*
X056702Y018978D02*
X056702Y019475D01*
X056526Y019651D01*
X056309Y019494D02*
X056309Y018978D01*
X056506Y018978D02*
X056506Y018672D01*
X056776Y018401D01*
X057401Y018401D01*
X058151Y019151D01*
X059651Y019151D01*
X059776Y019026D01*
X059276Y018901D02*
X059151Y019026D01*
X058276Y019026D01*
X057526Y018276D01*
X056401Y018276D01*
X056112Y018566D01*
X056112Y018978D01*
X055915Y018978D02*
X055915Y019512D01*
X055776Y019651D01*
X055521Y019531D02*
X055521Y018978D01*
X055324Y018978D02*
X055324Y018603D01*
X055901Y018026D01*
X057776Y018026D01*
X058276Y018526D01*
X058401Y018526D01*
X058401Y018901D02*
X057651Y018151D01*
X056151Y018151D01*
X055718Y018584D01*
X055718Y018978D01*
X055521Y019531D02*
X055401Y019651D01*
X055128Y019550D02*
X055026Y019651D01*
X055128Y019550D02*
X055128Y018978D01*
X054931Y018978D02*
X054931Y018622D01*
X055651Y017901D01*
X058026Y017901D01*
X058151Y018026D01*
X057776Y017651D02*
X057651Y017776D01*
X055401Y017776D01*
X054537Y018640D01*
X054537Y018978D01*
X054734Y018978D02*
X054734Y019569D01*
X054651Y019651D01*
X053553Y019500D02*
X053553Y018978D01*
X053356Y018978D02*
X053356Y018571D01*
X053526Y018401D01*
X054401Y018401D01*
X055401Y017401D01*
X057901Y017401D01*
X059026Y018526D01*
X061151Y018526D01*
X061276Y018276D02*
X059276Y018276D01*
X058276Y017276D01*
X050526Y017276D01*
X049651Y018151D01*
X049651Y019026D01*
X050526Y019901D01*
X050526Y021276D01*
X050324Y021478D01*
X049478Y021478D01*
X049478Y021675D02*
X049050Y021675D01*
X048401Y021026D01*
X048401Y019151D01*
X048651Y018901D01*
X048651Y014401D01*
X052901Y010151D01*
X052901Y009151D01*
X053401Y008651D01*
X064151Y008651D01*
X064651Y009151D01*
X064651Y010651D01*
X065151Y011151D01*
X066901Y011151D01*
X067151Y010901D01*
X067151Y010151D01*
X066651Y009651D01*
X066901Y009151D02*
X066151Y009151D01*
X065651Y008651D01*
X066151Y008151D02*
X066651Y008651D01*
X067151Y008901D02*
X066901Y009151D01*
X067151Y008901D02*
X067151Y007401D01*
X066901Y007151D01*
X056651Y007151D01*
X053401Y007151D01*
X052151Y008401D01*
X052151Y010151D01*
X047901Y014401D01*
X047901Y018151D01*
X047651Y018401D01*
X047651Y021776D01*
X048534Y022659D01*
X049478Y022659D01*
X049478Y022462D02*
X048837Y022462D01*
X047901Y021526D01*
X047901Y018651D01*
X048151Y018401D01*
X048151Y014401D01*
X052401Y010151D01*
X052401Y008651D01*
X053401Y007651D01*
X059401Y007651D01*
X065651Y007651D01*
X066151Y008151D02*
X055651Y008151D01*
X053401Y008151D01*
X052651Y008901D01*
X052651Y010151D01*
X048401Y014401D01*
X048401Y018651D01*
X048151Y018901D01*
X048151Y021276D01*
X048944Y022069D01*
X049478Y022069D01*
X050651Y021651D02*
X050651Y019526D01*
X050403Y019278D01*
X050403Y018978D01*
X050206Y018978D02*
X050206Y018081D01*
X050151Y018026D01*
X050526Y018401D02*
X050600Y018475D01*
X050600Y018978D01*
X050797Y018978D02*
X050797Y018131D01*
X050901Y018026D01*
X050994Y018309D02*
X051276Y018026D01*
X051651Y018026D02*
X051191Y018487D01*
X051191Y018978D01*
X051387Y018978D02*
X051387Y018540D01*
X051651Y018276D01*
X052026Y018276D01*
X052151Y018151D01*
X052151Y017776D01*
X052401Y017526D02*
X052401Y018151D01*
X052026Y018526D01*
X051651Y018526D01*
X051584Y018593D01*
X051584Y018978D01*
X050994Y018978D02*
X050994Y018309D01*
X051651Y018026D02*
X051901Y018026D01*
X052962Y018653D02*
X052962Y018978D01*
X053159Y018978D02*
X053159Y019643D01*
X052901Y019901D01*
X051526Y019901D01*
X051276Y019651D01*
X050901Y019651D02*
X051276Y020026D01*
X053026Y020026D01*
X053553Y019500D01*
X052962Y018653D02*
X054026Y017589D01*
X054776Y017589D01*
X055901Y016901D02*
X058901Y016901D01*
X060026Y018026D01*
X061651Y018026D01*
X061964Y018339D01*
X061901Y018651D02*
X061401Y018151D01*
X059651Y018151D01*
X058651Y017151D01*
X050401Y017151D01*
X049401Y018151D01*
X049401Y019026D01*
X050401Y020026D01*
X050401Y020901D01*
X050218Y021084D01*
X049478Y021084D01*
X049478Y020887D02*
X049915Y020887D01*
X050151Y020651D01*
X049478Y020494D02*
X049184Y020494D01*
X048901Y020776D01*
X048651Y020901D02*
X048651Y019401D01*
X048901Y019151D01*
X048901Y018401D01*
X049776Y017526D01*
X049776Y014026D01*
X051901Y011901D01*
X053901Y011901D01*
X054401Y012401D01*
X060901Y012401D01*
X061401Y011901D01*
X061930Y011372D01*
X061930Y010381D01*
X060946Y010381D02*
X060946Y011606D01*
X060651Y011901D01*
X059151Y011901D02*
X058977Y011727D01*
X058977Y010381D01*
X057993Y010381D02*
X057993Y011559D01*
X057651Y011901D01*
X056025Y011778D02*
X055901Y011901D01*
X056025Y011778D02*
X056025Y010381D01*
X057009Y010381D02*
X057009Y009793D01*
X057401Y009401D01*
X059962Y009841D02*
X060401Y009401D01*
X059962Y009841D02*
X059962Y010381D01*
X058651Y013401D02*
X052901Y013401D01*
X052151Y012651D01*
X051776Y012776D02*
X052651Y013651D01*
X058401Y013651D01*
X061901Y017151D01*
X061651Y017401D02*
X058151Y013901D01*
X052401Y013901D01*
X051401Y012901D01*
X051026Y013276D02*
X051901Y014151D01*
X057901Y014151D01*
X061151Y017401D01*
X060901Y017651D02*
X057651Y014401D01*
X051401Y014401D01*
X050651Y013651D01*
X049151Y014401D02*
X049151Y017401D01*
X048901Y017526D02*
X048901Y014401D01*
X051901Y011401D01*
X053651Y011401D01*
X053901Y011151D01*
X054401Y011651D02*
X054411Y011642D01*
X054411Y010381D01*
X054883Y010381D02*
X054883Y011919D01*
X054651Y012151D01*
X054401Y011651D02*
X051901Y011651D01*
X049151Y014401D01*
X047651Y014401D02*
X051901Y010151D01*
X051901Y008151D01*
X053401Y006651D01*
X063901Y006651D01*
X063901Y006151D02*
X063401Y005651D01*
X053401Y005651D01*
X051401Y007651D01*
X051401Y010151D01*
X047151Y014401D01*
X047151Y017401D01*
X046651Y017901D01*
X046651Y022651D01*
X046151Y023151D01*
X046651Y023151D02*
X046901Y022901D01*
X046901Y018151D01*
X047401Y017651D01*
X047401Y014401D01*
X051651Y010151D01*
X051651Y007901D01*
X053401Y006151D01*
X063401Y006151D01*
X053781Y001444D02*
X053194Y001444D01*
X053151Y001401D01*
X052901Y001151D01*
X052214Y001151D01*
X052138Y001101D02*
X050651Y001101D01*
X050651Y001701D02*
X050651Y002601D01*
X051451Y002601D01*
X051651Y002401D01*
X052651Y002401D01*
X052901Y002651D01*
X052901Y003651D01*
X052901Y003712D02*
X052151Y004462D01*
X052151Y003214D02*
X050664Y003214D01*
X050664Y004088D01*
X050651Y004101D01*
X050651Y004701D02*
X050651Y005151D01*
X050651Y005601D01*
X050651Y006201D02*
X051790Y006201D01*
X052151Y005840D01*
X049351Y003201D02*
X049151Y003401D01*
X047901Y003401D01*
X047151Y002651D01*
X046651Y002151D02*
X047151Y001651D01*
X046651Y002151D02*
X046651Y003401D01*
X047151Y003901D01*
X047151Y004401D02*
X045651Y002901D01*
X045651Y001401D01*
X045901Y001151D01*
X048651Y001151D01*
X049151Y001651D01*
X049351Y003201D02*
X050651Y003201D01*
X047651Y004401D02*
X047151Y004401D01*
X046151Y005901D02*
X046151Y016151D01*
X044901Y017401D01*
X044901Y023151D01*
X044276Y023651D02*
X048651Y023651D01*
X048856Y023446D01*
X049478Y023446D01*
X049478Y023250D02*
X048678Y023250D01*
X048526Y023401D01*
X043901Y023401D01*
X043651Y023901D02*
X042026Y023901D01*
X040401Y022276D01*
X033651Y022276D01*
X033331Y022596D01*
X032651Y022596D01*
X032526Y022276D02*
X033151Y022276D01*
X033225Y022202D01*
X033401Y022026D01*
X040526Y022026D01*
X040401Y022526D02*
X040026Y022526D01*
X039021Y023531D01*
X039021Y024191D01*
X040401Y022526D02*
X042026Y024151D01*
X043526Y024151D01*
X044651Y023901D02*
X048651Y023901D01*
X048787Y024037D01*
X049478Y024037D01*
X049478Y022856D02*
X048231Y022856D01*
X047401Y022026D01*
X047401Y018151D01*
X047651Y017901D01*
X047651Y014401D01*
X045526Y014776D02*
X042824Y017478D01*
X042191Y017478D01*
X042191Y017675D02*
X043128Y017675D01*
X045276Y015526D01*
X045026Y016276D02*
X043431Y017872D01*
X042191Y017872D01*
X042191Y018069D02*
X043734Y018069D01*
X044776Y017026D01*
X044276Y015401D02*
X042987Y016691D01*
X042191Y016691D01*
X042191Y016494D02*
X042934Y016494D01*
X044026Y015401D01*
X044026Y012526D01*
X044616Y011937D01*
X044616Y011297D01*
X044931Y011297D02*
X044931Y011997D01*
X044276Y012651D01*
X044276Y015401D01*
X043776Y015401D02*
X043776Y012401D01*
X044301Y011877D01*
X044301Y011297D01*
X043986Y011297D02*
X043986Y011817D01*
X043526Y012276D01*
X043526Y015401D01*
X042827Y016100D01*
X042191Y016100D01*
X042191Y016297D02*
X042881Y016297D01*
X043776Y015401D01*
X043276Y015401D02*
X043276Y012151D01*
X043671Y011756D01*
X043671Y011297D01*
X043356Y011297D02*
X043356Y011696D01*
X043151Y011901D01*
X043151Y015276D01*
X042721Y015706D01*
X042191Y015706D01*
X042191Y015903D02*
X042774Y015903D01*
X043276Y015401D01*
X043026Y015151D02*
X043026Y011312D01*
X043041Y011297D01*
X042726Y011297D02*
X042726Y012701D01*
X042151Y013276D01*
X040776Y013276D01*
X040399Y013653D01*
X040399Y014112D01*
X039415Y014112D02*
X039415Y013762D01*
X040401Y012776D01*
X041401Y012776D01*
X041026Y012526D02*
X040401Y012526D01*
X039218Y013709D01*
X039218Y014112D01*
X038234Y014112D02*
X038234Y013694D01*
X039026Y012901D01*
X038526Y012901D02*
X037840Y013587D01*
X037840Y014112D01*
X037643Y014112D02*
X037643Y014643D01*
X037651Y014651D01*
X038026Y014651D02*
X038037Y014515D01*
X038037Y014112D01*
X037446Y014112D02*
X037446Y013481D01*
X038026Y012901D01*
X037651Y012901D02*
X037053Y013500D01*
X037053Y014112D01*
X036856Y014112D02*
X036856Y014606D01*
X036901Y014651D01*
X036659Y014112D02*
X036659Y013768D01*
X036776Y013651D01*
X036776Y013276D01*
X037151Y012901D01*
X037026Y012651D02*
X039776Y012651D01*
X040836Y011591D01*
X040836Y011297D01*
X040206Y011297D02*
X040206Y011721D01*
X039401Y012526D01*
X036901Y012526D01*
X035872Y013556D01*
X035872Y014112D01*
X036069Y014112D02*
X036069Y013609D01*
X037026Y012651D01*
X036776Y012401D02*
X039151Y012401D01*
X039891Y011661D01*
X039891Y011297D01*
X039261Y011297D02*
X039261Y011666D01*
X038651Y012276D01*
X036651Y012276D01*
X035478Y013449D01*
X035478Y014112D01*
X035675Y014112D02*
X035675Y013503D01*
X036776Y012401D01*
X036526Y012151D02*
X035281Y013396D01*
X035281Y014112D01*
X035084Y014112D02*
X035084Y013343D01*
X036401Y012026D01*
X037901Y012026D01*
X038317Y011611D01*
X038317Y011297D01*
X038002Y011297D02*
X038002Y011551D01*
X037651Y011901D01*
X036276Y011901D01*
X034887Y013290D01*
X034887Y014112D01*
X034691Y014112D02*
X034691Y013237D01*
X036151Y011776D01*
X037151Y011776D01*
X037372Y011556D01*
X037372Y011297D01*
X036901Y010276D02*
X037901Y010276D01*
X040836Y007341D01*
X040836Y007006D01*
X040206Y007006D02*
X040206Y007346D01*
X037526Y010026D01*
X036526Y010026D01*
X036901Y009776D02*
X037401Y009776D01*
X039891Y007286D01*
X039891Y007006D01*
X039261Y007006D02*
X039261Y007541D01*
X037276Y009526D01*
X036526Y009526D01*
X036901Y009276D02*
X037151Y009276D01*
X038946Y007481D01*
X038946Y007006D01*
X038317Y007006D02*
X038317Y007736D01*
X037026Y009026D01*
X036526Y009026D01*
X036901Y008776D02*
X038002Y007676D01*
X038002Y007006D01*
X037372Y007006D02*
X037372Y007681D01*
X036526Y008526D01*
X035901Y009026D02*
X033276Y011651D01*
X033276Y012901D01*
X033903Y013528D01*
X033903Y014112D01*
X034100Y014112D02*
X034100Y013350D01*
X034026Y013276D01*
X033901Y013151D01*
X033901Y012701D01*
X033901Y012651D01*
X033901Y012701D02*
X033901Y012776D01*
X034401Y013276D02*
X034651Y013026D01*
X034651Y012701D01*
X034401Y013276D02*
X034297Y013381D01*
X034297Y014112D01*
X033151Y015401D02*
X034151Y016401D01*
X035651Y016401D01*
X036151Y016901D01*
X036151Y020151D01*
X035901Y020401D01*
X034526Y019526D02*
X033901Y019526D01*
X033034Y018659D01*
X032112Y018659D01*
X031534Y018659D01*
X031401Y018526D01*
X030526Y018526D01*
X030276Y018776D01*
X030151Y018776D01*
X029901Y018776D01*
X029776Y018526D02*
X027955Y018526D01*
X027946Y018535D01*
X027932Y018776D02*
X027946Y018791D01*
X027932Y018776D02*
X027151Y018776D01*
X027946Y019047D02*
X028506Y019047D01*
X028651Y018901D01*
X028875Y019303D02*
X027946Y019303D01*
X027946Y019559D02*
X028434Y019559D01*
X029901Y021026D01*
X030776Y021026D01*
X031026Y021026D01*
X031415Y021415D01*
X032112Y021415D01*
X032762Y021415D01*
X032901Y021276D01*
X041651Y021276D01*
X041276Y021526D02*
X033026Y021526D01*
X032941Y021612D01*
X032112Y021612D01*
X031362Y021612D01*
X031026Y021276D01*
X030151Y021276D01*
X029901Y021276D01*
X028440Y019815D01*
X027946Y019815D01*
X028875Y019303D02*
X029151Y019026D01*
X029776Y018526D02*
X030431Y017872D01*
X032112Y017872D01*
X032112Y018069D02*
X031484Y018069D01*
X031401Y018151D01*
X030526Y018151D01*
X030276Y018401D01*
X029776Y018276D02*
X028651Y018276D01*
X029026Y018026D02*
X029276Y017776D01*
X029776Y017776D01*
X030271Y017281D01*
X032112Y017281D01*
X032521Y017281D01*
X032651Y017151D01*
X034151Y017151D01*
X035026Y017651D02*
X035526Y017151D01*
X035026Y017651D02*
X032651Y017651D01*
X032478Y017478D01*
X032112Y017478D01*
X030324Y017478D01*
X029776Y018026D01*
X029526Y018026D01*
X029776Y018276D02*
X030378Y017675D01*
X032112Y017675D01*
X032112Y018069D02*
X033819Y018069D01*
X034526Y018776D01*
X034526Y019526D02*
X035276Y018776D01*
X032112Y018856D02*
X031571Y018856D01*
X031276Y019151D01*
X030276Y019151D01*
X030526Y019276D02*
X030276Y019526D01*
X029901Y019526D01*
X030526Y019276D02*
X031401Y019276D01*
X031625Y019053D01*
X032112Y019053D01*
X031151Y019651D02*
X031151Y020276D01*
X031306Y020431D01*
X032112Y020431D01*
X032112Y020628D02*
X031253Y020628D01*
X030776Y020151D01*
X030651Y020526D02*
X030276Y020151D01*
X030651Y020526D02*
X030901Y020526D01*
X031199Y020824D01*
X032112Y020824D01*
X032112Y020234D02*
X031734Y020234D01*
X031526Y020026D01*
X032112Y022202D02*
X032452Y022202D01*
X032526Y022276D01*
X032112Y022399D02*
X031403Y022399D01*
X031401Y022401D01*
X032901Y023401D02*
X033276Y023401D01*
X034151Y022526D01*
X034526Y022901D02*
X034100Y023327D01*
X034100Y024191D01*
X034297Y024191D02*
X034297Y023756D01*
X034776Y023276D01*
X035276Y023276D01*
X035901Y022651D01*
X036069Y024191D02*
X036069Y024734D01*
X035901Y024901D01*
X036265Y024765D02*
X036401Y024901D01*
X036265Y024765D02*
X036265Y024191D01*
X042191Y022793D02*
X043134Y022793D01*
X043276Y022651D01*
X042956Y022596D02*
X044276Y021276D01*
X044026Y020901D02*
X043316Y021612D01*
X042191Y021612D01*
X042191Y021415D02*
X043012Y021415D01*
X043776Y020651D01*
X043526Y020276D02*
X042584Y021218D01*
X042191Y021218D01*
X042191Y021021D02*
X042531Y021021D01*
X042776Y020776D01*
X042776Y020401D01*
X044526Y018651D01*
X042191Y018462D02*
X041712Y018462D01*
X040401Y017151D01*
X040401Y015776D01*
X041776Y014401D01*
X041776Y013776D01*
X042026Y014401D02*
X040526Y015901D01*
X040526Y017026D01*
X041765Y018265D01*
X042191Y018265D01*
X041651Y020026D02*
X041651Y020401D01*
X041878Y020628D01*
X042191Y020628D01*
X042191Y020824D02*
X041699Y020824D01*
X041651Y020776D01*
X042191Y022006D02*
X042672Y022006D01*
X042776Y021901D01*
X042956Y022596D02*
X042191Y022596D01*
X045026Y024901D02*
X048151Y024901D01*
X049059Y025809D01*
X049478Y025809D01*
X049478Y026399D02*
X049774Y026399D01*
X049901Y026526D01*
X049901Y027526D01*
X049151Y027401D02*
X049151Y028151D01*
X050651Y029651D01*
X054151Y029651D01*
X054651Y030151D01*
X057096Y027596D02*
X057401Y027901D01*
X059776Y027901D01*
X061526Y026151D01*
X057096Y027324D02*
X057096Y027596D01*
X049478Y026596D02*
X049206Y026596D01*
X049151Y026651D01*
X049151Y026776D01*
X049276Y026901D01*
X049478Y021281D02*
X049031Y021281D01*
X048651Y020901D01*
X048975Y020100D02*
X048901Y020026D01*
X048975Y020100D02*
X049478Y020100D01*
X049478Y019903D02*
X049153Y019903D01*
X048901Y019651D01*
X049026Y017651D02*
X048901Y017526D01*
X049026Y017651D02*
X049276Y017651D01*
X049526Y017401D01*
X043026Y015151D02*
X042865Y015313D01*
X042191Y015313D01*
X042026Y012276D02*
X041781Y012021D01*
X041781Y011297D01*
X042096Y011297D02*
X042096Y010831D01*
X042276Y010651D01*
X042411Y010891D02*
X042776Y010526D01*
X043026Y010526D01*
X043526Y010526D02*
X041781Y008781D01*
X041781Y007006D01*
X041466Y007006D02*
X041466Y007466D01*
X041526Y007526D01*
X041526Y008901D01*
X041776Y009151D01*
X041776Y010651D01*
X042411Y010891D02*
X042411Y011297D01*
X043776Y010026D02*
X042096Y008346D01*
X042096Y007006D01*
X042411Y007006D02*
X042411Y008036D01*
X044026Y009651D01*
X044276Y009276D02*
X042726Y007726D01*
X042726Y007006D01*
X043041Y007006D02*
X043041Y007636D01*
X043026Y007651D01*
X043671Y007796D02*
X043671Y007006D01*
X043986Y007006D02*
X043986Y007736D01*
X044776Y008526D01*
X044776Y010026D01*
X044526Y010526D02*
X044526Y008651D01*
X043671Y007796D01*
X044301Y007676D02*
X045026Y008401D01*
X045026Y009401D01*
X045276Y008776D02*
X045276Y008276D01*
X044616Y007616D01*
X044616Y007006D01*
X044931Y007006D02*
X044931Y007556D01*
X045526Y008151D01*
X044301Y007676D02*
X044301Y007006D01*
X043356Y007006D02*
X043356Y006481D01*
X043276Y006401D01*
X046151Y005901D02*
X043464Y003214D01*
X042901Y003214D01*
X042288Y002601D01*
X041651Y002601D01*
X041651Y001701D01*
X041651Y001101D02*
X040701Y001101D01*
X040151Y001651D01*
X039151Y002651D02*
X038651Y003151D01*
X038026Y003151D01*
X037651Y002776D01*
X037651Y002526D01*
X037151Y002651D02*
X037151Y005401D01*
X035901Y006651D01*
X035901Y009026D01*
X038946Y011297D02*
X038946Y011606D01*
X038401Y012151D01*
X036526Y012151D01*
X035151Y011901D02*
X034951Y012101D01*
X034651Y012101D01*
X033901Y012101D01*
X029651Y014526D02*
X029276Y014151D01*
X028374Y014151D01*
X027901Y013679D01*
X027901Y014624D02*
X027901Y015276D01*
X027651Y015526D02*
X028601Y015526D01*
X028901Y015276D02*
X028901Y014624D01*
X028901Y015276D02*
X029151Y015526D01*
X029151Y015601D01*
X029201Y015526D01*
X027651Y015526D02*
X027401Y015276D01*
X027401Y014901D01*
X027151Y014651D01*
X023651Y014651D01*
X023488Y014815D01*
X023488Y015356D01*
X025651Y016026D02*
X026401Y016026D01*
X026559Y015869D01*
X026559Y015356D01*
X027946Y016744D02*
X028744Y016744D01*
X028776Y016776D01*
X029651Y016776D01*
X029276Y017026D02*
X028651Y017026D01*
X028625Y017000D01*
X027946Y017000D01*
X027946Y017256D02*
X028506Y017256D01*
X028526Y017276D01*
X029651Y017276D01*
X029026Y017526D02*
X028401Y017526D01*
X028386Y017511D01*
X027946Y017511D01*
X030901Y015901D02*
X031526Y016526D01*
X031526Y016651D01*
X041651Y003651D02*
X041651Y003201D01*
X041651Y001101D02*
X042888Y001101D01*
X042901Y001088D01*
X058651Y013401D02*
X062901Y017651D01*
X062151Y017401D02*
X061651Y017401D01*
X061276Y018276D02*
X061901Y018901D01*
X063901Y018901D01*
X063276Y018651D02*
X061901Y018651D01*
X058776Y018776D02*
X058651Y018901D01*
X058401Y018901D01*
X056309Y019494D02*
X056151Y019651D01*
X059701Y021651D02*
X060651Y021651D01*
X060901Y021401D01*
X061526Y021401D01*
X016901Y001151D02*
X016401Y001651D01*
D61*
X016151Y001401D03*
X016901Y001151D03*
X016901Y001901D03*
X018401Y001901D03*
X019776Y001901D03*
X020401Y001401D03*
X021151Y001151D03*
X021151Y001651D03*
X022901Y001901D03*
X023651Y001401D03*
X024401Y001151D03*
X024401Y001651D03*
X025901Y001901D03*
X026651Y001401D03*
X027401Y001151D03*
X027401Y001651D03*
X028401Y002651D03*
X027901Y003151D03*
X026651Y003651D03*
X025401Y003151D03*
X024901Y003151D03*
X023651Y003651D03*
X022401Y003151D03*
X021901Y003651D03*
X021651Y003151D03*
X020401Y003651D03*
X019151Y003151D03*
X020276Y005276D03*
X017901Y005401D03*
X017901Y006401D03*
X015401Y007901D03*
X014901Y007901D03*
X016151Y009651D03*
X014151Y011901D03*
X013651Y011901D03*
X013151Y011901D03*
X014651Y012651D03*
X009651Y009651D03*
X008651Y008151D03*
X010651Y007651D03*
X007651Y011901D03*
X007151Y011901D03*
X006651Y011901D03*
X008151Y012651D03*
X008401Y015151D03*
X008901Y016651D03*
X010401Y017901D03*
X018901Y018651D03*
X019151Y019651D03*
X021401Y020401D03*
X022401Y021901D03*
X023401Y020151D03*
X023901Y020151D03*
X024401Y020151D03*
X023151Y019401D03*
X023151Y018901D03*
X023151Y017401D03*
X023151Y016901D03*
X023651Y016151D03*
X024401Y016151D03*
X025651Y016026D03*
X026776Y016401D03*
X027401Y015776D03*
X027901Y015276D03*
X029651Y014526D03*
X028901Y013151D03*
X031401Y012651D03*
X031651Y012151D03*
X033526Y013526D03*
X034026Y013276D03*
X034401Y013276D03*
X035151Y012276D03*
X035151Y011901D03*
X036526Y010651D03*
X036901Y010276D03*
X036526Y010026D03*
X036901Y009776D03*
X036526Y009526D03*
X036901Y009276D03*
X036526Y009026D03*
X036901Y008776D03*
X036526Y008526D03*
X038651Y006401D03*
X037776Y006026D03*
X039776Y006026D03*
X040526Y006401D03*
X041401Y006026D03*
X043276Y006401D03*
X043026Y007651D03*
X045276Y008776D03*
X045026Y009401D03*
X044776Y010026D03*
X044526Y010526D03*
X043776Y010026D03*
X044026Y009651D03*
X044276Y009276D03*
X043526Y010526D03*
X043026Y010526D03*
X042276Y010651D03*
X041776Y010651D03*
X040526Y010651D03*
X039401Y010651D03*
X038901Y010651D03*
X041026Y011901D03*
X041026Y012526D03*
X041401Y012776D03*
X042026Y012276D03*
X041776Y013776D03*
X042026Y014401D03*
X042776Y015026D03*
X041651Y015151D03*
X040776Y014651D03*
X038776Y013526D03*
X038526Y012901D03*
X038026Y012901D03*
X037651Y012901D03*
X037151Y012901D03*
X036526Y013526D03*
X036151Y014651D03*
X036901Y014651D03*
X037276Y014651D03*
X037651Y014651D03*
X038026Y014651D03*
X038401Y014651D03*
X037651Y016276D03*
X035526Y017151D03*
X034901Y017151D03*
X034151Y017151D03*
X032651Y016401D03*
X032901Y015901D03*
X033151Y015401D03*
X033151Y014776D03*
X034651Y014651D03*
X031526Y016651D03*
X030901Y016401D03*
X030401Y016401D03*
X029901Y016026D03*
X029651Y016776D03*
X029276Y017026D03*
X029651Y017276D03*
X029026Y017526D03*
X029026Y018026D03*
X028651Y018276D03*
X028651Y018901D03*
X029151Y019026D03*
X029901Y018776D03*
X030276Y018401D03*
X029526Y018026D03*
X030276Y019151D03*
X029901Y019526D03*
X030276Y020151D03*
X030776Y020151D03*
X031151Y019651D03*
X031526Y020026D03*
X031526Y021151D03*
X030776Y021026D03*
X030651Y021526D03*
X030151Y021276D03*
X030276Y022776D03*
X031401Y022401D03*
X031526Y023526D03*
X032651Y023276D03*
X032651Y024026D03*
X033901Y025151D03*
X035276Y024901D03*
X035901Y024901D03*
X036401Y024901D03*
X036901Y025651D03*
X037651Y024776D03*
X039276Y024776D03*
X040401Y024712D03*
X041026Y023651D03*
X041651Y023151D03*
X041651Y022151D03*
X041651Y021776D03*
X041276Y021526D03*
X040901Y021776D03*
X040526Y022026D03*
X040026Y022901D03*
X038276Y023651D03*
X037901Y022901D03*
X036651Y023651D03*
X035526Y023651D03*
X034526Y022901D03*
X034151Y022526D03*
X033401Y022026D03*
X032651Y022026D03*
X032651Y021151D03*
X035151Y020776D03*
X035401Y020401D03*
X035901Y020401D03*
X034151Y019151D03*
X034526Y018776D03*
X035276Y018776D03*
X032651Y019276D03*
X031590Y018337D03*
X027151Y018026D03*
X027151Y018776D03*
X026401Y017526D03*
X026401Y019901D03*
X027276Y021526D03*
X027901Y022151D03*
X030901Y025401D03*
X031901Y026901D03*
X032901Y026901D03*
X032901Y028901D03*
X034151Y029026D03*
X036151Y029776D03*
X036901Y029776D03*
X040026Y028651D03*
X042151Y027901D03*
X042901Y025401D03*
X042901Y024651D03*
X043526Y024151D03*
X043526Y023651D03*
X043901Y023401D03*
X044276Y023651D03*
X044651Y023901D03*
X044901Y023151D03*
X046151Y023151D03*
X046651Y023151D03*
X046651Y024401D03*
X046151Y024401D03*
X045026Y024901D03*
X043276Y022651D03*
X042776Y022276D03*
X042776Y021901D03*
X041651Y021276D03*
X041651Y020776D03*
X041651Y020026D03*
X041651Y019651D03*
X041651Y019151D03*
X042776Y019401D03*
X043526Y020276D03*
X043776Y020651D03*
X044026Y020901D03*
X044276Y021276D03*
X047151Y020401D03*
X048901Y020401D03*
X048901Y020026D03*
X048901Y019651D03*
X049151Y019276D03*
X050151Y018026D03*
X050526Y018401D03*
X050901Y018026D03*
X051276Y018026D03*
X051901Y018026D03*
X052151Y017776D03*
X052401Y017526D03*
X051776Y016651D03*
X053651Y016651D03*
X054401Y017901D03*
X054776Y017589D03*
X055526Y016651D03*
X055901Y016901D03*
X057776Y017651D03*
X058151Y018026D03*
X058401Y018526D03*
X058776Y018776D03*
X059276Y018901D03*
X059776Y019026D03*
X061151Y019026D03*
X061151Y018526D03*
X061964Y018339D03*
X060901Y017651D03*
X061151Y017401D03*
X061901Y017151D03*
X062151Y017401D03*
X062901Y017651D03*
X063276Y018651D03*
X063901Y018901D03*
X064151Y019276D03*
X064151Y019651D03*
X064151Y020026D03*
X064151Y020401D03*
X063651Y020901D03*
X063401Y020651D03*
X064151Y021526D03*
X065401Y021776D03*
X065401Y022151D03*
X065776Y021776D03*
X064151Y023776D03*
X063776Y023776D03*
X064151Y024276D03*
X064151Y024901D03*
X064151Y025276D03*
X064151Y025651D03*
X064151Y026151D03*
X064151Y026526D03*
X064151Y026901D03*
X065401Y026151D03*
X066651Y026651D03*
X066651Y024651D03*
X065401Y024151D03*
X061901Y024151D03*
X061526Y024151D03*
X061151Y024401D03*
X059901Y024276D03*
X059401Y024276D03*
X059151Y024526D03*
X058776Y024526D03*
X058401Y024526D03*
X057151Y024401D03*
X057151Y025151D03*
X055651Y024401D03*
X054651Y025151D03*
X054151Y024401D03*
X051651Y023651D03*
X051651Y022901D03*
X050151Y022901D03*
X050151Y022526D03*
X050151Y022151D03*
X050651Y021651D03*
X050151Y020651D03*
X050901Y019651D03*
X051276Y019651D03*
X051651Y019651D03*
X052026Y019651D03*
X052401Y019651D03*
X052776Y019651D03*
X053901Y019651D03*
X054276Y019651D03*
X054651Y019651D03*
X055026Y019651D03*
X055401Y019651D03*
X055776Y019651D03*
X056151Y019651D03*
X056526Y019651D03*
X057151Y019776D03*
X058401Y020026D03*
X058901Y020401D03*
X059276Y021151D03*
X061151Y021776D03*
X061526Y021401D03*
X061276Y023276D03*
X059151Y022901D03*
X058401Y022651D03*
X057151Y022901D03*
X057151Y023276D03*
X056776Y022401D03*
X057151Y021276D03*
X057151Y020401D03*
X055651Y020401D03*
X053901Y021151D03*
X052401Y021151D03*
X050151Y023276D03*
X050151Y023651D03*
X050151Y025026D03*
X050151Y025401D03*
X050901Y026651D03*
X051651Y026651D03*
X052026Y026651D03*
X052401Y026651D03*
X052776Y026651D03*
X053526Y026651D03*
X053901Y026651D03*
X054401Y026651D03*
X055526Y026651D03*
X055901Y026651D03*
X058026Y027401D03*
X058276Y027151D03*
X058526Y026901D03*
X059151Y026401D03*
X059651Y026901D03*
X061151Y025901D03*
X061151Y025401D03*
X059901Y025651D03*
X059526Y025651D03*
X059526Y025026D03*
X062901Y028526D03*
X065151Y029401D03*
X065151Y029901D03*
X055901Y029401D03*
X055026Y029401D03*
X053151Y027901D03*
X051901Y027901D03*
X050651Y028026D03*
X049901Y027901D03*
X049651Y027401D03*
X049151Y027401D03*
X049276Y026901D03*
X051651Y025151D03*
X049901Y029401D03*
X049151Y030901D03*
X046651Y032401D03*
X046151Y032401D03*
X043901Y030651D03*
X044401Y030151D03*
X043651Y032901D03*
X044901Y034651D03*
X045901Y035401D03*
X046651Y035901D03*
X045901Y036151D03*
X044401Y036901D03*
X043901Y036901D03*
X044151Y038151D03*
X047901Y036151D03*
X048151Y035401D03*
X048776Y035401D03*
X050651Y035151D03*
X050901Y035651D03*
X051151Y034651D03*
X050651Y033901D03*
X051401Y033151D03*
X052401Y032151D03*
X046651Y034401D03*
X049401Y036901D03*
X039776Y033651D03*
X039776Y032651D03*
X037401Y033651D03*
X037401Y034901D03*
X027901Y030151D03*
X025901Y031401D03*
X023901Y030151D03*
X022651Y031651D03*
X017901Y030151D03*
X017651Y030901D03*
X017151Y029151D03*
X014151Y029151D03*
X013151Y029151D03*
X013401Y030401D03*
X013901Y031401D03*
X013901Y033026D03*
X013401Y033026D03*
X011276Y033651D03*
X010526Y032651D03*
X010151Y029151D03*
X016026Y033151D03*
X016026Y033651D03*
X016776Y032651D03*
X035901Y022651D03*
X040151Y020776D03*
X044526Y018651D03*
X044776Y017026D03*
X045026Y016276D03*
X045276Y015526D03*
X045526Y014776D03*
X045776Y012276D03*
X050651Y013651D03*
X051026Y013276D03*
X051401Y012901D03*
X051776Y012776D03*
X052151Y012651D03*
X054401Y011651D03*
X054651Y012151D03*
X055901Y011901D03*
X057651Y011901D03*
X059151Y011901D03*
X060651Y011901D03*
X061401Y011901D03*
X060401Y009401D03*
X059401Y007651D03*
X057401Y009401D03*
X055651Y008151D03*
X056651Y007151D03*
X052901Y003651D03*
X050651Y005151D03*
X049151Y003401D03*
X047651Y004401D03*
X047151Y003901D03*
X045526Y006026D03*
X045776Y007276D03*
X045526Y008151D03*
X041651Y003651D03*
X036401Y003651D03*
X033401Y005151D03*
X031651Y005151D03*
X031401Y004401D03*
X030901Y003401D03*
X030651Y002651D03*
X029401Y000651D03*
X026526Y005276D03*
X023526Y005276D03*
X013901Y001901D03*
X012401Y001901D03*
X012401Y001151D03*
X011651Y001401D03*
X009401Y001901D03*
X007901Y001901D03*
X007901Y001151D03*
X007151Y001401D03*
X020776Y015276D03*
X039026Y012901D03*
X041651Y016776D03*
X040901Y017026D03*
X042776Y017151D03*
X049151Y017401D03*
X049526Y017401D03*
X048901Y020776D03*
X053901Y011151D03*
X063401Y006151D03*
X063901Y006151D03*
X063901Y006651D03*
X053151Y001401D03*
X065026Y018651D03*
X066651Y018901D03*
D62*
X060651Y033401D02*
X060151Y033401D01*
X060651Y033401D02*
X061151Y033901D01*
X061151Y035401D01*
X064151Y038401D01*
X064151Y039151D01*
X064643Y039643D01*
X064643Y039651D01*
X044401Y030151D02*
X044151Y029901D01*
X043826Y029901D01*
X043226Y029901D02*
X043201Y029876D01*
X043201Y029151D01*
X043201Y029101D01*
X044276Y028026D01*
X044276Y026026D01*
X042901Y024651D01*
X042901Y025401D02*
X042901Y026001D01*
X042751Y026151D01*
X043026Y026151D01*
X043776Y026901D01*
X043776Y027826D01*
X043201Y028401D01*
X042601Y028401D02*
X042601Y029151D01*
X042601Y030651D01*
X042101Y031151D01*
X041651Y031151D01*
X041151Y030651D01*
X040371Y030651D01*
X037931Y030651D01*
X039525Y029025D02*
X040151Y029651D01*
X040281Y029651D01*
X040371Y029741D01*
X039525Y029025D02*
X039525Y028584D01*
X039592Y028651D01*
X040026Y028651D01*
X039901Y028026D02*
X040151Y028026D01*
X040151Y027425D01*
X040651Y027425D02*
X040651Y028026D01*
X041151Y028026D01*
X041151Y027425D01*
X041651Y027425D02*
X041651Y027901D01*
X041526Y028026D01*
X041151Y028026D01*
X040651Y028026D02*
X040151Y028026D01*
X039901Y028026D02*
X039526Y027651D01*
X039151Y027651D01*
X039151Y027718D01*
X039084Y027651D01*
X037576Y027651D01*
X035726Y027651D02*
X035651Y027576D01*
X035651Y027276D01*
X035376Y027001D01*
X034151Y027001D01*
X034151Y026401D01*
X034901Y025651D01*
X035351Y025651D01*
X035951Y025651D02*
X036901Y025651D01*
X040151Y025901D02*
X040151Y025378D01*
X040651Y025378D02*
X040651Y026151D01*
X041151Y026151D01*
X041151Y025378D01*
X041151Y026151D02*
X042751Y026151D01*
X042751Y027301D02*
X042151Y027901D01*
X041651Y028401D01*
X041651Y030151D01*
X043151Y030701D02*
X043151Y031401D01*
X042651Y031901D01*
X042651Y033901D01*
X041651Y034901D01*
X039151Y034901D01*
X038151Y034901D02*
X037401Y034901D01*
X037276Y034776D01*
X036526Y034776D01*
X036526Y033776D02*
X037276Y033776D01*
X037401Y033651D01*
X038151Y033651D01*
X039151Y033651D02*
X039776Y033651D01*
X039776Y032651D02*
X040401Y032651D01*
X041651Y032651D01*
X040401Y032651D02*
X040371Y032621D01*
X040371Y031561D01*
X043151Y030701D02*
X043201Y030651D01*
X043901Y030651D01*
X042901Y027301D02*
X042751Y027301D01*
X040651Y026151D02*
X040401Y026151D01*
X040151Y025901D01*
X031151Y035651D02*
X031151Y037401D01*
X031305Y037555D01*
X031305Y038281D01*
X024305Y038281D02*
X024305Y037555D01*
X024151Y037401D01*
X024151Y035651D01*
X017151Y035651D02*
X017151Y037401D01*
X017305Y037555D01*
X017305Y038281D01*
X010305Y038281D02*
X010305Y037555D01*
X010151Y037401D01*
X010151Y035651D01*
X003151Y035651D02*
X003151Y037401D01*
X003305Y037555D01*
X003305Y038281D01*
X052901Y003712D02*
X052901Y003651D01*
X050664Y003214D02*
X050651Y003201D01*
X052138Y001101D02*
X052151Y001088D01*
X052214Y001151D01*
D63*
X066651Y005651D02*
X067651Y006651D01*
X067651Y026401D01*
X065901Y028151D01*
X065901Y033401D01*
X064401Y034901D01*
X064173Y034901D01*
X064151Y034923D01*
X063423Y034923D01*
X061151Y032651D01*
X059651Y032651D01*
X059401Y032401D01*
X059401Y031701D01*
X059351Y031651D01*
X060451Y031651D02*
X061151Y031651D01*
X061651Y030651D02*
X057651Y030651D01*
X057151Y031151D01*
X057151Y031651D01*
X057151Y033401D01*
X057651Y033401D02*
X057651Y033901D01*
X057401Y034151D01*
X056401Y034151D01*
X058151Y033401D02*
X058151Y031651D01*
X058651Y032651D02*
X058651Y033401D01*
X058651Y036651D01*
X056651Y037151D02*
X056151Y037151D01*
X056151Y037651D02*
X056651Y037651D01*
X056651Y038151D02*
X056151Y038151D01*
X055151Y037401D02*
X055026Y037401D01*
X054901Y037526D01*
X054776Y037651D01*
X054651Y037651D01*
X054526Y037776D01*
X053651Y037776D01*
X053651Y038651D01*
X053651Y037776D02*
X053651Y036526D01*
X053901Y035526D02*
X054776Y036401D01*
X055151Y035901D02*
X054811Y035561D01*
X054811Y035246D01*
X055151Y035901D02*
X055401Y035901D01*
X055651Y036151D01*
X055651Y036901D01*
X055151Y037401D01*
X053901Y035526D02*
X053901Y035246D01*
X053901Y032806D01*
X054056Y032651D01*
X054151Y032651D01*
X054901Y031901D01*
X054901Y031826D01*
X054901Y031226D02*
X054901Y030651D01*
X053901Y030651D02*
X053901Y031226D01*
X053901Y031826D02*
X053901Y032806D01*
X053746Y032651D01*
X053651Y032651D01*
X052901Y031901D01*
X052901Y031826D01*
X052901Y031226D02*
X052901Y030651D01*
X052991Y035246D02*
X052991Y035811D01*
X052651Y036151D01*
X052651Y036526D01*
X052651Y038651D01*
X052651Y037776D02*
X052651Y036526D01*
X059651Y033401D02*
X059651Y032651D01*
X061651Y030651D02*
X062380Y031380D01*
X064151Y031380D01*
X064151Y030151D01*
D64*
X064151Y030151D03*
X061151Y031651D03*
X061151Y032651D03*
X058651Y032651D03*
X056401Y034151D03*
X056151Y037151D03*
X056151Y037651D03*
X056151Y038151D03*
X053651Y038651D03*
X052651Y038651D03*
X052901Y030651D03*
X053901Y030651D03*
X054901Y030651D03*
D65*
X052401Y032151D02*
X052401Y032901D01*
X051047Y034256D01*
X050078Y034256D01*
X050078Y035023D02*
X050523Y035023D01*
X050651Y035151D01*
X049401Y036901D02*
X048291Y035791D01*
X047224Y035791D01*
X047224Y036047D02*
X046797Y036047D01*
X046651Y035901D01*
X046651Y035526D01*
X046898Y035279D01*
X047224Y035279D01*
X047224Y035535D02*
X048017Y035535D01*
X048151Y035401D01*
X047901Y036151D02*
X047750Y036303D01*
X047224Y036303D01*
X047224Y036559D02*
X048559Y036559D01*
X051151Y039151D01*
X052651Y039151D01*
X053151Y039651D01*
X053151Y040289D01*
X053143Y040297D01*
X053143Y041084D02*
X053143Y041659D01*
X052401Y042401D01*
X051901Y042401D01*
X051651Y042151D01*
X051651Y040151D01*
X048315Y036815D01*
X047224Y036815D01*
X045901Y036151D02*
X045651Y035901D01*
X045175Y035901D01*
X045175Y035401D02*
X045901Y035401D01*
X045901Y036151D02*
X045651Y036401D01*
X045175Y036401D01*
X045175Y036901D02*
X045175Y037625D01*
X045201Y037651D01*
X044601Y037651D02*
X044601Y037701D01*
X044151Y038151D01*
X043701Y037701D01*
X043701Y037651D01*
X043128Y037625D02*
X043128Y036901D01*
X043128Y036401D02*
X042401Y036401D01*
X042401Y037651D01*
X043651Y038901D01*
X044651Y038901D01*
X047151Y041401D01*
X047151Y041513D01*
X043128Y037625D02*
X043101Y037651D01*
X042401Y036401D02*
X042401Y035901D01*
X043128Y035901D01*
X043128Y035401D02*
X042401Y035401D01*
X042401Y035901D01*
X042401Y035401D02*
X042401Y034901D01*
X042651Y034651D01*
X043851Y034651D01*
X043851Y034351D01*
X043651Y034151D01*
X043651Y033651D01*
X044651Y033651D02*
X044651Y034151D01*
X044451Y034351D01*
X044451Y034651D01*
X044901Y034651D01*
X045401Y033651D02*
X045401Y031401D01*
X045901Y030901D02*
X045401Y030401D01*
X045401Y029401D02*
X044651Y029401D01*
X044651Y028151D02*
X045401Y028151D01*
X041651Y025378D02*
X041651Y025026D01*
X041276Y024651D01*
X040776Y024651D01*
X040714Y024589D01*
X040793Y024509D01*
X040793Y024191D01*
X040990Y024191D02*
X040990Y023688D01*
X041026Y023651D01*
X041151Y023651D01*
X041187Y023687D01*
X041187Y024191D01*
X041383Y024191D02*
X041383Y023883D01*
X041187Y023687D01*
X041651Y023151D02*
X041714Y023089D01*
X041812Y023187D01*
X042191Y023187D01*
X042191Y023383D02*
X041883Y023383D01*
X041651Y023151D01*
X041714Y023089D02*
X041813Y022990D01*
X042191Y022990D01*
X042191Y022399D02*
X042649Y022399D01*
X042776Y022276D01*
X042191Y022202D02*
X041702Y022202D01*
X041651Y022151D01*
X041684Y021809D02*
X041651Y021776D01*
X041684Y021809D02*
X042191Y021809D01*
X040026Y022901D02*
X039901Y023026D01*
X039901Y023651D01*
X040151Y023651D01*
X040202Y023702D01*
X040202Y024191D01*
X040006Y024191D02*
X040006Y023756D01*
X039901Y023651D01*
X039809Y023744D01*
X039809Y024191D01*
X039612Y024191D02*
X039612Y024941D01*
X039401Y025151D01*
X033901Y025151D01*
X033903Y024191D02*
X033903Y023778D01*
X033776Y023651D01*
X033651Y023651D01*
X033706Y023706D01*
X033706Y024191D01*
X033509Y024191D02*
X033509Y023668D01*
X033526Y023651D01*
X033651Y023651D01*
X033526Y023651D02*
X033276Y023651D01*
X033313Y023688D01*
X033313Y024191D01*
X033116Y024191D02*
X033116Y023687D01*
X033151Y023651D01*
X033026Y023651D01*
X032919Y023758D01*
X032651Y024026D01*
X032919Y024191D02*
X032919Y025411D01*
X032901Y025429D01*
X031901Y025429D02*
X031874Y025401D01*
X030901Y025401D01*
X031901Y026374D02*
X031901Y026901D01*
X032901Y026901D02*
X032901Y026374D01*
X034151Y028301D02*
X034151Y029026D01*
X035276Y024901D02*
X035478Y024699D01*
X035478Y024191D01*
X035675Y024191D02*
X035675Y023800D01*
X035526Y023651D01*
X036651Y023651D02*
X036659Y023659D01*
X036659Y024191D01*
X037643Y024191D02*
X037643Y024768D01*
X037651Y024776D01*
X037901Y024776D01*
X038037Y024640D01*
X038037Y024191D01*
X038234Y024191D02*
X038234Y023651D01*
X038276Y023651D01*
X038026Y023651D01*
X037840Y023837D01*
X037840Y024191D01*
X038276Y023651D02*
X038628Y023651D01*
X038628Y024191D01*
X038824Y024191D02*
X038824Y023824D01*
X038651Y023651D01*
X038628Y023651D01*
X039218Y024191D02*
X039218Y024718D01*
X039276Y024776D01*
X040401Y024712D02*
X040399Y024649D01*
X040399Y024191D01*
X040596Y024191D02*
X040596Y024471D01*
X040714Y024589D01*
X041651Y019651D02*
X041659Y019643D01*
X042191Y019643D01*
X042191Y019446D02*
X042731Y019446D01*
X042776Y019401D01*
X042191Y019250D02*
X041750Y019250D01*
X041651Y019151D01*
X042191Y017281D02*
X042646Y017281D01*
X042776Y017151D01*
X042191Y017084D02*
X040959Y017084D01*
X040901Y017026D01*
X041651Y016776D02*
X041762Y016887D01*
X042191Y016887D01*
X042191Y015116D02*
X042687Y015116D01*
X042776Y015026D01*
X042191Y014919D02*
X041883Y014919D01*
X041651Y015151D01*
X041276Y014651D02*
X041383Y014544D01*
X041383Y014112D01*
X041187Y014112D02*
X041187Y014616D01*
X041151Y014651D01*
X041276Y014651D01*
X041151Y014651D02*
X041026Y014651D01*
X040990Y014615D01*
X040990Y014112D01*
X040793Y014112D02*
X040793Y014634D01*
X040776Y014651D01*
X041026Y014651D01*
X040776Y014651D02*
X040596Y014471D01*
X040596Y014112D01*
X038776Y013526D02*
X038628Y013675D01*
X038628Y014112D01*
X038431Y014112D02*
X038431Y014497D01*
X038401Y014651D01*
X037276Y014651D02*
X037250Y014625D01*
X037250Y014112D01*
X036462Y014112D02*
X036462Y013590D01*
X036526Y013526D01*
X036265Y014112D02*
X036265Y014537D01*
X036151Y014651D01*
X034651Y014651D02*
X034494Y014494D01*
X034494Y014112D01*
X033706Y014112D02*
X033706Y013706D01*
X033526Y013526D01*
X033509Y014112D02*
X033509Y014418D01*
X033313Y014615D01*
X033151Y014776D01*
X033008Y014919D01*
X032112Y014919D01*
X032919Y014544D02*
X033116Y014741D01*
X033151Y014776D01*
X033116Y014741D02*
X033116Y014112D01*
X033313Y014112D02*
X033313Y014615D01*
X032919Y014544D02*
X032919Y014112D01*
X032651Y016401D02*
X032559Y016494D01*
X032112Y016494D01*
X032112Y018265D02*
X031662Y018265D01*
X031590Y018337D01*
X032112Y018462D02*
X033462Y018462D01*
X034151Y019151D01*
X032651Y019276D02*
X032625Y019250D01*
X032112Y019250D01*
X032112Y021021D02*
X031656Y021021D01*
X031526Y021151D01*
X032112Y021218D02*
X032584Y021218D01*
X032651Y021151D01*
X032631Y022006D02*
X032112Y022006D01*
X032631Y022006D02*
X032651Y022026D01*
X032112Y023383D02*
X031669Y023383D01*
X031526Y023526D01*
X032919Y023758D02*
X032919Y024191D01*
X033151Y023651D02*
X033276Y023651D01*
X027901Y022151D02*
X027451Y022151D01*
X027276Y021526D02*
X027070Y021320D01*
X027070Y020946D01*
X026303Y020946D02*
X026303Y024000D01*
X019726Y030576D01*
X017151Y030576D01*
X017651Y030901D02*
X017201Y031351D01*
X017151Y031351D01*
X017151Y031951D02*
X016401Y031951D01*
X016401Y032576D01*
X016326Y032651D01*
X016776Y032651D01*
X015726Y032651D02*
X014826Y032651D01*
X014276Y032651D02*
X014226Y032651D01*
X014226Y032701D01*
X013901Y033026D01*
X014276Y032651D01*
X013901Y033026D02*
X014276Y033401D01*
X014276Y033526D01*
X014401Y033651D01*
X015401Y033651D02*
X016026Y033651D01*
X017151Y033651D01*
X015726Y032651D02*
X015651Y032576D01*
X015651Y031951D01*
X015101Y031401D01*
X014675Y031401D01*
X014675Y030901D02*
X015201Y030901D01*
X015651Y031351D01*
X016401Y031351D01*
X016401Y030576D02*
X015651Y030576D01*
X015451Y030576D01*
X015276Y030401D01*
X014675Y030401D01*
X015426Y029976D02*
X014601Y029151D01*
X014151Y029151D01*
X015201Y029151D02*
X016101Y029151D01*
X016401Y029451D01*
X016401Y029976D01*
X017151Y029976D01*
X017901Y030151D02*
X019776Y030151D01*
X026047Y023881D01*
X026047Y020946D01*
X025791Y020946D02*
X025791Y023761D01*
X020901Y028651D01*
X009901Y028651D01*
X009651Y028901D01*
X009651Y030151D01*
X010076Y030576D01*
X010151Y030576D01*
X010901Y030576D02*
X011651Y030576D01*
X011976Y030901D01*
X012628Y030901D01*
X012628Y030401D02*
X013401Y030401D01*
X012628Y030401D02*
X012276Y030401D01*
X011901Y030026D01*
X011701Y030026D01*
X011651Y029976D01*
X011576Y029901D01*
X010901Y029976D02*
X010901Y029451D01*
X011201Y029151D01*
X012101Y029151D01*
X012701Y029151D02*
X013151Y029151D01*
X010901Y029976D02*
X010151Y029976D01*
X010151Y029151D02*
X010601Y029151D01*
X009651Y028401D02*
X009401Y028651D01*
X009401Y030651D01*
X010101Y031351D01*
X010151Y031351D01*
X010151Y031951D02*
X010901Y031951D01*
X010901Y032576D01*
X010976Y032651D01*
X010526Y032651D01*
X011576Y032651D02*
X011651Y032576D01*
X011651Y031951D01*
X011701Y031901D01*
X012401Y031901D01*
X012401Y032576D01*
X012476Y032651D01*
X013076Y032651D02*
X013151Y032776D01*
X013401Y033026D01*
X013076Y033351D01*
X013076Y033476D01*
X012901Y033651D01*
X011901Y033651D02*
X011276Y033651D01*
X010151Y033651D01*
X012401Y031901D02*
X012628Y031901D01*
X012628Y031401D02*
X011701Y031401D01*
X011651Y031351D01*
X010901Y031351D01*
X013901Y031401D02*
X014401Y031901D01*
X014675Y031901D01*
X015426Y029976D02*
X015651Y029976D01*
X015651Y030026D01*
X016701Y029151D02*
X017151Y029151D01*
X020776Y028401D02*
X009651Y028401D01*
X020776Y028401D02*
X025535Y023642D01*
X025535Y020946D01*
X025279Y020946D02*
X025279Y023523D01*
X024776Y024026D01*
X024526Y023901D02*
X025023Y023404D01*
X025023Y020946D01*
X024767Y020946D02*
X024767Y023285D01*
X024276Y023776D01*
X024026Y023651D02*
X024511Y023166D01*
X024511Y020946D01*
X024256Y020946D02*
X024256Y020297D01*
X024401Y020151D01*
X024000Y020250D02*
X023901Y020151D01*
X024000Y020250D02*
X024000Y020946D01*
X023744Y020946D02*
X023744Y020494D01*
X023401Y020151D01*
X023232Y020320D01*
X023232Y020946D01*
X023488Y020946D02*
X023488Y021865D01*
X023451Y021901D01*
X023451Y022201D01*
X023651Y022401D01*
X023651Y022901D01*
X022651Y022901D02*
X022651Y022401D01*
X022851Y022201D01*
X022851Y021901D01*
X022401Y021901D01*
X021401Y020401D02*
X021401Y019951D01*
X021101Y019951D01*
X020901Y020151D01*
X020401Y020151D01*
X019151Y019651D02*
X019151Y019026D01*
X019651Y018526D01*
X020651Y018526D01*
X021172Y019047D01*
X022356Y019047D01*
X022356Y019303D02*
X021450Y019303D01*
X021401Y019351D01*
X021101Y019351D01*
X020901Y019151D01*
X020401Y019151D01*
X020776Y018276D02*
X019276Y018276D01*
X018901Y018651D01*
X019651Y018026D02*
X020901Y018026D01*
X021410Y018535D01*
X022356Y018535D01*
X022356Y018279D02*
X021529Y018279D01*
X021026Y017776D01*
X019651Y017776D01*
X020776Y018276D02*
X021291Y018791D01*
X022356Y018791D01*
X022994Y019559D02*
X023151Y019401D01*
X022994Y019559D02*
X022356Y019559D01*
X022356Y017000D02*
X021875Y017000D01*
X021526Y016651D01*
X021526Y016326D01*
X020776Y016326D01*
X020776Y015726D02*
X020776Y015276D01*
X020776Y014976D01*
X020851Y014901D01*
X021451Y014901D02*
X021526Y014976D01*
X021526Y015726D01*
X022356Y016744D02*
X022994Y016744D01*
X023151Y016901D01*
X023401Y016151D02*
X023651Y016151D01*
X024000Y015803D01*
X024000Y015356D01*
X024256Y015356D02*
X024256Y016006D01*
X024401Y016151D01*
X023401Y016151D02*
X023232Y015982D01*
X023232Y015356D01*
X026776Y016401D02*
X026945Y016232D01*
X027946Y016232D01*
X027401Y015776D02*
X027151Y015776D01*
X027070Y015695D01*
X027070Y015356D01*
X028901Y013679D02*
X028901Y013151D01*
X027946Y017767D02*
X027410Y017767D01*
X027151Y018026D01*
X027404Y018279D01*
X027946Y018279D01*
X027946Y018023D02*
X027279Y018023D01*
X027151Y018026D01*
X027276Y019901D02*
X026401Y019901D01*
X027276Y019901D02*
X027445Y020070D01*
X027946Y020070D01*
X017151Y011901D02*
X016651Y012401D01*
X015651Y012401D01*
X015151Y011901D01*
X015151Y011361D01*
X014651Y011361D02*
X014651Y012151D01*
X014401Y012401D01*
X012901Y012401D01*
X012151Y011651D01*
X012401Y011151D02*
X013151Y011901D01*
X013151Y011361D01*
X013651Y011361D02*
X013651Y011901D01*
X014151Y011901D02*
X014151Y011361D01*
X014151Y010401D02*
X013651Y009901D01*
X013651Y008941D01*
X013151Y008941D02*
X013151Y008401D01*
X012901Y008151D01*
X012651Y008151D01*
X012151Y008651D01*
X011651Y008151D02*
X011901Y007901D01*
X013151Y007901D01*
X013401Y008151D01*
X014401Y008151D01*
X014651Y008401D01*
X014651Y008941D01*
X014151Y008941D02*
X014151Y009651D01*
X014651Y010151D01*
X016151Y010151D01*
X016651Y009651D01*
X017151Y009651D01*
X016901Y010151D02*
X016651Y010401D01*
X014151Y010401D01*
X015901Y010651D02*
X016151Y010901D01*
X016151Y011361D01*
X015651Y011361D02*
X015651Y011901D01*
X015901Y012151D01*
X016401Y012151D01*
X016651Y011901D01*
X016651Y011151D01*
X017151Y010651D01*
X016901Y010151D02*
X017401Y010151D01*
X017651Y009901D01*
X017651Y009151D01*
X017151Y008651D01*
X016151Y008941D02*
X016151Y009651D01*
X015651Y008941D02*
X015651Y008651D01*
X017901Y006401D01*
X017401Y005901D02*
X017401Y004675D01*
X016901Y004675D02*
X016901Y005401D01*
X014651Y007651D01*
X010651Y007651D01*
X010651Y007151D02*
X014651Y007151D01*
X016401Y005401D01*
X016401Y004675D01*
X015901Y004675D02*
X015901Y005401D01*
X014401Y006901D01*
X010401Y006901D01*
X009151Y008151D01*
X009151Y008941D01*
X008651Y008941D02*
X008651Y009526D01*
X008776Y009651D01*
X009276Y009651D01*
X009401Y009526D01*
X009401Y008401D01*
X010651Y007151D01*
X010151Y006651D02*
X014151Y006651D01*
X015401Y005401D01*
X015401Y004675D01*
X014901Y004675D02*
X014901Y003901D01*
X015401Y003401D01*
X016651Y003401D01*
X016901Y003151D01*
X016901Y002628D01*
X016901Y001901D01*
X017151Y002026D02*
X017276Y001901D01*
X017776Y001901D01*
X017901Y002026D01*
X017901Y002628D01*
X018401Y002628D02*
X018401Y001901D01*
X018401Y000651D01*
X020026Y000651D01*
X023276Y000651D01*
X026276Y000651D01*
X029401Y000651D01*
X027547Y002549D02*
X027547Y002797D01*
X027901Y003151D01*
X026779Y003779D02*
X026651Y003651D01*
X026779Y003779D02*
X026779Y004754D01*
X026523Y004754D02*
X026523Y005273D01*
X026526Y005276D01*
X025756Y004754D02*
X025756Y004256D01*
X025026Y003526D01*
X024526Y003526D01*
X024026Y003026D01*
X024026Y002558D01*
X024035Y002549D01*
X024547Y002549D02*
X024547Y002797D01*
X024901Y003151D01*
X025401Y003151D02*
X025776Y003151D01*
X026011Y002916D01*
X026011Y002549D01*
X023779Y003779D02*
X023651Y003651D01*
X023779Y003779D02*
X023779Y004754D01*
X023526Y004756D02*
X023523Y004754D01*
X023526Y004756D02*
X023526Y005276D01*
X022776Y003151D02*
X022401Y003151D01*
X022776Y003151D02*
X023011Y002916D01*
X023011Y002549D01*
X021651Y003151D02*
X021297Y002797D01*
X021297Y002549D01*
X020401Y003651D02*
X020529Y003779D01*
X020529Y004754D01*
X020273Y004754D02*
X020273Y005273D01*
X020276Y005276D01*
X018401Y005401D02*
X018401Y004675D01*
X017901Y004675D02*
X017901Y005401D01*
X018401Y005401D02*
X015151Y008651D01*
X015151Y008941D01*
X014901Y007901D02*
X017151Y005651D01*
X017151Y002026D01*
X015401Y001901D02*
X015401Y002628D01*
X015401Y000651D01*
X018401Y000651D01*
X019761Y002549D02*
X019761Y002916D01*
X019526Y003151D01*
X019151Y003151D01*
X017401Y005901D02*
X015401Y007901D01*
X012151Y009651D02*
X011651Y009151D01*
X011651Y008151D01*
X011151Y009151D02*
X010651Y008651D01*
X011151Y009151D02*
X011151Y009901D01*
X010901Y010151D01*
X010401Y010151D01*
X010151Y010401D01*
X007901Y010401D01*
X007151Y009651D01*
X007151Y008941D01*
X006651Y008941D02*
X006651Y008401D01*
X006401Y008151D01*
X006151Y008151D01*
X005651Y008651D01*
X005151Y008151D02*
X005401Y007901D01*
X006651Y007901D01*
X006901Y008151D01*
X007901Y008151D01*
X008151Y008401D01*
X008151Y008941D01*
X007651Y008941D02*
X007651Y009651D01*
X008151Y010151D01*
X009651Y010151D01*
X010151Y009651D01*
X010651Y009651D01*
X009651Y009651D02*
X009651Y008941D01*
X008651Y008151D02*
X010151Y006651D01*
X010401Y004675D02*
X010401Y003901D01*
X010901Y003401D01*
X012151Y003401D01*
X012401Y003151D01*
X012401Y002628D01*
X012401Y001901D01*
X010901Y001901D02*
X010901Y002628D01*
X010901Y000651D01*
X013901Y000651D01*
X013901Y001901D01*
X013901Y002628D01*
X013901Y000651D02*
X015401Y000651D01*
X010901Y000651D02*
X009401Y000651D01*
X009401Y001901D01*
X009401Y002628D01*
X007901Y002628D02*
X007901Y001901D01*
X007901Y002628D02*
X007901Y003151D01*
X007651Y003401D01*
X006401Y003401D01*
X005901Y003901D01*
X005901Y004675D01*
X006401Y002628D02*
X006401Y000651D01*
X004901Y002151D01*
X004901Y011151D01*
X004901Y011651D01*
X006151Y012901D01*
X010151Y012901D01*
X011901Y011151D01*
X012401Y011151D01*
X012151Y010651D02*
X015901Y010651D01*
X017151Y011651D02*
X017151Y011901D01*
X012151Y015151D02*
X012151Y016401D01*
X012151Y017401D02*
X012101Y017451D01*
X011151Y017451D01*
X011151Y016851D02*
X011151Y015951D01*
X010401Y015951D01*
X010351Y015901D01*
X010151Y015901D01*
X009901Y016151D01*
X009425Y016151D01*
X009425Y015651D02*
X008901Y015651D01*
X008651Y015901D01*
X008651Y017351D01*
X008701Y017401D01*
X008151Y017351D02*
X008151Y016901D01*
X007901Y016651D01*
X007378Y016651D01*
X006401Y016651D01*
X006401Y016701D01*
X005651Y016701D01*
X005651Y016101D02*
X006401Y016101D01*
X006401Y015201D01*
X005651Y015201D01*
X005651Y014601D02*
X006101Y014151D01*
X007651Y014151D01*
X008401Y014651D02*
X006451Y014651D01*
X006401Y014601D01*
X007378Y015151D02*
X008401Y015151D01*
X009425Y015151D01*
X009425Y015651D02*
X009901Y015651D01*
X010151Y015401D01*
X010351Y015401D01*
X010401Y015351D01*
X011151Y015351D01*
X010201Y016651D02*
X009425Y016651D01*
X008901Y016651D01*
X008151Y017351D02*
X008101Y017401D01*
X007378Y016151D02*
X006401Y016151D01*
X006401Y016101D01*
X007378Y015651D02*
X007378Y015151D01*
X008401Y014651D02*
X008901Y014151D01*
X009151Y012401D02*
X008651Y011901D01*
X008651Y011361D01*
X008151Y011361D02*
X008151Y012151D01*
X007901Y012401D01*
X006401Y012401D01*
X005651Y011651D01*
X005901Y011151D02*
X006651Y011901D01*
X006651Y011361D01*
X007151Y011361D02*
X007151Y011901D01*
X007651Y011901D02*
X007651Y011361D01*
X009151Y011361D02*
X009151Y011901D01*
X009401Y012151D01*
X009901Y012151D01*
X010151Y011901D01*
X010151Y011151D01*
X010651Y010651D01*
X009651Y010901D02*
X009651Y011361D01*
X009651Y010901D02*
X009401Y010651D01*
X005651Y010651D01*
X005901Y011151D02*
X004901Y011151D01*
X005651Y009651D02*
X005151Y009151D01*
X005151Y008151D01*
X010651Y011651D02*
X010651Y011901D01*
X010151Y012401D01*
X009151Y012401D01*
X010201Y016651D02*
X010401Y016851D01*
X010401Y017451D02*
X010401Y017901D01*
X023151Y030401D02*
X023776Y029776D01*
X024026Y029776D01*
X024526Y030276D01*
X026276Y030276D01*
X026651Y030651D01*
X026925Y030651D01*
X027851Y030651D01*
X027901Y030601D01*
X027901Y030151D01*
X027901Y030601D02*
X028651Y030601D01*
X028651Y031201D02*
X027901Y031201D01*
X027851Y031151D01*
X026925Y031151D01*
X026925Y031651D02*
X026151Y031651D01*
X025901Y031401D01*
X025401Y030901D01*
X024151Y030901D01*
X023901Y031151D01*
X023901Y031201D01*
X023951Y030651D02*
X023901Y030601D01*
X023901Y030151D01*
X023951Y030651D02*
X024878Y030651D01*
X024878Y031151D02*
X024526Y031151D01*
X023901Y031776D01*
X023901Y032101D01*
X023151Y032101D01*
X023101Y032101D01*
X022651Y031651D01*
X022276Y031526D02*
X022276Y032026D01*
X022951Y032701D01*
X023151Y032701D01*
X023901Y032701D01*
X023901Y032651D01*
X024276Y032276D01*
X024276Y031901D01*
X024526Y031651D01*
X024878Y031651D01*
X024878Y032151D02*
X025151Y032151D01*
X025901Y031401D01*
X026925Y031651D02*
X026925Y032151D01*
X027851Y032151D01*
X027901Y032101D01*
X027901Y032701D02*
X027226Y032701D01*
X026776Y033151D01*
X026401Y033151D01*
X025401Y033151D02*
X024651Y033151D01*
X024151Y033651D01*
X023151Y031201D02*
X022601Y031201D01*
X022276Y031526D01*
X023151Y030601D02*
X023151Y030401D01*
X027901Y032701D02*
X028651Y032701D01*
X028651Y032101D02*
X028651Y031201D01*
X039776Y033651D02*
X040401Y033651D01*
X041651Y033651D01*
X046651Y034401D02*
X046797Y034256D01*
X047224Y034256D01*
X045776Y012276D02*
X045246Y011746D01*
X045246Y011297D01*
X041151Y011297D02*
X041151Y011776D01*
X041026Y011901D01*
X040521Y011297D02*
X040521Y010656D01*
X040526Y010651D01*
X039576Y010826D02*
X039401Y010651D01*
X039576Y010826D02*
X039576Y011297D01*
X038901Y010651D02*
X038631Y010921D01*
X038631Y011297D01*
X037687Y011297D02*
X037687Y010812D01*
X037526Y010651D01*
X037026Y010651D01*
X037057Y010682D01*
X037057Y011297D01*
X037026Y010651D02*
X036526Y010651D01*
X037057Y007006D02*
X037057Y006496D01*
X037276Y006276D01*
X037776Y006276D01*
X037776Y006476D01*
X037687Y006566D01*
X037687Y007006D01*
X038631Y007006D02*
X038631Y006421D01*
X038651Y006401D01*
X037776Y006276D02*
X037776Y006026D01*
X039576Y006226D02*
X039776Y006026D01*
X039576Y006226D02*
X039576Y007006D01*
X040521Y007006D02*
X040521Y006406D01*
X040526Y006401D01*
X041151Y006276D02*
X041401Y006026D01*
X041151Y006276D02*
X041151Y007006D01*
X045246Y007006D02*
X045246Y006307D01*
X045526Y006026D01*
X009401Y000651D02*
X006401Y000651D01*
D66*
X044651Y028151D03*
X044651Y029401D03*
X045901Y030901D03*
X045401Y033651D03*
D67*
X046401Y032651D02*
X046401Y037401D01*
X047651Y038651D01*
X047651Y040226D01*
X047151Y040726D01*
X047151Y039939D02*
X046651Y039439D01*
X046651Y038151D01*
X046151Y037651D01*
X046151Y032401D01*
X046401Y032651D02*
X046651Y032401D01*
X049901Y027901D02*
X050206Y027596D01*
X050206Y027324D01*
X051584Y027324D02*
X051584Y026843D01*
X051651Y026776D01*
X051651Y026651D01*
X051781Y026896D02*
X052026Y026651D01*
X051781Y026896D02*
X051781Y027324D01*
X053526Y026651D02*
X053750Y026875D01*
X053750Y027324D01*
X053946Y027324D02*
X053946Y026696D01*
X053901Y026651D01*
X054143Y026909D02*
X054401Y026651D01*
X054401Y026401D01*
X054151Y026151D01*
X054151Y024401D01*
X055526Y026651D02*
X055718Y026843D01*
X055718Y027324D01*
X055915Y027324D02*
X055915Y026665D01*
X055901Y026651D01*
X057151Y025151D02*
X057415Y025415D01*
X057824Y025415D01*
X057824Y024431D02*
X057181Y024431D01*
X057151Y024401D01*
X057319Y024234D01*
X057824Y024234D01*
X057824Y021281D02*
X057156Y021281D01*
X057151Y021276D01*
X057343Y021084D02*
X057151Y020901D01*
X057151Y020401D01*
X056776Y020026D01*
X056776Y019651D01*
X057096Y019346D01*
X057096Y018978D01*
X057221Y019706D02*
X057151Y019776D01*
X057221Y019706D02*
X057824Y019706D01*
X057824Y021084D02*
X057343Y021084D01*
X054276Y019651D02*
X054276Y019401D01*
X054340Y019337D01*
X054340Y018978D01*
X054143Y018978D02*
X054143Y019284D01*
X054026Y019401D01*
X054026Y019526D01*
X053901Y019651D01*
X054026Y019401D02*
X053946Y019321D01*
X053946Y018978D01*
X052765Y018978D02*
X052765Y019515D01*
X052569Y019319D01*
X052569Y018978D01*
X052372Y018978D02*
X052372Y019622D01*
X052401Y019651D01*
X052026Y019651D02*
X052026Y019401D01*
X051978Y019353D01*
X051978Y018978D01*
X052175Y018978D02*
X052175Y019253D01*
X052026Y019401D01*
X051781Y019521D02*
X051781Y018978D01*
X051781Y019521D02*
X051651Y019651D01*
X052765Y019515D02*
X052776Y019651D01*
X049478Y019706D02*
X049206Y019706D01*
X049151Y019651D01*
X049151Y019276D01*
X049006Y020297D02*
X048901Y020401D01*
X049006Y020297D02*
X049478Y020297D01*
X050151Y022901D02*
X050000Y023053D01*
X049478Y023053D01*
X049478Y023643D02*
X049784Y023643D01*
X050151Y023276D01*
X050151Y023651D02*
X049962Y023840D01*
X049478Y023840D01*
X054143Y026909D02*
X054143Y027324D01*
X054776Y036401D02*
X054901Y036526D01*
X055526Y016651D02*
X055526Y015651D01*
X051776Y015651D02*
X051776Y016651D01*
M02*
