G75*
G70*
%OFA0B0*%
%FSLAX24Y24*%
%IPPOS*%
%LPD*%
%AMOC8*
5,1,8,0,0,1.08239X$1,22.5*
%
%ADD10C,0.0120*%
%ADD11R,0.0315X0.0160*%
%ADD12C,0.0040*%
%ADD13C,0.0080*%
%ADD14C,0.0050*%
%ADD15R,0.0335X0.0295*%
%ADD16R,0.0394X0.0079*%
%ADD17C,0.0020*%
%ADD18R,0.0330X0.0080*%
%ADD19C,0.0279*%
%ADD20R,0.0160X0.0315*%
%ADD21R,0.0157X0.0630*%
%ADD22R,0.0193X0.1000*%
%ADD23R,0.0630X0.0157*%
%ADD24R,0.1000X0.0193*%
%ADD25C,0.0060*%
%ADD26R,0.0200X0.0200*%
%ADD27C,0.0160*%
%ADD28R,0.0049X0.0197*%
%ADD29R,0.0128X0.0089*%
%ADD30R,0.0089X0.0049*%
%ADD31R,0.0049X0.0167*%
%ADD32R,0.0138X0.0197*%
%ADD33R,0.0049X0.0236*%
%ADD34R,0.0118X0.0669*%
%ADD35R,0.0276X0.0669*%
%ADD36R,0.0167X0.0128*%
%ADD37R,0.0138X0.0138*%
%ADD38C,0.0100*%
%ADD39R,0.0180X0.0230*%
D10*
X001211Y038840D02*
X001798Y038840D01*
X001505Y038840D02*
X001505Y039721D01*
X001211Y039427D01*
X001358Y040340D02*
X001211Y040487D01*
X001358Y040634D01*
X001798Y040634D01*
X001798Y040780D02*
X001798Y040340D01*
X001358Y040340D01*
X001798Y040780D02*
X001652Y040927D01*
X001358Y040927D01*
X002132Y041221D02*
X002279Y041221D01*
X002279Y040340D01*
X002132Y040340D02*
X002426Y040340D01*
X002746Y040487D02*
X002746Y040780D01*
X002893Y040927D01*
X003186Y040927D01*
X003333Y040780D01*
X003333Y040634D01*
X002746Y040634D01*
X002746Y040487D02*
X002893Y040340D01*
X003186Y040340D01*
X003666Y040340D02*
X004107Y040340D01*
X004254Y040487D01*
X004254Y040780D01*
X004107Y040927D01*
X003666Y040927D01*
X003666Y040046D01*
X003346Y039721D02*
X003346Y038840D01*
X003053Y038840D02*
X003640Y038840D01*
X003973Y038840D02*
X004561Y038840D01*
X004267Y038840D02*
X004267Y039721D01*
X003973Y039427D01*
X003346Y039721D02*
X003053Y039427D01*
X002719Y039427D02*
X002132Y038840D01*
X002719Y038840D01*
X002719Y039427D02*
X002719Y039574D01*
X002572Y039721D01*
X002279Y039721D01*
X002132Y039574D01*
X004587Y040340D02*
X004587Y041221D01*
X004734Y040927D02*
X005028Y040927D01*
X005174Y040780D01*
X005174Y040340D01*
X005508Y040340D02*
X006095Y041221D01*
X006429Y040927D02*
X006576Y040927D01*
X006576Y040340D01*
X006722Y040340D02*
X006429Y040340D01*
X007043Y040340D02*
X007043Y040927D01*
X007483Y040927D01*
X007630Y040780D01*
X007630Y040340D01*
X008110Y040487D02*
X008257Y040340D01*
X008110Y040487D02*
X008110Y041074D01*
X007963Y040927D02*
X008257Y040927D01*
X008577Y040780D02*
X008724Y040927D01*
X009017Y040927D01*
X009164Y040780D01*
X009164Y040634D01*
X008577Y040634D01*
X008577Y040780D02*
X008577Y040487D01*
X008724Y040340D01*
X009017Y040340D01*
X009498Y040340D02*
X009498Y040927D01*
X009498Y040634D02*
X009791Y040927D01*
X009938Y040927D01*
X010265Y040780D02*
X010559Y040780D01*
X010412Y041074D02*
X010412Y040340D01*
X010879Y040487D02*
X011026Y040340D01*
X011466Y040340D01*
X011466Y040780D01*
X011319Y040927D01*
X011026Y040927D01*
X011026Y040634D02*
X011466Y040634D01*
X011800Y040780D02*
X011946Y040927D01*
X012387Y040927D01*
X012720Y040780D02*
X012867Y040927D01*
X013161Y040927D01*
X013308Y040780D01*
X013308Y040634D01*
X012720Y040634D01*
X012720Y040780D02*
X012720Y040487D01*
X012867Y040340D01*
X013161Y040340D01*
X012387Y040340D02*
X011946Y040340D01*
X011800Y040487D01*
X011800Y040780D01*
X011026Y040634D02*
X010879Y040487D01*
X010412Y041074D02*
X010559Y041221D01*
X006576Y041221D02*
X006576Y041368D01*
X004734Y040927D02*
X004587Y040780D01*
X005041Y039721D02*
X004894Y039574D01*
X005041Y039721D02*
X005335Y039721D01*
X005481Y039574D01*
X005481Y039427D01*
X004894Y038840D01*
X005481Y038840D01*
X005815Y038987D02*
X006402Y039574D01*
X006402Y038987D01*
X006255Y038840D01*
X005962Y038840D01*
X005815Y038987D01*
X005815Y039574D01*
X005962Y039721D01*
X006255Y039721D01*
X006402Y039574D01*
D11*
X040901Y039030D03*
X040901Y038530D03*
X041651Y038530D03*
X041651Y039030D03*
X043151Y039030D03*
X043151Y038530D03*
X043901Y038530D03*
X043901Y039030D03*
X044901Y039030D03*
X044901Y038530D03*
X045651Y038530D03*
X045651Y039030D03*
X047151Y039030D03*
X047151Y038530D03*
X047901Y038530D03*
X047901Y039030D03*
X048901Y039030D03*
X048901Y038530D03*
X049651Y038530D03*
X049651Y039030D03*
X051151Y039030D03*
X051151Y038530D03*
X051901Y038530D03*
X051901Y039030D03*
X052901Y039030D03*
X052901Y038530D03*
X053651Y038530D03*
X053651Y039030D03*
X055151Y039030D03*
X055151Y038530D03*
X055901Y038530D03*
X055901Y039030D03*
X060401Y036280D03*
X060401Y035780D03*
X053901Y035780D03*
X053901Y035280D03*
X053151Y035280D03*
X053151Y035780D03*
X052151Y033030D03*
X052151Y032530D03*
X030651Y005280D03*
X030651Y004780D03*
X023151Y004780D03*
X023151Y005280D03*
X015651Y005280D03*
X015651Y004780D03*
X008151Y004780D03*
X008151Y005280D03*
D12*
X008031Y005200D02*
X008031Y004860D01*
X008272Y004860D02*
X008272Y005200D01*
X015531Y005200D02*
X015531Y004860D01*
X015772Y004860D02*
X015772Y005200D01*
X023031Y005200D02*
X023031Y004860D01*
X023272Y004860D02*
X023272Y005200D01*
X030531Y005200D02*
X030531Y004860D01*
X030772Y004860D02*
X030772Y005200D01*
X037731Y013160D02*
X038071Y013160D01*
X038071Y013400D02*
X037731Y013400D01*
X037731Y013910D02*
X038071Y013910D01*
X038071Y014150D02*
X037731Y014150D01*
X037731Y014660D02*
X038071Y014660D01*
X038071Y014900D02*
X037731Y014900D01*
X037731Y015410D02*
X038071Y015410D01*
X038071Y015650D02*
X037731Y015650D01*
X037731Y016160D02*
X038071Y016160D01*
X038071Y016400D02*
X037731Y016400D01*
X050231Y016400D02*
X050571Y016400D01*
X050571Y016160D02*
X050231Y016160D01*
X050231Y015650D02*
X050571Y015650D01*
X050571Y015410D02*
X050231Y015410D01*
X050231Y014900D02*
X050571Y014900D01*
X050571Y014660D02*
X050231Y014660D01*
X050231Y014150D02*
X050571Y014150D01*
X050571Y013910D02*
X050231Y013910D01*
X050231Y013400D02*
X050571Y013400D01*
X050571Y013160D02*
X050231Y013160D01*
X044321Y005150D02*
X043981Y005150D01*
X043981Y004910D02*
X044321Y004910D01*
X044321Y004400D02*
X043981Y004400D01*
X043981Y004160D02*
X044321Y004160D01*
X044321Y003650D02*
X043981Y003650D01*
X043981Y003410D02*
X044321Y003410D01*
X044321Y002900D02*
X043981Y002900D01*
X043981Y002660D02*
X044321Y002660D01*
X044321Y002150D02*
X043981Y002150D01*
X043981Y001910D02*
X044321Y001910D01*
X056481Y001910D02*
X056821Y001910D01*
X056821Y002150D02*
X056481Y002150D01*
X056481Y002660D02*
X056821Y002660D01*
X056821Y002900D02*
X056481Y002900D01*
X056481Y003410D02*
X056821Y003410D01*
X056821Y003650D02*
X056481Y003650D01*
X056481Y004160D02*
X056821Y004160D01*
X056821Y004400D02*
X056481Y004400D01*
X056481Y004910D02*
X056821Y004910D01*
X056821Y005150D02*
X056481Y005150D01*
X052272Y032610D02*
X052272Y032950D01*
X052031Y032950D02*
X052031Y032610D01*
X053031Y035360D02*
X053031Y035700D01*
X053272Y035700D02*
X053272Y035360D01*
X053781Y035360D02*
X053781Y035700D01*
X054022Y035700D02*
X054022Y035360D01*
X056231Y034150D02*
X056571Y034150D01*
X056571Y033910D02*
X056231Y033910D01*
X060281Y035860D02*
X060281Y036200D01*
X060522Y036200D02*
X060522Y035860D01*
X056022Y038610D02*
X056022Y038950D01*
X055781Y038950D02*
X055781Y038610D01*
X055272Y038610D02*
X055272Y038950D01*
X055031Y038950D02*
X055031Y038610D01*
X053772Y038610D02*
X053772Y038950D01*
X053531Y038950D02*
X053531Y038610D01*
X053022Y038610D02*
X053022Y038950D01*
X052781Y038950D02*
X052781Y038610D01*
X052022Y038610D02*
X052022Y038950D01*
X051781Y038950D02*
X051781Y038610D01*
X051272Y038610D02*
X051272Y038950D01*
X051031Y038950D02*
X051031Y038610D01*
X049772Y038610D02*
X049772Y038950D01*
X049531Y038950D02*
X049531Y038610D01*
X049022Y038610D02*
X049022Y038950D01*
X048781Y038950D02*
X048781Y038610D01*
X048022Y038610D02*
X048022Y038950D01*
X047781Y038950D02*
X047781Y038610D01*
X047272Y038610D02*
X047272Y038950D01*
X047031Y038950D02*
X047031Y038610D01*
X045772Y038610D02*
X045772Y038950D01*
X045531Y038950D02*
X045531Y038610D01*
X045022Y038610D02*
X045022Y038950D01*
X044781Y038950D02*
X044781Y038610D01*
X044022Y038610D02*
X044022Y038950D01*
X043781Y038950D02*
X043781Y038610D01*
X043272Y038610D02*
X043272Y038950D01*
X043031Y038950D02*
X043031Y038610D01*
X041772Y038610D02*
X041772Y038950D01*
X041531Y038950D02*
X041531Y038610D01*
X041022Y038610D02*
X041022Y038950D01*
X040781Y038950D02*
X040781Y038610D01*
X058731Y043660D02*
X059071Y043660D01*
X059071Y043900D02*
X058731Y043900D01*
X058731Y044410D02*
X059071Y044410D01*
X059071Y044650D02*
X058731Y044650D01*
X062981Y041400D02*
X063321Y041400D01*
X063321Y041160D02*
X062981Y041160D01*
X062777Y040595D02*
X063525Y040595D01*
X063673Y040497D02*
X063675Y040509D01*
X063680Y040520D01*
X063689Y040529D01*
X063700Y040534D01*
X063712Y040536D01*
X063724Y040534D01*
X063735Y040529D01*
X063744Y040520D01*
X063749Y040509D01*
X063751Y040497D01*
X063749Y040485D01*
X063744Y040474D01*
X063735Y040465D01*
X063724Y040460D01*
X063712Y040458D01*
X063700Y040460D01*
X063689Y040465D01*
X063680Y040474D01*
X063675Y040485D01*
X063673Y040497D01*
X063781Y040438D02*
X063757Y040434D01*
X063735Y040428D01*
X063713Y040417D01*
X063693Y040404D01*
X063676Y040388D01*
X063661Y040370D01*
X063649Y040349D01*
X063640Y040327D01*
X063635Y040304D01*
X063633Y040280D01*
X063635Y040256D01*
X063640Y040233D01*
X063649Y040211D01*
X063661Y040190D01*
X063676Y040172D01*
X063693Y040156D01*
X063713Y040143D01*
X063735Y040132D01*
X063757Y040126D01*
X063781Y040122D01*
X063525Y039965D02*
X062777Y039965D01*
D13*
X062576Y041030D02*
X062576Y041530D01*
X063726Y041530D01*
X063726Y041030D01*
X062576Y041030D01*
X059476Y043530D02*
X058326Y043530D01*
X058326Y044030D01*
X059476Y044030D01*
X059476Y043530D01*
X059476Y044280D02*
X058326Y044280D01*
X058326Y044780D01*
X059476Y044780D01*
X059476Y044280D01*
X055911Y045264D02*
X052722Y045264D01*
X052722Y040146D01*
X055911Y040146D01*
X055911Y045264D01*
X055832Y045264D02*
X055832Y046642D01*
X055832Y046739D01*
X055732Y046839D01*
X053570Y046839D01*
X053470Y046739D01*
X053470Y046642D01*
X053470Y045264D01*
X051911Y045264D02*
X048722Y045264D01*
X048722Y040146D01*
X051911Y040146D01*
X051911Y045264D01*
X051832Y045264D02*
X051832Y046642D01*
X051832Y046739D01*
X051732Y046839D01*
X049570Y046839D01*
X049470Y046739D01*
X049470Y046642D01*
X049470Y045264D01*
X047911Y045264D02*
X044722Y045264D01*
X044722Y040146D01*
X047911Y040146D01*
X047911Y045264D01*
X047832Y045264D02*
X047832Y046642D01*
X047832Y046739D01*
X047732Y046839D01*
X045570Y046839D01*
X045470Y046739D01*
X045470Y046642D01*
X045470Y045264D01*
X043911Y045264D02*
X040722Y045264D01*
X040722Y040146D01*
X043911Y040146D01*
X043911Y045264D01*
X043832Y045264D02*
X043832Y046642D01*
X043832Y046739D01*
X043732Y046839D01*
X041570Y046839D01*
X041470Y046739D01*
X041470Y046642D01*
X041470Y045264D01*
X041401Y039355D02*
X041901Y039355D01*
X041901Y038205D01*
X041401Y038205D01*
X041401Y039355D01*
X041151Y039355D02*
X040651Y039355D01*
X040651Y038205D01*
X041151Y038205D01*
X041151Y039355D01*
X042126Y039124D02*
X042126Y038436D01*
X042677Y038436D01*
X042677Y039124D01*
X042126Y039124D01*
X042401Y038898D02*
X042244Y038662D01*
X042559Y038662D01*
X042401Y038898D01*
X042401Y038819D02*
X042322Y038701D01*
X042480Y038701D01*
X042401Y038819D01*
X042352Y038745D02*
X042451Y038745D01*
X042901Y038205D02*
X042901Y039355D01*
X043401Y039355D01*
X043401Y038205D01*
X042901Y038205D01*
X043651Y038205D02*
X044151Y038205D01*
X044151Y039355D01*
X043651Y039355D01*
X043651Y038205D01*
X044651Y038205D02*
X044651Y039355D01*
X045151Y039355D01*
X045151Y038205D01*
X044651Y038205D01*
X045401Y038205D02*
X045401Y039355D01*
X045901Y039355D01*
X045901Y038205D01*
X045401Y038205D01*
X046126Y038436D02*
X046126Y039124D01*
X046677Y039124D01*
X046677Y038436D01*
X046126Y038436D01*
X046244Y038662D02*
X046401Y038898D01*
X046559Y038662D01*
X046244Y038662D01*
X046322Y038701D02*
X046401Y038819D01*
X046480Y038701D01*
X046322Y038701D01*
X046352Y038745D02*
X046451Y038745D01*
X046901Y038205D02*
X046901Y039355D01*
X047401Y039355D01*
X047401Y038205D01*
X046901Y038205D01*
X047651Y038205D02*
X047651Y039355D01*
X048151Y039355D01*
X048151Y038205D01*
X047651Y038205D01*
X048651Y038205D02*
X048651Y039355D01*
X049151Y039355D01*
X049151Y038205D01*
X048651Y038205D01*
X049401Y038205D02*
X049401Y039355D01*
X049901Y039355D01*
X049901Y038205D01*
X049401Y038205D01*
X050126Y038436D02*
X050126Y039124D01*
X050677Y039124D01*
X050677Y038436D01*
X050126Y038436D01*
X050244Y038662D02*
X050401Y038898D01*
X050559Y038662D01*
X050244Y038662D01*
X050322Y038701D02*
X050401Y038819D01*
X050480Y038701D01*
X050322Y038701D01*
X050352Y038745D02*
X050451Y038745D01*
X050901Y038205D02*
X050901Y039355D01*
X051401Y039355D01*
X051401Y038205D01*
X050901Y038205D01*
X051651Y038205D02*
X052151Y038205D01*
X052151Y039355D01*
X051651Y039355D01*
X051651Y038205D01*
X052651Y038205D02*
X052651Y039355D01*
X053151Y039355D01*
X053151Y038205D01*
X052651Y038205D01*
X053401Y038205D02*
X053401Y039355D01*
X053901Y039355D01*
X053901Y038205D01*
X053401Y038205D01*
X054126Y038436D02*
X054126Y039124D01*
X054677Y039124D01*
X054677Y038436D01*
X054126Y038436D01*
X054244Y038662D02*
X054401Y038898D01*
X054559Y038662D01*
X054244Y038662D01*
X054322Y038701D02*
X054401Y038819D01*
X054480Y038701D01*
X054322Y038701D01*
X054352Y038745D02*
X054451Y038745D01*
X054901Y038205D02*
X054901Y039355D01*
X055401Y039355D01*
X055401Y038205D01*
X054901Y038205D01*
X055651Y038205D02*
X056151Y038205D01*
X056151Y039355D01*
X055651Y039355D01*
X055651Y038205D01*
X055461Y035790D02*
X054341Y035790D01*
X054341Y035270D01*
X054601Y035270D01*
X054341Y035270D02*
X054341Y035590D01*
X054341Y035270D02*
X055461Y035270D01*
X055202Y035270D01*
X055461Y035270D02*
X055461Y035590D01*
X055461Y035790D02*
X055461Y035270D01*
X055851Y035530D02*
X056801Y035530D01*
X056801Y034530D01*
X056976Y034280D02*
X056976Y033780D01*
X055826Y033780D01*
X055826Y034280D01*
X056976Y034280D01*
X057531Y034715D02*
X056271Y034715D01*
X056271Y035345D01*
X057531Y035345D01*
X057531Y034715D01*
X057801Y034530D02*
X057801Y035530D01*
X056801Y035530D01*
X055851Y035530D02*
X055851Y034530D01*
X055858Y034530D01*
X057801Y034530D01*
X060151Y035455D02*
X060151Y036605D01*
X060651Y036605D01*
X060651Y035455D01*
X060151Y035455D01*
X055017Y034593D02*
X055017Y032467D01*
X054860Y032467D01*
X054860Y034593D01*
X055017Y034593D01*
X054860Y034593D02*
X053443Y034593D01*
X053443Y032467D01*
X053285Y032467D01*
X053285Y034593D01*
X053443Y034593D01*
X053401Y034955D02*
X052901Y034955D01*
X052901Y036105D01*
X053401Y036105D01*
X053401Y034955D01*
X053651Y034955D02*
X054151Y034955D01*
X054151Y036105D01*
X053651Y036105D01*
X053651Y034955D01*
X051651Y033830D02*
X051651Y032880D01*
X050651Y032880D01*
X050836Y033410D02*
X050836Y032150D01*
X051466Y032150D01*
X051466Y033410D01*
X050836Y033410D01*
X050651Y033823D02*
X050651Y033830D01*
X051651Y033830D01*
X050651Y033823D02*
X050651Y031880D01*
X051651Y031880D01*
X051651Y032880D01*
X051901Y033355D02*
X051901Y032205D01*
X052401Y032205D01*
X052401Y033355D01*
X051901Y033355D01*
X053443Y032467D02*
X054860Y032467D01*
X050976Y016530D02*
X049826Y016530D01*
X049826Y016030D01*
X050976Y016030D01*
X050976Y016530D01*
X050976Y015780D02*
X049826Y015780D01*
X049826Y015280D01*
X050976Y015280D01*
X050976Y015780D01*
X050976Y015030D02*
X049826Y015030D01*
X049826Y014530D01*
X050976Y014530D01*
X050976Y015030D01*
X050976Y014280D02*
X049826Y014280D01*
X049826Y013780D01*
X050976Y013780D01*
X050976Y014280D01*
X050976Y013530D02*
X049826Y013530D01*
X049826Y013030D01*
X050976Y013030D01*
X050976Y013530D01*
X056076Y005280D02*
X057226Y005280D01*
X057226Y004780D01*
X056076Y004780D01*
X056076Y005280D01*
X056076Y004530D02*
X057226Y004530D01*
X057226Y004030D01*
X056076Y004030D01*
X056076Y004530D01*
X056076Y003780D02*
X057226Y003780D01*
X057226Y003280D01*
X056076Y003280D01*
X056076Y003780D01*
X056076Y003030D02*
X057226Y003030D01*
X057226Y002530D01*
X056076Y002530D01*
X056076Y003030D01*
X056076Y002280D02*
X056076Y001780D01*
X057226Y001780D01*
X057226Y002280D01*
X056076Y002280D01*
X044726Y002280D02*
X044726Y001780D01*
X043576Y001780D01*
X043576Y002280D01*
X044726Y002280D01*
X044726Y002530D02*
X043576Y002530D01*
X043576Y003030D01*
X044726Y003030D01*
X044726Y002530D01*
X044726Y003280D02*
X043576Y003280D01*
X043576Y003780D01*
X044726Y003780D01*
X044726Y003280D01*
X044726Y004030D02*
X043576Y004030D01*
X043576Y004530D01*
X044726Y004530D01*
X044726Y004030D01*
X044726Y004780D02*
X043576Y004780D01*
X043576Y005280D01*
X044726Y005280D01*
X044726Y004780D01*
X038476Y013030D02*
X037326Y013030D01*
X037326Y013530D01*
X038476Y013530D01*
X038476Y013030D01*
X038476Y013780D02*
X037326Y013780D01*
X037326Y014280D01*
X038476Y014280D01*
X038476Y013780D01*
X038476Y014530D02*
X037326Y014530D01*
X037326Y015030D01*
X038476Y015030D01*
X038476Y014530D01*
X038476Y015280D02*
X037326Y015280D01*
X037326Y015780D01*
X038476Y015780D01*
X038476Y015280D01*
X038476Y016030D02*
X037326Y016030D01*
X037326Y016530D01*
X038476Y016530D01*
X038476Y016030D01*
X030901Y005605D02*
X030401Y005605D01*
X030401Y004455D01*
X030901Y004455D01*
X030901Y005605D01*
X023401Y005605D02*
X023401Y004455D01*
X022901Y004455D01*
X022901Y005605D01*
X023401Y005605D01*
X015901Y005605D02*
X015901Y004455D01*
X015401Y004455D01*
X015401Y005605D01*
X015901Y005605D01*
X008401Y005605D02*
X008401Y004455D01*
X007901Y004455D01*
X007901Y005605D01*
X008401Y005605D01*
D14*
X002440Y002255D02*
X002440Y001905D01*
X002440Y002022D02*
X002673Y002255D01*
X002808Y002197D02*
X002866Y002255D01*
X002983Y002255D01*
X003041Y002197D01*
X002808Y001963D01*
X002866Y001905D01*
X002983Y001905D01*
X003041Y001963D01*
X003041Y002197D01*
X002808Y002197D02*
X002808Y001963D01*
X002673Y001905D02*
X002498Y002080D01*
X000509Y006563D02*
X000509Y025264D01*
X032793Y025264D01*
X032793Y006563D01*
X000509Y006563D01*
X003659Y009123D02*
X003659Y022115D01*
X029643Y022115D01*
X029643Y009123D01*
X003659Y009123D01*
X008676Y005420D02*
X008676Y005187D01*
X008851Y005187D01*
X008793Y005303D01*
X008793Y005362D01*
X008851Y005420D01*
X008968Y005420D01*
X009026Y005362D01*
X009026Y005245D01*
X008968Y005187D01*
X008968Y005052D02*
X009026Y004994D01*
X009026Y004877D01*
X008968Y004818D01*
X008851Y004818D02*
X008793Y004935D01*
X008793Y004994D01*
X008851Y005052D01*
X008968Y005052D01*
X008851Y004818D02*
X008676Y004818D01*
X008676Y005052D01*
X008734Y004684D02*
X008676Y004625D01*
X008676Y004508D01*
X008734Y004450D01*
X008968Y004450D01*
X009026Y004508D01*
X009026Y004625D01*
X008968Y004684D01*
X009940Y002255D02*
X009940Y001905D01*
X009940Y002022D02*
X010173Y002255D01*
X010308Y002139D02*
X010425Y002255D01*
X010425Y001905D01*
X010541Y001905D02*
X010308Y001905D01*
X010173Y001905D02*
X009998Y002080D01*
X016176Y004508D02*
X016234Y004450D01*
X016468Y004450D01*
X016526Y004508D01*
X016526Y004625D01*
X016468Y004684D01*
X016468Y004818D02*
X016526Y004877D01*
X016526Y004994D01*
X016468Y005052D01*
X016351Y005052D01*
X016293Y004994D01*
X016293Y004935D01*
X016351Y004818D01*
X016176Y004818D01*
X016176Y005052D01*
X016351Y005187D02*
X016351Y005362D01*
X016409Y005420D01*
X016468Y005420D01*
X016526Y005362D01*
X016526Y005245D01*
X016468Y005187D01*
X016351Y005187D01*
X016234Y005303D01*
X016176Y005420D01*
X016234Y004684D02*
X016176Y004625D01*
X016176Y004508D01*
X017440Y002255D02*
X017440Y001905D01*
X017440Y002022D02*
X017673Y002255D01*
X017808Y002197D02*
X017866Y002255D01*
X017983Y002255D01*
X018041Y002197D01*
X018041Y002139D01*
X017808Y001905D01*
X018041Y001905D01*
X017673Y001905D02*
X017498Y002080D01*
X023676Y004508D02*
X023734Y004450D01*
X023968Y004450D01*
X024026Y004508D01*
X024026Y004625D01*
X023968Y004684D01*
X023968Y004818D02*
X024026Y004877D01*
X024026Y004994D01*
X023968Y005052D01*
X023851Y005052D01*
X023793Y004994D01*
X023793Y004935D01*
X023851Y004818D01*
X023676Y004818D01*
X023676Y005052D01*
X023676Y005187D02*
X023676Y005420D01*
X023734Y005420D01*
X023968Y005187D01*
X024026Y005187D01*
X023734Y004684D02*
X023676Y004625D01*
X023676Y004508D01*
X024940Y002255D02*
X024940Y001905D01*
X024940Y002022D02*
X025173Y002255D01*
X025308Y002197D02*
X025366Y002255D01*
X025483Y002255D01*
X025541Y002197D01*
X025541Y002139D01*
X025483Y002080D01*
X025541Y002022D01*
X025541Y001963D01*
X025483Y001905D01*
X025366Y001905D01*
X025308Y001963D01*
X025173Y001905D02*
X024998Y002080D01*
X025425Y002080D02*
X025483Y002080D01*
X031176Y004508D02*
X031234Y004450D01*
X031468Y004450D01*
X031526Y004508D01*
X031526Y004625D01*
X031468Y004684D01*
X031468Y004818D02*
X031526Y004877D01*
X031526Y004994D01*
X031468Y005052D01*
X031351Y005052D01*
X031293Y004994D01*
X031293Y004935D01*
X031351Y004818D01*
X031176Y004818D01*
X031176Y005052D01*
X031234Y005187D02*
X031293Y005187D01*
X031351Y005245D01*
X031351Y005362D01*
X031409Y005420D01*
X031468Y005420D01*
X031526Y005362D01*
X031526Y005245D01*
X031468Y005187D01*
X031409Y005187D01*
X031351Y005245D01*
X031351Y005362D02*
X031293Y005420D01*
X031234Y005420D01*
X031176Y005362D01*
X031176Y005245D01*
X031234Y005187D01*
X031234Y004684D02*
X031176Y004625D01*
X031176Y004508D01*
X042071Y004505D02*
X042071Y004155D01*
X042071Y004272D02*
X042246Y004272D01*
X042305Y004330D01*
X042305Y004447D01*
X042246Y004505D01*
X042071Y004505D01*
X042188Y004272D02*
X042305Y004155D01*
X042440Y004213D02*
X042498Y004155D01*
X042615Y004155D01*
X042673Y004213D01*
X042673Y004272D01*
X042615Y004330D01*
X042556Y004330D01*
X042615Y004330D02*
X042673Y004389D01*
X042673Y004447D01*
X042615Y004505D01*
X042498Y004505D01*
X042440Y004447D01*
X042808Y004447D02*
X042866Y004505D01*
X042983Y004505D01*
X043041Y004447D01*
X043041Y004389D01*
X042983Y004330D01*
X043041Y004272D01*
X043041Y004213D01*
X042983Y004155D01*
X042866Y004155D01*
X042808Y004213D01*
X042925Y004330D02*
X042983Y004330D01*
X042983Y004905D02*
X042866Y004905D01*
X042808Y004963D01*
X042808Y005080D02*
X042925Y005139D01*
X042983Y005139D01*
X043041Y005080D01*
X043041Y004963D01*
X042983Y004905D01*
X042808Y005080D02*
X042808Y005255D01*
X043041Y005255D01*
X042673Y005197D02*
X042673Y005139D01*
X042615Y005080D01*
X042673Y005022D01*
X042673Y004963D01*
X042615Y004905D01*
X042498Y004905D01*
X042440Y004963D01*
X042305Y004905D02*
X042188Y005022D01*
X042246Y005022D02*
X042071Y005022D01*
X042071Y004905D02*
X042071Y005255D01*
X042246Y005255D01*
X042305Y005197D01*
X042305Y005080D01*
X042246Y005022D01*
X042440Y005197D02*
X042498Y005255D01*
X042615Y005255D01*
X042673Y005197D01*
X042615Y005080D02*
X042556Y005080D01*
X042498Y003755D02*
X042615Y003755D01*
X042673Y003697D01*
X042673Y003639D01*
X042615Y003580D01*
X042673Y003522D01*
X042673Y003463D01*
X042615Y003405D01*
X042498Y003405D01*
X042440Y003463D01*
X042305Y003405D02*
X042188Y003522D01*
X042246Y003522D02*
X042071Y003522D01*
X042071Y003405D02*
X042071Y003755D01*
X042246Y003755D01*
X042305Y003697D01*
X042305Y003580D01*
X042246Y003522D01*
X042440Y003697D02*
X042498Y003755D01*
X042556Y003580D02*
X042615Y003580D01*
X042808Y003580D02*
X043041Y003580D01*
X042983Y003405D02*
X042983Y003755D01*
X042808Y003580D01*
X042615Y003005D02*
X042673Y002947D01*
X042673Y002889D01*
X042615Y002830D01*
X042673Y002772D01*
X042673Y002713D01*
X042615Y002655D01*
X042498Y002655D01*
X042440Y002713D01*
X042305Y002655D02*
X042188Y002772D01*
X042246Y002772D02*
X042071Y002772D01*
X042071Y002655D02*
X042071Y003005D01*
X042246Y003005D01*
X042305Y002947D01*
X042305Y002830D01*
X042246Y002772D01*
X042440Y002947D02*
X042498Y003005D01*
X042615Y003005D01*
X042615Y002830D02*
X042556Y002830D01*
X042808Y002830D02*
X042808Y002713D01*
X042866Y002655D01*
X042983Y002655D01*
X043041Y002713D01*
X043041Y002772D01*
X042983Y002830D01*
X042808Y002830D01*
X042925Y002947D01*
X043041Y003005D01*
X042925Y002255D02*
X042925Y001905D01*
X043041Y001905D02*
X042808Y001905D01*
X042673Y001963D02*
X042673Y002022D01*
X042615Y002080D01*
X042440Y002080D01*
X042440Y001963D01*
X042498Y001905D01*
X042615Y001905D01*
X042673Y001963D01*
X042808Y002139D02*
X042925Y002255D01*
X042673Y002255D02*
X042556Y002197D01*
X042440Y002080D01*
X042305Y001963D02*
X042246Y001905D01*
X042130Y001905D01*
X042071Y001963D01*
X042071Y002197D01*
X042130Y002255D01*
X042246Y002255D01*
X042305Y002197D01*
X045151Y003280D02*
X045151Y009280D01*
X051151Y009280D01*
X051151Y003280D01*
X045151Y003280D01*
X046251Y006280D02*
X046253Y006373D01*
X046260Y006466D01*
X046272Y006559D01*
X046288Y006651D01*
X046308Y006742D01*
X046333Y006832D01*
X046362Y006920D01*
X046396Y007007D01*
X046433Y007092D01*
X046475Y007176D01*
X046521Y007257D01*
X046571Y007336D01*
X046625Y007412D01*
X046682Y007485D01*
X046743Y007556D01*
X046807Y007624D01*
X046875Y007688D01*
X046946Y007749D01*
X047019Y007806D01*
X047095Y007860D01*
X047174Y007910D01*
X047255Y007956D01*
X047339Y007998D01*
X047424Y008035D01*
X047511Y008069D01*
X047599Y008098D01*
X047689Y008123D01*
X047780Y008143D01*
X047872Y008159D01*
X047965Y008171D01*
X048058Y008178D01*
X048151Y008180D01*
X048244Y008178D01*
X048337Y008171D01*
X048430Y008159D01*
X048522Y008143D01*
X048613Y008123D01*
X048703Y008098D01*
X048791Y008069D01*
X048878Y008035D01*
X048963Y007998D01*
X049047Y007956D01*
X049128Y007910D01*
X049207Y007860D01*
X049283Y007806D01*
X049356Y007749D01*
X049427Y007688D01*
X049495Y007624D01*
X049559Y007556D01*
X049620Y007485D01*
X049677Y007412D01*
X049731Y007336D01*
X049781Y007257D01*
X049827Y007176D01*
X049869Y007092D01*
X049906Y007007D01*
X049940Y006920D01*
X049969Y006832D01*
X049994Y006742D01*
X050014Y006651D01*
X050030Y006559D01*
X050042Y006466D01*
X050049Y006373D01*
X050051Y006280D01*
X050049Y006187D01*
X050042Y006094D01*
X050030Y006001D01*
X050014Y005909D01*
X049994Y005818D01*
X049969Y005728D01*
X049940Y005640D01*
X049906Y005553D01*
X049869Y005468D01*
X049827Y005384D01*
X049781Y005303D01*
X049731Y005224D01*
X049677Y005148D01*
X049620Y005075D01*
X049559Y005004D01*
X049495Y004936D01*
X049427Y004872D01*
X049356Y004811D01*
X049283Y004754D01*
X049207Y004700D01*
X049128Y004650D01*
X049047Y004604D01*
X048963Y004562D01*
X048878Y004525D01*
X048791Y004491D01*
X048703Y004462D01*
X048613Y004437D01*
X048522Y004417D01*
X048430Y004401D01*
X048337Y004389D01*
X048244Y004382D01*
X048151Y004380D01*
X048058Y004382D01*
X047965Y004389D01*
X047872Y004401D01*
X047780Y004417D01*
X047689Y004437D01*
X047599Y004462D01*
X047511Y004491D01*
X047424Y004525D01*
X047339Y004562D01*
X047255Y004604D01*
X047174Y004650D01*
X047095Y004700D01*
X047019Y004754D01*
X046946Y004811D01*
X046875Y004872D01*
X046807Y004936D01*
X046743Y005004D01*
X046682Y005075D01*
X046625Y005148D01*
X046571Y005224D01*
X046521Y005303D01*
X046475Y005384D01*
X046433Y005468D01*
X046396Y005553D01*
X046362Y005640D01*
X046333Y005728D01*
X046308Y005818D01*
X046288Y005909D01*
X046272Y006001D01*
X046260Y006094D01*
X046253Y006187D01*
X046251Y006280D01*
X054071Y002197D02*
X054071Y001963D01*
X054130Y001905D01*
X054246Y001905D01*
X054305Y001963D01*
X054440Y001963D02*
X054498Y001905D01*
X054615Y001905D01*
X054673Y001963D01*
X054673Y002022D01*
X054615Y002080D01*
X054440Y002080D01*
X054440Y001963D01*
X054440Y002080D02*
X054556Y002197D01*
X054673Y002255D01*
X054808Y002197D02*
X054866Y002255D01*
X054983Y002255D01*
X055041Y002197D01*
X054808Y001963D01*
X054866Y001905D01*
X054983Y001905D01*
X055041Y001963D01*
X055041Y002197D01*
X054808Y002197D02*
X054808Y001963D01*
X054305Y002197D02*
X054246Y002255D01*
X054130Y002255D01*
X054071Y002197D01*
X054571Y002655D02*
X054571Y003005D01*
X054746Y003005D01*
X054805Y002947D01*
X054805Y002830D01*
X054746Y002772D01*
X054571Y002772D01*
X054688Y002772D02*
X054805Y002655D01*
X054940Y002713D02*
X054998Y002655D01*
X055115Y002655D01*
X055173Y002713D01*
X055173Y002772D01*
X055115Y002830D01*
X055056Y002830D01*
X055115Y002830D02*
X055173Y002889D01*
X055173Y002947D01*
X055115Y003005D01*
X054998Y003005D01*
X054940Y002947D01*
X055308Y002889D02*
X055425Y003005D01*
X055425Y002655D01*
X055541Y002655D02*
X055308Y002655D01*
X055366Y003405D02*
X055483Y003405D01*
X055541Y003463D01*
X055541Y003697D01*
X055483Y003755D01*
X055366Y003755D01*
X055308Y003697D01*
X055308Y003639D01*
X055366Y003580D01*
X055541Y003580D01*
X055366Y003405D02*
X055308Y003463D01*
X055173Y003405D02*
X054940Y003405D01*
X055173Y003639D01*
X055173Y003697D01*
X055115Y003755D01*
X054998Y003755D01*
X054940Y003697D01*
X054805Y003697D02*
X054805Y003580D01*
X054746Y003522D01*
X054571Y003522D01*
X054688Y003522D02*
X054805Y003405D01*
X054571Y003405D02*
X054571Y003755D01*
X054746Y003755D01*
X054805Y003697D01*
X054805Y004155D02*
X054688Y004272D01*
X054746Y004272D02*
X054571Y004272D01*
X054571Y004155D02*
X054571Y004505D01*
X054746Y004505D01*
X054805Y004447D01*
X054805Y004330D01*
X054746Y004272D01*
X054940Y004155D02*
X055173Y004389D01*
X055173Y004447D01*
X055115Y004505D01*
X054998Y004505D01*
X054940Y004447D01*
X054940Y004155D02*
X055173Y004155D01*
X055308Y004213D02*
X055308Y004272D01*
X055366Y004330D01*
X055483Y004330D01*
X055541Y004272D01*
X055541Y004213D01*
X055483Y004155D01*
X055366Y004155D01*
X055308Y004213D01*
X055366Y004330D02*
X055308Y004389D01*
X055308Y004447D01*
X055366Y004505D01*
X055483Y004505D01*
X055541Y004447D01*
X055541Y004389D01*
X055483Y004330D01*
X055483Y004905D02*
X055366Y004905D01*
X055308Y004963D01*
X055541Y005197D01*
X055541Y004963D01*
X055483Y004905D01*
X055308Y004963D02*
X055308Y005197D01*
X055366Y005255D01*
X055483Y005255D01*
X055541Y005197D01*
X055173Y005197D02*
X055173Y005139D01*
X055115Y005080D01*
X055173Y005022D01*
X055173Y004963D01*
X055115Y004905D01*
X054998Y004905D01*
X054940Y004963D01*
X054805Y004905D02*
X054688Y005022D01*
X054746Y005022D02*
X054571Y005022D01*
X054571Y004905D02*
X054571Y005255D01*
X054746Y005255D01*
X054805Y005197D01*
X054805Y005080D01*
X054746Y005022D01*
X054940Y005197D02*
X054998Y005255D01*
X055115Y005255D01*
X055173Y005197D01*
X055115Y005080D02*
X055056Y005080D01*
X057651Y003280D02*
X057651Y009280D01*
X063651Y009280D01*
X063651Y003280D01*
X057651Y003280D01*
X058751Y006280D02*
X058753Y006373D01*
X058760Y006466D01*
X058772Y006559D01*
X058788Y006651D01*
X058808Y006742D01*
X058833Y006832D01*
X058862Y006920D01*
X058896Y007007D01*
X058933Y007092D01*
X058975Y007176D01*
X059021Y007257D01*
X059071Y007336D01*
X059125Y007412D01*
X059182Y007485D01*
X059243Y007556D01*
X059307Y007624D01*
X059375Y007688D01*
X059446Y007749D01*
X059519Y007806D01*
X059595Y007860D01*
X059674Y007910D01*
X059755Y007956D01*
X059839Y007998D01*
X059924Y008035D01*
X060011Y008069D01*
X060099Y008098D01*
X060189Y008123D01*
X060280Y008143D01*
X060372Y008159D01*
X060465Y008171D01*
X060558Y008178D01*
X060651Y008180D01*
X060744Y008178D01*
X060837Y008171D01*
X060930Y008159D01*
X061022Y008143D01*
X061113Y008123D01*
X061203Y008098D01*
X061291Y008069D01*
X061378Y008035D01*
X061463Y007998D01*
X061547Y007956D01*
X061628Y007910D01*
X061707Y007860D01*
X061783Y007806D01*
X061856Y007749D01*
X061927Y007688D01*
X061995Y007624D01*
X062059Y007556D01*
X062120Y007485D01*
X062177Y007412D01*
X062231Y007336D01*
X062281Y007257D01*
X062327Y007176D01*
X062369Y007092D01*
X062406Y007007D01*
X062440Y006920D01*
X062469Y006832D01*
X062494Y006742D01*
X062514Y006651D01*
X062530Y006559D01*
X062542Y006466D01*
X062549Y006373D01*
X062551Y006280D01*
X062549Y006187D01*
X062542Y006094D01*
X062530Y006001D01*
X062514Y005909D01*
X062494Y005818D01*
X062469Y005728D01*
X062440Y005640D01*
X062406Y005553D01*
X062369Y005468D01*
X062327Y005384D01*
X062281Y005303D01*
X062231Y005224D01*
X062177Y005148D01*
X062120Y005075D01*
X062059Y005004D01*
X061995Y004936D01*
X061927Y004872D01*
X061856Y004811D01*
X061783Y004754D01*
X061707Y004700D01*
X061628Y004650D01*
X061547Y004604D01*
X061463Y004562D01*
X061378Y004525D01*
X061291Y004491D01*
X061203Y004462D01*
X061113Y004437D01*
X061022Y004417D01*
X060930Y004401D01*
X060837Y004389D01*
X060744Y004382D01*
X060651Y004380D01*
X060558Y004382D01*
X060465Y004389D01*
X060372Y004401D01*
X060280Y004417D01*
X060189Y004437D01*
X060099Y004462D01*
X060011Y004491D01*
X059924Y004525D01*
X059839Y004562D01*
X059755Y004604D01*
X059674Y004650D01*
X059595Y004700D01*
X059519Y004754D01*
X059446Y004811D01*
X059375Y004872D01*
X059307Y004936D01*
X059243Y005004D01*
X059182Y005075D01*
X059125Y005148D01*
X059071Y005224D01*
X059021Y005303D01*
X058975Y005384D01*
X058933Y005468D01*
X058896Y005553D01*
X058862Y005640D01*
X058833Y005728D01*
X058808Y005818D01*
X058788Y005909D01*
X058772Y006001D01*
X058760Y006094D01*
X058753Y006187D01*
X058751Y006280D01*
X049291Y013155D02*
X049058Y013155D01*
X049291Y013389D01*
X049291Y013447D01*
X049233Y013505D01*
X049116Y013505D01*
X049058Y013447D01*
X048923Y013505D02*
X048806Y013447D01*
X048690Y013330D01*
X048865Y013330D01*
X048923Y013272D01*
X048923Y013213D01*
X048865Y013155D01*
X048748Y013155D01*
X048690Y013213D01*
X048690Y013330D01*
X048555Y013213D02*
X048496Y013155D01*
X048380Y013155D01*
X048321Y013213D01*
X048321Y013447D01*
X048380Y013505D01*
X048496Y013505D01*
X048555Y013447D01*
X048555Y013905D02*
X048438Y014022D01*
X048496Y014022D02*
X048321Y014022D01*
X048321Y013905D02*
X048321Y014255D01*
X048496Y014255D01*
X048555Y014197D01*
X048555Y014080D01*
X048496Y014022D01*
X048690Y014080D02*
X048923Y014080D01*
X049058Y014139D02*
X049175Y014255D01*
X049175Y013905D01*
X049291Y013905D02*
X049058Y013905D01*
X048865Y013905D02*
X048865Y014255D01*
X048690Y014080D01*
X048748Y014655D02*
X048690Y014713D01*
X048748Y014655D02*
X048865Y014655D01*
X048923Y014713D01*
X048923Y014772D01*
X048865Y014830D01*
X048806Y014830D01*
X048865Y014830D02*
X048923Y014889D01*
X048923Y014947D01*
X048865Y015005D01*
X048748Y015005D01*
X048690Y014947D01*
X048555Y014947D02*
X048555Y014830D01*
X048496Y014772D01*
X048321Y014772D01*
X048438Y014772D02*
X048555Y014655D01*
X048321Y014655D02*
X048321Y015005D01*
X048496Y015005D01*
X048555Y014947D01*
X048555Y015405D02*
X048438Y015522D01*
X048496Y015522D02*
X048321Y015522D01*
X048321Y015405D02*
X048321Y015755D01*
X048496Y015755D01*
X048555Y015697D01*
X048555Y015580D01*
X048496Y015522D01*
X048690Y015463D02*
X048748Y015405D01*
X048865Y015405D01*
X048923Y015463D01*
X048923Y015522D01*
X048865Y015580D01*
X048806Y015580D01*
X048865Y015580D02*
X048923Y015639D01*
X048923Y015697D01*
X048865Y015755D01*
X048748Y015755D01*
X048690Y015697D01*
X049058Y015697D02*
X049058Y015639D01*
X049116Y015580D01*
X049233Y015580D01*
X049291Y015522D01*
X049291Y015463D01*
X049233Y015405D01*
X049116Y015405D01*
X049058Y015463D01*
X049058Y015522D01*
X049116Y015580D01*
X049233Y015580D02*
X049291Y015639D01*
X049291Y015697D01*
X049233Y015755D01*
X049116Y015755D01*
X049058Y015697D01*
X049116Y016155D02*
X049058Y016213D01*
X049291Y016447D01*
X049291Y016213D01*
X049233Y016155D01*
X049116Y016155D01*
X049058Y016213D02*
X049058Y016447D01*
X049116Y016505D01*
X049233Y016505D01*
X049291Y016447D01*
X048923Y016330D02*
X048690Y016330D01*
X048865Y016505D01*
X048865Y016155D01*
X048555Y016155D02*
X048438Y016272D01*
X048496Y016272D02*
X048321Y016272D01*
X048321Y016155D02*
X048321Y016505D01*
X048496Y016505D01*
X048555Y016447D01*
X048555Y016330D01*
X048496Y016272D01*
X049116Y015005D02*
X049058Y014947D01*
X049058Y014889D01*
X049116Y014830D01*
X049291Y014830D01*
X049291Y014713D02*
X049291Y014947D01*
X049233Y015005D01*
X049116Y015005D01*
X049058Y014713D02*
X049116Y014655D01*
X049233Y014655D01*
X049291Y014713D01*
X051401Y014530D02*
X051401Y020530D01*
X057401Y020530D01*
X057401Y014530D01*
X051401Y014530D01*
X052501Y017530D02*
X052503Y017623D01*
X052510Y017716D01*
X052522Y017809D01*
X052538Y017901D01*
X052558Y017992D01*
X052583Y018082D01*
X052612Y018170D01*
X052646Y018257D01*
X052683Y018342D01*
X052725Y018426D01*
X052771Y018507D01*
X052821Y018586D01*
X052875Y018662D01*
X052932Y018735D01*
X052993Y018806D01*
X053057Y018874D01*
X053125Y018938D01*
X053196Y018999D01*
X053269Y019056D01*
X053345Y019110D01*
X053424Y019160D01*
X053505Y019206D01*
X053589Y019248D01*
X053674Y019285D01*
X053761Y019319D01*
X053849Y019348D01*
X053939Y019373D01*
X054030Y019393D01*
X054122Y019409D01*
X054215Y019421D01*
X054308Y019428D01*
X054401Y019430D01*
X054494Y019428D01*
X054587Y019421D01*
X054680Y019409D01*
X054772Y019393D01*
X054863Y019373D01*
X054953Y019348D01*
X055041Y019319D01*
X055128Y019285D01*
X055213Y019248D01*
X055297Y019206D01*
X055378Y019160D01*
X055457Y019110D01*
X055533Y019056D01*
X055606Y018999D01*
X055677Y018938D01*
X055745Y018874D01*
X055809Y018806D01*
X055870Y018735D01*
X055927Y018662D01*
X055981Y018586D01*
X056031Y018507D01*
X056077Y018426D01*
X056119Y018342D01*
X056156Y018257D01*
X056190Y018170D01*
X056219Y018082D01*
X056244Y017992D01*
X056264Y017901D01*
X056280Y017809D01*
X056292Y017716D01*
X056299Y017623D01*
X056301Y017530D01*
X056299Y017437D01*
X056292Y017344D01*
X056280Y017251D01*
X056264Y017159D01*
X056244Y017068D01*
X056219Y016978D01*
X056190Y016890D01*
X056156Y016803D01*
X056119Y016718D01*
X056077Y016634D01*
X056031Y016553D01*
X055981Y016474D01*
X055927Y016398D01*
X055870Y016325D01*
X055809Y016254D01*
X055745Y016186D01*
X055677Y016122D01*
X055606Y016061D01*
X055533Y016004D01*
X055457Y015950D01*
X055378Y015900D01*
X055297Y015854D01*
X055213Y015812D01*
X055128Y015775D01*
X055041Y015741D01*
X054953Y015712D01*
X054863Y015687D01*
X054772Y015667D01*
X054680Y015651D01*
X054587Y015639D01*
X054494Y015632D01*
X054401Y015630D01*
X054308Y015632D01*
X054215Y015639D01*
X054122Y015651D01*
X054030Y015667D01*
X053939Y015687D01*
X053849Y015712D01*
X053761Y015741D01*
X053674Y015775D01*
X053589Y015812D01*
X053505Y015854D01*
X053424Y015900D01*
X053345Y015950D01*
X053269Y016004D01*
X053196Y016061D01*
X053125Y016122D01*
X053057Y016186D01*
X052993Y016254D01*
X052932Y016325D01*
X052875Y016398D01*
X052821Y016474D01*
X052771Y016553D01*
X052725Y016634D01*
X052683Y016718D01*
X052646Y016803D01*
X052612Y016890D01*
X052583Y016978D01*
X052558Y017068D01*
X052538Y017159D01*
X052522Y017251D01*
X052510Y017344D01*
X052503Y017437D01*
X052501Y017530D01*
X044901Y014530D02*
X044901Y020530D01*
X038901Y020530D01*
X038901Y014530D01*
X044901Y014530D01*
X040001Y017530D02*
X040003Y017623D01*
X040010Y017716D01*
X040022Y017809D01*
X040038Y017901D01*
X040058Y017992D01*
X040083Y018082D01*
X040112Y018170D01*
X040146Y018257D01*
X040183Y018342D01*
X040225Y018426D01*
X040271Y018507D01*
X040321Y018586D01*
X040375Y018662D01*
X040432Y018735D01*
X040493Y018806D01*
X040557Y018874D01*
X040625Y018938D01*
X040696Y018999D01*
X040769Y019056D01*
X040845Y019110D01*
X040924Y019160D01*
X041005Y019206D01*
X041089Y019248D01*
X041174Y019285D01*
X041261Y019319D01*
X041349Y019348D01*
X041439Y019373D01*
X041530Y019393D01*
X041622Y019409D01*
X041715Y019421D01*
X041808Y019428D01*
X041901Y019430D01*
X041994Y019428D01*
X042087Y019421D01*
X042180Y019409D01*
X042272Y019393D01*
X042363Y019373D01*
X042453Y019348D01*
X042541Y019319D01*
X042628Y019285D01*
X042713Y019248D01*
X042797Y019206D01*
X042878Y019160D01*
X042957Y019110D01*
X043033Y019056D01*
X043106Y018999D01*
X043177Y018938D01*
X043245Y018874D01*
X043309Y018806D01*
X043370Y018735D01*
X043427Y018662D01*
X043481Y018586D01*
X043531Y018507D01*
X043577Y018426D01*
X043619Y018342D01*
X043656Y018257D01*
X043690Y018170D01*
X043719Y018082D01*
X043744Y017992D01*
X043764Y017901D01*
X043780Y017809D01*
X043792Y017716D01*
X043799Y017623D01*
X043801Y017530D01*
X043799Y017437D01*
X043792Y017344D01*
X043780Y017251D01*
X043764Y017159D01*
X043744Y017068D01*
X043719Y016978D01*
X043690Y016890D01*
X043656Y016803D01*
X043619Y016718D01*
X043577Y016634D01*
X043531Y016553D01*
X043481Y016474D01*
X043427Y016398D01*
X043370Y016325D01*
X043309Y016254D01*
X043245Y016186D01*
X043177Y016122D01*
X043106Y016061D01*
X043033Y016004D01*
X042957Y015950D01*
X042878Y015900D01*
X042797Y015854D01*
X042713Y015812D01*
X042628Y015775D01*
X042541Y015741D01*
X042453Y015712D01*
X042363Y015687D01*
X042272Y015667D01*
X042180Y015651D01*
X042087Y015639D01*
X041994Y015632D01*
X041901Y015630D01*
X041808Y015632D01*
X041715Y015639D01*
X041622Y015651D01*
X041530Y015667D01*
X041439Y015687D01*
X041349Y015712D01*
X041261Y015741D01*
X041174Y015775D01*
X041089Y015812D01*
X041005Y015854D01*
X040924Y015900D01*
X040845Y015950D01*
X040769Y016004D01*
X040696Y016061D01*
X040625Y016122D01*
X040557Y016186D01*
X040493Y016254D01*
X040432Y016325D01*
X040375Y016398D01*
X040321Y016474D01*
X040271Y016553D01*
X040225Y016634D01*
X040183Y016718D01*
X040146Y016803D01*
X040112Y016890D01*
X040083Y016978D01*
X040058Y017068D01*
X040038Y017159D01*
X040022Y017251D01*
X040010Y017344D01*
X040003Y017437D01*
X040001Y017530D01*
X036791Y016505D02*
X036558Y016505D01*
X036558Y016330D01*
X036675Y016389D01*
X036733Y016389D01*
X036791Y016330D01*
X036791Y016213D01*
X036733Y016155D01*
X036616Y016155D01*
X036558Y016213D01*
X036423Y016330D02*
X036190Y016330D01*
X036365Y016505D01*
X036365Y016155D01*
X036055Y016155D02*
X035938Y016272D01*
X035996Y016272D02*
X035821Y016272D01*
X035821Y016155D02*
X035821Y016505D01*
X035996Y016505D01*
X036055Y016447D01*
X036055Y016330D01*
X035996Y016272D01*
X035996Y015755D02*
X035821Y015755D01*
X035821Y015405D01*
X035821Y015522D02*
X035996Y015522D01*
X036055Y015580D01*
X036055Y015697D01*
X035996Y015755D01*
X035938Y015522D02*
X036055Y015405D01*
X036190Y015580D02*
X036423Y015580D01*
X036558Y015463D02*
X036616Y015405D01*
X036733Y015405D01*
X036791Y015463D01*
X036791Y015522D01*
X036733Y015580D01*
X036675Y015580D01*
X036733Y015580D02*
X036791Y015639D01*
X036791Y015697D01*
X036733Y015755D01*
X036616Y015755D01*
X036558Y015697D01*
X036365Y015755D02*
X036190Y015580D01*
X036365Y015405D02*
X036365Y015755D01*
X036365Y015005D02*
X036190Y014830D01*
X036423Y014830D01*
X036558Y014830D02*
X036791Y014830D01*
X036733Y014655D02*
X036733Y015005D01*
X036558Y014830D01*
X036365Y014655D02*
X036365Y015005D01*
X036055Y014947D02*
X036055Y014830D01*
X035996Y014772D01*
X035821Y014772D01*
X035821Y014655D02*
X035821Y015005D01*
X035996Y015005D01*
X036055Y014947D01*
X035938Y014772D02*
X036055Y014655D01*
X035996Y014255D02*
X035821Y014255D01*
X035821Y013905D01*
X035821Y014022D02*
X035996Y014022D01*
X036055Y014080D01*
X036055Y014197D01*
X035996Y014255D01*
X035938Y014022D02*
X036055Y013905D01*
X036190Y014080D02*
X036423Y014080D01*
X036558Y014080D02*
X036733Y014080D01*
X036791Y014022D01*
X036791Y013963D01*
X036733Y013905D01*
X036616Y013905D01*
X036558Y013963D01*
X036558Y014080D01*
X036675Y014197D01*
X036791Y014255D01*
X036365Y014255D02*
X036190Y014080D01*
X036365Y013905D02*
X036365Y014255D01*
X036423Y013505D02*
X036306Y013447D01*
X036190Y013330D01*
X036365Y013330D01*
X036423Y013272D01*
X036423Y013213D01*
X036365Y013155D01*
X036248Y013155D01*
X036190Y013213D01*
X036190Y013330D01*
X036055Y013213D02*
X035996Y013155D01*
X035880Y013155D01*
X035821Y013213D01*
X035821Y013447D01*
X035880Y013505D01*
X035996Y013505D01*
X036055Y013447D01*
X036558Y013447D02*
X036616Y013505D01*
X036733Y013505D01*
X036791Y013447D01*
X036791Y013389D01*
X036733Y013330D01*
X036791Y013272D01*
X036791Y013213D01*
X036733Y013155D01*
X036616Y013155D01*
X036558Y013213D01*
X036675Y013330D02*
X036733Y013330D01*
X026513Y023185D02*
X026513Y023535D01*
X026338Y023360D01*
X026571Y023360D01*
X026203Y023360D02*
X026145Y023302D01*
X025970Y023302D01*
X025970Y023185D02*
X025970Y023535D01*
X026145Y023535D01*
X026203Y023477D01*
X026203Y023360D01*
X025835Y023535D02*
X025718Y023535D01*
X025776Y023535D02*
X025776Y023243D01*
X025718Y023185D01*
X025660Y023185D01*
X025601Y023243D01*
X016848Y024280D02*
X016651Y024280D01*
X016651Y024477D01*
X040676Y036950D02*
X040676Y037125D01*
X040734Y037184D01*
X040851Y037184D01*
X040909Y037125D01*
X040909Y036950D01*
X040909Y037067D02*
X041026Y037184D01*
X040968Y037318D02*
X041026Y037377D01*
X041026Y037494D01*
X040968Y037552D01*
X040851Y037552D01*
X040793Y037494D01*
X040793Y037435D01*
X040851Y037318D01*
X040676Y037318D01*
X040676Y037552D01*
X040793Y037687D02*
X040676Y037803D01*
X041026Y037803D01*
X041026Y037687D02*
X041026Y037920D01*
X041426Y037862D02*
X041601Y037687D01*
X041601Y037920D01*
X041776Y037862D02*
X041426Y037862D01*
X041426Y037552D02*
X041484Y037435D01*
X041601Y037318D01*
X041601Y037494D01*
X041659Y037552D01*
X041718Y037552D01*
X041776Y037494D01*
X041776Y037377D01*
X041718Y037318D01*
X041601Y037318D01*
X041484Y037184D02*
X041426Y037125D01*
X041426Y037008D01*
X041484Y036950D01*
X041718Y036950D01*
X041776Y037008D01*
X041776Y037125D01*
X041718Y037184D01*
X041026Y036950D02*
X040676Y036950D01*
X042926Y037068D02*
X042926Y037244D01*
X042984Y037302D01*
X043218Y037302D01*
X043276Y037244D01*
X043276Y037068D01*
X042926Y037068D01*
X042984Y037437D02*
X042926Y037495D01*
X042926Y037612D01*
X042984Y037670D01*
X043043Y037670D01*
X043101Y037612D01*
X043159Y037670D01*
X043218Y037670D01*
X043276Y037612D01*
X043276Y037495D01*
X043218Y037437D01*
X043101Y037553D02*
X043101Y037612D01*
X043426Y037552D02*
X043426Y037318D01*
X043601Y037318D01*
X043543Y037435D01*
X043543Y037494D01*
X043601Y037552D01*
X043718Y037552D01*
X043776Y037494D01*
X043776Y037377D01*
X043718Y037318D01*
X043776Y037184D02*
X043659Y037067D01*
X043659Y037125D02*
X043659Y036950D01*
X043776Y036950D02*
X043426Y036950D01*
X043426Y037125D01*
X043484Y037184D01*
X043601Y037184D01*
X043659Y037125D01*
X043926Y037125D02*
X043984Y037184D01*
X044101Y037184D01*
X044159Y037125D01*
X044159Y036950D01*
X044159Y037067D02*
X044276Y037184D01*
X044218Y037318D02*
X044276Y037377D01*
X044276Y037494D01*
X044218Y037552D01*
X044101Y037552D01*
X044043Y037494D01*
X044043Y037435D01*
X044101Y037318D01*
X043926Y037318D01*
X043926Y037552D01*
X043984Y037687D02*
X043926Y037745D01*
X043926Y037862D01*
X043984Y037920D01*
X044043Y037920D01*
X044276Y037687D01*
X044276Y037920D01*
X044676Y037862D02*
X044851Y037687D01*
X044851Y037920D01*
X045026Y037862D02*
X044676Y037862D01*
X044676Y037552D02*
X044676Y037318D01*
X044851Y037318D01*
X044793Y037435D01*
X044793Y037494D01*
X044851Y037552D01*
X044968Y037552D01*
X045026Y037494D01*
X045026Y037377D01*
X044968Y037318D01*
X045026Y037184D02*
X044909Y037067D01*
X044909Y037125D02*
X044909Y036950D01*
X045026Y036950D02*
X044676Y036950D01*
X044676Y037125D01*
X044734Y037184D01*
X044851Y037184D01*
X044909Y037125D01*
X045426Y037125D02*
X045426Y037008D01*
X045484Y036950D01*
X045718Y036950D01*
X045776Y037008D01*
X045776Y037125D01*
X045718Y037184D01*
X045718Y037318D02*
X045776Y037377D01*
X045776Y037494D01*
X045718Y037552D01*
X045659Y037552D01*
X045601Y037494D01*
X045601Y037318D01*
X045718Y037318D01*
X045601Y037318D02*
X045484Y037435D01*
X045426Y037552D01*
X045426Y037687D02*
X045601Y037687D01*
X045543Y037803D01*
X045543Y037862D01*
X045601Y037920D01*
X045718Y037920D01*
X045776Y037862D01*
X045776Y037745D01*
X045718Y037687D01*
X045426Y037687D02*
X045426Y037920D01*
X045484Y037184D02*
X045426Y037125D01*
X044276Y036950D02*
X043926Y036950D01*
X043926Y037125D01*
X043718Y037687D02*
X043776Y037745D01*
X043776Y037862D01*
X043718Y037920D01*
X043659Y037920D01*
X043601Y037862D01*
X043601Y037803D01*
X043601Y037862D02*
X043543Y037920D01*
X043484Y037920D01*
X043426Y037862D01*
X043426Y037745D01*
X043484Y037687D01*
X046926Y037612D02*
X047101Y037437D01*
X047101Y037670D01*
X047276Y037612D02*
X046926Y037612D01*
X046984Y037302D02*
X046926Y037244D01*
X046926Y037068D01*
X047276Y037068D01*
X047276Y037244D01*
X047218Y037302D01*
X046984Y037302D01*
X047426Y037318D02*
X047601Y037318D01*
X047543Y037435D01*
X047543Y037494D01*
X047601Y037552D01*
X047718Y037552D01*
X047776Y037494D01*
X047776Y037377D01*
X047718Y037318D01*
X047776Y037184D02*
X047659Y037067D01*
X047659Y037125D02*
X047659Y036950D01*
X047776Y036950D02*
X047426Y036950D01*
X047426Y037125D01*
X047484Y037184D01*
X047601Y037184D01*
X047659Y037125D01*
X047926Y037125D02*
X047984Y037184D01*
X048101Y037184D01*
X048159Y037125D01*
X048159Y036950D01*
X048159Y037067D02*
X048276Y037184D01*
X048218Y037318D02*
X048276Y037377D01*
X048276Y037494D01*
X048218Y037552D01*
X048101Y037552D01*
X048043Y037494D01*
X048043Y037435D01*
X048101Y037318D01*
X047926Y037318D01*
X047926Y037552D01*
X047926Y037687D02*
X048101Y037687D01*
X048043Y037803D01*
X048043Y037862D01*
X048101Y037920D01*
X048218Y037920D01*
X048276Y037862D01*
X048276Y037745D01*
X048218Y037687D01*
X047926Y037687D02*
X047926Y037920D01*
X047776Y037862D02*
X047718Y037920D01*
X047659Y037920D01*
X047601Y037862D01*
X047601Y037687D01*
X047718Y037687D01*
X047776Y037745D01*
X047776Y037862D01*
X047601Y037687D02*
X047484Y037803D01*
X047426Y037920D01*
X047426Y037552D02*
X047426Y037318D01*
X047926Y037125D02*
X047926Y036950D01*
X048276Y036950D01*
X048676Y036950D02*
X048676Y037125D01*
X048734Y037184D01*
X048851Y037184D01*
X048909Y037125D01*
X048909Y036950D01*
X048909Y037067D02*
X049026Y037184D01*
X048968Y037318D02*
X049026Y037377D01*
X049026Y037494D01*
X048968Y037552D01*
X048851Y037552D01*
X048793Y037494D01*
X048793Y037435D01*
X048851Y037318D01*
X048676Y037318D01*
X048676Y037552D01*
X048676Y037687D02*
X048676Y037920D01*
X048734Y037920D01*
X048968Y037687D01*
X049026Y037687D01*
X049426Y037552D02*
X049484Y037435D01*
X049601Y037318D01*
X049601Y037494D01*
X049659Y037552D01*
X049718Y037552D01*
X049776Y037494D01*
X049776Y037377D01*
X049718Y037318D01*
X049601Y037318D01*
X049484Y037184D02*
X049426Y037125D01*
X049426Y037008D01*
X049484Y036950D01*
X049718Y036950D01*
X049776Y037008D01*
X049776Y037125D01*
X049718Y037184D01*
X049718Y037687D02*
X049601Y037687D01*
X049601Y037862D01*
X049659Y037920D01*
X049718Y037920D01*
X049776Y037862D01*
X049776Y037745D01*
X049718Y037687D01*
X049601Y037687D02*
X049484Y037803D01*
X049426Y037920D01*
X049026Y036950D02*
X048676Y036950D01*
X050926Y037068D02*
X050926Y037244D01*
X050984Y037302D01*
X051218Y037302D01*
X051276Y037244D01*
X051276Y037068D01*
X050926Y037068D01*
X050926Y037437D02*
X051101Y037437D01*
X051043Y037553D01*
X051043Y037612D01*
X051101Y037670D01*
X051218Y037670D01*
X051276Y037612D01*
X051276Y037495D01*
X051218Y037437D01*
X051426Y037552D02*
X051426Y037318D01*
X051601Y037318D01*
X051543Y037435D01*
X051543Y037494D01*
X051601Y037552D01*
X051718Y037552D01*
X051776Y037494D01*
X051776Y037377D01*
X051718Y037318D01*
X051776Y037184D02*
X051659Y037067D01*
X051659Y037125D02*
X051659Y036950D01*
X051776Y036950D02*
X051426Y036950D01*
X051426Y037125D01*
X051484Y037184D01*
X051601Y037184D01*
X051659Y037125D01*
X051926Y037125D02*
X051926Y036950D01*
X052276Y036950D01*
X052159Y036950D02*
X052159Y037125D01*
X052101Y037184D01*
X051984Y037184D01*
X051926Y037125D01*
X051926Y037318D02*
X052101Y037318D01*
X052043Y037435D01*
X052043Y037494D01*
X052101Y037552D01*
X052218Y037552D01*
X052276Y037494D01*
X052276Y037377D01*
X052218Y037318D01*
X052276Y037184D02*
X052159Y037067D01*
X051926Y037318D02*
X051926Y037552D01*
X051984Y037687D02*
X052043Y037687D01*
X052101Y037745D01*
X052101Y037862D01*
X052159Y037920D01*
X052218Y037920D01*
X052276Y037862D01*
X052276Y037745D01*
X052218Y037687D01*
X052159Y037687D01*
X052101Y037745D01*
X052101Y037862D02*
X052043Y037920D01*
X051984Y037920D01*
X051926Y037862D01*
X051926Y037745D01*
X051984Y037687D01*
X051776Y037745D02*
X051776Y037862D01*
X051718Y037920D01*
X051484Y037920D01*
X051426Y037862D01*
X051426Y037745D01*
X051484Y037687D01*
X051543Y037687D01*
X051601Y037745D01*
X051601Y037920D01*
X051776Y037745D02*
X051718Y037687D01*
X050926Y037670D02*
X050926Y037437D01*
X051776Y036025D02*
X051834Y036025D01*
X052068Y035792D01*
X052126Y035792D01*
X052068Y035657D02*
X052009Y035657D01*
X051951Y035598D01*
X051951Y035423D01*
X052068Y035423D01*
X052126Y035482D01*
X052126Y035598D01*
X052068Y035657D01*
X052276Y035657D02*
X052334Y035657D01*
X052568Y035423D01*
X052626Y035423D01*
X052568Y035289D02*
X052626Y035230D01*
X052626Y035113D01*
X052568Y035055D01*
X052334Y035055D01*
X052276Y035113D01*
X052276Y035230D01*
X052334Y035289D01*
X052276Y035423D02*
X052276Y035657D01*
X052334Y035792D02*
X052276Y035850D01*
X052276Y035967D01*
X052334Y036025D01*
X052393Y036025D01*
X052626Y035792D01*
X052626Y036025D01*
X051776Y036025D02*
X051776Y035792D01*
X051776Y035657D02*
X051834Y035540D01*
X051951Y035423D01*
X051951Y035289D02*
X052009Y035230D01*
X052009Y035055D01*
X052009Y035172D02*
X052126Y035289D01*
X051951Y035289D02*
X051834Y035289D01*
X051776Y035230D01*
X051776Y035055D01*
X052126Y035055D01*
X052084Y034525D02*
X052318Y034292D01*
X052376Y034350D01*
X052376Y034467D01*
X052318Y034525D01*
X052084Y034525D01*
X052026Y034467D01*
X052026Y034350D01*
X052084Y034292D01*
X052318Y034292D01*
X052084Y034157D02*
X052318Y033923D01*
X052376Y033923D01*
X052318Y033789D02*
X052376Y033730D01*
X052376Y033613D01*
X052318Y033555D01*
X052084Y033555D01*
X052026Y033613D01*
X052026Y033730D01*
X052084Y033789D01*
X052026Y033923D02*
X052026Y034157D01*
X052084Y034157D01*
X050376Y033025D02*
X050376Y032792D01*
X050376Y032908D02*
X050026Y032908D01*
X050143Y032792D01*
X050084Y032657D02*
X050318Y032423D01*
X050376Y032423D01*
X050318Y032289D02*
X050376Y032230D01*
X050376Y032113D01*
X050318Y032055D01*
X050084Y032055D01*
X050026Y032113D01*
X050026Y032230D01*
X050084Y032289D01*
X050026Y032423D02*
X050026Y032657D01*
X050084Y032657D01*
X054690Y032255D02*
X054690Y031963D01*
X054748Y031905D01*
X054865Y031905D01*
X054923Y031963D01*
X054923Y032255D01*
X055058Y032255D02*
X055058Y032080D01*
X055175Y032139D01*
X055233Y032139D01*
X055291Y032080D01*
X055291Y031963D01*
X055233Y031905D01*
X055116Y031905D01*
X055058Y031963D01*
X055058Y032255D02*
X055291Y032255D01*
X055985Y033305D02*
X056101Y033305D01*
X056160Y033363D01*
X056294Y033363D02*
X056353Y033305D01*
X056470Y033305D01*
X056528Y033363D01*
X056528Y033422D01*
X056470Y033480D01*
X056294Y033480D01*
X056294Y033363D01*
X056294Y033480D02*
X056411Y033597D01*
X056528Y033655D01*
X056663Y033597D02*
X056663Y033539D01*
X056721Y033480D01*
X056838Y033480D01*
X056896Y033422D01*
X056896Y033363D01*
X056838Y033305D01*
X056721Y033305D01*
X056663Y033363D01*
X056663Y033422D01*
X056721Y033480D01*
X056838Y033480D02*
X056896Y033539D01*
X056896Y033597D01*
X056838Y033655D01*
X056721Y033655D01*
X056663Y033597D01*
X056160Y033597D02*
X056101Y033655D01*
X055985Y033655D01*
X055926Y033597D01*
X055926Y033363D01*
X055985Y033305D01*
X059526Y035613D02*
X059584Y035555D01*
X059818Y035555D01*
X059876Y035613D01*
X059876Y035730D01*
X059818Y035789D01*
X059818Y035923D02*
X059876Y035982D01*
X059876Y036098D01*
X059818Y036157D01*
X059701Y036157D01*
X059643Y036098D01*
X059643Y036040D01*
X059701Y035923D01*
X059526Y035923D01*
X059526Y036157D01*
X059584Y036292D02*
X059643Y036292D01*
X059701Y036350D01*
X059701Y036525D01*
X059584Y036525D02*
X059526Y036467D01*
X059526Y036350D01*
X059584Y036292D01*
X059584Y036525D02*
X059818Y036525D01*
X059876Y036467D01*
X059876Y036350D01*
X059818Y036292D01*
X059584Y035789D02*
X059526Y035730D01*
X059526Y035613D01*
X057146Y035863D02*
X057146Y036097D01*
X057088Y036155D01*
X056971Y036155D01*
X056913Y036097D01*
X056913Y036039D01*
X056971Y035980D01*
X057146Y035980D01*
X057146Y035863D02*
X057088Y035805D01*
X056971Y035805D01*
X056913Y035863D01*
X056778Y035863D02*
X056778Y035922D01*
X056720Y035980D01*
X056544Y035980D01*
X056544Y035863D01*
X056603Y035805D01*
X056720Y035805D01*
X056778Y035863D01*
X056661Y036097D02*
X056544Y035980D01*
X056661Y036097D02*
X056778Y036155D01*
X056410Y036097D02*
X056351Y036155D01*
X056235Y036155D01*
X056176Y036097D01*
X056176Y035863D01*
X056235Y035805D01*
X056351Y035805D01*
X056410Y035863D01*
X055291Y036463D02*
X055233Y036405D01*
X055116Y036405D01*
X055058Y036463D01*
X055291Y036697D01*
X055291Y036463D01*
X055058Y036463D02*
X055058Y036697D01*
X055116Y036755D01*
X055233Y036755D01*
X055291Y036697D01*
X055276Y037068D02*
X055276Y037244D01*
X055218Y037302D01*
X054984Y037302D01*
X054926Y037244D01*
X054926Y037068D01*
X055276Y037068D01*
X055218Y037437D02*
X055101Y037437D01*
X055101Y037612D01*
X055159Y037670D01*
X055218Y037670D01*
X055276Y037612D01*
X055276Y037495D01*
X055218Y037437D01*
X055101Y037437D02*
X054984Y037553D01*
X054926Y037670D01*
X055676Y037745D02*
X055734Y037687D01*
X055676Y037745D02*
X055676Y037862D01*
X055734Y037920D01*
X055793Y037920D01*
X056026Y037687D01*
X056026Y037920D01*
X055968Y037552D02*
X055909Y037552D01*
X055851Y037494D01*
X055851Y037318D01*
X055968Y037318D01*
X056026Y037377D01*
X056026Y037494D01*
X055968Y037552D01*
X055734Y037435D02*
X055851Y037318D01*
X055851Y037184D02*
X055909Y037125D01*
X055909Y036950D01*
X055909Y037067D02*
X056026Y037184D01*
X055851Y037184D02*
X055734Y037184D01*
X055676Y037125D01*
X055676Y036950D01*
X056026Y036950D01*
X056426Y036950D02*
X056426Y037125D01*
X056484Y037184D01*
X056601Y037184D01*
X056659Y037125D01*
X056659Y036950D01*
X056659Y037067D02*
X056776Y037184D01*
X056718Y037318D02*
X056776Y037377D01*
X056776Y037494D01*
X056718Y037552D01*
X056659Y037552D01*
X056601Y037494D01*
X056601Y037318D01*
X056718Y037318D01*
X056601Y037318D02*
X056484Y037435D01*
X056426Y037552D01*
X056543Y037687D02*
X056426Y037803D01*
X056776Y037803D01*
X056776Y037687D02*
X056776Y037920D01*
X056776Y036950D02*
X056426Y036950D01*
X055734Y037435D02*
X055676Y037552D01*
X054806Y036755D02*
X054806Y036405D01*
X054690Y036405D02*
X054923Y036405D01*
X054690Y036639D02*
X054806Y036755D01*
X054555Y036755D02*
X054555Y036463D01*
X054496Y036405D01*
X054380Y036405D01*
X054321Y036463D01*
X054321Y036755D01*
X053776Y037008D02*
X053776Y037125D01*
X053718Y037184D01*
X053718Y037318D02*
X053776Y037377D01*
X053776Y037494D01*
X053718Y037552D01*
X053659Y037552D01*
X053601Y037494D01*
X053601Y037318D01*
X053718Y037318D01*
X053601Y037318D02*
X053484Y037435D01*
X053426Y037552D01*
X053426Y037687D02*
X053426Y037920D01*
X053484Y037920D01*
X053718Y037687D01*
X053776Y037687D01*
X053484Y037184D02*
X053426Y037125D01*
X053426Y037008D01*
X053484Y036950D01*
X053718Y036950D01*
X053776Y037008D01*
X053026Y036950D02*
X052676Y036950D01*
X052676Y037125D01*
X052734Y037184D01*
X052851Y037184D01*
X052909Y037125D01*
X052909Y036950D01*
X052909Y037067D02*
X053026Y037184D01*
X052968Y037318D02*
X053026Y037377D01*
X053026Y037494D01*
X052968Y037552D01*
X052909Y037552D01*
X052851Y037494D01*
X052851Y037318D01*
X052968Y037318D01*
X052851Y037318D02*
X052734Y037435D01*
X052676Y037552D01*
X052734Y037687D02*
X052676Y037745D01*
X052676Y037862D01*
X052734Y037920D01*
X052968Y037687D01*
X053026Y037745D01*
X053026Y037862D01*
X052968Y037920D01*
X052734Y037920D01*
X052734Y037687D02*
X052968Y037687D01*
X060453Y040155D02*
X060686Y040155D01*
X060821Y040155D02*
X060821Y040505D01*
X061055Y040505D01*
X061190Y040505D02*
X061365Y040505D01*
X061423Y040447D01*
X061423Y040213D01*
X061365Y040155D01*
X061190Y040155D01*
X061190Y040505D01*
X060938Y040330D02*
X060821Y040330D01*
X060821Y040155D02*
X061055Y040155D01*
X061558Y040155D02*
X061791Y040155D01*
X061675Y040155D02*
X061675Y040505D01*
X061558Y040389D01*
X060453Y040505D02*
X060453Y040155D01*
X062676Y041805D02*
X062676Y042155D01*
X062851Y042155D01*
X062910Y042097D01*
X062910Y041980D01*
X062851Y041922D01*
X062676Y041922D01*
X062793Y041922D02*
X062910Y041805D01*
X063044Y041805D02*
X063278Y042039D01*
X063278Y042097D01*
X063220Y042155D01*
X063103Y042155D01*
X063044Y042097D01*
X063044Y041805D02*
X063278Y041805D01*
X063413Y041805D02*
X063646Y041805D01*
X063530Y041805D02*
X063530Y042155D01*
X063413Y042039D01*
X061146Y043613D02*
X061088Y043555D01*
X060971Y043555D01*
X060913Y043613D01*
X060913Y043672D01*
X060971Y043730D01*
X061088Y043730D01*
X061146Y043672D01*
X061146Y043613D01*
X061088Y043730D02*
X061146Y043789D01*
X061146Y043847D01*
X061088Y043905D01*
X060971Y043905D01*
X060913Y043847D01*
X060913Y043789D01*
X060971Y043730D01*
X060778Y043672D02*
X060720Y043730D01*
X060544Y043730D01*
X060544Y043613D01*
X060603Y043555D01*
X060720Y043555D01*
X060778Y043613D01*
X060778Y043672D01*
X060661Y043847D02*
X060544Y043730D01*
X060410Y043730D02*
X060351Y043672D01*
X060176Y043672D01*
X060293Y043672D02*
X060410Y043555D01*
X060410Y043730D02*
X060410Y043847D01*
X060351Y043905D01*
X060176Y043905D01*
X060176Y043555D01*
X060661Y043847D02*
X060778Y043905D01*
X060720Y044305D02*
X060603Y044305D01*
X060544Y044363D01*
X060544Y044480D01*
X060720Y044480D01*
X060778Y044422D01*
X060778Y044363D01*
X060720Y044305D01*
X060913Y044363D02*
X060971Y044305D01*
X061088Y044305D01*
X061146Y044363D01*
X061146Y044597D01*
X061088Y044655D01*
X060971Y044655D01*
X060913Y044597D01*
X060913Y044539D01*
X060971Y044480D01*
X061146Y044480D01*
X060778Y044655D02*
X060661Y044597D01*
X060544Y044480D01*
X060410Y044480D02*
X060351Y044422D01*
X060176Y044422D01*
X060293Y044422D02*
X060410Y044305D01*
X060410Y044480D02*
X060410Y044597D01*
X060351Y044655D01*
X060176Y044655D01*
X060176Y044305D01*
X056526Y044318D02*
X056526Y044552D01*
X056526Y044435D02*
X056176Y044435D01*
X056293Y044318D01*
X056176Y044184D02*
X056176Y044067D01*
X056176Y044125D02*
X056468Y044125D01*
X056526Y044067D01*
X056526Y044008D01*
X056468Y043950D01*
X056468Y044687D02*
X056526Y044745D01*
X056526Y044862D01*
X056468Y044920D01*
X056234Y044920D01*
X056176Y044862D01*
X056176Y044745D01*
X056234Y044687D01*
X056293Y044687D01*
X056351Y044745D01*
X056351Y044920D01*
X052526Y044862D02*
X052526Y044745D01*
X052468Y044687D01*
X052409Y044687D01*
X052351Y044745D01*
X052351Y044862D01*
X052409Y044920D01*
X052468Y044920D01*
X052526Y044862D01*
X052351Y044862D02*
X052293Y044920D01*
X052234Y044920D01*
X052176Y044862D01*
X052176Y044745D01*
X052234Y044687D01*
X052293Y044687D01*
X052351Y044745D01*
X052526Y044552D02*
X052526Y044318D01*
X052526Y044435D02*
X052176Y044435D01*
X052293Y044318D01*
X052176Y044184D02*
X052176Y044067D01*
X052176Y044125D02*
X052468Y044125D01*
X052526Y044067D01*
X052526Y044008D01*
X052468Y043950D01*
X048526Y044008D02*
X048526Y044067D01*
X048468Y044125D01*
X048176Y044125D01*
X048176Y044067D02*
X048176Y044184D01*
X048293Y044318D02*
X048176Y044435D01*
X048526Y044435D01*
X048526Y044318D02*
X048526Y044552D01*
X048526Y044687D02*
X048468Y044687D01*
X048234Y044920D01*
X048176Y044920D01*
X048176Y044687D01*
X048526Y044008D02*
X048468Y043950D01*
X044526Y044008D02*
X044526Y044067D01*
X044468Y044125D01*
X044176Y044125D01*
X044176Y044067D02*
X044176Y044184D01*
X044293Y044318D02*
X044176Y044435D01*
X044526Y044435D01*
X044526Y044318D02*
X044526Y044552D01*
X044468Y044687D02*
X044526Y044745D01*
X044526Y044862D01*
X044468Y044920D01*
X044409Y044920D01*
X044351Y044862D01*
X044351Y044687D01*
X044468Y044687D01*
X044351Y044687D02*
X044234Y044803D01*
X044176Y044920D01*
X044526Y044008D02*
X044468Y043950D01*
X038278Y045113D02*
X038220Y045055D01*
X038103Y045055D01*
X038044Y045113D01*
X038044Y045230D02*
X038161Y045289D01*
X038220Y045289D01*
X038278Y045230D01*
X038278Y045113D01*
X038044Y045230D02*
X038044Y045405D01*
X038278Y045405D01*
X037910Y045405D02*
X037793Y045405D01*
X037851Y045405D02*
X037851Y045113D01*
X037793Y045055D01*
X037735Y045055D01*
X037676Y045113D01*
X065426Y039155D02*
X065426Y038805D01*
X065426Y038922D02*
X065660Y039155D01*
X065794Y039155D02*
X065911Y039039D01*
X066028Y039155D01*
X066028Y038805D01*
X065794Y038805D02*
X065794Y039155D01*
X065485Y038980D02*
X065660Y038805D01*
X065601Y019655D02*
X065426Y019655D01*
X065426Y019305D01*
X065426Y019422D02*
X065601Y019422D01*
X065660Y019480D01*
X065660Y019597D01*
X065601Y019655D01*
X065794Y019597D02*
X065853Y019655D01*
X065970Y019655D01*
X066028Y019597D01*
X066028Y019539D01*
X065794Y019305D01*
X066028Y019305D01*
D15*
X054391Y038249D03*
X054391Y039311D03*
X050391Y039311D03*
X050391Y038249D03*
X046391Y038249D03*
X046391Y039311D03*
X042391Y039311D03*
X042391Y038249D03*
D16*
X042401Y038937D03*
X046401Y038937D03*
X050401Y038937D03*
X054401Y038937D03*
D17*
X054921Y034489D02*
X053382Y034489D01*
X053382Y032571D01*
X054921Y032571D01*
X054921Y034489D01*
X055832Y046642D02*
X053470Y046642D01*
X051832Y046642D02*
X049470Y046642D01*
X047832Y046642D02*
X045470Y046642D01*
X043832Y046642D02*
X041470Y046642D01*
D18*
X053087Y034426D03*
X053087Y034170D03*
X053087Y033914D03*
X053087Y033658D03*
X053087Y033402D03*
X053087Y033146D03*
X053087Y032890D03*
X053087Y032634D03*
X055215Y032634D03*
X055215Y032890D03*
X055215Y033146D03*
X055215Y033402D03*
X055215Y033658D03*
X055215Y033914D03*
X055215Y034170D03*
X055215Y034426D03*
D19*
X054556Y032744D03*
D20*
X056151Y034030D03*
X056651Y034030D03*
X062901Y041280D03*
X063401Y041280D03*
X059151Y043780D03*
X058651Y043780D03*
X058651Y044530D03*
X059151Y044530D03*
X050651Y016280D03*
X050151Y016280D03*
X050151Y015530D03*
X050651Y015530D03*
X050651Y014780D03*
X050151Y014780D03*
X050151Y014030D03*
X050651Y014030D03*
X050651Y013280D03*
X050151Y013280D03*
X038151Y013280D03*
X037651Y013280D03*
X037651Y014030D03*
X038151Y014030D03*
X038151Y014780D03*
X037651Y014780D03*
X037651Y015530D03*
X038151Y015530D03*
X038151Y016280D03*
X037651Y016280D03*
X043901Y005030D03*
X044401Y005030D03*
X044401Y004280D03*
X043901Y004280D03*
X043901Y003530D03*
X044401Y003530D03*
X044401Y002780D03*
X043901Y002780D03*
X043901Y002030D03*
X044401Y002030D03*
X056401Y002030D03*
X056901Y002030D03*
X056901Y002780D03*
X056401Y002780D03*
X056401Y003530D03*
X056901Y003530D03*
X056901Y004280D03*
X056401Y004280D03*
X056401Y005030D03*
X056901Y005030D03*
D21*
X056626Y035030D03*
X056350Y035030D03*
X057452Y035030D03*
D22*
X055955Y035030D03*
D23*
X051151Y033331D03*
X051151Y033056D03*
X051151Y032229D03*
D24*
X051151Y033727D03*
D25*
X026651Y024530D02*
X026651Y024030D01*
X026401Y023780D01*
X025901Y023780D01*
X025651Y024030D01*
X025401Y023780D01*
X024901Y023780D01*
X024651Y024030D01*
X024651Y024530D01*
X024901Y024780D01*
X025401Y024780D01*
X025651Y024530D01*
X025901Y024780D01*
X026401Y024780D01*
X026651Y024530D01*
X025651Y024530D02*
X025651Y024030D01*
X024651Y024030D02*
X024401Y023780D01*
X023901Y023780D01*
X023651Y024030D01*
X023401Y023780D01*
X022901Y023780D01*
X022651Y024030D01*
X022401Y023780D01*
X021901Y023780D01*
X021651Y024030D01*
X021651Y024530D01*
X021901Y024780D01*
X022401Y024780D01*
X022651Y024530D01*
X022901Y024780D01*
X023401Y024780D01*
X023651Y024530D01*
X023901Y024780D01*
X024401Y024780D01*
X024651Y024530D01*
X023651Y024530D02*
X023651Y024030D01*
X022651Y024030D02*
X022651Y024530D01*
X021651Y024530D02*
X021401Y024780D01*
X020901Y024780D01*
X020651Y024530D01*
X020401Y024780D01*
X019901Y024780D01*
X019651Y024530D01*
X019401Y024780D01*
X018901Y024780D01*
X018651Y024530D01*
X018651Y024030D01*
X018901Y023780D01*
X019401Y023780D01*
X019651Y024030D01*
X019651Y024530D01*
X019651Y024030D02*
X019901Y023780D01*
X020401Y023780D01*
X020651Y024030D01*
X020651Y024530D01*
X020651Y024030D02*
X020901Y023780D01*
X021401Y023780D01*
X021651Y024030D01*
X018651Y024030D02*
X018401Y023780D01*
X017901Y023780D01*
X017651Y024030D01*
X017401Y023780D01*
X016901Y023780D01*
X016651Y024030D01*
X016401Y023780D01*
X015901Y023780D01*
X015651Y024030D01*
X015651Y024530D01*
X015901Y024780D01*
X016401Y024780D01*
X016651Y024530D01*
X016901Y024780D01*
X017401Y024780D01*
X017651Y024530D01*
X017901Y024780D01*
X018401Y024780D01*
X018651Y024530D01*
X017651Y024530D02*
X017651Y024030D01*
X016651Y024030D02*
X016651Y024530D01*
X015651Y024530D02*
X015401Y024780D01*
X014901Y024780D01*
X014651Y024530D01*
X014401Y024780D01*
X013901Y024780D01*
X013651Y024530D01*
X013401Y024780D01*
X012901Y024780D01*
X012651Y024530D01*
X012651Y024030D01*
X012901Y023780D01*
X013401Y023780D01*
X013651Y024030D01*
X013651Y024530D01*
X013651Y024030D02*
X013901Y023780D01*
X014401Y023780D01*
X014651Y024030D01*
X014651Y024530D01*
X014651Y024030D02*
X014901Y023780D01*
X015401Y023780D01*
X015651Y024030D01*
X012651Y024030D02*
X012401Y023780D01*
X011901Y023780D01*
X011651Y024030D01*
X011401Y023780D01*
X010901Y023780D01*
X010651Y024030D01*
X010401Y023780D01*
X009901Y023780D01*
X009651Y024030D01*
X009651Y024530D01*
X009901Y024780D01*
X010401Y024780D01*
X010651Y024530D01*
X010901Y024780D01*
X011401Y024780D01*
X011651Y024530D01*
X011901Y024780D01*
X012401Y024780D01*
X012651Y024530D01*
X011651Y024530D02*
X011651Y024030D01*
X010651Y024030D02*
X010651Y024530D01*
X009651Y024530D02*
X009401Y024780D01*
X008901Y024780D01*
X008651Y024530D01*
X008401Y024780D01*
X007901Y024780D01*
X007651Y024530D01*
X007401Y024780D01*
X006901Y024780D01*
X006651Y024530D01*
X006651Y024030D01*
X006901Y023780D01*
X007401Y023780D01*
X007651Y024030D01*
X007651Y024530D01*
X007651Y024030D02*
X007901Y023780D01*
X008401Y023780D01*
X008651Y024030D01*
X008651Y024530D01*
X008651Y024030D02*
X008901Y023780D01*
X009401Y023780D01*
X009651Y024030D01*
D26*
X009151Y024280D03*
X010151Y024280D03*
X011151Y024280D03*
X012151Y024280D03*
X013151Y024280D03*
X014151Y024280D03*
X015151Y024280D03*
X016151Y024280D03*
X017151Y024280D03*
X018151Y024280D03*
X019151Y024280D03*
X020151Y024280D03*
X021151Y024280D03*
X022151Y024280D03*
X023151Y024280D03*
X024151Y024280D03*
X025151Y024280D03*
X026151Y024280D03*
X008151Y024280D03*
X007151Y024280D03*
X038151Y037280D03*
X039151Y037280D03*
X039151Y038280D03*
X038151Y038280D03*
X038151Y039280D03*
X039151Y039280D03*
X039151Y040280D03*
X038151Y040280D03*
X038151Y041280D03*
X039151Y041280D03*
X039151Y042280D03*
X038151Y042280D03*
X038151Y043280D03*
X039151Y043280D03*
X039151Y044280D03*
X038151Y044280D03*
X065901Y018530D03*
X066901Y018530D03*
X066901Y017530D03*
X065901Y017530D03*
X065901Y016530D03*
X066901Y016530D03*
X066901Y015530D03*
X065901Y015530D03*
X065901Y014530D03*
X066901Y014530D03*
X066901Y013530D03*
X065901Y013530D03*
X065901Y012530D03*
X066901Y012530D03*
X066901Y011530D03*
X065901Y011530D03*
X065901Y010530D03*
X066901Y010530D03*
X066901Y009530D03*
X065901Y009530D03*
X065901Y008530D03*
X066901Y008530D03*
X066901Y007530D03*
X065901Y007530D03*
X065901Y006530D03*
X066901Y006530D03*
X066901Y005530D03*
X065901Y005530D03*
D27*
X029870Y005749D02*
X029870Y001811D01*
X025933Y001811D01*
X025933Y005749D01*
X029870Y005749D01*
X022370Y005749D02*
X022370Y001811D01*
X018433Y001811D01*
X018433Y005749D01*
X022370Y005749D01*
X014870Y005749D02*
X014870Y001811D01*
X010933Y001811D01*
X010933Y005749D01*
X014870Y005749D01*
X007370Y005749D02*
X007370Y001811D01*
X003433Y001811D01*
X003433Y005749D01*
X007370Y005749D01*
X061183Y035311D02*
X061183Y039249D01*
X065120Y039249D01*
X065120Y035311D01*
X061183Y035311D01*
D28*
X063776Y040516D03*
D29*
X063697Y040570D03*
D30*
X063678Y040433D03*
D31*
X063658Y040452D03*
D32*
X063732Y040044D03*
D33*
X063658Y040063D03*
D34*
X063584Y040280D03*
D35*
X062639Y040280D03*
D36*
X063373Y040551D03*
X063373Y040009D03*
D37*
X063220Y040280D03*
D38*
X039651Y036780D02*
X037651Y036780D01*
X037651Y043780D01*
X038651Y043780D01*
X038651Y044780D01*
X039651Y044780D01*
X039651Y036780D01*
X037651Y043780D02*
X037651Y044780D01*
X038651Y044780D01*
X065401Y019030D02*
X065401Y018030D01*
X066401Y018030D01*
X066401Y019030D01*
X067401Y019030D01*
X067401Y005030D01*
X065401Y005030D01*
X065401Y018030D01*
X065401Y019030D02*
X066401Y019030D01*
D39*
X054901Y035135D03*
X054531Y035925D03*
X055271Y035925D03*
M02*
