G75*
G70*
%OFA0B0*%
%FSLAX24Y24*%
%IPPOS*%
%LPD*%
%AMOC8*
5,1,8,0,0,1.08239X$1,22.5*
%
%ADD10R,0.0710X0.0867*%
%ADD11C,0.0178*%
%ADD12R,0.0680X0.0680*%
%ADD13OC8,0.0680*%
%ADD14R,0.0395X0.0434*%
%ADD15R,0.2180X0.0840*%
%ADD16R,0.0434X0.0395*%
%ADD17C,0.0474*%
%ADD18R,0.0316X0.0946*%
%ADD19R,0.0828X0.0631*%
%ADD20OC8,0.0623*%
%ADD21OC8,0.1025*%
%ADD22C,0.0641*%
%ADD23C,0.1386*%
%ADD24R,0.0440X0.0930*%
%ADD25R,0.4332X0.4178*%
%ADD26R,0.1080X0.1080*%
%ADD27OC8,0.1080*%
%ADD28R,0.2245X0.1852*%
%ADD29R,0.0560X0.0960*%
%ADD30R,0.1497X0.0946*%
%ADD31R,0.0631X0.0789*%
%ADD32OC8,0.0671*%
%ADD33R,0.0552X0.1655*%
%ADD34R,0.0356X0.1655*%
%ADD35R,0.0552X0.1580*%
%ADD36R,0.0867X0.1182*%
%ADD37C,0.0513*%
%ADD38C,0.0710*%
%ADD39C,0.0671*%
%ADD40C,0.0867*%
%ADD41R,0.0552X0.0552*%
%ADD42C,0.0966*%
%ADD43C,0.1261*%
%ADD44R,0.0960X0.0560*%
%ADD45R,0.0946X0.1497*%
%ADD46R,0.0789X0.0631*%
%ADD47R,0.1261X0.0710*%
%ADD48R,0.0474X0.0631*%
%ADD49C,0.0080*%
%ADD50C,0.0134*%
%ADD51R,0.0631X0.0828*%
%ADD52R,0.0237X0.0710*%
%ADD53R,0.0620X0.0620*%
%ADD54OC8,0.0620*%
%ADD55R,0.0198X0.0710*%
%ADD56R,0.0710X0.0198*%
%ADD57R,0.0671X0.0198*%
%ADD58R,0.0434X0.0316*%
%ADD59OC8,0.0966*%
%ADD60R,0.0946X0.0316*%
%ADD61R,0.0631X0.0474*%
%ADD62OC8,0.0780*%
%ADD63R,0.0780X0.0780*%
%ADD64R,0.0671X0.0277*%
%ADD65R,0.0277X0.0671*%
%ADD66R,0.0552X0.0297*%
%ADD67R,0.0631X0.0631*%
%ADD68R,0.0780X0.2480*%
%ADD69C,0.2080*%
%ADD70C,0.0350*%
%ADD71C,0.0436*%
%ADD72C,0.0493*%
D10*
X044100Y004055D03*
X044100Y006181D03*
D11*
X041332Y015333D02*
X041332Y015825D01*
X041135Y015825D02*
X041135Y015333D01*
X040939Y015333D02*
X040939Y015825D01*
X040742Y015825D02*
X040742Y015333D01*
X040545Y015333D02*
X040545Y015825D01*
X040348Y015825D02*
X040348Y015333D01*
X040151Y015333D02*
X040151Y015825D01*
X039954Y015825D02*
X039954Y015333D01*
X039757Y015333D02*
X039757Y015825D01*
X039561Y015825D02*
X039561Y015333D01*
X039364Y015333D02*
X039364Y015825D01*
X039167Y015825D02*
X039167Y015333D01*
X038970Y015333D02*
X038970Y015825D01*
X038773Y015825D02*
X038773Y015333D01*
X038576Y015333D02*
X038576Y015825D01*
X038380Y015825D02*
X038380Y015333D01*
X038183Y015333D02*
X038183Y015825D01*
X037986Y015825D02*
X037986Y015333D01*
X037789Y015333D02*
X037789Y015825D01*
X037592Y015825D02*
X037592Y015333D01*
X037395Y015333D02*
X037395Y015825D01*
X037198Y015825D02*
X037198Y015333D01*
X037002Y015333D02*
X037002Y015825D01*
X036805Y015825D02*
X036805Y015333D01*
X036608Y015333D02*
X036608Y015825D01*
X036411Y015825D02*
X036411Y015333D01*
X036214Y015333D02*
X036214Y015825D01*
X036017Y015825D02*
X036017Y015333D01*
X035820Y015333D02*
X035820Y015825D01*
X035624Y015825D02*
X035624Y015333D01*
X035427Y015333D02*
X035427Y015825D01*
X035230Y015825D02*
X035230Y015333D01*
X035033Y015333D02*
X035033Y015825D01*
X034836Y015825D02*
X034836Y015333D01*
X034639Y015333D02*
X034639Y015825D01*
X034443Y015825D02*
X034443Y015333D01*
X034246Y015333D02*
X034246Y015825D01*
X034049Y015825D02*
X034049Y015333D01*
X033852Y015333D02*
X033852Y015825D01*
X033655Y015825D02*
X033655Y015333D01*
X033458Y015333D02*
X033458Y015825D01*
X033261Y015825D02*
X033261Y015333D01*
X033065Y015333D02*
X033065Y015825D01*
X032868Y015825D02*
X032868Y015333D01*
X032307Y016386D02*
X031815Y016386D01*
X031815Y016583D02*
X032307Y016583D01*
X032307Y016780D02*
X031815Y016780D01*
X031815Y016977D02*
X032307Y016977D01*
X032307Y017173D02*
X031815Y017173D01*
X031815Y017370D02*
X032307Y017370D01*
X032307Y017567D02*
X031815Y017567D01*
X031815Y017764D02*
X032307Y017764D01*
X032307Y017961D02*
X031815Y017961D01*
X031815Y018158D02*
X032307Y018158D01*
X032307Y018355D02*
X031815Y018355D01*
X031815Y018551D02*
X032307Y018551D01*
X032307Y018748D02*
X031815Y018748D01*
X031815Y018945D02*
X032307Y018945D01*
X032307Y019142D02*
X031815Y019142D01*
X031815Y019339D02*
X032307Y019339D01*
X032307Y019536D02*
X031815Y019536D01*
X031815Y019733D02*
X032307Y019733D01*
X032307Y019929D02*
X031815Y019929D01*
X031815Y020126D02*
X032307Y020126D01*
X032307Y020323D02*
X031815Y020323D01*
X031815Y020520D02*
X032307Y020520D01*
X032307Y020717D02*
X031815Y020717D01*
X031815Y020914D02*
X032307Y020914D01*
X032307Y021110D02*
X031815Y021110D01*
X031815Y021307D02*
X032307Y021307D01*
X032307Y021504D02*
X031815Y021504D01*
X031815Y021701D02*
X032307Y021701D01*
X032307Y021898D02*
X031815Y021898D01*
X031815Y022095D02*
X032307Y022095D01*
X032307Y022292D02*
X031815Y022292D01*
X031815Y022488D02*
X032307Y022488D01*
X032307Y022685D02*
X031815Y022685D01*
X031815Y022882D02*
X032307Y022882D01*
X032307Y023079D02*
X031815Y023079D01*
X031815Y023276D02*
X032307Y023276D01*
X032307Y023473D02*
X031815Y023473D01*
X031815Y023670D02*
X032307Y023670D01*
X032307Y023866D02*
X031815Y023866D01*
X031815Y024063D02*
X032307Y024063D01*
X032307Y024260D02*
X031815Y024260D01*
X031815Y024457D02*
X032307Y024457D01*
X032307Y024654D02*
X031815Y024654D01*
X031815Y024851D02*
X032307Y024851D01*
X032868Y025412D02*
X032868Y025904D01*
X033065Y025904D02*
X033065Y025412D01*
X033261Y025412D02*
X033261Y025904D01*
X033458Y025904D02*
X033458Y025412D01*
X033655Y025412D02*
X033655Y025904D01*
X033852Y025904D02*
X033852Y025412D01*
X034049Y025412D02*
X034049Y025904D01*
X034246Y025904D02*
X034246Y025412D01*
X034443Y025412D02*
X034443Y025904D01*
X034639Y025904D02*
X034639Y025412D01*
X034836Y025412D02*
X034836Y025904D01*
X035033Y025904D02*
X035033Y025412D01*
X035230Y025412D02*
X035230Y025904D01*
X035427Y025904D02*
X035427Y025412D01*
X035624Y025412D02*
X035624Y025904D01*
X035820Y025904D02*
X035820Y025412D01*
X036017Y025412D02*
X036017Y025904D01*
X036214Y025904D02*
X036214Y025412D01*
X036411Y025412D02*
X036411Y025904D01*
X036608Y025904D02*
X036608Y025412D01*
X036805Y025412D02*
X036805Y025904D01*
X037002Y025904D02*
X037002Y025412D01*
X037198Y025412D02*
X037198Y025904D01*
X037395Y025904D02*
X037395Y025412D01*
X037592Y025412D02*
X037592Y025904D01*
X037789Y025904D02*
X037789Y025412D01*
X037986Y025412D02*
X037986Y025904D01*
X038183Y025904D02*
X038183Y025412D01*
X038380Y025412D02*
X038380Y025904D01*
X038576Y025904D02*
X038576Y025412D01*
X038773Y025412D02*
X038773Y025904D01*
X038970Y025904D02*
X038970Y025412D01*
X039167Y025412D02*
X039167Y025904D01*
X039364Y025904D02*
X039364Y025412D01*
X039561Y025412D02*
X039561Y025904D01*
X039757Y025904D02*
X039757Y025412D01*
X039954Y025412D02*
X039954Y025904D01*
X040151Y025904D02*
X040151Y025412D01*
X040348Y025412D02*
X040348Y025904D01*
X040545Y025904D02*
X040545Y025412D01*
X040742Y025412D02*
X040742Y025904D01*
X040939Y025904D02*
X040939Y025412D01*
X041135Y025412D02*
X041135Y025904D01*
X041332Y025904D02*
X041332Y025412D01*
X041893Y024851D02*
X042385Y024851D01*
X042385Y024654D02*
X041893Y024654D01*
X041893Y024457D02*
X042385Y024457D01*
X042385Y024260D02*
X041893Y024260D01*
X041893Y024063D02*
X042385Y024063D01*
X042385Y023866D02*
X041893Y023866D01*
X041893Y023670D02*
X042385Y023670D01*
X042385Y023473D02*
X041893Y023473D01*
X041893Y023276D02*
X042385Y023276D01*
X042385Y023079D02*
X041893Y023079D01*
X041893Y022882D02*
X042385Y022882D01*
X042385Y022685D02*
X041893Y022685D01*
X041893Y022488D02*
X042385Y022488D01*
X042385Y022292D02*
X041893Y022292D01*
X041893Y022095D02*
X042385Y022095D01*
X042385Y021898D02*
X041893Y021898D01*
X041893Y021701D02*
X042385Y021701D01*
X042385Y021504D02*
X041893Y021504D01*
X041893Y021307D02*
X042385Y021307D01*
X042385Y021110D02*
X041893Y021110D01*
X041893Y020914D02*
X042385Y020914D01*
X042385Y020717D02*
X041893Y020717D01*
X041893Y020520D02*
X042385Y020520D01*
X042385Y020323D02*
X041893Y020323D01*
X041893Y020126D02*
X042385Y020126D01*
X042385Y019929D02*
X041893Y019929D01*
X041893Y019733D02*
X042385Y019733D01*
X042385Y019536D02*
X041893Y019536D01*
X041893Y019339D02*
X042385Y019339D01*
X042385Y019142D02*
X041893Y019142D01*
X041893Y018945D02*
X042385Y018945D01*
X042385Y018748D02*
X041893Y018748D01*
X041893Y018551D02*
X042385Y018551D01*
X042385Y018355D02*
X041893Y018355D01*
X041893Y018158D02*
X042385Y018158D01*
X042385Y017961D02*
X041893Y017961D01*
X041893Y017764D02*
X042385Y017764D01*
X042385Y017567D02*
X041893Y017567D01*
X041893Y017370D02*
X042385Y017370D01*
X042385Y017173D02*
X041893Y017173D01*
X041893Y016977D02*
X042385Y016977D01*
X042385Y016780D02*
X041893Y016780D01*
X041893Y016583D02*
X042385Y016583D01*
X042385Y016386D02*
X041893Y016386D01*
X049181Y021173D02*
X049673Y021173D01*
X049673Y021370D02*
X049181Y021370D01*
X049181Y021567D02*
X049673Y021567D01*
X049673Y021764D02*
X049181Y021764D01*
X049181Y021961D02*
X049673Y021961D01*
X049673Y022158D02*
X049181Y022158D01*
X049181Y022355D02*
X049673Y022355D01*
X049673Y022551D02*
X049181Y022551D01*
X049181Y022748D02*
X049673Y022748D01*
X049673Y022945D02*
X049181Y022945D01*
X049181Y023142D02*
X049673Y023142D01*
X049673Y023339D02*
X049181Y023339D01*
X049181Y023536D02*
X049673Y023536D01*
X049673Y023733D02*
X049181Y023733D01*
X049181Y023929D02*
X049673Y023929D01*
X049673Y024126D02*
X049181Y024126D01*
X049181Y024323D02*
X049673Y024323D01*
X049673Y024520D02*
X049181Y024520D01*
X049181Y024717D02*
X049673Y024717D01*
X049673Y024914D02*
X049181Y024914D01*
X049181Y025110D02*
X049673Y025110D01*
X049673Y025307D02*
X049181Y025307D01*
X049181Y025504D02*
X049673Y025504D01*
X049673Y025701D02*
X049181Y025701D01*
X049181Y025898D02*
X049673Y025898D01*
X049673Y026095D02*
X049181Y026095D01*
X049181Y026292D02*
X049673Y026292D01*
X049673Y026488D02*
X049181Y026488D01*
X049181Y026685D02*
X049673Y026685D01*
X049673Y026882D02*
X049181Y026882D01*
X049181Y027079D02*
X049673Y027079D01*
X049673Y027276D02*
X049181Y027276D01*
X049181Y027473D02*
X049673Y027473D01*
X049673Y027670D02*
X049181Y027670D01*
X049181Y027866D02*
X049673Y027866D01*
X049673Y028063D02*
X049181Y028063D01*
X050155Y028546D02*
X050155Y029038D01*
X050352Y029038D02*
X050352Y028546D01*
X050549Y028546D02*
X050549Y029038D01*
X050746Y029038D02*
X050746Y028546D01*
X050943Y028546D02*
X050943Y029038D01*
X051139Y029038D02*
X051139Y028546D01*
X051336Y028546D02*
X051336Y029038D01*
X051533Y029038D02*
X051533Y028546D01*
X051730Y028546D02*
X051730Y029038D01*
X051927Y029038D02*
X051927Y028546D01*
X052124Y028546D02*
X052124Y029038D01*
X052320Y029038D02*
X052320Y028546D01*
X052517Y028546D02*
X052517Y029038D01*
X052714Y029038D02*
X052714Y028546D01*
X052911Y028546D02*
X052911Y029038D01*
X053108Y029038D02*
X053108Y028546D01*
X053305Y028546D02*
X053305Y029038D01*
X053502Y029038D02*
X053502Y028546D01*
X053698Y028546D02*
X053698Y029038D01*
X053895Y029038D02*
X053895Y028546D01*
X054092Y028546D02*
X054092Y029038D01*
X054289Y029038D02*
X054289Y028546D01*
X054486Y028546D02*
X054486Y029038D01*
X054683Y029038D02*
X054683Y028546D01*
X054880Y028546D02*
X054880Y029038D01*
X055076Y029038D02*
X055076Y028546D01*
X055273Y028546D02*
X055273Y029038D01*
X055470Y029038D02*
X055470Y028546D01*
X055667Y028546D02*
X055667Y029038D01*
X055864Y029038D02*
X055864Y028546D01*
X056061Y028546D02*
X056061Y029038D01*
X056257Y029038D02*
X056257Y028546D01*
X056454Y028546D02*
X056454Y029038D01*
X056651Y029038D02*
X056651Y028546D01*
X056848Y028546D02*
X056848Y029038D01*
X057045Y029038D02*
X057045Y028546D01*
X057527Y028063D02*
X058019Y028063D01*
X058019Y027866D02*
X057527Y027866D01*
X057527Y027670D02*
X058019Y027670D01*
X058019Y027473D02*
X057527Y027473D01*
X057527Y027276D02*
X058019Y027276D01*
X058019Y027079D02*
X057527Y027079D01*
X057527Y026882D02*
X058019Y026882D01*
X058019Y026685D02*
X057527Y026685D01*
X057527Y026488D02*
X058019Y026488D01*
X058019Y026292D02*
X057527Y026292D01*
X057527Y026095D02*
X058019Y026095D01*
X058019Y025898D02*
X057527Y025898D01*
X057527Y025701D02*
X058019Y025701D01*
X058019Y025504D02*
X057527Y025504D01*
X057527Y025307D02*
X058019Y025307D01*
X058019Y025110D02*
X057527Y025110D01*
X057527Y024914D02*
X058019Y024914D01*
X058019Y024717D02*
X057527Y024717D01*
X057527Y024520D02*
X058019Y024520D01*
X058019Y024323D02*
X057527Y024323D01*
X057527Y024126D02*
X058019Y024126D01*
X058019Y023929D02*
X057527Y023929D01*
X057527Y023733D02*
X058019Y023733D01*
X058019Y023536D02*
X057527Y023536D01*
X057527Y023339D02*
X058019Y023339D01*
X058019Y023142D02*
X057527Y023142D01*
X057527Y022945D02*
X058019Y022945D01*
X058019Y022748D02*
X057527Y022748D01*
X057527Y022551D02*
X058019Y022551D01*
X058019Y022355D02*
X057527Y022355D01*
X057527Y022158D02*
X058019Y022158D01*
X058019Y021961D02*
X057527Y021961D01*
X057527Y021764D02*
X058019Y021764D01*
X058019Y021567D02*
X057527Y021567D01*
X057527Y021370D02*
X058019Y021370D01*
X058019Y021173D02*
X057527Y021173D01*
X057045Y020691D02*
X057045Y020199D01*
X056848Y020199D02*
X056848Y020691D01*
X056651Y020691D02*
X056651Y020199D01*
X056454Y020199D02*
X056454Y020691D01*
X056257Y020691D02*
X056257Y020199D01*
X056061Y020199D02*
X056061Y020691D01*
X055864Y020691D02*
X055864Y020199D01*
X055667Y020199D02*
X055667Y020691D01*
X055470Y020691D02*
X055470Y020199D01*
X055273Y020199D02*
X055273Y020691D01*
X055076Y020691D02*
X055076Y020199D01*
X054880Y020199D02*
X054880Y020691D01*
X054683Y020691D02*
X054683Y020199D01*
X054486Y020199D02*
X054486Y020691D01*
X054289Y020691D02*
X054289Y020199D01*
X054092Y020199D02*
X054092Y020691D01*
X053895Y020691D02*
X053895Y020199D01*
X053698Y020199D02*
X053698Y020691D01*
X053502Y020691D02*
X053502Y020199D01*
X053305Y020199D02*
X053305Y020691D01*
X053108Y020691D02*
X053108Y020199D01*
X052911Y020199D02*
X052911Y020691D01*
X052714Y020691D02*
X052714Y020199D01*
X052517Y020199D02*
X052517Y020691D01*
X052320Y020691D02*
X052320Y020199D01*
X052124Y020199D02*
X052124Y020691D01*
X051927Y020691D02*
X051927Y020199D01*
X051730Y020199D02*
X051730Y020691D01*
X051533Y020691D02*
X051533Y020199D01*
X051336Y020199D02*
X051336Y020691D01*
X051139Y020691D02*
X051139Y020199D01*
X050943Y020199D02*
X050943Y020691D01*
X050746Y020691D02*
X050746Y020199D01*
X050549Y020199D02*
X050549Y020691D01*
X050352Y020691D02*
X050352Y020199D01*
X050155Y020199D02*
X050155Y020691D01*
D12*
X067350Y022118D03*
X046850Y007368D03*
X024600Y012618D03*
X004600Y026118D03*
D13*
X005600Y026118D03*
X006600Y026118D03*
X007600Y026118D03*
X008600Y026118D03*
X009600Y026118D03*
X009600Y027118D03*
X008600Y027118D03*
X007600Y027118D03*
X006600Y027118D03*
X005600Y027118D03*
X004600Y027118D03*
X024600Y013618D03*
X025600Y013618D03*
X026600Y013618D03*
X026600Y012618D03*
X025600Y012618D03*
X046850Y008368D03*
X047850Y008368D03*
X048850Y008368D03*
X048850Y007368D03*
X047850Y007368D03*
X049850Y007368D03*
X050850Y007368D03*
X050850Y008368D03*
X049850Y008368D03*
X067350Y009118D03*
X068350Y009118D03*
X068350Y010118D03*
X067350Y010118D03*
X067350Y011118D03*
X068350Y011118D03*
X068350Y012118D03*
X067350Y012118D03*
X067350Y013118D03*
X068350Y013118D03*
X068350Y014118D03*
X067350Y014118D03*
X067350Y015118D03*
X068350Y015118D03*
X068350Y016118D03*
X067350Y016118D03*
X067350Y017118D03*
X068350Y017118D03*
X068350Y018118D03*
X067350Y018118D03*
X067350Y019118D03*
X068350Y019118D03*
X068350Y020118D03*
X067350Y020118D03*
X067350Y021118D03*
X068350Y021118D03*
X068350Y022118D03*
X065850Y045618D03*
D14*
X054850Y033293D03*
X054850Y032693D03*
X053850Y032693D03*
X052850Y032693D03*
X052850Y033293D03*
X053850Y033293D03*
X045725Y035568D03*
X045725Y036168D03*
X045350Y038568D03*
X045350Y039168D03*
X045350Y040068D03*
X045350Y040668D03*
X042350Y039918D03*
X042350Y039318D03*
X036850Y033918D03*
X036850Y033318D03*
X036100Y033318D03*
X036100Y033918D03*
X032475Y035193D03*
X032475Y035793D03*
X032100Y033418D03*
X032100Y032818D03*
X027600Y032818D03*
X027600Y033418D03*
X027975Y035193D03*
X027975Y035793D03*
X022600Y035668D03*
X022600Y035068D03*
X022600Y034168D03*
X022600Y033568D03*
X022600Y031668D03*
X022600Y031068D03*
X022600Y030168D03*
X022600Y029568D03*
X019100Y029943D03*
X019100Y030543D03*
X019100Y031443D03*
X019100Y032043D03*
X019100Y033193D03*
X019100Y033793D03*
X019100Y034693D03*
X019100Y035293D03*
X017350Y036068D03*
X017350Y036668D03*
X016600Y036668D03*
X016600Y036068D03*
X015850Y036068D03*
X015850Y036668D03*
X015100Y036668D03*
X015100Y036068D03*
X012600Y036068D03*
X012600Y036668D03*
X011600Y036668D03*
X011600Y036068D03*
X010850Y036068D03*
X010850Y036668D03*
X010100Y036668D03*
X010100Y036068D03*
X008100Y034418D03*
X008100Y033818D03*
X007350Y033818D03*
X007350Y034418D03*
X003350Y034318D03*
X003350Y034918D03*
X002600Y034918D03*
X002600Y034318D03*
X014350Y023418D03*
X014350Y022818D03*
X013975Y021043D03*
X013975Y020443D03*
X010600Y020443D03*
X010600Y021043D03*
X009850Y021043D03*
X009850Y020443D03*
X009100Y020443D03*
X009100Y021043D03*
X009100Y021818D03*
X009100Y022418D03*
X009850Y022418D03*
X009850Y021818D03*
X010600Y021818D03*
X010600Y022418D03*
X005100Y022418D03*
X005100Y021818D03*
X004350Y021818D03*
X004350Y022418D03*
X003600Y022418D03*
X003600Y021818D03*
X003600Y021043D03*
X003600Y020443D03*
X004350Y020443D03*
X004350Y021043D03*
X005100Y021043D03*
X005100Y020443D03*
X014350Y016418D03*
X014350Y015818D03*
X013975Y014043D03*
X013975Y013443D03*
X021850Y017193D03*
X021850Y017793D03*
X022600Y017793D03*
X022600Y017193D03*
X022600Y020818D03*
X022600Y021418D03*
X020475Y023818D03*
X020475Y024418D03*
X033850Y014168D03*
X034600Y014168D03*
X034600Y013568D03*
X033850Y013568D03*
X032100Y007918D03*
X032100Y007318D03*
X030600Y007418D03*
X030600Y006818D03*
X029850Y006818D03*
X029850Y007418D03*
X029100Y007418D03*
X029100Y006818D03*
X045350Y006168D03*
X045350Y005568D03*
X045350Y004668D03*
X045350Y004068D03*
X052350Y004568D03*
X052350Y005168D03*
D15*
X051725Y017118D03*
X055475Y017118D03*
D16*
X053650Y010618D03*
X053050Y010618D03*
X053050Y009868D03*
X053650Y009868D03*
X053650Y009118D03*
X053050Y009118D03*
X053050Y008368D03*
X053650Y008368D03*
X053650Y007618D03*
X053050Y007618D03*
X053050Y006868D03*
X053650Y006868D03*
X047650Y009368D03*
X047050Y009368D03*
X029275Y017743D03*
X028675Y017743D03*
X022525Y016368D03*
X021925Y016368D03*
X016900Y018118D03*
X016300Y018118D03*
X015400Y018118D03*
X014800Y018118D03*
X014800Y018868D03*
X015400Y018868D03*
X016300Y018868D03*
X016900Y018868D03*
X016900Y020368D03*
X016300Y020368D03*
X016300Y021118D03*
X016900Y021118D03*
X015400Y021118D03*
X014800Y021118D03*
X014800Y020368D03*
X015400Y020368D03*
X010150Y019618D03*
X009550Y019618D03*
X008650Y019618D03*
X008050Y019618D03*
X006150Y019618D03*
X005550Y019618D03*
X004650Y019618D03*
X004050Y019618D03*
X004425Y023118D03*
X005025Y023118D03*
X005925Y023118D03*
X006525Y023118D03*
X007675Y023118D03*
X008275Y023118D03*
X009175Y023118D03*
X009775Y023118D03*
X014800Y025118D03*
X015400Y025118D03*
X016300Y025118D03*
X016900Y025118D03*
X016900Y025868D03*
X016300Y025868D03*
X015400Y025868D03*
X014800Y025868D03*
X019800Y029118D03*
X020400Y029118D03*
X021175Y029118D03*
X021775Y029118D03*
X021775Y029868D03*
X021175Y029868D03*
X021175Y030618D03*
X021775Y030618D03*
X020400Y030618D03*
X019800Y030618D03*
X019800Y029868D03*
X020400Y029868D03*
X025050Y030368D03*
X025650Y030368D03*
X025650Y031118D03*
X025050Y031118D03*
X026550Y031118D03*
X027150Y031118D03*
X027150Y030368D03*
X026550Y030368D03*
X029550Y030368D03*
X030150Y030368D03*
X030150Y031118D03*
X029550Y031118D03*
X031050Y031118D03*
X031650Y031118D03*
X031650Y030368D03*
X031050Y030368D03*
X035300Y027118D03*
X035900Y027118D03*
X042550Y029868D03*
X043150Y029868D03*
X043150Y030618D03*
X042550Y030618D03*
X043175Y031368D03*
X043775Y031368D03*
X043150Y032118D03*
X042550Y032118D03*
X038900Y035118D03*
X038300Y035118D03*
X038300Y036368D03*
X038900Y036368D03*
X031650Y035868D03*
X031050Y035868D03*
X031050Y035118D03*
X031650Y035118D03*
X030150Y035118D03*
X029550Y035118D03*
X029550Y035868D03*
X030150Y035868D03*
X027150Y035868D03*
X026550Y035868D03*
X025650Y035868D03*
X025050Y035868D03*
X025050Y035118D03*
X025650Y035118D03*
X026550Y035118D03*
X027150Y035118D03*
X021775Y035368D03*
X021175Y035368D03*
X021175Y036118D03*
X021775Y036118D03*
X020400Y036118D03*
X019800Y036118D03*
X019800Y035368D03*
X020400Y035368D03*
X020400Y034618D03*
X019800Y034618D03*
X021175Y034618D03*
X021775Y034618D03*
X008025Y032493D03*
X007425Y032493D03*
X005650Y032493D03*
X005050Y032493D03*
X003275Y032493D03*
X002675Y032493D03*
X002675Y033618D03*
X003275Y033618D03*
X005050Y035618D03*
X005650Y035618D03*
X023675Y022618D03*
X024275Y022618D03*
X016900Y014118D03*
X016300Y014118D03*
X015400Y014118D03*
X014800Y014118D03*
X014800Y013368D03*
X015400Y013368D03*
X016300Y013368D03*
X016900Y013368D03*
X018800Y007868D03*
X019400Y007868D03*
X019400Y007118D03*
X018800Y007118D03*
X018800Y006368D03*
X019400Y006368D03*
X019400Y005618D03*
X018800Y005618D03*
X018800Y004868D03*
X019400Y004868D03*
X019400Y004118D03*
X018800Y004118D03*
X047550Y032618D03*
X048150Y032618D03*
X049300Y032618D03*
X049900Y032618D03*
X057175Y033868D03*
X057775Y033868D03*
D17*
X054475Y029618D03*
X037600Y027118D03*
D18*
X040100Y026845D03*
X040600Y026845D03*
X041100Y026845D03*
X041600Y026845D03*
X041600Y028892D03*
X041100Y028892D03*
X040600Y028892D03*
X040100Y028892D03*
X031100Y032095D03*
X030600Y032095D03*
X030100Y032095D03*
X029600Y032095D03*
X029600Y034142D03*
X030100Y034142D03*
X030600Y034142D03*
X031100Y034142D03*
X026600Y034142D03*
X026100Y034142D03*
X025600Y034142D03*
X025100Y034142D03*
X025100Y032095D03*
X025600Y032095D03*
X026100Y032095D03*
X026600Y032095D03*
X021350Y031595D03*
X020850Y031595D03*
X020350Y031595D03*
X019850Y031595D03*
X019850Y033642D03*
X020350Y033642D03*
X020850Y033642D03*
X021350Y033642D03*
X021100Y025142D03*
X021600Y025142D03*
X022100Y025142D03*
X022600Y025142D03*
X022600Y023095D03*
X022100Y023095D03*
X021600Y023095D03*
X021100Y023095D03*
X016850Y022095D03*
X016350Y022095D03*
X015850Y022095D03*
X015350Y022095D03*
X015350Y024142D03*
X015850Y024142D03*
X016350Y024142D03*
X016850Y024142D03*
X016850Y017142D03*
X016350Y017142D03*
X015850Y017142D03*
X015350Y017142D03*
X015350Y015095D03*
X015850Y015095D03*
X016350Y015095D03*
X016850Y015095D03*
X043100Y038595D03*
X043600Y038595D03*
X044100Y038595D03*
X044600Y038595D03*
X044600Y040642D03*
X044100Y040642D03*
X043600Y040642D03*
X043100Y040642D03*
D19*
X041350Y040118D03*
X041350Y039118D03*
X036475Y036243D03*
X036475Y035243D03*
X041600Y035118D03*
X041600Y034118D03*
X041600Y032618D03*
X041600Y031618D03*
X054850Y037993D03*
X054850Y038993D03*
X021600Y021618D03*
X021600Y020618D03*
X018100Y030868D03*
X018100Y031868D03*
X018100Y033368D03*
X018100Y034368D03*
D20*
X048600Y039618D03*
X048600Y040406D03*
X048600Y041193D03*
X048600Y041981D03*
D21*
X049742Y042177D03*
X047458Y042177D03*
X047458Y039421D03*
X049742Y039421D03*
D22*
X053108Y040453D02*
X053108Y041014D01*
X053108Y041801D02*
X053108Y042362D01*
X054092Y042362D02*
X054092Y041801D01*
X054092Y041014D02*
X054092Y040453D01*
D23*
X055962Y042868D03*
X051238Y042868D03*
D24*
X057100Y034868D03*
X057600Y034868D03*
X058100Y034868D03*
X058600Y034868D03*
X059100Y034868D03*
X059600Y034868D03*
X060100Y034868D03*
D25*
X058600Y038118D03*
D26*
X059600Y041368D03*
D27*
X057600Y042493D03*
X059600Y043743D03*
X044533Y043152D03*
X044533Y045317D03*
X043746Y046262D03*
D28*
X064100Y036390D03*
X064100Y032847D03*
D29*
X054760Y036713D03*
X053850Y036713D03*
X052940Y036713D03*
D30*
X053850Y034273D03*
D31*
X053600Y037993D03*
X052600Y037993D03*
D32*
X063108Y039634D03*
X064092Y039634D03*
X064092Y040618D03*
X063108Y040618D03*
X063108Y041603D03*
X064092Y041603D03*
D33*
X062817Y013723D03*
X061832Y013723D03*
X060848Y013723D03*
X059864Y013723D03*
X058880Y013723D03*
X057895Y013723D03*
X056911Y013723D03*
D34*
X056281Y013723D03*
X055769Y013723D03*
X055297Y013723D03*
D35*
X063801Y013723D03*
D36*
X064706Y013014D03*
X054628Y012975D03*
X054667Y004786D03*
X065651Y004786D03*
D37*
X055533Y012542D03*
D38*
X063840Y012542D03*
D39*
X045600Y029618D03*
X045600Y030618D03*
X045600Y031618D03*
D40*
X045600Y028368D03*
X016696Y006301D03*
X012196Y006301D03*
X009696Y006301D03*
X005196Y006301D03*
X004004Y043935D03*
X008504Y043935D03*
D41*
X036100Y032532D03*
X036850Y032532D03*
X036850Y031705D03*
X036100Y031705D03*
X053350Y005282D03*
X053350Y004455D03*
D42*
X016696Y005042D03*
X016696Y007542D03*
X016696Y010042D03*
X012196Y010042D03*
X009696Y010042D03*
X009696Y007542D03*
X012196Y007542D03*
X012196Y005042D03*
X009696Y005042D03*
X005196Y005042D03*
X005196Y007542D03*
X005196Y010042D03*
X004004Y040195D03*
X004004Y042695D03*
X004004Y045195D03*
X008504Y045195D03*
X008504Y042695D03*
X008504Y040195D03*
D43*
X004842Y041435D03*
X008858Y008801D03*
X015858Y008801D03*
D44*
X040320Y031208D03*
X040320Y032118D03*
X040320Y033028D03*
D45*
X037880Y032118D03*
D46*
X040350Y034118D03*
X040350Y035118D03*
X066100Y041868D03*
X066100Y042868D03*
D47*
X042850Y028768D03*
X042850Y027468D03*
X034100Y028468D03*
X034100Y029768D03*
D48*
X038726Y030051D03*
X039474Y030051D03*
X039100Y029185D03*
D49*
X038076Y029195D02*
X037684Y029195D01*
X037685Y029194D02*
X037663Y029343D01*
X037620Y029488D01*
X037557Y029624D01*
X037474Y029751D01*
X037374Y029864D01*
X037260Y029962D01*
X037132Y030042D01*
X036994Y030103D01*
X036994Y030595D01*
X038076Y030595D01*
X038076Y027642D01*
X036994Y027642D01*
X036994Y028134D01*
X037132Y028195D01*
X037260Y028275D01*
X037374Y028373D01*
X037474Y028486D01*
X037557Y028612D01*
X037620Y028749D01*
X037663Y028894D01*
X037685Y029043D01*
X037685Y029194D01*
X037685Y029116D02*
X038076Y029116D01*
X038076Y029038D02*
X037684Y029038D01*
X037672Y028959D02*
X038076Y028959D01*
X038076Y028881D02*
X037659Y028881D01*
X037636Y028802D02*
X038076Y028802D01*
X038076Y028724D02*
X037608Y028724D01*
X037572Y028645D02*
X038076Y028645D01*
X038076Y028567D02*
X037527Y028567D01*
X037476Y028488D02*
X038076Y028488D01*
X038076Y028410D02*
X037407Y028410D01*
X037326Y028331D02*
X038076Y028331D01*
X038076Y028253D02*
X037224Y028253D01*
X037085Y028174D02*
X038076Y028174D01*
X038076Y028096D02*
X036994Y028096D01*
X036994Y028017D02*
X038076Y028017D01*
X038076Y027939D02*
X036994Y027939D01*
X036994Y027860D02*
X038076Y027860D01*
X038076Y027782D02*
X036994Y027782D01*
X036994Y027703D02*
X038076Y027703D01*
X036206Y027703D02*
X035124Y027703D01*
X035124Y027642D02*
X036206Y027642D01*
X036206Y028134D01*
X036068Y028195D01*
X035940Y028275D01*
X035826Y028373D01*
X035726Y028486D01*
X035643Y028612D01*
X035580Y028749D01*
X035537Y028894D01*
X035515Y029043D01*
X035515Y029194D01*
X035537Y029343D01*
X035580Y029488D01*
X035643Y029624D01*
X035726Y029751D01*
X035826Y029864D01*
X035940Y029962D01*
X036068Y030042D01*
X036206Y030103D01*
X036206Y030595D01*
X035124Y030595D01*
X035124Y027642D01*
X035124Y027782D02*
X036206Y027782D01*
X036206Y027860D02*
X035124Y027860D01*
X035124Y027939D02*
X036206Y027939D01*
X036206Y028017D02*
X035124Y028017D01*
X035124Y028096D02*
X036206Y028096D01*
X036115Y028174D02*
X035124Y028174D01*
X035124Y028253D02*
X035976Y028253D01*
X035874Y028331D02*
X035124Y028331D01*
X035124Y028410D02*
X035793Y028410D01*
X035724Y028488D02*
X035124Y028488D01*
X035124Y028567D02*
X035673Y028567D01*
X035628Y028645D02*
X035124Y028645D01*
X035124Y028724D02*
X035592Y028724D01*
X035564Y028802D02*
X035124Y028802D01*
X035124Y028881D02*
X035541Y028881D01*
X035528Y028959D02*
X035124Y028959D01*
X035124Y029038D02*
X035516Y029038D01*
X035515Y029116D02*
X035124Y029116D01*
X035124Y029195D02*
X035516Y029195D01*
X035527Y029273D02*
X035124Y029273D01*
X035124Y029352D02*
X035540Y029352D01*
X035563Y029430D02*
X035124Y029430D01*
X035124Y029509D02*
X035590Y029509D01*
X035626Y029587D02*
X035124Y029587D01*
X035124Y029666D02*
X035670Y029666D01*
X035722Y029744D02*
X035124Y029744D01*
X035124Y029823D02*
X035789Y029823D01*
X035870Y029901D02*
X035124Y029901D01*
X035124Y029980D02*
X035970Y029980D01*
X036106Y030058D02*
X035124Y030058D01*
X035124Y030137D02*
X036206Y030137D01*
X036206Y030215D02*
X035124Y030215D01*
X035124Y030294D02*
X036206Y030294D01*
X036206Y030372D02*
X035124Y030372D01*
X035124Y030451D02*
X036206Y030451D01*
X036206Y030529D02*
X035124Y030529D01*
X036994Y030529D02*
X038076Y030529D01*
X038076Y030451D02*
X036994Y030451D01*
X036994Y030372D02*
X038076Y030372D01*
X038076Y030294D02*
X036994Y030294D01*
X036994Y030215D02*
X038076Y030215D01*
X038076Y030137D02*
X036994Y030137D01*
X037094Y030058D02*
X038076Y030058D01*
X038076Y029980D02*
X037230Y029980D01*
X037330Y029901D02*
X038076Y029901D01*
X038076Y029823D02*
X037411Y029823D01*
X037478Y029744D02*
X038076Y029744D01*
X038076Y029666D02*
X037530Y029666D01*
X037574Y029587D02*
X038076Y029587D01*
X038076Y029509D02*
X037610Y029509D01*
X037637Y029430D02*
X038076Y029430D01*
X038076Y029352D02*
X037660Y029352D01*
X037673Y029273D02*
X038076Y029273D01*
D50*
X033157Y027573D02*
X032543Y027573D01*
X032543Y028109D01*
X033157Y028109D01*
X033157Y027573D01*
X033157Y027706D02*
X032543Y027706D01*
X032543Y027839D02*
X033157Y027839D01*
X033157Y027972D02*
X032543Y027972D01*
X032543Y028105D02*
X033157Y028105D01*
X032157Y027573D02*
X031543Y027573D01*
X031543Y028109D01*
X032157Y028109D01*
X032157Y027573D01*
X032157Y027706D02*
X031543Y027706D01*
X031543Y027839D02*
X032157Y027839D01*
X032157Y027972D02*
X031543Y027972D01*
X031543Y028105D02*
X032157Y028105D01*
X032157Y027164D02*
X031543Y027164D01*
X032157Y027164D02*
X032157Y026628D01*
X031543Y026628D01*
X031543Y027164D01*
X031543Y026761D02*
X032157Y026761D01*
X032157Y026894D02*
X031543Y026894D01*
X031543Y027027D02*
X032157Y027027D01*
X032157Y027160D02*
X031543Y027160D01*
X032543Y026628D02*
X033157Y026628D01*
X032543Y026628D02*
X032543Y027164D01*
X033157Y027164D01*
X033157Y026628D01*
X033157Y026761D02*
X032543Y026761D01*
X032543Y026894D02*
X033157Y026894D01*
X033157Y027027D02*
X032543Y027027D01*
X032543Y027160D02*
X033157Y027160D01*
X029282Y016573D02*
X028668Y016573D01*
X028668Y017109D01*
X029282Y017109D01*
X029282Y016573D01*
X029282Y016706D02*
X028668Y016706D01*
X028668Y016839D02*
X029282Y016839D01*
X029282Y016972D02*
X028668Y016972D01*
X028668Y017105D02*
X029282Y017105D01*
X029282Y015628D02*
X028668Y015628D01*
X028668Y016164D01*
X029282Y016164D01*
X029282Y015628D01*
X029282Y015761D02*
X028668Y015761D01*
X028668Y015894D02*
X029282Y015894D01*
X029282Y016027D02*
X028668Y016027D01*
X028668Y016160D02*
X029282Y016160D01*
X028282Y016164D02*
X027668Y016164D01*
X028282Y016164D02*
X028282Y015628D01*
X027668Y015628D01*
X027668Y016164D01*
X027668Y015761D02*
X028282Y015761D01*
X028282Y015894D02*
X027668Y015894D01*
X027668Y016027D02*
X028282Y016027D01*
X028282Y016160D02*
X027668Y016160D01*
X027668Y016573D02*
X028282Y016573D01*
X027668Y016573D02*
X027668Y017109D01*
X028282Y017109D01*
X028282Y016573D01*
X028282Y016706D02*
X027668Y016706D01*
X027668Y016839D02*
X028282Y016839D01*
X028282Y016972D02*
X027668Y016972D01*
X027668Y017105D02*
X028282Y017105D01*
D51*
X024475Y023618D03*
X023475Y023618D03*
X008850Y024118D03*
X007850Y024118D03*
X006350Y024118D03*
X005350Y024118D03*
X004850Y036618D03*
X003850Y036618D03*
X002850Y036618D03*
X005850Y036618D03*
X007100Y036618D03*
X008100Y036618D03*
X067350Y036618D03*
X068350Y036618D03*
D52*
X045194Y012764D03*
X044880Y012764D03*
X044565Y012764D03*
X044250Y012764D03*
X043935Y012764D03*
X043620Y012764D03*
X043305Y012764D03*
X042990Y012764D03*
X042675Y012764D03*
X042360Y012764D03*
X042045Y012764D03*
X041730Y012764D03*
X041415Y012764D03*
X041100Y012764D03*
X040785Y012764D03*
X040470Y012764D03*
X040155Y012764D03*
X039840Y012764D03*
X039525Y012764D03*
X039210Y012764D03*
X038895Y012764D03*
X038580Y012764D03*
X038265Y012764D03*
X037950Y012764D03*
X037635Y012764D03*
X037320Y012764D03*
X037006Y012764D03*
X037006Y008473D03*
X037320Y008473D03*
X037635Y008473D03*
X037950Y008473D03*
X038265Y008473D03*
X038580Y008473D03*
X038895Y008473D03*
X039210Y008473D03*
X039525Y008473D03*
X039840Y008473D03*
X040155Y008473D03*
X040470Y008473D03*
X040785Y008473D03*
X041100Y008473D03*
X041415Y008473D03*
X041730Y008473D03*
X042045Y008473D03*
X042360Y008473D03*
X042675Y008473D03*
X042990Y008473D03*
X043305Y008473D03*
X043620Y008473D03*
X043935Y008473D03*
X044250Y008473D03*
X044565Y008473D03*
X044880Y008473D03*
X045194Y008473D03*
D53*
X029850Y004868D03*
D54*
X030850Y004868D03*
X031850Y004868D03*
X032850Y004868D03*
X033850Y004868D03*
X034850Y004868D03*
X035850Y004868D03*
X035850Y005868D03*
X034850Y005868D03*
X033850Y005868D03*
X032850Y005868D03*
X031850Y005868D03*
X030850Y005868D03*
X029850Y005868D03*
D55*
X027076Y017414D03*
X026880Y017414D03*
X026683Y017414D03*
X026486Y017414D03*
X026289Y017414D03*
X026092Y017414D03*
X025895Y017414D03*
X025698Y017414D03*
X025502Y017414D03*
X025305Y017414D03*
X025108Y017414D03*
X024911Y017414D03*
X024714Y017414D03*
X024517Y017414D03*
X024320Y017414D03*
X024124Y017414D03*
X024124Y021823D03*
X024320Y021823D03*
X024517Y021823D03*
X024714Y021823D03*
X024911Y021823D03*
X025108Y021823D03*
X025305Y021823D03*
X025502Y021823D03*
X025698Y021823D03*
X025895Y021823D03*
X026092Y021823D03*
X026289Y021823D03*
X026486Y021823D03*
X026683Y021823D03*
X026880Y021823D03*
X027076Y021823D03*
X060836Y020839D03*
X061033Y020839D03*
X061230Y020839D03*
X061427Y020839D03*
X061624Y020839D03*
X061820Y020839D03*
X062017Y020839D03*
X062214Y020839D03*
X062411Y020839D03*
X062608Y020839D03*
X062805Y020839D03*
X063002Y020839D03*
X063198Y020839D03*
X063395Y020839D03*
X063592Y020839D03*
X063789Y020839D03*
X063986Y020839D03*
X064183Y020839D03*
X064380Y020839D03*
X064576Y020839D03*
X064773Y020839D03*
X064970Y020839D03*
X065167Y020839D03*
X065364Y020839D03*
X065364Y028398D03*
X065167Y028398D03*
X064970Y028398D03*
X064773Y028398D03*
X064576Y028398D03*
X064380Y028398D03*
X064183Y028398D03*
X063986Y028398D03*
X063789Y028398D03*
X063592Y028398D03*
X063395Y028398D03*
X063198Y028398D03*
X063002Y028398D03*
X062805Y028398D03*
X062608Y028398D03*
X062411Y028398D03*
X062214Y028398D03*
X062017Y028398D03*
X061820Y028398D03*
X061624Y028398D03*
X061427Y028398D03*
X061230Y028398D03*
X061033Y028398D03*
X060836Y028398D03*
D56*
X027805Y021095D03*
X027805Y020898D03*
X027805Y020701D03*
X027805Y020504D03*
X027805Y020307D03*
X027805Y020110D03*
X027805Y019914D03*
X027805Y019717D03*
X027805Y019520D03*
X027805Y019323D03*
X027805Y019126D03*
X027805Y018929D03*
X027805Y018733D03*
X027805Y018536D03*
X027805Y018339D03*
X027805Y018142D03*
X023395Y018142D03*
X023395Y018339D03*
X023395Y018536D03*
X023395Y018733D03*
X023395Y018929D03*
X023395Y019126D03*
X023395Y019323D03*
X023395Y019520D03*
X023395Y019717D03*
X023395Y019914D03*
X023395Y020110D03*
X023395Y020307D03*
X023395Y020504D03*
X023395Y020701D03*
X023395Y020898D03*
X023395Y021095D03*
D57*
X026748Y011264D03*
X026748Y011008D03*
X026748Y010752D03*
X026748Y010496D03*
X026748Y010240D03*
X026748Y009984D03*
X026748Y009729D03*
X026748Y009473D03*
X028952Y009473D03*
X028952Y009729D03*
X028952Y009984D03*
X028952Y010240D03*
X028952Y010496D03*
X028952Y010752D03*
X028952Y011008D03*
X028952Y011264D03*
D58*
X021553Y005242D03*
X021553Y004868D03*
X021553Y004494D03*
X020647Y004494D03*
X020647Y004868D03*
X020647Y005242D03*
D59*
X022504Y038805D03*
X023004Y040057D03*
X022504Y041305D03*
X024504Y041305D03*
X025004Y040057D03*
X024504Y038805D03*
X025004Y042557D03*
X024504Y043805D03*
X023004Y042557D03*
X022504Y043805D03*
X023004Y045055D03*
X025004Y045055D03*
X025504Y046187D03*
X029504Y043805D03*
X030004Y042557D03*
X031504Y043805D03*
X032004Y042557D03*
X031504Y041305D03*
X032004Y040057D03*
X031504Y038805D03*
X030004Y040057D03*
X029504Y041305D03*
X029504Y038805D03*
X036504Y038805D03*
X037004Y040057D03*
X036504Y041305D03*
X037004Y042557D03*
X036504Y043805D03*
X037004Y045055D03*
X032504Y046187D03*
X032004Y045055D03*
X030004Y045055D03*
X018504Y046187D03*
X018004Y045055D03*
X016004Y045055D03*
X015504Y043805D03*
X016004Y042557D03*
X017504Y043805D03*
X018004Y042557D03*
X017504Y041305D03*
X018004Y040057D03*
X017504Y038805D03*
X016004Y040057D03*
X015504Y041305D03*
X015504Y038805D03*
X011004Y040057D03*
X010504Y041305D03*
X011004Y042557D03*
X010504Y043805D03*
X011004Y045055D03*
X011504Y046187D03*
X010504Y038805D03*
D60*
X006374Y034868D03*
X006374Y034368D03*
X006374Y033868D03*
X006374Y033368D03*
X006374Y031743D03*
X006374Y031243D03*
X006374Y030743D03*
X006374Y030243D03*
X004326Y030243D03*
X004326Y030743D03*
X004326Y031243D03*
X004326Y031743D03*
X004326Y033368D03*
X004326Y033868D03*
X004326Y034368D03*
X004326Y034868D03*
X006076Y022368D03*
X006076Y021868D03*
X006076Y021368D03*
X006076Y020868D03*
X008124Y020868D03*
X008124Y021368D03*
X008124Y021868D03*
X008124Y022368D03*
D61*
X040667Y041494D03*
X040667Y042242D03*
X041533Y041868D03*
X040667Y042994D03*
X040667Y043742D03*
X041533Y043368D03*
D62*
X039350Y042368D03*
X039350Y041368D03*
X039350Y040368D03*
X039350Y039368D03*
X024850Y005868D03*
X023850Y005868D03*
D63*
X025850Y005868D03*
X039350Y038368D03*
D64*
X046567Y037443D03*
X046567Y037128D03*
X046567Y036813D03*
X046567Y036498D03*
X046567Y036183D03*
X046567Y035868D03*
X046567Y035553D03*
X046567Y035238D03*
X046567Y034923D03*
X046567Y034609D03*
X046567Y034294D03*
X051133Y034294D03*
X051133Y034609D03*
X051133Y034923D03*
X051133Y035238D03*
X051133Y035553D03*
X051133Y035868D03*
X051133Y036183D03*
X051133Y036498D03*
X051133Y036813D03*
X051133Y037128D03*
X051133Y037443D03*
D65*
X050425Y038152D03*
X050110Y038152D03*
X049795Y038152D03*
X049480Y038152D03*
X049165Y038152D03*
X048850Y038152D03*
X048535Y038152D03*
X048220Y038152D03*
X047905Y038152D03*
X047590Y038152D03*
X047275Y038152D03*
X047275Y033585D03*
X047590Y033585D03*
X047905Y033585D03*
X048220Y033585D03*
X048535Y033585D03*
X048850Y033585D03*
X049165Y033585D03*
X049480Y033585D03*
X049795Y033585D03*
X050110Y033585D03*
X050425Y033585D03*
D66*
X067338Y041744D03*
X068362Y041744D03*
X068362Y042118D03*
X068362Y042492D03*
X067338Y042492D03*
D67*
X067100Y037618D03*
X068600Y037618D03*
D68*
X068530Y039743D03*
X066670Y039743D03*
D69*
X002100Y004618D03*
X039350Y004618D03*
X068100Y004618D03*
X068100Y044868D03*
X039350Y044868D03*
X002100Y044868D03*
D70*
X004350Y036618D03*
X005600Y034868D03*
X003600Y033118D03*
X004350Y032493D03*
X005600Y031743D03*
X005225Y030243D03*
X010504Y035272D03*
X012100Y036368D03*
X014600Y036618D03*
X015100Y035618D03*
X016600Y035618D03*
X018100Y034993D03*
X018600Y034993D03*
X019100Y035743D03*
X020850Y036868D03*
X021350Y036618D03*
X022600Y036118D03*
X024600Y035118D03*
X026600Y036368D03*
X027100Y034368D03*
X027975Y034743D03*
X029100Y035118D03*
X028475Y033368D03*
X028725Y032868D03*
X026850Y033118D03*
X025850Y033118D03*
X024350Y033118D03*
X024475Y032368D03*
X022600Y032118D03*
X021350Y032368D03*
X020350Y032868D03*
X021975Y033993D03*
X018725Y032868D03*
X018725Y032368D03*
X018100Y030243D03*
X019100Y029493D03*
X021100Y028368D03*
X021600Y028618D03*
X023600Y027368D03*
X023975Y027618D03*
X024725Y027618D03*
X025350Y027118D03*
X025100Y026868D03*
X026100Y026868D03*
X026600Y026618D03*
X024725Y028243D03*
X024850Y029118D03*
X024600Y031118D03*
X027600Y031118D03*
X027600Y030368D03*
X029100Y031118D03*
X030350Y033118D03*
X031350Y033118D03*
X031600Y034368D03*
X032475Y034743D03*
X031100Y036368D03*
X036100Y031243D03*
X036850Y031243D03*
X034100Y030493D03*
X032850Y029618D03*
X032100Y030368D03*
X032100Y031118D03*
X031850Y028368D03*
X032850Y028368D03*
X030850Y026868D03*
X032600Y025493D03*
X032600Y024743D03*
X031475Y024993D03*
X031350Y023868D03*
X032600Y023493D03*
X033350Y023493D03*
X034100Y023993D03*
X034100Y024368D03*
X034475Y024368D03*
X035475Y025118D03*
X036100Y024618D03*
X035725Y024118D03*
X036600Y025118D03*
X037850Y024368D03*
X038225Y025118D03*
X039975Y024368D03*
X040975Y025118D03*
X041600Y024618D03*
X041600Y023618D03*
X041600Y023243D03*
X041225Y022993D03*
X041600Y022743D03*
X041600Y022243D03*
X041600Y021493D03*
X041600Y021118D03*
X041600Y020618D03*
X042725Y020868D03*
X043475Y021743D03*
X043725Y022118D03*
X043975Y022368D03*
X044225Y022743D03*
X042725Y023368D03*
X042725Y023743D03*
X043225Y024118D03*
X043850Y024868D03*
X043850Y025368D03*
X043225Y025618D03*
X042850Y026118D03*
X042850Y026868D03*
X044850Y026368D03*
X044725Y025368D03*
X045225Y025118D03*
X046225Y025868D03*
X046600Y025868D03*
X046600Y027118D03*
X046600Y027618D03*
X046600Y028368D03*
X046600Y028868D03*
X048475Y028993D03*
X048850Y028743D03*
X049225Y028368D03*
X050100Y028118D03*
X050850Y028118D03*
X051600Y028118D03*
X051975Y028118D03*
X052350Y028118D03*
X053350Y028118D03*
X053850Y028118D03*
X054350Y028118D03*
X055350Y028118D03*
X055725Y028118D03*
X056100Y028118D03*
X056475Y028118D03*
X058350Y028243D03*
X058350Y028618D03*
X058600Y027868D03*
X058975Y027618D03*
X059350Y027493D03*
X059600Y027118D03*
X059100Y026618D03*
X059600Y026118D03*
X059475Y025743D03*
X059850Y025493D03*
X059725Y024743D03*
X059100Y024743D03*
X058600Y024368D03*
X058600Y023993D03*
X058975Y023993D03*
X058975Y023618D03*
X060475Y024368D03*
X060975Y024368D03*
X061475Y023993D03*
X061725Y023368D03*
X062100Y023743D03*
X062350Y021743D03*
X062850Y021743D03*
X063225Y021868D03*
X063350Y020243D03*
X063350Y019743D03*
X062850Y020118D03*
X061350Y020118D03*
X060600Y019368D03*
X060600Y018868D03*
X060975Y018618D03*
X061475Y018493D03*
X058350Y021493D03*
X058850Y021868D03*
X057100Y021868D03*
X057100Y021243D03*
X056475Y021118D03*
X056100Y021118D03*
X055725Y021118D03*
X055350Y021118D03*
X054975Y021118D03*
X054600Y021118D03*
X054225Y021118D03*
X053850Y021118D03*
X052725Y021118D03*
X052350Y021118D03*
X051975Y021118D03*
X051600Y021118D03*
X051225Y021118D03*
X050850Y021118D03*
X050475Y019868D03*
X050100Y019493D03*
X050850Y019493D03*
X051225Y019493D03*
X051850Y019493D03*
X052100Y019243D03*
X052350Y018993D03*
X051725Y018118D03*
X053600Y018118D03*
X055475Y018118D03*
X054850Y019368D03*
X055600Y021868D03*
X057100Y022743D03*
X055475Y024243D03*
X055350Y024618D03*
X054850Y023743D03*
X054850Y023368D03*
X053850Y022618D03*
X052350Y022618D03*
X050600Y022743D03*
X050100Y022243D03*
X048850Y022243D03*
X048850Y021868D03*
X048850Y021493D03*
X048850Y021118D03*
X049100Y020743D03*
X047100Y021868D03*
X046600Y023243D03*
X046600Y023868D03*
X048600Y024618D03*
X050100Y024743D03*
X050100Y024368D03*
X050100Y025118D03*
X051600Y025118D03*
X051600Y024368D03*
X051600Y026618D03*
X054100Y025868D03*
X054600Y026618D03*
X055600Y025868D03*
X057100Y025868D03*
X057100Y026618D03*
X060100Y028618D03*
X059475Y028993D03*
X059850Y029243D03*
X060225Y029368D03*
X060600Y029493D03*
X061100Y028993D03*
X062350Y027743D03*
X062850Y027618D03*
X063475Y027368D03*
X063850Y027368D03*
X063850Y027743D03*
X064350Y027743D03*
X065100Y027743D03*
X062850Y026118D03*
X061725Y027493D03*
X061225Y027493D03*
X060600Y027118D03*
X054850Y031118D03*
X055475Y031618D03*
X056225Y031243D03*
X053350Y029618D03*
X052975Y029618D03*
X051850Y029368D03*
X050600Y029493D03*
X049850Y029368D03*
X049850Y030868D03*
X051725Y031368D03*
X052100Y031118D03*
X051350Y032368D03*
X050850Y032993D03*
X050350Y032618D03*
X048725Y032618D03*
X047100Y032618D03*
X046850Y033868D03*
X047850Y034118D03*
X048350Y034118D03*
X049975Y034243D03*
X051725Y034118D03*
X051725Y034743D03*
X050475Y037243D03*
X050350Y037618D03*
X049975Y037618D03*
X051350Y038618D03*
X048100Y036868D03*
X048100Y036368D03*
X047725Y037493D03*
X045975Y036993D03*
X045725Y036618D03*
X043975Y035993D03*
X043975Y035493D03*
X043850Y037868D03*
X043100Y037868D03*
X042350Y038868D03*
X040600Y039868D03*
X040100Y038368D03*
X044600Y039368D03*
X044600Y039868D03*
X045350Y039618D03*
X041850Y042618D03*
X040100Y043368D03*
X046225Y043868D03*
X046850Y045368D03*
X039725Y035118D03*
X039725Y034118D03*
X043100Y033118D03*
X043850Y032118D03*
X044350Y031618D03*
X042100Y029368D03*
X039975Y030118D03*
X039225Y026243D03*
X040350Y026180D03*
X037600Y026243D03*
X036350Y026368D03*
X035850Y026368D03*
X035225Y026368D03*
X033850Y026618D03*
X032600Y022618D03*
X031475Y022618D03*
X030850Y021993D03*
X031475Y021493D03*
X031100Y021118D03*
X030600Y020493D03*
X029600Y020243D03*
X029850Y019618D03*
X030100Y019243D03*
X030350Y018993D03*
X029600Y018743D03*
X029225Y018743D03*
X028475Y018618D03*
X028475Y018243D03*
X027975Y017493D03*
X027350Y017868D03*
X025600Y017993D03*
X024975Y017993D03*
X024600Y017993D03*
X023975Y018493D03*
X023975Y018993D03*
X023975Y020493D03*
X023975Y020868D03*
X024350Y021118D03*
X024725Y020868D03*
X025100Y021118D03*
X027225Y020993D03*
X027350Y022368D03*
X023225Y022618D03*
X022600Y022368D03*
X022600Y021868D03*
X020475Y023368D03*
X019850Y023243D03*
X019475Y023618D03*
X019100Y023993D03*
X018725Y024368D03*
X017350Y025118D03*
X018100Y023368D03*
X018350Y022868D03*
X018100Y021368D03*
X017350Y021118D03*
X015350Y019868D03*
X014350Y018868D03*
X014350Y018118D03*
X015100Y016118D03*
X016100Y016118D03*
X014850Y014868D03*
X013975Y014493D03*
X015350Y012868D03*
X017350Y014118D03*
X018100Y015118D03*
X017350Y018118D03*
X018475Y018493D03*
X018475Y018993D03*
X019350Y018993D03*
X019600Y018743D03*
X019850Y018493D03*
X020100Y018243D03*
X021850Y016743D03*
X026850Y019618D03*
X028725Y019368D03*
X031539Y019805D03*
X032600Y020743D03*
X034100Y020618D03*
X035600Y021243D03*
X035350Y021743D03*
X035100Y022243D03*
X040100Y022243D03*
X040850Y023243D03*
X040475Y023493D03*
X044475Y020118D03*
X044725Y018493D03*
X044975Y017743D03*
X045225Y016993D03*
X045475Y016243D03*
X047100Y016743D03*
X047350Y017118D03*
X047600Y017493D03*
X048600Y016868D03*
X048350Y016493D03*
X048100Y016118D03*
X047850Y015743D03*
X045725Y013743D03*
X044475Y011993D03*
X044725Y011493D03*
X044975Y010868D03*
X045225Y010243D03*
X045475Y009618D03*
X045725Y008743D03*
X045475Y007493D03*
X046100Y006118D03*
X044100Y004743D03*
X046100Y004118D03*
X041350Y007493D03*
X040475Y007868D03*
X039725Y007493D03*
X038600Y007868D03*
X037725Y007493D03*
X036475Y009993D03*
X036850Y010243D03*
X036475Y010493D03*
X036850Y010743D03*
X036475Y010993D03*
X036850Y011243D03*
X036475Y011493D03*
X036850Y011743D03*
X036475Y012118D03*
X035100Y013368D03*
X035100Y013743D03*
X034350Y014743D03*
X033975Y014743D03*
X033475Y014993D03*
X034600Y016118D03*
X033100Y016243D03*
X032850Y017368D03*
X032850Y017743D03*
X032600Y018118D03*
X034850Y018618D03*
X037600Y017743D03*
X037600Y016118D03*
X037975Y016118D03*
X038350Y016118D03*
X037225Y016118D03*
X036850Y016118D03*
X036100Y016118D03*
X036475Y014993D03*
X037100Y014368D03*
X037600Y014368D03*
X037975Y014368D03*
X038475Y014368D03*
X038975Y014368D03*
X038725Y014993D03*
X040725Y016118D03*
X041600Y016618D03*
X041975Y015868D03*
X041725Y015243D03*
X041350Y014243D03*
X040975Y013993D03*
X040975Y013368D03*
X041975Y013743D03*
X041725Y012118D03*
X042225Y012118D03*
X042975Y011993D03*
X043475Y011993D03*
X043725Y011493D03*
X043975Y011118D03*
X044225Y010743D03*
X042975Y009118D03*
X043225Y007868D03*
X040475Y012118D03*
X039350Y012118D03*
X038850Y012118D03*
X042725Y016493D03*
X041600Y018243D03*
X040850Y018493D03*
X042725Y018618D03*
X049600Y018368D03*
X054100Y014118D03*
X054600Y013868D03*
X056725Y011868D03*
X058100Y011868D03*
X058475Y011243D03*
X060100Y011868D03*
X060600Y011868D03*
X061600Y011868D03*
X062350Y014118D03*
X066475Y011243D03*
X068350Y007618D03*
X054100Y005618D03*
X053850Y004118D03*
X052350Y004118D03*
X052600Y006868D03*
X049850Y009118D03*
X032100Y006868D03*
X029100Y007868D03*
X027600Y009118D03*
X027850Y010368D03*
X026225Y010243D03*
X025475Y009993D03*
X025475Y010493D03*
X028350Y011618D03*
X029600Y011243D03*
X030350Y009868D03*
X031600Y013118D03*
X030850Y014868D03*
X030475Y015118D03*
X030100Y014618D03*
X028975Y015368D03*
X029725Y016743D03*
X020475Y024868D03*
X016100Y023118D03*
X015100Y023118D03*
X014850Y021868D03*
X013975Y021493D03*
X012850Y019868D03*
X011100Y021243D03*
X011100Y022118D03*
X010225Y023118D03*
X009475Y023618D03*
X009475Y024118D03*
X007350Y023493D03*
X006850Y023493D03*
X007350Y021868D03*
X006850Y020868D03*
X008475Y020243D03*
X006600Y019618D03*
X003100Y021368D03*
X003100Y022118D03*
X003975Y023118D03*
X004850Y024118D03*
X010600Y019618D03*
X014350Y025118D03*
X014350Y025868D03*
X016850Y037368D03*
X048350Y026368D03*
X048725Y026618D03*
X064600Y037868D03*
X066600Y037618D03*
X068350Y035868D03*
X068850Y042118D03*
X068850Y042868D03*
X066850Y042868D03*
X018350Y007868D03*
X018350Y005618D03*
X018350Y004118D03*
X020225Y004868D03*
X021975Y004868D03*
X022600Y004868D03*
X022600Y004118D03*
D71*
X036850Y027118D03*
X044850Y028368D03*
X044850Y029618D03*
X046100Y030118D03*
X037350Y035118D03*
X037350Y036368D03*
X067100Y033618D03*
D72*
X064100Y031618D03*
X061100Y034118D03*
X061100Y034868D03*
X058600Y034118D03*
X056350Y035618D03*
X057100Y037118D03*
X057850Y037118D03*
X058600Y037118D03*
X059350Y037118D03*
X060100Y037118D03*
X053600Y038868D03*
X052600Y038868D03*
X052850Y032118D03*
X053850Y032118D03*
X054850Y032118D03*
M02*
