%
M48
M72
T01C0.0150
T02C0.0236
T03C0.0354
T04C0.0400
T05C0.0591
T06C0.1260
%
T01
X8151Y6030
X15651Y6030
X23151Y6030
X30651Y6030
X37151Y13280
X38651Y14030
X38651Y16280
X43401Y10030
X43901Y9530
X43901Y6780
X43401Y6780
X44901Y5030
X44901Y2780
X43401Y2030
X55651Y2280
X57401Y2780
X57401Y5030
X56401Y9780
X55901Y9780
X59401Y11030
X60651Y13030
X60651Y13530
X60651Y14030
X60651Y14530
X60651Y15530
X60651Y16030
X60651Y16530
X60651Y17030
X60651Y17530
X60651Y18030
X60651Y18530
X60651Y19030
X60651Y21030
X60651Y21530
X60651Y22030
X60651Y22530
X60651Y23030
X61401Y23030
X61901Y23530
X62401Y23530
X62401Y23030
X61401Y22530
X62901Y22030
X63901Y21530
X64401Y21030
X66401Y24030
X60651Y24030
X52151Y31280
X54151Y33530
X54401Y34780
X57151Y34030
X58901Y33030
X56401Y31530
X54401Y37530
X55151Y38030
X51151Y38030
X50401Y37530
X46401Y37530
X43151Y38030
X42401Y37530
X57901Y44530
X59901Y44530
X59901Y43780
X25151Y26530
X49151Y15780
X51151Y16280
X51151Y14030
X49651Y13280
X55651Y15030
X55901Y12280
X56401Y12280
T02
X55651Y15030
X55151Y15030
X54651Y15030
X54151Y15030
X53651Y15030
X53151Y15030
X43151Y15030
X42651Y15030
X42151Y15030
X41651Y15030
X41151Y15030
X40651Y15030
X46901Y3780
X47401Y3780
X47901Y3780
X48401Y3780
X48901Y3780
X49401Y3780
X59401Y3780
X59901Y3780
X60401Y3780
X60901Y3780
X61401Y3780
X61901Y3780
T03
X29082Y2796
X26720Y2796
X26720Y4764
X29082Y4764
X21582Y4764
X19220Y4764
X19220Y2796
X21582Y2796
X14082Y2796
X11720Y2796
X11720Y4764
X14082Y4764
X6582Y4764
X4220Y4764
X4220Y2796
X6582Y2796
X61970Y36296
X61970Y38264
X64332Y38264
X64332Y36296
T04
X39151Y37280
X38151Y37280
X38151Y38280
X39151Y38280
X39151Y39280
X38151Y39280
X38151Y40280
X39151Y40280
X39151Y41280
X38151Y41280
X38151Y42280
X39151Y42280
X39151Y43280
X38151Y43280
X38151Y44280
X39151Y44280
X26151Y24280
X25151Y24280
X24151Y24280
X23151Y24280
X22151Y24280
X21151Y24280
X20151Y24280
X19151Y24280
X18151Y24280
X17151Y24280
X16151Y24280
X15151Y24280
X14151Y24280
X13151Y24280
X12151Y24280
X11151Y24280
X10151Y24280
X9151Y24280
X8151Y24280
X7151Y24280
X65901Y18530
X66901Y18530
X66901Y17530
X65901Y17530
X65901Y16530
X66901Y16530
X66901Y15530
X65901Y15530
X65901Y14530
X66901Y14530
X66901Y13530
X65901Y13530
X65901Y12530
X66901Y12530
X66901Y11530
X65901Y11530
X65901Y10530
X66901Y10530
X66901Y9530
X65901Y9530
X65901Y8530
X66901Y8530
X66901Y7530
X65901Y7530
X65901Y6530
X66901Y6530
X66901Y5530
X65901Y5530
T05
X55084Y41170
X55084Y43335
X54297Y44280
X51084Y43335
X50297Y44280
X47084Y43335
X46297Y44280
X43084Y43335
X42297Y44280
X43084Y41170
X47084Y41170
X51084Y41170
T06
X1151Y2280
X1151Y44280
X67151Y44280
X67151Y2280
M30
