G75*
G70*
%OFA0B0*%
%FSLAX24Y24*%
%IPPOS*%
%LPD*%
%AMOC8*
5,1,8,0,0,1.08239X$1,22.5*
%
%ADD10C,0.1340*%
%ADD11R,0.0710X0.0867*%
%ADD12C,0.0178*%
%ADD13R,0.0680X0.0680*%
%ADD14OC8,0.0680*%
%ADD15R,0.0395X0.0434*%
%ADD16R,0.2180X0.0840*%
%ADD17R,0.0434X0.0395*%
%ADD18C,0.0474*%
%ADD19R,0.0671X0.0237*%
%ADD20R,0.0946X0.0316*%
%ADD21R,0.0631X0.0828*%
%ADD22OC8,0.0623*%
%ADD23OC8,0.0877*%
%ADD24C,0.0641*%
%ADD25C,0.1386*%
%ADD26R,0.0440X0.0930*%
%ADD27R,0.4332X0.4178*%
%ADD28R,0.1080X0.1080*%
%ADD29OC8,0.1080*%
%ADD30R,0.2245X0.1852*%
%ADD31R,0.0631X0.0789*%
%ADD32R,0.0710X0.1143*%
%ADD33R,0.0560X0.0960*%
%ADD34R,0.1497X0.0946*%
%ADD35R,0.0828X0.0631*%
%ADD36OC8,0.0671*%
%ADD37R,0.0552X0.1655*%
%ADD38R,0.0356X0.1655*%
%ADD39R,0.0552X0.1580*%
%ADD40R,0.0867X0.1182*%
%ADD41C,0.0513*%
%ADD42C,0.0710*%
%ADD43C,0.0671*%
%ADD44C,0.0867*%
%ADD45R,0.0671X0.0671*%
%ADD46C,0.0966*%
%ADD47R,0.0316X0.0946*%
%ADD48R,0.0960X0.0560*%
%ADD49R,0.0946X0.1497*%
%ADD50R,0.0789X0.0631*%
%ADD51R,0.0946X0.0867*%
%ADD52R,0.0474X0.0631*%
%ADD53C,0.0080*%
%ADD54C,0.0134*%
%ADD55R,0.0237X0.0710*%
%ADD56R,0.0620X0.0620*%
%ADD57OC8,0.0620*%
%ADD58R,0.1261X0.0710*%
%ADD59R,0.0198X0.0710*%
%ADD60R,0.0710X0.0198*%
%ADD61R,0.0552X0.0552*%
%ADD62R,0.0671X0.0198*%
%ADD63R,0.0434X0.0316*%
%ADD64OC8,0.0966*%
%ADD65R,0.0946X0.1104*%
%ADD66R,0.1025X0.1104*%
%ADD67R,0.0276X0.0689*%
%ADD68R,0.0531X0.0492*%
%ADD69R,0.0531X0.0512*%
%ADD70R,0.0276X0.0669*%
%ADD71C,0.0350*%
%ADD72C,0.0493*%
%ADD73C,0.0436*%
D10*
X001150Y004368D03*
X001150Y046368D03*
X037650Y046368D03*
X067150Y046368D03*
X067150Y032368D03*
X067150Y004368D03*
D11*
X043150Y004305D03*
X043150Y006431D03*
D12*
X040382Y016083D02*
X040382Y016575D01*
X040185Y016575D02*
X040185Y016083D01*
X039989Y016083D02*
X039989Y016575D01*
X039792Y016575D02*
X039792Y016083D01*
X039595Y016083D02*
X039595Y016575D01*
X039398Y016575D02*
X039398Y016083D01*
X039201Y016083D02*
X039201Y016575D01*
X039004Y016575D02*
X039004Y016083D01*
X038807Y016083D02*
X038807Y016575D01*
X038611Y016575D02*
X038611Y016083D01*
X038414Y016083D02*
X038414Y016575D01*
X038217Y016575D02*
X038217Y016083D01*
X038020Y016083D02*
X038020Y016575D01*
X037823Y016575D02*
X037823Y016083D01*
X037626Y016083D02*
X037626Y016575D01*
X037430Y016575D02*
X037430Y016083D01*
X037233Y016083D02*
X037233Y016575D01*
X037036Y016575D02*
X037036Y016083D01*
X036839Y016083D02*
X036839Y016575D01*
X036642Y016575D02*
X036642Y016083D01*
X036445Y016083D02*
X036445Y016575D01*
X036248Y016575D02*
X036248Y016083D01*
X036052Y016083D02*
X036052Y016575D01*
X035855Y016575D02*
X035855Y016083D01*
X035658Y016083D02*
X035658Y016575D01*
X035461Y016575D02*
X035461Y016083D01*
X035264Y016083D02*
X035264Y016575D01*
X035067Y016575D02*
X035067Y016083D01*
X034870Y016083D02*
X034870Y016575D01*
X034674Y016575D02*
X034674Y016083D01*
X034477Y016083D02*
X034477Y016575D01*
X034280Y016575D02*
X034280Y016083D01*
X034083Y016083D02*
X034083Y016575D01*
X033886Y016575D02*
X033886Y016083D01*
X033689Y016083D02*
X033689Y016575D01*
X033493Y016575D02*
X033493Y016083D01*
X033296Y016083D02*
X033296Y016575D01*
X033099Y016575D02*
X033099Y016083D01*
X032902Y016083D02*
X032902Y016575D01*
X032705Y016575D02*
X032705Y016083D01*
X032508Y016083D02*
X032508Y016575D01*
X032311Y016575D02*
X032311Y016083D01*
X032115Y016083D02*
X032115Y016575D01*
X031918Y016575D02*
X031918Y016083D01*
X031357Y017136D02*
X030865Y017136D01*
X030865Y017333D02*
X031357Y017333D01*
X031357Y017530D02*
X030865Y017530D01*
X030865Y017727D02*
X031357Y017727D01*
X031357Y017923D02*
X030865Y017923D01*
X030865Y018120D02*
X031357Y018120D01*
X031357Y018317D02*
X030865Y018317D01*
X030865Y018514D02*
X031357Y018514D01*
X031357Y018711D02*
X030865Y018711D01*
X030865Y018908D02*
X031357Y018908D01*
X031357Y019105D02*
X030865Y019105D01*
X030865Y019301D02*
X031357Y019301D01*
X031357Y019498D02*
X030865Y019498D01*
X030865Y019695D02*
X031357Y019695D01*
X031357Y019892D02*
X030865Y019892D01*
X030865Y020089D02*
X031357Y020089D01*
X031357Y020286D02*
X030865Y020286D01*
X030865Y020483D02*
X031357Y020483D01*
X031357Y020679D02*
X030865Y020679D01*
X030865Y020876D02*
X031357Y020876D01*
X031357Y021073D02*
X030865Y021073D01*
X030865Y021270D02*
X031357Y021270D01*
X031357Y021467D02*
X030865Y021467D01*
X030865Y021664D02*
X031357Y021664D01*
X031357Y021860D02*
X030865Y021860D01*
X030865Y022057D02*
X031357Y022057D01*
X031357Y022254D02*
X030865Y022254D01*
X030865Y022451D02*
X031357Y022451D01*
X031357Y022648D02*
X030865Y022648D01*
X030865Y022845D02*
X031357Y022845D01*
X031357Y023042D02*
X030865Y023042D01*
X030865Y023238D02*
X031357Y023238D01*
X031357Y023435D02*
X030865Y023435D01*
X030865Y023632D02*
X031357Y023632D01*
X031357Y023829D02*
X030865Y023829D01*
X030865Y024026D02*
X031357Y024026D01*
X031357Y024223D02*
X030865Y024223D01*
X030865Y024420D02*
X031357Y024420D01*
X031357Y024616D02*
X030865Y024616D01*
X030865Y024813D02*
X031357Y024813D01*
X031357Y025010D02*
X030865Y025010D01*
X030865Y025207D02*
X031357Y025207D01*
X031357Y025404D02*
X030865Y025404D01*
X030865Y025601D02*
X031357Y025601D01*
X031918Y026162D02*
X031918Y026654D01*
X032115Y026654D02*
X032115Y026162D01*
X032311Y026162D02*
X032311Y026654D01*
X032508Y026654D02*
X032508Y026162D01*
X032705Y026162D02*
X032705Y026654D01*
X032902Y026654D02*
X032902Y026162D01*
X033099Y026162D02*
X033099Y026654D01*
X033296Y026654D02*
X033296Y026162D01*
X033493Y026162D02*
X033493Y026654D01*
X033689Y026654D02*
X033689Y026162D01*
X033886Y026162D02*
X033886Y026654D01*
X034083Y026654D02*
X034083Y026162D01*
X034280Y026162D02*
X034280Y026654D01*
X034477Y026654D02*
X034477Y026162D01*
X034674Y026162D02*
X034674Y026654D01*
X034870Y026654D02*
X034870Y026162D01*
X035067Y026162D02*
X035067Y026654D01*
X035264Y026654D02*
X035264Y026162D01*
X035461Y026162D02*
X035461Y026654D01*
X035658Y026654D02*
X035658Y026162D01*
X035855Y026162D02*
X035855Y026654D01*
X036052Y026654D02*
X036052Y026162D01*
X036248Y026162D02*
X036248Y026654D01*
X036445Y026654D02*
X036445Y026162D01*
X036642Y026162D02*
X036642Y026654D01*
X036839Y026654D02*
X036839Y026162D01*
X037036Y026162D02*
X037036Y026654D01*
X037233Y026654D02*
X037233Y026162D01*
X037430Y026162D02*
X037430Y026654D01*
X037626Y026654D02*
X037626Y026162D01*
X037823Y026162D02*
X037823Y026654D01*
X038020Y026654D02*
X038020Y026162D01*
X038217Y026162D02*
X038217Y026654D01*
X038414Y026654D02*
X038414Y026162D01*
X038611Y026162D02*
X038611Y026654D01*
X038807Y026654D02*
X038807Y026162D01*
X039004Y026162D02*
X039004Y026654D01*
X039201Y026654D02*
X039201Y026162D01*
X039398Y026162D02*
X039398Y026654D01*
X039595Y026654D02*
X039595Y026162D01*
X039792Y026162D02*
X039792Y026654D01*
X039989Y026654D02*
X039989Y026162D01*
X040185Y026162D02*
X040185Y026654D01*
X040382Y026654D02*
X040382Y026162D01*
X040943Y025601D02*
X041435Y025601D01*
X041435Y025404D02*
X040943Y025404D01*
X040943Y025207D02*
X041435Y025207D01*
X041435Y025010D02*
X040943Y025010D01*
X040943Y024813D02*
X041435Y024813D01*
X041435Y024616D02*
X040943Y024616D01*
X040943Y024420D02*
X041435Y024420D01*
X041435Y024223D02*
X040943Y024223D01*
X040943Y024026D02*
X041435Y024026D01*
X041435Y023829D02*
X040943Y023829D01*
X040943Y023632D02*
X041435Y023632D01*
X041435Y023435D02*
X040943Y023435D01*
X040943Y023238D02*
X041435Y023238D01*
X041435Y023042D02*
X040943Y023042D01*
X040943Y022845D02*
X041435Y022845D01*
X041435Y022648D02*
X040943Y022648D01*
X040943Y022451D02*
X041435Y022451D01*
X041435Y022254D02*
X040943Y022254D01*
X040943Y022057D02*
X041435Y022057D01*
X041435Y021860D02*
X040943Y021860D01*
X040943Y021664D02*
X041435Y021664D01*
X041435Y021467D02*
X040943Y021467D01*
X040943Y021270D02*
X041435Y021270D01*
X041435Y021073D02*
X040943Y021073D01*
X040943Y020876D02*
X041435Y020876D01*
X041435Y020679D02*
X040943Y020679D01*
X040943Y020483D02*
X041435Y020483D01*
X041435Y020286D02*
X040943Y020286D01*
X040943Y020089D02*
X041435Y020089D01*
X041435Y019892D02*
X040943Y019892D01*
X040943Y019695D02*
X041435Y019695D01*
X041435Y019498D02*
X040943Y019498D01*
X040943Y019301D02*
X041435Y019301D01*
X041435Y019105D02*
X040943Y019105D01*
X040943Y018908D02*
X041435Y018908D01*
X041435Y018711D02*
X040943Y018711D01*
X040943Y018514D02*
X041435Y018514D01*
X041435Y018317D02*
X040943Y018317D01*
X040943Y018120D02*
X041435Y018120D01*
X041435Y017923D02*
X040943Y017923D01*
X040943Y017727D02*
X041435Y017727D01*
X041435Y017530D02*
X040943Y017530D01*
X040943Y017333D02*
X041435Y017333D01*
X041435Y017136D02*
X040943Y017136D01*
X048231Y021923D02*
X048723Y021923D01*
X048723Y022120D02*
X048231Y022120D01*
X048231Y022317D02*
X048723Y022317D01*
X048723Y022514D02*
X048231Y022514D01*
X048231Y022711D02*
X048723Y022711D01*
X048723Y022908D02*
X048231Y022908D01*
X048231Y023105D02*
X048723Y023105D01*
X048723Y023301D02*
X048231Y023301D01*
X048231Y023498D02*
X048723Y023498D01*
X048723Y023695D02*
X048231Y023695D01*
X048231Y023892D02*
X048723Y023892D01*
X048723Y024089D02*
X048231Y024089D01*
X048231Y024286D02*
X048723Y024286D01*
X048723Y024483D02*
X048231Y024483D01*
X048231Y024679D02*
X048723Y024679D01*
X048723Y024876D02*
X048231Y024876D01*
X048231Y025073D02*
X048723Y025073D01*
X048723Y025270D02*
X048231Y025270D01*
X048231Y025467D02*
X048723Y025467D01*
X048723Y025664D02*
X048231Y025664D01*
X048231Y025860D02*
X048723Y025860D01*
X048723Y026057D02*
X048231Y026057D01*
X048231Y026254D02*
X048723Y026254D01*
X048723Y026451D02*
X048231Y026451D01*
X048231Y026648D02*
X048723Y026648D01*
X048723Y026845D02*
X048231Y026845D01*
X048231Y027042D02*
X048723Y027042D01*
X048723Y027238D02*
X048231Y027238D01*
X048231Y027435D02*
X048723Y027435D01*
X048723Y027632D02*
X048231Y027632D01*
X048231Y027829D02*
X048723Y027829D01*
X048723Y028026D02*
X048231Y028026D01*
X048231Y028223D02*
X048723Y028223D01*
X048723Y028420D02*
X048231Y028420D01*
X048231Y028616D02*
X048723Y028616D01*
X048723Y028813D02*
X048231Y028813D01*
X049205Y029296D02*
X049205Y029788D01*
X049402Y029788D02*
X049402Y029296D01*
X049599Y029296D02*
X049599Y029788D01*
X049796Y029788D02*
X049796Y029296D01*
X049993Y029296D02*
X049993Y029788D01*
X050189Y029788D02*
X050189Y029296D01*
X050386Y029296D02*
X050386Y029788D01*
X050583Y029788D02*
X050583Y029296D01*
X050780Y029296D02*
X050780Y029788D01*
X050977Y029788D02*
X050977Y029296D01*
X051174Y029296D02*
X051174Y029788D01*
X051370Y029788D02*
X051370Y029296D01*
X051567Y029296D02*
X051567Y029788D01*
X051764Y029788D02*
X051764Y029296D01*
X051961Y029296D02*
X051961Y029788D01*
X052158Y029788D02*
X052158Y029296D01*
X052355Y029296D02*
X052355Y029788D01*
X052552Y029788D02*
X052552Y029296D01*
X052748Y029296D02*
X052748Y029788D01*
X052945Y029788D02*
X052945Y029296D01*
X053142Y029296D02*
X053142Y029788D01*
X053339Y029788D02*
X053339Y029296D01*
X053536Y029296D02*
X053536Y029788D01*
X053733Y029788D02*
X053733Y029296D01*
X053930Y029296D02*
X053930Y029788D01*
X054126Y029788D02*
X054126Y029296D01*
X054323Y029296D02*
X054323Y029788D01*
X054520Y029788D02*
X054520Y029296D01*
X054717Y029296D02*
X054717Y029788D01*
X054914Y029788D02*
X054914Y029296D01*
X055111Y029296D02*
X055111Y029788D01*
X055307Y029788D02*
X055307Y029296D01*
X055504Y029296D02*
X055504Y029788D01*
X055701Y029788D02*
X055701Y029296D01*
X055898Y029296D02*
X055898Y029788D01*
X056095Y029788D02*
X056095Y029296D01*
X056577Y028813D02*
X057069Y028813D01*
X057069Y028616D02*
X056577Y028616D01*
X056577Y028420D02*
X057069Y028420D01*
X057069Y028223D02*
X056577Y028223D01*
X056577Y028026D02*
X057069Y028026D01*
X057069Y027829D02*
X056577Y027829D01*
X056577Y027632D02*
X057069Y027632D01*
X057069Y027435D02*
X056577Y027435D01*
X056577Y027238D02*
X057069Y027238D01*
X057069Y027042D02*
X056577Y027042D01*
X056577Y026845D02*
X057069Y026845D01*
X057069Y026648D02*
X056577Y026648D01*
X056577Y026451D02*
X057069Y026451D01*
X057069Y026254D02*
X056577Y026254D01*
X056577Y026057D02*
X057069Y026057D01*
X057069Y025860D02*
X056577Y025860D01*
X056577Y025664D02*
X057069Y025664D01*
X057069Y025467D02*
X056577Y025467D01*
X056577Y025270D02*
X057069Y025270D01*
X057069Y025073D02*
X056577Y025073D01*
X056577Y024876D02*
X057069Y024876D01*
X057069Y024679D02*
X056577Y024679D01*
X056577Y024483D02*
X057069Y024483D01*
X057069Y024286D02*
X056577Y024286D01*
X056577Y024089D02*
X057069Y024089D01*
X057069Y023892D02*
X056577Y023892D01*
X056577Y023695D02*
X057069Y023695D01*
X057069Y023498D02*
X056577Y023498D01*
X056577Y023301D02*
X057069Y023301D01*
X057069Y023105D02*
X056577Y023105D01*
X056577Y022908D02*
X057069Y022908D01*
X057069Y022711D02*
X056577Y022711D01*
X056577Y022514D02*
X057069Y022514D01*
X057069Y022317D02*
X056577Y022317D01*
X056577Y022120D02*
X057069Y022120D01*
X057069Y021923D02*
X056577Y021923D01*
X056095Y021441D02*
X056095Y020949D01*
X055898Y020949D02*
X055898Y021441D01*
X055701Y021441D02*
X055701Y020949D01*
X055504Y020949D02*
X055504Y021441D01*
X055307Y021441D02*
X055307Y020949D01*
X055111Y020949D02*
X055111Y021441D01*
X054914Y021441D02*
X054914Y020949D01*
X054717Y020949D02*
X054717Y021441D01*
X054520Y021441D02*
X054520Y020949D01*
X054323Y020949D02*
X054323Y021441D01*
X054126Y021441D02*
X054126Y020949D01*
X053930Y020949D02*
X053930Y021441D01*
X053733Y021441D02*
X053733Y020949D01*
X053536Y020949D02*
X053536Y021441D01*
X053339Y021441D02*
X053339Y020949D01*
X053142Y020949D02*
X053142Y021441D01*
X052945Y021441D02*
X052945Y020949D01*
X052748Y020949D02*
X052748Y021441D01*
X052552Y021441D02*
X052552Y020949D01*
X052355Y020949D02*
X052355Y021441D01*
X052158Y021441D02*
X052158Y020949D01*
X051961Y020949D02*
X051961Y021441D01*
X051764Y021441D02*
X051764Y020949D01*
X051567Y020949D02*
X051567Y021441D01*
X051370Y021441D02*
X051370Y020949D01*
X051174Y020949D02*
X051174Y021441D01*
X050977Y021441D02*
X050977Y020949D01*
X050780Y020949D02*
X050780Y021441D01*
X050583Y021441D02*
X050583Y020949D01*
X050386Y020949D02*
X050386Y021441D01*
X050189Y021441D02*
X050189Y020949D01*
X049993Y020949D02*
X049993Y021441D01*
X049796Y021441D02*
X049796Y020949D01*
X049599Y020949D02*
X049599Y021441D01*
X049402Y021441D02*
X049402Y020949D01*
X049205Y020949D02*
X049205Y021441D01*
D13*
X065650Y025868D03*
X045650Y004868D03*
X001650Y023368D03*
D14*
X002650Y023368D03*
X002650Y022368D03*
X001650Y022368D03*
X001650Y021368D03*
X001650Y020368D03*
X002650Y020368D03*
X002650Y021368D03*
X002650Y019368D03*
X001650Y019368D03*
X001650Y018368D03*
X002650Y018368D03*
X002650Y017368D03*
X001650Y017368D03*
X001650Y016368D03*
X002650Y016368D03*
X002650Y015368D03*
X001650Y015368D03*
X045650Y005868D03*
X046650Y005868D03*
X047650Y005868D03*
X047650Y004868D03*
X046650Y004868D03*
X048650Y004868D03*
X049650Y004868D03*
X049650Y005868D03*
X048650Y005868D03*
X065650Y012868D03*
X066650Y012868D03*
X066650Y013868D03*
X065650Y013868D03*
X065650Y014868D03*
X066650Y014868D03*
X066650Y015868D03*
X065650Y015868D03*
X065650Y016868D03*
X066650Y016868D03*
X066650Y017868D03*
X065650Y017868D03*
X065650Y018868D03*
X066650Y018868D03*
X066650Y019868D03*
X065650Y019868D03*
X065650Y020868D03*
X066650Y020868D03*
X066650Y021868D03*
X065650Y021868D03*
X065650Y022868D03*
X066650Y022868D03*
X066650Y023868D03*
X065650Y023868D03*
X065650Y024868D03*
X066650Y024868D03*
X066650Y025868D03*
X065400Y046368D03*
D15*
X053900Y034043D03*
X053900Y033443D03*
X052900Y033443D03*
X052900Y034043D03*
X051900Y034043D03*
X051900Y033443D03*
X035900Y034068D03*
X035150Y034068D03*
X035150Y034668D03*
X035900Y034668D03*
X028275Y034443D03*
X028275Y035043D03*
X022775Y035043D03*
X022775Y034443D03*
X016150Y034818D03*
X016150Y035418D03*
X016150Y033918D03*
X016150Y033318D03*
X016150Y031418D03*
X016150Y030818D03*
X016150Y029918D03*
X016150Y029318D03*
X012650Y029693D03*
X012650Y030293D03*
X012650Y031193D03*
X012650Y031793D03*
X012650Y032943D03*
X012650Y033543D03*
X012650Y034443D03*
X012650Y035043D03*
X009150Y034818D03*
X009150Y035418D03*
X009150Y033918D03*
X009150Y033318D03*
X009150Y031418D03*
X009150Y030818D03*
X009150Y029918D03*
X009150Y029318D03*
X005650Y029693D03*
X005650Y030293D03*
X005650Y031193D03*
X005650Y031793D03*
X005650Y032943D03*
X005650Y033543D03*
X005650Y034443D03*
X005650Y035043D03*
X018775Y025168D03*
X018775Y024568D03*
X021650Y022168D03*
X021650Y021568D03*
X021650Y018543D03*
X021650Y017943D03*
X020900Y017943D03*
X020900Y018543D03*
X016150Y018818D03*
X016150Y019418D03*
X016150Y020318D03*
X016150Y020918D03*
X012650Y020543D03*
X012650Y019943D03*
X012650Y019043D03*
X012650Y018443D03*
X012650Y017293D03*
X012650Y016693D03*
X012650Y015793D03*
X012650Y015193D03*
X016150Y015418D03*
X016150Y014818D03*
X016150Y016318D03*
X016150Y016918D03*
X005025Y015293D03*
X005025Y014693D03*
X005025Y022193D03*
X005025Y022793D03*
X032900Y014918D03*
X032900Y014318D03*
X033650Y014318D03*
X033650Y014918D03*
X035400Y007918D03*
X035400Y007318D03*
X033900Y007418D03*
X033900Y006818D03*
X033150Y006818D03*
X033150Y007418D03*
X032400Y007418D03*
X032400Y006818D03*
X040650Y005668D03*
X040650Y005068D03*
X044400Y004918D03*
X044400Y004318D03*
X044400Y005818D03*
X044400Y006418D03*
D16*
X050775Y017868D03*
X054525Y017868D03*
D17*
X052700Y011368D03*
X052100Y011368D03*
X052100Y010618D03*
X052700Y010618D03*
X052700Y009868D03*
X052100Y009868D03*
X052100Y009118D03*
X052700Y009118D03*
X052700Y008368D03*
X052100Y008368D03*
X052100Y007618D03*
X052700Y007618D03*
X046450Y006868D03*
X045850Y006868D03*
X028325Y018493D03*
X027725Y018493D03*
X021575Y017118D03*
X020975Y017118D03*
X015325Y015868D03*
X014725Y015868D03*
X013950Y015868D03*
X013350Y015868D03*
X013350Y015118D03*
X013950Y015118D03*
X013950Y014368D03*
X013350Y014368D03*
X014725Y014368D03*
X015325Y014368D03*
X015325Y015118D03*
X014725Y015118D03*
X007950Y015368D03*
X007350Y015368D03*
X006450Y015368D03*
X005850Y015368D03*
X005850Y014618D03*
X006450Y014618D03*
X007350Y014618D03*
X007950Y014618D03*
X007950Y019368D03*
X007350Y019368D03*
X007350Y020118D03*
X007950Y020118D03*
X006450Y020118D03*
X005850Y020118D03*
X005850Y019368D03*
X006450Y019368D03*
X006450Y022118D03*
X005850Y022118D03*
X005850Y022868D03*
X006450Y022868D03*
X007350Y022868D03*
X007950Y022868D03*
X007950Y022118D03*
X007350Y022118D03*
X013350Y021368D03*
X013950Y021368D03*
X013950Y020618D03*
X013350Y020618D03*
X013350Y019868D03*
X013950Y019868D03*
X014725Y019868D03*
X015325Y019868D03*
X015325Y020618D03*
X014725Y020618D03*
X014725Y021368D03*
X015325Y021368D03*
X022725Y023368D03*
X023325Y023368D03*
X026350Y024368D03*
X026950Y024368D03*
X034350Y027868D03*
X034950Y027868D03*
X041600Y030618D03*
X042200Y030618D03*
X042200Y031368D03*
X041600Y031368D03*
X042225Y032118D03*
X042825Y032118D03*
X042200Y032868D03*
X041600Y032868D03*
X042850Y036868D03*
X043450Y036868D03*
X043600Y039868D03*
X044200Y039868D03*
X042700Y039868D03*
X042100Y039868D03*
X027450Y035118D03*
X026850Y035118D03*
X026850Y034368D03*
X027450Y034368D03*
X025950Y034368D03*
X025350Y034368D03*
X025350Y035118D03*
X025950Y035118D03*
X021950Y035118D03*
X021350Y035118D03*
X020450Y035118D03*
X019850Y035118D03*
X019850Y034368D03*
X020450Y034368D03*
X021350Y034368D03*
X021950Y034368D03*
X021950Y030368D03*
X021350Y030368D03*
X021350Y029618D03*
X021950Y029618D03*
X020450Y029618D03*
X019850Y029618D03*
X019850Y030368D03*
X020450Y030368D03*
X025350Y030368D03*
X025950Y030368D03*
X025950Y029618D03*
X025350Y029618D03*
X026850Y029618D03*
X027450Y029618D03*
X027450Y030368D03*
X026850Y030368D03*
X015325Y030368D03*
X014725Y030368D03*
X014725Y029618D03*
X015325Y029618D03*
X015325Y028868D03*
X014725Y028868D03*
X013950Y028868D03*
X013350Y028868D03*
X013350Y029618D03*
X013950Y029618D03*
X013950Y030368D03*
X013350Y030368D03*
X008325Y030368D03*
X007725Y030368D03*
X007725Y029618D03*
X008325Y029618D03*
X008325Y028868D03*
X007725Y028868D03*
X006950Y028868D03*
X006350Y028868D03*
X006350Y029618D03*
X006950Y029618D03*
X006950Y030368D03*
X006350Y030368D03*
X006450Y027618D03*
X005850Y027618D03*
X005850Y026868D03*
X006450Y026868D03*
X007350Y026868D03*
X007950Y026868D03*
X007950Y027618D03*
X007350Y027618D03*
X007725Y034368D03*
X008325Y034368D03*
X008325Y035118D03*
X007725Y035118D03*
X007725Y035868D03*
X008325Y035868D03*
X006950Y035868D03*
X006350Y035868D03*
X006350Y035118D03*
X006950Y035118D03*
X006950Y034368D03*
X006350Y034368D03*
X013350Y034368D03*
X013950Y034368D03*
X014725Y034368D03*
X015325Y034368D03*
X015325Y035118D03*
X014725Y035118D03*
X014725Y035868D03*
X015325Y035868D03*
X013950Y035868D03*
X013350Y035868D03*
X013350Y035118D03*
X013950Y035118D03*
X017850Y008368D03*
X018450Y008368D03*
X018450Y007618D03*
X017850Y007618D03*
X017850Y006868D03*
X018450Y006868D03*
X018450Y006118D03*
X017850Y006118D03*
X017850Y005368D03*
X018450Y005368D03*
X018450Y004618D03*
X017850Y004618D03*
D18*
X036650Y027868D03*
X053525Y030368D03*
D19*
X049077Y035455D03*
X049077Y035711D03*
X049077Y035967D03*
X049077Y036223D03*
X049077Y036479D03*
X049077Y036734D03*
X049077Y036990D03*
X049077Y037246D03*
X049077Y037502D03*
X049077Y037758D03*
X049077Y038014D03*
X049077Y038270D03*
X049077Y038526D03*
X049077Y038782D03*
X046223Y038782D03*
X046223Y038526D03*
X046223Y038270D03*
X046223Y038014D03*
X046223Y037758D03*
X046223Y037502D03*
X046223Y037246D03*
X046223Y036990D03*
X046223Y036734D03*
X046223Y036479D03*
X046223Y036223D03*
X046223Y035967D03*
X046223Y035711D03*
X046223Y035455D03*
D20*
X044174Y037618D03*
X044174Y038118D03*
X044174Y038618D03*
X044174Y039118D03*
X042126Y039118D03*
X042126Y038618D03*
X042126Y038118D03*
X042126Y037618D03*
D21*
X042650Y035868D03*
X043650Y035868D03*
X023525Y024368D03*
X022525Y024368D03*
D22*
X047650Y040118D03*
X047650Y040906D03*
X047650Y041693D03*
X047650Y042481D03*
D23*
X046579Y042874D03*
X048721Y042874D03*
X048721Y040118D03*
X046579Y040118D03*
D24*
X052158Y040953D02*
X052158Y041514D01*
X053142Y041514D02*
X053142Y040953D01*
X053142Y042301D02*
X053142Y042862D01*
X052158Y042862D02*
X052158Y042301D01*
D25*
X050288Y043368D03*
X055012Y043368D03*
D26*
X056150Y035618D03*
X056650Y035618D03*
X057150Y035618D03*
X057650Y035618D03*
X058150Y035618D03*
X058650Y035618D03*
X059150Y035618D03*
D27*
X057650Y038868D03*
D28*
X058650Y041868D03*
D29*
X056650Y042993D03*
X058650Y044243D03*
X043583Y043652D03*
X043583Y045817D03*
X042796Y046762D03*
D30*
X063150Y037140D03*
X063150Y033597D03*
D31*
X057150Y033868D03*
X056150Y033868D03*
X052650Y038743D03*
X051650Y038743D03*
X038150Y037118D03*
X037150Y037118D03*
X037150Y035868D03*
X038150Y035868D03*
D32*
X058350Y033868D03*
X059450Y033868D03*
D33*
X053810Y037463D03*
X052900Y037463D03*
X051990Y037463D03*
D34*
X052900Y035023D03*
D35*
X053900Y038743D03*
X053900Y039743D03*
X040650Y035868D03*
X040650Y034868D03*
X040650Y033368D03*
X040650Y032368D03*
X035525Y035993D03*
X035525Y036993D03*
X020650Y022368D03*
X020650Y021368D03*
X011650Y019618D03*
X011650Y018618D03*
X011650Y017118D03*
X011650Y016118D03*
X011650Y030618D03*
X011650Y031618D03*
X011650Y033118D03*
X011650Y034118D03*
X004650Y034118D03*
X004650Y033118D03*
X004650Y031618D03*
X004650Y030618D03*
D36*
X062158Y040384D03*
X063142Y040384D03*
X063142Y041368D03*
X062158Y041368D03*
X062158Y042353D03*
X063142Y042353D03*
D37*
X061867Y013723D03*
X060882Y013723D03*
X059898Y013723D03*
X058914Y013723D03*
X057930Y013723D03*
X056945Y013723D03*
X055961Y013723D03*
D38*
X055331Y013723D03*
X054819Y013723D03*
X054347Y013723D03*
D39*
X062851Y013723D03*
D40*
X063756Y013014D03*
X053678Y012975D03*
X053717Y004786D03*
X064701Y004786D03*
D41*
X054583Y012542D03*
D42*
X062890Y012542D03*
D43*
X044400Y031618D03*
X044400Y032618D03*
X044400Y033618D03*
D44*
X044400Y030368D03*
D45*
X041650Y006057D03*
X041650Y004679D03*
D46*
X015496Y005238D03*
X015496Y007738D03*
X015496Y010238D03*
X010996Y010238D03*
X008496Y010238D03*
X008496Y007738D03*
X010996Y007738D03*
X010996Y005238D03*
X008496Y005238D03*
X003996Y005238D03*
X003996Y007738D03*
X003996Y010238D03*
X002804Y040498D03*
X002804Y042998D03*
X002804Y045498D03*
X007304Y045498D03*
X007304Y042998D03*
X007304Y040498D03*
D47*
X007400Y033392D03*
X006900Y033392D03*
X006400Y033392D03*
X007900Y033392D03*
X007900Y031345D03*
X007400Y031345D03*
X006900Y031345D03*
X006400Y031345D03*
X013400Y031345D03*
X013900Y031345D03*
X014400Y031345D03*
X014900Y031345D03*
X014900Y033392D03*
X014400Y033392D03*
X013900Y033392D03*
X013400Y033392D03*
X019900Y033392D03*
X020400Y033392D03*
X020900Y033392D03*
X021400Y033392D03*
X021400Y031345D03*
X020900Y031345D03*
X020400Y031345D03*
X019900Y031345D03*
X025400Y031345D03*
X025900Y031345D03*
X026400Y031345D03*
X026900Y031345D03*
X026900Y033392D03*
X026400Y033392D03*
X025900Y033392D03*
X025400Y033392D03*
X020900Y025892D03*
X020400Y025892D03*
X019900Y025892D03*
X019400Y025892D03*
X019400Y023845D03*
X019900Y023845D03*
X020400Y023845D03*
X020900Y023845D03*
X014900Y018892D03*
X014400Y018892D03*
X013900Y018892D03*
X013400Y018892D03*
X013400Y016845D03*
X013900Y016845D03*
X014400Y016845D03*
X014900Y016845D03*
X007900Y016345D03*
X007400Y016345D03*
X006900Y016345D03*
X006400Y016345D03*
X006400Y018392D03*
X006900Y018392D03*
X007400Y018392D03*
X007900Y018392D03*
X007900Y023845D03*
X007400Y023845D03*
X006900Y023845D03*
X006400Y023845D03*
X006400Y025892D03*
X006900Y025892D03*
X007400Y025892D03*
X007900Y025892D03*
X039150Y027595D03*
X039650Y027595D03*
X040150Y027595D03*
X040650Y027595D03*
X040650Y029642D03*
X040150Y029642D03*
X039650Y029642D03*
X039150Y029642D03*
D48*
X039370Y031958D03*
X039370Y032868D03*
X039370Y033778D03*
D49*
X036930Y032868D03*
D50*
X039400Y034868D03*
X039400Y035868D03*
X027900Y032868D03*
X027900Y031868D03*
X022400Y031868D03*
X022400Y032868D03*
X005400Y025368D03*
X005400Y024368D03*
X005400Y017868D03*
X005400Y016868D03*
D51*
X033150Y029218D03*
X033150Y030518D03*
D52*
X037776Y030801D03*
X038524Y030801D03*
X038150Y029935D03*
D53*
X037126Y029901D02*
X036735Y029901D01*
X036735Y029944D02*
X036713Y030093D01*
X036670Y030238D01*
X036607Y030374D01*
X036524Y030501D01*
X036424Y030614D01*
X036310Y030712D01*
X036182Y030792D01*
X036044Y030853D01*
X036044Y031345D01*
X037126Y031345D01*
X037126Y028392D01*
X036044Y028392D01*
X036044Y028884D01*
X036182Y028945D01*
X036310Y029025D01*
X036424Y029123D01*
X036524Y029236D01*
X036607Y029362D01*
X036670Y029499D01*
X036713Y029644D01*
X036735Y029793D01*
X036735Y029944D01*
X036729Y029980D02*
X037126Y029980D01*
X037126Y030058D02*
X036718Y030058D01*
X036700Y030137D02*
X037126Y030137D01*
X037126Y030215D02*
X036676Y030215D01*
X036644Y030294D02*
X037126Y030294D01*
X037126Y030372D02*
X036608Y030372D01*
X036557Y030451D02*
X037126Y030451D01*
X037126Y030529D02*
X036499Y030529D01*
X036430Y030608D02*
X037126Y030608D01*
X037126Y030686D02*
X036339Y030686D01*
X036225Y030765D02*
X037126Y030765D01*
X037126Y030843D02*
X036064Y030843D01*
X036044Y030922D02*
X037126Y030922D01*
X037126Y031000D02*
X036044Y031000D01*
X036044Y031079D02*
X037126Y031079D01*
X037126Y031157D02*
X036044Y031157D01*
X036044Y031236D02*
X037126Y031236D01*
X037126Y031314D02*
X036044Y031314D01*
X035256Y031314D02*
X034174Y031314D01*
X034174Y031345D02*
X035256Y031345D01*
X035256Y030853D01*
X035118Y030792D01*
X034990Y030712D01*
X034876Y030614D01*
X034776Y030501D01*
X034693Y030374D01*
X034630Y030238D01*
X034587Y030093D01*
X034565Y029944D01*
X034565Y029793D01*
X034587Y029644D01*
X034630Y029499D01*
X034693Y029362D01*
X034776Y029236D01*
X034876Y029123D01*
X034990Y029025D01*
X035118Y028945D01*
X035256Y028884D01*
X035256Y028392D01*
X034174Y028392D01*
X034174Y031345D01*
X034174Y031236D02*
X035256Y031236D01*
X035256Y031157D02*
X034174Y031157D01*
X034174Y031079D02*
X035256Y031079D01*
X035256Y031000D02*
X034174Y031000D01*
X034174Y030922D02*
X035256Y030922D01*
X035236Y030843D02*
X034174Y030843D01*
X034174Y030765D02*
X035075Y030765D01*
X034961Y030686D02*
X034174Y030686D01*
X034174Y030608D02*
X034870Y030608D01*
X034801Y030529D02*
X034174Y030529D01*
X034174Y030451D02*
X034743Y030451D01*
X034692Y030372D02*
X034174Y030372D01*
X034174Y030294D02*
X034656Y030294D01*
X034624Y030215D02*
X034174Y030215D01*
X034174Y030137D02*
X034600Y030137D01*
X034582Y030058D02*
X034174Y030058D01*
X034174Y029980D02*
X034571Y029980D01*
X034565Y029901D02*
X034174Y029901D01*
X034174Y029823D02*
X034565Y029823D01*
X034572Y029744D02*
X034174Y029744D01*
X034174Y029666D02*
X034584Y029666D01*
X034604Y029587D02*
X034174Y029587D01*
X034174Y029509D02*
X034627Y029509D01*
X034662Y029430D02*
X034174Y029430D01*
X034174Y029352D02*
X034700Y029352D01*
X034751Y029273D02*
X034174Y029273D01*
X034174Y029195D02*
X034812Y029195D01*
X034883Y029116D02*
X034174Y029116D01*
X034174Y029038D02*
X034975Y029038D01*
X035095Y028959D02*
X034174Y028959D01*
X034174Y028881D02*
X035256Y028881D01*
X035256Y028802D02*
X034174Y028802D01*
X034174Y028724D02*
X035256Y028724D01*
X035256Y028645D02*
X034174Y028645D01*
X034174Y028567D02*
X035256Y028567D01*
X035256Y028488D02*
X034174Y028488D01*
X034174Y028410D02*
X035256Y028410D01*
X036044Y028410D02*
X037126Y028410D01*
X037126Y028488D02*
X036044Y028488D01*
X036044Y028567D02*
X037126Y028567D01*
X037126Y028645D02*
X036044Y028645D01*
X036044Y028724D02*
X037126Y028724D01*
X037126Y028802D02*
X036044Y028802D01*
X036044Y028881D02*
X037126Y028881D01*
X037126Y028959D02*
X036205Y028959D01*
X036325Y029038D02*
X037126Y029038D01*
X037126Y029116D02*
X036417Y029116D01*
X036488Y029195D02*
X037126Y029195D01*
X037126Y029273D02*
X036549Y029273D01*
X036600Y029352D02*
X037126Y029352D01*
X037126Y029430D02*
X036638Y029430D01*
X036673Y029509D02*
X037126Y029509D01*
X037126Y029587D02*
X036696Y029587D01*
X036716Y029666D02*
X037126Y029666D01*
X037126Y029744D02*
X036728Y029744D01*
X036735Y029823D02*
X037126Y029823D01*
D54*
X032207Y028323D02*
X031593Y028323D01*
X031593Y028859D01*
X032207Y028859D01*
X032207Y028323D01*
X032207Y028456D02*
X031593Y028456D01*
X031593Y028589D02*
X032207Y028589D01*
X032207Y028722D02*
X031593Y028722D01*
X031593Y028855D02*
X032207Y028855D01*
X032207Y027378D02*
X031593Y027378D01*
X031593Y027914D01*
X032207Y027914D01*
X032207Y027378D01*
X032207Y027511D02*
X031593Y027511D01*
X031593Y027644D02*
X032207Y027644D01*
X032207Y027777D02*
X031593Y027777D01*
X031593Y027910D02*
X032207Y027910D01*
X031207Y027914D02*
X030593Y027914D01*
X031207Y027914D02*
X031207Y027378D01*
X030593Y027378D01*
X030593Y027914D01*
X030593Y027511D02*
X031207Y027511D01*
X031207Y027644D02*
X030593Y027644D01*
X030593Y027777D02*
X031207Y027777D01*
X031207Y027910D02*
X030593Y027910D01*
X030593Y028323D02*
X031207Y028323D01*
X030593Y028323D02*
X030593Y028859D01*
X031207Y028859D01*
X031207Y028323D01*
X031207Y028456D02*
X030593Y028456D01*
X030593Y028589D02*
X031207Y028589D01*
X031207Y028722D02*
X030593Y028722D01*
X030593Y028855D02*
X031207Y028855D01*
X028332Y017323D02*
X027718Y017323D01*
X027718Y017859D01*
X028332Y017859D01*
X028332Y017323D01*
X028332Y017456D02*
X027718Y017456D01*
X027718Y017589D02*
X028332Y017589D01*
X028332Y017722D02*
X027718Y017722D01*
X027718Y017855D02*
X028332Y017855D01*
X027332Y017323D02*
X026718Y017323D01*
X026718Y017859D01*
X027332Y017859D01*
X027332Y017323D01*
X027332Y017456D02*
X026718Y017456D01*
X026718Y017589D02*
X027332Y017589D01*
X027332Y017722D02*
X026718Y017722D01*
X026718Y017855D02*
X027332Y017855D01*
X027332Y016914D02*
X026718Y016914D01*
X027332Y016914D02*
X027332Y016378D01*
X026718Y016378D01*
X026718Y016914D01*
X026718Y016511D02*
X027332Y016511D01*
X027332Y016644D02*
X026718Y016644D01*
X026718Y016777D02*
X027332Y016777D01*
X027332Y016910D02*
X026718Y016910D01*
X027718Y016378D02*
X028332Y016378D01*
X027718Y016378D02*
X027718Y016914D01*
X028332Y016914D01*
X028332Y016378D01*
X028332Y016511D02*
X027718Y016511D01*
X027718Y016644D02*
X028332Y016644D01*
X028332Y016777D02*
X027718Y016777D01*
X027718Y016910D02*
X028332Y016910D01*
D55*
X036056Y013514D03*
X036370Y013514D03*
X036685Y013514D03*
X037000Y013514D03*
X037315Y013514D03*
X037630Y013514D03*
X037945Y013514D03*
X038260Y013514D03*
X038575Y013514D03*
X038890Y013514D03*
X039205Y013514D03*
X039520Y013514D03*
X039835Y013514D03*
X040150Y013514D03*
X040465Y013514D03*
X040780Y013514D03*
X041095Y013514D03*
X041410Y013514D03*
X041725Y013514D03*
X042040Y013514D03*
X042355Y013514D03*
X042670Y013514D03*
X042985Y013514D03*
X043300Y013514D03*
X043615Y013514D03*
X043930Y013514D03*
X044244Y013514D03*
X044244Y009223D03*
X043930Y009223D03*
X043615Y009223D03*
X043300Y009223D03*
X042985Y009223D03*
X042670Y009223D03*
X042355Y009223D03*
X042040Y009223D03*
X041725Y009223D03*
X041410Y009223D03*
X041095Y009223D03*
X040780Y009223D03*
X040465Y009223D03*
X040150Y009223D03*
X039835Y009223D03*
X039520Y009223D03*
X039205Y009223D03*
X038890Y009223D03*
X038575Y009223D03*
X038260Y009223D03*
X037945Y009223D03*
X037630Y009223D03*
X037315Y009223D03*
X037000Y009223D03*
X036685Y009223D03*
X036370Y009223D03*
X036056Y009223D03*
D56*
X033150Y004868D03*
D57*
X034150Y004868D03*
X035150Y004868D03*
X036150Y004868D03*
X037150Y004868D03*
X038150Y004868D03*
X039150Y004868D03*
X039150Y005868D03*
X038150Y005868D03*
X037150Y005868D03*
X036150Y005868D03*
X035150Y005868D03*
X034150Y005868D03*
X033150Y005868D03*
D58*
X041900Y028218D03*
X041900Y029518D03*
D59*
X026126Y022573D03*
X025930Y022573D03*
X025733Y022573D03*
X025536Y022573D03*
X025339Y022573D03*
X025142Y022573D03*
X024945Y022573D03*
X024748Y022573D03*
X024552Y022573D03*
X024355Y022573D03*
X024158Y022573D03*
X023961Y022573D03*
X023764Y022573D03*
X023567Y022573D03*
X023370Y022573D03*
X023174Y022573D03*
X023174Y018164D03*
X023370Y018164D03*
X023567Y018164D03*
X023764Y018164D03*
X023961Y018164D03*
X024158Y018164D03*
X024355Y018164D03*
X024552Y018164D03*
X024748Y018164D03*
X024945Y018164D03*
X025142Y018164D03*
X025339Y018164D03*
X025536Y018164D03*
X025733Y018164D03*
X025930Y018164D03*
X026126Y018164D03*
X059886Y021589D03*
X060083Y021589D03*
X060280Y021589D03*
X060477Y021589D03*
X060674Y021589D03*
X060870Y021589D03*
X061067Y021589D03*
X061264Y021589D03*
X061461Y021589D03*
X061658Y021589D03*
X061855Y021589D03*
X062052Y021589D03*
X062248Y021589D03*
X062445Y021589D03*
X062642Y021589D03*
X062839Y021589D03*
X063036Y021589D03*
X063233Y021589D03*
X063430Y021589D03*
X063626Y021589D03*
X063823Y021589D03*
X064020Y021589D03*
X064217Y021589D03*
X064414Y021589D03*
X064414Y029148D03*
X064217Y029148D03*
X064020Y029148D03*
X063823Y029148D03*
X063626Y029148D03*
X063430Y029148D03*
X063233Y029148D03*
X063036Y029148D03*
X062839Y029148D03*
X062642Y029148D03*
X062445Y029148D03*
X062248Y029148D03*
X062052Y029148D03*
X061855Y029148D03*
X061658Y029148D03*
X061461Y029148D03*
X061264Y029148D03*
X061067Y029148D03*
X060870Y029148D03*
X060674Y029148D03*
X060477Y029148D03*
X060280Y029148D03*
X060083Y029148D03*
X059886Y029148D03*
D60*
X026855Y021845D03*
X026855Y021648D03*
X026855Y021451D03*
X026855Y021254D03*
X026855Y021057D03*
X026855Y020860D03*
X026855Y020664D03*
X026855Y020467D03*
X026855Y020270D03*
X026855Y020073D03*
X026855Y019876D03*
X026855Y019679D03*
X026855Y019483D03*
X026855Y019286D03*
X026855Y019089D03*
X026855Y018892D03*
X022445Y018892D03*
X022445Y019089D03*
X022445Y019286D03*
X022445Y019483D03*
X022445Y019679D03*
X022445Y019876D03*
X022445Y020073D03*
X022445Y020270D03*
X022445Y020467D03*
X022445Y020664D03*
X022445Y020860D03*
X022445Y021057D03*
X022445Y021254D03*
X022445Y021451D03*
X022445Y021648D03*
X022445Y021845D03*
D61*
X035150Y032455D03*
X035900Y032455D03*
X035900Y033282D03*
X035150Y033282D03*
D62*
X028002Y013014D03*
X028002Y012758D03*
X028002Y012502D03*
X028002Y012246D03*
X028002Y011990D03*
X028002Y011734D03*
X028002Y011479D03*
X028002Y011223D03*
X025798Y011223D03*
X025798Y011479D03*
X025798Y011734D03*
X025798Y011990D03*
X025798Y012246D03*
X025798Y012502D03*
X025798Y012758D03*
X025798Y013014D03*
D63*
X020603Y005742D03*
X020603Y005368D03*
X020603Y004994D03*
X019697Y004994D03*
X019697Y005368D03*
X019697Y005742D03*
D64*
X021304Y039305D03*
X021804Y040557D03*
X021304Y041805D03*
X021804Y043057D03*
X021304Y044305D03*
X021804Y045555D03*
X023304Y044305D03*
X023804Y045555D03*
X024304Y046687D03*
X028804Y045555D03*
X028304Y044305D03*
X028804Y043057D03*
X028304Y041805D03*
X028804Y040557D03*
X028304Y039305D03*
X030304Y039305D03*
X030804Y040557D03*
X030304Y041805D03*
X030804Y043057D03*
X030304Y044305D03*
X030804Y045555D03*
X031304Y046687D03*
X035804Y045555D03*
X035304Y044305D03*
X035804Y043057D03*
X035304Y041805D03*
X035804Y040557D03*
X035304Y039305D03*
X023804Y040557D03*
X023304Y039305D03*
X023304Y041805D03*
X023804Y043057D03*
X017304Y046687D03*
X016804Y045555D03*
X016304Y044305D03*
X014804Y045555D03*
X014304Y044305D03*
X014804Y043057D03*
X014304Y041805D03*
X014804Y040557D03*
X014304Y039305D03*
X016304Y039305D03*
X016804Y040557D03*
X016304Y041805D03*
X016804Y043057D03*
X010304Y046687D03*
X009804Y045555D03*
X009304Y044305D03*
X009804Y043057D03*
X009304Y041805D03*
X009804Y040557D03*
X009304Y039305D03*
D65*
X065400Y042618D03*
X065400Y044618D03*
D66*
X066900Y038618D03*
X066900Y036118D03*
D67*
X066628Y040609D03*
D68*
X066500Y040018D03*
D69*
X066500Y041209D03*
X065300Y041209D03*
X065300Y040028D03*
D70*
X065172Y040618D03*
D71*
X065400Y039368D03*
X063650Y038618D03*
X066900Y036868D03*
X067150Y042618D03*
X066150Y043368D03*
X065400Y045618D03*
X057400Y041618D03*
X050150Y036618D03*
X049650Y037118D03*
X049900Y037618D03*
X048400Y037618D03*
X047775Y037368D03*
X047150Y037368D03*
X046900Y038118D03*
X045650Y037868D03*
X044900Y037618D03*
X043900Y036868D03*
X045650Y036618D03*
X045650Y034618D03*
X046150Y034118D03*
X048150Y034618D03*
X048900Y034618D03*
X049650Y035868D03*
X050400Y035118D03*
X051400Y034368D03*
X051275Y032493D03*
X050775Y032243D03*
X048900Y031618D03*
X048900Y030118D03*
X049650Y030243D03*
X050900Y030118D03*
X052025Y030368D03*
X052400Y030368D03*
X052400Y028868D03*
X052900Y028868D03*
X053400Y028868D03*
X054525Y028868D03*
X054900Y028868D03*
X053650Y027368D03*
X053150Y026618D03*
X054650Y026618D03*
X056150Y026618D03*
X056150Y027368D03*
X057400Y026368D03*
X057900Y026368D03*
X058275Y025993D03*
X057650Y025493D03*
X057650Y025118D03*
X057650Y024743D03*
X058025Y024743D03*
X058025Y024368D03*
X057900Y022618D03*
X057400Y022243D03*
X056150Y021993D03*
X056150Y022618D03*
X056150Y023493D03*
X054650Y022618D03*
X054775Y021868D03*
X054400Y021868D03*
X054025Y021868D03*
X053650Y021868D03*
X053275Y021868D03*
X052900Y021868D03*
X051775Y021868D03*
X051400Y021868D03*
X051025Y021868D03*
X050650Y021868D03*
X050275Y021868D03*
X049900Y021868D03*
X049525Y020618D03*
X049150Y020243D03*
X049900Y020243D03*
X050275Y020243D03*
X050900Y020243D03*
X051150Y019993D03*
X051400Y019743D03*
X050775Y018868D03*
X052650Y018868D03*
X053900Y020118D03*
X054525Y018868D03*
X055150Y021868D03*
X055525Y021868D03*
X052900Y023368D03*
X053900Y024118D03*
X053900Y024493D03*
X054525Y024993D03*
X054400Y025368D03*
X051400Y023368D03*
X049650Y023493D03*
X049150Y022993D03*
X047900Y022993D03*
X047900Y022618D03*
X047900Y022243D03*
X047900Y021868D03*
X048150Y021493D03*
X046150Y022618D03*
X043275Y023493D03*
X043025Y023118D03*
X042775Y022868D03*
X042525Y022493D03*
X041775Y021618D03*
X040650Y021368D03*
X040650Y021868D03*
X040650Y022243D03*
X040650Y022993D03*
X040650Y023493D03*
X040275Y023743D03*
X039900Y023993D03*
X039525Y024243D03*
X040650Y024368D03*
X040650Y023993D03*
X041775Y024118D03*
X041775Y024493D03*
X042275Y024868D03*
X042900Y025618D03*
X042525Y025868D03*
X042275Y026368D03*
X041900Y026868D03*
X041900Y027618D03*
X043275Y026118D03*
X043650Y025868D03*
X043900Y027118D03*
X045150Y026618D03*
X045650Y026618D03*
X045650Y025368D03*
X045150Y025368D03*
X047400Y027118D03*
X047775Y027368D03*
X049150Y025868D03*
X049150Y025493D03*
X049150Y025118D03*
X050650Y025118D03*
X050650Y025868D03*
X050650Y027368D03*
X050650Y028868D03*
X051025Y028868D03*
X051400Y028868D03*
X051775Y028868D03*
X049900Y028868D03*
X048650Y029368D03*
X048275Y029118D03*
X047900Y029493D03*
X047525Y029743D03*
X047525Y030243D03*
X045775Y028493D03*
X043400Y032368D03*
X042900Y032868D03*
X042650Y035118D03*
X038775Y034868D03*
X038775Y035868D03*
X042900Y039118D03*
X043400Y039118D03*
X044900Y038368D03*
X043150Y040368D03*
X048150Y033118D03*
X053525Y031868D03*
X053900Y031868D03*
X054900Y031868D03*
X057400Y029368D03*
X057400Y028993D03*
X057650Y028618D03*
X058025Y028368D03*
X058400Y028243D03*
X058650Y027868D03*
X058150Y027368D03*
X058650Y026868D03*
X059650Y027868D03*
X060275Y028243D03*
X060775Y028243D03*
X061400Y028493D03*
X061900Y028368D03*
X062525Y028118D03*
X062900Y028118D03*
X062900Y028493D03*
X063400Y028493D03*
X064150Y028493D03*
X061900Y026868D03*
X060025Y025618D03*
X059525Y025618D03*
X060525Y024743D03*
X060775Y024118D03*
X061150Y024493D03*
X061400Y022493D03*
X061900Y022493D03*
X062275Y022618D03*
X062400Y020993D03*
X062400Y020493D03*
X061900Y020868D03*
X060400Y020868D03*
X060400Y019993D03*
X059775Y019743D03*
X059150Y019493D03*
X058525Y019243D03*
X061775Y014868D03*
X060650Y012618D03*
X059650Y012618D03*
X059150Y012618D03*
X057525Y011993D03*
X057150Y012618D03*
X055775Y012618D03*
X053900Y014618D03*
X054650Y014868D03*
X051150Y012368D03*
X050650Y011868D03*
X046900Y011368D03*
X046650Y011743D03*
X044525Y010368D03*
X044275Y010993D03*
X044025Y011618D03*
X043275Y011493D03*
X043025Y011868D03*
X042775Y012243D03*
X042525Y012743D03*
X042025Y012743D03*
X041275Y012868D03*
X040775Y012868D03*
X039525Y012868D03*
X038400Y012868D03*
X037900Y012868D03*
X035900Y012493D03*
X035525Y012243D03*
X035900Y011993D03*
X035525Y011743D03*
X035900Y011493D03*
X035525Y011243D03*
X035900Y010993D03*
X035525Y010743D03*
X035525Y012868D03*
X034150Y014118D03*
X034150Y014493D03*
X033400Y015493D03*
X033025Y015493D03*
X032525Y015743D03*
X032150Y016993D03*
X031900Y018118D03*
X031900Y018493D03*
X031650Y018868D03*
X030525Y018868D03*
X029900Y018618D03*
X028900Y018493D03*
X028775Y017493D03*
X027025Y018243D03*
X026400Y018618D03*
X026025Y017493D03*
X024650Y018743D03*
X024025Y018743D03*
X023650Y018743D03*
X023025Y019243D03*
X023025Y019743D03*
X023025Y021243D03*
X023025Y021618D03*
X023400Y021868D03*
X023775Y021618D03*
X024150Y021868D03*
X025900Y020368D03*
X026275Y021743D03*
X026400Y023118D03*
X027400Y024368D03*
X029150Y023493D03*
X029650Y023743D03*
X029775Y023243D03*
X030525Y023368D03*
X031650Y023368D03*
X031650Y024243D03*
X030400Y024618D03*
X030525Y025743D03*
X031650Y025493D03*
X031650Y026243D03*
X032900Y027368D03*
X034275Y027118D03*
X034900Y027118D03*
X035400Y027118D03*
X036650Y026993D03*
X038275Y026993D03*
X039400Y026930D03*
X040025Y025868D03*
X040650Y025368D03*
X039025Y025118D03*
X037275Y025868D03*
X036900Y025118D03*
X035650Y025868D03*
X034525Y025868D03*
X033525Y025118D03*
X033150Y025118D03*
X033150Y024743D03*
X032400Y024243D03*
X034150Y022993D03*
X034400Y022493D03*
X034650Y021993D03*
X034275Y020993D03*
X033525Y020993D03*
X033150Y021368D03*
X031650Y021493D03*
X030525Y022243D03*
X030150Y021868D03*
X029650Y021243D03*
X029025Y020743D03*
X029025Y020368D03*
X029150Y019993D03*
X029400Y019743D03*
X028650Y019493D03*
X028275Y019493D03*
X027900Y019493D03*
X027525Y019368D03*
X027525Y018993D03*
X027775Y020118D03*
X028650Y020993D03*
X029275Y022368D03*
X030589Y020555D03*
X033150Y019368D03*
X033900Y019368D03*
X034525Y019368D03*
X036650Y018493D03*
X036650Y016868D03*
X037025Y016868D03*
X037400Y016868D03*
X036275Y016868D03*
X035900Y016868D03*
X035150Y016868D03*
X033650Y016868D03*
X035525Y015743D03*
X036150Y015118D03*
X036650Y015118D03*
X037025Y015118D03*
X037525Y015118D03*
X038025Y015118D03*
X037775Y015743D03*
X039775Y016868D03*
X040650Y017368D03*
X041025Y016618D03*
X040775Y015993D03*
X040400Y014993D03*
X040025Y014743D03*
X040025Y014118D03*
X041025Y014493D03*
X043525Y012743D03*
X043775Y012243D03*
X044775Y014493D03*
X046900Y016493D03*
X047150Y016868D03*
X047400Y017243D03*
X047650Y017618D03*
X046650Y018243D03*
X046400Y017868D03*
X046150Y017493D03*
X044525Y016993D03*
X044275Y017743D03*
X044025Y018493D03*
X043775Y019243D03*
X041775Y019368D03*
X040650Y018993D03*
X039900Y019243D03*
X041775Y017243D03*
X043525Y020868D03*
X039150Y022993D03*
X031900Y029118D03*
X030900Y029118D03*
X031900Y030368D03*
X033150Y031243D03*
X035150Y031993D03*
X035900Y031993D03*
X039025Y030868D03*
X041150Y030118D03*
X029900Y027618D03*
X027900Y029618D03*
X027900Y030368D03*
X027150Y032368D03*
X026150Y032368D03*
X024400Y032118D03*
X024400Y032618D03*
X022775Y033993D03*
X021900Y033618D03*
X021650Y032368D03*
X020650Y032368D03*
X018900Y032118D03*
X018900Y032618D03*
X019400Y034368D03*
X021400Y035618D03*
X024900Y034368D03*
X026900Y035618D03*
X027400Y033618D03*
X028275Y033993D03*
X024900Y030368D03*
X023900Y029868D03*
X023400Y028868D03*
X023775Y028618D03*
X023025Y028368D03*
X022650Y028118D03*
X024400Y027868D03*
X024400Y027368D03*
X024150Y027118D03*
X025150Y027618D03*
X022400Y029618D03*
X022400Y030368D03*
X019400Y030368D03*
X016150Y031868D03*
X014900Y032118D03*
X013900Y032618D03*
X012275Y032618D03*
X012275Y032118D03*
X011650Y029993D03*
X012650Y029243D03*
X014650Y028118D03*
X015150Y028368D03*
X016650Y026618D03*
X017150Y026618D03*
X017650Y026618D03*
X018150Y026368D03*
X018775Y025618D03*
X018775Y024118D03*
X019650Y022993D03*
X020900Y023118D03*
X021650Y022618D03*
X022275Y023368D03*
X017525Y021993D03*
X017525Y021493D03*
X017525Y020493D03*
X017025Y020493D03*
X016150Y021368D03*
X014150Y021868D03*
X012650Y020993D03*
X012150Y020243D03*
X011650Y020243D03*
X010900Y020993D03*
X010025Y020743D03*
X008400Y019368D03*
X007150Y017368D03*
X006150Y017368D03*
X005900Y016118D03*
X005025Y015743D03*
X006400Y014118D03*
X008400Y015368D03*
X009400Y015868D03*
X011650Y015493D03*
X012650Y014743D03*
X012275Y017618D03*
X012275Y018118D03*
X013900Y018118D03*
X014900Y017618D03*
X016150Y017368D03*
X016900Y017618D03*
X016525Y015868D03*
X015525Y019243D03*
X018400Y019743D03*
X018650Y019493D03*
X018900Y019243D03*
X019150Y018993D03*
X020900Y017493D03*
X023650Y017493D03*
X028025Y016118D03*
X030400Y014743D03*
X030650Y014368D03*
X028650Y012993D03*
X027400Y013368D03*
X026900Y012118D03*
X027150Y010868D03*
X025275Y011993D03*
X029400Y011618D03*
X032400Y007868D03*
X035400Y006868D03*
X036775Y008243D03*
X037650Y008618D03*
X038775Y008243D03*
X039525Y008618D03*
X040400Y008243D03*
X042275Y008618D03*
X042025Y009868D03*
X044775Y009493D03*
X044525Y008243D03*
X043150Y007118D03*
X043150Y004993D03*
X042150Y004618D03*
X040650Y004618D03*
X044900Y004618D03*
X051150Y003868D03*
X053150Y005618D03*
X051650Y007618D03*
X064900Y014868D03*
X064900Y017868D03*
X064650Y018743D03*
X064775Y019243D03*
X064900Y019743D03*
X059025Y029368D03*
X058900Y029993D03*
X059275Y030118D03*
X059650Y030243D03*
X060150Y029743D03*
X048650Y019118D03*
X029275Y024993D03*
X015525Y033743D03*
X016150Y035868D03*
X014900Y036368D03*
X014400Y036618D03*
X012650Y035493D03*
X012150Y034743D03*
X011650Y034743D03*
X009150Y035868D03*
X007900Y036368D03*
X007400Y036618D03*
X005650Y035493D03*
X005150Y034743D03*
X004650Y034743D03*
X005275Y032618D03*
X005275Y032118D03*
X006900Y032618D03*
X007900Y032118D03*
X009150Y031868D03*
X008525Y033743D03*
X004650Y029993D03*
X005650Y029243D03*
X007650Y028118D03*
X008150Y028368D03*
X008400Y026868D03*
X007150Y024868D03*
X006150Y024868D03*
X005900Y023618D03*
X005025Y023243D03*
X006400Y021618D03*
X008400Y022868D03*
X009400Y023368D03*
X005400Y020118D03*
X005400Y019368D03*
X005400Y026868D03*
X005400Y027618D03*
X017400Y008368D03*
X017400Y006118D03*
X017400Y004618D03*
X019275Y005368D03*
X021025Y005368D03*
X021650Y005368D03*
X021650Y004618D03*
X021650Y003868D03*
D72*
X051900Y032868D03*
X052900Y032868D03*
X053900Y032868D03*
X057650Y034868D03*
X055400Y036368D03*
X055150Y039368D03*
X055150Y039868D03*
X055150Y040368D03*
X052650Y039618D03*
X051650Y039618D03*
X060150Y034868D03*
X060150Y033868D03*
X063150Y032368D03*
D73*
X065400Y032118D03*
X044900Y033118D03*
X043650Y031618D03*
X043650Y030368D03*
X044400Y035868D03*
X036400Y035868D03*
X036400Y037118D03*
X035900Y027868D03*
M02*
