%
M48
M72
T01C0.0150
T02C0.0236
T03C0.0315
T04C0.0354
T05C0.0394
T06C0.0400
T07C0.0591
T08C0.0866
T09C0.1102
T10C0.1260
%
T01
X10900Y4650
X13900Y10150
X16900Y10400
X18650Y12900
X17650Y14400
X16650Y14900
X14650Y15400
X12150Y15400
X12150Y14900
X10150Y13650
X7900Y13650
X8900Y11650
X7150Y10400
X13150Y12900
X10400Y17400
X7900Y17650
X6150Y17400
X5900Y16900
X5150Y17650
X4900Y18650
X5400Y19650
X6150Y20150
X6900Y19650
X6400Y19400
X8150Y20900
X7900Y21400
X6900Y22400
X6900Y23400
X6400Y23900
X6150Y24400
X6150Y24900
X5400Y23650
X4900Y23400
X9400Y23400
X10650Y23400
X10650Y23900
X11900Y22900
X12900Y23400
X12900Y23900
X11900Y19900
X16400Y17900
X16400Y17400
X17900Y19900
X20150Y18400
X22900Y18650
X23400Y17400
X22900Y17100
X22650Y15150
X22150Y15150
X24650Y13650
X26150Y15150
X24150Y12150
X22150Y11900
X31400Y10900
X33650Y10650
X33650Y11400
X32650Y13150
X35150Y13400
X37150Y14400
X33900Y15400
X32650Y15650
X31525Y16150
X37900Y18650
X35900Y20650
X38900Y23900
X38150Y25400
X39400Y27650
X42150Y25650
X43150Y25400
X44400Y27650
X47150Y25650
X48150Y25400
X49400Y27650
X52150Y25650
X53150Y25400
X54400Y27650
X52150Y22900
X47150Y22900
X42150Y22900
X40650Y22150
X40400Y15400
X44650Y12400
X44150Y11900
X43650Y11400
X43150Y10900
X45150Y12900
X45650Y13400
X46150Y13900
X48650Y11400
X48150Y10900
X47650Y10400
X47150Y9900
X46650Y9400
X46150Y8900
X45650Y8400
X41900Y7150
X41400Y6400
X41900Y5150
X39900Y5150
X37150Y5650
X34900Y4650
X39900Y3150
X40900Y7900
X40900Y8900
X34150Y8900
X33650Y8400
X26900Y4650
X18900Y4650
X3900Y19650
X7900Y28650
X8400Y29150
X8400Y29650
X8400Y30400
X18650Y27150
X18650Y26650
X18900Y25400
X21150Y25400
X22900Y23600
X22650Y21650
X22150Y21650
X24650Y20150
X26650Y21650
X20650Y27900
X1400Y37900
X47400Y3650
X55650Y7900
X56150Y7900
X56650Y7900
X57150Y7900
X55150Y11900
X55150Y14900
X55650Y15400
X56150Y15400
X56650Y15400
X57150Y15400
X54400Y15650
X63150Y13650
X63150Y13150
X66150Y17150
X61400Y3400
X63650Y36650
X62900Y37400
X62400Y38650
X64025Y38650
X60775Y38650
X59150Y38650
T02
X66650Y31650
X66650Y27400
X54900Y16900
X54400Y16900
X53900Y16900
X53400Y16900
X52900Y16900
X52400Y16900
X40900Y16650
X40400Y16650
X39900Y16650
X39400Y16650
X38900Y16650
X38400Y16650
X45400Y4900
X45900Y4900
X46400Y4900
X46900Y4900
X47400Y4900
X47900Y4900
X59400Y4650
X59900Y4650
X60400Y4650
X60900Y4650
X61400Y4650
X61900Y4650
X64900Y4650
X67150Y5650
X64900Y6900
X67650Y7900
T03
X25819Y29181
X25819Y29969
X25819Y30756
X25819Y31544
X25819Y32331
X25819Y33119
X17819Y33119
X17819Y32331
X17819Y31544
X17819Y30756
X17819Y29969
X17819Y29181
X9819Y29181
X9819Y29969
X9819Y30756
X9819Y31544
X9819Y32331
X9819Y33119
X1819Y33119
X1819Y32331
X1819Y31544
X1819Y30756
X1819Y29969
X1819Y29181
T04
X4969Y4134
X7331Y4134
X7331Y2166
X4969Y2166
X12969Y2166
X15331Y2166
X15331Y4134
X12969Y4134
X20969Y4134
X23331Y4134
X23331Y2166
X20969Y2166
X28969Y2166
X31331Y2166
X31331Y4134
X28969Y4134
X60969Y30166
X63331Y30166
X63331Y32134
X60969Y32134
T05
X6142Y37166
X5158Y37166
X5158Y38150
X6142Y38150
X6142Y39134
X5158Y39134
T06
X2650Y20150
X1650Y20150
X1650Y19150
X2650Y19150
X2650Y18150
X1650Y18150
X1650Y17150
X2650Y17150
X2650Y16150
X1650Y16150
X1650Y15150
X2650Y15150
X2650Y14150
X1650Y14150
X1650Y13150
X2650Y13150
X2650Y12150
X1650Y12150
X8650Y6900
X9650Y6900
X10650Y6900
X11650Y6900
X12650Y6900
X13650Y6900
X14650Y6900
X15650Y6900
X16650Y6900
X17650Y6900
X18650Y6900
X19650Y6900
X20650Y6900
X21650Y6900
X22650Y6900
X23650Y6900
X24650Y6900
X25650Y6900
X26650Y6900
X27650Y6900
X65650Y9650
X66650Y9650
X66650Y10650
X65650Y10650
X65650Y11650
X66650Y11650
X66650Y12650
X65650Y12650
X65650Y13650
X66650Y13650
X66650Y14650
X65650Y14650
X65650Y15650
X66650Y15650
X66650Y16650
X65650Y16650
X65650Y17650
X66650Y17650
X66650Y18650
X65650Y18650
X65650Y19650
X66650Y19650
X66650Y20650
X65650Y20650
X65650Y21650
X66650Y21650
X66650Y22650
X65650Y22650
T07
X54516Y29536
X52784Y30166
X53650Y31150
X54319Y32134
X52981Y33119
X52016Y35536
X51150Y37150
X50284Y36166
X51819Y38134
X50481Y39119
X46819Y38134
X45481Y39119
X46150Y37150
X45284Y36166
X47016Y35536
X47981Y33119
X49319Y32134
X48650Y31150
X47784Y30166
X49516Y29536
X44516Y29536
X43650Y31150
X44319Y32134
X42981Y33119
X42016Y35536
X41150Y37150
X40284Y36166
X41819Y38134
X40481Y39119
X37981Y33119
X39319Y32134
X38650Y31150
X37784Y30166
X39516Y29536
X42784Y30166
X55284Y36166
X56150Y37150
X56819Y38134
X55481Y39119
X57016Y35536
T08
X30150Y33315
X30150Y28985
X22150Y28985
X22150Y33315
X14150Y33315
X14150Y28985
X6150Y28985
X6150Y33315
T09
X2900Y23650
X2900Y6900
X33400Y6900
X33400Y23650
T10
X1150Y1150
X1150Y43150
X37650Y43150
X67150Y43150
X67150Y1150
M30
