  0
SECTION
  2
HEADER
  9
$ACADVER
  1
AC1024
  9
$ACADMAINTVER
 70
     6
  9
$DWGCODEPAGE
  3
ASCII
  9
$INSBASE
 10
0.0
 20
0.0
 30
0.0
  9
$EXTMIN
 10
1.000000000000000E+20
 20
1.000000000000000E+20
 30
1.000000000000000E+20
  9
$EXTMAX
 10
-1.000000000000000E+20
 20
-1.000000000000000E+20
 30
-1.000000000000000E+20
  9
$LIMMIN
 10
0.0
 20
0.0
  9
$LIMMAX
 10
12.0
 20
9.0
  9
$ORTHOMODE
 70
     0
  9
$REGENMODE
 70
     1
  9
$FILLMODE
 70
     1
  9
$QTEXTMODE
 70
     0
  9
$MIRRTEXT
 70
     1
  9
$LTSCALE
 40
1.0
  9
$ATTMODE
 70
     1
  9
$TEXTSIZE
 40
2.5
  9
$TRACEWID
 40
0.05
  9
$TEXTSTYLE
  7
Standard
  9
$CLAYER
  8
0
  9
$CELTYPE
  6
ByLayer
  9
$CECOLOR
 62
   178
  9
$CELTSCALE
 40
1.0
  9
$DISPSILH
 70
     0
  9
$DIMSCALE
 40
1.0
  9
$DIMASZ
 40
2.5
  9
$DIMEXO
 40
0.625
  9
$DIMDLI
 40
0.38
  9
$DIMRND
 40
0.0
  9
$DIMDLE
 40
0.0
  9
$DIMEXE
 40
1.25
  9
$DIMTP
 40
0.0
  9
$DIMTM
 40
0.0
  9
$DIMTXT
 40
2.5
  9
$DIMCEN
 40
0.09
  9
$DIMTSZ
 40
0.0
  9
$DIMTOL
 70
     0
  9
$DIMLIM
 70
     0
  9
$DIMTIH
 70
     1
  9
$DIMTOH
 70
     1
  9
$DIMSE1
 70
     0
  9
$DIMSE2
 70
     0
  9
$DIMTAD
 70
     0
  9
$DIMZIN
 70
     8
  9
$DIMBLK
  1

  9
$DIMASO
 70
     1
  9
$DIMSHO
 70
     1
  9
$DIMPOST
  1

  9
$DIMAPOST
  1

  9
$DIMALT
 70
     0
  9
$DIMALTD
 70
     2
  9
$DIMALTF
 40
25.4
  9
$DIMLFAC
 40
1.0
  9
$DIMTOFL
 70
     0
  9
$DIMTVP
 40
0.0
  9
$DIMTIX
 70
     0
  9
$DIMSOXD
 70
     0
  9
$DIMSAH
 70
     0
  9
$DIMBLK1
  1

  9
$DIMBLK2
  1

  9
$DIMSTYLE
  2
Standard
  9
$DIMCLRD
 70
   178
  9
$DIMCLRE
 70
   178
  9
$DIMCLRT
 70
   178
  9
$DIMTFAC
 40
1.0
  9
$DIMGAP
 40
0.625
  9
$DIMJUST
 70
     0
  9
$DIMSD1
 70
     0
  9
$DIMSD2
 70
     0
  9
$DIMTOLJ
 70
     1
  9
$DIMTZIN
 70
     0
  9
$DIMALTZ
 70
     0
  9
$DIMALTTZ
 70
     0
  9
$DIMUPT
 70
     0
  9
$DIMDEC
 70
     4
  9
$DIMTDEC
 70
     4
  9
$DIMALTU
 70
     2
  9
$DIMALTTD
 70
     2
  9
$DIMTXSTY
  7
Standard
  9
$DIMAUNIT
 70
     0
  9
$DIMADEC
 70
     2
  9
$DIMALTRND
 40
0.0
  9
$DIMAZIN
 70
     0
  9
$DIMDSEP
 70
    46
  9
$DIMATFIT
 70
     3
  9
$DIMFRAC
 70
     0
  9
$DIMLDRBLK
  1

  9
$DIMLUNIT
 70
     2
  9
$DIMLWD
 70
    -2
  9
$DIMLWE
 70
    -2
  9
$DIMTMOVE
 70
     0
  9
$DIMFXL
 40
1.0
  9
$DIMFXLON
 70
     0
  9
$DIMJOGANG
 40
0.7853981633974483
  9
$DIMTFILL
 70
     0
  9
$DIMTFILLCLR
 70
     0
  9
$DIMARCSYM
 70
     0
  9
$DIMLTYPE
  6

  9
$DIMLTEX1
  6

  9
$DIMLTEX2
  6

  9
$DIMTXTDIRECTION
 70
     0
  9
$LUNITS
 70
     2
  9
$LUPREC
 70
     4
  9
$SKETCHINC
 40
0.1
  9
$FILLETRAD
 40
0.5
  9
$AUNITS
 70
     0
  9
$AUPREC
 70
     2
  9
$MENU
  1
.
  9
$ELEVATION
 40
0.0
  9
$PELEVATION
 40
0.0
  9
$THICKNESS
 40
0.0
  9
$LIMCHECK
 70
     0
  9
$CHAMFERA
 40
0.5
  9
$CHAMFERB
 40
0.5
  9
$CHAMFERC
 40
1.0
  9
$CHAMFERD
 40
0.0
  9
$SKPOLY
 70
     0
  9
$TDCREATE
 40
2455944.800370359
  9
$TDUCREATE
 40
2455945.008703704
  9
$TDUPDATE
 40
2455944.800370359
  9
$TDUUPDATE
 40
2455945.008703704
  9
$TDINDWG
 40
0.0000000116
  9
$TDUSRTIMER
 40
0.0000000116
  9
$USRTIMER
 70
     1
  9
$ANGBASE
 50
0.0
  9
$ANGDIR
 70
     0
  9
$PDMODE
 70
     0
  9
$PDSIZE
 40
0.0
  9
$PLINEWID
 40
0.0
  9
$SPLFRAME
 70
     0
  9
$SPLINETYPE
 70
     6
  9
$SPLINESEGS
 70
     8
  9
$HANDSEED
  5
594
  9
$SURFTAB1
 70
     6
  9
$SURFTAB2
 70
     6
  9
$SURFTYPE
 70
     6
  9
$SURFU
 70
     6
  9
$SURFV
 70
     6
  9
$UCSBASE
  2

  9
$UCSNAME
  2

  9
$UCSORG
 10
0.0
 20
0.0
 30
0.0
  9
$UCSXDIR
 10
1.0
 20
0.0
 30
0.0
  9
$UCSYDIR
 10
0.0
 20
1.0
 30
0.0
  9
$UCSORTHOREF
  2

  9
$UCSORTHOVIEW
 70
     0
  9
$UCSORGTOP
 10
0.0
 20
0.0
 30
0.0
  9
$UCSORGBOTTOM
 10
0.0
 20
0.0
 30
0.0
  9
$UCSORGLEFT
 10
0.0
 20
0.0
 30
0.0
  9
$UCSORGRIGHT
 10
0.0
 20
0.0
 30
0.0
  9
$UCSORGFRONT
 10
0.0
 20
0.0
 30
0.0
  9
$UCSORGBACK
 10
0.0
 20
0.0
 30
0.0
  9
$PUCSBASE
  2

  9
$PUCSNAME
  2

  9
$PUCSORG
 10
0.0
 20
0.0
 30
0.0
  9
$PUCSXDIR
 10
1.0
 20
0.0
 30
0.0
  9
$PUCSYDIR
 10
0.0
 20
1.0
 30
0.0
  9
$PUCSORTHOREF
  2

  9
$PUCSORTHOVIEW
 70
     0
  9
$PUCSORGTOP
 10
0.0
 20
0.0
 30
0.0
  9
$PUCSORGBOTTOM
 10
0.0
 20
0.0
 30
0.0
  9
$PUCSORGLEFT
 10
0.0
 20
0.0
 30
0.0
  9
$PUCSORGRIGHT
 10
0.0
 20
0.0
 30
0.0
  9
$PUCSORGFRONT
 10
0.0
 20
0.0
 30
0.0
  9
$PUCSORGBACK
 10
0.0
 20
0.0
 30
0.0
  9
$USERI1
 70
     0
  9
$USERI2
 70
     0
  9
$USERI3
 70
     0
  9
$USERI4
 70
     0
  9
$USERI5
 70
     0
  9
$USERR1
 40
0.0
  9
$USERR2
 40
0.0
  9
$USERR3
 40
0.0
  9
$USERR4
 40
0.0
  9
$USERR5
 40
0.0
  9
$WORLDVIEW
 70
     1
  9
$SHADEDGE
 70
     3
  9
$SHADEDIF
 70
    70
  9
$TILEMODE
 70
     1
  9
$MAXACTVP
 70
    64
  9
$PINSBASE
 10
109.3486422413792
 20
83.8576346982759
 30
0.0
  9
$PLIMCHECK
 70
     0
  9
$PEXTMIN
 10
1.000000000000000E+20
 20
1.000000000000000E+20
 30
1.000000000000000E+20
  9
$PEXTMAX
 10
-1.000000000000000E+20
 20
-1.000000000000000E+20
 30
-1.000000000000000E+20
  9
$PLIMMIN
 10
0.0
 20
0.0
  9
$PLIMMAX
 10
215.9
 20
279.4
  9
$UNITMODE
 70
     0
  9
$VISRETAIN
 70
     1
  9
$PLINEGEN
 70
     0
  9
$PSLTSCALE
 70
     1
  9
$TREEDEPTH
 70
  3020
  9
$CMLSTYLE
  2
Standard
  9
$CMLJUST
 70
     0
  9
$CMLSCALE
 40
1.0
  9
$PROXYGRAPHICS
 70
     1
  9
$MEASUREMENT
 70
     1
  9
$CELWEIGHT
370
    -1
  9
$ENDCAPS
280
     0
  9
$JOINSTYLE
280
     0
  9
$LWDISPLAY
290
     0
  9
$INSUNITS
 70
     4
  9
$HYPERLINKBASE
  1

  9
$STYLESHEET
  1

  9
$XEDIT
290
     1
  9
$CEPSNTYPE
380
     0
  9
$PSTYLEMODE
290
     1
  9
$FINGERPRINTGUID
  2
{3706605B-D7FD-4052-D18B-620E343433F9}
  9
$VERSIONGUID
  2
{FAEB1C32-E019-11D5-929B-00C0DF256EC4}
  9
$EXTNAMES
290
     1
  9
$PSVPSCALE
 40
0.0
  9
$OLESTARTUP
290
     0
  9
$SORTENTS
280
   127
  9
$INDEXCTL
280
     0
  9
$HIDETEXT
280
     1
  9
$XCLIPFRAME
280
     2
  9
$HALOGAP
280
     0
  9
$OBSCOLOR
 70
   257
  9
$OBSLTYPE
280
     0
  9
$INTERSECTIONDISPLAY
280
     0
  9
$INTERSECTIONCOLOR
 70
   257
  9
$DIMASSOC
280
     2
  9
$PROJECTNAME
  1

  9
$CAMERADISPLAY
290
     0
  9
$LENSLENGTH
 40
50.0
  9
$CAMERAHEIGHT
 40
0.0
  9
$STEPSPERSEC
 40
2.0
  9
$STEPSIZE
 40
6.0
  9
$3DDWFPREC
 40
2.0
  9
$PSOLWIDTH
 40
0.25
  9
$PSOLHEIGHT
 40
4.0
  9
$LOFTANG1
 40
1.570796326794897
  9
$LOFTANG2
 40
1.570796326794897
  9
$LOFTMAG1
 40
0.0
  9
$LOFTMAG2
 40
0.0
  9
$LOFTPARAM
 70
     7
  9
$LOFTNORMALS
280
     1
  9
$LATITUDE
 40
37.795
  9
$LONGITUDE
 40
-122.394
  9
$NORTHDIRECTION
 40
0.0
  9
$TIMEZONE
 70
 -8000
  9
$LIGHTGLYPHDISPLAY
280
     1
  9
$TILEMODELIGHTSYNCH
280
     1
  9
$SOLIDHIST
280
     1
  9
$SHOWHIST
280
     1
  9
$DWFFRAME
280
     2
  9
$DGNFRAME
280
     2
  9
$REALWORLDSCALE
290
     1
  9
$INTERFERECOLOR
 62
   256
  9
$CSHADOW
280
     0
  9
$SHADOWPLANELOCATION
 40
0.0
  0
ENDSEC
  0
SECTION
  2
CLASSES
  0
CLASS
  1
ACDBDICTIONARYWDFLT
  2
AcDbDictionaryWithDefault
  3
ObjectDBX Classes
 90
        0
 91
        4
280
     0
281
     0
  0
CLASS
  1
VISUALSTYLE
  2
AcDbVisualStyle
  3
ObjectDBX Classes
 90
     4095
 91
        4
280
     0
281
     0
  0
CLASS
  1
MATERIAL
  2
AcDbMaterial
  3
ObjectDBX Classes
 90
     1153
 91
        4
280
     0
281
     0
  0
ENDSEC
  0
SECTION
  2
TABLES
  0
TABLE
  2
VPORT
  5
51D
330
0
100
AcDbSymbolTable
 70
     1
  0
VPORT
  5
53D
330
51D
100
AcDbSymbolTableRecord
100
AcDbViewportTableRecord
  2
*Active
 70
     0
 10
0.0
 20
0.0
 11
1.0
 21
1.0
 12
10.42990654205607
 22
4.5
 13
0.0
 23
0.0
 14
0.5
 24
0.5
 15
0.5
 25
0.5
 16
0.0
 26
0.0
 36
1.0
 17
0.0
 27
0.0
 37
0.0
 40
9.0
 41
1.972972972850329
 42
50.0
 43
0.0
 44
0.0
 50
0.0
 51
0.0
 71
     0
 72
   100
 73
     1
 74
     3
 75
     0
 76
     0
 77
     0
 78
     0
281
     0
 65
     1
110
0.0
120
0.0
130
0.0
111
1.0
121
0.0
131
0.0
112
0.0
122
1.0
132
0.0
 79
     0
146
0.0
 60
     3
 61
     5
292
     1
282
     1
141
0.0
142
0.0
 63
   250
  0
ENDTAB
  0
TABLE
  2
LTYPE
  5
51A
330
0
100
AcDbSymbolTable
 70
    19
  0
LTYPE
  5
528
330
51A
100
AcDbSymbolTableRecord
100
AcDbLinetypeTableRecord
  2
ByBlock
 70
     0
  3

 72
    65
 73
     0
 40
0.0
  0
LTYPE
  5
529
330
51A
100
AcDbSymbolTableRecord
100
AcDbLinetypeTableRecord
  2
ByLayer
 70
     0
  3

 72
    65
 73
     0
 40
0.0
  0
LTYPE
  5
52A
330
51A
100
AcDbSymbolTableRecord
100
AcDbLinetypeTableRecord
  2
Continuous
 70
     0
  3
Solid line
 72
    65
 73
     0
 40
0.0
  0
LTYPE
  5
570
330
51A
100
AcDbSymbolTableRecord
100
AcDbLinetypeTableRecord
  2
BORDER
 70
     0
  3

 72
    65
 73
     6
 40
42.00000000000001
 49
12.0
 74
     0
 49
-6.0
 74
     0
 49
12.0
 74
     0
 49
-5.95
 74
     0
 49
0.1
 74
     0
 49
-5.95
 74
     0
  0
LTYPE
  5
571
330
51A
100
AcDbSymbolTableRecord
100
AcDbLinetypeTableRecord
  2
BORDER2
 70
     0
  3

 72
    65
 73
     6
 40
21.0
 49
6.0
 74
     0
 49
-3.0
 74
     0
 49
6.0
 74
     0
 49
-2.95
 74
     0
 49
0.1
 74
     0
 49
-2.95
 74
     0
  0
LTYPE
  5
572
330
51A
100
AcDbSymbolTableRecord
100
AcDbLinetypeTableRecord
  2
BORDERX2
 70
     0
  3

 72
    65
 73
     6
 40
84.0
 49
24.0
 74
     0
 49
-12.0
 74
     0
 49
24.0
 74
     0
 49
-11.95
 74
     0
 49
0.1
 74
     0
 49
-11.95
 74
     0
  0
LTYPE
  5
573
330
51A
100
AcDbSymbolTableRecord
100
AcDbLinetypeTableRecord
  2
CENTER
 70
     0
  3

 72
    65
 73
     4
 40
50.0
 49
32.0
 74
     0
 49
-6.0
 74
     0
 49
6.0
 74
     0
 49
-6.0
 74
     0
  0
LTYPE
  5
574
330
51A
100
AcDbSymbolTableRecord
100
AcDbLinetypeTableRecord
  2
CENTER2
 70
     0
  3

 72
    65
 73
     4
 40
25.0
 49
16.0
 74
     0
 49
-3.0
 74
     0
 49
3.0
 74
     0
 49
-3.0
 74
     0
  0
LTYPE
  5
575
330
51A
100
AcDbSymbolTableRecord
100
AcDbLinetypeTableRecord
  2
CENTERX2
 70
     0
  3

 72
    65
 73
     4
 40
100.0
 49
64.0
 74
     0
 49
-12.0
 74
     0
 49
12.0
 74
     0
 49
-12.0
 74
     0
  0
LTYPE
  5
576
330
51A
100
AcDbSymbolTableRecord
100
AcDbLinetypeTableRecord
  2
DASHDOT
 70
     0
  3

 72
    65
 73
     4
 40
24.0
 49
12.0
 74
     0
 49
-5.95
 74
     0
 49
0.1
 74
     0
 49
-5.95
 74
     0
  0
LTYPE
  5
577
330
51A
100
AcDbSymbolTableRecord
100
AcDbLinetypeTableRecord
  2
DASHDOT2
 70
     0
  3

 72
    65
 73
     4
 40
12.0
 49
6.0
 74
     0
 49
-2.95
 74
     0
 49
0.1
 74
     0
 49
-2.95
 74
     0
  0
LTYPE
  5
578
330
51A
100
AcDbSymbolTableRecord
100
AcDbLinetypeTableRecord
  2
DASHDOTX2
 70
     0
  3

 72
    65
 73
     4
 40
48.0
 49
24.0
 74
     0
 49
-11.95
 74
     0
 49
0.1
 74
     0
 49
-11.95
 74
     0
  0
LTYPE
  5
579
330
51A
100
AcDbSymbolTableRecord
100
AcDbLinetypeTableRecord
  2
DASHED
 70
     0
  3

 72
    65
 73
     2
 40
18.0
 49
12.0
 74
     0
 49
-6.0
 74
     0
  0
LTYPE
  5
57A
330
51A
100
AcDbSymbolTableRecord
100
AcDbLinetypeTableRecord
  2
DASHED2
 70
     0
  3

 72
    65
 73
     2
 40
9.0
 49
6.0
 74
     0
 49
-3.0
 74
     0
  0
LTYPE
  5
57B
330
51A
100
AcDbSymbolTableRecord
100
AcDbLinetypeTableRecord
  2
DASHEDX2
 70
     0
  3

 72
    65
 73
     2
 40
36.0
 49
24.0
 74
     0
 49
-12.0
 74
     0
  0
LTYPE
  5
57C
330
51A
100
AcDbSymbolTableRecord
100
AcDbLinetypeTableRecord
  2
DIVIDE
 70
     0
  3

 72
    65
 73
     6
 40
29.99999999999999
 49
12.0
 74
     0
 49
-5.9
 74
     0
 49
0.15
 74
     0
 49
-5.9
 74
     0
 49
0.15
 74
     0
 49
-5.9
 74
     0
  0
LTYPE
  5
57D
330
51A
100
AcDbSymbolTableRecord
100
AcDbLinetypeTableRecord
  2
DIVIDE2
 70
     0
  3

 72
    65
 73
     6
 40
15.0
 49
6.0
 74
     0
 49
-2.9
 74
     0
 49
0.15
 74
     0
 49
-2.9
 74
     0
 49
0.15
 74
     0
 49
-2.9
 74
     0
  0
LTYPE
  5
57E
330
51A
100
AcDbSymbolTableRecord
100
AcDbLinetypeTableRecord
  2
DIVIDEX2
 70
     0
  3

 72
    65
 73
     6
 40
59.99999999999999
 49
24.0
 74
     0
 49
-11.9
 74
     0
 49
0.15
 74
     0
 49
-11.9
 74
     0
 49
0.15
 74
     0
 49
-11.9
 74
     0
  0
LTYPE
  5
57F
330
51A
100
AcDbSymbolTableRecord
100
AcDbLinetypeTableRecord
  2
DOT
 70
     0
  3

 72
    65
 73
     2
 40
6.3
 49
0.1
 74
     0
 49
-6.2
 74
     0
  0
LTYPE
  5
580
330
51A
100
AcDbSymbolTableRecord
100
AcDbLinetypeTableRecord
  2
DOT2
 70
     0
  3

 72
    65
 73
     2
 40
3.2
 49
0.1
 74
     0
 49
-3.1
 74
     0
  0
LTYPE
  5
581
330
51A
100
AcDbSymbolTableRecord
100
AcDbLinetypeTableRecord
  2
DOTX2
 70
     0
  3

 72
    65
 73
     2
 40
12.5
 49
0.1
 74
     0
 49
-12.4
 74
     0
  0
ENDTAB
  0
TABLE
  2
LAYER
  5
517
330
0
100
AcDbSymbolTable
 70
     3
  0
LAYER
  5
525
330
517
100
AcDbSymbolTableRecord
100
AcDbLayerTableRecord
  2
0
 70
     0
 62
   178
420
        0
  6
Continuous
370
     5
390
524
347
552
  0
LAYER
  5
582
330
517
100
AcDbSymbolTableRecord
100
AcDbLayerTableRecord
  2
internal
 70
     0
 62
     8
420
  8421504
  6
DASHEDX2
370
     5
390
524
347
552
  0
LAYER
  5
583
330
517
100
AcDbSymbolTableRecord
100
AcDbLayerTableRecord
  2
outlines
 70
     0
 62
   253
420
 10526884
  6
Continuous
370
     5
390
524
347
552
  0
ENDTAB
  0
TABLE
  2
STYLE
  5
518
330
0
100
AcDbSymbolTable
 70
    15
  0
STYLE
  5
526
330
518
100
AcDbSymbolTableRecord
100
AcDbTextStyleTableRecord
  2
Standard
 70
     0
 40
0.0
 41
1.0
 50
0.0
 71
     0
 42
2.5
  3
txt
  4

  0
STYLE
  5
584
330
518
100
AcDbSymbolTableRecord
100
AcDbTextStyleTableRecord
  2
textstyle0
 70
     0
 40
0.0
 41
1.0
 50
0.0
 71
     0
 42
0.2
  3
standard
  4

1001
ACAD
1000
standard
1071
        0
  0
STYLE
  5
585
330
518
100
AcDbSymbolTableRecord
100
AcDbTextStyleTableRecord
  2
textstyle1
 70
     0
 40
0.0
 41
1.0
 50
0.0
 71
     0
 42
0.2
  3
standard
  4

1001
ACAD
1000
standard
1071
        0
  0
STYLE
  5
586
330
518
100
AcDbSymbolTableRecord
100
AcDbTextStyleTableRecord
  2
textstyle2
 70
     0
 40
0.0
 41
1.0
 50
0.0
 71
     0
 42
0.2
  3
standard
  4

1001
ACAD
1000
standard
1071
        0
  0
STYLE
  5
587
330
518
100
AcDbSymbolTableRecord
100
AcDbTextStyleTableRecord
  2
textstyle3
 70
     0
 40
0.0
 41
1.0
 50
0.0
 71
     0
 42
0.2
  3
standard
  4

1001
ACAD
1000
standard
1071
        0
  0
STYLE
  5
588
330
518
100
AcDbSymbolTableRecord
100
AcDbTextStyleTableRecord
  2
textstyle4
 70
     0
 40
0.0
 41
1.0
 50
0.0
 71
     0
 42
0.2
  3
standard
  4

1001
ACAD
1000
standard
1071
        0
  0
STYLE
  5
589
330
518
100
AcDbSymbolTableRecord
100
AcDbTextStyleTableRecord
  2
textstyle5
 70
     0
 40
0.0
 41
1.0
 50
0.0
 71
     0
 42
0.2
  3
standard
  4

1001
ACAD
1000
standard
1071
        0
  0
STYLE
  5
58A
330
518
100
AcDbSymbolTableRecord
100
AcDbTextStyleTableRecord
  2
textstyle6
 70
     0
 40
0.0
 41
1.0
 50
0.0
 71
     0
 42
0.2
  3
standard
  4

1001
ACAD
1000
standard
1071
        0
  0
STYLE
  5
58B
330
518
100
AcDbSymbolTableRecord
100
AcDbTextStyleTableRecord
  2
textstyle7
 70
     0
 40
0.0
 41
1.0
 50
0.0
 71
     0
 42
0.2
  3

  4

1001
ACAD
1000
Arial
1071
        0
  0
STYLE
  5
58C
330
518
100
AcDbSymbolTableRecord
100
AcDbTextStyleTableRecord
  2
textstyle8
 70
     0
 40
0.0
 41
1.0
 50
0.0
 71
     0
 42
0.2
  3

  4

1001
ACAD
1000
Arial
1071
        0
  0
STYLE
  5
58D
330
518
100
AcDbSymbolTableRecord
100
AcDbTextStyleTableRecord
  2
textstyle9
 70
     0
 40
0.0
 41
1.0
 50
0.0
 71
     0
 42
0.2
  3

  4

1001
ACAD
1000
Arial
1071
        0
  0
STYLE
  5
58E
330
518
100
AcDbSymbolTableRecord
100
AcDbTextStyleTableRecord
  2
textstyle10
 70
     0
 40
0.0
 41
1.0
 50
0.0
 71
     0
 42
0.2
  3

  4

1001
ACAD
1000
Arial
1071
        0
  0
STYLE
  5
58F
330
518
100
AcDbSymbolTableRecord
100
AcDbTextStyleTableRecord
  2
textstyle11
 70
     0
 40
0.0
 41
1.0
 50
0.0
 71
     0
 42
0.2
  3

  4

1001
ACAD
1000
Arial
1071
        0
  0
STYLE
  5
590
330
518
100
AcDbSymbolTableRecord
100
AcDbTextStyleTableRecord
  2
textstyle12
 70
     0
 40
0.0
 41
1.0
 50
0.0
 71
     0
 42
0.2
  3

  4

1001
ACAD
1000
Arial
1071
        0
  0
STYLE
  5
591
330
518
100
AcDbSymbolTableRecord
100
AcDbTextStyleTableRecord
  2
textstyle13
 70
     0
 40
0.0
 41
1.0
 50
0.0
 71
     0
 42
0.2
  3

  4

1001
ACAD
1000
Arial
1071
        0
  0
ENDTAB
  0
TABLE
  2
VIEW
  5
51B
330
0
100
AcDbSymbolTable
 70
     0
  0
ENDTAB
  0
TABLE
  2
UCS
  5
51C
330
0
100
AcDbSymbolTable
 70
     0
  0
ENDTAB
  0
TABLE
  2
APPID
  5
51E
330
0
100
AcDbSymbolTable
 70
     2
  0
APPID
  5
527
330
51E
100
AcDbSymbolTableRecord
100
AcDbRegAppTableRecord
  2
ACAD
 70
     0
  0
APPID
  5
553
330
51E
100
AcDbSymbolTableRecord
100
AcDbRegAppTableRecord
  2
QCAD
 70
     0
  0
ENDTAB
  0
TABLE
  2
DIMSTYLE
  5
51F
330
0
100
AcDbSymbolTable
 70
     2
100
AcDbDimStyleTable
  0
DIMSTYLE
105
53B
330
51F
100
AcDbSymbolTableRecord
100
AcDbDimStyleTableRecord
  2
Standard
 70
     0
178
     0
340
526
  0
DIMSTYLE
105
56F
330
51F
100
AcDbSymbolTableRecord
100
AcDbDimStyleTableRecord
  2
QCADDimStyle
 70
     0
 41
2.5
 42
0.625
 44
1.25
 73
     0
 77
     1
140
2.5
147
0.625
178
     0
340
526
  0
ENDTAB
  0
TABLE
  2
BLOCK_RECORD
  5
516
330
0
100
AcDbSymbolTable
 70
     1
  0
BLOCK_RECORD
  5
533
330
516
100
AcDbSymbolTableRecord
100
AcDbBlockTableRecord
  2
*Model_Space
340
536
 70
     0
280
     1
281
     0
  0
BLOCK_RECORD
  5
52F
330
516
100
AcDbSymbolTableRecord
100
AcDbBlockTableRecord
  2
*Paper_Space
340
532
 70
     0
280
     1
281
     0
  0
BLOCK_RECORD
  5
537
330
516
100
AcDbSymbolTableRecord
100
AcDbBlockTableRecord
  2
*Paper_Space0
340
53A
 70
     0
280
     1
281
     0
  0
ENDTAB
  0
ENDSEC
  0
SECTION
  2
BLOCKS
  0
BLOCK
  5
534
330
533
100
AcDbEntity
  8
0
100
AcDbBlockBegin
  2
*Model_Space
 70
     0
 10
0.0
 20
0.0
 30
0.0
  3
*Model_Space
  1

  0
ENDBLK
  5
535
330
533
100
AcDbEntity
  8
0
100
AcDbBlockEnd
  0
BLOCK
  5
530
330
52F
100
AcDbEntity
 67
     1
  8
0
100
AcDbBlockBegin
  2
*Paper_Space
 70
     0
 10
0.0
 20
0.0
 30
0.0
  3
*Paper_Space
  1

  0
ENDBLK
  5
531
330
52F
100
AcDbEntity
 67
     1
  8
0
100
AcDbBlockEnd
  0
BLOCK
  5
538
330
537
100
AcDbEntity
  8
0
100
AcDbBlockBegin
  2
*Paper_Space0
 70
     0
 10
0.0
 20
0.0
 30
0.0
  3
*Paper_Space0
  1

  0
ENDBLK
  5
539
330
537
100
AcDbEntity
  8
0
100
AcDbBlockEnd
  0
ENDSEC
  0
SECTION
  2
ENTITIES
  0
LINE
  5
32A
330
533
100
AcDbEntity
  8
internal
100
AcDbLine
 10
70.0
 20
-25.0
 30
0.0
 11
70.0
 21
0.0
 31
0.0
  0
LINE
  5
32B
330
533
100
AcDbEntity
  8
internal
100
AcDbLine
 10
86.0
 20
-25.0
 30
0.0
 11
70.0
 21
-25.0
 31
0.0
  0
LINE
  5
32C
330
533
100
AcDbEntity
  8
internal
100
AcDbLine
 10
86.0
 20
0.0
 30
0.0
 11
86.0
 21
-25.0
 31
0.0
  0
LINE
  5
32D
330
533
100
AcDbEntity
  8
internal
100
AcDbLine
 10
70.0
 20
0.0
 30
0.0
 11
86.0
 21
0.0
 31
0.0
  0
LINE
  5
32E
330
533
100
AcDbEntity
  8
internal
100
AcDbLine
 10
54.0
 20
-25.0
 30
0.0
 11
54.0
 21
0.0
 31
0.0
  0
LINE
  5
32F
330
533
100
AcDbEntity
  8
internal
100
AcDbLine
 10
70.0
 20
-25.0
 30
0.0
 11
54.0
 21
-25.0
 31
0.0
  0
LINE
  5
330
330
533
100
AcDbEntity
  8
internal
100
AcDbLine
 10
70.0
 20
0.0
 30
0.0
 11
70.0
 21
-25.0
 31
0.0
  0
LINE
  5
331
330
533
100
AcDbEntity
  8
internal
100
AcDbLine
 10
54.0
 20
0.0
 30
0.0
 11
70.0
 21
0.0
 31
0.0
  0
LINE
  5
332
330
533
100
AcDbEntity
  8
internal
100
AcDbLine
 10
38.0
 20
-25.0
 30
0.0
 11
38.0
 21
0.0
 31
0.0
  0
LINE
  5
333
330
533
100
AcDbEntity
  8
internal
100
AcDbLine
 10
54.0
 20
-25.0
 30
0.0
 11
38.0
 21
-25.0
 31
0.0
  0
LINE
  5
334
330
533
100
AcDbEntity
  8
internal
100
AcDbLine
 10
54.0
 20
0.0
 30
0.0
 11
54.0
 21
-25.0
 31
0.0
  0
LINE
  5
335
330
533
100
AcDbEntity
  8
internal
100
AcDbLine
 10
38.0
 20
0.0
 30
0.0
 11
54.0
 21
0.0
 31
0.0
  0
LINE
  5
336
330
533
100
AcDbEntity
  8
internal
100
AcDbLine
 10
22.0
 20
-25.0
 30
0.0
 11
22.0
 21
0.0
 31
0.0
  0
LINE
  5
337
330
533
100
AcDbEntity
  8
internal
100
AcDbLine
 10
38.0
 20
-25.0
 30
0.0
 11
22.0
 21
-25.0
 31
0.0
  0
LINE
  5
338
330
533
100
AcDbEntity
  8
internal
100
AcDbLine
 10
38.0
 20
0.0
 30
0.0
 11
38.0
 21
-25.0
 31
0.0
  0
LINE
  5
339
330
533
100
AcDbEntity
  8
internal
100
AcDbLine
 10
22.0
 20
0.0
 30
0.0
 11
38.0
 21
0.0
 31
0.0
  0
LINE
  5
33A
330
533
100
AcDbEntity
  8
internal
100
AcDbLine
 10
6.0
 20
-25.0
 30
0.0
 11
6.0
 21
0.0
 31
0.0
  0
LINE
  5
33B
330
533
100
AcDbEntity
  8
internal
100
AcDbLine
 10
22.0
 20
-25.0
 30
0.0
 11
6.0
 21
-25.0
 31
0.0
  0
LINE
  5
33C
330
533
100
AcDbEntity
  8
internal
100
AcDbLine
 10
22.0
 20
0.0
 30
0.0
 11
22.0
 21
-25.0
 31
0.0
  0
LINE
  5
33D
330
533
100
AcDbEntity
  8
internal
100
AcDbLine
 10
6.0
 20
0.0
 30
0.0
 11
22.0
 21
0.0
 31
0.0
  0
LINE
  5
33E
330
533
100
AcDbEntity
  8
internal
100
AcDbLine
 10
60.5
 20
-102.0
 30
0.0
 11
60.5
 21
-77.0
 31
0.0
  0
LINE
  5
33F
330
533
100
AcDbEntity
  8
internal
100
AcDbLine
 10
60.5
 20
-77.0
 30
0.0
 11
60.5
 21
-102.0
 31
0.0
  0
LINE
  5
340
330
533
100
AcDbEntity
  8
internal
100
AcDbLine
 10
77.5
 20
-77.0
 30
0.0
 11
60.5
 21
-77.0
 31
0.0
  0
LINE
  5
341
330
533
100
AcDbEntity
  8
internal
100
AcDbLine
 10
77.5
 20
-102.0
 30
0.0
 11
77.5
 21
-77.0
 31
0.0
  0
LINE
  5
342
330
533
100
AcDbEntity
  8
internal
100
AcDbLine
 10
60.5
 20
-102.0
 30
0.0
 11
77.5
 21
-102.0
 31
0.0
  0
LINE
  5
343
330
533
100
AcDbEntity
  8
internal
100
AcDbLine
 10
42.5
 20
-102.0
 30
0.0
 11
42.5
 21
-77.0
 31
0.0
  0
LINE
  5
344
330
533
100
AcDbEntity
  8
internal
100
AcDbLine
 10
42.5
 20
-77.0
 30
0.0
 11
42.5
 21
-102.0
 31
0.0
  0
LINE
  5
345
330
533
100
AcDbEntity
  8
internal
100
AcDbLine
 10
59.5
 20
-77.0
 30
0.0
 11
42.5
 21
-77.0
 31
0.0
  0
LINE
  5
346
330
533
100
AcDbEntity
  8
internal
100
AcDbLine
 10
59.5
 20
-102.0
 30
0.0
 11
59.5
 21
-77.0
 31
0.0
  0
LINE
  5
347
330
533
100
AcDbEntity
  8
internal
100
AcDbLine
 10
42.5
 20
-102.0
 30
0.0
 11
59.5
 21
-102.0
 31
0.0
  0
LINE
  5
348
330
533
100
AcDbEntity
  8
internal
100
AcDbLine
 10
24.5
 20
-102.0
 30
0.0
 11
24.5
 21
-77.0
 31
0.0
  0
LINE
  5
349
330
533
100
AcDbEntity
  8
internal
100
AcDbLine
 10
24.5
 20
-77.0
 30
0.0
 11
24.5
 21
-102.0
 31
0.0
  0
LINE
  5
34A
330
533
100
AcDbEntity
  8
internal
100
AcDbLine
 10
41.5
 20
-77.0
 30
0.0
 11
24.5
 21
-77.0
 31
0.0
  0
LINE
  5
34B
330
533
100
AcDbEntity
  8
internal
100
AcDbLine
 10
41.5
 20
-102.0
 30
0.0
 11
41.5
 21
-77.0
 31
0.0
  0
LINE
  5
34C
330
533
100
AcDbEntity
  8
internal
100
AcDbLine
 10
24.5
 20
-102.0
 30
0.0
 11
41.5
 21
-102.0
 31
0.0
  0
LINE
  5
34D
330
533
100
AcDbEntity
  8
internal
100
AcDbLine
 10
6.5
 20
-102.0
 30
0.0
 11
6.5
 21
-77.0
 31
0.0
  0
LINE
  5
34E
330
533
100
AcDbEntity
  8
internal
100
AcDbLine
 10
6.5
 20
-77.0
 30
0.0
 11
6.5
 21
-102.0
 31
0.0
  0
LINE
  5
34F
330
533
100
AcDbEntity
  8
internal
100
AcDbLine
 10
23.5
 20
-77.0
 30
0.0
 11
6.5
 21
-77.0
 31
0.0
  0
LINE
  5
350
330
533
100
AcDbEntity
  8
internal
100
AcDbLine
 10
23.5
 20
-102.0
 30
0.0
 11
23.5
 21
-77.0
 31
0.0
  0
LINE
  5
351
330
533
100
AcDbEntity
  8
internal
100
AcDbLine
 10
6.5
 20
-102.0
 30
0.0
 11
23.5
 21
-102.0
 31
0.0
  0
LINE
  5
352
330
533
100
AcDbEntity
  8
internal
100
AcDbLine
 10
138.0
 20
-10.0
 30
0.0
 11
138.0
 21
0.0
 31
0.0
  0
LINE
  5
353
330
533
100
AcDbEntity
  8
internal
100
AcDbLine
 10
148.0
 20
-10.0
 30
0.0
 11
138.0
 21
-10.0
 31
0.0
  0
LINE
  5
354
330
533
100
AcDbEntity
  8
internal
100
AcDbLine
 10
148.0
 20
0.0
 30
0.0
 11
148.0
 21
-10.0
 31
0.0
  0
LINE
  5
355
330
533
100
AcDbEntity
  8
internal
100
AcDbLine
 10
138.0
 20
0.0
 30
0.0
 11
148.0
 21
0.0
 31
0.0
  0
LINE
  5
356
330
533
100
AcDbEntity
  8
internal
100
AcDbLine
 10
125.0
 20
-14.0
 30
0.0
 11
125.0
 21
0.0
 31
0.0
  0
LINE
  5
357
330
533
100
AcDbEntity
  8
internal
100
AcDbLine
 10
134.0
 20
-14.0
 30
0.0
 11
125.0
 21
-14.0
 31
0.0
  0
LINE
  5
358
330
533
100
AcDbEntity
  8
internal
100
AcDbLine
 10
134.0
 20
0.0
 30
0.0
 11
134.0
 21
-14.0
 31
0.0
  0
LINE
  5
359
330
533
100
AcDbEntity
  8
internal
100
AcDbLine
 10
125.0
 20
0.0
 30
0.0
 11
134.0
 21
0.0
 31
0.0
  0
LINE
  5
35A
330
533
100
AcDbEntity
  8
internal
100
AcDbLine
 10
97.0
 20
-14.0
 30
0.0
 11
97.0
 21
0.0
 31
0.0
  0
LINE
  5
35B
330
533
100
AcDbEntity
  8
internal
100
AcDbLine
 10
105.0
 20
-14.0
 30
0.0
 11
97.0
 21
-14.0
 31
0.0
  0
LINE
  5
35C
330
533
100
AcDbEntity
  8
internal
100
AcDbLine
 10
105.0
 20
0.0
 30
0.0
 11
105.0
 21
-14.0
 31
0.0
  0
LINE
  5
35D
330
533
100
AcDbEntity
  8
internal
100
AcDbLine
 10
97.0
 20
0.0
 30
0.0
 11
105.0
 21
0.0
 31
0.0
  0
LINE
  5
35E
330
533
100
AcDbEntity
  8
internal
100
AcDbLine
 10
109.0
 20
-12.0
 30
0.0
 11
109.0
 21
0.0
 31
0.0
  0
LINE
  5
35F
330
533
100
AcDbEntity
  8
internal
100
AcDbLine
 10
121.0
 20
-12.0
 30
0.0
 11
109.0
 21
-12.0
 31
0.0
  0
LINE
  5
360
330
533
100
AcDbEntity
  8
internal
100
AcDbLine
 10
121.0
 20
0.0
 30
0.0
 11
121.0
 21
-12.0
 31
0.0
  0
LINE
  5
361
330
533
100
AcDbEntity
  8
internal
100
AcDbLine
 10
109.0
 20
0.0
 30
0.0
 11
121.0
 21
0.0
 31
0.0
  0
LINE
  5
362
330
533
100
AcDbEntity
  8
internal
100
AcDbLine
 10
12.0
 20
-50.0
 30
0.0
 11
12.0
 21
-80.0
 31
0.0
  0
LINE
  5
363
330
533
100
AcDbEntity
  8
internal
100
AcDbLine
 10
72.0
 20
-50.0
 30
0.0
 11
12.0
 21
-50.0
 31
0.0
  0
LINE
  5
364
330
533
100
AcDbEntity
  8
internal
100
AcDbLine
 10
72.0
 20
-80.0
 30
0.0
 11
72.0
 21
-50.0
 31
0.0
  0
LINE
  5
365
330
533
100
AcDbEntity
  8
internal
100
AcDbLine
 10
12.0
 20
-80.0
 30
0.0
 11
72.0
 21
-80.0
 31
0.0
  0
LINE
  5
366
330
533
100
AcDbEntity
  8
0
100
AcDbLine
 10
16.0
 20
89.0
 30
0.0
 11
16.0
 21
89.0
 31
0.0
  0
LINE
  5
367
330
533
100
AcDbEntity
  8
internal
100
AcDbLine
 10
-48.0
 20
74.0
 30
0.0
 11
12.0
 21
74.0
 31
0.0
  0
LINE
  5
368
330
533
100
AcDbEntity
  8
internal
100
AcDbLine
 10
12.0
 20
74.0
 30
0.0
 11
12.0
 21
104.0
 31
0.0
  0
LINE
  5
369
330
533
100
AcDbEntity
  8
internal
100
AcDbLine
 10
12.0
 20
104.0
 30
0.0
 11
-48.0
 21
104.0
 31
0.0
  0
LINE
  5
36A
330
533
100
AcDbEntity
  8
internal
100
AcDbLine
 10
-48.0
 20
104.0
 30
0.0
 11
-48.0
 21
74.0
 31
0.0
  0
ARC
  5
36B
330
533
100
AcDbEntity
  8
0
100
AcDbCircle
 10
14.5
 20
106.5
 30
0.0
 40
1.5
100
AcDbArc
 50
0.0
 51
90.0
  0
LINE
  5
36C
330
533
100
AcDbEntity
  8
0
100
AcDbLine
 10
16.0
 20
106.5
 30
0.0
 11
16.0
 21
71.5
 31
0.0
  0
ARC
  5
36D
330
533
100
AcDbEntity
  8
0
100
AcDbCircle
 10
14.5
 20
71.5
 30
0.0
 40
1.5
100
AcDbArc
 50
270.0
 51
0.0
  0
LINE
  5
36E
330
533
100
AcDbEntity
  8
0
100
AcDbLine
 10
-50.5
 20
70.0
 30
0.0
 11
14.5
 21
70.0
 31
0.0
  0
ARC
  5
36F
330
533
100
AcDbEntity
  8
0
100
AcDbCircle
 10
-50.5
 20
71.5
 30
0.0
 40
1.5
100
AcDbArc
 50
180.0
 51
270.0
  0
LINE
  5
370
330
533
100
AcDbEntity
  8
0
100
AcDbLine
 10
-52.0
 20
106.5
 30
0.0
 11
-52.0
 21
71.5
 31
0.0
  0
LINE
  5
371
330
533
100
AcDbEntity
  8
0
100
AcDbLine
 10
14.5
 20
108.0
 30
0.0
 11
-50.5
 21
108.0
 31
0.0
  0
ARC
  5
372
330
533
100
AcDbEntity
  8
0
100
AcDbCircle
 10
-50.5
 20
106.5
 30
0.0
 40
1.5
100
AcDbArc
 50
90.0
 51
180.0
  0
ARC
  5
373
330
533
100
AcDbEntity
  8
0
100
AcDbCircle
 10
-50.5
 20
61.5
 30
0.0
 40
1.5
100
AcDbArc
 50
180.0
 51
270.0
  0
ARC
  5
374
330
533
100
AcDbEntity
  8
0
100
AcDbCircle
 10
-50.5
 20
64.5
 30
0.0
 40
1.5
100
AcDbArc
 50
90.0
 51
180.0
  0
ARC
  5
375
330
533
100
AcDbEntity
  8
0
100
AcDbCircle
 10
-32.5
 20
61.5
 30
0.0
 40
1.5
100
AcDbArc
 50
180.0
 51
270.0
  0
LINE
  5
376
330
533
100
AcDbEntity
  8
0
100
AcDbLine
 10
-34.0
 20
64.5
 30
0.0
 11
-34.0
 21
61.5
 31
0.0
  0
ARC
  5
377
330
533
100
AcDbEntity
  8
0
100
AcDbCircle
 10
-32.5
 20
64.5
 30
0.0
 40
1.5
100
AcDbArc
 50
90.0
 51
180.0
  0
LINE
  5
378
330
533
100
AcDbEntity
  8
0
100
AcDbLine
 10
-32.5
 20
60.0
 30
0.0
 11
-21.5
 21
60.0
 31
0.0
  0
ARC
  5
379
330
533
100
AcDbEntity
  8
0
100
AcDbCircle
 10
-21.5
 20
61.5
 30
0.0
 40
1.5
100
AcDbArc
 50
270.0
 51
0.0
  0
LINE
  5
37A
330
533
100
AcDbEntity
  8
0
100
AcDbLine
 10
-21.5
 20
66.0
 30
0.0
 11
-32.5
 21
66.0
 31
0.0
  0
ARC
  5
37B
330
533
100
AcDbEntity
  8
0
100
AcDbCircle
 10
-21.5
 20
64.5
 30
0.0
 40
1.5
100
AcDbArc
 50
0.0
 51
90.0
  0
ARC
  5
37C
330
533
100
AcDbEntity
  8
0
100
AcDbCircle
 10
-14.5
 20
64.5
 30
0.0
 40
1.5
100
AcDbArc
 50
90.0
 51
180.0
  0
ARC
  5
37D
330
533
100
AcDbEntity
  8
0
100
AcDbCircle
 10
-14.5
 20
61.5
 30
0.0
 40
1.5
100
AcDbArc
 50
180.0
 51
270.0
  0
LINE
  5
37E
330
533
100
AcDbEntity
  8
0
100
AcDbLine
 10
-3.5
 20
60.0
 30
0.0
 11
-14.5
 21
60.0
 31
0.0
  0
ARC
  5
37F
330
533
100
AcDbEntity
  8
0
100
AcDbCircle
 10
-3.5
 20
61.5
 30
0.0
 40
1.5
100
AcDbArc
 50
270.0
 51
0.0
  0
LINE
  5
380
330
533
100
AcDbEntity
  8
0
100
AcDbLine
 10
-2.0
 20
64.5
 30
0.0
 11
-2.0
 21
61.5
 31
0.0
  0
LINE
  5
381
330
533
100
AcDbEntity
  8
0
100
AcDbLine
 10
-14.5
 20
66.0
 30
0.0
 11
-3.5
 21
66.0
 31
0.0
  0
ARC
  5
382
330
533
100
AcDbEntity
  8
0
100
AcDbCircle
 10
-3.5
 20
64.5
 30
0.0
 40
1.5
100
AcDbArc
 50
0.0
 51
90.0
  0
ARC
  5
383
330
533
100
AcDbEntity
  8
0
100
AcDbCircle
 10
3.5
 20
64.5
 30
0.0
 40
1.5
100
AcDbArc
 50
90.0
 51
180.0
  0
LINE
  5
384
330
533
100
AcDbEntity
  8
0
100
AcDbLine
 10
2.0
 20
64.5
 30
0.0
 11
2.0
 21
61.5
 31
0.0
  0
ARC
  5
385
330
533
100
AcDbEntity
  8
0
100
AcDbCircle
 10
3.5
 20
61.5
 30
0.0
 40
1.5
100
AcDbArc
 50
180.0
 51
270.0
  0
LINE
  5
386
330
533
100
AcDbEntity
  8
0
100
AcDbLine
 10
3.5
 20
60.0
 30
0.0
 11
14.5
 21
60.0
 31
0.0
  0
ARC
  5
387
330
533
100
AcDbEntity
  8
0
100
AcDbCircle
 10
14.5
 20
61.5
 30
0.0
 40
1.5
100
AcDbArc
 50
270.0
 51
0.0
  0
LINE
  5
388
330
533
100
AcDbEntity
  8
0
100
AcDbLine
 10
14.5
 20
66.0
 30
0.0
 11
3.5
 21
66.0
 31
0.0
  0
ARC
  5
389
330
533
100
AcDbEntity
  8
0
100
AcDbCircle
 10
14.5
 20
64.5
 30
0.0
 40
1.5
100
AcDbArc
 50
0.0
 51
90.0
  0
LINE
  5
38A
330
533
100
AcDbEntity
  8
0
100
AcDbLine
 10
-39.5
 20
60.0
 30
0.0
 11
-50.5
 21
60.0
 31
0.0
  0
ARC
  5
38B
330
533
100
AcDbEntity
  8
0
100
AcDbCircle
 10
-39.5
 20
61.5
 30
0.0
 40
1.5
100
AcDbArc
 50
270.0
 51
0.0
  0
LINE
  5
38C
330
533
100
AcDbEntity
  8
0
100
AcDbLine
 10
-50.5
 20
66.0
 30
0.0
 11
-39.5
 21
66.0
 31
0.0
  0
LINE
  5
38D
330
533
100
AcDbEntity
  8
0
100
AcDbLine
 10
-38.0
 20
64.5
 30
0.0
 11
-38.0
 21
61.5
 31
0.0
  0
ARC
  5
38E
330
533
100
AcDbEntity
  8
0
100
AcDbCircle
 10
-39.5
 20
64.5
 30
0.0
 40
1.5
100
AcDbArc
 50
0.0
 51
90.0
  0
LINE
  5
38F
330
533
100
AcDbEntity
  8
0
100
AcDbLine
 10
-52.0
 20
61.5
 30
0.0
 11
-52.0
 21
64.5
 31
0.0
  0
LINE
  5
390
330
533
100
AcDbEntity
  8
0
100
AcDbLine
 10
-20.0
 20
61.5
 30
0.0
 11
-20.0
 21
64.5
 31
0.0
  0
LINE
  5
391
330
533
100
AcDbEntity
  8
0
100
AcDbLine
 10
-16.0
 20
64.5
 30
0.0
 11
-16.0
 21
61.5
 31
0.0
  0
LINE
  5
392
330
533
100
AcDbEntity
  8
0
100
AcDbLine
 10
16.0
 20
61.5
 30
0.0
 11
16.0
 21
64.5
 31
0.0
  0
ARC
  5
393
330
533
100
AcDbEntity
  8
0
100
AcDbCircle
 10
21.5
 20
64.5
 30
0.0
 40
1.5
100
AcDbArc
 50
90.0
 51
180.0
  0
ARC
  5
394
330
533
100
AcDbEntity
  8
0
100
AcDbCircle
 10
21.5
 20
61.5
 30
0.0
 40
1.5
100
AcDbArc
 50
180.0
 51
270.0
  0
LINE
  5
395
330
533
100
AcDbEntity
  8
0
100
AcDbLine
 10
41.5
 20
60.0
 30
0.0
 11
21.5
 21
60.0
 31
0.0
  0
ARC
  5
396
330
533
100
AcDbEntity
  8
0
100
AcDbCircle
 10
41.5
 20
61.5
 30
0.0
 40
1.5
100
AcDbArc
 50
270.0
 51
0.0
  0
LINE
  5
397
330
533
100
AcDbEntity
  8
0
100
AcDbLine
 10
43.0
 20
64.5
 30
0.0
 11
43.0
 21
61.5
 31
0.0
  0
LINE
  5
398
330
533
100
AcDbEntity
  8
0
100
AcDbLine
 10
21.5
 20
66.0
 30
0.0
 11
41.5
 21
66.0
 31
0.0
  0
ARC
  5
399
330
533
100
AcDbEntity
  8
0
100
AcDbCircle
 10
41.5
 20
64.5
 30
0.0
 40
1.5
100
AcDbArc
 50
0.0
 51
90.0
  0
ARC
  5
39A
330
533
100
AcDbEntity
  8
0
100
AcDbCircle
 10
48.5
 20
64.5
 30
0.0
 40
1.5
100
AcDbArc
 50
90.0
 51
180.0
  0
LINE
  5
39B
330
533
100
AcDbEntity
  8
0
100
AcDbLine
 10
47.0
 20
64.5
 30
0.0
 11
47.0
 21
61.5
 31
0.0
  0
ARC
  5
39C
330
533
100
AcDbEntity
  8
0
100
AcDbCircle
 10
48.5
 20
61.5
 30
0.0
 40
1.5
100
AcDbArc
 50
180.0
 51
270.0
  0
LINE
  5
39D
330
533
100
AcDbEntity
  8
0
100
AcDbLine
 10
48.5
 20
60.0
 30
0.0
 11
68.5
 21
60.0
 31
0.0
  0
ARC
  5
39E
330
533
100
AcDbEntity
  8
0
100
AcDbCircle
 10
68.5
 20
61.5
 30
0.0
 40
1.5
100
AcDbArc
 50
270.0
 51
0.0
  0
LINE
  5
39F
330
533
100
AcDbEntity
  8
0
100
AcDbLine
 10
68.5
 20
66.0
 30
0.0
 11
48.5
 21
66.0
 31
0.0
  0
ARC
  5
3A0
330
533
100
AcDbEntity
  8
0
100
AcDbCircle
 10
68.5
 20
64.5
 30
0.0
 40
1.5
100
AcDbArc
 50
0.0
 51
90.0
  0
LINE
  5
3A1
330
533
100
AcDbEntity
  8
0
100
AcDbLine
 10
70.0
 20
61.5
 30
0.0
 11
70.0
 21
64.5
 31
0.0
  0
LINE
  5
3A2
330
533
100
AcDbEntity
  8
0
100
AcDbLine
 10
20.0
 20
64.5
 30
0.0
 11
20.0
 21
61.5
 31
0.0
  0
ARC
  5
3A3
330
533
100
AcDbEntity
  8
0
100
AcDbCircle
 10
-58.0
 20
54.0
 30
0.0
 40
2.0
100
AcDbArc
 50
180.0
 51
270.0
  0
LINE
  5
3A4
330
533
100
AcDbEntity
  8
0
100
AcDbLine
 10
-58.0
 20
52.0
 30
0.0
 11
76.0
 21
52.0
 31
0.0
  0
ARC
  5
3A5
330
533
100
AcDbEntity
  8
0
100
AcDbCircle
 10
76.0
 20
54.0
 30
0.0
 40
2.0
100
AcDbArc
 50
270.0
 51
0.0
  0
LINE
  5
3A6
330
533
100
AcDbEntity
  8
0
100
AcDbLine
 10
78.0
 20
54.0
 30
0.0
 11
78.0
 21
138.0
 31
0.0
  0
ARC
  5
3A7
330
533
100
AcDbEntity
  8
0
100
AcDbCircle
 10
76.0
 20
138.0
 30
0.0
 40
2.0
100
AcDbArc
 50
0.0
 51
90.0
  0
LINE
  5
3A8
330
533
100
AcDbEntity
  8
0
100
AcDbLine
 10
-60.0
 20
138.0
 30
0.0
 11
-60.0
 21
54.0
 31
0.0
  0
LINE
  5
3A9
330
533
100
AcDbEntity
  8
0
100
AcDbLine
 10
76.0
 20
140.0
 30
0.0
 11
-58.0
 21
140.0
 31
0.0
  0
ARC
  5
3AA
330
533
100
AcDbEntity
  8
0
100
AcDbCircle
 10
-58.0
 20
138.0
 30
0.0
 40
2.0
100
AcDbArc
 50
90.0
 51
180.0
  0
CIRCLE
  5
3AB
330
533
100
AcDbEntity
  8
0
100
AcDbCircle
 10
-46.0
 20
126.0
 30
0.0
 40
6.0
  0
CIRCLE
  5
3AC
330
533
100
AcDbEntity
  8
0
100
AcDbCircle
 10
64.10511776651532
 20
78.00000000000001
 30
0.0
 40
6.0
  0
CIRCLE
  5
3AD
330
533
100
AcDbEntity
  8
0
100
AcDbCircle
 10
38.70170592217178
 20
78.0
 30
0.0
 40
6.0
  0
CIRCLE
  5
3AE
330
533
100
AcDbEntity
  8
0
100
AcDbCircle
 10
26.0
 20
100.0
 30
0.0
 40
6.0
  0
CIRCLE
  5
3AF
330
533
100
AcDbEntity
  8
0
100
AcDbCircle
 10
51.40341184434354
 20
100.0
 30
0.0
 40
6.0
  0
LINE
  5
3B0
330
533
100
AcDbEntity
  8
0
100
AcDbLine
 10
55.0
 20
146.0
 30
0.0
 11
55.0
 21
147.0
 31
0.0
  0
LINE
  5
3B1
330
533
100
AcDbEntity
  8
0
100
AcDbLine
 10
-22.0
 20
147.0
 30
0.0
 11
-12.0
 21
147.0
 31
0.0
  0
LINE
  5
3B2
330
533
100
AcDbEntity
  8
0
100
AcDbLine
 10
-12.0
 20
147.0
 30
0.0
 11
-12.0
 21
146.0
 31
0.0
  0
LINE
  5
3B3
330
533
100
AcDbEntity
  8
0
100
AcDbLine
 10
-12.0
 20
146.0
 30
0.0
 11
-22.0
 21
146.0
 31
0.0
  0
LINE
  5
3B4
330
533
100
AcDbEntity
  8
0
100
AcDbLine
 10
-22.0
 20
146.0
 30
0.0
 11
-22.0
 21
147.0
 31
0.0
  0
LINE
  5
3B5
330
533
100
AcDbEntity
  8
0
100
AcDbLine
 10
-7.0
 20
146.0
 30
0.0
 11
3.0
 21
146.0
 31
0.0
  0
LINE
  5
3B6
330
533
100
AcDbEntity
  8
0
100
AcDbLine
 10
3.0
 20
146.0
 30
0.0
 11
3.0
 21
147.0
 31
0.0
  0
LINE
  5
3B7
330
533
100
AcDbEntity
  8
0
100
AcDbLine
 10
3.0
 20
147.0
 30
0.0
 11
-7.0
 21
147.0
 31
0.0
  0
LINE
  5
3B8
330
533
100
AcDbEntity
  8
0
100
AcDbLine
 10
-7.0
 20
147.0
 30
0.0
 11
-7.0
 21
146.0
 31
0.0
  0
LINE
  5
3B9
330
533
100
AcDbEntity
  8
0
100
AcDbLine
 10
-55.0
 20
146.0
 30
0.0
 11
-55.0
 21
147.0
 31
0.0
  0
LINE
  5
3BA
330
533
100
AcDbEntity
  8
0
100
AcDbLine
 10
-47.0
 20
147.0
 30
0.0
 11
-47.0
 21
146.0
 31
0.0
  0
LINE
  5
3BB
330
533
100
AcDbEntity
  8
0
100
AcDbLine
 10
-47.0
 20
146.0
 30
0.0
 11
-55.0
 21
146.0
 31
0.0
  0
LINE
  5
3BC
330
533
100
AcDbEntity
  8
0
100
AcDbLine
 10
47.0
 20
147.0
 30
0.0
 11
47.0
 21
146.0
 31
0.0
  0
LINE
  5
3BD
330
533
100
AcDbEntity
  8
0
100
AcDbLine
 10
47.0
 20
146.0
 30
0.0
 11
55.0
 21
146.0
 31
0.0
  0
LINE
  5
3BE
330
533
100
AcDbEntity
  8
0
100
AcDbLine
 10
40.0
 20
147.0
 30
0.0
 11
30.0
 21
147.0
 31
0.0
  0
LINE
  5
3BF
330
533
100
AcDbEntity
  8
0
100
AcDbLine
 10
30.0
 20
147.0
 30
0.0
 11
30.0
 21
146.0
 31
0.0
  0
LINE
  5
3C0
330
533
100
AcDbEntity
  8
0
100
AcDbLine
 10
30.0
 20
146.0
 30
0.0
 11
40.0
 21
146.0
 31
0.0
  0
LINE
  5
3C1
330
533
100
AcDbEntity
  8
0
100
AcDbLine
 10
40.0
 20
146.0
 30
0.0
 11
40.0
 21
147.0
 31
0.0
  0
LINE
  5
3C2
330
533
100
AcDbEntity
  8
0
100
AcDbLine
 10
25.0
 20
146.0
 30
0.0
 11
15.0
 21
146.0
 31
0.0
  0
LINE
  5
3C3
330
533
100
AcDbEntity
  8
0
100
AcDbLine
 10
15.0
 20
146.0
 30
0.0
 11
15.0
 21
147.0
 31
0.0
  0
LINE
  5
3C4
330
533
100
AcDbEntity
  8
0
100
AcDbLine
 10
15.0
 20
147.0
 30
0.0
 11
25.0
 21
147.0
 31
0.0
  0
LINE
  5
3C5
330
533
100
AcDbEntity
  8
0
100
AcDbLine
 10
25.0
 20
147.0
 30
0.0
 11
25.0
 21
146.0
 31
0.0
  0
LINE
  5
3C6
330
533
100
AcDbEntity
  8
0
100
AcDbLine
 10
-40.0
 20
147.0
 30
0.0
 11
-30.0
 21
147.0
 31
0.0
  0
LINE
  5
3C7
330
533
100
AcDbEntity
  8
0
100
AcDbLine
 10
-30.0
 20
147.0
 30
0.0
 11
-30.0
 21
146.0
 31
0.0
  0
LINE
  5
3C8
330
533
100
AcDbEntity
  8
0
100
AcDbLine
 10
-30.0
 20
146.0
 30
0.0
 11
-40.0
 21
146.0
 31
0.0
  0
LINE
  5
3C9
330
533
100
AcDbEntity
  8
0
100
AcDbLine
 10
-40.0
 20
146.0
 30
0.0
 11
-40.0
 21
147.0
 31
0.0
  0
LINE
  5
3CA
330
533
100
AcDbEntity
  8
0
100
AcDbLine
 10
-55.0
 20
147.0
 30
0.0
 11
-47.0
 21
147.0
 31
0.0
  0
LINE
  5
3CB
330
533
100
AcDbEntity
  8
0
100
AcDbLine
 10
55.0
 20
147.0
 30
0.0
 11
47.0
 21
147.0
 31
0.0
  0
MTEXT
  5
3CC
330
533
100
AcDbEntity
  8
0
100
AcDbMText
 10
-51.0
 20
149.0
 30
0.0
 40
1.0
 41
100.0
 46
0.0
 71
     2
 72
     1
  1
DEVICE\~/\~POWER
  7
textstyle0
 73
     1
 44
1.0
  0
MTEXT
  5
3CD
330
533
100
AcDbEntity
  8
0
100
AcDbMText
 10
-35.0
 20
149.0
 30
0.0
 40
1.0
 41
100.0
 46
0.0
 71
     2
 72
     1
  1
HEADPHONE
  7
textstyle1
 73
     1
 44
1.0
  0
MTEXT
  5
3CE
330
533
100
AcDbEntity
  8
0
100
AcDbMText
 10
-17.0
 20
149.0
 30
0.0
 40
1.0
 41
100.0
 46
0.0
 71
     2
 72
     1
  1
INPUT\~1/2
  7
textstyle2
 73
     1
 44
1.0
  0
MTEXT
  5
3CF
330
533
100
AcDbEntity
  8
0
100
AcDbMText
 10
-2.0
 20
149.0
 30
0.0
 40
1.0
 41
100.0
 46
0.0
 71
     2
 72
     1
  1
OUTPUT\~1/2
  7
textstyle3
 73
     1
 44
1.0
  0
MTEXT
  5
3D0
330
533
100
AcDbEntity
  8
0
100
AcDbMText
 10
20.0
 20
149.0
 30
0.0
 40
1.0
 41
100.0
 46
0.0
 71
     2
 72
     1
  1
AUX\~1/2
  7
textstyle4
 73
     1
 44
1.0
  0
MTEXT
  5
3D1
330
533
100
AcDbEntity
  8
0
100
AcDbMText
 10
35.0
 20
149.0
 30
0.0
 40
1.0
 41
100.0
 46
0.0
 71
     2
 72
     1
  1
AUX\~3/4
  7
textstyle5
 73
     1
 44
1.0
  0
MTEXT
  5
3D2
330
533
100
AcDbEntity
  8
0
100
AcDbMText
 10
51.0
 20
149.0
 30
0.0
 40
1.0
 41
100.0
 46
0.0
 71
     2
 72
     1
  1
USB\~HOST
  7
textstyle6
 73
     1
 44
1.0
  0
LINE
  5
3D3
330
533
100
AcDbEntity
  8
0
100
AcDbLine
 10
225.0
 20
127.0
 30
0.0
 11
237.0
 21
127.0
 31
0.0
  0
LINE
  5
3D4
330
533
100
AcDbEntity
  8
0
100
AcDbLine
 10
237.0
 20
127.0
 30
0.0
 11
237.0
 21
152.0
 31
0.0
  0
LINE
  5
3D5
330
533
100
AcDbEntity
  8
0
100
AcDbLine
 10
237.0
 20
152.0
 30
0.0
 11
225.0
 21
152.0
 31
0.0
  0
LINE
  5
3D6
330
533
100
AcDbEntity
  8
0
100
AcDbLine
 10
225.0
 20
152.0
 30
0.0
 11
225.0
 21
127.0
 31
0.0
  0
LINE
  5
3D7
330
533
100
AcDbEntity
  8
0
100
AcDbLine
 10
237.0
 20
127.0
 30
0.0
 11
254.0
 21
127.0
 31
0.0
  0
LINE
  5
3D8
330
533
100
AcDbEntity
  8
0
100
AcDbLine
 10
254.0
 20
127.0
 30
0.0
 11
254.0
 21
152.0
 31
0.0
  0
LINE
  5
3D9
330
533
100
AcDbEntity
  8
0
100
AcDbLine
 10
254.0
 20
152.0
 30
0.0
 11
237.0
 21
152.0
 31
0.0
  0
LINE
  5
3DA
330
533
100
AcDbEntity
  8
0
100
AcDbLine
 10
237.0
 20
152.0
 30
0.0
 11
237.0
 21
127.0
 31
0.0
  0
LINE
  5
3DB
330
533
100
AcDbEntity
  8
0
100
AcDbLine
 10
254.0
 20
127.0
 30
0.0
 11
271.0
 21
127.0
 31
0.0
  0
LINE
  5
3DC
330
533
100
AcDbEntity
  8
0
100
AcDbLine
 10
271.0
 20
127.0
 30
0.0
 11
271.0
 21
152.0
 31
0.0
  0
LINE
  5
3DD
330
533
100
AcDbEntity
  8
0
100
AcDbLine
 10
271.0
 20
152.0
 30
0.0
 11
254.0
 21
152.0
 31
0.0
  0
LINE
  5
3DE
330
533
100
AcDbEntity
  8
0
100
AcDbLine
 10
254.0
 20
152.0
 30
0.0
 11
254.0
 21
127.0
 31
0.0
  0
LINE
  5
3DF
330
533
100
AcDbEntity
  8
0
100
AcDbLine
 10
279.0
 20
127.0
 30
0.0
 11
296.0
 21
127.0
 31
0.0
  0
LINE
  5
3E0
330
533
100
AcDbEntity
  8
0
100
AcDbLine
 10
296.0
 20
127.0
 30
0.0
 11
296.0
 21
152.0
 31
0.0
  0
LINE
  5
3E1
330
533
100
AcDbEntity
  8
0
100
AcDbLine
 10
296.0
 20
152.0
 30
0.0
 11
279.0
 21
152.0
 31
0.0
  0
LINE
  5
3E2
330
533
100
AcDbEntity
  8
0
100
AcDbLine
 10
279.0
 20
152.0
 30
0.0
 11
279.0
 21
127.0
 31
0.0
  0
LINE
  5
3E3
330
533
100
AcDbEntity
  8
0
100
AcDbLine
 10
296.0
 20
152.0
 30
0.0
 11
296.0
 21
127.0
 31
0.0
  0
LINE
  5
3E4
330
533
100
AcDbEntity
  8
0
100
AcDbLine
 10
296.0
 20
127.0
 30
0.0
 11
313.0
 21
127.0
 31
0.0
  0
LINE
  5
3E5
330
533
100
AcDbEntity
  8
0
100
AcDbLine
 10
313.0
 20
127.0
 30
0.0
 11
313.0
 21
152.0
 31
0.0
  0
LINE
  5
3E6
330
533
100
AcDbEntity
  8
0
100
AcDbLine
 10
313.0
 20
152.0
 30
0.0
 11
296.0
 21
152.0
 31
0.0
  0
LINE
  5
3E7
330
533
100
AcDbEntity
  8
0
100
AcDbLine
 10
296.0
 20
152.0
 30
0.0
 11
296.0
 21
127.0
 31
0.0
  0
LINE
  5
3E8
330
533
100
AcDbEntity
  8
0
100
AcDbLine
 10
313.0
 20
152.0
 30
0.0
 11
313.0
 21
127.0
 31
0.0
  0
LINE
  5
3E9
330
533
100
AcDbEntity
  8
0
100
AcDbLine
 10
333.0
 20
152.0
 30
0.0
 11
345.0
 21
152.0
 31
0.0
  0
LINE
  5
3EA
330
533
100
AcDbEntity
  8
0
100
AcDbLine
 10
345.0
 20
152.0
 30
0.0
 11
345.0
 21
140.0
 31
0.0
  0
LINE
  5
3EB
330
533
100
AcDbEntity
  8
0
100
AcDbLine
 10
345.0
 20
140.0
 30
0.0
 11
333.0
 21
140.0
 31
0.0
  0
LINE
  5
3EC
330
533
100
AcDbEntity
  8
0
100
AcDbLine
 10
333.0
 20
140.0
 30
0.0
 11
333.0
 21
152.0
 31
0.0
  0
LINE
  5
3ED
330
533
100
AcDbEntity
  8
0
100
AcDbLine
 10
349.0
 20
152.0
 30
0.0
 11
358.0
 21
152.0
 31
0.0
  0
LINE
  5
3EE
330
533
100
AcDbEntity
  8
0
100
AcDbLine
 10
358.0
 20
152.0
 30
0.0
 11
358.0
 21
138.0
 31
0.0
  0
LINE
  5
3EF
330
533
100
AcDbEntity
  8
0
100
AcDbLine
 10
358.0
 20
138.0
 30
0.0
 11
349.0
 21
138.0
 31
0.0
  0
LINE
  5
3F0
330
533
100
AcDbEntity
  8
0
100
AcDbLine
 10
349.0
 20
138.0
 30
0.0
 11
349.0
 21
152.0
 31
0.0
  0
LINE
  5
3F1
330
533
100
AcDbEntity
  8
0
100
AcDbLine
 10
362.0
 20
152.0
 30
0.0
 11
372.0
 21
152.0
 31
0.0
  0
LINE
  5
3F2
330
533
100
AcDbEntity
  8
0
100
AcDbLine
 10
372.0
 20
152.0
 30
0.0
 11
372.0
 21
142.0
 31
0.0
  0
LINE
  5
3F3
330
533
100
AcDbEntity
  8
0
100
AcDbLine
 10
372.0
 20
142.0
 30
0.0
 11
362.0
 21
142.0
 31
0.0
  0
LINE
  5
3F4
330
533
100
AcDbEntity
  8
0
100
AcDbLine
 10
362.0
 20
142.0
 30
0.0
 11
362.0
 21
152.0
 31
0.0
  0
LINE
  5
3F5
330
533
100
AcDbEntity
  8
0
100
AcDbLine
 10
225.0
 20
152.0
 30
0.0
 11
208.0
 21
152.0
 31
0.0
  0
LINE
  5
3F6
330
533
100
AcDbEntity
  8
0
100
AcDbLine
 10
208.0
 20
152.0
 30
0.0
 11
208.0
 21
127.0
 31
0.0
  0
LINE
  5
3F7
330
533
100
AcDbEntity
  8
0
100
AcDbLine
 10
208.0
 20
127.0
 30
0.0
 11
208.0
 21
152.0
 31
0.0
  0
LINE
  5
3F8
330
533
100
AcDbEntity
  8
0
100
AcDbLine
 10
208.0
 20
127.0
 30
0.0
 11
225.0
 21
127.0
 31
0.0
  0
LINE
  5
3F9
330
533
100
AcDbEntity
  8
0
100
AcDbLine
 10
225.0
 20
127.0
 30
0.0
 11
225.0
 21
152.0
 31
0.0
  0
LINE
  5
3FA
330
533
100
AcDbEntity
  8
0
100
AcDbLine
 10
231.0
 20
152.0
 30
0.0
 11
231.0
 21
127.0
 31
0.0
  0
LINE
  5
3FB
330
533
100
AcDbEntity
  8
0
100
AcDbLine
 10
276.0
 20
79.0
 30
0.0
 11
276.0
 21
79.0
 31
0.0
  0
LINE
  5
3FC
330
533
100
AcDbEntity
  8
internal
100
AcDbLine
 10
212.0
 20
64.0
 30
0.0
 11
272.0
 21
64.0
 31
0.0
  0
LINE
  5
3FD
330
533
100
AcDbEntity
  8
internal
100
AcDbLine
 10
272.0
 20
64.0
 30
0.0
 11
272.0
 21
94.0
 31
0.0
  0
LINE
  5
3FE
330
533
100
AcDbEntity
  8
internal
100
AcDbLine
 10
272.0
 20
94.0
 30
0.0
 11
212.0
 21
94.0
 31
0.0
  0
LINE
  5
3FF
330
533
100
AcDbEntity
  8
internal
100
AcDbLine
 10
212.0
 20
94.0
 30
0.0
 11
212.0
 21
64.0
 31
0.0
  0
ARC
  5
400
330
533
100
AcDbEntity
  8
0
100
AcDbCircle
 10
274.5
 20
96.5
 30
0.0
 40
1.5
100
AcDbArc
 50
0.0
 51
90.0
  0
LINE
  5
401
330
533
100
AcDbEntity
  8
0
100
AcDbLine
 10
276.0
 20
96.5
 30
0.0
 11
276.0
 21
61.5
 31
0.0
  0
ARC
  5
402
330
533
100
AcDbEntity
  8
0
100
AcDbCircle
 10
274.5
 20
61.5
 30
0.0
 40
1.5
100
AcDbArc
 50
270.0
 51
0.0
  0
LINE
  5
403
330
533
100
AcDbEntity
  8
0
100
AcDbLine
 10
209.5
 20
60.0
 30
0.0
 11
274.5
 21
60.0
 31
0.0
  0
ARC
  5
404
330
533
100
AcDbEntity
  8
0
100
AcDbCircle
 10
209.5
 20
61.5
 30
0.0
 40
1.5
100
AcDbArc
 50
180.0
 51
270.0
  0
LINE
  5
405
330
533
100
AcDbEntity
  8
0
100
AcDbLine
 10
208.0
 20
96.5
 30
0.0
 11
208.0
 21
61.5
 31
0.0
  0
LINE
  5
406
330
533
100
AcDbEntity
  8
0
100
AcDbLine
 10
274.5
 20
98.0
 30
0.0
 11
209.5
 21
98.0
 31
0.0
  0
ARC
  5
407
330
533
100
AcDbEntity
  8
0
100
AcDbCircle
 10
209.5
 20
96.5
 30
0.0
 40
1.5
100
AcDbArc
 50
90.0
 51
180.0
  0
LINE
  5
408
330
533
100
AcDbEntity
  8
0
100
AcDbLine
 10
202.0
 20
52.0
 30
0.0
 11
378.0
 21
52.0
 31
0.0
  0
ARC
  5
409
330
533
100
AcDbEntity
  8
0
100
AcDbCircle
 10
378.0
 20
54.0
 30
0.0
 40
2.0
100
AcDbArc
 50
270.0
 51
0.0
  0
LINE
  5
40A
330
533
100
AcDbEntity
  8
0
100
AcDbLine
 10
380.0
 20
54.0
 30
0.0
 11
380.0
 21
136.0
 31
0.0
  0
LINE
  5
40B
330
533
100
AcDbEntity
  8
0
100
AcDbLine
 10
281.5
 20
98.0
 30
0.0
 11
298.5
 21
98.0
 31
0.0
  0
LINE
  5
40C
330
533
100
AcDbEntity
  8
0
100
AcDbLine
 10
300.0
 20
96.5
 30
0.0
 11
300.0
 21
71.5
 31
0.0
  0
LINE
  5
40D
330
533
100
AcDbEntity
  8
0
100
AcDbLine
 10
298.5
 20
70.0
 30
0.0
 11
281.5
 21
70.0
 31
0.0
  0
LINE
  5
40E
330
533
100
AcDbEntity
  8
0
100
AcDbLine
 10
280.0
 20
71.5
 30
0.0
 11
280.0
 21
96.5
 31
0.0
  0
LINE
  5
40F
330
533
100
AcDbEntity
  8
0
100
AcDbLine
 10
281.5
 20
60.0
 30
0.0
 11
298.5
 21
60.0
 31
0.0
  0
LINE
  5
410
330
533
100
AcDbEntity
  8
0
100
AcDbLine
 10
300.0
 20
61.5
 30
0.0
 11
300.0
 21
64.5
 31
0.0
  0
LINE
  5
411
330
533
100
AcDbEntity
  8
0
100
AcDbLine
 10
298.5
 20
66.0
 30
0.0
 11
281.5
 21
66.0
 31
0.0
  0
LINE
  5
412
330
533
100
AcDbEntity
  8
0
100
AcDbLine
 10
280.0
 20
64.5
 30
0.0
 11
280.0
 21
61.5
 31
0.0
  0
LINE
  5
413
330
533
100
AcDbEntity
  8
0
100
AcDbLine
 10
305.5
 20
66.0
 30
0.0
 11
322.5
 21
66.0
 31
0.0
  0
LINE
  5
414
330
533
100
AcDbEntity
  8
0
100
AcDbLine
 10
324.0
 20
64.5
 30
0.0
 11
324.0
 21
61.5
 31
0.0
  0
LINE
  5
415
330
533
100
AcDbEntity
  8
0
100
AcDbLine
 10
322.5
 20
60.0
 30
0.0
 11
305.5
 21
60.0
 31
0.0
  0
LINE
  5
416
330
533
100
AcDbEntity
  8
0
100
AcDbLine
 10
304.0
 20
61.5
 30
0.0
 11
304.0
 21
64.5
 31
0.0
  0
LINE
  5
417
330
533
100
AcDbEntity
  8
0
100
AcDbLine
 10
305.5
 20
70.0
 30
0.0
 11
322.5
 21
70.0
 31
0.0
  0
LINE
  5
418
330
533
100
AcDbEntity
  8
0
100
AcDbLine
 10
324.0
 20
71.5
 30
0.0
 11
324.0
 21
96.5
 31
0.0
  0
LINE
  5
419
330
533
100
AcDbEntity
  8
0
100
AcDbLine
 10
322.5
 20
98.0
 30
0.0
 11
305.5
 21
98.0
 31
0.0
  0
LINE
  5
41A
330
533
100
AcDbEntity
  8
0
100
AcDbLine
 10
304.0
 20
96.5
 30
0.0
 11
304.0
 21
71.5
 31
0.0
  0
CIRCLE
  5
41B
330
533
100
AcDbEntity
  8
0
100
AcDbCircle
 10
290.0
 20
80.0
 30
0.0
 40
6.0
  0
CIRCLE
  5
41C
330
533
100
AcDbEntity
  8
0
100
AcDbCircle
 10
314.0
 20
80.0
 30
0.0
 40
6.0
  0
ARC
  5
41D
330
533
100
AcDbEntity
  8
0
100
AcDbCircle
 10
281.5
 20
96.5
 30
0.0
 40
1.5
100
AcDbArc
 50
90.0
 51
180.0
  0
ARC
  5
41E
330
533
100
AcDbEntity
  8
0
100
AcDbCircle
 10
298.5
 20
96.5
 30
0.0
 40
1.5
100
AcDbArc
 50
0.0
 51
90.0
  0
ARC
  5
41F
330
533
100
AcDbEntity
  8
0
100
AcDbCircle
 10
281.5
 20
64.5
 30
0.0
 40
1.5
100
AcDbArc
 50
90.0
 51
180.0
  0
ARC
  5
420
330
533
100
AcDbEntity
  8
0
100
AcDbCircle
 10
281.5
 20
61.5
 30
0.0
 40
1.5
100
AcDbArc
 50
180.0
 51
270.0
  0
ARC
  5
421
330
533
100
AcDbEntity
  8
0
100
AcDbCircle
 10
298.5
 20
61.5
 30
0.0
 40
1.5
100
AcDbArc
 50
270.0
 51
0.0
  0
ARC
  5
422
330
533
100
AcDbEntity
  8
0
100
AcDbCircle
 10
298.5
 20
64.5
 30
0.0
 40
1.5
100
AcDbArc
 50
0.0
 51
90.0
  0
ARC
  5
423
330
533
100
AcDbEntity
  8
0
100
AcDbCircle
 10
305.5
 20
61.5
 30
0.0
 40
1.5
100
AcDbArc
 50
180.0
 51
270.0
  0
ARC
  5
424
330
533
100
AcDbEntity
  8
0
100
AcDbCircle
 10
305.5
 20
64.5
 30
0.0
 40
1.5
100
AcDbArc
 50
90.0
 51
180.0
  0
ARC
  5
425
330
533
100
AcDbEntity
  8
0
100
AcDbCircle
 10
322.5
 20
64.5
 30
0.0
 40
1.5
100
AcDbArc
 50
0.0
 51
90.0
  0
ARC
  5
426
330
533
100
AcDbEntity
  8
0
100
AcDbCircle
 10
322.5
 20
61.5
 30
0.0
 40
1.5
100
AcDbArc
 50
270.0
 51
0.0
  0
ARC
  5
427
330
533
100
AcDbEntity
  8
0
100
AcDbCircle
 10
280.0
 20
70.0
 30
0.0
 40
0.0
100
AcDbArc
 50
0.0
 51
0.0
  0
ARC
  5
428
330
533
100
AcDbEntity
  8
0
100
AcDbCircle
 10
300.0
 20
70.0
 30
0.0
 40
0.0
100
AcDbArc
 50
0.0
 51
0.0
  0
ARC
  5
429
330
533
100
AcDbEntity
  8
0
100
AcDbCircle
 10
305.5
 20
71.5
 30
0.0
 40
1.5
100
AcDbArc
 50
180.0
 51
270.0
  0
ARC
  5
42A
330
533
100
AcDbEntity
  8
0
100
AcDbCircle
 10
322.5
 20
71.5
 30
0.0
 40
1.5
100
AcDbArc
 50
270.0
 51
0.0
  0
ARC
  5
42B
330
533
100
AcDbEntity
  8
0
100
AcDbCircle
 10
281.5
 20
71.5
 30
0.0
 40
1.5
100
AcDbArc
 50
180.0
 51
270.0
  0
ARC
  5
42C
330
533
100
AcDbEntity
  8
0
100
AcDbCircle
 10
298.5
 20
71.5
 30
0.0
 40
1.5
100
AcDbArc
 50
270.0
 51
0.0
  0
ARC
  5
42D
330
533
100
AcDbEntity
  8
0
100
AcDbCircle
 10
305.5
 20
96.5
 30
0.0
 40
1.5
100
AcDbArc
 50
90.0
 51
180.0
  0
ARC
  5
42E
330
533
100
AcDbEntity
  8
0
100
AcDbCircle
 10
322.5
 20
96.5
 30
0.0
 40
1.5
100
AcDbArc
 50
0.0
 51
90.0
  0
ARC
  5
42F
330
533
100
AcDbEntity
  8
0
100
AcDbCircle
 10
353.5
 20
61.5
 30
0.0
 40
1.5
100
AcDbArc
 50
180.0
 51
270.0
  0
ARC
  5
430
330
533
100
AcDbEntity
  8
0
100
AcDbCircle
 10
353.5
 20
64.5
 30
0.0
 40
1.5
100
AcDbArc
 50
90.0
 51
180.0
  0
ARC
  5
431
330
533
100
AcDbEntity
  8
0
100
AcDbCircle
 10
370.5
 20
64.5
 30
0.0
 40
1.5
100
AcDbArc
 50
0.0
 51
90.0
  0
ARC
  5
432
330
533
100
AcDbEntity
  8
0
100
AcDbCircle
 10
370.5
 20
61.5
 30
0.0
 40
1.5
100
AcDbArc
 50
270.0
 51
0.0
  0
ARC
  5
433
330
533
100
AcDbEntity
  8
0
100
AcDbCircle
 10
328.0
 20
70.0
 30
0.0
 40
0.0
100
AcDbArc
 50
0.0
 51
0.0
  0
LINE
  5
434
330
533
100
AcDbEntity
  8
0
100
AcDbLine
 10
329.5
 20
98.0
 30
0.0
 11
346.5
 21
98.0
 31
0.0
  0
ARC
  5
435
330
533
100
AcDbEntity
  8
0
100
AcDbCircle
 10
348.0
 20
70.0
 30
0.0
 40
0.0
100
AcDbArc
 50
0.0
 51
0.0
  0
LINE
  5
436
330
533
100
AcDbEntity
  8
0
100
AcDbLine
 10
348.0
 20
96.5
 30
0.0
 11
348.0
 21
71.5
 31
0.0
  0
ARC
  5
437
330
533
100
AcDbEntity
  8
0
100
AcDbCircle
 10
353.5
 20
71.5
 30
0.0
 40
1.5
100
AcDbArc
 50
180.0
 51
270.0
  0
LINE
  5
438
330
533
100
AcDbEntity
  8
0
100
AcDbLine
 10
346.5
 20
70.0
 30
0.0
 11
329.5
 21
70.0
 31
0.0
  0
ARC
  5
439
330
533
100
AcDbEntity
  8
0
100
AcDbCircle
 10
370.5
 20
71.5
 30
0.0
 40
1.5
100
AcDbArc
 50
270.0
 51
0.0
  0
LINE
  5
43A
330
533
100
AcDbEntity
  8
0
100
AcDbLine
 10
328.0
 20
71.5
 30
0.0
 11
328.0
 21
96.5
 31
0.0
  0
ARC
  5
43B
330
533
100
AcDbEntity
  8
0
100
AcDbCircle
 10
329.5
 20
71.5
 30
0.0
 40
1.5
100
AcDbArc
 50
180.0
 51
270.0
  0
ARC
  5
43C
330
533
100
AcDbEntity
  8
0
100
AcDbCircle
 10
346.5
 20
71.5
 30
0.0
 40
1.5
100
AcDbArc
 50
270.0
 51
0.0
  0
ARC
  5
43D
330
533
100
AcDbEntity
  8
0
100
AcDbCircle
 10
353.5
 20
96.5
 30
0.0
 40
1.5
100
AcDbArc
 50
90.0
 51
180.0
  0
ARC
  5
43E
330
533
100
AcDbEntity
  8
0
100
AcDbCircle
 10
370.5
 20
96.5
 30
0.0
 40
1.5
100
AcDbArc
 50
0.0
 51
90.0
  0
LINE
  5
43F
330
533
100
AcDbEntity
  8
0
100
AcDbLine
 10
329.5
 20
60.0
 30
0.0
 11
346.5
 21
60.0
 31
0.0
  0
LINE
  5
440
330
533
100
AcDbEntity
  8
0
100
AcDbLine
 10
348.0
 20
61.5
 30
0.0
 11
348.0
 21
64.5
 31
0.0
  0
LINE
  5
441
330
533
100
AcDbEntity
  8
0
100
AcDbLine
 10
346.5
 20
66.0
 30
0.0
 11
329.5
 21
66.0
 31
0.0
  0
LINE
  5
442
330
533
100
AcDbEntity
  8
0
100
AcDbLine
 10
328.0
 20
64.5
 30
0.0
 11
328.0
 21
61.5
 31
0.0
  0
LINE
  5
443
330
533
100
AcDbEntity
  8
0
100
AcDbLine
 10
353.5
 20
66.0
 30
0.0
 11
370.5
 21
66.0
 31
0.0
  0
LINE
  5
444
330
533
100
AcDbEntity
  8
0
100
AcDbLine
 10
372.0
 20
64.5
 30
0.0
 11
372.0
 21
61.5
 31
0.0
  0
LINE
  5
445
330
533
100
AcDbEntity
  8
0
100
AcDbLine
 10
370.5
 20
60.0
 30
0.0
 11
353.5
 21
60.0
 31
0.0
  0
LINE
  5
446
330
533
100
AcDbEntity
  8
0
100
AcDbLine
 10
352.0
 20
61.5
 30
0.0
 11
352.0
 21
64.5
 31
0.0
  0
LINE
  5
447
330
533
100
AcDbEntity
  8
0
100
AcDbLine
 10
353.5
 20
70.0
 30
0.0
 11
370.5
 21
70.0
 31
0.0
  0
LINE
  5
448
330
533
100
AcDbEntity
  8
0
100
AcDbLine
 10
372.0
 20
71.5
 30
0.0
 11
372.0
 21
96.5
 31
0.0
  0
LINE
  5
449
330
533
100
AcDbEntity
  8
0
100
AcDbLine
 10
370.5
 20
98.0
 30
0.0
 11
353.5
 21
98.0
 31
0.0
  0
LINE
  5
44A
330
533
100
AcDbEntity
  8
0
100
AcDbLine
 10
352.0
 20
96.5
 30
0.0
 11
352.0
 21
71.5
 31
0.0
  0
CIRCLE
  5
44B
330
533
100
AcDbEntity
  8
0
100
AcDbCircle
 10
338.0
 20
80.0
 30
0.0
 40
6.0
  0
CIRCLE
  5
44C
330
533
100
AcDbEntity
  8
0
100
AcDbCircle
 10
362.0
 20
80.0
 30
0.0
 40
6.0
  0
ARC
  5
44D
330
533
100
AcDbEntity
  8
0
100
AcDbCircle
 10
329.5
 20
96.5
 30
0.0
 40
1.5
100
AcDbArc
 50
90.0
 51
180.0
  0
ARC
  5
44E
330
533
100
AcDbEntity
  8
0
100
AcDbCircle
 10
346.5
 20
96.5
 30
0.0
 40
1.5
100
AcDbArc
 50
0.0
 51
90.0
  0
ARC
  5
44F
330
533
100
AcDbEntity
  8
0
100
AcDbCircle
 10
329.5
 20
64.5
 30
0.0
 40
1.5
100
AcDbArc
 50
90.0
 51
180.0
  0
ARC
  5
450
330
533
100
AcDbEntity
  8
0
100
AcDbCircle
 10
329.5
 20
61.5
 30
0.0
 40
1.5
100
AcDbArc
 50
180.0
 51
270.0
  0
ARC
  5
451
330
533
100
AcDbEntity
  8
0
100
AcDbCircle
 10
346.5
 20
61.5
 30
0.0
 40
1.5
100
AcDbArc
 50
270.0
 51
0.0
  0
ARC
  5
452
330
533
100
AcDbEntity
  8
0
100
AcDbCircle
 10
346.5
 20
64.5
 30
0.0
 40
1.5
100
AcDbArc
 50
0.0
 51
90.0
  0
LINE
  5
453
330
533
100
AcDbEntity
  8
0
100
AcDbLine
 10
202.0
 20
52.0
 30
0.0
 11
202.0
 21
52.0
 31
0.0
  0
LINE
  5
454
330
533
100
AcDbEntity
  8
0
100
AcDbLine
 10
200.0
 20
54.0
 30
0.0
 11
200.0
 21
150.0
 31
0.0
  0
LINE
  5
455
330
533
100
AcDbEntity
  8
0
100
AcDbLine
 10
202.0
 20
152.0
 30
0.0
 11
378.0
 21
152.0
 31
0.0
  0
LINE
  5
456
330
533
100
AcDbEntity
  8
0
100
AcDbLine
 10
380.0
 20
150.0
 30
0.0
 11
380.0
 21
136.0
 31
0.0
  0
ARC
  5
457
330
533
100
AcDbEntity
  8
0
100
AcDbCircle
 10
202.0
 20
54.0
 30
0.0
 40
2.0
100
AcDbArc
 50
180.0
 51
270.0
  0
ARC
  5
458
330
533
100
AcDbEntity
  8
0
100
AcDbCircle
 10
202.0
 20
150.0
 30
0.0
 40
2.0
100
AcDbArc
 50
90.0
 51
180.0
  0
ARC
  5
459
330
533
100
AcDbEntity
  8
0
100
AcDbCircle
 10
378.0
 20
150.0
 30
0.0
 40
2.0
100
AcDbArc
 50
0.0
 51
90.0
  0
LINE
  5
45A
330
533
100
AcDbEntity
  8
0
100
AcDbLine
 10
317.0
 20
152.0
 30
0.0
 11
325.0
 21
152.0
 31
0.0
  0
LINE
  5
45B
330
533
100
AcDbEntity
  8
0
100
AcDbLine
 10
325.0
 20
152.0
 30
0.0
 11
325.0
 21
138.0
 31
0.0
  0
LINE
  5
45C
330
533
100
AcDbEntity
  8
0
100
AcDbLine
 10
325.0
 20
138.0
 30
0.0
 11
317.0
 21
138.0
 31
0.0
  0
LINE
  5
45D
330
533
100
AcDbEntity
  8
0
100
AcDbLine
 10
317.0
 20
138.0
 30
0.0
 11
317.0
 21
152.0
 31
0.0
  0
LINE
  5
45E
330
533
100
AcDbEntity
  8
0
100
AcDbLine
 10
476.0
 20
91.0
 30
0.0
 11
476.0
 21
91.0
 31
0.0
  0
LINE
  5
45F
330
533
100
AcDbEntity
  8
internal
100
AcDbLine
 10
412.0
 20
76.0
 30
0.0
 11
472.0
 21
76.0
 31
0.0
  0
LINE
  5
460
330
533
100
AcDbEntity
  8
internal
100
AcDbLine
 10
472.0
 20
76.0
 30
0.0
 11
472.0
 21
106.0
 31
0.0
  0
LINE
  5
461
330
533
100
AcDbEntity
  8
internal
100
AcDbLine
 10
472.0
 20
106.0
 30
0.0
 11
412.0
 21
106.0
 31
0.0
  0
LINE
  5
462
330
533
100
AcDbEntity
  8
internal
100
AcDbLine
 10
412.0
 20
106.0
 30
0.0
 11
412.0
 21
76.0
 31
0.0
  0
ARC
  5
463
330
533
100
AcDbEntity
  8
0
100
AcDbCircle
 10
474.5
 20
108.5
 30
0.0
 40
1.5
100
AcDbArc
 50
0.0
 51
90.0
  0
LINE
  5
464
330
533
100
AcDbEntity
  8
0
100
AcDbLine
 10
476.0
 20
108.5
 30
0.0
 11
476.0
 21
73.5
 31
0.0
  0
ARC
  5
465
330
533
100
AcDbEntity
  8
0
100
AcDbCircle
 10
474.5
 20
73.5
 30
0.0
 40
1.5
100
AcDbArc
 50
270.0
 51
0.0
  0
LINE
  5
466
330
533
100
AcDbEntity
  8
0
100
AcDbLine
 10
409.5
 20
72.0
 30
0.0
 11
474.5
 21
72.0
 31
0.0
  0
ARC
  5
467
330
533
100
AcDbEntity
  8
0
100
AcDbCircle
 10
409.5
 20
73.5
 30
0.0
 40
1.5
100
AcDbArc
 50
180.0
 51
270.0
  0
LINE
  5
468
330
533
100
AcDbEntity
  8
0
100
AcDbLine
 10
408.0
 20
108.5
 30
0.0
 11
408.0
 21
73.5
 31
0.0
  0
LINE
  5
469
330
533
100
AcDbEntity
  8
0
100
AcDbLine
 10
474.5
 20
110.0
 30
0.0
 11
409.5
 21
110.0
 31
0.0
  0
ARC
  5
46A
330
533
100
AcDbEntity
  8
0
100
AcDbCircle
 10
409.5
 20
108.5
 30
0.0
 40
1.5
100
AcDbArc
 50
90.0
 51
180.0
  0
ARC
  5
46B
330
533
100
AcDbEntity
  8
0
100
AcDbCircle
 10
409.5
 20
63.5
 30
0.0
 40
1.5
100
AcDbArc
 50
180.0
 51
270.0
  0
ARC
  5
46C
330
533
100
AcDbEntity
  8
0
100
AcDbCircle
 10
409.5
 20
66.5
 30
0.0
 40
1.5
100
AcDbArc
 50
90.0
 51
180.0
  0
ARC
  5
46D
330
533
100
AcDbEntity
  8
0
100
AcDbCircle
 10
427.5
 20
63.5
 30
0.0
 40
1.5
100
AcDbArc
 50
180.0
 51
270.0
  0
LINE
  5
46E
330
533
100
AcDbEntity
  8
0
100
AcDbLine
 10
426.0
 20
66.5
 30
0.0
 11
426.0
 21
63.5
 31
0.0
  0
ARC
  5
46F
330
533
100
AcDbEntity
  8
0
100
AcDbCircle
 10
427.5
 20
66.5
 30
0.0
 40
1.5
100
AcDbArc
 50
90.0
 51
180.0
  0
LINE
  5
470
330
533
100
AcDbEntity
  8
0
100
AcDbLine
 10
427.5
 20
62.0
 30
0.0
 11
438.5
 21
62.0
 31
0.0
  0
ARC
  5
471
330
533
100
AcDbEntity
  8
0
100
AcDbCircle
 10
438.5
 20
63.5
 30
0.0
 40
1.5
100
AcDbArc
 50
270.0
 51
0.0
  0
LINE
  5
472
330
533
100
AcDbEntity
  8
0
100
AcDbLine
 10
438.5
 20
68.0
 30
0.0
 11
427.5
 21
68.0
 31
0.0
  0
ARC
  5
473
330
533
100
AcDbEntity
  8
0
100
AcDbCircle
 10
438.5
 20
66.5
 30
0.0
 40
1.5
100
AcDbArc
 50
0.0
 51
90.0
  0
ARC
  5
474
330
533
100
AcDbEntity
  8
0
100
AcDbCircle
 10
445.5
 20
66.5
 30
0.0
 40
1.5
100
AcDbArc
 50
90.0
 51
180.0
  0
ARC
  5
475
330
533
100
AcDbEntity
  8
0
100
AcDbCircle
 10
445.5
 20
63.5
 30
0.0
 40
1.5
100
AcDbArc
 50
180.0
 51
270.0
  0
LINE
  5
476
330
533
100
AcDbEntity
  8
0
100
AcDbLine
 10
456.5
 20
62.0
 30
0.0
 11
445.5
 21
62.0
 31
0.0
  0
ARC
  5
477
330
533
100
AcDbEntity
  8
0
100
AcDbCircle
 10
456.5
 20
63.5
 30
0.0
 40
1.5
100
AcDbArc
 50
270.0
 51
0.0
  0
LINE
  5
478
330
533
100
AcDbEntity
  8
0
100
AcDbLine
 10
458.0
 20
66.5
 30
0.0
 11
458.0
 21
63.5
 31
0.0
  0
LINE
  5
479
330
533
100
AcDbEntity
  8
0
100
AcDbLine
 10
445.5
 20
68.0
 30
0.0
 11
456.5
 21
68.0
 31
0.0
  0
ARC
  5
47A
330
533
100
AcDbEntity
  8
0
100
AcDbCircle
 10
456.5
 20
66.5
 30
0.0
 40
1.5
100
AcDbArc
 50
0.0
 51
90.0
  0
ARC
  5
47B
330
533
100
AcDbEntity
  8
0
100
AcDbCircle
 10
463.5
 20
66.5
 30
0.0
 40
1.5
100
AcDbArc
 50
90.0
 51
180.0
  0
LINE
  5
47C
330
533
100
AcDbEntity
  8
0
100
AcDbLine
 10
462.0
 20
66.5
 30
0.0
 11
462.0
 21
63.5
 31
0.0
  0
ARC
  5
47D
330
533
100
AcDbEntity
  8
0
100
AcDbCircle
 10
463.5
 20
63.5
 30
0.0
 40
1.5
100
AcDbArc
 50
180.0
 51
270.0
  0
LINE
  5
47E
330
533
100
AcDbEntity
  8
0
100
AcDbLine
 10
463.5
 20
62.0
 30
0.0
 11
474.5
 21
62.0
 31
0.0
  0
ARC
  5
47F
330
533
100
AcDbEntity
  8
0
100
AcDbCircle
 10
474.5
 20
63.5
 30
0.0
 40
1.5
100
AcDbArc
 50
270.0
 51
0.0
  0
LINE
  5
480
330
533
100
AcDbEntity
  8
0
100
AcDbLine
 10
474.5
 20
68.0
 30
0.0
 11
463.5
 21
68.0
 31
0.0
  0
ARC
  5
481
330
533
100
AcDbEntity
  8
0
100
AcDbCircle
 10
474.5
 20
66.5
 30
0.0
 40
1.5
100
AcDbArc
 50
0.0
 51
90.0
  0
LINE
  5
482
330
533
100
AcDbEntity
  8
0
100
AcDbLine
 10
420.5
 20
62.0
 30
0.0
 11
409.5
 21
62.0
 31
0.0
  0
ARC
  5
483
330
533
100
AcDbEntity
  8
0
100
AcDbCircle
 10
420.5
 20
63.5
 30
0.0
 40
1.5
100
AcDbArc
 50
270.0
 51
0.0
  0
LINE
  5
484
330
533
100
AcDbEntity
  8
0
100
AcDbLine
 10
409.5
 20
68.0
 30
0.0
 11
420.5
 21
68.0
 31
0.0
  0
LINE
  5
485
330
533
100
AcDbEntity
  8
0
100
AcDbLine
 10
422.0
 20
66.5
 30
0.0
 11
422.0
 21
63.5
 31
0.0
  0
ARC
  5
486
330
533
100
AcDbEntity
  8
0
100
AcDbCircle
 10
420.5
 20
66.5
 30
0.0
 40
1.5
100
AcDbArc
 50
0.0
 51
90.0
  0
LINE
  5
487
330
533
100
AcDbEntity
  8
0
100
AcDbLine
 10
408.0
 20
63.5
 30
0.0
 11
408.0
 21
66.5
 31
0.0
  0
LINE
  5
488
330
533
100
AcDbEntity
  8
0
100
AcDbLine
 10
440.0
 20
63.5
 30
0.0
 11
440.0
 21
66.5
 31
0.0
  0
LINE
  5
489
330
533
100
AcDbEntity
  8
0
100
AcDbLine
 10
444.0
 20
66.5
 30
0.0
 11
444.0
 21
63.5
 31
0.0
  0
LINE
  5
48A
330
533
100
AcDbEntity
  8
0
100
AcDbLine
 10
476.0
 20
63.5
 30
0.0
 11
476.0
 21
66.5
 31
0.0
  0
ARC
  5
48B
330
533
100
AcDbEntity
  8
0
100
AcDbCircle
 10
402.0
 20
56.0
 30
0.0
 40
2.0
100
AcDbArc
 50
180.0
 51
270.0
  0
LINE
  5
48C
330
533
100
AcDbEntity
  8
0
100
AcDbLine
 10
402.0
 20
54.0
 30
0.0
 11
534.0
 21
54.0
 31
0.0
  0
ARC
  5
48D
330
533
100
AcDbEntity
  8
0
100
AcDbCircle
 10
534.0
 20
56.0
 30
0.0
 40
2.0
100
AcDbArc
 50
270.0
 51
0.0
  0
LINE
  5
48E
330
533
100
AcDbEntity
  8
0
100
AcDbLine
 10
536.0
 20
56.0
 30
0.0
 11
536.0
 21
140.0
 31
0.0
  0
LINE
  5
48F
330
533
100
AcDbEntity
  8
0
100
AcDbLine
 10
400.0
 20
140.0
 30
0.0
 11
400.0
 21
56.0
 31
0.0
  0
CIRCLE
  5
490
330
533
100
AcDbEntity
  8
0
100
AcDbCircle
 10
492.0
 20
98.0
 30
0.0
 40
6.0
  0
LINE
  5
491
330
533
100
AcDbEntity
  8
0
100
AcDbLine
 10
481.5
 20
62.0
 30
0.0
 11
526.5
 21
62.0
 31
0.0
  0
LINE
  5
492
330
533
100
AcDbEntity
  8
0
100
AcDbLine
 10
528.0
 20
63.5
 30
0.0
 11
528.0
 21
108.5
 31
0.0
  0
LINE
  5
493
330
533
100
AcDbEntity
  8
0
100
AcDbLine
 10
526.5
 20
110.0
 30
0.0
 11
481.5
 21
110.0
 31
0.0
  0
LINE
  5
494
330
533
100
AcDbEntity
  8
0
100
AcDbLine
 10
480.0
 20
108.5
 30
0.0
 11
480.0
 21
63.5
 31
0.0
  0
ARC
  5
495
330
533
100
AcDbEntity
  8
0
100
AcDbCircle
 10
481.5
 20
108.5
 30
0.0
 40
1.5
100
AcDbArc
 50
90.0
 51
180.0
  0
ARC
  5
496
330
533
100
AcDbEntity
  8
0
100
AcDbCircle
 10
526.5
 20
108.5
 30
0.0
 40
1.5
100
AcDbArc
 50
0.0
 51
90.0
  0
ARC
  5
497
330
533
100
AcDbEntity
  8
0
100
AcDbCircle
 10
526.5
 20
63.5
 30
0.0
 40
1.5
100
AcDbArc
 50
270.0
 51
0.0
  0
ARC
  5
498
330
533
100
AcDbEntity
  8
0
100
AcDbCircle
 10
481.5
 20
63.5
 30
0.0
 40
1.5
100
AcDbArc
 50
180.0
 51
270.0
  0
CIRCLE
  5
499
330
533
100
AcDbEntity
  8
0
100
AcDbCircle
 10
516.0
 20
98.0
 30
0.0
 40
6.0
  0
CIRCLE
  5
49A
330
533
100
AcDbEntity
  8
0
100
AcDbCircle
 10
516.0
 20
74.0
 30
0.0
 40
6.0
  0
CIRCLE
  5
49B
330
533
100
AcDbEntity
  8
0
100
AcDbCircle
 10
492.0
 20
75.0
 30
0.0
 40
6.0
  0
LINE
  5
49C
330
533
100
AcDbEntity
  8
0
100
AcDbLine
 10
0.0
 20
-102.0
 30
0.0
 11
156.0
 21
-102.0
 31
0.0
  0
LINE
  5
49D
330
533
100
AcDbEntity
  8
0
100
AcDbLine
 10
156.0
 20
-102.0
 30
0.0
 11
156.0
 21
0.0
 31
0.0
  0
LINE
  5
49E
330
533
100
AcDbEntity
  8
0
100
AcDbLine
 10
76.0
 20
-65.0
 30
0.0
 11
76.0
 21
-65.0
 31
0.0
  0
CIRCLE
  5
49F
330
533
100
AcDbEntity
  8
0
100
AcDbCircle
 10
90.0
 20
-57.0
 30
0.0
 40
6.0
  0
LINE
  5
4A0
330
533
100
AcDbEntity
  8
0
100
AcDbLine
 10
76.0
 20
-47.0
 30
0.0
 11
76.0
 21
-83.0
 31
0.0
  0
LINE
  5
4A1
330
533
100
AcDbEntity
  8
0
100
AcDbLine
 10
9.0
 20
-84.0
 30
0.0
 11
75.0
 21
-84.0
 31
0.0
  0
LINE
  5
4A2
330
533
100
AcDbEntity
  8
0
100
AcDbLine
 10
8.0
 20
-47.0
 30
0.0
 11
8.0
 21
-83.0
 31
0.0
  0
LINE
  5
4A3
330
533
100
AcDbEntity
  8
0
100
AcDbLine
 10
75.0
 20
-46.0
 30
0.0
 11
9.0
 21
-46.0
 31
0.0
  0
CIRCLE
  5
4A4
330
533
100
AcDbEntity
  8
0
100
AcDbCircle
 10
106.0
 20
-84.0
 30
0.0
 40
6.0
  0
CIRCLE
  5
4A5
330
533
100
AcDbEntity
  8
0
100
AcDbCircle
 10
122.0
 20
-57.0
 30
0.0
 40
6.0
  0
CIRCLE
  5
4A6
330
533
100
AcDbEntity
  8
0
100
AcDbCircle
 10
138.0
 20
-84.0
 30
0.0
 40
6.0
  0
LINE
  5
4A7
330
533
100
AcDbEntity
  8
0
100
AcDbLine
 10
0.0
 20
-102.0
 30
0.0
 11
0.0
 21
0.0
 31
0.0
  0
LINE
  5
4A8
330
533
100
AcDbEntity
  8
0
100
AcDbLine
 10
0.0
 20
0.0
 30
0.0
 11
156.0
 21
0.0
 31
0.0
  0
CIRCLE
  5
4A9
330
533
100
AcDbEntity
  8
0
100
AcDbCircle
 10
14.0
 20
-14.0
 30
0.0
 40
4.0
  0
MTEXT
  5
4AA
330
533
100
AcDbEntity
  8
0
100
AcDbMText
 10
14.0
 20
3.0
 30
0.0
 40
1.4
 41
0.0
 46
0.0
 71
     2
 72
     1
  1
\fAndale Mono|b0|i0|c0|p0;PHONES
  7
textstyle7
 73
     1
 44
1.0
  0
MTEXT
  5
4AB
330
533
100
AcDbEntity
  8
0
100
AcDbMText
 10
38.0
 20
3.0
 30
0.0
 40
1.4
 41
0.0
 46
0.0
 71
     2
 72
     1
  1
\fAndale Mono|b0|i0|c0|p0;INPUT
  7
textstyle8
 73
     1
 44
1.0
  0
MTEXT
  5
4AC
330
533
100
AcDbEntity
  8
0
100
AcDbMText
 10
70.0
 20
3.0
 30
0.0
 40
1.4
 41
0.0
 46
0.0
 71
     2
 72
     1
  1
\fAndale Mono|b0|i0|c0|p0;OUPUT
  7
textstyle9
 73
     1
 44
1.0
  0
LINE
  5
4AD
330
533
100
AcDbEntity
  8
0
100
AcDbLine
 10
108.0
 20
0.0
 30
0.0
 11
122.0
 21
0.0
 31
0.0
  0
LINE
  5
4AE
330
533
100
AcDbEntity
  8
0
100
AcDbLine
 10
8.0
 20
-37.0
 30
0.0
 11
8.0
 21
-41.0
 31
0.0
  0
LINE
  5
4AF
330
533
100
AcDbEntity
  8
0
100
AcDbLine
 10
9.0
 20
-42.0
 30
0.0
 11
21.0
 21
-42.0
 31
0.0
  0
LINE
  5
4B0
330
533
100
AcDbEntity
  8
0
100
AcDbLine
 10
22.0
 20
-41.0
 30
0.0
 11
22.0
 21
-37.0
 31
0.0
  0
LINE
  5
4B1
330
533
100
AcDbEntity
  8
0
100
AcDbLine
 10
21.0
 20
-36.0
 30
0.0
 11
9.0
 21
-36.0
 31
0.0
  0
MTEXT
  5
4B2
330
533
100
AcDbEntity
  8
0
100
AcDbMText
 10
143.0
 20
3.0
 30
0.0
 40
1.4
 41
0.0
 46
0.0
 71
     2
 72
     1
  1
\fAndale Mono|b0|i0|c0|p0;POWER
  7
textstyle10
 73
     1
 44
1.0
  0
MTEXT
  5
4B3
330
533
100
AcDbEntity
  8
0
100
AcDbMText
 10
130.0
 20
3.0
 30
0.0
 40
1.4
 41
0.0
 46
0.0
 71
     2
 72
     1
  1
\fAndale Mono|b0|i0|c0|p0;DC
  7
textstyle11
 73
     1
 44
1.0
  0
MTEXT
  5
4B4
330
533
100
AcDbEntity
  8
0
100
AcDbMText
 10
115.0
 20
3.0
 30
0.0
 40
1.4
 41
0.0
 46
0.0
 71
     2
 72
     1
  1
\fAndale Mono|b0|i0|c0|p0;COMPUTER
  7
textstyle12
 73
     1
 44
1.0
  0
MTEXT
  5
4B5
330
533
100
AcDbEntity
  8
0
100
AcDbMText
 10
101.0
 20
3.0
 30
0.0
 40
1.4
 41
0.0
 46
0.0
 71
     2
 72
     1
  1
\fAndale Mono|b0|i0|c0|p0;DEVICE
  7
textstyle13
 73
     1
 44
1.0
  0
CIRCLE
  5
4B6
330
533
100
AcDbEntity
  8
0
100
AcDbCircle
 10
30.0
 20
-14.0
 30
0.0
 40
4.0
  0
CIRCLE
  5
4B7
330
533
100
AcDbEntity
  8
0
100
AcDbCircle
 10
46.0
 20
-14.0
 30
0.0
 40
4.0
  0
CIRCLE
  5
4B8
330
533
100
AcDbEntity
  8
0
100
AcDbCircle
 10
70.0
 20
-14.0
 30
0.0
 40
4.0
  0
CIRCLE
  5
4B9
330
533
100
AcDbEntity
  8
0
100
AcDbCircle
 10
30.0
 20
-23.0
 30
0.0
 40
2.0
  0
CIRCLE
  5
4BA
330
533
100
AcDbEntity
  8
0
100
AcDbCircle
 10
46.0
 20
-23.0
 30
0.0
 40
2.0
  0
CIRCLE
  5
4BB
330
533
100
AcDbEntity
  8
0
100
AcDbCircle
 10
67.0
 20
-23.0
 30
0.0
 40
2.0
  0
CIRCLE
  5
4BC
330
533
100
AcDbEntity
  8
0
100
AcDbCircle
 10
73.0
 20
-23.0
 30
0.0
 40
2.0
  0
ARC
  5
4BD
330
533
100
AcDbEntity
  8
outlines
100
AcDbCircle
 10
57.0
 20
-9.0
 30
0.0
 40
1.0
100
AcDbArc
 50
90.0
 51
180.0
  0
ARC
  5
4BE
330
533
100
AcDbEntity
  8
outlines
100
AcDbCircle
 10
83.0
 20
-9.0
 30
0.0
 40
1.0
100
AcDbArc
 50
0.0
 51
90.0
  0
ARC
  5
4BF
330
533
100
AcDbEntity
  8
outlines
100
AcDbCircle
 10
83.0
 20
-26.0
 30
0.0
 40
1.0
100
AcDbArc
 50
270.0
 51
0.0
  0
ARC
  5
4C0
330
533
100
AcDbEntity
  8
outlines
100
AcDbCircle
 10
57.0
 20
-26.0
 30
0.0
 40
1.0
100
AcDbArc
 50
180.0
 51
270.0
  0
ARC
  5
4C1
330
533
100
AcDbEntity
  8
outlines
100
AcDbCircle
 10
51.0
 20
-26.0
 30
0.0
 40
1.0
100
AcDbArc
 50
270.0
 51
0.0
  0
ARC
  5
4C2
330
533
100
AcDbEntity
  8
outlines
100
AcDbCircle
 10
41.0
 20
-26.0
 30
0.0
 40
1.0
100
AcDbArc
 50
180.0
 51
270.0
  0
ARC
  5
4C3
330
533
100
AcDbEntity
  8
outlines
100
AcDbCircle
 10
35.0
 20
-26.0
 30
0.0
 40
1.0
100
AcDbArc
 50
270.0
 51
0.0
  0
ARC
  5
4C4
330
533
100
AcDbEntity
  8
outlines
100
AcDbCircle
 10
25.0
 20
-26.0
 30
0.0
 40
1.0
100
AcDbArc
 50
180.0
 51
270.0
  0
ARC
  5
4C5
330
533
100
AcDbEntity
  8
outlines
100
AcDbCircle
 10
19.0
 20
-26.0
 30
0.0
 40
1.0
100
AcDbArc
 50
270.0
 51
0.0
  0
ARC
  5
4C6
330
533
100
AcDbEntity
  8
outlines
100
AcDbCircle
 10
9.0
 20
-26.0
 30
0.0
 40
1.0
100
AcDbArc
 50
180.0
 51
270.0
  0
ARC
  5
4C7
330
533
100
AcDbEntity
  8
outlines
100
AcDbCircle
 10
9.0
 20
-9.0
 30
0.0
 40
1.0
100
AcDbArc
 50
90.0
 51
180.0
  0
ARC
  5
4C8
330
533
100
AcDbEntity
  8
outlines
100
AcDbCircle
 10
19.0
 20
-9.0
 30
0.0
 40
1.0
100
AcDbArc
 50
0.0
 51
90.0
  0
ARC
  5
4C9
330
533
100
AcDbEntity
  8
outlines
100
AcDbCircle
 10
51.0
 20
-9.0
 30
0.0
 40
1.0
100
AcDbArc
 50
0.0
 51
90.0
  0
ARC
  5
4CA
330
533
100
AcDbEntity
  8
outlines
100
AcDbCircle
 10
41.0
 20
-9.0
 30
0.0
 40
1.0
100
AcDbArc
 50
90.0
 51
180.0
  0
ARC
  5
4CB
330
533
100
AcDbEntity
  8
outlines
100
AcDbCircle
 10
35.0
 20
-9.0
 30
0.0
 40
1.0
100
AcDbArc
 50
0.0
 51
90.0
  0
ARC
  5
4CC
330
533
100
AcDbEntity
  8
outlines
100
AcDbCircle
 10
25.0
 20
-9.0
 30
0.0
 40
1.0
100
AcDbArc
 50
90.0
 51
180.0
  0
LINE
  5
4CD
330
533
100
AcDbEntity
  8
outlines
100
AcDbLine
 10
56.0
 20
-26.0
 30
0.0
 11
56.0
 21
-9.0
 31
0.0
  0
LINE
  5
4CE
330
533
100
AcDbEntity
  8
outlines
100
AcDbLine
 10
83.0
 20
-27.0
 30
0.0
 11
57.0
 21
-27.0
 31
0.0
  0
LINE
  5
4CF
330
533
100
AcDbEntity
  8
outlines
100
AcDbLine
 10
84.0
 20
-9.0
 30
0.0
 11
84.0
 21
-26.0
 31
0.0
  0
LINE
  5
4D0
330
533
100
AcDbEntity
  8
outlines
100
AcDbLine
 10
57.0
 20
-8.0
 30
0.0
 11
83.0
 21
-8.0
 31
0.0
  0
LINE
  5
4D1
330
533
100
AcDbEntity
  8
outlines
100
AcDbLine
 10
8.0
 20
-26.0
 30
0.0
 11
8.0
 21
-9.0
 31
0.0
  0
LINE
  5
4D2
330
533
100
AcDbEntity
  8
outlines
100
AcDbLine
 10
19.0
 20
-27.0
 30
0.0
 11
9.0
 21
-27.0
 31
0.0
  0
LINE
  5
4D3
330
533
100
AcDbEntity
  8
outlines
100
AcDbLine
 10
20.0
 20
-9.0
 30
0.0
 11
20.0
 21
-26.0
 31
0.0
  0
LINE
  5
4D4
330
533
100
AcDbEntity
  8
outlines
100
AcDbLine
 10
9.0
 20
-8.0
 30
0.0
 11
19.0
 21
-8.0
 31
0.0
  0
LINE
  5
4D5
330
533
100
AcDbEntity
  8
outlines
100
AcDbLine
 10
40.0
 20
-26.0
 30
0.0
 11
40.0
 21
-9.0
 31
0.0
  0
LINE
  5
4D6
330
533
100
AcDbEntity
  8
outlines
100
AcDbLine
 10
51.0
 20
-27.0
 30
0.0
 11
41.0
 21
-27.0
 31
0.0
  0
LINE
  5
4D7
330
533
100
AcDbEntity
  8
outlines
100
AcDbLine
 10
52.0
 20
-9.0
 30
0.0
 11
52.0
 21
-26.0
 31
0.0
  0
LINE
  5
4D8
330
533
100
AcDbEntity
  8
outlines
100
AcDbLine
 10
41.0
 20
-8.0
 30
0.0
 11
51.0
 21
-8.0
 31
0.0
  0
LINE
  5
4D9
330
533
100
AcDbEntity
  8
outlines
100
AcDbLine
 10
24.0
 20
-26.0
 30
0.0
 11
24.0
 21
-9.0
 31
0.0
  0
LINE
  5
4DA
330
533
100
AcDbEntity
  8
outlines
100
AcDbLine
 10
35.0
 20
-27.0
 30
0.0
 11
25.0
 21
-27.0
 31
0.0
  0
LINE
  5
4DB
330
533
100
AcDbEntity
  8
outlines
100
AcDbLine
 10
36.0
 20
-9.0
 30
0.0
 11
36.0
 21
-26.0
 31
0.0
  0
LINE
  5
4DC
330
533
100
AcDbEntity
  8
outlines
100
AcDbLine
 10
25.0
 20
-8.0
 30
0.0
 11
35.0
 21
-8.0
 31
0.0
  0
LINE
  5
4DD
330
533
100
AcDbEntity
  8
outlines
100
AcDbLine
 10
80.0
 20
-47.0
 30
0.0
 11
80.0
 21
-93.0
 31
0.0
  0
LINE
  5
4DE
330
533
100
AcDbEntity
  8
outlines
100
AcDbLine
 10
147.0
 20
-46.0
 30
0.0
 11
81.0
 21
-46.0
 31
0.0
  0
LINE
  5
4DF
330
533
100
AcDbEntity
  8
outlines
100
AcDbLine
 10
148.0
 20
-93.0
 30
0.0
 11
148.0
 21
-47.0
 31
0.0
  0
LINE
  5
4E0
330
533
100
AcDbEntity
  8
outlines
100
AcDbLine
 10
81.0
 20
-94.0
 30
0.0
 11
147.0
 21
-94.0
 31
0.0
  0
ARC
  5
4E1
330
533
100
AcDbEntity
  8
0
100
AcDbCircle
 10
9.0
 20
-37.0
 30
0.0
 40
1.0
100
AcDbArc
 50
90.0
 51
180.0
  0
ARC
  5
4E2
330
533
100
AcDbEntity
  8
0
100
AcDbCircle
 10
9.0
 20
-41.0
 30
0.0
 40
1.0
100
AcDbArc
 50
180.0
 51
270.0
  0
ARC
  5
4E3
330
533
100
AcDbEntity
  8
0
100
AcDbCircle
 10
21.0
 20
-41.0
 30
0.0
 40
1.0
100
AcDbArc
 50
270.0
 51
0.0
  0
ARC
  5
4E4
330
533
100
AcDbEntity
  8
0
100
AcDbCircle
 10
21.0
 20
-37.0
 30
0.0
 40
1.0
100
AcDbArc
 50
0.0
 51
90.0
  0
ARC
  5
4E5
330
533
100
AcDbEntity
  8
0
100
AcDbCircle
 10
27.0
 20
-37.0
 30
0.0
 40
1.0
100
AcDbArc
 50
90.0
 51
180.0
  0
LINE
  5
4E6
330
533
100
AcDbEntity
  8
0
100
AcDbLine
 10
26.0
 20
-37.0
 30
0.0
 11
26.0
 21
-41.0
 31
0.0
  0
ARC
  5
4E7
330
533
100
AcDbEntity
  8
0
100
AcDbCircle
 10
27.0
 20
-41.0
 30
0.0
 40
1.0
100
AcDbArc
 50
180.0
 51
270.0
  0
ARC
  5
4E8
330
533
100
AcDbEntity
  8
0
100
AcDbCircle
 10
39.0
 20
-41.0
 30
0.0
 40
1.0
100
AcDbArc
 50
270.0
 51
0.0
  0
LINE
  5
4E9
330
533
100
AcDbEntity
  8
0
100
AcDbLine
 10
27.0
 20
-42.0
 30
0.0
 11
39.0
 21
-42.0
 31
0.0
  0
ARC
  5
4EA
330
533
100
AcDbEntity
  8
0
100
AcDbCircle
 10
39.0
 20
-37.0
 30
0.0
 40
1.0
100
AcDbArc
 50
0.0
 51
90.0
  0
LINE
  5
4EB
330
533
100
AcDbEntity
  8
0
100
AcDbLine
 10
40.0
 20
-41.0
 30
0.0
 11
40.0
 21
-37.0
 31
0.0
  0
LINE
  5
4EC
330
533
100
AcDbEntity
  8
0
100
AcDbLine
 10
39.0
 20
-36.0
 30
0.0
 11
27.0
 21
-36.0
 31
0.0
  0
ARC
  5
4ED
330
533
100
AcDbEntity
  8
0
100
AcDbCircle
 10
9.0
 20
-89.0
 30
0.0
 40
1.0
100
AcDbArc
 50
90.0
 51
180.0
  0
LINE
  5
4EE
330
533
100
AcDbEntity
  8
0
100
AcDbLine
 10
8.0
 20
-89.0
 30
0.0
 11
8.0
 21
-93.0
 31
0.0
  0
ARC
  5
4EF
330
533
100
AcDbEntity
  8
0
100
AcDbCircle
 10
9.0
 20
-93.0
 30
0.0
 40
1.0
100
AcDbArc
 50
180.0
 51
270.0
  0
ARC
  5
4F0
330
533
100
AcDbEntity
  8
0
100
AcDbCircle
 10
21.0
 20
-93.0
 30
0.0
 40
1.0
100
AcDbArc
 50
270.0
 51
0.0
  0
LINE
  5
4F1
330
533
100
AcDbEntity
  8
0
100
AcDbLine
 10
9.0
 20
-94.0
 30
0.0
 11
21.0
 21
-94.0
 31
0.0
  0
ARC
  5
4F2
330
533
100
AcDbEntity
  8
0
100
AcDbCircle
 10
21.0
 20
-89.0
 30
0.0
 40
1.0
100
AcDbArc
 50
0.0
 51
90.0
  0
LINE
  5
4F3
330
533
100
AcDbEntity
  8
0
100
AcDbLine
 10
22.0
 20
-93.0
 30
0.0
 11
22.0
 21
-89.0
 31
0.0
  0
LINE
  5
4F4
330
533
100
AcDbEntity
  8
0
100
AcDbLine
 10
21.0
 20
-88.0
 30
0.0
 11
9.0
 21
-88.0
 31
0.0
  0
ARC
  5
4F5
330
533
100
AcDbEntity
  8
0
100
AcDbCircle
 10
27.0
 20
-89.0
 30
0.0
 40
1.0
100
AcDbArc
 50
90.0
 51
180.0
  0
LINE
  5
4F6
330
533
100
AcDbEntity
  8
0
100
AcDbLine
 10
26.0
 20
-89.0
 30
0.0
 11
26.0
 21
-93.0
 31
0.0
  0
ARC
  5
4F7
330
533
100
AcDbEntity
  8
0
100
AcDbCircle
 10
27.0
 20
-93.0
 30
0.0
 40
1.0
100
AcDbArc
 50
180.0
 51
270.0
  0
ARC
  5
4F8
330
533
100
AcDbEntity
  8
0
100
AcDbCircle
 10
39.0
 20
-93.0
 30
0.0
 40
1.0
100
AcDbArc
 50
270.0
 51
0.0
  0
LINE
  5
4F9
330
533
100
AcDbEntity
  8
0
100
AcDbLine
 10
27.0
 20
-94.0
 30
0.0
 11
39.0
 21
-94.0
 31
0.0
  0
ARC
  5
4FA
330
533
100
AcDbEntity
  8
0
100
AcDbCircle
 10
39.0
 20
-89.0
 30
0.0
 40
1.0
100
AcDbArc
 50
0.0
 51
90.0
  0
LINE
  5
4FB
330
533
100
AcDbEntity
  8
0
100
AcDbLine
 10
40.0
 20
-93.0
 30
0.0
 11
40.0
 21
-89.0
 31
0.0
  0
LINE
  5
4FC
330
533
100
AcDbEntity
  8
0
100
AcDbLine
 10
39.0
 20
-88.0
 30
0.0
 11
27.0
 21
-88.0
 31
0.0
  0
ARC
  5
4FD
330
533
100
AcDbEntity
  8
0
100
AcDbCircle
 10
45.0
 20
-89.0
 30
0.0
 40
1.0
100
AcDbArc
 50
90.0
 51
180.0
  0
LINE
  5
4FE
330
533
100
AcDbEntity
  8
0
100
AcDbLine
 10
44.0
 20
-89.0
 30
0.0
 11
44.0
 21
-93.0
 31
0.0
  0
ARC
  5
4FF
330
533
100
AcDbEntity
  8
0
100
AcDbCircle
 10
45.0
 20
-93.0
 30
0.0
 40
1.0
100
AcDbArc
 50
180.0
 51
270.0
  0
ARC
  5
500
330
533
100
AcDbEntity
  8
0
100
AcDbCircle
 10
57.0
 20
-93.0
 30
0.0
 40
1.0
100
AcDbArc
 50
270.0
 51
0.0
  0
LINE
  5
501
330
533
100
AcDbEntity
  8
0
100
AcDbLine
 10
45.0
 20
-94.0
 30
0.0
 11
57.0
 21
-94.0
 31
0.0
  0
ARC
  5
502
330
533
100
AcDbEntity
  8
0
100
AcDbCircle
 10
57.0
 20
-89.0
 30
0.0
 40
1.0
100
AcDbArc
 50
0.0
 51
90.0
  0
LINE
  5
503
330
533
100
AcDbEntity
  8
0
100
AcDbLine
 10
58.0
 20
-93.0
 30
0.0
 11
58.0
 21
-89.0
 31
0.0
  0
LINE
  5
504
330
533
100
AcDbEntity
  8
0
100
AcDbLine
 10
57.0
 20
-88.0
 30
0.0
 11
45.0
 21
-88.0
 31
0.0
  0
ARC
  5
505
330
533
100
AcDbEntity
  8
0
100
AcDbCircle
 10
63.0
 20
-89.0
 30
0.0
 40
1.0
100
AcDbArc
 50
90.0
 51
180.0
  0
LINE
  5
506
330
533
100
AcDbEntity
  8
0
100
AcDbLine
 10
62.0
 20
-89.0
 30
0.0
 11
62.0
 21
-93.0
 31
0.0
  0
ARC
  5
507
330
533
100
AcDbEntity
  8
0
100
AcDbCircle
 10
63.0
 20
-93.0
 30
0.0
 40
1.0
100
AcDbArc
 50
180.0
 51
270.0
  0
ARC
  5
508
330
533
100
AcDbEntity
  8
0
100
AcDbCircle
 10
75.0
 20
-93.0
 30
0.0
 40
1.0
100
AcDbArc
 50
270.0
 51
0.0
  0
LINE
  5
509
330
533
100
AcDbEntity
  8
0
100
AcDbLine
 10
63.0
 20
-94.0
 30
0.0
 11
75.0
 21
-94.0
 31
0.0
  0
ARC
  5
50A
330
533
100
AcDbEntity
  8
0
100
AcDbCircle
 10
75.0
 20
-89.0
 30
0.0
 40
1.0
100
AcDbArc
 50
0.0
 51
90.0
  0
LINE
  5
50B
330
533
100
AcDbEntity
  8
0
100
AcDbLine
 10
76.0
 20
-93.0
 30
0.0
 11
76.0
 21
-89.0
 31
0.0
  0
LINE
  5
50C
330
533
100
AcDbEntity
  8
0
100
AcDbLine
 10
75.0
 20
-88.0
 30
0.0
 11
63.0
 21
-88.0
 31
0.0
  0
ARC
  5
50D
330
533
100
AcDbEntity
  8
0
100
AcDbCircle
 10
9.0
 20
-83.0
 30
0.0
 40
1.0
100
AcDbArc
 50
180.0
 51
270.0
  0
ARC
  5
50E
330
533
100
AcDbEntity
  8
0
100
AcDbCircle
 10
75.0
 20
-83.0
 30
0.0
 40
1.0
100
AcDbArc
 50
270.0
 51
0.0
  0
ARC
  5
50F
330
533
100
AcDbEntity
  8
0
100
AcDbCircle
 10
75.0
 20
-47.0
 30
0.0
 40
1.0
100
AcDbArc
 50
0.0
 51
90.0
  0
ARC
  5
510
330
533
100
AcDbEntity
  8
outlines
100
AcDbCircle
 10
81.0
 20
-47.0
 30
0.0
 40
1.0
100
AcDbArc
 50
90.0
 51
180.0
  0
ARC
  5
511
330
533
100
AcDbEntity
  8
0
100
AcDbCircle
 10
9.0
 20
-47.0
 30
0.0
 40
1.0
100
AcDbArc
 50
90.0
 51
180.0
  0
ARC
  5
512
330
533
100
AcDbEntity
  8
outlines
100
AcDbCircle
 10
147.0
 20
-47.0
 30
0.0
 40
1.0
100
AcDbArc
 50
0.0
 51
90.0
  0
ARC
  5
513
330
533
100
AcDbEntity
  8
outlines
100
AcDbCircle
 10
147.0
 20
-93.0
 30
0.0
 40
1.0
100
AcDbArc
 50
270.0
 51
0.0
  0
ARC
  5
514
330
533
100
AcDbEntity
  8
outlines
100
AcDbCircle
 10
81.0
 20
-93.0
 30
0.0
 40
1.0
100
AcDbArc
 50
180.0
 51
270.0
  0
ENDSEC
  0
SECTION
  2
OBJECTS
  0
DICTIONARY
  5
521
330
0
100
AcDbDictionary
281
     1
  3
ACAD_GROUP
350
522
  3
ACAD_LAYOUT
350
52E
  3
ACAD_MATERIAL
350
54F
  3
ACAD_MLEADERSTYLE
350
593
  3
ACAD_MLINESTYLE
350
52B
  3
ACAD_PLOTSETTINGS
350
52D
  3
ACAD_PLOTSTYLENAME
350
523
  3
ACAD_TABLESTYLE
350
592
  3
ACAD_VISUALSTYLE
350
53E
  3
QCAD_OBJECTS
350
554
  0
DICTIONARY
  5
522
102
{ACAD_REACTORS
330
521
102
}
330
521
100
AcDbDictionary
281
     1
  0
DICTIONARY
  5
52E
102
{ACAD_REACTORS
330
521
102
}
330
521
100
AcDbDictionary
281
     1
  3
Layout1
350
532
  3
Layout2
350
53A
  3
Model
350
536
  0
DICTIONARY
  5
54F
102
{ACAD_REACTORS
330
521
102
}
330
521
100
AcDbDictionary
281
     1
  3
ByBlock
350
551
  3
ByLayer
350
550
  3
Global
350
552
  0
DICTIONARY
  5
593
102
{ACAD_REACTORS
330
521
102
}
330
521
100
AcDbDictionary
281
     1
  0
DICTIONARY
  5
52B
102
{ACAD_REACTORS
330
521
102
}
330
521
100
AcDbDictionary
281
     1
  3
Standard
350
52C
  0
DICTIONARY
  5
52D
102
{ACAD_REACTORS
330
521
102
}
330
521
100
AcDbDictionary
281
     1
  0
ACDBDICTIONARYWDFLT
  5
523
102
{ACAD_REACTORS
330
521
102
}
330
521
100
AcDbDictionary
281
     1
  3
Normal
350
524
100
AcDbDictionaryWithDefault
340
524
  0
DICTIONARY
  5
592
102
{ACAD_REACTORS
330
521
102
}
330
521
100
AcDbDictionary
281
     1
  0
DICTIONARY
  5
53E
102
{ACAD_REACTORS
330
521
102
}
330
521
100
AcDbDictionary
281
     1
  3
2dWireframe
350
543
  3
3D Hidden
350
545
  3
3dWireframe
350
544
  3
Basic
350
546
  3
Brighten
350
54A
  3
ColorChange
350
54E
  3
Conceptual
350
548
  3
Dim
350
549
  3
Facepattern
350
54D
  3
Flat
350
53F
  3
FlatWithEdges
350
540
  3
Gouraud
350
541
  3
GouraudWithEdges
350
542
  3
Linepattern
350
54C
  3
Realistic
350
547
  3
Thicken
350
54B
  0
DICTIONARY
  5
554
102
{ACAD_REACTORS
330
521
102
}
330
521
100
AcDbDictionary
281
     1
  3
ColorSettings/BackgroundColor
350
569
  3
ColorSettings/ColorMode
350
562
  3
Grid/DisplayGrid
350
56A
  3
Grid/GridSpacingX
350
55F
  3
Grid/GridSpacingY
350
561
  3
Grid/MetaGridSpacingX
350
558
  3
Grid/MetaGridSpacingY
350
55C
  3
MultiPageSettings/Columns
350
55D
  3
MultiPageSettings/GlueMarginBottom
350
559
  3
MultiPageSettings/GlueMarginsLeft
350
564
  3
MultiPageSettings/GlueMarginsRight
350
555
  3
MultiPageSettings/GlueMarginsTop
350
56E
  3
MultiPageSettings/PrintCropMarks
350
557
  3
MultiPageSettings/Rows
350
566
  3
PageSettings/OffsetX
350
56C
  3
PageSettings/OffsetY
350
56D
  3
PageSettings/PageOrientation
350
556
  3
PageSettings/PaperHeight
350
55B
  3
PageSettings/PaperSizeName
350
55E
  3
PageSettings/PaperWidth
350
567
  3
PageSettings/Scale
350
55A
  3
PageSettings/ShowBoundingBox
350
560
  3
PageSettings/ShowPageBorders
350
56B
  3
Template/Description
350
565
  3
Template/Title
350
563
  3
UnitSettings/PaperUnit
350
568
  0
LAYOUT
  5
532
102
{ACAD_REACTORS
330
52E
102
}
330
52E
100
AcDbPlotSettings
  1

  2
none_device
  4

  6

 40
0.0
 41
0.0
 42
0.0
 43
0.0
 44
0.0
 45
0.0
 46
0.0
 47
0.0
 48
0.0
 49
0.0
140
0.0
141
0.0
142
1.0
143
1.0
 70
   688
 72
     0
 73
     0
 74
     5
  7

 75
    16
 76
     0
 77
     2
 78
   300
147
1.0
148
0.0
149
0.0
100
AcDbLayout
  1
Layout1
 70
     1
 71
     1
 10
0.0
 20
0.0
 11
215.9
 21
279.4
 12
109.3486422413792
 22
83.8576346982759
 32
0.0
 14
1.000000000000000E+20
 24
1.000000000000000E+20
 34
1.000000000000000E+20
 15
-1.000000000000000E+20
 25
-1.000000000000000E+20
 35
-1.000000000000000E+20
146
0.0
 13
0.0
 23
0.0
 33
0.0
 16
1.0
 26
0.0
 36
0.0
 17
0.0
 27
1.0
 37
0.0
 76
     0
330
52F
  0
LAYOUT
  5
53A
102
{ACAD_REACTORS
330
52E
102
}
330
52E
100
AcDbPlotSettings
  1

  2
none_device
  4

  6

 40
0.0
 41
0.0
 42
0.0
 43
0.0
 44
0.0
 45
0.0
 46
0.0
 47
0.0
 48
0.0
 49
0.0
140
0.0
141
0.0
142
1.0
143
1.0
 70
   688
 72
     0
 73
     0
 74
     5
  7

 75
    16
 76
     0
 77
     2
 78
   300
147
1.0
148
0.0
149
0.0
100
AcDbLayout
  1
Layout2
 70
     1
 71
     2
 10
0.0
 20
0.0
 11
0.0
 21
0.0
 12
0.0
 22
0.0
 32
0.0
 14
0.0
 24
0.0
 34
0.0
 15
0.0
 25
0.0
 35
0.0
146
0.0
 13
0.0
 23
0.0
 33
0.0
 16
1.0
 26
0.0
 36
0.0
 17
0.0
 27
1.0
 37
0.0
 76
     0
330
537
  0
LAYOUT
  5
536
102
{ACAD_REACTORS
330
52E
102
}
330
52E
100
AcDbPlotSettings
  1

  2
none_device
  4

  6

 40
0.0
 41
0.0
 42
0.0
 43
0.0
 44
0.0
 45
0.0
 46
0.0
 47
0.0
 48
0.0
 49
0.0
140
0.0
141
0.0
142
1.0
143
1.0
 70
  1712
 72
     0
 73
     0
 74
     0
  7

 75
     0
 76
     0
 77
     2
 78
   300
147
1.0
148
0.0
149
0.0
100
AcDbLayout
  1
Model
 70
     1
 71
     0
 10
0.0
 20
0.0
 11
12.0
 21
9.0
 12
0.0
 22
0.0
 32
0.0
 14
1.000000000000000E+20
 24
1.000000000000000E+20
 34
1.000000000000000E+20
 15
-1.000000000000000E+20
 25
-1.000000000000000E+20
 35
-1.000000000000000E+20
146
0.0
 13
0.0
 23
0.0
 33
0.0
 16
1.0
 26
0.0
 36
0.0
 17
0.0
 27
1.0
 37
0.0
 76
     0
330
533
331
53D
  0
MATERIAL
  5
551
102
{ACAD_REACTORS
330
54F
102
}
330
54F
100
AcDbMaterial
  1
ByBlock
 72
     1
 94
      127
  0
MATERIAL
  5
550
102
{ACAD_REACTORS
330
54F
102
}
330
54F
100
AcDbMaterial
  1
ByLayer
 72
     1
 94
      127
  0
MATERIAL
  5
552
102
{ACAD_REACTORS
330
54F
102
}
330
54F
100
AcDbMaterial
  1
Global
 72
     1
 94
      127
  0
MLINESTYLE
  5
52C
102
{ACAD_REACTORS
330
52B
102
}
330
52B
100
AcDbMlineStyle
  2
Standard
 70
     0
  3

 62
   256
 51
90.0
 52
90.0
 71
     2
 49
0.5
 62
   256
  6
BYLAYER
 49
-0.5
 62
   256
  6
BYLAYER
  0
ACDBPLACEHOLDER
  5
524
102
{ACAD_REACTORS
330
523
102
}
330
523
  0
VISUALSTYLE
  5
543
102
{ACAD_REACTORS
330
53E
102
}
330
53E
100
AcDbVisualStyle
  2
2dWireframe
 70
     4
177
     2
291
     0
 71
     0
176
     1
 72
     2
176
     1
 73
     0
176
     1
 90
        0
176
     1
 40
-0.6
176
     1
 41
-30.0
176
     1
 62
     5
 63
     7
421
 16777215
176
     1
 74
     1
176
     1
 91
        4
176
     1
 64
     7
176
     1
 65
   257
176
     1
 75
     1
176
     1
175
     1
176
     1
 42
1.0
176
     1
 92
        0
176
     1
 66
   257
176
     1
 43
1.0
176
     1
 76
     1
176
     1
 77
     6
176
     1
 78
     2
176
     1
 67
     7
176
     1
 79
     5
176
     1
170
     0
176
     1
171
     0
176
     1
290
     0
176
     1
 93
        1
176
     1
 44
0.0
176
     1
173
     0
176
     1
  0
VISUALSTYLE
  5
545
102
{ACAD_REACTORS
330
53E
102
}
330
53E
100
AcDbVisualStyle
  2
3D Hidden
 70
     6
177
     2
291
     0
 71
     1
176
     1
 72
     2
176
     1
 73
     2
176
     1
 90
        0
176
     1
 40
-0.6
176
     1
 41
-30.0
176
     1
 62
     5
 63
     7
421
 16777215
176
     1
 74
     2
176
     1
 91
        2
176
     1
 64
     7
176
     1
 65
   257
176
     1
 75
     2
176
     1
175
     1
176
     1
 42
40.0
176
     1
 92
        0
176
     1
 66
   257
176
     1
 43
1.0
176
     1
 76
     1
176
     1
 77
     6
176
     1
 78
     2
176
     1
 67
     7
176
     1
 79
     3
176
     1
170
     0
176
     1
171
     0
176
     1
290
     0
176
     1
 93
        1
176
     1
 44
0.0
176
     1
173
     0
176
     1
  0
VISUALSTYLE
  5
544
102
{ACAD_REACTORS
330
53E
102
}
330
53E
100
AcDbVisualStyle
  2
3dWireframe
 70
     5
177
     2
291
     0
 71
     0
176
     1
 72
     2
176
     1
 73
     0
176
     1
 90
        0
176
     1
 40
-0.6
176
     1
 41
-30.0
176
     1
 62
     5
 63
     7
421
 16777215
176
     1
 74
     1
176
     1
 91
        4
176
     1
 64
     7
176
     1
 65
   257
176
     1
 75
     1
176
     1
175
     1
176
     1
 42
1.0
176
     1
 92
        0
176
     1
 66
   257
176
     1
 43
1.0
176
     1
 76
     1
176
     1
 77
     6
176
     1
 78
     2
176
     1
 67
     7
176
     1
 79
     5
176
     1
170
     0
176
     1
171
     0
176
     1
290
     0
176
     1
 93
        1
176
     1
 44
0.0
176
     1
173
     0
176
     1
  0
VISUALSTYLE
  5
546
102
{ACAD_REACTORS
330
53E
102
}
330
53E
100
AcDbVisualStyle
  2
Basic
 70
     7
177
     2
291
     1
 71
     1
176
     1
 72
     0
176
     1
 73
     1
176
     1
 90
        0
176
     1
 40
-0.6
176
     1
 41
-30.0
176
     1
 62
     5
 63
     7
421
 16777215
176
     1
 74
     0
176
     1
 91
        4
176
     1
 64
     7
176
     1
 65
   257
176
     1
 75
     1
176
     1
175
     1
176
     1
 42
1.0
176
     1
 92
        8
176
     1
 66
     7
176
     1
 43
1.0
176
     1
 76
     1
176
     1
 77
     6
176
     1
 78
     2
176
     1
 67
     7
176
     1
 79
     5
176
     1
170
     0
176
     1
171
     0
176
     1
290
     0
176
     1
 93
        1
176
     1
 44
0.0
176
     1
173
     0
176
     1
  0
VISUALSTYLE
  5
54A
102
{ACAD_REACTORS
330
53E
102
}
330
53E
100
AcDbVisualStyle
  2
Brighten
 70
    12
177
     2
291
     1
 71
     2
176
     1
 72
     2
176
     1
 73
     0
176
     1
 90
        0
176
     1
 40
-0.6
176
     1
 41
-30.0
176
     1
 62
     5
 63
     7
421
 16777215
176
     1
 74
     1
176
     1
 91
        4
176
     1
 64
     7
176
     1
 65
   257
176
     1
 75
     1
176
     1
175
     1
176
     1
 42
1.0
176
     1
 92
        8
176
     1
 66
     7
176
     1
 43
1.0
176
     1
 76
     1
176
     1
 77
     6
176
     1
 78
     2
176
     1
 67
     7
176
     1
 79
     5
176
     1
170
     0
176
     1
171
     0
176
     1
290
     0
176
     1
 93
        1
176
     1
 44
50.0
176
     1
173
     0
176
     1
  0
VISUALSTYLE
  5
54E
102
{ACAD_REACTORS
330
53E
102
}
330
53E
100
AcDbVisualStyle
  2
ColorChange
 70
    16
177
     2
291
     1
 71
     2
176
     1
 72
     2
176
     1
 73
     3
176
     1
 90
        0
176
     1
 40
-0.6
176
     1
 41
-30.0
176
     1
 62
     5
 63
     8
421
  8421504
176
     1
 74
     1
176
     1
 91
        4
176
     1
 64
     7
176
     1
 65
   257
176
     1
 75
     1
176
     1
175
     1
176
     1
 42
1.0
176
     1
 92
        8
176
     1
 66
     8
424
  8421504
176
     1
 43
1.0
176
     1
 76
     1
176
     1
 77
     6
176
     1
 78
     2
176
     1
 67
     7
176
     1
 79
     5
176
     1
170
     0
176
     1
171
     0
176
     1
290
     0
176
     1
 93
        1
176
     1
 44
0.0
176
     1
173
     0
176
     1
  0
VISUALSTYLE
  5
548
102
{ACAD_REACTORS
330
53E
102
}
330
53E
100
AcDbVisualStyle
  2
Conceptual
 70
     9
177
     2
291
     0
 71
     3
176
     1
 72
     2
176
     1
 73
     0
176
     1
 90
        0
176
     1
 40
-0.6
176
     1
 41
-30.0
176
     1
 62
     5
 63
     7
421
 16777215
176
     1
 74
     2
176
     1
 91
        2
176
     1
 64
     7
176
     1
 65
   257
176
     1
 75
     1
176
     1
175
     1
176
     1
 42
40.0
176
     1
 92
        8
176
     1
 66
     7
176
     1
 43
1.0
176
     1
 76
     1
176
     1
 77
     6
176
     1
 78
     2
176
     1
 67
     7
176
     1
 79
     3
176
     1
170
     0
176
     1
171
     0
176
     1
290
     0
176
     1
 93
        1
176
     1
 44
0.0
176
     1
173
     0
176
     1
  0
VISUALSTYLE
  5
549
102
{ACAD_REACTORS
330
53E
102
}
330
53E
100
AcDbVisualStyle
  2
Dim
 70
    11
177
     2
291
     1
 71
     2
176
     1
 72
     2
176
     1
 73
     0
176
     1
 90
        0
176
     1
 40
-0.6
176
     1
 41
-30.0
176
     1
 62
     5
 63
     7
421
 16777215
176
     1
 74
     1
176
     1
 91
        4
176
     1
 64
     7
176
     1
 65
   257
176
     1
 75
     1
176
     1
175
     1
176
     1
 42
1.0
176
     1
 92
        8
176
     1
 66
     7
176
     1
 43
1.0
176
     1
 76
     1
176
     1
 77
     6
176
     1
 78
     2
176
     1
 67
     7
176
     1
 79
     5
176
     1
170
     0
176
     1
171
     0
176
     1
290
     0
176
     1
 93
        1
176
     1
 44
-50.0
176
     1
173
     0
176
     1
  0
VISUALSTYLE
  5
54D
102
{ACAD_REACTORS
330
53E
102
}
330
53E
100
AcDbVisualStyle
  2
Facepattern
 70
    15
177
     2
291
     1
 71
     2
176
     1
 72
     2
176
     1
 73
     0
176
     1
 90
        0
176
     1
 40
-0.6
176
     1
 41
-30.0
176
     1
 62
     5
 63
     7
421
 16777215
176
     1
 74
     1
176
     1
 91
        4
176
     1
 64
     7
176
     1
 65
   257
176
     1
 75
     1
176
     1
175
     1
176
     1
 42
1.0
176
     1
 92
        8
176
     1
 66
     7
176
     1
 43
1.0
176
     1
 76
     1
176
     1
 77
     6
176
     1
 78
     2
176
     1
 67
     7
176
     1
 79
     5
176
     1
170
     0
176
     1
171
     0
176
     1
290
     0
176
     1
 93
        1
176
     1
 44
0.0
176
     1
173
     0
176
     1
  0
VISUALSTYLE
  5
53F
102
{ACAD_REACTORS
330
53E
102
}
330
53E
100
AcDbVisualStyle
  2
Flat
 70
     0
177
     2
291
     1
 71
     2
176
     1
 72
     1
176
     1
 73
     1
176
     1
 90
        2
176
     1
 40
-0.6
176
     1
 41
30.0
176
     1
 62
     5
 63
     7
421
 16777215
176
     1
 74
     0
176
     1
 91
        4
176
     1
 64
     7
176
     1
 65
   257
176
     1
 75
     1
176
     1
175
     1
176
     1
 42
1.0
176
     1
 92
        8
176
     1
 66
     7
176
     1
 43
1.0
176
     1
 76
     1
176
     1
 77
     6
176
     1
 78
     2
176
     1
 67
     7
176
     1
 79
     5
176
     1
170
     0
176
     1
171
     0
176
     1
290
     0
176
     1
 93
       13
176
     1
 44
0.0
176
     1
173
     0
176
     1
  0
VISUALSTYLE
  5
540
102
{ACAD_REACTORS
330
53E
102
}
330
53E
100
AcDbVisualStyle
  2
FlatWithEdges
 70
     1
177
     2
291
     1
 71
     2
176
     1
 72
     1
176
     1
 73
     1
176
     1
 90
        2
176
     1
 40
-0.6
176
     1
 41
30.0
176
     1
 62
     5
 63
     7
421
 16777215
176
     1
 74
     1
176
     1
 91
        4
176
     1
 64
     7
176
     1
 65
   257
176
     1
 75
     1
176
     1
175
     1
176
     1
 42
1.0
176
     1
 92
        0
176
     1
 66
   257
176
     1
 43
1.0
176
     1
 76
     1
176
     1
 77
     6
176
     1
 78
     2
176
     1
 67
     7
176
     1
 79
     5
176
     1
170
     0
176
     1
171
     0
176
     1
290
     0
176
     1
 93
       13
176
     1
 44
0.0
176
     1
173
     0
176
     1
  0
VISUALSTYLE
  5
541
102
{ACAD_REACTORS
330
53E
102
}
330
53E
100
AcDbVisualStyle
  2
Gouraud
 70
     2
177
     2
291
     1
 71
     2
176
     1
 72
     2
176
     1
 73
     1
176
     1
 90
        2
176
     1
 40
-0.6
176
     1
 41
30.0
176
     1
 62
     5
 63
     7
421
 16777215
176
     1
 74
     0
176
     1
 91
        4
176
     1
 64
     7
176
     1
 65
   257
176
     1
 75
     1
176
     1
175
     1
176
     1
 42
1.0
176
     1
 92
        0
176
     1
 66
     7
176
     1
 43
1.0
176
     1
 76
     1
176
     1
 77
     6
176
     1
 78
     2
176
     1
 67
     7
176
     1
 79
     5
176
     1
170
     0
176
     1
171
     0
176
     1
290
     0
176
     1
 93
       13
176
     1
 44
0.0
176
     1
173
     0
176
     1
  0
VISUALSTYLE
  5
542
102
{ACAD_REACTORS
330
53E
102
}
330
53E
100
AcDbVisualStyle
  2
GouraudWithEdges
 70
     3
177
     2
291
     1
 71
     2
176
     1
 72
     2
176
     1
 73
     1
176
     1
 90
        2
176
     1
 40
-0.6
176
     1
 41
30.0
176
     1
 62
     5
 63
     7
421
 16777215
176
     1
 74
     1
176
     1
 91
        4
176
     1
 64
     7
176
     1
 65
   257
176
     1
 75
     1
176
     1
175
     1
176
     1
 42
1.0
176
     1
 92
        0
176
     1
 66
   257
176
     1
 43
1.0
176
     1
 76
     1
176
     1
 77
     6
176
     1
 78
     2
176
     1
 67
     7
176
     1
 79
     5
176
     1
170
     0
176
     1
171
     0
176
     1
290
     0
176
     1
 93
       13
176
     1
 44
0.0
176
     1
173
     0
176
     1
  0
VISUALSTYLE
  5
54C
102
{ACAD_REACTORS
330
53E
102
}
330
53E
100
AcDbVisualStyle
  2
Linepattern
 70
    14
177
     2
291
     1
 71
     2
176
     1
 72
     2
176
     1
 73
     0
176
     1
 90
        0
176
     1
 40
-0.6
176
     1
 41
-30.0
176
     1
 62
     5
 63
     7
421
 16777215
176
     1
 74
     1
176
     1
 91
        4
176
     1
 64
     7
176
     1
 65
   257
176
     1
 75
     7
176
     1
175
     7
176
     1
 42
1.0
176
     1
 92
        8
176
     1
 66
     7
176
     1
 43
1.0
176
     1
 76
     1
176
     1
 77
     6
176
     1
 78
     2
176
     1
 67
     7
176
     1
 79
     5
176
     1
170
     0
176
     1
171
     0
176
     1
290
     0
176
     1
 93
        1
176
     1
 44
0.0
176
     1
173
     0
176
     1
  0
VISUALSTYLE
  5
547
102
{ACAD_REACTORS
330
53E
102
}
330
53E
100
AcDbVisualStyle
  2
Realistic
 70
     8
177
     2
291
     0
 71
     2
176
     1
 72
     2
176
     1
 73
     0
176
     1
 90
        0
176
     1
 40
-0.6
176
     1
 41
-30.0
176
     1
 62
     5
 63
     7
421
 16777215
176
     1
 74
     1
176
     1
 91
        0
176
     1
 64
     7
176
     1
 65
   257
176
     1
 75
     1
176
     1
175
     1
176
     1
 42
1.0
176
     1
 92
        8
176
     1
 66
     8
424
  7895160
176
     1
 43
1.0
176
     1
 76
     1
176
     1
 77
     6
176
     1
 78
     2
176
     1
 67
     7
176
     1
 79
     5
176
     1
170
     0
176
     1
171
     0
176
     1
290
     0
176
     1
 93
       13
176
     1
 44
0.0
176
     1
173
     0
176
     1
  0
VISUALSTYLE
  5
54B
102
{ACAD_REACTORS
330
53E
102
}
330
53E
100
AcDbVisualStyle
  2
Thicken
 70
    13
177
     2
291
     1
 71
     2
176
     1
 72
     2
176
     1
 73
     0
176
     1
 90
        0
176
     1
 40
-0.6
176
     1
 41
-30.0
176
     1
 62
     5
 63
     7
421
 16777215
176
     1
 74
     1
176
     1
 91
        4
176
     1
 64
     7
176
     1
 65
   257
176
     1
 75
     1
176
     1
175
     1
176
     1
 42
1.0
176
     1
 92
       12
176
     1
 66
     7
176
     1
 43
1.0
176
     1
 76
     1
176
     1
 77
     6
176
     1
 78
     2
176
     1
 67
     7
176
     1
 79
     5
176
     1
170
     0
176
     1
171
     0
176
     1
290
     0
176
     1
 93
        1
176
     1
 44
0.0
176
     1
173
     0
176
     1
  0
XRECORD
  5
569
102
{ACAD_REACTORS
330
554
102
}
330
554
100
AcDbXrecord
280
     1
1000
White
  0
XRECORD
  5
562
102
{ACAD_REACTORS
330
554
102
}
330
554
100
AcDbXrecord
280
     1
1000
Grayscale
  0
XRECORD
  5
56A
102
{ACAD_REACTORS
330
554
102
}
330
554
100
AcDbXrecord
280
     1
290
     1
  0
XRECORD
  5
55F
102
{ACAD_REACTORS
330
554
102
}
330
554
100
AcDbXrecord
280
     1
1000
auto
  0
XRECORD
  5
561
102
{ACAD_REACTORS
330
554
102
}
330
554
100
AcDbXrecord
280
     1
1000
auto
  0
XRECORD
  5
558
102
{ACAD_REACTORS
330
554
102
}
330
554
100
AcDbXrecord
280
     1
1000
auto
  0
XRECORD
  5
55C
102
{ACAD_REACTORS
330
554
102
}
330
554
100
AcDbXrecord
280
     1
1000
auto
  0
XRECORD
  5
55D
102
{ACAD_REACTORS
330
554
102
}
330
554
100
AcDbXrecord
280
     1
 90
        1
  0
XRECORD
  5
559
102
{ACAD_REACTORS
330
554
102
}
330
554
100
AcDbXrecord
280
     1
 40
10.0
  0
XRECORD
  5
564
102
{ACAD_REACTORS
330
554
102
}
330
554
100
AcDbXrecord
280
     1
 40
10.0
  0
XRECORD
  5
555
102
{ACAD_REACTORS
330
554
102
}
330
554
100
AcDbXrecord
280
     1
 40
10.0
  0
XRECORD
  5
56E
102
{ACAD_REACTORS
330
554
102
}
330
554
100
AcDbXrecord
280
     1
 40
10.0
  0
XRECORD
  5
557
102
{ACAD_REACTORS
330
554
102
}
330
554
100
AcDbXrecord
280
     1
290
     0
  0
XRECORD
  5
566
102
{ACAD_REACTORS
330
554
102
}
330
554
100
AcDbXrecord
280
     1
 90
        1
  0
XRECORD
  5
56C
102
{ACAD_REACTORS
330
554
102
}
330
554
100
AcDbXrecord
280
     1
 40
-27.5734180327869
  0
XRECORD
  5
56D
102
{ACAD_REACTORS
330
554
102
}
330
554
100
AcDbXrecord
280
     1
 40
-233.7365081967213
  0
XRECORD
  5
556
102
{ACAD_REACTORS
330
554
102
}
330
554
100
AcDbXrecord
280
     1
1000
Portrait
  0
XRECORD
  5
55B
102
{ACAD_REACTORS
330
554
102
}
330
554
100
AcDbXrecord
280
     1
1000
11
 41
4.0
  0
XRECORD
  5
55E
102
{ACAD_REACTORS
330
554
102
}
330
554
100
AcDbXrecord
280
     1
1000
ANSI A (Letter)
  0
XRECORD
  5
567
102
{ACAD_REACTORS
330
554
102
}
330
554
100
AcDbXrecord
280
     1
1000
8.5
 41
4.0
  0
XRECORD
  5
55A
102
{ACAD_REACTORS
330
554
102
}
330
554
100
AcDbXrecord
280
     1
1000
1
  0
XRECORD
  5
560
102
{ACAD_REACTORS
330
554
102
}
330
554
100
AcDbXrecord
280
     1
290
     0
  0
XRECORD
  5
56B
102
{ACAD_REACTORS
330
554
102
}
330
554
100
AcDbXrecord
280
     1
290
     1
  0
XRECORD
  5
565
102
{ACAD_REACTORS
330
554
102
}
330
554
100
AcDbXrecord
280
     1
1000

  0
XRECORD
  5
563
102
{ACAD_REACTORS
330
554
102
}
330
554
100
AcDbXrecord
280
     1
1000

  0
XRECORD
  5
568
102
{ACAD_REACTORS
330
554
102
}
330
554
100
AcDbXrecord
280
     1
 90
        1
  0
ENDSEC
  0
EOF
