  0
SECTION
  2
HEADER
  9
$ACADVER
  1
AC1024
  9
$ACADMAINTVER
 70
     6
  9
$DWGCODEPAGE
  3
ASCII
  9
$INSBASE
 10
0.0
 20
0.0
 30
0.0
  9
$EXTMIN
 10
1.000000000000000E+20
 20
1.000000000000000E+20
 30
1.000000000000000E+20
  9
$EXTMAX
 10
-1.000000000000000E+20
 20
-1.000000000000000E+20
 30
-1.000000000000000E+20
  9
$LIMMIN
 10
0.0
 20
0.0
  9
$LIMMAX
 10
12.0
 20
9.0
  9
$ORTHOMODE
 70
     0
  9
$REGENMODE
 70
     1
  9
$FILLMODE
 70
     1
  9
$QTEXTMODE
 70
     0
  9
$MIRRTEXT
 70
     1
  9
$LTSCALE
 40
1.0
  9
$ATTMODE
 70
     1
  9
$TEXTSIZE
 40
0.2
  9
$TRACEWID
 40
0.05
  9
$TEXTSTYLE
  7
Standard
  9
$CLAYER
  8
0
  9
$CELTYPE
  6
ByLayer
  9
$CECOLOR
 62
   178
  9
$CELTSCALE
 40
1.0
  9
$DISPSILH
 70
     0
  9
$DIMSCALE
 40
1.0
  9
$DIMASZ
 40
2.5
  9
$DIMEXO
 40
0.625
  9
$DIMDLI
 40
0.38
  9
$DIMRND
 40
0.0
  9
$DIMDLE
 40
0.0
  9
$DIMEXE
 40
1.25
  9
$DIMTP
 40
0.0
  9
$DIMTM
 40
0.0
  9
$DIMTXT
 40
2.5
  9
$DIMCEN
 40
0.09
  9
$DIMTSZ
 40
0.0
  9
$DIMTOL
 70
     0
  9
$DIMLIM
 70
     0
  9
$DIMTIH
 70
     1
  9
$DIMTOH
 70
     1
  9
$DIMSE1
 70
     0
  9
$DIMSE2
 70
     0
  9
$DIMTAD
 70
     0
  9
$DIMZIN
 70
     8
  9
$DIMBLK
  1

  9
$DIMASO
 70
     1
  9
$DIMSHO
 70
     1
  9
$DIMPOST
  1

  9
$DIMAPOST
  1

  9
$DIMALT
 70
     0
  9
$DIMALTD
 70
     2
  9
$DIMALTF
 40
25.4
  9
$DIMLFAC
 40
1.0
  9
$DIMTOFL
 70
     0
  9
$DIMTVP
 40
0.0
  9
$DIMTIX
 70
     0
  9
$DIMSOXD
 70
     0
  9
$DIMSAH
 70
     0
  9
$DIMBLK1
  1

  9
$DIMBLK2
  1

  9
$DIMSTYLE
  2
Standard
  9
$DIMCLRD
 70
   178
  9
$DIMCLRE
 70
   178
  9
$DIMCLRT
 70
   178
  9
$DIMTFAC
 40
1.0
  9
$DIMGAP
 40
0.625
  9
$DIMJUST
 70
     0
  9
$DIMSD1
 70
     0
  9
$DIMSD2
 70
     0
  9
$DIMTOLJ
 70
     1
  9
$DIMTZIN
 70
     0
  9
$DIMALTZ
 70
     0
  9
$DIMALTTZ
 70
     0
  9
$DIMUPT
 70
     0
  9
$DIMDEC
 70
     4
  9
$DIMTDEC
 70
     4
  9
$DIMALTU
 70
     2
  9
$DIMALTTD
 70
     2
  9
$DIMTXSTY
  7
Standard
  9
$DIMAUNIT
 70
     0
  9
$DIMADEC
 70
     0
  9
$DIMALTRND
 40
0.0
  9
$DIMAZIN
 70
     2
  9
$DIMDSEP
 70
    46
  9
$DIMATFIT
 70
     3
  9
$DIMFRAC
 70
     0
  9
$DIMLDRBLK
  1

  9
$DIMLUNIT
 70
     2
  9
$DIMLWD
 70
    -2
  9
$DIMLWE
 70
    -2
  9
$DIMTMOVE
 70
     0
  9
$DIMFXL
 40
1.0
  9
$DIMFXLON
 70
     0
  9
$DIMJOGANG
 40
0.7853981633974483
  9
$DIMTFILL
 70
     0
  9
$DIMTFILLCLR
 70
     0
  9
$DIMARCSYM
 70
     0
  9
$DIMLTYPE
  6

  9
$DIMLTEX1
  6

  9
$DIMLTEX2
  6

  9
$DIMTXTDIRECTION
 70
     0
  9
$LUNITS
 70
     2
  9
$LUPREC
 70
     4
  9
$SKETCHINC
 40
0.1
  9
$FILLETRAD
 40
0.5
  9
$AUNITS
 70
     0
  9
$AUPREC
 70
     0
  9
$MENU
  1
.
  9
$ELEVATION
 40
0.0
  9
$PELEVATION
 40
0.0
  9
$THICKNESS
 40
0.0
  9
$LIMCHECK
 70
     0
  9
$CHAMFERA
 40
0.5
  9
$CHAMFERB
 40
0.5
  9
$CHAMFERC
 40
1.0
  9
$CHAMFERD
 40
0.0
  9
$SKPOLY
 70
     0
  9
$TDCREATE
 40
2456300.712037025
  9
$TDUCREATE
 40
2456300.92037037
  9
$TDUPDATE
 40
2456300.712037025
  9
$TDUUPDATE
 40
2456300.92037037
  9
$TDINDWG
 40
0.0000000116
  9
$TDUSRTIMER
 40
0.0000000116
  9
$USRTIMER
 70
     1
  9
$ANGBASE
 50
0.0
  9
$ANGDIR
 70
     0
  9
$PDMODE
 70
     0
  9
$PDSIZE
 40
0.0
  9
$PLINEWID
 40
0.0
  9
$SPLFRAME
 70
     0
  9
$SPLINETYPE
 70
     6
  9
$SPLINESEGS
 70
     8
  9
$HANDSEED
  5
41E
  9
$SURFTAB1
 70
     6
  9
$SURFTAB2
 70
     6
  9
$SURFTYPE
 70
     6
  9
$SURFU
 70
     6
  9
$SURFV
 70
     6
  9
$UCSBASE
  2

  9
$UCSNAME
  2

  9
$UCSORG
 10
0.0
 20
0.0
 30
0.0
  9
$UCSXDIR
 10
1.0
 20
0.0
 30
0.0
  9
$UCSYDIR
 10
0.0
 20
1.0
 30
0.0
  9
$UCSORTHOREF
  2

  9
$UCSORTHOVIEW
 70
     0
  9
$UCSORGTOP
 10
0.0
 20
0.0
 30
0.0
  9
$UCSORGBOTTOM
 10
0.0
 20
0.0
 30
0.0
  9
$UCSORGLEFT
 10
0.0
 20
0.0
 30
0.0
  9
$UCSORGRIGHT
 10
0.0
 20
0.0
 30
0.0
  9
$UCSORGFRONT
 10
0.0
 20
0.0
 30
0.0
  9
$UCSORGBACK
 10
0.0
 20
0.0
 30
0.0
  9
$PUCSBASE
  2

  9
$PUCSNAME
  2

  9
$PUCSORG
 10
0.0
 20
0.0
 30
0.0
  9
$PUCSXDIR
 10
1.0
 20
0.0
 30
0.0
  9
$PUCSYDIR
 10
0.0
 20
1.0
 30
0.0
  9
$PUCSORTHOREF
  2

  9
$PUCSORTHOVIEW
 70
     0
  9
$PUCSORGTOP
 10
0.0
 20
0.0
 30
0.0
  9
$PUCSORGBOTTOM
 10
0.0
 20
0.0
 30
0.0
  9
$PUCSORGLEFT
 10
0.0
 20
0.0
 30
0.0
  9
$PUCSORGRIGHT
 10
0.0
 20
0.0
 30
0.0
  9
$PUCSORGFRONT
 10
0.0
 20
0.0
 30
0.0
  9
$PUCSORGBACK
 10
0.0
 20
0.0
 30
0.0
  9
$USERI1
 70
     0
  9
$USERI2
 70
     0
  9
$USERI3
 70
     0
  9
$USERI4
 70
     0
  9
$USERI5
 70
     0
  9
$USERR1
 40
0.0
  9
$USERR2
 40
0.0
  9
$USERR3
 40
0.0
  9
$USERR4
 40
0.0
  9
$USERR5
 40
0.0
  9
$WORLDVIEW
 70
     1
  9
$SHADEDGE
 70
     3
  9
$SHADEDIF
 70
    70
  9
$TILEMODE
 70
     1
  9
$MAXACTVP
 70
    64
  9
$PINSBASE
 10
0.0
 20
0.0
 30
0.0
  9
$PLIMCHECK
 70
     0
  9
$PEXTMIN
 10
1.000000000000000E+20
 20
1.000000000000000E+20
 30
1.000000000000000E+20
  9
$PEXTMAX
 10
-1.000000000000000E+20
 20
-1.000000000000000E+20
 30
-1.000000000000000E+20
  9
$PLIMMIN
 10
0.0
 20
0.0
  9
$PLIMMAX
 10
12.0
 20
9.0
  9
$UNITMODE
 70
     0
  9
$VISRETAIN
 70
     1
  9
$PLINEGEN
 70
     0
  9
$PSLTSCALE
 70
     1
  9
$TREEDEPTH
 70
  3020
  9
$CMLSTYLE
  2
Standard
  9
$CMLJUST
 70
     0
  9
$CMLSCALE
 40
1.0
  9
$PROXYGRAPHICS
 70
     1
  9
$MEASUREMENT
 70
     0
  9
$CELWEIGHT
370
    -1
  9
$ENDCAPS
280
     0
  9
$JOINSTYLE
280
     0
  9
$LWDISPLAY
290
     0
  9
$INSUNITS
 70
     1
  9
$HYPERLINKBASE
  1

  9
$STYLESHEET
  1

  9
$XEDIT
290
     1
  9
$CEPSNTYPE
380
     0
  9
$PSTYLEMODE
290
     1
  9
$FINGERPRINTGUID
  2
{DF888412-DD0C-2ECD-8639-E86508D1BAD8}
  9
$VERSIONGUID
  2
{FAEB1C32-E019-11D5-929B-00C0DF256EC4}
  9
$EXTNAMES
290
     1
  9
$PSVPSCALE
 40
0.0
  9
$OLESTARTUP
290
     0
  9
$SORTENTS
280
   127
  9
$INDEXCTL
280
     0
  9
$HIDETEXT
280
     1
  9
$XCLIPFRAME
280
     2
  9
$HALOGAP
280
     0
  9
$OBSCOLOR
 70
   257
  9
$OBSLTYPE
280
     0
  9
$INTERSECTIONDISPLAY
280
     0
  9
$INTERSECTIONCOLOR
 70
   257
  9
$DIMASSOC
280
     2
  9
$PROJECTNAME
  1

  9
$CAMERADISPLAY
290
     0
  9
$LENSLENGTH
 40
50.0
  9
$CAMERAHEIGHT
 40
0.0
  9
$STEPSPERSEC
 40
2.0
  9
$STEPSIZE
 40
6.0
  9
$3DDWFPREC
 40
2.0
  9
$PSOLWIDTH
 40
0.25
  9
$PSOLHEIGHT
 40
4.0
  9
$LOFTANG1
 40
1.570796326794897
  9
$LOFTANG2
 40
1.570796326794897
  9
$LOFTMAG1
 40
0.0
  9
$LOFTMAG2
 40
0.0
  9
$LOFTPARAM
 70
     7
  9
$LOFTNORMALS
280
     1
  9
$LATITUDE
 40
37.795
  9
$LONGITUDE
 40
-122.394
  9
$NORTHDIRECTION
 40
0.0
  9
$TIMEZONE
 70
 -8000
  9
$LIGHTGLYPHDISPLAY
280
     1
  9
$TILEMODELIGHTSYNCH
280
     1
  9
$SOLIDHIST
280
     1
  9
$SHOWHIST
280
     1
  9
$DWFFRAME
280
     2
  9
$DGNFRAME
280
     2
  9
$REALWORLDSCALE
290
     1
  9
$INTERFERECOLOR
 62
   256
  9
$CSHADOW
280
     0
  9
$SHADOWPLANELOCATION
 40
0.0
  0
ENDSEC
  0
SECTION
  2
CLASSES
  0
CLASS
  1
ACDBDICTIONARYWDFLT
  2
AcDbDictionaryWithDefault
  3
ObjectDBX Classes
 90
        0
 91
        4
280
     0
281
     0
  0
CLASS
  1
VISUALSTYLE
  2
AcDbVisualStyle
  3
ObjectDBX Classes
 90
     4095
 91
        4
280
     0
281
     0
  0
CLASS
  1
MATERIAL
  2
AcDbMaterial
  3
ObjectDBX Classes
 90
     1153
 91
        4
280
     0
281
     0
  0
ENDSEC
  0
SECTION
  2
TABLES
  0
TABLE
  2
VPORT
  5
3B2
330
0
100
AcDbSymbolTable
 70
     1
  0
VPORT
  5
3D2
330
3B2
100
AcDbSymbolTableRecord
100
AcDbViewportTableRecord
  2
*Active
 70
     0
 10
0.0
 20
0.0
 11
1.0
 21
1.0
 12
10.42990654205607
 22
4.5
 13
0.0
 23
0.0
 14
0.5
 24
0.5
 15
0.5
 25
0.5
 16
0.0
 26
0.0
 36
1.0
 17
0.0
 27
0.0
 37
0.0
 40
9.0
 41
1.972972972850329
 42
50.0
 43
0.0
 44
0.0
 50
0.0
 51
0.0
 71
     0
 72
   100
 73
     1
 74
     3
 75
     0
 76
     0
 77
     0
 78
     0
281
     0
 65
     1
110
0.0
120
0.0
130
0.0
111
1.0
121
0.0
131
0.0
112
0.0
122
1.0
132
0.0
 79
     0
146
0.0
 60
     3
 61
     5
292
     1
282
     1
141
0.0
142
0.0
 63
   250
  0
ENDTAB
  0
TABLE
  2
LTYPE
  5
3AF
330
0
100
AcDbSymbolTable
 70
    19
  0
LTYPE
  5
3BD
330
3AF
100
AcDbSymbolTableRecord
100
AcDbLinetypeTableRecord
  2
ByBlock
 70
     0
  3

 72
    65
 73
     0
 40
0.0
  0
LTYPE
  5
3BE
330
3AF
100
AcDbSymbolTableRecord
100
AcDbLinetypeTableRecord
  2
ByLayer
 70
     0
  3

 72
    65
 73
     0
 40
0.0
  0
LTYPE
  5
3BF
330
3AF
100
AcDbSymbolTableRecord
100
AcDbLinetypeTableRecord
  2
Continuous
 70
     0
  3
Solid line
 72
    65
 73
     0
 40
0.0
  0
LTYPE
  5
405
330
3AF
100
AcDbSymbolTableRecord
100
AcDbLinetypeTableRecord
  2
BORDER
 70
     0
  3

 72
    65
 73
     6
 40
42.00000000000001
 49
12.0
 74
     0
 49
-6.0
 74
     0
 49
12.0
 74
     0
 49
-5.95
 74
     0
 49
0.1
 74
     0
 49
-5.95
 74
     0
  0
LTYPE
  5
406
330
3AF
100
AcDbSymbolTableRecord
100
AcDbLinetypeTableRecord
  2
BORDER2
 70
     0
  3

 72
    65
 73
     6
 40
21.0
 49
6.0
 74
     0
 49
-3.0
 74
     0
 49
6.0
 74
     0
 49
-2.95
 74
     0
 49
0.1
 74
     0
 49
-2.95
 74
     0
  0
LTYPE
  5
407
330
3AF
100
AcDbSymbolTableRecord
100
AcDbLinetypeTableRecord
  2
BORDERX2
 70
     0
  3

 72
    65
 73
     6
 40
84.0
 49
24.0
 74
     0
 49
-12.0
 74
     0
 49
24.0
 74
     0
 49
-11.95
 74
     0
 49
0.1
 74
     0
 49
-11.95
 74
     0
  0
LTYPE
  5
408
330
3AF
100
AcDbSymbolTableRecord
100
AcDbLinetypeTableRecord
  2
CENTER
 70
     0
  3

 72
    65
 73
     4
 40
50.0
 49
32.0
 74
     0
 49
-6.0
 74
     0
 49
6.0
 74
     0
 49
-6.0
 74
     0
  0
LTYPE
  5
409
330
3AF
100
AcDbSymbolTableRecord
100
AcDbLinetypeTableRecord
  2
CENTER2
 70
     0
  3

 72
    65
 73
     4
 40
25.0
 49
16.0
 74
     0
 49
-3.0
 74
     0
 49
3.0
 74
     0
 49
-3.0
 74
     0
  0
LTYPE
  5
40A
330
3AF
100
AcDbSymbolTableRecord
100
AcDbLinetypeTableRecord
  2
CENTERX2
 70
     0
  3

 72
    65
 73
     4
 40
100.0
 49
64.0
 74
     0
 49
-12.0
 74
     0
 49
12.0
 74
     0
 49
-12.0
 74
     0
  0
LTYPE
  5
40B
330
3AF
100
AcDbSymbolTableRecord
100
AcDbLinetypeTableRecord
  2
DASHDOT
 70
     0
  3

 72
    65
 73
     4
 40
24.0
 49
12.0
 74
     0
 49
-5.95
 74
     0
 49
0.1
 74
     0
 49
-5.95
 74
     0
  0
LTYPE
  5
40C
330
3AF
100
AcDbSymbolTableRecord
100
AcDbLinetypeTableRecord
  2
DASHDOT2
 70
     0
  3

 72
    65
 73
     4
 40
12.0
 49
6.0
 74
     0
 49
-2.95
 74
     0
 49
0.1
 74
     0
 49
-2.95
 74
     0
  0
LTYPE
  5
40D
330
3AF
100
AcDbSymbolTableRecord
100
AcDbLinetypeTableRecord
  2
DASHDOTX2
 70
     0
  3

 72
    65
 73
     4
 40
48.0
 49
24.0
 74
     0
 49
-11.95
 74
     0
 49
0.1
 74
     0
 49
-11.95
 74
     0
  0
LTYPE
  5
40E
330
3AF
100
AcDbSymbolTableRecord
100
AcDbLinetypeTableRecord
  2
DASHED
 70
     0
  3

 72
    65
 73
     2
 40
18.0
 49
12.0
 74
     0
 49
-6.0
 74
     0
  0
LTYPE
  5
40F
330
3AF
100
AcDbSymbolTableRecord
100
AcDbLinetypeTableRecord
  2
DASHED2
 70
     0
  3

 72
    65
 73
     2
 40
9.0
 49
6.0
 74
     0
 49
-3.0
 74
     0
  0
LTYPE
  5
410
330
3AF
100
AcDbSymbolTableRecord
100
AcDbLinetypeTableRecord
  2
DASHEDX2
 70
     0
  3

 72
    65
 73
     2
 40
36.0
 49
24.0
 74
     0
 49
-12.0
 74
     0
  0
LTYPE
  5
411
330
3AF
100
AcDbSymbolTableRecord
100
AcDbLinetypeTableRecord
  2
DIVIDE
 70
     0
  3

 72
    65
 73
     6
 40
29.99999999999999
 49
12.0
 74
     0
 49
-5.9
 74
     0
 49
0.15
 74
     0
 49
-5.9
 74
     0
 49
0.15
 74
     0
 49
-5.9
 74
     0
  0
LTYPE
  5
412
330
3AF
100
AcDbSymbolTableRecord
100
AcDbLinetypeTableRecord
  2
DIVIDE2
 70
     0
  3

 72
    65
 73
     6
 40
15.0
 49
6.0
 74
     0
 49
-2.9
 74
     0
 49
0.15
 74
     0
 49
-2.9
 74
     0
 49
0.15
 74
     0
 49
-2.9
 74
     0
  0
LTYPE
  5
413
330
3AF
100
AcDbSymbolTableRecord
100
AcDbLinetypeTableRecord
  2
DIVIDEX2
 70
     0
  3

 72
    65
 73
     6
 40
59.99999999999999
 49
24.0
 74
     0
 49
-11.9
 74
     0
 49
0.15
 74
     0
 49
-11.9
 74
     0
 49
0.15
 74
     0
 49
-11.9
 74
     0
  0
LTYPE
  5
414
330
3AF
100
AcDbSymbolTableRecord
100
AcDbLinetypeTableRecord
  2
DOT
 70
     0
  3

 72
    65
 73
     2
 40
6.3
 49
0.1
 74
     0
 49
-6.2
 74
     0
  0
LTYPE
  5
415
330
3AF
100
AcDbSymbolTableRecord
100
AcDbLinetypeTableRecord
  2
DOT2
 70
     0
  3

 72
    65
 73
     2
 40
3.2
 49
0.1
 74
     0
 49
-3.1
 74
     0
  0
LTYPE
  5
416
330
3AF
100
AcDbSymbolTableRecord
100
AcDbLinetypeTableRecord
  2
DOTX2
 70
     0
  3

 72
    65
 73
     2
 40
12.5
 49
0.1
 74
     0
 49
-12.4
 74
     0
  0
ENDTAB
  0
TABLE
  2
LAYER
  5
3AC
330
0
100
AcDbSymbolTable
 70
     6
  0
LAYER
  5
3BA
330
3AC
100
AcDbSymbolTableRecord
100
AcDbLayerTableRecord
  2
0
 70
     0
 62
     7
420
 16777215
  6
Continuous
370
    25
390
3B9
347
3E7
  0
LAYER
  5
417
330
3AC
100
AcDbSymbolTableRecord
100
AcDbLayerTableRecord
  2
pcb
 70
     1
 62
   178
420
        0
  6
Continuous
370
    25
390
3B9
347
3E7
  0
LAYER
  5
418
330
3AC
100
AcDbSymbolTableRecord
100
AcDbLayerTableRecord
  2
screen
 70
     0
 62
   178
420
        0
  6
DOTX2
370
     5
390
3B9
347
3E7
  0
LAYER
  5
419
330
3AC
100
AcDbSymbolTableRecord
100
AcDbLayerTableRecord
  2
top
 70
     0
 62
   178
420
        0
  6
Continuous
370
     0
390
3B9
347
3E7
  0
LAYER
  5
41A
330
3AC
100
AcDbSymbolTableRecord
100
AcDbLayerTableRecord
  2
guides
 70
     1
 62
   178
420
        0
  6
Continuous
370
    25
390
3B9
347
3E7
  0
LAYER
  5
41B
330
3AC
100
AcDbSymbolTableRecord
100
AcDbLayerTableRecord
  2
etch
 70
     0
 62
   178
420
        0
  6
Continuous
370
     0
390
3B9
347
3E7
  0
ENDTAB
  0
TABLE
  2
STYLE
  5
3AD
330
0
100
AcDbSymbolTable
 70
     1
  0
STYLE
  5
3BB
330
3AD
100
AcDbSymbolTableRecord
100
AcDbTextStyleTableRecord
  2
Standard
 70
     0
 40
0.0
 41
1.0
 50
0.0
 71
     0
 42
0.2
  3
txt
  4

  0
ENDTAB
  0
TABLE
  2
VIEW
  5
3B0
330
0
100
AcDbSymbolTable
 70
     0
  0
ENDTAB
  0
TABLE
  2
UCS
  5
3B1
330
0
100
AcDbSymbolTable
 70
     0
  0
ENDTAB
  0
TABLE
  2
APPID
  5
3B3
330
0
100
AcDbSymbolTable
 70
     2
  0
APPID
  5
3BC
330
3B3
100
AcDbSymbolTableRecord
100
AcDbRegAppTableRecord
  2
ACAD
 70
     0
  0
APPID
  5
3E8
330
3B3
100
AcDbSymbolTableRecord
100
AcDbRegAppTableRecord
  2
QCAD
 70
     0
  0
ENDTAB
  0
TABLE
  2
DIMSTYLE
  5
3B4
330
0
100
AcDbSymbolTable
 70
     2
100
AcDbDimStyleTable
  0
DIMSTYLE
105
3D0
330
3B4
100
AcDbSymbolTableRecord
100
AcDbDimStyleTableRecord
  2
Standard
 70
     0
178
     0
340
3BB
  0
DIMSTYLE
105
404
330
3B4
100
AcDbSymbolTableRecord
100
AcDbDimStyleTableRecord
  2
QCADDimStyle
 70
     0
 41
2.5
 42
0.625
 44
1.25
 73
     0
 77
     1
140
2.5
147
0.625
178
     0
340
3BB
  0
ENDTAB
  0
TABLE
  2
BLOCK_RECORD
  5
3AB
330
0
100
AcDbSymbolTable
 70
     1
  0
BLOCK_RECORD
  5
3C8
330
3AB
100
AcDbSymbolTableRecord
100
AcDbBlockTableRecord
  2
*Model_Space
340
3CB
 70
     0
280
     1
281
     0
  0
BLOCK_RECORD
  5
3C4
330
3AB
100
AcDbSymbolTableRecord
100
AcDbBlockTableRecord
  2
*Paper_Space
340
3C7
 70
     0
280
     1
281
     0
  0
BLOCK_RECORD
  5
3CC
330
3AB
100
AcDbSymbolTableRecord
100
AcDbBlockTableRecord
  2
*Paper_Space0
340
3CF
 70
     0
280
     1
281
     0
  0
ENDTAB
  0
ENDSEC
  0
SECTION
  2
BLOCKS
  0
BLOCK
  5
3C9
330
3C8
100
AcDbEntity
  8
0
100
AcDbBlockBegin
  2
*Model_Space
 70
     0
 10
0.0
 20
0.0
 30
0.0
  3
*Model_Space
  1

  0
ENDBLK
  5
3CA
330
3C8
100
AcDbEntity
  8
0
100
AcDbBlockEnd
  0
BLOCK
  5
3C5
330
3C4
100
AcDbEntity
 67
     1
  8
0
100
AcDbBlockBegin
  2
*Paper_Space
 70
     0
 10
0.0
 20
0.0
 30
0.0
  3
*Paper_Space
  1

  0
ENDBLK
  5
3C6
330
3C4
100
AcDbEntity
 67
     1
  8
0
100
AcDbBlockEnd
  0
BLOCK
  5
3CD
330
3CC
100
AcDbEntity
  8
0
100
AcDbBlockBegin
  2
*Paper_Space0
 70
     0
 10
0.0
 20
0.0
 30
0.0
  3
*Paper_Space0
  1

  0
ENDBLK
  5
3CE
330
3CC
100
AcDbEntity
  8
0
100
AcDbBlockEnd
  0
ENDSEC
  0
SECTION
  2
ENTITIES
  0
ARC
  5
110
330
3C8
100
AcDbEntity
  8
etch
100
AcDbCircle
 10
1.149999999999999
 20
3.35
 30
0.0
 40
0.05
100
AcDbArc
 50
90.0
 51
180.0
  0
ARC
  5
105
330
3C8
100
AcDbEntity
  8
etch
100
AcDbCircle
 10
1.15
 20
2.65
 30
0.0
 40
0.05
100
AcDbArc
 50
180.0
 51
270.0
  0
LINE
  5
D5
330
3C8
100
AcDbEntity
  8
etch
100
AcDbLine
 10
1.1
 20
3.35
 30
0.0
 11
1.1
 21
2.65
 31
0.0
  0
LINE
  5
1E
330
3C8
100
AcDbEntity
  8
pcb
100
AcDbLine
 10
0.0
 20
0.0
 30
0.0
 11
6.8
 21
0.0
 31
0.0
  0
LINE
  5
1F
330
3C8
100
AcDbEntity
  8
pcb
100
AcDbLine
 10
6.8
 20
0.0
 30
0.0
 11
6.8
 21
4.4
 31
0.0
  0
LINE
  5
20
330
3C8
100
AcDbEntity
  8
pcb
100
AcDbLine
 10
6.8
 20
4.4
 30
0.0
 11
0.0
 21
4.4
 31
0.0
  0
LINE
  5
21
330
3C8
100
AcDbEntity
  8
pcb
100
AcDbLine
 10
0.0
 20
4.4
 30
0.0
 11
0.0
 21
0.0
 31
0.0
  0
CIRCLE
  5
22
330
3C8
100
AcDbEntity
  8
pcb
100
AcDbCircle
 10
0.1
 20
0.1
 30
0.0
 40
0.065
  0
CIRCLE
  5
23
330
3C8
100
AcDbEntity
  8
pcb
100
AcDbCircle
 10
0.1
 20
4.3
 30
0.0
 40
0.065
  0
CIRCLE
  5
24
330
3C8
100
AcDbEntity
  8
pcb
100
AcDbCircle
 10
6.7
 20
4.3
 30
0.0
 40
0.065
  0
CIRCLE
  5
25
330
3C8
100
AcDbEntity
  8
pcb
100
AcDbCircle
 10
6.7
 20
0.1
 30
0.0
 40
0.065
  0
LINE
  5
26
330
3C8
100
AcDbEntity
  8
0
100
AcDbLine
 10
-0.1
 20
4.5
 30
0.0
 11
-0.1
 21
-0.1
 31
0.0
  0
LINE
  5
27
330
3C8
100
AcDbEntity
  8
0
100
AcDbLine
 10
6.9
 20
4.5
 30
0.0
 11
-0.1
 21
4.5
 31
0.0
  0
LINE
  5
28
330
3C8
100
AcDbEntity
  8
0
100
AcDbLine
 10
6.9
 20
-0.1
 30
0.0
 11
6.9
 21
4.5
 31
0.0
  0
LINE
  5
29
330
3C8
100
AcDbEntity
  8
0
100
AcDbLine
 10
-0.1
 20
-0.1
 30
0.0
 11
6.9
 21
-0.1
 31
0.0
  0
LINE
  5
2A
330
3C8
100
AcDbEntity
  8
etch
100
AcDbLine
 10
0.35
 20
0.6000000000000001
 30
0.0
 11
3.250000000000001
 21
0.6000000000000001
 31
0.0
  0
LINE
  5
2B
330
3C8
100
AcDbEntity
  8
etch
100
AcDbLine
 10
3.3
 20
0.6500000000000001
 30
0.0
 11
3.3
 21
2.350000000000001
 31
0.0
  0
LINE
  5
2C
330
3C8
100
AcDbEntity
  8
etch
100
AcDbLine
 10
3.25
 20
2.4
 30
0.0
 11
0.3499999999999996
 21
2.4
 31
0.0
  0
LINE
  5
2D
330
3C8
100
AcDbEntity
  8
etch
100
AcDbLine
 10
0.3
 20
2.350000000000001
 30
0.0
 11
0.3
 21
0.6500000000000004
 31
0.0
  0
CIRCLE
  5
2E
330
3C8
100
AcDbEntity
  8
top
100
AcDbCircle
 10
4.653589838486226
 20
0.7000000000000004
 30
0.0
 40
0.2
  0
CIRCLE
  5
2F
330
3C8
100
AcDbEntity
  8
top
100
AcDbCircle
 10
6.039230484541331
 20
0.7
 30
0.0
 40
0.2
  0
CIRCLE
  5
30
330
3C8
100
AcDbEntity
  8
top
100
AcDbCircle
 10
3.960769515458676
 20
1.900000000000001
 30
0.0
 40
0.2
  0
CIRCLE
  5
31
330
3C8
100
AcDbEntity
  8
top
100
AcDbCircle
 10
5.346410161513781
 20
1.900000000000002
 30
0.0
 40
0.2
  0
ARC
  5
36
330
3C8
100
AcDbEntity
  8
top
100
AcDbCircle
 10
-0.1
 20
4.5
 30
0.0
 40
0.0
100
AcDbArc
 50
0.0
 51
0.0
  0
ARC
  5
37
330
3C8
100
AcDbEntity
  8
top
100
AcDbCircle
 10
6.9
 20
4.5
 30
0.0
 40
0.0
100
AcDbArc
 50
0.0
 51
0.0
  0
ARC
  5
38
330
3C8
100
AcDbEntity
  8
top
100
AcDbCircle
 10
6.9
 20
-0.1
 30
0.0
 40
0.0
100
AcDbArc
 50
0.0
 51
0.0
  0
ARC
  5
39
330
3C8
100
AcDbEntity
  8
top
100
AcDbCircle
 10
-0.1
 20
-0.1
 30
0.0
 40
0.0
100
AcDbArc
 50
0.0
 51
0.0
  0
LINE
  5
44
330
3C8
100
AcDbEntity
  8
etch
100
AcDbLine
 10
3.55
 20
2.4
 30
0.0
 11
6.450000000000001
 21
2.4
 31
0.0
  0
LINE
  5
45
330
3C8
100
AcDbEntity
  8
etch
100
AcDbLine
 10
6.5
 20
2.350000000000001
 30
0.0
 11
6.5
 21
0.25
 31
0.0
  0
LINE
  5
46
330
3C8
100
AcDbEntity
  8
etch
100
AcDbLine
 10
6.45
 20
0.2
 30
0.0
 11
3.549999999999999
 21
0.2
 31
0.0
  0
LINE
  5
47
330
3C8
100
AcDbEntity
  8
etch
100
AcDbLine
 10
3.5
 20
0.25
 30
0.0
 11
3.5
 21
2.350000000000001
 31
0.0
  0
LINE
  5
4A
330
3C8
100
AcDbEntity
  8
screen
100
AcDbLine
 10
0.6000000000000001
 20
0.9
 30
0.0
 11
3.0
 21
0.9
 31
0.0
  0
LINE
  5
4B
330
3C8
100
AcDbEntity
  8
screen
100
AcDbLine
 10
3.0
 20
0.9
 30
0.0
 11
3.0
 21
2.1
 31
0.0
  0
LINE
  5
4C
330
3C8
100
AcDbEntity
  8
screen
100
AcDbLine
 10
3.0
 20
2.1
 30
0.0
 11
0.6000000000000001
 21
2.1
 31
0.0
  0
LINE
  5
4D
330
3C8
100
AcDbEntity
  8
screen
100
AcDbLine
 10
0.6000000000000001
 20
2.1
 30
0.0
 11
0.6000000000000001
 21
0.9
 31
0.0
  0
LINE
  5
70
330
3C8
100
AcDbEntity
  8
guides
100
AcDbLine
 10
4.960769515458676
 20
0.1679491924311247
 30
0.0
 11
3.960769515458676
 21
1.900000000000002
 31
0.0
  0
LINE
  5
7C
330
3C8
100
AcDbEntity
  8
guides
100
AcDbLine
 10
5.653589838486226
 20
2.432050807568878
 30
0.0
 11
4.653589838486226
 21
0.7000000000000004
 31
0.0
  0
LINE
  5
7D
330
3C8
100
AcDbEntity
  8
guides
100
AcDbLine
 10
6.346410161513781
 20
0.1679491924311247
 30
0.0
 11
5.346410161513781
 21
1.900000000000002
 31
0.0
  0
LINE
  5
8E
330
3C8
100
AcDbEntity
  8
guides
100
AcDbLine
 10
3.960769515458676
 20
1.900000000000001
 30
0.0
 11
6.039230484541331
 21
1.900000000000001
 31
0.0
  0
LINE
  5
8F
330
3C8
100
AcDbEntity
  8
guides
100
AcDbLine
 10
6.039230484541331
 20
1.900000000000001
 30
0.0
 11
6.039230484541331
 21
0.7
 31
0.0
  0
LINE
  5
90
330
3C8
100
AcDbEntity
  8
guides
100
AcDbLine
 10
6.039230484541331
 20
0.7
 30
0.0
 11
3.960769515458676
 21
0.7
 31
0.0
  0
LINE
  5
91
330
3C8
100
AcDbEntity
  8
guides
100
AcDbLine
 10
3.960769515458676
 20
0.7
 30
0.0
 11
3.960769515458676
 21
1.900000000000001
 31
0.0
  0
LINE
  5
92
330
3C8
100
AcDbEntity
  8
guides
100
AcDbLine
 10
5.000000000000004
 20
1.900000000000001
 30
0.0
 11
5.000000000000004
 21
0.7
 31
0.0
  0
LINE
  5
93
330
3C8
100
AcDbEntity
  8
guides
100
AcDbLine
 10
3.960769515458676
 20
1.3
 30
0.0
 11
6.039230484541331
 21
1.3
 31
0.0
  0
LINE
  5
94
330
3C8
100
AcDbEntity
  8
guides
100
AcDbLine
 10
3.5
 20
0.2
 30
0.0
 11
6.5
 21
2.4
 31
0.0
  0
LINE
  5
95
330
3C8
100
AcDbEntity
  8
guides
100
AcDbLine
 10
3.5
 20
2.4
 30
0.0
 11
6.5
 21
0.2
 31
0.0
  0
LINE
  5
96
330
3C8
100
AcDbEntity
  8
top
100
AcDbLine
 10
0.35
 20
0.2
 30
0.0
 11
0.8500000000000001
 21
0.2
 31
0.0
  0
LINE
  5
97
330
3C8
100
AcDbEntity
  8
top
100
AcDbLine
 10
0.9
 20
0.2500000000000001
 30
0.0
 11
0.9
 21
0.35
 31
0.0
  0
LINE
  5
98
330
3C8
100
AcDbEntity
  8
top
100
AcDbLine
 10
0.85
 20
0.4
 30
0.0
 11
0.3500000000000001
 21
0.4
 31
0.0
  0
LINE
  5
99
330
3C8
100
AcDbEntity
  8
top
100
AcDbLine
 10
0.3
 20
0.3500000000000001
 30
0.0
 11
0.3
 21
0.25
 31
0.0
  0
LINE
  5
9A
330
3C8
100
AcDbEntity
  8
top
100
AcDbLine
 10
2.75
 20
0.2
 30
0.0
 11
3.250000000000001
 21
0.2
 31
0.0
  0
LINE
  5
9B
330
3C8
100
AcDbEntity
  8
top
100
AcDbLine
 10
3.3
 20
0.25
 30
0.0
 11
3.3
 21
0.35
 31
0.0
  0
LINE
  5
9C
330
3C8
100
AcDbEntity
  8
top
100
AcDbLine
 10
3.25
 20
0.4
 30
0.0
 11
2.75
 21
0.4
 31
0.0
  0
LINE
  5
9D
330
3C8
100
AcDbEntity
  8
top
100
AcDbLine
 10
2.7
 20
0.3500000000000001
 30
0.0
 11
2.7
 21
0.25
 31
0.0
  0
LINE
  5
9E
330
3C8
100
AcDbEntity
  8
top
100
AcDbLine
 10
1.15
 20
0.2
 30
0.0
 11
1.65
 21
0.2
 31
0.0
  0
LINE
  5
9F
330
3C8
100
AcDbEntity
  8
top
100
AcDbLine
 10
1.7
 20
0.25
 30
0.0
 11
1.7
 21
0.3500000000000001
 31
0.0
  0
LINE
  5
A0
330
3C8
100
AcDbEntity
  8
top
100
AcDbLine
 10
1.65
 20
0.4
 30
0.0
 11
1.15
 21
0.4
 31
0.0
  0
LINE
  5
A1
330
3C8
100
AcDbEntity
  8
top
100
AcDbLine
 10
1.1
 20
0.35
 30
0.0
 11
1.1
 21
0.2500000000000001
 31
0.0
  0
LINE
  5
A2
330
3C8
100
AcDbEntity
  8
top
100
AcDbLine
 10
1.95
 20
0.2
 30
0.0
 11
2.45
 21
0.2
 31
0.0
  0
LINE
  5
A3
330
3C8
100
AcDbEntity
  8
top
100
AcDbLine
 10
2.5
 20
0.25
 30
0.0
 11
2.5
 21
0.35
 31
0.0
  0
LINE
  5
A4
330
3C8
100
AcDbEntity
  8
top
100
AcDbLine
 10
2.45
 20
0.4
 30
0.0
 11
1.95
 21
0.4
 31
0.0
  0
LINE
  5
A5
330
3C8
100
AcDbEntity
  8
top
100
AcDbLine
 10
1.9
 20
0.35
 30
0.0
 11
1.9
 21
0.25
 31
0.0
  0
LINE
  5
A7
330
3C8
100
AcDbEntity
  8
etch
100
AcDbLine
 10
0.75
 20
4.500000000000001
 30
0.0
 11
0.75
 21
4.600000000000001
 31
0.0
  0
LINE
  5
A8
330
3C8
100
AcDbEntity
  8
etch
100
AcDbLine
 10
0.75
 20
4.600000000000001
 30
0.0
 11
0.35
 21
4.600000000000001
 31
0.0
  0
LINE
  5
A9
330
3C8
100
AcDbEntity
  8
etch
100
AcDbLine
 10
0.35
 20
4.600000000000001
 30
0.0
 11
0.35
 21
4.500000000000001
 31
0.0
  0
LINE
  5
AB
330
3C8
100
AcDbEntity
  8
etch
100
AcDbLine
 10
1.45
 20
4.500000000000001
 30
0.0
 11
1.45
 21
4.600000000000001
 31
0.0
  0
LINE
  5
AC
330
3C8
100
AcDbEntity
  8
etch
100
AcDbLine
 10
1.45
 20
4.600000000000001
 30
0.0
 11
1.05
 21
4.600000000000001
 31
0.0
  0
LINE
  5
AD
330
3C8
100
AcDbEntity
  8
etch
100
AcDbLine
 10
1.05
 20
4.600000000000001
 30
0.0
 11
1.05
 21
4.500000000000001
 31
0.0
  0
LINE
  5
AF
330
3C8
100
AcDbEntity
  8
etch
100
AcDbLine
 10
2.15
 20
4.500000000000001
 30
0.0
 11
2.15
 21
4.600000000000001
 31
0.0
  0
LINE
  5
B0
330
3C8
100
AcDbEntity
  8
etch
100
AcDbLine
 10
2.15
 20
4.600000000000001
 30
0.0
 11
1.75
 21
4.600000000000001
 31
0.0
  0
LINE
  5
B1
330
3C8
100
AcDbEntity
  8
etch
100
AcDbLine
 10
1.75
 20
4.600000000000001
 30
0.0
 11
1.75
 21
4.500000000000001
 31
0.0
  0
LINE
  5
B3
330
3C8
100
AcDbEntity
  8
etch
100
AcDbLine
 10
2.85
 20
4.500000000000001
 30
0.0
 11
2.85
 21
4.600000000000001
 31
0.0
  0
LINE
  5
B4
330
3C8
100
AcDbEntity
  8
etch
100
AcDbLine
 10
2.85
 20
4.600000000000001
 30
0.0
 11
2.45
 21
4.600000000000001
 31
0.0
  0
LINE
  5
B5
330
3C8
100
AcDbEntity
  8
etch
100
AcDbLine
 10
2.45
 20
4.600000000000001
 30
0.0
 11
2.45
 21
4.500000000000001
 31
0.0
  0
LINE
  5
B7
330
3C8
100
AcDbEntity
  8
etch
100
AcDbLine
 10
3.55
 20
4.500000000000001
 30
0.0
 11
3.55
 21
4.600000000000001
 31
0.0
  0
LINE
  5
B8
330
3C8
100
AcDbEntity
  8
etch
100
AcDbLine
 10
3.55
 20
4.600000000000001
 30
0.0
 11
3.15
 21
4.600000000000001
 31
0.0
  0
LINE
  5
B9
330
3C8
100
AcDbEntity
  8
etch
100
AcDbLine
 10
3.15
 20
4.600000000000001
 30
0.0
 11
3.15
 21
4.500000000000001
 31
0.0
  0
LINE
  5
BC
330
3C8
100
AcDbEntity
  8
etch
100
AcDbLine
 10
6.4
 20
4.45
 30
0.0
 11
6.1
 21
4.45
 31
0.0
  0
LINE
  5
C0
330
3C8
100
AcDbEntity
  8
etch
100
AcDbLine
 10
6.0125
 20
4.45
 30
0.0
 11
5.687500000000001
 21
4.45
 31
0.0
  0
LINE
  5
C4
330
3C8
100
AcDbEntity
  8
etch
100
AcDbLine
 10
5.4625
 20
4.45
 30
0.0
 11
5.0375
 21
4.45
 31
0.0
  0
LINE
  5
C8
330
3C8
100
AcDbEntity
  8
etch
100
AcDbLine
 10
4.8625
 20
4.45
 30
0.0
 11
4.637499999999999
 21
4.45
 31
0.0
  0
LINE
  5
CC
330
3C8
100
AcDbEntity
  8
etch
100
AcDbLine
 10
4.45
 20
4.449999999999999
 30
0.0
 11
4.149999999999999
 21
4.449999999999999
 31
0.0
  0
LINE
  5
CE
330
3C8
100
AcDbEntity
  8
etch
100
AcDbLine
 10
0.35
 20
2.6
 30
0.0
 11
0.8500000000000001
 21
2.6
 31
0.0
  0
LINE
  5
CF
330
3C8
100
AcDbEntity
  8
etch
100
AcDbLine
 10
0.9
 20
2.65
 30
0.0
 11
0.9
 21
3.35
 31
0.0
  0
LINE
  5
D0
330
3C8
100
AcDbEntity
  8
etch
100
AcDbLine
 10
0.8499999999999992
 20
3.4
 30
0.0
 11
0.3499999999999991
 21
3.4
 31
0.0
  0
LINE
  5
D1
330
3C8
100
AcDbEntity
  8
etch
100
AcDbLine
 10
0.3
 20
3.35
 30
0.0
 11
0.3
 21
2.65
 31
0.0
  0
LINE
  5
D3
330
3C8
100
AcDbEntity
  8
etch
100
AcDbLine
 10
1.7
 20
2.65
 30
0.0
 11
1.699999999999999
 21
3.35
 31
0.0
  0
LINE
  5
D7
330
3C8
100
AcDbEntity
  8
etch
100
AcDbLine
 10
2.497804709531164
 20
2.650181879267035
 30
0.0
 11
2.497804709531163
 21
3.350181879267035
 31
0.0
  0
LINE
  5
D9
330
3C8
100
AcDbEntity
  8
etch
100
AcDbLine
 10
1.9
 20
3.35
 30
0.0
 11
1.9
 21
2.65
 31
0.0
  0
LINE
  5
DE
330
3C8
100
AcDbEntity
  8
guides
100
AcDbLine
 10
3.4
 20
0.0
 30
0.0
 11
3.4
 21
4.4
 31
0.0
  0
LINE
  5
EE
330
3C8
100
AcDbEntity
  8
guides
100
AcDbLine
 10
6.2
 20
2.650000000000001
 30
0.0
 11
6.300000000000001
 21
2.75
 31
0.0
  0
ARC
  5
100
330
3C8
100
AcDbEntity
  8
etch
100
AcDbCircle
 10
0.3499999999999991
 20
3.35
 30
0.0
 40
0.05
100
AcDbArc
 50
90.0
 51
180.0
  0
ARC
  5
101
330
3C8
100
AcDbEntity
  8
etch
100
AcDbCircle
 10
0.8499999999999991
 20
3.35
 30
0.0
 40
0.05
100
AcDbArc
 50
0.0
 51
90.0
  0
ARC
  5
103
330
3C8
100
AcDbEntity
  8
etch
100
AcDbCircle
 10
0.85
 20
2.65
 30
0.0
 40
0.05
100
AcDbArc
 50
270.0
 51
0.0
  0
ARC
  5
104
330
3C8
100
AcDbEntity
  8
etch
100
AcDbCircle
 10
0.35
 20
2.65
 30
0.0
 40
0.05
100
AcDbArc
 50
180.0
 51
270.0
  0
ARC
  5
106
330
3C8
100
AcDbEntity
  8
etch
100
AcDbCircle
 10
1.65
 20
2.65
 30
0.0
 40
0.05
100
AcDbArc
 50
270.0
 51
0.0
  0
ARC
  5
107
330
3C8
100
AcDbEntity
  8
etch
100
AcDbCircle
 10
1.95
 20
2.65
 30
0.0
 40
0.05
100
AcDbArc
 50
180.0
 51
270.0
  0
ARC
  5
108
330
3C8
100
AcDbEntity
  8
etch
100
AcDbCircle
 10
2.447804709531163
 20
2.650181879267034
 30
0.0
 40
0.05
100
AcDbArc
 50
270.0
 51
0.0
  0
ARC
  5
10D
330
3C8
100
AcDbEntity
  8
etch
100
AcDbCircle
 10
2.447804709531163
 20
3.350181879267035
 30
0.0
 40
0.05
100
AcDbArc
 50
0.0
 51
90.0
  0
ARC
  5
10E
330
3C8
100
AcDbEntity
  8
etch
100
AcDbCircle
 10
1.95
 20
3.35
 30
0.0
 40
0.05
100
AcDbArc
 50
90.0
 51
180.0
  0
ARC
  5
10F
330
3C8
100
AcDbEntity
  8
etch
100
AcDbCircle
 10
1.649999999999999
 20
3.35
 30
0.0
 40
0.05
100
AcDbArc
 50
0.0
 51
90.0
  0
ARC
  5
11A
330
3C8
100
AcDbEntity
  8
etch
100
AcDbCircle
 10
6.45
 20
2.350000000000001
 30
0.0
 40
0.05
100
AcDbArc
 50
0.0
 51
89.99999999999898
  0
ARC
  5
11B
330
3C8
100
AcDbEntity
  8
etch
100
AcDbCircle
 10
6.45
 20
0.25
 30
0.0
 40
0.05
100
AcDbArc
 50
270.0
 51
0.0
  0
ARC
  5
11C
330
3C8
100
AcDbEntity
  8
etch
100
AcDbCircle
 10
3.55
 20
0.25
 30
0.0
 40
0.05
100
AcDbArc
 50
180.0
 51
269.9999999999995
  0
ARC
  5
11D
330
3C8
100
AcDbEntity
  8
etch
100
AcDbCircle
 10
3.55
 20
2.350000000000001
 30
0.0
 40
0.05
100
AcDbArc
 50
90.0
 51
180.0
  0
ARC
  5
11E
330
3C8
100
AcDbEntity
  8
etch
100
AcDbCircle
 10
3.25
 20
2.350000000000001
 30
0.0
 40
0.05
100
AcDbArc
 50
0.0
 51
90.0
  0
ARC
  5
11F
330
3C8
100
AcDbEntity
  8
etch
100
AcDbCircle
 10
0.35
 20
2.350000000000001
 30
0.0
 40
0.05
100
AcDbArc
 50
90.00000000000038
 51
180.0
  0
ARC
  5
120
330
3C8
100
AcDbEntity
  8
etch
100
AcDbCircle
 10
0.35
 20
0.65
 30
0.0
 40
0.05
100
AcDbArc
 50
180.0
 51
270.0
  0
ARC
  5
121
330
3C8
100
AcDbEntity
  8
etch
100
AcDbCircle
 10
3.250000000000001
 20
0.6500000000000001
 30
0.0
 40
0.05
100
AcDbArc
 50
270.0
 51
0.0
  0
ARC
  5
122
330
3C8
100
AcDbEntity
  8
top
100
AcDbCircle
 10
3.25
 20
0.35
 30
0.0
 40
0.05
100
AcDbArc
 50
0.0
 51
90.0
  0
ARC
  5
123
330
3C8
100
AcDbEntity
  8
top
100
AcDbCircle
 10
3.250000000000001
 20
0.25
 30
0.0
 40
0.05
100
AcDbArc
 50
270.0
 51
0.0
  0
ARC
  5
124
330
3C8
100
AcDbEntity
  8
top
100
AcDbCircle
 10
2.75
 20
0.25
 30
0.0
 40
0.05
100
AcDbArc
 50
180.0
 51
270.0
  0
ARC
  5
125
330
3C8
100
AcDbEntity
  8
top
100
AcDbCircle
 10
2.75
 20
0.3500000000000001
 30
0.0
 40
0.05
100
AcDbArc
 50
90.0
 51
180.0
  0
ARC
  5
126
330
3C8
100
AcDbEntity
  8
top
100
AcDbCircle
 10
2.45
 20
0.35
 30
0.0
 40
0.05
100
AcDbArc
 50
0.0
 51
90.0
  0
ARC
  5
127
330
3C8
100
AcDbEntity
  8
top
100
AcDbCircle
 10
2.45
 20
0.25
 30
0.0
 40
0.05
100
AcDbArc
 50
270.0
 51
0.0
  0
ARC
  5
129
330
3C8
100
AcDbEntity
  8
top
100
AcDbCircle
 10
1.95
 20
0.25
 30
0.0
 40
0.05
100
AcDbArc
 50
180.0
 51
270.0
  0
ARC
  5
12A
330
3C8
100
AcDbEntity
  8
top
100
AcDbCircle
 10
1.95
 20
0.35
 30
0.0
 40
0.05
100
AcDbArc
 50
90.0
 51
180.0
  0
ARC
  5
12B
330
3C8
100
AcDbEntity
  8
top
100
AcDbCircle
 10
1.65
 20
0.25
 30
0.0
 40
0.05
100
AcDbArc
 50
270.0
 51
0.0
  0
ARC
  5
12C
330
3C8
100
AcDbEntity
  8
top
100
AcDbCircle
 10
1.65
 20
0.3500000000000001
 30
0.0
 40
0.05
100
AcDbArc
 50
0.0
 51
90.0
  0
ARC
  5
12D
330
3C8
100
AcDbEntity
  8
top
100
AcDbCircle
 10
1.15
 20
0.35
 30
0.0
 40
0.05
100
AcDbArc
 50
90.0
 51
180.0
  0
ARC
  5
12E
330
3C8
100
AcDbEntity
  8
top
100
AcDbCircle
 10
1.15
 20
0.2500000000000001
 30
0.0
 40
0.05
100
AcDbArc
 50
180.0
 51
270.0
  0
ARC
  5
12F
330
3C8
100
AcDbEntity
  8
top
100
AcDbCircle
 10
0.8500000000000001
 20
0.2500000000000001
 30
0.0
 40
0.05
100
AcDbArc
 50
270.0
 51
0.0
  0
ARC
  5
130
330
3C8
100
AcDbEntity
  8
top
100
AcDbCircle
 10
0.85
 20
0.35
 30
0.0
 40
0.05
100
AcDbArc
 50
0.0
 51
90.0
  0
ARC
  5
132
330
3C8
100
AcDbEntity
  8
top
100
AcDbCircle
 10
0.35
 20
0.25
 30
0.0
 40
0.05
100
AcDbArc
 50
180.0
 51
270.0
  0
ARC
  5
133
330
3C8
100
AcDbEntity
  8
top
100
AcDbCircle
 10
0.3500000000000001
 20
0.3500000000000001
 30
0.0
 40
0.05
100
AcDbArc
 50
90.0
 51
180.0
  0
LINE
  5
183
330
3C8
100
AcDbEntity
  8
etch
100
AcDbLine
 10
0.4000000000000004
 20
-0.2
 30
0.0
 11
0.8000000000000007
 21
-0.2
 31
0.0
  0
LINE
  5
184
330
3C8
100
AcDbEntity
  8
etch
100
AcDbLine
 10
0.8000000000000007
 20
-0.2
 30
0.0
 11
0.8000000000000007
 21
-0.0999999999999993
 31
0.0
  0
LINE
  5
186
330
3C8
100
AcDbEntity
  8
etch
100
AcDbLine
 10
0.4000000000000004
 20
-0.0999999999999993
 30
0.0
 11
0.4000000000000004
 21
-0.2
 31
0.0
  0
LINE
  5
187
330
3C8
100
AcDbEntity
  8
etch
100
AcDbLine
 10
1.100000000000001
 20
-0.2
 30
0.0
 11
1.500000000000001
 21
-0.2
 31
0.0
  0
LINE
  5
188
330
3C8
100
AcDbEntity
  8
etch
100
AcDbLine
 10
1.500000000000001
 20
-0.2
 30
0.0
 11
1.500000000000001
 21
-0.0999999999999993
 31
0.0
  0
LINE
  5
18A
330
3C8
100
AcDbEntity
  8
etch
100
AcDbLine
 10
1.100000000000001
 20
-0.0999999999999993
 30
0.0
 11
1.100000000000001
 21
-0.2
 31
0.0
  0
CIRCLE
  5
1DE
330
3C8
100
AcDbEntity
  8
top
100
AcDbCircle
 10
0.6000000000000001
 20
3.100000000000001
 30
0.0
 40
0.2
  0
CIRCLE
  5
1DF
330
3C8
100
AcDbEntity
  8
top
100
AcDbCircle
 10
1.4
 20
3.1
 30
0.0
 40
0.2
  0
CIRCLE
  5
1E0
330
3C8
100
AcDbEntity
  8
top
100
AcDbCircle
 10
2.2
 20
3.1
 30
0.0
 40
0.2
  0
LINE
  5
1E5
330
3C8
100
AcDbEntity
  8
pcb
100
AcDbLine
 10
5.399999999999999
 20
0.0
 30
0.0
 11
6.5
 21
0.0
 31
0.0
  0
LINE
  5
1E6
330
3C8
100
AcDbEntity
  8
pcb
100
AcDbLine
 10
6.5
 20
0.0
 30
0.0
 11
6.5
 21
1.099999999999999
 31
0.0
  0
LINE
  5
1E7
330
3C8
100
AcDbEntity
  8
pcb
100
AcDbLine
 10
6.5
 20
1.099999999999999
 30
0.0
 11
5.399999999999999
 21
1.099999999999999
 31
0.0
  0
LINE
  5
1E8
330
3C8
100
AcDbEntity
  8
pcb
100
AcDbLine
 10
5.399999999999999
 20
1.099999999999999
 30
0.0
 11
5.399999999999999
 21
0.0
 31
0.0
  0
LINE
  5
1E9
330
3C8
100
AcDbEntity
  8
guides
100
AcDbLine
 10
0.6000000000000001
 20
2.1
 30
0.0
 11
3.0
 21
0.9
 31
0.0
  0
LINE
  5
1EA
330
3C8
100
AcDbEntity
  8
guides
100
AcDbLine
 10
0.6000000000000001
 20
0.9
 30
0.0
 11
3.0
 21
2.1
 31
0.0
  0
ARC
  5
1EB
330
3C8
100
AcDbEntity
  8
0
100
AcDbCircle
 10
1.3325
 20
2.67
 30
0.0
 40
0.02
100
AcDbArc
 50
180.0
 51
270.0
  0
ARC
  5
1EC
330
3C8
100
AcDbEntity
  8
0
100
AcDbCircle
 10
1.3675
 20
2.67
 30
0.0
 40
0.02
100
AcDbArc
 50
270.0
 51
0.0
  0
ARC
  5
1ED
330
3C8
100
AcDbEntity
  8
0
100
AcDbCircle
 10
1.3675
 20
2.729999999999999
 30
0.0
 40
0.02
100
AcDbArc
 50
0.0
 51
90.0
  0
ARC
  5
1EE
330
3C8
100
AcDbEntity
  8
0
100
AcDbCircle
 10
1.3325
 20
2.729999999999999
 30
0.0
 40
0.02
100
AcDbArc
 50
90.0
 51
180.0
  0
ARC
  5
1EF
330
3C8
100
AcDbEntity
  8
0
100
AcDbCircle
 10
1.4325
 20
2.729999999999999
 30
0.0
 40
0.02
100
AcDbArc
 50
90.0
 51
180.0
  0
ARC
  5
1F0
330
3C8
100
AcDbEntity
  8
0
100
AcDbCircle
 10
1.4675
 20
2.67
 30
0.0
 40
0.02
100
AcDbArc
 50
270.0
 51
0.0
  0
ARC
  5
1F1
330
3C8
100
AcDbEntity
  8
0
100
AcDbCircle
 10
1.4325
 20
2.67
 30
0.0
 40
0.02
100
AcDbArc
 50
180.0
 51
270.0
  0
ARC
  5
1F2
330
3C8
100
AcDbEntity
  8
0
100
AcDbCircle
 10
1.4675
 20
2.729999999999999
 30
0.0
 40
0.02
100
AcDbArc
 50
0.0
 51
90.0
  0
ARC
  5
1F3
330
3C8
100
AcDbEntity
  8
0
100
AcDbCircle
 10
1.5325
 20
2.729999999999999
 30
0.0
 40
0.02
100
AcDbArc
 50
90.0
 51
180.0
  0
ARC
  5
1F4
330
3C8
100
AcDbEntity
  8
0
100
AcDbCircle
 10
1.5675
 20
2.73
 30
0.0
 40
0.02
100
AcDbArc
 50
0.0
 51
90.0
  0
ARC
  5
1F5
330
3C8
100
AcDbEntity
  8
0
100
AcDbCircle
 10
1.5675
 20
2.67
 30
0.0
 40
0.02
100
AcDbArc
 50
270.0
 51
0.0
  0
ARC
  5
1F6
330
3C8
100
AcDbEntity
  8
0
100
AcDbCircle
 10
1.5325
 20
2.67
 30
0.0
 40
0.02
100
AcDbArc
 50
180.0
 51
270.0
  0
ARC
  5
1F7
330
3C8
100
AcDbEntity
  8
0
100
AcDbCircle
 10
2.182500000000001
 20
2.67
 30
0.0
 40
0.02
100
AcDbArc
 50
180.0
 51
270.0
  0
ARC
  5
1F8
330
3C8
100
AcDbEntity
  8
0
100
AcDbCircle
 10
2.217500000000001
 20
2.729999999999999
 30
0.0
 40
0.02
100
AcDbArc
 50
0.0
 51
90.0
  0
ARC
  5
1F9
330
3C8
100
AcDbEntity
  8
0
100
AcDbCircle
 10
2.182500000000001
 20
2.729999999999999
 30
0.0
 40
0.02
100
AcDbArc
 50
90.0
 51
180.0
  0
ARC
  5
1FA
330
3C8
100
AcDbEntity
  8
0
100
AcDbCircle
 10
2.217500000000001
 20
2.67
 30
0.0
 40
0.02
100
AcDbArc
 50
270.0
 51
0.0
  0
ARC
  5
1FB
330
3C8
100
AcDbEntity
  8
0
100
AcDbCircle
 10
2.9825
 20
2.729999999999999
 30
0.0
 40
0.02
100
AcDbArc
 50
90.0
 51
180.0
  0
ARC
  5
1FC
330
3C8
100
AcDbEntity
  8
0
100
AcDbCircle
 10
3.017500000000001
 20
2.73
 30
0.0
 40
0.02
100
AcDbArc
 50
0.0
 51
90.0
  0
ARC
  5
1FD
330
3C8
100
AcDbEntity
  8
0
100
AcDbCircle
 10
3.017500000000001
 20
2.67
 30
0.0
 40
0.02
100
AcDbArc
 50
270.0
 51
0.0
  0
ARC
  5
1FE
330
3C8
100
AcDbEntity
  8
0
100
AcDbCircle
 10
2.9825
 20
2.67
 30
0.0
 40
0.02
100
AcDbArc
 50
180.0
 51
270.0
  0
LINE
  5
1FF
330
3C8
100
AcDbEntity
  8
0
100
AcDbLine
 10
1.3325
 20
2.65
 30
0.0
 11
1.3675
 21
2.65
 31
0.0
  0
LINE
  5
200
330
3C8
100
AcDbEntity
  8
0
100
AcDbLine
 10
1.3875
 20
2.67
 30
0.0
 11
1.3875
 21
2.729999999999999
 31
0.0
  0
LINE
  5
201
330
3C8
100
AcDbEntity
  8
0
100
AcDbLine
 10
1.3675
 20
2.75
 30
0.0
 11
1.3325
 21
2.75
 31
0.0
  0
LINE
  5
202
330
3C8
100
AcDbEntity
  8
0
100
AcDbLine
 10
1.3125
 20
2.729999999999999
 30
0.0
 11
1.3125
 21
2.67
 31
0.0
  0
LINE
  5
203
330
3C8
100
AcDbEntity
  8
0
100
AcDbLine
 10
1.4325
 20
2.65
 30
0.0
 11
1.4675
 21
2.65
 31
0.0
  0
LINE
  5
204
330
3C8
100
AcDbEntity
  8
0
100
AcDbLine
 10
1.4875
 20
2.67
 30
0.0
 11
1.4875
 21
2.729999999999999
 31
0.0
  0
LINE
  5
205
330
3C8
100
AcDbEntity
  8
0
100
AcDbLine
 10
1.4675
 20
2.75
 30
0.0
 11
1.4325
 21
2.75
 31
0.0
  0
LINE
  5
206
330
3C8
100
AcDbEntity
  8
0
100
AcDbLine
 10
1.4125
 20
2.729999999999999
 30
0.0
 11
1.4125
 21
2.67
 31
0.0
  0
LINE
  5
207
330
3C8
100
AcDbEntity
  8
0
100
AcDbLine
 10
1.5325
 20
2.65
 30
0.0
 11
1.5675
 21
2.65
 31
0.0
  0
LINE
  5
208
330
3C8
100
AcDbEntity
  8
0
100
AcDbLine
 10
1.5875
 20
2.67
 30
0.0
 11
1.5875
 21
2.73
 31
0.0
  0
LINE
  5
209
330
3C8
100
AcDbEntity
  8
0
100
AcDbLine
 10
1.5675
 20
2.75
 30
0.0
 11
1.5325
 21
2.75
 31
0.0
  0
LINE
  5
20A
330
3C8
100
AcDbEntity
  8
0
100
AcDbLine
 10
1.5125
 20
2.729999999999999
 30
0.0
 11
1.5125
 21
2.67
 31
0.0
  0
LINE
  5
20B
330
3C8
100
AcDbEntity
  8
0
100
AcDbLine
 10
1.2325
 20
2.65
 30
0.0
 11
1.2675
 21
2.65
 31
0.0
  0
LINE
  5
20C
330
3C8
100
AcDbEntity
  8
0
100
AcDbLine
 10
1.2875
 20
2.67
 30
0.0
 11
1.2875
 21
2.73
 31
0.0
  0
LINE
  5
20D
330
3C8
100
AcDbEntity
  8
0
100
AcDbLine
 10
1.2675
 20
2.75
 30
0.0
 11
1.2325
 21
2.75
 31
0.0
  0
LINE
  5
20E
330
3C8
100
AcDbEntity
  8
0
100
AcDbLine
 10
1.2125
 20
2.729999999999999
 30
0.0
 11
1.2125
 21
2.67
 31
0.0
  0
LINE
  5
20F
330
3C8
100
AcDbEntity
  8
0
100
AcDbLine
 10
0.6325000000000004
 20
2.65
 30
0.0
 11
0.6675000000000003
 21
2.65
 31
0.0
  0
LINE
  5
210
330
3C8
100
AcDbEntity
  8
0
100
AcDbLine
 10
0.6875000000000003
 20
2.670000000000001
 30
0.0
 11
0.6875000000000003
 21
2.73
 31
0.0
  0
LINE
  5
211
330
3C8
100
AcDbEntity
  8
0
100
AcDbLine
 10
0.6675000000000003
 20
2.75
 30
0.0
 11
0.6325000000000004
 21
2.75
 31
0.0
  0
LINE
  5
212
330
3C8
100
AcDbEntity
  8
0
100
AcDbLine
 10
0.6125000000000005
 20
2.73
 30
0.0
 11
0.6125000000000005
 21
2.670000000000001
 31
0.0
  0
LINE
  5
213
330
3C8
100
AcDbEntity
  8
0
100
AcDbLine
 10
0.5325000000000002
 20
2.65
 30
0.0
 11
0.5675000000000003
 21
2.65
 31
0.0
  0
LINE
  5
214
330
3C8
100
AcDbEntity
  8
0
100
AcDbLine
 10
0.5875000000000001
 20
2.670000000000001
 30
0.0
 11
0.5875000000000001
 21
2.73
 31
0.0
  0
LINE
  5
215
330
3C8
100
AcDbEntity
  8
0
100
AcDbLine
 10
0.5675000000000001
 20
2.75
 30
0.0
 11
0.5325000000000002
 21
2.75
 31
0.0
  0
LINE
  5
216
330
3C8
100
AcDbEntity
  8
0
100
AcDbLine
 10
0.5125000000000004
 20
2.73
 30
0.0
 11
0.5125000000000004
 21
2.670000000000001
 31
0.0
  0
LINE
  5
217
330
3C8
100
AcDbEntity
  8
0
100
AcDbLine
 10
2.182500000000001
 20
2.65
 30
0.0
 11
2.217500000000001
 21
2.65
 31
0.0
  0
LINE
  5
218
330
3C8
100
AcDbEntity
  8
0
100
AcDbLine
 10
2.237500000000001
 20
2.67
 30
0.0
 11
2.237500000000001
 21
2.729999999999999
 31
0.0
  0
LINE
  5
219
330
3C8
100
AcDbEntity
  8
0
100
AcDbLine
 10
2.217500000000001
 20
2.75
 30
0.0
 11
2.182500000000001
 21
2.75
 31
0.0
  0
LINE
  5
21A
330
3C8
100
AcDbEntity
  8
0
100
AcDbLine
 10
2.162500000000001
 20
2.729999999999999
 30
0.0
 11
2.162500000000001
 21
2.67
 31
0.0
  0
LINE
  5
21B
330
3C8
100
AcDbEntity
  8
0
100
AcDbLine
 10
2.9825
 20
2.65
 30
0.0
 11
3.017500000000001
 21
2.65
 31
0.0
  0
LINE
  5
21C
330
3C8
100
AcDbEntity
  8
0
100
AcDbLine
 10
3.0375
 20
2.67
 30
0.0
 11
3.0375
 21
2.73
 31
0.0
  0
LINE
  5
21D
330
3C8
100
AcDbEntity
  8
0
100
AcDbLine
 10
3.017500000000001
 20
2.75
 30
0.0
 11
2.9825
 21
2.75
 31
0.0
  0
LINE
  5
21E
330
3C8
100
AcDbEntity
  8
0
100
AcDbLine
 10
2.9625
 20
2.729999999999999
 30
0.0
 11
2.9625
 21
2.67
 31
0.0
  0
ARC
  5
21F
330
3C8
100
AcDbEntity
  8
0
100
AcDbCircle
 10
0.5325000000000002
 20
2.73
 30
0.0
 40
0.02
100
AcDbArc
 50
90.0
 51
180.0
  0
ARC
  5
220
330
3C8
100
AcDbEntity
  8
0
100
AcDbCircle
 10
0.5675000000000001
 20
2.73
 30
0.0
 40
0.02
100
AcDbArc
 50
0.0
 51
90.0
  0
ARC
  5
221
330
3C8
100
AcDbEntity
  8
0
100
AcDbCircle
 10
0.5325000000000002
 20
2.670000000000001
 30
0.0
 40
0.02
100
AcDbArc
 50
180.0
 51
270.0
  0
ARC
  5
222
330
3C8
100
AcDbEntity
  8
0
100
AcDbCircle
 10
0.5675000000000003
 20
2.670000000000001
 30
0.0
 40
0.02
100
AcDbArc
 50
270.0
 51
0.0
  0
ARC
  5
223
330
3C8
100
AcDbEntity
  8
0
100
AcDbCircle
 10
0.6325000000000004
 20
2.670000000000001
 30
0.0
 40
0.02
100
AcDbArc
 50
180.0
 51
270.0
  0
ARC
  5
224
330
3C8
100
AcDbEntity
  8
0
100
AcDbCircle
 10
0.6325000000000004
 20
2.73
 30
0.0
 40
0.02
100
AcDbArc
 50
90.0
 51
180.0
  0
ARC
  5
225
330
3C8
100
AcDbEntity
  8
0
100
AcDbCircle
 10
0.6675000000000003
 20
2.73
 30
0.0
 40
0.02
100
AcDbArc
 50
0.0
 51
90.0
  0
ARC
  5
226
330
3C8
100
AcDbEntity
  8
0
100
AcDbCircle
 10
0.6675000000000003
 20
2.670000000000001
 30
0.0
 40
0.02
100
AcDbArc
 50
270.0
 51
0.0
  0
ARC
  5
227
330
3C8
100
AcDbEntity
  8
0
100
AcDbCircle
 10
1.2325
 20
2.729999999999999
 30
0.0
 40
0.02
100
AcDbArc
 50
90.0
 51
180.0
  0
ARC
  5
228
330
3C8
100
AcDbEntity
  8
0
100
AcDbCircle
 10
1.2675
 20
2.73
 30
0.0
 40
0.02
100
AcDbArc
 50
0.0
 51
90.0
  0
ARC
  5
229
330
3C8
100
AcDbEntity
  8
0
100
AcDbCircle
 10
1.2675
 20
2.67
 30
0.0
 40
0.02
100
AcDbArc
 50
270.0
 51
0.0
  0
ARC
  5
22A
330
3C8
100
AcDbEntity
  8
0
100
AcDbCircle
 10
1.2325
 20
2.67
 30
0.0
 40
0.02
100
AcDbArc
 50
180.0
 51
270.0
  0
ARC
  5
22B
330
3C8
100
AcDbEntity
  8
etch
100
AcDbCircle
 10
2.75
 20
2.65
 30
0.0
 40
0.05
100
AcDbArc
 50
180.0
 51
270.0
  0
ARC
  5
22D
330
3C8
100
AcDbEntity
  8
etch
100
AcDbCircle
 10
3.25
 20
2.65
 30
0.0
 40
0.05
100
AcDbArc
 50
270.0
 51
0.0
  0
LINE
  5
22E
330
3C8
100
AcDbEntity
  8
etch
100
AcDbLine
 10
3.3
 20
2.65
 30
0.0
 11
3.3
 21
3.35
 31
0.0
  0
ARC
  5
22F
330
3C8
100
AcDbEntity
  8
etch
100
AcDbCircle
 10
3.25
 20
3.350000000000001
 30
0.0
 40
0.05
100
AcDbArc
 50
0.0
 51
90.0
  0
ARC
  5
231
330
3C8
100
AcDbEntity
  8
etch
100
AcDbCircle
 10
2.75
 20
3.35
 30
0.0
 40
0.05
100
AcDbArc
 50
90.0
 51
180.0
  0
LINE
  5
232
330
3C8
100
AcDbEntity
  8
etch
100
AcDbLine
 10
2.7
 20
3.35
 30
0.0
 11
2.700000000000001
 21
2.65
 31
0.0
  0
CIRCLE
  5
233
330
3C8
100
AcDbEntity
  8
top
100
AcDbCircle
 10
3.0
 20
3.1
 30
0.0
 40
0.2
  0
LINE
  5
234
330
3C8
100
AcDbEntity
  8
pcb
100
AcDbLine
 10
0.2500000000000001
 20
3.4
 30
0.0
 11
0.8500000000000001
 21
3.4
 31
0.0
  0
LINE
  5
235
330
3C8
100
AcDbEntity
  8
pcb
100
AcDbLine
 10
0.8500000000000001
 20
3.4
 30
0.0
 11
0.8500000000000001
 21
4.4
 31
0.0
  0
LINE
  5
236
330
3C8
100
AcDbEntity
  8
pcb
100
AcDbLine
 10
0.8500000000000001
 20
4.4
 30
0.0
 11
0.2500000000000001
 21
4.4
 31
0.0
  0
LINE
  5
237
330
3C8
100
AcDbEntity
  8
pcb
100
AcDbLine
 10
0.2500000000000001
 20
4.4
 30
0.0
 11
0.2500000000000001
 21
3.4
 31
0.0
  0
LINE
  5
238
330
3C8
100
AcDbEntity
  8
pcb
100
AcDbLine
 10
0.55
 20
3.100000000000001
 30
0.0
 11
0.55
 21
3.4
 31
0.0
  0
LINE
  5
26B
330
3C8
100
AcDbEntity
  8
etch
100
AcDbLine
 10
1.149999999999999
 20
3.399999999999999
 30
0.0
 11
1.649999999999999
 21
3.399999999999999
 31
0.0
  0
LINE
  5
26C
330
3C8
100
AcDbEntity
  8
etch
100
AcDbLine
 10
1.65
 20
2.6
 30
0.0
 11
1.15
 21
2.6
 31
0.0
  0
LINE
  5
26D
330
3C8
100
AcDbEntity
  8
etch
100
AcDbLine
 10
1.95
 20
3.399999999999999
 30
0.0
 11
2.447804709531163
 21
3.400181879267035
 31
0.0
  0
LINE
  5
26E
330
3C8
100
AcDbEntity
  8
etch
100
AcDbLine
 10
2.447804709531163
 20
2.600181879267034
 30
0.0
 11
1.95
 21
2.6
 31
0.0
  0
LINE
  5
26F
330
3C8
100
AcDbEntity
  8
etch
100
AcDbLine
 10
2.75
 20
2.6
 30
0.0
 11
3.25
 21
2.6
 31
0.0
  0
LINE
  5
270
330
3C8
100
AcDbEntity
  8
etch
100
AcDbLine
 10
3.25
 20
3.400000000000001
 30
0.0
 11
2.75
 21
3.399999999999999
 31
0.0
  0
LINE
  5
2C0
330
3C8
100
AcDbEntity
  8
pcb
100
AcDbLine
 10
0.9600257463607462
 20
3.4
 30
0.0
 11
1.560025746360746
 21
3.4
 31
0.0
  0
LINE
  5
2C1
330
3C8
100
AcDbEntity
  8
pcb
100
AcDbLine
 10
1.560025746360746
 20
3.4
 30
0.0
 11
1.560025746360746
 21
4.4
 31
0.0
  0
LINE
  5
2C2
330
3C8
100
AcDbEntity
  8
pcb
100
AcDbLine
 10
1.560025746360746
 20
4.4
 30
0.0
 11
0.9600257463607462
 21
4.4
 31
0.0
  0
LINE
  5
2C3
330
3C8
100
AcDbEntity
  8
pcb
100
AcDbLine
 10
0.9600257463607462
 20
4.4
 30
0.0
 11
0.9600257463607462
 21
3.4
 31
0.0
  0
LINE
  5
2C4
330
3C8
100
AcDbEntity
  8
pcb
100
AcDbLine
 10
1.65
 20
3.4
 30
0.0
 11
2.25
 21
3.4
 31
0.0
  0
LINE
  5
2C5
330
3C8
100
AcDbEntity
  8
pcb
100
AcDbLine
 10
2.25
 20
3.4
 30
0.0
 11
2.25
 21
4.4
 31
0.0
  0
LINE
  5
2C6
330
3C8
100
AcDbEntity
  8
pcb
100
AcDbLine
 10
2.25
 20
4.4
 30
0.0
 11
1.65
 21
4.4
 31
0.0
  0
LINE
  5
2C7
330
3C8
100
AcDbEntity
  8
pcb
100
AcDbLine
 10
1.65
 20
4.4
 30
0.0
 11
1.65
 21
3.4
 31
0.0
  0
LINE
  5
2C8
330
3C8
100
AcDbEntity
  8
pcb
100
AcDbLine
 10
2.350000000000001
 20
3.4
 30
0.0
 11
2.95
 21
3.4
 31
0.0
  0
LINE
  5
2C9
330
3C8
100
AcDbEntity
  8
pcb
100
AcDbLine
 10
2.95
 20
3.4
 30
0.0
 11
2.95
 21
4.4
 31
0.0
  0
LINE
  5
2CA
330
3C8
100
AcDbEntity
  8
pcb
100
AcDbLine
 10
2.95
 20
4.4
 30
0.0
 11
2.350000000000001
 21
4.4
 31
0.0
  0
LINE
  5
2CB
330
3C8
100
AcDbEntity
  8
pcb
100
AcDbLine
 10
2.350000000000001
 20
4.4
 30
0.0
 11
2.350000000000001
 21
3.4
 31
0.0
  0
LINE
  5
2CC
330
3C8
100
AcDbEntity
  8
pcb
100
AcDbLine
 10
3.05
 20
3.4
 30
0.0
 11
3.65
 21
3.4
 31
0.0
  0
LINE
  5
2CD
330
3C8
100
AcDbEntity
  8
pcb
100
AcDbLine
 10
3.65
 20
3.4
 30
0.0
 11
3.65
 21
4.4
 31
0.0
  0
LINE
  5
2CE
330
3C8
100
AcDbEntity
  8
pcb
100
AcDbLine
 10
3.65
 20
4.4
 30
0.0
 11
3.05
 21
4.4
 31
0.0
  0
LINE
  5
2CF
330
3C8
100
AcDbEntity
  8
pcb
100
AcDbLine
 10
3.05
 20
4.4
 30
0.0
 11
3.05
 21
3.4
 31
0.0
  0
LINE
  5
2D0
330
3C8
100
AcDbEntity
  8
top
100
AcDbLine
 10
5.949999999999999
 20
2.600000000000001
 30
0.0
 11
6.450000000000001
 21
2.600000000000001
 31
0.0
  0
ARC
  5
2D5
330
3C8
100
AcDbEntity
  8
top
100
AcDbCircle
 10
6.450000000000001
 20
2.65
 30
0.0
 40
0.05
100
AcDbArc
 50
270.0
 51
0.0
  0
ARC
  5
2D6
330
3C8
100
AcDbEntity
  8
top
100
AcDbCircle
 10
5.949999999999999
 20
2.65
 30
0.0
 40
0.05
100
AcDbArc
 50
180.0
 51
270.0
  0
LINE
  5
2E1
330
3C8
100
AcDbEntity
  8
etch
100
AcDbLine
 10
5.4
 20
-0.05
 30
0.0
 11
6.5
 21
-0.05
 31
0.0
  0
LINE
  5
354
330
3C8
100
AcDbEntity
  8
pcb
100
AcDbLine
 10
4.326794919243113
 20
3.459807621135331
 30
0.0
 11
4.673205080756889
 21
3.259807621135331
 31
0.0
  0
LINE
  5
355
330
3C8
100
AcDbEntity
  8
pcb
100
AcDbLine
 10
4.326794919243113
 20
3.459807621135332
 30
0.0
 11
4.673205080756887
 21
3.259807621135332
 31
0.0
  0
CIRCLE
  5
356
330
3C8
100
AcDbEntity
  8
etch
100
AcDbCircle
 10
4.35
 20
3.1
 30
0.0
 40
0.16
  0
LINE
  5
357
330
3C8
100
AcDbEntity
  8
pcb
100
AcDbLine
 10
4.373205080756888
 20
2.740192378864669
 30
0.0
 11
4.673205080756889
 21
3.259807621135331
 31
0.0
  0
LINE
  5
358
330
3C8
100
AcDbEntity
  8
pcb
100
AcDbLine
 10
4.326794919243113
 20
3.459807621135331
 30
0.0
 11
4.026794919243113
 21
2.940192378864669
 31
0.0
  0
LINE
  5
359
330
3C8
100
AcDbEntity
  8
pcb
100
AcDbLine
 10
4.026794919243113
 20
2.940192378864669
 30
0.0
 11
4.373205080756888
 21
2.740192378864669
 31
0.0
  0
LINE
  5
35A
330
3C8
100
AcDbEntity
  8
pcb
100
AcDbLine
 10
4.826794919243113
 20
3.459807621135331
 30
0.0
 11
5.173205080756889
 21
3.259807621135331
 31
0.0
  0
LINE
  5
35B
330
3C8
100
AcDbEntity
  8
pcb
100
AcDbLine
 10
4.826794919243113
 20
3.459807621135332
 30
0.0
 11
5.173205080756887
 21
3.259807621135332
 31
0.0
  0
CIRCLE
  5
35C
330
3C8
100
AcDbEntity
  8
etch
100
AcDbCircle
 10
4.85
 20
3.1
 30
0.0
 40
0.16
  0
LINE
  5
35D
330
3C8
100
AcDbEntity
  8
pcb
100
AcDbLine
 10
4.873205080756888
 20
2.740192378864669
 30
0.0
 11
5.173205080756889
 21
3.259807621135331
 31
0.0
  0
LINE
  5
35E
330
3C8
100
AcDbEntity
  8
pcb
100
AcDbLine
 10
4.826794919243113
 20
3.459807621135331
 30
0.0
 11
4.526794919243113
 21
2.940192378864669
 31
0.0
  0
LINE
  5
35F
330
3C8
100
AcDbEntity
  8
pcb
100
AcDbLine
 10
4.526794919243113
 20
2.940192378864669
 30
0.0
 11
4.873205080756888
 21
2.740192378864669
 31
0.0
  0
LINE
  5
360
330
3C8
100
AcDbEntity
  8
pcb
100
AcDbLine
 10
5.326794919243113
 20
3.459807621135331
 30
0.0
 11
5.673205080756889
 21
3.259807621135331
 31
0.0
  0
LINE
  5
361
330
3C8
100
AcDbEntity
  8
pcb
100
AcDbLine
 10
5.326794919243113
 20
3.459807621135332
 30
0.0
 11
5.673205080756887
 21
3.259807621135332
 31
0.0
  0
CIRCLE
  5
362
330
3C8
100
AcDbEntity
  8
etch
100
AcDbCircle
 10
5.35
 20
3.1
 30
0.0
 40
0.16
  0
LINE
  5
363
330
3C8
100
AcDbEntity
  8
pcb
100
AcDbLine
 10
5.373205080756888
 20
2.740192378864669
 30
0.0
 11
5.673205080756889
 21
3.259807621135331
 31
0.0
  0
LINE
  5
364
330
3C8
100
AcDbEntity
  8
pcb
100
AcDbLine
 10
5.326794919243113
 20
3.459807621135331
 30
0.0
 11
5.026794919243113
 21
2.940192378864669
 31
0.0
  0
LINE
  5
365
330
3C8
100
AcDbEntity
  8
pcb
100
AcDbLine
 10
5.026794919243113
 20
2.940192378864669
 30
0.0
 11
5.373205080756888
 21
2.740192378864669
 31
0.0
  0
LINE
  5
366
330
3C8
100
AcDbEntity
  8
pcb
100
AcDbLine
 10
4.776794919243113
 20
3.540192378864669
 30
0.0
 11
5.123205080756888
 21
3.34019237886467
 31
0.0
  0
LINE
  5
367
330
3C8
100
AcDbEntity
  8
pcb
100
AcDbLine
 10
5.576794919243113
 20
4.059807621135331
 30
0.0
 11
5.923205080756889
 21
3.859807621135332
 31
0.0
  0
LINE
  5
368
330
3C8
100
AcDbEntity
  8
pcb
100
AcDbLine
 10
5.576794919243113
 20
4.059807621135333
 30
0.0
 11
5.923205080756887
 21
3.859807621135334
 31
0.0
  0
LINE
  5
369
330
3C8
100
AcDbEntity
  8
pcb
100
AcDbLine
 10
4.076794919243113
 20
4.059807621135331
 30
0.0
 11
4.423205080756889
 21
3.859807621135332
 31
0.0
  0
LINE
  5
36A
330
3C8
100
AcDbEntity
  8
pcb
100
AcDbLine
 10
4.076794919243113
 20
4.059807621135333
 30
0.0
 11
4.423205080756887
 21
3.859807621135334
 31
0.0
  0
CIRCLE
  5
36B
330
3C8
100
AcDbEntity
  8
etch
100
AcDbCircle
 10
5.6
 20
3.700000000000001
 30
0.0
 40
0.16
  0
CIRCLE
  5
36C
330
3C8
100
AcDbEntity
  8
etch
100
AcDbCircle
 10
4.1
 20
3.700000000000001
 30
0.0
 40
0.16
  0
LINE
  5
36D
330
3C8
100
AcDbEntity
  8
pcb
100
AcDbLine
 10
5.623205080756888
 20
3.34019237886467
 30
0.0
 11
5.923205080756889
 21
3.859807621135332
 31
0.0
  0
LINE
  5
36E
330
3C8
100
AcDbEntity
  8
pcb
100
AcDbLine
 10
4.123205080756888
 20
3.34019237886467
 30
0.0
 11
4.423205080756889
 21
3.859807621135332
 31
0.0
  0
LINE
  5
36F
330
3C8
100
AcDbEntity
  8
pcb
100
AcDbLine
 10
5.576794919243113
 20
4.059807621135331
 30
0.0
 11
5.276794919243113
 21
3.540192378864669
 31
0.0
  0
LINE
  5
370
330
3C8
100
AcDbEntity
  8
pcb
100
AcDbLine
 10
4.076794919243113
 20
4.059807621135331
 30
0.0
 11
3.776794919243113
 21
3.540192378864669
 31
0.0
  0
LINE
  5
371
330
3C8
100
AcDbEntity
  8
pcb
100
AcDbLine
 10
5.276794919243113
 20
3.540192378864669
 30
0.0
 11
5.623205080756888
 21
3.34019237886467
 31
0.0
  0
LINE
  5
372
330
3C8
100
AcDbEntity
  8
pcb
100
AcDbLine
 10
3.776794919243113
 20
3.540192378864669
 30
0.0
 11
4.123205080756888
 21
3.34019237886467
 31
0.0
  0
LINE
  5
373
330
3C8
100
AcDbEntity
  8
pcb
100
AcDbLine
 10
4.576794919243113
 20
4.059807621135331
 30
0.0
 11
4.923205080756889
 21
3.859807621135332
 31
0.0
  0
LINE
  5
374
330
3C8
100
AcDbEntity
  8
pcb
100
AcDbLine
 10
4.576794919243113
 20
4.059807621135333
 30
0.0
 11
4.923205080756887
 21
3.859807621135334
 31
0.0
  0
CIRCLE
  5
375
330
3C8
100
AcDbEntity
  8
etch
100
AcDbCircle
 10
4.6
 20
3.700000000000001
 30
0.0
 40
0.16
  0
LINE
  5
376
330
3C8
100
AcDbEntity
  8
pcb
100
AcDbLine
 10
4.623205080756888
 20
3.34019237886467
 30
0.0
 11
4.923205080756889
 21
3.859807621135332
 31
0.0
  0
LINE
  5
377
330
3C8
100
AcDbEntity
  8
pcb
100
AcDbLine
 10
4.576794919243113
 20
4.059807621135331
 30
0.0
 11
4.276794919243113
 21
3.540192378864669
 31
0.0
  0
LINE
  5
378
330
3C8
100
AcDbEntity
  8
pcb
100
AcDbLine
 10
4.276794919243113
 20
3.540192378864669
 30
0.0
 11
4.623205080756888
 21
3.34019237886467
 31
0.0
  0
LINE
  5
379
330
3C8
100
AcDbEntity
  8
pcb
100
AcDbLine
 10
5.076794919243113
 20
4.059807621135331
 30
0.0
 11
5.423205080756889
 21
3.859807621135332
 31
0.0
  0
LINE
  5
37A
330
3C8
100
AcDbEntity
  8
pcb
100
AcDbLine
 10
5.076794919243113
 20
4.059807621135333
 30
0.0
 11
5.423205080756887
 21
3.859807621135334
 31
0.0
  0
CIRCLE
  5
37B
330
3C8
100
AcDbEntity
  8
etch
100
AcDbCircle
 10
5.1
 20
3.700000000000001
 30
0.0
 40
0.16
  0
LINE
  5
37C
330
3C8
100
AcDbEntity
  8
pcb
100
AcDbLine
 10
5.123205080756888
 20
3.34019237886467
 30
0.0
 11
5.423205080756889
 21
3.859807621135332
 31
0.0
  0
LINE
  5
37D
330
3C8
100
AcDbEntity
  8
pcb
100
AcDbLine
 10
5.076794919243113
 20
4.059807621135331
 30
0.0
 11
4.776794919243113
 21
3.540192378864669
 31
0.0
  0
LINE
  5
37E
330
3C8
100
AcDbEntity
  8
pcb
100
AcDbLine
 10
3.826794919243113
 20
3.459807621135331
 30
0.0
 11
4.173205080756889
 21
3.259807621135331
 31
0.0
  0
LINE
  5
37F
330
3C8
100
AcDbEntity
  8
pcb
100
AcDbLine
 10
3.826794919243114
 20
3.459807621135332
 30
0.0
 11
4.173205080756887
 21
3.259807621135332
 31
0.0
  0
CIRCLE
  5
380
330
3C8
100
AcDbEntity
  8
etch
100
AcDbCircle
 10
3.85
 20
3.1
 30
0.0
 40
0.16
  0
LINE
  5
381
330
3C8
100
AcDbEntity
  8
pcb
100
AcDbLine
 10
3.873205080756887
 20
2.740192378864669
 30
0.0
 11
4.173205080756889
 21
3.259807621135331
 31
0.0
  0
LINE
  5
382
330
3C8
100
AcDbEntity
  8
pcb
100
AcDbLine
 10
3.826794919243113
 20
3.459807621135331
 30
0.0
 11
3.526794919243113
 21
2.940192378864669
 31
0.0
  0
LINE
  5
383
330
3C8
100
AcDbEntity
  8
pcb
100
AcDbLine
 10
3.526794919243113
 20
2.940192378864669
 30
0.0
 11
3.873205080756887
 21
2.740192378864669
 31
0.0
  0
LINE
  5
386
330
3C8
100
AcDbEntity
  8
etch
100
AcDbLine
 10
6.498902354765582
 20
2.650090939633518
 30
0.0
 11
6.5
 21
3.35
 31
0.0
  0
ARC
  5
387
330
3C8
100
AcDbEntity
  8
etch
100
AcDbCircle
 10
6.448902354765582
 20
3.350090939633518
 30
0.0
 40
0.05
100
AcDbArc
 50
0.0
 51
90.0
  0
ARC
  5
388
330
3C8
100
AcDbEntity
  8
etch
100
AcDbCircle
 10
5.951097645234418
 20
3.349909060366483
 30
0.0
 40
0.05
100
AcDbArc
 50
90.0
 51
180.0
  0
LINE
  5
389
330
3C8
100
AcDbEntity
  8
etch
100
AcDbLine
 10
5.901097645234418
 20
3.349909060366483
 30
0.0
 11
5.901097645234419
 21
2.649909060366483
 31
0.0
  0
LINE
  5
38D
330
3C8
100
AcDbEntity
  8
etch
100
AcDbLine
 10
5.951097645234418
 20
3.399909060366483
 30
0.0
 11
6.448902354765582
 21
3.400090939633518
 31
0.0
  0
LINE
  5
395
330
3C8
100
AcDbEntity
  8
etch
100
AcDbLine
 10
6.02
 20
3.3
 30
0.0
 11
6.380000000000001
 21
3.3
 31
0.0
  0
LINE
  5
396
330
3C8
100
AcDbEntity
  8
etch
100
AcDbLine
 10
6.4
 20
3.28
 30
0.0
 11
6.4
 21
2.920000000000001
 31
0.0
  0
LINE
  5
397
330
3C8
100
AcDbEntity
  8
etch
100
AcDbLine
 10
6.380000000000001
 20
2.9
 30
0.0
 11
6.02
 21
2.9
 31
0.0
  0
LINE
  5
398
330
3C8
100
AcDbEntity
  8
etch
100
AcDbLine
 10
6.0
 20
2.92
 30
0.0
 11
6.0
 21
3.28
 31
0.0
  0
LINE
  5
39D
330
3C8
100
AcDbEntity
  8
etch
100
AcDbLine
 10
6.12
 20
2.75
 30
0.0
 11
6.280000000000002
 21
2.75
 31
0.0
  0
LINE
  5
39E
330
3C8
100
AcDbEntity
  8
etch
100
AcDbLine
 10
6.300000000000001
 20
2.73
 30
0.0
 11
6.300000000000001
 21
2.670000000000001
 31
0.0
  0
LINE
  5
39F
330
3C8
100
AcDbEntity
  8
etch
100
AcDbLine
 10
6.280000000000002
 20
2.65
 30
0.0
 11
6.12
 21
2.65
 31
0.0
  0
LINE
  5
3A0
330
3C8
100
AcDbEntity
  8
etch
100
AcDbLine
 10
6.100000000000001
 20
2.67
 30
0.0
 11
6.100000000000001
 21
2.73
 31
0.0
  0
ARC
  5
3A1
330
3C8
100
AcDbEntity
  8
etch
100
AcDbCircle
 10
6.12
 20
2.73
 30
0.0
 40
0.02
100
AcDbArc
 50
90.0
 51
180.0
  0
ARC
  5
3A2
330
3C8
100
AcDbEntity
  8
etch
100
AcDbCircle
 10
6.280000000000002
 20
2.73
 30
0.0
 40
0.02
100
AcDbArc
 50
0.0
 51
90.0
  0
ARC
  5
3A3
330
3C8
100
AcDbEntity
  8
etch
100
AcDbCircle
 10
6.280000000000002
 20
2.670000000000001
 30
0.0
 40
0.02
100
AcDbArc
 50
270.0
 51
0.0
  0
ARC
  5
3A4
330
3C8
100
AcDbEntity
  8
etch
100
AcDbCircle
 10
6.12
 20
2.67
 30
0.0
 40
0.02
100
AcDbArc
 50
180.0
 51
270.0
  0
ARC
  5
3A5
330
3C8
100
AcDbEntity
  8
etch
100
AcDbCircle
 10
6.02
 20
3.28
 30
0.0
 40
0.02
100
AcDbArc
 50
90.0
 51
180.0
  0
ARC
  5
3A6
330
3C8
100
AcDbEntity
  8
etch
100
AcDbCircle
 10
6.380000000000001
 20
3.28
 30
0.0
 40
0.02
100
AcDbArc
 50
0.0
 51
90.0
  0
ARC
  5
3A7
330
3C8
100
AcDbEntity
  8
etch
100
AcDbCircle
 10
6.380000000000001
 20
2.920000000000001
 30
0.0
 40
0.02
100
AcDbArc
 50
270.0
 51
0.0
  0
ARC
  5
3A8
330
3C8
100
AcDbEntity
  8
etch
100
AcDbCircle
 10
6.02
 20
2.92
 30
0.0
 40
0.02
100
AcDbArc
 50
180.0
 51
270.0
  0
ENDSEC
  0
SECTION
  2
OBJECTS
  0
DICTIONARY
  5
3B6
330
0
100
AcDbDictionary
281
     1
  3
ACAD_GROUP
350
3B7
  3
ACAD_LAYOUT
350
3C3
  3
ACAD_MATERIAL
350
3E4
  3
ACAD_MLEADERSTYLE
350
41D
  3
ACAD_MLINESTYLE
350
3C0
  3
ACAD_PLOTSETTINGS
350
3C2
  3
ACAD_PLOTSTYLENAME
350
3B8
  3
ACAD_TABLESTYLE
350
41C
  3
ACAD_VISUALSTYLE
350
3D3
  3
QCAD_OBJECTS
350
3E9
  0
DICTIONARY
  5
3B7
102
{ACAD_REACTORS
330
3B6
102
}
330
3B6
100
AcDbDictionary
281
     1
  0
DICTIONARY
  5
3C3
102
{ACAD_REACTORS
330
3B6
102
}
330
3B6
100
AcDbDictionary
281
     1
  3
Layout1
350
3C7
  3
Layout2
350
3CF
  3
Model
350
3CB
  0
DICTIONARY
  5
3E4
102
{ACAD_REACTORS
330
3B6
102
}
330
3B6
100
AcDbDictionary
281
     1
  3
ByBlock
350
3E6
  3
ByLayer
350
3E5
  3
Global
350
3E7
  0
DICTIONARY
  5
41D
102
{ACAD_REACTORS
330
3B6
102
}
330
3B6
100
AcDbDictionary
281
     1
  0
DICTIONARY
  5
3C0
102
{ACAD_REACTORS
330
3B6
102
}
330
3B6
100
AcDbDictionary
281
     1
  3
Standard
350
3C1
  0
DICTIONARY
  5
3C2
102
{ACAD_REACTORS
330
3B6
102
}
330
3B6
100
AcDbDictionary
281
     1
  0
ACDBDICTIONARYWDFLT
  5
3B8
102
{ACAD_REACTORS
330
3B6
102
}
330
3B6
100
AcDbDictionary
281
     1
  3
Normal
350
3B9
100
AcDbDictionaryWithDefault
340
3B9
  0
DICTIONARY
  5
41C
102
{ACAD_REACTORS
330
3B6
102
}
330
3B6
100
AcDbDictionary
281
     1
  0
DICTIONARY
  5
3D3
102
{ACAD_REACTORS
330
3B6
102
}
330
3B6
100
AcDbDictionary
281
     1
  3
2dWireframe
350
3D8
  3
3D Hidden
350
3DA
  3
3dWireframe
350
3D9
  3
Basic
350
3DB
  3
Brighten
350
3DF
  3
ColorChange
350
3E3
  3
Conceptual
350
3DD
  3
Dim
350
3DE
  3
Facepattern
350
3E2
  3
Flat
350
3D4
  3
FlatWithEdges
350
3D5
  3
Gouraud
350
3D6
  3
GouraudWithEdges
350
3D7
  3
Linepattern
350
3E1
  3
Realistic
350
3DC
  3
Thicken
350
3E0
  0
DICTIONARY
  5
3E9
102
{ACAD_REACTORS
330
3B6
102
}
330
3B6
100
AcDbDictionary
281
     1
  3
ColorSettings/BackgroundColor
350
3FE
  3
ColorSettings/ColorMode
350
3F7
  3
Grid/DisplayGrid
350
3FF
  3
Grid/GridSpacingX
350
3F4
  3
Grid/GridSpacingY
350
3F6
  3
Grid/MetaGridSpacingX
350
3ED
  3
Grid/MetaGridSpacingY
350
3F1
  3
MultiPageSettings/Columns
350
3F2
  3
MultiPageSettings/GlueMarginBottom
350
3EE
  3
MultiPageSettings/GlueMarginsLeft
350
3F9
  3
MultiPageSettings/GlueMarginsRight
350
3EA
  3
MultiPageSettings/GlueMarginsTop
350
403
  3
MultiPageSettings/PrintCropMarks
350
3EC
  3
MultiPageSettings/Rows
350
3FB
  3
PageSettings/OffsetX
350
401
  3
PageSettings/OffsetY
350
402
  3
PageSettings/PageOrientation
350
3EB
  3
PageSettings/PaperHeight
350
3F0
  3
PageSettings/PaperSizeName
350
3F3
  3
PageSettings/PaperWidth
350
3FC
  3
PageSettings/Scale
350
3EF
  3
PageSettings/ShowBoundingBox
350
3F5
  3
PageSettings/ShowPageBorders
350
400
  3
Template/Description
350
3FA
  3
Template/Title
350
3F8
  3
UnitSettings/PaperUnit
350
3FD
  0
LAYOUT
  5
3C7
102
{ACAD_REACTORS
330
3C3
102
}
330
3C3
100
AcDbPlotSettings
  1

  2
none_device
  4

  6

 40
0.0
 41
0.0
 42
0.0
 43
0.0
 44
0.0
 45
0.0
 46
0.0
 47
0.0
 48
0.0
 49
0.0
140
0.0
141
0.0
142
1.0
143
1.0
 70
   688
 72
     0
 73
     0
 74
     5
  7

 75
    16
 76
     0
 77
     2
 78
   300
147
1.0
148
0.0
149
0.0
100
AcDbLayout
  1
Layout1
 70
     1
 71
     1
 10
0.0
 20
0.0
 11
12.0
 21
9.0
 12
0.0
 22
0.0
 32
0.0
 14
1.000000000000000E+20
 24
1.000000000000000E+20
 34
1.000000000000000E+20
 15
-1.000000000000000E+20
 25
-1.000000000000000E+20
 35
-1.000000000000000E+20
146
0.0
 13
0.0
 23
0.0
 33
0.0
 16
1.0
 26
0.0
 36
0.0
 17
0.0
 27
1.0
 37
0.0
 76
     0
330
3C4
  0
LAYOUT
  5
3CF
102
{ACAD_REACTORS
330
3C3
102
}
330
3C3
100
AcDbPlotSettings
  1

  2
none_device
  4

  6

 40
0.0
 41
0.0
 42
0.0
 43
0.0
 44
0.0
 45
0.0
 46
0.0
 47
0.0
 48
0.0
 49
0.0
140
0.0
141
0.0
142
1.0
143
1.0
 70
   688
 72
     0
 73
     0
 74
     5
  7

 75
    16
 76
     0
 77
     2
 78
   300
147
1.0
148
0.0
149
0.0
100
AcDbLayout
  1
Layout2
 70
     1
 71
     2
 10
0.0
 20
0.0
 11
0.0
 21
0.0
 12
0.0
 22
0.0
 32
0.0
 14
0.0
 24
0.0
 34
0.0
 15
0.0
 25
0.0
 35
0.0
146
0.0
 13
0.0
 23
0.0
 33
0.0
 16
1.0
 26
0.0
 36
0.0
 17
0.0
 27
1.0
 37
0.0
 76
     0
330
3CC
  0
LAYOUT
  5
3CB
102
{ACAD_REACTORS
330
3C3
102
}
330
3C3
100
AcDbPlotSettings
  1

  2
none_device
  4

  6

 40
0.0
 41
0.0
 42
0.0
 43
0.0
 44
0.0
 45
0.0
 46
0.0
 47
0.0
 48
0.0
 49
0.0
140
0.0
141
0.0
142
1.0
143
1.0
 70
  1712
 72
     0
 73
     0
 74
     0
  7

 75
     0
 76
     0
 77
     2
 78
   300
147
1.0
148
0.0
149
0.0
100
AcDbLayout
  1
Model
 70
     1
 71
     0
 10
0.0
 20
0.0
 11
12.0
 21
9.0
 12
0.0
 22
0.0
 32
0.0
 14
1.000000000000000E+20
 24
1.000000000000000E+20
 34
1.000000000000000E+20
 15
-1.000000000000000E+20
 25
-1.000000000000000E+20
 35
-1.000000000000000E+20
146
0.0
 13
0.0
 23
0.0
 33
0.0
 16
1.0
 26
0.0
 36
0.0
 17
0.0
 27
1.0
 37
0.0
 76
     0
330
3C8
331
3D2
  0
MATERIAL
  5
3E6
102
{ACAD_REACTORS
330
3E4
102
}
330
3E4
100
AcDbMaterial
  1
ByBlock
 72
     1
 94
      127
  0
MATERIAL
  5
3E5
102
{ACAD_REACTORS
330
3E4
102
}
330
3E4
100
AcDbMaterial
  1
ByLayer
 72
     1
 94
      127
  0
MATERIAL
  5
3E7
102
{ACAD_REACTORS
330
3E4
102
}
330
3E4
100
AcDbMaterial
  1
Global
 72
     1
 94
      127
  0
MLINESTYLE
  5
3C1
102
{ACAD_REACTORS
330
3C0
102
}
330
3C0
100
AcDbMlineStyle
  2
Standard
 70
     0
  3

 62
   256
 51
90.0
 52
90.0
 71
     2
 49
0.5
 62
   256
  6
BYLAYER
 49
-0.5
 62
   256
  6
BYLAYER
  0
ACDBPLACEHOLDER
  5
3B9
102
{ACAD_REACTORS
330
3B8
102
}
330
3B8
  0
VISUALSTYLE
  5
3D8
102
{ACAD_REACTORS
330
3D3
102
}
330
3D3
100
AcDbVisualStyle
  2
2dWireframe
 70
     4
177
     2
291
     0
 71
     0
176
     1
 72
     2
176
     1
 73
     0
176
     1
 90
        0
176
     1
 40
-0.6
176
     1
 41
-30.0
176
     1
 62
     5
 63
     7
421
 16777215
176
     1
 74
     1
176
     1
 91
        4
176
     1
 64
     7
176
     1
 65
   257
176
     1
 75
     1
176
     1
175
     1
176
     1
 42
1.0
176
     1
 92
        0
176
     1
 66
   257
176
     1
 43
1.0
176
     1
 76
     1
176
     1
 77
     6
176
     1
 78
     2
176
     1
 67
     7
176
     1
 79
     5
176
     1
170
     0
176
     1
171
     0
176
     1
290
     0
176
     1
 93
        1
176
     1
 44
0.0
176
     1
173
     0
176
     1
  0
VISUALSTYLE
  5
3DA
102
{ACAD_REACTORS
330
3D3
102
}
330
3D3
100
AcDbVisualStyle
  2
3D Hidden
 70
     6
177
     2
291
     0
 71
     1
176
     1
 72
     2
176
     1
 73
     2
176
     1
 90
        0
176
     1
 40
-0.6
176
     1
 41
-30.0
176
     1
 62
     5
 63
     7
421
 16777215
176
     1
 74
     2
176
     1
 91
        2
176
     1
 64
     7
176
     1
 65
   257
176
     1
 75
     2
176
     1
175
     1
176
     1
 42
40.0
176
     1
 92
        0
176
     1
 66
   257
176
     1
 43
1.0
176
     1
 76
     1
176
     1
 77
     6
176
     1
 78
     2
176
     1
 67
     7
176
     1
 79
     3
176
     1
170
     0
176
     1
171
     0
176
     1
290
     0
176
     1
 93
        1
176
     1
 44
0.0
176
     1
173
     0
176
     1
  0
VISUALSTYLE
  5
3D9
102
{ACAD_REACTORS
330
3D3
102
}
330
3D3
100
AcDbVisualStyle
  2
3dWireframe
 70
     5
177
     2
291
     0
 71
     0
176
     1
 72
     2
176
     1
 73
     0
176
     1
 90
        0
176
     1
 40
-0.6
176
     1
 41
-30.0
176
     1
 62
     5
 63
     7
421
 16777215
176
     1
 74
     1
176
     1
 91
        4
176
     1
 64
     7
176
     1
 65
   257
176
     1
 75
     1
176
     1
175
     1
176
     1
 42
1.0
176
     1
 92
        0
176
     1
 66
   257
176
     1
 43
1.0
176
     1
 76
     1
176
     1
 77
     6
176
     1
 78
     2
176
     1
 67
     7
176
     1
 79
     5
176
     1
170
     0
176
     1
171
     0
176
     1
290
     0
176
     1
 93
        1
176
     1
 44
0.0
176
     1
173
     0
176
     1
  0
VISUALSTYLE
  5
3DB
102
{ACAD_REACTORS
330
3D3
102
}
330
3D3
100
AcDbVisualStyle
  2
Basic
 70
     7
177
     2
291
     1
 71
     1
176
     1
 72
     0
176
     1
 73
     1
176
     1
 90
        0
176
     1
 40
-0.6
176
     1
 41
-30.0
176
     1
 62
     5
 63
     7
421
 16777215
176
     1
 74
     0
176
     1
 91
        4
176
     1
 64
     7
176
     1
 65
   257
176
     1
 75
     1
176
     1
175
     1
176
     1
 42
1.0
176
     1
 92
        8
176
     1
 66
     7
176
     1
 43
1.0
176
     1
 76
     1
176
     1
 77
     6
176
     1
 78
     2
176
     1
 67
     7
176
     1
 79
     5
176
     1
170
     0
176
     1
171
     0
176
     1
290
     0
176
     1
 93
        1
176
     1
 44
0.0
176
     1
173
     0
176
     1
  0
VISUALSTYLE
  5
3DF
102
{ACAD_REACTORS
330
3D3
102
}
330
3D3
100
AcDbVisualStyle
  2
Brighten
 70
    12
177
     2
291
     1
 71
     2
176
     1
 72
     2
176
     1
 73
     0
176
     1
 90
        0
176
     1
 40
-0.6
176
     1
 41
-30.0
176
     1
 62
     5
 63
     7
421
 16777215
176
     1
 74
     1
176
     1
 91
        4
176
     1
 64
     7
176
     1
 65
   257
176
     1
 75
     1
176
     1
175
     1
176
     1
 42
1.0
176
     1
 92
        8
176
     1
 66
     7
176
     1
 43
1.0
176
     1
 76
     1
176
     1
 77
     6
176
     1
 78
     2
176
     1
 67
     7
176
     1
 79
     5
176
     1
170
     0
176
     1
171
     0
176
     1
290
     0
176
     1
 93
        1
176
     1
 44
50.0
176
     1
173
     0
176
     1
  0
VISUALSTYLE
  5
3E3
102
{ACAD_REACTORS
330
3D3
102
}
330
3D3
100
AcDbVisualStyle
  2
ColorChange
 70
    16
177
     2
291
     1
 71
     2
176
     1
 72
     2
176
     1
 73
     3
176
     1
 90
        0
176
     1
 40
-0.6
176
     1
 41
-30.0
176
     1
 62
     5
 63
     8
421
  8421504
176
     1
 74
     1
176
     1
 91
        4
176
     1
 64
     7
176
     1
 65
   257
176
     1
 75
     1
176
     1
175
     1
176
     1
 42
1.0
176
     1
 92
        8
176
     1
 66
     8
424
  8421504
176
     1
 43
1.0
176
     1
 76
     1
176
     1
 77
     6
176
     1
 78
     2
176
     1
 67
     7
176
     1
 79
     5
176
     1
170
     0
176
     1
171
     0
176
     1
290
     0
176
     1
 93
        1
176
     1
 44
0.0
176
     1
173
     0
176
     1
  0
VISUALSTYLE
  5
3DD
102
{ACAD_REACTORS
330
3D3
102
}
330
3D3
100
AcDbVisualStyle
  2
Conceptual
 70
     9
177
     2
291
     0
 71
     3
176
     1
 72
     2
176
     1
 73
     0
176
     1
 90
        0
176
     1
 40
-0.6
176
     1
 41
-30.0
176
     1
 62
     5
 63
     7
421
 16777215
176
     1
 74
     2
176
     1
 91
        2
176
     1
 64
     7
176
     1
 65
   257
176
     1
 75
     1
176
     1
175
     1
176
     1
 42
40.0
176
     1
 92
        8
176
     1
 66
     7
176
     1
 43
1.0
176
     1
 76
     1
176
     1
 77
     6
176
     1
 78
     2
176
     1
 67
     7
176
     1
 79
     3
176
     1
170
     0
176
     1
171
     0
176
     1
290
     0
176
     1
 93
        1
176
     1
 44
0.0
176
     1
173
     0
176
     1
  0
VISUALSTYLE
  5
3DE
102
{ACAD_REACTORS
330
3D3
102
}
330
3D3
100
AcDbVisualStyle
  2
Dim
 70
    11
177
     2
291
     1
 71
     2
176
     1
 72
     2
176
     1
 73
     0
176
     1
 90
        0
176
     1
 40
-0.6
176
     1
 41
-30.0
176
     1
 62
     5
 63
     7
421
 16777215
176
     1
 74
     1
176
     1
 91
        4
176
     1
 64
     7
176
     1
 65
   257
176
     1
 75
     1
176
     1
175
     1
176
     1
 42
1.0
176
     1
 92
        8
176
     1
 66
     7
176
     1
 43
1.0
176
     1
 76
     1
176
     1
 77
     6
176
     1
 78
     2
176
     1
 67
     7
176
     1
 79
     5
176
     1
170
     0
176
     1
171
     0
176
     1
290
     0
176
     1
 93
        1
176
     1
 44
-50.0
176
     1
173
     0
176
     1
  0
VISUALSTYLE
  5
3E2
102
{ACAD_REACTORS
330
3D3
102
}
330
3D3
100
AcDbVisualStyle
  2
Facepattern
 70
    15
177
     2
291
     1
 71
     2
176
     1
 72
     2
176
     1
 73
     0
176
     1
 90
        0
176
     1
 40
-0.6
176
     1
 41
-30.0
176
     1
 62
     5
 63
     7
421
 16777215
176
     1
 74
     1
176
     1
 91
        4
176
     1
 64
     7
176
     1
 65
   257
176
     1
 75
     1
176
     1
175
     1
176
     1
 42
1.0
176
     1
 92
        8
176
     1
 66
     7
176
     1
 43
1.0
176
     1
 76
     1
176
     1
 77
     6
176
     1
 78
     2
176
     1
 67
     7
176
     1
 79
     5
176
     1
170
     0
176
     1
171
     0
176
     1
290
     0
176
     1
 93
        1
176
     1
 44
0.0
176
     1
173
     0
176
     1
  0
VISUALSTYLE
  5
3D4
102
{ACAD_REACTORS
330
3D3
102
}
330
3D3
100
AcDbVisualStyle
  2
Flat
 70
     0
177
     2
291
     1
 71
     2
176
     1
 72
     1
176
     1
 73
     1
176
     1
 90
        2
176
     1
 40
-0.6
176
     1
 41
30.0
176
     1
 62
     5
 63
     7
421
 16777215
176
     1
 74
     0
176
     1
 91
        4
176
     1
 64
     7
176
     1
 65
   257
176
     1
 75
     1
176
     1
175
     1
176
     1
 42
1.0
176
     1
 92
        8
176
     1
 66
     7
176
     1
 43
1.0
176
     1
 76
     1
176
     1
 77
     6
176
     1
 78
     2
176
     1
 67
     7
176
     1
 79
     5
176
     1
170
     0
176
     1
171
     0
176
     1
290
     0
176
     1
 93
       13
176
     1
 44
0.0
176
     1
173
     0
176
     1
  0
VISUALSTYLE
  5
3D5
102
{ACAD_REACTORS
330
3D3
102
}
330
3D3
100
AcDbVisualStyle
  2
FlatWithEdges
 70
     1
177
     2
291
     1
 71
     2
176
     1
 72
     1
176
     1
 73
     1
176
     1
 90
        2
176
     1
 40
-0.6
176
     1
 41
30.0
176
     1
 62
     5
 63
     7
421
 16777215
176
     1
 74
     1
176
     1
 91
        4
176
     1
 64
     7
176
     1
 65
   257
176
     1
 75
     1
176
     1
175
     1
176
     1
 42
1.0
176
     1
 92
        0
176
     1
 66
   257
176
     1
 43
1.0
176
     1
 76
     1
176
     1
 77
     6
176
     1
 78
     2
176
     1
 67
     7
176
     1
 79
     5
176
     1
170
     0
176
     1
171
     0
176
     1
290
     0
176
     1
 93
       13
176
     1
 44
0.0
176
     1
173
     0
176
     1
  0
VISUALSTYLE
  5
3D6
102
{ACAD_REACTORS
330
3D3
102
}
330
3D3
100
AcDbVisualStyle
  2
Gouraud
 70
     2
177
     2
291
     1
 71
     2
176
     1
 72
     2
176
     1
 73
     1
176
     1
 90
        2
176
     1
 40
-0.6
176
     1
 41
30.0
176
     1
 62
     5
 63
     7
421
 16777215
176
     1
 74
     0
176
     1
 91
        4
176
     1
 64
     7
176
     1
 65
   257
176
     1
 75
     1
176
     1
175
     1
176
     1
 42
1.0
176
     1
 92
        0
176
     1
 66
     7
176
     1
 43
1.0
176
     1
 76
     1
176
     1
 77
     6
176
     1
 78
     2
176
     1
 67
     7
176
     1
 79
     5
176
     1
170
     0
176
     1
171
     0
176
     1
290
     0
176
     1
 93
       13
176
     1
 44
0.0
176
     1
173
     0
176
     1
  0
VISUALSTYLE
  5
3D7
102
{ACAD_REACTORS
330
3D3
102
}
330
3D3
100
AcDbVisualStyle
  2
GouraudWithEdges
 70
     3
177
     2
291
     1
 71
     2
176
     1
 72
     2
176
     1
 73
     1
176
     1
 90
        2
176
     1
 40
-0.6
176
     1
 41
30.0
176
     1
 62
     5
 63
     7
421
 16777215
176
     1
 74
     1
176
     1
 91
        4
176
     1
 64
     7
176
     1
 65
   257
176
     1
 75
     1
176
     1
175
     1
176
     1
 42
1.0
176
     1
 92
        0
176
     1
 66
   257
176
     1
 43
1.0
176
     1
 76
     1
176
     1
 77
     6
176
     1
 78
     2
176
     1
 67
     7
176
     1
 79
     5
176
     1
170
     0
176
     1
171
     0
176
     1
290
     0
176
     1
 93
       13
176
     1
 44
0.0
176
     1
173
     0
176
     1
  0
VISUALSTYLE
  5
3E1
102
{ACAD_REACTORS
330
3D3
102
}
330
3D3
100
AcDbVisualStyle
  2
Linepattern
 70
    14
177
     2
291
     1
 71
     2
176
     1
 72
     2
176
     1
 73
     0
176
     1
 90
        0
176
     1
 40
-0.6
176
     1
 41
-30.0
176
     1
 62
     5
 63
     7
421
 16777215
176
     1
 74
     1
176
     1
 91
        4
176
     1
 64
     7
176
     1
 65
   257
176
     1
 75
     7
176
     1
175
     7
176
     1
 42
1.0
176
     1
 92
        8
176
     1
 66
     7
176
     1
 43
1.0
176
     1
 76
     1
176
     1
 77
     6
176
     1
 78
     2
176
     1
 67
     7
176
     1
 79
     5
176
     1
170
     0
176
     1
171
     0
176
     1
290
     0
176
     1
 93
        1
176
     1
 44
0.0
176
     1
173
     0
176
     1
  0
VISUALSTYLE
  5
3DC
102
{ACAD_REACTORS
330
3D3
102
}
330
3D3
100
AcDbVisualStyle
  2
Realistic
 70
     8
177
     2
291
     0
 71
     2
176
     1
 72
     2
176
     1
 73
     0
176
     1
 90
        0
176
     1
 40
-0.6
176
     1
 41
-30.0
176
     1
 62
     5
 63
     7
421
 16777215
176
     1
 74
     1
176
     1
 91
        0
176
     1
 64
     7
176
     1
 65
   257
176
     1
 75
     1
176
     1
175
     1
176
     1
 42
1.0
176
     1
 92
        8
176
     1
 66
     8
424
  7895160
176
     1
 43
1.0
176
     1
 76
     1
176
     1
 77
     6
176
     1
 78
     2
176
     1
 67
     7
176
     1
 79
     5
176
     1
170
     0
176
     1
171
     0
176
     1
290
     0
176
     1
 93
       13
176
     1
 44
0.0
176
     1
173
     0
176
     1
  0
VISUALSTYLE
  5
3E0
102
{ACAD_REACTORS
330
3D3
102
}
330
3D3
100
AcDbVisualStyle
  2
Thicken
 70
    13
177
     2
291
     1
 71
     2
176
     1
 72
     2
176
     1
 73
     0
176
     1
 90
        0
176
     1
 40
-0.6
176
     1
 41
-30.0
176
     1
 62
     5
 63
     7
421
 16777215
176
     1
 74
     1
176
     1
 91
        4
176
     1
 64
     7
176
     1
 65
   257
176
     1
 75
     1
176
     1
175
     1
176
     1
 42
1.0
176
     1
 92
       12
176
     1
 66
     7
176
     1
 43
1.0
176
     1
 76
     1
176
     1
 77
     6
176
     1
 78
     2
176
     1
 67
     7
176
     1
 79
     5
176
     1
170
     0
176
     1
171
     0
176
     1
290
     0
176
     1
 93
        1
176
     1
 44
0.0
176
     1
173
     0
176
     1
  0
XRECORD
  5
3FE
102
{ACAD_REACTORS
330
3E9
102
}
330
3E9
100
AcDbXrecord
280
     1
1000
White
  0
XRECORD
  5
3F7
102
{ACAD_REACTORS
330
3E9
102
}
330
3E9
100
AcDbXrecord
280
     1
1000
Grayscale
  0
XRECORD
  5
3FF
102
{ACAD_REACTORS
330
3E9
102
}
330
3E9
100
AcDbXrecord
280
     1
290
     1
  0
XRECORD
  5
3F4
102
{ACAD_REACTORS
330
3E9
102
}
330
3E9
100
AcDbXrecord
280
     1
1000
0.05
  0
XRECORD
  5
3F6
102
{ACAD_REACTORS
330
3E9
102
}
330
3E9
100
AcDbXrecord
280
     1
1000
0.05
  0
XRECORD
  5
3ED
102
{ACAD_REACTORS
330
3E9
102
}
330
3E9
100
AcDbXrecord
280
     1
1000
auto
  0
XRECORD
  5
3F1
102
{ACAD_REACTORS
330
3E9
102
}
330
3E9
100
AcDbXrecord
280
     1
1000
auto
  0
XRECORD
  5
3F2
102
{ACAD_REACTORS
330
3E9
102
}
330
3E9
100
AcDbXrecord
280
     1
 90
        1
  0
XRECORD
  5
3EE
102
{ACAD_REACTORS
330
3E9
102
}
330
3E9
100
AcDbXrecord
280
     1
 40
10.0
  0
XRECORD
  5
3F9
102
{ACAD_REACTORS
330
3E9
102
}
330
3E9
100
AcDbXrecord
280
     1
 40
10.0
  0
XRECORD
  5
3EA
102
{ACAD_REACTORS
330
3E9
102
}
330
3E9
100
AcDbXrecord
280
     1
 40
10.0
  0
XRECORD
  5
403
102
{ACAD_REACTORS
330
3E9
102
}
330
3E9
100
AcDbXrecord
280
     1
 40
10.0
  0
XRECORD
  5
3EC
102
{ACAD_REACTORS
330
3E9
102
}
330
3E9
100
AcDbXrecord
280
     1
290
     0
  0
XRECORD
  5
3FB
102
{ACAD_REACTORS
330
3E9
102
}
330
3E9
100
AcDbXrecord
280
     1
 90
        1
  0
XRECORD
  5
401
102
{ACAD_REACTORS
330
3E9
102
}
330
3E9
100
AcDbXrecord
280
     1
 40
-0.8499999999999999
  0
XRECORD
  5
402
102
{ACAD_REACTORS
330
3E9
102
}
330
3E9
100
AcDbXrecord
280
     1
 40
-3.3
  0
XRECORD
  5
3EB
102
{ACAD_REACTORS
330
3E9
102
}
330
3E9
100
AcDbXrecord
280
     1
1000
Portrait
  0
XRECORD
  5
3F0
102
{ACAD_REACTORS
330
3E9
102
}
330
3E9
100
AcDbXrecord
280
     1
1000
11
 41
0.0
  0
XRECORD
  5
3F3
102
{ACAD_REACTORS
330
3E9
102
}
330
3E9
100
AcDbXrecord
280
     1
1000
ANSI A (Letter)
  0
XRECORD
  5
3FC
102
{ACAD_REACTORS
330
3E9
102
}
330
3E9
100
AcDbXrecord
280
     1
1000
8.5
 41
0.0
  0
XRECORD
  5
3EF
102
{ACAD_REACTORS
330
3E9
102
}
330
3E9
100
AcDbXrecord
280
     1
1000
1
  0
XRECORD
  5
3F5
102
{ACAD_REACTORS
330
3E9
102
}
330
3E9
100
AcDbXrecord
280
     1
290
     0
  0
XRECORD
  5
400
102
{ACAD_REACTORS
330
3E9
102
}
330
3E9
100
AcDbXrecord
280
     1
290
     1
  0
XRECORD
  5
3FA
102
{ACAD_REACTORS
330
3E9
102
}
330
3E9
100
AcDbXrecord
280
     1
1000

  0
XRECORD
  5
3F8
102
{ACAD_REACTORS
330
3E9
102
}
330
3E9
100
AcDbXrecord
280
     1
1000

  0
XRECORD
  5
3FD
102
{ACAD_REACTORS
330
3E9
102
}
330
3E9
100
AcDbXrecord
280
     1
 90
        1
  0
ENDSEC
  0
EOF
