  0
SECTION
  2
HEADER
  9
$ACADVER
  1
AC1021
  9
$ACADMAINTVER
 70
    25
  9
$DWGCODEPAGE
  3
ASCII
  9
$INSBASE
 10
0.0
 20
0.0
 30
0.0
  9
$EXTMIN
 10
-0.7325
 20
-0.326835
 30
0.0
  9
$EXTMAX
 10
14.725
 20
9.9255
 30
0.0
  9
$LIMMIN
 10
0.0
 20
0.0
  9
$LIMMAX
 10
12.0
 20
9.0
  9
$ORTHOMODE
 70
     0
  9
$REGENMODE
 70
     1
  9
$FILLMODE
 70
     1
  9
$QTEXTMODE
 70
     0
  9
$MIRRTEXT
 70
     1
  9
$LTSCALE
 40
1.0
  9
$ATTMODE
 70
     1
  9
$TEXTSIZE
 40
0.2
  9
$TRACEWID
 40
0.05
  9
$TEXTSTYLE
  7
Standard
  9
$CLAYER
  8
0
  9
$CELTYPE
  6
ByLayer
  9
$CECOLOR
 62
   178
  9
$CELTSCALE
 40
1.0
  9
$DISPSILH
 70
     0
  9
$DIMSCALE
 40
1.0
  9
$DIMASZ
 40
0.18
  9
$DIMEXO
 40
0.0625
  9
$DIMDLI
 40
0.38
  9
$DIMRND
 40
0.0
  9
$DIMDLE
 40
0.0
  9
$DIMEXE
 40
0.18
  9
$DIMTP
 40
0.0
  9
$DIMTM
 40
0.0
  9
$DIMTXT
 40
0.18
  9
$DIMCEN
 40
0.09
  9
$DIMTSZ
 40
0.0
  9
$DIMTOL
 70
     0
  9
$DIMLIM
 70
     0
  9
$DIMTIH
 70
     1
  9
$DIMTOH
 70
     1
  9
$DIMSE1
 70
     0
  9
$DIMSE2
 70
     0
  9
$DIMTAD
 70
     0
  9
$DIMZIN
 70
     0
  9
$DIMBLK
  1

  9
$DIMASO
 70
     1
  9
$DIMSHO
 70
     1
  9
$DIMPOST
  1

  9
$DIMAPOST
  1

  9
$DIMALT
 70
     0
  9
$DIMALTD
 70
     2
  9
$DIMALTF
 40
25.4
  9
$DIMLFAC
 40
1.0
  9
$DIMTOFL
 70
     0
  9
$DIMTVP
 40
0.0
  9
$DIMTIX
 70
     0
  9
$DIMSOXD
 70
     0
  9
$DIMSAH
 70
     0
  9
$DIMBLK1
  1

  9
$DIMBLK2
  1

  9
$DIMSTYLE
  2
Standard
  9
$DIMCLRD
 70
   178
  9
$DIMCLRE
 70
   178
  9
$DIMCLRT
 70
   178
  9
$DIMTFAC
 40
1.0
  9
$DIMGAP
 40
0.09
  9
$DIMJUST
 70
     0
  9
$DIMSD1
 70
     0
  9
$DIMSD2
 70
     0
  9
$DIMTOLJ
 70
     1
  9
$DIMTZIN
 70
     0
  9
$DIMALTZ
 70
     0
  9
$DIMALTTZ
 70
     0
  9
$DIMUPT
 70
     0
  9
$DIMDEC
 70
     4
  9
$DIMTDEC
 70
     4
  9
$DIMALTU
 70
     2
  9
$DIMALTTD
 70
     2
  9
$DIMTXSTY
  7
Standard
  9
$DIMAUNIT
 70
     0
  9
$DIMADEC
 70
     0
  9
$DIMALTRND
 40
0.0
  9
$DIMAZIN
 70
     0
  9
$DIMDSEP
 70
    46
  9
$DIMATFIT
 70
     3
  9
$DIMFRAC
 70
     0
  9
$DIMLDRBLK
  1

  9
$DIMLUNIT
 70
     2
  9
$DIMLWD
 70
    -2
  9
$DIMLWE
 70
    -2
  9
$DIMTMOVE
 70
     0
  9
$DIMFXL
 40
1.0
  9
$DIMFXLON
 70
     0
  9
$DIMJOGANG
 40
0.7853981633974483
  9
$DIMTFILL
 70
     0
  9
$DIMTFILLCLR
 70
     0
  9
$DIMARCSYM
 70
     0
  9
$DIMLTYPE
  6

  9
$DIMLTEX1
  6

  9
$DIMLTEX2
  6

  9
$LUNITS
 70
     2
  9
$LUPREC
 70
     4
  9
$SKETCHINC
 40
0.1
  9
$FILLETRAD
 40
0.5
  9
$AUNITS
 70
     0
  9
$AUPREC
 70
     0
  9
$MENU
  1
.
  9
$ELEVATION
 40
0.0
  9
$PELEVATION
 40
0.0
  9
$THICKNESS
 40
0.0
  9
$LIMCHECK
 70
     0
  9
$CHAMFERA
 40
0.5
  9
$CHAMFERB
 40
0.5
  9
$CHAMFERC
 40
1.0
  9
$CHAMFERD
 40
0.0
  9
$SKPOLY
 70
     0
  9
$TDCREATE
 40
2456524.415092593
  9
$TDUCREATE
 40
2456524.623425926
  9
$TDUPDATE
 40
2456524.415092593
  9
$TDUUPDATE
 40
2456524.623425926
  9
$TDINDWG
 40
0.0000000116
  9
$TDUSRTIMER
 40
0.0000000116
  9
$USRTIMER
 70
     1
  9
$ANGBASE
 50
0.0
  9
$ANGDIR
 70
     0
  9
$PDMODE
 70
     0
  9
$PDSIZE
 40
0.0
  9
$PLINEWID
 40
0.0
  9
$SPLFRAME
 70
     0
  9
$SPLINETYPE
 70
     6
  9
$SPLINESEGS
 70
     8
  9
$HANDSEED
  5
56D
  9
$SURFTAB1
 70
     6
  9
$SURFTAB2
 70
     6
  9
$SURFTYPE
 70
     6
  9
$SURFU
 70
     6
  9
$SURFV
 70
     6
  9
$UCSBASE
  2

  9
$UCSNAME
  2

  9
$UCSORG
 10
0.0
 20
0.0
 30
0.0
  9
$UCSXDIR
 10
1.0
 20
0.0
 30
0.0
  9
$UCSYDIR
 10
0.0
 20
1.0
 30
0.0
  9
$UCSORTHOREF
  2

  9
$UCSORTHOVIEW
 70
     0
  9
$UCSORGTOP
 10
0.0
 20
0.0
 30
0.0
  9
$UCSORGBOTTOM
 10
0.0
 20
0.0
 30
0.0
  9
$UCSORGLEFT
 10
0.0
 20
0.0
 30
0.0
  9
$UCSORGRIGHT
 10
0.0
 20
0.0
 30
0.0
  9
$UCSORGFRONT
 10
0.0
 20
0.0
 30
0.0
  9
$UCSORGBACK
 10
0.0
 20
0.0
 30
0.0
  9
$PUCSBASE
  2

  9
$PUCSNAME
  2

  9
$PUCSORG
 10
0.0
 20
0.0
 30
0.0
  9
$PUCSXDIR
 10
1.0
 20
0.0
 30
0.0
  9
$PUCSYDIR
 10
0.0
 20
1.0
 30
0.0
  9
$PUCSORTHOREF
  2

  9
$PUCSORTHOVIEW
 70
     0
  9
$PUCSORGTOP
 10
0.0
 20
0.0
 30
0.0
  9
$PUCSORGBOTTOM
 10
0.0
 20
0.0
 30
0.0
  9
$PUCSORGLEFT
 10
0.0
 20
0.0
 30
0.0
  9
$PUCSORGRIGHT
 10
0.0
 20
0.0
 30
0.0
  9
$PUCSORGFRONT
 10
0.0
 20
0.0
 30
0.0
  9
$PUCSORGBACK
 10
0.0
 20
0.0
 30
0.0
  9
$USERI1
 70
     0
  9
$USERI2
 70
     0
  9
$USERI3
 70
     0
  9
$USERI4
 70
     0
  9
$USERI5
 70
     0
  9
$USERR1
 40
0.0
  9
$USERR2
 40
0.0
  9
$USERR3
 40
0.0
  9
$USERR4
 40
0.0
  9
$USERR5
 40
0.0
  9
$WORLDVIEW
 70
     1
  9
$SHADEDGE
 70
     3
  9
$SHADEDIF
 70
    70
  9
$TILEMODE
 70
     1
  9
$MAXACTVP
 70
    64
  9
$PINSBASE
 10
0.0
 20
0.0
 30
0.0
  9
$PLIMCHECK
 70
     0
  9
$PEXTMIN
 10
1.000000000000000E+20
 20
1.000000000000000E+20
 30
1.000000000000000E+20
  9
$PEXTMAX
 10
-1.000000000000000E+20
 20
-1.000000000000000E+20
 30
-1.000000000000000E+20
  9
$PLIMMIN
 10
0.0
 20
0.0
  9
$PLIMMAX
 10
12.0
 20
9.0
  9
$UNITMODE
 70
     0
  9
$VISRETAIN
 70
     1
  9
$PLINEGEN
 70
     0
  9
$PSLTSCALE
 70
     1
  9
$TREEDEPTH
 70
  3020
  9
$CMLSTYLE
  2
Standard
  9
$CMLJUST
 70
     0
  9
$CMLSCALE
 40
1.0
  9
$PROXYGRAPHICS
 70
     1
  9
$MEASUREMENT
 70
     1
  9
$CELWEIGHT
370
    -1
  9
$ENDCAPS
280
     0
  9
$JOINSTYLE
280
     0
  9
$LWDISPLAY
290
     0
  9
$INSUNITS
 70
     0
  9
$HYPERLINKBASE
  1

  9
$STYLESHEET
  1

  9
$XEDIT
290
     1
  9
$CEPSNTYPE
380
     0
  9
$PSTYLEMODE
290
     1
  9
$FINGERPRINTGUID
  2
{9382365E-07D5-DBF5-349F-E8E05364BCA1}
  9
$VERSIONGUID
  2
{FAEB1C32-E019-11D5-929B-00C0DF256EC4}
  9
$EXTNAMES
290
     1
  9
$PSVPSCALE
 40
0.0
  9
$OLESTARTUP
290
     0
  9
$SORTENTS
280
   127
  9
$INDEXCTL
280
     0
  9
$HIDETEXT
280
     1
  9
$XCLIPFRAME
290
     0
  9
$HALOGAP
280
     0
  9
$OBSCOLOR
 70
   257
  9
$OBSLTYPE
280
     0
  9
$INTERSECTIONDISPLAY
280
     0
  9
$INTERSECTIONCOLOR
 70
   257
  9
$DIMASSOC
280
     2
  9
$PROJECTNAME
  1

  9
$CAMERADISPLAY
290
     0
  9
$LENSLENGTH
 40
50.0
  9
$CAMERAHEIGHT
 40
0.0
  9
$STEPSPERSEC
 40
2.0
  9
$STEPSIZE
 40
6.0
  9
$3DDWFPREC
 40
2.0
  9
$PSOLWIDTH
 40
0.25
  9
$PSOLHEIGHT
 40
4.0
  9
$LOFTANG1
 40
1.570796326794897
  9
$LOFTANG2
 40
1.570796326794897
  9
$LOFTMAG1
 40
0.0
  9
$LOFTMAG2
 40
0.0
  9
$LOFTPARAM
 70
     7
  9
$LOFTNORMALS
280
     1
  9
$LATITUDE
 40
37.795
  9
$LONGITUDE
 40
-122.394
  9
$NORTHDIRECTION
 40
0.0
  9
$TIMEZONE
 70
 -8000
  9
$LIGHTGLYPHDISPLAY
280
     1
  9
$TILEMODELIGHTSYNCH
280
     1
  9
$SOLIDHIST
280
     1
  9
$SHOWHIST
280
     1
  9
$DWFFRAME
280
     2
  9
$DGNFRAME
280
     2
  9
$REALWORLDSCALE
290
     1
  9
$INTERFERECOLOR
 62
   256
  9
$CSHADOW
280
     0
  9
$SHADOWPLANELOCATION
 40
0.0
  0
ENDSEC
  0
SECTION
  2
CLASSES
  0
CLASS
  1
ACDBDICTIONARYWDFLT
  2
AcDbDictionaryWithDefault
  3
ObjectDBX Classes
 90
        0
 91
        4
280
     0
281
     0
  0
CLASS
  1
VISUALSTYLE
  2
AcDbVisualStyle
  3
ObjectDBX Classes
 90
     4095
 91
        4
280
     0
281
     0
  0
CLASS
  1
MATERIAL
  2
AcDbMaterial
  3
ObjectDBX Classes
 90
     1153
 91
        4
280
     0
281
     0
  0
ENDSEC
  0
SECTION
  2
TABLES
  0
TABLE
  2
VPORT
  5
4B1
330
0
100
AcDbSymbolTable
 70
     1
  0
VPORT
  5
4D1
330
4B1
100
AcDbSymbolTableRecord
100
AcDbViewportTableRecord
  2
*Active
 70
     0
 10
0.0
 20
0.0
 11
1.0
 21
1.0
 12
10.42990654205607
 22
4.5
 13
0.0
 23
0.0
 14
0.5
 24
0.5
 15
0.5
 25
0.5
 16
0.0
 26
0.0
 36
1.0
 17
0.0
 27
0.0
 37
0.0
 40
9.0
 41
1.972972972850329
 42
50.0
 43
0.0
 44
0.0
 50
0.0
 51
0.0
 71
     0
 72
   100
 73
     1
 74
     3
 75
     0
 76
     0
 77
     0
 78
     0
281
     0
 65
     1
110
0.0
120
0.0
130
0.0
111
1.0
121
0.0
131
0.0
112
0.0
122
1.0
132
0.0
 79
     0
146
0.0
 60
     3
 61
     5
292
     1
282
     1
141
0.0
142
0.0
 63
   250
  0
ENDTAB
  0
TABLE
  2
LTYPE
  5
4AE
330
0
100
AcDbSymbolTable
 70
    19
  0
LTYPE
  5
4BC
330
4AE
100
AcDbSymbolTableRecord
100
AcDbLinetypeTableRecord
  2
ByBlock
 70
     0
  3

 72
    65
 73
     0
 40
0.0
  0
LTYPE
  5
4BD
330
4AE
100
AcDbSymbolTableRecord
100
AcDbLinetypeTableRecord
  2
ByLayer
 70
     0
  3

 72
    65
 73
     0
 40
0.0
  0
LTYPE
  5
4BE
330
4AE
100
AcDbSymbolTableRecord
100
AcDbLinetypeTableRecord
  2
Continuous
 70
     0
  3
Solid line
 72
    65
 73
     0
 40
0.0
  0
LTYPE
  5
4FF
330
4AE
100
AcDbSymbolTableRecord
100
AcDbLinetypeTableRecord
  2
BORDER
 70
     0
  3

 72
    65
 73
     6
 40
42.00000000000001
 49
12.0
 74
     0
 49
-6.0
 74
     0
 49
12.0
 74
     0
 49
-5.95
 74
     0
 49
0.1
 74
     0
 49
-5.95
 74
     0
  0
LTYPE
  5
500
330
4AE
100
AcDbSymbolTableRecord
100
AcDbLinetypeTableRecord
  2
BORDER2
 70
     0
  3

 72
    65
 73
     6
 40
21.0
 49
6.0
 74
     0
 49
-3.0
 74
     0
 49
6.0
 74
     0
 49
-2.95
 74
     0
 49
0.1
 74
     0
 49
-2.95
 74
     0
  0
LTYPE
  5
501
330
4AE
100
AcDbSymbolTableRecord
100
AcDbLinetypeTableRecord
  2
BORDERX2
 70
     0
  3

 72
    65
 73
     6
 40
84.0
 49
24.0
 74
     0
 49
-12.0
 74
     0
 49
24.0
 74
     0
 49
-11.95
 74
     0
 49
0.1
 74
     0
 49
-11.95
 74
     0
  0
LTYPE
  5
502
330
4AE
100
AcDbSymbolTableRecord
100
AcDbLinetypeTableRecord
  2
CENTER
 70
     0
  3

 72
    65
 73
     4
 40
50.0
 49
32.0
 74
     0
 49
-6.0
 74
     0
 49
6.0
 74
     0
 49
-6.0
 74
     0
  0
LTYPE
  5
503
330
4AE
100
AcDbSymbolTableRecord
100
AcDbLinetypeTableRecord
  2
CENTER2
 70
     0
  3

 72
    65
 73
     4
 40
25.0
 49
16.0
 74
     0
 49
-3.0
 74
     0
 49
3.0
 74
     0
 49
-3.0
 74
     0
  0
LTYPE
  5
504
330
4AE
100
AcDbSymbolTableRecord
100
AcDbLinetypeTableRecord
  2
CENTERX2
 70
     0
  3

 72
    65
 73
     4
 40
100.0
 49
64.0
 74
     0
 49
-12.0
 74
     0
 49
12.0
 74
     0
 49
-12.0
 74
     0
  0
LTYPE
  5
505
330
4AE
100
AcDbSymbolTableRecord
100
AcDbLinetypeTableRecord
  2
DASHDOT
 70
     0
  3

 72
    65
 73
     4
 40
24.0
 49
12.0
 74
     0
 49
-5.95
 74
     0
 49
0.1
 74
     0
 49
-5.95
 74
     0
  0
LTYPE
  5
506
330
4AE
100
AcDbSymbolTableRecord
100
AcDbLinetypeTableRecord
  2
DASHDOT2
 70
     0
  3

 72
    65
 73
     4
 40
12.0
 49
6.0
 74
     0
 49
-2.95
 74
     0
 49
0.1
 74
     0
 49
-2.95
 74
     0
  0
LTYPE
  5
507
330
4AE
100
AcDbSymbolTableRecord
100
AcDbLinetypeTableRecord
  2
DASHDOTX2
 70
     0
  3

 72
    65
 73
     4
 40
48.0
 49
24.0
 74
     0
 49
-11.95
 74
     0
 49
0.1
 74
     0
 49
-11.95
 74
     0
  0
LTYPE
  5
508
330
4AE
100
AcDbSymbolTableRecord
100
AcDbLinetypeTableRecord
  2
DASHED
 70
     0
  3

 72
    65
 73
     2
 40
18.0
 49
12.0
 74
     0
 49
-6.0
 74
     0
  0
LTYPE
  5
509
330
4AE
100
AcDbSymbolTableRecord
100
AcDbLinetypeTableRecord
  2
DASHED2
 70
     0
  3

 72
    65
 73
     2
 40
9.0
 49
6.0
 74
     0
 49
-3.0
 74
     0
  0
LTYPE
  5
50A
330
4AE
100
AcDbSymbolTableRecord
100
AcDbLinetypeTableRecord
  2
DASHEDX2
 70
     0
  3

 72
    65
 73
     2
 40
36.0
 49
24.0
 74
     0
 49
-12.0
 74
     0
  0
LTYPE
  5
50B
330
4AE
100
AcDbSymbolTableRecord
100
AcDbLinetypeTableRecord
  2
DIVIDE
 70
     0
  3

 72
    65
 73
     6
 40
29.99999999999999
 49
12.0
 74
     0
 49
-5.9
 74
     0
 49
0.15
 74
     0
 49
-5.9
 74
     0
 49
0.15
 74
     0
 49
-5.9
 74
     0
  0
LTYPE
  5
50C
330
4AE
100
AcDbSymbolTableRecord
100
AcDbLinetypeTableRecord
  2
DIVIDE2
 70
     0
  3

 72
    65
 73
     6
 40
15.0
 49
6.0
 74
     0
 49
-2.9
 74
     0
 49
0.15
 74
     0
 49
-2.9
 74
     0
 49
0.15
 74
     0
 49
-2.9
 74
     0
  0
LTYPE
  5
50D
330
4AE
100
AcDbSymbolTableRecord
100
AcDbLinetypeTableRecord
  2
DIVIDEX2
 70
     0
  3

 72
    65
 73
     6
 40
59.99999999999999
 49
24.0
 74
     0
 49
-11.9
 74
     0
 49
0.15
 74
     0
 49
-11.9
 74
     0
 49
0.15
 74
     0
 49
-11.9
 74
     0
  0
LTYPE
  5
50E
330
4AE
100
AcDbSymbolTableRecord
100
AcDbLinetypeTableRecord
  2
DOT
 70
     0
  3

 72
    65
 73
     2
 40
6.3
 49
0.1
 74
     0
 49
-6.2
 74
     0
  0
LTYPE
  5
50F
330
4AE
100
AcDbSymbolTableRecord
100
AcDbLinetypeTableRecord
  2
DOT2
 70
     0
  3

 72
    65
 73
     2
 40
3.2
 49
0.1
 74
     0
 49
-3.1
 74
     0
  0
LTYPE
  5
510
330
4AE
100
AcDbSymbolTableRecord
100
AcDbLinetypeTableRecord
  2
DOTX2
 70
     0
  3

 72
    65
 73
     2
 40
12.5
 49
0.1
 74
     0
 49
-12.4
 74
     0
  0
ENDTAB
  0
TABLE
  2
LAYER
  5
4AB
330
0
100
AcDbSymbolTable
 70
     3
  0
LAYER
  5
4B9
330
4AB
100
AcDbSymbolTableRecord
100
AcDbLayerTableRecord
  2
0
 70
     1
 62
     7
420
 16777215
  6
Continuous
370
    -3
390
4B8
347
4E6
  0
LAYER
  5
511
330
4AB
100
AcDbSymbolTableRecord
100
AcDbLayerTableRecord
  2
CUT
 70
     0
 62
     4
420
    65535
  6
Continuous
370
    -3
390
4B8
347
4E6
  0
LAYER
  5
512
330
4AB
100
AcDbSymbolTableRecord
100
AcDbLayerTableRecord
  2
etch
 70
     0
 62
     7
420
 16777215
  6
Continuous
370
    -3
390
4B8
347
4E6
  0
ENDTAB
  0
TABLE
  2
STYLE
  5
4AC
330
0
100
AcDbSymbolTable
 70
    12
  0
STYLE
  5
4BA
330
4AC
100
AcDbSymbolTableRecord
100
AcDbTextStyleTableRecord
  2
Standard
 70
     0
 40
0.0
 41
1.0
 50
0.0
 71
     0
 42
0.2
  3
txt
  4

  0
STYLE
  5
540
330
4AC
100
AcDbSymbolTableRecord
100
AcDbTextStyleTableRecord
  2
textstyle0
 70
     0
 40
0.0
 41
1.0
 50
0.0
 71
     0
 42
0.2
  3

  4

1001
ACAD
1000
Arial
1071
        0
  0
STYLE
  5
541
330
4AC
100
AcDbSymbolTableRecord
100
AcDbTextStyleTableRecord
  2
textstyle1
 70
     0
 40
0.0
 41
1.0
 50
0.0
 71
     0
 42
0.2
  3

  4

1001
ACAD
1000
Arial
1071
        0
  0
STYLE
  5
542
330
4AC
100
AcDbSymbolTableRecord
100
AcDbTextStyleTableRecord
  2
textstyle2
 70
     0
 40
0.0
 41
1.0
 50
0.0
 71
     0
 42
0.2
  3

  4

1001
ACAD
1000
Arial
1071
        0
  0
STYLE
  5
543
330
4AC
100
AcDbSymbolTableRecord
100
AcDbTextStyleTableRecord
  2
textstyle3
 70
     0
 40
0.0
 41
1.0
 50
0.0
 71
     0
 42
0.2
  3

  4

1001
ACAD
1000
Arial
1071
        0
  0
STYLE
  5
544
330
4AC
100
AcDbSymbolTableRecord
100
AcDbTextStyleTableRecord
  2
textstyle4
 70
     0
 40
0.0
 41
1.0
 50
0.0
 71
     0
 42
0.2
  3

  4

1001
ACAD
1000
Arial
1071
        0
  0
STYLE
  5
545
330
4AC
100
AcDbSymbolTableRecord
100
AcDbTextStyleTableRecord
  2
textstyle5
 70
     0
 40
0.0
 41
1.0
 50
0.0
 71
     0
 42
0.2
  3

  4

1001
ACAD
1000
Andale Mono
1071
        0
  0
STYLE
  5
546
330
4AC
100
AcDbSymbolTableRecord
100
AcDbTextStyleTableRecord
  2
textstyle6
 70
     0
 40
0.0
 41
1.0
 50
0.0
 71
     0
 42
0.2
  3

  4

1001
ACAD
1000
Arial
1071
        0
  0
STYLE
  5
547
330
4AC
100
AcDbSymbolTableRecord
100
AcDbTextStyleTableRecord
  2
textstyle7
 70
     0
 40
0.0
 41
1.0
 50
0.0
 71
     0
 42
0.2
  3

  4

1001
ACAD
1000
Arial
1071
        0
  0
STYLE
  5
548
330
4AC
100
AcDbSymbolTableRecord
100
AcDbTextStyleTableRecord
  2
textstyle8
 70
     0
 40
0.0
 41
1.0
 50
0.0
 71
     0
 42
0.2
  3

  4

1001
ACAD
1000
Arial
1071
        0
  0
STYLE
  5
549
330
4AC
100
AcDbSymbolTableRecord
100
AcDbTextStyleTableRecord
  2
textstyle9
 70
     0
 40
0.0
 41
1.0
 50
0.0
 71
     0
 42
0.2
  3

  4

1001
ACAD
1000
Arial
1071
        0
  0
STYLE
  5
54A
330
4AC
100
AcDbSymbolTableRecord
100
AcDbTextStyleTableRecord
  2
textstyle10
 70
     0
 40
0.0
 41
1.0
 50
0.0
 71
     0
 42
0.2
  3

  4

1001
ACAD
1000
Arial
1071
        0
  0
ENDTAB
  0
TABLE
  2
VIEW
  5
4AF
330
0
100
AcDbSymbolTable
 70
     0
  0
ENDTAB
  0
TABLE
  2
UCS
  5
4B0
330
0
100
AcDbSymbolTable
 70
     0
  0
ENDTAB
  0
TABLE
  2
APPID
  5
4B2
330
0
100
AcDbSymbolTable
 70
     2
  0
APPID
  5
4BB
330
4B2
100
AcDbSymbolTableRecord
100
AcDbRegAppTableRecord
  2
ACAD
 70
     0
  0
APPID
  5
4E7
330
4B2
100
AcDbSymbolTableRecord
100
AcDbRegAppTableRecord
  2
QCAD
 70
     0
  0
ENDTAB
  0
TABLE
  2
DIMSTYLE
  5
4B3
330
0
100
AcDbSymbolTable
 70
     2
100
AcDbDimStyleTable
  0
DIMSTYLE
105
4CF
330
4B3
100
AcDbSymbolTableRecord
100
AcDbDimStyleTableRecord
  2
Standard
 70
     0
178
     0
340
4BA
  0
DIMSTYLE
105
4FE
330
4B3
100
AcDbSymbolTableRecord
100
AcDbDimStyleTableRecord
  2
QCADDimStyle
 70
     0
 73
     0
 77
     1
178
     0
340
4BA
  0
ENDTAB
  0
TABLE
  2
BLOCK_RECORD
  5
4AA
330
0
100
AcDbSymbolTable
 70
    16
  0
BLOCK_RECORD
  5
4C7
330
4AA
100
AcDbSymbolTableRecord
100
AcDbBlockTableRecord
  2
*Model_Space
340
4CA
 70
     0
280
     1
281
     0
  0
BLOCK_RECORD
  5
4C3
330
4AA
100
AcDbSymbolTableRecord
100
AcDbBlockTableRecord
  2
*Paper_Space
340
4C6
 70
     0
280
     1
281
     0
  0
BLOCK_RECORD
  5
4CB
330
4AA
100
AcDbSymbolTableRecord
100
AcDbBlockTableRecord
  2
*Paper_Space0
340
4CE
 70
     0
280
     1
281
     0
  0
BLOCK_RECORD
  5
513
330
4AA
100
AcDbSymbolTableRecord
100
AcDbBlockTableRecord
  2
RECT
340
0
 70
     0
280
     1
281
     0
  0
BLOCK_RECORD
  5
516
330
4AA
100
AcDbSymbolTableRecord
100
AcDbBlockTableRecord
  2
PIE
340
0
 70
     0
280
     1
281
     0
  0
BLOCK_RECORD
  5
519
330
4AA
100
AcDbSymbolTableRecord
100
AcDbBlockTableRecord
  2
OCTAGONP
340
0
 70
     0
280
     1
281
     0
  0
BLOCK_RECORD
  5
51C
330
4AA
100
AcDbSymbolTableRecord
100
AcDbBlockTableRecord
  2
SQUAREP
340
0
 70
     0
280
     1
281
     0
  0
BLOCK_RECORD
  5
51F
330
4AA
100
AcDbSymbolTableRecord
100
AcDbBlockTableRecord
  2
ROUNDP
340
0
 70
     0
280
     1
281
     0
  0
BLOCK_RECORD
  5
522
330
4AA
100
AcDbSymbolTableRecord
100
AcDbBlockTableRecord
  2
ANNULUSP
340
0
 70
     0
280
     1
281
     0
  0
BLOCK_RECORD
  5
525
330
4AA
100
AcDbSymbolTableRecord
100
AcDbBlockTableRecord
  2
BLOCK_2
340
0
 70
     0
280
     1
281
     0
  0
BLOCK_RECORD
  5
528
330
4AA
100
AcDbSymbolTableRecord
100
AcDbBlockTableRecord
  2
THERMALP
340
0
 70
     0
280
     1
281
     0
  0
BLOCK_RECORD
  5
52B
330
4AA
100
AcDbSymbolTableRecord
100
AcDbBlockTableRecord
  2
OCTAGONV
340
0
 70
     0
280
     1
281
     0
  0
BLOCK_RECORD
  5
52E
330
4AA
100
AcDbSymbolTableRecord
100
AcDbBlockTableRecord
  2
SQUAREV
340
0
 70
     0
280
     1
281
     0
  0
BLOCK_RECORD
  5
531
330
4AA
100
AcDbSymbolTableRecord
100
AcDbBlockTableRecord
  2
ROUNDV
340
0
 70
     0
280
     1
281
     0
  0
BLOCK_RECORD
  5
534
330
4AA
100
AcDbSymbolTableRecord
100
AcDbBlockTableRecord
  2
ANNULUSV
340
0
 70
     0
280
     1
281
     0
  0
BLOCK_RECORD
  5
537
330
4AA
100
AcDbSymbolTableRecord
100
AcDbBlockTableRecord
  2
THERMALV
340
0
 70
     0
280
     1
281
     0
  0
BLOCK_RECORD
  5
53A
330
4AA
100
AcDbSymbolTableRecord
100
AcDbBlockTableRecord
  2
OFFSETP100
340
0
 70
     0
280
     1
281
     0
  0
BLOCK_RECORD
  5
53D
330
4AA
100
AcDbSymbolTableRecord
100
AcDbBlockTableRecord
  2
LONGP100
340
0
 70
     0
280
     1
281
     0
  0
ENDTAB
  0
ENDSEC
  0
SECTION
  2
BLOCKS
  0
BLOCK
  5
4C8
330
4C7
100
AcDbEntity
  8
0
100
AcDbBlockBegin
  2
*Model_Space
 70
     0
 10
0.0
 20
0.0
 30
0.0
  3
*Model_Space
  1

  0
ENDBLK
  5
4C9
330
4C7
100
AcDbEntity
  8
0
100
AcDbBlockEnd
  0
BLOCK
  5
4C4
330
4C3
100
AcDbEntity
 67
     1
  8
0
100
AcDbBlockBegin
  2
*Paper_Space
 70
     0
 10
0.0
 20
0.0
 30
0.0
  3
*Paper_Space
  1

  0
ENDBLK
  5
4C5
330
4C3
100
AcDbEntity
 67
     1
  8
0
100
AcDbBlockEnd
  0
BLOCK
  5
4CC
330
4CB
100
AcDbEntity
  8
0
100
AcDbBlockBegin
  2
*Paper_Space0
 70
     0
 10
0.0
 20
0.0
 30
0.0
  3
*Paper_Space0
  1

  0
ENDBLK
  5
4CD
330
4CB
100
AcDbEntity
  8
0
100
AcDbBlockEnd
  0
BLOCK
  5
514
330
513
100
AcDbEntity
  8
0
100
AcDbBlockBegin
  2
RECT
 70
     0
 10
0.0
 20
0.0
 30
0.0
  3
RECT
  1

  0
SOLID
  5
11D
330
513
100
AcDbEntity
  8
0
100
AcDbTrace
 10
-0.5
 20
-0.5
 30
0.0
 11
0.5
 21
-0.5
 31
0.0
 12
-0.5
 22
0.5
 32
0.0
 13
0.5
 23
0.5
 33
0.0
  0
ENDBLK
  5
515
330
513
100
AcDbEntity
  8
0
100
AcDbBlockEnd
  0
BLOCK
  5
517
330
516
100
AcDbEntity
  8
0
100
AcDbBlockBegin
  2
PIE
 70
     0
 10
0.0
 20
0.0
 30
0.0
  3
PIE
  1

  0
LWPOLYLINE
  5
11E
330
516
100
AcDbEntity
  8
0
100
AcDbPolyline
 90
        3
 70
     0
 43
0.0
 10
0.0
 20
-0.25
 42
1.0
 10
0.0
 20
0.25
 42
1.0
 10
0.0
 20
-0.25
  0
ENDBLK
  5
518
330
516
100
AcDbEntity
  8
0
100
AcDbBlockEnd
  0
BLOCK
  5
51A
330
519
100
AcDbEntity
  8
0
100
AcDbBlockBegin
  2
OCTAGONP
 70
     0
 10
0.0
 20
0.0
 30
0.0
  3
OCTAGONP
  1

  0
LWPOLYLINE
  5
11F
330
519
100
AcDbEntity
  8
0
100
AcDbPolyline
 90
       10
 70
     0
 43
0.0
 10
-0.25
 20
-0.103553
 10
-0.25
 20
0.103553
 10
-0.103553
 20
0.25
 10
0.103553
 20
0.25
 10
0.25
 20
0.103553
 10
0.25
 20
-0.103553
 10
0.103553
 20
-0.25
 10
-0.103553
 20
-0.25
 10
-0.25
 20
-0.103553
 10
-0.25
 20
0.103553
  0
ENDBLK
  5
51B
330
519
100
AcDbEntity
  8
0
100
AcDbBlockEnd
  0
BLOCK
  5
51D
330
51C
100
AcDbEntity
  8
0
100
AcDbBlockBegin
  2
SQUAREP
 70
     0
 10
0.0
 20
0.0
 30
0.0
  3
SQUAREP
  1

  0
SOLID
  5
120
330
51C
100
AcDbEntity
  8
0
100
AcDbTrace
 10
-0.5
 20
-0.5
 30
0.0
 11
0.5
 21
-0.5
 31
0.0
 12
-0.5
 22
0.5
 32
0.0
 13
0.5
 23
0.5
 33
0.0
  0
ENDBLK
  5
51E
330
51C
100
AcDbEntity
  8
0
100
AcDbBlockEnd
  0
BLOCK
  5
520
330
51F
100
AcDbEntity
  8
0
100
AcDbBlockBegin
  2
ROUNDP
 70
     0
 10
0.0
 20
0.0
 30
0.0
  3
ROUNDP
  1

  0
LWPOLYLINE
  5
121
330
51F
100
AcDbEntity
  8
0
100
AcDbPolyline
 90
        3
 70
     0
 43
0.0
 10
0.0
 20
-0.25
 42
1.0
 10
0.0
 20
0.25
 42
1.0
 10
0.0
 20
-0.25
  0
ENDBLK
  5
521
330
51F
100
AcDbEntity
  8
0
100
AcDbBlockEnd
  0
BLOCK
  5
523
330
522
100
AcDbEntity
  8
0
100
AcDbBlockBegin
  2
ANNULUSP
 70
     0
 10
0.0
 20
0.0
 30
0.0
  3
ANNULUSP
  1

  0
LWPOLYLINE
  5
122
330
522
100
AcDbEntity
  8
0
100
AcDbPolyline
 90
        3
 70
     0
 43
0.0
 10
0.0
 20
-0.25
 42
1.0
 10
0.0
 20
0.25
 42
1.0
 10
0.0
 20
-0.25
  0
ENDBLK
  5
524
330
522
100
AcDbEntity
  8
0
100
AcDbBlockEnd
  0
BLOCK
  5
526
330
525
100
AcDbEntity
  8
0
100
AcDbBlockBegin
  2
BLOCK_2
 70
     0
 10
0.0
 20
0.0
 30
0.0
  3
BLOCK_2
  1

  0
ENDBLK
  5
527
330
525
100
AcDbEntity
  8
0
100
AcDbBlockEnd
  0
BLOCK
  5
529
330
528
100
AcDbEntity
  8
0
100
AcDbBlockBegin
  2
THERMALP
 70
     0
 10
0.0
 20
0.0
 30
0.0
  3
THERMALP
  1

  0
LWPOLYLINE
  5
3F1
330
528
100
AcDbEntity
  8
0
100
AcDbPolyline
 90
        2
 70
     0
 43
0.0
 10
-0.237868
 20
0.45
 10
0.237868
 20
0.45
  0
LWPOLYLINE
  5
3F2
330
528
100
AcDbEntity
  8
0
100
AcDbPolyline
 90
        2
 70
     0
 43
0.0
 10
0.237868
 20
0.425
 42
1.0
 10
0.237868
 20
0.475
  0
LWPOLYLINE
  5
3F3
330
528
100
AcDbEntity
  8
0
100
AcDbPolyline
 90
        2
 70
     0
 43
0.0
 10
-0.237868
 20
0.475
 42
1.0
 10
-0.237868
 20
0.425
  0
LWPOLYLINE
  5
3F4
330
528
100
AcDbEntity
  8
0
100
AcDbPolyline
 90
        2
 70
     0
 43
0.0
 10
0.45
 20
0.237868
 10
0.45
 20
-0.237868
  0
LWPOLYLINE
  5
3F5
330
528
100
AcDbEntity
  8
0
100
AcDbPolyline
 90
        2
 70
     0
 43
0.0
 10
0.425
 20
-0.237868
 42
1.0
 10
0.475
 20
-0.237868
  0
LWPOLYLINE
  5
3F6
330
528
100
AcDbEntity
  8
0
100
AcDbPolyline
 90
        2
 70
     0
 43
0.0
 10
0.475
 20
0.237868
 42
1.0
 10
0.425
 20
0.237868
  0
LWPOLYLINE
  5
3F7
330
528
100
AcDbEntity
  8
0
100
AcDbPolyline
 90
        2
 70
     0
 43
0.0
 10
0.237868
 20
-0.45
 10
-0.237868
 20
-0.45
  0
LWPOLYLINE
  5
3F8
330
528
100
AcDbEntity
  8
0
100
AcDbPolyline
 90
        2
 70
     0
 43
0.0
 10
-0.237868
 20
-0.425
 42
1.0
 10
-0.237868
 20
-0.475
  0
LWPOLYLINE
  5
3F9
330
528
100
AcDbEntity
  8
0
100
AcDbPolyline
 90
        2
 70
     0
 43
0.0
 10
0.237868
 20
-0.475
 42
1.0
 10
0.237868
 20
-0.425
  0
LWPOLYLINE
  5
3FA
330
528
100
AcDbEntity
  8
0
100
AcDbPolyline
 90
        2
 70
     0
 43
0.0
 10
-0.45
 20
-0.237868
 10
-0.45
 20
0.237868
  0
LWPOLYLINE
  5
3FB
330
528
100
AcDbEntity
  8
0
100
AcDbPolyline
 90
        2
 70
     0
 43
0.0
 10
-0.425
 20
0.237868
 42
1.0
 10
-0.475
 20
0.237868
  0
LWPOLYLINE
  5
3FC
330
528
100
AcDbEntity
  8
0
100
AcDbPolyline
 90
        2
 70
     0
 43
0.0
 10
-0.475
 20
-0.237868
 42
1.0
 10
-0.425
 20
-0.237868
  0
ENDBLK
  5
52A
330
528
100
AcDbEntity
  8
0
100
AcDbBlockEnd
  0
BLOCK
  5
52C
330
52B
100
AcDbEntity
  8
0
100
AcDbBlockBegin
  2
OCTAGONV
 70
     0
 10
0.0
 20
0.0
 30
0.0
  3
OCTAGONV
  1

  0
LWPOLYLINE
  5
3FD
330
52B
100
AcDbEntity
  8
0
100
AcDbPolyline
 90
       10
 70
     0
 43
0.0
 10
-0.25
 20
-0.103553
 10
-0.25
 20
0.103553
 10
-0.103553
 20
0.25
 10
0.103553
 20
0.25
 10
0.25
 20
0.103553
 10
0.25
 20
-0.103553
 10
0.103553
 20
-0.25
 10
-0.103553
 20
-0.25
 10
-0.25
 20
-0.103553
 10
-0.25
 20
0.103553
  0
ENDBLK
  5
52D
330
52B
100
AcDbEntity
  8
0
100
AcDbBlockEnd
  0
BLOCK
  5
52F
330
52E
100
AcDbEntity
  8
0
100
AcDbBlockBegin
  2
SQUAREV
 70
     0
 10
0.0
 20
0.0
 30
0.0
  3
SQUAREV
  1

  0
SOLID
  5
3FE
330
52E
100
AcDbEntity
  8
0
100
AcDbTrace
 10
-0.5
 20
-0.5
 30
0.0
 11
0.5
 21
-0.5
 31
0.0
 12
-0.5
 22
0.5
 32
0.0
 13
0.5
 23
0.5
 33
0.0
  0
ENDBLK
  5
530
330
52E
100
AcDbEntity
  8
0
100
AcDbBlockEnd
  0
BLOCK
  5
532
330
531
100
AcDbEntity
  8
0
100
AcDbBlockBegin
  2
ROUNDV
 70
     0
 10
0.0
 20
0.0
 30
0.0
  3
ROUNDV
  1

  0
LWPOLYLINE
  5
109
330
531
100
AcDbEntity
  8
0
100
AcDbPolyline
 90
        3
 70
     0
 43
0.0
 10
0.0
 20
-0.25
 42
1.0
 10
0.0
 20
0.25
 42
1.0
 10
0.0
 20
-0.25
  0
ENDBLK
  5
533
330
531
100
AcDbEntity
  8
0
100
AcDbBlockEnd
  0
BLOCK
  5
535
330
534
100
AcDbEntity
  8
0
100
AcDbBlockBegin
  2
ANNULUSV
 70
     0
 10
0.0
 20
0.0
 30
0.0
  3
ANNULUSV
  1

  0
LWPOLYLINE
  5
10A
330
534
100
AcDbEntity
  8
0
100
AcDbPolyline
 90
        3
 70
     0
 43
0.0
 10
0.0
 20
-0.25
 42
1.0
 10
0.0
 20
0.25
 42
1.0
 10
0.0
 20
-0.25
  0
ENDBLK
  5
536
330
534
100
AcDbEntity
  8
0
100
AcDbBlockEnd
  0
BLOCK
  5
538
330
537
100
AcDbEntity
  8
0
100
AcDbBlockBegin
  2
THERMALV
 70
     0
 10
0.0
 20
0.0
 30
0.0
  3
THERMALV
  1

  0
LWPOLYLINE
  5
10B
330
537
100
AcDbEntity
  8
0
100
AcDbPolyline
 90
        2
 70
     0
 43
0.0
 10
-0.237868
 20
0.45
 10
0.237868
 20
0.45
  0
LWPOLYLINE
  5
10C
330
537
100
AcDbEntity
  8
0
100
AcDbPolyline
 90
        2
 70
     0
 43
0.0
 10
0.237868
 20
0.425
 42
1.0
 10
0.237868
 20
0.475
  0
LWPOLYLINE
  5
10D
330
537
100
AcDbEntity
  8
0
100
AcDbPolyline
 90
        2
 70
     0
 43
0.0
 10
-0.237868
 20
0.475
 42
1.0
 10
-0.237868
 20
0.425
  0
LWPOLYLINE
  5
10E
330
537
100
AcDbEntity
  8
0
100
AcDbPolyline
 90
        2
 70
     0
 43
0.0
 10
0.45
 20
0.237868
 10
0.45
 20
-0.237868
  0
LWPOLYLINE
  5
10F
330
537
100
AcDbEntity
  8
0
100
AcDbPolyline
 90
        2
 70
     0
 43
0.0
 10
0.425
 20
-0.237868
 42
1.0
 10
0.475
 20
-0.237868
  0
LWPOLYLINE
  5
110
330
537
100
AcDbEntity
  8
0
100
AcDbPolyline
 90
        2
 70
     0
 43
0.0
 10
0.475
 20
0.237868
 42
1.0
 10
0.425
 20
0.237868
  0
LWPOLYLINE
  5
111
330
537
100
AcDbEntity
  8
0
100
AcDbPolyline
 90
        2
 70
     0
 43
0.0
 10
0.237868
 20
-0.45
 10
-0.237868
 20
-0.45
  0
LWPOLYLINE
  5
112
330
537
100
AcDbEntity
  8
0
100
AcDbPolyline
 90
        2
 70
     0
 43
0.0
 10
-0.237868
 20
-0.425
 42
1.0
 10
-0.237868
 20
-0.475
  0
LWPOLYLINE
  5
113
330
537
100
AcDbEntity
  8
0
100
AcDbPolyline
 90
        2
 70
     0
 43
0.0
 10
0.237868
 20
-0.475
 42
1.0
 10
0.237868
 20
-0.425
  0
LWPOLYLINE
  5
114
330
537
100
AcDbEntity
  8
0
100
AcDbPolyline
 90
        2
 70
     0
 43
0.0
 10
-0.45
 20
-0.237868
 10
-0.45
 20
0.237868
  0
LWPOLYLINE
  5
115
330
537
100
AcDbEntity
  8
0
100
AcDbPolyline
 90
        2
 70
     0
 43
0.0
 10
-0.425
 20
0.237868
 42
1.0
 10
-0.475
 20
0.237868
  0
LWPOLYLINE
  5
116
330
537
100
AcDbEntity
  8
0
100
AcDbPolyline
 90
        2
 70
     0
 43
0.0
 10
-0.475
 20
-0.237868
 42
1.0
 10
-0.425
 20
-0.237868
  0
ENDBLK
  5
539
330
537
100
AcDbEntity
  8
0
100
AcDbBlockEnd
  0
BLOCK
  5
53B
330
53A
100
AcDbEntity
  8
0
100
AcDbBlockBegin
  2
OFFSETP100
 70
     0
 10
0.0
 20
0.0
 30
0.0
  3
OFFSETP100
  1

  0
LWPOLYLINE
  5
117
330
53A
100
AcDbEntity
  8
0
100
AcDbPolyline
 90
        2
 70
     0
 43
0.0
 10
0.0
 20
0.0
 10
1.0
 20
0.0
  0
LWPOLYLINE
  5
118
330
53A
100
AcDbEntity
  8
0
100
AcDbPolyline
 90
        2
 70
     0
 43
0.0
 10
1.0
 20
-0.25
 42
1.0
 10
1.0
 20
0.25
  0
LWPOLYLINE
  5
119
330
53A
100
AcDbEntity
  8
0
100
AcDbPolyline
 90
        2
 70
     0
 43
0.0
 10
0.0
 20
0.25
 42
1.0
 10
0.0
 20
-0.25
  0
ENDBLK
  5
53C
330
53A
100
AcDbEntity
  8
0
100
AcDbBlockEnd
  0
BLOCK
  5
53E
330
53D
100
AcDbEntity
  8
0
100
AcDbBlockBegin
  2
LONGP100
 70
     0
 10
0.0
 20
0.0
 30
0.0
  3
LONGP100
  1

  0
LWPOLYLINE
  5
11A
330
53D
100
AcDbEntity
  8
0
100
AcDbPolyline
 90
        2
 70
     0
 43
0.0
 10
-0.5
 20
0.0
 10
0.5
 20
0.0
  0
LWPOLYLINE
  5
11B
330
53D
100
AcDbEntity
  8
0
100
AcDbPolyline
 90
        2
 70
     0
 43
0.0
 10
0.5
 20
-0.25
 42
1.0
 10
0.5
 20
0.25
  0
LWPOLYLINE
  5
11C
330
53D
100
AcDbEntity
  8
0
100
AcDbPolyline
 90
        2
 70
     0
 43
0.0
 10
-0.5
 20
0.25
 42
1.0
 10
-0.5
 20
-0.25
  0
ENDBLK
  5
53F
330
53D
100
AcDbEntity
  8
0
100
AcDbBlockEnd
  0
ENDSEC
  0
SECTION
  2
ENTITIES
  0
LWPOLYLINE
  5
3FF
330
4C7
100
AcDbEntity
  8
CUT
100
AcDbPolyline
 90
        2
 70
     0
 43
0.0
 10
1.995
 20
0.2572500000002851
 10
1.995
 20
0.7322500000002847
  0
LWPOLYLINE
  5
400
330
4C7
100
AcDbEntity
  8
CUT
100
AcDbPolyline
 90
        2
 70
     0
 43
0.0
 10
1.99525
 20
0.7322500000002847
 42
1.0
 10
1.99475
 20
0.7322500000002847
  0
LWPOLYLINE
  5
401
330
4C7
100
AcDbEntity
  8
CUT
100
AcDbPolyline
 90
        2
 70
     0
 43
0.0
 10
1.99475
 20
0.2572500000002851
 42
1.0
 10
1.99525
 20
0.2572500000002851
  0
LWPOLYLINE
  5
402
330
4C7
100
AcDbEntity
  8
CUT
100
AcDbPolyline
 90
        2
 70
     0
 43
0.0
 10
2.0075
 20
0.744750000000284
 42
0.414214
 10
1.995
 20
0.7322500000002847
  0
LWPOLYLINE
  5
403
330
4C7
100
AcDbEntity
  8
CUT
100
AcDbPolyline
 90
        2
 70
     0
 43
0.0
 10
2.0075
 20
0.7445000000002846
 42
1.0
 10
2.0075
 20
0.7450000000002852
  0
LWPOLYLINE
  5
404
330
4C7
100
AcDbEntity
  8
CUT
100
AcDbPolyline
 90
        2
 70
     0
 43
0.0
 10
1.99475
 20
0.7322500000002847
 42
1.0
 10
1.99525
 20
0.7322500000002847
  0
LWPOLYLINE
  5
405
330
4C7
100
AcDbEntity
  8
CUT
100
AcDbPolyline
 90
        2
 70
     0
 43
0.0
 10
2.0075
 20
0.744750000000284
 10
2.1825
 20
0.744750000000284
  0
LWPOLYLINE
  5
406
330
4C7
100
AcDbEntity
  8
CUT
100
AcDbPolyline
 90
        2
 70
     0
 43
0.0
 10
2.1825
 20
0.7445000000002846
 42
1.0
 10
2.1825
 20
0.7450000000002852
  0
LWPOLYLINE
  5
407
330
4C7
100
AcDbEntity
  8
CUT
100
AcDbPolyline
 90
        2
 70
     0
 43
0.0
 10
2.0075
 20
0.7450000000002852
 42
1.0
 10
2.0075
 20
0.7445000000002846
  0
LWPOLYLINE
  5
408
330
4C7
100
AcDbEntity
  8
CUT
100
AcDbPolyline
 90
        2
 70
     0
 43
0.0
 10
2.195
 20
0.7322500000002847
 42
0.414214
 10
2.1825
 20
0.744750000000284
  0
LWPOLYLINE
  5
409
330
4C7
100
AcDbEntity
  8
CUT
100
AcDbPolyline
 90
        2
 70
     0
 43
0.0
 10
2.19475
 20
0.7322500000002847
 42
1.0
 10
2.19525
 20
0.7322500000002847
  0
LWPOLYLINE
  5
40A
330
4C7
100
AcDbEntity
  8
CUT
100
AcDbPolyline
 90
        2
 70
     0
 43
0.0
 10
2.1825
 20
0.7450000000002852
 42
1.0
 10
2.1825
 20
0.7445000000002846
  0
LWPOLYLINE
  5
40B
330
4C7
100
AcDbEntity
  8
CUT
100
AcDbPolyline
 90
        2
 70
     0
 43
0.0
 10
2.195
 20
0.7322500000002847
 10
2.195
 20
0.2572500000002851
  0
LWPOLYLINE
  5
40C
330
4C7
100
AcDbEntity
  8
CUT
100
AcDbPolyline
 90
        2
 70
     0
 43
0.0
 10
2.19475
 20
0.2572500000002851
 42
1.0
 10
2.19525
 20
0.2572500000002851
  0
LWPOLYLINE
  5
40D
330
4C7
100
AcDbEntity
  8
CUT
100
AcDbPolyline
 90
        2
 70
     0
 43
0.0
 10
2.19525
 20
0.7322500000002847
 42
1.0
 10
2.19475
 20
0.7322500000002847
  0
LWPOLYLINE
  5
40E
330
4C7
100
AcDbEntity
  8
CUT
100
AcDbPolyline
 90
        2
 70
     0
 43
0.0
 10
2.1825
 20
0.244750000000284
 42
0.414214
 10
2.195
 20
0.2572500000002851
  0
LWPOLYLINE
  5
40F
330
4C7
100
AcDbEntity
  8
CUT
100
AcDbPolyline
 90
        2
 70
     0
 43
0.0
 10
2.1825
 20
0.2450000000002852
 42
1.0
 10
2.1825
 20
0.2445000000002846
  0
LWPOLYLINE
  5
410
330
4C7
100
AcDbEntity
  8
CUT
100
AcDbPolyline
 90
        2
 70
     0
 43
0.0
 10
2.19525
 20
0.2572500000002851
 42
1.0
 10
2.19475
 20
0.2572500000002851
  0
LWPOLYLINE
  5
411
330
4C7
100
AcDbEntity
  8
CUT
100
AcDbPolyline
 90
        2
 70
     0
 43
0.0
 10
2.1825
 20
0.244750000000284
 10
2.0075
 20
0.244750000000284
  0
LWPOLYLINE
  5
412
330
4C7
100
AcDbEntity
  8
CUT
100
AcDbPolyline
 90
        2
 70
     0
 43
0.0
 10
2.0075
 20
0.2450000000002852
 42
1.0
 10
2.0075
 20
0.2445000000002846
  0
LWPOLYLINE
  5
413
330
4C7
100
AcDbEntity
  8
CUT
100
AcDbPolyline
 90
        2
 70
     0
 43
0.0
 10
2.1825
 20
0.2445000000002846
 42
1.0
 10
2.1825
 20
0.2450000000002852
  0
LWPOLYLINE
  5
414
330
4C7
100
AcDbEntity
  8
CUT
100
AcDbPolyline
 90
        2
 70
     0
 43
0.0
 10
1.995
 20
0.2572500000002851
 42
0.414214
 10
2.0075
 20
0.244750000000284
  0
LWPOLYLINE
  5
415
330
4C7
100
AcDbEntity
  8
CUT
100
AcDbPolyline
 90
        2
 70
     0
 43
0.0
 10
1.99525
 20
0.2572500000002851
 42
1.0
 10
1.99475
 20
0.2572500000002851
  0
LWPOLYLINE
  5
416
330
4C7
100
AcDbEntity
  8
CUT
100
AcDbPolyline
 90
        2
 70
     0
 43
0.0
 10
2.0075
 20
0.2445000000002846
 42
1.0
 10
2.0075
 20
0.2450000000002852
  0
LWPOLYLINE
  5
417
330
4C7
100
AcDbEntity
  8
CUT
100
AcDbPolyline
 90
        2
 70
     0
 43
0.0
 10
1.7575
 20
0.244750000000284
 10
1.4325
 20
0.244750000000284
  0
LWPOLYLINE
  5
418
330
4C7
100
AcDbEntity
  8
CUT
100
AcDbPolyline
 90
        2
 70
     0
 43
0.0
 10
1.4325
 20
0.2450000000002852
 42
1.0
 10
1.4325
 20
0.2445000000002846
  0
LWPOLYLINE
  5
419
330
4C7
100
AcDbEntity
  8
CUT
100
AcDbPolyline
 90
        2
 70
     0
 43
0.0
 10
1.7575
 20
0.2445000000002846
 42
1.0
 10
1.7575
 20
0.2450000000002852
  0
LWPOLYLINE
  5
41A
330
4C7
100
AcDbEntity
  8
CUT
100
AcDbPolyline
 90
        2
 70
     0
 43
0.0
 10
1.42
 20
0.2572500000002851
 42
0.414214
 10
1.4325
 20
0.244750000000284
  0
LWPOLYLINE
  5
41B
330
4C7
100
AcDbEntity
  8
CUT
100
AcDbPolyline
 90
        2
 70
     0
 43
0.0
 10
1.42025
 20
0.2572500000002851
 42
1.0
 10
1.41975
 20
0.2572500000002851
  0
LWPOLYLINE
  5
41C
330
4C7
100
AcDbEntity
  8
CUT
100
AcDbPolyline
 90
        2
 70
     0
 43
0.0
 10
1.4325
 20
0.2445000000002846
 42
1.0
 10
1.4325
 20
0.2450000000002852
  0
LWPOLYLINE
  5
41D
330
4C7
100
AcDbEntity
  8
CUT
100
AcDbPolyline
 90
        2
 70
     0
 43
0.0
 10
1.42
 20
0.2572500000002851
 10
1.42
 20
0.5322500000002854
  0
LWPOLYLINE
  5
41E
330
4C7
100
AcDbEntity
  8
CUT
100
AcDbPolyline
 90
        2
 70
     0
 43
0.0
 10
1.42025
 20
0.5322500000002854
 42
1.0
 10
1.41975
 20
0.5322500000002854
  0
LWPOLYLINE
  5
41F
330
4C7
100
AcDbEntity
  8
CUT
100
AcDbPolyline
 90
        2
 70
     0
 43
0.0
 10
1.41975
 20
0.2572500000002851
 42
1.0
 10
1.42025
 20
0.2572500000002851
  0
LWPOLYLINE
  5
420
330
4C7
100
AcDbEntity
  8
CUT
100
AcDbPolyline
 90
        2
 70
     0
 43
0.0
 10
1.4325
 20
0.5447500000002847
 42
0.414214
 10
1.42
 20
0.5322500000002854
  0
LWPOLYLINE
  5
421
330
4C7
100
AcDbEntity
  8
CUT
100
AcDbPolyline
 90
        2
 70
     0
 43
0.0
 10
1.4325
 20
0.5445000000002853
 42
1.0
 10
1.4325
 20
0.5450000000002841
  0
LWPOLYLINE
  5
422
330
4C7
100
AcDbEntity
  8
CUT
100
AcDbPolyline
 90
        2
 70
     0
 43
0.0
 10
1.41975
 20
0.5322500000002854
 42
1.0
 10
1.42025
 20
0.5322500000002854
  0
LWPOLYLINE
  5
423
330
4C7
100
AcDbEntity
  8
CUT
100
AcDbPolyline
 90
        2
 70
     0
 43
0.0
 10
1.4325
 20
0.5447500000002847
 10
1.7575
 20
0.5447500000002847
  0
LWPOLYLINE
  5
424
330
4C7
100
AcDbEntity
  8
CUT
100
AcDbPolyline
 90
        2
 70
     0
 43
0.0
 10
1.7575
 20
0.5445000000002853
 42
1.0
 10
1.7575
 20
0.5450000000002841
  0
LWPOLYLINE
  5
425
330
4C7
100
AcDbEntity
  8
CUT
100
AcDbPolyline
 90
        2
 70
     0
 43
0.0
 10
1.4325
 20
0.5450000000002841
 42
1.0
 10
1.4325
 20
0.5445000000002853
  0
LWPOLYLINE
  5
426
330
4C7
100
AcDbEntity
  8
CUT
100
AcDbPolyline
 90
        2
 70
     0
 43
0.0
 10
1.77
 20
0.5322500000002854
 42
0.414214
 10
1.7575
 20
0.5447500000002847
  0
LWPOLYLINE
  5
427
330
4C7
100
AcDbEntity
  8
CUT
100
AcDbPolyline
 90
        2
 70
     0
 43
0.0
 10
1.76975
 20
0.5322500000002854
 42
1.0
 10
1.77025
 20
0.5322500000002854
  0
LWPOLYLINE
  5
428
330
4C7
100
AcDbEntity
  8
CUT
100
AcDbPolyline
 90
        2
 70
     0
 43
0.0
 10
1.7575
 20
0.5450000000002841
 42
1.0
 10
1.7575
 20
0.5445000000002853
  0
LWPOLYLINE
  5
429
330
4C7
100
AcDbEntity
  8
CUT
100
AcDbPolyline
 90
        2
 70
     0
 43
0.0
 10
1.77
 20
0.5322500000002854
 10
1.77
 20
0.2572500000002851
  0
LWPOLYLINE
  5
42A
330
4C7
100
AcDbEntity
  8
CUT
100
AcDbPolyline
 90
        2
 70
     0
 43
0.0
 10
1.76975
 20
0.2572500000002851
 42
1.0
 10
1.77025
 20
0.2572500000002851
  0
LWPOLYLINE
  5
42B
330
4C7
100
AcDbEntity
  8
CUT
100
AcDbPolyline
 90
        2
 70
     0
 43
0.0
 10
1.77025
 20
0.5322500000002854
 42
1.0
 10
1.76975
 20
0.5322500000002854
  0
LWPOLYLINE
  5
42C
330
4C7
100
AcDbEntity
  8
CUT
100
AcDbPolyline
 90
        2
 70
     0
 43
0.0
 10
1.7575
 20
0.244750000000284
 42
0.414214
 10
1.77
 20
0.2572500000002851
  0
LWPOLYLINE
  5
42D
330
4C7
100
AcDbEntity
  8
CUT
100
AcDbPolyline
 90
        2
 70
     0
 43
0.0
 10
1.7575
 20
0.2450000000002852
 42
1.0
 10
1.7575
 20
0.2445000000002846
  0
LWPOLYLINE
  5
42E
330
4C7
100
AcDbEntity
  8
CUT
100
AcDbPolyline
 90
        2
 70
     0
 43
0.0
 10
1.77025
 20
0.2572500000002851
 42
1.0
 10
1.76975
 20
0.2572500000002851
  0
LWPOLYLINE
  5
42F
330
4C7
100
AcDbEntity
  8
CUT
100
AcDbPolyline
 90
        2
 70
     0
 43
0.0
 10
6.89
 20
-0.0002499999997152
 10
6.89
 20
1.594750000000285
  0
LWPOLYLINE
  5
430
330
4C7
100
AcDbEntity
  8
CUT
100
AcDbPolyline
 90
        2
 70
     0
 43
0.0
 10
6.89025
 20
1.594750000000285
 42
1.0
 10
6.88975
 20
1.594750000000285
  0
LWPOLYLINE
  5
431
330
4C7
100
AcDbEntity
  8
CUT
100
AcDbPolyline
 90
        2
 70
     0
 43
0.0
 10
6.88975
 20
-0.0002499999997152
 42
1.0
 10
6.89025
 20
-0.0002499999997152
  0
LWPOLYLINE
  5
432
330
4C7
100
AcDbEntity
  8
CUT
100
AcDbPolyline
 90
        2
 70
     0
 43
0.0
 10
6.89
 20
1.594750000000285
 10
0.0
 20
1.594750000000285
  0
LWPOLYLINE
  5
433
330
4C7
100
AcDbEntity
  8
CUT
100
AcDbPolyline
 90
        2
 70
     0
 43
0.0
 10
0.0
 20
1.595000000000285
 42
1.0
 10
0.0
 20
1.594500000000284
  0
LWPOLYLINE
  5
434
330
4C7
100
AcDbEntity
  8
CUT
100
AcDbPolyline
 90
        2
 70
     0
 43
0.0
 10
6.89
 20
1.594500000000284
 42
1.0
 10
6.89
 20
1.595000000000285
  0
LWPOLYLINE
  5
435
330
4C7
100
AcDbEntity
  8
CUT
100
AcDbPolyline
 90
        2
 70
     0
 43
0.0
 10
0.0
 20
1.594750000000285
 10
0.0
 20
-0.0002499999997152
  0
LWPOLYLINE
  5
436
330
4C7
100
AcDbEntity
  8
CUT
100
AcDbPolyline
 90
        2
 70
     0
 43
0.0
 10
-0.00025
 20
-0.0002499999997152
 42
1.0
 10
0.00025
 20
-0.0002499999997152
  0
LWPOLYLINE
  5
437
330
4C7
100
AcDbEntity
  8
CUT
100
AcDbPolyline
 90
        2
 70
     0
 43
0.0
 10
0.00025
 20
1.594750000000285
 42
1.0
 10
-0.00025
 20
1.594750000000285
  0
LWPOLYLINE
  5
438
330
4C7
100
AcDbEntity
  8
CUT
100
AcDbPolyline
 90
        2
 70
     0
 43
0.0
 10
0.0
 20
-0.0002499999997152
 10
6.89
 20
-0.0002499999997152
  0
LWPOLYLINE
  5
439
330
4C7
100
AcDbEntity
  8
CUT
100
AcDbPolyline
 90
        2
 70
     0
 43
0.0
 10
6.89
 20
-0.0004999999997146
 42
1.0
 10
6.89
 20
0.0000000000002842
  0
LWPOLYLINE
  5
43A
330
4C7
100
AcDbEntity
  8
CUT
100
AcDbPolyline
 90
        2
 70
     0
 43
0.0
 10
0.0
 20
0.0000000000002842
 42
1.0
 10
0.0
 20
-0.0004999999997146
  0
LWPOLYLINE
  5
43B
330
4C7
100
AcDbEntity
  8
CUT
100
AcDbPolyline
 90
        3
 70
     0
 43
0.0
 10
6.27
 20
0.2072500000002844
 42
1.0
 10
6.27
 20
0.6572500000002854
 42
1.0
 10
6.27
 20
0.2072500000002844
  0
LWPOLYLINE
  5
43C
330
4C7
100
AcDbEntity
  8
CUT
100
AcDbPolyline
 90
        3
 70
     0
 43
0.0
 10
5.57
 20
0.2072500000002844
 42
1.0
 10
5.57
 20
0.6572500000002854
 42
1.0
 10
5.57
 20
0.2072500000002844
  0
LWPOLYLINE
  5
43D
330
4C7
100
AcDbEntity
  8
CUT
100
AcDbPolyline
 90
        3
 70
     0
 43
0.0
 10
5.57
 20
0.9572500000002844
 42
1.0
 10
5.57
 20
1.407250000000285
 42
1.0
 10
5.57
 20
0.9572500000002844
  0
LWPOLYLINE
  5
43E
330
4C7
100
AcDbEntity
  8
CUT
100
AcDbPolyline
 90
        3
 70
     0
 43
0.0
 10
4.87
 20
0.2072500000002844
 42
1.0
 10
4.87
 20
0.6572500000002854
 42
1.0
 10
4.87
 20
0.2072500000002844
  0
LWPOLYLINE
  5
43F
330
4C7
100
AcDbEntity
  8
CUT
100
AcDbPolyline
 90
        3
 70
     0
 43
0.0
 10
4.17
 20
0.2072500000002844
 42
1.0
 10
4.17
 20
0.6572500000002854
 42
1.0
 10
4.17
 20
0.2072500000002844
  0
LWPOLYLINE
  5
440
330
4C7
100
AcDbEntity
  8
CUT
100
AcDbPolyline
 90
        3
 70
     0
 43
0.0
 10
4.17
 20
0.9572500000002844
 42
1.0
 10
4.17
 20
1.407250000000285
 42
1.0
 10
4.17
 20
0.9572500000002844
  0
LWPOLYLINE
  5
441
330
4C7
100
AcDbEntity
  8
CUT
100
AcDbPolyline
 90
        3
 70
     0
 43
0.0
 10
4.87
 20
0.9572500000002844
 42
1.0
 10
4.87
 20
1.407250000000285
 42
1.0
 10
4.87
 20
0.9572500000002844
  0
LWPOLYLINE
  5
442
330
4C7
100
AcDbEntity
  8
CUT
100
AcDbPolyline
 90
        3
 70
     0
 43
0.0
 10
3.47
 20
0.2072500000002844
 42
1.0
 10
3.47
 20
0.6572500000002854
 42
1.0
 10
3.47
 20
0.2072500000002844
  0
LWPOLYLINE
  5
443
330
4C7
100
AcDbEntity
  8
CUT
100
AcDbPolyline
 90
        3
 70
     0
 43
0.0
 10
3.47
 20
0.9572500000002844
 42
1.0
 10
3.47
 20
1.407250000000285
 42
1.0
 10
3.47
 20
0.9572500000002844
  0
LWPOLYLINE
  5
444
330
4C7
100
AcDbEntity
  8
CUT
100
AcDbPolyline
 90
        3
 70
     0
 43
0.0
 10
6.27
 20
1.132250000000285
 42
1.0
 10
6.27
 20
1.382250000000285
 42
1.0
 10
6.27
 20
1.132250000000285
  0
LWPOLYLINE
  5
445
330
4C7
100
AcDbEntity
  8
CUT
100
AcDbPolyline
 90
        3
 70
     0
 43
0.0
 10
0.5950000000000001
 20
0.2572500000002851
 42
1.0
 10
0.5950000000000001
 20
0.5072500000002851
 42
1.0
 10
0.5950000000000001
 20
0.2572500000002851
  0
LWPOLYLINE
  5
446
330
4C7
100
AcDbEntity
  8
CUT
100
AcDbPolyline
 90
        3
 70
     0
 43
0.0
 10
2.545
 20
0.3322500000002844
 42
1.0
 10
2.545
 20
0.5822500000002844
 42
1.0
 10
2.545
 20
0.3322500000002844
  0
LWPOLYLINE
  5
447
330
4C7
100
AcDbEntity
  8
CUT
100
AcDbPolyline
 90
        3
 70
     0
 43
0.0
 10
0.995
 20
0.307250000000284
 42
1.0
 10
0.995
 20
0.557250000000284
 42
1.0
 10
0.995
 20
0.307250000000284
  0
LWPOLYLINE
  5
448
330
4C7
100
AcDbEntity
  8
CUT
100
AcDbPolyline
 90
        3
 70
     0
 43
0.0
 10
0.145
 20
0.6947500000002851
 42
1.0
 10
0.145
 20
0.7947500000002847
 42
1.0
 10
0.145
 20
0.6947500000002851
  0
LWPOLYLINE
  5
449
330
4C7
100
AcDbEntity
  8
CUT
100
AcDbPolyline
 90
        3
 70
     0
 43
0.0
 10
4.87
 20
0.9572500000002844
 42
1.0
 10
4.87
 20
1.407250000000285
 42
1.0
 10
4.87
 20
0.9572500000002844
  0
LWPOLYLINE
  5
44A
330
4C7
100
AcDbEntity
  8
CUT
100
AcDbPolyline
 90
        3
 70
     0
 43
0.0
 10
5.57
 20
0.2072500000002844
 42
1.0
 10
5.57
 20
0.6572500000002854
 42
1.0
 10
5.57
 20
0.2072500000002844
  0
LWPOLYLINE
  5
44B
330
4C7
100
AcDbEntity
  8
CUT
100
AcDbPolyline
 90
        3
 70
     0
 43
0.0
 10
6.745
 20
0.6947500000002851
 42
1.0
 10
6.745
 20
0.7947500000002847
 42
1.0
 10
6.745
 20
0.6947500000002851
  0
LINE
  5
44C
330
4C7
100
AcDbEntity
  8
0
100
AcDbLine
 10
3.47
 20
1.407250000000285
 30
0.0
 11
3.47
 21
0.9572500000002844
 31
0.0
  0
LINE
  5
44D
330
4C7
100
AcDbEntity
  8
0
100
AcDbLine
 10
3.47
 20
0.6572500000002854
 30
0.0
 11
3.47
 21
0.2072500000002844
 31
0.0
  0
LINE
  5
451
330
4C7
100
AcDbEntity
  8
0
100
AcDbLine
 10
0.4700000000000001
 20
0.3822500000002851
 30
0.0
 11
0.7200000000000001
 21
0.382250000000285
 31
0.0
  0
LINE
  5
452
330
4C7
100
AcDbEntity
  8
0
100
AcDbLine
 10
0.87
 20
0.432250000000284
 30
0.0
 11
1.12
 21
0.432250000000284
 31
0.0
  0
LINE
  5
453
330
4C7
100
AcDbEntity
  8
0
100
AcDbLine
 10
2.38
 20
0.4572500000002844
 30
0.0
 11
2.71
 21
0.4572500000002843
 31
0.0
  0
LINE
  5
46B
330
4C7
100
AcDbEntity
  8
0
100
AcDbLine
 10
3.47
 20
0.9572500000002844
 30
0.0
 11
3.47
 21
0.6572500000002854
 31
0.0
  0
LINE
  5
46C
330
4C7
100
AcDbEntity
  8
0
100
AcDbLine
 10
4.17
 20
0.9572500000002844
 30
0.0
 11
4.17
 21
0.6572500000002854
 31
0.0
  0
LINE
  5
46D
330
4C7
100
AcDbEntity
  8
0
100
AcDbLine
 10
4.87
 20
0.9572500000002844
 30
0.0
 11
4.87
 21
0.6572500000002854
 31
0.0
  0
LINE
  5
46E
330
4C7
100
AcDbEntity
  8
0
100
AcDbLine
 10
5.57
 20
0.9572500000002844
 30
0.0
 11
5.57
 21
0.6572500000002854
 31
0.0
  0
LINE
  5
473
330
4C7
100
AcDbEntity
  8
etch
100
AcDbLine
 10
3.049999999999999
 20
0.3699999999999997
 30
0.0
 11
3.1
 21
0.4699999999999998
 31
0.0
  0
LINE
  5
474
330
4C7
100
AcDbEntity
  8
etch
100
AcDbLine
 10
3.1
 20
0.4699999999999998
 30
0.0
 11
3.0
 21
0.4699999999999998
 31
0.0
  0
LINE
  5
475
330
4C7
100
AcDbEntity
  8
etch
100
AcDbLine
 10
3.0
 20
0.4699999999999998
 30
0.0
 11
3.049999999999999
 21
0.3699999999999997
 31
0.0
  0
LWPOLYLINE
  5
484
330
4C7
100
AcDbEntity
  8
etch
100
AcDbPolyline
 90
      216
 70
     1
 43
0.0
 10
1.608966838147826
 20
1.122932437453613
 10
1.607321132534147
 20
1.122932437453613
 10
1.602788365966743
 20
1.122932437453613
 10
1.595975063856058
 20
1.122932437453613
 10
1.587487751612542
 20
1.122932437453613
 10
1.577932954646639
 20
1.122932437453613
 10
1.567917198368796
 20
1.122932437453613
 10
1.558047008189461
 20
1.122932437453613
 10
1.548928909519079
 20
1.122932437453613
 10
1.541163139312642
 20
1.122932437453613
 10
1.535036046572996
 20
1.122932437453613
 10
1.530380788829365
 20
1.122932437453613
 10
1.526995190944937
 20
1.122932437453613
 10
1.524677077782895
 20
1.122932437453613
 10
1.523224274206423
 20
1.122932437453613
 10
1.522434605078707
 20
1.122932437453613
 10
1.522105895262929
 20
1.122932437453613
 10
1.522035969622276
 20
1.122932437453613
 10
1.522035229930843
 20
1.122920154985433
 10
1.522035229930843
 20
1.122764991946473
 10
1.522035229930843
 20
1.122270228771346
 10
1.522035229930843
 20
1.121238423520418
 10
1.522035229930843
 20
1.119472134254057
 10
1.522035229930843
 20
1.11677391903263
 10
1.522035229930843
 20
1.112946335916505
 10
1.522035229930843
 20
1.107791942966049
 10
1.522035229930843
 20
1.101113348786765
 10
1.522035229930843
 20
1.092837319793942
 10
1.522035229930843
 20
1.0832818670323
 10
1.522035229930843
 20
1.072841874381104
 10
1.522035229930843
 20
1.061912225719619
 10
1.522035229930843
 20
1.05088780492711
 10
1.522035229930843
 20
1.040163495882843
 10
1.522035229930843
 20
1.030134182466083
 10
1.522035229930843
 20
1.021194748556095
 10
1.522035229930843
 20
1.013731399789938
 10
1.522035229930843
 20
1.007860853369787
 10
1.522035229930843
 20
1.003384625699216
 10
1.522035229930843
 20
1.00008634204986
 10
1.522035229930843
 20
0.9977496276933582
 10
1.522035229930843
 20
0.9961581079013417
 10
1.522035229930843
 20
0.995095407945449
 10
1.522035229930843
 20
0.9943451530973149
 10
1.522035229930843
 20
0.9936909686285735
 10
1.5220338835992
 20
0.992936867118601
 10
1.52201989437197
 20
0.9920375360930331
 10
1.521977505961642
 20
0.9910151960343898
 10
1.521890941044274
 20
0.9898923859768751
 10
1.521744422295921
 20
0.988691644954695
 10
1.52152217239264
 20
0.9874355120020524
 10
1.521208414010488
 20
0.9861465261531543
 10
1.520787369825524
 20
0.9848472264422037
 10
1.520243281900976
 20
0.9835601445178157
 10
1.519567702779928
 20
0.9823050270838991
 10
1.518770448936629
 20
0.9810946631562991
 10
1.517864142230234
 20
0.9799407730328029
 10
1.516861404519898
 20
0.9788550770111955
 10
1.515774857664776
 20
0.9778492953892639
 10
1.514617123524022
 20
0.9769351484647955
 10
1.51340082395679
 20
0.9761243565355759
 10
1.512138580822235
 20
0.975428639899391
 10
1.510842794137717
 20
0.9748590850203231
 10
1.509521210594533
 20
0.9744134831451454
 10
1.508177160142055
 20
0.9740770062579733
 10
1.506813798245069
 20
0.973834327815547
 10
1.505434280368366
 20
0.973670121274608
 10
1.504041761976734
 20
0.973569060091896
 10
1.50263939853496
 20
0.973515817724153
 10
1.501230345507835
 20
0.9734950676281195
 10
1.499817758360147
 20
0.9734914832605355
 10
1.498404843755754
 20
0.9734932196148394
 10
1.4969951027772
 20
0.9735084521552995
 10
1.495592141540135
 20
0.9735524985970869
 10
1.494199566290033
 20
0.9736406854834614
 10
1.492820983272365
 20
0.9737883393576812
 10
1.491459998732603
 20
0.9740107867630055
 10
1.49012021891622
 20
0.9743233542426932
 10
1.488805250068692
 20
0.9747413683400035
 10
1.487518717130264
 20
0.9752800932822749
 10
1.486266748669895
 20
0.9759464478678213
 10
1.485060471339664
 20
0.976730690617871
 10
1.48391160543736
 20
0.9776211012346374
 10
1.482831871260769
 20
0.9786059594203358
 10
1.481832989107676
 20
0.9796735448771796
 10
1.480926679275869
 20
0.9808121373073806
 10
1.480124662063133
 20
0.9820100164131536
 10
1.479438657767255
 20
0.9832554618967124
 10
1.478879412999744
 20
0.9845363639857585
 10
1.478443105140399
 20
0.9858347852153115
 10
1.478114696145599
 20
0.9871283019510226
 10
1.477878859472083
 20
0.9883943751586852
 10
1.477720268576594
 20
0.9896104658040952
 10
1.477623596915872
 20
0.9907540348530495
 10
1.477573517946657
 20
0.9918025432713413
 10
1.477554705125691
 20
0.9927334520247673
 10
1.477551831909715
 20
0.9935242220791232
 10
1.477551831746232
 20
0.994239789336788
 10
1.477551831746232
 20
0.9953396444397862
 10
1.477551831746232
 20
0.9973944694064216
 10
1.477551831746232
 20
1.000974952582754
 10
1.477551831746232
 20
1.006651782314846
 10
1.477551831746232
 20
1.014995646948758
 10
1.477551831746232
 20
1.026577234830552
 10
1.477551831746232
 20
1.041967234306289
 10
1.477551831746232
 20
1.061727190360709
 10
1.477551831746232
 20
1.085813453892958
 10
1.477551831746232
 20
1.113210250769184
 10
1.477551831746232
 20
1.142814069874729
 10
1.477551831746232
 20
1.173521400094931
 10
1.477551831746232
 20
1.204228730315135
 10
1.477551831746232
 20
1.233832549420679
 10
1.477551831746232
 20
1.261229346296905
 10
1.477551831746232
 20
1.285315609829157
 10
1.477551831746232
 20
1.305075565883578
 10
1.477551831746232
 20
1.320465565359316
 10
1.477551831746232
 20
1.332047153241111
 10
1.477551831746232
 20
1.340391017875024
 10
1.477551831746232
 20
1.346067847607116
 10
1.477551831746232
 20
1.34964833078345
 10
1.477551831746232
 20
1.351703155750085
 10
1.477551831746232
 20
1.352803010853084
 10
1.477551831909715
 20
1.353518578110749
 10
1.477554705125691
 20
1.354309348165104
 10
1.477573517946657
 20
1.355240256918529
 10
1.477623596915872
 20
1.356288765336821
 10
1.477720268576594
 20
1.357432334385776
 10
1.477878859472083
 20
1.358648425031186
 10
1.478114696145599
 20
1.359914498238848
 10
1.478443105140399
 20
1.361208014974558
 10
1.478879412999744
 20
1.362506436204111
 10
1.479438657767255
 20
1.363787338293158
 10
1.480124662063132
 20
1.365032783776716
 10
1.480926679275868
 20
1.366230662882491
 10
1.481832989107676
 20
1.367369255312691
 10
1.482831871260769
 20
1.368436840769534
 10
1.48391160543736
 20
1.369421698955232
 10
1.485060471339664
 20
1.370312109572
 10
1.486266748669895
 20
1.37109635232205
 10
1.487518717130263
 20
1.371762706907596
 10
1.48880386489538
 20
1.372301431849867
 10
1.490103016029017
 20
1.372719445947178
 10
1.491393656423339
 20
1.373032013426866
 10
1.49265324704414
 20
1.37325446083219
 10
1.493859248857215
 20
1.37340211470641
 10
1.494989122828362
 20
1.373490301592784
 10
1.496020329923374
 20
1.373534348034571
 10
1.496930331108047
 20
1.373549580575032
 10
1.49769664888515
 20
1.37355132134338
 10
1.498346591447549
 20
1.37355132134338
 10
1.499047021446567
 20
1.37355132134338
 10
1.499989069892258
 20
1.37355132134338
 10
1.501363867794678
 20
1.37355132134338
 10
1.503362546163882
 20
1.37355132134338
 10
1.506176236009927
 20
1.37355132134338
 10
1.509996068342865
 20
1.37355132134338
 10
1.515013174172755
 20
1.37355132134338
 10
1.52140881366764
 20
1.37355132134338
 10
1.529114385594944
 20
1.37355132134338
 10
1.537798043419366
 20
1.37355132134338
 10
1.547115390698257
 20
1.37355132134338
 10
1.556722030988972
 20
1.37355132134338
 10
1.566273567848864
 20
1.37355132134338
 10
1.575425604835285
 20
1.37355132134338
 10
1.58383374550559
 20
1.37355132134338
 10
1.591153593417131
 20
1.37355132134338
 10
1.597101891706182
 20
1.37355132134338
 10
1.60179342124709
 20
1.37355132134338
 10
1.605502284959129
 20
1.37355132134338
 10
1.608503008278915
 20
1.37355132134338
 10
1.611070116643058
 20
1.37355132134338
 10
1.61347813548817
 20
1.37355132134338
 10
1.616001590250865
 20
1.37355132134338
 10
1.618915006367755
 20
1.37355132134338
 10
1.622492379758408
 20
1.373551198731034
 10
1.626895448729155
 20
1.373524837076628
 10
1.632035490024712
 20
1.373388124310757
 10
1.637789891299004
 20
1.373049101173865
 10
1.64403604020596
 20
1.372415808406396
 10
1.650651324399505
 20
1.371396286748798
 10
1.657513131533566
 20
1.369898576941514
 10
1.664498849262073
 20
1.367830719724989
 10
1.671485865238948
 20
1.36510075583967
 10
1.678353348314884
 20
1.36162187170554
 10
1.685011847951053
 20
1.357397908839528
 10
1.691398743209442
 20
1.352510216494257
 10
1.697452277136331
 20
1.347042639876971
 10
1.703110692777998
 20
1.341079024194908
 10
1.708312233180724
 20
1.33470321465531
 10
1.712995141390787
 20
1.32799905646542
 10
1.717097660454468
 20
1.321050394832478
 10
1.720558033418045
 20
1.313941074963725
 10
1.723333165758711
 20
1.306744060523614
 10
1.72547494547785
 20
1.299476933516721
 10
1.727065402389118
 20
1.292139701097839
 10
1.728186578577017
 20
1.284732363266966
 10
1.728920516126052
 20
1.277254920024102
 10
1.729349257120731
 20
1.26970737136925
 10
1.729554843645555
 20
1.262089717302407
 10
1.729619317785031
 20
1.254401957823574
 10
1.729623961316527
 20
1.246644033559525
 10
1.729580462423011
 20
1.238810450496258
 10
1.729375980731591
 20
1.230885990047078
 10
1.728884748431406
 20
1.222854424107358
 10
1.727980997711595
 20
1.214699524572469
 10
1.726538960761294
 20
1.206405063337787
 10
1.724432869769643
 20
1.19795481229868
 10
1.721536956925779
 20
1.189332543350525
 10
1.717725454418842
 20
1.180522028388692
 10
1.712867513151548
 20
1.171520392456592
 10
1.706767109333083
 20
1.162496033629467
 10
1.699183078095906
 20
1.153735976533039
 10
1.689873350212658
 20
1.145529622366497
 10
1.678595856455981
 20
1.138166372329027
 10
1.665108527598518
 20
1.131935627619815
 10
1.649169294412911
 20
1.127126789438051
 10
1.630536087671803
 20
1.124029258982921
  0
LWPOLYLINE
  5
485
330
4C7
100
AcDbEntity
  8
etch
100
AcDbPolyline
 90
      120
 70
     1
 43
0.0
 10
1.610711285135458
 20
1.329067923158769
 10
1.609234774933281
 20
1.329067923158769
 10
1.605143475738704
 20
1.329067923158769
 10
1.598944734669654
 20
1.329067923158769
 10
1.591145898844061
 20
1.329067923158769
 10
1.582254315379853
 20
1.329067923158769
 10
1.572777331394959
 20
1.329067923158769
 10
1.563222294007305
 20
1.329067923158769
 10
1.554096550334822
 20
1.329067923158769
 10
1.545907447495438
 20
1.329067923158769
 10
1.539111015445505
 20
1.329067923158769
 10
1.533744176882776
 20
1.329067923158769
 10
1.529639201664638
 20
1.329067923158769
 10
1.526626974085115
 20
1.329067923158769
 10
1.524538378438233
 20
1.329067923158769
 10
1.523204299018013
 20
1.329067923158769
 10
1.522455620118479
 20
1.329067923158769
 10
1.522123226033656
 20
1.329067923158769
 10
1.522038001057568
 20
1.329067923158769
 10
1.522035229930843
 20
1.329062575293605
 10
1.522035229930843
 20
1.328943191609756
 10
1.522035229930843
 20
1.32850761344916
 10
1.522035229930843
 20
1.327550314401931
 10
1.522035229930843
 20
1.325865768058182
 10
1.522035229930843
 20
1.323248448008029
 10
1.522035229930843
 20
1.319492827841586
 10
1.522035229930843
 20
1.314393381148966
 10
1.522035229930843
 20
1.307744581520284
 10
1.522035229930843
 20
1.29934389610283
 10
1.522035229930843
 20
1.289206620102803
 10
1.522035229930843
 20
1.277709707852762
 10
1.522035229930843
 20
1.265264212172479
 10
1.522035229930843
 20
1.252281185881726
 10
1.522035229930843
 20
1.239171681800274
 10
1.522035229930843
 20
1.226346752747894
 10
1.522035229930843
 20
1.214217451544357
 10
1.522035229930843
 20
1.203194831009437
 10
1.522035229930843
 20
1.193689897188574
 10
1.522035229930843
 20
1.185985494460597
 10
1.522035229930843
 20
1.179956922459382
 10
1.522035229930843
 20
1.175398654775041
 10
1.522035229930843
 20
1.17210516499769
 10
1.522035229930843
 20
1.169870926717442
 10
1.522035229930843
 20
1.168490413524413
 10
1.522035229930843
 20
1.167758099008715
 10
1.522035229930843
 20
1.167468456760463
 10
1.522035229930843
 20
1.167415960369772
 10
1.522046389843124
 20
1.167415835638223
 10
1.522151138741798
 20
1.167415835638223
 10
1.522459935443093
 20
1.167415835638223
 10
1.523083305840094
 20
1.167415835638223
 10
1.524131775825889
 20
1.167415835638223
 10
1.52571587129356
 20
1.167415835638223
 10
1.527946118136197
 20
1.167415835638223
 10
1.530933042246885
 20
1.167415835638223
 10
1.534787169518709
 20
1.167415835638223
 10
1.539606147087984
 20
1.167415835638223
 10
1.545306187574219
 20
1.167415835638223
 10
1.551669383418971
 20
1.167415835638223
 10
1.558474682836067
 20
1.167415835638223
 10
1.565501034039334
 20
1.167415835638223
 10
1.572527385242602
 20
1.167415835638223
 10
1.579332684659698
 20
1.167415835638223
 10
1.58569588050445
 20
1.167415835638223
 10
1.591395920990684
 20
1.167415835638223
 10
1.596215396308384
 20
1.167415835638223
 10
1.600092248782306
 20
1.167415835638223
 10
1.603174577329135
 20
1.167415835638223
 10
1.605625398399878
 20
1.167415835638223
 10
1.60760772844554
 20
1.167415835638223
 10
1.60928458391713
 20
1.167415835638223
 10
1.610818981265652
 20
1.167415835638223
 10
1.612373936942114
 20
1.167415835638223
 10
1.614112467397522
 20
1.167415835638223
 10
1.616197453583142
 20
1.167415864577737
 10
1.618735154496266
 20
1.167428044495722
 10
1.62168786066012
 20
1.16749524566483
 10
1.624995318828641
 20
1.167665153169372
 10
1.628597275755766
 20
1.167985452093653
 10
1.632433478195432
 20
1.168503827521985
 10
1.636443672901574
 20
1.169267964538672
 10
1.640567606628128
 20
1.170325548228025
 10
1.644745026129031
 20
1.17172426367435
 10
1.64891567815822
 20
1.173511795961956
 10
1.653022362251859
 20
1.175724539726592
 10
1.65702327082317
 20
1.178341960392033
 10
1.660881436923864
 20
1.181325620703202
 10
1.664559895372305
 20
1.184637076871201
 10
1.668021680986861
 20
1.188237885107129
 10
1.671229828585896
 20
1.192089601622088
 10
1.674147372987776
 20
1.196153782627178
 10
1.676737349010867
 20
1.2003919843335
 10
1.678962791473537
 20
1.204765762952153
 10
1.680791253039276
 20
1.209237962586742
 10
1.682238204037605
 20
1.213785087128016
 10
1.683347975709919
 20
1.218391867785495
 10
1.684165295925999
 20
1.223043148834712
 10
1.684734892555618
 20
1.227723774551195
 10
1.685101493468556
 20
1.232418589210474
 10
1.685309826534589
 20
1.23711243708808
 10
1.685404619623497
 20
1.241790162459542
 10
1.685430600605054
 20
1.246436609600392
 10
1.685430737759282
 20
1.25103735872473
 10
1.685399162604206
 20
1.255598415749182
 10
1.685276013320321
 20
1.260148369001765
 10
1.684998633924756
 20
1.264716975453697
 10
1.684504368434642
 20
1.269333992076192
 10
1.683730560867108
 20
1.274029175840465
 10
1.682614555239285
 20
1.278832283717733
 10
1.681093695568304
 20
1.28377307267921
 10
1.679105325871293
 20
1.288881299696113
 10
1.676586649337632
 20
1.294186305313508
 10
1.673454068376202
 20
1.299655922392201
 10
1.669581387608947
 20
1.305132022595059
 10
1.664837195815157
 20
1.310441054394307
 10
1.659090081774123
 20
1.315409466262175
 10
1.652208634265135
 20
1.319863706670889
 10
1.644061442067485
 20
1.323630224092677
 10
1.634517093960463
 20
1.326535466999769
 10
1.623444178723358
 20
1.328405883864391
  0
LWPOLYLINE
  5
486
330
4C7
100
AcDbEntity
  8
etch
100
AcDbPolyline
 90
      384
 70
     1
 43
0.0
 10
2.108750900104332
 20
0.9955878073564939
 10
2.108547366628588
 20
0.9915040975161264
 10
2.107973750557915
 20
0.9879967308538042
 10
2.107085528427154
 20
0.9850162282979138
 10
2.105938176771142
 20
0.9825131107768414
 10
2.104587172124722
 20
0.9804378992189744
 10
2.10308799102273
 20
0.978741114552697
 10
2.101496110000008
 20
0.9773732777063964
 10
2.099867005591394
 20
0.97628490960846
 10
2.098253381607916
 20
0.9754276402767983
 10
2.096673952785149
 20
0.9747666953595033
 10
2.095124641658147
 20
0.9742764173848752
 10
2.093600950129491
 20
0.9739313171342054
 10
2.09209838010176
 20
0.9737059053887818
 10
2.090612433477537
 20
0.9735746929298963
 10
2.0891386121594
 20
0.9735121905388369
 10
2.087672418049931
 20
0.973492908996896
 10
2.086209392972087
 20
0.9734915586872439
 10
2.084748061487641
 20
0.9734977636871365
 10
2.08329194518861
 20
0.9735261332250367
 10
2.081845042383808
 20
0.9735936601134192
 10
2.080411351382056
 20
0.9737173371647581
 10
2.078994870492168
 20
0.9739141571915246
 10
2.077599598022964
 20
0.9742011130061945
 10
2.07622953228326
 20
0.974595197421239
 10
2.074888671581874
 20
0.9751134032491335
 10
2.073582326403764
 20
0.9757683493818796
 10
2.07232178806077
 20
0.9765527186218719
 10
2.071120050933317
 20
0.9774535168762288
 10
2.069990109525061
 20
0.9784577496412921
 10
2.068944958339658
 20
0.9795524224134073
 10
2.067997591880764
 20
0.9807245406889173
 10
2.067161004652037
 20
0.981961109964167
 10
2.06644819115713
 20
0.9832491357355004
 10
2.065871018736122
 20
0.9845751726338279
 10
2.065425056453129
 20
0.9859192559796797
 10
2.065093610949848
 20
0.987256516124615
 10
2.064859689413806
 20
0.9885619636385261
 10
2.064706299032528
 20
0.9898106090913044
 10
2.064616446993543
 20
0.9909774630528432
 10
2.064573140484375
 20
0.9920375360930331
 10
2.064559386692553
 20
0.9929658387817675
 10
2.064558243084328
 20
0.9937383443786463
 10
2.064558243084328
 20
0.9944358746404289
 10
2.064558243084328
 20
0.9953369057830466
 10
2.064558243084328
 20
0.9967418107563968
 10
2.064558243084328
 20
0.9989509625103759
 10
2.064558243084328
 20
1.002264733994882
 10
2.064558243084328
 20
1.006983498159813
 10
2.064558243084328
 20
1.013407627955064
 10
2.064558243084328
 20
1.021837496330533
 10
2.064558243084328
 20
1.032464486562978
 10
2.064558243084328
 20
1.044913438050002
 10
2.064558243084328
 20
1.058625681283768
 10
2.064558243084328
 20
1.073042452607062
 10
2.064558243084328
 20
1.087604988362674
 10
2.064558243084328
 20
1.101754524893388
 10
2.064558243084328
 20
1.114932298541993
 10
2.064558243084328
 20
1.126579545651276
 10
2.064558243084328
 20
1.136162726607644
 10
2.064558243084328
 20
1.143583069245752
 10
2.064558243084328
 20
1.149108474263746
 10
2.064558243084328
 20
1.153018323490233
 10
2.064558243084328
 20
1.155591998753819
 10
2.064558243084328
 20
1.157108881883112
 10
2.064558243084328
 20
1.157848354706718
 10
2.064558243084328
 20
1.158089799053241
 10
2.064557621788806
 20
1.158112118370855
 10
2.064449133650059
 20
1.158112118370855
 10
2.063898919306761
 20
1.158112118370855
 10
2.062544132233745
 20
1.158112118370855
 10
2.060021925905844
 20
1.158112118370855
 10
2.055969453797891
 20
1.158112118370855
 10
2.050023869384719
 20
1.158112118370855
 10
2.041822326141163
 20
1.158112118370855
 10
2.031001977542054
 20
1.158112118370855
 10
2.017319265802316
 20
1.158112118370855
 10
2.001239014408799
 20
1.158112118370855
 10
1.983486513812338
 20
1.158112118370855
 10
1.964787457063268
 20
1.158112118370855
 10
1.945867537211922
 20
1.158112118370855
 10
1.927452447308635
 20
1.158112118370855
 10
1.91026788040374
 20
1.158112118370855
 10
1.895039529547571
 20
1.158112118370855
 10
1.882467321422602
 20
1.158112118370855
 10
1.872714935091328
 20
1.158112118370855
 10
1.865439370692715
 20
1.158112118370855
 10
1.860277781701597
 20
1.158112118370855
 10
1.856867321592806
 20
1.158112118370855
 10
1.854845143841175
 20
1.158112118370855
 10
1.853848401921537
 20
1.158112118370855
 10
1.853514249308725
 20
1.158112118370855
 10
1.853480157580881
 20
1.158111873440072
 10
1.853480157580881
 20
1.158036790673908
 10
1.853480157580881
 20
1.157633737935033
 10
1.853480157580881
 20
1.15662333339484
 10
1.853480157580881
 20
1.154726195224722
 10
1.853480157580881
 20
1.151662941596073
 10
1.853480157580881
 20
1.147154190680286
 10
1.853480157580881
 20
1.140920560648755
 10
1.853480157580881
 20
1.132682669672873
 10
1.853480157580881
 20
1.122239884997857
 10
1.853480157580881
 20
1.109927191567129
 10
1.853480157580881
 20
1.096302618245555
 10
1.853480157580881
 20
1.081924928690345
 10
1.853480157580881
 20
1.067352886558713
 10
1.853480157580881
 20
1.053145255507872
 10
1.853480157580881
 20
1.039860799195035
 10
1.853480157580881
 20
1.028058281277415
 10
1.853480157580881
 20
1.018280801309541
 10
1.853480157580881
 20
1.010671559364977
 10
1.853480157580881
 20
1.004950518759367
 10
1.853480157580881
 20
1.000817306542813
 10
1.853480157580881
 20
0.9979715497654185
 10
1.853480157580881
 20
0.9961128754772874
 10
1.853480157580881
 20
0.9949409107285214
 10
1.853480157580881
 20
0.9941552825692248
 10
1.85348015129604
 20
0.9934557383857117
 10
1.853476066382393
 20
0.9926198786375571
 10
1.853452772202471
 20
0.9916370375804888
 10
1.853393275943802
 20
0.9905322046446172
 10
1.853280584793912
 20
0.9893303692600472
 10
1.853097705940326
 20
0.9880565208568892
 10
1.852827646570574
 20
0.9867356488652486
 10
1.85245341387218
 20
0.9853927427152354
 10
1.851958015032672
 20
0.9840527918369557
 10
1.851326852872952
 20
0.9827398274071697
 10
1.850564058628268
 20
0.981470389236893
 10
1.849682575455543
 20
0.980257492368479
 10
1.848695397858431
 20
0.9791141313055818
 10
1.847615520340587
 20
0.978053300551859
 10
1.84645593740567
 20
0.977087994610965
 10
1.845229643557333
 20
0.9762312079865583
 10
1.843949633299235
 20
0.9754959351822929
 10
1.842628777902861
 20
0.9748947599279274
 10
1.841276012973899
 20
0.9744271470672274
 10
1.839895607562243
 20
0.9740770062579733
 10
1.838491559976713
 20
0.9738273446876928
 10
1.837067868526123
 20
0.9736611695439119
 10
1.835628531519292
 20
0.9735614880141572
 10
1.834177547265037
 20
0.9735113072859554
 10
1.832718914072175
 20
0.9734936345468319
 10
1.831256630249523
 20
0.9734914807086663
 10
1.829794694105899
 20
0.97349511590705
 10
1.82833710395012
 20
0.9735172215537744
 10
1.826887858091001
 20
0.9735747904613117
 10
1.825450954837364
 20
0.9736848154421371
 10
1.824030392498023
 20
0.9738642893087244
 10
1.822630169381795
 20
0.9741302048735441
 10
1.821254283797499
 20
0.974499554949072
 10
1.819906734053951
 20
0.9749893323477814
 10
1.818592123899617
 20
0.9756145117499817
 10
1.817320522183219
 20
0.9763718508351389
 10
1.816104896790262
 20
0.9772484438267592
 10
1.814958242224403
 20
0.9782312962211865
 10
1.813893552989297
 20
0.9793074135147635
 10
1.812923823588601
 20
0.9804638012038365
 10
1.812062048525972
 20
0.9816874647847464
 10
1.811321222305066
 20
0.9829654097538383
 10
1.810714039975366
 20
0.9842845218257881
 10
1.810240934163942
 20
0.9856267817463051
 10
1.809886039221897
 20
0.9869676509507113
 10
1.809632362336759
 20
0.9882821400088988
 10
1.809462910696056
 20
0.989545259490761
 10
1.809360691487311
 20
0.9907320199661893
 10
1.809308711898053
 20
0.9918174320050748
 10
1.809289979115809
 20
0.9927765061773106
 10
1.809287500560876
 20
0.9935842620624287
 10
1.809287500560876
 20
0.9943402324763422
 10
1.809287500560876
 20
0.9955812151337413
 10
1.809287500560876
 20
0.9979399424049575
 10
1.809287500560876
 20
1.002049146660326
 10
1.809287500560876
 20
1.008541560270176
 10
1.809287500560876
 20
1.018049915604841
 10
1.809287500560876
 20
1.031206945034655
 10
1.809287500560876
 20
1.048645380929948
 10
1.809287500560876
 20
1.070893807061001
 10
1.809287500560876
 20
1.097389103061557
 10
1.809287500560876
 20
1.126916507861711
 10
1.809287500560876
 20
1.158252538963379
 10
1.809287500560876
 20
1.190173713868478
 10
1.809287500560876
 20
1.221456550078925
 10
1.809287500560876
 20
1.250877565096636
 10
1.809287500560876
 20
1.277213276423528
 10
1.809287500560876
 20
1.299253220136523
 10
1.809287500560876
 20
1.316492350918809
 10
1.809287500560876
 20
1.329477585338674
 10
1.809287500560876
 20
1.338841655766449
 10
1.809287500560876
 20
1.345217294572466
 10
1.809287500560876
 20
1.34923723412706
 10
1.809287500560876
 20
1.351534206800561
 10
1.809287500560876
 20
1.352740944963302
 10
1.809287500560876
 20
1.353490180985615
 10
1.809290332696289
 20
1.354305026937759
 10
1.809310157644175
 20
1.3552701136897
 10
1.809363968217006
 20
1.356360451811331
 10
1.809468757227259
 20
1.35755105187254
 10
1.809641517487405
 20
1.358816924443224
 10
1.809899241809918
 20
1.360133080093272
 10
1.810258923007271
 20
1.361474529392579
 10
1.810737553891939
 20
1.362816282911033
 10
1.811350740914484
 20
1.364133905763292
 10
1.812097095987755
 20
1.365409760879098
 10
1.812963834924326
 20
1.366630769628304
 10
1.813937963220544
 20
1.36778393750725
 10
1.815006486372754
 20
1.368856270012283
 10
1.816156409877296
 20
1.369834772639745
 10
1.817374739230516
 20
1.370706450885981
 10
1.818648479928759
 20
1.371458310247334
 10
1.819964679737001
 20
1.372077497115596
 10
1.821313544614263
 20
1.372561685196023
 10
1.822690571492758
 20
1.372926184771205
 10
1.824091762063671
 20
1.373187988653612
 10
1.825513118018184
 20
1.373364089655719
 10
1.826950641047479
 20
1.373471480589998
 10
1.828400332842741
 20
1.373527154268924
 10
1.82985819509515
 20
1.373548103504969
 10
1.831320229495892
 20
1.373551321110608
 10
1.832782437736146
 20
1.373548842788447
 10
1.834240821507097
 20
1.373530110006203
 10
1.835691382499928
 20
1.373478130416945
 10
1.837130122405819
 20
1.3733759112082
 10
1.838553042915957
 20
1.373206459567496
 10
1.839956145721522
 20
1.372952782682359
 10
1.841335432513696
 20
1.372597887740314
 10
1.842686904983664
 20
1.37212478192889
 10
1.844006226673535
 20
1.37151759959919
 10
1.845284171642626
 20
1.370776773378282
 10
1.846507835223537
 20
1.369914998315653
 10
1.847664222912609
 20
1.368945268914958
 10
1.848740340206187
 20
1.367880579679852
 10
1.849723192600612
 20
1.366733925113993
 10
1.850599785592233
 20
1.365518299721035
 10
1.851357124677389
 20
1.364246698004636
 10
1.851982304079591
 20
1.362932149959317
 10
1.852472081478299
 20
1.361591550961981
 10
1.852841431553828
 20
1.360249083189871
 10
1.853107347118649
 20
1.358929736073098
 10
1.853286820985235
 20
1.357658499041766
 10
1.85339684596606
 20
1.356460361525984
 10
1.853454414873598
 20
1.355360312955861
 10
1.853476520520322
 20
1.354383342761504
 10
1.853480155718705
 20
1.353554440373022
 10
1.853480157580881
 20
1.352860299837987
 10
1.853480157580881
 20
1.352088550338931
 10
1.853480157580881
 20
1.350962342071248
 10
1.853480157580881
 20
1.349204792149343
 10
1.853480157580881
 20
1.34653901768762
 10
1.853480157580881
 20
1.342688135800483
 10
1.853480157580881
 20
1.337375263602337
 10
1.853480157580881
 20
1.330323518207586
 10
1.853480157580881
 20
1.321279751698335
 10
1.853480157580881
 20
1.31039991754806
 10
1.853480157580881
 20
1.298184995931849
 10
1.853480157580881
 20
1.285146770378307
 10
1.853480157580881
 20
1.271797024416047
 10
1.853480157580881
 20
1.258647541573679
 10
1.853480157580881
 20
1.246210105379813
 10
1.853480157580881
 20
1.234996499363056
 10
1.853480157580881
 20
1.225517192575548
 10
1.853480157580881
 20
1.218057068874719
 10
1.853480157580881
 20
1.212421564710674
 10
1.853480157580881
 20
1.208354788319107
 10
1.853480157580881
 20
1.205600847935713
 10
1.853480157580881
 20
1.203903851796188
 10
1.853480157580881
 20
1.203007908136225
 10
1.853480157580881
 20
1.202657125191522
 10
1.853480157580881
 20
1.202595611197771
 10
1.853519920494244
 20
1.202595516555465
 10
1.853875336324977
 20
1.202595516555465
 10
1.854909117398414
 20
1.202595516555465
 10
1.85698411023972
 20
1.202595516555465
 10
1.860463161374065
 20
1.202595516555465
 10
1.865709117326613
 20
1.202595516555465
 10
1.873084824622532
 20
1.202595516555465
 10
1.88295312978699
 20
1.202595516555465
 10
1.895651112977293
 20
1.202595516555465
 10
1.910979606730769
 20
1.202595516555465
 10
1.928232764661217
 20
1.202595516555465
 10
1.946684893718302
 20
1.202595516555465
 10
1.965610300851691
 20
1.202595516555465
 10
1.984283293011051
 20
1.202595516555465
 10
2.001978177146047
 20
1.202595516555465
 10
2.017969260206347
 20
1.202595516555465
 10
2.031531803451534
 20
1.202595516555465
 10
2.042230745935417
 20
1.202595516555465
 10
2.050326658999621
 20
1.202595516555465
 10
2.056182389169318
 20
1.202595516555465
 10
2.060160782969674
 20
1.202595516555465
 10
2.062624686925856
 20
1.202595516555465
 10
2.063936947563028
 20
1.202595516555465
 10
2.064460411406362
 20
1.202595516555465
 10
2.06455792498102
 20
1.202595516555465
 10
2.064558243084328
 20
1.202619559206507
 10
2.064558243084328
 20
1.202855215043642
 10
2.064558243084328
 20
1.203558151493854
 10
2.064558243084328
 20
1.204984260321452
 10
2.064558243084328
 20
1.207389433290737
 10
2.064558243084328
 20
1.211029562166017
 10
2.064558243084328
 20
1.216160538711595
 10
2.064558243084328
 20
1.223038254691778
 10
2.064558243084328
 20
1.231904605325366
 10
2.064558243084328
 20
1.242644158546246
 10
2.064558243084328
 20
1.254763302148597
 10
2.064558243084328
 20
1.267750252603807
 10
2.064558243084328
 20
1.281093226383269
 10
2.064558243084328
 20
1.29428043995837
 10
2.064558243084328
 20
1.306800109800502
 10
2.064558243084328
 20
1.318140452381053
 10
2.064558243084328
 20
1.327789975861961
 10
2.064558243084328
 20
1.335425901384575
 10
2.064558243084328
 20
1.341238685006273
 10
2.064558243084328
 20
1.345505209612651
 10
2.064558243084328
 20
1.348502358089302
 10
2.064558243084328
 20
1.350507013321825
 10
2.064558243084328
 20
1.351796058195815
 10
2.064558243084328
 20
1.352646375596867
 10
2.064558243084328
 20
1.353334848410576
 10
2.064559600609906
 20
1.354114243479893
 10
2.064574285954776
 20
1.355048794943324
 10
2.064619262834924
 20
1.35611403026125
 10
2.064711524062824
 20
1.357284960003563
 10
2.064868062450948
 20
1.358536594740154
 10
2.065105870811772
 20
1.359843945040918
 10
2.065441941957768
 20
1.361182021475742
 10
2.06589326870141
 20
1.362525834614524
 10
2.066476433081271
 20
1.363850559336712
 10
2.067194898249937
 20
1.365136618076155
 10
2.068036572174004
 20
1.366370655341094
 10
2.068988460349817
 20
1.367539676627875
 10
2.070037568273717
 20
1.368630687432841
 10
2.071170901442053
 20
1.369630693252336
 10
2.072375465351164
 20
1.370526699582702
 10
2.073638265497397
 20
1.371305711920287
 10
2.074946308362953
 20
1.371954739047622
 10
2.076288521989251
 20
1.372467194944641
 10
2.077659766814353
 20
1.372856268246746
 10
2.079056044529441
 20
1.373138951766408
 10
2.080473356825698
 20
1.3733322383161
 10
2.081907705394307
 20
1.373453120708299
 10
2.083355091926451
 20
1.373518591755474
 10
2.084811518113313
 20
1.373545644270103
 10
2.086272985646073
 20
1.373551271064655
 10
2.087735496215917
 20
1.373550177735155
 10
2.089195051514026
 20
1.373536423943331
 10
2.090647653231583
 20
1.373493117434165
 10
2.092089303059772
 20
1.373403265395179
 10
2.093516002689773
 20
1.373249875013901
 10
2.094923753812773
 20
1.373015953477859
 10
2.09630855811995
 20
1.372684507974578
 10
2.09766641730249
 20
1.372238545691585
 10
2.098993243215322
 20
1.371661373270578
 10
2.100281268986655
 20
1.370948559775672
 10
2.101517838261905
 20
1.370111972546944
 10
2.102689956537415
 20
1.36916460608805
 10
2.10378462930953
 20
1.368119454902648
 10
2.104788862074594
 20
1.366989513494391
 10
2.105689660328949
 20
1.365787776366938
 10
2.106474029568943
 20
1.364527238023944
 10
2.107128975701689
 20
1.363220893133375
 10
2.107647181529584
 20
1.361884007121307
 10
2.108041265944628
 20
1.360539819849659
 10
2.108328221759298
 20
1.35921332074854
 10
2.108525041786065
 20
1.357929499248058
 10
2.108648718837404
 20
1.356713344778319
 10
2.108716245725787
 20
1.355589846769433
 10
2.108744615263687
 20
1.354583994651507
 10
2.108750820263579
 20
1.353720777854649
 10
2.108750900104332
 20
1.35297112051524
 10
2.108750900104332
 20
1.351739224751558
 10
2.108750900104332
 20
1.349091015009118
 10
2.108750900104332
 20
1.344087888293066
 10
2.108750900104332
 20
1.335791241608548
 10
2.108750900104332
 20
1.323262471960712
 10
2.108750900104332
 20
1.305562976354706
 10
2.108750900104332
 20
1.281754151795675
 10
2.108750900104332
 20
1.250923285217414
 10
2.108750900104332
 20
1.213560523496059
 10
2.108750900104332
 20
1.17224804110154
 10
2.108750900104332
 20
1.129738673654545
 10
2.108750900104332
 20
1.088785256775762
 10
2.108750900104332
 20
1.052140626085878
 10
2.108750900104332
 20
1.02255761720558
 10
2.108750900104332
 20
1.002789065755556
  0
LWPOLYLINE
  5
487
330
4C7
100
AcDbEntity
  8
etch
100
AcDbPolyline
 90
      264
 70
     1
 43
0.0
 10
0.8079749296602323
 20
1.004019301130047
 10
0.8093181540140497
 20
1.000219626417416
 10
0.8101151013885206
 20
0.996794469829571
 10
0.8104328520364976
 20
0.993721471282228
 10
0.8103384862108338
 20
0.9909782706911023
 10
0.8098990841643825
 20
0.9885425079719097
 10
0.809181726149997
 20
0.9863918230403663
 10
0.80825349242053
 20
0.9845038558121872
 10
0.8071814632288352
 20
0.982856246203087
 10
0.8060315455760356
 20
0.9814265985757002
 10
0.8048405025426622
 20
0.9801916341435506
 10
0.8036147007772501
 20
0.9791271530161625
 10
0.8023590830352723
 20
0.9782089121547841
 10
0.801078592072203
 20
0.9774126685206663
 10
0.7997781706435152
 20
0.9767141790750591
 10
0.798462761504682
 20
0.9760892007792104
 10
0.7971373074111772
 20
0.9755134905943701
 10
0.7958067511184743
 20
0.9749628054817892
 10
0.794474933236482
 20
0.9744190530860259
 10
0.7931408375461704
 20
0.9738912452905604
 10
0.7918021103952768
 20
0.9733958577191675
 10
0.7904563980907189
 20
0.9729493662234245
 10
0.7891013469394141
 20
0.9725682466549113
 10
0.7877346032482799
 20
0.972268974865204
 10
0.7863538133242332
 20
0.9720680267058825
 10
0.7849566234741923
 20
0.9719818780285221
 10
0.7835409546118177
 20
0.9720266433600411
 10
0.7821127485895123
 20
0.9722078833605869
 10
0.7806870481114558
 20
0.9725191838853398
 10
0.7792793875519937
 20
0.9729534838550535
 10
0.7779053012854704
 20
0.9735037221904794
 10
0.7765803236862314
 20
0.9741628378123697
 10
0.7753199891286211
 20
0.9749237696414765
 10
0.7741398319869848
 20
0.9757794565985527
 10
0.7730553866356671
 20
0.9767228376043506
 10
0.7720792971018988
 20
0.9777440254624425
 10
0.7712101705818133
 20
0.9788194080748871
 10
0.7704423591600948
 20
0.979921212790323
 10
0.7697702139733451
 20
0.9810216660303757
 10
0.7691880861581661
 20
0.9820929942166725
 10
0.7686903268511596
 20
0.9831074237708364
 10
0.7682712871889277
 20
0.9840371811144946
 10
0.7679253183080714
 20
0.9848544926692744
 10
0.7676460249595765
 20
0.9855339165886097
 10
0.7674010579228259
 20
0.9861310920379964
 10
0.7671260243550853
 20
0.9868017634520263
 10
0.7667545501114259
 20
0.9877078649147779
 10
0.7662202610469198
 20
0.989011330510335
 10
0.7654567830166383
 20
0.990874094322775
 10
0.7643977418756533
 20
0.9934580904361805
 10
0.7629767634790363
 20
0.9969252529346311
 10
0.761127473681859
 20
1.001437515902208
 10
0.758806102810101
 20
1.007101660826454
 10
0.7560899467076487
 20
1.013729081716437
 10
0.7530966622261204
 20
1.021032695851366
 10
0.7499439340196441
 20
1.028725352675169
 10
0.7467494467423479
 20
1.036519901631772
 10
0.7436308850483604
 20
1.044129192165101
 10
0.7407059335918096
 20
1.051266073719085
 10
0.7380922770268241
 20
1.05764339573765
 10
0.7359058934595617
 20
1.062978171641769
 10
0.7341910672173004
 20
1.067162347672887
 10
0.7328957298228194
 20
1.070322970915421
 10
0.7319610389490534
 20
1.072603616647409
 10
0.7313281522689397
 20
1.074147860146887
 10
0.730938227455413
 20
1.075099276691892
 10
0.7307324221814098
 20
1.07560144156046
 10
0.7306518941198656
 20
1.075797930030628
 10
0.7306378009437167
 20
1.075832317380432
 10
0.7306068853840426
 20
1.075832368787555
 10
0.7303315315409653
 20
1.075832368787555
 10
0.7295312585851255
 20
1.075832368787555
 10
0.7279255063010817
 20
1.075832368787555
 10
0.7252337144733922
 20
1.075832368787555
 10
0.7211753228866151
 20
1.075832368787555
 10
0.7154697713253084
 20
1.075832368787555
 10
0.7078364995740303
 20
1.075832368787555
 10
0.698001214841171
 20
1.075832368787555
 10
0.6860134208282667
 20
1.075832368787555
 10
0.6723965674998935
 20
1.075832368787555
 10
0.657711775286935
 20
1.075832368787555
 10
0.6425201646202754
 20
1.075832368787555
 10
0.6273828559307979
 20
1.075832368787555
 10
0.6128609696493861
 20
1.075832368787555
 10
0.5995156262069241
 20
1.075832368787555
 10
0.5879079460342953
 20
1.075832368787555
 10
0.578516287547906
 20
1.075832368787555
 10
0.5712780188887117
 20
1.075832368787555
 10
0.5659131684423064
 20
1.075832368787555
 10
0.5621411759932484
 20
1.075832368787555
 10
0.5596814813260957
 20
1.075832368787555
 10
0.558253524225407
 20
1.075832368787555
 10
0.5575767444757396
 20
1.075832368787555
 10
0.5573705818616523
 20
1.075832368787555
 10
0.557355729743064
 20
1.075831568184805
 10
0.557334264845899
 20
1.075777190445319
 10
0.5572380891747586
 20
1.075533545411763
 10
0.5570107140956606
 20
1.074957528544715
 10
0.5565956509746239
 20
1.073906035304755
 10
0.555936411177667
 20
1.072235961152464
 10
0.5549765060708078
 20
1.069804201548422
 10
0.5536594470200653
 20
1.066467651953207
 10
0.5519287453914579
 20
1.062083207827401
 10
0.549742726335468
 20
1.05654529288556
 10
0.5471669582693617
 20
1.050020013784758
 10
0.5443142136753458
 20
1.042793060813251
 10
0.5412974698213833
 20
1.035150643049879
 10
0.5382297039754373
 20
1.027378969573482
 10
0.5352238934054712
 20
1.019764249462902
 10
0.5323930153794478
 20
1.012592691796977
 10
0.5298500471653309
 20
1.006150505654546
 10
0.5277072460811583
 20
1.000722074321443
 10
0.5260165437642861
 20
0.9964387951572855
 10
0.5247249063132837
 20
0.9931658729153316
 10
0.5237687840149221
 20
0.9907418442501181
 10
0.5230846271559719
 20
0.9890052458161809
 10
0.5226088860232037
 20
0.9877946142680551
 10
0.522278010903388
 20
0.9869484862602775
 10
0.5220284520832961
 20
0.9863053984473822
 10
0.5217966598496984
 20
0.9857038874839084
 10
0.5215234532521693
 20
0.9849971253797833
 10
0.5211847553480606
 20
0.9841558825709877
 10
0.5207733966607258
 20
0.9832075695046114
 10
0.5202823161109169
 20
0.9821799597590268
 10
0.5197044526193864
 20
0.9811008269126094
 10
0.5190327451068861
 20
0.979997944543733
 10
0.5182601324941691
 20
0.9788990862307714
 10
0.5173795537019872
 20
0.9778320255521005
 10
0.5163840164186555
 20
0.9768244754088322
 10
0.515274220494756
 20
0.9758973615000786
 10
0.5140654783506888
 20
0.9750587160809963
 10
0.5127747365766484
 20
0.9743151294922161
 10
0.5114189417628294
 20
0.9736731920743693
 10
0.5100150404994259
 20
0.9731394941680875
 10
0.5085799793766324
 20
0.9727206261140018
 10
0.5071307049846436
 20
0.9724231782527426
 10
0.5056841639136542
 20
0.9722537409249425
 10
0.5042559569669685
 20
0.9722173664290719
 10
0.5028496510668652
 20
0.9723053540567157
 10
0.5014624784137558
 20
0.9725017634173236
 10
0.5000916145759409
 20
0.9727905893979354
 10
0.4987342351217218
 20
0.9731558268855889
 10
0.497387515619399
 20
0.9735814707673216
 10
0.4960486316372739
 20
0.9740515159301741
 10
0.4947147587436471
 20
0.974549957261184
 10
0.4933830959929225
 20
0.9750608474593354
 10
0.4920545057238049
 20
0.9755772565388143
 10
0.4907374561433501
 20
0.9761109766512885
 10
0.4894413620238885
 20
0.9766761299552522
 10
0.4881756381377504
 20
0.9772868386092002
 10
0.4869496992572658
 20
0.9779572247716295
 10
0.4857729601547653
 20
0.9787014106010348
 10
0.4846548356025791
 20
0.9795335182559108
 10
0.4836047403730373
 20
0.9804676698947548
 10
0.4826319209854814
 20
0.9815161368931828
 10
0.4817439445106323
 20
0.98267271669199
 10
0.4809474128083202
 20
0.9839205894121672
 10
0.4802489162191761
 20
0.9852428084635196
 10
0.4796550450838311
 20
0.986622427255853
 10
0.4791723897429167
 20
0.988042499198974
 10
0.4788075405370638
 20
0.989486077702687
 10
0.4785670878069037
 20
0.9909362161767983
 10
0.4784575860555602
 20
0.9923759697376611
 10
0.4784773290747922
 20
0.9937887868688355
 10
0.4786058430846723
 20
0.9951590097477745
 10
0.478820061892991
 20
0.9964711040001328
 10
0.4790969193075394
 20
0.9977095352515646
 10
0.4794133491361082
 20
0.998858769127726
 10
0.4797462851864882
 20
0.9999032712542708
 10
0.4800726612664704
 20
1.000827507256855
 10
0.4803694111838456
 20
1.001615942761134
 10
0.4806268097562685
 20
1.002284652074269
 10
0.4809843217749999
 20
1.003203183371412
 10
0.4816749345128223
 20
1.004962666429282
 10
0.4829330758007599
 20
1.008157644120533
 10
0.4849931734698357
 20
1.013382659317823
 10
0.4880896553510735
 20
1.021232254893806
 10
0.4924569492754968
 20
1.03230097372114
 10
0.4983294830741292
 20
1.047183358672479
 10
0.5059412026362065
 20
1.066472730977056
 10
0.5153480978096616
 20
1.09031132247252
 10
0.5261631999618577
 20
1.117718537864421
 10
0.5379317755892432
 20
1.147542009019534
 10
0.5501990911882659
 20
1.178629367804635
 10
0.5625104132553744
 20
1.209828246086501
 10
0.5744110082870171
 20
1.239986275731906
 10
0.5854461427796422
 20
1.267951088607626
 10
0.5951610832296979
 20
1.292570316580438
 10
0.6031318561340846
 20
1.312769566011414
 10
0.6093214910903961
 20
1.328455469614822
 10
0.6139574152801139
 20
1.340204889870662
 10
0.6172721735797959
 20
1.348607662265429
 10
0.6194983108659995
 20
1.35425362228561
 10
0.6208683720152821
 20
1.357732605417696
 10
0.6216149019042014
 20
1.359634447148182
 10
0.6219704454093147
 20
1.360548982963555
 10
0.6221674651557814
 20
1.36106583058636
 10
0.6223836507632694
 20
1.361629593962306
 10
0.622647122824042
 20
1.362288886907172
 10
0.6229607057697983
 20
1.363025350614912
 10
0.6233272240322374
 20
1.363820626279483
 10
0.6237495020430581
 20
1.364656355094841
 10
0.6242303642339602
 20
1.365514178254942
 10
0.6247726350366418
 20
1.366375736953741
 10
0.6253791388828027
 20
1.367222672385196
 10
0.6260523569957495
 20
1.368037167651247
 10
0.6267898887233616
 20
1.368809114078201
 10
0.6275857009287213
 20
1.36953413849467
 10
0.628433674009814
 20
1.370208004253107
 10
0.6293276883646253
 20
1.37082647470596
 10
0.6302616243911399
 20
1.371385313205684
 10
0.6312293624873435
 20
1.371880283104729
 10
0.6322247830512215
 20
1.372307147755545
 10
0.6332417670496084
 20
1.372661672501558
 10
0.6342750212500088
 20
1.372942512988535
 10
0.6353217294637714
 20
1.373156994515699
 10
0.6363795379978137
 20
1.373314061116767
 10
0.6374460931590529
 20
1.37342265682545
 10
0.6385190412544071
 20
1.373491725675462
 10
0.6395960285907931
 20
1.373530211700518
 10
0.6406747014751284
 20
1.373547058934331
 10
0.6417527062143307
 20
1.373551211410615
 10
0.6428277351921126
 20
1.373551029523677
 10
0.6438982259927009
 20
1.37354543446131
 10
0.6449632197810578
 20
1.373525702055332
 10
0.6460217750799502
 20
1.373482888272028
 10
0.6470729504121449
 20
1.373408049077684
 10
0.6481158043004089
 20
1.373292240438586
 10
0.6491493952675091
 20
1.373126518321022
 10
0.6501727818362129
 20
1.372901938691277
 10
0.6511850222975335
 20
1.372609558126624
 10
0.6521841348041302
 20
1.372243175387268
 10
0.653164706283283
 20
1.371805635191237
 10
0.654120617132977
 20
1.371301644924693
 10
0.655045747751198
 20
1.370735911973803
 10
0.6559339785359308
 20
1.370113143724733
 10
0.6567791898851609
 20
1.369438047563645
 10
0.657575262196874
 20
1.368715330876706
 10
0.6583160758690549
 20
1.367949701050082
 10
0.6589957312573944
 20
1.367146214814526
 10
0.6596124001512735
 20
1.366316395295482
 10
0.6601678426547724
 20
1.365477464706439
 10
0.660663941722357
 20
1.364646840376212
 10
0.6611025803084938
 20
1.363841939633608
 10
0.6614856413676489
 20
1.363080179807441
 10
0.6618150078542882
 20
1.362378978226521
 10
0.6620925627228775
 20
1.361755752219659
 10
0.6623201909201726
 20
1.361227914109265
 10
0.6625650527632521
 20
1.360648846503295
 10
0.6631313531558263
 20
1.359276265441051
 10
0.6643770888157541
 20
1.356232714141353
 10
0.6666602564608934
 20
1.35064073582302
 10
0.6703388528091025
 20
1.34162287370487
 10
0.6757708745782398
 20
1.328301671005724
 10
0.6833143184861632
 20
1.309799670944401
 10
0.6933271812507313
 20
1.285239416739721
 10
0.7061350336614349
 20
1.253822973880603
 10
0.7213712368518785
 20
1.216450002527693
 10
0.7380054654003414
 20
1.175647806649299
 10
0.7549806757434436
 20
1.134009214545176
 10
0.7712398243178047
 20
1.09412705451508
 10
0.7857258675600447
 20
1.058594154858765
 10
0.7973817619067827
 20
1.030003343875985
 10
0.8051504637946385
 20
1.010947449866493
  0
LWPOLYLINE
  5
488
330
4C7
100
AcDbEntity
  8
etch
100
AcDbPolyline
 90
        4
 70
     0
 43
0.0
 10
0.7126118276696947
 20
1.120315766972166
 10
0.6425432069998183
 20
1.291853054089291
 10
0.5748005156467839
 20
1.120315766972166
 10
0.7126118276696947
 20
1.120315766972166
  0
LWPOLYLINE
  5
489
330
4C7
100
AcDbEntity
  8
etch
100
AcDbPolyline
 90
      216
 70
     1
 43
0.0
 10
1.068769754311184
 20
0.973491478846491
 10
1.065610439855493
 20
0.973491478846491
 10
1.056908740826429
 20
0.973491478846491
 10
1.043829023731001
 20
0.973491478846491
 10
1.027535655076223
 20
0.973491478846491
 10
1.009193001369105
 20
0.973491478846491
 10
0.989965429116658
 20
0.973491478846491
 10
0.9710173048258937
 20
0.973491478846491
 10
0.9535129950038237
 20
0.973491478846491
 10
0.9386046467841487
 20
0.973491478846491
 10
0.926834477868473
 20
0.973491478846491
 10
0.9178640897504691
 20
0.973491478846491
 10
0.9112864274724015
 20
0.973491478846491
 10
0.9066944360765348
 20
0.973491478846491
 10
0.9036810606051333
 20
0.973491478846491
 10
0.9018392461004612
 20
0.973491478846491
 10
0.9007619376047828
 20
0.973491478846491
 10
0.9000420801603624
 20
0.973491478846491
 10
0.8992993429925151
 20
0.973492432280094
 10
0.8984108263758701
 20
0.9735044768995562
 10
0.8973974976034138
 20
0.9735428831734247
 10
0.8962818957093504
 20
0.9736229776449579
 10
0.8950865597278845
 20
0.9737600868574152
 10
0.8938340286932211
 20
0.9739695373540556
 10
0.8925468416395645
 20
0.9742666556781383
 10
0.8912475376011197
 20
0.9746667683729233
 10
0.889958654688892
 20
0.9751851996736707
 10
0.8887004632913345
 20
0.9758316045092612
 10
0.8874860877762709
 20
0.9765977727570012
 10
0.8863272484414877
 20
0.9774719841191051
 10
0.8852356655847706
 20
0.9784425182977863
 10
0.8842230595039071
 20
0.9794976549952568
 10
0.8833011504966828
 20
0.9806256739137325
 10
0.8824816588608841
 20
0.9818148547554248
 10
0.8817763048942979
 20
0.9830534772225492
 10
0.8811964249016924
 20
0.9843296674201112
 10
0.8807414309208059
 20
0.9856267817463051
 10
0.880396788051385
 20
0.9869225978241285
 10
0.8801471697501713
 20
0.9881945766193776
 10
0.8799772494739047
 20
0.9894201790978474
 10
0.8798717006793266
 20
0.9905768662253323
 10
0.8798151968231778
 20
0.9916420989676296
 10
0.8797924113621993
 20
0.9925933382905325
 10
0.8797880177531316
 20
0.9934080451598377
 10
0.8797879973177405
 20
0.9941142641445042
 10
0.8797879973177405
 20
0.9951138842556293
 10
0.8797879973177405
 20
0.9969763526897895
 10
0.8797879973177405
 20
1.000271907012362
 10
0.8797879973177405
 20
1.005570784788725
 10
0.8797879973177405
 20
1.013443223584254
 10
0.8797879973177405
 20
1.024459460964327
 10
0.8797879973177405
 20
1.039189734494322
 10
0.8797879973177405
 20
1.05820313974265
 10
0.8797879973177405
 20
1.081638150202896
 10
0.8797879973177405
 20
1.10855740685154
 10
0.8797879973177405
 20
1.137858300135292
 10
0.8797879973177405
 20
1.168438220500861
 10
0.8797879973177405
 20
1.199194558394957
 10
0.8797879973177405
 20
1.229024704264289
 10
0.8797879973177405
 20
1.256826048555565
 10
0.8797879973177405
 20
1.281495981715497
 10
0.8797879973177405
 20
1.301971096805403
 10
0.8797879973177405
 20
1.318010296077181
 10
0.8797879973177405
 20
1.330152983178116
 10
0.8797879973177405
 20
1.338969395673588
 10
0.8797879973177405
 20
1.345029771128971
 10
0.8797879973177405
 20
1.348904347109642
 10
0.8797879973177405
 20
1.351163361180982
 10
0.8797879973177405
 20
1.352377050908364
 10
0.8797879973177405
 20
1.353115653857169
 10
0.8797897380860886
 20
1.353882132016029
 10
0.8798049706265489
 20
1.354792581216598
 10
0.8798490170683368
 20
1.355825083795192
 10
0.8799372039547109
 20
1.35695755149829
 10
0.8800848578289304
 20
1.358167896072372
 10
0.8803073052342545
 20
1.359434029263919
 10
0.8806198727139427
 20
1.360733862819406
 10
0.8810378868112536
 20
1.362045308485317
 10
0.8815766117535249
 20
1.363346299818703
 10
0.8822429663390705
 20
1.364617691276772
 10
0.8830272090891205
 20
1.365846168413716
 10
0.8839176197058876
 20
1.36701910937038
 10
0.8849024778915859
 20
1.368123892287608
 10
0.8859700633484289
 20
1.369147895306248
 10
0.8871086557786303
 20
1.370078496567143
 10
0.8883065348844035
 20
1.37090307421114
 10
0.8895519803679619
 20
1.371609006379083
 10
0.890833564037403
 20
1.372184693582411
 10
0.8921442284703358
 20
1.372633834025855
 10
0.8934802808713971
 20
1.372971902108738
 10
0.8948381149951137
 20
1.373214675155003
 10
0.8962141245960129
 20
1.373377930488595
 10
0.8976047034286219
 20
1.373477445433457
 10
0.8990062452474681
 20
1.37352899731353
 10
0.9004151438070784
 20
1.37354836345276
 10
0.9018277928619809
 20
1.373551321175088
 10
0.9032405861667021
 20
1.3735489948823
 10
0.9046499174757692
 20
1.373531522021944
 10
0.9060521805437101
 20
1.37348312560666
 10
0.9074437691250514
 20
1.373388028312502
 10
0.9088210769743208
 20
1.37323045281553
 10
0.9101804978460457
 20
1.372994621791799
 10
0.9115184254947524
 20
1.372664757917367
 10
0.9128312536749692
 20
1.372225083868289
 10
0.9141153318276785
 20
1.371659977418029
 10
0.9153640763045958
 20
1.370964082152485
 10
0.9165661920275503
 20
1.370148531662155
 10
0.9177099586987558
 20
1.369225947806194
 10
0.9187836560204259
 20
1.368208952443758
 10
0.9197755636947744
 20
1.367110167433999
 10
0.9206739614240149
 20
1.365942214636073
 10
0.9214671289103604
 20
1.364717715909135
 10
0.9221433458560249
 20
1.363449293112339
 10
0.9226923093619428
 20
1.362150064194391
 10
0.9231194212953322
 20
1.360838643772199
 10
0.9234398604876386
 20
1.359537068400147
 10
0.9236689534821196
 20
1.358267426331756
 10
0.9238220268220358
 20
1.357051805820548
 10
0.9239144070506455
 20
1.355912295120041
 10
0.9239614207112081
 20
1.354870982483756
 10
0.923978394346983
 20
1.353949956165216
 10
0.9239806543377456
 20
1.35317129846523
 10
0.9239806543377456
 20
1.352452490678658
 10
0.9239806543377456
 20
1.351339844824009
 10
0.9239806543377456
 20
1.349297382667895
 10
0.9239806543377456
 20
1.345789125976931
 10
0.9239806543377456
 20
1.340279096517732
 10
0.9239806543377456
 20
1.332231316056909
 10
0.9239806543377456
 20
1.321109806361078
 10
0.9239806543377456
 20
1.306378589196851
 10
0.9239806543377456
 20
1.287518433734819
 10
0.9239806543377456
 20
1.264661164475114
 10
0.9239806543377456
 20
1.238784349818628
 10
0.9239806543377456
 20
1.210922080654669
 10
0.9239806543377456
 20
1.182108447872547
 10
0.9239806543377456
 20
1.153377542361569
 10
0.9239806543377456
 20
1.125763455011044
 10
0.9239806543377456
 20
1.10030027671028
 10
0.9239806543377456
 20
1.078022098348587
 10
0.9239806543377456
 20
1.059849525544715
 10
0.9239806543377456
 20
1.045747697026606
 10
0.9239806543377456
 20
1.035203141167719
 10
0.9239806543377456
 20
1.0276988125234
 10
0.9239806543377456
 20
1.022717665648993
 10
0.9239806543377456
 20
1.019742655099844
 10
0.9239806543377456
 20
1.018256735431301
 10
0.9239806543377456
 20
1.017742861198706
 10
0.9239807189905145
 20
1.017684135866497
 10
0.924033219433356
 20
1.017684135866497
 10
0.9243371473105566
 20
1.017684135866497
 10
0.925116991402795
 20
1.017684135866497
 10
0.9265972404907488
 20
1.017684135866497
 10
0.9290023833550967
 20
1.017684135866497
 10
0.9325569087765166
 20
1.017684135866497
 10
0.9374853055356869
 20
1.017684135866497
 10
0.9440120624132851
 20
1.017684135866497
 10
0.9523492548583739
 20
1.017684135866497
 10
0.9623947386798339
 20
1.017684135866497
 10
0.9737153187755454
 20
1.017684135866497
 10
0.9858620175841533
 20
1.017684135866497
 10
0.9983858575442999
 20
1.017684135866497
 10
1.01083786109463
 20
1.017684135866497
 10
1.022769050673787
 20
1.017684135866497
 10
1.033730448720414
 20
1.017684135866497
 10
1.043273077673155
 20
1.017684135866497
 10
1.051016357926389
 20
1.017684135866497
 10
1.057025001910674
 20
1.017684135866497
 10
1.061541958517614
 20
1.017684135866497
 10
1.06481064931662
 20
1.017684135866497
 10
1.067074495877101
 20
1.017684135866497
 10
1.068576919768466
 20
1.017684135866497
 10
1.069561342560128
 20
1.017684135866497
 10
1.070271185821495
 20
1.017684135866497
 10
1.07094951650784
 20
1.017684115431105
 10
1.071764223377145
 20
1.017679721822039
 10
1.072715462700049
 20
1.017656936361059
 10
1.073780695442345
 20
1.01760043250491
 10
1.07493738256983
 20
1.017494883710333
 10
1.076162985048299
 20
1.017324963434066
 10
1.077434963843548
 20
1.017075345132852
 10
1.078730779921372
 20
1.016730702263432
 10
1.080027894247566
 20
1.016275708282545
 10
1.081304084445128
 20
1.01569582828994
 10
1.082542706912252
 20
1.014990474323353
 10
1.083731887753945
 20
1.014170982687554
 10
1.08485990667242
 20
1.01324907368033
 10
1.085915043369891
 20
1.012236467599466
 10
1.086885577548572
 20
1.01114488474275
 10
1.087759788910675
 20
1.009986045407966
 10
1.088525957158416
 20
1.008771669892903
 10
1.089172361994006
 20
1.007513478495346
 10
1.089690793294754
 20
1.006222138460552
 10
1.090090905989539
 20
1.004902957518311
 10
1.090388024313621
 20
1.003559542606493
 10
1.090597474810262
 20
1.00219549997057
 10
1.090734584022719
 20
1.000814435856016
 10
1.090814678494252
 20
0.9994199565083042
 10
1.090853084768121
 20
0.9980156681729058
 10
1.090865129387583
 20
0.9966051770952944
 10
1.090865998709117
 20
0.9951920614835867
 10
1.090858047298474
 20
0.9937773331877522
 10
1.090820668924774
 20
0.9923574118984386
 10
1.090730873773127
 20
0.9909282405894861
 10
1.090565672028645
 20
0.9894857622347402
 10
1.09030207387644
 20
0.9880259198080423
 10
1.089917089501622
 20
0.9865446562832361
 10
1.089387729089303
 20
0.9850379146341661
 10
1.088691002824594
 20
0.9835016378346735
 10
1.087802975536993
 20
0.9819341322476356
 10
1.086687586531621
 20
0.9803640180468725
 10
1.085300376773741
 20
0.978840911255846
 10
1.083596718975627
 20
0.9774148485304923
 10
1.081531985849556
 20
0.9761358665267426
 10
1.079061550107801
 20
0.9750540019005345
 10
1.076140784462638
 20
0.9742192913077996
 10
1.072725061626341
 20
0.9736817714044737
  0
LWPOLYLINE
  5
48A
330
4C7
100
AcDbEntity
  8
etch
100
AcDbPolyline
 90
      408
 70
     1
 43
0.0
 10
1.37317575365293
 20
1.329067923158769
 10
1.369758299772986
 20
1.329067923158769
 10
1.360379237951234
 20
1.329067923158769
 10
1.346348517914799
 20
1.329067923158769
 10
1.328976089390803
 20
1.329067923158769
 10
1.309571902106372
 20
1.329067923158769
 10
1.289445905788628
 20
1.329067923158769
 10
1.269908050164695
 20
1.329067923158769
 10
1.252268284961695
 20
1.329067923158769
 10
1.237747640676494
 20
1.329067923158769
 10
1.226558570110586
 20
1.329067923158769
 10
1.218274558123199
 20
1.329067923158769
 10
1.212458954805288
 20
1.329067923158769
 10
1.208675110247814
 20
1.329067923158769
 10
1.206486374541734
 20
1.329067923158769
 10
1.20545609777801
 20
1.329067923158769
 10
1.205147630047599
 20
1.329067923158769
 10
1.205127360511068
 20
1.329066300218482
 10
1.205127360511068
 20
1.328972952908227
 10
1.205127360511068
 20
1.328565523543491
 10
1.205127360511068
 20
1.327610829992919
 10
1.205127360511068
 20
1.325875690125155
 10
1.205127360511068
 20
1.32312692180884
 10
1.205127360511068
 20
1.319131342912621
 10
1.205127360511068
 20
1.313655771305138
 10
1.205127360511068
 20
1.306467025846044
 10
1.205127360511068
 20
1.297455797394288
 10
1.205127360511068
 20
1.286978852688293
 10
1.205127360511068
 20
1.275502555990769
 10
1.205127360511068
 20
1.263493271564431
 10
1.205127360511068
 20
1.25141736367199
 10
1.205127360511068
 20
1.239741196576161
 10
1.205127360511068
 20
1.228931134539656
 10
1.205127360511068
 20
1.219453541825188
 10
1.205127360511068
 20
1.211735832128569
 10
1.205127360511068
 20
1.20579457608966
 10
1.205127360511068
 20
1.201399936228115
 10
1.205127360511068
 20
1.198318730412578
 10
1.205127360511068
 20
1.196317776511693
 10
1.205127360511068
 20
1.195163892394102
 10
1.205127360511068
 20
1.19462389592845
 10
1.205127360511068
 20
1.19446460498338
 10
1.205129403536597
 20
1.194454763946517
 10
1.205232721705725
 20
1.194454763946517
 10
1.205674162701812
 20
1.194454763946517
 10
1.206701010383381
 20
1.194454763946517
 10
1.208560548608956
 20
1.194454763946517
 10
1.211500061237058
 20
1.194454763946517
 10
1.215766832126211
 20
1.194454763946517
 10
1.221608145134938
 20
1.194454763946517
 10
1.229271275714247
 20
1.194454763946517
 10
1.238864124828188
 20
1.194454763946517
 10
1.250001236405557
 20
1.194454763946517
 10
1.262188042729307
 20
1.194454763946517
 10
1.274929976082395
 20
1.194454763946517
 10
1.287732468747773
 20
1.194454763946517
 10
1.300100953008398
 20
1.194454763946517
 10
1.311540861147222
 20
1.194454763946517
 10
1.321557625447203
 20
1.194454763946517
 10
1.329703021981762
 20
1.194454763946517
 10
1.335984108221918
 20
1.194454763946517
 10
1.340666354614352
 20
1.194454763946517
 10
1.344018197608333
 20
1.194454763946517
 10
1.346308073653137
 20
1.194454763946517
 10
1.347804419198034
 20
1.194454763946517
 10
1.348775670692297
 20
1.194454763946517
 10
1.349490264585198
 20
1.194454763946517
 10
1.350213789204106
 20
1.194454597561388
 10
1.351092661044711
 20
1.194447136477693
 10
1.352113413528029
 20
1.194415912133641
 10
1.353251368631521
 20
1.194343801003387
 10
1.354481848332644
 20
1.194213679561089
 10
1.355780174608859
 20
1.194008424280901
 10
1.357121669437622
 20
1.193710911636976
 10
1.358481654796394
 20
1.193304018103474
 10
1.359835453067171
 20
1.192770621310364
 10
1.361160491720673
 20
1.192099613426837
 10
1.362441210660224
 20
1.191299922143804
 10
1.363663508158656
 20
1.190384641922206
 10
1.364813282488806
 20
1.189366867222982
 10
1.365876431923506
 20
1.188259692507073
 10
1.366838854735589
 20
1.187076212235419
 10
1.36768644919789
 20
1.18582952086896
 10
1.368405113583243
 20
1.184532712868636
 10
1.368982843282335
 20
1.183198283518857
 10
1.369426849220407
 20
1.181833237951305
 10
1.369754659804533
 20
1.180441633445707
 10
1.36998390219367
 20
1.17902749906697
 10
1.370132203546776
 20
1.177594863879997
 10
1.37021719102281
 20
1.176147756949692
 10
1.370256491780728
 20
1.174690207340961
 10
1.370267732979488
 20
1.173226244118708
 10
1.370268142235705
 20
1.171759896347839
 10
1.370260138678386
 20
1.170295193093258
 10
1.37022731320335
 20
1.168836163419867
 10
1.370152038651641
 20
1.167386836392575
 10
1.370016687864299
 20
1.165951241076283
 10
1.369803633682368
 20
1.164533406535898
 10
1.36949524894689
 20
1.163137361836325
 10
1.369073906498906
 20
1.161767136042466
 10
1.368521982056165
 20
1.160426759041143
 10
1.367828531629465
 20
1.159122169374335
 10
1.367003561012664
 20
1.157865291236321
 10
1.366061171932927
 20
1.156669219088041
 10
1.365015466117421
 20
1.155547047390436
 10
1.363880545293312
 20
1.154511870604444
 10
1.362670511187767
 20
1.153576783191008
 10
1.361399465527951
 20
1.152754879611067
 10
1.36008151004103
 20
1.152059254325562
 10
1.358731505379861
 20
1.151500833436322
 10
1.357370806418485
 20
1.151071988127496
 10
1.3560240652891
 20
1.150755668845649
 10
1.354715960014247
 20
1.150534752064938
 10
1.353471168616468
 20
1.150392114259517
 10
1.352314369118302
 20
1.150310631903541
 10
1.351270239542291
 20
1.150273181471166
 10
1.350363457910976
 20
1.150262639436547
 10
1.349614856721759
 20
1.150262106926512
 10
1.348918223715546
 20
1.150262106926512
 10
1.348014237761921
 20
1.150262106926512
 10
1.346634462411609
 20
1.150262106926512
 10
1.344510461215338
 20
1.150262106926512
 10
1.341373797723837
 20
1.150262106926512
 10
1.336956035487834
 20
1.150262106926512
 10
1.330988738058057
 20
1.150262106926512
 10
1.323203604098323
 20
1.150262106926512
 10
1.313501995403127
 20
1.150262106926512
 10
1.302286403900645
 20
1.150262106926512
 10
1.290051397307928
 20
1.150262106926512
 10
1.27729154334202
 20
1.150262106926512
 10
1.264501409719966
 20
1.150262106926512
 10
1.252175564158812
 20
1.150262106926512
 10
1.240808574375604
 20
1.150262106926512
 10
1.230895008087384
 20
1.150262106926512
 10
1.222871765883199
 20
1.150262106926512
 10
1.216714370341441
 20
1.150262106926512
 10
1.212176936403475
 20
1.150262106926512
 10
1.209012180210779
 20
1.150262106926512
 10
1.206972817904828
 20
1.150262106926512
 10
1.205811565627102
 20
1.150262106926512
 10
1.205281139519077
 20
1.150262106926512
 10
1.205134255722229
 20
1.150262106926512
 10
1.205127360511068
 20
1.150258642688911
 10
1.205127360511068
 20
1.150145663580913
 10
1.205127360511068
 20
1.149699916602117
 10
1.205127360511068
 20
1.148691745052959
 10
1.205127360511068
 20
1.146891492233872
 10
1.205127360511068
 20
1.144069501445292
 10
1.205127360511068
 20
1.139996115987656
 10
1.205127360511068
 20
1.134441679161397
 10
1.205127360511068
 20
1.127176745088321
 10
1.205127360511068
 20
1.118133410742287
 10
1.205127360511068
 20
1.107693388713183
 10
1.205127360511068
 20
1.096315992400143
 10
1.205127360511068
 20
1.084460535202292
 10
1.205127360511068
 20
1.072586330518763
 10
1.205127360511068
 20
1.061152691748685
 10
1.205127360511068
 20
1.050618932291187
 10
1.205127360511068
 20
1.0414443655454
 10
1.205127360511068
 20
1.034030408091265
 10
1.205127360511068
 20
1.028344930166127
 10
1.205127360511068
 20
1.024159251095292
 10
1.205127360511068
 20
1.021243714179192
 10
1.205127360511068
 20
1.019368662718264
 10
1.205127360511068
 20
1.018304440012942
 10
1.205127360511068
 20
1.017821389363664
 10
1.205127360511068
 20
1.017689854070861
 10
1.205132247785079
 20
1.017684135866497
 10
1.205277287793894
 20
1.017684135866497
 10
1.205838966004177
 20
1.017684135866497
 10
1.207100827858588
 20
1.017684135866497
 10
1.209346418799796
 20
1.017684135866497
 10
1.212859284270464
 20
1.017684135866497
 10
1.217922969713257
 20
1.017684135866497
 10
1.224821020570838
 20
1.017684135866497
 10
1.233836568954324
 20
1.017684135866497
 10
1.245042774547901
 20
1.017684135866497
 10
1.257961826080839
 20
1.017684135866497
 10
1.272026632667809
 20
1.017684135866497
 10
1.286670103423483
 20
1.017684135866497
 10
1.301325147462531
 20
1.017684135866497
 10
1.315424673899624
 20
1.017684135866497
 10
1.328401591849433
 20
1.017684135866497
 10
1.339688810426629
 20
1.017684135866497
 10
1.348798279637006
 20
1.017684135866497
 10
1.355796432452727
 20
1.017684135866497
 10
1.360987066582053
 20
1.017684135866497
 10
1.3646748800584
 20
1.017684135866497
 10
1.367164570915181
 20
1.017684135866497
 10
1.36876083718581
 20
1.017684135866497
 10
1.3697683769037
 20
1.017684135866497
 10
1.370491888102267
 20
1.017684135866497
 10
1.371229608557687
 20
1.0176838005249
 10
1.372123820931467
 20
1.01767469912011
 10
1.373156645471838
 20
1.017640087156409
 10
1.374302900523149
 20
1.017562841107952
 10
1.375537404429743
 20
1.017425837448895
 10
1.376834975535967
 20
1.017211952653391
 10
1.378170432186166
 20
1.016904063195595
 10
1.379518592724688
 20
1.016485045549666
 10
1.380854284262978
 20
1.015937798107507
 10
1.382155469948879
 20
1.015253059352018
 10
1.383407875170398
 20
1.014440973366505
 10
1.384598405466597
 20
1.013514634611912
 10
1.385713966376534
 20
1.012487137549177
 10
1.386741463439269
 20
1.011371576639239
 10
1.387667802193862
 20
1.010181046343041
 10
1.388479888179374
 20
1.008928641121521
 10
1.389164626934865
 20
1.007627455435621
 10
1.389711874377023
 20
1.00628969863299
 10
1.390130892022952
 20
1.004921758381155
 10
1.390438781480747
 20
1.003527670320348
 10
1.39065266627625
 20
1.002111463515472
 10
1.390789669935309
 20
1.000677167031432
 10
1.390866915983767
 20
0.9992288099331339
 10
1.390901527947467
 20
0.9977704212854808
 10
1.390910629352256
 20
0.9963060301533786
 10
1.390910585663728
 20
0.9948396656017302
 10
1.390901134799228
 20
0.9933753566954415
 10
1.390865823916104
 20
0.9919171324994174
 10
1.390787529488514
 20
0.9904690220785624
 10
1.390649127990611
 20
0.9890350544977797
 10
1.390433495896552
 20
0.9876192588219763
 10
1.390123509680491
 20
0.9862256641160547
 10
1.389702045816582
 20
0.9848582994449206
 10
1.389152011986095
 20
0.9835212032356122
 10
1.388464543417471
 20
0.9822208821793208
 10
1.387649994852723
 20
0.9809696088213073
 10
1.386721460752789
 20
0.9797804776225119
 10
1.38569203557861
 20
0.9786665830438748
 10
1.384574813791127
 20
0.9776410195463356
 10
1.383382889851279
 20
0.9767168815908349
 10
1.382129358220006
 20
0.975907263638313
 10
1.380827313358249
 20
0.9752252601497096
 10
1.379491118353798
 20
0.9746807940188396
 10
1.378142965366626
 20
0.9742642154590564
 10
1.376808030179117
 20
0.9739584156276984
 10
1.375511494446923
 20
0.9737462709989182
 10
1.374278539825699
 20
0.9736106580468737
 10
1.373134347971098
 20
0.9735344532457193
 10
1.372104100538777
 20
0.9735005330696109
 10
1.371212979184386
 20
0.9734917739927011
 10
1.370476998880707
 20
0.973491478846491
 10
1.369728814344234
 20
0.973491478846491
 10
1.368631797068478
 20
0.973491478846491
 10
1.36684297290343
 20
0.973491478846491
 10
1.364019367699084
 20
0.973491478846491
 10
1.35981800730543
 20
0.973491478846491
 10
1.353895917572461
 20
0.973491478846491
 10
1.345910124350168
 20
0.973491478846491
 10
1.33551905117328
 20
0.973491478846491
 10
1.322662585930828
 20
0.973491478846491
 10
1.307901462480519
 20
0.973491478846491
 10
1.29187932394087
 20
0.973491478846491
 10
1.275239813430398
 20
0.973491478846491
 10
1.258626574067622
 20
0.973491478846491
 10
1.242683248971057
 20
0.973491478846491
 10
1.228053481259222
 20
0.973491478846491
 10
1.215380914050634
 20
0.973491478846491
 10
1.205198064743564
 20
0.973491478846491
 10
1.197393593286124
 20
0.973491478846491
 10
1.191624827428211
 20
0.973491478846491
 10
1.187548793019817
 20
0.973491478846491
 10
1.184822515910934
 20
0.973491478846491
 10
1.183103021951552
 20
0.973491478846491
 10
1.182047336991665
 20
0.973491478846491
 10
1.181312486881263
 20
0.973491478846491
 10
1.180565763049481
 20
0.9734919563152877
 10
1.179662340545452
 20
0.9735021274947036
 10
1.17862184760885
 20
0.9735388576121637
 10
1.17746946589533
 20
0.9736192701935134
 10
1.176230377060544
 20
0.9737604887645974
 10
1.174929762760149
 20
0.9739796368512608
 10
1.173592804649799
 20
0.9742938379793478
 10
1.172244684385146
 20
0.9747202156747041
 10
1.170910560830807
 20
0.9752758364855809
 10
1.169611985394994
 20
0.9759687483192119
 10
1.168362992125251
 20
0.9767882056811752
 10
1.16717667548252
 20
0.9777211141105309
 10
1.166066129927741
 20
0.9787543791463362
 10
1.165044449921854
 20
0.9798749063276537
 10
1.164124729925798
 20
0.9810696011935431
 10
1.163320064400516
 20
0.9823253692830634
 10
1.162643547806944
 20
0.9836291161352742
 10
1.162104628040129
 20
0.9849662886628783
 10
1.161692906257148
 20
0.9863143950833893
 10
1.161391264283169
 20
0.9876482558815594
 10
1.161182578592347
 20
0.9889426894017335
 10
1.161049725658837
 20
0.990172513988258
 10
1.160975581956794
 20
0.9913125479854785
 10
1.160943023960376
 20
0.9923376097377423
 10
1.160934928143735
 20
0.9932225175893945
 10
1.160934703491063
 20
0.9939627011555843
 10
1.160934703491063
 20
0.994899794990763
 10
1.160934703491063
 20
0.9966627032362187
 10
1.160934703491063
 20
0.9998890254131136
 10
1.160934703491063
 20
1.005216361042605
 10
1.160934703491063
 20
1.013282309645857
 10
1.160934703491063
 20
1.024724470744027
 10
1.160934703491063
 20
1.040180443858276
 10
1.160934703491063
 20
1.060283249617519
 10
1.160934703491063
 20
1.085082764994424
 10
1.160934703491063
 20
1.113480317556994
 10
1.160934703491063
 20
1.144243013444408
 10
1.160934703491063
 20
1.176137958795841
 10
1.160934703491063
 20
1.207932259750474
 10
1.160934703491063
 20
1.238393022447483
 10
1.160934703491063
 20
1.266287353026046
 10
1.160934703491063
 20
1.290382357625342
 10
1.160934703491063
 20
1.309686607405405
 10
1.160934703491063
 20
1.324443713117836
 10
1.160934703491063
 20
1.335291104695192
 10
1.160934703491063
 20
1.342866381658635
 10
1.160934703491063
 20
1.347807143529324
 10
1.160934703491063
 20
1.350750989828421
 10
1.160934703491063
 20
1.352335520077085
 10
1.160934703491063
 20
1.353198333796478
 10
1.16093529511767
 20
1.353954131077926
 10
1.160946215139323
 20
1.354863641228856
 10
1.160984393018443
 20
1.355909193989678
 10
1.161066952280875
 20
1.35706560770474
 10
1.161211016452464
 20
1.358307700718385
 10
1.161433709059055
 20
1.359610291374961
 10
1.161752153626491
 20
1.360948198018814
 10
1.162183473680618
 20
1.362296238994289
 10
1.162744698697868
 20
1.363629270265498
 10
1.163443031981495
 20
1.364926078265822
 10
1.16426737632566
 20
1.366172769632281
 10
1.165204637269424
 20
1.367356249903936
 10
1.166241720351846
 20
1.368463424619845
 10
1.167365531111986
 20
1.369481199319068
 10
1.168562975088903
 20
1.370396479540667
 10
1.169820957821659
 20
1.371196170823699
 10
1.171126384849312
 20
1.371867178707227
 10
1.172464495002911
 20
1.372400575500336
 10
1.173812512904815
 20
1.372807469033839
 10
1.1751452573617
 20
1.373104981677763
 10
1.176437546717908
 20
1.373310236957952
 10
1.177664199317787
 20
1.37344035840025
 10
1.178800033505683
 20
1.373512469530503
 10
1.179819867625941
 20
1.373543693874555
 10
1.180698520022908
 20
1.373551154958252
 10
1.181425179722879
 20
1.37355132134338
 10
1.182193971789442
 20
1.37355132134338
 10
1.183351774183838
 20
1.37355132134338
 10
1.185249115552774
 20
1.37355132134338
 10
1.188236524542951
 20
1.37355132134338
 10
1.192664529801076
 20
1.37355132134338
 10
1.198883659973851
 20
1.37355132134338
 10
1.207244443707983
 20
1.37355132134338
 10
1.218093486304173
 20
1.37355132134338
 10
1.231435571542839
 20
1.37355132134338
 10
1.246673249593329
 20
1.37355132134338
 10
1.263147768343732
 20
1.37355132134338
 10
1.280200375682137
 20
1.37355132134338
 10
1.297172319496636
 20
1.37355132134338
 10
1.31340484767532
 20
1.37355132134338
 10
1.328239208106277
 20
1.37355132134338
 10
1.341016648677599
 20
1.37355132134338
 10
1.351226862449314
 20
1.37355132134338
 10
1.359030749201509
 20
1.37355132134338
 10
1.36477882614256
 20
1.37355132134338
 10
1.368821621919173
 20
1.37355132134338
 10
1.371509665178051
 20
1.37355132134338
 10
1.373193484565897
 20
1.37355132134338
 10
1.374223608729419
 20
1.37355132134338
 10
1.37495056631532
 20
1.37355132134338
 10
1.375709051040576
 20
1.373550598675446
 10
1.376624950927379
 20
1.373538901284231
 10
1.377676687859537
 20
1.373499247116128
 10
1.378839583814512
 20
1.37341451264529
 10
1.380088960769761
 20
1.373267574345873
 10
1.381400140702745
 20
1.373041308692032
 10
1.38274844559092
 20
1.372718592157923
 10
1.384109197411748
 20
1.372282301217701
 10
1.385457768709765
 20
1.371715456822887
 10
1.386773257422254
 20
1.371011723904275
 10
1.388040972936587
 20
1.370182514392919
 10
1.3892468135256
 20
1.369240922749758
 10
1.390376677462124
 20
1.368200043435732
 10
1.391416463018995
 20
1.367072970911782
 10
1.392352068469045
 20
1.365872799638848
 10
1.39316939208511
 20
1.36461262407787
 10
1.393854332140021
 20
1.363305538689787
 10
1.394397757852641
 20
1.361963217665247
 10
1.394811677952559
 20
1.360591295334688
 10
1.395113719553785
 20
1.359193800775856
 10
1.395321509815277
 20
1.357774763053657
 10
1.395452675895994
 20
1.356338211232994
 10
1.395524844954893
 20
1.354888174378774
 10
1.395555644150932
 20
1.353428681555899
 10
1.395562700643067
 20
1.351963761829275
 10
1.395561595933458
 20
1.350497011753512
 10
1.39554291709165
 20
1.349026743346038
 10
1.395480530090388
 20
1.347547733306673
 10
1.395347994191231
 20
1.34605469348773
 10
1.395118868655744
 20
1.34454233574152
 10
1.394766712745489
 20
1.343005371920359
 10
1.394265085722032
 20
1.341438513876555
 10
1.393587546846934
 20
1.339836473462423
 10
1.392707532642352
 20
1.3381943307485
 10
1.391590741264356
 20
1.336530380903571
 10
1.390190656260253
 20
1.334899562922725
 10
1.388459684300855
 20
1.33336004643052
 10
1.386350232056977
 20
1.33197000105152
 10
1.383814706199434
 20
1.330787596410284
 10
1.380805513399036
 20
1.329871002131373
 10
1.377275060326602
 20
1.329278387839347
  0
LINE
  5
48B
330
4C7
100
AcDbEntity
  8
0
100
AcDbLine
 10
3.245
 20
0.4322500000002849
 30
0.0
 11
3.695000000000001
 21
0.4322500000002849
 31
0.0
  0
TEXT
  5
48F
330
4C7
100
AcDbEntity
  8
etch
100
AcDbText
 10
3.135041896158299
 20
0.752726589664115
 30
0.0
 40
0.1
  1
4
  7
textstyle0
 11
3.135041896158299
 21
0.852726589664115
 31
0.0
100
AcDbText
 73
     3
  0
TEXT
  5
490
330
4C7
100
AcDbEntity
  8
etch
100
AcDbText
 10
3.835041896158299
 20
0.752726589664115
 30
0.0
 40
0.1
  1
3
  7
textstyle1
 11
3.835041896158299
 21
0.852726589664115
 31
0.0
100
AcDbText
 73
     3
  0
TEXT
  5
491
330
4C7
100
AcDbEntity
  8
etch
100
AcDbText
 10
4.535041896158299
 20
0.752726589664115
 30
0.0
 40
0.1
  1
2
  7
textstyle2
 11
4.535041896158299
 21
0.852726589664115
 31
0.0
100
AcDbText
 73
     3
  0
TEXT
  5
492
330
4C7
100
AcDbEntity
  8
etch
100
AcDbText
 10
5.235041896158299
 20
0.752726589664115
 30
0.0
 40
0.1
  1
1
  7
textstyle3
 11
5.235041896158299
 21
0.852726589664115
 31
0.0
100
AcDbText
 73
     3
  0
LINE
  5
493
330
4C7
100
AcDbEntity
  8
etch
100
AcDbLine
 10
3.049999999999999
 20
1.239459328797969
 30
0.0
 11
2.999999999999998
 21
1.139459328797969
 31
0.0
  0
LINE
  5
494
330
4C7
100
AcDbEntity
  8
etch
100
AcDbLine
 10
2.999999999999998
 20
1.139459328797969
 30
0.0
 11
3.099999999999998
 21
1.139459328797969
 31
0.0
  0
LINE
  5
495
330
4C7
100
AcDbEntity
  8
etch
100
AcDbLine
 10
3.099999999999998
 20
1.139459328797969
 30
0.0
 11
3.049999999999999
 21
1.239459328797969
 31
0.0
  0
LINE
  5
496
330
4C7
100
AcDbEntity
  8
0
100
AcDbLine
 10
3.245
 20
1.182250000000285
 30
0.0
 11
3.695
 21
1.182250000000285
 31
0.0
  0
TEXT
  5
497
330
4C7
100
AcDbEntity
  8
etch
100
AcDbText
 10
6.237272858669865
 20
0.967949071011912
 30
0.0
 40
0.1
  1
+
  7
textstyle4
 11
6.237272858669865
 21
1.067949071011912
 31
0.0
100
AcDbText
 73
     3
  0
TEXT
  5
498
330
4C7
100
AcDbEntity
  8
etch
100
AcDbText
 10
0.4396891648773935
 20
0.0753590264843183
 30
0.0
 40
0.05
  1
9-18V DC
  7
textstyle5
 11
0.4396891648773935
 21
0.1253590264843183
 31
0.0
100
AcDbText
 73
     3
  0
TEXT
  5
499
330
4C7
100
AcDbEntity
  8
etch
100
AcDbText
 10
1.539925609965409
 20
0.0894307973178165
 30
0.0
 40
0.05
  1
DEV
  7
textstyle6
 11
1.539925609965409
 21
0.1394307973178165
 31
0.0
100
AcDbText
 73
     3
  0
TEXT
  5
49A
330
4C7
100
AcDbEntity
  8
etch
100
AcDbText
 10
2.033726209344133
 20
0.0894307973178165
 30
0.0
 40
0.05
  1
HST
  7
textstyle7
 11
2.033726209344133
 21
0.1394307973178165
 31
0.0
100
AcDbText
 73
     3
  0
TEXT
  5
49B
330
4C7
100
AcDbEntity
  8
etch
100
AcDbText
 10
2.535556086761536
 20
0.0894307973178165
 30
0.0
 40
0.05
  1
II
  7
textstyle8
 11
2.535556086761536
 21
0.1394307973178165
 31
0.0
100
AcDbText
 73
     3
  0
CIRCLE
  5
49C
330
4C7
100
AcDbEntity
  8
0
100
AcDbCircle
 10
3.47
 20
1.182250000000285
 30
0.0
 40
0.343
  0
CIRCLE
  5
49D
330
4C7
100
AcDbEntity
  8
0
100
AcDbCircle
 10
3.470000000000001
 20
0.4322500000002849
 30
0.0
 40
0.343
  0
CIRCLE
  5
49E
330
4C7
100
AcDbEntity
  8
0
100
AcDbCircle
 10
6.27
 20
0.4322500000002849
 30
0.0
 40
0.343
  0
ARC
  5
49F
330
4C7
100
AcDbEntity
  8
etch
100
AcDbCircle
 10
6.000000000000002
 20
0.7999999999999998
 30
0.0
 40
0.0499744999999999
100
AcDbArc
 50
0.0
 51
180.0
  0
LINE
  5
4A0
330
4C7
100
AcDbEntity
  8
etch
100
AcDbLine
 10
5.950025500000002
 20
0.7500254999999996
 30
0.0
 11
5.950025500000002
 21
0.7999999999999998
 31
0.0
  0
LINE
  5
4A1
330
4C7
100
AcDbEntity
  8
etch
100
AcDbLine
 10
6.049974500000001
 20
0.7500254999999996
 30
0.0
 11
6.049974500000001
 21
0.7999999999999998
 31
0.0
  0
ARC
  5
4A2
330
4C7
100
AcDbEntity
  8
etch
100
AcDbCircle
 10
5.950025500000002
 20
0.7750127499999995
 30
0.0
 40
0.0249872499999999
100
AcDbArc
 50
89.99999999999949
 51
270.0
  0
ARC
  5
4A3
330
4C7
100
AcDbEntity
  8
etch
100
AcDbCircle
 10
6.049974500000001
 20
0.7750127499999995
 30
0.0
 40
0.0249872499999999
100
AcDbArc
 50
270.0
 51
90.0
  0
CIRCLE
  5
4A4
330
4C7
100
AcDbEntity
  8
0
100
AcDbCircle
 10
5.57
 20
0.4322500000002849
 30
0.0
 40
0.343
  0
CIRCLE
  5
4A5
330
4C7
100
AcDbEntity
  8
0
100
AcDbCircle
 10
4.870000000000001
 20
0.4322500000002849
 30
0.0
 40
0.343
  0
CIRCLE
  5
4A6
330
4C7
100
AcDbEntity
  8
0
100
AcDbCircle
 10
4.170000000000002
 20
0.4322500000002849
 30
0.0
 40
0.343
  0
TEXT
  5
4A7
330
4C7
100
AcDbEntity
  8
etch
100
AcDbText
 10
3.021496139795875
 20
1.054805032797172
 30
0.0
 40
0.05
  1
IN
  7
textstyle9
 11
3.021496139795875
 21
1.104805032797172
 31
0.0
100
AcDbText
 73
     3
  0
TEXT
  5
4A8
330
4C7
100
AcDbEntity
  8
etch
100
AcDbText
 10
2.981001814220807
 20
0.5068603351776257
 30
0.0
 40
0.05
  1
OUT
  7
textstyle10
 11
2.981001814220807
 21
0.5568603351776258
 31
0.0
100
AcDbText
 73
     3
  0
ENDSEC
  0
SECTION
  2
OBJECTS
  0
DICTIONARY
  5
4B5
330
0
100
AcDbDictionary
281
     1
  3
ACAD_GROUP
350
4B6
  3
ACAD_LAYOUT
350
4C2
  3
ACAD_MATERIAL
350
4E3
  3
ACAD_MLEADERSTYLE
350
56C
  3
ACAD_MLINESTYLE
350
4BF
  3
ACAD_PLOTSETTINGS
350
4C1
  3
ACAD_PLOTSTYLENAME
350
4B7
  3
ACAD_TABLESTYLE
350
56B
  3
ACAD_VISUALSTYLE
350
4D2
  3
QCAD_OBJECTS
350
4E8
  0
DICTIONARY
  5
4B6
102
{ACAD_REACTORS
330
4B5
102
}
330
4B5
100
AcDbDictionary
281
     1
  0
DICTIONARY
  5
4C2
102
{ACAD_REACTORS
330
4B5
102
}
330
4B5
100
AcDbDictionary
281
     1
  3
Layout1
350
4C6
  3
Layout2
350
4CE
  3
Model
350
4CA
  0
DICTIONARY
  5
4E3
102
{ACAD_REACTORS
330
4B5
102
}
330
4B5
100
AcDbDictionary
281
     1
  3
ByBlock
350
4E5
  3
ByLayer
350
4E4
  3
Global
350
4E6
  0
DICTIONARY
  5
56C
102
{ACAD_REACTORS
330
4B5
102
}
330
4B5
100
AcDbDictionary
281
     1
  0
DICTIONARY
  5
4BF
102
{ACAD_REACTORS
330
4B5
102
}
330
4B5
100
AcDbDictionary
281
     1
  3
Standard
350
4C0
  0
DICTIONARY
  5
4C1
102
{ACAD_REACTORS
330
4B5
102
}
330
4B5
100
AcDbDictionary
281
     1
  0
ACDBDICTIONARYWDFLT
  5
4B7
102
{ACAD_REACTORS
330
4B5
102
}
330
4B5
100
AcDbDictionary
281
     1
  3
Normal
350
4B8
100
AcDbDictionaryWithDefault
340
4B8
  0
DICTIONARY
  5
56B
102
{ACAD_REACTORS
330
4B5
102
}
330
4B5
100
AcDbDictionary
281
     1
  0
DICTIONARY
  5
4D2
102
{ACAD_REACTORS
330
4B5
102
}
330
4B5
100
AcDbDictionary
281
     1
  3
2dWireframe
350
4D7
  3
3D Hidden
350
4D9
  3
3dWireframe
350
4D8
  3
Basic
350
4DA
  3
Brighten
350
4DE
  3
ColorChange
350
4E2
  3
Conceptual
350
4DC
  3
Dim
350
4DD
  3
Facepattern
350
4E1
  3
Flat
350
4D3
  3
FlatWithEdges
350
4D4
  3
Gouraud
350
4D5
  3
GouraudWithEdges
350
4D6
  3
Linepattern
350
4E0
  3
Realistic
350
4DB
  3
Thicken
350
4DF
  0
DICTIONARY
  5
4E8
102
{ACAD_REACTORS
330
4B5
102
}
330
4B5
100
AcDbDictionary
281
     1
  3
Grid/DisplayGrid
350
4F9
  3
Grid/GridSpacingX
350
4F2
  3
Grid/GridSpacingY
350
4F4
  3
Grid/MetaGridSpacingX
350
4EC
  3
Grid/MetaGridSpacingY
350
4F0
  3
MultiPageSettings/Columns
350
4F1
  3
MultiPageSettings/GlueMarginBottom
350
4ED
  3
MultiPageSettings/GlueMarginsLeft
350
4F5
  3
MultiPageSettings/GlueMarginsRight
350
4E9
  3
MultiPageSettings/GlueMarginsTop
350
4FD
  3
MultiPageSettings/PrintCropMarks
350
4EB
  3
MultiPageSettings/Rows
350
4F6
  3
PageSettings/OffsetX
350
4FB
  3
PageSettings/OffsetY
350
4FC
  3
PageSettings/PageOrientation
350
4EA
  3
PageSettings/PaperHeight
350
4EF
  3
PageSettings/PaperWidth
350
4F7
  3
PageSettings/Scale
350
4EE
  3
PageSettings/ShowBoundingBox
350
4F3
  3
PageSettings/ShowPageBorders
350
4FA
  3
UnitSettings/PaperUnit
350
4F8
  0
LAYOUT
  5
4C6
102
{ACAD_REACTORS
330
4C2
102
}
330
4C2
100
AcDbPlotSettings
  1

  2
none_device
  4

  6

 40
0.0
 41
0.0
 42
0.0
 43
0.0
 44
0.0
 45
0.0
 46
0.0
 47
0.0
 48
0.0
 49
0.0
140
0.0
141
0.0
142
1.0
143
1.0
 70
   688
 72
     0
 73
     0
 74
     5
  7

 75
    16
 76
     0
 77
     2
 78
   300
147
1.0
148
0.0
149
0.0
100
AcDbLayout
  1
Layout1
 70
     1
 71
     1
 10
0.0
 20
0.0
 11
12.0
 21
9.0
 12
0.0
 22
0.0
 32
0.0
 14
1.000000000000000E+20
 24
1.000000000000000E+20
 34
1.000000000000000E+20
 15
-1.000000000000000E+20
 25
-1.000000000000000E+20
 35
-1.000000000000000E+20
146
0.0
 13
0.0
 23
0.0
 33
0.0
 16
1.0
 26
0.0
 36
0.0
 17
0.0
 27
1.0
 37
0.0
 76
     0
330
4C3
  0
LAYOUT
  5
4CE
102
{ACAD_REACTORS
330
4C2
102
}
330
4C2
100
AcDbPlotSettings
  1

  2
none_device
  4

  6

 40
0.0
 41
0.0
 42
0.0
 43
0.0
 44
0.0
 45
0.0
 46
0.0
 47
0.0
 48
0.0
 49
0.0
140
0.0
141
0.0
142
1.0
143
1.0
 70
   688
 72
     0
 73
     0
 74
     5
  7

 75
    16
 76
     0
 77
     2
 78
   300
147
1.0
148
0.0
149
0.0
100
AcDbLayout
  1
Layout2
 70
     1
 71
     2
 10
0.0
 20
0.0
 11
0.0
 21
0.0
 12
0.0
 22
0.0
 32
0.0
 14
0.0
 24
0.0
 34
0.0
 15
0.0
 25
0.0
 35
0.0
146
0.0
 13
0.0
 23
0.0
 33
0.0
 16
1.0
 26
0.0
 36
0.0
 17
0.0
 27
1.0
 37
0.0
 76
     0
330
4CB
  0
LAYOUT
  5
4CA
102
{ACAD_REACTORS
330
4C2
102
}
330
4C2
100
AcDbPlotSettings
  1

  2
none_device
  4

  6

 40
0.0
 41
0.0
 42
0.0
 43
0.0
 44
0.0
 45
0.0
 46
0.0
 47
0.0
 48
0.0
 49
0.0
140
0.0
141
0.0
142
1.0
143
1.0
 70
  1712
 72
     0
 73
     0
 74
     0
  7

 75
     0
 76
     0
 77
     2
 78
   300
147
1.0
148
0.0
149
0.0
100
AcDbLayout
  1
Model
 70
     1
 71
     0
 10
0.0
 20
0.0
 11
12.0
 21
9.0
 12
0.0
 22
0.0
 32
0.0
 14
-0.7325
 24
-0.326835
 34
0.0
 15
14.725
 25
9.9255
 35
0.0
146
0.0
 13
0.0
 23
0.0
 33
0.0
 16
1.0
 26
0.0
 36
0.0
 17
0.0
 27
1.0
 37
0.0
 76
     0
330
4C7
331
4D1
  0
MATERIAL
  5
4E5
102
{ACAD_REACTORS
330
4E3
102
}
330
4E3
100
AcDbMaterial
  1
ByBlock
 72
     1
 94
      127
  0
MATERIAL
  5
4E4
102
{ACAD_REACTORS
330
4E3
102
}
330
4E3
100
AcDbMaterial
  1
ByLayer
 72
     1
 94
      127
  0
MATERIAL
  5
4E6
102
{ACAD_REACTORS
330
4E3
102
}
330
4E3
100
AcDbMaterial
  1
Global
 72
     1
 94
      127
  0
MLINESTYLE
  5
4C0
102
{ACAD_REACTORS
330
4BF
102
}
330
4BF
100
AcDbMlineStyle
  2
Standard
 70
     0
  3

 62
   256
 51
90.0
 52
90.0
 71
     2
 49
0.5
 62
   256
  6
BYLAYER
 49
-0.5
 62
   256
  6
BYLAYER
  0
ACDBPLACEHOLDER
  5
4B8
102
{ACAD_REACTORS
330
4B7
102
}
330
4B7
  0
VISUALSTYLE
  5
4D7
102
{ACAD_REACTORS
330
4D2
102
}
102
{ACAD_XDICTIONARY
360
553
102
}
330
4D2
100
AcDbVisualStyle
  2
2dWireframe
 70
     4
 71
     0
 72
     2
 73
     0
 90
        0
 40
-0.6
 41
-30.0
 62
     5
 63
     7
421
 16777215
 74
     1
 91
        4
 64
     7
 65
   257
 75
     1
175
     1
 42
1.0
 92
        0
 66
   257
 43
1.0
 76
     1
 77
     6
 78
     2
 67
     7
 79
     5
170
     0
171
     0
290
     0
174
     0
 93
        1
 44
0.0
173
     0
291
     0
 45
0.0
  0
VISUALSTYLE
  5
4D9
102
{ACAD_REACTORS
330
4D2
102
}
102
{ACAD_XDICTIONARY
360
557
102
}
330
4D2
100
AcDbVisualStyle
  2
3D Hidden
 70
     6
 71
     1
 72
     2
 73
     2
 90
        0
 40
-0.6
 41
-30.0
 62
     5
 63
     7
421
 16777215
 74
     2
 91
        2
 64
     7
 65
   257
 75
     2
175
     1
 42
40.0
 92
        0
 66
   257
 43
1.0
 76
     1
 77
     6
 78
     2
 67
     7
 79
     3
170
     0
171
     0
290
     0
174
     0
 93
        1
 44
0.0
173
     0
291
     0
 45
0.0
  0
VISUALSTYLE
  5
4D8
102
{ACAD_REACTORS
330
4D2
102
}
102
{ACAD_XDICTIONARY
360
555
102
}
330
4D2
100
AcDbVisualStyle
  2
3dWireframe
 70
     5
 71
     0
 72
     2
 73
     0
 90
        0
 40
-0.6
 41
-30.0
 62
     5
 63
     7
421
 16777215
 74
     1
 91
        4
 64
     7
 65
   257
 75
     1
175
     1
 42
1.0
 92
        0
 66
   257
 43
1.0
 76
     1
 77
     6
 78
     2
 67
     7
 79
     5
170
     0
171
     0
290
     0
174
     0
 93
        1
 44
0.0
173
     0
291
     0
 45
0.0
  0
VISUALSTYLE
  5
4DA
102
{ACAD_REACTORS
330
4D2
102
}
102
{ACAD_XDICTIONARY
360
559
102
}
330
4D2
100
AcDbVisualStyle
  2
Basic
 70
     7
 71
     1
 72
     0
 73
     1
 90
        0
 40
-0.6
 41
-30.0
 62
     5
 63
     7
421
 16777215
 74
     0
 91
        4
 64
     7
 65
   257
 75
     1
175
     1
 42
1.0
 92
        8
 66
     7
 43
1.0
 76
     1
 77
     6
 78
     2
 67
     7
 79
     5
170
     0
171
     0
290
     0
174
     0
 93
        1
 44
0.0
173
     0
291
     1
 45
0.0
  0
VISUALSTYLE
  5
4DE
102
{ACAD_REACTORS
330
4D2
102
}
102
{ACAD_XDICTIONARY
360
561
102
}
330
4D2
100
AcDbVisualStyle
  2
Brighten
 70
    12
 71
     2
 72
     2
 73
     0
 90
        0
 40
-0.6
 41
-30.0
 62
     5
 63
     7
421
 16777215
 74
     1
 91
        4
 64
     7
 65
   257
 75
     1
175
     1
 42
1.0
 92
        8
 66
     7
 43
1.0
 76
     1
 77
     6
 78
     2
 67
     7
 79
     5
170
     0
171
     0
290
     0
174
     0
 93
        1
 44
50.0
173
     0
291
     1
 45
0.0
  0
VISUALSTYLE
  5
4E2
102
{ACAD_REACTORS
330
4D2
102
}
102
{ACAD_XDICTIONARY
360
569
102
}
330
4D2
100
AcDbVisualStyle
  2
ColorChange
 70
    16
 71
     2
 72
     2
 73
     3
 90
        0
 40
-0.6
 41
-30.0
 62
     5
 63
     8
421
  8421504
 74
     1
 91
        4
 64
     7
 65
   257
 75
     1
175
     1
 42
1.0
 92
        8
 66
     8
424
  8421504
 43
1.0
 76
     1
 77
     6
 78
     2
 67
     7
 79
     5
170
     0
171
     0
290
     0
174
     0
 93
        1
 44
0.0
173
     0
291
     1
 45
0.0
  0
VISUALSTYLE
  5
4DC
102
{ACAD_REACTORS
330
4D2
102
}
102
{ACAD_XDICTIONARY
360
55D
102
}
330
4D2
100
AcDbVisualStyle
  2
Conceptual
 70
     9
 71
     3
 72
     2
 73
     0
 90
        0
 40
-0.6
 41
-30.0
 62
     5
 63
     7
421
 16777215
 74
     2
 91
        2
 64
     7
 65
   257
 75
     1
175
     1
 42
40.0
 92
        8
 66
     7
 43
1.0
 76
     1
 77
     6
 78
     2
 67
     7
 79
     3
170
     0
171
     0
290
     0
174
     0
 93
        1
 44
0.0
173
     0
291
     0
 45
0.0
  0
VISUALSTYLE
  5
4DD
102
{ACAD_REACTORS
330
4D2
102
}
102
{ACAD_XDICTIONARY
360
55F
102
}
330
4D2
100
AcDbVisualStyle
  2
Dim
 70
    11
 71
     2
 72
     2
 73
     0
 90
        0
 40
-0.6
 41
-30.0
 62
     5
 63
     7
421
 16777215
 74
     1
 91
        4
 64
     7
 65
   257
 75
     1
175
     1
 42
1.0
 92
        8
 66
     7
 43
1.0
 76
     1
 77
     6
 78
     2
 67
     7
 79
     5
170
     0
171
     0
290
     0
174
     0
 93
        1
 44
-50.0
173
     0
291
     1
 45
0.0
  0
VISUALSTYLE
  5
4E1
102
{ACAD_REACTORS
330
4D2
102
}
102
{ACAD_XDICTIONARY
360
567
102
}
330
4D2
100
AcDbVisualStyle
  2
Facepattern
 70
    15
 71
     2
 72
     2
 73
     0
 90
        0
 40
-0.6
 41
-30.0
 62
     5
 63
     7
421
 16777215
 74
     1
 91
        4
 64
     7
 65
   257
 75
     1
175
     1
 42
1.0
 92
        8
 66
     7
 43
1.0
 76
     1
 77
     6
 78
     2
 67
     7
 79
     5
170
     0
171
     0
290
     0
174
     0
 93
        1
 44
0.0
173
     0
291
     1
 45
0.0
  0
VISUALSTYLE
  5
4D3
102
{ACAD_REACTORS
330
4D2
102
}
102
{ACAD_XDICTIONARY
360
54B
102
}
330
4D2
100
AcDbVisualStyle
  2
Flat
 70
     0
 71
     2
 72
     1
 73
     1
 90
        2
 40
-0.6
 41
30.0
 62
     5
 63
     7
421
 16777215
 74
     0
 91
        4
 64
     7
 65
   257
 75
     1
175
     1
 42
1.0
 92
        8
 66
     7
 43
1.0
 76
     1
 77
     6
 78
     2
 67
     7
 79
     5
170
     0
171
     0
290
     0
174
     0
 93
       13
 44
0.0
173
     0
291
     1
 45
0.0
  0
VISUALSTYLE
  5
4D4
102
{ACAD_REACTORS
330
4D2
102
}
102
{ACAD_XDICTIONARY
360
54D
102
}
330
4D2
100
AcDbVisualStyle
  2
FlatWithEdges
 70
     1
 71
     2
 72
     1
 73
     1
 90
        2
 40
-0.6
 41
30.0
 62
     5
 63
     7
421
 16777215
 74
     1
 91
        4
 64
     7
 65
   257
 75
     1
175
     1
 42
1.0
 92
        0
 66
   257
 43
1.0
 76
     1
 77
     6
 78
     2
 67
     7
 79
     5
170
     0
171
     0
290
     0
174
     0
 93
       13
 44
0.0
173
     0
291
     1
 45
0.0
  0
VISUALSTYLE
  5
4D5
102
{ACAD_REACTORS
330
4D2
102
}
102
{ACAD_XDICTIONARY
360
54F
102
}
330
4D2
100
AcDbVisualStyle
  2
Gouraud
 70
     2
 71
     2
 72
     2
 73
     1
 90
        2
 40
-0.6
 41
30.0
 62
     5
 63
     7
421
 16777215
 74
     0
 91
        4
 64
     7
 65
   257
 75
     1
175
     1
 42
1.0
 92
        0
 66
     7
 43
1.0
 76
     1
 77
     6
 78
     2
 67
     7
 79
     5
170
     0
171
     0
290
     0
174
     0
 93
       13
 44
0.0
173
     0
291
     1
 45
0.0
  0
VISUALSTYLE
  5
4D6
102
{ACAD_REACTORS
330
4D2
102
}
102
{ACAD_XDICTIONARY
360
551
102
}
330
4D2
100
AcDbVisualStyle
  2
GouraudWithEdges
 70
     3
 71
     2
 72
     2
 73
     1
 90
        2
 40
-0.6
 41
30.0
 62
     5
 63
     7
421
 16777215
 74
     1
 91
        4
 64
     7
 65
   257
 75
     1
175
     1
 42
1.0
 92
        0
 66
   257
 43
1.0
 76
     1
 77
     6
 78
     2
 67
     7
 79
     5
170
     0
171
     0
290
     0
174
     0
 93
       13
 44
0.0
173
     0
291
     1
 45
0.0
  0
VISUALSTYLE
  5
4E0
102
{ACAD_REACTORS
330
4D2
102
}
102
{ACAD_XDICTIONARY
360
565
102
}
330
4D2
100
AcDbVisualStyle
  2
Linepattern
 70
    14
 71
     2
 72
     2
 73
     0
 90
        0
 40
-0.6
 41
-30.0
 62
     5
 63
     7
421
 16777215
 74
     1
 91
        4
 64
     7
 65
   257
 75
     7
175
     7
 42
1.0
 92
        8
 66
     7
 43
1.0
 76
     1
 77
     6
 78
     2
 67
     7
 79
     5
170
     0
171
     0
290
     0
174
     0
 93
        1
 44
0.0
173
     0
291
     1
 45
0.0
  0
VISUALSTYLE
  5
4DB
102
{ACAD_REACTORS
330
4D2
102
}
102
{ACAD_XDICTIONARY
360
55B
102
}
330
4D2
100
AcDbVisualStyle
  2
Realistic
 70
     8
 71
     2
 72
     2
 73
     0
 90
        0
 40
-0.6
 41
-30.0
 62
     5
 63
     7
421
 16777215
 74
     1
 91
        0
 64
     7
 65
   257
 75
     1
175
     1
 42
1.0
 92
        8
 66
     8
424
  7895160
 43
1.0
 76
     1
 77
     6
 78
     2
 67
     7
 79
     5
170
     0
171
     0
290
     0
174
     0
 93
       13
 44
0.0
173
     0
291
     0
 45
0.0
  0
VISUALSTYLE
  5
4DF
102
{ACAD_REACTORS
330
4D2
102
}
102
{ACAD_XDICTIONARY
360
563
102
}
330
4D2
100
AcDbVisualStyle
  2
Thicken
 70
    13
 71
     2
 72
     2
 73
     0
 90
        0
 40
-0.6
 41
-30.0
 62
     5
 63
     7
421
 16777215
 74
     1
 91
        4
 64
     7
 65
   257
 75
     1
175
     1
 42
1.0
 92
       12
 66
     7
 43
1.0
 76
     1
 77
     6
 78
     2
 67
     7
 79
     5
170
     0
171
     0
290
     0
174
     0
 93
        1
 44
0.0
173
     0
291
     1
 45
0.0
  0
XRECORD
  5
4F9
102
{ACAD_REACTORS
330
4E8
102
}
330
4E8
100
AcDbXrecord
280
     1
290
     1
  0
XRECORD
  5
4F2
102
{ACAD_REACTORS
330
4E8
102
}
330
4E8
100
AcDbXrecord
280
     1
1000
auto
  0
XRECORD
  5
4F4
102
{ACAD_REACTORS
330
4E8
102
}
330
4E8
100
AcDbXrecord
280
     1
1000
auto
  0
XRECORD
  5
4EC
102
{ACAD_REACTORS
330
4E8
102
}
330
4E8
100
AcDbXrecord
280
     1
1000
auto
  0
XRECORD
  5
4F0
102
{ACAD_REACTORS
330
4E8
102
}
330
4E8
100
AcDbXrecord
280
     1
1000
auto
  0
XRECORD
  5
4F1
102
{ACAD_REACTORS
330
4E8
102
}
330
4E8
100
AcDbXrecord
280
     1
 90
        1
  0
XRECORD
  5
4ED
102
{ACAD_REACTORS
330
4E8
102
}
330
4E8
100
AcDbXrecord
280
     1
 40
10.0
  0
XRECORD
  5
4F5
102
{ACAD_REACTORS
330
4E8
102
}
330
4E8
100
AcDbXrecord
280
     1
 40
10.0
  0
XRECORD
  5
4E9
102
{ACAD_REACTORS
330
4E8
102
}
330
4E8
100
AcDbXrecord
280
     1
 40
10.0
  0
XRECORD
  5
4FD
102
{ACAD_REACTORS
330
4E8
102
}
330
4E8
100
AcDbXrecord
280
     1
 40
10.0
  0
XRECORD
  5
4EB
102
{ACAD_REACTORS
330
4E8
102
}
330
4E8
100
AcDbXrecord
280
     1
290
     0
  0
XRECORD
  5
4F6
102
{ACAD_REACTORS
330
4E8
102
}
330
4E8
100
AcDbXrecord
280
     1
 90
        1
  0
XRECORD
  5
4FB
102
{ACAD_REACTORS
330
4E8
102
}
330
4E8
100
AcDbXrecord
280
     1
 40
0.0
  0
XRECORD
  5
4FC
102
{ACAD_REACTORS
330
4E8
102
}
330
4E8
100
AcDbXrecord
280
     1
 40
0.0
  0
XRECORD
  5
4EA
102
{ACAD_REACTORS
330
4E8
102
}
330
4E8
100
AcDbXrecord
280
     1
1000
Portrait
  0
XRECORD
  5
4EF
102
{ACAD_REACTORS
330
4E8
102
}
330
4E8
100
AcDbXrecord
280
     1
 40
11.0
  0
XRECORD
  5
4F7
102
{ACAD_REACTORS
330
4E8
102
}
330
4E8
100
AcDbXrecord
280
     1
 40
8.5
  0
XRECORD
  5
4EE
102
{ACAD_REACTORS
330
4E8
102
}
330
4E8
100
AcDbXrecord
280
     1
1000
1" = 1"
  0
XRECORD
  5
4F3
102
{ACAD_REACTORS
330
4E8
102
}
330
4E8
100
AcDbXrecord
280
     1
290
     0
  0
XRECORD
  5
4FA
102
{ACAD_REACTORS
330
4E8
102
}
330
4E8
100
AcDbXrecord
280
     1
290
     1
  0
XRECORD
  5
4F8
102
{ACAD_REACTORS
330
4E8
102
}
330
4E8
100
AcDbXrecord
280
     1
 90
        1
  0
DICTIONARY
  5
553
330
4D7
100
AcDbDictionary
280
     1
281
     1
  3
ACAD_XREC_ROUNDTRIP
360
554
  0
DICTIONARY
  5
557
330
4D9
100
AcDbDictionary
280
     1
281
     1
  3
ACAD_XREC_ROUNDTRIP
360
558
  0
DICTIONARY
  5
555
330
4D8
100
AcDbDictionary
280
     1
281
     1
  3
ACAD_XREC_ROUNDTRIP
360
556
  0
DICTIONARY
  5
559
330
4DA
100
AcDbDictionary
280
     1
281
     1
  3
ACAD_XREC_ROUNDTRIP
360
55A
  0
DICTIONARY
  5
561
330
4DE
100
AcDbDictionary
280
     1
281
     1
  3
ACAD_XREC_ROUNDTRIP
360
562
  0
DICTIONARY
  5
569
330
4E2
100
AcDbDictionary
280
     1
281
     1
  3
ACAD_XREC_ROUNDTRIP
360
56A
  0
DICTIONARY
  5
55D
330
4DC
100
AcDbDictionary
280
     1
281
     1
  3
ACAD_XREC_ROUNDTRIP
360
55E
  0
DICTIONARY
  5
55F
330
4DD
100
AcDbDictionary
280
     1
281
     1
  3
ACAD_XREC_ROUNDTRIP
360
560
  0
DICTIONARY
  5
567
330
4E1
100
AcDbDictionary
280
     1
281
     1
  3
ACAD_XREC_ROUNDTRIP
360
568
  0
DICTIONARY
  5
54B
330
4D3
100
AcDbDictionary
280
     1
281
     1
  3
ACAD_XREC_ROUNDTRIP
360
54C
  0
DICTIONARY
  5
54D
330
4D4
100
AcDbDictionary
280
     1
281
     1
  3
ACAD_XREC_ROUNDTRIP
360
54E
  0
DICTIONARY
  5
54F
330
4D5
100
AcDbDictionary
280
     1
281
     1
  3
ACAD_XREC_ROUNDTRIP
360
550
  0
DICTIONARY
  5
551
330
4D6
100
AcDbDictionary
280
     1
281
     1
  3
ACAD_XREC_ROUNDTRIP
360
552
  0
DICTIONARY
  5
565
330
4E0
100
AcDbDictionary
280
     1
281
     1
  3
ACAD_XREC_ROUNDTRIP
360
566
  0
DICTIONARY
  5
55B
330
4DB
100
AcDbDictionary
280
     1
281
     1
  3
ACAD_XREC_ROUNDTRIP
360
55C
  0
DICTIONARY
  5
563
330
4DF
100
AcDbDictionary
280
     1
281
     1
  3
ACAD_XREC_ROUNDTRIP
360
564
  0
XRECORD
  5
554
102
{ACAD_REACTORS
330
553
102
}
330
553
100
AcDbXrecord
280
     1
102
RTVSPropertyOp0
 70
     1
102
RTVSPropertyOp1
 70
     1
102
RTVSPropertyOp2
 70
     1
102
RTVSPropertyOp3
 70
     1
102
RTVSPropertyOp4
 70
     1
102
RTVSPropertyOp5
 70
     1
102
RTVSPropertyOp6
 70
     1
102
RTVSPropertyOp7
 70
     1
102
RTVSPropertyOp8
 70
     1
102
RTVSPropertyOp9
 70
     1
102
RTVSPropertyOp10
 70
     1
102
RTVSPropertyOp11
 70
     1
102
RTVSPropertyOp12
 70
     1
102
RTVSPropertyOp13
 70
     1
102
RTVSPropertyOp14
 70
     1
102
RTVSPropertyOp15
 70
     1
102
RTVSPropertyOp16
 70
     1
102
RTVSPropertyOp17
 70
     1
102
RTVSPropertyOp18
 70
     1
102
RTVSPropertyOp19
 70
     1
102
RTVSPropertyOp20
 70
     1
102
RTVSPropertyOp21
 70
     1
102
RTVSPropertyOp22
 70
     1
102
RTVSPropertyOp23
 70
     1
102
RTVSPropertyOp24
 70
     1
102
RTVSPropertyOp25
 70
     1
102
RTVSPropertyOp26
 70
     1
102
RTVSPropertyOp27
 70
     1
102
RTVSPropertyOp28
 70
     1
102
RTVSPropertyOp29
 70
     1
102
RTVSPropertyOp30
 70
     1
102
RTVSPropertyOp31
 70
     1
102
RTVSPropertyOp32
 70
     1
  0
XRECORD
  5
558
102
{ACAD_REACTORS
330
557
102
}
330
557
100
AcDbXrecord
280
     1
102
RTVSPropertyOp0
 70
     1
102
RTVSPropertyOp1
 70
     1
102
RTVSPropertyOp2
 70
     1
102
RTVSPropertyOp3
 70
     1
102
RTVSPropertyOp4
 70
     1
102
RTVSPropertyOp5
 70
     1
102
RTVSPropertyOp6
 70
     1
102
RTVSPropertyOp7
 70
     1
102
RTVSPropertyOp8
 70
     1
102
RTVSPropertyOp9
 70
     1
102
RTVSPropertyOp10
 70
     1
102
RTVSPropertyOp11
 70
     1
102
RTVSPropertyOp12
 70
     1
102
RTVSPropertyOp13
 70
     1
102
RTVSPropertyOp14
 70
     1
102
RTVSPropertyOp15
 70
     1
102
RTVSPropertyOp16
 70
     1
102
RTVSPropertyOp17
 70
     1
102
RTVSPropertyOp18
 70
     1
102
RTVSPropertyOp19
 70
     1
102
RTVSPropertyOp20
 70
     1
102
RTVSPropertyOp21
 70
     1
102
RTVSPropertyOp22
 70
     1
102
RTVSPropertyOp23
 70
     1
102
RTVSPropertyOp24
 70
     1
102
RTVSPropertyOp25
 70
     1
102
RTVSPropertyOp26
 70
     1
102
RTVSPropertyOp27
 70
     1
102
RTVSPropertyOp28
 70
     1
102
RTVSPropertyOp29
 70
     1
102
RTVSPropertyOp30
 70
     1
102
RTVSPropertyOp31
 70
     1
102
RTVSPropertyOp32
 70
     1
  0
XRECORD
  5
556
102
{ACAD_REACTORS
330
555
102
}
330
555
100
AcDbXrecord
280
     1
102
RTVSPropertyOp0
 70
     1
102
RTVSPropertyOp1
 70
     1
102
RTVSPropertyOp2
 70
     1
102
RTVSPropertyOp3
 70
     1
102
RTVSPropertyOp4
 70
     1
102
RTVSPropertyOp5
 70
     1
102
RTVSPropertyOp6
 70
     1
102
RTVSPropertyOp7
 70
     1
102
RTVSPropertyOp8
 70
     1
102
RTVSPropertyOp9
 70
     1
102
RTVSPropertyOp10
 70
     1
102
RTVSPropertyOp11
 70
     1
102
RTVSPropertyOp12
 70
     1
102
RTVSPropertyOp13
 70
     1
102
RTVSPropertyOp14
 70
     1
102
RTVSPropertyOp15
 70
     1
102
RTVSPropertyOp16
 70
     1
102
RTVSPropertyOp17
 70
     1
102
RTVSPropertyOp18
 70
     1
102
RTVSPropertyOp19
 70
     1
102
RTVSPropertyOp20
 70
     1
102
RTVSPropertyOp21
 70
     1
102
RTVSPropertyOp22
 70
     1
102
RTVSPropertyOp23
 70
     1
102
RTVSPropertyOp24
 70
     1
102
RTVSPropertyOp25
 70
     1
102
RTVSPropertyOp26
 70
     1
102
RTVSPropertyOp27
 70
     1
102
RTVSPropertyOp28
 70
     1
102
RTVSPropertyOp29
 70
     1
102
RTVSPropertyOp30
 70
     1
102
RTVSPropertyOp31
 70
     1
102
RTVSPropertyOp32
 70
     1
  0
XRECORD
  5
55A
102
{ACAD_REACTORS
330
559
102
}
330
559
100
AcDbXrecord
280
     1
102
RTVSPropertyOp0
 70
     1
102
RTVSPropertyOp1
 70
     1
102
RTVSPropertyOp2
 70
     1
102
RTVSPropertyOp3
 70
     1
102
RTVSPropertyOp4
 70
     1
102
RTVSPropertyOp5
 70
     1
102
RTVSPropertyOp6
 70
     1
102
RTVSPropertyOp7
 70
     1
102
RTVSPropertyOp8
 70
     1
102
RTVSPropertyOp9
 70
     1
102
RTVSPropertyOp10
 70
     1
102
RTVSPropertyOp11
 70
     1
102
RTVSPropertyOp12
 70
     1
102
RTVSPropertyOp13
 70
     1
102
RTVSPropertyOp14
 70
     1
102
RTVSPropertyOp15
 70
     1
102
RTVSPropertyOp16
 70
     1
102
RTVSPropertyOp17
 70
     1
102
RTVSPropertyOp18
 70
     1
102
RTVSPropertyOp19
 70
     1
102
RTVSPropertyOp20
 70
     1
102
RTVSPropertyOp21
 70
     1
102
RTVSPropertyOp22
 70
     1
102
RTVSPropertyOp23
 70
     1
102
RTVSPropertyOp24
 70
     1
102
RTVSPropertyOp25
 70
     1
102
RTVSPropertyOp26
 70
     1
102
RTVSPropertyOp27
 70
     1
102
RTVSPropertyOp28
 70
     1
102
RTVSPropertyOp29
 70
     1
102
RTVSPropertyOp30
 70
     1
102
RTVSPropertyOp31
 70
     1
102
RTVSPropertyOp32
 70
     1
  0
XRECORD
  5
562
102
{ACAD_REACTORS
330
561
102
}
330
561
100
AcDbXrecord
280
     1
102
RTVSPropertyOp0
 70
     1
102
RTVSPropertyOp1
 70
     1
102
RTVSPropertyOp2
 70
     1
102
RTVSPropertyOp3
 70
     1
102
RTVSPropertyOp4
 70
     1
102
RTVSPropertyOp5
 70
     1
102
RTVSPropertyOp6
 70
     1
102
RTVSPropertyOp7
 70
     1
102
RTVSPropertyOp8
 70
     1
102
RTVSPropertyOp9
 70
     1
102
RTVSPropertyOp10
 70
     1
102
RTVSPropertyOp11
 70
     1
102
RTVSPropertyOp12
 70
     1
102
RTVSPropertyOp13
 70
     1
102
RTVSPropertyOp14
 70
     1
102
RTVSPropertyOp15
 70
     1
102
RTVSPropertyOp16
 70
     1
102
RTVSPropertyOp17
 70
     1
102
RTVSPropertyOp18
 70
     1
102
RTVSPropertyOp19
 70
     1
102
RTVSPropertyOp20
 70
     1
102
RTVSPropertyOp21
 70
     1
102
RTVSPropertyOp22
 70
     1
102
RTVSPropertyOp23
 70
     1
102
RTVSPropertyOp24
 70
     1
102
RTVSPropertyOp25
 70
     1
102
RTVSPropertyOp26
 70
     1
102
RTVSPropertyOp27
 70
     1
102
RTVSPropertyOp28
 70
     1
102
RTVSPropertyOp29
 70
     1
102
RTVSPropertyOp30
 70
     1
102
RTVSPropertyOp31
 70
     1
102
RTVSPropertyOp32
 70
     1
  0
XRECORD
  5
56A
102
{ACAD_REACTORS
330
569
102
}
330
569
100
AcDbXrecord
280
     1
102
RTVSPropertyOp0
 70
     1
102
RTVSPropertyOp1
 70
     1
102
RTVSPropertyOp2
 70
     1
102
RTVSPropertyOp3
 70
     1
102
RTVSPropertyOp4
 70
     1
102
RTVSPropertyOp5
 70
     1
102
RTVSPropertyOp6
 70
     1
102
RTVSPropertyOp7
 70
     1
102
RTVSPropertyOp8
 70
     1
102
RTVSPropertyOp9
 70
     1
102
RTVSPropertyOp10
 70
     1
102
RTVSPropertyOp11
 70
     1
102
RTVSPropertyOp12
 70
     1
102
RTVSPropertyOp13
 70
     1
102
RTVSPropertyOp14
 70
     1
102
RTVSPropertyOp15
 70
     1
102
RTVSPropertyOp16
 70
     1
102
RTVSPropertyOp17
 70
     1
102
RTVSPropertyOp18
 70
     1
102
RTVSPropertyOp19
 70
     1
102
RTVSPropertyOp20
 70
     1
102
RTVSPropertyOp21
 70
     1
102
RTVSPropertyOp22
 70
     1
102
RTVSPropertyOp23
 70
     1
102
RTVSPropertyOp24
 70
     1
102
RTVSPropertyOp25
 70
     1
102
RTVSPropertyOp26
 70
     1
102
RTVSPropertyOp27
 70
     1
102
RTVSPropertyOp28
 70
     1
102
RTVSPropertyOp29
 70
     1
102
RTVSPropertyOp30
 70
     1
102
RTVSPropertyOp31
 70
     1
102
RTVSPropertyOp32
 70
     1
  0
XRECORD
  5
55E
102
{ACAD_REACTORS
330
55D
102
}
330
55D
100
AcDbXrecord
280
     1
102
RTVSPropertyOp0
 70
     1
102
RTVSPropertyOp1
 70
     1
102
RTVSPropertyOp2
 70
     1
102
RTVSPropertyOp3
 70
     1
102
RTVSPropertyOp4
 70
     1
102
RTVSPropertyOp5
 70
     1
102
RTVSPropertyOp6
 70
     1
102
RTVSPropertyOp7
 70
     1
102
RTVSPropertyOp8
 70
     1
102
RTVSPropertyOp9
 70
     1
102
RTVSPropertyOp10
 70
     1
102
RTVSPropertyOp11
 70
     1
102
RTVSPropertyOp12
 70
     1
102
RTVSPropertyOp13
 70
     1
102
RTVSPropertyOp14
 70
     1
102
RTVSPropertyOp15
 70
     1
102
RTVSPropertyOp16
 70
     1
102
RTVSPropertyOp17
 70
     1
102
RTVSPropertyOp18
 70
     1
102
RTVSPropertyOp19
 70
     1
102
RTVSPropertyOp20
 70
     1
102
RTVSPropertyOp21
 70
     1
102
RTVSPropertyOp22
 70
     1
102
RTVSPropertyOp23
 70
     1
102
RTVSPropertyOp24
 70
     1
102
RTVSPropertyOp25
 70
     1
102
RTVSPropertyOp26
 70
     1
102
RTVSPropertyOp27
 70
     1
102
RTVSPropertyOp28
 70
     1
102
RTVSPropertyOp29
 70
     1
102
RTVSPropertyOp30
 70
     1
102
RTVSPropertyOp31
 70
     1
102
RTVSPropertyOp32
 70
     1
  0
XRECORD
  5
560
102
{ACAD_REACTORS
330
55F
102
}
330
55F
100
AcDbXrecord
280
     1
102
RTVSPropertyOp0
 70
     1
102
RTVSPropertyOp1
 70
     1
102
RTVSPropertyOp2
 70
     1
102
RTVSPropertyOp3
 70
     1
102
RTVSPropertyOp4
 70
     1
102
RTVSPropertyOp5
 70
     1
102
RTVSPropertyOp6
 70
     1
102
RTVSPropertyOp7
 70
     1
102
RTVSPropertyOp8
 70
     1
102
RTVSPropertyOp9
 70
     1
102
RTVSPropertyOp10
 70
     1
102
RTVSPropertyOp11
 70
     1
102
RTVSPropertyOp12
 70
     1
102
RTVSPropertyOp13
 70
     1
102
RTVSPropertyOp14
 70
     1
102
RTVSPropertyOp15
 70
     1
102
RTVSPropertyOp16
 70
     1
102
RTVSPropertyOp17
 70
     1
102
RTVSPropertyOp18
 70
     1
102
RTVSPropertyOp19
 70
     1
102
RTVSPropertyOp20
 70
     1
102
RTVSPropertyOp21
 70
     1
102
RTVSPropertyOp22
 70
     1
102
RTVSPropertyOp23
 70
     1
102
RTVSPropertyOp24
 70
     1
102
RTVSPropertyOp25
 70
     1
102
RTVSPropertyOp26
 70
     1
102
RTVSPropertyOp27
 70
     1
102
RTVSPropertyOp28
 70
     1
102
RTVSPropertyOp29
 70
     1
102
RTVSPropertyOp30
 70
     1
102
RTVSPropertyOp31
 70
     1
102
RTVSPropertyOp32
 70
     1
  0
XRECORD
  5
568
102
{ACAD_REACTORS
330
567
102
}
330
567
100
AcDbXrecord
280
     1
102
RTVSPropertyOp0
 70
     1
102
RTVSPropertyOp1
 70
     1
102
RTVSPropertyOp2
 70
     1
102
RTVSPropertyOp3
 70
     1
102
RTVSPropertyOp4
 70
     1
102
RTVSPropertyOp5
 70
     1
102
RTVSPropertyOp6
 70
     1
102
RTVSPropertyOp7
 70
     1
102
RTVSPropertyOp8
 70
     1
102
RTVSPropertyOp9
 70
     1
102
RTVSPropertyOp10
 70
     1
102
RTVSPropertyOp11
 70
     1
102
RTVSPropertyOp12
 70
     1
102
RTVSPropertyOp13
 70
     1
102
RTVSPropertyOp14
 70
     1
102
RTVSPropertyOp15
 70
     1
102
RTVSPropertyOp16
 70
     1
102
RTVSPropertyOp17
 70
     1
102
RTVSPropertyOp18
 70
     1
102
RTVSPropertyOp19
 70
     1
102
RTVSPropertyOp20
 70
     1
102
RTVSPropertyOp21
 70
     1
102
RTVSPropertyOp22
 70
     1
102
RTVSPropertyOp23
 70
     1
102
RTVSPropertyOp24
 70
     1
102
RTVSPropertyOp25
 70
     1
102
RTVSPropertyOp26
 70
     1
102
RTVSPropertyOp27
 70
     1
102
RTVSPropertyOp28
 70
     1
102
RTVSPropertyOp29
 70
     1
102
RTVSPropertyOp30
 70
     1
102
RTVSPropertyOp31
 70
     1
102
RTVSPropertyOp32
 70
     1
  0
XRECORD
  5
54C
102
{ACAD_REACTORS
330
54B
102
}
330
54B
100
AcDbXrecord
280
     1
102
RTVSPropertyOp0
 70
     1
102
RTVSPropertyOp1
 70
     1
102
RTVSPropertyOp2
 70
     1
102
RTVSPropertyOp3
 70
     1
102
RTVSPropertyOp4
 70
     1
102
RTVSPropertyOp5
 70
     1
102
RTVSPropertyOp6
 70
     1
102
RTVSPropertyOp7
 70
     1
102
RTVSPropertyOp8
 70
     1
102
RTVSPropertyOp9
 70
     1
102
RTVSPropertyOp10
 70
     1
102
RTVSPropertyOp11
 70
     1
102
RTVSPropertyOp12
 70
     1
102
RTVSPropertyOp13
 70
     1
102
RTVSPropertyOp14
 70
     1
102
RTVSPropertyOp15
 70
     1
102
RTVSPropertyOp16
 70
     1
102
RTVSPropertyOp17
 70
     1
102
RTVSPropertyOp18
 70
     1
102
RTVSPropertyOp19
 70
     1
102
RTVSPropertyOp20
 70
     1
102
RTVSPropertyOp21
 70
     1
102
RTVSPropertyOp22
 70
     1
102
RTVSPropertyOp23
 70
     1
102
RTVSPropertyOp24
 70
     1
102
RTVSPropertyOp25
 70
     1
102
RTVSPropertyOp26
 70
     1
102
RTVSPropertyOp27
 70
     1
102
RTVSPropertyOp28
 70
     1
102
RTVSPropertyOp29
 70
     1
102
RTVSPropertyOp30
 70
     1
102
RTVSPropertyOp31
 70
     1
102
RTVSPropertyOp32
 70
     1
  0
XRECORD
  5
54E
102
{ACAD_REACTORS
330
54D
102
}
330
54D
100
AcDbXrecord
280
     1
102
RTVSPropertyOp0
 70
     1
102
RTVSPropertyOp1
 70
     1
102
RTVSPropertyOp2
 70
     1
102
RTVSPropertyOp3
 70
     1
102
RTVSPropertyOp4
 70
     1
102
RTVSPropertyOp5
 70
     1
102
RTVSPropertyOp6
 70
     1
102
RTVSPropertyOp7
 70
     1
102
RTVSPropertyOp8
 70
     1
102
RTVSPropertyOp9
 70
     1
102
RTVSPropertyOp10
 70
     1
102
RTVSPropertyOp11
 70
     1
102
RTVSPropertyOp12
 70
     1
102
RTVSPropertyOp13
 70
     1
102
RTVSPropertyOp14
 70
     1
102
RTVSPropertyOp15
 70
     1
102
RTVSPropertyOp16
 70
     1
102
RTVSPropertyOp17
 70
     1
102
RTVSPropertyOp18
 70
     1
102
RTVSPropertyOp19
 70
     1
102
RTVSPropertyOp20
 70
     1
102
RTVSPropertyOp21
 70
     1
102
RTVSPropertyOp22
 70
     1
102
RTVSPropertyOp23
 70
     1
102
RTVSPropertyOp24
 70
     1
102
RTVSPropertyOp25
 70
     1
102
RTVSPropertyOp26
 70
     1
102
RTVSPropertyOp27
 70
     1
102
RTVSPropertyOp28
 70
     1
102
RTVSPropertyOp29
 70
     1
102
RTVSPropertyOp30
 70
     1
102
RTVSPropertyOp31
 70
     1
102
RTVSPropertyOp32
 70
     1
  0
XRECORD
  5
550
102
{ACAD_REACTORS
330
54F
102
}
330
54F
100
AcDbXrecord
280
     1
102
RTVSPropertyOp0
 70
     1
102
RTVSPropertyOp1
 70
     1
102
RTVSPropertyOp2
 70
     1
102
RTVSPropertyOp3
 70
     1
102
RTVSPropertyOp4
 70
     1
102
RTVSPropertyOp5
 70
     1
102
RTVSPropertyOp6
 70
     1
102
RTVSPropertyOp7
 70
     1
102
RTVSPropertyOp8
 70
     1
102
RTVSPropertyOp9
 70
     1
102
RTVSPropertyOp10
 70
     1
102
RTVSPropertyOp11
 70
     1
102
RTVSPropertyOp12
 70
     1
102
RTVSPropertyOp13
 70
     1
102
RTVSPropertyOp14
 70
     1
102
RTVSPropertyOp15
 70
     1
102
RTVSPropertyOp16
 70
     1
102
RTVSPropertyOp17
 70
     1
102
RTVSPropertyOp18
 70
     1
102
RTVSPropertyOp19
 70
     1
102
RTVSPropertyOp20
 70
     1
102
RTVSPropertyOp21
 70
     1
102
RTVSPropertyOp22
 70
     1
102
RTVSPropertyOp23
 70
     1
102
RTVSPropertyOp24
 70
     1
102
RTVSPropertyOp25
 70
     1
102
RTVSPropertyOp26
 70
     1
102
RTVSPropertyOp27
 70
     1
102
RTVSPropertyOp28
 70
     1
102
RTVSPropertyOp29
 70
     1
102
RTVSPropertyOp30
 70
     1
102
RTVSPropertyOp31
 70
     1
102
RTVSPropertyOp32
 70
     1
  0
XRECORD
  5
552
102
{ACAD_REACTORS
330
551
102
}
330
551
100
AcDbXrecord
280
     1
102
RTVSPropertyOp0
 70
     1
102
RTVSPropertyOp1
 70
     1
102
RTVSPropertyOp2
 70
     1
102
RTVSPropertyOp3
 70
     1
102
RTVSPropertyOp4
 70
     1
102
RTVSPropertyOp5
 70
     1
102
RTVSPropertyOp6
 70
     1
102
RTVSPropertyOp7
 70
     1
102
RTVSPropertyOp8
 70
     1
102
RTVSPropertyOp9
 70
     1
102
RTVSPropertyOp10
 70
     1
102
RTVSPropertyOp11
 70
     1
102
RTVSPropertyOp12
 70
     1
102
RTVSPropertyOp13
 70
     1
102
RTVSPropertyOp14
 70
     1
102
RTVSPropertyOp15
 70
     1
102
RTVSPropertyOp16
 70
     1
102
RTVSPropertyOp17
 70
     1
102
RTVSPropertyOp18
 70
     1
102
RTVSPropertyOp19
 70
     1
102
RTVSPropertyOp20
 70
     1
102
RTVSPropertyOp21
 70
     1
102
RTVSPropertyOp22
 70
     1
102
RTVSPropertyOp23
 70
     1
102
RTVSPropertyOp24
 70
     1
102
RTVSPropertyOp25
 70
     1
102
RTVSPropertyOp26
 70
     1
102
RTVSPropertyOp27
 70
     1
102
RTVSPropertyOp28
 70
     1
102
RTVSPropertyOp29
 70
     1
102
RTVSPropertyOp30
 70
     1
102
RTVSPropertyOp31
 70
     1
102
RTVSPropertyOp32
 70
     1
  0
XRECORD
  5
566
102
{ACAD_REACTORS
330
565
102
}
330
565
100
AcDbXrecord
280
     1
102
RTVSPropertyOp0
 70
     1
102
RTVSPropertyOp1
 70
     1
102
RTVSPropertyOp2
 70
     1
102
RTVSPropertyOp3
 70
     1
102
RTVSPropertyOp4
 70
     1
102
RTVSPropertyOp5
 70
     1
102
RTVSPropertyOp6
 70
     1
102
RTVSPropertyOp7
 70
     1
102
RTVSPropertyOp8
 70
     1
102
RTVSPropertyOp9
 70
     1
102
RTVSPropertyOp10
 70
     1
102
RTVSPropertyOp11
 70
     1
102
RTVSPropertyOp12
 70
     1
102
RTVSPropertyOp13
 70
     1
102
RTVSPropertyOp14
 70
     1
102
RTVSPropertyOp15
 70
     1
102
RTVSPropertyOp16
 70
     1
102
RTVSPropertyOp17
 70
     1
102
RTVSPropertyOp18
 70
     1
102
RTVSPropertyOp19
 70
     1
102
RTVSPropertyOp20
 70
     1
102
RTVSPropertyOp21
 70
     1
102
RTVSPropertyOp22
 70
     1
102
RTVSPropertyOp23
 70
     1
102
RTVSPropertyOp24
 70
     1
102
RTVSPropertyOp25
 70
     1
102
RTVSPropertyOp26
 70
     1
102
RTVSPropertyOp27
 70
     1
102
RTVSPropertyOp28
 70
     1
102
RTVSPropertyOp29
 70
     1
102
RTVSPropertyOp30
 70
     1
102
RTVSPropertyOp31
 70
     1
102
RTVSPropertyOp32
 70
     1
  0
XRECORD
  5
55C
102
{ACAD_REACTORS
330
55B
102
}
330
55B
100
AcDbXrecord
280
     1
102
RTVSPropertyOp0
 70
     1
102
RTVSPropertyOp1
 70
     1
102
RTVSPropertyOp2
 70
     1
102
RTVSPropertyOp3
 70
     1
102
RTVSPropertyOp4
 70
     1
102
RTVSPropertyOp5
 70
     1
102
RTVSPropertyOp6
 70
     1
102
RTVSPropertyOp7
 70
     1
102
RTVSPropertyOp8
 70
     1
102
RTVSPropertyOp9
 70
     1
102
RTVSPropertyOp10
 70
     1
102
RTVSPropertyOp11
 70
     1
102
RTVSPropertyOp12
 70
     1
102
RTVSPropertyOp13
 70
     1
102
RTVSPropertyOp14
 70
     1
102
RTVSPropertyOp15
 70
     1
102
RTVSPropertyOp16
 70
     1
102
RTVSPropertyOp17
 70
     1
102
RTVSPropertyOp18
 70
     1
102
RTVSPropertyOp19
 70
     1
102
RTVSPropertyOp20
 70
     1
102
RTVSPropertyOp21
 70
     1
102
RTVSPropertyOp22
 70
     1
102
RTVSPropertyOp23
 70
     1
102
RTVSPropertyOp24
 70
     1
102
RTVSPropertyOp25
 70
     1
102
RTVSPropertyOp26
 70
     1
102
RTVSPropertyOp27
 70
     1
102
RTVSPropertyOp28
 70
     1
102
RTVSPropertyOp29
 70
     1
102
RTVSPropertyOp30
 70
     1
102
RTVSPropertyOp31
 70
     1
102
RTVSPropertyOp32
 70
     1
  0
XRECORD
  5
564
102
{ACAD_REACTORS
330
563
102
}
330
563
100
AcDbXrecord
280
     1
102
RTVSPropertyOp0
 70
     1
102
RTVSPropertyOp1
 70
     1
102
RTVSPropertyOp2
 70
     1
102
RTVSPropertyOp3
 70
     1
102
RTVSPropertyOp4
 70
     1
102
RTVSPropertyOp5
 70
     1
102
RTVSPropertyOp6
 70
     1
102
RTVSPropertyOp7
 70
     1
102
RTVSPropertyOp8
 70
     1
102
RTVSPropertyOp9
 70
     1
102
RTVSPropertyOp10
 70
     1
102
RTVSPropertyOp11
 70
     1
102
RTVSPropertyOp12
 70
     1
102
RTVSPropertyOp13
 70
     1
102
RTVSPropertyOp14
 70
     1
102
RTVSPropertyOp15
 70
     1
102
RTVSPropertyOp16
 70
     1
102
RTVSPropertyOp17
 70
     1
102
RTVSPropertyOp18
 70
     1
102
RTVSPropertyOp19
 70
     1
102
RTVSPropertyOp20
 70
     1
102
RTVSPropertyOp21
 70
     1
102
RTVSPropertyOp22
 70
     1
102
RTVSPropertyOp23
 70
     1
102
RTVSPropertyOp24
 70
     1
102
RTVSPropertyOp25
 70
     1
102
RTVSPropertyOp26
 70
     1
102
RTVSPropertyOp27
 70
     1
102
RTVSPropertyOp28
 70
     1
102
RTVSPropertyOp29
 70
     1
102
RTVSPropertyOp30
 70
     1
102
RTVSPropertyOp31
 70
     1
102
RTVSPropertyOp32
 70
     1
  0
ENDSEC
  0
EOF
