  0
SECTION
  2
HEADER
  9
$ACADVER
  1
AC1024
  9
$ACADMAINTVER
 70
     6
  9
$DWGCODEPAGE
  3
ASCII
  9
$INSBASE
 10
0.0
 20
0.0
 30
0.0
  9
$EXTMIN
 10
1.000000000000000E+20
 20
1.000000000000000E+20
 30
1.000000000000000E+20
  9
$EXTMAX
 10
-1.000000000000000E+20
 20
-1.000000000000000E+20
 30
-1.000000000000000E+20
  9
$LIMMIN
 10
0.0
 20
0.0
  9
$LIMMAX
 10
12.0
 20
9.0
  9
$ORTHOMODE
 70
     0
  9
$REGENMODE
 70
     1
  9
$FILLMODE
 70
     1
  9
$QTEXTMODE
 70
     0
  9
$MIRRTEXT
 70
     1
  9
$LTSCALE
 40
1.0
  9
$ATTMODE
 70
     1
  9
$TEXTSIZE
 40
0.2
  9
$TRACEWID
 40
0.05
  9
$TEXTSTYLE
  7
Standard
  9
$CLAYER
  8
0
  9
$CELTYPE
  6
ByLayer
  9
$CECOLOR
 62
   178
  9
$CELTSCALE
 40
1.0
  9
$DISPSILH
 70
     0
  9
$DIMSCALE
 40
1.0
  9
$DIMASZ
 40
0.125
  9
$DIMEXO
 40
0.03125
  9
$DIMDLI
 40
0.38
  9
$DIMRND
 40
0.0
  9
$DIMDLE
 40
0.0
  9
$DIMEXE
 40
0.0625
  9
$DIMTP
 40
0.0
  9
$DIMTM
 40
0.0
  9
$DIMTXT
 40
0.125
  9
$DIMCEN
 40
0.09
  9
$DIMTSZ
 40
0.0
  9
$DIMTOL
 70
     0
  9
$DIMLIM
 70
     0
  9
$DIMTIH
 70
     1
  9
$DIMTOH
 70
     1
  9
$DIMSE1
 70
     0
  9
$DIMSE2
 70
     0
  9
$DIMTAD
 70
     0
  9
$DIMZIN
 70
     8
  9
$DIMBLK
  1

  9
$DIMASO
 70
     1
  9
$DIMSHO
 70
     1
  9
$DIMPOST
  1

  9
$DIMAPOST
  1

  9
$DIMALT
 70
     0
  9
$DIMALTD
 70
     2
  9
$DIMALTF
 40
25.4
  9
$DIMLFAC
 40
1.0
  9
$DIMTOFL
 70
     0
  9
$DIMTVP
 40
0.0
  9
$DIMTIX
 70
     0
  9
$DIMSOXD
 70
     0
  9
$DIMSAH
 70
     0
  9
$DIMBLK1
  1

  9
$DIMBLK2
  1

  9
$DIMSTYLE
  2
Standard
  9
$DIMCLRD
 70
   178
  9
$DIMCLRE
 70
   178
  9
$DIMCLRT
 70
   178
  9
$DIMTFAC
 40
1.0
  9
$DIMGAP
 40
0.03125
  9
$DIMJUST
 70
     0
  9
$DIMSD1
 70
     0
  9
$DIMSD2
 70
     0
  9
$DIMTOLJ
 70
     1
  9
$DIMTZIN
 70
     0
  9
$DIMALTZ
 70
     0
  9
$DIMALTTZ
 70
     0
  9
$DIMUPT
 70
     0
  9
$DIMDEC
 70
     4
  9
$DIMTDEC
 70
     4
  9
$DIMALTU
 70
     2
  9
$DIMALTTD
 70
     2
  9
$DIMTXSTY
  7
Standard
  9
$DIMAUNIT
 70
     0
  9
$DIMADEC
 70
     0
  9
$DIMALTRND
 40
0.0
  9
$DIMAZIN
 70
     2
  9
$DIMDSEP
 70
    46
  9
$DIMATFIT
 70
     3
  9
$DIMFRAC
 70
     0
  9
$DIMLDRBLK
  1

  9
$DIMLUNIT
 70
     2
  9
$DIMLWD
 70
    -2
  9
$DIMLWE
 70
    -2
  9
$DIMTMOVE
 70
     0
  9
$DIMFXL
 40
1.0
  9
$DIMFXLON
 70
     0
  9
$DIMJOGANG
 40
0.7853981633974483
  9
$DIMTFILL
 70
     0
  9
$DIMTFILLCLR
 70
     0
  9
$DIMARCSYM
 70
     0
  9
$DIMLTYPE
  6

  9
$DIMLTEX1
  6

  9
$DIMLTEX2
  6

  9
$DIMTXTDIRECTION
 70
     0
  9
$LUNITS
 70
     2
  9
$LUPREC
 70
     4
  9
$SKETCHINC
 40
0.1
  9
$FILLETRAD
 40
0.5
  9
$AUNITS
 70
     0
  9
$AUPREC
 70
     0
  9
$MENU
  1
.
  9
$ELEVATION
 40
0.0
  9
$PELEVATION
 40
0.0
  9
$THICKNESS
 40
0.0
  9
$LIMCHECK
 70
     0
  9
$CHAMFERA
 40
0.5
  9
$CHAMFERB
 40
0.5
  9
$CHAMFERC
 40
1.0
  9
$CHAMFERD
 40
0.0
  9
$SKPOLY
 70
     0
  9
$TDCREATE
 40
2456424.404594896
  9
$TDUCREATE
 40
2456424.612928241
  9
$TDUPDATE
 40
2456424.404594896
  9
$TDUUPDATE
 40
2456424.612928241
  9
$TDINDWG
 40
0.0000000116
  9
$TDUSRTIMER
 40
0.0000000116
  9
$USRTIMER
 70
     1
  9
$ANGBASE
 50
0.0
  9
$ANGDIR
 70
     0
  9
$PDMODE
 70
     0
  9
$PDSIZE
 40
0.0
  9
$PLINEWID
 40
0.0
  9
$SPLFRAME
 70
     0
  9
$SPLINETYPE
 70
     6
  9
$SPLINESEGS
 70
     8
  9
$HANDSEED
  5
5C6
  9
$SURFTAB1
 70
     6
  9
$SURFTAB2
 70
     6
  9
$SURFTYPE
 70
     6
  9
$SURFU
 70
     6
  9
$SURFV
 70
     6
  9
$UCSBASE
  2

  9
$UCSNAME
  2

  9
$UCSORG
 10
0.0
 20
0.0
 30
0.0
  9
$UCSXDIR
 10
1.0
 20
0.0
 30
0.0
  9
$UCSYDIR
 10
0.0
 20
1.0
 30
0.0
  9
$UCSORTHOREF
  2

  9
$UCSORTHOVIEW
 70
     0
  9
$UCSORGTOP
 10
0.0
 20
0.0
 30
0.0
  9
$UCSORGBOTTOM
 10
0.0
 20
0.0
 30
0.0
  9
$UCSORGLEFT
 10
0.0
 20
0.0
 30
0.0
  9
$UCSORGRIGHT
 10
0.0
 20
0.0
 30
0.0
  9
$UCSORGFRONT
 10
0.0
 20
0.0
 30
0.0
  9
$UCSORGBACK
 10
0.0
 20
0.0
 30
0.0
  9
$PUCSBASE
  2

  9
$PUCSNAME
  2

  9
$PUCSORG
 10
0.0
 20
0.0
 30
0.0
  9
$PUCSXDIR
 10
1.0
 20
0.0
 30
0.0
  9
$PUCSYDIR
 10
0.0
 20
1.0
 30
0.0
  9
$PUCSORTHOREF
  2

  9
$PUCSORTHOVIEW
 70
     0
  9
$PUCSORGTOP
 10
0.0
 20
0.0
 30
0.0
  9
$PUCSORGBOTTOM
 10
0.0
 20
0.0
 30
0.0
  9
$PUCSORGLEFT
 10
0.0
 20
0.0
 30
0.0
  9
$PUCSORGRIGHT
 10
0.0
 20
0.0
 30
0.0
  9
$PUCSORGFRONT
 10
0.0
 20
0.0
 30
0.0
  9
$PUCSORGBACK
 10
0.0
 20
0.0
 30
0.0
  9
$USERI1
 70
     0
  9
$USERI2
 70
     0
  9
$USERI3
 70
     0
  9
$USERI4
 70
     0
  9
$USERI5
 70
     0
  9
$USERR1
 40
0.0
  9
$USERR2
 40
0.0
  9
$USERR3
 40
0.0
  9
$USERR4
 40
0.0
  9
$USERR5
 40
0.0
  9
$WORLDVIEW
 70
     1
  9
$SHADEDGE
 70
     3
  9
$SHADEDIF
 70
    70
  9
$TILEMODE
 70
     1
  9
$MAXACTVP
 70
    64
  9
$PINSBASE
 10
0.0
 20
0.0
 30
0.0
  9
$PLIMCHECK
 70
     0
  9
$PEXTMIN
 10
1.000000000000000E+20
 20
1.000000000000000E+20
 30
1.000000000000000E+20
  9
$PEXTMAX
 10
-1.000000000000000E+20
 20
-1.000000000000000E+20
 30
-1.000000000000000E+20
  9
$PLIMMIN
 10
0.0
 20
0.0
  9
$PLIMMAX
 10
12.0
 20
9.0
  9
$UNITMODE
 70
     0
  9
$VISRETAIN
 70
     1
  9
$PLINEGEN
 70
     0
  9
$PSLTSCALE
 70
     1
  9
$TREEDEPTH
 70
  3020
  9
$CMLSTYLE
  2
Standard
  9
$CMLJUST
 70
     0
  9
$CMLSCALE
 40
1.0
  9
$PROXYGRAPHICS
 70
     1
  9
$MEASUREMENT
 70
     0
  9
$CELWEIGHT
370
    -1
  9
$ENDCAPS
280
     0
  9
$JOINSTYLE
280
     0
  9
$LWDISPLAY
290
     0
  9
$INSUNITS
 70
     1
  9
$HYPERLINKBASE
  1

  9
$STYLESHEET
  1

  9
$XEDIT
290
     1
  9
$CEPSNTYPE
380
     0
  9
$PSTYLEMODE
290
     1
  9
$FINGERPRINTGUID
  2
{8489CF5E-D25C-B064-EB89-79704AD37BCE}
  9
$VERSIONGUID
  2
{FAEB1C32-E019-11D5-929B-00C0DF256EC4}
  9
$EXTNAMES
290
     1
  9
$PSVPSCALE
 40
0.0
  9
$OLESTARTUP
290
     0
  9
$SORTENTS
280
   127
  9
$INDEXCTL
280
     0
  9
$HIDETEXT
280
     1
  9
$XCLIPFRAME
280
     2
  9
$HALOGAP
280
     0
  9
$OBSCOLOR
 70
   257
  9
$OBSLTYPE
280
     0
  9
$INTERSECTIONDISPLAY
280
     0
  9
$INTERSECTIONCOLOR
 70
   257
  9
$DIMASSOC
280
     2
  9
$PROJECTNAME
  1

  9
$CAMERADISPLAY
290
     0
  9
$LENSLENGTH
 40
50.0
  9
$CAMERAHEIGHT
 40
0.0
  9
$STEPSPERSEC
 40
2.0
  9
$STEPSIZE
 40
6.0
  9
$3DDWFPREC
 40
2.0
  9
$PSOLWIDTH
 40
0.25
  9
$PSOLHEIGHT
 40
4.0
  9
$LOFTANG1
 40
1.570796326794897
  9
$LOFTANG2
 40
1.570796326794897
  9
$LOFTMAG1
 40
0.0
  9
$LOFTMAG2
 40
0.0
  9
$LOFTPARAM
 70
     7
  9
$LOFTNORMALS
280
     1
  9
$LATITUDE
 40
37.795
  9
$LONGITUDE
 40
-122.394
  9
$NORTHDIRECTION
 40
0.0
  9
$TIMEZONE
 70
 -8000
  9
$LIGHTGLYPHDISPLAY
280
     1
  9
$TILEMODELIGHTSYNCH
280
     1
  9
$SOLIDHIST
280
     1
  9
$SHOWHIST
280
     1
  9
$DWFFRAME
280
     2
  9
$DGNFRAME
280
     2
  9
$REALWORLDSCALE
290
     1
  9
$INTERFERECOLOR
 62
   256
  9
$CSHADOW
280
     0
  9
$SHADOWPLANELOCATION
 40
0.0
  0
ENDSEC
  0
SECTION
  2
CLASSES
  0
CLASS
  1
ACDBDICTIONARYWDFLT
  2
AcDbDictionaryWithDefault
  3
ObjectDBX Classes
 90
        0
 91
        4
280
     0
281
     0
  0
CLASS
  1
VISUALSTYLE
  2
AcDbVisualStyle
  3
ObjectDBX Classes
 90
     4095
 91
        4
280
     0
281
     0
  0
CLASS
  1
MATERIAL
  2
AcDbMaterial
  3
ObjectDBX Classes
 90
     1153
 91
        4
280
     0
281
     0
  0
ENDSEC
  0
SECTION
  2
TABLES
  0
TABLE
  2
VPORT
  5
539
330
0
100
AcDbSymbolTable
 70
     1
  0
VPORT
  5
559
330
539
100
AcDbSymbolTableRecord
100
AcDbViewportTableRecord
  2
*Active
 70
     0
 10
0.0
 20
0.0
 11
1.0
 21
1.0
 12
10.42990654205607
 22
4.5
 13
0.0
 23
0.0
 14
0.5
 24
0.5
 15
0.5
 25
0.5
 16
0.0
 26
0.0
 36
1.0
 17
0.0
 27
0.0
 37
0.0
 40
9.0
 41
1.972972972850329
 42
50.0
 43
0.0
 44
0.0
 50
0.0
 51
0.0
 71
     0
 72
   100
 73
     1
 74
     3
 75
     0
 76
     0
 77
     0
 78
     0
281
     0
 65
     1
110
0.0
120
0.0
130
0.0
111
1.0
121
0.0
131
0.0
112
0.0
122
1.0
132
0.0
 79
     0
146
0.0
 60
     3
 61
     5
292
     1
282
     1
141
0.0
142
0.0
 63
   250
  0
ENDTAB
  0
TABLE
  2
LTYPE
  5
536
330
0
100
AcDbSymbolTable
 70
    19
  0
LTYPE
  5
544
330
536
100
AcDbSymbolTableRecord
100
AcDbLinetypeTableRecord
  2
ByBlock
 70
     0
  3

 72
    65
 73
     0
 40
0.0
  0
LTYPE
  5
545
330
536
100
AcDbSymbolTableRecord
100
AcDbLinetypeTableRecord
  2
ByLayer
 70
     0
  3

 72
    65
 73
     0
 40
0.0
  0
LTYPE
  5
546
330
536
100
AcDbSymbolTableRecord
100
AcDbLinetypeTableRecord
  2
Continuous
 70
     0
  3
Solid line
 72
    65
 73
     0
 40
0.0
  0
LTYPE
  5
591
330
536
100
AcDbSymbolTableRecord
100
AcDbLinetypeTableRecord
  2
BORDER
 70
     0
  3

 72
    65
 73
     6
 40
42.00000000000001
 49
12.0
 74
     0
 49
-6.0
 74
     0
 49
12.0
 74
     0
 49
-5.95
 74
     0
 49
0.1
 74
     0
 49
-5.95
 74
     0
  0
LTYPE
  5
592
330
536
100
AcDbSymbolTableRecord
100
AcDbLinetypeTableRecord
  2
BORDER2
 70
     0
  3

 72
    65
 73
     6
 40
21.0
 49
6.0
 74
     0
 49
-3.0
 74
     0
 49
6.0
 74
     0
 49
-2.95
 74
     0
 49
0.1
 74
     0
 49
-2.95
 74
     0
  0
LTYPE
  5
593
330
536
100
AcDbSymbolTableRecord
100
AcDbLinetypeTableRecord
  2
BORDERX2
 70
     0
  3

 72
    65
 73
     6
 40
84.0
 49
24.0
 74
     0
 49
-12.0
 74
     0
 49
24.0
 74
     0
 49
-11.95
 74
     0
 49
0.1
 74
     0
 49
-11.95
 74
     0
  0
LTYPE
  5
594
330
536
100
AcDbSymbolTableRecord
100
AcDbLinetypeTableRecord
  2
CENTER
 70
     0
  3

 72
    65
 73
     4
 40
50.0
 49
32.0
 74
     0
 49
-6.0
 74
     0
 49
6.0
 74
     0
 49
-6.0
 74
     0
  0
LTYPE
  5
595
330
536
100
AcDbSymbolTableRecord
100
AcDbLinetypeTableRecord
  2
CENTER2
 70
     0
  3

 72
    65
 73
     4
 40
25.0
 49
16.0
 74
     0
 49
-3.0
 74
     0
 49
3.0
 74
     0
 49
-3.0
 74
     0
  0
LTYPE
  5
596
330
536
100
AcDbSymbolTableRecord
100
AcDbLinetypeTableRecord
  2
CENTERX2
 70
     0
  3

 72
    65
 73
     4
 40
100.0
 49
64.0
 74
     0
 49
-12.0
 74
     0
 49
12.0
 74
     0
 49
-12.0
 74
     0
  0
LTYPE
  5
597
330
536
100
AcDbSymbolTableRecord
100
AcDbLinetypeTableRecord
  2
DASHDOT
 70
     0
  3

 72
    65
 73
     4
 40
24.0
 49
12.0
 74
     0
 49
-5.95
 74
     0
 49
0.1
 74
     0
 49
-5.95
 74
     0
  0
LTYPE
  5
598
330
536
100
AcDbSymbolTableRecord
100
AcDbLinetypeTableRecord
  2
DASHDOT2
 70
     0
  3

 72
    65
 73
     4
 40
12.0
 49
6.0
 74
     0
 49
-2.95
 74
     0
 49
0.1
 74
     0
 49
-2.95
 74
     0
  0
LTYPE
  5
599
330
536
100
AcDbSymbolTableRecord
100
AcDbLinetypeTableRecord
  2
DASHDOTX2
 70
     0
  3

 72
    65
 73
     4
 40
48.0
 49
24.0
 74
     0
 49
-11.95
 74
     0
 49
0.1
 74
     0
 49
-11.95
 74
     0
  0
LTYPE
  5
59A
330
536
100
AcDbSymbolTableRecord
100
AcDbLinetypeTableRecord
  2
DASHED
 70
     0
  3

 72
    65
 73
     2
 40
18.0
 49
12.0
 74
     0
 49
-6.0
 74
     0
  0
LTYPE
  5
59B
330
536
100
AcDbSymbolTableRecord
100
AcDbLinetypeTableRecord
  2
DASHED2
 70
     0
  3

 72
    65
 73
     2
 40
9.0
 49
6.0
 74
     0
 49
-3.0
 74
     0
  0
LTYPE
  5
59C
330
536
100
AcDbSymbolTableRecord
100
AcDbLinetypeTableRecord
  2
DASHEDX2
 70
     0
  3

 72
    65
 73
     2
 40
36.0
 49
24.0
 74
     0
 49
-12.0
 74
     0
  0
LTYPE
  5
59D
330
536
100
AcDbSymbolTableRecord
100
AcDbLinetypeTableRecord
  2
DIVIDE
 70
     0
  3

 72
    65
 73
     6
 40
29.99999999999999
 49
12.0
 74
     0
 49
-5.9
 74
     0
 49
0.15
 74
     0
 49
-5.9
 74
     0
 49
0.15
 74
     0
 49
-5.9
 74
     0
  0
LTYPE
  5
59E
330
536
100
AcDbSymbolTableRecord
100
AcDbLinetypeTableRecord
  2
DIVIDE2
 70
     0
  3

 72
    65
 73
     6
 40
15.0
 49
6.0
 74
     0
 49
-2.9
 74
     0
 49
0.15
 74
     0
 49
-2.9
 74
     0
 49
0.15
 74
     0
 49
-2.9
 74
     0
  0
LTYPE
  5
59F
330
536
100
AcDbSymbolTableRecord
100
AcDbLinetypeTableRecord
  2
DIVIDEX2
 70
     0
  3

 72
    65
 73
     6
 40
59.99999999999999
 49
24.0
 74
     0
 49
-11.9
 74
     0
 49
0.15
 74
     0
 49
-11.9
 74
     0
 49
0.15
 74
     0
 49
-11.9
 74
     0
  0
LTYPE
  5
5A0
330
536
100
AcDbSymbolTableRecord
100
AcDbLinetypeTableRecord
  2
DOT
 70
     0
  3

 72
    65
 73
     2
 40
6.3
 49
0.1
 74
     0
 49
-6.2
 74
     0
  0
LTYPE
  5
5A1
330
536
100
AcDbSymbolTableRecord
100
AcDbLinetypeTableRecord
  2
DOT2
 70
     0
  3

 72
    65
 73
     2
 40
3.2
 49
0.1
 74
     0
 49
-3.1
 74
     0
  0
LTYPE
  5
5A2
330
536
100
AcDbSymbolTableRecord
100
AcDbLinetypeTableRecord
  2
DOTX2
 70
     0
  3

 72
    65
 73
     2
 40
12.5
 49
0.1
 74
     0
 49
-12.4
 74
     0
  0
ENDTAB
  0
TABLE
  2
LAYER
  5
533
330
0
100
AcDbSymbolTable
 70
    13
  0
LAYER
  5
541
330
533
100
AcDbSymbolTableRecord
100
AcDbLayerTableRecord
  2
0
 70
     1
 62
     7
420
 16777215
  6
Continuous
370
    25
390
540
347
56E
  0
LAYER
  5
5A3
330
533
100
AcDbSymbolTableRecord
100
AcDbLayerTableRecord
  2
shim
 70
     1
 62
   178
420
        0
  6
Continuous
370
    25
390
540
347
56E
  0
LAYER
  5
5A4
330
533
100
AcDbSymbolTableRecord
100
AcDbLayerTableRecord
  2
cut-under
 70
     1
 62
   178
420
        0
  6
Continuous
370
    25
390
540
347
56E
  0
LAYER
  5
5A5
330
533
100
AcDbSymbolTableRecord
100
AcDbLayerTableRecord
  2
sides
 70
     1
 62
   178
420
        0
  6
Continuous
370
    25
390
540
347
56E
  0
LAYER
  5
5A6
330
533
100
AcDbSymbolTableRecord
100
AcDbLayerTableRecord
  2
pcb
 70
     1
 62
   178
420
        0
  6
Continuous
370
    25
390
540
347
56E
  0
LAYER
  5
5A7
330
533
100
AcDbSymbolTableRecord
100
AcDbLayerTableRecord
  2
cut
 70
     0
 62
   178
420
        0
  6
Continuous
370
    25
390
540
347
56E
  0
LAYER
  5
5A8
330
533
100
AcDbSymbolTableRecord
100
AcDbLayerTableRecord
  2
screen
 70
     1
 62
   178
420
        0
  6
DASHEDX2
370
     5
390
540
347
56E
  0
LAYER
  5
5A9
330
533
100
AcDbSymbolTableRecord
100
AcDbLayerTableRecord
  2
cut-over
 70
     1
 62
   178
420
        0
  6
Continuous
370
    25
390
540
347
56E
  0
LAYER
  5
5AA
330
533
100
AcDbSymbolTableRecord
100
AcDbLayerTableRecord
  2
top
 70
     1
 62
   178
420
        0
  6
Continuous
370
     0
390
540
347
56E
  0
LAYER
  5
5AB
330
533
100
AcDbSymbolTableRecord
100
AcDbLayerTableRecord
  2
guides
 70
     1
 62
   178
420
        0
  6
Continuous
370
    25
390
540
347
56E
  0
LAYER
  5
5AC
330
533
100
AcDbSymbolTableRecord
100
AcDbLayerTableRecord
  2
blind-thread-under
 70
     1
 62
   178
420
        0
  6
Continuous
370
    25
390
540
347
56E
  0
LAYER
  5
5AD
330
533
100
AcDbSymbolTableRecord
100
AcDbLayerTableRecord
  2
etch
 70
     1
 62
   178
420
        0
  6
Continuous
370
     0
390
540
347
56E
  0
LAYER
  5
5AE
330
533
100
AcDbSymbolTableRecord
100
AcDbLayerTableRecord
  2
Defpoints
 70
     1
 62
     7
420
 16777215
  6
Continuous
290
     0
370
    -3
390
540
347
56E
  0
ENDTAB
  0
TABLE
  2
STYLE
  5
534
330
0
100
AcDbSymbolTable
 70
    10
  0
STYLE
  5
542
330
534
100
AcDbSymbolTableRecord
100
AcDbTextStyleTableRecord
  2
Standard
 70
     0
 40
0.0
 41
1.0
 50
0.0
 71
     0
 42
0.2
  3
txt
  4

  0
STYLE
  5
5AF
330
534
100
AcDbSymbolTableRecord
100
AcDbTextStyleTableRecord
  2
textstyle0
 70
     0
 40
0.0
 41
1.0
 50
0.0
 71
     0
 42
0.2
  3

  4

1001
ACAD
1000
Andale Mono
1071
        0
  0
STYLE
  5
5B0
330
534
100
AcDbSymbolTableRecord
100
AcDbTextStyleTableRecord
  2
textstyle1
 70
     0
 40
0.0
 41
1.0
 50
0.0
 71
     0
 42
0.2
  3

  4

1001
ACAD
1000
Andale Mono
1071
        0
  0
STYLE
  5
5B1
330
534
100
AcDbSymbolTableRecord
100
AcDbTextStyleTableRecord
  2
textstyle2
 70
     0
 40
0.0
 41
1.0
 50
0.0
 71
     0
 42
0.2
  3

  4

1001
ACAD
1000
Andale Mono
1071
        0
  0
STYLE
  5
5B2
330
534
100
AcDbSymbolTableRecord
100
AcDbTextStyleTableRecord
  2
textstyle3
 70
     0
 40
0.0
 41
1.0
 50
0.0
 71
     0
 42
0.2
  3

  4

1001
ACAD
1000
Andale Mono
1071
        0
  0
STYLE
  5
5B3
330
534
100
AcDbSymbolTableRecord
100
AcDbTextStyleTableRecord
  2
textstyle4
 70
     0
 40
0.0
 41
1.0
 50
0.0
 71
     0
 42
0.2
  3

  4

1001
ACAD
1000
Andale Mono
1071
        0
  0
STYLE
  5
5C0
330
534
100
AcDbSymbolTableRecord
100
AcDbTextStyleTableRecord
  2
textstyle5
 70
     0
 40
0.0
 41
1.0
 50
0.0
 71
     0
 42
0.2
  3

  4

1001
ACAD
1000
Andale Mono
1071
        0
  0
STYLE
  5
5C1
330
534
100
AcDbSymbolTableRecord
100
AcDbTextStyleTableRecord
  2
textstyle6
 70
     0
 40
0.0
 41
1.0
 50
0.0
 71
     0
 42
0.2
  3

  4

1001
ACAD
1000
Andale Mono
1071
        0
  0
STYLE
  5
5C2
330
534
100
AcDbSymbolTableRecord
100
AcDbTextStyleTableRecord
  2
textstyle7
 70
     0
 40
0.0
 41
1.0
 50
0.0
 71
     0
 42
0.2
  3

  4

1001
ACAD
1000
Andale Mono
1071
        0
  0
STYLE
  5
5C3
330
534
100
AcDbSymbolTableRecord
100
AcDbTextStyleTableRecord
  2
textstyle8
 70
     0
 40
0.0
 41
1.0
 50
0.0
 71
     0
 42
0.2
  3

  4

1001
ACAD
1000
Andale Mono
1071
        0
  0
ENDTAB
  0
TABLE
  2
VIEW
  5
537
330
0
100
AcDbSymbolTable
 70
     0
  0
ENDTAB
  0
TABLE
  2
UCS
  5
538
330
0
100
AcDbSymbolTable
 70
     0
  0
ENDTAB
  0
TABLE
  2
APPID
  5
53A
330
0
100
AcDbSymbolTable
 70
     2
  0
APPID
  5
543
330
53A
100
AcDbSymbolTableRecord
100
AcDbRegAppTableRecord
  2
ACAD
 70
     0
  0
APPID
  5
56F
330
53A
100
AcDbSymbolTableRecord
100
AcDbRegAppTableRecord
  2
QCAD
 70
     0
  0
ENDTAB
  0
TABLE
  2
DIMSTYLE
  5
53B
330
0
100
AcDbSymbolTable
 70
     2
100
AcDbDimStyleTable
  0
DIMSTYLE
105
557
330
53B
100
AcDbSymbolTableRecord
100
AcDbDimStyleTableRecord
  2
Standard
 70
     0
178
     0
340
542
  0
DIMSTYLE
105
590
102
{ACAD_REACTORS
330
426
102
}
330
53B
100
AcDbSymbolTableRecord
100
AcDbDimStyleTableRecord
  2
QCADDimStyle
 70
     0
 41
0.125
 42
0.03125
 44
0.0625
 73
     0
 77
     1
140
0.125
147
0.03125
178
     0
340
542
  0
ENDTAB
  0
TABLE
  2
BLOCK_RECORD
  5
532
330
0
100
AcDbSymbolTable
 70
     2
  0
BLOCK_RECORD
  5
54F
330
532
100
AcDbSymbolTableRecord
100
AcDbBlockTableRecord
  2
*Model_Space
340
552
 70
     0
280
     1
281
     0
  0
BLOCK_RECORD
  5
54B
330
532
100
AcDbSymbolTableRecord
100
AcDbBlockTableRecord
  2
*Paper_Space
340
54E
 70
     0
280
     1
281
     0
  0
BLOCK_RECORD
  5
553
330
532
100
AcDbSymbolTableRecord
100
AcDbBlockTableRecord
  2
*Paper_Space0
340
556
 70
     0
280
     1
281
     0
  0
BLOCK_RECORD
  5
5B4
330
532
100
AcDbSymbolTableRecord
100
AcDbBlockTableRecord
  2
*D1
340
0
 70
     0
280
     1
281
     0
  0
ENDTAB
  0
ENDSEC
  0
SECTION
  2
BLOCKS
  0
BLOCK
  5
550
330
54F
100
AcDbEntity
  8
0
100
AcDbBlockBegin
  2
*Model_Space
 70
     0
 10
0.0
 20
0.0
 30
0.0
  3
*Model_Space
  1

  0
ENDBLK
  5
551
330
54F
100
AcDbEntity
  8
0
100
AcDbBlockEnd
  0
BLOCK
  5
54C
330
54B
100
AcDbEntity
 67
     1
  8
0
100
AcDbBlockBegin
  2
*Paper_Space
 70
     0
 10
0.0
 20
0.0
 30
0.0
  3
*Paper_Space
  1

  0
ENDBLK
  5
54D
330
54B
100
AcDbEntity
 67
     1
  8
0
100
AcDbBlockEnd
  0
BLOCK
  5
554
330
553
100
AcDbEntity
  8
0
100
AcDbBlockBegin
  2
*Paper_Space0
 70
     0
 10
0.0
 20
0.0
 30
0.0
  3
*Paper_Space0
  1

  0
ENDBLK
  5
555
330
553
100
AcDbEntity
  8
0
100
AcDbBlockEnd
  0
BLOCK
  5
5BE
330
5B4
100
AcDbEntity
  8
0
100
AcDbBlockBegin
  2
*D1
 70
     1
 10
0.0
 20
0.0
 30
0.0
  3
*D1
  1

  0
LINE
  5
5B5
330
5B4
100
AcDbEntity
  8
0
 62
     0
370
    -2
100
AcDbLine
 10
7.56875
 20
0.2
 30
0.0
 11
7.337499999999999
 21
0.2000000000000001
 31
0.0
  0
LINE
  5
5B6
330
5B4
100
AcDbEntity
  8
0
 62
     0
370
    -2
100
AcDbLine
 10
7.56875
 20
0.6375
 30
0.0
 11
7.337499999999999
 21
0.6375
 31
0.0
  0
LINE
  5
5B7
330
5B4
100
AcDbEntity
  8
0
 62
     0
370
    -2
100
AcDbLine
 10
7.399999999999999
 20
0.3250000000000001
 30
0.0
 11
7.399999999999999
 21
0.5125
 31
0.0
  0
SOLID
  5
5B8
330
5B4
100
AcDbEntity
  8
0
 62
     0
100
AcDbTrace
 10
7.379166666666666
 20
0.3250000000000001
 30
0.0
 11
7.420833333333333
 21
0.3250000000000001
 31
0.0
 12
7.399999999999999
 22
0.2000000000000001
 32
0.0
 13
7.399999999999999
 23
0.2000000000000001
 33
0.0
  0
SOLID
  5
5B9
330
5B4
100
AcDbEntity
  8
0
 62
     0
100
AcDbTrace
 10
7.420833333333333
 20
0.5125
 30
0.0
 11
7.379166666666666
 21
0.5125
 31
0.0
 12
7.399999999999999
 22
0.6375
 32
0.0
 13
7.399999999999999
 23
0.6375
 33
0.0
  0
MTEXT
  5
5BA
330
5B4
100
AcDbEntity
  8
0
 62
     0
100
AcDbMText
 10
7.228124999999999
 20
0.4187500000000001
 30
0.0
 40
0.125
 41
0.0
 46
0.0
 71
     5
 72
     1
  1
\A1;0.4375
 73
     1
 44
1.0
  0
POINT
  5
5BB
330
5B4
100
AcDbEntity
  8
Defpoints
 62
     0
100
AcDbPoint
 10
7.6
 20
0.2
 30
0.0
  0
POINT
  5
5BC
330
5B4
100
AcDbEntity
  8
Defpoints
 62
     0
100
AcDbPoint
 10
7.6
 20
0.6375
 30
0.0
  0
POINT
  5
5BD
330
5B4
100
AcDbEntity
  8
Defpoints
 62
     0
100
AcDbPoint
 10
7.399999999999999
 20
0.6375
 30
0.0
  0
ENDBLK
  5
5BF
330
5B4
100
AcDbEntity
  8
0
100
AcDbBlockEnd
  0
ENDSEC
  0
SECTION
  2
ENTITIES
  0
ARC
  5
110
330
54F
100
AcDbEntity
  8
etch
100
AcDbCircle
 10
1.249999999999999
 20
3.55
 30
0.0
 40
0.05
100
AcDbArc
 50
90.0
 51
180.0
  0
ARC
  5
111
330
54F
100
AcDbEntity
  8
etch
100
AcDbCircle
 10
1.25
 20
2.85
 30
0.0
 40
0.05
100
AcDbArc
 50
180.0
 51
270.0
  0
LINE
  5
112
330
54F
100
AcDbEntity
  8
etch
100
AcDbLine
 10
1.2
 20
3.55
 30
0.0
 11
1.2
 21
2.85
 31
0.0
  0
LINE
  5
113
330
54F
100
AcDbEntity
  8
pcb
100
AcDbLine
 10
0.1
 20
0.2
 30
0.0
 11
6.899999999999999
 21
0.2
 31
0.0
  0
LINE
  5
114
330
54F
100
AcDbEntity
  8
pcb
100
AcDbLine
 10
6.899999999999999
 20
0.2
 30
0.0
 11
6.899999999999999
 21
4.600000000000001
 31
0.0
  0
LINE
  5
115
330
54F
100
AcDbEntity
  8
pcb
100
AcDbLine
 10
6.899999999999999
 20
4.600000000000001
 30
0.0
 11
0.1
 21
4.600000000000001
 31
0.0
  0
LINE
  5
116
330
54F
100
AcDbEntity
  8
pcb
100
AcDbLine
 10
0.1
 20
4.600000000000001
 30
0.0
 11
0.1
 21
0.2
 31
0.0
  0
CIRCLE
  5
117
330
54F
100
AcDbEntity
  8
blind-thread-under
100
AcDbCircle
 10
0.2
 20
0.3
 30
0.0
 40
0.065
  0
CIRCLE
  5
118
330
54F
100
AcDbEntity
  8
blind-thread-under
100
AcDbCircle
 10
0.2
 20
4.5
 30
0.0
 40
0.065
  0
CIRCLE
  5
119
330
54F
100
AcDbEntity
  8
blind-thread-under
100
AcDbCircle
 10
6.8
 20
4.5
 30
0.0
 40
0.065
  0
CIRCLE
  5
11A
330
54F
100
AcDbEntity
  8
blind-thread-under
100
AcDbCircle
 10
6.8
 20
0.3
 30
0.0
 40
0.065
  0
LINE
  5
11B
330
54F
100
AcDbEntity
  8
cut
100
AcDbLine
 10
0.0
 20
4.7
 30
0.0
 11
0.0
 21
0.0
 31
0.0
  0
LINE
  5
11C
330
54F
100
AcDbEntity
  8
cut
100
AcDbLine
 10
7.0
 20
4.7
 30
0.0
 11
0.0
 21
4.7
 31
0.0
  0
LINE
  5
11D
330
54F
100
AcDbEntity
  8
cut
100
AcDbLine
 10
7.0
 20
0.0
 30
0.0
 11
7.0
 21
4.7
 31
0.0
  0
LINE
  5
11E
330
54F
100
AcDbEntity
  8
cut
100
AcDbLine
 10
0.0
 20
0.0
 30
0.0
 11
7.0
 21
0.0
 31
0.0
  0
LINE
  5
11F
330
54F
100
AcDbEntity
  8
cut
100
AcDbLine
 10
0.45
 20
0.8
 30
0.0
 11
3.350000000000001
 21
0.8
 31
0.0
  0
LINE
  5
120
330
54F
100
AcDbEntity
  8
cut
100
AcDbLine
 10
3.4
 20
0.8500000000000001
 30
0.0
 11
3.4
 21
2.550000000000001
 31
0.0
  0
LINE
  5
121
330
54F
100
AcDbEntity
  8
cut
100
AcDbLine
 10
3.35
 20
2.6
 30
0.0
 11
0.4499999999999996
 21
2.6
 31
0.0
  0
LINE
  5
122
330
54F
100
AcDbEntity
  8
cut
100
AcDbLine
 10
0.4
 20
2.550000000000001
 30
0.0
 11
0.4
 21
0.8500000000000003
 31
0.0
  0
CIRCLE
  5
123
330
54F
100
AcDbEntity
  8
top
100
AcDbCircle
 10
4.753589838486226
 20
0.9000000000000004
 30
0.0
 40
0.2
  0
CIRCLE
  5
124
330
54F
100
AcDbEntity
  8
top
100
AcDbCircle
 10
6.139230484541331
 20
0.8999999999999999
 30
0.0
 40
0.2
  0
CIRCLE
  5
125
330
54F
100
AcDbEntity
  8
top
100
AcDbCircle
 10
4.060769515458676
 20
2.100000000000001
 30
0.0
 40
0.2
  0
CIRCLE
  5
126
330
54F
100
AcDbEntity
  8
top
100
AcDbCircle
 10
5.44641016151378
 20
2.100000000000002
 30
0.0
 40
0.2
  0
ARC
  5
127
330
54F
100
AcDbEntity
  8
top
100
AcDbCircle
 10
0.0
 20
4.7
 30
0.0
 40
0.0
100
AcDbArc
 50
0.0
 51
0.0
  0
ARC
  5
128
330
54F
100
AcDbEntity
  8
top
100
AcDbCircle
 10
7.0
 20
4.7
 30
0.0
 40
0.0
100
AcDbArc
 50
0.0
 51
0.0
  0
ARC
  5
129
330
54F
100
AcDbEntity
  8
top
100
AcDbCircle
 10
7.0
 20
0.0
 30
0.0
 40
0.0
100
AcDbArc
 50
0.0
 51
0.0
  0
ARC
  5
12A
330
54F
100
AcDbEntity
  8
top
100
AcDbCircle
 10
0.0
 20
0.0
 30
0.0
 40
0.0
100
AcDbArc
 50
0.0
 51
0.0
  0
LINE
  5
12B
330
54F
100
AcDbEntity
  8
etch
100
AcDbLine
 10
3.65
 20
2.6
 30
0.0
 11
6.550000000000001
 21
2.6
 31
0.0
  0
LINE
  5
12C
330
54F
100
AcDbEntity
  8
etch
100
AcDbLine
 10
6.6
 20
2.550000000000001
 30
0.0
 11
6.6
 21
0.45
 31
0.0
  0
LINE
  5
12D
330
54F
100
AcDbEntity
  8
etch
100
AcDbLine
 10
6.55
 20
0.4
 30
0.0
 11
3.649999999999999
 21
0.4
 31
0.0
  0
LINE
  5
12E
330
54F
100
AcDbEntity
  8
etch
100
AcDbLine
 10
3.6
 20
0.45
 30
0.0
 11
3.6
 21
2.550000000000001
 31
0.0
  0
LINE
  5
133
330
54F
100
AcDbEntity
  8
guides
100
AcDbLine
 10
5.060769515458675
 20
0.3679491924311247
 30
0.0
 11
4.060769515458676
 21
2.100000000000002
 31
0.0
  0
LINE
  5
134
330
54F
100
AcDbEntity
  8
guides
100
AcDbLine
 10
5.753589838486226
 20
2.632050807568878
 30
0.0
 11
4.753589838486226
 21
0.9000000000000004
 31
0.0
  0
LINE
  5
135
330
54F
100
AcDbEntity
  8
guides
100
AcDbLine
 10
6.44641016151378
 20
0.3679491924311247
 30
0.0
 11
5.44641016151378
 21
2.100000000000002
 31
0.0
  0
LINE
  5
136
330
54F
100
AcDbEntity
  8
guides
100
AcDbLine
 10
4.060769515458676
 20
2.100000000000001
 30
0.0
 11
6.139230484541331
 21
2.100000000000001
 31
0.0
  0
LINE
  5
137
330
54F
100
AcDbEntity
  8
guides
100
AcDbLine
 10
6.139230484541331
 20
2.100000000000001
 30
0.0
 11
6.139230484541331
 21
0.8999999999999999
 31
0.0
  0
LINE
  5
138
330
54F
100
AcDbEntity
  8
guides
100
AcDbLine
 10
6.139230484541331
 20
0.8999999999999999
 30
0.0
 11
4.060769515458676
 21
0.8999999999999999
 31
0.0
  0
LINE
  5
139
330
54F
100
AcDbEntity
  8
guides
100
AcDbLine
 10
4.060769515458676
 20
0.8999999999999999
 30
0.0
 11
4.060769515458676
 21
2.100000000000001
 31
0.0
  0
LINE
  5
13A
330
54F
100
AcDbEntity
  8
guides
100
AcDbLine
 10
5.100000000000004
 20
2.100000000000001
 30
0.0
 11
5.100000000000004
 21
0.8999999999999999
 31
0.0
  0
LINE
  5
13B
330
54F
100
AcDbEntity
  8
guides
100
AcDbLine
 10
4.060769515458676
 20
1.5
 30
0.0
 11
6.139230484541331
 21
1.5
 31
0.0
  0
LINE
  5
13C
330
54F
100
AcDbEntity
  8
guides
100
AcDbLine
 10
3.6
 20
0.4
 30
0.0
 11
6.6
 21
2.6
 31
0.0
  0
LINE
  5
13D
330
54F
100
AcDbEntity
  8
guides
100
AcDbLine
 10
3.6
 20
2.6
 30
0.0
 11
6.6
 21
0.4
 31
0.0
  0
LINE
  5
13E
330
54F
100
AcDbEntity
  8
cut-over
100
AcDbLine
 10
0.45
 20
0.4
 30
0.0
 11
0.9500000000000001
 21
0.4
 31
0.0
  0
LINE
  5
13F
330
54F
100
AcDbEntity
  8
cut-over
100
AcDbLine
 10
1.0
 20
0.4500000000000001
 30
0.0
 11
1.0
 21
0.55
 31
0.0
  0
LINE
  5
140
330
54F
100
AcDbEntity
  8
cut-over
100
AcDbLine
 10
0.95
 20
0.6000000000000001
 30
0.0
 11
0.4500000000000001
 21
0.6000000000000001
 31
0.0
  0
LINE
  5
141
330
54F
100
AcDbEntity
  8
cut-over
100
AcDbLine
 10
0.4
 20
0.55
 30
0.0
 11
0.4
 21
0.45
 31
0.0
  0
LINE
  5
142
330
54F
100
AcDbEntity
  8
cut-over
100
AcDbLine
 10
2.85
 20
0.4
 30
0.0
 11
3.350000000000001
 21
0.4
 31
0.0
  0
LINE
  5
143
330
54F
100
AcDbEntity
  8
cut-over
100
AcDbLine
 10
3.4
 20
0.45
 30
0.0
 11
3.4
 21
0.55
 31
0.0
  0
LINE
  5
144
330
54F
100
AcDbEntity
  8
cut-over
100
AcDbLine
 10
3.35
 20
0.6000000000000001
 30
0.0
 11
2.85
 21
0.6000000000000001
 31
0.0
  0
LINE
  5
145
330
54F
100
AcDbEntity
  8
cut-over
100
AcDbLine
 10
2.8
 20
0.55
 30
0.0
 11
2.8
 21
0.45
 31
0.0
  0
LINE
  5
146
330
54F
100
AcDbEntity
  8
cut-over
100
AcDbLine
 10
1.25
 20
0.4
 30
0.0
 11
1.75
 21
0.4
 31
0.0
  0
LINE
  5
147
330
54F
100
AcDbEntity
  8
cut-over
100
AcDbLine
 10
1.8
 20
0.45
 30
0.0
 11
1.8
 21
0.55
 31
0.0
  0
LINE
  5
148
330
54F
100
AcDbEntity
  8
cut-over
100
AcDbLine
 10
1.75
 20
0.6000000000000001
 30
0.0
 11
1.25
 21
0.6000000000000001
 31
0.0
  0
LINE
  5
149
330
54F
100
AcDbEntity
  8
cut-over
100
AcDbLine
 10
1.2
 20
0.55
 30
0.0
 11
1.2
 21
0.4500000000000001
 31
0.0
  0
LINE
  5
14A
330
54F
100
AcDbEntity
  8
cut-over
100
AcDbLine
 10
2.05
 20
0.4
 30
0.0
 11
2.55
 21
0.4
 31
0.0
  0
LINE
  5
14B
330
54F
100
AcDbEntity
  8
cut-over
100
AcDbLine
 10
2.6
 20
0.45
 30
0.0
 11
2.6
 21
0.55
 31
0.0
  0
LINE
  5
14C
330
54F
100
AcDbEntity
  8
cut-over
100
AcDbLine
 10
2.55
 20
0.6000000000000001
 30
0.0
 11
2.05
 21
0.6000000000000001
 31
0.0
  0
LINE
  5
14D
330
54F
100
AcDbEntity
  8
cut-over
100
AcDbLine
 10
2.0
 20
0.55
 30
0.0
 11
2.0
 21
0.45
 31
0.0
  0
LINE
  5
14E
330
54F
100
AcDbEntity
  8
pcb
100
AcDbLine
 10
0.85
 20
4.700000000000001
 30
0.0
 11
0.85
 21
4.800000000000002
 31
0.0
  0
LINE
  5
14F
330
54F
100
AcDbEntity
  8
pcb
100
AcDbLine
 10
0.85
 20
4.800000000000002
 30
0.0
 11
0.45
 21
4.800000000000002
 31
0.0
  0
LINE
  5
150
330
54F
100
AcDbEntity
  8
pcb
100
AcDbLine
 10
0.45
 20
4.800000000000002
 30
0.0
 11
0.45
 21
4.700000000000001
 31
0.0
  0
LINE
  5
151
330
54F
100
AcDbEntity
  8
pcb
100
AcDbLine
 10
1.55
 20
4.700000000000001
 30
0.0
 11
1.55
 21
4.800000000000002
 31
0.0
  0
LINE
  5
152
330
54F
100
AcDbEntity
  8
pcb
100
AcDbLine
 10
1.55
 20
4.800000000000002
 30
0.0
 11
1.15
 21
4.800000000000002
 31
0.0
  0
LINE
  5
153
330
54F
100
AcDbEntity
  8
pcb
100
AcDbLine
 10
1.15
 20
4.800000000000002
 30
0.0
 11
1.15
 21
4.700000000000001
 31
0.0
  0
LINE
  5
154
330
54F
100
AcDbEntity
  8
pcb
100
AcDbLine
 10
2.25
 20
4.700000000000001
 30
0.0
 11
2.25
 21
4.800000000000002
 31
0.0
  0
LINE
  5
155
330
54F
100
AcDbEntity
  8
pcb
100
AcDbLine
 10
2.25
 20
4.800000000000002
 30
0.0
 11
1.85
 21
4.800000000000002
 31
0.0
  0
LINE
  5
156
330
54F
100
AcDbEntity
  8
pcb
100
AcDbLine
 10
1.85
 20
4.800000000000002
 30
0.0
 11
1.85
 21
4.700000000000001
 31
0.0
  0
LINE
  5
157
330
54F
100
AcDbEntity
  8
pcb
100
AcDbLine
 10
2.95
 20
4.700000000000001
 30
0.0
 11
2.95
 21
4.800000000000002
 31
0.0
  0
LINE
  5
158
330
54F
100
AcDbEntity
  8
pcb
100
AcDbLine
 10
2.95
 20
4.800000000000002
 30
0.0
 11
2.55
 21
4.800000000000002
 31
0.0
  0
LINE
  5
159
330
54F
100
AcDbEntity
  8
pcb
100
AcDbLine
 10
2.55
 20
4.800000000000002
 30
0.0
 11
2.55
 21
4.700000000000001
 31
0.0
  0
LINE
  5
15A
330
54F
100
AcDbEntity
  8
pcb
100
AcDbLine
 10
3.65
 20
4.700000000000001
 30
0.0
 11
3.65
 21
4.800000000000002
 31
0.0
  0
LINE
  5
15B
330
54F
100
AcDbEntity
  8
pcb
100
AcDbLine
 10
3.65
 20
4.800000000000002
 30
0.0
 11
3.25
 21
4.800000000000002
 31
0.0
  0
LINE
  5
15C
330
54F
100
AcDbEntity
  8
pcb
100
AcDbLine
 10
3.25
 20
4.800000000000002
 30
0.0
 11
3.25
 21
4.700000000000001
 31
0.0
  0
LINE
  5
15D
330
54F
100
AcDbEntity
  8
pcb
100
AcDbLine
 10
6.5
 20
4.65
 30
0.0
 11
6.199999999999999
 21
4.65
 31
0.0
  0
LINE
  5
15E
330
54F
100
AcDbEntity
  8
pcb
100
AcDbLine
 10
6.1125
 20
4.65
 30
0.0
 11
5.787500000000001
 21
4.65
 31
0.0
  0
LINE
  5
15F
330
54F
100
AcDbEntity
  8
pcb
100
AcDbLine
 10
5.5625
 20
4.65
 30
0.0
 11
5.137499999999999
 21
4.65
 31
0.0
  0
LINE
  5
160
330
54F
100
AcDbEntity
  8
pcb
100
AcDbLine
 10
4.962499999999999
 20
4.65
 30
0.0
 11
4.737499999999999
 21
4.65
 31
0.0
  0
LINE
  5
161
330
54F
100
AcDbEntity
  8
pcb
100
AcDbLine
 10
4.55
 20
4.649999999999999
 30
0.0
 11
4.249999999999998
 21
4.649999999999999
 31
0.0
  0
LINE
  5
162
330
54F
100
AcDbEntity
  8
etch
100
AcDbLine
 10
0.45
 20
2.8
 30
0.0
 11
0.9500000000000001
 21
2.8
 31
0.0
  0
LINE
  5
163
330
54F
100
AcDbEntity
  8
etch
100
AcDbLine
 10
1.0
 20
2.85
 30
0.0
 11
1.0
 21
3.55
 31
0.0
  0
LINE
  5
164
330
54F
100
AcDbEntity
  8
etch
100
AcDbLine
 10
0.9499999999999992
 20
3.6
 30
0.0
 11
0.4499999999999991
 21
3.6
 31
0.0
  0
LINE
  5
165
330
54F
100
AcDbEntity
  8
etch
100
AcDbLine
 10
0.4
 20
3.55
 30
0.0
 11
0.4
 21
2.85
 31
0.0
  0
LINE
  5
166
330
54F
100
AcDbEntity
  8
etch
100
AcDbLine
 10
1.8
 20
2.85
 30
0.0
 11
1.799999999999999
 21
3.55
 31
0.0
  0
LINE
  5
167
330
54F
100
AcDbEntity
  8
etch
100
AcDbLine
 10
2.597804709531164
 20
2.850181879267035
 30
0.0
 11
2.597804709531163
 21
3.550181879267035
 31
0.0
  0
LINE
  5
168
330
54F
100
AcDbEntity
  8
etch
100
AcDbLine
 10
2.0
 20
3.55
 30
0.0
 11
2.0
 21
2.85
 31
0.0
  0
LINE
  5
169
330
54F
100
AcDbEntity
  8
guides
100
AcDbLine
 10
3.5
 20
0.2
 30
0.0
 11
3.5
 21
4.600000000000001
 31
0.0
  0
LINE
  5
16A
330
54F
100
AcDbEntity
  8
guides
100
AcDbLine
 10
6.3
 20
2.850000000000001
 30
0.0
 11
6.4
 21
2.95
 31
0.0
  0
ARC
  5
16B
330
54F
100
AcDbEntity
  8
etch
100
AcDbCircle
 10
0.4499999999999991
 20
3.55
 30
0.0
 40
0.05
100
AcDbArc
 50
90.0
 51
180.0
  0
ARC
  5
16C
330
54F
100
AcDbEntity
  8
etch
100
AcDbCircle
 10
0.9499999999999991
 20
3.55
 30
0.0
 40
0.05
100
AcDbArc
 50
0.0
 51
90.0
  0
ARC
  5
16D
330
54F
100
AcDbEntity
  8
etch
100
AcDbCircle
 10
0.95
 20
2.85
 30
0.0
 40
0.05
100
AcDbArc
 50
270.0
 51
0.0
  0
ARC
  5
16E
330
54F
100
AcDbEntity
  8
etch
100
AcDbCircle
 10
0.45
 20
2.85
 30
0.0
 40
0.05
100
AcDbArc
 50
180.0
 51
270.0
  0
ARC
  5
16F
330
54F
100
AcDbEntity
  8
etch
100
AcDbCircle
 10
1.75
 20
2.85
 30
0.0
 40
0.05
100
AcDbArc
 50
270.0
 51
0.0
  0
ARC
  5
170
330
54F
100
AcDbEntity
  8
etch
100
AcDbCircle
 10
2.05
 20
2.85
 30
0.0
 40
0.05
100
AcDbArc
 50
180.0
 51
270.0
  0
ARC
  5
171
330
54F
100
AcDbEntity
  8
etch
100
AcDbCircle
 10
2.547804709531163
 20
2.850181879267034
 30
0.0
 40
0.05
100
AcDbArc
 50
270.0
 51
0.0
  0
ARC
  5
172
330
54F
100
AcDbEntity
  8
etch
100
AcDbCircle
 10
2.547804709531163
 20
3.550181879267035
 30
0.0
 40
0.05
100
AcDbArc
 50
0.0
 51
90.0
  0
ARC
  5
173
330
54F
100
AcDbEntity
  8
etch
100
AcDbCircle
 10
2.05
 20
3.55
 30
0.0
 40
0.05
100
AcDbArc
 50
90.0
 51
180.0
  0
ARC
  5
174
330
54F
100
AcDbEntity
  8
etch
100
AcDbCircle
 10
1.749999999999999
 20
3.55
 30
0.0
 40
0.05
100
AcDbArc
 50
0.0
 51
90.0
  0
ARC
  5
175
330
54F
100
AcDbEntity
  8
etch
100
AcDbCircle
 10
6.55
 20
2.550000000000001
 30
0.0
 40
0.05
100
AcDbArc
 50
0.0
 51
89.99999999999898
  0
ARC
  5
176
330
54F
100
AcDbEntity
  8
etch
100
AcDbCircle
 10
6.55
 20
0.45
 30
0.0
 40
0.05
100
AcDbArc
 50
270.0
 51
0.0
  0
ARC
  5
177
330
54F
100
AcDbEntity
  8
etch
100
AcDbCircle
 10
3.65
 20
0.45
 30
0.0
 40
0.05
100
AcDbArc
 50
180.0
 51
269.9999999999995
  0
ARC
  5
178
330
54F
100
AcDbEntity
  8
etch
100
AcDbCircle
 10
3.65
 20
2.550000000000001
 30
0.0
 40
0.05
100
AcDbArc
 50
90.0
 51
180.0
  0
ARC
  5
179
330
54F
100
AcDbEntity
  8
cut
100
AcDbCircle
 10
3.35
 20
2.550000000000001
 30
0.0
 40
0.05
100
AcDbArc
 50
0.0
 51
90.0
  0
ARC
  5
17A
330
54F
100
AcDbEntity
  8
cut
100
AcDbCircle
 10
0.45
 20
2.550000000000001
 30
0.0
 40
0.05
100
AcDbArc
 50
90.00000000000038
 51
180.0
  0
ARC
  5
17B
330
54F
100
AcDbEntity
  8
cut
100
AcDbCircle
 10
0.45
 20
0.8500000000000001
 30
0.0
 40
0.05
100
AcDbArc
 50
180.0
 51
270.0
  0
ARC
  5
17C
330
54F
100
AcDbEntity
  8
cut
100
AcDbCircle
 10
3.350000000000001
 20
0.8500000000000001
 30
0.0
 40
0.05
100
AcDbArc
 50
270.0
 51
0.0
  0
ARC
  5
17D
330
54F
100
AcDbEntity
  8
cut-over
100
AcDbCircle
 10
3.35
 20
0.55
 30
0.0
 40
0.05
100
AcDbArc
 50
0.0
 51
90.0
  0
ARC
  5
17E
330
54F
100
AcDbEntity
  8
cut-over
100
AcDbCircle
 10
3.350000000000001
 20
0.45
 30
0.0
 40
0.05
100
AcDbArc
 50
270.0
 51
0.0
  0
ARC
  5
17F
330
54F
100
AcDbEntity
  8
cut-over
100
AcDbCircle
 10
2.85
 20
0.45
 30
0.0
 40
0.05
100
AcDbArc
 50
180.0
 51
270.0
  0
ARC
  5
180
330
54F
100
AcDbEntity
  8
cut-over
100
AcDbCircle
 10
2.85
 20
0.55
 30
0.0
 40
0.05
100
AcDbArc
 50
90.0
 51
180.0
  0
ARC
  5
181
330
54F
100
AcDbEntity
  8
cut-over
100
AcDbCircle
 10
2.55
 20
0.55
 30
0.0
 40
0.05
100
AcDbArc
 50
0.0
 51
90.0
  0
ARC
  5
182
330
54F
100
AcDbEntity
  8
cut-over
100
AcDbCircle
 10
2.55
 20
0.45
 30
0.0
 40
0.05
100
AcDbArc
 50
270.0
 51
0.0
  0
ARC
  5
183
330
54F
100
AcDbEntity
  8
cut-over
100
AcDbCircle
 10
2.05
 20
0.45
 30
0.0
 40
0.05
100
AcDbArc
 50
180.0
 51
270.0
  0
ARC
  5
184
330
54F
100
AcDbEntity
  8
cut-over
100
AcDbCircle
 10
2.05
 20
0.55
 30
0.0
 40
0.05
100
AcDbArc
 50
90.0
 51
180.0
  0
ARC
  5
185
330
54F
100
AcDbEntity
  8
cut-over
100
AcDbCircle
 10
1.75
 20
0.45
 30
0.0
 40
0.05
100
AcDbArc
 50
270.0
 51
0.0
  0
ARC
  5
186
330
54F
100
AcDbEntity
  8
cut-over
100
AcDbCircle
 10
1.75
 20
0.55
 30
0.0
 40
0.05
100
AcDbArc
 50
0.0
 51
90.0
  0
ARC
  5
187
330
54F
100
AcDbEntity
  8
cut-over
100
AcDbCircle
 10
1.25
 20
0.55
 30
0.0
 40
0.05
100
AcDbArc
 50
90.0
 51
180.0
  0
ARC
  5
188
330
54F
100
AcDbEntity
  8
cut-over
100
AcDbCircle
 10
1.25
 20
0.4500000000000001
 30
0.0
 40
0.05
100
AcDbArc
 50
180.0
 51
270.0
  0
ARC
  5
189
330
54F
100
AcDbEntity
  8
cut-over
100
AcDbCircle
 10
0.9500000000000001
 20
0.4500000000000001
 30
0.0
 40
0.05
100
AcDbArc
 50
270.0
 51
0.0
  0
ARC
  5
18A
330
54F
100
AcDbEntity
  8
cut-over
100
AcDbCircle
 10
0.95
 20
0.55
 30
0.0
 40
0.05
100
AcDbArc
 50
0.0
 51
90.0
  0
ARC
  5
18B
330
54F
100
AcDbEntity
  8
cut-over
100
AcDbCircle
 10
0.45
 20
0.45
 30
0.0
 40
0.05
100
AcDbArc
 50
180.0
 51
270.0
  0
ARC
  5
18C
330
54F
100
AcDbEntity
  8
cut-over
100
AcDbCircle
 10
0.4500000000000001
 20
0.55
 30
0.0
 40
0.05
100
AcDbArc
 50
90.0
 51
180.0
  0
LINE
  5
18D
330
54F
100
AcDbEntity
  8
pcb
100
AcDbLine
 10
0.5000000000000004
 20
0.0
 30
0.0
 11
0.9000000000000007
 21
0.0
 31
0.0
  0
LINE
  5
18E
330
54F
100
AcDbEntity
  8
pcb
100
AcDbLine
 10
0.9000000000000007
 20
0.0
 30
0.0
 11
0.9000000000000007
 21
0.1000000000000007
 31
0.0
  0
LINE
  5
18F
330
54F
100
AcDbEntity
  8
pcb
100
AcDbLine
 10
0.5000000000000004
 20
0.1000000000000007
 30
0.0
 11
0.5000000000000004
 21
0.0
 31
0.0
  0
LINE
  5
190
330
54F
100
AcDbEntity
  8
pcb
100
AcDbLine
 10
1.200000000000001
 20
0.0
 30
0.0
 11
1.600000000000001
 21
0.0
 31
0.0
  0
LINE
  5
191
330
54F
100
AcDbEntity
  8
pcb
100
AcDbLine
 10
1.600000000000001
 20
0.0
 30
0.0
 11
1.600000000000001
 21
0.1000000000000007
 31
0.0
  0
LINE
  5
192
330
54F
100
AcDbEntity
  8
pcb
100
AcDbLine
 10
1.200000000000001
 20
0.1000000000000007
 30
0.0
 11
1.200000000000001
 21
0.0
 31
0.0
  0
CIRCLE
  5
1DE
330
54F
100
AcDbEntity
  8
top
100
AcDbCircle
 10
0.7000000000000001
 20
3.300000000000001
 30
0.0
 40
0.2
  0
CIRCLE
  5
1DF
330
54F
100
AcDbEntity
  8
top
100
AcDbCircle
 10
1.5
 20
3.3
 30
0.0
 40
0.2
  0
CIRCLE
  5
1E0
330
54F
100
AcDbEntity
  8
top
100
AcDbCircle
 10
2.3
 20
3.3
 30
0.0
 40
0.2
  0
LINE
  5
1E5
330
54F
100
AcDbEntity
  8
pcb
100
AcDbLine
 10
5.399999999999999
 20
0.2
 30
0.0
 11
6.5
 21
0.2
 31
0.0
  0
LINE
  5
1E6
330
54F
100
AcDbEntity
  8
pcb
100
AcDbLine
 10
6.5
 20
0.2
 30
0.0
 11
6.5
 21
1.299999999999999
 31
0.0
  0
LINE
  5
1E7
330
54F
100
AcDbEntity
  8
pcb
100
AcDbLine
 10
6.5
 20
1.299999999999999
 30
0.0
 11
5.399999999999999
 21
1.299999999999999
 31
0.0
  0
LINE
  5
1E8
330
54F
100
AcDbEntity
  8
pcb
100
AcDbLine
 10
5.399999999999999
 20
1.299999999999999
 30
0.0
 11
5.399999999999999
 21
0.2
 31
0.0
  0
LINE
  5
1E9
330
54F
100
AcDbEntity
  8
guides
100
AcDbLine
 10
0.7000000000000001
 20
2.3
 30
0.0
 11
3.1
 21
1.1
 31
0.0
  0
LINE
  5
1EA
330
54F
100
AcDbEntity
  8
guides
100
AcDbLine
 10
0.7000000000000001
 20
1.1
 30
0.0
 11
3.1
 21
2.3
 31
0.0
  0
ARC
  5
22B
330
54F
100
AcDbEntity
  8
etch
100
AcDbCircle
 10
2.85
 20
2.85
 30
0.0
 40
0.05
100
AcDbArc
 50
180.0
 51
270.0
  0
ARC
  5
22D
330
54F
100
AcDbEntity
  8
etch
100
AcDbCircle
 10
3.35
 20
2.85
 30
0.0
 40
0.05
100
AcDbArc
 50
270.0
 51
0.0
  0
LINE
  5
22E
330
54F
100
AcDbEntity
  8
etch
100
AcDbLine
 10
3.4
 20
2.85
 30
0.0
 11
3.4
 21
3.55
 31
0.0
  0
ARC
  5
22F
330
54F
100
AcDbEntity
  8
etch
100
AcDbCircle
 10
3.35
 20
3.550000000000001
 30
0.0
 40
0.05
100
AcDbArc
 50
0.0
 51
90.0
  0
ARC
  5
231
330
54F
100
AcDbEntity
  8
etch
100
AcDbCircle
 10
2.85
 20
3.55
 30
0.0
 40
0.05
100
AcDbArc
 50
90.0
 51
180.0
  0
LINE
  5
232
330
54F
100
AcDbEntity
  8
etch
100
AcDbLine
 10
2.8
 20
3.55
 30
0.0
 11
2.800000000000001
 21
2.85
 31
0.0
  0
CIRCLE
  5
233
330
54F
100
AcDbEntity
  8
top
100
AcDbCircle
 10
3.1
 20
3.3
 30
0.0
 40
0.2
  0
LINE
  5
234
330
54F
100
AcDbEntity
  8
pcb
100
AcDbLine
 10
0.3500000000000001
 20
3.6
 30
0.0
 11
0.9500000000000001
 21
3.6
 31
0.0
  0
LINE
  5
235
330
54F
100
AcDbEntity
  8
pcb
100
AcDbLine
 10
0.9500000000000001
 20
3.6
 30
0.0
 11
0.9500000000000001
 21
4.600000000000001
 31
0.0
  0
LINE
  5
236
330
54F
100
AcDbEntity
  8
pcb
100
AcDbLine
 10
0.9500000000000001
 20
4.600000000000001
 30
0.0
 11
0.3500000000000001
 21
4.600000000000001
 31
0.0
  0
LINE
  5
237
330
54F
100
AcDbEntity
  8
pcb
100
AcDbLine
 10
0.3500000000000001
 20
4.600000000000001
 30
0.0
 11
0.3500000000000001
 21
3.6
 31
0.0
  0
LINE
  5
26B
330
54F
100
AcDbEntity
  8
etch
100
AcDbLine
 10
1.249999999999999
 20
3.599999999999999
 30
0.0
 11
1.749999999999999
 21
3.599999999999999
 31
0.0
  0
LINE
  5
26C
330
54F
100
AcDbEntity
  8
etch
100
AcDbLine
 10
1.75
 20
2.8
 30
0.0
 11
1.25
 21
2.8
 31
0.0
  0
LINE
  5
26D
330
54F
100
AcDbEntity
  8
etch
100
AcDbLine
 10
2.05
 20
3.599999999999999
 30
0.0
 11
2.547804709531163
 21
3.600181879267035
 31
0.0
  0
LINE
  5
26E
330
54F
100
AcDbEntity
  8
etch
100
AcDbLine
 10
2.547804709531163
 20
2.800181879267034
 30
0.0
 11
2.05
 21
2.8
 31
0.0
  0
LINE
  5
26F
330
54F
100
AcDbEntity
  8
etch
100
AcDbLine
 10
2.85
 20
2.8
 30
0.0
 11
3.35
 21
2.8
 31
0.0
  0
LINE
  5
270
330
54F
100
AcDbEntity
  8
etch
100
AcDbLine
 10
3.35
 20
3.600000000000001
 30
0.0
 11
2.85
 21
3.599999999999999
 31
0.0
  0
LINE
  5
2C0
330
54F
100
AcDbEntity
  8
pcb
100
AcDbLine
 10
1.060025746360746
 20
3.6
 30
0.0
 11
1.660025746360746
 21
3.6
 31
0.0
  0
LINE
  5
2C1
330
54F
100
AcDbEntity
  8
pcb
100
AcDbLine
 10
1.660025746360746
 20
3.6
 30
0.0
 11
1.660025746360746
 21
4.600000000000001
 31
0.0
  0
LINE
  5
2C2
330
54F
100
AcDbEntity
  8
pcb
100
AcDbLine
 10
1.660025746360746
 20
4.600000000000001
 30
0.0
 11
1.060025746360746
 21
4.600000000000001
 31
0.0
  0
LINE
  5
2C3
330
54F
100
AcDbEntity
  8
pcb
100
AcDbLine
 10
1.060025746360746
 20
4.600000000000001
 30
0.0
 11
1.060025746360746
 21
3.6
 31
0.0
  0
LINE
  5
2C4
330
54F
100
AcDbEntity
  8
pcb
100
AcDbLine
 10
1.75
 20
3.6
 30
0.0
 11
2.35
 21
3.6
 31
0.0
  0
LINE
  5
2C5
330
54F
100
AcDbEntity
  8
pcb
100
AcDbLine
 10
2.35
 20
3.6
 30
0.0
 11
2.35
 21
4.600000000000001
 31
0.0
  0
LINE
  5
2C6
330
54F
100
AcDbEntity
  8
pcb
100
AcDbLine
 10
2.35
 20
4.600000000000001
 30
0.0
 11
1.75
 21
4.600000000000001
 31
0.0
  0
LINE
  5
2C7
330
54F
100
AcDbEntity
  8
pcb
100
AcDbLine
 10
1.75
 20
4.600000000000001
 30
0.0
 11
1.75
 21
3.6
 31
0.0
  0
LINE
  5
2C8
330
54F
100
AcDbEntity
  8
pcb
100
AcDbLine
 10
2.450000000000001
 20
3.6
 30
0.0
 11
3.05
 21
3.6
 31
0.0
  0
LINE
  5
2C9
330
54F
100
AcDbEntity
  8
pcb
100
AcDbLine
 10
3.05
 20
3.6
 30
0.0
 11
3.05
 21
4.600000000000001
 31
0.0
  0
LINE
  5
2CA
330
54F
100
AcDbEntity
  8
pcb
100
AcDbLine
 10
3.05
 20
4.600000000000001
 30
0.0
 11
2.450000000000001
 21
4.600000000000001
 31
0.0
  0
LINE
  5
2CB
330
54F
100
AcDbEntity
  8
pcb
100
AcDbLine
 10
2.450000000000001
 20
4.600000000000001
 30
0.0
 11
2.450000000000001
 21
3.6
 31
0.0
  0
LINE
  5
2CC
330
54F
100
AcDbEntity
  8
pcb
100
AcDbLine
 10
3.15
 20
3.6
 30
0.0
 11
3.75
 21
3.6
 31
0.0
  0
LINE
  5
2CD
330
54F
100
AcDbEntity
  8
pcb
100
AcDbLine
 10
3.75
 20
3.6
 30
0.0
 11
3.75
 21
4.600000000000001
 31
0.0
  0
LINE
  5
2CE
330
54F
100
AcDbEntity
  8
pcb
100
AcDbLine
 10
3.75
 20
4.600000000000001
 30
0.0
 11
3.15
 21
4.600000000000001
 31
0.0
  0
LINE
  5
2CF
330
54F
100
AcDbEntity
  8
pcb
100
AcDbLine
 10
3.15
 20
4.600000000000001
 30
0.0
 11
3.15
 21
3.6
 31
0.0
  0
LINE
  5
2D0
330
54F
100
AcDbEntity
  8
etch
100
AcDbLine
 10
6.049999999999999
 20
2.800000000000001
 30
0.0
 11
6.550000000000001
 21
2.800000000000001
 31
0.0
  0
ARC
  5
2D5
330
54F
100
AcDbEntity
  8
etch
100
AcDbCircle
 10
6.550000000000001
 20
2.85
 30
0.0
 40
0.05
100
AcDbArc
 50
270.0
 51
0.0
  0
ARC
  5
2D6
330
54F
100
AcDbEntity
  8
etch
100
AcDbCircle
 10
6.049999999999999
 20
2.85
 30
0.0
 40
0.05
100
AcDbArc
 50
180.0
 51
270.0
  0
LINE
  5
2E1
330
54F
100
AcDbEntity
  8
pcb
100
AcDbLine
 10
5.4
 20
0.15
 30
0.0
 11
6.5
 21
0.15
 31
0.0
  0
LINE
  5
354
330
54F
100
AcDbEntity
  8
pcb
100
AcDbLine
 10
4.250000000000001
 20
3.6
 30
0.0
 11
4.650000000000001
 21
3.6
 31
0.0
  0
CIRCLE
  5
356
330
54F
100
AcDbEntity
  8
top
100
AcDbCircle
 10
4.449999999999999
 20
3.3
 30
0.0
 40
0.16
  0
LINE
  5
357
330
54F
100
AcDbEntity
  8
pcb
100
AcDbLine
 10
4.649999999999999
 20
3.000000000000001
 30
0.0
 11
4.650000000000001
 21
3.6
 31
0.0
  0
LINE
  5
358
330
54F
100
AcDbEntity
  8
pcb
100
AcDbLine
 10
4.250000000000001
 20
3.6
 30
0.0
 11
4.25
 21
3.000000000000001
 31
0.0
  0
LINE
  5
359
330
54F
100
AcDbEntity
  8
pcb
100
AcDbLine
 10
4.25
 20
3.000000000000001
 30
0.0
 11
4.649999999999999
 21
3.000000000000001
 31
0.0
  0
LINE
  5
35A
330
54F
100
AcDbEntity
  8
pcb
100
AcDbLine
 10
4.750000000000001
 20
3.6
 30
0.0
 11
5.150000000000001
 21
3.6
 31
0.0
  0
CIRCLE
  5
35C
330
54F
100
AcDbEntity
  8
top
100
AcDbCircle
 10
4.949999999999999
 20
3.3
 30
0.0
 40
0.16
  0
LINE
  5
35D
330
54F
100
AcDbEntity
  8
pcb
100
AcDbLine
 10
5.149999999999999
 20
3.000000000000001
 30
0.0
 11
5.150000000000001
 21
3.6
 31
0.0
  0
LINE
  5
35E
330
54F
100
AcDbEntity
  8
pcb
100
AcDbLine
 10
4.750000000000001
 20
3.6
 30
0.0
 11
4.75
 21
3.000000000000001
 31
0.0
  0
LINE
  5
35F
330
54F
100
AcDbEntity
  8
pcb
100
AcDbLine
 10
4.75
 20
3.000000000000001
 30
0.0
 11
5.149999999999999
 21
3.000000000000001
 31
0.0
  0
LINE
  5
361
330
54F
100
AcDbEntity
  8
pcb
100
AcDbLine
 10
5.250000000000001
 20
3.600000000000001
 30
0.0
 11
5.649999999999999
 21
3.6
 31
0.0
  0
CIRCLE
  5
362
330
54F
100
AcDbEntity
  8
top
100
AcDbCircle
 10
5.449999999999999
 20
3.3
 30
0.0
 40
0.16
  0
LINE
  5
363
330
54F
100
AcDbEntity
  8
pcb
100
AcDbLine
 10
5.649999999999999
 20
3.000000000000001
 30
0.0
 11
5.650000000000001
 21
3.6
 31
0.0
  0
LINE
  5
364
330
54F
100
AcDbEntity
  8
pcb
100
AcDbLine
 10
5.250000000000001
 20
3.6
 30
0.0
 11
5.25
 21
3.000000000000001
 31
0.0
  0
LINE
  5
365
330
54F
100
AcDbEntity
  8
pcb
100
AcDbLine
 10
5.25
 20
3.000000000000001
 30
0.0
 11
5.649999999999999
 21
3.000000000000001
 31
0.0
  0
LINE
  5
366
330
54F
100
AcDbEntity
  8
pcb
100
AcDbLine
 10
5.0
 20
3.600000000000001
 30
0.0
 11
5.399999999999999
 21
3.600000000000002
 31
0.0
  0
LINE
  5
368
330
54F
100
AcDbEntity
  8
pcb
100
AcDbLine
 10
5.5
 20
4.200000000000002
 30
0.0
 11
5.899999999999998
 21
4.200000000000002
 31
0.0
  0
LINE
  5
369
330
54F
100
AcDbEntity
  8
pcb
100
AcDbLine
 10
4.000000000000001
 20
4.2
 30
0.0
 11
4.4
 21
4.200000000000001
 31
0.0
  0
CIRCLE
  5
36B
330
54F
100
AcDbEntity
  8
top
100
AcDbCircle
 10
5.699999999999999
 20
3.900000000000001
 30
0.0
 40
0.16
  0
CIRCLE
  5
36C
330
54F
100
AcDbEntity
  8
top
100
AcDbCircle
 10
4.199999999999999
 20
3.900000000000001
 30
0.0
 40
0.16
  0
LINE
  5
36D
330
54F
100
AcDbEntity
  8
pcb
100
AcDbLine
 10
5.899999999999999
 20
3.600000000000002
 30
0.0
 11
5.9
 21
4.200000000000001
 31
0.0
  0
LINE
  5
36E
330
54F
100
AcDbEntity
  8
pcb
100
AcDbLine
 10
4.399999999999999
 20
3.600000000000002
 30
0.0
 11
4.4
 21
4.200000000000001
 31
0.0
  0
LINE
  5
36F
330
54F
100
AcDbEntity
  8
pcb
100
AcDbLine
 10
5.500000000000001
 20
4.2
 30
0.0
 11
5.5
 21
3.600000000000001
 31
0.0
  0
LINE
  5
370
330
54F
100
AcDbEntity
  8
pcb
100
AcDbLine
 10
4.000000000000001
 20
4.2
 30
0.0
 11
4.0
 21
3.600000000000001
 31
0.0
  0
LINE
  5
371
330
54F
100
AcDbEntity
  8
pcb
100
AcDbLine
 10
5.5
 20
3.600000000000001
 30
0.0
 11
5.899999999999999
 21
3.600000000000002
 31
0.0
  0
LINE
  5
372
330
54F
100
AcDbEntity
  8
pcb
100
AcDbLine
 10
4.0
 20
3.600000000000001
 30
0.0
 11
4.399999999999999
 21
3.600000000000002
 31
0.0
  0
LINE
  5
373
330
54F
100
AcDbEntity
  8
pcb
100
AcDbLine
 10
4.500000000000001
 20
4.2
 30
0.0
 11
4.9
 21
4.200000000000001
 31
0.0
  0
CIRCLE
  5
375
330
54F
100
AcDbEntity
  8
top
100
AcDbCircle
 10
4.699999999999999
 20
3.900000000000001
 30
0.0
 40
0.16
  0
LINE
  5
376
330
54F
100
AcDbEntity
  8
pcb
100
AcDbLine
 10
4.899999999999999
 20
3.600000000000002
 30
0.0
 11
4.9
 21
4.200000000000001
 31
0.0
  0
LINE
  5
377
330
54F
100
AcDbEntity
  8
pcb
100
AcDbLine
 10
4.500000000000001
 20
4.2
 30
0.0
 11
4.5
 21
3.600000000000001
 31
0.0
  0
LINE
  5
378
330
54F
100
AcDbEntity
  8
pcb
100
AcDbLine
 10
4.5
 20
3.600000000000001
 30
0.0
 11
4.899999999999999
 21
3.600000000000002
 31
0.0
  0
LINE
  5
37A
330
54F
100
AcDbEntity
  8
pcb
100
AcDbLine
 10
5.0
 20
4.200000000000002
 30
0.0
 11
5.399999999999998
 21
4.200000000000002
 31
0.0
  0
CIRCLE
  5
37B
330
54F
100
AcDbEntity
  8
top
100
AcDbCircle
 10
5.199999999999999
 20
3.900000000000001
 30
0.0
 40
0.16
  0
LINE
  5
37C
330
54F
100
AcDbEntity
  8
pcb
100
AcDbLine
 10
5.399999999999999
 20
3.600000000000002
 30
0.0
 11
5.4
 21
4.200000000000001
 31
0.0
  0
LINE
  5
37D
330
54F
100
AcDbEntity
  8
pcb
100
AcDbLine
 10
5.000000000000001
 20
4.2
 30
0.0
 11
5.0
 21
3.600000000000001
 31
0.0
  0
LINE
  5
37F
330
54F
100
AcDbEntity
  8
pcb
100
AcDbLine
 10
3.750000000000001
 20
3.600000000000001
 30
0.0
 11
4.149999999999999
 21
3.6
 31
0.0
  0
CIRCLE
  5
380
330
54F
100
AcDbEntity
  8
top
100
AcDbCircle
 10
3.95
 20
3.3
 30
0.0
 40
0.16
  0
LINE
  5
381
330
54F
100
AcDbEntity
  8
pcb
100
AcDbLine
 10
4.149999999999999
 20
3.000000000000001
 30
0.0
 11
4.150000000000001
 21
3.599999999999999
 31
0.0
  0
LINE
  5
382
330
54F
100
AcDbEntity
  8
pcb
100
AcDbLine
 10
3.750000000000001
 20
3.599999999999999
 30
0.0
 11
3.75
 21
3.000000000000001
 31
0.0
  0
LINE
  5
383
330
54F
100
AcDbEntity
  8
pcb
100
AcDbLine
 10
3.75
 20
3.000000000000001
 30
0.0
 11
4.149999999999999
 21
3.000000000000001
 31
0.0
  0
LINE
  5
386
330
54F
100
AcDbEntity
  8
etch
100
AcDbLine
 10
6.598902354765582
 20
2.850090939633518
 30
0.0
 11
6.6
 21
3.55
 31
0.0
  0
ARC
  5
387
330
54F
100
AcDbEntity
  8
etch
100
AcDbCircle
 10
6.548902354765581
 20
3.550090939633518
 30
0.0
 40
0.05
100
AcDbArc
 50
0.0
 51
90.0
  0
ARC
  5
388
330
54F
100
AcDbEntity
  8
etch
100
AcDbCircle
 10
6.051097645234417
 20
3.549909060366483
 30
0.0
 40
0.05
100
AcDbArc
 50
90.0
 51
180.0
  0
LINE
  5
389
330
54F
100
AcDbEntity
  8
etch
100
AcDbLine
 10
6.001097645234418
 20
3.549909060366483
 30
0.0
 11
6.001097645234418
 21
2.849909060366483
 31
0.0
  0
LINE
  5
38D
330
54F
100
AcDbEntity
  8
etch
100
AcDbLine
 10
6.051097645234417
 20
3.599909060366483
 30
0.0
 11
6.548902354765581
 21
3.600090939633518
 31
0.0
  0
LINE
  5
395
330
54F
100
AcDbEntity
  8
cut-over
100
AcDbLine
 10
6.119999999999999
 20
3.5
 30
0.0
 11
6.48
 21
3.5
 31
0.0
  0
LINE
  5
396
330
54F
100
AcDbEntity
  8
cut-over
100
AcDbLine
 10
6.5
 20
3.48
 30
0.0
 11
6.5
 21
3.120000000000001
 31
0.0
  0
LINE
  5
397
330
54F
100
AcDbEntity
  8
cut-over
100
AcDbLine
 10
6.48
 20
3.1
 30
0.0
 11
6.119999999999999
 21
3.1
 31
0.0
  0
LINE
  5
398
330
54F
100
AcDbEntity
  8
cut-over
100
AcDbLine
 10
6.1
 20
3.12
 30
0.0
 11
6.1
 21
3.48
 31
0.0
  0
LINE
  5
39D
330
54F
100
AcDbEntity
  8
cut
100
AcDbLine
 10
6.22
 20
2.95
 30
0.0
 11
6.380000000000002
 21
2.95
 31
0.0
  0
LINE
  5
39E
330
54F
100
AcDbEntity
  8
cut
100
AcDbLine
 10
6.4
 20
2.93
 30
0.0
 11
6.4
 21
2.870000000000001
 31
0.0
  0
LINE
  5
39F
330
54F
100
AcDbEntity
  8
cut
100
AcDbLine
 10
6.380000000000002
 20
2.85
 30
0.0
 11
6.22
 21
2.85
 31
0.0
  0
LINE
  5
3A0
330
54F
100
AcDbEntity
  8
cut
100
AcDbLine
 10
6.200000000000001
 20
2.87
 30
0.0
 11
6.200000000000001
 21
2.93
 31
0.0
  0
ARC
  5
3A1
330
54F
100
AcDbEntity
  8
cut
100
AcDbCircle
 10
6.22
 20
2.93
 30
0.0
 40
0.02
100
AcDbArc
 50
90.0
 51
180.0
  0
ARC
  5
3A2
330
54F
100
AcDbEntity
  8
cut
100
AcDbCircle
 10
6.380000000000002
 20
2.93
 30
0.0
 40
0.02
100
AcDbArc
 50
0.0
 51
90.0
  0
ARC
  5
3A3
330
54F
100
AcDbEntity
  8
cut
100
AcDbCircle
 10
6.380000000000002
 20
2.870000000000001
 30
0.0
 40
0.02
100
AcDbArc
 50
270.0
 51
0.0
  0
ARC
  5
3A4
330
54F
100
AcDbEntity
  8
cut
100
AcDbCircle
 10
6.22
 20
2.87
 30
0.0
 40
0.02
100
AcDbArc
 50
180.0
 51
270.0
  0
ARC
  5
3A5
330
54F
100
AcDbEntity
  8
cut-over
100
AcDbCircle
 10
6.119999999999999
 20
3.48
 30
0.0
 40
0.02
100
AcDbArc
 50
90.0
 51
180.0
  0
ARC
  5
3A6
330
54F
100
AcDbEntity
  8
cut-over
100
AcDbCircle
 10
6.48
 20
3.48
 30
0.0
 40
0.02
100
AcDbArc
 50
0.0
 51
90.0
  0
ARC
  5
3A7
330
54F
100
AcDbEntity
  8
cut-over
100
AcDbCircle
 10
6.48
 20
3.120000000000001
 30
0.0
 40
0.02
100
AcDbArc
 50
270.0
 51
0.0
  0
ARC
  5
3A8
330
54F
100
AcDbEntity
  8
cut-over
100
AcDbCircle
 10
6.119999999999999
 20
3.12
 30
0.0
 40
0.02
100
AcDbArc
 50
180.0
 51
270.0
  0
CIRCLE
  5
3AA
330
54F
100
AcDbEntity
  8
screen
100
AcDbCircle
 10
6.3
 20
3.3
 30
0.0
 40
0.1000000000000005
  0
CIRCLE
  5
3B6
330
54F
100
AcDbEntity
  8
cut
100
AcDbCircle
 10
0.7000000000000001
 20
3.300000000000001
 30
0.0
 40
0.125
  0
CIRCLE
  5
3B7
330
54F
100
AcDbEntity
  8
cut
100
AcDbCircle
 10
1.5
 20
3.3
 30
0.0
 40
0.125
  0
CIRCLE
  5
3B8
330
54F
100
AcDbEntity
  8
cut
100
AcDbCircle
 10
2.3
 20
3.3
 30
0.0
 40
0.125
  0
CIRCLE
  5
3B9
330
54F
100
AcDbEntity
  8
cut
100
AcDbCircle
 10
3.1
 20
3.3
 30
0.0
 40
0.125
  0
LINE
  5
3C8
330
54F
100
AcDbEntity
  8
0
100
AcDbLine
 10
7.85
 20
0.2
 30
0.0
 11
8.1
 21
0.2
 31
0.0
  0
LINE
  5
3C9
330
54F
100
AcDbEntity
  8
0
100
AcDbLine
 10
8.25
 20
0.2
 30
0.0
 11
8.5
 21
0.2
 31
0.0
  0
LINE
  5
3CA
330
54F
100
AcDbEntity
  8
0
100
AcDbLine
 10
8.65
 20
0.2
 30
0.0
 11
8.9
 21
0.2
 31
0.0
  0
LINE
  5
3CB
330
54F
100
AcDbEntity
  8
0
100
AcDbLine
 10
9.05
 20
0.2
 30
0.0
 11
9.3
 21
0.2
 31
0.0
  0
LINE
  5
3CC
330
54F
100
AcDbEntity
  8
0
100
AcDbLine
 10
9.450000000000001
 20
0.2
 30
0.0
 11
9.700000000000001
 21
0.2
 31
0.0
  0
LINE
  5
3CD
330
54F
100
AcDbEntity
  8
0
100
AcDbLine
 10
9.850000000000001
 20
0.2
 30
0.0
 11
10.1
 21
0.2
 31
0.0
  0
LINE
  5
3CE
330
54F
100
AcDbEntity
  8
0
100
AcDbLine
 10
7.85
 20
0.615
 30
0.0
 11
8.1
 21
0.615
 31
0.0
  0
LINE
  5
3CF
330
54F
100
AcDbEntity
  8
0
100
AcDbLine
 10
8.25
 20
0.7
 30
0.0
 11
8.5
 21
0.7
 31
0.0
  0
LINE
  5
3D0
330
54F
100
AcDbEntity
  8
0
100
AcDbLine
 10
8.25
 20
0.8300000000000001
 30
0.0
 11
8.5
 21
0.8300000000000001
 31
0.0
  0
LINE
  5
3D1
330
54F
100
AcDbEntity
  8
0
100
AcDbLine
 10
8.65
 20
0.5
 30
0.0
 11
8.9
 21
0.5
 31
0.0
  0
LINE
  5
3D2
330
54F
100
AcDbEntity
  8
0
100
AcDbLine
 10
8.65
 20
0.665
 30
0.0
 11
8.9
 21
0.665
 31
0.0
  0
LINE
  5
3D3
330
54F
100
AcDbEntity
  8
0
100
AcDbLine
 10
7.85
 20
1.015
 30
0.0
 11
8.1
 21
1.015
 31
0.0
  0
LINE
  5
3D4
330
54F
100
AcDbEntity
  8
0
100
AcDbLine
 10
7.85
 20
1.365
 30
0.0
 11
8.1
 21
1.365
 31
0.0
  0
LINE
  5
3D5
330
54F
100
AcDbEntity
  8
0
100
AcDbLine
 10
8.65
 20
1.365
 30
0.0
 11
8.9
 21
1.365
 31
0.0
  0
LINE
  5
3D6
330
54F
100
AcDbEntity
  8
0
100
AcDbLine
 10
9.05
 20
0.625
 30
0.0
 11
9.3
 21
0.625
 31
0.0
  0
LINE
  5
3D7
330
54F
100
AcDbEntity
  8
0
100
AcDbLine
 10
9.05
 20
0.875
 30
0.0
 11
9.3
 21
0.875
 31
0.0
  0
MTEXT
  5
3D8
330
54F
100
AcDbEntity
  8
0
100
AcDbMText
 10
7.85
 20
-0.3
 30
0.0
 40
0.125
 41
0.0
 46
0.0
 71
     1
 72
     1
  1
enc
  7
textstyle0
 11
6.123233995736766E-17
 21
1.0
 31
0.0
 73
     1
 44
1.0
  0
MTEXT
  5
3D9
330
54F
100
AcDbEntity
  8
0
100
AcDbMText
 10
8.25
 20
-0.3
 30
0.0
 40
0.125
 41
0.0
 46
0.0
 71
     1
 72
     1
  1
cv
  7
textstyle1
 11
6.123233995736766E-17
 21
1.0
 31
0.0
 73
     1
 44
1.0
  0
MTEXT
  5
3DA
330
54F
100
AcDbEntity
  8
0
100
AcDbMText
 10
8.65
 20
-0.3
 30
0.0
 40
0.125
 41
0.0
 46
0.0
 71
     1
 72
     1
  1
pot
  7
textstyle2
 11
6.123233995736766E-17
 21
1.0
 31
0.0
 73
     1
 44
1.0
  0
MTEXT
  5
3DB
330
54F
100
AcDbEntity
  8
0
100
AcDbMText
 10
9.05
 20
-0.3
 30
0.0
 40
0.125
 41
0.0
 46
0.0
 71
     1
 72
     1
  1
key
  7
textstyle3
 11
6.123233995736766E-17
 21
1.0
 31
0.0
 73
     1
 44
1.0
  0
MTEXT
  5
3DC
330
54F
100
AcDbEntity
  8
0
100
AcDbMText
 10
9.45
 20
-0.3
 30
0.0
 40
0.125
 41
0.0
 46
0.0
 71
     1
 72
     1
  1
oled\P
  7
textstyle4
 11
6.123233995736766E-17
 21
1.0
 31
0.0
 73
     1
 44
1.0
  0
LINE
  5
3DD
330
54F
100
AcDbEntity
  8
0
100
AcDbLine
 10
9.450000000000001
 20
0.535
 30
0.0
 11
9.700000000000001
 21
0.535
 31
0.0
  0
LINE
  5
3DE
330
54F
100
AcDbEntity
  8
0
100
AcDbLine
 10
9.450000000000001
 20
0.75
 30
0.0
 11
9.700000000000001
 21
0.75
 31
0.0
  0
LINE
  5
3DF
330
54F
100
AcDbEntity
  8
0
100
AcDbLine
 10
9.450000000000001
 20
0.8125
 30
0.0
 11
9.700000000000001
 21
0.8125
 31
0.0
  0
LINE
  5
3E0
330
54F
100
AcDbEntity
  8
0
100
AcDbLine
 10
7.599999999999999
 20
0.6375
 30
0.0
 11
10.6
 21
0.6375
 31
0.0
  0
LINE
  5
3E2
330
54F
100
AcDbEntity
  8
0
100
AcDbLine
 10
10.6
 20
0.8274999999999999
 30
0.0
 11
7.599999999999999
 21
0.8274999999999999
 31
0.0
  0
LINE
  5
3E3
330
54F
100
AcDbEntity
  8
0
100
AcDbLine
 10
7.599999999999999
 20
0.8274999999999999
 30
0.0
 11
7.599999999999999
 21
0.6375
 31
0.0
  0
LINE
  5
3E5
330
54F
100
AcDbEntity
  8
guides
100
AcDbLine
 10
0.4
 20
0.5
 30
0.0
 11
3.4
 21
0.5
 31
0.0
  0
LINE
  5
3E6
330
54F
100
AcDbEntity
  8
guides
100
AcDbLine
 10
3.1
 20
0.4
 30
0.0
 11
3.1
 21
0.6000000000000001
 31
0.0
  0
LINE
  5
3E7
330
54F
100
AcDbEntity
  8
guides
100
AcDbLine
 10
2.3
 20
0.4
 30
0.0
 11
2.3
 21
0.6000000000000001
 31
0.0
  0
LINE
  5
3E8
330
54F
100
AcDbEntity
  8
guides
100
AcDbLine
 10
1.5
 20
0.4
 30
0.0
 11
1.5
 21
0.6000000000000001
 31
0.0
  0
LINE
  5
3E9
330
54F
100
AcDbEntity
  8
guides
100
AcDbLine
 10
0.7000000000000001
 20
0.4
 30
0.0
 11
0.7000000000000001
 21
0.6000000000000001
 31
0.0
  0
LINE
  5
40E
330
54F
100
AcDbEntity
  8
cut
100
AcDbLine
 10
3.019999999999999
 20
2.95
 30
0.0
 11
3.180000000000001
 21
2.95
 31
0.0
  0
LINE
  5
40F
330
54F
100
AcDbEntity
  8
cut
100
AcDbLine
 10
3.2
 20
2.93
 30
0.0
 11
3.2
 21
2.870000000000001
 31
0.0
  0
LINE
  5
410
330
54F
100
AcDbEntity
  8
cut
100
AcDbLine
 10
3.180000000000001
 20
2.85
 30
0.0
 11
3.019999999999999
 21
2.85
 31
0.0
  0
LINE
  5
411
330
54F
100
AcDbEntity
  8
cut
100
AcDbLine
 10
3.0
 20
2.87
 30
0.0
 11
3.0
 21
2.93
 31
0.0
  0
ARC
  5
412
330
54F
100
AcDbEntity
  8
cut
100
AcDbCircle
 10
3.019999999999999
 20
2.93
 30
0.0
 40
0.02
100
AcDbArc
 50
90.0
 51
180.0
  0
ARC
  5
413
330
54F
100
AcDbEntity
  8
cut
100
AcDbCircle
 10
3.180000000000001
 20
2.93
 30
0.0
 40
0.02
100
AcDbArc
 50
0.0
 51
90.0
  0
ARC
  5
414
330
54F
100
AcDbEntity
  8
cut
100
AcDbCircle
 10
3.180000000000001
 20
2.870000000000001
 30
0.0
 40
0.02
100
AcDbArc
 50
270.0
 51
0.0
  0
ARC
  5
415
330
54F
100
AcDbEntity
  8
cut
100
AcDbCircle
 10
3.019999999999999
 20
2.87
 30
0.0
 40
0.02
100
AcDbArc
 50
180.0
 51
270.0
  0
LINE
  5
416
330
54F
100
AcDbEntity
  8
cut
100
AcDbLine
 10
2.219999999999999
 20
2.95
 30
0.0
 11
2.380000000000001
 21
2.95
 31
0.0
  0
LINE
  5
417
330
54F
100
AcDbEntity
  8
cut
100
AcDbLine
 10
2.4
 20
2.93
 30
0.0
 11
2.4
 21
2.870000000000001
 31
0.0
  0
LINE
  5
418
330
54F
100
AcDbEntity
  8
cut
100
AcDbLine
 10
2.380000000000001
 20
2.85
 30
0.0
 11
2.219999999999999
 21
2.85
 31
0.0
  0
LINE
  5
419
330
54F
100
AcDbEntity
  8
cut
100
AcDbLine
 10
2.200000000000001
 20
2.87
 30
0.0
 11
2.200000000000001
 21
2.93
 31
0.0
  0
ARC
  5
41A
330
54F
100
AcDbEntity
  8
cut
100
AcDbCircle
 10
2.219999999999999
 20
2.93
 30
0.0
 40
0.02
100
AcDbArc
 50
90.0
 51
180.0
  0
ARC
  5
41B
330
54F
100
AcDbEntity
  8
cut
100
AcDbCircle
 10
2.380000000000001
 20
2.93
 30
0.0
 40
0.02
100
AcDbArc
 50
0.0
 51
90.0
  0
ARC
  5
41C
330
54F
100
AcDbEntity
  8
cut
100
AcDbCircle
 10
2.380000000000001
 20
2.870000000000001
 30
0.0
 40
0.02
100
AcDbArc
 50
270.0
 51
0.0
  0
ARC
  5
41D
330
54F
100
AcDbEntity
  8
cut
100
AcDbCircle
 10
2.219999999999999
 20
2.87
 30
0.0
 40
0.02
100
AcDbArc
 50
180.0
 51
270.0
  0
DIMENSION
  5
426
330
54F
100
AcDbEntity
  8
0
100
AcDbDimension
280
     0
  2
*D1
 10
7.399999999999999
 20
0.6375
 30
0.0
 11
7.228124999999999
 21
0.4187500000000001
 31
0.0
 70
    32
 71
     5
 42
0.4374999999999999
 73
     0
 74
     0
 75
     0
  3
QCADDimStyle
100
AcDbAlignedDimension
 13
7.6
 23
0.2
 33
0.0
 14
7.6
 24
0.6375
 34
0.0
 50
90.0
100
AcDbRotatedDimension
1001
ACAD
1000
DSTYLE
1002
{
1070
   279
1070
     2
1070
    41
1040
0.125
1070
    79
1070
     2
1070
   176
1070
     0
1070
   177
1070
     0
1070
   178
1070
     0
1070
    44
1040
0.0625
1070
    42
1040
0.03125
1070
   147
1040
0.03125
1070
   140
1040
0.125
1070
    78
1070
     8
1002
}
  0
LINE
  5
428
330
54F
100
AcDbEntity
  8
cut-under
100
AcDbLine
 10
0.375
 20
2.550000000000001
 30
0.0
 11
0.375
 21
0.8500000000000003
 31
0.0
  0
LINE
  5
429
330
54F
100
AcDbEntity
  8
cut-under
100
AcDbLine
 10
0.45
 20
0.7750000000000001
 30
0.0
 11
3.350000000000001
 21
0.7750000000000001
 31
0.0
  0
ARC
  5
42A
330
54F
100
AcDbEntity
  8
cut-under
100
AcDbCircle
 10
0.45
 20
0.8500000000000001
 30
0.0
 40
0.075
100
AcDbArc
 50
180.0
 51
270.0
  0
ARC
  5
42B
330
54F
100
AcDbEntity
  8
cut-under
100
AcDbCircle
 10
0.45
 20
2.550000000000001
 30
0.0
 40
0.075
100
AcDbArc
 50
90.00000000000038
 51
180.0
  0
LINE
  5
42C
330
54F
100
AcDbEntity
  8
cut-under
100
AcDbLine
 10
3.35
 20
2.625
 30
0.0
 11
0.4499999999999996
 21
2.625
 31
0.0
  0
ARC
  5
42D
330
54F
100
AcDbEntity
  8
cut-under
100
AcDbCircle
 10
3.35
 20
2.550000000000001
 30
0.0
 40
0.075
100
AcDbArc
 50
0.0
 51
90.0
  0
LINE
  5
42E
330
54F
100
AcDbEntity
  8
cut-under
100
AcDbLine
 10
3.425
 20
0.8500000000000001
 30
0.0
 11
3.425
 21
2.550000000000001
 31
0.0
  0
ARC
  5
42F
330
54F
100
AcDbEntity
  8
cut-under
100
AcDbCircle
 10
3.350000000000001
 20
0.8500000000000001
 30
0.0
 40
0.075
100
AcDbArc
 50
270.0
 51
0.0
  0
CIRCLE
  5
430
330
54F
100
AcDbEntity
  8
cut-under
100
AcDbCircle
 10
0.7000000000000001
 20
3.300000000000001
 30
0.0
 40
0.19
  0
CIRCLE
  5
431
330
54F
100
AcDbEntity
  8
cut-under
100
AcDbCircle
 10
1.5
 20
3.3
 30
0.0
 40
0.19
  0
CIRCLE
  5
432
330
54F
100
AcDbEntity
  8
cut-under
100
AcDbCircle
 10
2.3
 20
3.3
 30
0.0
 40
0.19
  0
CIRCLE
  5
433
330
54F
100
AcDbEntity
  8
cut-under
100
AcDbCircle
 10
3.1
 20
3.3
 30
0.0
 40
0.19
  0
LINE
  5
434
330
54F
100
AcDbEntity
  8
cut-under
100
AcDbLine
 10
3.75
 20
2.9
 30
0.0
 11
5.899999999999999
 21
2.9
 31
0.0
  0
LINE
  5
435
330
54F
100
AcDbEntity
  8
cut-under
100
AcDbLine
 10
6.0
 20
3.0
 30
0.0
 11
6.0
 21
4.200000000000001
 31
0.0
  0
LINE
  5
436
330
54F
100
AcDbEntity
  8
cut-under
100
AcDbLine
 10
5.9
 20
4.300000000000002
 30
0.0
 11
3.75
 21
4.300000000000002
 31
0.0
  0
LINE
  5
437
330
54F
100
AcDbEntity
  8
cut-under
100
AcDbLine
 10
3.65
 20
4.200000000000001
 30
0.0
 11
3.65
 21
3.000000000000001
 31
0.0
  0
ARC
  5
43A
330
54F
100
AcDbEntity
  8
cut-under
100
AcDbCircle
 10
3.75
 20
4.200000000000001
 30
0.0
 40
0.1
100
AcDbArc
 50
90.0
 51
180.0
  0
ARC
  5
43B
330
54F
100
AcDbEntity
  8
cut-under
100
AcDbCircle
 10
5.9
 20
4.200000000000001
 30
0.0
 40
0.1
100
AcDbArc
 50
0.0
 51
90.0
  0
ARC
  5
43C
330
54F
100
AcDbEntity
  8
cut-under
100
AcDbCircle
 10
5.899999999999999
 20
3.0
 30
0.0
 40
0.1
100
AcDbArc
 50
269.9999999999995
 51
0.0
  0
ARC
  5
43D
330
54F
100
AcDbEntity
  8
cut-under
100
AcDbCircle
 10
3.75
 20
3.000000000000001
 30
0.0
 40
0.1
100
AcDbArc
 50
180.0
 51
270.0
  0
CIRCLE
  5
496
330
54F
100
AcDbEntity
  8
cut-under
100
AcDbCircle
 10
2.3
 20
2.9
 30
0.0
 40
0.12
  0
CIRCLE
  5
497
330
54F
100
AcDbEntity
  8
cut-under
100
AcDbCircle
 10
3.1
 20
2.9
 30
0.0
 40
0.12
  0
CIRCLE
  5
498
330
54F
100
AcDbEntity
  8
cut-under
100
AcDbCircle
 10
6.3
 20
2.9
 30
0.0
 40
0.12
  0
CIRCLE
  5
499
330
54F
100
AcDbEntity
  8
cut-under
100
AcDbCircle
 10
1.5
 20
2.9
 30
0.0
 40
0.12
  0
LINE
  5
49A
330
54F
100
AcDbEntity
  8
cut
100
AcDbLine
 10
1.419999999999999
 20
2.95
 30
0.0
 11
1.580000000000001
 21
2.95
 31
0.0
  0
LINE
  5
49B
330
54F
100
AcDbEntity
  8
cut
100
AcDbLine
 10
1.6
 20
2.93
 30
0.0
 11
1.6
 21
2.870000000000001
 31
0.0
  0
LINE
  5
49C
330
54F
100
AcDbEntity
  8
cut
100
AcDbLine
 10
1.580000000000001
 20
2.85
 30
0.0
 11
1.419999999999999
 21
2.85
 31
0.0
  0
LINE
  5
49D
330
54F
100
AcDbEntity
  8
cut
100
AcDbLine
 10
1.4
 20
2.87
 30
0.0
 11
1.4
 21
2.93
 31
0.0
  0
ARC
  5
49E
330
54F
100
AcDbEntity
  8
cut
100
AcDbCircle
 10
1.419999999999999
 20
2.93
 30
0.0
 40
0.02
100
AcDbArc
 50
90.0
 51
180.0
  0
ARC
  5
49F
330
54F
100
AcDbEntity
  8
cut
100
AcDbCircle
 10
1.580000000000001
 20
2.93
 30
0.0
 40
0.02
100
AcDbArc
 50
0.0
 51
90.0
  0
ARC
  5
4A0
330
54F
100
AcDbEntity
  8
cut
100
AcDbCircle
 10
1.580000000000001
 20
2.870000000000001
 30
0.0
 40
0.02
100
AcDbArc
 50
270.0
 51
0.0
  0
ARC
  5
4A1
330
54F
100
AcDbEntity
  8
cut
100
AcDbCircle
 10
1.419999999999999
 20
2.87
 30
0.0
 40
0.02
100
AcDbArc
 50
180.0
 51
270.0
  0
LEADER
  5
4A6
330
54F
100
AcDbEntity
  8
0
100
AcDbLeader
  3
QCADDimStyle
 71
     0
 76
     1
 10
0.25
 20
1.45
 30
0.0
  0
LEADER
  5
4A7
330
54F
100
AcDbEntity
  8
0
100
AcDbLeader
  3
QCADDimStyle
 76
     3
 10
0.375
 20
1.700000000000001
 30
0.0
 10
-0.05
 20
1.85
 30
0.0
 10
-0.25
 20
1.85
 30
0.0
  0
MTEXT
  5
4A8
330
54F
100
AcDbEntity
  8
0
100
AcDbMText
 10
-0.8
 20
1.9
 30
0.0
 40
0.125
 41
0.0
 46
0.0
 71
     1
 72
     1
  1
0.015
  7
textstyle5
 73
     1
 44
1.0
  0
MTEXT
  5
4A9
330
54F
100
AcDbEntity
  8
0
100
AcDbMText
 10
-0.2233524239014745
 20
4.644886317261288
 30
0.0
 40
0.125
 41
0.0
 46
0.0
 71
     1
 72
     1
  1
0.115
  7
textstyle6
 73
     1
 44
1.0
  0
LEADER
  5
4AA
330
54F
100
AcDbEntity
  8
0
100
AcDbLeader
  3
QCADDimStyle
 76
     3
 10
0.7000000000000001
 20
3.490000000000001
 30
0.0
 10
0.6
 20
4.550000000000002
 30
0.0
 10
0.4
 20
4.550000000000002
 30
0.0
  0
LEADER
  5
4AB
330
54F
100
AcDbEntity
  8
0
100
AcDbLeader
  3
QCADDimStyle
 76
     3
 10
1.5
 20
3.5
 30
0.0
 10
1.4
 20
4.550000000000002
 30
0.0
 10
0.6
 20
4.550000000000002
 30
0.0
  0
LEADER
  5
4AC
330
54F
100
AcDbEntity
  8
0
100
AcDbLeader
  3
QCADDimStyle
 76
     3
 10
2.3
 20
3.5
 30
0.0
 10
2.15
 20
4.550000000000002
 30
0.0
 10
1.4
 20
4.550000000000002
 30
0.0
  0
LEADER
  5
4AD
330
54F
100
AcDbEntity
  8
0
100
AcDbLeader
  3
QCADDimStyle
 76
     3
 10
3.1
 20
3.5
 30
0.0
 10
2.95
 20
4.550000000000002
 30
0.0
 10
2.15
 20
4.550000000000002
 30
0.0
  0
LEADER
  5
4AF
330
54F
100
AcDbEntity
  8
0
100
AcDbLeader
  3
QCADDimStyle
 76
     3
 10
3.679289321881345
 20
4.270710678118657
 30
0.0
 10
3.5
 20
4.550000000000002
 30
0.0
 10
2.95
 20
4.55
 30
0.0
  0
LEADER
  5
4B0
330
54F
100
AcDbEntity
  8
0
100
AcDbLeader
  3
QCADDimStyle
 76
     4
 10
1.5
 20
2.78
 30
0.0
 10
1.173593343941407
 20
2.406110442684931
 30
0.0
 10
0.1
 20
2.4
 30
0.0
 10
-0.05
 20
1.85
 30
0.0
  0
LEADER
  5
4B1
330
54F
100
AcDbEntity
  8
0
100
AcDbLeader
  3
QCADDimStyle
 76
     3
 10
2.3
 20
2.78
 30
0.0
 10
2.0
 20
2.4
 30
0.0
 10
1.173593343941407
 20
2.406110442684931
 30
0.0
  0
LEADER
  5
4B2
330
54F
100
AcDbEntity
  8
0
100
AcDbLeader
  3
QCADDimStyle
 76
     3
 10
3.1
 20
2.78
 30
0.0
 10
2.75
 20
2.4
 30
0.0
 10
2.0
 20
2.4
 30
0.0
  0
LEADER
  5
4B3
330
54F
100
AcDbEntity
  8
0
100
AcDbLeader
  3
QCADDimStyle
 76
     3
 10
6.22239072805699
 20
2.808475135026181
 30
0.0
 10
5.8
 20
2.5
 30
0.0
 10
2.750000000000001
 20
2.4
 30
0.0
  0
MTEXT
  5
4B4
330
54F
100
AcDbEntity
  8
0
100
AcDbMText
 10
4.1
 20
0.2
 30
0.0
 40
0.125
 41
0.0
 46
0.0
 71
     1
 72
     1
  1
0.04
  7
textstyle7
 73
     1
 44
1.0
  0
LEADER
  5
4B5
330
54F
100
AcDbEntity
  8
0
100
AcDbLeader
  3
QCADDimStyle
 76
     3
 10
0.9853553390593275
 20
0.4146446609406727
 30
0.0
 10
1.2
 20
0.1
 30
0.0
 10
4.0
 20
0.1
 30
0.0
  0
LEADER
  5
4B6
330
54F
100
AcDbEntity
  8
0
100
AcDbLeader
  3
QCADDimStyle
 76
     2
 10
1.785355339059327
 20
0.4146446609406726
 30
0.0
 10
2.0
 20
0.1
 30
0.0
  0
LEADER
  5
4B7
330
54F
100
AcDbEntity
  8
0
100
AcDbLeader
  3
QCADDimStyle
 76
     2
 10
2.585355339059327
 20
0.4146446609406726
 30
0.0
 10
2.75
 20
0.1
 30
0.0
  0
LEADER
  5
4B8
330
54F
100
AcDbEntity
  8
0
100
AcDbLeader
  3
QCADDimStyle
 76
     2
 10
3.385355339059328
 20
0.4146446609406726
 30
0.0
 10
3.55
 20
0.1
 30
0.0
  0
LEADER
  5
4B9
330
54F
100
AcDbEntity
  8
0
100
AcDbLeader
  3
QCADDimStyle
 76
     4
 10
6.5
 20
3.1
 30
0.0
 10
6.8
 20
2.75
 30
0.0
 10
6.408360687482288
 20
0.0998629131080862
 30
0.0
 10
4.6
 20
0.1
 30
0.0
  0
LINE
  5
4C0
330
54F
100
AcDbEntity
  8
cut-under
100
AcDbLine
 10
0.9500000000000001
 20
4.550000000000001
 30
0.0
 11
0.9500000000000001
 21
3.650000000000001
 31
0.0
  0
LINE
  5
4C1
330
54F
100
AcDbEntity
  8
cut-under
100
AcDbLine
 10
1.05
 20
3.550000000000001
 30
0.0
 11
3.75
 21
3.55
 31
0.0
  0
LINE
  5
4C2
330
54F
100
AcDbEntity
  8
cut-under
100
AcDbLine
 10
3.85
 20
3.65
 30
0.0
 11
3.85
 21
4.550000000000001
 31
0.0
  0
LINE
  5
4C3
330
54F
100
AcDbEntity
  8
cut-under
100
AcDbLine
 10
1.05
 20
4.65
 30
0.0
 11
3.75
 21
4.65
 31
0.0
  0
MTEXT
  5
4C4
330
54F
100
AcDbEntity
  8
0
100
AcDbMText
 10
1.456609952210367
 20
5.494841663543026
 30
0.0
 40
0.125
 41
0.0
 46
0.0
 71
     1
 72
     1
  1
0.05
  7
textstyle8
 73
     1
 44
1.0
  0
ARC
  5
4C5
330
54F
100
AcDbEntity
  8
cut-under
100
AcDbCircle
 10
1.05
 20
3.650000000000001
 30
0.0
 40
0.1
100
AcDbArc
 50
180.0
 51
270.0
  0
ARC
  5
4C6
330
54F
100
AcDbEntity
  8
cut-under
100
AcDbCircle
 10
3.75
 20
3.65
 30
0.0
 40
0.0999999999999999
100
AcDbArc
 50
270.0
 51
0.0
  0
LEADER
  5
4C8
330
54F
100
AcDbEntity
  8
0
100
AcDbLeader
  3
QCADDimStyle
 76
     3
 10
2.376216674267073
 20
4.7
 30
0.0
 10
2.192295329855732
 20
5.398882701241457
 30
0.0
 10
1.928408183526416
 20
5.390886121049659
 30
0.0
  0
CIRCLE
  5
4C9
330
54F
100
AcDbEntity
  8
cut
100
AcDbCircle
 10
6.3
 20
3.3
 30
0.0
 40
0.125
  0
CIRCLE
  5
4CA
330
54F
100
AcDbEntity
  8
cut
100
AcDbCircle
 10
4.199999999999999
 20
3.900000000000001
 30
0.0
 40
0.165
  0
CIRCLE
  5
4CB
330
54F
100
AcDbEntity
  8
cut
100
AcDbCircle
 10
4.699999999999999
 20
3.900000000000001
 30
0.0
 40
0.165
  0
CIRCLE
  5
4CC
330
54F
100
AcDbEntity
  8
cut
100
AcDbCircle
 10
5.199999999999999
 20
3.900000000000001
 30
0.0
 40
0.165
  0
CIRCLE
  5
4CD
330
54F
100
AcDbEntity
  8
cut
100
AcDbCircle
 10
5.699999999999999
 20
3.900000000000001
 30
0.0
 40
0.165
  0
CIRCLE
  5
4CE
330
54F
100
AcDbEntity
  8
cut
100
AcDbCircle
 10
5.449999999999999
 20
3.3
 30
0.0
 40
0.165
  0
CIRCLE
  5
4CF
330
54F
100
AcDbEntity
  8
cut
100
AcDbCircle
 10
4.949999999999999
 20
3.3
 30
0.0
 40
0.165
  0
CIRCLE
  5
4D0
330
54F
100
AcDbEntity
  8
cut
100
AcDbCircle
 10
4.449999999999999
 20
3.3
 30
0.0
 40
0.165
  0
CIRCLE
  5
4D1
330
54F
100
AcDbEntity
  8
cut
100
AcDbCircle
 10
3.95
 20
3.3
 30
0.0
 40
0.165
  0
CIRCLE
  5
4D2
330
54F
100
AcDbEntity
  8
cut
100
AcDbCircle
 10
4.060769515458676
 20
2.100000000000001
 30
0.0
 40
0.2
  0
CIRCLE
  5
4D3
330
54F
100
AcDbEntity
  8
cut
100
AcDbCircle
 10
5.44641016151378
 20
2.100000000000002
 30
0.0
 40
0.2
  0
CIRCLE
  5
4D4
330
54F
100
AcDbEntity
  8
cut
100
AcDbCircle
 10
6.139230484541331
 20
0.8999999999999999
 30
0.0
 40
0.2
  0
CIRCLE
  5
4D5
330
54F
100
AcDbEntity
  8
cut
100
AcDbCircle
 10
4.753589838486226
 20
0.9000000000000004
 30
0.0
 40
0.2
  0
CIRCLE
  5
4D6
330
54F
100
AcDbEntity
  8
cut-under
100
AcDbCircle
 10
3.1
 20
0.5
 30
0.0
 40
0.125
  0
CIRCLE
  5
4D7
330
54F
100
AcDbEntity
  8
cut-under
100
AcDbCircle
 10
2.3
 20
0.5
 30
0.0
 40
0.125
  0
CIRCLE
  5
4D8
330
54F
100
AcDbEntity
  8
cut-under
100
AcDbCircle
 10
1.5
 20
0.5
 30
0.0
 40
0.125
  0
CIRCLE
  5
4D9
330
54F
100
AcDbEntity
  8
cut-under
100
AcDbCircle
 10
0.7000000000000001
 20
0.5
 30
0.0
 40
0.125
  0
ARC
  5
4DA
330
54F
100
AcDbEntity
  8
cut-under
100
AcDbCircle
 10
3.75
 20
4.550000000000001
 30
0.0
 40
0.1
100
AcDbArc
 50
0.0
 51
90.0
  0
ARC
  5
4DB
330
54F
100
AcDbEntity
  8
cut-under
100
AcDbCircle
 10
1.05
 20
4.550000000000001
 30
0.0
 40
0.1
100
AcDbArc
 50
90.0
 51
180.0
  0
LINE
  5
4DD
330
54F
100
AcDbEntity
  8
shim
100
AcDbLine
 10
4.124999999999998
 20
3.675000000000001
 30
0.0
 11
4.274999999999999
 21
3.675000000000001
 31
0.0
  0
LINE
  5
4DE
330
54F
100
AcDbEntity
  8
shim
100
AcDbLine
 10
4.324999999999999
 20
3.725000000000001
 30
0.0
 11
4.324999999999999
 21
4.075000000000001
 31
0.0
  0
LINE
  5
4DF
330
54F
100
AcDbEntity
  8
shim
100
AcDbLine
 10
4.274999999999999
 20
4.125000000000001
 30
0.0
 11
4.124999999999999
 21
4.125000000000001
 31
0.0
  0
LINE
  5
4E0
330
54F
100
AcDbEntity
  8
shim
100
AcDbLine
 10
4.074999999999999
 20
4.075000000000001
 30
0.0
 11
4.074999999999999
 21
3.725000000000001
 31
0.0
  0
ARC
  5
4E1
330
54F
100
AcDbEntity
  8
shim
100
AcDbCircle
 10
4.124999999999999
 20
4.075000000000001
 30
0.0
 40
0.05
100
AcDbArc
 50
90.0
 51
180.0
  0
ARC
  5
4E2
330
54F
100
AcDbEntity
  8
shim
100
AcDbCircle
 10
4.274999999999999
 20
4.075000000000001
 30
0.0
 40
0.05
100
AcDbArc
 50
0.0
 51
90.0
  0
ARC
  5
4E3
330
54F
100
AcDbEntity
  8
shim
100
AcDbCircle
 10
4.274999999999999
 20
3.725000000000001
 30
0.0
 40
0.05
100
AcDbArc
 50
270.0
 51
0.0
  0
ARC
  5
4E4
330
54F
100
AcDbEntity
  8
shim
100
AcDbCircle
 10
4.124999999999998
 20
3.725000000000001
 30
0.0
 40
0.05
100
AcDbArc
 50
180.0
 51
270.0
  0
LINE
  5
4E5
330
54F
100
AcDbEntity
  8
shim
100
AcDbLine
 10
4.624999999999998
 20
3.675000000000002
 30
0.0
 11
4.774999999999999
 21
3.675000000000002
 31
0.0
  0
LINE
  5
4E6
330
54F
100
AcDbEntity
  8
shim
100
AcDbLine
 10
4.824999999999999
 20
3.725000000000001
 30
0.0
 11
4.824999999999999
 21
4.075000000000001
 31
0.0
  0
LINE
  5
4E7
330
54F
100
AcDbEntity
  8
shim
100
AcDbLine
 10
4.774999999999999
 20
4.125000000000002
 30
0.0
 11
4.624999999999999
 21
4.125000000000002
 31
0.0
  0
LINE
  5
4E8
330
54F
100
AcDbEntity
  8
shim
100
AcDbLine
 10
4.574999999999999
 20
4.075000000000001
 30
0.0
 11
4.574999999999999
 21
3.725000000000001
 31
0.0
  0
ARC
  5
4E9
330
54F
100
AcDbEntity
  8
shim
100
AcDbCircle
 10
4.624999999999999
 20
4.075000000000001
 30
0.0
 40
0.05
100
AcDbArc
 50
90.0
 51
180.0
  0
ARC
  5
4EA
330
54F
100
AcDbEntity
  8
shim
100
AcDbCircle
 10
4.774999999999999
 20
4.075000000000001
 30
0.0
 40
0.05
100
AcDbArc
 50
0.0
 51
90.0
  0
ARC
  5
4EB
330
54F
100
AcDbEntity
  8
shim
100
AcDbCircle
 10
4.774999999999999
 20
3.725000000000001
 30
0.0
 40
0.05
100
AcDbArc
 50
270.0
 51
0.0
  0
ARC
  5
4EC
330
54F
100
AcDbEntity
  8
shim
100
AcDbCircle
 10
4.624999999999998
 20
3.725000000000001
 30
0.0
 40
0.05
100
AcDbArc
 50
180.0
 51
270.0
  0
LINE
  5
4ED
330
54F
100
AcDbEntity
  8
shim
100
AcDbLine
 10
5.124999999999998
 20
3.675000000000002
 30
0.0
 11
5.274999999999999
 21
3.675000000000002
 31
0.0
  0
LINE
  5
4EE
330
54F
100
AcDbEntity
  8
shim
100
AcDbLine
 10
5.324999999999999
 20
3.725000000000001
 30
0.0
 11
5.324999999999999
 21
4.075000000000001
 31
0.0
  0
LINE
  5
4EF
330
54F
100
AcDbEntity
  8
shim
100
AcDbLine
 10
5.274999999999999
 20
4.125000000000002
 30
0.0
 11
5.124999999999999
 21
4.125000000000002
 31
0.0
  0
LINE
  5
4F0
330
54F
100
AcDbEntity
  8
shim
100
AcDbLine
 10
5.074999999999999
 20
4.075000000000001
 30
0.0
 11
5.074999999999999
 21
3.725000000000001
 31
0.0
  0
ARC
  5
4F1
330
54F
100
AcDbEntity
  8
shim
100
AcDbCircle
 10
5.124999999999999
 20
4.075000000000001
 30
0.0
 40
0.05
100
AcDbArc
 50
90.0
 51
180.0
  0
ARC
  5
4F2
330
54F
100
AcDbEntity
  8
shim
100
AcDbCircle
 10
5.274999999999999
 20
4.075000000000001
 30
0.0
 40
0.05
100
AcDbArc
 50
0.0
 51
90.0
  0
ARC
  5
4F3
330
54F
100
AcDbEntity
  8
shim
100
AcDbCircle
 10
5.274999999999999
 20
3.725000000000001
 30
0.0
 40
0.05
100
AcDbArc
 50
270.0
 51
0.0
  0
ARC
  5
4F4
330
54F
100
AcDbEntity
  8
shim
100
AcDbCircle
 10
5.124999999999998
 20
3.725000000000001
 30
0.0
 40
0.05
100
AcDbArc
 50
180.0
 51
270.0
  0
LINE
  5
4F5
330
54F
100
AcDbEntity
  8
shim
100
AcDbLine
 10
5.624999999999998
 20
3.675000000000002
 30
0.0
 11
5.774999999999999
 21
3.675000000000002
 31
0.0
  0
LINE
  5
4F6
330
54F
100
AcDbEntity
  8
shim
100
AcDbLine
 10
5.824999999999999
 20
3.725000000000001
 30
0.0
 11
5.824999999999999
 21
4.075000000000001
 31
0.0
  0
LINE
  5
4F7
330
54F
100
AcDbEntity
  8
shim
100
AcDbLine
 10
5.774999999999999
 20
4.125000000000002
 30
0.0
 11
5.624999999999999
 21
4.125000000000002
 31
0.0
  0
LINE
  5
4F8
330
54F
100
AcDbEntity
  8
shim
100
AcDbLine
 10
5.574999999999999
 20
4.075000000000001
 30
0.0
 11
5.574999999999999
 21
3.725000000000001
 31
0.0
  0
ARC
  5
4F9
330
54F
100
AcDbEntity
  8
shim
100
AcDbCircle
 10
5.624999999999999
 20
4.075000000000001
 30
0.0
 40
0.05
100
AcDbArc
 50
90.0
 51
180.0
  0
ARC
  5
4FA
330
54F
100
AcDbEntity
  8
shim
100
AcDbCircle
 10
5.774999999999999
 20
4.075000000000001
 30
0.0
 40
0.05
100
AcDbArc
 50
0.0
 51
90.0
  0
ARC
  5
4FB
330
54F
100
AcDbEntity
  8
shim
100
AcDbCircle
 10
5.774999999999999
 20
3.725000000000001
 30
0.0
 40
0.05
100
AcDbArc
 50
270.0
 51
0.0
  0
ARC
  5
4FC
330
54F
100
AcDbEntity
  8
shim
100
AcDbCircle
 10
5.624999999999998
 20
3.725000000000001
 30
0.0
 40
0.05
100
AcDbArc
 50
180.0
 51
270.0
  0
LINE
  5
4FD
330
54F
100
AcDbEntity
  8
shim
100
AcDbLine
 10
5.374999999999998
 20
3.075000000000001
 30
0.0
 11
5.524999999999999
 21
3.075000000000001
 31
0.0
  0
LINE
  5
4FE
330
54F
100
AcDbEntity
  8
shim
100
AcDbLine
 10
5.574999999999999
 20
3.125
 30
0.0
 11
5.574999999999999
 21
3.475000000000001
 31
0.0
  0
LINE
  5
4FF
330
54F
100
AcDbEntity
  8
shim
100
AcDbLine
 10
5.524999999999999
 20
3.525
 30
0.0
 11
5.374999999999999
 21
3.525
 31
0.0
  0
LINE
  5
500
330
54F
100
AcDbEntity
  8
shim
100
AcDbLine
 10
5.324999999999999
 20
3.475000000000001
 30
0.0
 11
5.324999999999999
 21
3.125
 31
0.0
  0
ARC
  5
501
330
54F
100
AcDbEntity
  8
shim
100
AcDbCircle
 10
5.374999999999999
 20
3.475000000000001
 30
0.0
 40
0.05
100
AcDbArc
 50
90.0
 51
180.0
  0
ARC
  5
502
330
54F
100
AcDbEntity
  8
shim
100
AcDbCircle
 10
5.524999999999999
 20
3.475000000000001
 30
0.0
 40
0.05
100
AcDbArc
 50
0.0
 51
90.0
  0
ARC
  5
503
330
54F
100
AcDbEntity
  8
shim
100
AcDbCircle
 10
5.524999999999999
 20
3.125
 30
0.0
 40
0.05
100
AcDbArc
 50
270.0
 51
0.0
  0
ARC
  5
504
330
54F
100
AcDbEntity
  8
shim
100
AcDbCircle
 10
5.374999999999998
 20
3.125
 30
0.0
 40
0.05
100
AcDbArc
 50
180.0
 51
270.0
  0
LINE
  5
505
330
54F
100
AcDbEntity
  8
shim
100
AcDbLine
 10
4.874999999999998
 20
3.075000000000001
 30
0.0
 11
5.024999999999999
 21
3.075000000000001
 31
0.0
  0
LINE
  5
506
330
54F
100
AcDbEntity
  8
shim
100
AcDbLine
 10
5.074999999999999
 20
3.125
 30
0.0
 11
5.074999999999999
 21
3.475000000000001
 31
0.0
  0
LINE
  5
507
330
54F
100
AcDbEntity
  8
shim
100
AcDbLine
 10
5.024999999999999
 20
3.525
 30
0.0
 11
4.874999999999999
 21
3.525
 31
0.0
  0
LINE
  5
508
330
54F
100
AcDbEntity
  8
shim
100
AcDbLine
 10
4.824999999999999
 20
3.475000000000001
 30
0.0
 11
4.824999999999999
 21
3.125
 31
0.0
  0
ARC
  5
509
330
54F
100
AcDbEntity
  8
shim
100
AcDbCircle
 10
4.874999999999999
 20
3.475000000000001
 30
0.0
 40
0.05
100
AcDbArc
 50
90.0
 51
180.0
  0
ARC
  5
50A
330
54F
100
AcDbEntity
  8
shim
100
AcDbCircle
 10
5.024999999999999
 20
3.475000000000001
 30
0.0
 40
0.05
100
AcDbArc
 50
0.0
 51
90.0
  0
ARC
  5
50B
330
54F
100
AcDbEntity
  8
shim
100
AcDbCircle
 10
5.024999999999999
 20
3.125
 30
0.0
 40
0.05
100
AcDbArc
 50
270.0
 51
0.0
  0
ARC
  5
50C
330
54F
100
AcDbEntity
  8
shim
100
AcDbCircle
 10
4.874999999999998
 20
3.125
 30
0.0
 40
0.05
100
AcDbArc
 50
180.0
 51
270.0
  0
LINE
  5
50D
330
54F
100
AcDbEntity
  8
shim
100
AcDbLine
 10
4.374999999999998
 20
3.075000000000001
 30
0.0
 11
4.524999999999999
 21
3.075000000000001
 31
0.0
  0
LINE
  5
50E
330
54F
100
AcDbEntity
  8
shim
100
AcDbLine
 10
4.574999999999999
 20
3.125
 30
0.0
 11
4.574999999999999
 21
3.475000000000001
 31
0.0
  0
LINE
  5
50F
330
54F
100
AcDbEntity
  8
shim
100
AcDbLine
 10
4.524999999999999
 20
3.525
 30
0.0
 11
4.374999999999999
 21
3.525
 31
0.0
  0
LINE
  5
510
330
54F
100
AcDbEntity
  8
shim
100
AcDbLine
 10
4.324999999999999
 20
3.475000000000001
 30
0.0
 11
4.324999999999999
 21
3.125
 31
0.0
  0
ARC
  5
511
330
54F
100
AcDbEntity
  8
shim
100
AcDbCircle
 10
4.374999999999999
 20
3.475000000000001
 30
0.0
 40
0.05
100
AcDbArc
 50
90.0
 51
180.0
  0
ARC
  5
512
330
54F
100
AcDbEntity
  8
shim
100
AcDbCircle
 10
4.524999999999999
 20
3.475000000000001
 30
0.0
 40
0.05
100
AcDbArc
 50
0.0
 51
90.0
  0
ARC
  5
513
330
54F
100
AcDbEntity
  8
shim
100
AcDbCircle
 10
4.524999999999999
 20
3.125
 30
0.0
 40
0.05
100
AcDbArc
 50
270.0
 51
0.0
  0
ARC
  5
514
330
54F
100
AcDbEntity
  8
shim
100
AcDbCircle
 10
4.374999999999998
 20
3.125
 30
0.0
 40
0.05
100
AcDbArc
 50
180.0
 51
270.0
  0
LINE
  5
515
330
54F
100
AcDbEntity
  8
shim
100
AcDbLine
 10
3.874999999999999
 20
3.075000000000001
 30
0.0
 11
4.025
 21
3.075000000000001
 31
0.0
  0
LINE
  5
516
330
54F
100
AcDbEntity
  8
shim
100
AcDbLine
 10
4.075
 20
3.125
 30
0.0
 11
4.075
 21
3.475000000000001
 31
0.0
  0
LINE
  5
517
330
54F
100
AcDbEntity
  8
shim
100
AcDbLine
 10
4.025
 20
3.525
 30
0.0
 11
3.875
 21
3.525
 31
0.0
  0
LINE
  5
518
330
54F
100
AcDbEntity
  8
shim
100
AcDbLine
 10
3.825
 20
3.475000000000001
 30
0.0
 11
3.825
 21
3.125
 31
0.0
  0
ARC
  5
519
330
54F
100
AcDbEntity
  8
shim
100
AcDbCircle
 10
3.875
 20
3.475000000000001
 30
0.0
 40
0.05
100
AcDbArc
 50
90.0
 51
180.0
  0
ARC
  5
51A
330
54F
100
AcDbEntity
  8
shim
100
AcDbCircle
 10
4.025
 20
3.475000000000001
 30
0.0
 40
0.05
100
AcDbArc
 50
0.0
 51
90.0
  0
ARC
  5
51B
330
54F
100
AcDbEntity
  8
shim
100
AcDbCircle
 10
4.025
 20
3.125
 30
0.0
 40
0.05
100
AcDbArc
 50
270.0
 51
0.0
  0
ARC
  5
51C
330
54F
100
AcDbEntity
  8
shim
100
AcDbCircle
 10
3.874999999999999
 20
3.125
 30
0.0
 40
0.05
100
AcDbArc
 50
180.0
 51
270.0
  0
LINE
  5
51D
330
54F
100
AcDbEntity
  8
shim
100
AcDbLine
 10
3.75
 20
3.0
 30
0.0
 11
5.9
 21
3.0
 31
0.0
  0
LINE
  5
51E
330
54F
100
AcDbEntity
  8
shim
100
AcDbLine
 10
5.9
 20
3.0
 30
0.0
 11
5.9
 21
4.2
 31
0.0
  0
LINE
  5
51F
330
54F
100
AcDbEntity
  8
shim
100
AcDbLine
 10
5.9
 20
4.2
 30
0.0
 11
3.75
 21
4.2
 31
0.0
  0
LINE
  5
520
330
54F
100
AcDbEntity
  8
shim
100
AcDbLine
 10
3.75
 20
4.2
 30
0.0
 11
3.75
 21
3.0
 31
0.0
  0
LINE
  5
521
330
54F
100
AcDbEntity
  8
cut-under
100
AcDbLine
 10
0.3125
 20
2.550000000000001
 30
0.0
 11
0.3125
 21
0.8500000000000003
 31
0.0
  0
ARC
  5
522
330
54F
100
AcDbEntity
  8
cut-under
100
AcDbCircle
 10
0.45
 20
2.550000000000001
 30
0.0
 40
0.1375
100
AcDbArc
 50
90.00000000000038
 51
180.0
  0
LINE
  5
523
330
54F
100
AcDbEntity
  8
cut-under
100
AcDbLine
 10
3.35
 20
2.6875
 30
0.0
 11
0.4499999999999996
 21
2.6875
 31
0.0
  0
ARC
  5
524
330
54F
100
AcDbEntity
  8
cut-under
100
AcDbCircle
 10
3.35
 20
2.550000000000001
 30
0.0
 40
0.1375
100
AcDbArc
 50
0.0
 51
90.0
  0
LINE
  5
525
330
54F
100
AcDbEntity
  8
cut-under
100
AcDbLine
 10
3.4875
 20
0.8500000000000001
 30
0.0
 11
3.4875
 21
2.550000000000001
 31
0.0
  0
ARC
  5
526
330
54F
100
AcDbEntity
  8
cut-under
100
AcDbCircle
 10
3.350000000000001
 20
0.8500000000000001
 30
0.0
 40
0.1375
100
AcDbArc
 50
270.0
 51
0.0
  0
LINE
  5
527
330
54F
100
AcDbEntity
  8
cut-under
100
AcDbLine
 10
0.45
 20
0.7125000000000001
 30
0.0
 11
3.350000000000001
 21
0.7125000000000001
 31
0.0
  0
ARC
  5
528
330
54F
100
AcDbEntity
  8
cut-under
100
AcDbCircle
 10
0.45
 20
0.8500000000000001
 30
0.0
 40
0.1375
100
AcDbArc
 50
180.0
 51
270.0
  0
LINE
  5
529
330
54F
100
AcDbEntity
  8
screen
100
AcDbLine
 10
0.6000000000000001
 20
2.375
 30
0.0
 11
0.6000000000000001
 21
1.025
 31
0.0
  0
LINE
  5
52A
330
54F
100
AcDbEntity
  8
screen
100
AcDbLine
 10
3.175
 20
2.4
 30
0.0
 11
0.6250000000000004
 21
2.4
 31
0.0
  0
LINE
  5
52B
330
54F
100
AcDbEntity
  8
screen
100
AcDbLine
 10
3.2
 20
1.025
 30
0.0
 11
3.2
 21
2.375
 31
0.0
  0
LINE
  5
52C
330
54F
100
AcDbEntity
  8
screen
100
AcDbLine
 10
0.6250000000000001
 20
1.0
 30
0.0
 11
3.175
 21
1.0
 31
0.0
  0
ARC
  5
52D
330
54F
100
AcDbEntity
  8
screen
100
AcDbCircle
 10
0.625
 20
2.375
 30
0.0
 40
0.025
100
AcDbArc
 50
89.99999999999898
 51
180.0
  0
ARC
  5
52E
330
54F
100
AcDbEntity
  8
screen
100
AcDbCircle
 10
3.175
 20
2.375
 30
0.0
 40
0.025
100
AcDbArc
 50
0.0
 51
90.0
  0
ARC
  5
52F
330
54F
100
AcDbEntity
  8
screen
100
AcDbCircle
 10
3.175
 20
1.025
 30
0.0
 40
0.025
100
AcDbArc
 50
269.999999999999
 51
0.0
  0
ARC
  5
530
330
54F
100
AcDbEntity
  8
screen
100
AcDbCircle
 10
0.6250000000000001
 20
1.025
 30
0.0
 40
0.025
100
AcDbArc
 50
180.0
 51
270.0
  0
ENDSEC
  0
SECTION
  2
OBJECTS
  0
DICTIONARY
  5
53D
330
0
100
AcDbDictionary
281
     1
  3
ACAD_GROUP
350
53E
  3
ACAD_LAYOUT
350
54A
  3
ACAD_MATERIAL
350
56B
  3
ACAD_MLEADERSTYLE
350
5C5
  3
ACAD_MLINESTYLE
350
547
  3
ACAD_PLOTSETTINGS
350
549
  3
ACAD_PLOTSTYLENAME
350
53F
  3
ACAD_TABLESTYLE
350
5C4
  3
ACAD_VISUALSTYLE
350
55A
  3
QCAD_OBJECTS
350
570
  0
DICTIONARY
  5
53E
102
{ACAD_REACTORS
330
53D
102
}
330
53D
100
AcDbDictionary
281
     1
  0
DICTIONARY
  5
54A
102
{ACAD_REACTORS
330
53D
102
}
330
53D
100
AcDbDictionary
281
     1
  3
Layout1
350
54E
  3
Layout2
350
556
  3
Model
350
552
  0
DICTIONARY
  5
56B
102
{ACAD_REACTORS
330
53D
102
}
330
53D
100
AcDbDictionary
281
     1
  3
ByBlock
350
56D
  3
ByLayer
350
56C
  3
Global
350
56E
  0
DICTIONARY
  5
5C5
102
{ACAD_REACTORS
330
53D
102
}
330
53D
100
AcDbDictionary
281
     1
  0
DICTIONARY
  5
547
102
{ACAD_REACTORS
330
53D
102
}
330
53D
100
AcDbDictionary
281
     1
  3
Standard
350
548
  0
DICTIONARY
  5
549
102
{ACAD_REACTORS
330
53D
102
}
330
53D
100
AcDbDictionary
281
     1
  0
ACDBDICTIONARYWDFLT
  5
53F
102
{ACAD_REACTORS
330
53D
102
}
330
53D
100
AcDbDictionary
281
     1
  3
Normal
350
540
100
AcDbDictionaryWithDefault
340
540
  0
DICTIONARY
  5
5C4
102
{ACAD_REACTORS
330
53D
102
}
330
53D
100
AcDbDictionary
281
     1
  0
DICTIONARY
  5
55A
102
{ACAD_REACTORS
330
53D
102
}
330
53D
100
AcDbDictionary
281
     1
  3
2dWireframe
350
55F
  3
3D Hidden
350
561
  3
3dWireframe
350
560
  3
Basic
350
562
  3
Brighten
350
566
  3
ColorChange
350
56A
  3
Conceptual
350
564
  3
Dim
350
565
  3
Facepattern
350
569
  3
Flat
350
55B
  3
FlatWithEdges
350
55C
  3
Gouraud
350
55D
  3
GouraudWithEdges
350
55E
  3
Linepattern
350
568
  3
Realistic
350
563
  3
Thicken
350
567
  0
DICTIONARY
  5
570
102
{ACAD_REACTORS
330
53D
102
}
330
53D
100
AcDbDictionary
281
     1
  3
ColorSettings/BackgroundColor
350
588
  3
ColorSettings/ColorMode
350
581
  3
DimensionSettings/AngularFormat
350
57C
  3
DimensionSettings/AngularPrecision
350
57B
  3
DimensionSettings/KeepProportions
350
57E
  3
DimensionSettings/LinearFormat
350
58D
  3
DimensionSettings/LinearPrecision
350
589
  3
Grid/DisplayGrid
350
58A
  3
Grid/GridSpacingX
350
57D
  3
Grid/GridSpacingY
350
580
  3
Grid/MetaGridSpacingX
350
574
  3
Grid/MetaGridSpacingY
350
578
  3
MultiPageSettings/Columns
350
579
  3
MultiPageSettings/GlueMarginBottom
350
575
  3
MultiPageSettings/GlueMarginsLeft
350
583
  3
MultiPageSettings/GlueMarginsRight
350
571
  3
MultiPageSettings/GlueMarginsTop
350
58F
  3
MultiPageSettings/PrintCropMarks
350
573
  3
MultiPageSettings/Rows
350
585
  3
PageSettings/OffsetX
350
58C
  3
PageSettings/OffsetY
350
58E
  3
PageSettings/PageOrientation
350
572
  3
PageSettings/PaperHeight
350
577
  3
PageSettings/PaperSizeName
350
57A
  3
PageSettings/PaperWidth
350
586
  3
PageSettings/Scale
350
576
  3
PageSettings/ShowBoundingBox
350
57F
  3
PageSettings/ShowPageBorders
350
58B
  3
Template/Description
350
584
  3
Template/Title
350
582
  3
UnitSettings/PaperUnit
350
587
  0
LAYOUT
  5
54E
102
{ACAD_REACTORS
330
54A
102
}
330
54A
100
AcDbPlotSettings
  1

  2
none_device
  4

  6

 40
0.0
 41
0.0
 42
0.0
 43
0.0
 44
0.0
 45
0.0
 46
0.0
 47
0.0
 48
0.0
 49
0.0
140
0.0
141
0.0
142
1.0
143
1.0
 70
   688
 72
     0
 73
     0
 74
     5
  7

 75
    16
 76
     0
 77
     2
 78
   300
147
1.0
148
0.0
149
0.0
100
AcDbLayout
  1
Layout1
 70
     1
 71
     1
 10
0.0
 20
0.0
 11
12.0
 21
9.0
 12
0.0
 22
0.0
 32
0.0
 14
1.000000000000000E+20
 24
1.000000000000000E+20
 34
1.000000000000000E+20
 15
-1.000000000000000E+20
 25
-1.000000000000000E+20
 35
-1.000000000000000E+20
146
0.0
 13
0.0
 23
0.0
 33
0.0
 16
1.0
 26
0.0
 36
0.0
 17
0.0
 27
1.0
 37
0.0
 76
     0
330
54B
  0
LAYOUT
  5
556
102
{ACAD_REACTORS
330
54A
102
}
330
54A
100
AcDbPlotSettings
  1

  2
none_device
  4

  6

 40
0.0
 41
0.0
 42
0.0
 43
0.0
 44
0.0
 45
0.0
 46
0.0
 47
0.0
 48
0.0
 49
0.0
140
0.0
141
0.0
142
1.0
143
1.0
 70
   688
 72
     0
 73
     0
 74
     5
  7

 75
    16
 76
     0
 77
     2
 78
   300
147
1.0
148
0.0
149
0.0
100
AcDbLayout
  1
Layout2
 70
     1
 71
     2
 10
0.0
 20
0.0
 11
0.0
 21
0.0
 12
0.0
 22
0.0
 32
0.0
 14
0.0
 24
0.0
 34
0.0
 15
0.0
 25
0.0
 35
0.0
146
0.0
 13
0.0
 23
0.0
 33
0.0
 16
1.0
 26
0.0
 36
0.0
 17
0.0
 27
1.0
 37
0.0
 76
     0
330
553
  0
LAYOUT
  5
552
102
{ACAD_REACTORS
330
54A
102
}
330
54A
100
AcDbPlotSettings
  1

  2
none_device
  4

  6

 40
0.0
 41
0.0
 42
0.0
 43
0.0
 44
0.0
 45
0.0
 46
0.0
 47
0.0
 48
0.0
 49
0.0
140
0.0
141
0.0
142
1.0
143
1.0
 70
  1712
 72
     0
 73
     0
 74
     0
  7

 75
     0
 76
     0
 77
     2
 78
   300
147
1.0
148
0.0
149
0.0
100
AcDbLayout
  1
Model
 70
     1
 71
     0
 10
0.0
 20
0.0
 11
12.0
 21
9.0
 12
0.0
 22
0.0
 32
0.0
 14
1.000000000000000E+20
 24
1.000000000000000E+20
 34
1.000000000000000E+20
 15
-1.000000000000000E+20
 25
-1.000000000000000E+20
 35
-1.000000000000000E+20
146
0.0
 13
0.0
 23
0.0
 33
0.0
 16
1.0
 26
0.0
 36
0.0
 17
0.0
 27
1.0
 37
0.0
 76
     0
330
54F
331
559
  0
MATERIAL
  5
56D
102
{ACAD_REACTORS
330
56B
102
}
330
56B
100
AcDbMaterial
  1
ByBlock
 72
     1
 94
      127
  0
MATERIAL
  5
56C
102
{ACAD_REACTORS
330
56B
102
}
330
56B
100
AcDbMaterial
  1
ByLayer
 72
     1
 94
      127
  0
MATERIAL
  5
56E
102
{ACAD_REACTORS
330
56B
102
}
330
56B
100
AcDbMaterial
  1
Global
 72
     1
 94
      127
  0
MLINESTYLE
  5
548
102
{ACAD_REACTORS
330
547
102
}
330
547
100
AcDbMlineStyle
  2
Standard
 70
     0
  3

 62
   256
 51
90.0
 52
90.0
 71
     2
 49
0.5
 62
   256
  6
BYLAYER
 49
-0.5
 62
   256
  6
BYLAYER
  0
ACDBPLACEHOLDER
  5
540
102
{ACAD_REACTORS
330
53F
102
}
330
53F
  0
VISUALSTYLE
  5
55F
102
{ACAD_REACTORS
330
55A
102
}
330
55A
100
AcDbVisualStyle
  2
2dWireframe
 70
     4
177
     2
291
     0
 71
     0
176
     1
 72
     2
176
     1
 73
     0
176
     1
 90
        0
176
     1
 40
-0.6
176
     1
 41
-30.0
176
     1
 62
     5
 63
     7
421
 16777215
176
     1
 74
     1
176
     1
 91
        4
176
     1
 64
     7
176
     1
 65
   257
176
     1
 75
     1
176
     1
175
     1
176
     1
 42
1.0
176
     1
 92
        0
176
     1
 66
   257
176
     1
 43
1.0
176
     1
 76
     1
176
     1
 77
     6
176
     1
 78
     2
176
     1
 67
     7
176
     1
 79
     5
176
     1
170
     0
176
     1
171
     0
176
     1
290
     0
176
     1
 93
        1
176
     1
 44
0.0
176
     1
173
     0
176
     1
  0
VISUALSTYLE
  5
561
102
{ACAD_REACTORS
330
55A
102
}
330
55A
100
AcDbVisualStyle
  2
3D Hidden
 70
     6
177
     2
291
     0
 71
     1
176
     1
 72
     2
176
     1
 73
     2
176
     1
 90
        0
176
     1
 40
-0.6
176
     1
 41
-30.0
176
     1
 62
     5
 63
     7
421
 16777215
176
     1
 74
     2
176
     1
 91
        2
176
     1
 64
     7
176
     1
 65
   257
176
     1
 75
     2
176
     1
175
     1
176
     1
 42
40.0
176
     1
 92
        0
176
     1
 66
   257
176
     1
 43
1.0
176
     1
 76
     1
176
     1
 77
     6
176
     1
 78
     2
176
     1
 67
     7
176
     1
 79
     3
176
     1
170
     0
176
     1
171
     0
176
     1
290
     0
176
     1
 93
        1
176
     1
 44
0.0
176
     1
173
     0
176
     1
  0
VISUALSTYLE
  5
560
102
{ACAD_REACTORS
330
55A
102
}
330
55A
100
AcDbVisualStyle
  2
3dWireframe
 70
     5
177
     2
291
     0
 71
     0
176
     1
 72
     2
176
     1
 73
     0
176
     1
 90
        0
176
     1
 40
-0.6
176
     1
 41
-30.0
176
     1
 62
     5
 63
     7
421
 16777215
176
     1
 74
     1
176
     1
 91
        4
176
     1
 64
     7
176
     1
 65
   257
176
     1
 75
     1
176
     1
175
     1
176
     1
 42
1.0
176
     1
 92
        0
176
     1
 66
   257
176
     1
 43
1.0
176
     1
 76
     1
176
     1
 77
     6
176
     1
 78
     2
176
     1
 67
     7
176
     1
 79
     5
176
     1
170
     0
176
     1
171
     0
176
     1
290
     0
176
     1
 93
        1
176
     1
 44
0.0
176
     1
173
     0
176
     1
  0
VISUALSTYLE
  5
562
102
{ACAD_REACTORS
330
55A
102
}
330
55A
100
AcDbVisualStyle
  2
Basic
 70
     7
177
     2
291
     1
 71
     1
176
     1
 72
     0
176
     1
 73
     1
176
     1
 90
        0
176
     1
 40
-0.6
176
     1
 41
-30.0
176
     1
 62
     5
 63
     7
421
 16777215
176
     1
 74
     0
176
     1
 91
        4
176
     1
 64
     7
176
     1
 65
   257
176
     1
 75
     1
176
     1
175
     1
176
     1
 42
1.0
176
     1
 92
        8
176
     1
 66
     7
176
     1
 43
1.0
176
     1
 76
     1
176
     1
 77
     6
176
     1
 78
     2
176
     1
 67
     7
176
     1
 79
     5
176
     1
170
     0
176
     1
171
     0
176
     1
290
     0
176
     1
 93
        1
176
     1
 44
0.0
176
     1
173
     0
176
     1
  0
VISUALSTYLE
  5
566
102
{ACAD_REACTORS
330
55A
102
}
330
55A
100
AcDbVisualStyle
  2
Brighten
 70
    12
177
     2
291
     1
 71
     2
176
     1
 72
     2
176
     1
 73
     0
176
     1
 90
        0
176
     1
 40
-0.6
176
     1
 41
-30.0
176
     1
 62
     5
 63
     7
421
 16777215
176
     1
 74
     1
176
     1
 91
        4
176
     1
 64
     7
176
     1
 65
   257
176
     1
 75
     1
176
     1
175
     1
176
     1
 42
1.0
176
     1
 92
        8
176
     1
 66
     7
176
     1
 43
1.0
176
     1
 76
     1
176
     1
 77
     6
176
     1
 78
     2
176
     1
 67
     7
176
     1
 79
     5
176
     1
170
     0
176
     1
171
     0
176
     1
290
     0
176
     1
 93
        1
176
     1
 44
50.0
176
     1
173
     0
176
     1
  0
VISUALSTYLE
  5
56A
102
{ACAD_REACTORS
330
55A
102
}
330
55A
100
AcDbVisualStyle
  2
ColorChange
 70
    16
177
     2
291
     1
 71
     2
176
     1
 72
     2
176
     1
 73
     3
176
     1
 90
        0
176
     1
 40
-0.6
176
     1
 41
-30.0
176
     1
 62
     5
 63
     8
421
  8421504
176
     1
 74
     1
176
     1
 91
        4
176
     1
 64
     7
176
     1
 65
   257
176
     1
 75
     1
176
     1
175
     1
176
     1
 42
1.0
176
     1
 92
        8
176
     1
 66
     8
424
  8421504
176
     1
 43
1.0
176
     1
 76
     1
176
     1
 77
     6
176
     1
 78
     2
176
     1
 67
     7
176
     1
 79
     5
176
     1
170
     0
176
     1
171
     0
176
     1
290
     0
176
     1
 93
        1
176
     1
 44
0.0
176
     1
173
     0
176
     1
  0
VISUALSTYLE
  5
564
102
{ACAD_REACTORS
330
55A
102
}
330
55A
100
AcDbVisualStyle
  2
Conceptual
 70
     9
177
     2
291
     0
 71
     3
176
     1
 72
     2
176
     1
 73
     0
176
     1
 90
        0
176
     1
 40
-0.6
176
     1
 41
-30.0
176
     1
 62
     5
 63
     7
421
 16777215
176
     1
 74
     2
176
     1
 91
        2
176
     1
 64
     7
176
     1
 65
   257
176
     1
 75
     1
176
     1
175
     1
176
     1
 42
40.0
176
     1
 92
        8
176
     1
 66
     7
176
     1
 43
1.0
176
     1
 76
     1
176
     1
 77
     6
176
     1
 78
     2
176
     1
 67
     7
176
     1
 79
     3
176
     1
170
     0
176
     1
171
     0
176
     1
290
     0
176
     1
 93
        1
176
     1
 44
0.0
176
     1
173
     0
176
     1
  0
VISUALSTYLE
  5
565
102
{ACAD_REACTORS
330
55A
102
}
330
55A
100
AcDbVisualStyle
  2
Dim
 70
    11
177
     2
291
     1
 71
     2
176
     1
 72
     2
176
     1
 73
     0
176
     1
 90
        0
176
     1
 40
-0.6
176
     1
 41
-30.0
176
     1
 62
     5
 63
     7
421
 16777215
176
     1
 74
     1
176
     1
 91
        4
176
     1
 64
     7
176
     1
 65
   257
176
     1
 75
     1
176
     1
175
     1
176
     1
 42
1.0
176
     1
 92
        8
176
     1
 66
     7
176
     1
 43
1.0
176
     1
 76
     1
176
     1
 77
     6
176
     1
 78
     2
176
     1
 67
     7
176
     1
 79
     5
176
     1
170
     0
176
     1
171
     0
176
     1
290
     0
176
     1
 93
        1
176
     1
 44
-50.0
176
     1
173
     0
176
     1
  0
VISUALSTYLE
  5
569
102
{ACAD_REACTORS
330
55A
102
}
330
55A
100
AcDbVisualStyle
  2
Facepattern
 70
    15
177
     2
291
     1
 71
     2
176
     1
 72
     2
176
     1
 73
     0
176
     1
 90
        0
176
     1
 40
-0.6
176
     1
 41
-30.0
176
     1
 62
     5
 63
     7
421
 16777215
176
     1
 74
     1
176
     1
 91
        4
176
     1
 64
     7
176
     1
 65
   257
176
     1
 75
     1
176
     1
175
     1
176
     1
 42
1.0
176
     1
 92
        8
176
     1
 66
     7
176
     1
 43
1.0
176
     1
 76
     1
176
     1
 77
     6
176
     1
 78
     2
176
     1
 67
     7
176
     1
 79
     5
176
     1
170
     0
176
     1
171
     0
176
     1
290
     0
176
     1
 93
        1
176
     1
 44
0.0
176
     1
173
     0
176
     1
  0
VISUALSTYLE
  5
55B
102
{ACAD_REACTORS
330
55A
102
}
330
55A
100
AcDbVisualStyle
  2
Flat
 70
     0
177
     2
291
     1
 71
     2
176
     1
 72
     1
176
     1
 73
     1
176
     1
 90
        2
176
     1
 40
-0.6
176
     1
 41
30.0
176
     1
 62
     5
 63
     7
421
 16777215
176
     1
 74
     0
176
     1
 91
        4
176
     1
 64
     7
176
     1
 65
   257
176
     1
 75
     1
176
     1
175
     1
176
     1
 42
1.0
176
     1
 92
        8
176
     1
 66
     7
176
     1
 43
1.0
176
     1
 76
     1
176
     1
 77
     6
176
     1
 78
     2
176
     1
 67
     7
176
     1
 79
     5
176
     1
170
     0
176
     1
171
     0
176
     1
290
     0
176
     1
 93
       13
176
     1
 44
0.0
176
     1
173
     0
176
     1
  0
VISUALSTYLE
  5
55C
102
{ACAD_REACTORS
330
55A
102
}
330
55A
100
AcDbVisualStyle
  2
FlatWithEdges
 70
     1
177
     2
291
     1
 71
     2
176
     1
 72
     1
176
     1
 73
     1
176
     1
 90
        2
176
     1
 40
-0.6
176
     1
 41
30.0
176
     1
 62
     5
 63
     7
421
 16777215
176
     1
 74
     1
176
     1
 91
        4
176
     1
 64
     7
176
     1
 65
   257
176
     1
 75
     1
176
     1
175
     1
176
     1
 42
1.0
176
     1
 92
        0
176
     1
 66
   257
176
     1
 43
1.0
176
     1
 76
     1
176
     1
 77
     6
176
     1
 78
     2
176
     1
 67
     7
176
     1
 79
     5
176
     1
170
     0
176
     1
171
     0
176
     1
290
     0
176
     1
 93
       13
176
     1
 44
0.0
176
     1
173
     0
176
     1
  0
VISUALSTYLE
  5
55D
102
{ACAD_REACTORS
330
55A
102
}
330
55A
100
AcDbVisualStyle
  2
Gouraud
 70
     2
177
     2
291
     1
 71
     2
176
     1
 72
     2
176
     1
 73
     1
176
     1
 90
        2
176
     1
 40
-0.6
176
     1
 41
30.0
176
     1
 62
     5
 63
     7
421
 16777215
176
     1
 74
     0
176
     1
 91
        4
176
     1
 64
     7
176
     1
 65
   257
176
     1
 75
     1
176
     1
175
     1
176
     1
 42
1.0
176
     1
 92
        0
176
     1
 66
     7
176
     1
 43
1.0
176
     1
 76
     1
176
     1
 77
     6
176
     1
 78
     2
176
     1
 67
     7
176
     1
 79
     5
176
     1
170
     0
176
     1
171
     0
176
     1
290
     0
176
     1
 93
       13
176
     1
 44
0.0
176
     1
173
     0
176
     1
  0
VISUALSTYLE
  5
55E
102
{ACAD_REACTORS
330
55A
102
}
330
55A
100
AcDbVisualStyle
  2
GouraudWithEdges
 70
     3
177
     2
291
     1
 71
     2
176
     1
 72
     2
176
     1
 73
     1
176
     1
 90
        2
176
     1
 40
-0.6
176
     1
 41
30.0
176
     1
 62
     5
 63
     7
421
 16777215
176
     1
 74
     1
176
     1
 91
        4
176
     1
 64
     7
176
     1
 65
   257
176
     1
 75
     1
176
     1
175
     1
176
     1
 42
1.0
176
     1
 92
        0
176
     1
 66
   257
176
     1
 43
1.0
176
     1
 76
     1
176
     1
 77
     6
176
     1
 78
     2
176
     1
 67
     7
176
     1
 79
     5
176
     1
170
     0
176
     1
171
     0
176
     1
290
     0
176
     1
 93
       13
176
     1
 44
0.0
176
     1
173
     0
176
     1
  0
VISUALSTYLE
  5
568
102
{ACAD_REACTORS
330
55A
102
}
330
55A
100
AcDbVisualStyle
  2
Linepattern
 70
    14
177
     2
291
     1
 71
     2
176
     1
 72
     2
176
     1
 73
     0
176
     1
 90
        0
176
     1
 40
-0.6
176
     1
 41
-30.0
176
     1
 62
     5
 63
     7
421
 16777215
176
     1
 74
     1
176
     1
 91
        4
176
     1
 64
     7
176
     1
 65
   257
176
     1
 75
     7
176
     1
175
     7
176
     1
 42
1.0
176
     1
 92
        8
176
     1
 66
     7
176
     1
 43
1.0
176
     1
 76
     1
176
     1
 77
     6
176
     1
 78
     2
176
     1
 67
     7
176
     1
 79
     5
176
     1
170
     0
176
     1
171
     0
176
     1
290
     0
176
     1
 93
        1
176
     1
 44
0.0
176
     1
173
     0
176
     1
  0
VISUALSTYLE
  5
563
102
{ACAD_REACTORS
330
55A
102
}
330
55A
100
AcDbVisualStyle
  2
Realistic
 70
     8
177
     2
291
     0
 71
     2
176
     1
 72
     2
176
     1
 73
     0
176
     1
 90
        0
176
     1
 40
-0.6
176
     1
 41
-30.0
176
     1
 62
     5
 63
     7
421
 16777215
176
     1
 74
     1
176
     1
 91
        0
176
     1
 64
     7
176
     1
 65
   257
176
     1
 75
     1
176
     1
175
     1
176
     1
 42
1.0
176
     1
 92
        8
176
     1
 66
     8
424
  7895160
176
     1
 43
1.0
176
     1
 76
     1
176
     1
 77
     6
176
     1
 78
     2
176
     1
 67
     7
176
     1
 79
     5
176
     1
170
     0
176
     1
171
     0
176
     1
290
     0
176
     1
 93
       13
176
     1
 44
0.0
176
     1
173
     0
176
     1
  0
VISUALSTYLE
  5
567
102
{ACAD_REACTORS
330
55A
102
}
330
55A
100
AcDbVisualStyle
  2
Thicken
 70
    13
177
     2
291
     1
 71
     2
176
     1
 72
     2
176
     1
 73
     0
176
     1
 90
        0
176
     1
 40
-0.6
176
     1
 41
-30.0
176
     1
 62
     5
 63
     7
421
 16777215
176
     1
 74
     1
176
     1
 91
        4
176
     1
 64
     7
176
     1
 65
   257
176
     1
 75
     1
176
     1
175
     1
176
     1
 42
1.0
176
     1
 92
       12
176
     1
 66
     7
176
     1
 43
1.0
176
     1
 76
     1
176
     1
 77
     6
176
     1
 78
     2
176
     1
 67
     7
176
     1
 79
     5
176
     1
170
     0
176
     1
171
     0
176
     1
290
     0
176
     1
 93
        1
176
     1
 44
0.0
176
     1
173
     0
176
     1
  0
XRECORD
  5
588
102
{ACAD_REACTORS
330
570
102
}
330
570
100
AcDbXrecord
280
     1
1000
White
  0
XRECORD
  5
581
102
{ACAD_REACTORS
330
570
102
}
330
570
100
AcDbXrecord
280
     1
1000
Grayscale
  0
XRECORD
  5
57C
102
{ACAD_REACTORS
330
570
102
}
330
570
100
AcDbXrecord
280
     1
 40
0.0
  0
XRECORD
  5
57B
102
{ACAD_REACTORS
330
570
102
}
330
570
100
AcDbXrecord
280
     1
 40
0.0
  0
XRECORD
  5
57E
102
{ACAD_REACTORS
330
570
102
}
330
570
100
AcDbXrecord
280
     1
290
     1
  0
XRECORD
  5
58D
102
{ACAD_REACTORS
330
570
102
}
330
570
100
AcDbXrecord
280
     1
 40
2.0
  0
XRECORD
  5
589
102
{ACAD_REACTORS
330
570
102
}
330
570
100
AcDbXrecord
280
     1
 40
4.0
  0
XRECORD
  5
58A
102
{ACAD_REACTORS
330
570
102
}
330
570
100
AcDbXrecord
280
     1
290
     1
  0
XRECORD
  5
57D
102
{ACAD_REACTORS
330
570
102
}
330
570
100
AcDbXrecord
280
     1
1000
0.05
  0
XRECORD
  5
580
102
{ACAD_REACTORS
330
570
102
}
330
570
100
AcDbXrecord
280
     1
1000
0.05
  0
XRECORD
  5
574
102
{ACAD_REACTORS
330
570
102
}
330
570
100
AcDbXrecord
280
     1
1000
auto
  0
XRECORD
  5
578
102
{ACAD_REACTORS
330
570
102
}
330
570
100
AcDbXrecord
280
     1
1000
auto
  0
XRECORD
  5
579
102
{ACAD_REACTORS
330
570
102
}
330
570
100
AcDbXrecord
280
     1
 90
        1
  0
XRECORD
  5
575
102
{ACAD_REACTORS
330
570
102
}
330
570
100
AcDbXrecord
280
     1
 40
10.0
  0
XRECORD
  5
583
102
{ACAD_REACTORS
330
570
102
}
330
570
100
AcDbXrecord
280
     1
 40
10.0
  0
XRECORD
  5
571
102
{ACAD_REACTORS
330
570
102
}
330
570
100
AcDbXrecord
280
     1
 40
10.0
  0
XRECORD
  5
58F
102
{ACAD_REACTORS
330
570
102
}
330
570
100
AcDbXrecord
280
     1
 40
10.0
  0
XRECORD
  5
573
102
{ACAD_REACTORS
330
570
102
}
330
570
100
AcDbXrecord
280
     1
290
     0
  0
XRECORD
  5
585
102
{ACAD_REACTORS
330
570
102
}
330
570
100
AcDbXrecord
280
     1
 90
        1
  0
XRECORD
  5
58C
102
{ACAD_REACTORS
330
570
102
}
330
570
100
AcDbXrecord
280
     1
 40
-0.8499999999999999
  0
XRECORD
  5
58E
102
{ACAD_REACTORS
330
570
102
}
330
570
100
AcDbXrecord
280
     1
 40
-3.3
  0
XRECORD
  5
572
102
{ACAD_REACTORS
330
570
102
}
330
570
100
AcDbXrecord
280
     1
1000
Portrait
  0
XRECORD
  5
577
102
{ACAD_REACTORS
330
570
102
}
330
570
100
AcDbXrecord
280
     1
1000
11
 41
0.0
  0
XRECORD
  5
57A
102
{ACAD_REACTORS
330
570
102
}
330
570
100
AcDbXrecord
280
     1
1000
ANSI A (Letter)
  0
XRECORD
  5
586
102
{ACAD_REACTORS
330
570
102
}
330
570
100
AcDbXrecord
280
     1
1000
8.5
 41
0.0
  0
XRECORD
  5
576
102
{ACAD_REACTORS
330
570
102
}
330
570
100
AcDbXrecord
280
     1
1000
1
  0
XRECORD
  5
57F
102
{ACAD_REACTORS
330
570
102
}
330
570
100
AcDbXrecord
280
     1
290
     0
  0
XRECORD
  5
58B
102
{ACAD_REACTORS
330
570
102
}
330
570
100
AcDbXrecord
280
     1
290
     1
  0
XRECORD
  5
584
102
{ACAD_REACTORS
330
570
102
}
330
570
100
AcDbXrecord
280
     1
1000

  0
XRECORD
  5
582
102
{ACAD_REACTORS
330
570
102
}
330
570
100
AcDbXrecord
280
     1
1000

  0
XRECORD
  5
587
102
{ACAD_REACTORS
330
570
102
}
330
570
100
AcDbXrecord
280
     1
 90
        1
  0
ENDSEC
  0
EOF
