<?xml version="1.0" encoding="utf-8"?>
<!-- Generator: Adobe Illustrator 13.0.0, SVG Export Plug-In . SVG Version: 6.00 Build 14948)  -->
<!DOCTYPE svg PUBLIC "-//W3C//DTD SVG 1.1//EN" "http://www.w3.org/Graphics/SVG/1.1/DTD/svg11.dtd">
<svg version="1.1" id="Layer_1" xmlns="http://www.w3.org/2000/svg" xmlns:xlink="http://www.w3.org/1999/xlink" x="0px" y="0px"
	 width="496.787px" height="115.576px" viewBox="0 0 496.787 115.576" enable-background="new 0 0 496.787 115.576"
	 xml:space="preserve">
<g id="LWPOLYLINE">
	
		<line fill="none" stroke="#00FFFF" stroke-width="0.7087" stroke-linecap="round" stroke-linejoin="round" x1="143.894" y1="97.288" x2="143.894" y2="63.091"/>
</g>
<g id="LWPOLYLINE_1_">
	<polyline fill="none" stroke="#00FFFF" stroke-width="0.7087" stroke-linecap="round" stroke-linejoin="round" points="
		144.02,62.468 144.019,62.464 144.018,62.461 144.017,62.458 144.014,62.455 144.011,62.453 144.008,62.451 144.005,62.45 
		144.001,62.45 143.998,62.45 143.995,62.451 143.991,62.453 143.989,62.455 143.986,62.458 143.985,62.461 143.984,62.464 
		143.983,62.468 	"/>
</g>
<g id="LWPOLYLINE_2_">
	<polyline fill="none" stroke="#00FFFF" stroke-width="0.7087" stroke-linecap="round" stroke-linejoin="round" points="
		143.983,97.665 143.984,97.669 143.985,97.672 143.986,97.675 143.989,97.678 143.991,97.68 143.995,97.682 143.998,97.683 
		144.001,97.684 144.005,97.683 144.008,97.682 144.011,97.68 144.014,97.678 144.017,97.675 144.018,97.672 144.019,97.669 
		144.02,97.665 	"/>
</g>
<g id="LWPOLYLINE_3_">
	<polyline fill="none" stroke="#00FFFF" stroke-width="0.7087" stroke-linecap="round" stroke-linejoin="round" points="
		144.901,61.567 144.745,61.581 144.594,61.622 144.452,61.688 144.323,61.778 144.212,61.89 144.122,62.018 144.056,62.16 
		144.015,62.312 144.001,62.468 	"/>
</g>
<g id="LWPOLYLINE_4_">
	<polyline fill="none" stroke="#00FFFF" stroke-width="0.7087" stroke-linecap="round" stroke-linejoin="round" points="
		144.901,61.586 144.905,61.585 144.908,61.584 144.912,61.583 144.914,61.58 144.917,61.578 144.918,61.574 144.919,61.571 
		144.919,61.567 144.919,61.564 144.918,61.561 144.917,61.558 144.914,61.555 144.912,61.553 144.908,61.551 144.905,61.55 
		144.901,61.55 	"/>
</g>
<g id="LWPOLYLINE_5_">
	<polyline fill="none" stroke="#00FFFF" stroke-width="0.7087" stroke-linecap="round" stroke-linejoin="round" points="
		143.983,62.468 143.984,62.472 143.985,62.475 143.986,62.478 143.989,62.48 143.991,62.482 143.995,62.484 143.998,62.485 
		144.001,62.485 144.005,62.485 144.008,62.484 144.011,62.482 144.014,62.48 144.017,62.478 144.018,62.475 144.019,62.472 
		144.02,62.468 	"/>
</g>
<g id="LWPOLYLINE_6_">
	
		<line fill="none" stroke="#00FFFF" stroke-width="0.7087" stroke-linecap="round" stroke-linejoin="round" x1="144.901" y1="61.567" x2="157.5" y2="61.567"/>
</g>
<g id="LWPOLYLINE_7_">
	<polyline fill="none" stroke="#00FFFF" stroke-width="0.7087" stroke-linecap="round" stroke-linejoin="round" points="
		157.5,61.586 157.504,61.585 157.507,61.584 157.51,61.583 157.513,61.58 157.516,61.578 157.517,61.574 157.518,61.571 
		157.519,61.567 157.518,61.564 157.517,61.561 157.516,61.558 157.513,61.555 157.51,61.553 157.507,61.551 157.504,61.55 
		157.5,61.55 	"/>
</g>
<g id="LWPOLYLINE_8_">
	<polyline fill="none" stroke="#00FFFF" stroke-width="0.7087" stroke-linecap="round" stroke-linejoin="round" points="
		144.901,61.55 144.898,61.55 144.895,61.551 144.892,61.553 144.889,61.555 144.886,61.558 144.885,61.561 144.884,61.564 
		144.883,61.567 144.884,61.571 144.885,61.574 144.886,61.578 144.889,61.58 144.892,61.583 144.895,61.584 144.898,61.585 
		144.901,61.586 	"/>
</g>
<g id="LWPOLYLINE_9_">
	<polyline fill="none" stroke="#00FFFF" stroke-width="0.7087" stroke-linecap="round" stroke-linejoin="round" points="
		158.4,62.468 158.387,62.312 158.346,62.16 158.28,62.018 158.19,61.89 158.079,61.778 157.95,61.688 157.808,61.622 
		157.657,61.581 157.5,61.567 	"/>
</g>
<g id="LWPOLYLINE_10_">
	<polyline fill="none" stroke="#00FFFF" stroke-width="0.7087" stroke-linecap="round" stroke-linejoin="round" points="
		158.382,62.468 158.383,62.472 158.384,62.475 158.385,62.478 158.388,62.48 158.39,62.482 158.394,62.484 158.397,62.485 
		158.4,62.485 158.404,62.485 158.407,62.484 158.41,62.482 158.413,62.48 158.416,62.478 158.417,62.475 158.418,62.472 
		158.418,62.468 	"/>
</g>
<g id="LWPOLYLINE_11_">
	<polyline fill="none" stroke="#00FFFF" stroke-width="0.7087" stroke-linecap="round" stroke-linejoin="round" points="
		157.5,61.55 157.497,61.55 157.494,61.551 157.49,61.553 157.488,61.555 157.485,61.558 157.484,61.561 157.483,61.564 
		157.482,61.567 157.483,61.571 157.484,61.574 157.485,61.578 157.488,61.58 157.49,61.583 157.494,61.584 157.497,61.585 
		157.5,61.586 	"/>
</g>
<g id="LWPOLYLINE_12_">
	
		<line fill="none" stroke="#00FFFF" stroke-width="0.7087" stroke-linecap="round" stroke-linejoin="round" x1="158.4" y1="62.312" x2="158.4" y2="97.665"/>
</g>
<g id="LWPOLYLINE_14_">
	<polyline fill="none" stroke="#00FFFF" stroke-width="0.7087" stroke-linecap="round" stroke-linejoin="round" points="
		158.418,62.468 158.418,62.464 158.417,62.461 158.416,62.458 158.413,62.455 158.41,62.453 158.407,62.451 158.404,62.45 
		158.4,62.45 158.397,62.45 158.394,62.451 158.39,62.453 158.388,62.455 158.385,62.458 158.384,62.461 158.383,62.464 
		158.382,62.468 	"/>
</g>
<g id="LWPOLYLINE_15_">
	<polyline fill="none" stroke="#00FFFF" stroke-width="0.7087" stroke-linecap="round" stroke-linejoin="round" points="
		157.5,98.565 157.657,98.552 157.808,98.511 157.95,98.444 158.079,98.354 158.19,98.243 158.28,98.115 158.346,97.973 
		158.387,97.821 158.4,97.665 	"/>
</g>
<g id="LWPOLYLINE_18_">
	
		<line fill="none" stroke="#00FFFF" stroke-width="0.7087" stroke-linecap="round" stroke-linejoin="round" x1="157.5" y1="98.565" x2="144.901" y2="98.565"/>
</g>
<g id="LWPOLYLINE_21_">
	<polyline fill="none" stroke="#00FFFF" stroke-width="0.7087" stroke-linecap="round" stroke-linejoin="round" points="
		144.001,97.665 144.015,97.821 144.056,97.973 144.122,98.115 144.212,98.243 144.323,98.354 144.452,98.444 144.594,98.511 
		144.745,98.552 144.901,98.565 	"/>
</g>
<g id="LWPOLYLINE_22_">
	<polyline fill="none" stroke="#00FFFF" stroke-width="0.7087" stroke-linecap="round" stroke-linejoin="round" points="
		144.02,97.665 144.019,97.661 144.018,97.658 144.017,97.655 144.014,97.652 144.011,97.65 144.008,97.648 144.005,97.647 
		144.001,97.647 143.998,97.647 143.995,97.648 143.991,97.65 143.989,97.652 143.986,97.655 143.985,97.658 143.984,97.661 
		143.983,97.665 	"/>
</g>
<g id="LWPOLYLINE_24_">
	
		<line fill="none" stroke="#00FFFF" stroke-width="0.7087" stroke-linecap="round" stroke-linejoin="round" x1="126.903" y1="98.565" x2="103.504" y2="98.565"/>
</g>
<g id="LWPOLYLINE_27_">
	<polyline fill="none" stroke="#00FFFF" stroke-width="0.7087" stroke-linecap="round" stroke-linejoin="round" points="
		102.604,97.665 102.618,97.821 102.659,97.973 102.725,98.115 102.815,98.243 102.926,98.354 103.055,98.444 103.197,98.511 
		103.348,98.552 103.504,98.565 	"/>
</g>
<g id="LWPOLYLINE_28_">
	<polyline fill="none" stroke="#00FFFF" stroke-width="0.7087" stroke-linecap="round" stroke-linejoin="round" points="
		102.623,96.665 102.622,96.661 102.621,96.658 102.62,96.655 102.617,96.652 102.615,96.65 102.611,96.648 102.608,96.647 
		102.604,96.647 102.601,96.647 102.598,96.648 102.595,96.65 102.592,96.652 102.59,96.655 102.588,96.658 102.587,96.661 
		102.586,96.665 	"/>
</g>
<g id="LWPOLYLINE_30_">
	
		<line fill="none" stroke="#00FFFF" stroke-width="0.7087" stroke-linecap="round" stroke-linejoin="round" x1="102.604" y1="97.678" x2="102.604" y2="76.866"/>
</g>
<g id="LWPOLYLINE_31_">
	<polyline fill="none" stroke="#00FFFF" stroke-width="0.7087" stroke-linecap="round" stroke-linejoin="round" points="
		102.623,76.866 102.622,76.863 102.621,76.859 102.62,76.856 102.617,76.854 102.615,76.852 102.611,76.85 102.608,76.849 
		102.604,76.849 102.601,76.849 102.598,76.85 102.595,76.852 102.592,76.854 102.59,76.856 102.588,76.859 102.587,76.863 
		102.586,76.866 	"/>
</g>
<g id="LWPOLYLINE_32_">
	<polyline fill="none" stroke="#00FFFF" stroke-width="0.7087" stroke-linecap="round" stroke-linejoin="round" points="
		102.586,96.665 102.587,96.669 102.588,96.672 102.59,96.675 102.592,96.678 102.595,96.68 102.598,96.682 102.601,96.683 
		102.604,96.684 102.608,96.683 102.611,96.682 102.615,96.68 102.617,96.678 102.62,96.675 102.621,96.672 102.622,96.669 
		102.623,96.665 	"/>
</g>
<g id="LWPOLYLINE_33_">
	<polyline fill="none" stroke="#00FFFF" stroke-width="0.7087" stroke-linecap="round" stroke-linejoin="round" points="
		103.504,75.967 103.348,75.98 103.197,76.021 103.055,76.087 102.926,76.177 102.815,76.288 102.725,76.417 102.659,76.559 
		102.618,76.71 102.604,76.866 	"/>
</g>
<g id="LWPOLYLINE_34_">
	<polyline fill="none" stroke="#00FFFF" stroke-width="0.7087" stroke-linecap="round" stroke-linejoin="round" points="
		103.504,75.984 103.508,75.984 103.511,75.983 103.515,75.981 103.517,75.979 103.52,75.977 103.521,75.974 103.522,75.97 
		103.522,75.967 103.522,75.963 103.521,75.96 103.52,75.957 103.517,75.954 103.515,75.952 103.511,75.95 103.508,75.949 
		103.504,75.948 	"/>
</g>
<g id="LWPOLYLINE_35_">
	<polyline fill="none" stroke="#00FFFF" stroke-width="0.7087" stroke-linecap="round" stroke-linejoin="round" points="
		102.586,76.866 102.587,76.87 102.588,76.874 102.59,76.877 102.592,76.879 102.595,76.882 102.598,76.883 102.601,76.885 
		102.604,76.885 102.608,76.885 102.611,76.883 102.615,76.882 102.617,76.879 102.62,76.877 102.621,76.874 102.622,76.87 
		102.623,76.866 	"/>
</g>
<g id="LWPOLYLINE_36_">
	
		<line fill="none" stroke="#00FFFF" stroke-width="0.7087" stroke-linecap="round" stroke-linejoin="round" x1="103.504" y1="75.967" x2="126.903" y2="75.967"/>
</g>
<g id="LWPOLYLINE_37_">
	<polyline fill="none" stroke="#00FFFF" stroke-width="0.7087" stroke-linecap="round" stroke-linejoin="round" points="
		126.903,75.984 126.906,75.984 126.91,75.983 126.913,75.981 126.916,75.979 126.918,75.977 126.919,75.974 126.92,75.97 
		126.921,75.967 126.92,75.963 126.919,75.96 126.918,75.957 126.916,75.954 126.913,75.952 126.91,75.95 126.906,75.949 
		126.903,75.948 	"/>
</g>
<g id="LWPOLYLINE_38_">
	<polyline fill="none" stroke="#00FFFF" stroke-width="0.7087" stroke-linecap="round" stroke-linejoin="round" points="
		103.504,75.948 103.501,75.949 103.498,75.95 103.495,75.952 103.492,75.954 103.49,75.957 103.488,75.96 103.487,75.963 
		103.486,75.967 103.487,75.97 103.488,75.974 103.49,75.977 103.492,75.979 103.495,75.981 103.498,75.983 103.501,75.984 
		103.504,75.984 	"/>
</g>
<g id="LWPOLYLINE_39_">
	<polyline fill="none" stroke="#00FFFF" stroke-width="0.7087" stroke-linecap="round" stroke-linejoin="round" points="
		127.803,76.866 127.789,76.71 127.749,76.559 127.682,76.417 127.592,76.288 127.481,76.177 127.353,76.087 127.21,76.021 
		127.059,75.98 126.903,75.967 	"/>
</g>
<g id="LWPOLYLINE_40_">
	<polyline fill="none" stroke="#00FFFF" stroke-width="0.7087" stroke-linecap="round" stroke-linejoin="round" points="
		127.785,76.866 127.785,76.87 127.786,76.874 127.788,76.877 127.79,76.879 127.792,76.882 127.796,76.883 127.799,76.885 
		127.803,76.885 127.806,76.885 127.81,76.883 127.812,76.882 127.815,76.879 127.818,76.877 127.819,76.874 127.82,76.87 
		127.821,76.866 	"/>
</g>
<g id="LWPOLYLINE_41_">
	<polyline fill="none" stroke="#00FFFF" stroke-width="0.7087" stroke-linecap="round" stroke-linejoin="round" points="
		126.903,75.948 126.899,75.949 126.896,75.95 126.893,75.952 126.89,75.954 126.888,75.957 126.886,75.96 126.885,75.963 
		126.885,75.967 126.885,75.97 126.886,75.974 126.888,75.977 126.89,75.979 126.893,75.981 126.896,75.983 126.899,75.984 
		126.903,75.984 	"/>
</g>
<g id="LWPOLYLINE_42_">
	
		<line fill="none" stroke="#00FFFF" stroke-width="0.7087" stroke-linecap="round" stroke-linejoin="round" x1="127.803" y1="76.866" x2="127.803" y2="97.206"/>
</g>
<g id="LWPOLYLINE_43_">
	<polyline fill="none" stroke="#00FFFF" stroke-width="0.7087" stroke-linecap="round" stroke-linejoin="round" points="
		127.8,97.185 127.801,97.189 127.802,97.192 127.803,97.196 127.806,97.199 127.808,97.201 127.812,97.204 127.815,97.205 
		127.818,97.206 127.822,97.205 127.825,97.204 127.828,97.201 127.831,97.199 127.833,97.196 127.835,97.192 127.836,97.189 
		127.836,97.185 	"/>
</g>
<g id="LWPOLYLINE_44_">
	<polyline fill="none" stroke="#00FFFF" stroke-width="0.7087" stroke-linecap="round" stroke-linejoin="round" points="
		127.821,76.866 127.82,76.863 127.819,76.859 127.818,76.856 127.815,76.854 127.812,76.852 127.81,76.85 127.806,76.849 
		127.803,76.849 127.799,76.849 127.796,76.85 127.792,76.852 127.79,76.854 127.788,76.856 127.786,76.859 127.785,76.863 
		127.785,76.866 	"/>
</g>
<g id="LWPOLYLINE_45_">
	<polyline fill="none" stroke="#00FFFF" stroke-width="0.7087" stroke-linecap="round" stroke-linejoin="round" points="
		126.903,98.565 127.059,98.552 127.21,98.511 127.353,98.444 127.481,98.354 127.592,98.243 127.682,98.115 127.749,97.973 
		127.789,97.821 127.803,97.665 	"/>
</g>
<g id="LWPOLYLINE_47_">
	<polyline fill="none" stroke="#00FFFF" stroke-width="0.7087" stroke-linecap="round" stroke-linejoin="round" points="
		127.828,97.306 127.828,97.302 127.827,97.299 127.825,97.296 127.823,97.293 127.82,97.291 127.817,97.289 127.813,97.288 
		127.81,97.288 127.807,97.288 127.803,97.289 127.8,97.291 127.797,97.293 127.795,97.296 127.793,97.299 127.792,97.302 
		127.792,97.306 	"/>
</g>
<g id="LWPOLYLINE_48_">
	
		<line fill="none" stroke="#00FFFF" stroke-width="0.7087" stroke-linecap="round" stroke-linejoin="round" x1="496.415" y1="115.204" x2="496.415" y2="0.373"/>
</g>
<g id="LWPOLYLINE_49_">
	<polyline fill="none" stroke="#00FFFF" stroke-width="0.7087" stroke-linecap="round" stroke-linejoin="round" points="
		496.433,0.373 496.433,0.369 496.432,0.366 496.43,0.362 496.428,0.36 496.425,0.357 496.422,0.356 496.418,0.355 496.415,0.354 
		496.411,0.355 496.408,0.356 496.405,0.357 496.402,0.36 496.399,0.362 496.398,0.366 496.397,0.369 496.396,0.373 	"/>
</g>
<g id="LWPOLYLINE_50_">
	<polyline fill="none" stroke="#00FFFF" stroke-width="0.7087" stroke-linecap="round" stroke-linejoin="round" points="
		496.396,115.204 496.397,115.207 496.398,115.211 496.399,115.214 496.402,115.217 496.405,115.219 496.408,115.221 
		496.411,115.222 496.415,115.222 496.418,115.222 496.422,115.221 496.425,115.219 496.428,115.217 496.43,115.214 
		496.432,115.211 496.433,115.207 496.433,115.204 	"/>
</g>
<g id="LWPOLYLINE_51_">
	
		<line fill="none" stroke="#00FFFF" stroke-width="0.7087" stroke-linecap="round" stroke-linejoin="round" x1="496.415" y1="0.373" x2="0.373" y2="0.373"/>
</g>
<g id="LWPOLYLINE_52_">
	<polyline fill="none" stroke="#00FFFF" stroke-width="0.7087" stroke-linecap="round" stroke-linejoin="round" points="
		0.373,0.354 0.369,0.355 0.365,0.356 0.362,0.357 0.359,0.36 0.357,0.362 0.355,0.366 0.354,0.369 0.354,0.373 0.354,0.376 
		0.355,0.379 0.357,0.382 0.359,0.385 0.362,0.387 0.365,0.389 0.369,0.39 0.373,0.391 	"/>
</g>
<g id="LWPOLYLINE_53_">
	<polyline fill="none" stroke="#00FFFF" stroke-width="0.7087" stroke-linecap="round" stroke-linejoin="round" points="
		496.415,0.391 496.418,0.39 496.422,0.389 496.425,0.387 496.428,0.385 496.43,0.382 496.432,0.379 496.433,0.376 496.433,0.373 
		496.433,0.369 496.432,0.366 496.43,0.362 496.428,0.36 496.425,0.357 496.422,0.356 496.418,0.355 496.415,0.354 	"/>
</g>
<g id="LWPOLYLINE_54_">
	
		<line fill="none" stroke="#00FFFF" stroke-width="0.7087" stroke-linecap="round" stroke-linejoin="round" x1="0.373" y1="0.373" x2="0.373" y2="115.204"/>
</g>
<g id="LWPOLYLINE_55_">
	<polyline fill="none" stroke="#00FFFF" stroke-width="0.7087" stroke-linecap="round" stroke-linejoin="round" points="
		0.354,115.204 0.354,115.207 0.355,115.211 0.357,115.214 0.359,115.217 0.362,115.219 0.365,115.221 0.369,115.222 0.373,115.222 
		0.376,115.222 0.379,115.221 0.382,115.219 0.385,115.217 0.387,115.214 0.389,115.211 0.39,115.207 0.39,115.204 	"/>
</g>
<g id="LWPOLYLINE_56_">
	<polyline fill="none" stroke="#00FFFF" stroke-width="0.7087" stroke-linecap="round" stroke-linejoin="round" points="0.39,0.373 
		0.39,0.369 0.389,0.366 0.387,0.362 0.385,0.36 0.382,0.357 0.379,0.356 0.376,0.355 0.373,0.354 0.369,0.355 0.365,0.356 
		0.362,0.357 0.359,0.36 0.357,0.362 0.355,0.366 0.354,0.369 0.354,0.373 	"/>
</g>
<g id="LWPOLYLINE_57_">
	
		<line fill="none" stroke="#00FFFF" stroke-width="0.7087" stroke-linecap="round" stroke-linejoin="round" x1="0.373" y1="115.204" x2="496.415" y2="115.204"/>
</g>
<g id="LWPOLYLINE_58_">
	<polyline fill="none" stroke="#00FFFF" stroke-width="0.7087" stroke-linecap="round" stroke-linejoin="round" points="
		496.415,115.222 496.418,115.222 496.422,115.221 496.425,115.219 496.428,115.217 496.43,115.214 496.432,115.211 
		496.433,115.207 496.433,115.204 496.433,115.2 496.432,115.197 496.43,115.193 496.428,115.191 496.425,115.188 496.422,115.188 
		496.418,115.187 496.415,115.186 	"/>
</g>
<g id="LWPOLYLINE_59_">
	<polyline fill="none" stroke="#00FFFF" stroke-width="0.7087" stroke-linecap="round" stroke-linejoin="round" points="
		0.373,115.186 0.369,115.187 0.365,115.188 0.362,115.188 0.359,115.191 0.357,115.193 0.355,115.197 0.354,115.2 0.354,115.204 
		0.354,115.207 0.355,115.211 0.357,115.214 0.359,115.217 0.362,115.219 0.365,115.221 0.369,115.222 0.373,115.222 	"/>
</g>
<g id="LWPOLYLINE_60_">
	<polyline fill="none" stroke="#00FFFF" stroke-width="0.7087" stroke-linecap="round" stroke-linejoin="round" points="
		451.778,100.265 454.938,99.954 457.978,99.032 460.777,97.535 463.232,95.521 465.247,93.065 466.744,90.265 467.666,87.227 
		467.977,84.066 467.666,80.906 466.744,77.867 465.247,75.066 463.232,72.612 460.777,70.598 457.978,69.101 454.938,68.179 
		451.778,67.867 	"/>
	<polyline fill="none" stroke="#00FFFF" stroke-width="0.7087" stroke-linecap="round" stroke-linejoin="round" points="
		451.778,67.867 448.618,68.179 445.579,69.101 442.778,70.598 440.324,72.612 438.31,75.066 436.812,77.867 435.891,80.906 
		435.579,84.066 435.891,87.227 436.812,90.265 438.31,93.065 440.324,95.521 442.778,97.535 445.579,99.032 448.618,99.954 
		451.778,100.265 	"/>
</g>
<g id="LWPOLYLINE_61_">
	<polyline fill="none" stroke="#00FFFF" stroke-width="0.7087" stroke-linecap="round" stroke-linejoin="round" points="
		401.382,100.265 404.542,99.954 407.581,99.032 410.382,97.535 412.836,95.521 414.851,93.065 416.348,90.265 417.27,87.227 
		417.581,84.066 417.27,80.906 416.348,77.867 414.851,75.066 412.836,72.612 410.382,70.598 407.581,69.101 404.542,68.179 
		401.382,67.867 	"/>
	<polyline fill="none" stroke="#00FFFF" stroke-width="0.7087" stroke-linecap="round" stroke-linejoin="round" points="
		401.382,67.867 398.222,68.179 395.183,69.101 392.383,70.598 389.928,72.612 387.913,75.066 386.416,77.867 385.494,80.906 
		385.184,84.066 385.494,87.227 386.416,90.265 387.913,93.065 389.928,95.521 392.383,97.535 395.183,99.032 398.222,99.954 
		401.382,100.265 	"/>
</g>
<g id="LWPOLYLINE_62_">
	<polyline fill="none" stroke="#00FFFF" stroke-width="0.7087" stroke-linecap="round" stroke-linejoin="round" points="
		401.382,46.269 404.542,45.958 407.581,45.036 410.382,43.539 412.836,41.524 414.851,39.07 416.348,36.269 417.27,33.23 
		417.581,30.07 417.27,26.91 416.348,23.871 414.851,21.071 412.836,18.616 410.382,16.602 407.581,15.104 404.542,14.183 
		401.382,13.872 	"/>
	<polyline fill="none" stroke="#00FFFF" stroke-width="0.7087" stroke-linecap="round" stroke-linejoin="round" points="
		401.382,13.872 398.222,14.183 395.183,15.104 392.383,16.602 389.928,18.616 387.913,21.071 386.416,23.871 385.494,26.91 
		385.184,30.07 385.494,33.23 386.416,36.269 387.913,39.07 389.928,41.524 392.383,43.539 395.183,45.036 398.222,45.958 
		401.382,46.269 	"/>
</g>
<g id="LWPOLYLINE_63_">
	<polyline fill="none" stroke="#00FFFF" stroke-width="0.7087" stroke-linecap="round" stroke-linejoin="round" points="
		350.985,100.265 354.146,99.954 357.185,99.032 359.985,97.535 362.44,95.521 364.454,93.065 365.951,90.265 366.873,87.227 
		367.185,84.066 366.873,80.906 365.951,77.867 364.454,75.066 362.44,72.612 359.985,70.598 357.185,69.101 354.146,68.179 
		350.985,67.867 	"/>
	<polyline fill="none" stroke="#00FFFF" stroke-width="0.7087" stroke-linecap="round" stroke-linejoin="round" points="
		350.985,67.867 347.825,68.179 344.787,69.101 341.986,70.598 339.531,72.612 337.517,75.066 336.021,77.867 335.099,80.906 
		334.787,84.066 335.099,87.227 336.021,90.265 337.517,93.065 339.531,95.521 341.986,97.535 344.787,99.032 347.825,99.954 
		350.985,100.265 	"/>
</g>
<g id="LWPOLYLINE_64_">
	<polyline fill="none" stroke="#00FFFF" stroke-width="0.7087" stroke-linecap="round" stroke-linejoin="round" points="
		300.59,100.265 303.75,99.954 306.789,99.032 309.589,97.535 312.044,95.521 314.059,93.065 315.556,90.265 316.478,87.227 
		316.788,84.066 316.478,80.906 315.556,77.867 314.059,75.066 312.044,72.612 309.589,70.598 306.789,69.101 303.75,68.179 
		300.59,67.867 	"/>
	<polyline fill="none" stroke="#00FFFF" stroke-width="0.7087" stroke-linecap="round" stroke-linejoin="round" points="
		300.59,67.867 297.43,68.179 294.391,69.101 291.59,70.598 289.136,72.612 287.121,75.066 285.624,77.867 284.702,80.906 
		284.391,84.066 284.702,87.227 285.624,90.265 287.121,93.065 289.136,95.521 291.59,97.535 294.391,99.032 297.43,99.954 
		300.59,100.265 	"/>
</g>
<g id="LWPOLYLINE_65_">
	<polyline fill="none" stroke="#00FFFF" stroke-width="0.7087" stroke-linecap="round" stroke-linejoin="round" points="
		300.59,46.269 303.75,45.958 306.789,45.036 309.589,43.539 312.044,41.524 314.059,39.07 315.556,36.269 316.478,33.23 
		316.788,30.07 316.478,26.91 315.556,23.871 314.059,21.071 312.044,18.616 309.589,16.602 306.789,15.104 303.75,14.183 
		300.59,13.872 	"/>
	<polyline fill="none" stroke="#00FFFF" stroke-width="0.7087" stroke-linecap="round" stroke-linejoin="round" points="
		300.59,13.872 297.43,14.183 294.391,15.104 291.59,16.602 289.136,18.616 287.121,21.071 285.624,23.871 284.702,26.91 
		284.391,30.07 284.702,33.23 285.624,36.269 287.121,39.07 289.136,41.524 291.59,43.539 294.391,45.036 297.43,45.958 
		300.59,46.269 	"/>
</g>
<g id="LWPOLYLINE_66_">
	<polyline fill="none" stroke="#00FFFF" stroke-width="0.7087" stroke-linecap="round" stroke-linejoin="round" points="
		350.985,46.269 354.146,45.958 357.185,45.036 359.985,43.539 362.44,41.524 364.454,39.07 365.951,36.269 366.873,33.23 
		367.185,30.07 366.873,26.91 365.951,23.871 364.454,21.071 362.44,18.616 359.985,16.602 357.185,15.104 354.146,14.183 
		350.985,13.872 	"/>
	<polyline fill="none" stroke="#00FFFF" stroke-width="0.7087" stroke-linecap="round" stroke-linejoin="round" points="
		350.985,13.872 347.825,14.183 344.787,15.104 341.986,16.602 339.531,18.616 337.517,21.071 336.021,23.871 335.099,26.91 
		334.787,30.07 335.099,33.23 336.021,36.269 337.517,39.07 339.531,41.524 341.986,43.539 344.787,45.036 347.825,45.958 
		350.985,46.269 	"/>
</g>
<g id="LWPOLYLINE_67_">
	<polyline fill="none" stroke="#00FFFF" stroke-width="0.7087" stroke-linecap="round" stroke-linejoin="round" points="
		250.193,100.265 253.354,99.954 256.393,99.032 259.193,97.535 261.647,95.521 263.662,93.065 265.159,90.265 266.081,87.227 
		266.393,84.066 266.081,80.906 265.159,77.867 263.662,75.066 261.647,72.612 259.193,70.598 256.393,69.101 253.354,68.179 
		250.193,67.867 	"/>
	<polyline fill="none" stroke="#00FFFF" stroke-width="0.7087" stroke-linecap="round" stroke-linejoin="round" points="
		250.193,67.867 247.033,68.179 243.995,69.101 241.194,70.598 238.739,72.612 236.725,75.066 235.228,77.867 234.306,80.906 
		233.995,84.066 234.306,87.227 235.228,90.265 236.725,93.065 238.739,95.521 241.194,97.535 243.995,99.032 247.033,99.954 
		250.193,100.265 	"/>
</g>
<g id="LWPOLYLINE_68_">
	<polyline fill="none" stroke="#00FFFF" stroke-width="0.7087" stroke-linecap="round" stroke-linejoin="round" points="
		250.193,46.269 253.354,45.958 256.393,45.036 259.193,43.539 261.647,41.524 263.662,39.07 265.159,36.269 266.081,33.23 
		266.393,30.07 266.081,26.91 265.159,23.871 263.662,21.071 261.647,18.616 259.193,16.602 256.393,15.104 253.354,14.183 
		250.193,13.872 	"/>
	<polyline fill="none" stroke="#00FFFF" stroke-width="0.7087" stroke-linecap="round" stroke-linejoin="round" points="
		250.193,13.872 247.033,14.183 243.995,15.104 241.194,16.602 238.739,18.616 236.725,21.071 235.228,23.871 234.306,26.91 
		233.995,30.07 234.306,33.23 235.228,36.269 236.725,39.07 238.739,41.524 241.194,43.539 243.995,45.036 247.033,45.958 
		250.193,46.269 	"/>
</g>
<g id="LWPOLYLINE_69_">
	<polyline fill="none" stroke="#00FFFF" stroke-width="0.7087" stroke-linecap="round" stroke-linejoin="round" points="
		451.778,33.67 453.534,33.497 455.222,32.985 456.778,32.153 458.142,31.034 459.261,29.67 460.093,28.114 460.604,26.426 
		460.777,24.67 460.604,22.915 460.093,21.227 459.261,19.671 458.142,18.307 456.778,17.188 455.222,16.356 453.534,15.844 
		451.778,15.671 	"/>
	<polyline fill="none" stroke="#00FFFF" stroke-width="0.7087" stroke-linecap="round" stroke-linejoin="round" points="
		451.778,15.671 450.022,15.844 448.334,16.356 446.778,17.188 445.415,18.307 444.296,19.671 443.464,21.227 442.952,22.915 
		442.779,24.67 442.952,26.426 443.464,28.114 444.296,29.67 445.415,31.034 446.778,32.153 448.334,32.985 450.022,33.497 
		451.778,33.67 	"/>
</g>
<g id="LWPOLYLINE_70_">
	<polyline fill="none" stroke="#00FFFF" stroke-width="0.7087" stroke-linecap="round" stroke-linejoin="round" points="
		43.209,96.665 44.965,96.492 46.653,95.98 48.209,95.148 49.573,94.029 50.692,92.666 51.523,91.109 52.036,89.422 52.208,87.666 
		52.036,85.91 51.523,84.222 50.692,82.666 49.573,81.303 48.209,80.184 46.653,79.352 44.965,78.84 43.209,78.667 	"/>
	<polyline fill="none" stroke="#00FFFF" stroke-width="0.7087" stroke-linecap="round" stroke-linejoin="round" points="
		43.209,78.667 41.454,78.84 39.765,79.352 38.209,80.184 36.846,81.303 35.727,82.666 34.895,84.222 34.383,85.91 34.21,87.666 
		34.383,89.422 34.895,91.109 35.727,92.666 36.846,94.029 38.209,95.148 39.765,95.98 41.454,96.492 43.209,96.665 	"/>
</g>
<g id="LWPOLYLINE_71_">
	<polyline fill="none" stroke="#00FFFF" stroke-width="0.7087" stroke-linecap="round" stroke-linejoin="round" points="
		183.599,91.266 185.354,91.093 187.042,90.58 188.598,89.749 189.962,88.63 191.081,87.266 191.913,85.71 192.425,84.021 
		192.598,82.267 192.425,80.511 191.913,78.822 191.081,77.267 189.962,75.902 188.598,74.783 187.042,73.952 185.354,73.439 
		183.599,73.267 	"/>
	<polyline fill="none" stroke="#00FFFF" stroke-width="0.7087" stroke-linecap="round" stroke-linejoin="round" points="
		183.599,73.267 181.843,73.439 180.155,73.952 178.599,74.783 177.235,75.902 176.116,77.267 175.284,78.822 174.772,80.511 
		174.599,82.267 174.772,84.021 175.284,85.71 176.116,87.266 177.235,88.63 178.599,89.749 180.155,90.58 181.843,91.093 
		183.599,91.266 	"/>
</g>
<g id="LWPOLYLINE_72_">
	<polyline fill="none" stroke="#00FFFF" stroke-width="0.7087" stroke-linecap="round" stroke-linejoin="round" points="
		72.007,93.065 73.763,92.893 75.451,92.38 77.007,91.549 78.371,90.43 79.49,89.065 80.321,87.51 80.833,85.821 81.006,84.066 
		80.833,82.311 80.321,80.622 79.49,79.066 78.371,77.702 77.007,76.583 75.451,75.752 73.763,75.239 72.007,75.066 	"/>
	<polyline fill="none" stroke="#00FFFF" stroke-width="0.7087" stroke-linecap="round" stroke-linejoin="round" points="
		72.007,75.066 70.251,75.239 68.563,75.752 67.007,76.583 65.644,77.702 64.524,79.066 63.692,80.622 63.181,82.311 63.008,84.066 
		63.181,85.821 63.692,87.51 64.524,89.065 65.644,90.43 67.007,91.549 68.563,92.38 70.251,92.893 72.007,93.065 	"/>
</g>
<g id="LWPOLYLINE_73_">
	<polyline fill="none" stroke="#00FFFF" stroke-width="0.7087" stroke-linecap="round" stroke-linejoin="round" points="
		10.812,65.168 11.514,65.099 12.189,64.894 12.812,64.561 13.357,64.113 13.805,63.567 14.137,62.945 14.342,62.271 14.411,61.567 
		14.342,60.865 14.137,60.19 13.805,59.568 13.357,59.022 12.812,58.575 12.189,58.242 11.514,58.037 10.812,57.968 	"/>
	<polyline fill="none" stroke="#00FFFF" stroke-width="0.7087" stroke-linecap="round" stroke-linejoin="round" points="
		10.812,57.968 10.109,58.037 9.434,58.242 8.812,58.575 8.266,59.022 7.818,59.568 7.486,60.19 7.281,60.865 7.212,61.567 
		7.281,62.271 7.486,62.945 7.818,63.567 8.266,64.113 8.812,64.561 9.434,64.894 10.109,65.099 10.812,65.168 	"/>
</g>
<g id="LWPOLYLINE_74_">
	<polyline fill="none" stroke="#00FFFF" stroke-width="0.7087" stroke-linecap="round" stroke-linejoin="round" points="
		350.985,46.269 354.146,45.958 357.185,45.036 359.985,43.539 362.44,41.524 364.454,39.07 365.951,36.269 366.873,33.23 
		367.185,30.07 366.873,26.91 365.951,23.871 364.454,21.071 362.44,18.616 359.985,16.602 357.185,15.104 354.146,14.183 
		350.985,13.872 	"/>
	<polyline fill="none" stroke="#00FFFF" stroke-width="0.7087" stroke-linecap="round" stroke-linejoin="round" points="
		350.985,13.872 347.825,14.183 344.787,15.104 341.986,16.602 339.531,18.616 337.517,21.071 336.021,23.871 335.099,26.91 
		334.787,30.07 335.099,33.23 336.021,36.269 337.517,39.07 339.531,41.524 341.986,43.539 344.787,45.036 347.825,45.958 
		350.985,46.269 	"/>
</g>
<g id="LWPOLYLINE_75_">
	<polyline fill="none" stroke="#00FFFF" stroke-width="0.7087" stroke-linecap="round" stroke-linejoin="round" points="
		401.382,100.265 404.542,99.954 407.581,99.032 410.382,97.535 412.836,95.521 414.851,93.065 416.348,90.265 417.27,87.227 
		417.581,84.066 417.27,80.906 416.348,77.867 414.851,75.066 412.836,72.612 410.382,70.598 407.581,69.101 404.542,68.179 
		401.382,67.867 	"/>
	<polyline fill="none" stroke="#00FFFF" stroke-width="0.7087" stroke-linecap="round" stroke-linejoin="round" points="
		401.382,67.867 398.222,68.179 395.183,69.101 392.383,70.598 389.928,72.612 387.913,75.066 386.416,77.867 385.494,80.906 
		385.184,84.066 385.494,87.227 386.416,90.265 387.913,93.065 389.928,95.521 392.383,97.535 395.183,99.032 398.222,99.954 
		401.382,100.265 	"/>
</g>
<g id="LWPOLYLINE_76_">
	<polyline fill="none" stroke="#00FFFF" stroke-width="0.7087" stroke-linecap="round" stroke-linejoin="round" points="
		485.976,65.168 486.678,65.099 487.354,64.894 487.976,64.561 488.521,64.113 488.969,63.567 489.302,62.945 489.506,62.271 
		489.575,61.567 489.506,60.865 489.302,60.19 488.969,59.568 488.521,59.022 487.976,58.575 487.354,58.242 486.678,58.037 
		485.976,57.968 	"/>
	<polyline fill="none" stroke="#00FFFF" stroke-width="0.7087" stroke-linecap="round" stroke-linejoin="round" points="
		485.976,57.968 485.273,58.037 484.598,58.242 483.976,58.575 483.431,59.022 482.982,59.568 482.649,60.19 482.445,60.865 
		482.376,61.567 482.445,62.271 482.649,62.945 482.982,63.567 483.431,64.113 483.976,64.561 484.598,64.894 485.273,65.099 
		485.976,65.168 	"/>
</g>
<g id="LINE" display="none">
	
		<line display="inline" fill="none" stroke="#000000" stroke-width="0.7087" stroke-linecap="round" stroke-linejoin="round" x1="250.193" y1="13.872" x2="250.193" y2="46.269"/>
</g>
<g id="LINE_1_" display="none">
	
		<line display="inline" fill="none" stroke="#000000" stroke-width="0.7087" stroke-linecap="round" stroke-linejoin="round" x1="250.193" y1="67.867" x2="250.193" y2="100.265"/>
</g>
<g id="LINE_2_" display="none">
	
		<line display="inline" fill="none" stroke="#000000" stroke-width="0.7087" stroke-linecap="round" stroke-linejoin="round" x1="34.21" y1="87.666" x2="52.208" y2="87.666"/>
</g>
<g id="LINE_3_" display="none">
	
		<line display="inline" fill="none" stroke="#000000" stroke-width="0.7087" stroke-linecap="round" stroke-linejoin="round" x1="63.008" y1="84.066" x2="81.006" y2="84.066"/>
</g>
<g id="LINE_4_" display="none">
	
		<line display="inline" fill="none" stroke="#000000" stroke-width="0.7087" stroke-linecap="round" stroke-linejoin="round" x1="171.719" y1="82.267" x2="195.478" y2="82.267"/>
</g>
<g id="LINE_5_" display="none">
	
		<line display="inline" fill="none" stroke="#000000" stroke-width="0.7087" stroke-linecap="round" stroke-linejoin="round" x1="250.193" y1="46.269" x2="250.193" y2="67.867"/>
</g>
<g id="LINE_6_" display="none">
	
		<line display="inline" fill="none" stroke="#000000" stroke-width="0.7087" stroke-linecap="round" stroke-linejoin="round" x1="300.59" y1="46.269" x2="300.59" y2="67.867"/>
</g>
<g id="LINE_7_" display="none">
	
		<line display="inline" fill="none" stroke="#000000" stroke-width="0.7087" stroke-linecap="round" stroke-linejoin="round" x1="350.985" y1="46.269" x2="350.985" y2="67.867"/>
</g>
<g id="LINE_8_" display="none">
	
		<line display="inline" fill="none" stroke="#000000" stroke-width="0.7087" stroke-linecap="round" stroke-linejoin="round" x1="401.382" y1="46.269" x2="401.382" y2="67.867"/>
</g>
<g id="LINE_9_">
	
		<line fill="none" stroke="#000000" stroke-linecap="round" stroke-linejoin="round" x1="216.957" y1="86.349" x2="213.356" y2="93.548"/>
</g>
<g id="LINE_10_">
	
		<line fill="none" stroke="#000000" stroke-linecap="round" stroke-linejoin="round" x1="213.356" y1="93.548" x2="220.556" y2="93.548"/>
</g>
<g id="LINE_11_">
	
		<line fill="none" stroke="#000000" stroke-linecap="round" stroke-linejoin="round" x1="220.556" y1="93.548" x2="216.957" y2="86.349"/>
</g>
<g id="LINE_12_" display="none">
	
		<line display="inline" fill="none" stroke="#000000" stroke-width="0.7087" stroke-linecap="round" stroke-linejoin="round" x1="233.995" y1="84.066" x2="266.393" y2="84.066"/>
</g>
<g id="TEXT">
	<text transform="matrix(1 0 0 1 225.0781 60.9932)" font-family="'CoreHumanistSans'" font-size="14">4</text>
</g>
<g id="TEXT_1_">
	<text transform="matrix(1 0 0 1 275.4746 60.9932)" font-family="'CoreHumanistSans'" font-size="14">3</text>
</g>
<g id="TEXT_2_">
	<text transform="matrix(1 0 0 1 325.8701 60.9932)" font-family="'CoreHumanistSans'" font-size="14">2</text>
</g>
<g id="TEXT_3_">
	<text transform="matrix(1 0 0 1 376.2666 60.9932)" font-family="'CoreHumanistSans'" font-size="14">1</text>
</g>
<g id="LINE_13_">
	
		<line fill="none" stroke="#000000" stroke-linecap="round" stroke-linejoin="round" x1="216.957" y1="28.15" x2="220.556" y2="20.951"/>
</g>
<g id="LINE_14_">
	
		<line fill="none" stroke="#000000" stroke-linecap="round" stroke-linejoin="round" x1="220.556" y1="20.951" x2="213.356" y2="20.951"/>
</g>
<g id="LINE_15_">
	
		<line fill="none" stroke="#000000" stroke-linecap="round" stroke-linejoin="round" x1="213.356" y1="20.951" x2="216.957" y2="28.15"/>
</g>
<g id="LINE_16_" display="none">
	
		<line display="inline" fill="none" stroke="#000000" stroke-width="0.7087" stroke-linecap="round" stroke-linejoin="round" x1="233.995" y1="30.07" x2="266.393" y2="30.07"/>
</g>
<g id="TEXT_4_">
	
		<text transform="matrix(1 0 0 1 449.4219 45.499)" stroke="#000000" stroke-width="0.25" font-family="'ArialMT'" font-size="10.5874">+</text>
</g>
<g id="TEXT_5_">
	
		<text transform="matrix(1 0 0 1 61.5508 108.7607)" stroke="#000000" stroke-width="0.25" font-family="'CoreHumanistSans'" font-size="8">9V DC</text>
</g>
<g id="TEXT_6_">
	
		<text transform="matrix(1 0 0 1 102.4771 108.7471)" stroke="#000000" stroke-width="0.25" font-family="'CoreHumanistSans'" font-size="8">DEVICE</text>
</g>
<g id="TEXT_7_">
	
		<text transform="matrix(1 0 0 1 140.9692 108.7471)" stroke="#000000" stroke-width="0.25" font-family="'CoreHumanistSans'" font-size="8">HOST</text>
</g>
<g id="TEXT_8_">
	
		<text transform="matrix(1 0 0 1 181.4185 108.7471)" stroke="#000000" stroke-width="0.25" font-family="'CoreHumanistSans'" font-size="8">II</text>
</g>
<g id="CIRCLE" display="none">
	<path display="inline" fill="none" stroke="#000000" stroke-width="0.7087" stroke-linecap="round" stroke-linejoin="round" d="
		M274.888,30.07c0-13.638-11.056-24.694-24.694-24.694c-13.638,0-24.694,11.056-24.694,24.694s11.056,24.694,24.694,24.694
		C263.832,54.764,274.888,43.708,274.888,30.07L274.888,30.07L274.888,30.07z"/>
</g>
<g id="CIRCLE_1_" display="none">
	<path display="inline" fill="none" stroke="#000000" stroke-width="0.7087" stroke-linecap="round" stroke-linejoin="round" d="
		M274.888,84.066c0-13.639-11.056-24.694-24.694-24.694c-13.638,0-24.694,11.056-24.694,24.694
		c0,13.638,11.056,24.693,24.694,24.693C263.832,108.76,274.888,97.704,274.888,84.066L274.888,84.066L274.888,84.066z"/>
</g>
<g id="CIRCLE_2_" display="none">
	<path display="inline" fill="none" stroke="#000000" stroke-width="0.7087" stroke-linecap="round" stroke-linejoin="round" d="
		M476.473,84.066c0-13.639-11.057-24.694-24.694-24.694c-13.639,0-24.694,11.056-24.694,24.694
		c0,13.638,11.056,24.693,24.694,24.693C465.416,108.76,476.473,97.704,476.473,84.066L476.473,84.066L476.473,84.066z"/>
</g>
<g id="ARC">
	<path fill="none" stroke="#000000" stroke-linecap="round" stroke-linejoin="round" d="M434.938,57.59
		c0-1.987-1.61-3.598-3.598-3.598s-3.598,1.611-3.598,3.598l0,0"/>
</g>
<g id="LINE_17_">
	
		<line fill="none" stroke="#000000" stroke-linecap="round" stroke-linejoin="round" x1="427.742" y1="61.188" x2="427.742" y2="57.59"/>
</g>
<g id="LINE_18_">
	
		<line fill="none" stroke="#000000" stroke-linecap="round" stroke-linejoin="round" x1="434.938" y1="61.188" x2="434.938" y2="57.59"/>
</g>
<g id="ARC_1_">
	<path fill="none" stroke="#000000" stroke-linecap="round" stroke-linejoin="round" d="M427.742,57.59
		c-0.994,0-1.8,0.806-1.8,1.799c0,0.994,0.806,1.8,1.8,1.8l0,0"/>
</g>
<g id="ARC_2_">
	<path fill="none" stroke="#000000" stroke-linecap="round" stroke-linejoin="round" d="M434.938,61.188
		c0.993,0,1.799-0.806,1.799-1.8c0-0.993-0.806-1.799-1.799-1.799l0,0"/>
</g>
<g id="CIRCLE_3_" display="none">
	<path display="inline" fill="none" stroke="#000000" stroke-width="0.7087" stroke-linecap="round" stroke-linejoin="round" d="
		M426.076,84.066c0-13.639-11.056-24.694-24.694-24.694c-13.638,0-24.694,11.056-24.694,24.694
		c0,13.638,11.057,24.693,24.694,24.693C415.021,108.76,426.076,97.704,426.076,84.066L426.076,84.066L426.076,84.066z"/>
</g>
<g id="CIRCLE_4_" display="none">
	<path display="inline" fill="none" stroke="#000000" stroke-width="0.7087" stroke-linecap="round" stroke-linejoin="round" d="
		M375.68,84.066c0-13.639-11.056-24.694-24.694-24.694c-13.638,0-24.693,11.056-24.693,24.694c0,13.638,11.056,24.693,24.693,24.693
		C364.624,108.76,375.68,97.704,375.68,84.066L375.68,84.066L375.68,84.066z"/>
</g>
<g id="CIRCLE_5_" display="none">
	<path display="inline" fill="none" stroke="#000000" stroke-width="0.7087" stroke-linecap="round" stroke-linejoin="round" d="
		M325.284,84.066c0-13.639-11.057-24.694-24.694-24.694c-13.639,0-24.694,11.056-24.694,24.694
		c0,13.638,11.056,24.693,24.694,24.693C314.228,108.76,325.284,97.704,325.284,84.066L325.284,84.066L325.284,84.066z"/>
</g>
<g id="TEXT_9_">
	
		<text transform="matrix(1 0 0 1 213.0273 37.2451)" stroke="#000000" stroke-width="0.25" font-family="'CoreHumanistSans'" font-size="8">IN</text>
</g>
<g id="TEXT_10_">
	
		<text transform="matrix(1 0 0 1 208.8555 81.6943)" stroke="#000000" stroke-width="0.25" font-family="'CoreHumanistSans'" font-size="8">OUT</text>
</g>
<rect x="25.575" y="16.154" fill="none" width="146.5" height="37.833"/>
<text transform="matrix(1 0 0 1 29.5322 47.3906)" font-family="'CoreHumanistSans'" font-size="48.5">ALEPH</text>
<circle fill="none" stroke="#000000" cx="43.393" cy="105.954" r="3.166"/>
<line fill="none" stroke="#000000" stroke-linecap="round" x1="43.375" y1="104.621" x2="43.375" y2="107.413"/>
<rect x="29.394" y="57.121" fill="none" width="81" height="16"/>
<text transform="matrix(1 0 0 1 29.3936 64.8496)" stroke="#000000" stroke-width="0.25" font-family="'CoreHumanistSans'" font-size="12">MONOME</text>
</svg>
