  0
SECTION
  2
HEADER
  9
$ACADVER
  1
AC1024
  9
$ACADMAINTVER
 70
     6
  9
$DWGCODEPAGE
  3
ASCII
  9
$INSBASE
 10
0.0
 20
0.0
 30
0.0
  9
$EXTMIN
 10
1.000000000000000E+20
 20
1.000000000000000E+20
 30
1.000000000000000E+20
  9
$EXTMAX
 10
-1.000000000000000E+20
 20
-1.000000000000000E+20
 30
-1.000000000000000E+20
  9
$LIMMIN
 10
0.0
 20
0.0
  9
$LIMMAX
 10
12.0
 20
9.0
  9
$ORTHOMODE
 70
     0
  9
$REGENMODE
 70
     1
  9
$FILLMODE
 70
     1
  9
$QTEXTMODE
 70
     0
  9
$MIRRTEXT
 70
     1
  9
$LTSCALE
 40
1.0
  9
$ATTMODE
 70
     1
  9
$TEXTSIZE
 40
0.2
  9
$TRACEWID
 40
0.05
  9
$TEXTSTYLE
  7
Standard
  9
$CLAYER
  8
0
  9
$CELTYPE
  6
ByLayer
  9
$CECOLOR
 62
   178
  9
$CELTSCALE
 40
1.0
  9
$DISPSILH
 70
     0
  9
$DIMSCALE
 40
1.0
  9
$DIMASZ
 40
2.5
  9
$DIMEXO
 40
0.625
  9
$DIMDLI
 40
0.38
  9
$DIMRND
 40
0.0
  9
$DIMDLE
 40
0.0
  9
$DIMEXE
 40
1.25
  9
$DIMTP
 40
0.0
  9
$DIMTM
 40
0.0
  9
$DIMTXT
 40
2.5
  9
$DIMCEN
 40
0.09
  9
$DIMTSZ
 40
0.0
  9
$DIMTOL
 70
     0
  9
$DIMLIM
 70
     0
  9
$DIMTIH
 70
     1
  9
$DIMTOH
 70
     1
  9
$DIMSE1
 70
     0
  9
$DIMSE2
 70
     0
  9
$DIMTAD
 70
     0
  9
$DIMZIN
 70
     8
  9
$DIMBLK
  1

  9
$DIMASO
 70
     1
  9
$DIMSHO
 70
     1
  9
$DIMPOST
  1

  9
$DIMAPOST
  1

  9
$DIMALT
 70
     0
  9
$DIMALTD
 70
     2
  9
$DIMALTF
 40
25.4
  9
$DIMLFAC
 40
1.0
  9
$DIMTOFL
 70
     0
  9
$DIMTVP
 40
0.0
  9
$DIMTIX
 70
     0
  9
$DIMSOXD
 70
     0
  9
$DIMSAH
 70
     0
  9
$DIMBLK1
  1

  9
$DIMBLK2
  1

  9
$DIMSTYLE
  2
Standard
  9
$DIMCLRD
 70
   178
  9
$DIMCLRE
 70
   178
  9
$DIMCLRT
 70
   178
  9
$DIMTFAC
 40
1.0
  9
$DIMGAP
 40
0.625
  9
$DIMJUST
 70
     0
  9
$DIMSD1
 70
     0
  9
$DIMSD2
 70
     0
  9
$DIMTOLJ
 70
     1
  9
$DIMTZIN
 70
     0
  9
$DIMALTZ
 70
     0
  9
$DIMALTTZ
 70
     0
  9
$DIMUPT
 70
     0
  9
$DIMDEC
 70
     4
  9
$DIMTDEC
 70
     4
  9
$DIMALTU
 70
     2
  9
$DIMALTTD
 70
     2
  9
$DIMTXSTY
  7
Standard
  9
$DIMAUNIT
 70
     0
  9
$DIMADEC
 70
     0
  9
$DIMALTRND
 40
0.0
  9
$DIMAZIN
 70
     2
  9
$DIMDSEP
 70
    46
  9
$DIMATFIT
 70
     3
  9
$DIMFRAC
 70
     0
  9
$DIMLDRBLK
  1

  9
$DIMLUNIT
 70
     2
  9
$DIMLWD
 70
    -2
  9
$DIMLWE
 70
    -2
  9
$DIMTMOVE
 70
     0
  9
$DIMFXL
 40
1.0
  9
$DIMFXLON
 70
     0
  9
$DIMJOGANG
 40
0.7853981633974483
  9
$DIMTFILL
 70
     0
  9
$DIMTFILLCLR
 70
     0
  9
$DIMARCSYM
 70
     0
  9
$DIMLTYPE
  6

  9
$DIMLTEX1
  6

  9
$DIMLTEX2
  6

  9
$DIMTXTDIRECTION
 70
     0
  9
$LUNITS
 70
     2
  9
$LUPREC
 70
     4
  9
$SKETCHINC
 40
0.1
  9
$FILLETRAD
 40
0.5
  9
$AUNITS
 70
     0
  9
$AUPREC
 70
     0
  9
$MENU
  1
.
  9
$ELEVATION
 40
0.0
  9
$PELEVATION
 40
0.0
  9
$THICKNESS
 40
0.0
  9
$LIMCHECK
 70
     0
  9
$CHAMFERA
 40
0.5
  9
$CHAMFERB
 40
0.5
  9
$CHAMFERC
 40
1.0
  9
$CHAMFERD
 40
0.0
  9
$SKPOLY
 70
     0
  9
$TDCREATE
 40
2456278.458124988
  9
$TDUCREATE
 40
2456278.791458333
  9
$TDUPDATE
 40
2456278.458124988
  9
$TDUUPDATE
 40
2456278.791458333
  9
$TDINDWG
 40
0.0000000116
  9
$TDUSRTIMER
 40
0.0000000116
  9
$USRTIMER
 70
     1
  9
$ANGBASE
 50
0.0
  9
$ANGDIR
 70
     0
  9
$PDMODE
 70
     0
  9
$PDSIZE
 40
0.0
  9
$PLINEWID
 40
0.0
  9
$SPLFRAME
 70
     0
  9
$SPLINETYPE
 70
     6
  9
$SPLINESEGS
 70
     8
  9
$HANDSEED
  5
205
  9
$SURFTAB1
 70
     6
  9
$SURFTAB2
 70
     6
  9
$SURFTYPE
 70
     6
  9
$SURFU
 70
     6
  9
$SURFV
 70
     6
  9
$UCSBASE
  2

  9
$UCSNAME
  2

  9
$UCSORG
 10
0.0
 20
0.0
 30
0.0
  9
$UCSXDIR
 10
1.0
 20
0.0
 30
0.0
  9
$UCSYDIR
 10
0.0
 20
1.0
 30
0.0
  9
$UCSORTHOREF
  2

  9
$UCSORTHOVIEW
 70
     0
  9
$UCSORGTOP
 10
0.0
 20
0.0
 30
0.0
  9
$UCSORGBOTTOM
 10
0.0
 20
0.0
 30
0.0
  9
$UCSORGLEFT
 10
0.0
 20
0.0
 30
0.0
  9
$UCSORGRIGHT
 10
0.0
 20
0.0
 30
0.0
  9
$UCSORGFRONT
 10
0.0
 20
0.0
 30
0.0
  9
$UCSORGBACK
 10
0.0
 20
0.0
 30
0.0
  9
$PUCSBASE
  2

  9
$PUCSNAME
  2

  9
$PUCSORG
 10
0.0
 20
0.0
 30
0.0
  9
$PUCSXDIR
 10
1.0
 20
0.0
 30
0.0
  9
$PUCSYDIR
 10
0.0
 20
1.0
 30
0.0
  9
$PUCSORTHOREF
  2

  9
$PUCSORTHOVIEW
 70
     0
  9
$PUCSORGTOP
 10
0.0
 20
0.0
 30
0.0
  9
$PUCSORGBOTTOM
 10
0.0
 20
0.0
 30
0.0
  9
$PUCSORGLEFT
 10
0.0
 20
0.0
 30
0.0
  9
$PUCSORGRIGHT
 10
0.0
 20
0.0
 30
0.0
  9
$PUCSORGFRONT
 10
0.0
 20
0.0
 30
0.0
  9
$PUCSORGBACK
 10
0.0
 20
0.0
 30
0.0
  9
$USERI1
 70
     0
  9
$USERI2
 70
     0
  9
$USERI3
 70
     0
  9
$USERI4
 70
     0
  9
$USERI5
 70
     0
  9
$USERR1
 40
0.0
  9
$USERR2
 40
0.0
  9
$USERR3
 40
0.0
  9
$USERR4
 40
0.0
  9
$USERR5
 40
0.0
  9
$WORLDVIEW
 70
     1
  9
$SHADEDGE
 70
     3
  9
$SHADEDIF
 70
    70
  9
$TILEMODE
 70
     1
  9
$MAXACTVP
 70
    64
  9
$PINSBASE
 10
0.0
 20
0.0
 30
0.0
  9
$PLIMCHECK
 70
     0
  9
$PEXTMIN
 10
1.000000000000000E+20
 20
1.000000000000000E+20
 30
1.000000000000000E+20
  9
$PEXTMAX
 10
-1.000000000000000E+20
 20
-1.000000000000000E+20
 30
-1.000000000000000E+20
  9
$PLIMMIN
 10
0.0
 20
0.0
  9
$PLIMMAX
 10
12.0
 20
9.0
  9
$UNITMODE
 70
     0
  9
$VISRETAIN
 70
     1
  9
$PLINEGEN
 70
     0
  9
$PSLTSCALE
 70
     1
  9
$TREEDEPTH
 70
  3020
  9
$CMLSTYLE
  2
Standard
  9
$CMLJUST
 70
     0
  9
$CMLSCALE
 40
1.0
  9
$PROXYGRAPHICS
 70
     1
  9
$MEASUREMENT
 70
     0
  9
$CELWEIGHT
370
    -1
  9
$ENDCAPS
280
     0
  9
$JOINSTYLE
280
     0
  9
$LWDISPLAY
290
     0
  9
$INSUNITS
 70
     1
  9
$HYPERLINKBASE
  1

  9
$STYLESHEET
  1

  9
$XEDIT
290
     1
  9
$CEPSNTYPE
380
     0
  9
$PSTYLEMODE
290
     1
  9
$FINGERPRINTGUID
  2
{E0473866-0278-8125-115F-767823ADA824}
  9
$VERSIONGUID
  2
{FAEB1C32-E019-11D5-929B-00C0DF256EC4}
  9
$EXTNAMES
290
     1
  9
$PSVPSCALE
 40
0.0
  9
$OLESTARTUP
290
     0
  9
$SORTENTS
280
   127
  9
$INDEXCTL
280
     0
  9
$HIDETEXT
280
     1
  9
$XCLIPFRAME
280
     2
  9
$HALOGAP
280
     0
  9
$OBSCOLOR
 70
   257
  9
$OBSLTYPE
280
     0
  9
$INTERSECTIONDISPLAY
280
     0
  9
$INTERSECTIONCOLOR
 70
   257
  9
$DIMASSOC
280
     2
  9
$PROJECTNAME
  1

  9
$CAMERADISPLAY
290
     0
  9
$LENSLENGTH
 40
50.0
  9
$CAMERAHEIGHT
 40
0.0
  9
$STEPSPERSEC
 40
2.0
  9
$STEPSIZE
 40
6.0
  9
$3DDWFPREC
 40
2.0
  9
$PSOLWIDTH
 40
0.25
  9
$PSOLHEIGHT
 40
4.0
  9
$LOFTANG1
 40
1.570796326794897
  9
$LOFTANG2
 40
1.570796326794897
  9
$LOFTMAG1
 40
0.0
  9
$LOFTMAG2
 40
0.0
  9
$LOFTPARAM
 70
     7
  9
$LOFTNORMALS
280
     1
  9
$LATITUDE
 40
37.795
  9
$LONGITUDE
 40
-122.394
  9
$NORTHDIRECTION
 40
0.0
  9
$TIMEZONE
 70
 -8000
  9
$LIGHTGLYPHDISPLAY
280
     1
  9
$TILEMODELIGHTSYNCH
280
     1
  9
$SOLIDHIST
280
     1
  9
$SHOWHIST
280
     1
  9
$DWFFRAME
280
     2
  9
$DGNFRAME
280
     2
  9
$REALWORLDSCALE
290
     1
  9
$INTERFERECOLOR
 62
   256
  9
$CSHADOW
280
     0
  9
$SHADOWPLANELOCATION
 40
0.0
  0
ENDSEC
  0
SECTION
  2
CLASSES
  0
CLASS
  1
ACDBDICTIONARYWDFLT
  2
AcDbDictionaryWithDefault
  3
ObjectDBX Classes
 90
        0
 91
        4
280
     0
281
     0
  0
CLASS
  1
VISUALSTYLE
  2
AcDbVisualStyle
  3
ObjectDBX Classes
 90
     4095
 91
        4
280
     0
281
     0
  0
CLASS
  1
MATERIAL
  2
AcDbMaterial
  3
ObjectDBX Classes
 90
     1153
 91
        4
280
     0
281
     0
  0
ENDSEC
  0
SECTION
  2
TABLES
  0
TABLE
  2
VPORT
  5
199
330
0
100
AcDbSymbolTable
 70
     1
  0
VPORT
  5
1B9
330
199
100
AcDbSymbolTableRecord
100
AcDbViewportTableRecord
  2
*Active
 70
     0
 10
0.0
 20
0.0
 11
1.0
 21
1.0
 12
10.42990654205607
 22
4.5
 13
0.0
 23
0.0
 14
0.5
 24
0.5
 15
0.5
 25
0.5
 16
0.0
 26
0.0
 36
1.0
 17
0.0
 27
0.0
 37
0.0
 40
9.0
 41
1.972972972850329
 42
50.0
 43
0.0
 44
0.0
 50
0.0
 51
0.0
 71
     0
 72
   100
 73
     1
 74
     3
 75
     0
 76
     0
 77
     0
 78
     0
281
     0
 65
     1
110
0.0
120
0.0
130
0.0
111
1.0
121
0.0
131
0.0
112
0.0
122
1.0
132
0.0
 79
     0
146
0.0
 60
     3
 61
     5
292
     1
282
     1
141
0.0
142
0.0
 63
   250
  0
ENDTAB
  0
TABLE
  2
LTYPE
  5
196
330
0
100
AcDbSymbolTable
 70
    19
  0
LTYPE
  5
1A4
330
196
100
AcDbSymbolTableRecord
100
AcDbLinetypeTableRecord
  2
ByBlock
 70
     0
  3

 72
    65
 73
     0
 40
0.0
  0
LTYPE
  5
1A5
330
196
100
AcDbSymbolTableRecord
100
AcDbLinetypeTableRecord
  2
ByLayer
 70
     0
  3

 72
    65
 73
     0
 40
0.0
  0
LTYPE
  5
1A6
330
196
100
AcDbSymbolTableRecord
100
AcDbLinetypeTableRecord
  2
Continuous
 70
     0
  3
Solid line
 72
    65
 73
     0
 40
0.0
  0
LTYPE
  5
1EC
330
196
100
AcDbSymbolTableRecord
100
AcDbLinetypeTableRecord
  2
BORDER
 70
     0
  3

 72
    65
 73
     6
 40
42.00000000000001
 49
12.0
 74
     0
 49
-6.0
 74
     0
 49
12.0
 74
     0
 49
-5.95
 74
     0
 49
0.1
 74
     0
 49
-5.95
 74
     0
  0
LTYPE
  5
1ED
330
196
100
AcDbSymbolTableRecord
100
AcDbLinetypeTableRecord
  2
BORDER2
 70
     0
  3

 72
    65
 73
     6
 40
21.0
 49
6.0
 74
     0
 49
-3.0
 74
     0
 49
6.0
 74
     0
 49
-2.95
 74
     0
 49
0.1
 74
     0
 49
-2.95
 74
     0
  0
LTYPE
  5
1EE
330
196
100
AcDbSymbolTableRecord
100
AcDbLinetypeTableRecord
  2
BORDERX2
 70
     0
  3

 72
    65
 73
     6
 40
84.0
 49
24.0
 74
     0
 49
-12.0
 74
     0
 49
24.0
 74
     0
 49
-11.95
 74
     0
 49
0.1
 74
     0
 49
-11.95
 74
     0
  0
LTYPE
  5
1EF
330
196
100
AcDbSymbolTableRecord
100
AcDbLinetypeTableRecord
  2
CENTER
 70
     0
  3

 72
    65
 73
     4
 40
50.0
 49
32.0
 74
     0
 49
-6.0
 74
     0
 49
6.0
 74
     0
 49
-6.0
 74
     0
  0
LTYPE
  5
1F0
330
196
100
AcDbSymbolTableRecord
100
AcDbLinetypeTableRecord
  2
CENTER2
 70
     0
  3

 72
    65
 73
     4
 40
25.0
 49
16.0
 74
     0
 49
-3.0
 74
     0
 49
3.0
 74
     0
 49
-3.0
 74
     0
  0
LTYPE
  5
1F1
330
196
100
AcDbSymbolTableRecord
100
AcDbLinetypeTableRecord
  2
CENTERX2
 70
     0
  3

 72
    65
 73
     4
 40
100.0
 49
64.0
 74
     0
 49
-12.0
 74
     0
 49
12.0
 74
     0
 49
-12.0
 74
     0
  0
LTYPE
  5
1F2
330
196
100
AcDbSymbolTableRecord
100
AcDbLinetypeTableRecord
  2
DASHDOT
 70
     0
  3

 72
    65
 73
     4
 40
24.0
 49
12.0
 74
     0
 49
-5.95
 74
     0
 49
0.1
 74
     0
 49
-5.95
 74
     0
  0
LTYPE
  5
1F3
330
196
100
AcDbSymbolTableRecord
100
AcDbLinetypeTableRecord
  2
DASHDOT2
 70
     0
  3

 72
    65
 73
     4
 40
12.0
 49
6.0
 74
     0
 49
-2.95
 74
     0
 49
0.1
 74
     0
 49
-2.95
 74
     0
  0
LTYPE
  5
1F4
330
196
100
AcDbSymbolTableRecord
100
AcDbLinetypeTableRecord
  2
DASHDOTX2
 70
     0
  3

 72
    65
 73
     4
 40
48.0
 49
24.0
 74
     0
 49
-11.95
 74
     0
 49
0.1
 74
     0
 49
-11.95
 74
     0
  0
LTYPE
  5
1F5
330
196
100
AcDbSymbolTableRecord
100
AcDbLinetypeTableRecord
  2
DASHED
 70
     0
  3

 72
    65
 73
     2
 40
18.0
 49
12.0
 74
     0
 49
-6.0
 74
     0
  0
LTYPE
  5
1F6
330
196
100
AcDbSymbolTableRecord
100
AcDbLinetypeTableRecord
  2
DASHED2
 70
     0
  3

 72
    65
 73
     2
 40
9.0
 49
6.0
 74
     0
 49
-3.0
 74
     0
  0
LTYPE
  5
1F7
330
196
100
AcDbSymbolTableRecord
100
AcDbLinetypeTableRecord
  2
DASHEDX2
 70
     0
  3

 72
    65
 73
     2
 40
36.0
 49
24.0
 74
     0
 49
-12.0
 74
     0
  0
LTYPE
  5
1F8
330
196
100
AcDbSymbolTableRecord
100
AcDbLinetypeTableRecord
  2
DIVIDE
 70
     0
  3

 72
    65
 73
     6
 40
29.99999999999999
 49
12.0
 74
     0
 49
-5.9
 74
     0
 49
0.15
 74
     0
 49
-5.9
 74
     0
 49
0.15
 74
     0
 49
-5.9
 74
     0
  0
LTYPE
  5
1F9
330
196
100
AcDbSymbolTableRecord
100
AcDbLinetypeTableRecord
  2
DIVIDE2
 70
     0
  3

 72
    65
 73
     6
 40
15.0
 49
6.0
 74
     0
 49
-2.9
 74
     0
 49
0.15
 74
     0
 49
-2.9
 74
     0
 49
0.15
 74
     0
 49
-2.9
 74
     0
  0
LTYPE
  5
1FA
330
196
100
AcDbSymbolTableRecord
100
AcDbLinetypeTableRecord
  2
DIVIDEX2
 70
     0
  3

 72
    65
 73
     6
 40
59.99999999999999
 49
24.0
 74
     0
 49
-11.9
 74
     0
 49
0.15
 74
     0
 49
-11.9
 74
     0
 49
0.15
 74
     0
 49
-11.9
 74
     0
  0
LTYPE
  5
1FB
330
196
100
AcDbSymbolTableRecord
100
AcDbLinetypeTableRecord
  2
DOT
 70
     0
  3

 72
    65
 73
     2
 40
6.3
 49
0.1
 74
     0
 49
-6.2
 74
     0
  0
LTYPE
  5
1FC
330
196
100
AcDbSymbolTableRecord
100
AcDbLinetypeTableRecord
  2
DOT2
 70
     0
  3

 72
    65
 73
     2
 40
3.2
 49
0.1
 74
     0
 49
-3.1
 74
     0
  0
LTYPE
  5
1FD
330
196
100
AcDbSymbolTableRecord
100
AcDbLinetypeTableRecord
  2
DOTX2
 70
     0
  3

 72
    65
 73
     2
 40
12.5
 49
0.1
 74
     0
 49
-12.4
 74
     0
  0
ENDTAB
  0
TABLE
  2
LAYER
  5
193
330
0
100
AcDbSymbolTable
 70
     6
  0
LAYER
  5
1A1
330
193
100
AcDbSymbolTableRecord
100
AcDbLayerTableRecord
  2
0
 70
     4
 62
     7
420
 16777215
  6
Continuous
370
    25
390
1A0
347
1CE
  0
LAYER
  5
1FE
330
193
100
AcDbSymbolTableRecord
100
AcDbLayerTableRecord
  2
pcb
 70
     1
 62
   178
420
        0
  6
Continuous
370
    25
390
1A0
347
1CE
  0
LAYER
  5
1FF
330
193
100
AcDbSymbolTableRecord
100
AcDbLayerTableRecord
  2
screen
 70
     0
 62
   178
420
        0
  6
DASHED
370
     0
390
1A0
347
1CE
  0
LAYER
  5
200
330
193
100
AcDbSymbolTableRecord
100
AcDbLayerTableRecord
  2
top
 70
     0
 62
   178
420
        0
  6
Continuous
370
     0
390
1A0
347
1CE
  0
LAYER
  5
201
330
193
100
AcDbSymbolTableRecord
100
AcDbLayerTableRecord
  2
guides
 70
     1
 62
   178
420
        0
  6
Continuous
370
    25
390
1A0
347
1CE
  0
LAYER
  5
202
330
193
100
AcDbSymbolTableRecord
100
AcDbLayerTableRecord
  2
etch
 70
     0
 62
   178
420
        0
  6
Continuous
370
     0
390
1A0
347
1CE
  0
ENDTAB
  0
TABLE
  2
STYLE
  5
194
330
0
100
AcDbSymbolTable
 70
     1
  0
STYLE
  5
1A2
330
194
100
AcDbSymbolTableRecord
100
AcDbTextStyleTableRecord
  2
Standard
 70
     0
 40
0.0
 41
1.0
 50
0.0
 71
     0
 42
0.2
  3
txt
  4

  0
ENDTAB
  0
TABLE
  2
VIEW
  5
197
330
0
100
AcDbSymbolTable
 70
     0
  0
ENDTAB
  0
TABLE
  2
UCS
  5
198
330
0
100
AcDbSymbolTable
 70
     0
  0
ENDTAB
  0
TABLE
  2
APPID
  5
19A
330
0
100
AcDbSymbolTable
 70
     2
  0
APPID
  5
1A3
330
19A
100
AcDbSymbolTableRecord
100
AcDbRegAppTableRecord
  2
ACAD
 70
     0
  0
APPID
  5
1CF
330
19A
100
AcDbSymbolTableRecord
100
AcDbRegAppTableRecord
  2
QCAD
 70
     0
  0
ENDTAB
  0
TABLE
  2
DIMSTYLE
  5
19B
330
0
100
AcDbSymbolTable
 70
     2
100
AcDbDimStyleTable
  0
DIMSTYLE
105
1B7
330
19B
100
AcDbSymbolTableRecord
100
AcDbDimStyleTableRecord
  2
Standard
 70
     0
178
     0
340
1A2
  0
DIMSTYLE
105
1EB
330
19B
100
AcDbSymbolTableRecord
100
AcDbDimStyleTableRecord
  2
QCADDimStyle
 70
     0
 41
2.5
 42
0.625
 44
1.25
 73
     0
 77
     1
140
2.5
147
0.625
178
     0
340
1A2
  0
ENDTAB
  0
TABLE
  2
BLOCK_RECORD
  5
192
330
0
100
AcDbSymbolTable
 70
     1
  0
BLOCK_RECORD
  5
1AF
330
192
100
AcDbSymbolTableRecord
100
AcDbBlockTableRecord
  2
*Model_Space
340
1B2
 70
     0
280
     1
281
     0
  0
BLOCK_RECORD
  5
1AB
330
192
100
AcDbSymbolTableRecord
100
AcDbBlockTableRecord
  2
*Paper_Space
340
1AE
 70
     0
280
     1
281
     0
  0
BLOCK_RECORD
  5
1B3
330
192
100
AcDbSymbolTableRecord
100
AcDbBlockTableRecord
  2
*Paper_Space0
340
1B6
 70
     0
280
     1
281
     0
  0
ENDTAB
  0
ENDSEC
  0
SECTION
  2
BLOCKS
  0
BLOCK
  5
1B0
330
1AF
100
AcDbEntity
  8
0
100
AcDbBlockBegin
  2
*Model_Space
 70
     0
 10
0.0
 20
0.0
 30
0.0
  3
*Model_Space
  1

  0
ENDBLK
  5
1B1
330
1AF
100
AcDbEntity
  8
0
100
AcDbBlockEnd
  0
BLOCK
  5
1AC
330
1AB
100
AcDbEntity
 67
     1
  8
0
100
AcDbBlockBegin
  2
*Paper_Space
 70
     0
 10
0.0
 20
0.0
 30
0.0
  3
*Paper_Space
  1

  0
ENDBLK
  5
1AD
330
1AB
100
AcDbEntity
 67
     1
  8
0
100
AcDbBlockEnd
  0
BLOCK
  5
1B4
330
1B3
100
AcDbEntity
  8
0
100
AcDbBlockBegin
  2
*Paper_Space0
 70
     0
 10
0.0
 20
0.0
 30
0.0
  3
*Paper_Space0
  1

  0
ENDBLK
  5
1B5
330
1B3
100
AcDbEntity
  8
0
100
AcDbBlockEnd
  0
ENDSEC
  0
SECTION
  2
ENTITIES
  0
LINE
  5
1D
330
1AF
100
AcDbEntity
  8
pcb
100
AcDbLine
 10
0.0
 20
0.0
 30
0.0
 11
6.8
 21
0.0
 31
0.0
  0
LINE
  5
1E
330
1AF
100
AcDbEntity
  8
pcb
100
AcDbLine
 10
6.8
 20
0.0
 30
0.0
 11
6.8
 21
4.4
 31
0.0
  0
LINE
  5
1F
330
1AF
100
AcDbEntity
  8
pcb
100
AcDbLine
 10
6.8
 20
4.4
 30
0.0
 11
0.0
 21
4.4
 31
0.0
  0
LINE
  5
20
330
1AF
100
AcDbEntity
  8
pcb
100
AcDbLine
 10
0.0
 20
4.4
 30
0.0
 11
0.0
 21
0.0
 31
0.0
  0
CIRCLE
  5
21
330
1AF
100
AcDbEntity
  8
pcb
100
AcDbCircle
 10
0.1
 20
0.1
 30
0.0
 40
0.065
  0
CIRCLE
  5
22
330
1AF
100
AcDbEntity
  8
pcb
100
AcDbCircle
 10
0.1
 20
4.3
 30
0.0
 40
0.065
  0
CIRCLE
  5
23
330
1AF
100
AcDbEntity
  8
pcb
100
AcDbCircle
 10
6.7
 20
4.3
 30
0.0
 40
0.065
  0
CIRCLE
  5
24
330
1AF
100
AcDbEntity
  8
pcb
100
AcDbCircle
 10
6.7
 20
0.1
 30
0.0
 40
0.065
  0
LINE
  5
25
330
1AF
100
AcDbEntity
  8
0
100
AcDbLine
 10
-0.2
 20
4.600000000000001
 30
0.0
 11
-0.2
 21
-0.2
 31
0.0
  0
LINE
  5
26
330
1AF
100
AcDbEntity
  8
0
100
AcDbLine
 10
7.0
 20
4.600000000000001
 30
0.0
 11
-0.2
 21
4.600000000000001
 31
0.0
  0
LINE
  5
27
330
1AF
100
AcDbEntity
  8
0
100
AcDbLine
 10
7.0
 20
-0.2
 30
0.0
 11
7.0
 21
4.600000000000001
 31
0.0
  0
LINE
  5
28
330
1AF
100
AcDbEntity
  8
0
100
AcDbLine
 10
-0.2
 20
-0.2
 30
0.0
 11
7.0
 21
-0.2
 31
0.0
  0
LINE
  5
29
330
1AF
100
AcDbEntity
  8
top
100
AcDbLine
 10
0.35
 20
0.6000000000000001
 30
0.0
 11
3.250000000000001
 21
0.6000000000000001
 31
0.0
  0
LINE
  5
2A
330
1AF
100
AcDbEntity
  8
top
100
AcDbLine
 10
3.3
 20
0.6500000000000001
 30
0.0
 11
3.3
 21
2.350000000000001
 31
0.0
  0
LINE
  5
2B
330
1AF
100
AcDbEntity
  8
top
100
AcDbLine
 10
3.25
 20
2.4
 30
0.0
 11
0.3499999999999996
 21
2.4
 31
0.0
  0
LINE
  5
2C
330
1AF
100
AcDbEntity
  8
top
100
AcDbLine
 10
0.3
 20
2.350000000000001
 30
0.0
 11
0.3
 21
0.6500000000000004
 31
0.0
  0
CIRCLE
  5
2D
330
1AF
100
AcDbEntity
  8
top
100
AcDbCircle
 10
4.653589838486226
 20
0.7000000000000004
 30
0.0
 40
0.2
  0
CIRCLE
  5
2E
330
1AF
100
AcDbEntity
  8
top
100
AcDbCircle
 10
6.039230484541331
 20
0.7
 30
0.0
 40
0.2
  0
CIRCLE
  5
2F
330
1AF
100
AcDbEntity
  8
top
100
AcDbCircle
 10
3.960769515458676
 20
1.900000000000001
 30
0.0
 40
0.2
  0
CIRCLE
  5
30
330
1AF
100
AcDbEntity
  8
top
100
AcDbCircle
 10
5.346410161513781
 20
1.900000000000002
 30
0.0
 40
0.2
  0
ARC
  5
36
330
1AF
100
AcDbEntity
  8
top
100
AcDbCircle
 10
-0.2
 20
4.600000000000001
 30
0.0
 40
0.0
100
AcDbArc
 50
0.0
 51
0.0
  0
ARC
  5
37
330
1AF
100
AcDbEntity
  8
top
100
AcDbCircle
 10
7.0
 20
4.600000000000001
 30
0.0
 40
0.0
100
AcDbArc
 50
0.0
 51
0.0
  0
ARC
  5
38
330
1AF
100
AcDbEntity
  8
top
100
AcDbCircle
 10
7.0
 20
-0.2
 30
0.0
 40
0.0
100
AcDbArc
 50
0.0
 51
0.0
  0
ARC
  5
39
330
1AF
100
AcDbEntity
  8
top
100
AcDbCircle
 10
-0.2
 20
-0.2
 30
0.0
 40
0.0
100
AcDbArc
 50
0.0
 51
0.0
  0
LINE
  5
44
330
1AF
100
AcDbEntity
  8
etch
100
AcDbLine
 10
3.55
 20
2.4
 30
0.0
 11
6.450000000000001
 21
2.4
 31
0.0
  0
LINE
  5
45
330
1AF
100
AcDbEntity
  8
etch
100
AcDbLine
 10
6.5
 20
2.350000000000001
 30
0.0
 11
6.5
 21
0.25
 31
0.0
  0
LINE
  5
46
330
1AF
100
AcDbEntity
  8
etch
100
AcDbLine
 10
6.45
 20
0.2
 30
0.0
 11
3.549999999999999
 21
0.2
 31
0.0
  0
LINE
  5
47
330
1AF
100
AcDbEntity
  8
etch
100
AcDbLine
 10
3.5
 20
0.25
 30
0.0
 11
3.5
 21
2.350000000000001
 31
0.0
  0
LINE
  5
4A
330
1AF
100
AcDbEntity
  8
etch
100
AcDbLine
 10
0.5750000000000002
 20
0.8750000000000003
 30
0.0
 11
3.025
 21
0.8750000000000003
 31
0.0
  0
LINE
  5
4B
330
1AF
100
AcDbEntity
  8
etch
100
AcDbLine
 10
3.025
 20
0.8750000000000003
 30
0.0
 11
3.025
 21
2.125
 31
0.0
  0
LINE
  5
4C
330
1AF
100
AcDbEntity
  8
etch
100
AcDbLine
 10
3.025
 20
2.125
 30
0.0
 11
0.5750000000000002
 21
2.125
 31
0.0
  0
LINE
  5
4D
330
1AF
100
AcDbEntity
  8
etch
100
AcDbLine
 10
0.5750000000000002
 20
2.125
 30
0.0
 11
0.5750000000000002
 21
0.8750000000000003
 31
0.0
  0
LINE
  5
70
330
1AF
100
AcDbEntity
  8
guides
100
AcDbLine
 10
4.960769515458676
 20
0.1679491924311247
 30
0.0
 11
3.960769515458676
 21
1.900000000000002
 31
0.0
  0
LINE
  5
7C
330
1AF
100
AcDbEntity
  8
guides
100
AcDbLine
 10
5.653589838486226
 20
2.432050807568878
 30
0.0
 11
4.653589838486226
 21
0.7000000000000004
 31
0.0
  0
LINE
  5
7D
330
1AF
100
AcDbEntity
  8
guides
100
AcDbLine
 10
6.346410161513781
 20
0.1679491924311247
 30
0.0
 11
5.346410161513781
 21
1.900000000000002
 31
0.0
  0
LINE
  5
8E
330
1AF
100
AcDbEntity
  8
guides
100
AcDbLine
 10
3.960769515458676
 20
1.900000000000001
 30
0.0
 11
6.039230484541331
 21
1.900000000000001
 31
0.0
  0
LINE
  5
8F
330
1AF
100
AcDbEntity
  8
guides
100
AcDbLine
 10
6.039230484541331
 20
1.900000000000001
 30
0.0
 11
6.039230484541331
 21
0.7
 31
0.0
  0
LINE
  5
90
330
1AF
100
AcDbEntity
  8
guides
100
AcDbLine
 10
6.039230484541331
 20
0.7
 30
0.0
 11
3.960769515458676
 21
0.7
 31
0.0
  0
LINE
  5
91
330
1AF
100
AcDbEntity
  8
guides
100
AcDbLine
 10
3.960769515458676
 20
0.7
 30
0.0
 11
3.960769515458676
 21
1.900000000000001
 31
0.0
  0
LINE
  5
92
330
1AF
100
AcDbEntity
  8
guides
100
AcDbLine
 10
5.000000000000004
 20
1.900000000000001
 30
0.0
 11
5.000000000000004
 21
0.7
 31
0.0
  0
LINE
  5
93
330
1AF
100
AcDbEntity
  8
guides
100
AcDbLine
 10
3.960769515458676
 20
1.3
 30
0.0
 11
6.039230484541331
 21
1.3
 31
0.0
  0
LINE
  5
94
330
1AF
100
AcDbEntity
  8
guides
100
AcDbLine
 10
3.5
 20
0.2
 30
0.0
 11
6.5
 21
2.4
 31
0.0
  0
LINE
  5
95
330
1AF
100
AcDbEntity
  8
guides
100
AcDbLine
 10
3.5
 20
2.4
 30
0.0
 11
6.5
 21
0.2
 31
0.0
  0
LINE
  5
96
330
1AF
100
AcDbEntity
  8
etch
100
AcDbLine
 10
0.35
 20
0.2
 30
0.0
 11
0.8500000000000001
 21
0.2
 31
0.0
  0
LINE
  5
97
330
1AF
100
AcDbEntity
  8
etch
100
AcDbLine
 10
0.9
 20
0.2500000000000001
 30
0.0
 11
0.9
 21
0.35
 31
0.0
  0
LINE
  5
98
330
1AF
100
AcDbEntity
  8
etch
100
AcDbLine
 10
0.85
 20
0.4
 30
0.0
 11
0.3500000000000001
 21
0.4
 31
0.0
  0
LINE
  5
99
330
1AF
100
AcDbEntity
  8
etch
100
AcDbLine
 10
0.3
 20
0.3500000000000001
 30
0.0
 11
0.3
 21
0.25
 31
0.0
  0
LINE
  5
9A
330
1AF
100
AcDbEntity
  8
etch
100
AcDbLine
 10
2.75
 20
0.2
 30
0.0
 11
3.250000000000001
 21
0.2
 31
0.0
  0
LINE
  5
9B
330
1AF
100
AcDbEntity
  8
etch
100
AcDbLine
 10
3.3
 20
0.25
 30
0.0
 11
3.3
 21
0.35
 31
0.0
  0
LINE
  5
9C
330
1AF
100
AcDbEntity
  8
etch
100
AcDbLine
 10
3.25
 20
0.4
 30
0.0
 11
2.75
 21
0.4
 31
0.0
  0
LINE
  5
9D
330
1AF
100
AcDbEntity
  8
etch
100
AcDbLine
 10
2.7
 20
0.3500000000000001
 30
0.0
 11
2.7
 21
0.25
 31
0.0
  0
LINE
  5
9E
330
1AF
100
AcDbEntity
  8
etch
100
AcDbLine
 10
1.15
 20
0.2
 30
0.0
 11
1.65
 21
0.2
 31
0.0
  0
LINE
  5
9F
330
1AF
100
AcDbEntity
  8
etch
100
AcDbLine
 10
1.7
 20
0.25
 30
0.0
 11
1.7
 21
0.3500000000000001
 31
0.0
  0
LINE
  5
A0
330
1AF
100
AcDbEntity
  8
etch
100
AcDbLine
 10
1.65
 20
0.4
 30
0.0
 11
1.15
 21
0.4
 31
0.0
  0
LINE
  5
A1
330
1AF
100
AcDbEntity
  8
etch
100
AcDbLine
 10
1.1
 20
0.35
 30
0.0
 11
1.1
 21
0.2500000000000001
 31
0.0
  0
LINE
  5
A2
330
1AF
100
AcDbEntity
  8
etch
100
AcDbLine
 10
1.95
 20
0.2
 30
0.0
 11
2.45
 21
0.2
 31
0.0
  0
LINE
  5
A3
330
1AF
100
AcDbEntity
  8
etch
100
AcDbLine
 10
2.5
 20
0.25
 30
0.0
 11
2.5
 21
0.35
 31
0.0
  0
LINE
  5
A4
330
1AF
100
AcDbEntity
  8
etch
100
AcDbLine
 10
2.45
 20
0.4
 30
0.0
 11
1.95
 21
0.4
 31
0.0
  0
LINE
  5
A5
330
1AF
100
AcDbEntity
  8
etch
100
AcDbLine
 10
1.9
 20
0.35
 30
0.0
 11
1.9
 21
0.25
 31
0.0
  0
LINE
  5
A6
330
1AF
100
AcDbEntity
  8
etch
100
AcDbLine
 10
0.35
 20
4.4
 30
0.0
 11
0.75
 21
4.4
 31
0.0
  0
LINE
  5
A7
330
1AF
100
AcDbEntity
  8
etch
100
AcDbLine
 10
0.75
 20
4.4
 30
0.0
 11
0.75
 21
4.700000000000001
 31
0.0
  0
LINE
  5
A8
330
1AF
100
AcDbEntity
  8
etch
100
AcDbLine
 10
0.75
 20
4.700000000000001
 30
0.0
 11
0.35
 21
4.700000000000001
 31
0.0
  0
LINE
  5
A9
330
1AF
100
AcDbEntity
  8
etch
100
AcDbLine
 10
0.35
 20
4.700000000000001
 30
0.0
 11
0.35
 21
4.4
 31
0.0
  0
LINE
  5
AA
330
1AF
100
AcDbEntity
  8
etch
100
AcDbLine
 10
1.05
 20
4.4
 30
0.0
 11
1.45
 21
4.4
 31
0.0
  0
LINE
  5
AB
330
1AF
100
AcDbEntity
  8
etch
100
AcDbLine
 10
1.45
 20
4.4
 30
0.0
 11
1.45
 21
4.700000000000001
 31
0.0
  0
LINE
  5
AC
330
1AF
100
AcDbEntity
  8
etch
100
AcDbLine
 10
1.45
 20
4.700000000000001
 30
0.0
 11
1.05
 21
4.700000000000001
 31
0.0
  0
LINE
  5
AD
330
1AF
100
AcDbEntity
  8
etch
100
AcDbLine
 10
1.05
 20
4.700000000000001
 30
0.0
 11
1.05
 21
4.4
 31
0.0
  0
LINE
  5
AE
330
1AF
100
AcDbEntity
  8
etch
100
AcDbLine
 10
1.75
 20
4.4
 30
0.0
 11
2.15
 21
4.4
 31
0.0
  0
LINE
  5
AF
330
1AF
100
AcDbEntity
  8
etch
100
AcDbLine
 10
2.15
 20
4.4
 30
0.0
 11
2.15
 21
4.700000000000001
 31
0.0
  0
LINE
  5
B0
330
1AF
100
AcDbEntity
  8
etch
100
AcDbLine
 10
2.15
 20
4.700000000000001
 30
0.0
 11
1.75
 21
4.700000000000001
 31
0.0
  0
LINE
  5
B1
330
1AF
100
AcDbEntity
  8
etch
100
AcDbLine
 10
1.75
 20
4.700000000000001
 30
0.0
 11
1.75
 21
4.4
 31
0.0
  0
LINE
  5
B2
330
1AF
100
AcDbEntity
  8
etch
100
AcDbLine
 10
2.45
 20
4.4
 30
0.0
 11
2.85
 21
4.4
 31
0.0
  0
LINE
  5
B3
330
1AF
100
AcDbEntity
  8
etch
100
AcDbLine
 10
2.85
 20
4.4
 30
0.0
 11
2.85
 21
4.700000000000001
 31
0.0
  0
LINE
  5
B4
330
1AF
100
AcDbEntity
  8
etch
100
AcDbLine
 10
2.85
 20
4.700000000000001
 30
0.0
 11
2.45
 21
4.700000000000001
 31
0.0
  0
LINE
  5
B5
330
1AF
100
AcDbEntity
  8
etch
100
AcDbLine
 10
2.45
 20
4.700000000000001
 30
0.0
 11
2.45
 21
4.4
 31
0.0
  0
LINE
  5
B6
330
1AF
100
AcDbEntity
  8
etch
100
AcDbLine
 10
3.15
 20
4.4
 30
0.0
 11
3.55
 21
4.4
 31
0.0
  0
LINE
  5
B7
330
1AF
100
AcDbEntity
  8
etch
100
AcDbLine
 10
3.55
 20
4.4
 30
0.0
 11
3.55
 21
4.700000000000001
 31
0.0
  0
LINE
  5
B8
330
1AF
100
AcDbEntity
  8
etch
100
AcDbLine
 10
3.55
 20
4.700000000000001
 30
0.0
 11
3.15
 21
4.700000000000001
 31
0.0
  0
LINE
  5
B9
330
1AF
100
AcDbEntity
  8
etch
100
AcDbLine
 10
3.15
 20
4.700000000000001
 30
0.0
 11
3.15
 21
4.4
 31
0.0
  0
LINE
  5
BA
330
1AF
100
AcDbEntity
  8
etch
100
AcDbLine
 10
6.1
 20
4.4
 30
0.0
 11
6.4
 21
4.4
 31
0.0
  0
LINE
  5
BB
330
1AF
100
AcDbEntity
  8
etch
100
AcDbLine
 10
6.4
 20
4.4
 30
0.0
 11
6.4
 21
4.700000000000001
 31
0.0
  0
LINE
  5
BC
330
1AF
100
AcDbEntity
  8
etch
100
AcDbLine
 10
6.4
 20
4.700000000000001
 30
0.0
 11
6.1
 21
4.700000000000001
 31
0.0
  0
LINE
  5
BD
330
1AF
100
AcDbEntity
  8
etch
100
AcDbLine
 10
6.1
 20
4.700000000000001
 30
0.0
 11
6.1
 21
4.4
 31
0.0
  0
LINE
  5
BE
330
1AF
100
AcDbEntity
  8
etch
100
AcDbLine
 10
5.687500000000001
 20
4.4
 30
0.0
 11
6.0125
 21
4.4
 31
0.0
  0
LINE
  5
BF
330
1AF
100
AcDbEntity
  8
etch
100
AcDbLine
 10
6.0125
 20
4.4
 30
0.0
 11
6.0125
 21
4.700000000000001
 31
0.0
  0
LINE
  5
C0
330
1AF
100
AcDbEntity
  8
etch
100
AcDbLine
 10
6.0125
 20
4.700000000000001
 30
0.0
 11
5.687500000000001
 21
4.700000000000001
 31
0.0
  0
LINE
  5
C1
330
1AF
100
AcDbEntity
  8
etch
100
AcDbLine
 10
5.687500000000001
 20
4.700000000000001
 30
0.0
 11
5.687500000000001
 21
4.4
 31
0.0
  0
LINE
  5
C2
330
1AF
100
AcDbEntity
  8
etch
100
AcDbLine
 10
5.0875
 20
4.4
 30
0.0
 11
5.512500000000001
 21
4.4
 31
0.0
  0
LINE
  5
C3
330
1AF
100
AcDbEntity
  8
etch
100
AcDbLine
 10
5.512500000000001
 20
4.4
 30
0.0
 11
5.512500000000001
 21
4.700000000000001
 31
0.0
  0
LINE
  5
C4
330
1AF
100
AcDbEntity
  8
etch
100
AcDbLine
 10
5.512500000000001
 20
4.700000000000001
 30
0.0
 11
5.0875
 21
4.700000000000001
 31
0.0
  0
LINE
  5
C5
330
1AF
100
AcDbEntity
  8
etch
100
AcDbLine
 10
5.0875
 20
4.700000000000001
 30
0.0
 11
5.0875
 21
4.4
 31
0.0
  0
LINE
  5
C6
330
1AF
100
AcDbEntity
  8
etch
100
AcDbLine
 10
4.737500000000001
 20
4.4
 30
0.0
 11
4.962500000000001
 21
4.4
 31
0.0
  0
LINE
  5
C7
330
1AF
100
AcDbEntity
  8
etch
100
AcDbLine
 10
4.962500000000001
 20
4.4
 30
0.0
 11
4.962500000000001
 21
4.700000000000001
 31
0.0
  0
LINE
  5
C8
330
1AF
100
AcDbEntity
  8
etch
100
AcDbLine
 10
4.962500000000001
 20
4.700000000000001
 30
0.0
 11
4.737500000000001
 21
4.700000000000001
 31
0.0
  0
LINE
  5
C9
330
1AF
100
AcDbEntity
  8
etch
100
AcDbLine
 10
4.737500000000001
 20
4.700000000000001
 30
0.0
 11
4.737500000000001
 21
4.4
 31
0.0
  0
LINE
  5
CA
330
1AF
100
AcDbEntity
  8
etch
100
AcDbLine
 10
4.25
 20
4.399999999999999
 30
0.0
 11
4.550000000000002
 21
4.399999999999999
 31
0.0
  0
LINE
  5
CB
330
1AF
100
AcDbEntity
  8
etch
100
AcDbLine
 10
4.550000000000002
 20
4.399999999999999
 30
0.0
 11
4.550000000000002
 21
4.7
 31
0.0
  0
LINE
  5
CC
330
1AF
100
AcDbEntity
  8
etch
100
AcDbLine
 10
4.550000000000002
 20
4.7
 30
0.0
 11
4.25
 21
4.7
 31
0.0
  0
LINE
  5
CD
330
1AF
100
AcDbEntity
  8
etch
100
AcDbLine
 10
4.25
 20
4.7
 30
0.0
 11
4.25
 21
4.399999999999999
 31
0.0
  0
LINE
  5
CE
330
1AF
100
AcDbEntity
  8
etch
100
AcDbLine
 10
0.35
 20
3.1
 30
0.0
 11
0.75
 21
3.1
 31
0.0
  0
LINE
  5
CF
330
1AF
100
AcDbEntity
  8
etch
100
AcDbLine
 10
0.8
 20
3.15
 30
0.0
 11
0.8
 21
3.95
 31
0.0
  0
LINE
  5
D0
330
1AF
100
AcDbEntity
  8
etch
100
AcDbLine
 10
0.75
 20
4.0
 30
0.0
 11
0.35
 21
4.0
 31
0.0
  0
LINE
  5
D1
330
1AF
100
AcDbEntity
  8
etch
100
AcDbLine
 10
0.3
 20
3.95
 30
0.0
 11
0.3
 21
3.15
 31
0.0
  0
LINE
  5
D2
330
1AF
100
AcDbEntity
  8
etch
100
AcDbLine
 10
1.05
 20
3.1
 30
0.0
 11
1.45
 21
3.1
 31
0.0
  0
LINE
  5
D3
330
1AF
100
AcDbEntity
  8
etch
100
AcDbLine
 10
1.5
 20
3.15
 30
0.0
 11
1.5
 21
3.95
 31
0.0
  0
LINE
  5
D4
330
1AF
100
AcDbEntity
  8
etch
100
AcDbLine
 10
1.45
 20
4.0
 30
0.0
 11
1.05
 21
4.0
 31
0.0
  0
LINE
  5
D5
330
1AF
100
AcDbEntity
  8
etch
100
AcDbLine
 10
1.0
 20
3.95
 30
0.0
 11
1.0
 21
3.15
 31
0.0
  0
LINE
  5
D6
330
1AF
100
AcDbEntity
  8
etch
100
AcDbLine
 10
1.75
 20
3.1
 30
0.0
 11
2.15
 21
3.1
 31
0.0
  0
LINE
  5
D7
330
1AF
100
AcDbEntity
  8
etch
100
AcDbLine
 10
2.2
 20
3.15
 30
0.0
 11
2.2
 21
3.950000000000001
 31
0.0
  0
LINE
  5
D8
330
1AF
100
AcDbEntity
  8
etch
100
AcDbLine
 10
2.150000000000001
 20
4.0
 30
0.0
 11
1.75
 21
4.0
 31
0.0
  0
LINE
  5
D9
330
1AF
100
AcDbEntity
  8
etch
100
AcDbLine
 10
1.7
 20
3.95
 30
0.0
 11
1.7
 21
3.15
 31
0.0
  0
LINE
  5
DA
330
1AF
100
AcDbEntity
  8
etch
100
AcDbLine
 10
2.45
 20
3.1
 30
0.0
 11
3.55
 21
3.1
 31
0.0
  0
LINE
  5
DB
330
1AF
100
AcDbEntity
  8
etch
100
AcDbLine
 10
3.6
 20
3.149999999999999
 30
0.0
 11
3.600000000000001
 21
3.950000000000001
 31
0.0
  0
LINE
  5
DC
330
1AF
100
AcDbEntity
  8
etch
100
AcDbLine
 10
3.550000000000002
 20
4.0
 30
0.0
 11
2.45
 21
4.0
 31
0.0
  0
LINE
  5
DD
330
1AF
100
AcDbEntity
  8
etch
100
AcDbLine
 10
2.4
 20
3.95
 30
0.0
 11
2.4
 21
3.15
 31
0.0
  0
LINE
  5
DE
330
1AF
100
AcDbEntity
  8
guides
100
AcDbLine
 10
3.4
 20
0.0
 30
0.0
 11
3.4
 21
4.4
 31
0.0
  0
LINE
  5
DF
330
1AF
100
AcDbEntity
  8
etch
100
AcDbLine
 10
6.05
 20
3.1
 30
0.0
 11
6.45
 21
3.1
 31
0.0
  0
LINE
  5
E0
330
1AF
100
AcDbEntity
  8
etch
100
AcDbLine
 10
6.5
 20
3.15
 30
0.0
 11
6.5
 21
3.95
 31
0.0
  0
LINE
  5
E1
330
1AF
100
AcDbEntity
  8
etch
100
AcDbLine
 10
6.45
 20
4.0
 30
0.0
 11
6.05
 21
4.0
 31
0.0
  0
LINE
  5
E2
330
1AF
100
AcDbEntity
  8
etch
100
AcDbLine
 10
6.0
 20
3.95
 30
0.0
 11
6.0
 21
3.15
 31
0.0
  0
LINE
  5
E4
330
1AF
100
AcDbEntity
  8
etch
100
AcDbLine
 10
6.150000000000001
 20
3.600000000000001
 30
0.0
 11
6.350000000000001
 21
3.600000000000001
 31
0.0
  0
LINE
  5
E5
330
1AF
100
AcDbEntity
  8
etch
100
AcDbLine
 10
6.400000000000001
 20
3.65
 30
0.0
 11
6.400000000000001
 21
3.850000000000001
 31
0.0
  0
LINE
  5
E6
330
1AF
100
AcDbEntity
  8
etch
100
AcDbLine
 10
6.350000000000001
 20
3.900000000000001
 30
0.0
 11
6.149999999999999
 21
3.900000000000001
 31
0.0
  0
LINE
  5
E7
330
1AF
100
AcDbEntity
  8
etch
100
AcDbLine
 10
6.100000000000001
 20
3.850000000000001
 30
0.0
 11
6.100000000000001
 21
3.65
 31
0.0
  0
LINE
  5
E8
330
1AF
100
AcDbEntity
  8
guides
100
AcDbLine
 10
0.4
 20
3.2
 30
0.0
 11
0.5
 21
3.3
 31
0.0
  0
LINE
  5
E9
330
1AF
100
AcDbEntity
  8
guides
100
AcDbLine
 10
0.6000000000000001
 20
3.2
 30
0.0
 11
0.7000000000000001
 21
3.3
 31
0.0
  0
LINE
  5
EA
330
1AF
100
AcDbEntity
  8
guides
100
AcDbLine
 10
1.2
 20
3.2
 30
0.0
 11
1.3
 21
3.3
 31
0.0
  0
LINE
  5
EB
330
1AF
100
AcDbEntity
  8
guides
100
AcDbLine
 10
1.9
 20
3.2
 30
0.0
 11
2.0
 21
3.3
 31
0.0
  0
LINE
  5
EE
330
1AF
100
AcDbEntity
  8
guides
100
AcDbLine
 10
6.2
 20
3.2
 30
0.0
 11
6.300000000000001
 21
3.3
 31
0.0
  0
CIRCLE
  5
EF
330
1AF
100
AcDbEntity
  8
etch
100
AcDbCircle
 10
0.45
 20
3.25
 30
0.0
 40
0.075
  0
CIRCLE
  5
F0
330
1AF
100
AcDbEntity
  8
etch
100
AcDbCircle
 10
0.6500000000000001
 20
3.25
 30
0.0
 40
0.075
  0
CIRCLE
  5
F1
330
1AF
100
AcDbEntity
  8
etch
100
AcDbCircle
 10
1.25
 20
3.25
 30
0.0
 40
0.075
  0
CIRCLE
  5
F2
330
1AF
100
AcDbEntity
  8
etch
100
AcDbCircle
 10
1.95
 20
3.25
 30
0.0
 40
0.075
  0
CIRCLE
  5
F5
330
1AF
100
AcDbEntity
  8
etch
100
AcDbCircle
 10
6.25
 20
3.25
 30
0.0
 40
0.075
  0
LINE
  5
F6
330
1AF
100
AcDbEntity
  8
guides
100
AcDbLine
 10
0.5
 20
3.7
 30
0.0
 11
0.6000000000000001
 21
3.8
 31
0.0
  0
LINE
  5
F7
330
1AF
100
AcDbEntity
  8
guides
100
AcDbLine
 10
1.2
 20
3.7
 30
0.0
 11
1.3
 21
3.8
 31
0.0
  0
LINE
  5
F8
330
1AF
100
AcDbEntity
  8
guides
100
AcDbLine
 10
1.9
 20
3.7
 30
0.0
 11
2.0
 21
3.8
 31
0.0
  0
LINE
  5
FB
330
1AF
100
AcDbEntity
  8
guides
100
AcDbLine
 10
3.0
 20
3.8
 30
0.0
 11
3.0
 21
3.7
 31
0.0
  0
CIRCLE
  5
FC
330
1AF
100
AcDbEntity
  8
etch
100
AcDbCircle
 10
0.55
 20
3.75
 30
0.0
 40
0.15
  0
CIRCLE
  5
FD
330
1AF
100
AcDbEntity
  8
etch
100
AcDbCircle
 10
1.25
 20
3.75
 30
0.0
 40
0.15
  0
CIRCLE
  5
FE
330
1AF
100
AcDbEntity
  8
etch
100
AcDbCircle
 10
1.95
 20
3.75
 30
0.0
 40
0.15
  0
CIRCLE
  5
FF
330
1AF
100
AcDbEntity
  8
etch
100
AcDbCircle
 10
3.0
 20
3.75
 30
0.0
 40
0.15
  0
ARC
  5
100
330
1AF
100
AcDbEntity
  8
etch
100
AcDbCircle
 10
0.35
 20
3.95
 30
0.0
 40
0.05
100
AcDbArc
 50
90.0
 51
180.0
  0
ARC
  5
101
330
1AF
100
AcDbEntity
  8
etch
100
AcDbCircle
 10
0.75
 20
3.95
 30
0.0
 40
0.05
100
AcDbArc
 50
0.0
 51
90.0
  0
ARC
  5
103
330
1AF
100
AcDbEntity
  8
etch
100
AcDbCircle
 10
0.75
 20
3.15
 30
0.0
 40
0.05
100
AcDbArc
 50
270.0
 51
0.0
  0
ARC
  5
104
330
1AF
100
AcDbEntity
  8
etch
100
AcDbCircle
 10
0.35
 20
3.15
 30
0.0
 40
0.05
100
AcDbArc
 50
180.0
 51
270.0
  0
ARC
  5
105
330
1AF
100
AcDbEntity
  8
etch
100
AcDbCircle
 10
1.05
 20
3.15
 30
0.0
 40
0.05
100
AcDbArc
 50
180.0
 51
270.0
  0
ARC
  5
106
330
1AF
100
AcDbEntity
  8
etch
100
AcDbCircle
 10
1.45
 20
3.15
 30
0.0
 40
0.05
100
AcDbArc
 50
270.0
 51
0.0
  0
ARC
  5
107
330
1AF
100
AcDbEntity
  8
etch
100
AcDbCircle
 10
1.75
 20
3.15
 30
0.0
 40
0.05
100
AcDbArc
 50
180.0
 51
270.0
  0
ARC
  5
108
330
1AF
100
AcDbEntity
  8
etch
100
AcDbCircle
 10
2.15
 20
3.15
 30
0.0
 40
0.05
100
AcDbArc
 50
270.0
 51
0.0
  0
ARC
  5
109
330
1AF
100
AcDbEntity
  8
etch
100
AcDbCircle
 10
2.45
 20
3.15
 30
0.0
 40
0.05
100
AcDbArc
 50
180.0
 51
270.0
  0
ARC
  5
10A
330
1AF
100
AcDbEntity
  8
etch
100
AcDbCircle
 10
3.55
 20
3.149999999999999
 30
0.0
 40
0.05
100
AcDbArc
 50
269.9999999999995
 51
0.0
  0
ARC
  5
10B
330
1AF
100
AcDbEntity
  8
etch
100
AcDbCircle
 10
3.550000000000002
 20
3.950000000000001
 30
0.0
 40
0.05
100
AcDbArc
 50
0.0
 51
90.0
  0
ARC
  5
10C
330
1AF
100
AcDbEntity
  8
etch
100
AcDbCircle
 10
2.45
 20
3.95
 30
0.0
 40
0.05
100
AcDbArc
 50
90.0
 51
180.0
  0
ARC
  5
10D
330
1AF
100
AcDbEntity
  8
etch
100
AcDbCircle
 10
2.150000000000001
 20
3.950000000000001
 30
0.0
 40
0.05
100
AcDbArc
 50
0.0
 51
90.0
  0
ARC
  5
10E
330
1AF
100
AcDbEntity
  8
etch
100
AcDbCircle
 10
1.75
 20
3.95
 30
0.0
 40
0.05
100
AcDbArc
 50
90.0
 51
180.0
  0
ARC
  5
10F
330
1AF
100
AcDbEntity
  8
etch
100
AcDbCircle
 10
1.45
 20
3.95
 30
0.0
 40
0.05
100
AcDbArc
 50
0.0
 51
90.0
  0
ARC
  5
110
330
1AF
100
AcDbEntity
  8
etch
100
AcDbCircle
 10
1.05
 20
3.95
 30
0.0
 40
0.05
100
AcDbArc
 50
90.0
 51
180.0
  0
ARC
  5
111
330
1AF
100
AcDbEntity
  8
etch
100
AcDbCircle
 10
6.05
 20
3.95
 30
0.0
 40
0.05
100
AcDbArc
 50
90.0
 51
180.0
  0
ARC
  5
112
330
1AF
100
AcDbEntity
  8
etch
100
AcDbCircle
 10
6.45
 20
3.95
 30
0.0
 40
0.05
100
AcDbArc
 50
0.0
 51
90.0
  0
ARC
  5
114
330
1AF
100
AcDbEntity
  8
etch
100
AcDbCircle
 10
6.45
 20
3.15
 30
0.0
 40
0.05
100
AcDbArc
 50
270.0
 51
0.0
  0
ARC
  5
115
330
1AF
100
AcDbEntity
  8
etch
100
AcDbCircle
 10
6.05
 20
3.15
 30
0.0
 40
0.05
100
AcDbArc
 50
180.0
 51
270.0
  0
ARC
  5
116
330
1AF
100
AcDbEntity
  8
etch
100
AcDbCircle
 10
6.150000000000001
 20
3.65
 30
0.0
 40
0.05
100
AcDbArc
 50
180.0
 51
270.0
  0
ARC
  5
117
330
1AF
100
AcDbEntity
  8
etch
100
AcDbCircle
 10
6.149999999999999
 20
3.850000000000001
 30
0.0
 40
0.05
100
AcDbArc
 50
90.0
 51
180.0
  0
ARC
  5
118
330
1AF
100
AcDbEntity
  8
etch
100
AcDbCircle
 10
6.350000000000001
 20
3.850000000000001
 30
0.0
 40
0.05
100
AcDbArc
 50
0.0
 51
90.0
  0
ARC
  5
119
330
1AF
100
AcDbEntity
  8
etch
100
AcDbCircle
 10
6.350000000000001
 20
3.65
 30
0.0
 40
0.05
100
AcDbArc
 50
270.0
 51
0.0
  0
ARC
  5
11A
330
1AF
100
AcDbEntity
  8
etch
100
AcDbCircle
 10
6.45
 20
2.350000000000001
 30
0.0
 40
0.05
100
AcDbArc
 50
0.0
 51
89.99999999999898
  0
ARC
  5
11B
330
1AF
100
AcDbEntity
  8
etch
100
AcDbCircle
 10
6.45
 20
0.25
 30
0.0
 40
0.05
100
AcDbArc
 50
270.0
 51
0.0
  0
ARC
  5
11C
330
1AF
100
AcDbEntity
  8
etch
100
AcDbCircle
 10
3.55
 20
0.25
 30
0.0
 40
0.05
100
AcDbArc
 50
180.0
 51
269.9999999999995
  0
ARC
  5
11D
330
1AF
100
AcDbEntity
  8
etch
100
AcDbCircle
 10
3.55
 20
2.350000000000001
 30
0.0
 40
0.05
100
AcDbArc
 50
90.0
 51
180.0
  0
ARC
  5
11E
330
1AF
100
AcDbEntity
  8
etch
100
AcDbCircle
 10
3.25
 20
2.350000000000001
 30
0.0
 40
0.05
100
AcDbArc
 50
0.0
 51
90.0
  0
ARC
  5
11F
330
1AF
100
AcDbEntity
  8
etch
100
AcDbCircle
 10
0.35
 20
2.350000000000001
 30
0.0
 40
0.05
100
AcDbArc
 50
90.00000000000038
 51
180.0
  0
ARC
  5
120
330
1AF
100
AcDbEntity
  8
etch
100
AcDbCircle
 10
0.35
 20
0.65
 30
0.0
 40
0.05
100
AcDbArc
 50
180.0
 51
270.0
  0
ARC
  5
121
330
1AF
100
AcDbEntity
  8
etch
100
AcDbCircle
 10
3.250000000000001
 20
0.6500000000000001
 30
0.0
 40
0.05
100
AcDbArc
 50
270.0
 51
0.0
  0
ARC
  5
122
330
1AF
100
AcDbEntity
  8
etch
100
AcDbCircle
 10
3.25
 20
0.35
 30
0.0
 40
0.05
100
AcDbArc
 50
0.0
 51
90.0
  0
ARC
  5
123
330
1AF
100
AcDbEntity
  8
etch
100
AcDbCircle
 10
3.250000000000001
 20
0.25
 30
0.0
 40
0.05
100
AcDbArc
 50
270.0
 51
0.0
  0
ARC
  5
124
330
1AF
100
AcDbEntity
  8
etch
100
AcDbCircle
 10
2.75
 20
0.25
 30
0.0
 40
0.05
100
AcDbArc
 50
180.0
 51
270.0
  0
ARC
  5
125
330
1AF
100
AcDbEntity
  8
etch
100
AcDbCircle
 10
2.75
 20
0.3500000000000001
 30
0.0
 40
0.05
100
AcDbArc
 50
90.0
 51
180.0
  0
ARC
  5
126
330
1AF
100
AcDbEntity
  8
etch
100
AcDbCircle
 10
2.45
 20
0.35
 30
0.0
 40
0.05
100
AcDbArc
 50
0.0
 51
90.0
  0
ARC
  5
127
330
1AF
100
AcDbEntity
  8
etch
100
AcDbCircle
 10
2.45
 20
0.25
 30
0.0
 40
0.05
100
AcDbArc
 50
270.0
 51
0.0
  0
ARC
  5
129
330
1AF
100
AcDbEntity
  8
etch
100
AcDbCircle
 10
1.95
 20
0.25
 30
0.0
 40
0.05
100
AcDbArc
 50
180.0
 51
270.0
  0
ARC
  5
12A
330
1AF
100
AcDbEntity
  8
etch
100
AcDbCircle
 10
1.95
 20
0.35
 30
0.0
 40
0.05
100
AcDbArc
 50
90.0
 51
180.0
  0
ARC
  5
12B
330
1AF
100
AcDbEntity
  8
etch
100
AcDbCircle
 10
1.65
 20
0.25
 30
0.0
 40
0.05
100
AcDbArc
 50
270.0
 51
0.0
  0
ARC
  5
12C
330
1AF
100
AcDbEntity
  8
etch
100
AcDbCircle
 10
1.65
 20
0.3500000000000001
 30
0.0
 40
0.05
100
AcDbArc
 50
0.0
 51
90.0
  0
ARC
  5
12D
330
1AF
100
AcDbEntity
  8
etch
100
AcDbCircle
 10
1.15
 20
0.35
 30
0.0
 40
0.05
100
AcDbArc
 50
90.0
 51
180.0
  0
ARC
  5
12E
330
1AF
100
AcDbEntity
  8
etch
100
AcDbCircle
 10
1.15
 20
0.2500000000000001
 30
0.0
 40
0.05
100
AcDbArc
 50
180.0
 51
270.0
  0
ARC
  5
12F
330
1AF
100
AcDbEntity
  8
etch
100
AcDbCircle
 10
0.8500000000000001
 20
0.2500000000000001
 30
0.0
 40
0.05
100
AcDbArc
 50
270.0
 51
0.0
  0
ARC
  5
130
330
1AF
100
AcDbEntity
  8
etch
100
AcDbCircle
 10
0.85
 20
0.35
 30
0.0
 40
0.05
100
AcDbArc
 50
0.0
 51
90.0
  0
ARC
  5
132
330
1AF
100
AcDbEntity
  8
etch
100
AcDbCircle
 10
0.35
 20
0.25
 30
0.0
 40
0.05
100
AcDbArc
 50
180.0
 51
270.0
  0
ARC
  5
133
330
1AF
100
AcDbEntity
  8
etch
100
AcDbCircle
 10
0.3500000000000001
 20
0.3500000000000001
 30
0.0
 40
0.05
100
AcDbArc
 50
90.0
 51
180.0
  0
LINE
  5
160
330
1AF
100
AcDbEntity
  8
guides
100
AcDbLine
 10
3.0
 20
3.2
 30
0.0
 11
3.0
 21
3.3
 31
0.0
  0
LINE
  5
161
330
1AF
100
AcDbEntity
  8
guides
100
AcDbLine
 10
0.45
 20
3.25
 30
0.0
 11
0.6500000000000001
 21
3.25
 31
0.0
  0
CIRCLE
  5
162
330
1AF
100
AcDbEntity
  8
etch
100
AcDbCircle
 10
2.9
 20
3.25
 30
0.0
 40
0.075
  0
CIRCLE
  5
163
330
1AF
100
AcDbEntity
  8
etch
100
AcDbCircle
 10
3.100000000000001
 20
3.25
 30
0.0
 40
0.075
  0
LINE
  5
164
330
1AF
100
AcDbEntity
  8
guides
100
AcDbLine
 10
2.85
 20
3.2
 30
0.0
 11
2.95
 21
3.3
 31
0.0
  0
LINE
  5
165
330
1AF
100
AcDbEntity
  8
guides
100
AcDbLine
 10
3.05
 20
3.2
 30
0.0
 11
3.15
 21
3.3
 31
0.0
  0
LINE
  5
166
330
1AF
100
AcDbEntity
  8
guides
100
AcDbLine
 10
2.9
 20
3.25
 30
0.0
 11
3.100000000000001
 21
3.25
 31
0.0
  0
CIRCLE
  5
167
330
1AF
100
AcDbEntity
  8
etch
100
AcDbCircle
 10
4.350000000000001
 20
3.3375
 30
0.0
 40
0.16
  0
CIRCLE
  5
168
330
1AF
100
AcDbEntity
  8
etch
100
AcDbCircle
 10
4.950000000000001
 20
3.3375
 30
0.0
 40
0.16
  0
LINE
  5
169
330
1AF
100
AcDbEntity
  8
etch
100
AcDbLine
 10
3.85
 20
4.0
 30
0.0
 11
5.150000000000001
 21
4.0
 31
0.0
  0
LINE
  5
16A
330
1AF
100
AcDbEntity
  8
etch
100
AcDbLine
 10
5.2
 20
3.950000000000001
 30
0.0
 11
5.2
 21
3.149999999999999
 31
0.0
  0
LINE
  5
16B
330
1AF
100
AcDbEntity
  8
etch
100
AcDbLine
 10
5.15
 20
3.1
 30
0.0
 11
3.85
 21
3.1
 31
0.0
  0
LINE
  5
16C
330
1AF
100
AcDbEntity
  8
etch
100
AcDbLine
 10
3.8
 20
3.149999999999999
 30
0.0
 11
3.8
 21
3.950000000000001
 31
0.0
  0
CIRCLE
  5
16D
330
1AF
100
AcDbEntity
  8
etch
100
AcDbCircle
 10
4.050000000000001
 20
3.7625
 30
0.0
 40
0.16
  0
CIRCLE
  5
16E
330
1AF
100
AcDbEntity
  8
etch
100
AcDbCircle
 10
4.65
 20
3.7625
 30
0.0
 40
0.16
  0
LINE
  5
16F
330
1AF
100
AcDbEntity
  8
pcb
100
AcDbLine
 10
5.075000000000001
 20
3.75
 30
0.0
 11
5.525
 21
3.75
 31
0.0
  0
LINE
  5
170
330
1AF
100
AcDbEntity
  8
pcb
100
AcDbLine
 10
5.525
 20
3.75
 30
0.0
 11
5.525
 21
4.4
 31
0.0
  0
LINE
  5
171
330
1AF
100
AcDbEntity
  8
pcb
100
AcDbLine
 10
5.525
 20
4.4
 30
0.0
 11
5.075000000000001
 21
4.4
 31
0.0
  0
LINE
  5
172
330
1AF
100
AcDbEntity
  8
pcb
100
AcDbLine
 10
5.075000000000001
 20
4.4
 30
0.0
 11
5.075000000000001
 21
3.75
 31
0.0
  0
LINE
  5
173
330
1AF
100
AcDbEntity
  8
pcb
100
AcDbLine
 10
4.350000000000001
 20
3.5625
 30
0.0
 11
4.95
 21
3.5625
 31
0.0
  0
LINE
  5
174
330
1AF
100
AcDbEntity
  8
pcb
100
AcDbLine
 10
4.95
 20
3.5625
 30
0.0
 11
4.95
 21
3.9625
 31
0.0
  0
LINE
  5
175
330
1AF
100
AcDbEntity
  8
pcb
100
AcDbLine
 10
4.95
 20
3.9625
 30
0.0
 11
4.350000000000001
 21
3.9625
 31
0.0
  0
LINE
  5
176
330
1AF
100
AcDbEntity
  8
pcb
100
AcDbLine
 10
4.350000000000001
 20
3.9625
 30
0.0
 11
4.350000000000001
 21
3.5625
 31
0.0
  0
LINE
  5
177
330
1AF
100
AcDbEntity
  8
pcb
100
AcDbLine
 10
4.650000000000001
 20
3.1375
 30
0.0
 11
5.250000000000001
 21
3.1375
 31
0.0
  0
LINE
  5
178
330
1AF
100
AcDbEntity
  8
pcb
100
AcDbLine
 10
5.250000000000001
 20
3.1375
 30
0.0
 11
5.250000000000001
 21
3.537500000000001
 31
0.0
  0
LINE
  5
179
330
1AF
100
AcDbEntity
  8
pcb
100
AcDbLine
 10
5.250000000000001
 20
3.537500000000001
 30
0.0
 11
4.650000000000001
 21
3.537500000000001
 31
0.0
  0
LINE
  5
17A
330
1AF
100
AcDbEntity
  8
pcb
100
AcDbLine
 10
4.650000000000001
 20
3.537500000000001
 30
0.0
 11
4.650000000000001
 21
3.1375
 31
0.0
  0
LINE
  5
17B
330
1AF
100
AcDbEntity
  8
pcb
100
AcDbLine
 10
4.050000000000002
 20
3.1375
 30
0.0
 11
4.650000000000001
 21
3.1375
 31
0.0
  0
LINE
  5
17C
330
1AF
100
AcDbEntity
  8
pcb
100
AcDbLine
 10
4.650000000000001
 20
3.1375
 30
0.0
 11
4.650000000000001
 21
3.537500000000001
 31
0.0
  0
LINE
  5
17D
330
1AF
100
AcDbEntity
  8
pcb
100
AcDbLine
 10
4.650000000000001
 20
3.537500000000001
 30
0.0
 11
4.050000000000002
 21
3.537500000000001
 31
0.0
  0
LINE
  5
17E
330
1AF
100
AcDbEntity
  8
pcb
100
AcDbLine
 10
4.050000000000002
 20
3.537500000000001
 30
0.0
 11
4.050000000000002
 21
3.1375
 31
0.0
  0
LINE
  5
17F
330
1AF
100
AcDbEntity
  8
pcb
100
AcDbLine
 10
3.750000000000001
 20
3.5625
 30
0.0
 11
4.350000000000001
 21
3.5625
 31
0.0
  0
LINE
  5
180
330
1AF
100
AcDbEntity
  8
pcb
100
AcDbLine
 10
4.350000000000001
 20
3.5625
 30
0.0
 11
4.350000000000001
 21
3.9625
 31
0.0
  0
LINE
  5
181
330
1AF
100
AcDbEntity
  8
pcb
100
AcDbLine
 10
4.350000000000001
 20
3.9625
 30
0.0
 11
3.750000000000001
 21
3.9625
 31
0.0
  0
LINE
  5
182
330
1AF
100
AcDbEntity
  8
pcb
100
AcDbLine
 10
3.750000000000001
 20
3.9625
 30
0.0
 11
3.750000000000001
 21
3.5625
 31
0.0
  0
LINE
  5
183
330
1AF
100
AcDbEntity
  8
etch
100
AcDbLine
 10
5.35
 20
-0.3000000000000007
 30
0.0
 11
5.75
 21
-0.3000000000000007
 31
0.0
  0
LINE
  5
184
330
1AF
100
AcDbEntity
  8
etch
100
AcDbLine
 10
5.75
 20
-0.3000000000000007
 30
0.0
 11
5.75
 21
0.0
 31
0.0
  0
LINE
  5
185
330
1AF
100
AcDbEntity
  8
etch
100
AcDbLine
 10
5.75
 20
0.0
 30
0.0
 11
5.35
 21
0.0
 31
0.0
  0
LINE
  5
186
330
1AF
100
AcDbEntity
  8
etch
100
AcDbLine
 10
5.35
 20
0.0
 30
0.0
 11
5.35
 21
-0.3000000000000007
 31
0.0
  0
LINE
  5
187
330
1AF
100
AcDbEntity
  8
etch
100
AcDbLine
 10
6.05
 20
-0.3000000000000007
 30
0.0
 11
6.45
 21
-0.3000000000000007
 31
0.0
  0
LINE
  5
188
330
1AF
100
AcDbEntity
  8
etch
100
AcDbLine
 10
6.45
 20
-0.3000000000000007
 30
0.0
 11
6.45
 21
0.0
 31
0.0
  0
LINE
  5
189
330
1AF
100
AcDbEntity
  8
etch
100
AcDbLine
 10
6.45
 20
0.0
 30
0.0
 11
6.05
 21
0.0
 31
0.0
  0
LINE
  5
18A
330
1AF
100
AcDbEntity
  8
etch
100
AcDbLine
 10
6.05
 20
0.0
 30
0.0
 11
6.05
 21
-0.3000000000000007
 31
0.0
  0
ARC
  5
18C
330
1AF
100
AcDbEntity
  8
etch
100
AcDbCircle
 10
3.85
 20
3.149999999999999
 30
0.0
 40
0.05
100
AcDbArc
 50
180.0
 51
270.0
  0
ARC
  5
18D
330
1AF
100
AcDbEntity
  8
etch
100
AcDbCircle
 10
5.15
 20
3.149999999999999
 30
0.0
 40
0.05
100
AcDbArc
 50
270.0
 51
0.0
  0
ARC
  5
18E
330
1AF
100
AcDbEntity
  8
etch
100
AcDbCircle
 10
5.150000000000001
 20
3.950000000000001
 30
0.0
 40
0.05
100
AcDbArc
 50
0.0
 51
90.0
  0
ARC
  5
18F
330
1AF
100
AcDbEntity
  8
etch
100
AcDbCircle
 10
3.85
 20
3.950000000000001
 30
0.0
 40
0.05
100
AcDbArc
 50
90.0
 51
180.0
  0
ENDSEC
  0
SECTION
  2
OBJECTS
  0
DICTIONARY
  5
19D
330
0
100
AcDbDictionary
281
     1
  3
ACAD_GROUP
350
19E
  3
ACAD_LAYOUT
350
1AA
  3
ACAD_MATERIAL
350
1CB
  3
ACAD_MLEADERSTYLE
350
204
  3
ACAD_MLINESTYLE
350
1A7
  3
ACAD_PLOTSETTINGS
350
1A9
  3
ACAD_PLOTSTYLENAME
350
19F
  3
ACAD_TABLESTYLE
350
203
  3
ACAD_VISUALSTYLE
350
1BA
  3
QCAD_OBJECTS
350
1D0
  0
DICTIONARY
  5
19E
102
{ACAD_REACTORS
330
19D
102
}
330
19D
100
AcDbDictionary
281
     1
  0
DICTIONARY
  5
1AA
102
{ACAD_REACTORS
330
19D
102
}
330
19D
100
AcDbDictionary
281
     1
  3
Layout1
350
1AE
  3
Layout2
350
1B6
  3
Model
350
1B2
  0
DICTIONARY
  5
1CB
102
{ACAD_REACTORS
330
19D
102
}
330
19D
100
AcDbDictionary
281
     1
  3
ByBlock
350
1CD
  3
ByLayer
350
1CC
  3
Global
350
1CE
  0
DICTIONARY
  5
204
102
{ACAD_REACTORS
330
19D
102
}
330
19D
100
AcDbDictionary
281
     1
  0
DICTIONARY
  5
1A7
102
{ACAD_REACTORS
330
19D
102
}
330
19D
100
AcDbDictionary
281
     1
  3
Standard
350
1A8
  0
DICTIONARY
  5
1A9
102
{ACAD_REACTORS
330
19D
102
}
330
19D
100
AcDbDictionary
281
     1
  0
ACDBDICTIONARYWDFLT
  5
19F
102
{ACAD_REACTORS
330
19D
102
}
330
19D
100
AcDbDictionary
281
     1
  3
Normal
350
1A0
100
AcDbDictionaryWithDefault
340
1A0
  0
DICTIONARY
  5
203
102
{ACAD_REACTORS
330
19D
102
}
330
19D
100
AcDbDictionary
281
     1
  0
DICTIONARY
  5
1BA
102
{ACAD_REACTORS
330
19D
102
}
330
19D
100
AcDbDictionary
281
     1
  3
2dWireframe
350
1BF
  3
3D Hidden
350
1C1
  3
3dWireframe
350
1C0
  3
Basic
350
1C2
  3
Brighten
350
1C6
  3
ColorChange
350
1CA
  3
Conceptual
350
1C4
  3
Dim
350
1C5
  3
Facepattern
350
1C9
  3
Flat
350
1BB
  3
FlatWithEdges
350
1BC
  3
Gouraud
350
1BD
  3
GouraudWithEdges
350
1BE
  3
Linepattern
350
1C8
  3
Realistic
350
1C3
  3
Thicken
350
1C7
  0
DICTIONARY
  5
1D0
102
{ACAD_REACTORS
330
19D
102
}
330
19D
100
AcDbDictionary
281
     1
  3
ColorSettings/BackgroundColor
350
1E5
  3
ColorSettings/ColorMode
350
1DE
  3
Grid/DisplayGrid
350
1E6
  3
Grid/GridSpacingX
350
1DB
  3
Grid/GridSpacingY
350
1DD
  3
Grid/MetaGridSpacingX
350
1D4
  3
Grid/MetaGridSpacingY
350
1D8
  3
MultiPageSettings/Columns
350
1D9
  3
MultiPageSettings/GlueMarginBottom
350
1D5
  3
MultiPageSettings/GlueMarginsLeft
350
1E0
  3
MultiPageSettings/GlueMarginsRight
350
1D1
  3
MultiPageSettings/GlueMarginsTop
350
1EA
  3
MultiPageSettings/PrintCropMarks
350
1D3
  3
MultiPageSettings/Rows
350
1E2
  3
PageSettings/OffsetX
350
1E8
  3
PageSettings/OffsetY
350
1E9
  3
PageSettings/PageOrientation
350
1D2
  3
PageSettings/PaperHeight
350
1D7
  3
PageSettings/PaperSizeName
350
1DA
  3
PageSettings/PaperWidth
350
1E3
  3
PageSettings/Scale
350
1D6
  3
PageSettings/ShowBoundingBox
350
1DC
  3
PageSettings/ShowPageBorders
350
1E7
  3
Template/Description
350
1E1
  3
Template/Title
350
1DF
  3
UnitSettings/PaperUnit
350
1E4
  0
LAYOUT
  5
1AE
102
{ACAD_REACTORS
330
1AA
102
}
330
1AA
100
AcDbPlotSettings
  1

  2
none_device
  4

  6

 40
0.0
 41
0.0
 42
0.0
 43
0.0
 44
0.0
 45
0.0
 46
0.0
 47
0.0
 48
0.0
 49
0.0
140
0.0
141
0.0
142
1.0
143
1.0
 70
   688
 72
     0
 73
     0
 74
     5
  7

 75
    16
 76
     0
 77
     2
 78
   300
147
1.0
148
0.0
149
0.0
100
AcDbLayout
  1
Layout1
 70
     1
 71
     1
 10
0.0
 20
0.0
 11
12.0
 21
9.0
 12
0.0
 22
0.0
 32
0.0
 14
1.000000000000000E+20
 24
1.000000000000000E+20
 34
1.000000000000000E+20
 15
-1.000000000000000E+20
 25
-1.000000000000000E+20
 35
-1.000000000000000E+20
146
0.0
 13
0.0
 23
0.0
 33
0.0
 16
1.0
 26
0.0
 36
0.0
 17
0.0
 27
1.0
 37
0.0
 76
     0
330
1AB
  0
LAYOUT
  5
1B6
102
{ACAD_REACTORS
330
1AA
102
}
330
1AA
100
AcDbPlotSettings
  1

  2
none_device
  4

  6

 40
0.0
 41
0.0
 42
0.0
 43
0.0
 44
0.0
 45
0.0
 46
0.0
 47
0.0
 48
0.0
 49
0.0
140
0.0
141
0.0
142
1.0
143
1.0
 70
   688
 72
     0
 73
     0
 74
     5
  7

 75
    16
 76
     0
 77
     2
 78
   300
147
1.0
148
0.0
149
0.0
100
AcDbLayout
  1
Layout2
 70
     1
 71
     2
 10
0.0
 20
0.0
 11
0.0
 21
0.0
 12
0.0
 22
0.0
 32
0.0
 14
0.0
 24
0.0
 34
0.0
 15
0.0
 25
0.0
 35
0.0
146
0.0
 13
0.0
 23
0.0
 33
0.0
 16
1.0
 26
0.0
 36
0.0
 17
0.0
 27
1.0
 37
0.0
 76
     0
330
1B3
  0
LAYOUT
  5
1B2
102
{ACAD_REACTORS
330
1AA
102
}
330
1AA
100
AcDbPlotSettings
  1

  2
none_device
  4

  6

 40
0.0
 41
0.0
 42
0.0
 43
0.0
 44
0.0
 45
0.0
 46
0.0
 47
0.0
 48
0.0
 49
0.0
140
0.0
141
0.0
142
1.0
143
1.0
 70
  1712
 72
     0
 73
     0
 74
     0
  7

 75
     0
 76
     0
 77
     2
 78
   300
147
1.0
148
0.0
149
0.0
100
AcDbLayout
  1
Model
 70
     1
 71
     0
 10
0.0
 20
0.0
 11
12.0
 21
9.0
 12
0.0
 22
0.0
 32
0.0
 14
1.000000000000000E+20
 24
1.000000000000000E+20
 34
1.000000000000000E+20
 15
-1.000000000000000E+20
 25
-1.000000000000000E+20
 35
-1.000000000000000E+20
146
0.0
 13
0.0
 23
0.0
 33
0.0
 16
1.0
 26
0.0
 36
0.0
 17
0.0
 27
1.0
 37
0.0
 76
     0
330
1AF
331
1B9
  0
MATERIAL
  5
1CD
102
{ACAD_REACTORS
330
1CB
102
}
330
1CB
100
AcDbMaterial
  1
ByBlock
 72
     1
 94
      127
  0
MATERIAL
  5
1CC
102
{ACAD_REACTORS
330
1CB
102
}
330
1CB
100
AcDbMaterial
  1
ByLayer
 72
     1
 94
      127
  0
MATERIAL
  5
1CE
102
{ACAD_REACTORS
330
1CB
102
}
330
1CB
100
AcDbMaterial
  1
Global
 72
     1
 94
      127
  0
MLINESTYLE
  5
1A8
102
{ACAD_REACTORS
330
1A7
102
}
330
1A7
100
AcDbMlineStyle
  2
Standard
 70
     0
  3

 62
   256
 51
90.0
 52
90.0
 71
     2
 49
0.5
 62
   256
  6
BYLAYER
 49
-0.5
 62
   256
  6
BYLAYER
  0
ACDBPLACEHOLDER
  5
1A0
102
{ACAD_REACTORS
330
19F
102
}
330
19F
  0
VISUALSTYLE
  5
1BF
102
{ACAD_REACTORS
330
1BA
102
}
330
1BA
100
AcDbVisualStyle
  2
2dWireframe
 70
     4
177
     2
291
     0
 71
     0
176
     1
 72
     2
176
     1
 73
     0
176
     1
 90
        0
176
     1
 40
-0.6
176
     1
 41
-30.0
176
     1
 62
     5
 63
     7
421
 16777215
176
     1
 74
     1
176
     1
 91
        4
176
     1
 64
     7
176
     1
 65
   257
176
     1
 75
     1
176
     1
175
     1
176
     1
 42
1.0
176
     1
 92
        0
176
     1
 66
   257
176
     1
 43
1.0
176
     1
 76
     1
176
     1
 77
     6
176
     1
 78
     2
176
     1
 67
     7
176
     1
 79
     5
176
     1
170
     0
176
     1
171
     0
176
     1
290
     0
176
     1
 93
        1
176
     1
 44
0.0
176
     1
173
     0
176
     1
  0
VISUALSTYLE
  5
1C1
102
{ACAD_REACTORS
330
1BA
102
}
330
1BA
100
AcDbVisualStyle
  2
3D Hidden
 70
     6
177
     2
291
     0
 71
     1
176
     1
 72
     2
176
     1
 73
     2
176
     1
 90
        0
176
     1
 40
-0.6
176
     1
 41
-30.0
176
     1
 62
     5
 63
     7
421
 16777215
176
     1
 74
     2
176
     1
 91
        2
176
     1
 64
     7
176
     1
 65
   257
176
     1
 75
     2
176
     1
175
     1
176
     1
 42
40.0
176
     1
 92
        0
176
     1
 66
   257
176
     1
 43
1.0
176
     1
 76
     1
176
     1
 77
     6
176
     1
 78
     2
176
     1
 67
     7
176
     1
 79
     3
176
     1
170
     0
176
     1
171
     0
176
     1
290
     0
176
     1
 93
        1
176
     1
 44
0.0
176
     1
173
     0
176
     1
  0
VISUALSTYLE
  5
1C0
102
{ACAD_REACTORS
330
1BA
102
}
330
1BA
100
AcDbVisualStyle
  2
3dWireframe
 70
     5
177
     2
291
     0
 71
     0
176
     1
 72
     2
176
     1
 73
     0
176
     1
 90
        0
176
     1
 40
-0.6
176
     1
 41
-30.0
176
     1
 62
     5
 63
     7
421
 16777215
176
     1
 74
     1
176
     1
 91
        4
176
     1
 64
     7
176
     1
 65
   257
176
     1
 75
     1
176
     1
175
     1
176
     1
 42
1.0
176
     1
 92
        0
176
     1
 66
   257
176
     1
 43
1.0
176
     1
 76
     1
176
     1
 77
     6
176
     1
 78
     2
176
     1
 67
     7
176
     1
 79
     5
176
     1
170
     0
176
     1
171
     0
176
     1
290
     0
176
     1
 93
        1
176
     1
 44
0.0
176
     1
173
     0
176
     1
  0
VISUALSTYLE
  5
1C2
102
{ACAD_REACTORS
330
1BA
102
}
330
1BA
100
AcDbVisualStyle
  2
Basic
 70
     7
177
     2
291
     1
 71
     1
176
     1
 72
     0
176
     1
 73
     1
176
     1
 90
        0
176
     1
 40
-0.6
176
     1
 41
-30.0
176
     1
 62
     5
 63
     7
421
 16777215
176
     1
 74
     0
176
     1
 91
        4
176
     1
 64
     7
176
     1
 65
   257
176
     1
 75
     1
176
     1
175
     1
176
     1
 42
1.0
176
     1
 92
        8
176
     1
 66
     7
176
     1
 43
1.0
176
     1
 76
     1
176
     1
 77
     6
176
     1
 78
     2
176
     1
 67
     7
176
     1
 79
     5
176
     1
170
     0
176
     1
171
     0
176
     1
290
     0
176
     1
 93
        1
176
     1
 44
0.0
176
     1
173
     0
176
     1
  0
VISUALSTYLE
  5
1C6
102
{ACAD_REACTORS
330
1BA
102
}
330
1BA
100
AcDbVisualStyle
  2
Brighten
 70
    12
177
     2
291
     1
 71
     2
176
     1
 72
     2
176
     1
 73
     0
176
     1
 90
        0
176
     1
 40
-0.6
176
     1
 41
-30.0
176
     1
 62
     5
 63
     7
421
 16777215
176
     1
 74
     1
176
     1
 91
        4
176
     1
 64
     7
176
     1
 65
   257
176
     1
 75
     1
176
     1
175
     1
176
     1
 42
1.0
176
     1
 92
        8
176
     1
 66
     7
176
     1
 43
1.0
176
     1
 76
     1
176
     1
 77
     6
176
     1
 78
     2
176
     1
 67
     7
176
     1
 79
     5
176
     1
170
     0
176
     1
171
     0
176
     1
290
     0
176
     1
 93
        1
176
     1
 44
50.0
176
     1
173
     0
176
     1
  0
VISUALSTYLE
  5
1CA
102
{ACAD_REACTORS
330
1BA
102
}
330
1BA
100
AcDbVisualStyle
  2
ColorChange
 70
    16
177
     2
291
     1
 71
     2
176
     1
 72
     2
176
     1
 73
     3
176
     1
 90
        0
176
     1
 40
-0.6
176
     1
 41
-30.0
176
     1
 62
     5
 63
     8
421
  8421504
176
     1
 74
     1
176
     1
 91
        4
176
     1
 64
     7
176
     1
 65
   257
176
     1
 75
     1
176
     1
175
     1
176
     1
 42
1.0
176
     1
 92
        8
176
     1
 66
     8
424
  8421504
176
     1
 43
1.0
176
     1
 76
     1
176
     1
 77
     6
176
     1
 78
     2
176
     1
 67
     7
176
     1
 79
     5
176
     1
170
     0
176
     1
171
     0
176
     1
290
     0
176
     1
 93
        1
176
     1
 44
0.0
176
     1
173
     0
176
     1
  0
VISUALSTYLE
  5
1C4
102
{ACAD_REACTORS
330
1BA
102
}
330
1BA
100
AcDbVisualStyle
  2
Conceptual
 70
     9
177
     2
291
     0
 71
     3
176
     1
 72
     2
176
     1
 73
     0
176
     1
 90
        0
176
     1
 40
-0.6
176
     1
 41
-30.0
176
     1
 62
     5
 63
     7
421
 16777215
176
     1
 74
     2
176
     1
 91
        2
176
     1
 64
     7
176
     1
 65
   257
176
     1
 75
     1
176
     1
175
     1
176
     1
 42
40.0
176
     1
 92
        8
176
     1
 66
     7
176
     1
 43
1.0
176
     1
 76
     1
176
     1
 77
     6
176
     1
 78
     2
176
     1
 67
     7
176
     1
 79
     3
176
     1
170
     0
176
     1
171
     0
176
     1
290
     0
176
     1
 93
        1
176
     1
 44
0.0
176
     1
173
     0
176
     1
  0
VISUALSTYLE
  5
1C5
102
{ACAD_REACTORS
330
1BA
102
}
330
1BA
100
AcDbVisualStyle
  2
Dim
 70
    11
177
     2
291
     1
 71
     2
176
     1
 72
     2
176
     1
 73
     0
176
     1
 90
        0
176
     1
 40
-0.6
176
     1
 41
-30.0
176
     1
 62
     5
 63
     7
421
 16777215
176
     1
 74
     1
176
     1
 91
        4
176
     1
 64
     7
176
     1
 65
   257
176
     1
 75
     1
176
     1
175
     1
176
     1
 42
1.0
176
     1
 92
        8
176
     1
 66
     7
176
     1
 43
1.0
176
     1
 76
     1
176
     1
 77
     6
176
     1
 78
     2
176
     1
 67
     7
176
     1
 79
     5
176
     1
170
     0
176
     1
171
     0
176
     1
290
     0
176
     1
 93
        1
176
     1
 44
-50.0
176
     1
173
     0
176
     1
  0
VISUALSTYLE
  5
1C9
102
{ACAD_REACTORS
330
1BA
102
}
330
1BA
100
AcDbVisualStyle
  2
Facepattern
 70
    15
177
     2
291
     1
 71
     2
176
     1
 72
     2
176
     1
 73
     0
176
     1
 90
        0
176
     1
 40
-0.6
176
     1
 41
-30.0
176
     1
 62
     5
 63
     7
421
 16777215
176
     1
 74
     1
176
     1
 91
        4
176
     1
 64
     7
176
     1
 65
   257
176
     1
 75
     1
176
     1
175
     1
176
     1
 42
1.0
176
     1
 92
        8
176
     1
 66
     7
176
     1
 43
1.0
176
     1
 76
     1
176
     1
 77
     6
176
     1
 78
     2
176
     1
 67
     7
176
     1
 79
     5
176
     1
170
     0
176
     1
171
     0
176
     1
290
     0
176
     1
 93
        1
176
     1
 44
0.0
176
     1
173
     0
176
     1
  0
VISUALSTYLE
  5
1BB
102
{ACAD_REACTORS
330
1BA
102
}
330
1BA
100
AcDbVisualStyle
  2
Flat
 70
     0
177
     2
291
     1
 71
     2
176
     1
 72
     1
176
     1
 73
     1
176
     1
 90
        2
176
     1
 40
-0.6
176
     1
 41
30.0
176
     1
 62
     5
 63
     7
421
 16777215
176
     1
 74
     0
176
     1
 91
        4
176
     1
 64
     7
176
     1
 65
   257
176
     1
 75
     1
176
     1
175
     1
176
     1
 42
1.0
176
     1
 92
        8
176
     1
 66
     7
176
     1
 43
1.0
176
     1
 76
     1
176
     1
 77
     6
176
     1
 78
     2
176
     1
 67
     7
176
     1
 79
     5
176
     1
170
     0
176
     1
171
     0
176
     1
290
     0
176
     1
 93
       13
176
     1
 44
0.0
176
     1
173
     0
176
     1
  0
VISUALSTYLE
  5
1BC
102
{ACAD_REACTORS
330
1BA
102
}
330
1BA
100
AcDbVisualStyle
  2
FlatWithEdges
 70
     1
177
     2
291
     1
 71
     2
176
     1
 72
     1
176
     1
 73
     1
176
     1
 90
        2
176
     1
 40
-0.6
176
     1
 41
30.0
176
     1
 62
     5
 63
     7
421
 16777215
176
     1
 74
     1
176
     1
 91
        4
176
     1
 64
     7
176
     1
 65
   257
176
     1
 75
     1
176
     1
175
     1
176
     1
 42
1.0
176
     1
 92
        0
176
     1
 66
   257
176
     1
 43
1.0
176
     1
 76
     1
176
     1
 77
     6
176
     1
 78
     2
176
     1
 67
     7
176
     1
 79
     5
176
     1
170
     0
176
     1
171
     0
176
     1
290
     0
176
     1
 93
       13
176
     1
 44
0.0
176
     1
173
     0
176
     1
  0
VISUALSTYLE
  5
1BD
102
{ACAD_REACTORS
330
1BA
102
}
330
1BA
100
AcDbVisualStyle
  2
Gouraud
 70
     2
177
     2
291
     1
 71
     2
176
     1
 72
     2
176
     1
 73
     1
176
     1
 90
        2
176
     1
 40
-0.6
176
     1
 41
30.0
176
     1
 62
     5
 63
     7
421
 16777215
176
     1
 74
     0
176
     1
 91
        4
176
     1
 64
     7
176
     1
 65
   257
176
     1
 75
     1
176
     1
175
     1
176
     1
 42
1.0
176
     1
 92
        0
176
     1
 66
     7
176
     1
 43
1.0
176
     1
 76
     1
176
     1
 77
     6
176
     1
 78
     2
176
     1
 67
     7
176
     1
 79
     5
176
     1
170
     0
176
     1
171
     0
176
     1
290
     0
176
     1
 93
       13
176
     1
 44
0.0
176
     1
173
     0
176
     1
  0
VISUALSTYLE
  5
1BE
102
{ACAD_REACTORS
330
1BA
102
}
330
1BA
100
AcDbVisualStyle
  2
GouraudWithEdges
 70
     3
177
     2
291
     1
 71
     2
176
     1
 72
     2
176
     1
 73
     1
176
     1
 90
        2
176
     1
 40
-0.6
176
     1
 41
30.0
176
     1
 62
     5
 63
     7
421
 16777215
176
     1
 74
     1
176
     1
 91
        4
176
     1
 64
     7
176
     1
 65
   257
176
     1
 75
     1
176
     1
175
     1
176
     1
 42
1.0
176
     1
 92
        0
176
     1
 66
   257
176
     1
 43
1.0
176
     1
 76
     1
176
     1
 77
     6
176
     1
 78
     2
176
     1
 67
     7
176
     1
 79
     5
176
     1
170
     0
176
     1
171
     0
176
     1
290
     0
176
     1
 93
       13
176
     1
 44
0.0
176
     1
173
     0
176
     1
  0
VISUALSTYLE
  5
1C8
102
{ACAD_REACTORS
330
1BA
102
}
330
1BA
100
AcDbVisualStyle
  2
Linepattern
 70
    14
177
     2
291
     1
 71
     2
176
     1
 72
     2
176
     1
 73
     0
176
     1
 90
        0
176
     1
 40
-0.6
176
     1
 41
-30.0
176
     1
 62
     5
 63
     7
421
 16777215
176
     1
 74
     1
176
     1
 91
        4
176
     1
 64
     7
176
     1
 65
   257
176
     1
 75
     7
176
     1
175
     7
176
     1
 42
1.0
176
     1
 92
        8
176
     1
 66
     7
176
     1
 43
1.0
176
     1
 76
     1
176
     1
 77
     6
176
     1
 78
     2
176
     1
 67
     7
176
     1
 79
     5
176
     1
170
     0
176
     1
171
     0
176
     1
290
     0
176
     1
 93
        1
176
     1
 44
0.0
176
     1
173
     0
176
     1
  0
VISUALSTYLE
  5
1C3
102
{ACAD_REACTORS
330
1BA
102
}
330
1BA
100
AcDbVisualStyle
  2
Realistic
 70
     8
177
     2
291
     0
 71
     2
176
     1
 72
     2
176
     1
 73
     0
176
     1
 90
        0
176
     1
 40
-0.6
176
     1
 41
-30.0
176
     1
 62
     5
 63
     7
421
 16777215
176
     1
 74
     1
176
     1
 91
        0
176
     1
 64
     7
176
     1
 65
   257
176
     1
 75
     1
176
     1
175
     1
176
     1
 42
1.0
176
     1
 92
        8
176
     1
 66
     8
424
  7895160
176
     1
 43
1.0
176
     1
 76
     1
176
     1
 77
     6
176
     1
 78
     2
176
     1
 67
     7
176
     1
 79
     5
176
     1
170
     0
176
     1
171
     0
176
     1
290
     0
176
     1
 93
       13
176
     1
 44
0.0
176
     1
173
     0
176
     1
  0
VISUALSTYLE
  5
1C7
102
{ACAD_REACTORS
330
1BA
102
}
330
1BA
100
AcDbVisualStyle
  2
Thicken
 70
    13
177
     2
291
     1
 71
     2
176
     1
 72
     2
176
     1
 73
     0
176
     1
 90
        0
176
     1
 40
-0.6
176
     1
 41
-30.0
176
     1
 62
     5
 63
     7
421
 16777215
176
     1
 74
     1
176
     1
 91
        4
176
     1
 64
     7
176
     1
 65
   257
176
     1
 75
     1
176
     1
175
     1
176
     1
 42
1.0
176
     1
 92
       12
176
     1
 66
     7
176
     1
 43
1.0
176
     1
 76
     1
176
     1
 77
     6
176
     1
 78
     2
176
     1
 67
     7
176
     1
 79
     5
176
     1
170
     0
176
     1
171
     0
176
     1
290
     0
176
     1
 93
        1
176
     1
 44
0.0
176
     1
173
     0
176
     1
  0
XRECORD
  5
1E5
102
{ACAD_REACTORS
330
1D0
102
}
330
1D0
100
AcDbXrecord
280
     1
1000
White
  0
XRECORD
  5
1DE
102
{ACAD_REACTORS
330
1D0
102
}
330
1D0
100
AcDbXrecord
280
     1
1000
Grayscale
  0
XRECORD
  5
1E6
102
{ACAD_REACTORS
330
1D0
102
}
330
1D0
100
AcDbXrecord
280
     1
290
     1
  0
XRECORD
  5
1DB
102
{ACAD_REACTORS
330
1D0
102
}
330
1D0
100
AcDbXrecord
280
     1
1000
0.1
  0
XRECORD
  5
1DD
102
{ACAD_REACTORS
330
1D0
102
}
330
1D0
100
AcDbXrecord
280
     1
1000
0.1
  0
XRECORD
  5
1D4
102
{ACAD_REACTORS
330
1D0
102
}
330
1D0
100
AcDbXrecord
280
     1
1000
auto
  0
XRECORD
  5
1D8
102
{ACAD_REACTORS
330
1D0
102
}
330
1D0
100
AcDbXrecord
280
     1
1000
auto
  0
XRECORD
  5
1D9
102
{ACAD_REACTORS
330
1D0
102
}
330
1D0
100
AcDbXrecord
280
     1
 90
        1
  0
XRECORD
  5
1D5
102
{ACAD_REACTORS
330
1D0
102
}
330
1D0
100
AcDbXrecord
280
     1
 40
10.0
  0
XRECORD
  5
1E0
102
{ACAD_REACTORS
330
1D0
102
}
330
1D0
100
AcDbXrecord
280
     1
 40
10.0
  0
XRECORD
  5
1D1
102
{ACAD_REACTORS
330
1D0
102
}
330
1D0
100
AcDbXrecord
280
     1
 40
10.0
  0
XRECORD
  5
1EA
102
{ACAD_REACTORS
330
1D0
102
}
330
1D0
100
AcDbXrecord
280
     1
 40
10.0
  0
XRECORD
  5
1D3
102
{ACAD_REACTORS
330
1D0
102
}
330
1D0
100
AcDbXrecord
280
     1
290
     0
  0
XRECORD
  5
1E2
102
{ACAD_REACTORS
330
1D0
102
}
330
1D0
100
AcDbXrecord
280
     1
 90
        1
  0
XRECORD
  5
1E8
102
{ACAD_REACTORS
330
1D0
102
}
330
1D0
100
AcDbXrecord
280
     1
1000
0
 41
0.0
  0
XRECORD
  5
1E9
102
{ACAD_REACTORS
330
1D0
102
}
330
1D0
100
AcDbXrecord
280
     1
1000
0
 41
0.0
  0
XRECORD
  5
1D2
102
{ACAD_REACTORS
330
1D0
102
}
330
1D0
100
AcDbXrecord
280
     1
1000
Portrait
  0
XRECORD
  5
1D7
102
{ACAD_REACTORS
330
1D0
102
}
330
1D0
100
AcDbXrecord
280
     1
1000
11
 41
0.0
  0
XRECORD
  5
1DA
102
{ACAD_REACTORS
330
1D0
102
}
330
1D0
100
AcDbXrecord
280
     1
1000
ANSI A (Letter)
  0
XRECORD
  5
1E3
102
{ACAD_REACTORS
330
1D0
102
}
330
1D0
100
AcDbXrecord
280
     1
1000
8.5
 41
0.0
  0
XRECORD
  5
1D6
102
{ACAD_REACTORS
330
1D0
102
}
330
1D0
100
AcDbXrecord
280
     1
1000
1" = 1"
  0
XRECORD
  5
1DC
102
{ACAD_REACTORS
330
1D0
102
}
330
1D0
100
AcDbXrecord
280
     1
290
     0
  0
XRECORD
  5
1E7
102
{ACAD_REACTORS
330
1D0
102
}
330
1D0
100
AcDbXrecord
280
     1
290
     1
  0
XRECORD
  5
1E1
102
{ACAD_REACTORS
330
1D0
102
}
330
1D0
100
AcDbXrecord
280
     1
1000

  0
XRECORD
  5
1DF
102
{ACAD_REACTORS
330
1D0
102
}
330
1D0
100
AcDbXrecord
280
     1
1000

  0
XRECORD
  5
1E4
102
{ACAD_REACTORS
330
1D0
102
}
330
1D0
100
AcDbXrecord
280
     1
 90
        1
  0
ENDSEC
  0
EOF
