  0
SECTION
  2
HEADER
  9
$ACADVER
  1
AC1024
  9
$ACADMAINTVER
 70
     6
  9
$DWGCODEPAGE
  3
ASCII
  9
$INSBASE
 10
0.0
 20
0.0
 30
0.0
  9
$EXTMIN
 10
1.000000000000000E+20
 20
1.000000000000000E+20
 30
1.000000000000000E+20
  9
$EXTMAX
 10
-1.000000000000000E+20
 20
-1.000000000000000E+20
 30
-1.000000000000000E+20
  9
$LIMMIN
 10
0.0
 20
0.0
  9
$LIMMAX
 10
12.0
 20
9.0
  9
$ORTHOMODE
 70
     0
  9
$REGENMODE
 70
     1
  9
$FILLMODE
 70
     1
  9
$QTEXTMODE
 70
     0
  9
$MIRRTEXT
 70
     1
  9
$LTSCALE
 40
1.0
  9
$ATTMODE
 70
     1
  9
$TEXTSIZE
 40
0.2
  9
$TRACEWID
 40
0.05
  9
$TEXTSTYLE
  7
Standard
  9
$CLAYER
  8
0
  9
$CELTYPE
  6
ByLayer
  9
$CECOLOR
 62
   178
  9
$CELTSCALE
 40
1.0
  9
$DISPSILH
 70
     0
  9
$DIMSCALE
 40
1.0
  9
$DIMASZ
 40
0.125
  9
$DIMEXO
 40
0.03125
  9
$DIMDLI
 40
0.38
  9
$DIMRND
 40
0.0
  9
$DIMDLE
 40
0.0
  9
$DIMEXE
 40
0.0625
  9
$DIMTP
 40
0.0
  9
$DIMTM
 40
0.0
  9
$DIMTXT
 40
0.125
  9
$DIMCEN
 40
0.09
  9
$DIMTSZ
 40
0.0
  9
$DIMTOL
 70
     0
  9
$DIMLIM
 70
     0
  9
$DIMTIH
 70
     1
  9
$DIMTOH
 70
     1
  9
$DIMSE1
 70
     0
  9
$DIMSE2
 70
     0
  9
$DIMTAD
 70
     0
  9
$DIMZIN
 70
     8
  9
$DIMBLK
  1

  9
$DIMASO
 70
     1
  9
$DIMSHO
 70
     1
  9
$DIMPOST
  1

  9
$DIMAPOST
  1

  9
$DIMALT
 70
     0
  9
$DIMALTD
 70
     2
  9
$DIMALTF
 40
25.4
  9
$DIMLFAC
 40
1.0
  9
$DIMTOFL
 70
     0
  9
$DIMTVP
 40
0.0
  9
$DIMTIX
 70
     0
  9
$DIMSOXD
 70
     0
  9
$DIMSAH
 70
     0
  9
$DIMBLK1
  1

  9
$DIMBLK2
  1

  9
$DIMSTYLE
  2
Standard
  9
$DIMCLRD
 70
   178
  9
$DIMCLRE
 70
   178
  9
$DIMCLRT
 70
   178
  9
$DIMTFAC
 40
1.0
  9
$DIMGAP
 40
0.03125
  9
$DIMJUST
 70
     0
  9
$DIMSD1
 70
     0
  9
$DIMSD2
 70
     0
  9
$DIMTOLJ
 70
     1
  9
$DIMTZIN
 70
     0
  9
$DIMALTZ
 70
     0
  9
$DIMALTTZ
 70
     0
  9
$DIMUPT
 70
     0
  9
$DIMDEC
 70
     4
  9
$DIMTDEC
 70
     4
  9
$DIMALTU
 70
     2
  9
$DIMALTTD
 70
     2
  9
$DIMTXSTY
  7
Standard
  9
$DIMAUNIT
 70
     0
  9
$DIMADEC
 70
     0
  9
$DIMALTRND
 40
0.0
  9
$DIMAZIN
 70
     2
  9
$DIMDSEP
 70
    46
  9
$DIMATFIT
 70
     3
  9
$DIMFRAC
 70
     0
  9
$DIMLDRBLK
  1

  9
$DIMLUNIT
 70
     2
  9
$DIMLWD
 70
    -2
  9
$DIMLWE
 70
    -2
  9
$DIMTMOVE
 70
     0
  9
$DIMFXL
 40
1.0
  9
$DIMFXLON
 70
     0
  9
$DIMJOGANG
 40
0.7853981633974483
  9
$DIMTFILL
 70
     0
  9
$DIMTFILLCLR
 70
     0
  9
$DIMARCSYM
 70
     0
  9
$DIMLTYPE
  6

  9
$DIMLTEX1
  6

  9
$DIMLTEX2
  6

  9
$DIMTXTDIRECTION
 70
     0
  9
$LUNITS
 70
     2
  9
$LUPREC
 70
     4
  9
$SKETCHINC
 40
0.1
  9
$FILLETRAD
 40
0.5
  9
$AUNITS
 70
     0
  9
$AUPREC
 70
     0
  9
$MENU
  1
.
  9
$ELEVATION
 40
0.0
  9
$PELEVATION
 40
0.0
  9
$THICKNESS
 40
0.0
  9
$LIMCHECK
 70
     0
  9
$CHAMFERA
 40
0.5
  9
$CHAMFERB
 40
0.5
  9
$CHAMFERC
 40
1.0
  9
$CHAMFERD
 40
0.0
  9
$SKPOLY
 70
     0
  9
$TDCREATE
 40
2456518.46210647
  9
$TDUCREATE
 40
2456518.670439815
  9
$TDUPDATE
 40
2456518.46210647
  9
$TDUUPDATE
 40
2456518.670439815
  9
$TDINDWG
 40
0.0000000116
  9
$TDUSRTIMER
 40
0.0000000116
  9
$USRTIMER
 70
     1
  9
$ANGBASE
 50
0.0
  9
$ANGDIR
 70
     0
  9
$PDMODE
 70
     0
  9
$PDSIZE
 40
0.0
  9
$PLINEWID
 40
0.0
  9
$SPLFRAME
 70
     0
  9
$SPLINETYPE
 70
     6
  9
$SPLINESEGS
 70
     8
  9
$HANDSEED
  5
7EA
  9
$SURFTAB1
 70
     6
  9
$SURFTAB2
 70
     6
  9
$SURFTYPE
 70
     6
  9
$SURFU
 70
     6
  9
$SURFV
 70
     6
  9
$UCSBASE
  2

  9
$UCSNAME
  2

  9
$UCSORG
 10
0.0
 20
0.0
 30
0.0
  9
$UCSXDIR
 10
1.0
 20
0.0
 30
0.0
  9
$UCSYDIR
 10
0.0
 20
1.0
 30
0.0
  9
$UCSORTHOREF
  2

  9
$UCSORTHOVIEW
 70
     0
  9
$UCSORGTOP
 10
0.0
 20
0.0
 30
0.0
  9
$UCSORGBOTTOM
 10
0.0
 20
0.0
 30
0.0
  9
$UCSORGLEFT
 10
0.0
 20
0.0
 30
0.0
  9
$UCSORGRIGHT
 10
0.0
 20
0.0
 30
0.0
  9
$UCSORGFRONT
 10
0.0
 20
0.0
 30
0.0
  9
$UCSORGBACK
 10
0.0
 20
0.0
 30
0.0
  9
$PUCSBASE
  2

  9
$PUCSNAME
  2

  9
$PUCSORG
 10
0.0
 20
0.0
 30
0.0
  9
$PUCSXDIR
 10
1.0
 20
0.0
 30
0.0
  9
$PUCSYDIR
 10
0.0
 20
1.0
 30
0.0
  9
$PUCSORTHOREF
  2

  9
$PUCSORTHOVIEW
 70
     0
  9
$PUCSORGTOP
 10
0.0
 20
0.0
 30
0.0
  9
$PUCSORGBOTTOM
 10
0.0
 20
0.0
 30
0.0
  9
$PUCSORGLEFT
 10
0.0
 20
0.0
 30
0.0
  9
$PUCSORGRIGHT
 10
0.0
 20
0.0
 30
0.0
  9
$PUCSORGFRONT
 10
0.0
 20
0.0
 30
0.0
  9
$PUCSORGBACK
 10
0.0
 20
0.0
 30
0.0
  9
$USERI1
 70
     0
  9
$USERI2
 70
     0
  9
$USERI3
 70
     0
  9
$USERI4
 70
     0
  9
$USERI5
 70
     0
  9
$USERR1
 40
0.0
  9
$USERR2
 40
0.0
  9
$USERR3
 40
0.0
  9
$USERR4
 40
0.0
  9
$USERR5
 40
0.0
  9
$WORLDVIEW
 70
     1
  9
$SHADEDGE
 70
     3
  9
$SHADEDIF
 70
    70
  9
$TILEMODE
 70
     1
  9
$MAXACTVP
 70
    64
  9
$PINSBASE
 10
0.0
 20
0.0
 30
0.0
  9
$PLIMCHECK
 70
     0
  9
$PEXTMIN
 10
1.000000000000000E+20
 20
1.000000000000000E+20
 30
1.000000000000000E+20
  9
$PEXTMAX
 10
-1.000000000000000E+20
 20
-1.000000000000000E+20
 30
-1.000000000000000E+20
  9
$PLIMMIN
 10
0.0
 20
0.0
  9
$PLIMMAX
 10
12.0
 20
9.0
  9
$UNITMODE
 70
     0
  9
$VISRETAIN
 70
     1
  9
$PLINEGEN
 70
     0
  9
$PSLTSCALE
 70
     1
  9
$TREEDEPTH
 70
  3020
  9
$CMLSTYLE
  2
Standard
  9
$CMLJUST
 70
     0
  9
$CMLSCALE
 40
1.0
  9
$PROXYGRAPHICS
 70
     1
  9
$MEASUREMENT
 70
     0
  9
$CELWEIGHT
370
    -1
  9
$ENDCAPS
280
     0
  9
$JOINSTYLE
280
     0
  9
$LWDISPLAY
290
     0
  9
$INSUNITS
 70
     1
  9
$HYPERLINKBASE
  1

  9
$STYLESHEET
  1

  9
$XEDIT
290
     1
  9
$CEPSNTYPE
380
     0
  9
$PSTYLEMODE
290
     1
  9
$FINGERPRINTGUID
  2
{2694E917-EED4-7E9A-3ECA-4657F2ACCDB7}
  9
$VERSIONGUID
  2
{FAEB1C32-E019-11D5-929B-00C0DF256EC4}
  9
$EXTNAMES
290
     1
  9
$PSVPSCALE
 40
0.0
  9
$OLESTARTUP
290
     0
  9
$SORTENTS
280
   127
  9
$INDEXCTL
280
     0
  9
$HIDETEXT
280
     1
  9
$XCLIPFRAME
280
     2
  9
$HALOGAP
280
     0
  9
$OBSCOLOR
 70
   257
  9
$OBSLTYPE
280
     0
  9
$INTERSECTIONDISPLAY
280
     0
  9
$INTERSECTIONCOLOR
 70
   257
  9
$DIMASSOC
280
     2
  9
$PROJECTNAME
  1

  9
$CAMERADISPLAY
290
     0
  9
$LENSLENGTH
 40
50.0
  9
$CAMERAHEIGHT
 40
0.0
  9
$STEPSPERSEC
 40
2.0
  9
$STEPSIZE
 40
6.0
  9
$3DDWFPREC
 40
2.0
  9
$PSOLWIDTH
 40
0.25
  9
$PSOLHEIGHT
 40
4.0
  9
$LOFTANG1
 40
1.570796326794897
  9
$LOFTANG2
 40
1.570796326794897
  9
$LOFTMAG1
 40
0.0
  9
$LOFTMAG2
 40
0.0
  9
$LOFTPARAM
 70
     7
  9
$LOFTNORMALS
280
     1
  9
$LATITUDE
 40
37.795
  9
$LONGITUDE
 40
-122.394
  9
$NORTHDIRECTION
 40
0.0
  9
$TIMEZONE
 70
 -8000
  9
$LIGHTGLYPHDISPLAY
280
     1
  9
$TILEMODELIGHTSYNCH
280
     1
  9
$SOLIDHIST
280
     1
  9
$SHOWHIST
280
     1
  9
$DWFFRAME
280
     2
  9
$DGNFRAME
280
     2
  9
$REALWORLDSCALE
290
     1
  9
$INTERFERECOLOR
 62
   256
  9
$CSHADOW
280
     0
  9
$SHADOWPLANELOCATION
 40
0.0
  0
ENDSEC
  0
SECTION
  2
CLASSES
  0
CLASS
  1
ACDBDICTIONARYWDFLT
  2
AcDbDictionaryWithDefault
  3
ObjectDBX Classes
 90
        0
 91
        4
280
     0
281
     0
  0
CLASS
  1
VISUALSTYLE
  2
AcDbVisualStyle
  3
ObjectDBX Classes
 90
     4095
 91
        4
280
     0
281
     0
  0
CLASS
  1
MATERIAL
  2
AcDbMaterial
  3
ObjectDBX Classes
 90
     1153
 91
        4
280
     0
281
     0
  0
ENDSEC
  0
SECTION
  2
TABLES
  0
TABLE
  2
VPORT
  5
759
330
0
100
AcDbSymbolTable
 70
     1
  0
VPORT
  5
779
330
759
100
AcDbSymbolTableRecord
100
AcDbViewportTableRecord
  2
*Active
 70
     0
 10
0.0
 20
0.0
 11
1.0
 21
1.0
 12
10.42990654205607
 22
4.5
 13
0.0
 23
0.0
 14
0.5
 24
0.5
 15
0.5
 25
0.5
 16
0.0
 26
0.0
 36
1.0
 17
0.0
 27
0.0
 37
0.0
 40
9.0
 41
1.972972972850329
 42
50.0
 43
0.0
 44
0.0
 50
0.0
 51
0.0
 71
     0
 72
   100
 73
     1
 74
     3
 75
     0
 76
     0
 77
     0
 78
     0
281
     0
 65
     1
110
0.0
120
0.0
130
0.0
111
1.0
121
0.0
131
0.0
112
0.0
122
1.0
132
0.0
 79
     0
146
0.0
 60
     3
 61
     5
292
     1
282
     1
141
0.0
142
0.0
 63
   250
  0
ENDTAB
  0
TABLE
  2
LTYPE
  5
756
330
0
100
AcDbSymbolTable
 70
    19
  0
LTYPE
  5
764
330
756
100
AcDbSymbolTableRecord
100
AcDbLinetypeTableRecord
  2
ByBlock
 70
     0
  3

 72
    65
 73
     0
 40
0.0
  0
LTYPE
  5
765
330
756
100
AcDbSymbolTableRecord
100
AcDbLinetypeTableRecord
  2
ByLayer
 70
     0
  3

 72
    65
 73
     0
 40
0.0
  0
LTYPE
  5
766
330
756
100
AcDbSymbolTableRecord
100
AcDbLinetypeTableRecord
  2
Continuous
 70
     0
  3
Solid line
 72
    65
 73
     0
 40
0.0
  0
LTYPE
  5
7B1
330
756
100
AcDbSymbolTableRecord
100
AcDbLinetypeTableRecord
  2
BORDER
 70
     0
  3

 72
    65
 73
     6
 40
42.00000000000001
 49
12.0
 74
     0
 49
-6.0
 74
     0
 49
12.0
 74
     0
 49
-5.95
 74
     0
 49
0.1
 74
     0
 49
-5.95
 74
     0
  0
LTYPE
  5
7B2
330
756
100
AcDbSymbolTableRecord
100
AcDbLinetypeTableRecord
  2
BORDER2
 70
     0
  3

 72
    65
 73
     6
 40
21.0
 49
6.0
 74
     0
 49
-3.0
 74
     0
 49
6.0
 74
     0
 49
-2.95
 74
     0
 49
0.1
 74
     0
 49
-2.95
 74
     0
  0
LTYPE
  5
7B3
330
756
100
AcDbSymbolTableRecord
100
AcDbLinetypeTableRecord
  2
BORDERX2
 70
     0
  3

 72
    65
 73
     6
 40
84.0
 49
24.0
 74
     0
 49
-12.0
 74
     0
 49
24.0
 74
     0
 49
-11.95
 74
     0
 49
0.1
 74
     0
 49
-11.95
 74
     0
  0
LTYPE
  5
7B4
330
756
100
AcDbSymbolTableRecord
100
AcDbLinetypeTableRecord
  2
CENTER
 70
     0
  3

 72
    65
 73
     4
 40
50.0
 49
32.0
 74
     0
 49
-6.0
 74
     0
 49
6.0
 74
     0
 49
-6.0
 74
     0
  0
LTYPE
  5
7B5
330
756
100
AcDbSymbolTableRecord
100
AcDbLinetypeTableRecord
  2
CENTER2
 70
     0
  3

 72
    65
 73
     4
 40
25.0
 49
16.0
 74
     0
 49
-3.0
 74
     0
 49
3.0
 74
     0
 49
-3.0
 74
     0
  0
LTYPE
  5
7B6
330
756
100
AcDbSymbolTableRecord
100
AcDbLinetypeTableRecord
  2
CENTERX2
 70
     0
  3

 72
    65
 73
     4
 40
100.0
 49
64.0
 74
     0
 49
-12.0
 74
     0
 49
12.0
 74
     0
 49
-12.0
 74
     0
  0
LTYPE
  5
7B7
330
756
100
AcDbSymbolTableRecord
100
AcDbLinetypeTableRecord
  2
DASHDOT
 70
     0
  3

 72
    65
 73
     4
 40
24.0
 49
12.0
 74
     0
 49
-5.95
 74
     0
 49
0.1
 74
     0
 49
-5.95
 74
     0
  0
LTYPE
  5
7B8
330
756
100
AcDbSymbolTableRecord
100
AcDbLinetypeTableRecord
  2
DASHDOT2
 70
     0
  3

 72
    65
 73
     4
 40
12.0
 49
6.0
 74
     0
 49
-2.95
 74
     0
 49
0.1
 74
     0
 49
-2.95
 74
     0
  0
LTYPE
  5
7B9
330
756
100
AcDbSymbolTableRecord
100
AcDbLinetypeTableRecord
  2
DASHDOTX2
 70
     0
  3

 72
    65
 73
     4
 40
48.0
 49
24.0
 74
     0
 49
-11.95
 74
     0
 49
0.1
 74
     0
 49
-11.95
 74
     0
  0
LTYPE
  5
7BA
330
756
100
AcDbSymbolTableRecord
100
AcDbLinetypeTableRecord
  2
DASHED
 70
     0
  3

 72
    65
 73
     2
 40
18.0
 49
12.0
 74
     0
 49
-6.0
 74
     0
  0
LTYPE
  5
7BB
330
756
100
AcDbSymbolTableRecord
100
AcDbLinetypeTableRecord
  2
DASHED2
 70
     0
  3

 72
    65
 73
     2
 40
9.0
 49
6.0
 74
     0
 49
-3.0
 74
     0
  0
LTYPE
  5
7BC
330
756
100
AcDbSymbolTableRecord
100
AcDbLinetypeTableRecord
  2
DASHEDX2
 70
     0
  3

 72
    65
 73
     2
 40
36.0
 49
24.0
 74
     0
 49
-12.0
 74
     0
  0
LTYPE
  5
7BD
330
756
100
AcDbSymbolTableRecord
100
AcDbLinetypeTableRecord
  2
DIVIDE
 70
     0
  3

 72
    65
 73
     6
 40
29.99999999999999
 49
12.0
 74
     0
 49
-5.9
 74
     0
 49
0.15
 74
     0
 49
-5.9
 74
     0
 49
0.15
 74
     0
 49
-5.9
 74
     0
  0
LTYPE
  5
7BE
330
756
100
AcDbSymbolTableRecord
100
AcDbLinetypeTableRecord
  2
DIVIDE2
 70
     0
  3

 72
    65
 73
     6
 40
15.0
 49
6.0
 74
     0
 49
-2.9
 74
     0
 49
0.15
 74
     0
 49
-2.9
 74
     0
 49
0.15
 74
     0
 49
-2.9
 74
     0
  0
LTYPE
  5
7BF
330
756
100
AcDbSymbolTableRecord
100
AcDbLinetypeTableRecord
  2
DIVIDEX2
 70
     0
  3

 72
    65
 73
     6
 40
59.99999999999999
 49
24.0
 74
     0
 49
-11.9
 74
     0
 49
0.15
 74
     0
 49
-11.9
 74
     0
 49
0.15
 74
     0
 49
-11.9
 74
     0
  0
LTYPE
  5
7C0
330
756
100
AcDbSymbolTableRecord
100
AcDbLinetypeTableRecord
  2
DOT
 70
     0
  3

 72
    65
 73
     2
 40
6.3
 49
0.1
 74
     0
 49
-6.2
 74
     0
  0
LTYPE
  5
7C1
330
756
100
AcDbSymbolTableRecord
100
AcDbLinetypeTableRecord
  2
DOT2
 70
     0
  3

 72
    65
 73
     2
 40
3.2
 49
0.1
 74
     0
 49
-3.1
 74
     0
  0
LTYPE
  5
7C2
330
756
100
AcDbSymbolTableRecord
100
AcDbLinetypeTableRecord
  2
DOTX2
 70
     0
  3

 72
    65
 73
     2
 40
12.5
 49
0.1
 74
     0
 49
-12.4
 74
     0
  0
ENDTAB
  0
TABLE
  2
LAYER
  5
753
330
0
100
AcDbSymbolTable
 70
    13
  0
LAYER
  5
761
330
753
100
AcDbSymbolTableRecord
100
AcDbLayerTableRecord
  2
0
 70
     0
 62
     7
420
 16777215
  6
Continuous
370
    25
390
760
347
78E
  0
LAYER
  5
7C3
330
753
100
AcDbSymbolTableRecord
100
AcDbLayerTableRecord
  2
_dim
 70
     0
 62
   178
420
        0
  6
Continuous
370
    25
390
760
347
78E
  0
LAYER
  5
7C4
330
753
100
AcDbSymbolTableRecord
100
AcDbLayerTableRecord
  2
blind-thread-under-4-40
 70
     0
 62
   178
420
        0
  6
Continuous
370
    25
390
760
347
78E
  0
LAYER
  5
7C5
330
753
100
AcDbSymbolTableRecord
100
AcDbLayerTableRecord
  2
perimeter-lip-0.15
 70
     0
 62
   178
420
        0
  6
DASHED
370
    25
390
760
347
78E
  0
LAYER
  5
7C6
330
753
100
AcDbSymbolTableRecord
100
AcDbLayerTableRecord
  2
cut-under-0.015
 70
     0
 62
   178
420
        0
  6
Continuous
370
    25
390
760
347
78E
  0
LAYER
  5
7C7
330
753
100
AcDbSymbolTableRecord
100
AcDbLayerTableRecord
  2
ref-side-view
 70
     0
 62
   178
420
        0
  6
Continuous
370
    25
390
760
347
78E
  0
LAYER
  5
7C8
330
753
100
AcDbSymbolTableRecord
100
AcDbLayerTableRecord
  2
cut-under-0.0625
 70
     0
 62
   178
420
        0
  6
Continuous
370
    25
390
760
347
78E
  0
LAYER
  5
7C9
330
753
100
AcDbSymbolTableRecord
100
AcDbLayerTableRecord
  2
etch
 70
     0
 62
   178
420
        0
  6
Continuous
370
     0
390
760
347
78E
  0
LAYER
  5
7CA
330
753
100
AcDbSymbolTableRecord
100
AcDbLayerTableRecord
  2
cut-under-0.0775
 70
     0
 62
   178
420
        0
  6
Continuous
370
    25
390
760
347
78E
  0
LAYER
  5
7CB
330
753
100
AcDbSymbolTableRecord
100
AcDbLayerTableRecord
  2
cut-under-0.1125
 70
     0
 62
   178
420
        0
  6
Continuous
370
    25
390
760
347
78E
  0
LAYER
  5
7CC
330
753
100
AcDbSymbolTableRecord
100
AcDbLayerTableRecord
  2
cut-through
 70
     0
 62
   178
420
        0
  6
Continuous
370
    25
390
760
347
78E
  0
LAYER
  5
7CD
330
753
100
AcDbSymbolTableRecord
100
AcDbLayerTableRecord
  2
icon
 70
     0
 62
   178
420
        0
  6
Continuous
370
    25
390
760
347
78E
  0
LAYER
  5
7CE
330
753
100
AcDbSymbolTableRecord
100
AcDbLayerTableRecord
  2
Defpoints
 70
     0
 62
     7
  6
Continuous
290
     0
370
    -3
390
760
347
78E
  0
ENDTAB
  0
TABLE
  2
STYLE
  5
754
330
0
100
AcDbSymbolTable
 70
     2
  0
STYLE
  5
762
330
754
100
AcDbSymbolTableRecord
100
AcDbTextStyleTableRecord
  2
Standard
 70
     0
 40
0.0
 41
1.0
 50
0.0
 71
     0
 42
0.2
  3
txt
  4

  0
STYLE
  5
7E7
330
754
100
AcDbSymbolTableRecord
100
AcDbTextStyleTableRecord
  2
textstyle0
 70
     0
 40
0.0
 41
1.0
 50
0.0
 71
     0
 42
0.2
  3

  4

1001
ACAD
1000
Arial
1071
        0
  0
ENDTAB
  0
TABLE
  2
VIEW
  5
757
330
0
100
AcDbSymbolTable
 70
     0
  0
ENDTAB
  0
TABLE
  2
UCS
  5
758
330
0
100
AcDbSymbolTable
 70
     0
  0
ENDTAB
  0
TABLE
  2
APPID
  5
75A
330
0
100
AcDbSymbolTable
 70
     2
  0
APPID
  5
763
330
75A
100
AcDbSymbolTableRecord
100
AcDbRegAppTableRecord
  2
ACAD
 70
     0
  0
APPID
  5
78F
330
75A
100
AcDbSymbolTableRecord
100
AcDbRegAppTableRecord
  2
QCAD
 70
     0
  0
ENDTAB
  0
TABLE
  2
DIMSTYLE
  5
75B
330
0
100
AcDbSymbolTable
 70
     2
100
AcDbDimStyleTable
  0
DIMSTYLE
105
777
330
75B
100
AcDbSymbolTableRecord
100
AcDbDimStyleTableRecord
  2
Standard
 70
     0
178
     0
340
762
  0
DIMSTYLE
105
7B0
102
{ACAD_REACTORS
330
74E
330
74F
102
}
330
75B
100
AcDbSymbolTableRecord
100
AcDbDimStyleTableRecord
  2
QCADDimStyle
 70
     0
 41
0.125
 42
0.03125
 44
0.0625
 73
     0
 77
     1
140
0.125
147
0.03125
178
     0
340
762
  0
ENDTAB
  0
TABLE
  2
BLOCK_RECORD
  5
752
330
0
100
AcDbSymbolTable
 70
     3
  0
BLOCK_RECORD
  5
76F
330
752
100
AcDbSymbolTableRecord
100
AcDbBlockTableRecord
  2
*Model_Space
340
772
 70
     0
280
     1
281
     0
  0
BLOCK_RECORD
  5
76B
330
752
100
AcDbSymbolTableRecord
100
AcDbBlockTableRecord
  2
*Paper_Space
340
76E
 70
     0
280
     1
281
     0
  0
BLOCK_RECORD
  5
773
330
752
100
AcDbSymbolTableRecord
100
AcDbBlockTableRecord
  2
*Paper_Space0
340
776
 70
     0
280
     1
281
     0
  0
BLOCK_RECORD
  5
7CF
330
752
100
AcDbSymbolTableRecord
100
AcDbBlockTableRecord
  2
*D1
340
0
 70
     0
280
     1
281
     0
  0
BLOCK_RECORD
  5
7DB
330
752
100
AcDbSymbolTableRecord
100
AcDbBlockTableRecord
  2
*D2
340
0
 70
     0
280
     1
281
     0
  0
ENDTAB
  0
ENDSEC
  0
SECTION
  2
BLOCKS
  0
BLOCK
  5
770
330
76F
100
AcDbEntity
  8
0
100
AcDbBlockBegin
  2
*Model_Space
 70
     0
 10
0.0
 20
0.0
 30
0.0
  3
*Model_Space
  1

  0
ENDBLK
  5
771
330
76F
100
AcDbEntity
  8
0
100
AcDbBlockEnd
  0
BLOCK
  5
76C
330
76B
100
AcDbEntity
 67
     1
  8
0
100
AcDbBlockBegin
  2
*Paper_Space
 70
     0
 10
0.0
 20
0.0
 30
0.0
  3
*Paper_Space
  1

  0
ENDBLK
  5
76D
330
76B
100
AcDbEntity
 67
     1
  8
0
100
AcDbBlockEnd
  0
BLOCK
  5
774
330
773
100
AcDbEntity
  8
0
100
AcDbBlockBegin
  2
*Paper_Space0
 70
     0
 10
0.0
 20
0.0
 30
0.0
  3
*Paper_Space0
  1

  0
ENDBLK
  5
775
330
773
100
AcDbEntity
  8
0
100
AcDbBlockEnd
  0
BLOCK
  5
7D9
330
7CF
100
AcDbEntity
  8
0
100
AcDbBlockBegin
  2
*D1
 70
     1
 10
0.0
 20
0.0
 30
0.0
  3
*D1
  1

  0
LINE
  5
7D0
330
7CF
100
AcDbEntity
  8
_dim
 62
     0
370
    -2
100
AcDbLine
 10
-0.03125
 20
0.0
 30
0.0
 11
-0.5625000000000001
 21
0.0
 31
0.0
  0
LINE
  5
7D1
330
7CF
100
AcDbEntity
  8
_dim
 62
     0
370
    -2
100
AcDbLine
 10
-0.03125
 20
4.500000000000001
 30
0.0
 11
-0.5624999999999999
 21
4.500000000000001
 31
0.0
  0
LINE
  5
7D2
330
7CF
100
AcDbEntity
  8
_dim
 62
     0
370
    -2
100
AcDbLine
 10
-0.5000000000000001
 20
0.125
 30
0.0
 11
-0.4999999999999999
 21
4.375000000000001
 31
0.0
  0
SOLID
  5
7D3
330
7CF
100
AcDbEntity
  8
_dim
 62
     0
100
AcDbTrace
 10
-0.5208333333333335
 20
0.125
 30
0.0
 11
-0.4791666666666668
 21
0.125
 31
0.0
 12
-0.5000000000000001
 22
0.0
 32
0.0
 13
-0.5000000000000001
 23
0.0
 33
0.0
  0
SOLID
  5
7D4
330
7CF
100
AcDbEntity
  8
_dim
 62
     0
100
AcDbTrace
 10
-0.4791666666666666
 20
4.375000000000001
 30
0.0
 11
-0.5208333333333333
 21
4.375000000000001
 31
0.0
 12
-0.4999999999999999
 22
4.500000000000001
 32
0.0
 13
-0.4999999999999999
 23
4.500000000000001
 33
0.0
  0
MTEXT
  5
7D5
330
7CF
100
AcDbEntity
  8
_dim
 62
     0
100
AcDbMText
 10
-0.59375
 20
2.25
 30
0.0
 40
0.125
 41
0.0
 46
0.0
 71
     5
 72
     1
  1
\A1;4.5
 11
4.934324553889584E-17
 21
1.0
 31
0.0
 73
     1
 44
1.0
  0
POINT
  5
7D6
330
7CF
100
AcDbEntity
  8
Defpoints
 62
     0
100
AcDbPoint
 10
0.0
 20
0.0
 30
0.0
  0
POINT
  5
7D7
330
7CF
100
AcDbEntity
  8
Defpoints
 62
     0
100
AcDbPoint
 10
0.0
 20
4.500000000000001
 30
0.0
  0
POINT
  5
7D8
330
7CF
100
AcDbEntity
  8
Defpoints
 62
     0
100
AcDbPoint
 10
-0.4999999999999999
 20
4.500000000000001
 30
0.0
  0
ENDBLK
  5
7DA
330
7CF
100
AcDbEntity
  8
0
100
AcDbBlockEnd
  0
BLOCK
  5
7E5
330
7DB
100
AcDbEntity
  8
0
100
AcDbBlockBegin
  2
*D2
 70
     1
 10
0.0
 20
0.0
 30
0.0
  3
*D2
  1

  0
LINE
  5
7DC
330
7DB
100
AcDbEntity
  8
_dim
 62
     0
370
    -2
100
AcDbLine
 10
0.0
 20
-0.03125
 30
0.0
 11
0.0
 21
-0.5625
 31
0.0
  0
LINE
  5
7DD
330
7DB
100
AcDbEntity
  8
_dim
 62
     0
370
    -2
100
AcDbLine
 10
7.0
 20
-0.03125
 30
0.0
 11
7.0
 21
-0.5625
 31
0.0
  0
LINE
  5
7DE
330
7DB
100
AcDbEntity
  8
_dim
 62
     0
370
    -2
100
AcDbLine
 10
0.125
 20
-0.5
 30
0.0
 11
6.875
 21
-0.5
 31
0.0
  0
SOLID
  5
7DF
330
7DB
100
AcDbEntity
  8
_dim
 62
     0
100
AcDbTrace
 10
0.125
 20
-0.4791666666666667
 30
0.0
 11
0.125
 21
-0.5208333333333334
 31
0.0
 12
0.0
 22
-0.5
 32
0.0
 13
0.0
 23
-0.5
 33
0.0
  0
SOLID
  5
7E0
330
7DB
100
AcDbEntity
  8
_dim
 62
     0
100
AcDbTrace
 10
6.875
 20
-0.5208333333333334
 30
0.0
 11
6.875
 21
-0.4791666666666667
 31
0.0
 12
7.0
 22
-0.5
 32
0.0
 13
7.0
 23
-0.5
 33
0.0
  0
MTEXT
  5
7E1
330
7DB
100
AcDbEntity
  8
_dim
 62
     0
100
AcDbMText
 10
3.5
 20
-0.40625
 30
0.0
 40
0.125
 41
0.0
 46
0.0
 71
     5
 72
     1
  1
\A1;7
 73
     1
 44
1.0
  0
POINT
  5
7E2
330
7DB
100
AcDbEntity
  8
Defpoints
 62
     0
100
AcDbPoint
 10
0.0
 20
0.0
 30
0.0
  0
POINT
  5
7E3
330
7DB
100
AcDbEntity
  8
Defpoints
 62
     0
100
AcDbPoint
 10
7.0
 20
0.0
 30
0.0
  0
POINT
  5
7E4
330
7DB
100
AcDbEntity
  8
Defpoints
 62
     0
100
AcDbPoint
 10
7.0
 20
-0.5
 30
0.0
  0
ENDBLK
  5
7E6
330
7DB
100
AcDbEntity
  8
0
100
AcDbBlockEnd
  0
ENDSEC
  0
SECTION
  2
ENTITIES
  0
ARC
  5
110
330
76F
100
AcDbEntity
  8
etch
100
AcDbCircle
 10
1.249999999999999
 20
3.35
 30
0.0
 40
0.05
100
AcDbArc
 50
90.0
 51
180.0
  0
ARC
  5
111
330
76F
100
AcDbEntity
  8
etch
100
AcDbCircle
 10
1.25
 20
2.65
 30
0.0
 40
0.05
100
AcDbArc
 50
180.0
 51
270.0
  0
LINE
  5
112
330
76F
100
AcDbEntity
  8
etch
100
AcDbLine
 10
1.2
 20
3.35
 30
0.0
 11
1.2
 21
2.65
 31
0.0
  0
CIRCLE
  5
117
330
76F
100
AcDbEntity
  8
blind-thread-under-4-40
100
AcDbCircle
 10
0.2
 20
0.2
 30
0.0
 40
0.0575
  0
CIRCLE
  5
118
330
76F
100
AcDbEntity
  8
blind-thread-under-4-40
100
AcDbCircle
 10
0.2
 20
4.225
 30
0.0
 40
0.065
  0
CIRCLE
  5
119
330
76F
100
AcDbEntity
  8
blind-thread-under-4-40
100
AcDbCircle
 10
6.8
 20
4.225
 30
0.0
 40
0.0575
  0
CIRCLE
  5
11A
330
76F
100
AcDbEntity
  8
blind-thread-under-4-40
100
AcDbCircle
 10
6.8
 20
0.2
 30
0.0
 40
0.0575
  0
LINE
  5
11B
330
76F
100
AcDbEntity
  8
cut-through
100
AcDbLine
 10
0.0
 20
4.500000000000001
 30
0.0
 11
0.0
 21
0.0
 31
0.0
  0
LINE
  5
11C
330
76F
100
AcDbEntity
  8
cut-through
100
AcDbLine
 10
7.0
 20
4.500000000000001
 30
0.0
 11
0.0
 21
4.500000000000001
 31
0.0
  0
LINE
  5
11D
330
76F
100
AcDbEntity
  8
cut-through
100
AcDbLine
 10
7.0
 20
0.0
 30
0.0
 11
7.0
 21
4.500000000000001
 31
0.0
  0
LINE
  5
11E
330
76F
100
AcDbEntity
  8
cut-through
100
AcDbLine
 10
0.0
 20
0.0
 30
0.0
 11
7.0
 21
0.0
 31
0.0
  0
LINE
  5
11F
330
76F
100
AcDbEntity
  8
cut-through
100
AcDbLine
 10
0.45
 20
0.6000000000000001
 30
0.0
 11
3.350000000000001
 21
0.6000000000000001
 31
0.0
  0
LINE
  5
120
330
76F
100
AcDbEntity
  8
cut-through
100
AcDbLine
 10
3.4
 20
0.6500000000000001
 30
0.0
 11
3.4
 21
2.350000000000001
 31
0.0
  0
LINE
  5
121
330
76F
100
AcDbEntity
  8
cut-through
100
AcDbLine
 10
3.35
 20
2.4
 30
0.0
 11
0.4499999999999996
 21
2.4
 31
0.0
  0
LINE
  5
122
330
76F
100
AcDbEntity
  8
cut-through
100
AcDbLine
 10
0.4
 20
2.350000000000001
 30
0.0
 11
0.4
 21
0.6500000000000004
 31
0.0
  0
LINE
  5
12B
330
76F
100
AcDbEntity
  8
etch
100
AcDbLine
 10
3.65
 20
2.4
 30
0.0
 11
6.550000000000001
 21
2.4
 31
0.0
  0
LINE
  5
12C
330
76F
100
AcDbEntity
  8
etch
100
AcDbLine
 10
6.6
 20
2.350000000000001
 30
0.0
 11
6.6
 21
0.25
 31
0.0
  0
LINE
  5
12D
330
76F
100
AcDbEntity
  8
etch
100
AcDbLine
 10
6.55
 20
0.2
 30
0.0
 11
3.649999999999999
 21
0.2
 31
0.0
  0
LINE
  5
12E
330
76F
100
AcDbEntity
  8
etch
100
AcDbLine
 10
3.6
 20
0.25
 30
0.0
 11
3.6
 21
2.350000000000001
 31
0.0
  0
LINE
  5
13E
330
76F
100
AcDbEntity
  8
cut-through
100
AcDbLine
 10
0.45
 20
0.2
 30
0.0
 11
0.9500000000000001
 21
0.2
 31
0.0
  0
LINE
  5
13F
330
76F
100
AcDbEntity
  8
cut-through
100
AcDbLine
 10
1.0
 20
0.2500000000000001
 30
0.0
 11
1.0
 21
0.3500000000000001
 31
0.0
  0
LINE
  5
140
330
76F
100
AcDbEntity
  8
cut-through
100
AcDbLine
 10
0.95
 20
0.4000000000000001
 30
0.0
 11
0.4500000000000001
 21
0.4000000000000001
 31
0.0
  0
LINE
  5
141
330
76F
100
AcDbEntity
  8
cut-through
100
AcDbLine
 10
0.4
 20
0.3500000000000001
 30
0.0
 11
0.4
 21
0.25
 31
0.0
  0
LINE
  5
142
330
76F
100
AcDbEntity
  8
cut-through
100
AcDbLine
 10
2.85
 20
0.2
 30
0.0
 11
3.350000000000001
 21
0.2
 31
0.0
  0
LINE
  5
143
330
76F
100
AcDbEntity
  8
cut-through
100
AcDbLine
 10
3.4
 20
0.25
 30
0.0
 11
3.4
 21
0.3500000000000001
 31
0.0
  0
LINE
  5
144
330
76F
100
AcDbEntity
  8
cut-through
100
AcDbLine
 10
3.35
 20
0.4000000000000001
 30
0.0
 11
2.85
 21
0.4000000000000001
 31
0.0
  0
LINE
  5
145
330
76F
100
AcDbEntity
  8
cut-through
100
AcDbLine
 10
2.8
 20
0.3500000000000001
 30
0.0
 11
2.8
 21
0.25
 31
0.0
  0
LINE
  5
146
330
76F
100
AcDbEntity
  8
cut-through
100
AcDbLine
 10
1.25
 20
0.2
 30
0.0
 11
1.75
 21
0.2
 31
0.0
  0
LINE
  5
147
330
76F
100
AcDbEntity
  8
cut-through
100
AcDbLine
 10
1.8
 20
0.25
 30
0.0
 11
1.8
 21
0.3500000000000001
 31
0.0
  0
LINE
  5
148
330
76F
100
AcDbEntity
  8
cut-through
100
AcDbLine
 10
1.75
 20
0.4000000000000001
 30
0.0
 11
1.25
 21
0.4000000000000001
 31
0.0
  0
LINE
  5
149
330
76F
100
AcDbEntity
  8
cut-through
100
AcDbLine
 10
1.2
 20
0.3500000000000001
 30
0.0
 11
1.2
 21
0.2500000000000001
 31
0.0
  0
LINE
  5
14A
330
76F
100
AcDbEntity
  8
cut-through
100
AcDbLine
 10
2.05
 20
0.2
 30
0.0
 11
2.55
 21
0.2
 31
0.0
  0
LINE
  5
14B
330
76F
100
AcDbEntity
  8
cut-through
100
AcDbLine
 10
2.6
 20
0.25
 30
0.0
 11
2.6
 21
0.3500000000000001
 31
0.0
  0
LINE
  5
14C
330
76F
100
AcDbEntity
  8
cut-through
100
AcDbLine
 10
2.55
 20
0.4000000000000001
 30
0.0
 11
2.05
 21
0.4000000000000001
 31
0.0
  0
LINE
  5
14D
330
76F
100
AcDbEntity
  8
cut-through
100
AcDbLine
 10
2.0
 20
0.3500000000000001
 30
0.0
 11
2.0
 21
0.25
 31
0.0
  0
LINE
  5
162
330
76F
100
AcDbEntity
  8
etch
100
AcDbLine
 10
0.45
 20
2.6
 30
0.0
 11
0.9500000000000001
 21
2.6
 31
0.0
  0
LINE
  5
163
330
76F
100
AcDbEntity
  8
etch
100
AcDbLine
 10
1.0
 20
2.65
 30
0.0
 11
1.0
 21
3.35
 31
0.0
  0
LINE
  5
164
330
76F
100
AcDbEntity
  8
etch
100
AcDbLine
 10
0.9499999999999992
 20
3.4
 30
0.0
 11
0.4499999999999991
 21
3.4
 31
0.0
  0
LINE
  5
165
330
76F
100
AcDbEntity
  8
etch
100
AcDbLine
 10
0.4
 20
3.35
 30
0.0
 11
0.4
 21
2.65
 31
0.0
  0
LINE
  5
166
330
76F
100
AcDbEntity
  8
etch
100
AcDbLine
 10
1.8
 20
2.65
 30
0.0
 11
1.799999999999999
 21
3.35
 31
0.0
  0
LINE
  5
167
330
76F
100
AcDbEntity
  8
etch
100
AcDbLine
 10
2.597804709531164
 20
2.650181879267035
 30
0.0
 11
2.597804709531163
 21
3.350181879267035
 31
0.0
  0
LINE
  5
168
330
76F
100
AcDbEntity
  8
etch
100
AcDbLine
 10
2.0
 20
3.35
 30
0.0
 11
2.0
 21
2.65
 31
0.0
  0
ARC
  5
16B
330
76F
100
AcDbEntity
  8
etch
100
AcDbCircle
 10
0.4499999999999991
 20
3.35
 30
0.0
 40
0.05
100
AcDbArc
 50
90.0
 51
180.0
  0
ARC
  5
16C
330
76F
100
AcDbEntity
  8
etch
100
AcDbCircle
 10
0.9499999999999991
 20
3.35
 30
0.0
 40
0.05
100
AcDbArc
 50
0.0
 51
90.0
  0
ARC
  5
16D
330
76F
100
AcDbEntity
  8
etch
100
AcDbCircle
 10
0.95
 20
2.65
 30
0.0
 40
0.05
100
AcDbArc
 50
270.0
 51
0.0
  0
ARC
  5
16E
330
76F
100
AcDbEntity
  8
etch
100
AcDbCircle
 10
0.45
 20
2.65
 30
0.0
 40
0.05
100
AcDbArc
 50
180.0
 51
270.0
  0
ARC
  5
16F
330
76F
100
AcDbEntity
  8
etch
100
AcDbCircle
 10
1.75
 20
2.65
 30
0.0
 40
0.05
100
AcDbArc
 50
270.0
 51
0.0
  0
ARC
  5
170
330
76F
100
AcDbEntity
  8
etch
100
AcDbCircle
 10
2.05
 20
2.65
 30
0.0
 40
0.05
100
AcDbArc
 50
180.0
 51
270.0
  0
ARC
  5
171
330
76F
100
AcDbEntity
  8
etch
100
AcDbCircle
 10
2.547804709531163
 20
2.650181879267034
 30
0.0
 40
0.05
100
AcDbArc
 50
270.0
 51
0.0
  0
ARC
  5
172
330
76F
100
AcDbEntity
  8
etch
100
AcDbCircle
 10
2.547804709531163
 20
3.350181879267035
 30
0.0
 40
0.05
100
AcDbArc
 50
0.0
 51
90.0
  0
ARC
  5
173
330
76F
100
AcDbEntity
  8
etch
100
AcDbCircle
 10
2.05
 20
3.35
 30
0.0
 40
0.05
100
AcDbArc
 50
90.0
 51
180.0
  0
ARC
  5
174
330
76F
100
AcDbEntity
  8
etch
100
AcDbCircle
 10
1.749999999999999
 20
3.35
 30
0.0
 40
0.05
100
AcDbArc
 50
0.0
 51
90.0
  0
ARC
  5
175
330
76F
100
AcDbEntity
  8
etch
100
AcDbCircle
 10
6.55
 20
2.350000000000001
 30
0.0
 40
0.05
100
AcDbArc
 50
0.0
 51
89.99999999999898
  0
ARC
  5
176
330
76F
100
AcDbEntity
  8
etch
100
AcDbCircle
 10
6.55
 20
0.25
 30
0.0
 40
0.05
100
AcDbArc
 50
270.0
 51
0.0
  0
ARC
  5
177
330
76F
100
AcDbEntity
  8
etch
100
AcDbCircle
 10
3.65
 20
0.25
 30
0.0
 40
0.05
100
AcDbArc
 50
180.0
 51
269.9999999999995
  0
ARC
  5
178
330
76F
100
AcDbEntity
  8
etch
100
AcDbCircle
 10
3.65
 20
2.350000000000001
 30
0.0
 40
0.05
100
AcDbArc
 50
90.0
 51
180.0
  0
ARC
  5
179
330
76F
100
AcDbEntity
  8
cut-through
100
AcDbCircle
 10
3.35
 20
2.350000000000001
 30
0.0
 40
0.05
100
AcDbArc
 50
0.0
 51
90.0
  0
ARC
  5
17A
330
76F
100
AcDbEntity
  8
cut-through
100
AcDbCircle
 10
0.45
 20
2.350000000000001
 30
0.0
 40
0.05
100
AcDbArc
 50
90.00000000000038
 51
180.0
  0
ARC
  5
17B
330
76F
100
AcDbEntity
  8
cut-through
100
AcDbCircle
 10
0.45
 20
0.6500000000000001
 30
0.0
 40
0.05
100
AcDbArc
 50
180.0
 51
270.0
  0
ARC
  5
17C
330
76F
100
AcDbEntity
  8
cut-through
100
AcDbCircle
 10
3.350000000000001
 20
0.6500000000000001
 30
0.0
 40
0.05
100
AcDbArc
 50
270.0
 51
0.0
  0
ARC
  5
17D
330
76F
100
AcDbEntity
  8
cut-through
100
AcDbCircle
 10
3.35
 20
0.3500000000000001
 30
0.0
 40
0.05
100
AcDbArc
 50
0.0
 51
90.0
  0
ARC
  5
17E
330
76F
100
AcDbEntity
  8
cut-through
100
AcDbCircle
 10
3.350000000000001
 20
0.25
 30
0.0
 40
0.05
100
AcDbArc
 50
270.0
 51
0.0
  0
ARC
  5
17F
330
76F
100
AcDbEntity
  8
cut-through
100
AcDbCircle
 10
2.85
 20
0.25
 30
0.0
 40
0.05
100
AcDbArc
 50
180.0
 51
270.0
  0
ARC
  5
180
330
76F
100
AcDbEntity
  8
cut-through
100
AcDbCircle
 10
2.85
 20
0.3500000000000001
 30
0.0
 40
0.05
100
AcDbArc
 50
90.0
 51
180.0
  0
ARC
  5
181
330
76F
100
AcDbEntity
  8
cut-through
100
AcDbCircle
 10
2.55
 20
0.3500000000000001
 30
0.0
 40
0.05
100
AcDbArc
 50
0.0
 51
90.0
  0
ARC
  5
182
330
76F
100
AcDbEntity
  8
cut-through
100
AcDbCircle
 10
2.55
 20
0.25
 30
0.0
 40
0.05
100
AcDbArc
 50
270.0
 51
0.0
  0
ARC
  5
183
330
76F
100
AcDbEntity
  8
cut-through
100
AcDbCircle
 10
2.05
 20
0.25
 30
0.0
 40
0.05
100
AcDbArc
 50
180.0
 51
270.0
  0
ARC
  5
184
330
76F
100
AcDbEntity
  8
cut-through
100
AcDbCircle
 10
2.05
 20
0.3500000000000001
 30
0.0
 40
0.05
100
AcDbArc
 50
90.0
 51
180.0
  0
ARC
  5
185
330
76F
100
AcDbEntity
  8
cut-through
100
AcDbCircle
 10
1.75
 20
0.25
 30
0.0
 40
0.05
100
AcDbArc
 50
270.0
 51
0.0
  0
ARC
  5
186
330
76F
100
AcDbEntity
  8
cut-through
100
AcDbCircle
 10
1.75
 20
0.3500000000000001
 30
0.0
 40
0.05
100
AcDbArc
 50
0.0
 51
90.0
  0
ARC
  5
187
330
76F
100
AcDbEntity
  8
cut-through
100
AcDbCircle
 10
1.25
 20
0.3500000000000001
 30
0.0
 40
0.05
100
AcDbArc
 50
90.0
 51
180.0
  0
ARC
  5
188
330
76F
100
AcDbEntity
  8
cut-through
100
AcDbCircle
 10
1.25
 20
0.2500000000000001
 30
0.0
 40
0.05
100
AcDbArc
 50
180.0
 51
270.0
  0
ARC
  5
189
330
76F
100
AcDbEntity
  8
cut-through
100
AcDbCircle
 10
0.9500000000000001
 20
0.2500000000000001
 30
0.0
 40
0.05
100
AcDbArc
 50
270.0
 51
0.0
  0
ARC
  5
18A
330
76F
100
AcDbEntity
  8
cut-through
100
AcDbCircle
 10
0.95
 20
0.3500000000000001
 30
0.0
 40
0.05
100
AcDbArc
 50
0.0
 51
90.0
  0
ARC
  5
18B
330
76F
100
AcDbEntity
  8
cut-through
100
AcDbCircle
 10
0.45
 20
0.25
 30
0.0
 40
0.05
100
AcDbArc
 50
180.0
 51
270.0
  0
ARC
  5
18C
330
76F
100
AcDbEntity
  8
cut-through
100
AcDbCircle
 10
0.4500000000000001
 20
0.3500000000000001
 30
0.0
 40
0.05
100
AcDbArc
 50
90.0
 51
180.0
  0
ARC
  5
22B
330
76F
100
AcDbEntity
  8
etch
100
AcDbCircle
 10
2.85
 20
2.65
 30
0.0
 40
0.05
100
AcDbArc
 50
180.0
 51
270.0
  0
ARC
  5
22D
330
76F
100
AcDbEntity
  8
etch
100
AcDbCircle
 10
3.35
 20
2.65
 30
0.0
 40
0.05
100
AcDbArc
 50
270.0
 51
0.0
  0
LINE
  5
22E
330
76F
100
AcDbEntity
  8
etch
100
AcDbLine
 10
3.4
 20
2.65
 30
0.0
 11
3.4
 21
3.35
 31
0.0
  0
ARC
  5
22F
330
76F
100
AcDbEntity
  8
etch
100
AcDbCircle
 10
3.35
 20
3.350000000000001
 30
0.0
 40
0.05
100
AcDbArc
 50
0.0
 51
90.0
  0
ARC
  5
231
330
76F
100
AcDbEntity
  8
etch
100
AcDbCircle
 10
2.85
 20
3.35
 30
0.0
 40
0.05
100
AcDbArc
 50
90.0
 51
180.0
  0
LINE
  5
232
330
76F
100
AcDbEntity
  8
etch
100
AcDbLine
 10
2.8
 20
3.35
 30
0.0
 11
2.800000000000001
 21
2.65
 31
0.0
  0
LINE
  5
26B
330
76F
100
AcDbEntity
  8
etch
100
AcDbLine
 10
1.249999999999999
 20
3.399999999999999
 30
0.0
 11
1.749999999999999
 21
3.399999999999999
 31
0.0
  0
LINE
  5
26C
330
76F
100
AcDbEntity
  8
etch
100
AcDbLine
 10
1.75
 20
2.6
 30
0.0
 11
1.25
 21
2.6
 31
0.0
  0
LINE
  5
26D
330
76F
100
AcDbEntity
  8
etch
100
AcDbLine
 10
2.05
 20
3.399999999999999
 30
0.0
 11
2.547804709531163
 21
3.400181879267035
 31
0.0
  0
LINE
  5
26E
330
76F
100
AcDbEntity
  8
etch
100
AcDbLine
 10
2.547804709531163
 20
2.600181879267034
 30
0.0
 11
2.05
 21
2.6
 31
0.0
  0
LINE
  5
26F
330
76F
100
AcDbEntity
  8
etch
100
AcDbLine
 10
2.85
 20
2.6
 30
0.0
 11
3.35
 21
2.6
 31
0.0
  0
LINE
  5
270
330
76F
100
AcDbEntity
  8
etch
100
AcDbLine
 10
3.35
 20
3.400000000000001
 30
0.0
 11
2.85
 21
3.399999999999999
 31
0.0
  0
LINE
  5
2D0
330
76F
100
AcDbEntity
  8
etch
100
AcDbLine
 10
6.049999999999999
 20
2.600000000000001
 30
0.0
 11
6.550000000000001
 21
2.600000000000001
 31
0.0
  0
ARC
  5
2D5
330
76F
100
AcDbEntity
  8
etch
100
AcDbCircle
 10
6.550000000000001
 20
2.65
 30
0.0
 40
0.05
100
AcDbArc
 50
270.0
 51
0.0
  0
ARC
  5
2D6
330
76F
100
AcDbEntity
  8
etch
100
AcDbCircle
 10
6.049999999999999
 20
2.65
 30
0.0
 40
0.05
100
AcDbArc
 50
180.0
 51
270.0
  0
LINE
  5
386
330
76F
100
AcDbEntity
  8
etch
100
AcDbLine
 10
6.598902354765582
 20
2.650090939633518
 30
0.0
 11
6.6
 21
3.35
 31
0.0
  0
ARC
  5
387
330
76F
100
AcDbEntity
  8
etch
100
AcDbCircle
 10
6.548902354765581
 20
3.350090939633518
 30
0.0
 40
0.05
100
AcDbArc
 50
0.0
 51
90.0
  0
ARC
  5
388
330
76F
100
AcDbEntity
  8
etch
100
AcDbCircle
 10
6.051097645234417
 20
3.349909060366483
 30
0.0
 40
0.05
100
AcDbArc
 50
90.0
 51
180.0
  0
LINE
  5
389
330
76F
100
AcDbEntity
  8
etch
100
AcDbLine
 10
6.001097645234418
 20
3.349909060366483
 30
0.0
 11
6.001097645234418
 21
2.649909060366483
 31
0.0
  0
LINE
  5
38D
330
76F
100
AcDbEntity
  8
etch
100
AcDbLine
 10
6.051097645234417
 20
3.399909060366483
 30
0.0
 11
6.548902354765581
 21
3.400090939633518
 31
0.0
  0
LINE
  5
395
330
76F
100
AcDbEntity
  8
cut-through
100
AcDbLine
 10
6.119999999999999
 20
3.3
 30
0.0
 11
6.48
 21
3.3
 31
0.0
  0
LINE
  5
396
330
76F
100
AcDbEntity
  8
cut-through
100
AcDbLine
 10
6.5
 20
3.28
 30
0.0
 11
6.5
 21
2.920000000000001
 31
0.0
  0
LINE
  5
397
330
76F
100
AcDbEntity
  8
cut-through
100
AcDbLine
 10
6.48
 20
2.9
 30
0.0
 11
6.119999999999999
 21
2.9
 31
0.0
  0
LINE
  5
398
330
76F
100
AcDbEntity
  8
cut-through
100
AcDbLine
 10
6.1
 20
2.92
 30
0.0
 11
6.1
 21
3.28
 31
0.0
  0
LINE
  5
39D
330
76F
100
AcDbEntity
  8
cut-through
100
AcDbLine
 10
6.22
 20
2.75
 30
0.0
 11
6.380000000000002
 21
2.75
 31
0.0
  0
LINE
  5
39E
330
76F
100
AcDbEntity
  8
cut-through
100
AcDbLine
 10
6.4
 20
2.73
 30
0.0
 11
6.4
 21
2.670000000000001
 31
0.0
  0
LINE
  5
39F
330
76F
100
AcDbEntity
  8
cut-through
100
AcDbLine
 10
6.380000000000002
 20
2.65
 30
0.0
 11
6.22
 21
2.65
 31
0.0
  0
LINE
  5
3A0
330
76F
100
AcDbEntity
  8
cut-through
100
AcDbLine
 10
6.200000000000001
 20
2.67
 30
0.0
 11
6.200000000000001
 21
2.73
 31
0.0
  0
ARC
  5
3A1
330
76F
100
AcDbEntity
  8
cut-through
100
AcDbCircle
 10
6.22
 20
2.73
 30
0.0
 40
0.02
100
AcDbArc
 50
90.0
 51
180.0
  0
ARC
  5
3A2
330
76F
100
AcDbEntity
  8
cut-through
100
AcDbCircle
 10
6.380000000000002
 20
2.73
 30
0.0
 40
0.02
100
AcDbArc
 50
0.0
 51
90.0
  0
ARC
  5
3A3
330
76F
100
AcDbEntity
  8
cut-through
100
AcDbCircle
 10
6.380000000000002
 20
2.670000000000001
 30
0.0
 40
0.02
100
AcDbArc
 50
270.0
 51
0.0
  0
ARC
  5
3A4
330
76F
100
AcDbEntity
  8
cut-through
100
AcDbCircle
 10
6.22
 20
2.67
 30
0.0
 40
0.02
100
AcDbArc
 50
180.0
 51
270.0
  0
ARC
  5
3A5
330
76F
100
AcDbEntity
  8
cut-through
100
AcDbCircle
 10
6.119999999999999
 20
3.28
 30
0.0
 40
0.02
100
AcDbArc
 50
90.0
 51
180.0
  0
ARC
  5
3A6
330
76F
100
AcDbEntity
  8
cut-through
100
AcDbCircle
 10
6.48
 20
3.28
 30
0.0
 40
0.02
100
AcDbArc
 50
0.0
 51
90.0
  0
ARC
  5
3A7
330
76F
100
AcDbEntity
  8
cut-through
100
AcDbCircle
 10
6.48
 20
2.920000000000001
 30
0.0
 40
0.02
100
AcDbArc
 50
270.0
 51
0.0
  0
ARC
  5
3A8
330
76F
100
AcDbEntity
  8
cut-through
100
AcDbCircle
 10
6.119999999999999
 20
2.92
 30
0.0
 40
0.02
100
AcDbArc
 50
180.0
 51
270.0
  0
CIRCLE
  5
3B6
330
76F
100
AcDbEntity
  8
cut-through
100
AcDbCircle
 10
0.7000000000000001
 20
3.100000000000001
 30
0.0
 40
0.125
  0
CIRCLE
  5
3B7
330
76F
100
AcDbEntity
  8
cut-through
100
AcDbCircle
 10
1.5
 20
3.1
 30
0.0
 40
0.125
  0
CIRCLE
  5
3B8
330
76F
100
AcDbEntity
  8
cut-through
100
AcDbCircle
 10
2.3
 20
3.1
 30
0.0
 40
0.125
  0
CIRCLE
  5
3B9
330
76F
100
AcDbEntity
  8
cut-through
100
AcDbCircle
 10
3.1
 20
3.1
 30
0.0
 40
0.125
  0
LINE
  5
40E
330
76F
100
AcDbEntity
  8
cut-through
100
AcDbLine
 10
3.019999999999999
 20
2.75
 30
0.0
 11
3.180000000000001
 21
2.75
 31
0.0
  0
LINE
  5
40F
330
76F
100
AcDbEntity
  8
cut-through
100
AcDbLine
 10
3.2
 20
2.73
 30
0.0
 11
3.2
 21
2.670000000000001
 31
0.0
  0
LINE
  5
410
330
76F
100
AcDbEntity
  8
cut-through
100
AcDbLine
 10
3.180000000000001
 20
2.65
 30
0.0
 11
3.019999999999999
 21
2.65
 31
0.0
  0
LINE
  5
411
330
76F
100
AcDbEntity
  8
cut-through
100
AcDbLine
 10
3.0
 20
2.67
 30
0.0
 11
3.0
 21
2.73
 31
0.0
  0
ARC
  5
412
330
76F
100
AcDbEntity
  8
cut-through
100
AcDbCircle
 10
3.019999999999999
 20
2.73
 30
0.0
 40
0.02
100
AcDbArc
 50
90.0
 51
180.0
  0
ARC
  5
413
330
76F
100
AcDbEntity
  8
cut-through
100
AcDbCircle
 10
3.180000000000001
 20
2.73
 30
0.0
 40
0.02
100
AcDbArc
 50
0.0
 51
90.0
  0
ARC
  5
414
330
76F
100
AcDbEntity
  8
cut-through
100
AcDbCircle
 10
3.180000000000001
 20
2.670000000000001
 30
0.0
 40
0.02
100
AcDbArc
 50
270.0
 51
0.0
  0
ARC
  5
415
330
76F
100
AcDbEntity
  8
cut-through
100
AcDbCircle
 10
3.019999999999999
 20
2.67
 30
0.0
 40
0.02
100
AcDbArc
 50
180.0
 51
270.0
  0
LINE
  5
416
330
76F
100
AcDbEntity
  8
cut-through
100
AcDbLine
 10
2.219999999999999
 20
2.75
 30
0.0
 11
2.380000000000001
 21
2.75
 31
0.0
  0
LINE
  5
417
330
76F
100
AcDbEntity
  8
cut-through
100
AcDbLine
 10
2.4
 20
2.73
 30
0.0
 11
2.4
 21
2.670000000000001
 31
0.0
  0
LINE
  5
418
330
76F
100
AcDbEntity
  8
cut-through
100
AcDbLine
 10
2.380000000000001
 20
2.65
 30
0.0
 11
2.219999999999999
 21
2.65
 31
0.0
  0
LINE
  5
419
330
76F
100
AcDbEntity
  8
cut-through
100
AcDbLine
 10
2.200000000000001
 20
2.67
 30
0.0
 11
2.200000000000001
 21
2.73
 31
0.0
  0
ARC
  5
41A
330
76F
100
AcDbEntity
  8
cut-through
100
AcDbCircle
 10
2.219999999999999
 20
2.73
 30
0.0
 40
0.02
100
AcDbArc
 50
90.0
 51
180.0
  0
ARC
  5
41B
330
76F
100
AcDbEntity
  8
cut-through
100
AcDbCircle
 10
2.380000000000001
 20
2.73
 30
0.0
 40
0.02
100
AcDbArc
 50
0.0
 51
90.0
  0
ARC
  5
41C
330
76F
100
AcDbEntity
  8
cut-through
100
AcDbCircle
 10
2.380000000000001
 20
2.670000000000001
 30
0.0
 40
0.02
100
AcDbArc
 50
270.0
 51
0.0
  0
ARC
  5
41D
330
76F
100
AcDbEntity
  8
cut-through
100
AcDbCircle
 10
2.219999999999999
 20
2.67
 30
0.0
 40
0.02
100
AcDbArc
 50
180.0
 51
270.0
  0
LINE
  5
428
330
76F
100
AcDbEntity
  8
cut-under-0.015
100
AcDbLine
 10
0.375
 20
2.350000000000001
 30
0.0
 11
0.375
 21
0.6500000000000004
 31
0.0
  0
LINE
  5
429
330
76F
100
AcDbEntity
  8
cut-under-0.015
100
AcDbLine
 10
0.45
 20
0.5750000000000002
 30
0.0
 11
3.350000000000001
 21
0.5750000000000002
 31
0.0
  0
ARC
  5
42A
330
76F
100
AcDbEntity
  8
cut-under-0.015
100
AcDbCircle
 10
0.45
 20
0.6500000000000001
 30
0.0
 40
0.075
100
AcDbArc
 50
180.0
 51
270.0
  0
ARC
  5
42B
330
76F
100
AcDbEntity
  8
cut-under-0.015
100
AcDbCircle
 10
0.45
 20
2.350000000000001
 30
0.0
 40
0.075
100
AcDbArc
 50
90.00000000000038
 51
180.0
  0
LINE
  5
42C
330
76F
100
AcDbEntity
  8
cut-under-0.015
100
AcDbLine
 10
3.35
 20
2.425
 30
0.0
 11
0.4499999999999996
 21
2.425
 31
0.0
  0
ARC
  5
42D
330
76F
100
AcDbEntity
  8
cut-under-0.015
100
AcDbCircle
 10
3.35
 20
2.350000000000001
 30
0.0
 40
0.075
100
AcDbArc
 50
0.0
 51
90.0
  0
LINE
  5
42E
330
76F
100
AcDbEntity
  8
cut-under-0.015
100
AcDbLine
 10
3.425
 20
0.6500000000000001
 30
0.0
 11
3.425
 21
2.350000000000001
 31
0.0
  0
ARC
  5
42F
330
76F
100
AcDbEntity
  8
cut-under-0.015
100
AcDbCircle
 10
3.350000000000001
 20
0.6500000000000001
 30
0.0
 40
0.075
100
AcDbArc
 50
270.0
 51
0.0
  0
CIRCLE
  5
496
330
76F
100
AcDbEntity
  8
cut-under-0.015
100
AcDbCircle
 10
2.3
 20
2.7
 30
0.0
 40
0.12
  0
CIRCLE
  5
497
330
76F
100
AcDbEntity
  8
cut-under-0.015
100
AcDbCircle
 10
3.1
 20
2.7
 30
0.0
 40
0.12
  0
CIRCLE
  5
498
330
76F
100
AcDbEntity
  8
cut-under-0.015
100
AcDbCircle
 10
6.3
 20
2.7
 30
0.0
 40
0.12
  0
CIRCLE
  5
499
330
76F
100
AcDbEntity
  8
cut-under-0.015
100
AcDbCircle
 10
1.5
 20
2.7
 30
0.0
 40
0.12
  0
LINE
  5
49A
330
76F
100
AcDbEntity
  8
cut-through
100
AcDbLine
 10
1.419999999999999
 20
2.75
 30
0.0
 11
1.580000000000001
 21
2.75
 31
0.0
  0
LINE
  5
49B
330
76F
100
AcDbEntity
  8
cut-through
100
AcDbLine
 10
1.6
 20
2.73
 30
0.0
 11
1.6
 21
2.670000000000001
 31
0.0
  0
LINE
  5
49C
330
76F
100
AcDbEntity
  8
cut-through
100
AcDbLine
 10
1.580000000000001
 20
2.65
 30
0.0
 11
1.419999999999999
 21
2.65
 31
0.0
  0
LINE
  5
49D
330
76F
100
AcDbEntity
  8
cut-through
100
AcDbLine
 10
1.4
 20
2.67
 30
0.0
 11
1.4
 21
2.73
 31
0.0
  0
ARC
  5
49E
330
76F
100
AcDbEntity
  8
cut-through
100
AcDbCircle
 10
1.419999999999999
 20
2.73
 30
0.0
 40
0.02
100
AcDbArc
 50
90.0
 51
180.0
  0
ARC
  5
49F
330
76F
100
AcDbEntity
  8
cut-through
100
AcDbCircle
 10
1.580000000000001
 20
2.73
 30
0.0
 40
0.02
100
AcDbArc
 50
0.0
 51
90.0
  0
ARC
  5
4A0
330
76F
100
AcDbEntity
  8
cut-through
100
AcDbCircle
 10
1.580000000000001
 20
2.670000000000001
 30
0.0
 40
0.02
100
AcDbArc
 50
270.0
 51
0.0
  0
ARC
  5
4A1
330
76F
100
AcDbEntity
  8
cut-through
100
AcDbCircle
 10
1.419999999999999
 20
2.67
 30
0.0
 40
0.02
100
AcDbArc
 50
180.0
 51
270.0
  0
CIRCLE
  5
4CA
330
76F
100
AcDbEntity
  8
cut-through
100
AcDbCircle
 10
4.1
 20
3.700000000000001
 30
0.0
 40
0.165
  0
CIRCLE
  5
4CB
330
76F
100
AcDbEntity
  8
cut-through
100
AcDbCircle
 10
4.6
 20
3.700000000000001
 30
0.0
 40
0.165
  0
CIRCLE
  5
4CC
330
76F
100
AcDbEntity
  8
cut-through
100
AcDbCircle
 10
5.1
 20
3.700000000000001
 30
0.0
 40
0.165
  0
CIRCLE
  5
4CD
330
76F
100
AcDbEntity
  8
cut-through
100
AcDbCircle
 10
5.6
 20
3.700000000000001
 30
0.0
 40
0.165
  0
CIRCLE
  5
4CE
330
76F
100
AcDbEntity
  8
cut-through
100
AcDbCircle
 10
5.35
 20
3.1
 30
0.0
 40
0.165
  0
CIRCLE
  5
4CF
330
76F
100
AcDbEntity
  8
cut-through
100
AcDbCircle
 10
4.85
 20
3.1
 30
0.0
 40
0.165
  0
CIRCLE
  5
4D0
330
76F
100
AcDbEntity
  8
cut-through
100
AcDbCircle
 10
4.35
 20
3.1
 30
0.0
 40
0.165
  0
CIRCLE
  5
4D1
330
76F
100
AcDbEntity
  8
cut-through
100
AcDbCircle
 10
3.85
 20
3.1
 30
0.0
 40
0.165
  0
CIRCLE
  5
4D2
330
76F
100
AcDbEntity
  8
cut-through
100
AcDbCircle
 10
4.05
 20
1.900000000000001
 30
0.0
 40
0.2
  0
CIRCLE
  5
4D3
330
76F
100
AcDbEntity
  8
cut-through
100
AcDbCircle
 10
5.45
 20
1.900000000000002
 30
0.0
 40
0.2
  0
CIRCLE
  5
4D4
330
76F
100
AcDbEntity
  8
cut-through
100
AcDbCircle
 10
6.15
 20
0.7
 30
0.0
 40
0.2
  0
CIRCLE
  5
4D5
330
76F
100
AcDbEntity
  8
cut-through
100
AcDbCircle
 10
4.75
 20
0.7000000000000004
 30
0.0
 40
0.2
  0
LINE
  5
539
330
76F
100
AcDbEntity
  8
icon
100
AcDbLine
 10
3.1
 20
3.65
 30
0.0
 11
3.15
 21
3.75
 31
0.0
  0
LINE
  5
53B
330
76F
100
AcDbEntity
  8
icon
100
AcDbLine
 10
3.15
 20
3.75
 30
0.0
 11
3.05
 21
3.75
 31
0.0
  0
LINE
  5
53C
330
76F
100
AcDbEntity
  8
icon
100
AcDbLine
 10
3.05
 20
3.75
 30
0.0
 11
3.1
 21
3.65
 31
0.0
  0
LINE
  5
53D
330
76F
100
AcDbEntity
  8
icon
100
AcDbLine
 10
2.3
 20
3.65
 30
0.0
 11
2.35
 21
3.75
 31
0.0
  0
LINE
  5
53F
330
76F
100
AcDbEntity
  8
icon
100
AcDbLine
 10
2.35
 20
3.75
 30
0.0
 11
2.25
 21
3.75
 31
0.0
  0
LINE
  5
540
330
76F
100
AcDbEntity
  8
icon
100
AcDbLine
 10
2.25
 20
3.75
 30
0.0
 11
2.3
 21
3.65
 31
0.0
  0
LINE
  5
545
330
76F
100
AcDbEntity
  8
icon
100
AcDbLine
 10
1.4
 20
3.75
 30
0.0
 11
1.35
 21
3.65
 31
0.0
  0
LINE
  5
547
330
76F
100
AcDbEntity
  8
icon
100
AcDbLine
 10
1.35
 20
3.65
 30
0.0
 11
1.45
 21
3.65
 31
0.0
  0
LINE
  5
548
330
76F
100
AcDbEntity
  8
icon
100
AcDbLine
 10
1.45
 20
3.65
 30
0.0
 11
1.4
 21
3.75
 31
0.0
  0
LINE
  5
549
330
76F
100
AcDbEntity
  8
icon
100
AcDbLine
 10
1.65
 20
3.65
 30
0.0
 11
1.6
 21
3.75
 31
0.0
  0
LINE
  5
54A
330
76F
100
AcDbEntity
  8
icon
100
AcDbLine
 10
1.6
 20
3.75
 30
0.0
 11
1.55
 21
3.65
 31
0.0
  0
LINE
  5
54C
330
76F
100
AcDbEntity
  8
icon
100
AcDbLine
 10
1.55
 20
3.65
 30
0.0
 11
1.65
 21
3.65
 31
0.0
  0
ARC
  5
555
330
76F
100
AcDbEntity
  8
icon
100
AcDbCircle
 10
0.7000000000000002
 20
3.7
 30
0.0
 40
0.0499999999999999
100
AcDbArc
 50
0.0
 51
180.0
  0
LINE
  5
556
330
76F
100
AcDbEntity
  8
icon
100
AcDbLine
 10
0.65
 20
3.65
 30
0.0
 11
0.65
 21
3.7
 31
0.0
  0
LINE
  5
557
330
76F
100
AcDbEntity
  8
icon
100
AcDbLine
 10
0.75
 20
3.65
 30
0.0
 11
0.75
 21
3.7
 31
0.0
  0
ARC
  5
558
330
76F
100
AcDbEntity
  8
icon
100
AcDbCircle
 10
0.65
 20
3.675
 30
0.0
 40
0.0249999999999999
100
AcDbArc
 50
89.99999999999949
 51
270.0
  0
ARC
  5
559
330
76F
100
AcDbEntity
  8
icon
100
AcDbCircle
 10
0.75
 20
3.675
 30
0.0
 40
0.0249999999999999
100
AcDbArc
 50
270.0
 51
90.0
  0
CIRCLE
  5
56A
330
76F
100
AcDbEntity
  8
blind-thread-under-4-40
100
AcDbCircle
 10
3.925
 20
4.225
 30
0.0
 40
0.0575
  0
CIRCLE
  5
56B
330
76F
100
AcDbEntity
  8
blind-thread-under-4-40
100
AcDbCircle
 10
3.5
 20
3.1
 30
0.0
 40
0.0575
  0
LINE
  5
56D
330
76F
100
AcDbEntity
  8
perimeter-lip-0.15
100
AcDbLine
 10
0.05
 20
4.450000000000001
 30
0.0
 11
0.05
 21
0.0499999999999989
 31
0.0
  0
LINE
  5
56E
330
76F
100
AcDbEntity
  8
perimeter-lip-0.15
100
AcDbLine
 10
6.95
 20
4.450000000000001
 30
0.0
 11
0.0499999999999998
 21
4.450000000000001
 31
0.0
  0
LINE
  5
56F
330
76F
100
AcDbEntity
  8
perimeter-lip-0.15
100
AcDbLine
 10
6.95
 20
0.05
 30
0.0
 11
6.95
 21
4.450000000000002
 31
0.0
  0
LINE
  5
570
330
76F
100
AcDbEntity
  8
perimeter-lip-0.15
100
AcDbLine
 10
0.05
 20
0.05
 30
0.0
 11
6.95
 21
0.05
 31
0.0
  0
LINE
  5
5A1
330
76F
100
AcDbEntity
  8
ref-side-view
100
AcDbLine
 10
7.0
 20
5.000000000000001
 30
0.0
 11
6.5
 21
5.000000000000001
 31
0.0
  0
LINE
  5
5A2
330
76F
100
AcDbEntity
  8
ref-side-view
100
AcDbLine
 10
6.95
 20
4.812500000000001
 30
0.0
 11
6.524999999999999
 21
4.812500000000001
 31
0.0
  0
LINE
  5
5A3
330
76F
100
AcDbEntity
  8
ref-side-view
100
AcDbLine
 10
7.0
 20
4.850000000000001
 30
0.0
 11
0.0
 21
4.850000000000001
 31
0.0
  0
LINE
  5
5A4
330
76F
100
AcDbEntity
  8
ref-side-view
100
AcDbLine
 10
0.0
 20
4.850000000000001
 30
0.0
 11
0.0
 21
5.0
 31
0.0
  0
LINE
  5
5A5
330
76F
100
AcDbEntity
  8
ref-side-view
100
AcDbLine
 10
0.0499999999999999
 20
4.812500000000001
 30
0.0
 11
0.0499999999999998
 21
4.850000000000001
 31
0.0
  0
LINE
  5
5A6
330
76F
100
AcDbEntity
  8
ref-side-view
100
AcDbLine
 10
7.0
 20
4.850000000000001
 30
0.0
 11
7.0
 21
5.0
 31
0.0
  0
LINE
  5
5A7
330
76F
100
AcDbEntity
  8
ref-side-view
100
AcDbLine
 10
6.95
 20
4.812500000000001
 30
0.0
 11
6.95
 21
4.850000000000001
 31
0.0
  0
LINE
  5
5A8
330
76F
100
AcDbEntity
  8
ref-side-view
100
AcDbLine
 10
3.549999999999999
 20
4.887500000000002
 30
0.0
 11
5.9
 21
4.887500000000002
 31
0.0
  0
LINE
  5
5A9
330
76F
100
AcDbEntity
  8
ref-side-view
100
AcDbLine
 10
3.549999999999999
 20
4.887500000000002
 30
0.0
 11
3.549999999999999
 21
4.812500000000001
 31
0.0
  0
LINE
  5
5AA
330
76F
100
AcDbEntity
  8
ref-side-view
100
AcDbLine
 10
5.9
 20
4.887500000000002
 30
0.0
 11
5.9
 21
4.812500000000001
 31
0.0
  0
LINE
  5
655
330
76F
100
AcDbEntity
  8
icon
100
AcDbLine
 10
5.75
 20
3.15
 30
0.0
 11
5.65
 21
3.15
 31
0.0
  0
LINE
  5
656
330
76F
100
AcDbEntity
  8
icon
100
AcDbLine
 10
5.65
 20
3.15
 30
0.0
 11
5.699999999999999
 21
3.049999999999999
 31
0.0
  0
LINE
  5
65A
330
76F
100
AcDbEntity
  8
icon
100
AcDbLine
 10
5.699999999999999
 20
3.049999999999999
 30
0.0
 11
5.75
 21
3.15
 31
0.0
  0
LINE
  5
65D
330
76F
100
AcDbEntity
  8
icon
100
AcDbLine
 10
3.7
 20
3.65
 30
0.0
 11
3.8
 21
3.65
 31
0.0
  0
LINE
  5
65E
330
76F
100
AcDbEntity
  8
icon
100
AcDbLine
 10
3.8
 20
3.65
 30
0.0
 11
3.75
 21
3.750000000000001
 31
0.0
  0
LINE
  5
65F
330
76F
100
AcDbEntity
  8
icon
100
AcDbLine
 10
3.75
 20
3.750000000000001
 30
0.0
 11
3.7
 21
3.65
 31
0.0
  0
CIRCLE
  5
66F
330
76F
100
AcDbEntity
  8
blind-thread-under-4-40
100
AcDbCircle
 10
0.2
 20
2.65
 30
0.0
 40
0.0575
  0
CIRCLE
  5
670
330
76F
100
AcDbEntity
  8
blind-thread-under-4-40
100
AcDbCircle
 10
5.8
 20
3.1
 30
0.0
 40
0.0575
  0
CIRCLE
  5
6A3
330
76F
100
AcDbEntity
  8
blind-thread-under-4-40
100
AcDbCircle
 10
0.9
 20
2.5
 30
0.0
 40
0.0575
  0
CIRCLE
  5
6A4
330
76F
100
AcDbEntity
  8
blind-thread-under-4-40
100
AcDbCircle
 10
0.225
 20
0.9500000000000001
 30
0.0
 40
0.0575
  0
CIRCLE
  5
6A5
330
76F
100
AcDbEntity
  8
blind-thread-under-4-40
100
AcDbCircle
 10
3.575
 20
0.9500000000000001
 30
0.0
 40
0.0575
  0
CIRCLE
  5
6A7
330
76F
100
AcDbEntity
  8
blind-thread-under-4-40
100
AcDbCircle
 10
2.6
 20
2.5
 30
0.0
 40
0.0575
  0
LINE
  5
6A8
330
76F
100
AcDbEntity
  8
cut-under-0.0625
100
AcDbLine
 10
2.55
 20
0.4500000000000001
 30
0.0
 11
2.05
 21
0.4500000000000001
 31
0.0
  0
ARC
  5
6A9
330
76F
100
AcDbEntity
  8
cut-under-0.0625
100
AcDbCircle
 10
2.55
 20
0.3500000000000001
 30
0.0
 40
0.1
100
AcDbArc
 50
0.0
 51
90.0
  0
LINE
  5
6AA
330
76F
100
AcDbEntity
  8
cut-under-0.0625
100
AcDbLine
 10
2.65
 20
0.25
 30
0.0
 11
2.65
 21
0.3500000000000001
 31
0.0
  0
ARC
  5
6AB
330
76F
100
AcDbEntity
  8
cut-under-0.0625
100
AcDbCircle
 10
2.55
 20
0.25
 30
0.0
 40
0.1
100
AcDbArc
 50
270.0
 51
0.0
  0
LINE
  5
6AC
330
76F
100
AcDbEntity
  8
cut-under-0.0625
100
AcDbLine
 10
2.05
 20
0.15
 30
0.0
 11
2.55
 21
0.15
 31
0.0
  0
ARC
  5
6AD
330
76F
100
AcDbEntity
  8
cut-under-0.0625
100
AcDbCircle
 10
2.05
 20
0.25
 30
0.0
 40
0.1
100
AcDbArc
 50
180.0
 51
270.0
  0
LINE
  5
6AE
330
76F
100
AcDbEntity
  8
cut-under-0.0625
100
AcDbLine
 10
1.95
 20
0.3500000000000001
 30
0.0
 11
1.95
 21
0.25
 31
0.0
  0
ARC
  5
6AF
330
76F
100
AcDbEntity
  8
cut-under-0.0625
100
AcDbCircle
 10
2.05
 20
0.3500000000000001
 30
0.0
 40
0.0
100
AcDbArc
 50
90.0
 51
180.0
  0
ARC
  5
6B0
330
76F
100
AcDbEntity
  8
cut-under-0.0625
100
AcDbCircle
 10
2.05
 20
0.3500000000000001
 30
0.0
 40
0.1
100
AcDbArc
 50
90.0
 51
180.0
  0
ARC
  5
6B1
330
76F
100
AcDbEntity
  8
cut-under-0.0625
100
AcDbCircle
 10
2.85
 20
0.3500000000000001
 30
0.0
 40
0.1
100
AcDbArc
 50
90.0
 51
180.0
  0
LINE
  5
6B2
330
76F
100
AcDbEntity
  8
cut-under-0.0625
100
AcDbLine
 10
2.75
 20
0.3500000000000001
 30
0.0
 11
2.75
 21
0.25
 31
0.0
  0
ARC
  5
6B3
330
76F
100
AcDbEntity
  8
cut-under-0.0625
100
AcDbCircle
 10
2.85
 20
0.25
 30
0.0
 40
0.1
100
AcDbArc
 50
180.0
 51
270.0
  0
LINE
  5
6B4
330
76F
100
AcDbEntity
  8
cut-under-0.0625
100
AcDbLine
 10
2.85
 20
0.15
 30
0.0
 11
3.350000000000001
 21
0.15
 31
0.0
  0
LINE
  5
6B5
330
76F
100
AcDbEntity
  8
cut-under-0.0625
100
AcDbLine
 10
3.35
 20
0.4500000000000001
 30
0.0
 11
2.85
 21
0.4500000000000001
 31
0.0
  0
ARC
  5
6B6
330
76F
100
AcDbEntity
  8
cut-under-0.0625
100
AcDbCircle
 10
3.35
 20
0.3500000000000001
 30
0.0
 40
0.1
100
AcDbArc
 50
0.0
 51
90.0
  0
LINE
  5
6B7
330
76F
100
AcDbEntity
  8
cut-under-0.0625
100
AcDbLine
 10
3.45
 20
0.25
 30
0.0
 11
3.45
 21
0.3500000000000001
 31
0.0
  0
ARC
  5
6B8
330
76F
100
AcDbEntity
  8
cut-under-0.0625
100
AcDbCircle
 10
3.350000000000001
 20
0.25
 30
0.0
 40
0.1
100
AcDbArc
 50
270.0
 51
0.0
  0
LINE
  5
6B9
330
76F
100
AcDbEntity
  8
cut-under-0.0625
100
AcDbLine
 10
1.85
 20
0.25
 30
0.0
 11
1.85
 21
0.3500000000000001
 31
0.0
  0
ARC
  5
6BA
330
76F
100
AcDbEntity
  8
cut-under-0.0625
100
AcDbCircle
 10
1.75
 20
0.3500000000000001
 30
0.0
 40
0.1
100
AcDbArc
 50
0.0
 51
90.0
  0
LINE
  5
6BB
330
76F
100
AcDbEntity
  8
cut-under-0.0625
100
AcDbLine
 10
1.75
 20
0.4500000000000001
 30
0.0
 11
1.25
 21
0.4500000000000001
 31
0.0
  0
ARC
  5
6BC
330
76F
100
AcDbEntity
  8
cut-under-0.0625
100
AcDbCircle
 10
1.25
 20
0.3500000000000001
 30
0.0
 40
0.1
100
AcDbArc
 50
90.0
 51
180.0
  0
LINE
  5
6BD
330
76F
100
AcDbEntity
  8
cut-under-0.0625
100
AcDbLine
 10
1.15
 20
0.3500000000000001
 30
0.0
 11
1.15
 21
0.2500000000000001
 31
0.0
  0
ARC
  5
6BE
330
76F
100
AcDbEntity
  8
cut-under-0.0625
100
AcDbCircle
 10
1.25
 20
0.2500000000000001
 30
0.0
 40
0.1
100
AcDbArc
 50
180.0
 51
270.0
  0
LINE
  5
6BF
330
76F
100
AcDbEntity
  8
cut-under-0.0625
100
AcDbLine
 10
1.25
 20
0.15
 30
0.0
 11
1.75
 21
0.15
 31
0.0
  0
ARC
  5
6C0
330
76F
100
AcDbEntity
  8
cut-under-0.0625
100
AcDbCircle
 10
1.75
 20
0.25
 30
0.0
 40
0.1
100
AcDbArc
 50
270.0
 51
0.0
  0
LINE
  5
6C1
330
76F
100
AcDbEntity
  8
cut-under-0.0625
100
AcDbLine
 10
1.05
 20
0.2500000000000001
 30
0.0
 11
1.05
 21
0.3500000000000001
 31
0.0
  0
ARC
  5
6C2
330
76F
100
AcDbEntity
  8
cut-under-0.0625
100
AcDbCircle
 10
0.95
 20
0.3500000000000001
 30
0.0
 40
0.1
100
AcDbArc
 50
0.0
 51
90.0
  0
LINE
  5
6C3
330
76F
100
AcDbEntity
  8
cut-under-0.0625
100
AcDbLine
 10
0.95
 20
0.4500000000000001
 30
0.0
 11
0.4500000000000001
 21
0.4500000000000001
 31
0.0
  0
ARC
  5
6C4
330
76F
100
AcDbEntity
  8
cut-under-0.0625
100
AcDbCircle
 10
0.4500000000000001
 20
0.3500000000000001
 30
0.0
 40
0.1
100
AcDbArc
 50
90.0
 51
180.0
  0
LINE
  5
6C5
330
76F
100
AcDbEntity
  8
cut-under-0.0625
100
AcDbLine
 10
0.35
 20
0.3500000000000001
 30
0.0
 11
0.35
 21
0.25
 31
0.0
  0
ARC
  5
6C6
330
76F
100
AcDbEntity
  8
cut-under-0.0625
100
AcDbCircle
 10
0.45
 20
0.25
 30
0.0
 40
0.1
100
AcDbArc
 50
180.0
 51
270.0
  0
LINE
  5
6C7
330
76F
100
AcDbEntity
  8
cut-under-0.0625
100
AcDbLine
 10
0.45
 20
0.15
 30
0.0
 11
0.9500000000000001
 21
0.15
 31
0.0
  0
ARC
  5
6C8
330
76F
100
AcDbEntity
  8
cut-under-0.0625
100
AcDbCircle
 10
0.9500000000000001
 20
0.2500000000000001
 30
0.0
 40
0.1
100
AcDbArc
 50
270.0
 51
0.0
  0
LINE
  5
6C9
330
76F
100
AcDbEntity
  8
cut-under-0.0625
100
AcDbLine
 10
6.119999999999999
 20
3.35
 30
0.0
 11
6.48
 21
3.35
 31
0.0
  0
ARC
  5
6CA
330
76F
100
AcDbEntity
  8
cut-under-0.0625
100
AcDbCircle
 10
6.119999999999999
 20
3.28
 30
0.0
 40
0.07
100
AcDbArc
 50
90.0
 51
180.0
  0
LINE
  5
6CB
330
76F
100
AcDbEntity
  8
cut-under-0.0625
100
AcDbLine
 10
6.05
 20
2.92
 30
0.0
 11
6.05
 21
3.28
 31
0.0
  0
ARC
  5
6CC
330
76F
100
AcDbEntity
  8
cut-under-0.0625
100
AcDbCircle
 10
6.119999999999999
 20
2.92
 30
0.0
 40
0.07
100
AcDbArc
 50
180.0
 51
270.0
  0
LINE
  5
6CD
330
76F
100
AcDbEntity
  8
cut-under-0.0625
100
AcDbLine
 10
6.48
 20
2.85
 30
0.0
 11
6.119999999999999
 21
2.85
 31
0.0
  0
ARC
  5
6CE
330
76F
100
AcDbEntity
  8
cut-under-0.0625
100
AcDbCircle
 10
6.48
 20
2.920000000000001
 30
0.0
 40
0.07
100
AcDbArc
 50
270.0
 51
0.0
  0
LINE
  5
6CF
330
76F
100
AcDbEntity
  8
cut-under-0.0625
100
AcDbLine
 10
6.55
 20
3.28
 30
0.0
 11
6.55
 21
2.920000000000001
 31
0.0
  0
ARC
  5
6D0
330
76F
100
AcDbEntity
  8
cut-under-0.0625
100
AcDbCircle
 10
6.48
 20
3.28
 30
0.0
 40
0.07
100
AcDbArc
 50
0.0
 51
90.0
  0
LINE
  5
6D1
330
76F
100
AcDbEntity
  8
cut-under-0.0775
100
AcDbLine
 10
0.3625
 20
2.350000000000001
 30
0.0
 11
0.3625
 21
0.6500000000000004
 31
0.0
  0
ARC
  5
6D2
330
76F
100
AcDbEntity
  8
cut-under-0.0775
100
AcDbCircle
 10
0.45
 20
2.350000000000001
 30
0.0
 40
0.0875
100
AcDbArc
 50
90.00000000000038
 51
180.0
  0
LINE
  5
6D3
330
76F
100
AcDbEntity
  8
cut-under-0.0775
100
AcDbLine
 10
3.35
 20
2.4375
 30
0.0
 11
0.4499999999999996
 21
2.4375
 31
0.0
  0
ARC
  5
6D4
330
76F
100
AcDbEntity
  8
cut-under-0.0775
100
AcDbCircle
 10
3.35
 20
2.350000000000001
 30
0.0
 40
0.0875
100
AcDbArc
 50
0.0
 51
90.0
  0
LINE
  5
6D5
330
76F
100
AcDbEntity
  8
cut-under-0.0775
100
AcDbLine
 10
3.4375
 20
0.6500000000000001
 30
0.0
 11
3.4375
 21
2.350000000000001
 31
0.0
  0
ARC
  5
6D6
330
76F
100
AcDbEntity
  8
cut-under-0.0775
100
AcDbCircle
 10
3.350000000000001
 20
0.6500000000000001
 30
0.0
 40
0.0875
100
AcDbArc
 50
270.0
 51
0.0
  0
LINE
  5
6D7
330
76F
100
AcDbEntity
  8
cut-under-0.0775
100
AcDbLine
 10
0.45
 20
0.5625000000000002
 30
0.0
 11
3.350000000000001
 21
0.5625000000000002
 31
0.0
  0
ARC
  5
6D8
330
76F
100
AcDbEntity
  8
cut-under-0.0775
100
AcDbCircle
 10
0.45
 20
0.6500000000000001
 30
0.0
 40
0.0875
100
AcDbArc
 50
180.0
 51
270.0
  0
LINE
  5
6DF
330
76F
100
AcDbEntity
  8
ref-side-view
100
AcDbLine
 10
0.3624999999999998
 20
4.812500000000001
 30
0.0
 11
0.3625000000000002
 21
4.922500000000001
 31
0.0
  0
LINE
  5
6E0
330
76F
100
AcDbEntity
  8
ref-side-view
100
AcDbLine
 10
0.3749999999999991
 20
4.922500000000001
 30
0.0
 11
0.3750000000000002
 21
4.985000000000002
 31
0.0
  0
LINE
  5
6E1
330
76F
100
AcDbEntity
  8
ref-side-view
100
AcDbLine
 10
0.4000000000000004
 20
4.985000000000001
 30
0.0
 11
0.4000000000000004
 21
5.000000000000001
 31
0.0
  0
LINE
  5
6E2
330
76F
100
AcDbEntity
  8
ref-side-view
100
AcDbLine
 10
3.4
 20
4.985000000000001
 30
0.0
 11
3.4
 21
5.000000000000001
 31
0.0
  0
LINE
  5
6E3
330
76F
100
AcDbEntity
  8
ref-side-view
100
AcDbLine
 10
3.425
 20
4.922500000000001
 30
0.0
 11
3.425
 21
4.985
 31
0.0
  0
LINE
  5
6E4
330
76F
100
AcDbEntity
  8
ref-side-view
100
AcDbLine
 10
3.4375
 20
4.812500000000001
 30
0.0
 11
3.4375
 21
4.9225
 31
0.0
  0
LINE
  5
6E5
330
76F
100
AcDbEntity
  8
ref-side-view
100
AcDbLine
 10
3.424999999999999
 20
4.985000000000001
 30
0.0
 11
0.375
 21
4.985000000000001
 31
0.0
  0
LINE
  5
6E7
330
76F
100
AcDbEntity
  8
ref-side-view
100
AcDbLine
 10
0.3749999999999982
 20
4.922500000000001
 30
0.0
 11
0.3625000000000007
 21
4.922500000000001
 31
0.0
  0
LINE
  5
6E9
330
76F
100
AcDbEntity
  8
ref-side-view
100
AcDbLine
 10
3.4375
 20
4.922500000000001
 30
0.0
 11
3.425
 21
4.922500000000001
 31
0.0
  0
LINE
  5
6ED
330
76F
100
AcDbEntity
  8
ref-side-view
100
AcDbLine
 10
6.099999999999999
 20
4.9375
 30
0.0
 11
6.1
 21
5.0
 31
0.0
  0
LINE
  5
6EE
330
76F
100
AcDbEntity
  8
ref-side-view
100
AcDbLine
 10
6.5
 20
4.937500000000001
 30
0.0
 11
6.5
 21
5.000000000000001
 31
0.0
  0
LINE
  5
6F1
330
76F
100
AcDbEntity
  8
ref-side-view
100
AcDbLine
 10
6.099999999999999
 20
4.9375
 30
0.0
 11
6.05
 21
4.9375
 31
0.0
  0
LINE
  5
6F5
330
76F
100
AcDbEntity
  8
ref-side-view
100
AcDbLine
 10
6.05
 20
4.812500000000001
 30
0.0
 11
6.05
 21
4.9375
 31
0.0
  0
LINE
  5
6F6
330
76F
100
AcDbEntity
  8
ref-side-view
100
AcDbLine
 10
6.55
 20
4.812500000000001
 30
0.0
 11
6.55
 21
4.937500000000001
 31
0.0
  0
LINE
  5
6F7
330
76F
100
AcDbEntity
  8
ref-side-view
100
AcDbLine
 10
6.1
 20
5.0
 30
0.0
 11
0.0
 21
5.000000000000001
 31
0.0
  0
LINE
  5
6F8
330
76F
100
AcDbEntity
  8
ref-side-view
100
AcDbLine
 10
6.5
 20
5.000000000000001
 30
0.0
 11
6.1
 21
5.0
 31
0.0
  0
LINE
  5
6F9
330
76F
100
AcDbEntity
  8
ref-side-view
100
AcDbLine
 10
6.55
 20
4.937500000000001
 30
0.0
 11
6.5
 21
4.937500000000001
 31
0.0
  0
LINE
  5
703
330
76F
100
AcDbEntity
  8
ref-side-view
100
AcDbLine
 10
6.05
 20
4.812500000000001
 30
0.0
 11
0.0499999999999999
 21
4.812500000000001
 31
0.0
  0
LINE
  5
704
330
76F
100
AcDbEntity
  8
ref-side-view
100
AcDbLine
 10
6.524999999999999
 20
4.812500000000001
 30
0.0
 11
6.05
 21
4.812500000000001
 31
0.0
  0
CIRCLE
  5
729
330
76F
100
AcDbEntity
  8
blind-thread-under-4-40
100
AcDbCircle
 10
3.925
 20
0.2
 30
0.0
 40
0.0575
  0
LINE
  5
73D
330
76F
100
AcDbEntity
  8
cut-under-0.1125
100
AcDbLine
 10
3.6
 20
3.387500000000001
 30
0.0
 11
3.6
 21
2.8125
 31
0.0
  0
LINE
  5
73E
330
76F
100
AcDbEntity
  8
cut-under-0.1125
100
AcDbLine
 10
3.85
 20
3.987500000000002
 30
0.0
 11
3.85
 21
3.4875
 31
0.0
  0
LINE
  5
73F
330
76F
100
AcDbEntity
  8
cut-under-0.1125
100
AcDbLine
 10
5.8
 20
4.037500000000001
 30
0.0
 11
3.9
 21
4.037500000000001
 31
0.0
  0
LINE
  5
740
330
76F
100
AcDbEntity
  8
cut-under-0.1125
100
AcDbLine
 10
5.85
 20
3.412500000000001
 30
0.0
 11
5.85
 21
3.987500000000002
 31
0.0
  0
LINE
  5
741
330
76F
100
AcDbEntity
  8
cut-under-0.1125
100
AcDbLine
 10
5.6
 20
2.8125
 30
0.0
 11
5.6
 21
3.312500000000001
 31
0.0
  0
LINE
  5
742
330
76F
100
AcDbEntity
  8
cut-under-0.1125
100
AcDbLine
 10
5.649999999999999
 20
3.362500000000001
 30
0.0
 11
5.8
 21
3.362500000000001
 31
0.0
  0
LINE
  5
743
330
76F
100
AcDbEntity
  8
cut-under-0.1125
100
AcDbLine
 10
3.799999999999999
 20
3.4375
 30
0.0
 11
3.65
 21
3.4375
 31
0.0
  0
LINE
  5
744
330
76F
100
AcDbEntity
  8
cut-under-0.1125
100
AcDbLine
 10
3.65
 20
2.7625
 30
0.0
 11
5.550000000000001
 21
2.7625
 31
0.0
  0
ARC
  5
745
330
76F
100
AcDbEntity
  8
cut-under-0.1125
100
AcDbCircle
 10
3.9
 20
3.987500000000002
 30
0.0
 40
0.05
100
AcDbArc
 50
90.0
 51
180.0
  0
ARC
  5
746
330
76F
100
AcDbEntity
  8
cut-under-0.1125
100
AcDbCircle
 10
3.799999999999999
 20
3.4875
 30
0.0
 40
0.05
100
AcDbArc
 50
270.0
 51
0.0
  0
ARC
  5
747
330
76F
100
AcDbEntity
  8
cut-under-0.1125
100
AcDbCircle
 10
3.65
 20
3.387500000000001
 30
0.0
 40
0.05
100
AcDbArc
 50
90.0
 51
180.0
  0
ARC
  5
748
330
76F
100
AcDbEntity
  8
cut-under-0.1125
100
AcDbCircle
 10
3.65
 20
2.8125
 30
0.0
 40
0.05
100
AcDbArc
 50
180.0
 51
270.0
  0
ARC
  5
749
330
76F
100
AcDbEntity
  8
cut-under-0.1125
100
AcDbCircle
 10
5.550000000000001
 20
2.8125
 30
0.0
 40
0.05
100
AcDbArc
 50
270.0
 51
0.0
  0
ARC
  5
74A
330
76F
100
AcDbEntity
  8
cut-under-0.1125
100
AcDbCircle
 10
5.649999999999999
 20
3.312500000000001
 30
0.0
 40
0.05
100
AcDbArc
 50
90.0
 51
180.0
  0
ARC
  5
74B
330
76F
100
AcDbEntity
  8
cut-under-0.1125
100
AcDbCircle
 10
5.8
 20
3.412500000000001
 30
0.0
 40
0.05
100
AcDbArc
 50
270.0
 51
0.0
  0
ARC
  5
74C
330
76F
100
AcDbEntity
  8
cut-under-0.1125
100
AcDbCircle
 10
5.8
 20
3.987500000000002
 30
0.0
 40
0.05
100
AcDbArc
 50
0.0
 51
90.0
  0
DIMENSION
  5
74E
330
76F
100
AcDbEntity
  8
_dim
100
AcDbDimension
280
     0
  2
*D1
 10
-0.4999999999999999
 20
4.500000000000001
 30
0.0
 11
-0.59375
 21
2.25
 31
0.0
 70
    32
 71
     5
 42
4.500000000000001
 73
     0
 74
     0
 75
     0
  3
QCADDimStyle
100
AcDbAlignedDimension
 13
0.0
 23
0.0
 33
0.0
 14
0.0
 24
4.500000000000001
 34
0.0
 50
90.0
100
AcDbRotatedDimension
1001
ACAD
1000
DSTYLE
1002
{
1070
   279
1070
     2
1070
    41
1040
0.125
1070
    79
1070
     2
1070
   176
1070
     0
1070
   177
1070
     0
1070
   178
1070
     0
1070
    44
1040
0.0625
1070
    42
1040
0.03125
1070
   147
1040
0.03125
1070
   140
1040
0.125
1070
    78
1070
     8
1002
}
  0
DIMENSION
  5
74F
330
76F
100
AcDbEntity
  8
_dim
100
AcDbDimension
280
     0
  2
*D2
 10
7.0
 20
-0.5
 30
0.0
 11
3.5
 21
-0.40625
 31
0.0
 70
    32
 71
     5
 42
7.0
 73
     0
 74
     0
 75
     0
  3
QCADDimStyle
100
AcDbAlignedDimension
 13
0.0
 23
0.0
 33
0.0
 14
7.0
 24
0.0
 34
0.0
100
AcDbRotatedDimension
1001
ACAD
1000
DSTYLE
1002
{
1070
   279
1070
     2
1070
    41
1040
0.125
1070
    79
1070
     2
1070
   176
1070
     0
1070
   177
1070
     0
1070
   178
1070
     0
1070
    44
1040
0.0625
1070
    42
1040
0.03125
1070
   147
1040
0.03125
1070
   140
1040
0.125
1070
    78
1070
     8
1002
}
  0
MTEXT
  5
750
330
76F
100
AcDbEntity
  8
_dim
100
AcDbMText
 10
0.0
 20
-1.0
 30
0.0
 40
0.125
 41
0.0
 46
0.0
 71
     1
 72
     1
  1
\fAndale Mono|b0|i0|c0|p0;monome inc\Paleph-plate\P130809\P\P3/16" 6061 aluminum\Ppower coat finish
  7
textstyle0
 73
     1
 44
1.0
  0
ENDSEC
  0
SECTION
  2
OBJECTS
  0
DICTIONARY
  5
75D
330
0
100
AcDbDictionary
281
     1
  3
ACAD_GROUP
350
75E
  3
ACAD_LAYOUT
350
76A
  3
ACAD_MATERIAL
350
78B
  3
ACAD_MLEADERSTYLE
350
7E9
  3
ACAD_MLINESTYLE
350
767
  3
ACAD_PLOTSETTINGS
350
769
  3
ACAD_PLOTSTYLENAME
350
75F
  3
ACAD_TABLESTYLE
350
7E8
  3
ACAD_VISUALSTYLE
350
77A
  3
QCAD_OBJECTS
350
790
  0
DICTIONARY
  5
75E
102
{ACAD_REACTORS
330
75D
102
}
330
75D
100
AcDbDictionary
281
     1
  0
DICTIONARY
  5
76A
102
{ACAD_REACTORS
330
75D
102
}
330
75D
100
AcDbDictionary
281
     1
  3
Layout1
350
76E
  3
Layout2
350
776
  3
Model
350
772
  0
DICTIONARY
  5
78B
102
{ACAD_REACTORS
330
75D
102
}
330
75D
100
AcDbDictionary
281
     1
  3
ByBlock
350
78D
  3
ByLayer
350
78C
  3
Global
350
78E
  0
DICTIONARY
  5
7E9
102
{ACAD_REACTORS
330
75D
102
}
330
75D
100
AcDbDictionary
281
     1
  0
DICTIONARY
  5
767
102
{ACAD_REACTORS
330
75D
102
}
330
75D
100
AcDbDictionary
281
     1
  3
Standard
350
768
  0
DICTIONARY
  5
769
102
{ACAD_REACTORS
330
75D
102
}
330
75D
100
AcDbDictionary
281
     1
  0
ACDBDICTIONARYWDFLT
  5
75F
102
{ACAD_REACTORS
330
75D
102
}
330
75D
100
AcDbDictionary
281
     1
  3
Normal
350
760
100
AcDbDictionaryWithDefault
340
760
  0
DICTIONARY
  5
7E8
102
{ACAD_REACTORS
330
75D
102
}
330
75D
100
AcDbDictionary
281
     1
  0
DICTIONARY
  5
77A
102
{ACAD_REACTORS
330
75D
102
}
330
75D
100
AcDbDictionary
281
     1
  3
2dWireframe
350
77F
  3
3D Hidden
350
781
  3
3dWireframe
350
780
  3
Basic
350
782
  3
Brighten
350
786
  3
ColorChange
350
78A
  3
Conceptual
350
784
  3
Dim
350
785
  3
Facepattern
350
789
  3
Flat
350
77B
  3
FlatWithEdges
350
77C
  3
Gouraud
350
77D
  3
GouraudWithEdges
350
77E
  3
Linepattern
350
788
  3
Realistic
350
783
  3
Thicken
350
787
  0
DICTIONARY
  5
790
102
{ACAD_REACTORS
330
75D
102
}
330
75D
100
AcDbDictionary
281
     1
  3
ColorSettings/BackgroundColor
350
7A8
  3
ColorSettings/ColorMode
350
7A1
  3
DimensionSettings/AngularFormat
350
79C
  3
DimensionSettings/AngularPrecision
350
79B
  3
DimensionSettings/KeepProportions
350
79E
  3
DimensionSettings/LinearFormat
350
7AD
  3
DimensionSettings/LinearPrecision
350
7A9
  3
Grid/DisplayGrid
350
7AA
  3
Grid/GridSpacingX
350
79D
  3
Grid/GridSpacingY
350
7A0
  3
Grid/MetaGridSpacingX
350
794
  3
Grid/MetaGridSpacingY
350
798
  3
MultiPageSettings/Columns
350
799
  3
MultiPageSettings/GlueMarginBottom
350
795
  3
MultiPageSettings/GlueMarginsLeft
350
7A3
  3
MultiPageSettings/GlueMarginsRight
350
791
  3
MultiPageSettings/GlueMarginsTop
350
7AF
  3
MultiPageSettings/PrintCropMarks
350
793
  3
MultiPageSettings/Rows
350
7A5
  3
PageSettings/OffsetX
350
7AC
  3
PageSettings/OffsetY
350
7AE
  3
PageSettings/PageOrientation
350
792
  3
PageSettings/PaperHeight
350
797
  3
PageSettings/PaperSizeName
350
79A
  3
PageSettings/PaperWidth
350
7A6
  3
PageSettings/Scale
350
796
  3
PageSettings/ShowBoundingBox
350
79F
  3
PageSettings/ShowPageBorders
350
7AB
  3
Template/Description
350
7A4
  3
Template/Title
350
7A2
  3
UnitSettings/PaperUnit
350
7A7
  0
LAYOUT
  5
76E
102
{ACAD_REACTORS
330
76A
102
}
330
76A
100
AcDbPlotSettings
  1

  2
none_device
  4

  6

 40
0.0
 41
0.0
 42
0.0
 43
0.0
 44
0.0
 45
0.0
 46
0.0
 47
0.0
 48
0.0
 49
0.0
140
0.0
141
0.0
142
1.0
143
1.0
 70
   688
 72
     0
 73
     0
 74
     5
  7

 75
    16
 76
     0
 77
     2
 78
   300
147
1.0
148
0.0
149
0.0
100
AcDbLayout
  1
Layout1
 70
     1
 71
     1
 10
0.0
 20
0.0
 11
12.0
 21
9.0
 12
0.0
 22
0.0
 32
0.0
 14
1.000000000000000E+20
 24
1.000000000000000E+20
 34
1.000000000000000E+20
 15
-1.000000000000000E+20
 25
-1.000000000000000E+20
 35
-1.000000000000000E+20
146
0.0
 13
0.0
 23
0.0
 33
0.0
 16
1.0
 26
0.0
 36
0.0
 17
0.0
 27
1.0
 37
0.0
 76
     0
330
76B
  0
LAYOUT
  5
776
102
{ACAD_REACTORS
330
76A
102
}
330
76A
100
AcDbPlotSettings
  1

  2
none_device
  4

  6

 40
0.0
 41
0.0
 42
0.0
 43
0.0
 44
0.0
 45
0.0
 46
0.0
 47
0.0
 48
0.0
 49
0.0
140
0.0
141
0.0
142
1.0
143
1.0
 70
   688
 72
     0
 73
     0
 74
     5
  7

 75
    16
 76
     0
 77
     2
 78
   300
147
1.0
148
0.0
149
0.0
100
AcDbLayout
  1
Layout2
 70
     1
 71
     2
 10
0.0
 20
0.0
 11
0.0
 21
0.0
 12
0.0
 22
0.0
 32
0.0
 14
0.0
 24
0.0
 34
0.0
 15
0.0
 25
0.0
 35
0.0
146
0.0
 13
0.0
 23
0.0
 33
0.0
 16
1.0
 26
0.0
 36
0.0
 17
0.0
 27
1.0
 37
0.0
 76
     0
330
773
  0
LAYOUT
  5
772
102
{ACAD_REACTORS
330
76A
102
}
330
76A
100
AcDbPlotSettings
  1

  2
none_device
  4

  6

 40
0.0
 41
0.0
 42
0.0
 43
0.0
 44
0.0
 45
0.0
 46
0.0
 47
0.0
 48
0.0
 49
0.0
140
0.0
141
0.0
142
1.0
143
1.0
 70
  1712
 72
     0
 73
     0
 74
     0
  7

 75
     0
 76
     0
 77
     2
 78
   300
147
1.0
148
0.0
149
0.0
100
AcDbLayout
  1
Model
 70
     1
 71
     0
 10
0.0
 20
0.0
 11
12.0
 21
9.0
 12
0.0
 22
0.0
 32
0.0
 14
1.000000000000000E+20
 24
1.000000000000000E+20
 34
1.000000000000000E+20
 15
-1.000000000000000E+20
 25
-1.000000000000000E+20
 35
-1.000000000000000E+20
146
0.0
 13
0.0
 23
0.0
 33
0.0
 16
1.0
 26
0.0
 36
0.0
 17
0.0
 27
1.0
 37
0.0
 76
     0
330
76F
331
779
  0
MATERIAL
  5
78D
102
{ACAD_REACTORS
330
78B
102
}
330
78B
100
AcDbMaterial
  1
ByBlock
 72
     1
 94
      127
  0
MATERIAL
  5
78C
102
{ACAD_REACTORS
330
78B
102
}
330
78B
100
AcDbMaterial
  1
ByLayer
 72
     1
 94
      127
  0
MATERIAL
  5
78E
102
{ACAD_REACTORS
330
78B
102
}
330
78B
100
AcDbMaterial
  1
Global
 72
     1
 94
      127
  0
MLINESTYLE
  5
768
102
{ACAD_REACTORS
330
767
102
}
330
767
100
AcDbMlineStyle
  2
Standard
 70
     0
  3

 62
   256
 51
90.0
 52
90.0
 71
     2
 49
0.5
 62
   256
  6
BYLAYER
 49
-0.5
 62
   256
  6
BYLAYER
  0
ACDBPLACEHOLDER
  5
760
102
{ACAD_REACTORS
330
75F
102
}
330
75F
  0
VISUALSTYLE
  5
77F
102
{ACAD_REACTORS
330
77A
102
}
330
77A
100
AcDbVisualStyle
  2
2dWireframe
 70
     4
177
     2
291
     0
 71
     0
176
     1
 72
     2
176
     1
 73
     0
176
     1
 90
        0
176
     1
 40
-0.6
176
     1
 41
-30.0
176
     1
 62
     5
 63
     7
421
 16777215
176
     1
 74
     1
176
     1
 91
        4
176
     1
 64
     7
176
     1
 65
   257
176
     1
 75
     1
176
     1
175
     1
176
     1
 42
1.0
176
     1
 92
        0
176
     1
 66
   257
176
     1
 43
1.0
176
     1
 76
     1
176
     1
 77
     6
176
     1
 78
     2
176
     1
 67
     7
176
     1
 79
     5
176
     1
170
     0
176
     1
171
     0
176
     1
290
     0
176
     1
 93
        1
176
     1
 44
0.0
176
     1
173
     0
176
     1
  0
VISUALSTYLE
  5
781
102
{ACAD_REACTORS
330
77A
102
}
330
77A
100
AcDbVisualStyle
  2
3D Hidden
 70
     6
177
     2
291
     0
 71
     1
176
     1
 72
     2
176
     1
 73
     2
176
     1
 90
        0
176
     1
 40
-0.6
176
     1
 41
-30.0
176
     1
 62
     5
 63
     7
421
 16777215
176
     1
 74
     2
176
     1
 91
        2
176
     1
 64
     7
176
     1
 65
   257
176
     1
 75
     2
176
     1
175
     1
176
     1
 42
40.0
176
     1
 92
        0
176
     1
 66
   257
176
     1
 43
1.0
176
     1
 76
     1
176
     1
 77
     6
176
     1
 78
     2
176
     1
 67
     7
176
     1
 79
     3
176
     1
170
     0
176
     1
171
     0
176
     1
290
     0
176
     1
 93
        1
176
     1
 44
0.0
176
     1
173
     0
176
     1
  0
VISUALSTYLE
  5
780
102
{ACAD_REACTORS
330
77A
102
}
330
77A
100
AcDbVisualStyle
  2
3dWireframe
 70
     5
177
     2
291
     0
 71
     0
176
     1
 72
     2
176
     1
 73
     0
176
     1
 90
        0
176
     1
 40
-0.6
176
     1
 41
-30.0
176
     1
 62
     5
 63
     7
421
 16777215
176
     1
 74
     1
176
     1
 91
        4
176
     1
 64
     7
176
     1
 65
   257
176
     1
 75
     1
176
     1
175
     1
176
     1
 42
1.0
176
     1
 92
        0
176
     1
 66
   257
176
     1
 43
1.0
176
     1
 76
     1
176
     1
 77
     6
176
     1
 78
     2
176
     1
 67
     7
176
     1
 79
     5
176
     1
170
     0
176
     1
171
     0
176
     1
290
     0
176
     1
 93
        1
176
     1
 44
0.0
176
     1
173
     0
176
     1
  0
VISUALSTYLE
  5
782
102
{ACAD_REACTORS
330
77A
102
}
330
77A
100
AcDbVisualStyle
  2
Basic
 70
     7
177
     2
291
     1
 71
     1
176
     1
 72
     0
176
     1
 73
     1
176
     1
 90
        0
176
     1
 40
-0.6
176
     1
 41
-30.0
176
     1
 62
     5
 63
     7
421
 16777215
176
     1
 74
     0
176
     1
 91
        4
176
     1
 64
     7
176
     1
 65
   257
176
     1
 75
     1
176
     1
175
     1
176
     1
 42
1.0
176
     1
 92
        8
176
     1
 66
     7
176
     1
 43
1.0
176
     1
 76
     1
176
     1
 77
     6
176
     1
 78
     2
176
     1
 67
     7
176
     1
 79
     5
176
     1
170
     0
176
     1
171
     0
176
     1
290
     0
176
     1
 93
        1
176
     1
 44
0.0
176
     1
173
     0
176
     1
  0
VISUALSTYLE
  5
786
102
{ACAD_REACTORS
330
77A
102
}
330
77A
100
AcDbVisualStyle
  2
Brighten
 70
    12
177
     2
291
     1
 71
     2
176
     1
 72
     2
176
     1
 73
     0
176
     1
 90
        0
176
     1
 40
-0.6
176
     1
 41
-30.0
176
     1
 62
     5
 63
     7
421
 16777215
176
     1
 74
     1
176
     1
 91
        4
176
     1
 64
     7
176
     1
 65
   257
176
     1
 75
     1
176
     1
175
     1
176
     1
 42
1.0
176
     1
 92
        8
176
     1
 66
     7
176
     1
 43
1.0
176
     1
 76
     1
176
     1
 77
     6
176
     1
 78
     2
176
     1
 67
     7
176
     1
 79
     5
176
     1
170
     0
176
     1
171
     0
176
     1
290
     0
176
     1
 93
        1
176
     1
 44
50.0
176
     1
173
     0
176
     1
  0
VISUALSTYLE
  5
78A
102
{ACAD_REACTORS
330
77A
102
}
330
77A
100
AcDbVisualStyle
  2
ColorChange
 70
    16
177
     2
291
     1
 71
     2
176
     1
 72
     2
176
     1
 73
     3
176
     1
 90
        0
176
     1
 40
-0.6
176
     1
 41
-30.0
176
     1
 62
     5
 63
     8
421
  8421504
176
     1
 74
     1
176
     1
 91
        4
176
     1
 64
     7
176
     1
 65
   257
176
     1
 75
     1
176
     1
175
     1
176
     1
 42
1.0
176
     1
 92
        8
176
     1
 66
     8
424
  8421504
176
     1
 43
1.0
176
     1
 76
     1
176
     1
 77
     6
176
     1
 78
     2
176
     1
 67
     7
176
     1
 79
     5
176
     1
170
     0
176
     1
171
     0
176
     1
290
     0
176
     1
 93
        1
176
     1
 44
0.0
176
     1
173
     0
176
     1
  0
VISUALSTYLE
  5
784
102
{ACAD_REACTORS
330
77A
102
}
330
77A
100
AcDbVisualStyle
  2
Conceptual
 70
     9
177
     2
291
     0
 71
     3
176
     1
 72
     2
176
     1
 73
     0
176
     1
 90
        0
176
     1
 40
-0.6
176
     1
 41
-30.0
176
     1
 62
     5
 63
     7
421
 16777215
176
     1
 74
     2
176
     1
 91
        2
176
     1
 64
     7
176
     1
 65
   257
176
     1
 75
     1
176
     1
175
     1
176
     1
 42
40.0
176
     1
 92
        8
176
     1
 66
     7
176
     1
 43
1.0
176
     1
 76
     1
176
     1
 77
     6
176
     1
 78
     2
176
     1
 67
     7
176
     1
 79
     3
176
     1
170
     0
176
     1
171
     0
176
     1
290
     0
176
     1
 93
        1
176
     1
 44
0.0
176
     1
173
     0
176
     1
  0
VISUALSTYLE
  5
785
102
{ACAD_REACTORS
330
77A
102
}
330
77A
100
AcDbVisualStyle
  2
Dim
 70
    11
177
     2
291
     1
 71
     2
176
     1
 72
     2
176
     1
 73
     0
176
     1
 90
        0
176
     1
 40
-0.6
176
     1
 41
-30.0
176
     1
 62
     5
 63
     7
421
 16777215
176
     1
 74
     1
176
     1
 91
        4
176
     1
 64
     7
176
     1
 65
   257
176
     1
 75
     1
176
     1
175
     1
176
     1
 42
1.0
176
     1
 92
        8
176
     1
 66
     7
176
     1
 43
1.0
176
     1
 76
     1
176
     1
 77
     6
176
     1
 78
     2
176
     1
 67
     7
176
     1
 79
     5
176
     1
170
     0
176
     1
171
     0
176
     1
290
     0
176
     1
 93
        1
176
     1
 44
-50.0
176
     1
173
     0
176
     1
  0
VISUALSTYLE
  5
789
102
{ACAD_REACTORS
330
77A
102
}
330
77A
100
AcDbVisualStyle
  2
Facepattern
 70
    15
177
     2
291
     1
 71
     2
176
     1
 72
     2
176
     1
 73
     0
176
     1
 90
        0
176
     1
 40
-0.6
176
     1
 41
-30.0
176
     1
 62
     5
 63
     7
421
 16777215
176
     1
 74
     1
176
     1
 91
        4
176
     1
 64
     7
176
     1
 65
   257
176
     1
 75
     1
176
     1
175
     1
176
     1
 42
1.0
176
     1
 92
        8
176
     1
 66
     7
176
     1
 43
1.0
176
     1
 76
     1
176
     1
 77
     6
176
     1
 78
     2
176
     1
 67
     7
176
     1
 79
     5
176
     1
170
     0
176
     1
171
     0
176
     1
290
     0
176
     1
 93
        1
176
     1
 44
0.0
176
     1
173
     0
176
     1
  0
VISUALSTYLE
  5
77B
102
{ACAD_REACTORS
330
77A
102
}
330
77A
100
AcDbVisualStyle
  2
Flat
 70
     0
177
     2
291
     1
 71
     2
176
     1
 72
     1
176
     1
 73
     1
176
     1
 90
        2
176
     1
 40
-0.6
176
     1
 41
30.0
176
     1
 62
     5
 63
     7
421
 16777215
176
     1
 74
     0
176
     1
 91
        4
176
     1
 64
     7
176
     1
 65
   257
176
     1
 75
     1
176
     1
175
     1
176
     1
 42
1.0
176
     1
 92
        8
176
     1
 66
     7
176
     1
 43
1.0
176
     1
 76
     1
176
     1
 77
     6
176
     1
 78
     2
176
     1
 67
     7
176
     1
 79
     5
176
     1
170
     0
176
     1
171
     0
176
     1
290
     0
176
     1
 93
       13
176
     1
 44
0.0
176
     1
173
     0
176
     1
  0
VISUALSTYLE
  5
77C
102
{ACAD_REACTORS
330
77A
102
}
330
77A
100
AcDbVisualStyle
  2
FlatWithEdges
 70
     1
177
     2
291
     1
 71
     2
176
     1
 72
     1
176
     1
 73
     1
176
     1
 90
        2
176
     1
 40
-0.6
176
     1
 41
30.0
176
     1
 62
     5
 63
     7
421
 16777215
176
     1
 74
     1
176
     1
 91
        4
176
     1
 64
     7
176
     1
 65
   257
176
     1
 75
     1
176
     1
175
     1
176
     1
 42
1.0
176
     1
 92
        0
176
     1
 66
   257
176
     1
 43
1.0
176
     1
 76
     1
176
     1
 77
     6
176
     1
 78
     2
176
     1
 67
     7
176
     1
 79
     5
176
     1
170
     0
176
     1
171
     0
176
     1
290
     0
176
     1
 93
       13
176
     1
 44
0.0
176
     1
173
     0
176
     1
  0
VISUALSTYLE
  5
77D
102
{ACAD_REACTORS
330
77A
102
}
330
77A
100
AcDbVisualStyle
  2
Gouraud
 70
     2
177
     2
291
     1
 71
     2
176
     1
 72
     2
176
     1
 73
     1
176
     1
 90
        2
176
     1
 40
-0.6
176
     1
 41
30.0
176
     1
 62
     5
 63
     7
421
 16777215
176
     1
 74
     0
176
     1
 91
        4
176
     1
 64
     7
176
     1
 65
   257
176
     1
 75
     1
176
     1
175
     1
176
     1
 42
1.0
176
     1
 92
        0
176
     1
 66
     7
176
     1
 43
1.0
176
     1
 76
     1
176
     1
 77
     6
176
     1
 78
     2
176
     1
 67
     7
176
     1
 79
     5
176
     1
170
     0
176
     1
171
     0
176
     1
290
     0
176
     1
 93
       13
176
     1
 44
0.0
176
     1
173
     0
176
     1
  0
VISUALSTYLE
  5
77E
102
{ACAD_REACTORS
330
77A
102
}
330
77A
100
AcDbVisualStyle
  2
GouraudWithEdges
 70
     3
177
     2
291
     1
 71
     2
176
     1
 72
     2
176
     1
 73
     1
176
     1
 90
        2
176
     1
 40
-0.6
176
     1
 41
30.0
176
     1
 62
     5
 63
     7
421
 16777215
176
     1
 74
     1
176
     1
 91
        4
176
     1
 64
     7
176
     1
 65
   257
176
     1
 75
     1
176
     1
175
     1
176
     1
 42
1.0
176
     1
 92
        0
176
     1
 66
   257
176
     1
 43
1.0
176
     1
 76
     1
176
     1
 77
     6
176
     1
 78
     2
176
     1
 67
     7
176
     1
 79
     5
176
     1
170
     0
176
     1
171
     0
176
     1
290
     0
176
     1
 93
       13
176
     1
 44
0.0
176
     1
173
     0
176
     1
  0
VISUALSTYLE
  5
788
102
{ACAD_REACTORS
330
77A
102
}
330
77A
100
AcDbVisualStyle
  2
Linepattern
 70
    14
177
     2
291
     1
 71
     2
176
     1
 72
     2
176
     1
 73
     0
176
     1
 90
        0
176
     1
 40
-0.6
176
     1
 41
-30.0
176
     1
 62
     5
 63
     7
421
 16777215
176
     1
 74
     1
176
     1
 91
        4
176
     1
 64
     7
176
     1
 65
   257
176
     1
 75
     7
176
     1
175
     7
176
     1
 42
1.0
176
     1
 92
        8
176
     1
 66
     7
176
     1
 43
1.0
176
     1
 76
     1
176
     1
 77
     6
176
     1
 78
     2
176
     1
 67
     7
176
     1
 79
     5
176
     1
170
     0
176
     1
171
     0
176
     1
290
     0
176
     1
 93
        1
176
     1
 44
0.0
176
     1
173
     0
176
     1
  0
VISUALSTYLE
  5
783
102
{ACAD_REACTORS
330
77A
102
}
330
77A
100
AcDbVisualStyle
  2
Realistic
 70
     8
177
     2
291
     0
 71
     2
176
     1
 72
     2
176
     1
 73
     0
176
     1
 90
        0
176
     1
 40
-0.6
176
     1
 41
-30.0
176
     1
 62
     5
 63
     7
421
 16777215
176
     1
 74
     1
176
     1
 91
        0
176
     1
 64
     7
176
     1
 65
   257
176
     1
 75
     1
176
     1
175
     1
176
     1
 42
1.0
176
     1
 92
        8
176
     1
 66
     8
424
  7895160
176
     1
 43
1.0
176
     1
 76
     1
176
     1
 77
     6
176
     1
 78
     2
176
     1
 67
     7
176
     1
 79
     5
176
     1
170
     0
176
     1
171
     0
176
     1
290
     0
176
     1
 93
       13
176
     1
 44
0.0
176
     1
173
     0
176
     1
  0
VISUALSTYLE
  5
787
102
{ACAD_REACTORS
330
77A
102
}
330
77A
100
AcDbVisualStyle
  2
Thicken
 70
    13
177
     2
291
     1
 71
     2
176
     1
 72
     2
176
     1
 73
     0
176
     1
 90
        0
176
     1
 40
-0.6
176
     1
 41
-30.0
176
     1
 62
     5
 63
     7
421
 16777215
176
     1
 74
     1
176
     1
 91
        4
176
     1
 64
     7
176
     1
 65
   257
176
     1
 75
     1
176
     1
175
     1
176
     1
 42
1.0
176
     1
 92
       12
176
     1
 66
     7
176
     1
 43
1.0
176
     1
 76
     1
176
     1
 77
     6
176
     1
 78
     2
176
     1
 67
     7
176
     1
 79
     5
176
     1
170
     0
176
     1
171
     0
176
     1
290
     0
176
     1
 93
        1
176
     1
 44
0.0
176
     1
173
     0
176
     1
  0
XRECORD
  5
7A8
102
{ACAD_REACTORS
330
790
102
}
330
790
100
AcDbXrecord
280
     1
1000
White
  0
XRECORD
  5
7A1
102
{ACAD_REACTORS
330
790
102
}
330
790
100
AcDbXrecord
280
     1
1000
Grayscale
  0
XRECORD
  5
79C
102
{ACAD_REACTORS
330
790
102
}
330
790
100
AcDbXrecord
280
     1
 40
0.0
  0
XRECORD
  5
79B
102
{ACAD_REACTORS
330
790
102
}
330
790
100
AcDbXrecord
280
     1
 40
0.0
  0
XRECORD
  5
79E
102
{ACAD_REACTORS
330
790
102
}
330
790
100
AcDbXrecord
280
     1
290
     1
  0
XRECORD
  5
7AD
102
{ACAD_REACTORS
330
790
102
}
330
790
100
AcDbXrecord
280
     1
 40
2.0
  0
XRECORD
  5
7A9
102
{ACAD_REACTORS
330
790
102
}
330
790
100
AcDbXrecord
280
     1
 40
4.0
  0
XRECORD
  5
7AA
102
{ACAD_REACTORS
330
790
102
}
330
790
100
AcDbXrecord
280
     1
290
     1
  0
XRECORD
  5
79D
102
{ACAD_REACTORS
330
790
102
}
330
790
100
AcDbXrecord
280
     1
1000
0.05
  0
XRECORD
  5
7A0
102
{ACAD_REACTORS
330
790
102
}
330
790
100
AcDbXrecord
280
     1
1000
0.05
  0
XRECORD
  5
794
102
{ACAD_REACTORS
330
790
102
}
330
790
100
AcDbXrecord
280
     1
1000
auto
  0
XRECORD
  5
798
102
{ACAD_REACTORS
330
790
102
}
330
790
100
AcDbXrecord
280
     1
1000
auto
  0
XRECORD
  5
799
102
{ACAD_REACTORS
330
790
102
}
330
790
100
AcDbXrecord
280
     1
 90
        1
  0
XRECORD
  5
795
102
{ACAD_REACTORS
330
790
102
}
330
790
100
AcDbXrecord
280
     1
 40
10.0
  0
XRECORD
  5
7A3
102
{ACAD_REACTORS
330
790
102
}
330
790
100
AcDbXrecord
280
     1
 40
10.0
  0
XRECORD
  5
791
102
{ACAD_REACTORS
330
790
102
}
330
790
100
AcDbXrecord
280
     1
 40
10.0
  0
XRECORD
  5
7AF
102
{ACAD_REACTORS
330
790
102
}
330
790
100
AcDbXrecord
280
     1
 40
10.0
  0
XRECORD
  5
793
102
{ACAD_REACTORS
330
790
102
}
330
790
100
AcDbXrecord
280
     1
290
     0
  0
XRECORD
  5
7A5
102
{ACAD_REACTORS
330
790
102
}
330
790
100
AcDbXrecord
280
     1
 90
        1
  0
XRECORD
  5
7AC
102
{ACAD_REACTORS
330
790
102
}
330
790
100
AcDbXrecord
280
     1
 40
-0.8499999999999999
  0
XRECORD
  5
7AE
102
{ACAD_REACTORS
330
790
102
}
330
790
100
AcDbXrecord
280
     1
 40
-3.3
  0
XRECORD
  5
792
102
{ACAD_REACTORS
330
790
102
}
330
790
100
AcDbXrecord
280
     1
1000
Portrait
  0
XRECORD
  5
797
102
{ACAD_REACTORS
330
790
102
}
330
790
100
AcDbXrecord
280
     1
1000
11
 41
0.0
  0
XRECORD
  5
79A
102
{ACAD_REACTORS
330
790
102
}
330
790
100
AcDbXrecord
280
     1
1000
ANSI A (Letter)
  0
XRECORD
  5
7A6
102
{ACAD_REACTORS
330
790
102
}
330
790
100
AcDbXrecord
280
     1
1000
8.5
 41
0.0
  0
XRECORD
  5
796
102
{ACAD_REACTORS
330
790
102
}
330
790
100
AcDbXrecord
280
     1
1000
1
  0
XRECORD
  5
79F
102
{ACAD_REACTORS
330
790
102
}
330
790
100
AcDbXrecord
280
     1
290
     0
  0
XRECORD
  5
7AB
102
{ACAD_REACTORS
330
790
102
}
330
790
100
AcDbXrecord
280
     1
290
     1
  0
XRECORD
  5
7A4
102
{ACAD_REACTORS
330
790
102
}
330
790
100
AcDbXrecord
280
     1
1000

  0
XRECORD
  5
7A2
102
{ACAD_REACTORS
330
790
102
}
330
790
100
AcDbXrecord
280
     1
1000

  0
XRECORD
  5
7A7
102
{ACAD_REACTORS
330
790
102
}
330
790
100
AcDbXrecord
280
     1
 90
        1
  0
ENDSEC
  0
EOF
