/* XPM */
static char * aleph_hebrew_xpm[] = {
"24 32 16 1",
" 	c #000000",
".	c #111111",
"+	c #222222",
"@	c #333333",
"#	c #444444",
"$	c #555555",
"%	c #666666",
"&	c #777777",
"*	c #888888",
"=	c #999999",
"-	c #AAAAAA",
";	c #BBBBBB",
">	c #CCCCCC",
",	c #DDDDDD",
"'	c #EEEEEE",
")	c #FFFFFF",
"))))))))))))))))))))))))",
")),#))))))))))&;))))))))",
"))@ ')))))))), +,)))))))",
");  =))))))))=   @&;))))",
")&  .')))))))*      +>))",
")&   @'))))))=       +))",
")*    #)))))),.       ,)",
"),     %))))))-.      ,)",
"))$     *)))))),*+ .+@')",
"))'+     =))))))'++)))))",
")))>.     ;)))))* -)))))",
"))));     .>)))'.@))))))",
")))))=     +,))= -))))))",
")))))'@     @')#.'))))))",
"))))>+ #     #' #)))))))",
"))); +,)$     @ %)))))))",
"))>. >))'@      $)))))))",
"))@ #))))'+     +)))))))",
")>  $))))),.     =))))))",
")*  +))))));     .>)))))",
")&   ;))))))-     .,))))",
")=   #)))))))*     @')))",
"),    -)))))))%     $)))",
"))+   .')))))))#     =))",
"))*    &)))))))'@    +))",
")),    .'))))))),+    ,)",
")))@    -))))))))>.   ;)",
")))$    *)))))))))-   ,)",
"))'+    =))))))))))# +))",
")'.    #'))))))))))= -))",
"))))))))))))))))))),-)))",
"))))))))))))))))))))))))"};
